<?xml version="1.0" encoding="UTF-8" standalone="no"?>
<!DOCTYPE svg PUBLIC "-//W3C//DTD SVG 1.1//EN" "http://www.w3.org/Graphics/SVG/1.1/DTD/svg11.dtd">
<svg width="100%" height="100%" viewBox="0 0 970 99" version="1.1" xmlns="http://www.w3.org/2000/svg" xmlns:xlink="http://www.w3.org/1999/xlink" xml:space="preserve" xmlns:serif="http://www.serif.com/" style="fill-rule:evenodd;clip-rule:evenodd;stroke-linejoin:round;stroke-miterlimit:2;">
    <g transform="matrix(1,0,0,1,-3098.47,-3661.14)">
        <g transform="matrix(8.33333,0,0,8.33333,0,0)">
            <g transform="matrix(1,0,0,1,378.906,446.015)">
                <path d="M0,-1.609L1.219,-1.609C1.062,-1.703 0.968,-1.89 0.937,-2.171C0.906,-2.515 0.844,-2.781 0.75,-2.968C0.5,-2.437 0.25,-1.984 0,-1.609M-0.187,3.782L0.657,3.782L0.657,2.423L-0.187,2.423L-0.187,3.782ZM-0.187,2.047L0.657,2.047L0.657,0.594L-0.187,0.594L-0.187,2.047ZM-0.187,-0.953L-0.187,0.219L0.656,0.219L0.656,-1.234L-0.141,-1.234C-0.204,-1.14 -0.219,-1.047 -0.187,-0.953M-4.172,-1.375L-4.453,-1.375C-4.484,-1.312 -4.516,-1.265 -4.547,-1.234L-4.547,2.282L-4.172,2.282L-4.172,-1.375ZM-2.203,-4.797L-3.563,-4.797C-3.532,-4.672 -3.563,-4.578 -3.656,-4.515C-3.813,-4.453 -3.891,-4.343 -3.891,-4.187C-4.141,-3.281 -4.453,-2.468 -4.828,-1.75C-4.797,-1.75 -4.766,-1.734 -4.734,-1.703L-4.312,-1.703C-4.031,-2.171 -3.828,-2.406 -3.703,-2.406C-3.422,-2.375 -3.031,-2.156 -2.531,-1.75C-2.344,-1.593 -2.344,-1.422 -2.531,-1.234C-2.688,-1.109 -2.75,-0.968 -2.719,-0.812L-2.719,0.313C-1.781,-0.875 -1.062,-2.343 -0.562,-4.093L-1.172,-4.093C-1.047,-3.75 -1.016,-3.453 -1.078,-3.203C-1.266,-2.64 -1.625,-2.406 -2.156,-2.5C-2.688,-2.687 -2.813,-3.015 -2.531,-3.484C-2.281,-3.859 -2.125,-4.328 -2.063,-4.89C-2.125,-4.828 -2.172,-4.797 -2.203,-4.797M1.312,-4.468L2.625,-4.468C2.906,-4.937 3.141,-5.187 3.328,-5.218C3.797,-5.031 4.266,-4.672 4.734,-4.14C4.828,-3.984 4.828,-3.875 4.734,-3.812C4.703,-3.718 4.578,-3.687 4.359,-3.718C3.921,-3.656 3.422,-3.39 2.859,-2.921C2.766,-2.828 2.688,-2.781 2.625,-2.781C2.562,-2.812 2.547,-2.89 2.578,-3.015L2.766,-4.093L1.219,-4.093C1.156,-3.968 1.078,-3.812 0.984,-3.625C0.921,-3.5 0.891,-3.406 0.891,-3.343C1.641,-3.312 2.14,-3.062 2.391,-2.593C2.515,-2.125 2.375,-1.796 1.969,-1.609L2.625,-1.609C2.937,-2.109 3.156,-2.375 3.281,-2.406C3.593,-2.281 3.968,-2.015 4.406,-1.609C4.5,-1.39 4.453,-1.265 4.266,-1.234L2.297,-1.234L2.297,0.219L2.484,0.219C2.796,-0.281 3.016,-0.547 3.141,-0.578C3.453,-0.453 3.828,-0.187 4.266,0.219C4.359,0.438 4.328,0.563 4.172,0.594L2.297,0.594L2.297,2.047L2.484,2.047C2.796,1.547 3.016,1.282 3.141,1.25C3.453,1.375 3.828,1.641 4.266,2.047C4.359,2.266 4.312,2.391 4.125,2.422L2.297,2.422L2.297,3.782L2.906,3.782C3.218,3.313 3.422,3.078 3.516,3.078C3.859,3.203 4.25,3.438 4.687,3.782C4.781,3.969 4.734,4.094 4.547,4.157L-0.187,4.157L-0.187,4.391C-0.187,4.703 -0.328,4.891 -0.609,4.953C-0.891,5.047 -1.219,5.094 -1.594,5.094C-1.844,5.063 -1.953,4.938 -1.922,4.719C-1.859,3.969 -1.828,3.125 -1.828,2.188L-1.828,0.454C-2.109,0.704 -2.407,0.907 -2.719,1.063L-2.719,2.703C-2.688,3.016 -2.782,3.203 -3,3.266C-3.219,3.36 -3.438,3.422 -3.656,3.453C-4.031,3.453 -4.203,3.344 -4.172,3.125L-4.172,2.563L-4.547,2.563L-4.547,3.313C-4.516,3.594 -4.672,3.813 -5.016,3.969L-5.297,3.969C-5.454,4 -5.609,4.047 -5.766,4.11C-6.172,4.172 -6.344,4 -6.281,3.594C-6.25,2.75 -6.219,1.86 -6.187,0.922L-6.187,0.266C-6.375,0.485 -6.562,0.657 -6.75,0.782C-6.875,0.907 -6.954,0.954 -6.984,0.922C-7.047,0.891 -7.031,0.797 -6.937,0.641C-6.125,-1.14 -5.656,-2.953 -5.531,-4.797L-5.906,-4.797C-6.157,-4.765 -6.391,-4.734 -6.609,-4.703C-6.734,-4.672 -6.813,-4.703 -6.844,-4.797L-6.984,-4.937C-7.047,-5 -7.078,-5.062 -7.078,-5.125C-7.109,-5.218 -7.078,-5.265 -6.984,-5.265C-6.579,-5.203 -6.157,-5.172 -5.719,-5.172L-4.219,-5.172C-3.813,-5.765 -3.547,-6.062 -3.422,-6.062C-3.141,-6 -2.719,-5.718 -2.156,-5.218C-2.156,-5.187 -2.141,-5.156 -2.109,-5.125C-2.109,-5.093 -2.094,-5.062 -2.063,-5.031C-2.032,-5.187 -1.938,-5.203 -1.781,-5.078C-1.625,-4.859 -1.516,-4.703 -1.453,-4.609L-1.312,-4.468L-0.516,-4.468C-0.453,-4.812 -0.406,-5.156 -0.375,-5.5C-0.344,-5.812 -0.312,-6.125 -0.281,-6.437C-0.312,-6.625 -0.204,-6.703 0.047,-6.671C1.015,-6.484 1.687,-6.343 2.063,-6.25C2.281,-6.062 2.281,-5.89 2.063,-5.734C1.75,-5.703 1.594,-5.593 1.594,-5.406C1.5,-5.062 1.406,-4.75 1.312,-4.468" style="fill:rgb(157,73,94);fill-rule:nonzero;"/>
            </g>
        </g>
        <g transform="matrix(8.33333,0,0,8.33333,0,0)">
            <g transform="matrix(1,0,0,1,398.894,441.984)">
                <path d="M0,6.453C-0.063,5.609 -0.234,4.953 -0.516,4.484C-0.609,4.422 -0.641,4.359 -0.609,4.297C-0.579,4.265 -0.5,4.265 -0.375,4.297C0.593,4.672 1.219,5.187 1.5,5.844C1.625,6.5 1.453,6.937 0.984,7.156C0.391,7.344 0.062,7.109 0,6.453M-0.656,-1.188L-1.547,-1.188C-1.61,0.156 -1.875,1.156 -2.344,1.812C-1.344,1.937 -0.844,1.687 -0.844,1.062C-0.813,0.687 -0.781,0.281 -0.75,-0.156C-0.719,-0.594 -0.687,-0.938 -0.656,-1.188M-2.016,5.141C-2.141,4.359 -2.313,3.797 -2.531,3.453C-2.594,3.39 -2.609,3.328 -2.578,3.265C-2.547,3.234 -2.469,3.219 -2.344,3.219C-1.531,3.437 -0.954,3.937 -0.609,4.719C-0.516,5.25 -0.703,5.594 -1.172,5.75C-1.734,5.906 -2.016,5.703 -2.016,5.141M-2.063,7.484L-1.406,7.484C-1.062,7.515 -0.813,7.094 -0.656,6.219C-0.656,6.031 -0.594,5.937 -0.469,5.937C-0.375,5.937 -0.312,6.031 -0.281,6.219C-0.219,6.875 -0.078,7.297 0.141,7.484C0.546,7.734 0.593,8.047 0.281,8.422C-0.157,8.766 -0.703,8.937 -1.359,8.937L-2.672,8.937C-3.672,9 -4.141,8.516 -4.078,7.484L-4.078,5.656C-4.109,5.156 -4.141,4.719 -4.172,4.344C-4.266,4.031 -4.141,3.906 -3.797,3.969C-3.328,4.031 -2.891,4.094 -2.484,4.156C-2.172,4.312 -2.125,4.484 -2.344,4.672C-2.469,4.766 -2.516,4.859 -2.484,4.953L-2.484,7.015C-2.516,7.328 -2.375,7.484 -2.063,7.484M-5.297,0.594C-4.922,0.437 -4.594,0.047 -4.312,-0.578C-4.282,-0.641 -4.25,-0.688 -4.219,-0.719C-4.156,-0.688 -4.109,-0.641 -4.078,-0.578C-3.766,0.297 -3.75,0.984 -4.031,1.484C-4.5,2.047 -4.969,2.141 -5.437,1.766C-5.844,1.297 -5.797,0.906 -5.297,0.594M-5.812,6.547C-5.407,6.203 -5.172,5.531 -5.109,4.531C-5.109,4.406 -5.079,4.344 -5.016,4.344C-4.953,4.344 -4.875,4.39 -4.781,4.484C-4.282,5.641 -4.156,6.562 -4.406,7.25C-4.781,7.75 -5.219,7.859 -5.719,7.578C-6.063,7.328 -6.094,6.984 -5.812,6.547M-3.328,-1.188L-3.891,-1.188C-4.203,-1.156 -4.516,-1.125 -4.828,-1.094C-4.922,-1.063 -4.985,-1.094 -5.016,-1.188C-5.109,-1.219 -5.187,-1.328 -5.25,-1.516C-5.313,-1.61 -5.281,-1.656 -5.156,-1.656C-4.875,-1.563 -4.329,-1.531 -3.516,-1.563L-0.891,-1.563C-0.672,-1.969 -0.469,-2.188 -0.281,-2.219C0.031,-2.156 0.546,-1.922 1.266,-1.516C1.453,-1.297 1.469,-1.094 1.312,-0.906C1.125,-0.813 1.047,-0.703 1.078,-0.578C1.015,-0.109 0.968,0.344 0.937,0.781C0.906,1.219 0.875,1.578 0.844,1.859C0.687,2.734 0.062,3.25 -1.031,3.406C-1.375,3.5 -1.563,3.406 -1.594,3.125C-1.719,2.656 -2.032,2.328 -2.531,2.141L-2.578,2.141C-3.234,2.922 -4.297,3.515 -5.766,3.922C-5.891,3.953 -5.969,3.937 -6,3.875C-6.031,3.844 -5.984,3.781 -5.859,3.687C-4.109,2.812 -3.266,1.187 -3.328,-1.188M-7.547,5.187L-7.875,5.187C-8.063,5.187 -8.141,5.266 -8.109,5.422L-8.109,7.344L-7.547,7.344L-7.547,5.187ZM-7.547,7.625L-8.109,7.625L-8.109,8.094C-8.141,8.406 -8.36,8.625 -8.766,8.75C-8.984,8.781 -9.204,8.828 -9.422,8.891C-9.734,8.922 -9.86,8.766 -9.797,8.422C-9.766,8.109 -9.75,7.484 -9.75,6.547L-9.75,6.078C-9.75,5.328 -9.766,4.828 -9.797,4.578C-9.86,4.328 -9.75,4.219 -9.469,4.25C-9.375,4.312 -9.266,4.359 -9.141,4.39C-8.672,4.547 -8.297,4.687 -8.016,4.812L-7.734,4.812C-7.484,4.375 -7.282,4.14 -7.125,4.109C-6.75,4.172 -6.328,4.422 -5.859,4.859C-5.735,5.078 -5.75,5.25 -5.906,5.375C-6.031,5.5 -6.094,5.625 -6.094,5.75L-6.094,5.891C-6.125,6.89 -6.11,7.562 -6.047,7.906C-6.047,8.156 -6.125,8.344 -6.281,8.469C-6.438,8.531 -6.703,8.609 -7.078,8.703C-7.422,8.734 -7.578,8.594 -7.547,8.281L-7.547,7.625ZM-8.625,3.031L-7.359,3.031C-7.141,2.562 -6.937,2.297 -6.75,2.234C-6.562,2.297 -6.25,2.547 -5.812,2.984C-5.719,3.234 -5.766,3.359 -5.953,3.359L-8.766,3.359C-9.11,3.39 -9.359,3.422 -9.516,3.453C-9.579,3.484 -9.625,3.484 -9.656,3.453C-9.688,3.422 -9.703,3.39 -9.703,3.359C-9.734,3.359 -9.766,3.328 -9.797,3.265C-9.828,3.203 -9.86,3.14 -9.891,3.078C-9.954,2.984 -9.922,2.937 -9.797,2.937C-9.485,3 -9.094,3.031 -8.625,3.031M-8.719,1.203L-7.359,1.203C-7.109,0.703 -6.907,0.437 -6.75,0.406C-6.562,0.469 -6.234,0.734 -5.766,1.203C-5.735,1.453 -5.797,1.578 -5.953,1.578L-8.859,1.578C-9.172,1.609 -9.422,1.641 -9.609,1.672C-9.672,1.734 -9.719,1.703 -9.75,1.578C-9.813,1.516 -9.875,1.422 -9.938,1.297C-10,1.266 -10.031,1.234 -10.031,1.203C-10,1.203 -9.954,1.187 -9.891,1.156C-9.734,1.219 -9.344,1.234 -8.719,1.203M-7.828,-0.438L-7.125,-0.438C-6.781,-1.063 -6.562,-1.375 -6.469,-1.375C-6.157,-1.25 -5.797,-0.938 -5.391,-0.438C-5.297,-0.281 -5.328,-0.172 -5.484,-0.109L-9.188,-0.109C-9.438,-0.078 -9.641,-0.047 -9.797,-0.016C-9.922,0.016 -10,-0.016 -10.031,-0.109C-10.094,-0.141 -10.156,-0.219 -10.219,-0.344L-10.219,-0.484C-10.282,-0.516 -10.25,-0.547 -10.125,-0.578C-9.907,-0.484 -9.532,-0.438 -9,-0.438L-8.25,-0.438C-8.625,-0.531 -8.813,-0.75 -8.813,-1.094C-8.782,-1.469 -8.859,-1.875 -9.047,-2.313L-9.094,-2.313C-9.157,-2.469 -9.078,-2.547 -8.859,-2.547C-8.109,-2.485 -7.563,-2.235 -7.219,-1.797C-7.031,-1.109 -7.235,-0.656 -7.828,-0.438" style="fill:rgb(157,73,94);fill-rule:nonzero;"/>
            </g>
        </g>
        <g transform="matrix(8.33333,0,0,8.33333,0,0)">
            <g transform="matrix(1,0,0,1,413.068,449.296)">
                <path d="M0,-8.312C0,-8.812 -0.125,-9.218 -0.375,-9.531C-0.437,-9.593 -0.453,-9.64 -0.422,-9.671C-0.391,-9.703 -0.328,-9.734 -0.234,-9.765C0.766,-9.703 1.359,-9.359 1.547,-8.734C1.672,-8.046 1.406,-7.656 0.75,-7.562C0.219,-7.531 -0.031,-7.781 0,-8.312M-1.172,-1.234L-0.141,-1.234L-0.141,-2.921L-1.172,-2.921L-1.172,-1.234ZM-1.172,-3.25L-0.141,-3.25L-0.141,-4.984L-1.172,-4.984L-1.172,-3.25ZM-1.172,-6.671L-1.172,-5.359L-0.141,-5.359L-0.141,-7.046L-1.078,-7.046C-1.141,-6.953 -1.172,-6.828 -1.172,-6.671M-5.906,-7.562C-6.094,-8.187 -6.406,-8.718 -6.844,-9.156C-6.937,-9.218 -6.984,-9.281 -6.984,-9.343C-6.953,-9.406 -6.875,-9.453 -6.75,-9.484C-5.406,-9.546 -4.531,-9.281 -4.125,-8.687C-3.875,-7.968 -4.094,-7.421 -4.781,-7.046C-5.312,-6.89 -5.687,-7.062 -5.906,-7.562M-2.813,-4.984L-2.813,-5.968C-3.063,-5.687 -3.375,-5.406 -3.75,-5.124L-3.75,-5.078C-3.75,-4.984 -3.813,-4.874 -3.938,-4.749L-3.984,-4.703C-4.109,-4.64 -4.172,-4.531 -4.172,-4.374L-4.172,-1.843C-4.297,-0.75 -3.516,-0.203 -1.828,-0.203C-1.078,-0.14 -0.109,-0.124 1.078,-0.156C2.203,-0.187 3.031,-0.249 3.563,-0.343C3.813,-0.375 3.969,-0.39 4.031,-0.39L4.172,-0.39C4.266,-0.296 4.219,-0.171 4.031,-0.015C3.625,0.204 3.391,0.547 3.328,1.016C3.328,1.329 3.141,1.469 2.766,1.438L1.641,1.438C-0.141,1.438 -1.312,1.407 -1.875,1.344C-3.063,1.157 -3.953,0.532 -4.547,-0.531C-4.672,-0.75 -4.828,-0.765 -5.016,-0.578C-5.703,0.297 -6.016,0.829 -5.953,1.016C-6.047,1.329 -6.219,1.422 -6.469,1.297C-6.844,0.954 -7.172,0.594 -7.453,0.219C-7.609,0.157 -7.562,0.016 -7.312,-0.203C-6.156,-0.89 -5.656,-1.39 -5.812,-1.703L-5.812,-4.937L-6.562,-4.937L-7.219,-4.843C-7.312,-4.781 -7.375,-4.796 -7.406,-4.89C-7.437,-4.89 -7.469,-4.921 -7.5,-4.984C-7.562,-5.078 -7.594,-5.171 -7.594,-5.265C-7.656,-5.359 -7.641,-5.39 -7.547,-5.359C-7.141,-5.296 -6.75,-5.265 -6.375,-5.265L-5.953,-5.265L-5.906,-5.359C-5.594,-5.796 -5.375,-6.015 -5.25,-6.015C-5.031,-5.984 -4.687,-5.812 -4.219,-5.499C-3.531,-6.562 -3.031,-7.89 -2.719,-9.484C-2.688,-9.703 -2.563,-9.781 -2.344,-9.718C-1.906,-9.562 -1.406,-9.359 -0.844,-9.109C-0.656,-8.859 -0.687,-8.671 -0.937,-8.546C-1.125,-8.515 -1.25,-8.406 -1.312,-8.218C-1.406,-7.968 -1.5,-7.765 -1.594,-7.609C-1.406,-7.546 -1.25,-7.515 -1.125,-7.515C-1.062,-7.453 -1,-7.406 -0.937,-7.375L1.734,-7.375C1.984,-7.937 2.234,-8.25 2.484,-8.312C2.766,-8.25 3.219,-7.937 3.844,-7.375C3.906,-7.156 3.844,-7.046 3.656,-7.046L1.828,-7.046C1.828,-6.984 1.781,-6.921 1.687,-6.859C1.531,-6.765 1.469,-6.64 1.5,-6.484L1.5,-5.359L1.547,-5.359C1.859,-5.921 2.094,-6.218 2.25,-6.249C2.594,-6.187 3.047,-5.906 3.609,-5.406C3.672,-5.156 3.625,-5.015 3.469,-4.984L1.5,-4.984L1.5,-3.25L1.594,-3.25C1.906,-3.812 2.156,-4.125 2.344,-4.187C2.594,-4.125 3.031,-3.812 3.656,-3.25C3.719,-3.031 3.672,-2.921 3.516,-2.921L1.5,-2.921L1.5,-1.234L1.641,-1.234C2.109,-1.859 2.391,-2.171 2.484,-2.171C2.766,-2.14 3.219,-1.828 3.844,-1.234C3.906,-1.046 3.844,-0.937 3.656,-0.906L-1.172,-0.906C-1.203,-0.718 -1.328,-0.593 -1.547,-0.531C-1.578,-0.5 -1.625,-0.484 -1.687,-0.484C-1.937,-0.453 -2.188,-0.437 -2.438,-0.437C-2.938,-0.312 -3.125,-0.531 -3,-1.093C-2.969,-1.656 -2.938,-2.281 -2.906,-2.968C-2.875,-3.625 -2.844,-4.296 -2.813,-4.984" style="fill:rgb(157,73,94);fill-rule:nonzero;"/>
            </g>
        </g>
        <g transform="matrix(8.33333,0,0,8.33333,0,0)">
            <g transform="matrix(1,0,0,1,425.135,449.829)">
                <path d="M0,-9.36C0.281,-9.579 0.562,-9.766 0.844,-9.922C1.062,-10.047 1.266,-10.063 1.453,-9.969C2.703,-9.188 3.75,-7.813 4.594,-5.844C5.594,-3.719 6.984,-2.329 8.766,-1.673C8.891,-1.61 8.969,-1.516 9,-1.391C9,-1.266 8.938,-1.172 8.813,-1.11C8.344,-0.86 7.844,-0.376 7.312,0.343C7.125,0.562 6.937,0.593 6.75,0.437C5.5,-0.282 4.469,-2.157 3.656,-5.188C3.625,-5.188 3.594,-5.219 3.563,-5.282L3.563,-5.422C2.688,-2.641 0.625,-0.61 -2.625,0.671C-2.781,0.703 -2.875,0.687 -2.906,0.624C-2.938,0.562 -2.891,0.484 -2.766,0.39C-0.234,-1.516 1.453,-4.235 2.297,-7.766C1.641,-8.454 0.922,-8.844 0.141,-8.938C-0.016,-8.938 -0.109,-8.985 -0.141,-9.079C-0.172,-9.173 -0.125,-9.266 0,-9.36" style="fill:rgb(157,73,94);fill-rule:nonzero;"/>
            </g>
        </g>
        <g transform="matrix(8.33333,0,0,8.33333,0,0)">
            <g transform="matrix(1,0,0,1,448.122,447.062)">
                <path d="M0,-3.406L-1.734,-3.406C-1.922,-3.156 -1.953,-3.125 -1.828,-3.312C-1.953,-3.125 -2.094,-2.969 -2.25,-2.844C-2.031,-2.656 -1.844,-2.515 -1.687,-2.422C-1.687,-2.265 -1.766,-2.156 -1.922,-2.094C-2.078,-2.031 -2.141,-1.922 -2.109,-1.765C-2.109,-1.672 -2.125,-1.547 -2.156,-1.39L-2.156,-0.922L-0.891,-0.922L-0.891,-1.062C-0.922,-1.5 -0.953,-1.89 -0.984,-2.234C-1.078,-2.453 -1.016,-2.562 -0.797,-2.562C-0.734,-2.531 -0.641,-2.515 -0.516,-2.515C-0.391,-2.484 -0.281,-2.469 -0.187,-2.469L0,-3.406ZM-0.891,1.563L-0.891,-0.547L-2.156,-0.547C-2.219,0.735 -2.297,1.719 -2.391,2.406L-1.594,2.406C-1.094,2.469 -0.859,2.188 -0.891,1.563M-2.156,-4.531L-3.703,-4.531C-3.672,-4.437 -3.719,-4.343 -3.844,-4.25C-3.938,-4.187 -3.969,-4.031 -3.938,-3.781C-3.938,-3.625 -3.953,-3.422 -3.984,-3.172L-3.984,-2.703L-3.797,-2.703C-3.766,-2.765 -3.75,-2.781 -3.75,-2.75C-3.5,-3.125 -3.328,-3.312 -3.234,-3.312C-3.203,-3.312 -3.016,-3.219 -2.672,-3.031C-2.484,-3.5 -2.313,-4 -2.156,-4.531M-3.656,-2.328L-3.984,-2.328C-4.141,-0.203 -4.516,1.344 -5.109,2.313C-4.328,2.375 -3.922,2.156 -3.891,1.656C-3.828,0.938 -3.766,-0.172 -3.703,-1.672C-3.703,-1.89 -3.688,-2.109 -3.656,-2.328M-5.109,-5.609C-5.078,-6.203 -5.203,-6.672 -5.484,-7.015C-5.578,-7.14 -5.531,-7.219 -5.344,-7.25C-4.281,-7.062 -3.656,-6.719 -3.469,-6.219C-3.406,-5.625 -3.672,-5.234 -4.266,-5.047C-4.766,-4.984 -5.047,-5.172 -5.109,-5.609M-0.375,-5.656L0.422,-5.656C0.734,-6.187 1,-6.5 1.219,-6.594C1.594,-6.469 2.063,-6.14 2.625,-5.609C2.719,-5.422 2.656,-5.312 2.438,-5.281L-0.562,-5.281C-0.812,-4.75 -1.109,-4.25 -1.453,-3.781L0,-3.781C0.25,-4.281 0.469,-4.547 0.656,-4.578C1.094,-4.453 1.656,-4.062 2.344,-3.406C2.406,-3.281 2.422,-3.156 2.391,-3.031C2.359,-3 2.328,-2.984 2.297,-2.984C2.203,-2.922 2.094,-2.906 1.969,-2.937C1.437,-2.969 0.922,-2.781 0.422,-2.375C0.453,-2.344 0.516,-2.328 0.609,-2.328C0.703,-2.297 0.781,-2.281 0.844,-2.281C1.125,-2.125 1.172,-1.969 0.984,-1.812C0.828,-1.781 0.766,-1.656 0.797,-1.437C0.734,-1.281 0.719,-1.109 0.75,-0.922L0.844,-0.922C1.094,-1.422 1.328,-1.703 1.547,-1.765C1.797,-1.703 2.188,-1.406 2.719,-0.875C2.781,-0.656 2.719,-0.547 2.531,-0.547L0.75,-0.547L0.75,1.094C0.781,1.688 0.797,2.094 0.797,2.313C0.828,3 0.641,3.438 0.234,3.625C-0.078,3.781 -0.391,3.891 -0.703,3.953C-1.141,4.078 -1.375,3.969 -1.406,3.625C-1.5,3.25 -1.812,2.969 -2.344,2.781C-2.406,2.781 -2.438,2.766 -2.438,2.735C-2.594,3.203 -3.063,3.531 -3.844,3.719C-4.187,3.781 -4.375,3.703 -4.406,3.485C-4.531,3.047 -4.828,2.735 -5.297,2.547L-5.344,2.547C-5.781,3.047 -6.297,3.453 -6.891,3.766C-7.109,3.828 -7.219,3.844 -7.219,3.813C-7.281,3.719 -7.25,3.61 -7.125,3.485C-6.469,2.797 -6.031,1.906 -5.812,0.813C-5.562,-0.312 -5.437,-2.094 -5.437,-4.531L-5.859,-4.531L-5.859,-4.39C-5.891,-4.328 -5.906,-4.265 -5.906,-4.203C-6.5,-1.828 -6.797,-0.406 -6.797,0.063C-6.828,0.719 -6.734,1.281 -6.516,1.75C-6.391,2.188 -6.484,2.61 -6.797,3.016C-7.016,3.235 -7.344,3.328 -7.781,3.297C-8.438,3.11 -8.641,2.703 -8.391,2.078C-8.203,1.672 -8.125,1.219 -8.156,0.719C-8.188,0.469 -8.359,0.266 -8.672,0.11C-8.828,0.016 -8.891,-0.078 -8.859,-0.172C-8.859,-0.265 -8.781,-0.312 -8.625,-0.312C-8.094,-0.187 -7.719,-0.343 -7.5,-0.781C-7.031,-1.844 -6.594,-3.078 -6.187,-4.484C-6.219,-4.453 -6.25,-4.468 -6.281,-4.531C-6.344,-4.625 -6.391,-4.718 -6.422,-4.812L-6.469,-4.765C-6.969,-4.64 -7.297,-4.781 -7.453,-5.187C-7.547,-5.75 -7.781,-6.219 -8.156,-6.594C-8.25,-6.625 -8.281,-6.672 -8.25,-6.734C-8.219,-6.765 -8.156,-6.797 -8.063,-6.828C-6.937,-6.859 -6.234,-6.625 -5.953,-6.125C-5.797,-5.687 -5.875,-5.297 -6.187,-4.953C-6.062,-4.953 -5.844,-4.937 -5.531,-4.906L-3.609,-4.906C-3.359,-5.375 -3.156,-5.64 -3,-5.703C-2.813,-5.672 -2.484,-5.437 -2.016,-5C-1.953,-5.312 -1.891,-5.656 -1.828,-6.031C-1.797,-6.406 -1.75,-6.797 -1.687,-7.203C-1.719,-7.39 -1.625,-7.484 -1.406,-7.484C-0.5,-7.297 0.078,-7.187 0.328,-7.156C0.516,-6.937 0.5,-6.765 0.281,-6.64C0.062,-6.578 -0.094,-6.39 -0.187,-6.078C-0.219,-6.015 -0.25,-5.937 -0.281,-5.844C-0.344,-5.75 -0.375,-5.687 -0.375,-5.656M-8.484,-2.562C-8.547,-3.156 -8.719,-3.609 -9,-3.922C-9.094,-4.047 -9.063,-4.125 -8.906,-4.156C-7.844,-4.093 -7.187,-3.828 -6.937,-3.359C-6.812,-2.734 -7.047,-2.312 -7.641,-2.094C-8.141,-2 -8.422,-2.156 -8.484,-2.562" style="fill:rgb(157,73,94);fill-rule:nonzero;"/>
            </g>
        </g>
        <g transform="matrix(8.33333,0,0,8.33333,0,0)">
            <g transform="matrix(1,0,0,1,461.969,448.078)">
                <path d="M0,-5.828L-1.359,-5.828C-1.422,-5.734 -1.469,-5.687 -1.5,-5.687C-1.562,-5.625 -1.594,-5.516 -1.594,-5.359L-1.594,-4.937L-1.266,-4.984C-1.078,-5.359 -0.906,-5.609 -0.75,-5.734C-0.625,-5.703 -0.391,-5.594 -0.047,-5.406L0,-5.828ZM-1.594,-4.609C-1.687,-4.234 -1.484,-4.078 -0.984,-4.141C-0.703,-4.078 -0.531,-4.281 -0.469,-4.75C-0.625,-4.719 -1,-4.672 -1.594,-4.609M-0.469,-1.516L-2.25,-1.516C-2.344,-1.422 -2.375,-1.297 -2.344,-1.141L-2.344,-0.672L-0.469,-0.672L-0.469,-1.516ZM-3.891,-5.5L-3.891,-4.656C-3.766,-4.625 -3.656,-4.641 -3.563,-4.703L-2.953,-4.75L-2.953,-5.828L-3.75,-5.828C-3.844,-5.766 -3.891,-5.656 -3.891,-5.5M4.031,-4.703L3.234,-4.562L3.234,-3.484C3.266,-3.047 3.297,-2.719 3.328,-2.5C3.453,-2.906 3.578,-3.344 3.703,-3.812C3.734,-4 3.859,-4.062 4.078,-4C4.734,-3.719 5.219,-3.5 5.531,-3.344C5.75,-3.156 5.734,-2.984 5.484,-2.828C5.203,-2.734 5.016,-2.562 4.922,-2.312C4.547,-1.437 4.125,-0.703 3.656,-0.109C3.906,0.609 4.156,0.969 4.406,0.969C4.625,0.969 4.891,0.547 5.203,-0.297C5.297,-0.516 5.375,-0.609 5.437,-0.578C5.531,-0.547 5.562,-0.422 5.531,-0.203C5.437,0.141 5.391,0.5 5.391,0.875C5.391,1.219 5.422,1.5 5.484,1.719C5.703,2.531 5.5,2.922 4.875,2.891C3.813,2.828 3,2.235 2.438,1.109C1.625,1.641 0.625,2.078 -0.562,2.422C-0.687,2.453 -0.766,2.422 -0.797,2.328C-0.828,2.235 -0.781,2.172 -0.656,2.141C-0.312,1.953 0.156,1.688 0.75,1.344L0.891,1.203C-0.609,1.672 -1.937,2.078 -3.094,2.422C-3.219,2.422 -3.328,2.469 -3.422,2.563C-3.672,2.75 -3.828,2.719 -3.891,2.469C-4.047,2.156 -4.172,1.797 -4.266,1.391C-4.328,1.266 -4.234,1.203 -3.984,1.203C-3.547,1.234 -3.172,1.219 -2.859,1.156L-2.906,1.109L-2.906,0.969C-2.969,0.719 -3.109,0.453 -3.328,0.172C-3.391,0.078 -3.344,0.031 -3.188,0.031C-2.469,0.094 -2,0.297 -1.781,0.641C-1.75,0.797 -1.75,0.953 -1.781,1.109C-1.562,1.078 -1.328,1.063 -1.078,1.063C-0.953,0.625 -0.859,0.25 -0.797,-0.062C-0.828,-0.25 -0.719,-0.297 -0.469,-0.203C-0.437,-0.203 -0.406,-0.187 -0.375,-0.156C-0.437,-0.187 -0.469,-0.25 -0.469,-0.344L-2.391,-0.344C-2.422,-0.281 -2.5,-0.234 -2.625,-0.203C-2.906,-0.109 -3.094,-0.062 -3.188,-0.062C-3.469,0.031 -3.594,-0.078 -3.563,-0.391L-3.563,-1.094C-3.563,-1.281 -3.578,-1.547 -3.609,-1.89C-3.641,-2.015 -3.641,-2.094 -3.609,-2.125C-3.578,-2.156 -3.484,-2.172 -3.328,-2.172C-2.891,-2.047 -2.531,-1.937 -2.25,-1.844C-2.281,-1.781 -2.266,-1.766 -2.203,-1.797L-0.609,-1.797C-0.391,-2.14 -0.203,-2.312 -0.047,-2.312C0.391,-2.156 0.75,-1.906 1.031,-1.562C1.031,-1.406 0.984,-1.312 0.891,-1.281C0.859,-1.25 0.828,-1.234 0.797,-1.234C0.703,-1.172 0.672,-1.094 0.703,-1L0.703,-0.766C0.734,-0.672 0.75,-0.609 0.75,-0.578C0.812,-0.359 0.734,-0.234 0.516,-0.203C0.328,-0.141 0.141,-0.109 -0.047,-0.109L-0.234,-0.109C-0.203,-0.078 -0.156,-0.047 -0.094,-0.016C0.062,0.016 0.266,0.094 0.516,0.219C0.578,0.281 0.609,0.359 0.609,0.453C0.578,0.516 0.516,0.547 0.422,0.547C0.266,0.578 0.156,0.641 0.094,0.734C0.031,0.797 -0.031,0.875 -0.094,0.969L0.328,0.969C0.516,0.938 0.672,0.906 0.797,0.875C0.953,0.906 1.062,0.938 1.125,0.969C1.437,0.656 1.75,0.313 2.063,-0.062C1.969,-0.312 1.906,-0.531 1.875,-0.719L1.875,-1.328C1.781,-1.922 1.719,-2.953 1.687,-4.422L1.125,-4.375C1.094,-4.344 1.047,-4.328 0.984,-4.328C0.859,-4.297 0.781,-4.266 0.75,-4.234C0.656,-4.203 0.594,-4.219 0.562,-4.281C0.437,-4.375 0.359,-4.5 0.328,-4.656C0.234,-4.75 0.25,-4.781 0.375,-4.75C0.75,-4.719 1.078,-4.734 1.359,-4.797L1.687,-4.797C1.687,-5.047 1.672,-5.453 1.641,-6.015L1.641,-7.094C1.609,-7.531 1.578,-7.922 1.547,-8.266C1.453,-8.516 1.547,-8.641 1.828,-8.641C1.922,-8.609 2.125,-8.578 2.438,-8.547C2.938,-8.484 3.266,-8.453 3.422,-8.453C3.609,-8.297 3.609,-8.141 3.422,-7.984C3.391,-7.984 3.344,-7.937 3.281,-7.844C4,-7.875 4.516,-7.75 4.828,-7.469C5.172,-7 5.094,-6.562 4.594,-6.156C4.094,-5.937 3.75,-6.078 3.563,-6.578C3.5,-6.89 3.391,-7.14 3.234,-7.328L3.234,-4.984L3.609,-4.984C3.891,-5.609 4.141,-5.953 4.359,-6.015C4.609,-5.984 5.031,-5.703 5.625,-5.172C5.75,-4.891 5.719,-4.75 5.531,-4.75C4.906,-4.75 4.406,-4.734 4.031,-4.703M0.797,-7.047L-1.406,-7.047L-1.406,-6.203L-0.094,-6.203C0.094,-6.515 0.266,-6.687 0.422,-6.719C0.641,-6.656 0.984,-6.39 1.453,-5.922C1.578,-5.641 1.516,-5.5 1.266,-5.5C0.859,-5.531 0.531,-5.437 0.281,-5.219C0.281,-5.156 0.297,-5.141 0.328,-5.172C0.391,-5.078 0.422,-4.984 0.422,-4.891C0.391,-4.828 0.328,-4.797 0.234,-4.797C0.078,-4.797 -0.062,-4.781 -0.187,-4.75C-0.125,-4.375 0.016,-4.172 0.234,-4.141C0.578,-3.922 0.641,-3.687 0.422,-3.437C0.141,-3.187 -0.328,-3.062 -0.984,-3.062L-1.781,-3.062C-2.656,-2.969 -3.047,-3.359 -2.953,-4.234L-2.953,-4.422L-3.703,-4.281L-3.891,-4.281L-3.891,-2.734L-3.844,-2.734C-3.375,-2.672 -2.953,-2.64 -2.578,-2.64L-0.375,-2.64L-0.281,-2.734C-0.031,-3.047 0.156,-3.219 0.281,-3.25C0.5,-3.187 0.797,-2.969 1.172,-2.594C1.266,-2.406 1.219,-2.312 1.031,-2.312L-2.813,-2.312C-3.156,-2.312 -3.391,-2.297 -3.516,-2.265C-3.578,-2.234 -3.656,-2.234 -3.75,-2.265L-3.75,-2.312C-3.813,-2.406 -3.859,-2.5 -3.891,-2.594C-4.016,-0.094 -4.641,1.656 -5.766,2.656C-5.891,2.75 -5.969,2.781 -6,2.75C-6.062,2.688 -6.062,2.594 -6,2.469C-5.594,1.531 -5.391,-0.391 -5.391,-3.297L-5.391,-4.375C-5.422,-5.125 -5.453,-5.75 -5.484,-6.25C-5.547,-6.562 -5.437,-6.703 -5.156,-6.672C-5.062,-6.609 -4.875,-6.531 -4.594,-6.437C-4.187,-6.344 -3.938,-6.281 -3.844,-6.25C-3.813,-6.25 -3.766,-6.234 -3.703,-6.203L-2.953,-6.203L-2.953,-7.281C-2.953,-7.906 -2.969,-8.266 -3,-8.359C-3.094,-8.641 -2.953,-8.75 -2.578,-8.687C-2.422,-8.656 -2.125,-8.609 -1.687,-8.547C-1.562,-8.516 -1.437,-8.5 -1.312,-8.5C-1.187,-8.469 -1.125,-8.406 -1.125,-8.312C-1.125,-8.219 -1.187,-8.125 -1.312,-8.031C-1.406,-8 -1.437,-7.859 -1.406,-7.609L-1.406,-7.422L-0.797,-7.422C-0.547,-7.859 -0.328,-8.109 -0.141,-8.172C0.203,-8.016 0.562,-7.719 0.937,-7.281C1,-7.125 0.953,-7.047 0.797,-7.047" style="fill:rgb(157,73,94);fill-rule:nonzero;"/>
            </g>
        </g>
        <g transform="matrix(8.33333,0,0,8.33333,0,0)">
            <g transform="matrix(1,0,0,1,0,426.861)">
                <rect x="477.497" y="17.021" width="7.059" height="3.24" style="fill:rgb(157,73,94);"/>
            </g>
        </g>
        <g transform="matrix(8.33333,0,0,8.33333,0,0)">
            <g transform="matrix(1,0,0,1,488.186,445.502)">
                <path d="M0,0L-5.064,-3.495L-5.064,3.495L0,0Z" style="fill:rgb(157,73,94);fill-rule:nonzero;"/>
            </g>
        </g>
    </g>
</svg>
