<svg width="4483" height="381" viewBox="0 0 4483 381" fill="none" xmlns="http://www.w3.org/2000/svg">
<path d="M168.599 6.24164C172.591 7.52497 176.399 8.56664 179.999 9.36664C183.599 10.1666 185.791 10.5666 186.599 10.5666C187.799 10.5666 189.899 10.0083 192.899 8.88331C195.899 7.76665 198.599 6.56665 200.999 5.28332L216.599 0C220.199 0.65 223.291 2.325 225.899 5.04166C228.491 7.76666 229.391 10.7333 228.599 13.925C227.399 19.6833 226.699 26.4 226.499 34.0833C226.291 41.7667 226.291 49.525 226.499 57.3666C226.699 65.2083 227.291 72.8083 228.299 80.1666C229.291 87.525 230.399 93.5999 231.599 98.4083C232.799 101.283 234.299 104.492 236.099 108C237.899 111.525 239.599 114.958 241.199 118.325C242.791 121.683 244.399 124.725 245.999 127.442C247.591 130.167 248.791 132.167 249.599 133.442L250.799 139.683C250.799 142.558 249.299 145.133 246.299 147.367C243.299 149.608 240.199 150.725 236.999 150.725C232.999 150.725 228.599 149.45 223.799 146.883C218.999 144.325 215.999 141.45 214.799 138.242C213.199 134.4 211.591 130.25 209.999 125.767C208.391 121.283 206.899 116.883 205.499 112.567C204.091 108.242 202.891 104.25 201.899 100.567C200.891 96.8833 200.191 94.0833 199.799 92.1666C197.791 87.3666 195.299 82.0083 192.299 76.0833C189.299 70.1666 185.899 64.2499 182.099 58.325C178.291 52.4083 174.499 46.8833 170.699 41.7666C166.891 36.65 163.391 32.6416 160.199 29.7666C156.991 26.5666 152.291 23.7667 146.099 21.3583C139.891 18.9667 134.591 17.7667 130.199 17.7667C126.199 17.7667 121.591 18.725 116.399 20.6416C111.199 22.5583 107.399 24.8083 104.999 27.3666C102.199 29.925 99.7995 33.8417 97.7995 39.125C95.7911 44.4083 94.7995 49.125 94.7995 53.2833C95.1911 58.0833 97.6995 63.925 102.299 70.8083C106.891 77.6916 111.991 82.8833 117.599 86.4083C122.399 89.2833 129.391 92.3333 138.599 95.5249C147.791 98.7249 155.591 100.65 161.999 101.283L164.999 103.683C165.799 108.167 167.399 113.45 169.799 119.525C172.199 125.608 174.599 129.767 176.999 132L223.199 177.6C227.191 181.767 231.091 187.283 234.899 194.167C238.699 201.05 241.891 208.408 244.499 216.242C247.091 224.092 249.191 231.925 250.799 239.758C252.391 247.608 253.199 254.4 253.199 260.167C253.199 264.967 252.691 270.408 251.699 276.483C250.699 282.567 249.391 288.65 247.799 294.725C246.199 300.808 244.291 306.567 242.099 312C239.899 317.45 237.799 321.925 235.799 325.45C233.399 329.608 229.799 334.008 224.999 338.65C220.199 343.283 215.099 347.692 209.699 351.85C204.299 356.008 198.691 359.767 192.899 363.125C187.099 366.483 181.799 368.8 176.999 370.083L155.399 373.442L128.399 370.083L100.199 364.325C95.7911 363.358 89.9995 363.525 82.7995 364.8C75.5995 366.092 69.7995 367.842 65.3995 370.083C60.5995 372.642 55.1995 374.958 49.1995 377.042C43.1995 379.117 38.9995 380.167 36.5995 380.167C34.1995 380.167 32.0995 378.967 30.2995 376.558C28.4995 374.158 27.5995 371.683 27.5995 369.125C28.7995 362.083 30.3912 354.408 32.3995 346.083C34.3995 337.767 35.7912 331.85 36.5995 328.317L41.9995 276.958C42.3912 272.808 42.1995 267.85 41.3995 262.083C40.5912 256.325 39.4995 250.642 38.0995 245.042C36.6912 239.442 34.9995 234.175 32.9995 229.208C30.9912 224.242 29.1912 220.167 27.5995 216.958L10.7995 200.642C7.59117 198.083 4.99951 194.883 2.99952 191.042C0.991183 187.2 -0.000488281 184.167 -0.000488281 181.925C0.391178 179.367 1.69951 176.567 3.89951 173.525C6.09118 170.483 8.3995 168.325 10.7995 167.042L26.3995 164.642C33.1912 164.642 40.0995 167.208 47.0995 172.325C54.0912 177.442 57.9912 183.05 58.7995 189.125L73.7995 288.483C74.1911 291.683 75.0912 295.442 76.4995 299.767C77.8995 304.083 79.5912 308.408 81.5995 312.717C83.5995 317.042 85.7995 321.208 88.1995 325.2C90.5995 329.208 92.9995 332.483 95.3995 335.042C98.1911 337.925 101.699 340.8 105.899 343.683C110.099 346.567 114.599 349.125 119.399 351.367C124.199 353.608 128.899 355.442 133.499 356.883C138.091 358.325 142.199 359.042 145.799 359.042C151.799 359.042 157.591 357.367 163.199 354C168.791 350.642 173.899 346.325 178.499 341.042C183.091 335.767 186.691 329.683 189.299 322.8C191.891 315.925 193.199 308.967 193.199 301.917C193.199 296.167 191.599 288.808 188.399 279.842C185.191 270.892 180.991 261.533 175.799 251.767C170.599 242.008 164.699 232.408 158.099 222.967C151.499 213.525 144.799 205.283 137.999 198.242C131.999 191.842 124.199 185.125 114.599 178.083C104.999 171.05 94.7995 164.242 83.9995 157.683C73.1995 151.125 62.4912 145.292 51.8995 140.167C41.2995 135.05 31.9912 131.367 23.9995 129.125C23.1912 128.483 22.5912 127.767 22.1995 126.967C21.7995 126.167 21.9912 125.45 22.7995 124.808C23.9995 123.208 25.0995 120.408 26.0995 116.4C27.0912 112.408 27.7995 108.808 28.1995 105.6C28.5912 100.167 29.6995 93.925 31.4995 86.8833C33.2995 79.85 35.5995 72.8916 38.3995 66C41.1912 59.125 44.2912 52.5666 47.6995 46.325C51.0912 40.0833 54.3912 35.0416 57.5995 31.2083C60.7912 27.3666 65.3995 23.525 71.3995 19.6833C77.3995 15.8417 83.8911 12.4833 90.8995 9.59997C97.8911 6.72497 104.999 4.40831 112.199 2.64165C119.399 0.883312 125.999 0 131.999 0L168.599 6.24164Z" fill="#C1CFCE"/>
<path d="M535.199 46.5664C531.199 43.6831 526.891 41.0414 522.299 38.6414C517.691 36.2414 512.999 34.3247 508.199 32.8831C503.399 31.4497 498.991 30.7248 494.999 30.7248H470.399V95.0414C470.399 97.9247 471.991 101.691 475.199 106.325C478.399 110.966 481.799 114.566 485.399 117.125C488.191 119.041 488.399 120.966 485.999 122.883C481.999 126.083 478.399 129.766 475.199 133.925C471.991 138.083 470.399 141.125 470.399 143.041V188.166H494.399C502.391 188.166 510.199 185.766 517.799 180.966C525.391 176.166 532.091 169.85 537.899 162.008C543.691 154.166 548.399 145.291 551.999 135.366C555.599 125.45 557.399 115.2 557.399 104.641C557.399 100.808 556.999 96.5664 556.199 91.9247C555.391 87.2914 554.399 82.7247 553.199 78.2414C551.999 73.7664 550.591 69.5247 548.999 65.5247C547.391 61.5247 545.791 58.2497 544.199 55.6831C542.191 52.4914 539.191 49.4414 535.199 46.5664ZM622.799 53.2831C625.999 58.7247 628.991 64.4914 631.799 70.5664C634.591 76.6497 636.791 82.6497 638.399 88.5664C639.991 94.4914 640.799 99.8497 640.799 104.641C640.799 110.408 639.599 117.05 637.199 124.566C634.799 132.091 631.499 139.45 627.299 146.641C623.099 153.85 618.299 160.641 612.899 167.05C607.499 173.45 601.999 178.566 596.399 182.408C590.791 186.241 583.691 189.925 575.099 193.441C566.491 196.966 557.399 200.166 547.799 203.041C538.199 205.925 528.599 208.241 518.999 210C509.399 211.766 500.791 212.641 493.199 212.641H470.399V312.966C470.399 316.808 472.199 321.366 475.799 326.641C479.399 331.925 483.391 335.85 487.799 338.408C491.791 340.966 497.399 343.133 504.599 344.883C511.799 346.65 517.999 347.525 523.199 347.525C527.191 347.525 530.699 348.65 533.699 350.891C536.699 353.125 538.199 355.525 538.199 358.083C538.199 360.65 536.699 362.808 533.699 364.566C530.699 366.325 527.399 367.208 523.799 367.208H345.599C341.999 367.208 338.699 366.241 335.699 364.325C332.699 362.4 331.199 360.325 331.199 358.083C331.199 355.525 332.699 353.125 335.699 350.891C338.699 348.65 341.999 347.525 345.599 347.525C351.191 347.525 357.691 346.566 365.099 344.65C372.499 342.725 378.199 340.491 382.199 337.925C386.191 335.366 389.791 331.525 392.999 326.4C396.191 321.291 397.799 316.966 397.799 313.441V143.041C397.799 140.808 396.299 137.608 393.299 133.441C390.299 129.291 387.199 125.766 383.999 122.883C381.599 120.966 381.599 119.041 383.999 117.125C387.599 114.566 390.791 111.05 393.599 106.566C396.391 102.091 397.799 98.4081 397.799 95.5247V60.9664C397.799 57.4497 396.299 53.3664 393.299 48.7247C390.299 44.0914 386.999 40.8081 383.399 38.8831C379.799 36.6498 374.491 34.7331 367.499 33.1247C360.499 31.5247 354.799 30.7248 350.399 30.7248C346.399 30.7248 342.799 29.6081 339.599 27.3664C336.391 25.1331 334.799 22.7331 334.799 20.1664C334.799 17.6081 336.299 15.3664 339.299 13.4414C342.299 11.5247 345.391 10.5664 348.599 10.5664H537.599C543.191 10.5664 549.599 11.4498 556.799 13.2081C563.999 14.9664 571.099 17.2081 578.099 19.9247C585.091 22.6497 591.691 25.7664 597.899 29.2831C604.099 32.8081 608.999 36.3247 612.599 39.8414C616.199 43.3664 619.591 47.8497 622.799 53.2831Z" fill="#C1CFCE"/>
<path d="M908.999 156L876.599 58.5664L848.999 156H908.999ZM972.299 13.4414C975.299 15.3664 976.799 17.6081 976.799 20.1581C976.799 22.7248 975.599 25.1248 973.199 27.3581C970.799 29.6081 968.191 30.7248 965.399 30.7248C962.191 30.7248 959.399 32.3998 956.999 35.7581C954.599 39.1248 953.399 42.7248 953.399 46.5664L956.399 62.8831L967.199 92.6414C967.999 94.5581 969.199 96.8831 970.799 99.5997C972.391 102.325 974.291 104.966 976.499 107.525C978.691 110.083 980.999 112.483 983.399 114.725C985.799 116.966 988.199 118.725 990.599 120L994.199 125.283C993.391 129.441 992.999 133.925 992.999 138.725C992.999 143.516 993.091 148.166 993.299 152.641C993.499 157.125 993.791 161.208 994.199 164.883C994.591 168.566 995.191 171.358 995.999 173.283L1045.2 309.125C1046.79 313.925 1049.29 318.558 1052.7 323.041C1056.09 327.525 1059.9 331.608 1064.1 335.283C1068.3 338.966 1072.59 341.841 1077 343.916C1081.39 346.008 1085.59 347.041 1089.6 347.041C1092.8 347.041 1095.8 348.083 1098.6 350.158C1101.39 352.241 1102.8 354.566 1102.8 357.116C1102.8 359.691 1101.6 362 1099.2 364.083C1096.8 366.166 1094.19 367.2 1091.4 367.2H933.599C930.391 367.2 927.391 366.241 924.599 364.325C921.799 362.4 920.399 360.166 920.399 357.6C920.399 355.041 921.599 352.641 923.999 350.408C926.399 348.166 929.191 347.041 932.399 347.041C939.199 347.041 945.299 344.241 950.699 338.641C956.099 333.05 958.799 327.05 958.799 320.641L952.799 288.966L915.599 176.158H843.599L806.399 307.2L804.599 319.683C804.599 323.208 806.099 326.566 809.099 329.758C812.099 332.966 816.091 335.85 821.099 338.4C826.091 340.966 831.691 343.05 837.899 344.641C844.091 346.25 850.591 347.041 857.399 347.041C860.591 347.041 863.491 348.241 866.099 350.641C868.699 353.041 869.999 355.525 869.999 358.083C869.999 360.65 868.799 362.808 866.399 364.566C863.999 366.325 861.199 367.2 857.999 367.2H722.399C719.191 367.2 716.399 366.166 713.999 364.083C711.599 362 710.399 359.691 710.399 357.116C710.399 354.566 711.899 352.241 714.899 350.158C717.899 348.083 720.991 347.041 724.199 347.041C729.391 347.041 734.891 345.925 740.699 343.683C746.491 341.441 751.891 338.566 756.899 335.041C761.899 331.525 766.291 327.45 770.099 322.8C773.899 318.166 776.399 313.441 777.599 308.641L816.599 176.158H801.599C798.391 176.158 795.691 175.041 793.499 172.8C791.291 170.566 790.199 168.166 790.199 165.6C790.199 163.041 791.399 160.8 793.799 158.883C796.199 156.958 798.991 156 802.199 156H821.999L856.199 44.1664C854.191 42.5664 851.191 40.9664 847.199 39.3581C843.199 37.7664 838.499 36.3248 833.099 35.0414C827.699 33.7664 821.999 32.7248 815.999 31.9248C809.999 31.1248 804.391 30.7248 799.199 30.7248C795.599 30.7248 792.391 29.6081 789.599 27.3581C786.791 25.1248 785.399 22.7248 785.399 20.1581C785.399 17.6081 786.599 15.3664 788.999 13.4414C791.399 11.5248 794.191 10.5581 797.399 10.5581H962.399C965.999 10.5581 969.299 11.5248 972.299 13.4414Z" fill="#C1CFCE"/>
<path d="M1434.59 35.0419C1432.99 37.9252 1431.49 41.6835 1430.09 46.3252C1428.69 50.9669 1427.48 55.8502 1426.49 60.9585C1425.49 66.0835 1424.69 71.2085 1424.09 76.3252C1423.49 81.4418 1423.19 85.9252 1423.19 89.7585C1423.19 94.2502 1423.69 100.325 1424.69 108C1425.69 115.683 1426.59 121.925 1427.39 126.725L1432.19 139.683L1436.39 153.608C1436.39 155.208 1435.79 157.125 1434.59 159.358C1433.39 161.608 1431.99 163.367 1430.39 164.642C1428.79 165.925 1426.59 167.042 1423.79 168.008C1420.99 168.967 1418.59 169.442 1416.59 169.442C1413.79 169.442 1410.49 168.483 1406.69 166.567C1402.88 164.642 1399.99 162.408 1397.99 159.842C1395.99 157.283 1394.29 153.767 1392.89 149.283C1391.49 144.808 1390.99 140.808 1391.39 137.283L1394.39 93.6002C1394.79 88.1668 1394.18 81.6835 1392.59 74.1585C1390.99 66.6502 1389.39 60.9585 1387.79 57.1252C1384.19 49.1252 1378.99 41.2835 1372.19 33.6002C1365.38 25.9252 1359.59 21.2918 1354.79 19.6835L1339.19 17.2835C1333.99 17.2835 1327.88 18.7252 1320.89 21.6002C1313.89 24.4835 1308.59 27.6835 1304.99 31.2085C1300.99 34.7252 1297.39 39.6835 1294.19 46.0835C1290.99 52.4919 1288.99 57.9252 1288.19 62.4002C1287.79 65.9335 1287.79 70.0085 1288.19 74.6418C1288.58 79.2835 1289.09 84.0002 1289.69 88.8002C1290.29 93.6002 1291.19 98.1668 1292.39 102.484C1293.59 106.8 1294.79 110.4 1295.99 113.283L1301.39 120C1298.18 123.842 1294.99 128.567 1291.79 134.167C1288.58 139.767 1285.49 145.683 1282.49 151.925C1279.49 158.158 1276.89 164.325 1274.69 170.4C1272.49 176.483 1270.99 181.925 1270.19 186.725C1269.79 189.292 1269.38 192.483 1268.99 196.325C1268.59 200.158 1268.18 204.083 1267.79 208.083C1267.39 212.083 1267.09 216 1266.89 219.85C1266.69 223.692 1266.59 227.042 1266.59 229.925C1266.59 234.092 1266.89 239.042 1267.49 244.8C1268.09 250.558 1268.79 256.483 1269.59 262.567C1270.39 268.642 1271.29 274.558 1272.29 280.325C1273.29 286.083 1274.39 291.05 1275.59 295.208C1277.59 302.883 1281.19 310.492 1286.39 318C1291.58 325.525 1297.59 332.242 1304.39 338.167C1311.19 344.092 1318.28 348.8 1325.69 352.325C1333.09 355.85 1340.18 357.6 1346.99 357.6C1353.79 357.6 1361.39 356.083 1369.79 353.042C1378.19 350.008 1384.19 346.725 1387.79 343.2C1390.19 340.65 1392.59 337.292 1394.99 333.125C1397.39 328.967 1399.49 324.483 1401.29 319.683C1403.09 314.883 1404.59 310.083 1405.79 305.283C1406.99 300.483 1407.38 296.167 1406.99 292.325L1404.59 266.408L1392.59 246.242C1390.19 243.367 1388.19 239.758 1386.59 235.442C1384.99 231.117 1384.39 227.85 1384.79 225.6C1385.18 223.367 1386.19 220.725 1387.79 217.683C1389.39 214.642 1391.19 212.325 1393.19 210.717C1395.19 209.125 1398.09 207.608 1401.89 206.167C1405.69 204.725 1408.79 204 1411.19 204L1423.79 206.883C1426.99 208.483 1430.19 211.125 1433.39 214.8C1436.59 218.483 1439.39 222.65 1441.79 227.283C1444.19 231.925 1446.19 236.808 1447.79 241.925C1449.38 247.042 1450.19 251.85 1450.19 256.325C1450.19 264.65 1448.89 273.692 1446.29 283.45C1443.68 293.2 1440.29 302.725 1436.09 312C1431.89 321.292 1426.99 329.85 1421.39 337.683C1415.79 345.533 1410.19 351.533 1404.59 355.683C1401.39 357.925 1396.99 360.175 1391.39 362.4C1385.79 364.65 1379.78 366.567 1373.39 368.167C1366.99 369.758 1360.39 371.117 1353.59 372.242C1346.78 373.367 1340.59 373.925 1334.99 373.925C1328.99 373.925 1322.39 373.367 1315.19 372.242C1307.99 371.117 1300.89 369.675 1293.89 367.917C1286.89 366.167 1280.29 364.167 1274.09 361.925C1267.89 359.692 1262.99 357.292 1259.39 354.717C1251.39 349.608 1243.39 342.242 1235.39 332.642C1227.38 323.05 1219.99 312.325 1213.19 300.483C1206.38 288.65 1200.79 276.483 1196.39 264.008C1191.99 251.525 1189.59 240.008 1189.19 229.442L1187.99 177.125C1187.99 173.283 1187.59 168.967 1186.79 164.167C1185.98 159.358 1185.09 154.725 1184.09 150.242C1183.09 145.767 1181.99 141.525 1180.79 137.525C1179.59 133.525 1178.39 130.25 1177.19 127.683C1180.39 124.8 1184.48 120.167 1189.49 113.767C1194.49 107.367 1198.59 101.608 1201.79 96.4835L1220.99 63.3585C1222.99 59.8502 1225.89 56.0085 1229.69 51.8418C1233.49 47.6918 1237.58 43.6085 1241.99 39.6002C1246.39 35.6085 1250.99 31.9252 1255.79 28.5669C1260.59 25.2002 1264.79 22.5585 1268.39 20.6419C1272.39 18.7252 1277.18 16.7252 1282.79 14.6418C1288.39 12.5669 1294.19 10.8002 1300.19 9.35853C1306.19 7.92519 1312.09 6.7252 1317.89 5.75854C1323.68 4.80854 1328.79 4.3252 1333.19 4.3252L1356.59 6.24186L1373.99 11.0419L1389.59 14.4002L1403.39 11.0419L1416.59 8.15852C1421.78 7.85019 1426.39 9.68354 1430.39 13.6835C1434.39 17.6835 1436.39 21.9252 1436.39 26.4002L1434.59 35.0419Z" fill="#C1CFCE"/>
<path d="M1808.08 11.9998C1810.27 12.9581 1811.77 13.9164 1812.58 14.8831C1813.78 16.1664 1814.57 17.6831 1814.98 19.4415C1815.37 21.1998 1815.37 22.5581 1814.98 23.5164C1814.17 27.0498 1813.38 31.4414 1812.58 36.7164C1811.77 41.9998 1811.38 46.2414 1811.38 49.4414C1811.38 52.0081 1811.77 55.8414 1812.58 60.9581C1813.38 66.0831 1814.17 70.3998 1814.98 73.9247L1820.38 97.9247C1821.17 101.441 1820.38 104.725 1817.98 107.758C1815.58 110.8 1812.77 112.325 1809.58 112.325C1807.57 112.325 1805.38 111.358 1802.98 109.441C1800.58 107.516 1798.98 105.441 1798.18 103.2C1796.98 98.3997 1795.38 93.1997 1793.38 87.5997C1791.37 81.9997 1789.37 76.7248 1787.38 71.7581C1785.37 66.7998 1783.38 62.3998 1781.38 58.5581C1779.37 54.7164 1777.57 51.8414 1775.98 49.9164C1771.57 45.1248 1765.48 40.7248 1757.68 36.7164C1749.88 32.7248 1743.17 30.7248 1737.58 30.7248H1695.58C1691.58 30.7248 1687.38 31.1248 1682.98 31.9248C1678.57 32.7248 1675.78 33.5998 1674.58 34.5581C1672.18 36.1664 1669.98 39.5998 1667.98 44.8831C1665.97 50.1581 1664.98 55.3664 1664.98 60.4748V94.5581C1664.98 99.6831 1666.18 104.325 1668.58 108.483C1670.98 112.641 1673.77 114.725 1676.98 114.725H1766.98V201.116C1766.98 203.358 1765.87 205.366 1763.68 207.125C1761.48 208.883 1758.97 209.758 1756.18 209.758C1753.38 209.758 1750.87 208.883 1748.68 207.125C1746.47 205.366 1745.38 203.358 1745.38 201.116V159.841C1745.38 156 1743.67 151.6 1740.28 146.641C1736.88 141.683 1732.97 138.083 1728.58 135.841C1724.57 133.916 1718.98 132.166 1711.78 130.558C1704.58 128.966 1698.37 128.158 1693.18 128.158H1676.38C1673.17 128.158 1670.47 129.683 1668.28 132.716C1666.07 135.766 1664.98 139.041 1664.98 142.558V313.441C1664.98 317.6 1666.57 322.483 1669.78 328.083C1672.98 333.683 1676.38 337.916 1679.98 340.8C1683.97 343.683 1689.67 346.166 1697.08 348.241C1704.47 350.325 1710.78 351.2 1715.98 350.883C1721.17 350.566 1726.87 349.283 1733.08 347.041C1739.28 344.808 1745.08 341.925 1750.48 338.4C1755.88 334.883 1760.77 330.958 1765.18 326.641C1769.57 322.316 1772.77 317.925 1774.78 313.441C1776.37 309.925 1777.87 304.883 1779.28 298.316C1780.67 291.766 1781.87 284.566 1782.88 276.725C1783.87 268.883 1784.58 260.875 1784.98 252.725C1785.37 244.558 1785.37 237.125 1784.98 230.4C1784.58 226.558 1785.07 221.925 1786.48 216.475C1787.88 211.041 1789.57 207.041 1791.58 204.483C1793.98 201.283 1798.18 198.475 1804.18 196.083C1810.18 193.683 1815.58 192.325 1820.38 192C1823.98 192 1828.27 192.725 1833.28 194.158C1838.28 195.6 1841.77 197.125 1843.78 198.716C1846.18 200.641 1848.37 203.45 1850.38 207.125C1852.38 210.8 1853.38 213.916 1853.38 216.475C1853.38 219.05 1852.27 222.4 1850.08 226.558C1847.88 230.725 1845.37 233.925 1842.58 236.158C1838.17 240 1833.67 244.725 1829.08 250.325C1824.47 255.925 1821.78 260.325 1820.98 263.525C1820.17 266.716 1819.57 270.883 1819.18 276C1818.78 281.125 1818.58 286.558 1818.58 292.325C1818.58 298.083 1818.78 303.841 1819.18 309.6C1819.57 315.358 1820.17 320.325 1820.98 324.483L1829.98 341.758L1837.18 359.516C1837.18 361.441 1835.68 363.208 1832.68 364.8C1829.68 366.4 1826.58 367.2 1823.38 367.2H1538.98C1535.38 367.2 1532.08 366.241 1529.08 364.316C1526.08 362.4 1524.58 360.325 1524.58 358.075C1524.58 355.2 1526.17 352.641 1529.38 350.4C1532.57 348.166 1535.98 347.041 1539.58 347.041C1544.77 347.041 1551.07 346.083 1558.48 344.158C1565.88 342.241 1571.58 340.166 1575.58 337.916C1579.57 335.366 1583.17 331.525 1586.38 326.4C1589.57 321.283 1591.18 316.966 1591.18 313.441V142.558C1591.18 140 1589.68 136.641 1586.68 132.483C1583.68 128.325 1580.58 124.8 1577.38 121.916C1576.57 121.283 1576.18 120.483 1576.18 119.516C1576.18 118.25 1576.57 117.283 1577.38 116.641C1580.98 113.758 1584.17 110 1586.98 105.358C1589.77 100.725 1591.18 97.1248 1591.18 94.5581V60.9581C1591.18 57.4414 1589.57 53.2831 1586.38 48.4748C1583.17 43.6831 1579.78 40.1581 1576.18 37.9164C1572.58 35.9998 1567.38 34.3164 1560.58 32.8831C1553.77 31.4414 1548.18 30.7248 1543.78 30.7248C1539.78 30.7248 1536.18 29.5998 1532.98 27.3581C1529.77 25.1248 1528.18 22.7248 1528.18 20.1581C1528.18 17.5998 1529.68 15.3581 1532.68 13.4414C1535.68 11.5164 1538.77 10.5581 1541.98 10.5581H1801.78C1803.77 10.5581 1805.87 11.0414 1808.08 11.9998Z" fill="#C1CFCE"/>
<path d="M2392.77 201.125C2388.77 198.241 2384.47 195.691 2379.87 193.45C2375.27 191.208 2370.47 189.366 2365.47 187.925C2360.47 186.483 2355.97 185.766 2351.97 185.766H2309.37V331.2C2309.37 335.366 2311.77 339.133 2316.57 342.483C2321.37 345.841 2326.57 347.525 2332.17 347.525H2345.37C2349.77 347.525 2354.67 346.65 2360.07 344.883C2365.47 343.133 2370.67 340.883 2375.67 338.166C2380.67 335.45 2385.27 332.333 2389.47 328.8C2393.67 325.283 2396.97 321.775 2399.37 318.25C2401.37 315.366 2403.27 311.525 2405.07 306.725C2406.87 301.925 2408.47 296.808 2409.87 291.366C2411.27 285.933 2412.47 280.483 2413.47 275.041C2414.47 269.608 2414.97 264.808 2414.97 260.65C2414.97 256.808 2414.57 252.566 2413.77 247.925C2412.97 243.291 2411.97 238.566 2410.77 233.766C2409.57 228.966 2408.17 224.491 2406.57 220.325C2404.97 216.175 2403.37 212.808 2401.77 210.25C2399.77 207.05 2396.77 204.008 2392.77 201.125ZM2394.87 88.083C2394.27 83.7664 2393.27 79.4414 2391.87 75.1247C2390.47 70.8081 2388.87 66.7247 2387.07 62.8831C2385.27 59.0497 2383.57 55.8497 2381.97 53.2831C2377.57 47.5247 2370.47 42.3247 2360.67 37.6831C2350.87 33.0497 2341.97 30.7247 2333.97 30.7247H2309.37V95.0497C2309.37 97.9247 2310.87 101.691 2313.87 106.325C2316.87 110.966 2320.17 114.566 2323.77 117.125C2326.17 119.041 2326.37 120.808 2324.37 122.408C2320.37 125.608 2316.87 129.366 2313.87 133.683C2310.87 138.008 2309.37 141.125 2309.37 143.041V167.05H2333.37C2340.57 167.05 2348.97 164.808 2358.57 160.325C2368.17 155.85 2375.17 150.891 2379.57 145.441C2381.57 142.891 2383.57 139.683 2385.57 135.85C2387.57 132.008 2389.27 127.925 2390.67 123.608C2392.07 119.283 2393.27 115.05 2394.27 110.883C2395.27 106.733 2395.77 103.05 2395.77 99.8497C2395.77 96.3247 2395.47 92.408 2394.87 88.083ZM2456.37 46.3247C2459.97 51.2914 2463.17 56.4914 2465.97 61.9247C2468.77 67.3747 2470.97 72.8081 2472.57 78.2414C2474.17 83.6914 2474.97 88.4914 2474.97 92.6414C2474.97 96.483 2474.47 100.808 2473.47 105.608C2472.47 110.408 2471.07 115.2 2469.27 120.008C2467.47 124.808 2465.47 129.291 2463.27 133.441C2461.07 137.608 2458.77 140.966 2456.37 143.525C2453.97 146.408 2450.57 149.366 2446.17 152.408C2441.77 155.45 2436.97 158.333 2431.77 161.041C2426.57 163.766 2421.17 166.083 2415.57 168.008C2409.97 169.925 2404.97 171.208 2400.57 171.841L2390.97 173.283L2408.37 174.725C2413.57 175.375 2419.27 176.641 2425.47 178.566C2431.67 180.483 2437.87 182.808 2444.07 185.525C2450.27 188.25 2455.97 191.208 2461.17 194.408C2466.37 197.608 2470.57 200.641 2473.77 203.525C2476.97 206.725 2480.07 210.716 2483.07 215.525C2486.07 220.325 2488.77 225.45 2491.17 230.883C2493.57 236.333 2495.47 241.683 2496.87 246.966C2498.27 252.25 2498.97 256.966 2498.97 261.125C2498.97 266.891 2497.97 273.366 2495.97 280.566C2493.97 287.758 2491.17 294.966 2487.57 302.166C2483.97 309.366 2479.97 316.083 2475.57 322.325C2471.17 328.566 2466.57 333.6 2461.77 337.441C2456.97 341.283 2450.37 344.966 2441.97 348.491C2433.57 352.008 2424.47 355.125 2414.67 357.85C2404.87 360.566 2394.97 362.808 2384.97 364.566C2374.97 366.325 2365.97 367.208 2357.97 367.208H2184.57C2180.57 367.208 2177.07 366.241 2174.07 364.325C2171.07 362.408 2169.57 360.325 2169.57 358.083C2169.57 355.2 2171.17 352.65 2174.37 350.408C2177.57 348.175 2180.97 347.05 2184.57 347.05C2190.17 347.05 2196.66 346.091 2204.07 344.166C2211.47 342.25 2217.17 340.175 2221.17 337.925C2225.17 335.366 2228.77 331.525 2231.97 326.4C2235.17 321.291 2236.77 316.808 2236.77 312.966V143.041C2236.77 140.491 2235.27 137.125 2232.27 132.966C2229.27 128.808 2225.97 125.283 2222.37 122.408C2219.97 120.808 2219.97 119.041 2222.37 117.125C2225.97 114.566 2229.27 110.966 2232.27 106.325C2235.27 101.691 2236.77 98.0914 2236.77 95.5247V60.9664C2236.77 57.4497 2235.17 53.2831 2231.97 48.4831C2228.77 43.6831 2225.17 40.1664 2221.17 37.9247C2217.97 36.0081 2212.97 34.3247 2206.17 32.8914C2199.37 31.4497 2193.57 30.7247 2188.77 30.7247C2184.77 30.7247 2181.17 29.6081 2177.97 27.3664C2174.76 25.1331 2173.17 22.7331 2173.17 20.1664C2173.17 17.6081 2174.67 15.3664 2177.67 13.4497C2180.67 11.5247 2183.97 10.5664 2187.57 10.5664H2373.57C2378.77 10.5664 2384.87 11.2831 2391.87 12.7247C2398.87 14.1664 2405.67 16.0081 2412.27 18.2497C2418.87 20.4914 2425.17 23.0414 2431.17 25.9247C2437.17 28.8081 2441.97 31.6831 2445.57 34.5664C2449.17 37.4414 2452.77 41.3664 2456.37 46.3247Z" fill="#C1CFCE"/>
<path d="M2846.67 38.6414C2840.46 33.3581 2833.56 30.7247 2825.97 30.7247H2818.76C2814.77 30.7247 2811.27 29.6081 2808.27 27.3581C2805.27 25.1248 2803.77 22.7248 2803.77 20.1581C2803.77 17.6081 2805.27 15.3664 2808.27 13.4414C2811.27 11.5248 2814.36 10.5581 2817.57 10.5581H2914.17C2917.77 10.5581 2921.07 11.5248 2924.07 13.4414C2927.06 15.3664 2928.57 17.6081 2928.57 20.1581C2928.57 22.7248 2926.97 25.1248 2923.77 27.3581C2920.56 29.6081 2916.96 30.7247 2912.97 30.7247H2904.57C2901.36 31.3664 2897.97 32.6414 2894.37 34.5581C2890.77 36.4831 2888.16 38.5664 2886.57 40.7997C2884.56 43.0414 2882.96 46.0081 2881.77 49.6831C2880.56 53.3664 2879.97 56.3247 2879.97 58.5664V264.966C2879.97 270.725 2878.86 277.2 2876.67 284.408C2874.46 291.6 2871.47 298.8 2867.67 306C2863.86 313.2 2859.57 319.916 2854.77 326.158C2849.97 332.4 2845.16 337.441 2840.37 341.283C2835.57 345.125 2829.16 348.966 2821.16 352.808C2813.16 356.641 2804.67 360.083 2795.67 363.125C2786.67 366.166 2777.67 368.558 2768.67 370.316C2759.67 372.075 2751.76 372.966 2744.97 372.966C2737.77 372.966 2729.67 372.075 2720.67 370.316C2711.67 368.558 2702.67 366.166 2693.67 363.125C2684.67 360.083 2676.16 356.641 2668.17 352.808C2660.16 348.966 2653.77 345.125 2648.96 341.283C2644.17 337.441 2639.37 332.333 2634.57 325.925C2629.77 319.525 2625.46 312.716 2621.67 305.525C2617.86 298.325 2614.86 291.2 2612.67 284.158C2610.46 277.133 2609.36 270.725 2609.36 264.966V143.516C2609.36 140.966 2607.87 137.6 2604.86 133.441C2601.87 129.283 2598.76 125.766 2595.57 122.883C2594.37 122.241 2593.86 121.366 2594.07 120.241C2594.26 119.125 2594.76 118.25 2595.57 117.6C2599.17 115.041 2602.37 111.441 2605.17 106.8C2607.96 102.166 2609.36 98.3997 2609.36 95.5247V60.9581C2609.36 57.4414 2607.76 53.2831 2604.57 48.4831C2601.36 43.6831 2597.97 40.1664 2594.37 37.9248C2590.77 35.9998 2585.56 34.3164 2578.77 32.8831C2571.96 31.4414 2566.17 30.7247 2561.37 30.7247C2557.36 30.7247 2553.87 29.6081 2550.87 27.3581C2547.87 25.1248 2546.37 22.7248 2546.37 20.1581C2546.37 17.6081 2547.87 15.3664 2550.87 13.4414C2553.87 11.5248 2556.96 10.5581 2560.17 10.5581H2732.37C2735.56 10.5581 2738.56 11.5248 2741.37 13.4414C2744.16 15.3664 2745.57 17.6081 2745.57 20.1581C2745.57 22.7248 2743.97 25.1248 2740.77 27.3581C2737.56 29.6081 2734.17 30.7247 2730.56 30.7247C2725.77 30.7247 2719.96 31.5248 2713.16 33.1164C2706.36 34.7248 2701.36 36.3248 2698.17 37.9248C2694.16 40.4914 2690.66 44.0831 2687.67 48.7164C2684.67 53.3664 2683.17 57.4414 2683.17 60.9581V95.5247C2683.17 98.7247 2684.67 102.566 2687.67 107.041C2690.66 111.525 2693.76 115.041 2696.97 117.6C2699.76 119.208 2699.97 120.958 2697.56 122.883C2693.97 125.766 2690.66 129.358 2687.67 133.683C2684.67 138 2683.17 141.283 2683.17 143.516V264.966C2683.17 269.125 2683.86 273.841 2685.27 279.125C2686.67 284.408 2688.47 289.683 2690.66 294.958C2692.86 300.241 2695.37 305.283 2698.17 310.083C2700.96 314.883 2703.77 318.725 2706.57 321.608C2709.76 324.8 2713.96 327.925 2719.17 330.966C2724.36 334.008 2729.97 336.725 2735.97 339.125C2741.97 341.516 2747.97 343.441 2753.97 344.883C2759.97 346.316 2765.37 347.041 2770.16 347.041C2774.97 347.041 2780.46 346.316 2786.67 344.883C2792.86 343.441 2798.96 341.516 2804.97 339.125C2810.97 336.725 2816.46 333.925 2821.47 330.716C2826.46 327.533 2830.56 324.325 2833.77 321.125C2836.56 318.241 2839.26 314.4 2841.87 309.6C2844.46 304.8 2846.86 299.758 2849.07 294.483C2851.26 289.2 2852.97 284.008 2854.16 278.883C2855.37 273.766 2855.97 269.125 2855.97 264.966V56.1664C2855.97 49.7664 2852.86 43.9248 2846.67 38.6414Z" fill="#C1CFCE"/>
<path d="M3228.56 201.125C3224.56 198.241 3220.25 195.691 3215.66 193.45C3211.05 191.208 3206.25 189.366 3201.26 187.925C3196.25 186.483 3191.75 185.766 3187.76 185.766H3145.16V331.2C3145.16 335.366 3147.56 339.133 3152.36 342.483C3157.16 345.841 3162.36 347.525 3167.96 347.525H3181.16C3185.56 347.525 3190.46 346.65 3195.86 344.883C3201.26 343.133 3206.46 340.883 3211.46 338.166C3216.46 335.45 3221.06 332.333 3225.26 328.8C3229.46 325.283 3232.76 321.775 3235.16 318.25C3237.15 315.366 3239.06 311.525 3240.86 306.725C3242.66 301.925 3244.25 296.808 3245.66 291.366C3247.06 285.933 3248.25 280.483 3249.26 275.041C3250.26 269.608 3250.76 264.808 3250.76 260.65C3250.76 256.808 3250.35 252.566 3249.56 247.925C3248.75 243.291 3247.76 238.566 3246.56 233.766C3245.36 228.966 3243.96 224.491 3242.36 220.325C3240.76 216.175 3239.15 212.808 3237.56 210.25C3235.55 207.05 3232.55 204.008 3228.56 201.125ZM3230.66 88.083C3230.06 83.7664 3229.06 79.4414 3227.66 75.1247C3226.26 70.8081 3224.66 66.7247 3222.86 62.8831C3221.06 59.0497 3219.36 55.8497 3217.76 53.2831C3213.35 47.5247 3206.25 42.3247 3196.46 37.6831C3186.66 33.0497 3177.75 30.7247 3169.76 30.7247H3145.16V95.0497C3145.16 97.9247 3146.66 101.691 3149.66 106.325C3152.66 110.966 3155.96 114.566 3159.56 117.125C3161.96 119.041 3162.15 120.808 3160.16 122.408C3156.16 125.608 3152.66 129.366 3149.66 133.683C3146.66 138.008 3145.16 141.125 3145.16 143.041V167.05H3169.16C3176.36 167.05 3184.76 164.808 3194.36 160.325C3203.96 155.85 3210.96 150.891 3215.36 145.441C3217.35 142.891 3219.36 139.683 3221.36 135.85C3223.36 132.008 3225.05 127.925 3226.46 123.608C3227.86 119.283 3229.06 115.05 3230.06 110.883C3231.05 106.733 3231.56 103.05 3231.56 99.8497C3231.56 96.3247 3231.26 92.408 3230.66 88.083ZM3292.16 46.3247C3295.76 51.2914 3298.95 56.4914 3301.76 61.9247C3304.55 67.3747 3306.76 72.8081 3308.36 78.2414C3309.96 83.6914 3310.76 88.4914 3310.76 92.6414C3310.76 96.483 3310.26 100.808 3309.26 105.608C3308.25 110.408 3306.86 115.2 3305.06 120.008C3303.26 124.808 3301.26 129.291 3299.06 133.441C3296.85 137.608 3294.56 140.966 3292.16 143.525C3289.76 146.408 3286.36 149.366 3281.96 152.408C3277.55 155.45 3272.76 158.333 3267.56 161.041C3262.36 163.766 3256.95 166.083 3251.36 168.008C3245.75 169.925 3240.76 171.208 3236.36 171.841L3226.76 173.283L3244.16 174.725C3249.35 175.375 3255.06 176.641 3261.26 178.566C3267.46 180.483 3273.65 182.808 3279.86 185.525C3286.05 188.25 3291.76 191.208 3296.96 194.408C3302.15 197.608 3306.35 200.641 3309.56 203.525C3312.76 206.725 3315.86 210.716 3318.86 215.525C3321.86 220.325 3324.56 225.45 3326.96 230.883C3329.36 236.333 3331.25 241.683 3332.66 246.966C3334.05 252.25 3334.76 256.966 3334.76 261.125C3334.76 266.891 3333.76 273.366 3331.76 280.566C3329.76 287.758 3326.96 294.966 3323.36 302.166C3319.76 309.366 3315.76 316.083 3311.36 322.325C3306.95 328.566 3302.36 333.6 3297.56 337.441C3292.76 341.283 3286.16 344.966 3277.76 348.491C3269.36 352.008 3260.26 355.125 3250.46 357.85C3240.65 360.566 3230.76 362.808 3220.76 364.566C3210.75 366.325 3201.75 367.208 3193.76 367.208H3020.36C3016.35 367.208 3012.86 366.241 3009.86 364.325C3006.86 362.408 3005.36 360.325 3005.36 358.083C3005.36 355.2 3006.95 352.65 3010.16 350.408C3013.36 348.175 3016.76 347.05 3020.36 347.05C3025.96 347.05 3032.45 346.091 3039.86 344.166C3047.25 342.25 3052.96 340.175 3056.96 337.925C3060.96 335.366 3064.55 331.525 3067.76 326.4C3070.96 321.291 3072.56 316.808 3072.56 312.966V143.041C3072.56 140.491 3071.06 137.125 3068.06 132.966C3065.06 128.808 3061.76 125.283 3058.16 122.408C3055.76 120.808 3055.76 119.041 3058.16 117.125C3061.76 114.566 3065.06 110.966 3068.06 106.325C3071.06 101.691 3072.56 98.0914 3072.56 95.5247V60.9664C3072.56 57.4497 3070.96 53.2831 3067.76 48.4831C3064.55 43.6831 3060.96 40.1664 3056.96 37.9247C3053.75 36.0081 3048.76 34.3247 3041.96 32.8914C3035.15 31.4497 3029.36 30.7247 3024.56 30.7247C3020.56 30.7247 3016.95 29.6081 3013.76 27.3664C3010.55 25.1331 3008.96 22.7331 3008.96 20.1664C3008.96 17.6081 3010.46 15.3664 3013.46 13.4497C3016.46 11.5247 3019.76 10.5664 3023.36 10.5664H3209.36C3214.55 10.5664 3220.66 11.2831 3227.66 12.7247C3234.65 14.1664 3241.46 16.0081 3248.06 18.2497C3254.66 20.4914 3260.96 23.0414 3266.96 25.9247C3272.96 28.8081 3277.76 31.6831 3281.36 34.5664C3284.96 37.4414 3288.56 41.3664 3292.16 46.3247Z" fill="#C1CFCE"/>
<path d="M3604.76 201.125C3600.76 198.241 3596.45 195.691 3591.86 193.45C3587.25 191.208 3582.45 189.366 3577.46 187.925C3572.45 186.483 3567.95 185.766 3563.96 185.766H3521.36V331.2C3521.36 335.366 3523.76 339.133 3528.56 342.483C3533.36 345.841 3538.56 347.525 3544.16 347.525H3557.36C3561.76 347.525 3566.66 346.65 3572.06 344.883C3577.46 343.133 3582.66 340.883 3587.66 338.166C3592.66 335.45 3597.26 332.333 3601.46 328.8C3605.66 325.283 3608.96 321.775 3611.36 318.25C3613.35 315.366 3615.26 311.525 3617.06 306.725C3618.86 301.925 3620.45 296.808 3621.86 291.366C3623.26 285.933 3624.45 280.483 3625.46 275.041C3626.46 269.608 3626.96 264.808 3626.96 260.65C3626.96 256.808 3626.55 252.566 3625.76 247.925C3624.95 243.291 3623.96 238.566 3622.76 233.766C3621.56 228.966 3620.16 224.491 3618.56 220.325C3616.96 216.175 3615.35 212.808 3613.76 210.25C3611.75 207.05 3608.75 204.008 3604.76 201.125ZM3606.86 88.083C3606.26 83.7664 3605.26 79.4414 3603.86 75.1247C3602.46 70.8081 3600.86 66.7247 3599.06 62.8831C3597.26 59.0497 3595.56 55.8497 3593.96 53.2831C3589.55 47.5247 3582.45 42.3247 3572.66 37.6831C3562.86 33.0497 3553.95 30.7247 3545.96 30.7247H3521.36V95.0497C3521.36 97.9247 3522.86 101.691 3525.86 106.325C3528.86 110.966 3532.16 114.566 3535.76 117.125C3538.16 119.041 3538.35 120.808 3536.36 122.408C3532.36 125.608 3528.86 129.366 3525.86 133.683C3522.86 138.008 3521.36 141.125 3521.36 143.041V167.05H3545.36C3552.56 167.05 3560.96 164.808 3570.56 160.325C3580.16 155.85 3587.16 150.891 3591.56 145.441C3593.55 142.891 3595.56 139.683 3597.56 135.85C3599.56 132.008 3601.25 127.925 3602.66 123.608C3604.06 119.283 3605.26 115.05 3606.26 110.883C3607.25 106.733 3607.76 103.05 3607.76 99.8497C3607.76 96.3247 3607.46 92.408 3606.86 88.083ZM3668.36 46.3247C3671.96 51.2914 3675.15 56.4914 3677.96 61.9247C3680.75 67.3747 3682.96 72.8081 3684.56 78.2414C3686.16 83.6914 3686.96 88.4914 3686.96 92.6414C3686.96 96.483 3686.46 100.808 3685.46 105.608C3684.45 110.408 3683.06 115.2 3681.26 120.008C3679.46 124.808 3677.46 129.291 3675.26 133.441C3673.05 137.608 3670.76 140.966 3668.36 143.525C3665.96 146.408 3662.56 149.366 3658.16 152.408C3653.75 155.45 3648.96 158.333 3643.76 161.041C3638.56 163.766 3633.15 166.083 3627.56 168.008C3621.95 169.925 3616.96 171.208 3612.56 171.841L3602.96 173.283L3620.36 174.725C3625.55 175.375 3631.26 176.641 3637.46 178.566C3643.66 180.483 3649.85 182.808 3656.06 185.525C3662.25 188.25 3667.96 191.208 3673.16 194.408C3678.35 197.608 3682.55 200.641 3685.76 203.525C3688.96 206.725 3692.06 210.716 3695.06 215.525C3698.06 220.325 3700.76 225.45 3703.16 230.883C3705.56 236.333 3707.45 241.683 3708.86 246.966C3710.25 252.25 3710.96 256.966 3710.96 261.125C3710.96 266.891 3709.96 273.366 3707.96 280.566C3705.96 287.758 3703.16 294.966 3699.56 302.166C3695.96 309.366 3691.96 316.083 3687.56 322.325C3683.15 328.566 3678.56 333.6 3673.76 337.441C3668.96 341.283 3662.36 344.966 3653.96 348.491C3645.56 352.008 3636.46 355.125 3626.66 357.85C3616.85 360.566 3606.96 362.808 3596.96 364.566C3586.95 366.325 3577.95 367.208 3569.96 367.208H3396.56C3392.55 367.208 3389.06 366.241 3386.06 364.325C3383.06 362.408 3381.56 360.325 3381.56 358.083C3381.56 355.2 3383.15 352.65 3386.36 350.408C3389.56 348.175 3392.96 347.05 3396.56 347.05C3402.16 347.05 3408.65 346.091 3416.06 344.166C3423.45 342.25 3429.16 340.175 3433.16 337.925C3437.16 335.366 3440.75 331.525 3443.96 326.4C3447.16 321.291 3448.76 316.808 3448.76 312.966V143.041C3448.76 140.491 3447.26 137.125 3444.26 132.966C3441.26 128.808 3437.96 125.283 3434.36 122.408C3431.96 120.808 3431.96 119.041 3434.36 117.125C3437.96 114.566 3441.26 110.966 3444.26 106.325C3447.26 101.691 3448.76 98.0914 3448.76 95.5247V60.9664C3448.76 57.4497 3447.16 53.2831 3443.96 48.4831C3440.75 43.6831 3437.16 40.1664 3433.16 37.9247C3429.95 36.0081 3424.96 34.3247 3418.16 32.8914C3411.35 31.4497 3405.56 30.7247 3400.76 30.7247C3396.76 30.7247 3393.15 29.6081 3389.96 27.3664C3386.75 25.1331 3385.16 22.7331 3385.16 20.1664C3385.16 17.6081 3386.66 15.3664 3389.66 13.4497C3392.66 11.5247 3395.96 10.5664 3399.56 10.5664H3585.56C3590.75 10.5664 3596.86 11.2831 3603.86 12.7247C3610.85 14.1664 3617.66 16.0081 3624.26 18.2497C3630.86 20.4914 3637.16 23.0414 3643.16 25.9247C3649.16 28.8081 3653.96 31.6831 3657.56 34.5664C3661.16 37.4414 3664.76 41.3664 3668.36 46.3247Z" fill="#C1CFCE"/>
<path d="M3809.96 119.525C3809.96 118.25 3810.35 117.291 3811.16 116.641C3814.75 114.091 3817.95 110.491 3820.76 105.841C3823.55 101.208 3824.96 97.4497 3824.96 94.5664V60.4831C3824.96 56.9664 3823.35 52.8831 3820.16 48.2414C3816.95 43.6081 3813.56 40.1664 3809.96 37.9247C3806.35 36.0081 3801.15 34.3247 3794.36 32.8914C3787.55 31.4497 3781.95 30.7247 3777.55 30.7247C3773.55 30.7247 3769.95 29.6081 3766.75 27.3664C3763.55 25.1331 3761.95 22.7331 3761.95 20.1664C3761.95 17.6081 3763.46 15.3664 3766.45 13.4497C3769.46 11.5247 3772.55 10.5664 3775.76 10.5664H3965.35C3968.95 10.5664 3972.15 11.6081 3974.96 13.6831C3977.75 15.7664 3979.16 18.0914 3979.16 20.6414C3979.16 23.2081 3977.65 25.5247 3974.66 27.6081C3971.65 29.6914 3968.55 30.7247 3965.35 30.7247C3956.96 30.7247 3948.75 31.6081 3940.75 33.3664C3932.74 35.1331 3925.65 37.3747 3919.46 40.0831C3913.25 42.8081 3908.25 45.9247 3904.46 49.4414C3900.65 52.9747 3898.75 56.6497 3898.75 60.4831V94.5664C3898.75 97.1247 3900.26 100.733 3903.25 105.366C3906.26 110.008 3909.55 113.608 3913.16 116.166C3915.15 117.775 3915.34 119.691 3913.75 121.925C3909.76 124.808 3906.26 128.408 3903.25 132.725C3900.26 137.05 3898.75 140.333 3898.75 142.566V313.45C3898.75 317.608 3900.35 322.483 3903.55 328.083C3906.75 333.683 3910.15 337.925 3913.75 340.808C3917.75 343.683 3923.45 346.166 3930.86 348.241C3938.26 350.325 3944.55 351.208 3949.75 350.891C3958.55 350.575 3967.35 347.458 3976.15 341.525C3984.95 335.608 3992.85 328.016 3999.85 318.725C4006.85 309.45 4012.24 298.966 4016.05 287.283C4019.85 275.6 4021.35 263.841 4020.55 252L4016.96 204.483C4016.55 200.641 4017.15 196.008 4018.76 190.566C4020.35 185.133 4022.35 180.966 4024.75 178.083C4027.54 175.208 4031.96 172.566 4037.95 170.166C4043.95 167.766 4049.36 166.408 4054.16 166.083C4057.75 166.083 4062.05 166.808 4067.06 168.25C4072.05 169.683 4075.55 171.366 4077.55 173.283C4079.95 175.208 4082.15 178.008 4084.15 181.683C4086.16 185.366 4087.16 188.483 4087.16 191.05C4087.16 193.608 4086.05 196.966 4083.85 201.125C4081.66 205.291 4079.15 208.491 4076.36 210.716L4061.95 222.733C4059.95 224.325 4058.25 226.725 4056.86 229.925C4055.45 233.133 4054.76 235.85 4054.76 238.091V324.491C4054.76 325.766 4055.65 328.25 4057.45 331.925C4059.26 335.608 4060.95 339.208 4062.56 342.725L4070.35 360C4070.35 361.925 4068.95 363.608 4066.15 365.05C4063.35 366.491 4060.35 367.208 4057.15 367.208H3772.75C3769.16 367.208 3765.86 366.241 3762.86 364.325C3759.85 362.408 3758.36 360.325 3758.36 358.083C3758.36 355.525 3759.95 353.125 3763.16 350.891C3766.36 348.65 3769.76 347.525 3773.35 347.525C3778.54 347.525 3784.84 346.566 3792.26 344.65C3799.65 342.725 3805.35 340.491 3809.36 337.925C3813.35 335.366 3816.95 331.525 3820.16 326.4C3823.35 321.291 3824.96 316.966 3824.96 313.45V142.566C3824.96 140.008 3823.45 136.65 3820.46 132.483C3817.45 128.333 3814.35 124.808 3811.16 121.925C3810.35 121.283 3809.96 120.483 3809.96 119.525Z" fill="#C1CFCE"/>
<path d="M4437.24 11.9998C4439.44 12.9581 4440.93 13.9164 4441.74 14.8831C4442.95 16.1664 4443.74 17.6831 4444.14 19.4415C4444.54 21.1998 4444.54 22.5581 4444.14 23.5164C4443.33 27.0498 4442.54 31.4414 4441.74 36.7164C4440.93 41.9998 4440.54 46.2414 4440.54 49.4414C4440.54 52.0081 4440.93 55.8414 4441.74 60.9581C4442.54 66.0831 4443.33 70.3998 4444.14 73.9247L4449.55 97.9247C4450.34 101.441 4449.55 104.725 4447.14 107.758C4444.74 110.8 4441.94 112.325 4438.75 112.325C4436.73 112.325 4434.55 111.358 4432.15 109.441C4429.75 107.516 4428.14 105.441 4427.35 103.2C4426.14 98.3997 4424.54 93.1997 4422.54 87.5997C4420.54 81.9997 4418.54 76.7248 4416.55 71.7581C4414.53 66.7998 4412.54 62.3998 4410.54 58.5581C4408.54 54.7164 4406.74 51.8414 4405.14 49.9164C4400.74 45.1248 4394.65 40.7248 4386.84 36.7164C4379.05 32.7248 4372.34 30.7248 4366.74 30.7248H4324.74C4320.74 30.7248 4316.54 31.1248 4312.14 31.9248C4307.74 32.7248 4304.94 33.5998 4303.74 34.5581C4301.34 36.1664 4299.14 39.5998 4297.14 44.8831C4295.13 50.1581 4294.14 55.3664 4294.14 60.4748V94.5581C4294.14 99.6831 4295.35 104.325 4297.75 108.483C4300.15 112.641 4302.94 114.725 4306.15 114.725H4396.14V201.116C4396.14 203.358 4395.04 205.366 4392.85 207.125C4390.64 208.883 4388.13 209.758 4385.34 209.758C4382.54 209.758 4380.04 208.883 4377.84 207.125C4375.64 205.366 4374.55 203.358 4374.55 201.116V159.841C4374.55 156 4372.83 151.6 4369.44 146.641C4366.04 141.683 4362.14 138.083 4357.74 135.841C4353.74 133.916 4348.15 132.166 4340.94 130.558C4333.74 128.966 4327.54 128.158 4322.34 128.158H4305.54C4302.34 128.158 4299.63 129.683 4297.45 132.716C4295.24 135.766 4294.14 139.041 4294.14 142.558V313.441C4294.14 317.6 4295.74 322.483 4298.94 328.083C4302.14 333.683 4305.54 337.916 4309.14 340.8C4313.13 343.683 4318.84 346.166 4326.25 348.241C4333.64 350.325 4339.94 351.2 4345.14 350.883C4350.33 350.566 4356.04 349.283 4362.24 347.041C4368.44 344.808 4374.24 341.925 4379.65 338.4C4385.04 334.883 4389.93 330.958 4394.35 326.641C4398.74 322.316 4401.94 317.925 4403.94 313.441C4405.53 309.925 4407.04 304.883 4408.44 298.316C4409.84 291.766 4411.04 284.566 4412.05 276.725C4413.04 268.883 4413.74 260.875 4414.15 252.725C4414.53 244.558 4414.53 237.125 4414.15 230.4C4413.74 226.558 4414.23 221.925 4415.64 216.475C4417.04 211.041 4418.73 207.041 4420.75 204.483C4423.15 201.283 4427.35 198.475 4433.34 196.083C4439.34 193.683 4444.74 192.325 4449.55 192C4453.14 192 4457.44 192.725 4462.44 194.158C4467.44 195.6 4470.94 197.125 4472.94 198.716C4475.34 200.641 4477.54 203.45 4479.54 207.125C4481.54 210.8 4482.55 213.916 4482.55 216.475C4482.55 219.05 4481.44 222.4 4479.24 226.558C4477.04 230.725 4474.54 233.925 4471.75 236.158C4467.33 240 4462.83 244.725 4458.25 250.325C4453.64 255.925 4450.94 260.325 4450.15 263.525C4449.33 266.716 4448.74 270.883 4448.34 276C4447.94 281.125 4447.75 286.558 4447.75 292.325C4447.75 298.083 4447.94 303.841 4448.34 309.6C4448.74 315.358 4449.33 320.325 4450.15 324.483L4459.14 341.758L4466.34 359.516C4466.34 361.441 4464.85 363.208 4461.84 364.8C4458.85 366.4 4455.74 367.2 4452.54 367.2H4168.14C4164.54 367.2 4161.25 366.241 4158.25 364.316C4155.24 362.4 4153.74 360.325 4153.74 358.075C4153.74 355.2 4155.34 352.641 4158.55 350.4C4161.74 348.166 4165.15 347.041 4168.74 347.041C4173.93 347.041 4180.23 346.083 4187.65 344.158C4195.04 342.241 4200.74 340.166 4204.75 337.916C4208.74 335.366 4212.34 331.525 4215.54 326.4C4218.74 321.283 4220.35 316.966 4220.35 313.441V142.558C4220.35 140 4218.84 136.641 4215.85 132.483C4212.84 128.325 4209.74 124.8 4206.54 121.916C4205.74 121.283 4205.35 120.483 4205.35 119.516C4205.35 118.25 4205.74 117.283 4206.54 116.641C4210.14 113.758 4213.34 110 4216.15 105.358C4218.94 100.725 4220.35 97.1248 4220.35 94.5581V60.9581C4220.35 57.4414 4218.74 53.2831 4215.54 48.4748C4212.34 43.6831 4208.94 40.1581 4205.35 37.9164C4201.74 35.9998 4196.54 34.3164 4189.75 32.8831C4182.93 31.4414 4177.34 30.7248 4172.94 30.7248C4168.94 30.7248 4165.34 29.5998 4162.14 27.3581C4158.94 25.1248 4157.34 22.7248 4157.34 20.1581C4157.34 17.5998 4158.85 15.3581 4161.84 13.4414C4164.84 11.5164 4167.94 10.5581 4171.14 10.5581H4430.94C4432.94 10.5581 4435.04 11.0414 4437.24 11.9998Z" fill="#C1CFCE"/>
</svg>
