<svg width="69" height="1878" viewBox="0 0 69 1878" fill="none" xmlns="http://www.w3.org/2000/svg">
<path d="M32.9711 1839.84L19.7961 1847.63L32.9711 1855.42V1839.84ZM54.3211 1877.66H53.4544C52.7377 1875.51 51.1461 1873.26 48.6544 1870.9C46.1711 1868.54 42.4627 1865.79 37.5211 1862.62L5.18774 1842.04V1841.28L37.1627 1819.84C43.8711 1815.34 48.2127 1812.13 50.1961 1810.23C52.1794 1808.34 53.2711 1806.61 53.4544 1805.06L54.3211 1805.11C54.2461 1806.78 54.1877 1808.53 54.1544 1810.37C54.1127 1812.2 54.0961 1814.66 54.0961 1817.73C54.0961 1821.55 54.1127 1824.73 54.1544 1827.26C54.1877 1829.8 54.2461 1832.29 54.3211 1834.74L53.4544 1834.79C53.2877 1833.29 52.9711 1832.23 52.5294 1831.61C52.0711 1830.98 51.3794 1830.66 50.4461 1830.66C49.6127 1830.66 48.3544 1831.04 46.6711 1831.8C44.9794 1832.57 42.9127 1833.71 40.4544 1835.23L35.4044 1838.36V1856.85L37.8794 1858.33C40.4377 1859.88 42.5544 1861.02 44.2544 1861.75C45.9544 1862.49 47.3211 1862.84 48.3711 1862.84C49.8044 1862.84 50.9627 1862.26 51.8461 1861.1C52.7294 1859.94 53.2711 1858.31 53.4544 1856.22L54.3211 1856.27C54.2461 1857.79 54.1877 1859.36 54.1544 1860.99C54.1127 1862.61 54.0961 1864.69 54.0961 1867.24C54.0961 1869.8 54.1127 1871.84 54.1544 1873.34C54.1877 1874.85 54.2461 1876.29 54.3211 1877.66Z" fill="#2F646D"/>
<path d="M19.1876 1715.74L30.2542 1720.12V1721.24C25.9376 1721.69 22.6459 1723.02 20.3959 1725.23C18.1292 1727.43 17.0042 1730.44 17.0042 1734.22C17.0042 1738.79 18.5542 1742.33 21.6459 1744.85C24.7376 1747.37 29.0959 1748.64 34.7292 1748.64C40.1292 1748.64 44.3959 1747.2 47.5459 1744.34C50.6959 1741.48 52.2792 1737.62 52.2792 1732.79C52.2792 1729.59 51.4542 1726.77 49.8209 1724.3C48.1876 1721.84 45.8042 1719.84 42.6792 1718.29L44.2959 1715.74C47.9876 1717.62 50.7376 1720.23 52.5292 1723.57C54.3209 1726.91 55.2126 1731.08 55.2126 1736.05C55.2126 1744.04 53.3626 1750.53 49.6376 1755.49C45.9292 1760.44 41.1209 1762.91 35.1959 1762.91C29.0626 1762.91 24.1376 1760.47 20.4209 1755.57C16.7126 1750.67 14.8542 1744.18 14.8542 1736.05C14.8542 1732.48 15.2209 1728.99 15.9459 1725.59C16.6792 1722.18 17.7542 1718.9 19.1876 1715.74Z" fill="#2F646D"/>
<path d="M32.763 1672.93C32.738 1673.16 32.7214 1673.44 32.7047 1673.74C32.6964 1674.03 32.688 1674.47 32.688 1675.04C32.688 1679.93 33.6047 1683.69 35.4047 1686.31C37.2214 1688.94 39.8464 1690.25 43.2547 1690.25C45.8547 1690.25 47.938 1689.55 49.5047 1688.17C51.063 1686.78 51.8464 1684.94 51.8464 1682.64C51.8464 1679.24 50.538 1676.77 47.9047 1675.23C45.2797 1673.7 40.9964 1672.93 35.0464 1672.93H32.763ZM52.9964 1653.28L54.2464 1653.32C54.1964 1656.4 54.163 1658.71 54.138 1660.25C54.1214 1661.81 54.1047 1663.24 54.1047 1664.55V1668.59C53.1714 1669.33 52.213 1669.97 51.2214 1670.49C50.2297 1671.02 49.188 1671.45 48.088 1671.81C50.5214 1673.54 52.2964 1675.6 53.4047 1678C54.513 1680.4 55.0714 1683.39 55.0714 1686.94C55.0714 1692.52 53.9714 1697.06 51.7714 1700.56C49.5797 1704.07 46.788 1705.83 43.3964 1705.83C39.363 1705.83 36.288 1703.11 34.1797 1697.68C32.063 1692.24 30.863 1684 30.5714 1672.93H30.2547C25.988 1672.93 22.7297 1673.84 20.4964 1675.7C18.2714 1677.56 17.1464 1680.25 17.1464 1683.81C17.1464 1687.39 18.1297 1690.29 20.088 1692.54C22.0464 1694.77 25.2214 1696.6 29.613 1698.04V1699.29L18.6964 1703.54C17.3964 1700.17 16.438 1696.7 15.8047 1693.12C15.1797 1689.54 14.863 1685.82 14.863 1681.97C14.863 1677.7 15.2714 1673.98 16.113 1670.78C16.9547 1667.58 18.1797 1665.09 19.7964 1663.3C21.0214 1661.84 22.4714 1660.82 24.1547 1660.24C25.8297 1659.65 28.8714 1659.36 33.263 1659.36H36.663C42.9464 1659.36 47.138 1658.92 49.238 1658.04C51.338 1657.16 52.588 1655.58 52.9964 1653.28Z" fill="#2F646D"/>
<path d="M54.3214 1646.69H53.4547C52.863 1644.44 51.7714 1642.91 50.1797 1642.07C48.5964 1641.24 45.213 1640.82 40.0297 1640.82H26.813C23.688 1640.82 21.6964 1641.17 20.838 1641.87C19.9797 1642.57 19.4714 1643.94 19.338 1645.97H18.4714C18.063 1641.91 17.6464 1638.35 17.2047 1635.29C16.763 1632.24 16.3047 1629.68 15.8297 1627.61H24.7797C21.488 1625.74 19.013 1623.49 17.3464 1620.88C15.688 1618.27 14.863 1615.29 14.863 1611.95C14.863 1611.47 14.8714 1611.1 14.8797 1610.85C14.8964 1610.6 14.913 1610.37 14.9297 1610.16L26.888 1615.18V1616.33C26.413 1616.81 26.0464 1617.35 25.7964 1617.97C25.5464 1618.58 25.4214 1619.26 25.4214 1620.01C25.4214 1622.49 26.3297 1624.37 28.1214 1625.67C29.9297 1626.97 32.5297 1627.61 35.913 1627.61H39.4214C44.988 1627.61 48.5964 1627.19 50.238 1626.36C51.8797 1625.53 52.9547 1623.99 53.4547 1621.75L54.3214 1621.8C54.2464 1623.25 54.188 1624.88 54.1547 1626.65C54.1214 1628.43 54.1047 1631.01 54.1047 1634.41C54.1047 1637.46 54.1214 1639.87 54.1547 1641.63C54.188 1643.39 54.2464 1645.08 54.3214 1646.69Z" fill="#2F646D"/>
<path d="M18.0051 1576.39C18.0051 1580.3 19.4884 1583.32 22.4468 1585.45C25.4051 1587.59 29.6384 1588.66 35.1217 1588.66C40.7134 1588.66 44.9717 1587.59 47.9217 1585.45C50.8717 1583.32 52.3467 1580.23 52.3467 1576.17C52.3467 1572.32 50.8717 1569.37 47.9217 1567.33C44.9717 1565.29 40.7134 1564.26 35.1217 1564.26C29.5634 1564.26 25.3134 1565.3 22.3884 1567.37C19.4718 1569.44 18.0051 1572.44 18.0051 1576.39ZM48.4384 1563.45C50.7384 1565.3 52.4217 1567.51 53.5134 1570.05C54.5967 1572.61 55.1384 1575.65 55.1384 1579.21C55.1384 1586.37 53.3051 1592.19 49.6634 1596.69C46.0051 1601.18 41.2301 1603.42 35.3384 1603.42C29.5634 1603.42 24.7301 1601.17 20.8384 1596.64C16.9468 1592.13 14.9968 1586.49 14.9968 1579.74C14.9968 1576.58 15.4801 1573.72 16.4468 1571.15C17.4134 1568.59 18.8718 1566.29 20.7968 1564.26H11.6301C8.36343 1564.26 6.33009 1564.59 5.53009 1565.27C4.72176 1565.94 4.27176 1567.19 4.14676 1569.04H3.35509C2.95509 1565.62 2.53843 1562.4 2.08843 1559.43C1.64676 1556.44 1.16343 1553.63 0.638428 1550.96C3.04676 1551.09 5.37176 1551.18 7.62176 1551.24C9.86342 1551.29 12.0134 1551.32 14.0634 1551.32H37.0134C43.2717 1551.32 47.4717 1550.9 49.6217 1550.07C51.7717 1549.24 53.0467 1547.73 53.4551 1545.55H54.2467C54.1967 1546.54 54.1634 1547.58 54.1384 1548.69C54.1134 1549.79 54.0967 1551.42 54.0967 1553.57C54.0967 1555.54 54.1134 1556.99 54.1384 1557.9C54.1634 1558.83 54.1967 1559.67 54.2467 1560.41C53.3551 1561.04 52.4384 1561.61 51.4717 1562.11C50.4967 1562.62 49.4884 1563.07 48.4384 1563.45Z" fill="#2F646D"/>
<path d="M58.646 1490.46C61.0543 1490.46 62.9376 1489.35 64.271 1487.17C65.6043 1484.98 66.271 1481.89 66.271 1477.93C66.271 1473.51 65.571 1470 64.1793 1467.4C62.7793 1464.81 60.9126 1463.51 58.571 1463.51C56.3293 1463.51 54.6126 1464.83 53.396 1467.48C52.196 1470.12 51.5876 1473.87 51.5876 1478.73C51.5876 1482.3 52.2293 1485.15 53.5293 1487.28C54.8126 1489.4 56.521 1490.46 58.646 1490.46ZM17.146 1478.11C17.146 1480.79 18.1876 1482.98 20.2626 1484.67C22.3376 1486.34 25.0626 1487.19 28.421 1487.19C31.8376 1487.19 34.5126 1486.34 36.446 1484.64C38.3793 1482.94 39.346 1480.61 39.346 1477.65C39.346 1474.94 38.321 1472.82 36.246 1471.3C34.1793 1469.78 31.3126 1469.02 27.6376 1469.02C24.371 1469.02 21.796 1469.83 19.9376 1471.45C18.0793 1473.08 17.146 1475.3 17.146 1478.11ZM9.80431 1450.22L20.0043 1454.34V1455.19C18.3626 1455.66 17.071 1456.49 16.121 1457.64C15.1793 1458.81 14.7126 1460.19 14.7126 1461.77C14.7126 1462.69 15.2626 1464.06 16.3626 1465.89L16.4626 1466.06C18.0376 1462.06 19.7793 1459.14 21.671 1457.3C23.571 1455.49 25.8043 1454.55 28.3543 1454.55C31.4543 1454.55 34.1543 1455.92 36.446 1458.66C38.7376 1461.39 40.2376 1465.05 40.9543 1469.64C41.296 1471.73 41.5293 1474.24 41.671 1477.16C41.8626 1480.42 42.4126 1482.04 43.321 1482.04C44.371 1482.04 45.121 1479.51 45.5793 1474.43C45.8126 1471.72 46.0376 1469.48 46.2626 1467.72C47.0043 1461.43 48.121 1456.96 49.6376 1454.34C51.1626 1451.71 53.346 1450.39 56.2126 1450.39C60.0043 1450.39 63.0043 1452.94 65.2126 1458.05C67.4293 1463.15 68.5293 1470.11 68.5293 1478.9C68.5293 1486.58 67.6293 1492.74 65.821 1497.41C64.0293 1502.09 61.6543 1504.43 58.721 1504.43C56.396 1504.43 54.5126 1503.01 53.0376 1500.17C51.571 1497.33 50.5043 1493.04 49.8376 1487.28C49.646 1490.34 49.2376 1492.64 48.6043 1494.15C47.971 1495.65 47.0876 1496.41 45.971 1496.41C44.7043 1496.41 43.6543 1495.49 42.821 1493.64C41.9876 1491.78 41.3126 1488.93 40.8126 1485.09C40.0293 1490.16 38.546 1494.1 36.371 1496.9C34.196 1499.7 31.5543 1501.1 28.421 1501.1C24.5793 1501.1 21.3543 1498.94 18.7543 1494.58C16.1543 1490.22 14.8543 1484.7 14.8543 1478.01C14.8543 1476.91 14.9293 1475.67 15.071 1474.3C15.2126 1472.93 15.4376 1471.22 15.7543 1469.19C13.696 1466.84 12.1543 1464.34 11.1293 1461.7C10.1043 1459.06 9.58765 1456.3 9.58765 1453.44C9.58765 1452.9 9.60431 1452.38 9.64598 1451.85C9.67931 1451.34 9.73765 1450.78 9.80431 1450.22Z" fill="#2F646D"/>
<path d="M32.763 1408.89C32.738 1409.13 32.7214 1409.4 32.7047 1409.7C32.6964 1409.99 32.688 1410.44 32.688 1410.99C32.688 1415.89 33.6047 1419.64 35.4047 1422.27C37.2214 1424.9 39.8464 1426.21 43.2547 1426.21C45.8547 1426.21 47.938 1425.52 49.5047 1424.14C51.063 1422.74 51.8464 1420.89 51.8464 1418.6C51.8464 1415.2 50.538 1412.73 47.9047 1411.19C45.2797 1409.66 40.9964 1408.89 35.0464 1408.89H32.763ZM52.9964 1389.24L54.2464 1389.29C54.1964 1392.36 54.163 1394.68 54.138 1396.22C54.1214 1397.77 54.1047 1399.2 54.1047 1400.52V1404.54C53.1714 1405.29 52.213 1405.93 51.2214 1406.44C50.2297 1406.98 49.188 1407.41 48.088 1407.77C50.5214 1409.5 52.2964 1411.57 53.4047 1413.96C54.513 1416.37 55.0714 1419.35 55.0714 1422.9C55.0714 1428.49 53.9714 1433.02 51.7714 1436.52C49.5797 1440.04 46.788 1441.79 43.3964 1441.79C39.363 1441.79 36.288 1439.08 34.1797 1433.64C32.063 1428.2 30.863 1419.96 30.5714 1408.89H30.2547C25.988 1408.89 22.7297 1409.81 20.4964 1411.67C18.2714 1413.52 17.1464 1416.21 17.1464 1419.77C17.1464 1423.34 18.1297 1426.25 20.088 1428.5C22.0464 1430.73 25.2214 1432.57 29.613 1434V1435.25L18.6964 1439.5C17.3964 1436.14 16.438 1432.66 15.8047 1429.08C15.1797 1425.49 14.863 1421.78 14.863 1417.94C14.863 1413.66 15.2714 1409.94 16.113 1406.74C16.9547 1403.54 18.1797 1401.06 19.7964 1399.27C21.0214 1397.8 22.4714 1396.78 24.1547 1396.21C25.8297 1395.62 28.8714 1395.33 33.263 1395.33H36.663C42.9464 1395.33 47.138 1394.89 49.238 1394.01C51.338 1393.13 52.588 1391.54 52.9964 1389.24Z" fill="#2F646D"/>
<path d="M54.3214 1383.63L53.5297 1383.68C52.938 1381.4 51.788 1379.86 50.113 1379.04C48.4297 1378.23 44.6297 1377.81 38.7047 1377.81H26.813C23.688 1377.81 21.6964 1378.17 20.813 1378.89C19.9464 1379.6 19.4547 1380.94 19.338 1382.91H18.4714C18.138 1379.44 17.7547 1376.25 17.313 1373.34C16.8714 1370.41 16.3714 1367.77 15.8297 1365.41H24.1714C21.0714 1363.86 18.738 1361.67 17.188 1358.83C15.6297 1355.99 14.863 1352.51 14.863 1348.36C14.863 1344.39 15.6797 1341.14 17.3297 1338.64C18.9797 1336.14 21.2797 1334.59 24.2464 1333.99C21.088 1332.38 18.7464 1330.17 17.2214 1327.36C15.6964 1324.56 14.9297 1321.05 14.9297 1316.84C14.9297 1311.26 16.338 1307.23 19.1547 1304.72C21.9714 1302.21 26.5547 1300.96 32.9047 1300.96H37.8797C44.3047 1300.96 48.388 1300.54 50.1297 1299.68C51.8714 1298.83 53.0047 1297.24 53.5297 1294.91L54.3214 1294.95C54.2464 1296.42 54.188 1298.04 54.1547 1299.84C54.1214 1301.63 54.1047 1304.24 54.1047 1307.67C54.1047 1310.74 54.1214 1313.17 54.1547 1314.94C54.188 1316.72 54.2464 1318.41 54.3214 1320.02H53.5297C52.938 1317.79 51.8214 1316.24 50.2047 1315.37C48.5797 1314.5 45.163 1314.07 39.9547 1314.07H33.588C28.4297 1314.07 24.6547 1314.74 22.2714 1316.11C19.8797 1317.47 18.6964 1319.6 18.6964 1322.53C18.6964 1325.67 20.0547 1328.22 22.7714 1330.19C25.4964 1332.15 29.1047 1333.14 33.588 1333.14H38.7047C44.6797 1333.14 48.5047 1332.72 50.2047 1331.87C51.8964 1331.01 53.0047 1329.45 53.5297 1327.19L54.3214 1327.23C54.2464 1328.73 54.188 1330.34 54.1547 1332.11C54.1214 1333.87 54.1047 1336.39 54.1047 1339.68C54.1047 1342.63 54.1214 1344.97 54.1547 1346.73C54.188 1348.47 54.2464 1350.14 54.3214 1351.76H53.5297C52.938 1349.52 51.8214 1347.97 50.2047 1347.1C48.5797 1346.24 45.163 1345.8 39.9547 1345.8H33.588C28.363 1345.8 24.5797 1346.48 22.2464 1347.82C19.9214 1349.16 18.7547 1351.29 18.7547 1354.22C18.7547 1357.29 20.1214 1359.81 22.8464 1361.77C25.563 1363.72 29.1464 1364.7 33.588 1364.7H38.7047C44.6547 1364.7 48.4714 1364.28 50.163 1363.41C51.863 1362.57 52.9797 1361 53.5297 1358.74H54.3214C54.2464 1360.24 54.188 1361.86 54.1547 1363.63C54.1214 1365.39 54.1047 1367.96 54.1047 1371.36C54.1047 1374.43 54.1214 1376.86 54.1547 1378.61C54.188 1380.37 54.2464 1382.05 54.3214 1383.63Z" fill="#2F646D"/>
<path d="M27.7792 1250.86C24.4792 1250.99 21.8876 1251.83 19.9876 1253.41C18.0959 1254.99 17.1459 1257.07 17.1459 1259.64C17.1459 1262.19 18.0709 1264.34 19.9209 1266.08C21.7709 1267.81 24.3959 1268.96 27.7792 1269.52V1250.86ZM30.3876 1235.24V1269.62L30.6459 1269.66C32.1209 1269.75 33.2209 1269.79 33.9376 1269.79C39.4542 1269.79 43.7626 1268.39 46.8626 1265.62C49.9709 1262.82 51.5209 1258.96 51.5209 1254.04C51.5209 1249.93 50.3792 1246.41 48.0959 1243.52C45.8209 1240.63 42.4626 1238.45 38.0209 1236.99L39.8126 1234.53C44.8959 1236.4 48.7126 1239.36 51.2459 1243.41C53.7959 1247.45 55.0626 1252.59 55.0626 1258.83C55.0626 1266.59 53.1876 1272.89 49.4292 1277.74C45.6626 1282.59 40.7959 1285.02 34.8042 1285.02C28.9542 1285.02 24.1626 1282.63 20.4376 1277.82C16.7209 1273.04 14.8542 1266.85 14.8542 1259.28C14.8542 1252.47 16.2042 1246.98 18.9042 1242.8C21.6042 1238.63 25.4292 1236.1 30.3876 1235.24Z" fill="#2F646D"/>
<path d="M32.763 1156.69C32.738 1156.94 32.7214 1157.2 32.7047 1157.5C32.6964 1157.8 32.688 1158.24 32.688 1158.79C32.688 1163.69 33.6047 1167.45 35.4047 1170.07C37.2214 1172.7 39.8464 1174.01 43.2547 1174.01C45.8547 1174.01 47.938 1173.32 49.5047 1171.94C51.063 1170.54 51.8464 1168.7 51.8464 1166.41C51.8464 1163.01 50.538 1160.54 47.9047 1158.99C45.2797 1157.46 40.9964 1156.69 35.0464 1156.69H32.763ZM52.9964 1137.05L54.2464 1137.09C54.1964 1140.16 54.163 1142.48 54.138 1144.03C54.1214 1145.58 54.1047 1147.01 54.1047 1148.33V1152.35C53.1714 1153.09 52.213 1153.74 51.2214 1154.25C50.2297 1154.78 49.188 1155.21 48.088 1155.57C50.5214 1157.3 52.2964 1159.37 53.4047 1161.77C54.513 1164.18 55.0714 1167.15 55.0714 1170.71C55.0714 1176.29 53.9714 1180.83 51.7714 1184.33C49.5797 1187.84 46.788 1189.59 43.3964 1189.59C39.363 1189.59 36.288 1186.88 34.1797 1181.45C32.063 1176.01 30.863 1167.76 30.5714 1156.69H30.2547C25.988 1156.69 22.7297 1157.62 20.4964 1159.47C18.2714 1161.32 17.1464 1164.02 17.1464 1167.57C17.1464 1171.14 18.1297 1174.06 20.088 1176.3C22.0464 1178.54 25.2214 1180.38 29.613 1181.81V1183.06L18.6964 1187.31C17.3964 1183.94 16.438 1180.46 15.8047 1176.88C15.1797 1173.29 14.863 1169.59 14.863 1165.74C14.863 1161.46 15.2714 1157.74 16.113 1154.54C16.9547 1151.35 18.1797 1148.87 19.7964 1147.08C21.0214 1145.61 22.4714 1144.59 24.1547 1144.01C25.8297 1143.42 28.8714 1143.14 33.263 1143.14H36.663C42.9464 1143.14 47.138 1142.69 49.238 1141.81C51.338 1140.93 52.588 1139.34 52.9964 1137.05Z" fill="#2F646D"/>
<path d="M35.1208 1088.19C29.6124 1088.19 25.3791 1089.25 22.4291 1091.38C19.4791 1093.49 18.0041 1096.49 18.0041 1100.37C18.0041 1104.31 19.4708 1107.31 22.3958 1109.39C25.3124 1111.46 29.5624 1112.5 35.1208 1112.5C40.7124 1112.5 44.9791 1111.48 47.9208 1109.43C50.8791 1107.39 52.3458 1104.44 52.3458 1100.59C52.3458 1096.54 50.8791 1093.46 47.9374 1091.34C45.0124 1089.24 40.7374 1088.19 35.1208 1088.19ZM48.4458 1113.3C49.3291 1113.64 50.2208 1114.05 51.1291 1114.55C52.0374 1115.07 53.0208 1115.69 54.0958 1116.44V1119.74C54.0958 1122.64 54.1124 1124.89 54.1374 1126.51C54.1624 1128.12 54.1958 1129.69 54.2458 1131.2H53.4541C53.0458 1129.03 51.7708 1127.53 49.6208 1126.69C47.4708 1125.85 43.2791 1125.44 37.0208 1125.44H11.6374C8.33745 1125.44 6.29578 1125.77 5.48745 1126.44C4.69578 1127.12 4.24578 1128.39 4.14578 1130.27H3.35412C3.04578 1127.38 2.66245 1124.44 2.22078 1121.42C1.76245 1118.43 1.23745 1115.34 0.637451 1112.14C3.04578 1112.26 5.37912 1112.34 7.62078 1112.4C9.87078 1112.47 12.0208 1112.5 14.0708 1112.5H20.7958C18.8708 1110.47 17.4124 1108.17 16.4541 1105.6C15.4874 1103.04 14.9958 1100.17 14.9958 1097.01C14.9958 1090.27 16.9458 1084.64 20.8374 1080.11C24.7291 1075.59 29.5624 1073.34 35.3374 1073.34C41.2291 1073.34 46.0124 1075.58 49.6624 1080.06C53.3124 1084.55 55.1374 1090.39 55.1374 1097.54C55.1374 1101.1 54.5958 1104.15 53.5124 1106.71C52.4208 1109.24 50.7374 1111.45 48.4458 1113.3Z" fill="#2F646D"/>
<path d="M52.7711 1035.94C52.7711 1031.79 51.2628 1028.64 48.2461 1026.49C45.2294 1024.34 40.7711 1023.27 34.8711 1023.27C29.0461 1023.27 24.6378 1024.34 21.6461 1026.49C18.6461 1028.64 17.1461 1031.79 17.1461 1035.94C17.1461 1039.99 18.6544 1043.09 21.6794 1045.22C24.6961 1047.36 29.0711 1048.42 34.8044 1048.42C40.6961 1048.42 45.1628 1047.36 48.2044 1045.24C51.2461 1043.13 52.7711 1040.02 52.7711 1035.94ZM35.0461 1063.33C29.0294 1063.33 24.1711 1060.79 20.4794 1055.74C16.7794 1050.69 14.9294 1044.03 14.9294 1035.76C14.9294 1027.61 16.7794 1021.03 20.4794 1015.99C24.1711 1010.97 28.9961 1008.45 34.9378 1008.45C40.9378 1008.45 45.7711 1010.99 49.4628 1016.06C53.1544 1021.14 54.9961 1027.81 54.9961 1036.11C54.9961 1044.1 53.1211 1050.65 49.3711 1055.72C45.6294 1060.79 40.8461 1063.33 35.0461 1063.33Z" fill="#2F646D"/>
<path d="M26.8134 995.236C23.7134 995.236 21.7384 995.586 20.8884 996.286C20.0468 996.986 19.5468 998.361 19.4051 1000.39H18.5468C18.1384 996.386 17.7134 992.861 17.2718 989.82C16.8384 986.778 16.3718 984.211 15.8884 982.12H36.4134C41.4801 982.12 45.1468 981.353 47.4468 979.82C49.7301 978.278 50.8801 975.836 50.8801 972.495C50.8801 969.036 49.5717 966.261 46.9551 964.17C44.3468 962.086 40.8301 961.036 36.4134 961.036H26.8134C23.7134 961.036 21.7384 961.386 20.8884 962.095C20.0468 962.795 19.5468 964.161 19.4051 966.186H18.5468C18.1634 962.67 17.7551 959.353 17.3051 956.253C16.8718 953.145 16.3968 950.253 15.8884 947.57C17.5968 947.628 19.2051 947.67 20.7468 947.703C22.2884 947.728 23.7051 947.745 24.9884 947.745H36.6634C42.9468 947.745 47.1301 947.32 49.2301 946.453C51.3301 945.586 52.5884 944.003 52.9967 941.703H54.2467C54.1967 944.595 54.1634 946.945 54.1384 948.728C54.1134 950.52 54.0967 952.203 54.0967 953.786V958.578C52.6467 959.12 51.3967 959.536 50.3551 959.853C49.3217 960.17 48.3468 960.411 47.4468 960.595C49.9967 962.111 51.9217 964.236 53.2051 966.945C54.4967 969.661 55.1384 972.978 55.1384 976.886C55.1384 983.036 53.6551 987.628 50.6634 990.67C47.6801 993.711 43.1801 995.236 37.1634 995.236H26.8134Z" fill="#2F646D"/>
<path d="M36.2711 915.103C42.8377 915.103 47.1961 914.653 49.3377 913.761C51.4877 912.861 52.8377 911.236 53.3877 908.878H54.2461V908.611C54.1961 912.195 54.1544 917.561 54.1044 924.728C53.6294 926.011 52.6211 926.911 51.0961 927.436C49.5711 927.953 46.7627 928.22 42.6877 928.22H37.3794L19.6211 928.036V933.186L17.5044 932.695C15.9127 928.87 14.0627 925.62 11.9794 922.936C9.88774 920.253 7.46274 917.986 4.68774 916.136V914.653C5.92941 914.803 7.33774 914.92 8.91274 914.995C10.4877 915.07 12.1794 915.103 13.9961 915.103H16.5461V904.586L19.6211 905.661V915.103H36.2711Z" fill="#2F646D"/>
<path d="M51.0961 862.836L38.9878 857.686L39.1294 856.436C43.6044 855.478 46.9878 853.686 49.3044 851.061C51.6128 848.436 52.7711 845.095 52.7711 841.036C52.7711 837.878 52.1044 835.278 50.7544 833.253C49.4044 831.22 47.6794 830.203 45.5794 830.203C43.9128 830.203 42.6044 830.911 41.6711 832.328C40.7461 833.753 39.7544 837.07 38.7044 842.295C37.2961 849.245 35.7711 853.853 34.1378 856.12C32.5044 858.386 30.1794 859.528 27.1711 859.528C23.5878 859.528 20.6628 857.445 18.3628 853.278C16.0711 849.12 14.9294 843.661 14.9294 836.92C14.9294 833.636 15.1961 830.445 15.7544 827.345C16.2961 824.236 17.1044 821.253 18.1544 818.395L28.1378 822.595L28.0628 823.803C24.5794 825.061 21.8794 826.92 19.9628 829.403C18.0378 831.878 17.0794 834.745 17.0794 837.995C17.0794 840.528 17.6961 842.678 18.9378 844.436C20.1794 846.203 21.6878 847.078 23.4544 847.078C26.4128 847.078 28.4961 843.52 29.7211 836.386C29.9544 835.07 30.1294 834.053 30.2544 833.336C31.4294 826.803 32.8628 822.328 34.5544 819.911C36.2461 817.495 38.6294 816.286 41.7128 816.286C45.8628 816.286 49.1461 818.52 51.5461 822.978C53.9378 827.436 55.1378 833.578 55.1378 841.395C55.1378 845.186 54.7878 848.911 54.0961 852.561C53.4044 856.22 52.4044 859.645 51.0961 862.836Z" fill="#2F646D"/>
<path d="M52.7711 777.77C52.7711 773.62 51.2628 770.478 48.2461 768.328C45.2294 766.178 40.7711 765.103 34.8711 765.103C29.0461 765.103 24.6378 766.178 21.6461 768.328C18.6461 770.478 17.1461 773.62 17.1461 777.77C17.1461 781.828 18.6544 784.92 21.6794 787.053C24.6961 789.195 29.0711 790.261 34.8044 790.261C40.6961 790.261 45.1628 789.203 48.2044 787.078C51.2461 784.961 52.7711 781.861 52.7711 777.77ZM35.0461 805.161C29.0294 805.161 24.1711 802.628 20.4794 797.578C16.7794 792.52 14.9294 785.853 14.9294 777.595C14.9294 769.445 16.7794 762.853 20.4794 757.828C24.1711 752.803 28.9961 750.286 34.9378 750.286C40.9378 750.286 45.7711 752.82 49.4628 757.895C53.1544 762.97 54.9961 769.653 54.9961 777.945C54.9961 785.945 53.1211 792.478 49.3711 797.553C45.6294 802.628 40.8461 805.161 35.0461 805.161Z" fill="#2F646D"/>
<path d="M19.1876 692.353L30.2542 696.736V697.861C25.9376 698.303 22.6459 699.636 20.3959 701.845C18.1292 704.053 17.0042 707.053 17.0042 710.836C17.0042 715.403 18.5542 718.945 21.6459 721.47C24.7376 723.986 29.0959 725.253 34.7292 725.253C40.1292 725.253 44.3959 723.82 47.5459 720.953C50.6959 718.086 52.2792 714.236 52.2792 709.403C52.2792 706.211 51.4542 703.386 49.8209 700.92C48.1876 698.461 45.8042 696.453 42.6792 694.903L44.2959 692.353C47.9876 694.236 50.7376 696.845 52.5292 700.186C54.3209 703.528 55.2126 707.686 55.2126 712.67C55.2126 720.67 53.3626 727.145 49.6376 732.103C45.9292 737.053 41.1209 739.528 35.1959 739.528C29.0626 739.528 24.1376 737.086 20.4209 732.186C16.7126 727.295 14.8542 720.795 14.8542 712.67C14.8542 709.095 15.2209 705.603 15.9459 702.203C16.6792 698.795 17.7542 695.511 19.1876 692.353Z" fill="#2F646D"/>
<path d="M15.8874 663.736C17.3958 663.828 19.0708 663.895 20.9041 663.936C22.7374 663.986 25.5458 664.003 29.3124 664.003H39.4124C44.9791 664.003 48.5874 663.586 50.2291 662.753C51.8708 661.92 52.9458 660.378 53.4541 658.145L54.3124 658.186C54.2458 659.645 54.1874 661.27 54.1541 663.045C54.1124 664.82 54.0958 667.403 54.0958 670.811C54.0958 673.853 54.1124 676.253 54.1541 678.011C54.1874 679.778 54.2458 681.461 54.3124 683.07H53.4541C52.8624 680.861 51.7624 679.336 50.1541 678.486C48.5624 677.628 45.1874 677.211 40.0208 677.211H26.8124C23.6874 677.211 21.6874 677.561 20.8374 678.261C19.9708 678.961 19.4708 680.328 19.3291 682.353H18.4708C18.0624 678.42 17.6541 674.936 17.2291 671.903C16.8124 668.878 16.3708 666.153 15.8874 663.736ZM6.51245 677.928C4.83745 677.928 3.44578 677.245 2.32078 675.886C1.19578 674.528 0.637451 672.836 0.637451 670.811C0.637451 668.778 1.19578 667.078 2.32078 665.703C3.44578 664.336 4.83745 663.645 6.51245 663.645C8.17912 663.645 9.57911 664.336 10.6958 665.703C11.8208 667.078 12.3791 668.778 12.3791 670.811C12.3791 672.895 11.8374 674.603 10.7374 675.928C9.63745 677.261 8.22912 677.928 6.51245 677.928Z" fill="#2F646D"/>
<path d="M32.763 617.386C32.738 617.628 32.7214 617.895 32.7047 618.195C32.6964 618.486 32.688 618.928 32.688 619.486C32.688 624.386 33.6047 628.145 35.4047 630.77C37.2214 633.395 39.8464 634.711 43.2547 634.711C45.8547 634.711 47.938 634.011 49.5047 632.628C51.063 631.236 51.8464 629.395 51.8464 627.103C51.8464 623.695 50.538 621.228 47.9047 619.686C45.2797 618.153 40.9964 617.386 35.0464 617.386H32.763ZM52.9964 597.736L54.2464 597.778C54.1964 600.853 54.163 603.17 54.138 604.72C54.1214 606.27 54.1047 607.703 54.1047 609.02V613.045C53.1714 613.786 52.213 614.428 51.2214 614.945C50.2297 615.47 49.188 615.911 48.088 616.27C50.5214 617.995 52.2964 620.061 53.4047 622.461C54.513 624.87 55.0714 627.845 55.0714 631.395C55.0714 636.978 53.9714 641.52 51.7714 645.02C49.5797 648.528 46.788 650.286 43.3964 650.286C39.363 650.286 36.288 647.57 34.1797 642.136C32.063 636.703 30.863 628.461 30.5714 617.386H30.2547C25.988 617.386 22.7297 618.311 20.4964 620.161C18.2714 622.011 17.1464 624.711 17.1464 628.261C17.1464 631.845 18.1297 634.753 20.088 636.995C22.0464 639.228 25.2214 641.061 29.613 642.495V643.753L18.6964 648.003C17.3964 644.628 16.438 641.153 15.8047 637.57C15.1797 633.995 14.863 630.278 14.863 626.428C14.863 622.161 15.2714 618.428 16.113 615.236C16.9547 612.045 18.1797 609.553 19.7964 607.761C21.0214 606.303 22.4714 605.278 24.1547 604.703C25.8297 604.111 28.8714 603.828 33.263 603.828H36.663C42.9464 603.828 47.138 603.386 49.238 602.503C51.338 601.62 52.588 600.036 52.9964 597.736Z" fill="#2F646D"/>
<path d="M11.5628 585.278C8.43781 585.278 6.44614 585.628 5.57947 586.328C4.72947 587.028 4.22114 588.395 4.07947 590.428H3.29614C2.93781 586.82 2.53781 583.461 2.08781 580.353C1.65448 577.253 1.17948 574.403 0.671143 571.803C2.12948 571.895 3.98781 571.961 6.22114 572.003C8.47114 572.053 11.0795 572.078 14.0711 572.078H39.4211C44.9878 572.078 48.5878 571.653 50.2378 570.82C51.8795 569.986 52.9545 568.445 53.4545 566.211L54.3211 566.253C54.2461 567.72 54.1878 569.336 54.1545 571.111C54.1128 572.886 54.0961 575.478 54.0961 578.878C54.0961 581.92 54.1128 584.32 54.1545 586.086C54.1878 587.845 54.2461 589.528 54.3211 591.145H53.4545C52.8628 588.903 51.7711 587.361 50.1795 586.528C48.5878 585.695 45.2128 585.278 40.0295 585.278H11.5628Z" fill="#2F646D"/>
<path d="M18.0051 495.953C18.0051 499.861 19.4884 502.886 22.4468 505.011C25.4051 507.153 29.6384 508.22 35.1217 508.22C40.7134 508.22 44.9717 507.153 47.9217 505.011C50.8717 502.886 52.3467 499.786 52.3467 495.728C52.3467 491.878 50.8717 488.936 47.9217 486.895C44.9717 484.845 40.7134 483.82 35.1217 483.82C29.5634 483.82 25.3134 484.861 22.3884 486.928C19.4718 489.011 18.0051 492.011 18.0051 495.953ZM48.4384 483.02C50.7384 484.87 52.4217 487.07 53.5134 489.62C54.5967 492.17 55.1384 495.22 55.1384 498.77C55.1384 505.936 53.3051 511.761 49.6634 516.253C46.0051 520.745 41.2301 522.986 35.3384 522.986C29.5634 522.986 24.7301 520.728 20.8384 516.203C16.9468 511.686 14.9968 506.053 14.9968 499.311C14.9968 496.145 15.4801 493.286 16.4468 490.72C17.4134 488.145 18.8718 485.853 20.7968 483.82H11.6301C8.36343 483.82 6.33009 484.153 5.53009 484.836C4.72176 485.503 4.27176 486.761 4.14676 488.611H3.35509C2.95509 485.186 2.53843 481.97 2.08843 478.986C1.64676 476.003 1.16343 473.186 0.638428 470.528C3.04676 470.645 5.37176 470.736 7.62176 470.795C9.86342 470.861 12.0134 470.886 14.0634 470.886H37.0134C43.2717 470.886 47.4717 470.47 49.6217 469.636C51.7717 468.803 53.0467 467.295 53.4551 465.111H54.2467C54.1967 466.095 54.1634 467.145 54.1384 468.245C54.1134 469.353 54.0967 470.978 54.0967 473.128C54.0967 475.095 54.1134 476.545 54.1384 477.47C54.1634 478.395 54.1967 479.228 54.2467 479.978C53.3551 480.603 52.4384 481.17 51.4717 481.678C50.4967 482.186 49.4884 482.628 48.4384 483.02Z" fill="#2F646D"/>
<path d="M15.8874 438.82C17.3958 438.911 19.0708 438.978 20.9041 439.02C22.7374 439.07 25.5458 439.086 29.3124 439.086H39.4124C44.9791 439.086 48.5874 438.67 50.2291 437.836C51.8708 437.003 52.9458 435.461 53.4541 433.228L54.3124 433.27C54.2458 434.728 54.1874 436.353 54.1541 438.128C54.1124 439.903 54.0958 442.486 54.0958 445.895C54.0958 448.936 54.1124 451.336 54.1541 453.095C54.1874 454.861 54.2458 456.545 54.3124 458.153H53.4541C52.8624 455.945 51.7624 454.42 50.1541 453.57C48.5624 452.711 45.1874 452.295 40.0208 452.295H26.8124C23.6874 452.295 21.6874 452.645 20.8374 453.345C19.9708 454.045 19.4708 455.411 19.3291 457.436H18.4708C18.0624 453.503 17.6541 450.02 17.2291 446.986C16.8124 443.961 16.3708 441.236 15.8874 438.82ZM6.51245 453.011C4.83745 453.011 3.44578 452.328 2.32078 450.97C1.19578 449.611 0.637451 447.92 0.637451 445.895C0.637451 443.861 1.19578 442.161 2.32078 440.786C3.44578 439.42 4.83745 438.728 6.51245 438.728C8.17912 438.728 9.57911 439.42 10.6958 440.786C11.8208 442.161 12.3791 443.861 12.3791 445.895C12.3791 447.978 11.8374 449.686 10.7374 451.011C9.63745 452.345 8.22912 453.011 6.51245 453.011Z" fill="#2F646D"/>
<path d="M51.0961 425.911L38.9878 420.761L39.1294 419.511C43.6044 418.553 46.9878 416.761 49.3044 414.136C51.6128 411.511 52.7711 408.17 52.7711 404.111C52.7711 400.953 52.1044 398.353 50.7544 396.328C49.4044 394.295 47.6794 393.278 45.5794 393.278C43.9128 393.278 42.6044 393.986 41.6711 395.403C40.7461 396.828 39.7544 400.145 38.7044 405.37C37.2961 412.32 35.7711 416.928 34.1378 419.195C32.5044 421.461 30.1794 422.603 27.1711 422.603C23.5878 422.603 20.6628 420.52 18.3628 416.353C16.0711 412.195 14.9294 406.736 14.9294 399.995C14.9294 396.711 15.1961 393.52 15.7544 390.42C16.2961 387.311 17.1044 384.328 18.1544 381.47L28.1378 385.67L28.0628 386.878C24.5794 388.136 21.8794 389.995 19.9628 392.478C18.0378 394.953 17.0794 397.82 17.0794 401.07C17.0794 403.603 17.6961 405.753 18.9378 407.511C20.1794 409.278 21.6878 410.153 23.4544 410.153C26.4128 410.153 28.4961 406.595 29.7211 399.461C29.9544 398.145 30.1294 397.128 30.2544 396.411C31.4294 389.878 32.8628 385.403 34.5544 382.986C36.2461 380.57 38.6294 379.361 41.7128 379.361C45.8628 379.361 49.1461 381.595 51.5461 386.053C53.9378 390.511 55.1378 396.653 55.1378 404.47C55.1378 408.261 54.7878 411.986 54.0961 415.636C53.4044 419.295 52.4044 422.72 51.0961 425.911Z" fill="#2F646D"/>
<path d="M36.2711 350.295C42.8377 350.295 47.1961 349.845 49.3377 348.953C51.4877 348.053 52.8377 346.428 53.3877 344.07H54.2461V343.803C54.1961 347.386 54.1544 352.753 54.1044 359.92C53.6294 361.203 52.6211 362.103 51.0961 362.628C49.5711 363.145 46.7627 363.411 42.6877 363.411H37.3794L19.6211 363.228V368.378L17.5044 367.886C15.9127 364.061 14.0627 360.811 11.9794 358.128C9.88774 355.445 7.46274 353.178 4.68774 351.328V349.845C5.92941 349.995 7.33774 350.111 8.91274 350.186C10.4877 350.261 12.1794 350.295 13.9961 350.295H16.5461V339.778L19.6211 340.853V350.295H36.2711Z" fill="#2F646D"/>
<path d="M32.763 299.695C32.738 299.936 32.7214 300.203 32.7047 300.503C32.6964 300.795 32.688 301.236 32.688 301.795C32.688 306.695 33.6047 310.453 35.4047 313.078C37.2214 315.703 39.8464 317.02 43.2547 317.02C45.8547 317.02 47.938 316.32 49.5047 314.936C51.063 313.545 51.8464 311.703 51.8464 309.411C51.8464 306.003 50.538 303.536 47.9047 301.995C45.2797 300.461 40.9964 299.695 35.0464 299.695H32.763ZM52.9964 280.045L54.2464 280.086C54.1964 283.161 54.163 285.478 54.138 287.028C54.1214 288.578 54.1047 290.011 54.1047 291.328V295.353C53.1714 296.095 52.213 296.736 51.2214 297.253C50.2297 297.778 49.188 298.22 48.088 298.578C50.5214 300.303 52.2964 302.37 53.4047 304.77C54.513 307.178 55.0714 310.153 55.0714 313.703C55.0714 319.286 53.9714 323.828 51.7714 327.328C49.5797 330.836 46.788 332.595 43.3964 332.595C39.363 332.595 36.288 329.878 34.1797 324.445C32.063 319.011 30.863 310.77 30.5714 299.695H30.2547C25.988 299.695 22.7297 300.62 20.4964 302.47C18.2714 304.32 17.1464 307.02 17.1464 310.57C17.1464 314.153 18.1297 317.061 20.088 319.303C22.0464 321.536 25.2214 323.37 29.613 324.803V326.061L18.6964 330.311C17.3964 326.936 16.438 323.461 15.8047 319.878C15.1797 316.303 14.863 312.586 14.863 308.736C14.863 304.47 15.2714 300.736 16.113 297.545C16.9547 294.353 18.1797 291.861 19.7964 290.07C21.0214 288.611 22.4714 287.586 24.1547 287.011C25.8297 286.42 28.8714 286.136 33.263 286.136H36.663C42.9464 286.136 47.138 285.695 49.238 284.811C51.338 283.928 52.588 282.345 52.9964 280.045Z" fill="#2F646D"/>
<path d="M54.3211 274.345L53.5294 274.386C52.9378 272.12 51.7878 270.561 50.1128 269.711C48.4294 268.861 44.8378 268.436 39.3461 268.436H26.8128C23.6878 268.436 21.6961 268.786 20.8128 269.486C19.9461 270.186 19.4544 271.545 19.3378 273.536H18.5461C18.2128 270.078 17.8211 266.886 17.3794 263.961C16.9461 261.036 16.4461 258.395 15.8961 256.036H24.2461C21.1128 254.453 18.7794 252.303 17.2378 249.57C15.6961 246.845 14.9294 243.486 14.9294 239.52C14.9294 233.228 16.4044 228.553 19.3544 225.511C22.2961 222.47 26.8128 220.945 32.9044 220.945H39.3461C44.9128 220.945 48.5378 220.52 50.2211 219.653C51.9044 218.786 53.0044 217.228 53.5294 214.995H54.3211C54.2461 216.486 54.1878 218.111 54.1544 219.87C54.1211 221.636 54.1044 224.211 54.1044 227.62C54.1044 230.72 54.1211 233.161 54.1544 234.936C54.1878 236.711 54.2461 238.386 54.3211 239.97L53.5294 240.011C52.9544 237.803 51.8711 236.278 50.2711 235.428C48.6711 234.578 45.4294 234.153 40.5378 234.153H33.5878C28.5211 234.153 24.8461 234.911 22.5544 236.436C20.2628 237.953 19.1128 240.403 19.1128 243.778C19.1128 247.236 20.4378 250.028 23.0544 252.145C25.6794 254.261 29.1878 255.32 33.5878 255.32H38.7044C44.6794 255.32 48.5044 254.903 50.2044 254.045C51.8961 253.195 53.0044 251.636 53.5294 249.37H54.3211C54.2461 250.861 54.1878 252.486 54.1544 254.245C54.1211 256.011 54.1044 258.586 54.1044 261.995C54.1044 265.095 54.1211 267.536 54.1544 269.311C54.1878 271.086 54.2461 272.761 54.3211 274.345Z" fill="#2F646D"/>
<path d="M19.1876 159.887L30.2542 164.27V165.387C25.9376 165.845 22.6459 167.17 20.3959 169.378C18.1292 171.578 17.0042 174.587 17.0042 178.378C17.0042 182.937 18.5542 186.478 21.6459 189.003C24.7376 191.528 29.0959 192.778 34.7292 192.778C40.1292 192.778 44.3959 191.345 47.5459 188.487C50.6959 185.62 52.2792 181.778 52.2792 176.945C52.2792 173.745 51.4542 170.92 49.8209 168.453C48.1876 165.995 45.8042 163.987 42.6792 162.445L44.2959 159.887C47.9876 161.77 50.7376 164.378 52.5292 167.712C54.3209 171.062 55.2126 175.228 55.2126 180.203C55.2126 188.203 53.3626 194.678 49.6376 199.637C45.9292 204.587 41.1209 207.062 35.1959 207.062C29.0626 207.062 24.1376 204.62 20.4209 199.72C16.7126 194.82 14.8542 188.32 14.8542 180.203C14.8542 176.628 15.2209 173.137 15.9459 169.737C16.6792 166.328 17.7542 163.053 19.1876 159.887Z" fill="#2F646D"/>
<path d="M15.8874 131.27C17.3958 131.353 19.0708 131.428 20.9041 131.461C22.7374 131.511 25.5458 131.528 29.3124 131.528H39.4124C44.9791 131.528 48.5874 131.111 50.2291 130.278C51.8708 129.445 52.9458 127.911 53.4541 125.67L54.3124 125.72C54.2458 127.178 54.1874 128.795 54.1541 130.57C54.1124 132.345 54.0958 134.928 54.0958 138.336C54.0958 141.378 54.1124 143.786 54.1541 145.545C54.1874 147.303 54.2458 148.995 54.3124 150.603H53.4541C52.8624 148.395 51.7624 146.861 50.1541 146.02C48.5624 145.161 45.1874 144.736 40.0208 144.736H26.8124C23.6874 144.736 21.6874 145.086 20.8374 145.786C19.9708 146.486 19.4708 147.853 19.3291 149.886H18.4708C18.0624 145.953 17.6541 142.461 17.2291 139.428C16.8124 136.403 16.3708 133.678 15.8874 131.27ZM6.51245 145.453C4.83745 145.453 3.44578 144.778 2.32078 143.42C1.19578 142.061 0.637451 140.37 0.637451 138.336C0.637451 136.303 1.19578 134.603 2.32078 133.236C3.44578 131.861 4.83745 131.17 6.51245 131.17C8.17912 131.17 9.57911 131.861 10.6958 133.236C11.8208 134.603 12.3791 136.303 12.3791 138.336C12.3791 140.428 11.8374 142.136 10.7374 143.461C9.63745 144.786 8.22912 145.453 6.51245 145.453Z" fill="#2F646D"/>
<path d="M54.3211 119.337L53.5294 119.378C52.9378 117.103 51.7878 115.553 50.1128 114.695C48.4294 113.853 44.8378 113.428 39.3461 113.428H26.8128C23.6878 113.428 21.6961 113.778 20.8128 114.478C19.9461 115.178 19.4544 116.528 19.3378 118.52H18.5461C18.2128 115.062 17.8211 111.87 17.3794 108.953C16.9461 106.02 16.4461 103.387 15.8961 101.028H24.2461C21.1128 99.4449 18.7794 97.2866 17.2378 94.5533C15.6961 91.8283 14.9294 88.4783 14.9294 84.5033C14.9294 78.2116 16.4044 73.5449 19.3544 70.5033C22.2961 67.4533 26.8128 65.9366 32.9044 65.9366H39.3461C44.9128 65.9366 48.5378 65.5033 50.2211 64.6366C51.9044 63.7699 53.0044 62.2199 53.5294 59.9783H54.3211C54.2461 61.4783 54.1878 63.1033 54.1544 64.8616C54.1211 66.6199 54.1044 69.2033 54.1044 72.6116C54.1044 75.7116 54.1211 78.1533 54.1544 79.9283C54.1878 81.6949 54.2461 83.3783 54.3211 84.9616L53.5294 85.0033C52.9544 82.7949 51.8711 81.2699 50.2711 80.4116C48.6711 79.5699 45.4294 79.1366 40.5378 79.1366H33.5878C28.5211 79.1366 24.8461 79.9033 22.5544 81.4199C20.2628 82.9449 19.1128 85.3949 19.1128 88.7616C19.1128 92.2199 20.4378 95.0116 23.0544 97.1366C25.6794 99.2533 29.1878 100.312 33.5878 100.312H38.7044C44.6794 100.312 48.5044 99.8866 50.2044 99.0283C51.8961 98.1866 53.0044 96.6199 53.5294 94.3533H54.3211C54.2461 95.8533 54.1878 97.4783 54.1544 99.2366C54.1211 100.995 54.1044 103.578 54.1044 106.987C54.1044 110.087 54.1211 112.528 54.1544 114.303C54.1878 116.07 54.2461 117.753 54.3211 119.337Z" fill="#2F646D"/>
<path d="M58.646 40.5866C61.0543 40.5866 62.9376 39.4866 64.271 37.2949C65.6043 35.1032 66.271 32.0282 66.271 28.0532C66.271 23.6366 65.571 20.1366 64.1793 17.5282C62.7793 14.9449 60.9126 13.6449 58.571 13.6449C56.3293 13.6449 54.6126 14.9616 53.396 17.6032C52.196 20.2449 51.5876 23.9949 51.5876 28.8616C51.5876 32.4366 52.2293 35.2866 53.5293 37.4032C54.8126 39.5282 56.521 40.5866 58.646 40.5866ZM17.146 28.2366C17.146 30.9199 18.1876 33.1116 20.2626 34.7949C22.3376 36.4782 25.0626 37.3199 28.421 37.3199C31.8376 37.3199 34.5126 36.4699 36.446 34.7699C38.3793 33.0699 39.346 30.7366 39.346 27.7866C39.346 25.0699 38.321 22.9532 36.246 21.4282C34.1793 19.9116 31.3126 19.1449 27.6376 19.1449C24.371 19.1449 21.796 19.9532 19.9376 21.5866C18.0793 23.2116 17.146 25.4282 17.146 28.2366ZM9.80431 0.34491L20.0043 4.46157V5.31991C18.3626 5.79491 17.071 6.61157 16.121 7.77824C15.1793 8.93657 14.7126 10.3116 14.7126 11.9032C14.7126 12.8199 15.2626 14.1949 16.3626 16.0199L16.4626 16.1949C18.0376 12.1949 19.7793 9.27824 21.671 7.43657C23.571 5.61157 25.8043 4.68657 28.3543 4.68657C31.4543 4.68657 34.1543 6.05324 36.446 8.78657C38.7376 11.5199 40.2376 15.1782 40.9543 19.7782C41.296 21.8616 41.5293 24.3699 41.671 27.2949C41.8626 30.5449 42.4126 32.1699 43.321 32.1699C44.371 32.1699 45.121 29.6366 45.5793 24.5616C45.8126 21.8449 46.0376 19.6032 46.2626 17.8449C47.0043 11.5532 48.121 7.08657 49.6376 4.46157C51.1626 1.84491 53.346 0.51991 56.2126 0.51991C60.0043 0.51991 63.0043 3.07824 65.2126 8.17824C67.4293 13.2866 68.5293 20.2366 68.5293 29.0366C68.5293 36.7032 67.6293 42.8699 65.821 47.5449C64.0293 52.2199 61.6543 54.5532 58.721 54.5532C56.396 54.5532 54.5126 53.1366 53.0376 50.2949C51.571 47.4616 50.5043 43.1699 49.8376 37.4032C49.646 40.4782 49.2376 42.7782 48.6043 44.2782C47.971 45.7866 47.0876 46.5366 45.971 46.5366C44.7043 46.5366 43.6543 45.6199 42.821 43.7699C41.9876 41.9116 41.3126 39.0616 40.8126 35.2116C40.0293 40.2866 38.546 44.2282 36.371 47.0282C34.196 49.8366 31.5543 51.2366 28.421 51.2366C24.5793 51.2366 21.3543 49.0616 18.7543 44.7032C16.1543 40.3532 14.8543 34.8282 14.8543 28.1449C14.8543 27.0366 14.9293 25.8032 15.071 24.4366C15.2126 23.0532 15.4376 21.3532 15.7543 19.3199C13.696 16.9699 12.1543 14.4699 11.1293 11.8282C10.1043 9.18657 9.58765 6.42824 9.58765 3.56991C9.58765 3.02824 9.60431 2.50324 9.64598 1.97824C9.67931 1.46158 9.73765 0.911576 9.80431 0.34491Z" fill="#2F646D"/>
</svg>
