<svg width="68" height="1878" viewBox="0 0 68 1878" fill="none" xmlns="http://www.w3.org/2000/svg">
<path d="M35.5548 37.8199L48.7298 30.0283L35.5548 22.2449V37.8199ZM14.2131 -0.00506592H15.0715C15.7881 2.14493 17.3881 4.40326 19.8715 6.75326C22.3548 9.1116 26.0631 11.8783 31.0048 15.0366L63.3381 35.6283V36.3866L31.3631 57.8282C24.6548 62.3282 20.3131 65.5366 18.3298 67.4282C16.3465 69.3199 15.2631 71.0449 15.0715 72.5949L14.2131 72.5532C14.2881 70.8782 14.3381 69.1282 14.3715 67.2949C14.4131 65.4616 14.4298 63.0032 14.4298 59.9282C14.4298 56.1116 14.4131 52.9282 14.3715 50.3949C14.3381 47.8616 14.2881 45.3699 14.2131 42.9199L15.0715 42.8783C15.2381 44.3699 15.5548 45.4282 16.0048 46.0532C16.4548 46.6782 17.1548 46.9949 18.0798 46.9949C18.9131 46.9949 20.1715 46.6116 21.8548 45.8532C23.5465 45.0949 25.6131 43.9533 28.0715 42.4283L33.1215 39.2949V20.8116L30.6465 19.3366C28.0965 17.7866 25.9715 16.6366 24.2715 15.9116C22.5798 15.1783 21.2048 14.8116 20.1548 14.8116C18.7215 14.8116 17.5631 15.3949 16.6798 16.5616C15.7965 17.7199 15.2631 19.3533 15.0715 21.4366L14.2131 21.3949C14.2881 19.8699 14.3381 18.2949 14.3715 16.6699C14.4131 15.0449 14.4298 12.9616 14.4298 10.4283C14.4298 7.8616 14.4131 5.82826 14.3715 4.31993C14.3381 2.8116 14.2881 1.36993 14.2131 -0.00506592Z" fill="#2F646D"/>
<path d="M49.3407 161.928L38.274 157.545V156.42C42.599 155.978 45.8823 154.645 48.1407 152.436C50.399 150.228 51.524 147.228 51.524 143.445C51.524 138.878 49.9823 135.336 46.8907 132.812C43.7907 130.295 39.4323 129.028 33.799 129.028C28.4073 129.028 24.1323 130.462 20.9823 133.328C17.8323 136.195 16.2573 140.045 16.2573 144.878C16.2573 148.07 17.074 150.895 18.7073 153.361C20.3407 155.82 22.724 157.828 25.849 159.378L24.2407 161.928C20.5407 160.045 17.7907 157.436 16.0073 154.095C14.2157 150.753 13.3157 146.595 13.3157 141.611C13.3157 133.612 15.174 127.137 18.8907 122.178C22.599 117.228 27.4157 114.753 33.3323 114.753C39.4657 114.753 44.3907 117.195 48.1073 122.095C51.8157 126.987 53.674 133.487 53.674 141.611C53.674 145.186 53.3073 148.678 52.5823 152.078C51.849 155.486 50.774 158.77 49.3407 161.928Z" fill="#2F646D"/>
<path d="M35.7705 204.737C35.7955 204.495 35.8122 204.228 35.8205 203.928C35.8372 203.637 35.8371 203.195 35.8371 202.637C35.8371 197.737 34.9288 193.978 33.1205 191.353C31.3038 188.728 28.6872 187.412 25.2788 187.412C22.6788 187.412 20.5955 188.112 19.0288 189.495C17.4622 190.887 16.6788 192.728 16.6788 195.02C16.6788 198.428 17.9955 200.895 20.6205 202.437C23.2538 203.97 27.5372 204.737 33.4788 204.737H35.7705ZM15.5372 224.387L14.2872 224.345C14.3372 221.27 14.3705 218.953 14.3955 217.403C14.4122 215.853 14.4288 214.42 14.4288 213.103V209.078C15.3622 208.337 16.3205 207.695 17.3122 207.178C18.3038 206.653 19.3455 206.212 20.4455 205.853C18.0122 204.128 16.2372 202.062 15.1288 199.662C14.0205 197.253 13.4622 194.278 13.4622 190.728C13.4622 185.145 14.5622 180.603 16.7538 177.103C18.9538 173.595 21.7455 171.837 25.1372 171.837C29.1705 171.837 32.2455 174.553 34.3538 179.987C36.4621 185.42 37.6705 193.662 37.9538 204.737H38.2788C42.5455 204.737 45.8038 203.812 48.0371 201.962C50.2621 200.112 51.3871 197.412 51.3871 193.862C51.3871 190.278 50.4038 187.37 48.4455 185.128C46.4871 182.895 43.3121 181.062 38.9205 179.628V178.37L49.8371 174.12C51.1288 177.495 52.0871 180.97 52.7288 184.553C53.3538 188.128 53.6705 191.845 53.6705 195.695C53.6705 199.962 53.2538 203.695 52.4205 206.887C51.5788 210.078 50.3538 212.57 48.7288 214.362C47.5121 215.82 46.0621 216.845 44.3788 217.42C42.7038 218.012 39.6621 218.295 35.2705 218.295H31.8705C25.5872 218.295 21.3955 218.737 19.2955 219.62C17.1955 220.503 15.9455 222.087 15.5372 224.387Z" fill="#2F646D"/>
<path d="M14.2122 230.987H15.0705C15.6705 233.228 16.7622 234.762 18.3538 235.595C19.9372 236.428 23.3205 236.853 28.4955 236.853H41.7121C44.8371 236.853 46.8371 236.503 47.6955 235.803C48.5538 235.095 49.0538 233.737 49.1955 231.703H50.0538C50.4621 235.762 50.8871 239.32 51.3288 242.378C51.7705 245.437 52.2288 247.995 52.7038 250.053H43.7538C47.0455 251.937 49.5205 254.178 51.1871 256.787C52.8455 259.403 53.6705 262.378 53.6705 265.72C53.6705 266.195 53.6621 266.562 53.6538 266.812C53.6371 267.07 53.6205 267.303 53.6038 267.512L41.6455 262.495V261.337C42.1205 260.853 42.4871 260.312 42.7288 259.703C42.9871 259.087 43.1121 258.412 43.1121 257.662C43.1121 255.187 42.2038 253.295 40.4038 252.003C38.6038 250.703 36.0038 250.053 32.6121 250.053H29.1122C23.5455 250.053 19.9372 250.47 18.2955 251.303C16.6455 252.145 15.5788 253.678 15.0705 255.92L14.2122 255.87C14.2872 254.412 14.3372 252.795 14.3788 251.02C14.4122 249.237 14.4288 246.653 14.4288 243.253C14.4288 240.203 14.4122 237.803 14.3788 236.045C14.3372 234.287 14.2872 232.595 14.2122 230.987Z" fill="#2F646D"/>
<path d="M50.5205 301.27C50.5205 297.361 49.0455 294.336 46.0789 292.211C43.1205 290.07 38.8955 289.003 33.4039 289.003C27.8205 289.003 23.5539 290.07 20.6039 292.211C17.6539 294.336 16.1789 297.436 16.1789 301.495C16.1789 305.345 17.6539 308.286 20.6039 310.328C23.5539 312.378 27.8205 313.403 33.4039 313.403C38.9705 313.403 43.2122 312.361 46.1372 310.295C49.0622 308.211 50.5205 305.211 50.5205 301.27ZM20.0872 314.203C17.7955 312.353 16.1039 310.153 15.0205 307.603C13.9289 305.053 13.3872 302.003 13.3872 298.453C13.3872 291.286 15.2205 285.461 18.8705 280.97C22.5205 276.478 27.2955 274.236 33.1872 274.236C38.9705 274.236 43.8039 276.495 47.6955 281.02C51.5789 285.536 53.5289 291.17 53.5289 297.911C53.5289 301.078 53.0455 303.936 52.0789 306.503C51.1122 309.078 49.6622 311.37 47.7289 313.403H56.8955C60.1622 313.403 62.2039 313.07 63.0039 312.386C63.8039 311.72 64.2622 310.461 64.3789 308.611H65.1705C65.5705 312.036 65.9955 315.253 66.4372 318.236C66.8789 321.22 67.3622 324.036 67.8872 326.695C65.4789 326.578 63.1539 326.486 60.9039 326.428C58.6622 326.361 56.5122 326.336 54.4622 326.336H31.5122C25.2539 326.336 21.0539 326.753 18.9039 327.586C16.7539 328.42 15.4789 329.928 15.0705 332.111H14.2872C14.3372 331.128 14.3705 330.078 14.3955 328.978C14.4122 327.87 14.4289 326.245 14.4289 324.095C14.4289 322.128 14.4122 320.678 14.3955 319.753C14.3705 318.828 14.3372 317.995 14.2872 317.245C15.1705 316.62 16.0955 316.053 17.0622 315.545C18.0289 315.036 19.0372 314.595 20.0872 314.203Z" fill="#2F646D"/>
<path d="M51.3831 399.553C51.3831 396.87 50.3414 394.686 48.2664 392.995C46.1914 391.311 43.4664 390.47 40.0997 390.47C36.6914 390.47 34.0164 391.32 32.0831 393.02C30.1497 394.72 29.1831 397.045 29.1831 400.003C29.1831 402.711 30.2081 404.836 32.2831 406.353C34.3414 407.878 37.2164 408.636 40.8914 408.636C44.1581 408.636 46.7247 407.828 48.5914 406.203C50.4497 404.578 51.3831 402.353 51.3831 399.553ZM9.88308 387.203C7.46642 387.203 5.59142 388.295 4.25808 390.486C2.92475 392.686 2.24975 395.761 2.24975 399.728C2.24975 404.145 2.94975 407.653 4.34975 410.253C5.74142 412.845 7.61642 414.145 9.94975 414.145C12.1997 414.145 13.9164 412.828 15.1248 410.178C16.3331 407.545 16.9331 403.786 16.9331 398.928C16.9331 395.345 16.2914 392.495 14.9997 390.378C13.7081 388.261 12.0081 387.203 9.88308 387.203ZM58.7247 427.436L48.5164 423.32V422.47C50.1664 421.995 51.4581 421.17 52.3997 420.011C53.3414 418.845 53.8164 417.47 53.8164 415.886C53.8164 414.97 53.2664 413.595 52.1664 411.77L52.0664 411.595C50.4914 415.595 48.7497 418.503 46.8497 420.345C44.9581 422.178 42.7247 423.095 40.1747 423.095C37.0664 423.095 34.3747 421.728 32.0831 419.003C29.7914 416.27 28.2914 412.603 27.5747 408.011C27.2331 405.928 26.9997 403.42 26.8581 400.495C26.6664 397.245 26.1164 395.611 25.2081 395.611C24.1581 395.611 23.4081 398.153 22.9497 403.22C22.7164 405.936 22.4831 408.178 22.2664 409.936C21.5247 416.228 20.3997 420.695 18.8914 423.32C17.3664 425.945 15.1831 427.261 12.3164 427.261C8.51642 427.261 5.51642 424.711 3.30809 419.603C1.09975 414.503 -0.000244141 407.545 -0.000244141 398.745C-0.000244141 391.078 0.899754 384.911 2.69975 380.245C4.50809 375.57 6.87475 373.236 9.80809 373.236C12.1248 373.236 14.0164 374.653 15.4831 377.486C16.9497 380.32 18.0247 384.62 18.6914 390.378C18.8831 387.303 19.2914 385.011 19.9247 383.503C20.5581 382.003 21.4331 381.245 22.5581 381.245C23.8164 381.245 24.8747 382.17 25.7081 384.02C26.5414 385.87 27.2164 388.72 27.7164 392.57C28.4997 387.495 29.9831 383.561 32.1497 380.753C34.3247 377.953 36.9747 376.545 40.0997 376.545C43.9414 376.545 47.1664 378.72 49.7747 383.078C52.3747 387.436 53.6747 392.953 53.6747 399.645C53.6747 400.745 53.5997 401.986 53.4581 403.361C53.3164 404.728 53.0914 406.428 52.7747 408.461C54.8331 410.82 56.3747 413.311 57.3997 415.961C58.4247 418.595 58.9331 421.353 58.9331 424.211C58.9331 424.753 58.9164 425.278 58.8831 425.803C58.8497 426.328 58.7914 426.87 58.7247 427.436Z" fill="#2F646D"/>
<path d="M35.7705 468.77C35.7955 468.528 35.8122 468.261 35.8205 467.961C35.8372 467.67 35.8371 467.228 35.8371 466.67C35.8371 461.77 34.9288 458.011 33.1205 455.386C31.3038 452.761 28.6872 451.445 25.2788 451.445C22.6788 451.445 20.5955 452.145 19.0288 453.528C17.4622 454.92 16.6788 456.761 16.6788 459.053C16.6788 462.461 17.9955 464.928 20.6205 466.47C23.2538 468.003 27.5372 468.77 33.4788 468.77H35.7705ZM15.5372 488.42L14.2872 488.378C14.3372 485.303 14.3705 482.986 14.3955 481.436C14.4122 479.886 14.4288 478.453 14.4288 477.136V473.111C15.3622 472.37 16.3205 471.728 17.3122 471.211C18.3038 470.686 19.3455 470.245 20.4455 469.886C18.0122 468.161 16.2372 466.095 15.1288 463.695C14.0205 461.286 13.4622 458.311 13.4622 454.761C13.4622 449.178 14.5622 444.636 16.7538 441.136C18.9538 437.628 21.7455 435.87 25.1372 435.87C29.1705 435.87 32.2455 438.586 34.3538 444.02C36.4621 449.453 37.6705 457.695 37.9538 468.77H38.2788C42.5455 468.77 45.8038 467.845 48.0371 465.995C50.2621 464.145 51.3871 461.445 51.3871 457.895C51.3871 454.311 50.4038 451.403 48.4455 449.161C46.4871 446.928 43.3121 445.095 38.9205 443.661V442.403L49.8371 438.153C51.1288 441.528 52.0871 445.003 52.7288 448.586C53.3538 452.161 53.6705 455.878 53.6705 459.728C53.6705 463.995 53.2538 467.728 52.4205 470.92C51.5788 474.111 50.3538 476.603 48.7288 478.395C47.5121 479.853 46.0621 480.878 44.3788 481.453C42.7038 482.045 39.6621 482.328 35.2705 482.328H31.8705C25.5872 482.328 21.3955 482.77 19.2955 483.653C17.1955 484.536 15.9455 486.12 15.5372 488.42Z" fill="#2F646D"/>
<path d="M14.2122 494.036L15.0038 493.995C15.5955 496.261 16.7372 497.803 18.4205 498.62C20.1038 499.445 23.9038 499.853 29.8288 499.853H41.7121C44.8371 499.853 46.8371 499.495 47.7121 498.778C48.5871 498.061 49.0788 496.72 49.1955 494.753H50.0538C50.3871 498.211 50.7788 501.403 51.2205 504.328C51.6621 507.253 52.1538 509.895 52.7038 512.253H44.3621C47.4621 513.803 49.7955 515.995 51.3455 518.836C52.8955 521.67 53.6705 525.161 53.6705 529.303C53.6705 533.27 52.8455 536.511 51.2038 539.02C49.5538 541.528 47.2538 543.078 44.2871 543.678C47.4455 545.286 49.7788 547.495 51.3121 550.295C52.8371 553.103 53.6038 556.611 53.6038 560.82C53.6038 566.395 52.1955 570.436 49.3788 572.945C46.5538 575.453 41.9788 576.703 35.6288 576.703H30.6455C24.2288 576.703 20.1455 577.128 18.4038 577.986C16.6538 578.828 15.5288 580.42 15.0038 582.753L14.2122 582.703C14.2872 581.245 14.3372 579.62 14.3788 577.828C14.4122 576.036 14.4288 573.42 14.4288 569.995C14.4288 566.92 14.4122 564.495 14.3788 562.72C14.3372 560.945 14.2872 559.253 14.2122 557.636H15.0038C15.5955 559.878 16.7038 561.428 18.3288 562.295C19.9538 563.161 23.3705 563.595 28.5705 563.595H34.9455C40.1038 563.595 43.8705 562.911 46.2621 561.553C48.6455 560.195 49.8371 558.061 49.8371 555.136C49.8371 552.003 48.4788 549.445 45.7621 547.478C43.0371 545.511 39.4288 544.528 34.9455 544.528H29.8288C23.8538 544.528 20.0288 544.953 18.3288 545.795C16.6372 546.653 15.5288 548.211 15.0038 550.478L14.2122 550.436C14.2872 548.936 14.3372 547.32 14.3788 545.553C14.4122 543.795 14.4288 541.27 14.4288 537.986C14.4288 535.036 14.4122 532.686 14.3788 530.936C14.3372 529.195 14.2872 527.52 14.2122 525.903H15.0038C15.5955 528.145 16.7038 529.695 18.3288 530.561C19.9538 531.428 23.3705 531.861 28.5705 531.861H34.9455C40.1705 531.861 43.9538 531.186 46.2788 529.845C48.6038 528.503 49.7705 526.37 49.7705 523.445C49.7705 520.37 48.4121 517.853 45.6871 515.903C42.9705 513.945 39.3871 512.97 34.9455 512.97H29.8288C23.8788 512.97 20.0622 513.395 18.3705 514.245C16.6705 515.095 15.5538 516.653 15.0038 518.92H14.2122C14.2872 517.428 14.3372 515.803 14.3788 514.045C14.4122 512.278 14.4288 509.703 14.4288 506.303C14.4288 503.228 14.4122 500.811 14.3788 499.053C14.3372 497.286 14.2872 495.62 14.2122 494.036Z" fill="#2F646D"/>
<path d="M40.7465 626.803C44.0465 626.686 46.6381 625.836 48.5381 624.253C50.4298 622.669 51.3798 620.594 51.3798 618.028C51.3798 615.461 50.4548 613.311 48.6048 611.586C46.7548 609.853 44.1381 608.703 40.7465 608.136V626.803ZM38.1381 642.428V608.053L37.8798 608.003C36.4048 607.911 35.3048 607.869 34.5881 607.869C29.0715 607.869 24.7631 609.269 21.6631 612.053C18.5548 614.844 17.0048 618.703 17.0048 623.628C17.0048 627.744 18.1465 631.253 20.4298 634.144C22.7048 637.036 26.0631 639.219 30.5048 640.678L28.7131 643.136C23.6298 641.261 19.8131 638.294 17.2798 634.253C14.7298 630.211 13.4631 625.069 13.4631 618.836C13.4631 611.078 15.3381 604.769 19.0965 599.928C22.8631 595.078 27.7381 592.653 33.7298 592.653C39.5715 592.653 44.3631 595.044 48.0881 599.836C51.8131 604.619 53.6715 610.811 53.6715 618.386C53.6715 625.194 52.3215 630.678 49.6215 634.861C46.9298 639.036 43.0965 641.561 38.1381 642.428Z" fill="#2F646D"/>
<path d="M35.7705 720.97C35.7955 720.728 35.8122 720.461 35.8205 720.161C35.8372 719.87 35.8371 719.428 35.8371 718.87C35.8371 713.97 34.9288 710.211 33.1205 707.586C31.3038 704.961 28.6872 703.645 25.2788 703.645C22.6788 703.645 20.5955 704.345 19.0288 705.728C17.4622 707.12 16.6788 708.961 16.6788 711.253C16.6788 714.661 17.9955 717.128 20.6205 718.67C23.2538 720.203 27.5372 720.97 33.4788 720.97H35.7705ZM15.5372 740.62L14.2872 740.578C14.3372 737.503 14.3705 735.186 14.3955 733.636C14.4122 732.086 14.4288 730.653 14.4288 729.336V725.311C15.3622 724.57 16.3205 723.928 17.3122 723.411C18.3038 722.886 19.3455 722.445 20.4455 722.086C18.0122 720.361 16.2372 718.295 15.1288 715.895C14.0205 713.486 13.4622 710.511 13.4622 706.961C13.4622 701.378 14.5622 696.836 16.7538 693.336C18.9538 689.828 21.7455 688.07 25.1372 688.07C29.1705 688.07 32.2455 690.786 34.3538 696.22C36.4621 701.653 37.6705 709.895 37.9538 720.97H38.2788C42.5455 720.97 45.8038 720.045 48.0371 718.195C50.2621 716.345 51.3871 713.645 51.3871 710.095C51.3871 706.511 50.4038 703.603 48.4455 701.361C46.4871 699.128 43.3121 697.295 38.9205 695.861V694.603L49.8371 690.353C51.1288 693.728 52.0871 697.203 52.7288 700.786C53.3538 704.361 53.6705 708.078 53.6705 711.928C53.6705 716.195 53.2538 719.928 52.4205 723.12C51.5788 726.311 50.3538 728.803 48.7288 730.595C47.5121 732.053 46.0621 733.078 44.3788 733.653C42.7038 734.245 39.6621 734.528 35.2705 734.528H31.8705C25.5872 734.528 21.3955 734.97 19.2955 735.853C17.1955 736.736 15.9455 738.32 15.5372 740.62Z" fill="#2F646D"/>
<path d="M33.4063 789.47C38.923 789.47 43.148 788.411 46.098 786.295C49.048 784.17 50.523 781.17 50.523 777.295C50.523 773.353 49.0563 770.353 46.1313 768.278C43.2146 766.203 38.9646 765.161 33.4063 765.161C27.823 765.161 23.548 766.186 20.6063 768.236C17.6563 770.278 16.1813 773.22 16.1813 777.07C16.1813 781.128 17.648 784.211 20.5896 786.32C23.523 788.42 27.798 789.47 33.4063 789.47ZM20.0813 764.361C19.198 764.028 18.3063 763.611 17.398 763.103C16.4896 762.595 15.5063 761.97 14.4313 761.228V757.911C14.4313 755.02 14.4146 752.77 14.3896 751.153C14.3646 749.545 14.3313 747.978 14.2896 746.453H15.073C15.4813 748.636 16.7563 750.145 18.9063 750.978C21.0563 751.811 25.248 752.228 31.5063 752.228H56.898C60.1896 752.228 62.2313 751.895 63.0396 751.228C63.8313 750.553 64.2813 749.278 64.3813 747.395H65.173C65.4813 750.286 65.8646 753.236 66.3146 756.236C66.7646 759.236 67.2896 762.328 67.8896 765.52C65.4813 765.403 63.148 765.32 60.9063 765.253C58.6646 765.195 56.5146 765.161 54.4563 765.161H47.7313C49.6646 767.195 51.1146 769.495 52.0813 772.061C53.048 774.628 53.5313 777.495 53.5313 780.653C53.5313 787.395 51.5813 793.028 47.6896 797.545C43.8063 802.07 38.9646 804.328 33.1896 804.328C27.298 804.328 22.523 802.086 18.8646 797.595C15.2146 793.103 13.3896 787.278 13.3896 780.111C13.3896 776.561 13.9313 773.511 15.0146 770.961C16.1063 768.411 17.7896 766.211 20.0813 764.361Z" fill="#2F646D"/>
<path d="M15.7548 841.72C15.7548 845.87 17.2631 849.011 20.2798 851.161C23.3048 853.311 27.7548 854.386 33.6548 854.386C39.4798 854.386 43.8881 853.311 46.8881 851.161C49.8798 849.011 51.3798 845.87 51.3798 841.72C51.3798 837.661 49.8714 834.57 46.8464 832.436C43.8298 830.295 39.4548 829.228 33.7298 829.228C27.8298 829.228 23.3631 830.286 20.3214 832.411C17.2798 834.528 15.7548 837.628 15.7548 841.72ZM33.4798 814.328C39.4964 814.328 44.3548 816.861 48.0464 821.911C51.7464 826.97 53.6048 833.636 53.6048 841.895C53.6048 850.045 51.7464 856.636 48.0464 861.661C44.3548 866.686 39.5298 869.203 33.5881 869.203C27.5881 869.203 22.7548 866.67 19.0631 861.595C15.3798 856.52 13.5298 849.836 13.5298 841.545C13.5298 833.545 15.4048 827.011 19.1548 821.936C22.9048 816.861 27.6798 814.328 33.4798 814.328Z" fill="#2F646D"/>
<path d="M41.7146 882.428C44.8146 882.428 46.7896 882.078 47.6396 881.378C48.4813 880.678 48.9813 879.311 49.123 877.278H49.9813C50.3896 881.278 50.8146 884.803 51.2563 887.844C51.698 890.886 52.1563 893.453 52.6396 895.544H32.1146C27.0563 895.544 23.3813 896.311 21.0896 897.844C18.798 899.386 17.648 901.828 17.648 905.169C17.648 908.628 18.9563 911.403 21.573 913.494C24.1813 915.578 27.698 916.628 32.1146 916.628H41.7146C44.8146 916.628 46.7896 916.278 47.6396 915.569C48.4813 914.869 48.9813 913.503 49.123 911.478H49.9813C50.3646 914.994 50.773 918.311 51.223 921.411C51.6563 924.519 52.1313 927.411 52.6396 930.094C50.9396 930.036 49.323 929.994 47.7813 929.961C46.2396 929.936 44.8313 929.919 43.5396 929.919H31.8646C25.5896 929.919 21.398 930.344 19.298 931.211C17.198 932.078 15.9396 933.661 15.5396 935.961H14.2813C14.3313 933.069 14.3646 930.719 14.3896 928.936C14.4146 927.144 14.4313 925.461 14.4313 923.878V919.086C15.8813 918.544 17.1313 918.128 18.173 917.811C19.2063 917.494 20.1813 917.253 21.0896 917.069C18.5313 915.553 16.6146 913.428 15.323 910.719C14.0313 908.003 13.3896 904.686 13.3896 900.778C13.3896 894.628 14.8813 890.036 17.8646 886.994C20.848 883.953 25.348 882.428 31.3646 882.428H41.7146Z" fill="#2F646D"/>
<path d="M32.2589 962.561C25.6923 962.561 21.3339 963.011 19.1923 963.903C17.0423 964.803 15.6923 966.428 15.1423 968.786H14.2839V969.053C14.3339 965.47 14.3756 960.103 14.4256 952.936C14.9006 951.653 15.9089 950.753 17.4339 950.228C18.9673 949.711 21.7673 949.445 25.8506 949.445H31.1506L48.9089 949.628V944.478L51.0256 944.97C52.6256 948.795 54.4673 952.045 56.5589 954.728C58.6423 957.411 61.0756 959.678 63.8423 961.528V963.011C62.6006 962.861 61.1923 962.745 59.6173 962.67C58.0423 962.595 56.3506 962.561 54.5339 962.561H51.9923V973.078L48.9089 972.003V962.561H32.2589Z" fill="#2F646D"/>
<path d="M17.4355 1014.83L29.5438 1019.98L29.3938 1021.24C24.9271 1022.19 21.5438 1023.98 19.2271 1026.6C16.9105 1029.23 15.7521 1032.57 15.7521 1036.63C15.7521 1039.79 16.4271 1042.39 17.7771 1044.42C19.1271 1046.44 20.8521 1047.46 22.9521 1047.46C24.6188 1047.46 25.9271 1046.75 26.8521 1045.34C27.7855 1043.91 28.7771 1040.59 29.8271 1035.38C31.2355 1028.42 32.7521 1023.81 34.3938 1021.54C36.0271 1019.28 38.3438 1018.14 41.3605 1018.14C44.9355 1018.14 47.8688 1020.22 50.1605 1024.39C52.4605 1028.54 53.6021 1034 53.6021 1040.74C53.6021 1044.03 53.3271 1047.22 52.7771 1050.33C52.2271 1053.43 51.4271 1056.41 50.3771 1059.28L40.3855 1055.07L40.4605 1053.86C43.9438 1052.6 46.6438 1050.74 48.5688 1048.27C50.4938 1045.79 51.4521 1042.92 51.4521 1039.67C51.4521 1037.14 50.8355 1034.99 49.5938 1033.23C48.3438 1031.46 46.8438 1030.59 45.0771 1030.59C42.1188 1030.59 40.0271 1034.14 38.8105 1041.29C38.5771 1042.59 38.3938 1043.61 38.2771 1044.33C37.1021 1050.86 35.6688 1055.34 33.9771 1057.75C32.2855 1060.17 29.9021 1061.38 26.8188 1061.38C22.6605 1061.38 19.3855 1059.14 16.9855 1054.69C14.5938 1050.23 13.3938 1044.09 13.3938 1036.27C13.3938 1032.48 13.7355 1028.76 14.4271 1025.1C15.1188 1021.44 16.1188 1018.03 17.4355 1014.83Z" fill="#2F646D"/>
<path d="M15.7548 1099.89C15.7548 1104.04 17.2631 1107.19 20.2798 1109.34C23.3048 1111.49 27.7548 1112.56 33.6548 1112.56C39.4798 1112.56 43.8881 1111.49 46.8881 1109.34C49.8798 1107.19 51.3798 1104.04 51.3798 1099.89C51.3798 1095.84 49.8714 1092.74 46.8464 1090.61C43.8298 1088.47 39.4548 1087.4 33.7298 1087.4C27.8298 1087.4 23.3631 1088.46 20.3214 1090.59C17.2798 1092.7 15.7548 1095.8 15.7548 1099.89ZM33.4798 1072.5C39.4964 1072.5 44.3548 1075.04 48.0464 1080.09C51.7464 1085.14 53.6048 1091.8 53.6048 1100.07C53.6048 1108.22 51.7464 1114.8 48.0464 1119.84C44.3548 1124.86 39.5298 1127.38 33.5881 1127.38C27.5881 1127.38 22.7548 1124.84 19.0631 1119.77C15.3798 1114.69 13.5298 1108.01 13.5298 1099.72C13.5298 1091.72 15.4048 1085.18 19.1548 1080.11C22.9048 1075.04 27.6798 1072.5 33.4798 1072.5Z" fill="#2F646D"/>
<path d="M49.3407 1185.31L38.274 1180.93V1179.8C42.599 1179.35 45.8823 1178.03 48.1407 1175.82C50.399 1173.61 51.524 1170.61 51.524 1166.82C51.524 1162.25 49.9823 1158.72 46.8907 1156.19C43.7907 1153.67 39.4323 1152.41 33.799 1152.41C28.4073 1152.41 24.1323 1153.84 20.9823 1156.7C17.8323 1159.57 16.2573 1163.42 16.2573 1168.25C16.2573 1171.45 17.074 1174.28 18.7073 1176.74C20.3407 1179.2 22.724 1181.21 25.849 1182.75L24.2407 1185.31C20.5407 1183.43 17.7907 1180.82 16.0073 1177.48C14.2157 1174.14 13.3157 1169.97 13.3157 1164.99C13.3157 1156.99 15.174 1150.51 18.8907 1145.56C22.599 1140.61 27.4157 1138.14 33.3323 1138.14C39.4657 1138.14 44.3907 1140.58 48.1073 1145.48C51.8157 1150.37 53.674 1156.87 53.674 1164.99C53.674 1168.57 53.3073 1172.06 52.5823 1175.46C51.849 1178.87 50.774 1182.14 49.3407 1185.31Z" fill="#2F646D"/>
<path d="M62.0156 1199.74C63.6906 1199.74 65.0822 1200.41 66.2072 1201.77C67.3239 1203.13 67.8906 1204.82 67.8906 1206.85C67.8906 1208.89 67.3239 1210.59 66.2072 1211.95C65.0822 1213.33 63.6906 1214.01 62.0156 1214.01C60.3406 1214.01 58.9489 1213.33 57.8322 1211.95C56.7072 1210.59 56.1406 1208.89 56.1406 1206.85C56.1406 1204.77 56.6906 1203.05 57.7906 1201.73C58.8906 1200.39 60.2989 1199.74 62.0156 1199.74ZM52.6406 1213.92C51.1322 1213.83 49.4572 1213.77 47.6239 1213.73C45.7822 1213.68 42.9739 1213.65 39.2072 1213.65H29.1072C23.5489 1213.65 19.9406 1214.08 18.2906 1214.9C16.6489 1215.74 15.5739 1217.28 15.0739 1219.52L14.2156 1219.47C14.2822 1218.01 14.3406 1216.39 14.3739 1214.62C14.4156 1212.84 14.4322 1210.25 14.4322 1206.85C14.4322 1203.8 14.4156 1201.4 14.3739 1199.64C14.3406 1197.88 14.2822 1196.19 14.2156 1194.59H15.0739C15.6656 1196.79 16.7656 1198.33 18.3656 1199.18C19.9656 1200.03 23.3406 1200.45 28.4989 1200.45H41.7156C44.8406 1200.45 46.8322 1200.1 47.6906 1199.4C48.5489 1198.69 49.0572 1197.34 49.1989 1195.3H50.0572C50.4656 1199.24 50.8739 1202.72 51.2906 1205.76C51.7072 1208.79 52.1572 1211.5 52.6406 1213.92Z" fill="#2F646D"/>
<path d="M35.7705 1260.27C35.7955 1260.04 35.8122 1259.76 35.8205 1259.46C35.8372 1259.17 35.8371 1258.73 35.8371 1258.17C35.8371 1253.27 34.9288 1249.51 33.1205 1246.89C31.3038 1244.26 28.6872 1242.95 25.2788 1242.95C22.6788 1242.95 20.5955 1243.64 19.0288 1245.03C17.4622 1246.42 16.6788 1248.26 16.6788 1250.56C16.6788 1253.96 17.9955 1256.43 20.6205 1257.97C23.2538 1259.5 27.5372 1260.27 33.4788 1260.27H35.7705ZM15.5372 1279.92L14.2872 1279.88C14.3372 1276.8 14.3705 1274.49 14.3955 1272.94C14.4122 1271.39 14.4288 1269.95 14.4288 1268.64V1264.61C15.3622 1263.87 16.3205 1263.23 17.3122 1262.71C18.3038 1262.19 19.3455 1261.75 20.4455 1261.39C18.0122 1259.66 16.2372 1257.59 15.1288 1255.19C14.0205 1252.79 13.4622 1249.81 13.4622 1246.26C13.4622 1240.68 14.5622 1236.14 16.7538 1232.64C18.9538 1229.13 21.7455 1227.38 25.1372 1227.38C29.1705 1227.38 32.2455 1230.09 34.3538 1235.52C36.4621 1240.95 37.6705 1249.2 37.9538 1260.27H38.2788C42.5455 1260.27 45.8038 1259.35 48.0371 1257.49C50.2621 1255.64 51.3871 1252.94 51.3871 1249.39C51.3871 1245.82 50.4038 1242.9 48.4455 1240.66C46.4871 1238.43 43.3121 1236.59 38.9205 1235.16V1233.91L49.8371 1229.65C51.1288 1233.03 52.0871 1236.5 52.7288 1240.09C53.3538 1243.67 53.6705 1247.38 53.6705 1251.23C53.6705 1255.5 53.2538 1259.23 52.4205 1262.42C51.5788 1265.62 50.3538 1268.1 48.7288 1269.89C47.5121 1271.35 46.0621 1272.38 44.3788 1272.95C42.7038 1273.54 39.6621 1273.84 35.2705 1273.84H31.8705C25.5872 1273.84 21.3955 1274.28 19.2955 1275.15C17.1955 1276.04 15.9455 1277.62 15.5372 1279.92Z" fill="#2F646D"/>
<path d="M56.9656 1292.39C60.0906 1292.39 62.0906 1292.04 62.9489 1291.34C63.8072 1290.63 64.3072 1289.27 64.4489 1287.24H65.2406C65.5989 1290.84 65.9906 1294.2 66.4406 1297.31C66.8739 1300.41 67.3489 1303.26 67.8572 1305.85C66.3989 1305.76 64.5489 1305.7 62.3072 1305.66C60.0572 1305.61 57.4489 1305.59 54.4572 1305.59H29.1072C23.5489 1305.59 19.9406 1306.01 18.2906 1306.84C16.6489 1307.68 15.5739 1309.22 15.0739 1311.45L14.2156 1311.4C14.2822 1309.94 14.3406 1308.33 14.3739 1306.55C14.4156 1304.77 14.4322 1302.19 14.4322 1298.79C14.4322 1295.74 14.4156 1293.34 14.3739 1291.58C14.3406 1289.81 14.2822 1288.13 14.2156 1286.52H15.0739C15.6656 1288.75 16.7572 1290.29 18.3489 1291.14C19.9406 1291.96 23.3156 1292.39 28.4989 1292.39H56.9656Z" fill="#2F646D"/>
<path d="M50.5205 1381.71C50.5205 1377.79 49.0455 1374.78 46.0789 1372.64C43.1205 1370.51 38.8955 1369.44 33.4039 1369.44C27.8205 1369.44 23.5539 1370.51 20.6039 1372.64C17.6539 1374.78 16.1789 1377.88 16.1789 1381.93C16.1789 1385.78 17.6539 1388.73 20.6039 1390.77C23.5539 1392.82 27.8205 1393.84 33.4039 1393.84C38.9705 1393.84 43.2122 1392.8 46.1372 1390.73C49.0622 1388.65 50.5205 1385.65 50.5205 1381.71ZM20.0872 1394.64C17.7955 1392.79 16.1039 1390.59 15.0205 1388.04C13.9289 1385.49 13.3872 1382.44 13.3872 1378.89C13.3872 1371.73 15.2205 1365.9 18.8705 1361.4C22.5205 1356.92 27.2955 1354.68 33.1872 1354.68C38.9705 1354.68 43.8039 1356.93 47.6955 1361.45C51.5789 1365.97 53.5289 1371.61 53.5289 1378.35C53.5289 1381.52 53.0455 1384.38 52.0789 1386.94C51.1122 1389.52 49.6622 1391.81 47.7289 1393.84H56.8955C60.1622 1393.84 62.2039 1393.5 63.0039 1392.83C63.8039 1392.16 64.2622 1390.9 64.3789 1389.05H65.1705C65.5705 1392.48 65.9955 1395.69 66.4372 1398.67C66.8789 1401.66 67.3622 1404.47 67.8872 1407.14C65.4789 1407.01 63.1539 1406.92 60.9039 1406.87C58.6622 1406.8 56.5122 1406.78 54.4622 1406.78H31.5122C25.2539 1406.78 21.0539 1407.19 18.9039 1408.03C16.7539 1408.86 15.4789 1410.37 15.0705 1412.54H14.2872C14.3372 1411.56 14.3705 1410.52 14.3955 1409.41C14.4122 1408.31 14.4289 1406.69 14.4289 1404.54C14.4289 1402.57 14.4122 1401.12 14.3955 1400.19C14.3705 1399.27 14.3372 1398.44 14.2872 1397.69C15.1705 1397.06 16.0955 1396.49 17.0622 1395.99C18.0289 1395.48 19.0372 1395.04 20.0872 1394.64Z" fill="#2F646D"/>
<path d="M62.0156 1424.65C63.6906 1424.65 65.0822 1425.34 66.2072 1426.69C67.3239 1428.04 67.8906 1429.74 67.8906 1431.77C67.8906 1433.8 67.3239 1435.5 66.2072 1436.88C65.0822 1438.24 63.6906 1438.94 62.0156 1438.94C60.3406 1438.94 58.9489 1438.24 57.8322 1436.88C56.7072 1435.5 56.1406 1433.8 56.1406 1431.77C56.1406 1429.69 56.6906 1427.97 57.7906 1426.64C58.8906 1425.32 60.2989 1424.65 62.0156 1424.65ZM52.6406 1438.84C51.1322 1438.75 49.4572 1438.69 47.6239 1438.64C45.7822 1438.59 42.9739 1438.58 39.2072 1438.58H29.1072C23.5489 1438.58 19.9406 1438.99 18.2906 1439.83C16.6489 1440.66 15.5739 1442.19 15.0739 1444.44L14.2156 1444.39C14.2822 1442.93 14.3406 1441.31 14.3739 1439.54C14.4156 1437.76 14.4322 1435.18 14.4322 1431.77C14.4322 1428.73 14.4156 1426.33 14.3739 1424.56C14.3406 1422.8 14.2822 1421.12 14.2156 1419.51H15.0739C15.6656 1421.71 16.7656 1423.24 18.3656 1424.09C19.9656 1424.94 23.3406 1425.37 28.4989 1425.37H41.7156C44.8406 1425.37 46.8322 1425.02 47.6906 1424.32C48.5489 1423.62 49.0572 1422.25 49.1989 1420.23H50.0572C50.4656 1424.16 50.8739 1427.64 51.2906 1430.68C51.7072 1433.7 52.1572 1436.43 52.6406 1438.84Z" fill="#2F646D"/>
<path d="M17.4355 1451.75L29.5438 1456.9L29.3938 1458.16C24.9271 1459.11 21.5438 1460.9 19.2271 1463.53C16.9105 1466.15 15.7521 1469.49 15.7521 1473.55C15.7521 1476.71 16.4271 1479.31 17.7771 1481.34C19.1271 1483.37 20.8521 1484.39 22.9521 1484.39C24.6188 1484.39 25.9271 1483.68 26.8521 1482.26C27.7855 1480.84 28.7771 1477.52 29.8271 1472.3C31.2355 1465.34 32.7521 1460.74 34.3938 1458.47C36.0271 1456.2 38.3438 1455.06 41.3605 1455.06C44.9355 1455.06 47.8688 1457.14 50.1605 1461.31C52.4605 1465.47 53.6021 1470.93 53.6021 1477.67C53.6021 1480.95 53.3271 1484.14 52.7771 1487.25C52.2271 1490.35 51.4271 1493.34 50.3771 1496.2L40.3855 1491.99L40.4605 1490.79C43.9438 1489.53 46.6438 1487.67 48.5688 1485.19C50.4938 1482.71 51.4521 1479.84 51.4521 1476.59C51.4521 1474.06 50.8355 1471.91 49.5938 1470.15C48.3438 1468.39 46.8438 1467.51 45.0771 1467.51C42.1188 1467.51 40.0271 1471.07 38.8105 1478.21C38.5771 1479.52 38.3938 1480.54 38.2771 1481.25C37.1021 1487.79 35.6688 1492.26 33.9771 1494.68C32.2855 1497.09 29.9021 1498.3 26.8188 1498.3C22.6605 1498.3 19.3855 1496.07 16.9855 1491.61C14.5938 1487.15 13.3938 1481.01 13.3938 1473.19C13.3938 1469.4 13.7355 1465.69 14.4271 1462.03C15.1188 1458.37 16.1188 1454.95 17.4355 1451.75Z" fill="#2F646D"/>
<path d="M32.2589 1527.37C25.6923 1527.37 21.3339 1527.82 19.1923 1528.71C17.0423 1529.61 15.6923 1531.24 15.1423 1533.59H14.2839V1533.85C14.3339 1530.28 14.3756 1524.9 14.4256 1517.74C14.9006 1516.46 15.9089 1515.56 17.4339 1515.04C18.9673 1514.51 21.7673 1514.25 25.8506 1514.25H31.1506L48.9089 1514.43V1509.29L51.0256 1509.78C52.6256 1513.6 54.4673 1516.84 56.5589 1519.54C58.6423 1522.22 61.0756 1524.49 63.8423 1526.34V1527.82C62.6006 1527.66 61.1923 1527.55 59.6173 1527.48C58.0423 1527.4 56.3506 1527.37 54.5339 1527.37H51.9923V1537.89L48.9089 1536.81V1527.37H32.2589Z" fill="#2F646D"/>
<path d="M35.7705 1577.96C35.7955 1577.73 35.8122 1577.45 35.8205 1577.15C35.8372 1576.86 35.8371 1576.42 35.8371 1575.86C35.8371 1570.96 34.9288 1567.2 33.1205 1564.59C31.3038 1561.95 28.6872 1560.64 25.2788 1560.64C22.6788 1560.64 20.5955 1561.34 19.0288 1562.72C17.4622 1564.11 16.6788 1565.95 16.6788 1568.25C16.6788 1571.65 17.9955 1574.12 20.6205 1575.66C23.2538 1577.19 27.5372 1577.96 33.4788 1577.96H35.7705ZM15.5372 1597.61L14.2872 1597.57C14.3372 1594.49 14.3705 1592.18 14.3955 1590.64C14.4122 1589.08 14.4288 1587.64 14.4288 1586.34V1582.3C15.3622 1581.56 16.3205 1580.92 17.3122 1580.4C18.3038 1579.88 19.3455 1579.44 20.4455 1579.09C18.0122 1577.35 16.2372 1575.29 15.1288 1572.89C14.0205 1570.49 13.4622 1567.5 13.4622 1563.95C13.4622 1558.37 14.5622 1553.83 16.7538 1550.33C18.9538 1546.82 21.7455 1545.07 25.1372 1545.07C29.1705 1545.07 32.2455 1547.78 34.3538 1553.21C36.4621 1558.64 37.6705 1566.89 37.9538 1577.96H38.2788C42.5455 1577.96 45.8038 1577.04 48.0371 1575.19C50.2621 1573.34 51.3871 1570.64 51.3871 1567.09C51.3871 1563.51 50.4038 1560.59 48.4455 1558.35C46.4871 1556.12 43.3121 1554.29 38.9205 1552.85V1551.6L49.8371 1547.34C51.1288 1550.72 52.0871 1554.19 52.7288 1557.78C53.3538 1561.36 53.6705 1565.07 53.6705 1568.92C53.6705 1573.19 53.2538 1576.92 52.4205 1580.11C51.5788 1583.31 50.3538 1585.79 48.7288 1587.59C47.5121 1589.04 46.0621 1590.07 44.3788 1590.64C42.7038 1591.24 39.6621 1591.53 35.2705 1591.53H31.8705C25.5872 1591.53 21.3955 1591.97 19.2955 1592.84C17.1955 1593.73 15.9455 1595.31 15.5372 1597.61Z" fill="#2F646D"/>
<path d="M14.2122 1603.31L15.0038 1603.27C15.5955 1605.54 16.7372 1607.09 18.4205 1607.95C20.1038 1608.79 23.6872 1609.22 29.1788 1609.22H41.7121C44.8371 1609.22 46.8371 1608.87 47.7121 1608.17C48.5871 1607.47 49.0788 1606.12 49.1955 1604.12H49.9788C50.3205 1607.59 50.7038 1610.78 51.1455 1613.69C51.5871 1616.63 52.0871 1619.26 52.6371 1621.62H44.2871C47.4205 1623.2 49.7538 1625.36 51.2955 1628.09C52.8288 1630.82 53.6038 1634.17 53.6038 1638.14C53.6038 1644.44 52.1288 1649.1 49.1788 1652.14C46.2288 1655.19 41.7121 1656.71 35.6288 1656.71H29.1788C23.6205 1656.71 19.9955 1657.14 18.3122 1658C16.6288 1658.88 15.5288 1660.43 15.0038 1662.66H14.2122C14.2872 1661.17 14.3372 1659.54 14.3788 1657.79C14.4122 1656.02 14.4288 1653.44 14.4288 1650.04C14.4288 1646.94 14.4122 1644.49 14.3788 1642.72C14.3372 1640.95 14.2872 1639.27 14.2122 1637.69L15.0038 1637.64C15.5788 1639.85 16.6538 1641.38 18.2622 1642.24C19.8622 1643.08 23.1038 1643.5 27.9955 1643.5H34.9455C40.0038 1643.5 43.6871 1642.74 45.9788 1641.23C48.2621 1639.7 49.4121 1637.25 49.4121 1633.89C49.4121 1630.42 48.0955 1627.64 45.4705 1625.51C42.8455 1623.39 39.3371 1622.34 34.9455 1622.34H29.8288C23.8538 1622.34 20.0288 1622.76 18.3288 1623.62C16.6372 1624.46 15.5288 1626.03 15.0038 1628.29H14.2122C14.2872 1626.79 14.3372 1625.17 14.3788 1623.41C14.4122 1621.64 14.4288 1619.07 14.4288 1615.66C14.4288 1612.56 14.4122 1610.12 14.3788 1608.34C14.3372 1606.58 14.2872 1604.89 14.2122 1603.31Z" fill="#2F646D"/>
<path d="M49.3407 1717.78L38.274 1713.39V1712.28C42.599 1711.82 45.8823 1710.49 48.1407 1708.29C50.399 1706.08 51.524 1703.08 51.524 1699.29C51.524 1694.73 49.9823 1691.19 46.8907 1688.66C43.7907 1686.14 39.4323 1684.89 33.799 1684.89C28.4073 1684.89 24.1323 1686.32 20.9823 1689.18C17.8323 1692.04 16.2573 1695.89 16.2573 1700.72C16.2573 1703.91 17.074 1706.74 18.7073 1709.2C20.3407 1711.66 22.724 1713.68 25.849 1715.22L24.2407 1717.78C20.5407 1715.89 17.7907 1713.29 16.0073 1709.95C14.2157 1706.59 13.3157 1702.43 13.3157 1697.45C13.3157 1689.46 15.174 1682.98 18.8907 1678.03C22.599 1673.08 27.4157 1670.6 33.3323 1670.6C39.4657 1670.6 44.3907 1673.04 48.1073 1677.94C51.8157 1682.84 53.674 1689.34 53.674 1697.45C53.674 1701.03 53.3073 1704.53 52.5823 1707.93C51.849 1711.34 50.774 1714.6 49.3407 1717.78Z" fill="#2F646D"/>
<path d="M62.0156 1732.21C63.6906 1732.21 65.0822 1732.89 66.2072 1734.24C67.3239 1735.6 67.8906 1737.29 67.8906 1739.33C67.8906 1741.36 67.3239 1743.06 66.2072 1744.43C65.0822 1745.8 63.6906 1746.49 62.0156 1746.49C60.3406 1746.49 58.9489 1745.8 57.8322 1744.43C56.7072 1743.06 56.1406 1741.36 56.1406 1739.33C56.1406 1737.24 56.6906 1735.53 57.7906 1734.2C58.8906 1732.88 60.2989 1732.21 62.0156 1732.21ZM52.6406 1746.39C51.1322 1746.31 49.4572 1746.24 47.6239 1746.2C45.7822 1746.15 42.9739 1746.14 39.2072 1746.14H29.1072C23.5489 1746.14 19.9406 1746.55 18.2906 1747.39C16.6489 1748.22 15.5739 1749.75 15.0739 1751.99L14.2156 1751.94C14.2822 1750.49 14.3406 1748.87 14.3739 1747.09C14.4156 1745.32 14.4322 1742.74 14.4322 1739.33C14.4322 1736.29 14.4156 1733.88 14.3739 1732.12C14.3406 1730.36 14.2822 1728.67 14.2156 1727.06H15.0739C15.6656 1729.27 16.7656 1730.8 18.3656 1731.65C19.9656 1732.5 23.3406 1732.93 28.4989 1732.93H41.7156C44.8406 1732.93 46.8322 1732.58 47.6906 1731.88C48.5489 1731.18 49.0572 1729.81 49.1989 1727.78H50.0572C50.4656 1731.71 50.8739 1735.2 51.2906 1738.24C51.7072 1741.26 52.1572 1743.99 52.6406 1746.39Z" fill="#2F646D"/>
<path d="M14.2122 1758.32L15.0038 1758.28C15.5955 1760.55 16.7372 1762.1 18.4205 1762.96C20.1038 1763.8 23.6872 1764.23 29.1788 1764.23H41.7121C44.8371 1764.23 46.8371 1763.88 47.7121 1763.18C48.5871 1762.48 49.0788 1761.13 49.1955 1759.14H49.9788C50.3205 1762.59 50.7038 1765.79 51.1455 1768.7C51.5871 1771.64 52.0871 1774.27 52.6371 1776.63H44.2871C47.4205 1778.21 49.7538 1780.37 51.2955 1783.1C52.8288 1785.83 53.6038 1789.18 53.6038 1793.15C53.6038 1799.44 52.1288 1804.11 49.1788 1807.15C46.2288 1810.2 41.7121 1811.72 35.6288 1811.72H29.1788C23.6205 1811.72 19.9955 1812.15 18.3122 1813.02C16.6288 1813.89 15.5288 1815.44 15.0038 1817.68H14.2122C14.2872 1816.18 14.3372 1814.55 14.3788 1812.79C14.4122 1811.04 14.4288 1808.45 14.4288 1805.04C14.4288 1801.94 14.4122 1799.5 14.3788 1797.73C14.3372 1795.96 14.2872 1794.28 14.2122 1792.69L15.0038 1792.65C15.5788 1794.86 16.6538 1796.39 18.2622 1797.24C19.8622 1798.09 23.1038 1798.52 27.9955 1798.52H34.9455C40.0038 1798.52 43.6871 1797.75 45.9788 1796.24C48.2621 1794.71 49.4121 1792.26 49.4121 1788.89C49.4121 1785.44 48.0955 1782.64 45.4705 1780.52C42.8455 1778.4 39.3371 1777.34 34.9455 1777.34H29.8288C23.8538 1777.34 20.0288 1777.77 18.3288 1778.63C16.6372 1779.47 15.5288 1781.04 15.0038 1783.3H14.2122C14.2872 1781.8 14.3372 1780.18 14.3788 1778.42C14.4122 1776.66 14.4288 1774.08 14.4288 1770.67C14.4288 1767.57 14.4122 1765.13 14.3788 1763.35C14.3372 1761.59 14.2872 1759.9 14.2122 1758.32Z" fill="#2F646D"/>
<path d="M51.3831 1849.42C51.3831 1846.74 50.3414 1844.54 48.2664 1842.86C46.1914 1841.18 43.4664 1840.33 40.0997 1840.33C36.6914 1840.33 34.0164 1841.19 32.0831 1842.89C30.1497 1844.59 29.1831 1846.91 29.1831 1849.87C29.1831 1852.59 30.2081 1854.7 32.2831 1856.22C34.3414 1857.74 37.2164 1858.51 40.8914 1858.51C44.1581 1858.51 46.7247 1857.69 48.5914 1856.07C50.4497 1854.44 51.3831 1852.23 51.3831 1849.42ZM9.88308 1837.07C7.46642 1837.07 5.59142 1838.16 4.25808 1840.35C2.92475 1842.55 2.24975 1845.63 2.24975 1849.59C2.24975 1854.02 2.94975 1857.52 4.34975 1860.12C5.74142 1862.71 7.61642 1864.01 9.94975 1864.01C12.1997 1864.01 13.9164 1862.69 15.1248 1860.04C16.3331 1857.41 16.9331 1853.66 16.9331 1848.79C16.9331 1845.21 16.2914 1842.36 14.9997 1840.24C13.7081 1838.13 12.0081 1837.07 9.88308 1837.07ZM58.7247 1877.31L48.5164 1873.19V1872.34C50.1664 1871.85 51.4581 1871.04 52.3997 1869.87C53.3414 1868.71 53.8164 1867.34 53.8164 1865.75C53.8164 1864.84 53.2664 1863.46 52.1664 1861.64L52.0664 1861.45C50.4914 1865.46 48.7497 1868.37 46.8497 1870.21C44.9581 1872.04 42.7247 1872.96 40.1747 1872.96C37.0664 1872.96 34.3747 1871.59 32.0831 1868.87C29.7914 1866.14 28.2914 1862.47 27.5747 1857.88C27.2331 1855.79 26.9997 1853.29 26.8581 1850.35C26.6664 1847.11 26.1164 1845.48 25.2081 1845.48C24.1581 1845.48 23.4081 1848.02 22.9497 1853.09C22.7164 1855.81 22.4831 1858.04 22.2664 1859.8C21.5247 1866.1 20.3997 1870.56 18.8914 1873.19C17.3664 1875.81 15.1831 1877.13 12.3164 1877.13C8.51642 1877.13 5.51642 1874.58 3.30809 1869.47C1.09975 1864.37 -0.000244141 1857.42 -0.000244141 1848.61C-0.000244141 1840.94 0.899754 1834.78 2.69975 1830.11C4.50809 1825.44 6.87475 1823.1 9.80809 1823.1C12.1248 1823.1 14.0164 1824.52 15.4831 1827.36C16.9497 1830.19 18.0247 1834.49 18.6914 1840.24C18.8831 1837.17 19.2914 1834.88 19.9247 1833.37C20.5581 1831.87 21.4331 1831.12 22.5581 1831.12C23.8164 1831.12 24.8747 1832.04 25.7081 1833.89C26.5414 1835.74 27.2164 1838.59 27.7164 1842.44C28.4997 1837.37 29.9831 1833.43 32.1497 1830.62C34.3247 1827.81 36.9747 1826.41 40.0997 1826.41C43.9414 1826.41 47.1664 1828.59 49.7747 1832.94C52.3747 1837.3 53.6747 1842.83 53.6747 1849.51C53.6747 1850.62 53.5997 1851.85 53.4581 1853.22C53.3164 1854.59 53.0914 1856.29 52.7747 1858.33C54.8331 1860.69 56.3747 1863.18 57.3997 1865.83C58.4247 1868.46 58.9331 1871.22 58.9331 1874.09C58.9331 1874.62 58.9164 1875.15 58.8831 1875.67C58.8497 1876.19 58.7914 1876.74 58.7247 1877.31Z" fill="#2F646D"/>
</svg>
