<svg width="905" height="56" viewBox="0 0 905 56" fill="none" xmlns="http://www.w3.org/2000/svg">
<path d="M33.6826 16.3268H26.3909C25.1743 16.3268 24.6576 16.6018 24.8326 17.1601V29.8685H33.6826V16.3268ZM24.8326 31.5351V32.9935C24.8326 34.1018 24.0493 34.8018 22.4826 35.0768C21.6159 35.3518 20.2243 35.6268 18.3159 35.9101H17.7993C15.7159 36.0518 14.8409 35.3518 15.1909 33.8268C15.3659 32.0185 15.4493 28.4768 15.4493 23.2018V19.2435C15.4493 16.6018 15.2826 14.6602 14.9326 13.4102C14.5826 12.0185 15.3659 11.5352 17.2743 11.9518C19.1826 12.3685 22.1326 13.2685 26.1326 14.6601H32.1242C33.5076 12.7102 34.7242 11.6102 35.7659 11.3268C38.3659 11.7435 41.0576 12.8518 43.8409 14.6601C44.8826 15.7768 44.8826 16.6018 43.8409 17.1601C43.3159 17.5768 43.0576 18.0601 43.0576 18.6185V25.7018C43.2326 28.6185 43.3159 30.4935 43.3159 31.3268C43.3159 32.9935 42.6242 33.9685 41.2326 34.2435C39.6742 34.8018 38.1076 35.1435 36.5492 35.2851C34.4659 35.5685 33.5076 35.1435 33.6826 34.0351V31.5351H24.8326ZM47.7409 41.9518V5.70182H12.5909C11.7159 5.70182 11.3743 6.11849 11.5493 6.95182V41.9518H47.7409ZM57.3826 8.61849V14.4518C57.3826 19.3101 57.4659 24.5935 57.6409 30.2851C57.8159 35.9768 58.1659 40.8351 58.6826 44.8685C58.6826 46.1185 57.8992 47.0185 56.3409 47.5768C54.9492 47.8518 53.2159 48.1268 51.1326 48.4101C48.6992 48.5435 47.5742 47.8518 47.7409 46.3268V43.4101H11.5493V44.8685C11.5493 46.3935 10.3326 47.3685 7.89926 47.7851C7.38259 47.9185 6.42426 48.0601 5.03259 48.2018C4.51593 48.2018 4.08259 48.2685 3.73259 48.4101C1.47426 48.6851 0.524263 47.6435 0.865929 45.2851C1.56593 32.2268 1.9076 22.8518 1.9076 17.1601V12.3685C1.74093 10.1435 1.39093 7.09349 0.865929 3.20182C0.699262 2.36849 0.782596 1.88516 1.1326 1.74349C1.29926 1.46849 1.99926 1.39349 3.21593 1.53515C4.94926 1.81015 7.99093 2.64349 12.3243 4.03516H46.6992C48.0909 2.09349 49.3076 1.05182 50.3492 0.910156C52.7826 1.19349 55.6409 2.29349 58.9409 4.24349C60.1576 5.36015 60.0742 6.32682 58.6826 7.16015C57.6409 7.71849 57.2076 8.20182 57.3826 8.61849Z" fill="#231916"/>
<path d="M123.942 40.9074V10.9075C123.767 9.10746 123.684 7.36579 123.684 5.69913C123.509 4.03246 123.334 2.78246 123.159 1.94913C122.642 0.565795 123.425 -0.067538 125.5 0.0741287C128.8 0.357462 131.925 0.840796 134.875 1.53246C136.267 2.23246 136.442 2.99079 135.4 3.82413C134.359 4.52413 133.925 5.21579 134.1 5.90746V20.2825C133.925 23.8908 134.009 29.8658 134.359 38.1991C134.534 41.8158 134.709 44.3158 134.875 45.6991C135.05 47.9158 134.267 49.4491 132.534 50.2824C131.142 50.8324 128.975 51.3908 126.025 51.9491C123.425 52.3658 121.859 51.8741 121.342 50.4908C120.642 47.7074 118.992 46.1158 116.392 45.6991C114.65 45.2824 113.959 45.0074 114.309 44.8658C113.959 44.3158 114.825 44.1074 116.909 44.2408C122.117 44.6574 124.459 43.5491 123.942 40.9074ZM111.442 26.5325V14.2408C111.267 12.4325 111.092 10.3491 110.925 7.99079C110.575 6.88246 111.267 6.39913 113.009 6.53246C115.259 6.67413 117.867 7.09079 120.817 7.78246C122.034 8.34079 122.209 8.96579 121.342 9.65746C120.642 10.0741 120.3 10.6991 120.3 11.5325V36.5324C120.3 37.9241 119.6 38.7574 118.217 39.0324C116.134 39.4491 114.475 39.6574 113.267 39.6574C111.009 39.7991 110.142 39.0324 110.659 37.3658C110.834 36.1158 111.009 34.2408 111.184 31.7408C111.184 29.5241 111.267 27.7825 111.442 26.5325ZM86.967 40.9074V32.1575H80.192C78.2837 32.2991 76.8087 32.4408 75.767 32.5741C75.067 32.7158 74.6337 32.6491 74.467 32.3658C74.292 32.2241 74.117 31.9491 73.942 31.5325C73.592 31.2575 73.4253 30.9824 73.4253 30.6991C73.2503 30.4241 73.4253 30.2825 73.942 30.2825C76.2003 30.5658 78.6337 30.6991 81.2337 30.6991H86.967C86.792 28.4825 86.617 26.0491 86.442 23.4075C82.967 24.3825 80.542 25.0741 79.1503 25.4908C77.242 26.4658 76.0253 26.2575 75.5087 24.8658C74.467 22.7825 73.6837 20.9075 73.1587 19.2408C72.467 18.1325 73.0753 17.5075 74.9837 17.3658C77.242 16.9491 79.2337 15.8408 80.9753 14.0325C83.4003 11.8158 84.967 8.89913 85.6587 5.28246H79.6753C77.9337 5.42413 76.3753 5.56579 74.9837 5.69913C74.467 5.84079 74.117 5.77413 73.942 5.49079C73.767 5.35746 73.592 5.07413 73.4253 4.65746C73.0753 4.38246 72.9003 4.09913 72.9003 3.82413C72.5503 3.54913 72.7253 3.40746 73.4253 3.40746C75.6753 3.69079 78.1087 3.82413 80.717 3.82413H100.767C101.975 1.88246 103.284 0.632462 104.667 0.0741287C106.925 0.774128 109.184 2.09079 111.442 4.03246C111.967 5.00746 111.617 5.49079 110.4 5.49079H107.275C105.017 5.35746 103.542 5.28246 102.85 5.28246H93.992C94.517 5.56579 95.292 5.77413 96.3337 5.90746C97.2087 6.04913 97.9837 6.18246 98.6837 6.32413C99.892 7.15746 99.8087 7.99079 98.417 8.82413C97.2087 8.82413 96.0753 9.30746 95.0337 10.2825C90.692 13.7575 86.7003 16.3241 83.0587 17.9908C86.7003 18.1325 92.167 17.9908 99.4587 17.5741C98.417 15.7741 97.2087 14.1741 95.817 12.7825C95.1253 12.3658 94.8587 12.0241 95.0337 11.7408C95.2087 11.4658 95.817 11.3241 96.8587 11.3241C102.417 12.2991 106.492 14.0325 109.1 16.5325C111.009 19.4491 110.659 21.8075 108.059 23.6158C104.759 25.0075 102.675 24.5908 101.809 22.3658C101.634 22.2325 101.459 21.9491 101.284 21.5325C101.109 21.2575 101.025 20.9825 101.025 20.6991C100.85 20.8408 100.592 20.9075 100.242 20.9075C99.0253 21.0491 97.642 21.2575 96.0753 21.5325C96.6003 21.6741 97.2087 21.8075 97.9003 21.9491C99.4587 22.5075 99.6337 23.3408 98.417 24.4491C97.2087 25.0075 96.6837 25.5658 96.8587 26.1158V30.6991H99.2003C100.417 28.6158 101.634 27.3658 102.85 26.9491C105.1 27.5075 107.45 28.8241 109.884 30.9075C110.4 31.8825 109.967 32.3658 108.575 32.3658H105.709C103.625 32.2241 102.15 32.1575 101.284 32.1575H96.8587V40.2824C103.284 40.1491 107.709 39.9408 110.142 39.6574C111.184 39.6574 111.792 39.8658 111.967 40.2824C111.967 40.8408 111.525 41.2574 110.659 41.5324C105.975 42.9241 96.4253 45.0074 82.017 47.7824C80.8003 48.0574 79.7587 48.3408 78.892 48.6158C77.5003 49.0324 76.717 49.3824 76.5503 49.6574C75.8503 50.0741 75.242 50.2158 74.7253 50.0741C74.2003 49.9324 73.8503 49.5158 73.6837 48.8241C72.8087 46.1824 72.2087 44.1741 71.8587 42.7824C71.342 41.8158 71.942 41.3241 73.6837 41.3241C74.7253 41.3241 76.892 41.2574 80.192 41.1158C82.1003 41.1158 84.3587 41.0491 86.967 40.9074Z" fill="#231916"/>
<path d="M194.413 19.0312H184.779C183.738 20.1479 183.563 20.2812 184.254 19.4479C183.563 20.2812 182.779 20.9812 181.913 21.5312C183.129 22.3646 184.171 22.9896 185.038 23.4062C185.038 24.1062 184.604 24.5896 183.738 24.8646C182.863 25.1479 182.521 25.6312 182.696 26.3229C182.696 26.7396 182.604 27.2979 182.438 27.9896V30.0729H189.463V29.4479C189.288 27.5062 189.113 25.7729 188.946 24.2396C188.421 23.2729 188.771 22.7812 189.988 22.7812C190.329 22.9229 190.854 22.9896 191.546 22.9896C192.238 23.1312 192.854 23.1979 193.371 23.1979L194.413 19.0312ZM189.463 41.1146V31.7396H182.438C182.088 37.4312 181.654 41.8146 181.129 44.8646H185.563C188.338 45.1396 189.638 43.8979 189.463 41.1146ZM182.438 14.0312H173.838C174.013 14.4479 173.754 14.8646 173.054 15.2812C172.538 15.5562 172.363 16.2562 172.538 17.3646C172.538 18.0646 172.446 18.9646 172.279 20.0729V22.1562H173.321C173.488 21.8812 173.579 21.8062 173.579 21.9479C174.971 20.2812 175.921 19.4479 176.446 19.4479C176.613 19.4479 177.654 19.8646 179.571 20.6979C180.613 18.6146 181.563 16.3979 182.438 14.0312ZM174.096 23.8229H172.279C171.404 33.2646 169.321 40.1479 166.029 44.4479C170.363 44.7229 172.621 43.7562 172.796 41.5312C173.146 38.3396 173.488 33.4062 173.838 26.7396C173.838 25.7729 173.929 24.7979 174.096 23.8229ZM166.029 9.23958C166.196 6.60625 165.504 4.52292 163.946 2.98958C163.421 2.43958 163.679 2.08958 164.721 1.94792C170.629 2.78125 174.096 4.31458 175.138 6.53125C175.488 9.17292 174.013 10.9062 170.713 11.7396C167.938 12.0229 166.371 11.1896 166.029 9.23958ZM192.329 9.03125H196.754C198.488 6.67292 199.971 5.28125 201.179 4.86458C203.263 5.42292 205.871 6.88125 208.996 9.23958C209.513 10.0729 209.171 10.5646 207.954 10.6979H191.288C189.896 13.0646 188.246 15.2812 186.338 17.3646H194.413C195.804 15.1479 197.013 13.9646 198.054 13.8229C200.488 14.3812 203.613 16.1146 207.429 19.0312C207.779 19.5896 207.863 20.1479 207.696 20.6979C207.521 20.8396 207.346 20.9062 207.171 20.9062C206.654 21.1896 206.046 21.2562 205.346 21.1146C202.396 20.9812 199.529 21.8062 196.754 23.6146C196.929 23.7562 197.279 23.8229 197.796 23.8229C198.321 23.9646 198.754 24.0312 199.096 24.0312C200.663 24.7312 200.921 25.4229 199.879 26.1146C199.013 26.2562 198.663 26.8146 198.838 27.7812C198.488 28.4812 198.404 29.2396 198.579 30.0729H199.096C200.488 27.8562 201.788 26.6062 203.004 26.3229C204.396 26.6062 206.563 27.9229 209.513 30.2812C209.863 31.2562 209.513 31.7396 208.471 31.7396H198.579V39.0312C198.754 41.6729 198.838 43.4812 198.838 44.4479C199.013 47.5062 197.971 49.4479 195.713 50.2812C193.979 50.9729 192.238 51.4646 190.504 51.7396C188.071 52.2979 186.771 51.8062 186.604 50.2812C186.079 48.6146 184.346 47.3646 181.396 46.5312C181.046 46.5312 180.871 46.4646 180.871 46.3229C180.004 48.4062 177.396 49.8646 173.054 50.6979C171.146 50.9729 170.104 50.6312 169.929 49.6562C169.238 47.7062 167.588 46.3229 164.988 45.4896H164.721C162.296 47.7062 159.429 49.5146 156.129 50.9062C154.913 51.1812 154.313 51.2562 154.313 51.1146C153.963 50.6979 154.138 50.2146 154.829 49.6562C158.479 46.5979 160.904 42.6396 162.121 37.7812C163.513 32.7812 164.204 24.8646 164.204 14.0312H161.863V14.6562C161.688 14.9396 161.596 15.2146 161.596 15.4896C158.304 26.0479 156.654 32.3646 156.654 34.4479C156.479 37.3646 156.996 39.8646 158.213 41.9479C158.904 43.8979 158.388 45.7646 156.654 47.5729C155.438 48.5479 153.613 48.9562 151.188 48.8229C147.538 47.9896 146.404 46.1812 147.796 43.4062C148.838 41.5979 149.271 39.5896 149.104 37.3646C148.929 36.2562 147.971 35.3479 146.238 34.6562C145.363 34.2396 145.021 33.8229 145.196 33.4062C145.196 32.9896 145.629 32.7812 146.496 32.7812C149.446 33.3396 151.529 32.6479 152.746 30.6979C155.354 25.9729 157.779 20.4896 160.038 14.2396C159.863 14.3812 159.688 14.3146 159.521 14.0312C159.171 13.6146 158.904 13.1979 158.738 12.7812C158.388 13.0646 158.304 13.1312 158.479 12.9896C155.696 13.5479 153.871 12.9229 153.004 11.1146C152.488 8.61458 151.188 6.53125 149.104 4.86458C148.579 4.73125 148.404 4.52292 148.579 4.23958C148.754 4.09792 149.104 3.96458 149.621 3.82292C155.871 3.68958 159.779 4.73125 161.338 6.94792C162.204 8.89791 161.771 10.6312 160.038 12.1562C160.729 12.1562 161.946 12.2312 163.679 12.3646H174.363C175.746 10.2812 176.879 9.10625 177.746 8.82291C178.788 8.96458 180.613 10.0062 183.213 11.9479C183.563 10.5646 183.904 9.03125 184.254 7.36458C184.429 5.69792 184.688 3.96458 185.038 2.15625C184.863 1.32292 185.388 0.90625 186.604 0.90625C191.638 1.73958 194.846 2.23125 196.238 2.36458C197.279 3.33958 197.188 4.09792 195.971 4.65625C194.763 4.93958 193.896 5.77291 193.371 7.15625C193.196 7.43958 193.021 7.78125 192.854 8.19791C192.504 8.61458 192.329 8.89791 192.329 9.03125ZM147.279 22.7812C146.929 20.1479 145.979 18.1312 144.413 16.7396C143.896 16.1896 144.063 15.8396 144.938 15.6979C150.838 15.9812 154.479 17.1562 155.871 19.2396C156.563 22.0229 155.263 23.8896 151.963 24.8646C149.188 25.2812 147.621 24.5896 147.279 22.7812Z" fill="#231916"/>
<path d="M251.338 12.7831H243.788C243.438 13.1997 243.18 13.4081 243.005 13.4081C242.655 13.6914 242.488 14.1747 242.488 14.8664V16.7414L244.305 16.5331C245.346 14.8664 246.305 13.7581 247.171 13.1997C247.863 13.3414 249.163 13.8247 251.08 14.6581L251.338 12.7831ZM242.488 18.1997C241.963 19.8664 243.088 20.5664 245.871 20.2831C247.43 20.5664 248.388 19.6581 248.738 17.5747C247.863 17.7164 245.78 17.9247 242.488 18.1997ZM248.738 31.9497H238.838C238.321 32.3664 238.146 32.9247 238.321 33.6164V35.6997H248.738V31.9497ZM229.721 14.2414V17.9914C230.413 18.1331 231.021 18.0664 231.546 17.7831L234.93 17.5747V12.7831H230.505C229.98 13.0664 229.721 13.5497 229.721 14.2414ZM273.738 17.7831L269.305 18.4081V23.1997C269.48 25.1497 269.655 26.6081 269.83 27.5747C270.521 25.7747 271.213 23.8247 271.913 21.7414C272.08 20.9081 272.78 20.6331 273.996 20.9081C277.638 22.1581 280.33 23.1331 282.071 23.8247C283.28 24.6581 283.196 25.4247 281.805 26.1164C280.246 26.5331 279.205 27.2997 278.68 28.4081C276.596 32.2997 274.255 35.5664 271.655 38.1997C273.038 41.3997 274.43 42.9914 275.821 42.9914C277.03 42.9914 278.505 41.1164 280.246 37.3664C280.763 36.3914 281.196 35.9831 281.546 36.1164C282.071 36.2581 282.238 36.8164 282.071 37.7831C281.546 39.3164 281.288 40.9081 281.288 42.5747C281.288 44.1081 281.455 45.3497 281.805 46.3247C283.021 49.9331 281.896 51.6747 278.421 51.5331C272.521 51.2581 268.005 48.6164 264.88 43.6164C260.363 45.9747 254.813 47.9164 248.213 49.4497C247.521 49.5914 247.08 49.4497 246.913 49.0331C246.738 48.6164 246.996 48.3414 247.696 48.1997C249.605 47.3664 252.205 46.1831 255.505 44.6581C255.855 44.3831 256.113 44.1747 256.288 44.0331C247.955 46.1164 240.571 47.9164 234.146 49.4497C233.455 49.4497 232.846 49.6581 232.33 50.0747C230.938 50.9081 230.071 50.7664 229.721 49.6581C228.855 48.2664 228.163 46.6664 227.638 44.8664C227.288 44.3164 227.813 44.0331 229.205 44.0331C231.63 44.1747 233.713 44.1081 235.455 43.8247L235.196 43.6164V42.9914C234.846 41.8831 234.063 40.6997 232.846 39.4497C232.496 39.0331 232.763 38.8247 233.63 38.8247C237.621 39.1081 240.23 40.0081 241.446 41.5331C241.613 42.2331 241.613 42.9247 241.446 43.6164C242.655 43.4831 243.955 43.4081 245.346 43.4081C246.038 41.4664 246.563 39.7997 246.913 38.4081C246.738 37.5747 247.346 37.3664 248.738 37.7831C248.905 37.7831 249.08 37.8581 249.255 37.9914C248.905 37.8581 248.738 37.5747 248.738 37.1581H238.055C237.88 37.4331 237.446 37.6497 236.755 37.7831C235.196 38.1997 234.146 38.4081 233.63 38.4081C232.063 38.8247 231.371 38.3414 231.546 36.9497V33.8247C231.546 32.9914 231.455 31.8164 231.288 30.2831C231.113 29.7331 231.113 29.3831 231.288 29.2414C231.455 29.0997 231.98 29.0331 232.846 29.0331C235.28 29.5914 237.28 30.0747 238.838 30.4914C238.663 30.7747 238.746 30.8414 239.096 30.6997H247.955C249.163 29.1747 250.205 28.4081 251.08 28.4081C253.505 29.0997 255.505 30.2164 257.063 31.7414C257.063 32.4414 256.805 32.8581 256.288 32.9914C256.113 33.1331 255.938 33.1997 255.763 33.1997C255.246 33.4831 255.071 33.8247 255.246 34.2414V35.2831C255.413 35.6997 255.505 35.9831 255.505 36.1164C255.855 37.0914 255.413 37.6497 254.205 37.7831C253.163 38.0664 252.121 38.1997 251.08 38.1997H250.038C250.205 38.3414 250.471 38.4747 250.821 38.6164C251.688 38.7581 252.813 39.1081 254.205 39.6581C254.546 39.9414 254.721 40.2831 254.721 40.6997C254.546 40.9831 254.205 41.1164 253.68 41.1164C252.813 41.2581 252.205 41.5331 251.855 41.9497C251.513 42.2331 251.163 42.5747 250.821 42.9914H253.163C254.205 42.8581 255.071 42.7164 255.763 42.5747C256.63 42.7164 257.238 42.8581 257.588 42.9914C259.321 41.5997 261.063 40.0747 262.796 38.4081C262.271 37.2997 261.93 36.3247 261.755 35.4914V32.7831C261.23 30.1414 260.888 25.5664 260.713 19.0331L257.588 19.2414C257.413 19.3831 257.155 19.4497 256.805 19.4497C256.113 19.5914 255.68 19.7247 255.505 19.8664C254.98 20.0081 254.638 19.9414 254.463 19.6581C253.771 19.2414 253.33 18.6831 253.163 17.9914C252.638 17.5747 252.73 17.4414 253.421 17.5747C255.505 17.7164 257.33 17.6414 258.888 17.3664H260.713C260.713 16.2581 260.621 14.4497 260.455 11.9497V7.15807C260.28 5.21641 260.105 3.48308 259.93 1.94974C259.413 0.84141 259.93 0.283075 261.496 0.283075C262.013 0.424741 263.146 0.566409 264.88 0.699743C267.655 0.974743 269.48 1.11641 270.346 1.11641C271.388 1.81641 271.388 2.50808 270.346 3.19974C270.171 3.19974 269.913 3.40807 269.571 3.82474C273.563 3.69141 276.421 4.24141 278.163 5.49141C280.071 7.57474 279.638 9.52474 276.863 11.3247C274.08 12.2997 272.171 11.6747 271.13 9.44974C270.78 8.06641 270.171 6.94974 269.305 6.11641V16.5331H271.388C272.955 13.7581 274.338 12.2331 275.555 11.9497C276.946 12.0914 279.288 13.3414 282.588 15.6997C283.28 16.9497 283.113 17.5747 282.071 17.5747C278.596 17.5747 275.821 17.6414 273.738 17.7831ZM255.763 7.36641H243.53V11.1164H250.821C251.855 9.73307 252.813 8.96641 253.68 8.82474C254.896 9.10807 256.805 10.2831 259.413 12.3664C260.105 13.6164 259.755 14.2414 258.371 14.2414C256.113 14.1081 254.288 14.5164 252.896 15.4914C252.896 15.7747 252.988 15.8414 253.163 15.6997C253.505 16.1164 253.68 16.5331 253.68 16.9497C253.505 17.2331 253.163 17.3664 252.638 17.3664C251.771 17.3664 250.988 17.4414 250.296 17.5747C250.646 19.2414 251.421 20.1497 252.638 20.2831C254.546 21.2581 254.896 22.2997 253.68 23.4081C252.121 24.5247 249.513 25.0747 245.871 25.0747H241.446C236.58 25.4914 234.413 23.7581 234.93 19.8664V19.0331L230.763 19.6581H229.721V26.5331H229.98C232.588 26.8164 234.93 26.9497 237.013 26.9497H249.255C249.43 26.8164 249.605 26.6747 249.78 26.5331C251.163 25.1497 252.205 24.3831 252.896 24.2414C254.113 24.5247 255.763 25.4914 257.846 27.1581C258.371 27.9914 258.105 28.4081 257.063 28.4081H235.713C233.805 28.4081 232.496 28.4831 231.805 28.6164C231.455 28.7581 231.021 28.7581 230.505 28.6164V28.4081C230.155 27.9914 229.896 27.5747 229.721 27.1581C229.03 38.2747 225.555 46.0497 219.305 50.4914C218.613 50.9081 218.18 51.0414 218.005 50.9081C217.655 50.6331 217.655 50.2164 218.005 49.6581C220.263 45.4914 221.388 36.9497 221.388 24.0331V19.2414C221.213 15.9081 221.038 13.1331 220.871 10.9081C220.521 9.52474 221.13 8.89974 222.688 9.03307C223.213 9.30807 224.255 9.65807 225.813 10.0747C228.071 10.4914 229.463 10.7747 229.98 10.9081C230.155 10.9081 230.413 10.9831 230.763 11.1164H234.93V6.32474C234.93 3.54974 234.846 1.94974 234.671 1.53307C234.146 0.283075 234.93 -0.200255 237.013 0.0747445C237.88 0.216411 239.53 0.424743 241.963 0.699743C242.655 0.841409 243.355 0.908077 244.046 0.908077C244.738 1.04974 245.088 1.32474 245.088 1.74141C245.088 2.15808 244.738 2.57474 244.046 2.99141C243.53 3.13308 243.355 3.75808 243.53 4.86641V5.69974H246.913C248.296 3.75807 249.513 2.64974 250.555 2.36641C252.463 3.05807 254.463 4.38307 256.546 6.32474C256.896 7.02474 256.63 7.36641 255.763 7.36641Z" fill="#231916"/>
<path d="M327.017 8.61914H320.25V44.8679H327.017V8.61914Z" fill="#231916"/>
<path d="M380.168 27.4423V34.034C380.168 38.3006 380.643 40.8923 381.584 41.7923C382.526 42.7006 384.518 43.1506 387.559 43.1506C391.376 43.1506 394.243 42.5006 396.151 41.209C398.059 39.9173 399.018 37.9673 399.018 35.359C399.018 32.4423 398.009 30.3673 396.001 29.1256C394.001 27.884 390.584 27.2673 385.768 27.2673C385.201 27.2673 384.451 27.2756 383.518 27.3006C382.593 27.3256 381.468 27.3756 380.168 27.4423ZM380.168 25.4673C380.409 25.4673 380.768 25.4756 381.243 25.4923C382.593 25.5423 383.476 25.5673 383.909 25.5673C388.059 25.5673 391.093 25.009 393.009 23.8756C394.926 22.7506 395.893 20.959 395.893 18.509C395.893 16.259 394.926 14.6006 393.009 13.559C391.093 12.5173 388.034 12.0007 383.843 12.0007C383.518 12.0007 383.059 12.009 382.459 12.0423C381.868 12.0673 381.101 12.1173 380.168 12.184V25.4673ZM364.576 44.8673V44.4506C366.335 44.1006 367.535 43.3256 368.193 42.1173C368.843 40.909 369.168 38.009 369.168 33.409V15.2006C369.168 13.8007 368.868 12.759 368.268 12.0923C367.668 11.4257 366.676 11.0007 365.293 10.8257L365.326 10.2507C366.41 10.2757 367.535 10.284 368.693 10.2923C369.851 10.3007 371.41 10.309 373.368 10.309C375.385 10.309 377.876 10.2923 380.834 10.2507C383.801 10.2257 385.776 10.209 386.776 10.209C393.984 10.209 399.268 10.834 402.643 12.109C406.018 13.3756 407.709 15.3673 407.709 18.0923C407.709 20.3173 406.501 22.0923 404.093 23.4256C401.684 24.7506 398.084 25.6173 393.284 26.0423C399.318 26.3006 403.859 27.2006 406.909 28.734C409.959 30.2673 411.484 32.409 411.484 35.1506C411.484 38.434 409.626 40.8756 405.901 42.4673C402.176 44.0673 396.509 44.8673 388.893 44.8673H364.576Z" fill="#231916"/>
<path d="M446.142 29.3467C445.967 29.3301 445.775 29.3134 445.558 29.3051C445.342 29.2967 445.025 29.2967 444.608 29.2967C441.05 29.2967 438.317 29.9551 436.408 31.2717C434.5 32.5967 433.542 34.4967 433.542 36.9801C433.542 38.8717 434.05 40.3801 435.058 41.5217C436.067 42.6551 437.408 43.2301 439.075 43.2301C441.55 43.2301 443.35 42.2717 444.467 40.3634C445.583 38.4551 446.142 35.3384 446.142 31.0134V29.3467ZM460.433 44.0634L460.4 44.9717C458.167 44.9384 456.483 44.9134 455.35 44.8884C454.225 44.8717 453.183 44.8634 452.225 44.8634H449.3C448.758 44.1884 448.292 43.4884 447.917 42.7717C447.533 42.0467 447.217 41.2884 446.958 40.4884C445.7 42.2634 444.192 43.5551 442.45 44.3551C440.7 45.1634 438.533 45.5717 435.95 45.5717C431.9 45.5717 428.592 44.7717 426.042 43.1717C423.492 41.5801 422.217 39.5467 422.217 37.0801C422.217 34.1467 424.192 31.9134 428.142 30.3717C432.092 28.8384 438.092 27.9634 446.142 27.7551V27.5217C446.142 24.4134 445.467 22.0551 444.125 20.4301C442.775 18.8051 440.817 17.9884 438.233 17.9884C435.625 17.9884 433.508 18.7051 431.883 20.1301C430.258 21.5467 428.925 23.8551 427.883 27.0551H426.967L423.875 19.1051C426.333 18.1717 428.858 17.4717 431.458 17.0134C434.067 16.5551 436.767 16.3301 439.567 16.3301C442.667 16.3301 445.383 16.6301 447.7 17.2384C450.025 17.8467 451.842 18.7384 453.142 19.9217C454.2 20.8051 454.95 21.8634 455.367 23.0801C455.792 24.3051 456.008 26.5134 456.008 29.7051V32.1801C456.008 36.7467 456.325 39.7967 456.967 41.3217C457.6 42.8551 458.758 43.7634 460.433 44.0634Z" fill="#231916"/>
<path d="M504.015 19.4762L500.824 27.5262H500.015C499.682 24.3762 498.724 21.9928 497.115 20.3428C495.507 18.7095 493.324 17.8928 490.574 17.8928C487.249 17.8928 484.674 19.0095 482.84 21.2595C481.007 23.5095 480.09 26.6845 480.09 30.7762C480.09 34.7012 481.132 37.8095 483.215 40.1012C485.299 42.3928 488.099 43.5428 491.615 43.5428C493.94 43.5428 495.99 42.9428 497.782 41.7512C499.574 40.5678 501.032 38.8345 502.157 36.5595L504.015 37.7262C502.649 40.4262 500.749 42.4178 498.315 43.7178C495.89 45.0178 492.865 45.6762 489.24 45.6762C483.424 45.6762 478.707 44.3262 475.107 41.6262C471.507 38.9262 469.707 35.4262 469.707 31.1178C469.707 26.6512 471.482 23.0762 475.04 20.3762C478.607 17.6762 483.332 16.3262 489.24 16.3262C491.84 16.3262 494.382 16.5928 496.857 17.1178C499.332 17.6512 501.715 18.4345 504.015 19.4762Z" fill="#231916"/>
<path d="M517.745 13.9299C517.745 11.6549 517.487 10.2049 516.979 9.57995C516.47 8.95495 515.487 8.58828 514.037 8.48828V7.91328C516.662 7.65495 519.095 7.36328 521.345 7.03828C523.587 6.72161 525.67 6.37161 527.579 5.98828C527.47 7.41328 527.395 8.92161 527.345 10.5133C527.304 12.1133 527.287 13.8633 527.287 15.7549V27.9133L534.154 22.8883C535.045 22.2466 535.729 21.6299 536.22 21.0383C536.704 20.4466 536.954 19.9299 536.954 19.4799C536.954 19.0383 536.67 18.6466 536.104 18.3049C535.537 17.9549 534.762 17.6883 533.762 17.4966V16.8716C535.412 16.9216 537.004 16.9633 538.545 16.9883C540.087 17.0133 541.587 17.0299 543.037 17.0299C544.487 17.0299 545.912 17.0133 547.304 16.9883C548.687 16.9633 550.037 16.9216 551.337 16.8716L551.37 17.4966C548.12 18.4216 544.962 19.7049 541.912 21.3633C538.87 23.0216 535.812 25.1133 532.754 27.6299C535.879 27.9799 538.295 28.5466 540.012 29.3633C541.72 30.1633 543.395 31.7633 545.02 34.1383L548.145 38.9049C548.262 39.0466 548.387 39.2383 548.537 39.4716C550.345 42.2216 552.195 43.8633 554.104 44.3966L554.07 45.0216C553.27 44.9716 552.387 44.9299 551.42 44.9049C550.454 44.8799 549.012 44.8633 547.104 44.8633C545.262 44.8633 543.879 44.8799 542.954 44.9049C542.037 44.9299 541.195 44.9716 540.437 45.0216C539.504 43.9633 538.454 42.5633 537.295 40.8049C536.137 39.0549 534.82 36.9049 533.37 34.3716C533.154 33.9883 532.87 33.4716 532.52 32.8133C531.437 30.7799 530.362 29.7633 529.304 29.7633C528.562 29.7633 528.045 29.9549 527.737 30.3466C527.437 30.7383 527.287 31.4383 527.287 32.4466V33.6716C527.287 37.9883 527.595 40.7633 528.212 41.9883C528.829 43.2133 529.962 44.0133 531.612 44.3966V45.0216C530.529 44.9716 529.345 44.9299 528.062 44.9049C526.779 44.8799 524.904 44.8633 522.429 44.8633C520.179 44.8633 518.404 44.8799 517.112 44.9049C515.82 44.9299 514.604 44.9716 513.445 45.0216L513.412 44.3966C515.062 43.9633 516.195 43.1383 516.82 41.9216C517.437 40.7049 517.745 38.1133 517.745 34.1383V13.9299Z" fill="#231916"/>
<path d="M603.832 31.8983C603.832 36.6733 604.157 39.84 604.807 41.4066C605.457 42.965 606.64 43.9483 608.357 44.3483V44.9733H608.548C605.948 44.9316 602.04 44.8983 596.832 44.865C595.898 44.5233 595.24 43.79 594.865 42.6733C594.482 41.565 594.29 39.5316 594.29 36.5566V32.7066L594.423 19.79H590.682L591.04 18.2483C593.815 17.09 596.182 15.7483 598.132 14.2233C600.09 12.7066 601.74 10.94 603.082 8.93164H604.157C604.048 9.83164 603.965 10.8566 603.915 11.9983C603.857 13.1483 603.832 14.3816 603.832 15.6983V17.5483H611.482L610.698 19.79H603.832V31.8983Z" fill="#231916"/>
<path d="M640.511 43.9019C643.528 43.9019 645.819 42.8019 647.378 40.6103C648.944 38.4103 649.719 35.1686 649.719 30.8853C649.719 26.6436 648.944 23.4353 647.378 21.2603C645.819 19.077 643.528 17.9936 640.511 17.9936C637.561 17.9936 635.303 19.0853 633.753 21.2853C632.203 23.4853 631.428 26.6603 631.428 30.8269C631.428 35.1186 632.194 38.3686 633.744 40.5853C635.286 42.7936 637.536 43.9019 640.511 43.9019ZM620.586 31.0103C620.586 26.6353 622.428 23.102 626.103 20.4103C629.786 17.7186 634.628 16.377 640.644 16.377C646.569 16.377 651.353 17.7186 655.011 20.4103C658.669 23.102 660.494 26.6103 660.494 30.9353C660.494 35.2936 658.653 38.8103 654.961 41.4936C651.278 44.1769 646.411 45.5186 640.378 45.5186C634.569 45.5186 629.811 44.1519 626.119 41.4269C622.436 38.7019 620.586 35.2269 620.586 31.0103Z" fill="#231916"/>
<path d="M717.841 17.9897C715.891 17.9897 714.299 18.748 713.074 20.2564C711.849 21.7647 711.233 23.748 711.233 26.1897C711.233 28.673 711.849 30.623 713.091 32.0314C714.324 33.4314 716.016 34.1314 718.166 34.1314C720.141 34.1314 721.683 33.3897 722.791 31.8814C723.899 30.3814 724.449 28.298 724.449 25.623C724.449 23.2397 723.858 21.373 722.674 20.023C721.491 18.673 719.883 17.9897 717.841 17.9897ZM708.858 48.173C708.858 49.9314 709.658 51.2897 711.249 52.2647C712.841 53.2314 715.083 53.723 717.974 53.723C721.183 53.723 723.733 53.2147 725.624 52.198C727.508 51.1814 728.449 49.823 728.449 48.123C728.449 46.4897 727.491 45.2397 725.574 44.3564C723.649 43.4814 720.924 43.0397 717.383 43.0397C714.783 43.0397 712.708 43.5147 711.166 44.448C709.624 45.3897 708.858 46.6314 708.858 48.173ZM738.124 12.648L735.124 20.073H734.508C734.158 18.873 733.566 17.9314 732.716 17.248C731.874 16.5647 730.874 16.223 729.724 16.223C729.049 16.223 728.049 16.6147 726.724 17.4147L726.599 17.498C729.508 18.6397 731.624 19.9064 732.958 21.2897C734.299 22.6647 734.966 24.2814 734.966 26.1397C734.966 28.398 733.974 30.3564 731.983 32.0314C729.999 33.6897 727.333 34.7897 723.991 35.3064C722.474 35.548 720.649 35.723 718.524 35.8314C716.158 35.9647 714.974 36.373 714.974 37.0314C714.974 37.7897 716.816 38.3397 720.508 38.6647C722.483 38.8397 724.108 39.0064 725.391 39.1647C729.974 39.698 733.216 40.523 735.124 41.623C737.033 42.723 737.991 44.323 737.991 46.4064C737.991 49.1647 736.133 51.3397 732.424 52.948C728.716 54.5564 723.658 55.3564 717.258 55.3564C711.674 55.3564 707.191 54.7064 703.791 53.398C700.399 52.0814 698.699 50.3564 698.699 48.223C698.699 46.5397 699.733 45.1647 701.791 44.098C703.858 43.0314 706.983 42.2564 711.166 41.7647C708.933 41.623 707.266 41.3314 706.174 40.873C705.074 40.4064 704.524 39.773 704.524 38.9564C704.524 38.0314 705.199 37.2647 706.549 36.6647C707.891 36.0564 709.966 35.5647 712.766 35.2064C709.074 34.6314 706.208 33.5564 704.166 31.973C702.133 30.398 701.108 28.4647 701.108 26.1897C701.108 23.398 702.691 21.0564 705.866 19.1647C709.033 17.273 713.041 16.323 717.908 16.323C718.708 16.323 719.608 16.373 720.608 16.4814C721.608 16.5897 722.841 16.748 724.316 16.973C726.033 15.4814 727.849 14.3647 729.774 13.6147C731.691 12.873 733.691 12.498 735.774 12.498C736.166 12.498 736.558 12.5064 736.933 12.5314C737.308 12.5647 737.708 12.598 738.124 12.648Z" fill="#231916"/>
<path d="M771.517 29.3467C771.342 29.3301 771.15 29.3134 770.933 29.3051C770.717 29.2967 770.4 29.2967 769.983 29.2967C766.425 29.2967 763.692 29.9551 761.783 31.2717C759.875 32.5967 758.917 34.4967 758.917 36.9801C758.917 38.8717 759.425 40.3801 760.433 41.5217C761.442 42.6551 762.783 43.2301 764.45 43.2301C766.925 43.2301 768.725 42.2717 769.842 40.3634C770.958 38.4551 771.517 35.3384 771.517 31.0134V29.3467ZM785.808 44.0634L785.775 44.9717C783.542 44.9384 781.858 44.9134 780.725 44.8884C779.6 44.8717 778.558 44.8634 777.6 44.8634H774.675C774.133 44.1884 773.667 43.4884 773.292 42.7717C772.908 42.0467 772.592 41.2884 772.333 40.4884C771.075 42.2634 769.567 43.5551 767.825 44.3551C766.075 45.1634 763.908 45.5717 761.325 45.5717C757.275 45.5717 753.967 44.7717 751.417 43.1717C748.867 41.5801 747.592 39.5467 747.592 37.0801C747.592 34.1467 749.567 31.9134 753.517 30.3717C757.467 28.8384 763.467 27.9634 771.517 27.7551V27.5217C771.517 24.4134 770.842 22.0551 769.5 20.4301C768.15 18.8051 766.192 17.9884 763.608 17.9884C761 17.9884 758.883 18.7051 757.258 20.1301C755.633 21.5467 754.3 23.8551 753.258 27.0551H752.342L749.25 19.1051C751.708 18.1717 754.233 17.4717 756.833 17.0134C759.442 16.5551 762.142 16.3301 764.942 16.3301C768.042 16.3301 770.758 16.6301 773.075 17.2384C775.4 17.8467 777.217 18.7384 778.517 19.9217C779.575 20.8051 780.325 21.8634 780.742 23.0801C781.167 24.3051 781.383 26.5134 781.383 29.7051V32.1801C781.383 36.7467 781.7 39.7967 782.342 41.3217C782.975 42.8551 784.133 43.7634 785.808 44.0634Z" fill="#231916"/>
<path d="M793.217 45.0217L793.184 44.4551C794.834 44.0134 795.959 43.1884 796.55 41.9634C797.15 40.7384 797.45 37.9717 797.45 33.6717V25.0217C797.45 22.7467 797.192 21.2967 796.667 20.6634C796.15 20.0301 795.167 19.6717 793.734 19.5801V18.9551C796.259 18.7134 798.575 18.4301 800.7 18.1134C802.834 17.7884 804.75 17.4301 806.467 17.0301V23.0967C807.592 20.8384 809.192 19.1467 811.25 18.0217C813.317 16.8884 815.85 16.3301 818.867 16.3301C821.75 16.3301 824.109 16.9217 825.934 18.1217C827.759 19.3217 828.884 20.9967 829.317 23.1467C830.492 20.8551 832.1 19.1551 834.134 18.0467C836.175 16.9301 838.725 16.3717 841.784 16.3717C845.842 16.3717 848.784 17.4051 850.609 19.4551C852.425 21.4967 853.342 24.8301 853.342 29.4467V33.0717C853.342 37.7384 853.65 40.7051 854.267 41.9801C854.884 43.2467 856.042 44.0717 857.734 44.4551L857.7 45.0217C856.642 44.9717 855.459 44.9301 854.15 44.9051C852.85 44.8801 850.95 44.8634 848.459 44.8634C846.225 44.8634 844.459 44.8801 843.167 44.9051C841.875 44.9301 840.642 44.9717 839.475 45.0217V44.4551C841.1 44.0134 842.225 43.2134 842.859 42.0301C843.492 40.8467 843.8 38.3634 843.8 34.5801V29.9467C843.8 26.1967 843.309 23.4551 842.325 21.7134C841.334 19.9801 839.775 19.1134 837.65 19.1134C835.375 19.1134 833.517 20.1051 832.084 22.0801C830.65 24.0551 829.934 26.6801 829.934 29.9467V33.6717C829.934 38.0134 830.242 40.7967 830.867 42.0301C831.484 43.2634 832.617 44.0717 834.267 44.4551L834.234 45.0217C833.15 44.9717 831.967 44.9301 830.684 44.9051C829.4 44.8801 827.575 44.8634 825.184 44.8634C823.034 44.8634 821.325 44.8801 820.059 44.9051C818.784 44.9301 817.567 44.9717 816.392 45.0217V44.4551C818.025 44.0134 819.15 43.2134 819.784 42.0301C820.409 40.8467 820.725 38.3634 820.725 34.5801V29.9467C820.725 26.1384 820.234 23.3967 819.259 21.7051C818.284 20.0134 816.734 19.1634 814.6 19.1634C812.367 19.1634 810.542 20.1551 809.117 22.1301C807.7 24.1134 806.984 26.7134 806.984 29.9467V33.6717C806.984 37.9884 807.292 40.7717 807.917 42.0051C808.534 43.2384 809.667 44.0551 811.317 44.4551V45.0217C810.234 44.9717 809.05 44.9301 807.767 44.9051C806.484 44.8801 804.609 44.8634 802.134 44.8634C799.9 44.8634 798.142 44.8801 796.859 44.9051C795.584 44.9301 794.367 44.9717 793.217 45.0217Z" fill="#231916"/>
<path d="M893.117 25.7262C893.033 23.3262 892.417 21.4428 891.258 20.0595C890.108 18.6845 888.6 17.9928 886.733 17.9928C884.867 17.9928 883.308 18.6678 882.05 20.0095C880.792 21.3595 879.95 23.2595 879.542 25.7262H893.117ZM904.475 27.6262H879.475L879.442 27.8095C879.383 28.8845 879.35 29.6845 879.35 30.2095C879.35 34.2178 880.358 37.3512 882.392 39.6095C884.425 41.8678 887.225 42.9928 890.808 42.9928C893.8 42.9928 896.35 42.1678 898.458 40.5012C900.558 38.8512 902.142 36.4012 903.208 33.1762L905 34.4762C903.633 38.1762 901.475 40.9512 898.533 42.7928C895.592 44.6512 891.858 45.5678 887.325 45.5678C881.675 45.5678 877.1 44.2012 873.567 41.4678C870.042 38.7345 868.283 35.1845 868.283 30.8262C868.283 26.5762 870.025 23.1012 873.5 20.3845C876.983 17.6762 881.483 16.3262 887 16.3262C891.942 16.3262 895.933 17.3095 898.975 19.2678C902.017 21.2262 903.85 24.0178 904.475 27.6262Z" fill="#231916"/>
</svg>
