<?xml version="1.0" encoding="UTF-8" standalone="no"?>
<!DOCTYPE svg PUBLIC "-//W3C//DTD SVG 1.1//EN" "http://www.w3.org/Graphics/SVG/1.1/DTD/svg11.dtd">
<svg width="100%" height="100%" viewBox="0 0 501 69" version="1.1" xmlns="http://www.w3.org/2000/svg" xmlns:xlink="http://www.w3.org/1999/xlink" xml:space="preserve" xmlns:serif="http://www.serif.com/" style="fill-rule:evenodd;clip-rule:evenodd;stroke-linejoin:round;stroke-miterlimit:2;">
    <g transform="matrix(1,0,0,1,-4900.91,-621.782)">
        <g transform="matrix(8.33333,0,0,8.33333,0,0)">
            <g transform="matrix(1,0,0,1,593.383,81.8558)">
                <path d="M0,-6.152L0,-5.273L-1.758,-5.273L-1.758,-4.394L-2.637,-4.394L-2.637,-3.515L-3.516,-3.515L-3.516,-2.636L-2.637,-2.636L-2.637,-1.757L-1.758,-1.757L-1.758,-0.879L0,-0.879L0,0L-2.637,0L-2.637,-0.879L-3.516,-0.879L-3.516,-1.757L-4.395,-1.757L-4.395,-2.636L-5.273,-2.636L-5.273,-3.515L-4.395,-3.515L-4.395,-4.394L-3.516,-4.394L-3.516,-5.273L-2.637,-5.273L-2.637,-6.152L0,-6.152Z" style="fill:rgb(76,124,119);fill-rule:nonzero;"/>
            </g>
        </g>
        <g transform="matrix(8.33333,0,0,8.33333,0,0)">
            <g transform="matrix(1,0,0,1,601.778,82.0316)">
                <path d="M0,-6.363L-1.723,-6.258L-1.23,-6.117C-1.02,-6.07 -0.902,-5.999 -0.879,-5.906C-0.902,-5.836 -0.973,-5.765 -1.09,-5.695L-1.09,-4.957L-0.879,-4.992C-0.832,-5.109 -0.738,-5.25 -0.598,-5.414C-0.434,-5.25 -0.293,-5.12 -0.176,-5.027C-0.082,-4.933 -0.035,-4.863 -0.035,-4.816C-0.059,-4.769 -0.129,-4.746 -0.246,-4.746C-0.598,-4.746 -0.879,-4.734 -1.09,-4.711L-1.09,-3.867L-0.809,-3.867C-0.738,-3.937 -0.633,-4.09 -0.492,-4.324C-0.445,-4.3 -0.363,-4.241 -0.246,-4.148L-0.035,-3.937L0,-6.363ZM-1.16,-2.601C-1.207,-2.601 -1.312,-2.589 -1.477,-2.566C-1.641,-2.566 -1.758,-2.554 -1.828,-2.531C-1.828,-2.273 -1.816,-1.898 -1.793,-1.406L-1.23,-1.406C-1.23,-1.57 -1.219,-1.875 -1.195,-2.32C-1.172,-2.437 -1.16,-2.531 -1.16,-2.601M-0.211,-2.636C-0.187,-2.566 -0.281,-2.484 -0.492,-2.39C-0.492,-2.226 -0.504,-1.956 -0.527,-1.582C-0.316,-1.441 -0.223,-1.323 -0.246,-1.23C-0.246,-1.183 -0.293,-1.16 -0.387,-1.16L-0.633,-1.16C-0.727,-1.136 -0.914,-1.125 -1.195,-1.125L-1.406,-1.125C-1.57,-1.101 -1.699,-1.09 -1.793,-1.09L-1.793,-0.949C-1.816,-0.855 -1.828,-0.785 -1.828,-0.738C-1.875,-0.574 -1.934,-0.433 -2.004,-0.316C-2.027,-0.293 -2.051,-0.269 -2.074,-0.246L-2.285,-0.14C-2.379,-0.093 -2.461,-0.093 -2.531,-0.14L-2.531,-0.246C-2.531,-0.363 -2.52,-0.527 -2.496,-0.738L-2.496,-2.883C-2.52,-3.023 -2.531,-3.14 -2.531,-3.234L-2.32,-3.129C-2.25,-3.105 -2.191,-3.081 -2.145,-3.058C-2.074,-3.035 -2.004,-3 -1.934,-2.953C-1.84,-2.905 -1.781,-2.87 -1.758,-2.847C-1.453,-2.847 -1.266,-2.859 -1.195,-2.883L-1.125,-2.953C-1.031,-3.07 -0.949,-3.164 -0.879,-3.234C-0.785,-3.211 -0.633,-3.105 -0.422,-2.918C-0.281,-2.8 -0.211,-2.707 -0.211,-2.636M-1.758,-4.676C-1.969,-4.676 -2.215,-4.652 -2.496,-4.605L-2.637,-4.886C-2.215,-4.909 -1.922,-4.922 -1.758,-4.922L-1.758,-5.449C-1.758,-5.566 -1.77,-5.836 -1.793,-6.258L-2.777,-6.187L-2.777,-4.676C-2.777,-4.371 -2.789,-4.066 -2.813,-3.761C-2.578,-3.761 -2.227,-3.773 -1.758,-3.797L-1.758,-4.676ZM1.09,-6.328C1.09,-6.258 0.973,-6.152 0.738,-6.011C0.738,-5.683 0.75,-5.366 0.773,-5.062L0.773,-3.058C0.797,-2.308 0.809,-1.675 0.809,-1.16C0.832,-0.996 0.832,-0.808 0.809,-0.597L0.809,-0.457C0.785,-0.198 0.727,-0 0.633,0.141C0.586,0.234 0.457,0.352 0.246,0.492C0.035,0.61 -0.141,0.668 -0.281,0.668C-0.352,0.645 -0.422,0.528 -0.492,0.317C-0.562,0.129 -0.668,-0 -0.809,-0.07L-0.844,-0.105C-0.844,-0.129 -0.891,-0.176 -0.984,-0.246C-1.125,-0.339 -1.184,-0.409 -1.16,-0.457C-1.113,-0.48 -1.008,-0.492 -0.844,-0.492L-0.422,-0.492C-0.281,-0.492 -0.176,-0.515 -0.105,-0.562C-0.059,-0.609 -0.035,-0.703 -0.035,-0.843L-0.035,-1.23C-0.012,-1.534 -0.012,-1.769 -0.035,-1.933L-0.035,-3.621L-0.211,-3.621C-0.398,-3.621 -0.598,-3.609 -0.809,-3.586C-1.066,-3.586 -1.477,-3.562 -2.039,-3.515C-2.086,-3.515 -2.191,-3.503 -2.355,-3.48C-2.496,-3.457 -2.602,-3.445 -2.672,-3.445L-2.813,-3.656C-2.813,-1.57 -3.375,-0.187 -4.5,0.492C-4.617,0.586 -4.687,0.621 -4.711,0.598C-4.734,0.551 -4.699,0.469 -4.605,0.352C-3.949,-0.468 -3.586,-1.464 -3.516,-2.636L-3.516,-3.093C-3.492,-3.656 -3.492,-4.136 -3.516,-4.535L-3.516,-5.379C-3.516,-5.801 -3.539,-6.34 -3.586,-6.996C-3.563,-6.996 -3.527,-6.972 -3.48,-6.925C-3.082,-6.738 -2.801,-6.586 -2.637,-6.468C-2.449,-6.491 -2.391,-6.491 -2.461,-6.468C-1.523,-6.539 -0.738,-6.586 -0.105,-6.609C-0.082,-6.656 -0.023,-6.726 0.07,-6.82C0.141,-6.913 0.199,-6.984 0.246,-7.031C0.316,-7.008 0.41,-6.948 0.527,-6.855C0.645,-6.785 0.727,-6.726 0.773,-6.679C0.984,-6.515 1.09,-6.398 1.09,-6.328M-4.324,-5.906C-4.324,-5.742 -4.371,-5.601 -4.465,-5.484C-4.559,-5.39 -4.676,-5.32 -4.816,-5.273C-4.98,-5.273 -5.098,-5.331 -5.168,-5.449C-5.238,-5.519 -5.285,-5.66 -5.309,-5.871C-5.379,-6.245 -5.531,-6.504 -5.766,-6.644C-5.836,-6.738 -5.859,-6.785 -5.836,-6.785C-5.836,-6.808 -5.766,-6.82 -5.625,-6.82C-4.852,-6.726 -4.418,-6.421 -4.324,-5.906M-3.938,-2.109C-3.82,-2.226 -3.75,-2.261 -3.727,-2.215C-3.656,-2.167 -3.668,-2.086 -3.762,-1.968C-3.762,-1.991 -3.773,-1.98 -3.797,-1.933C-4.125,-1.558 -4.418,-1.172 -4.676,-0.773C-4.699,-0.726 -4.734,-0.668 -4.781,-0.597L-4.887,-0.386L-4.887,-0.351C-4.934,-0.258 -4.98,-0.211 -5.027,-0.211C-5.074,-0.187 -5.156,-0.234 -5.273,-0.351C-5.25,-0.328 -5.273,-0.339 -5.344,-0.386C-5.391,-0.457 -5.473,-0.55 -5.59,-0.668C-5.707,-0.785 -5.777,-0.866 -5.801,-0.914C-5.566,-1.054 -5.449,-1.277 -5.449,-1.582L-5.379,-4.008C-5.66,-4.008 -6.012,-3.949 -6.434,-3.832L-6.504,-3.832C-6.504,-3.879 -6.527,-3.937 -6.574,-4.008C-6.621,-4.101 -6.656,-4.171 -6.68,-4.218C-6.422,-4.195 -6.035,-4.218 -5.52,-4.289L-5.414,-4.289L-5.133,-4.676C-5.109,-4.652 -5.051,-4.617 -4.957,-4.57C-4.816,-4.452 -4.699,-4.359 -4.605,-4.289C-4.418,-4.148 -4.324,-4.054 -4.324,-4.008C-4.324,-3.914 -4.43,-3.82 -4.641,-3.726L-4.676,-1.617C-4.629,-1.64 -4.523,-1.71 -4.359,-1.828C-4.172,-1.945 -4.031,-2.039 -3.938,-2.109" style="fill:rgb(76,124,119);fill-rule:nonzero;"/>
            </g>
        </g>
        <g transform="matrix(8.33333,0,0,8.33333,0,0)">
            <g transform="matrix(1,0,0,1,609.682,78.1653)">
                <path d="M0,0.808L-2.145,0.913L-2.109,1.652L-1.301,1.617C-1.254,1.617 -1.172,1.605 -1.055,1.581L-0.844,1.581C-0.82,1.581 -0.785,1.57 -0.738,1.546C-0.645,1.523 -0.562,1.499 -0.492,1.476C-0.352,1.64 -0.293,1.745 -0.316,1.792C-0.316,1.84 -0.363,1.863 -0.457,1.863L-0.738,1.863C-0.879,1.886 -1.102,1.898 -1.406,1.898C-1.711,1.921 -1.945,1.933 -2.109,1.933L-2.109,2.214C-2.109,2.262 -2.121,2.355 -2.145,2.495L-2.145,2.742L-0.035,2.636L0,0.808ZM1.055,0.773C1.055,0.843 0.961,0.937 0.773,1.054L0.773,1.933C0.797,2.262 0.809,2.531 0.809,2.742C0.809,2.953 0.738,3.093 0.598,3.163C0.34,3.374 0.141,3.445 0,3.374L0,3.339C-0.023,3.292 -0.035,3.257 -0.035,3.234L-0.035,2.917L-2.145,3.023C-2.191,3.117 -2.25,3.222 -2.32,3.339C-2.531,3.48 -2.695,3.527 -2.813,3.48C-2.859,3.48 -2.883,3.433 -2.883,3.339C-2.883,3.292 -2.871,3.222 -2.848,3.128L-2.848,0.246C-2.449,0.386 -2.18,0.515 -2.039,0.632L-0.035,0.527C0.082,0.41 0.187,0.281 0.281,0.14C0.305,0.163 0.34,0.187 0.387,0.21C0.434,0.234 0.574,0.328 0.809,0.492C0.973,0.609 1.055,0.703 1.055,0.773M2.777,3.902C2.777,3.972 2.648,4.007 2.391,4.007L1.512,4.007C1.23,4.007 0.645,4.019 -0.246,4.042C-0.645,4.065 -0.949,4.078 -1.16,4.078C-1.441,4.1 -2.016,4.148 -2.883,4.218C-3.258,4.218 -3.551,4.23 -3.762,4.253C-3.832,4.253 -3.926,4.265 -4.043,4.288C-4.277,4.311 -4.465,4.335 -4.605,4.359L-4.852,3.937C-4.336,3.937 -4.031,3.925 -3.938,3.902C-3.563,3.878 -2.941,3.854 -2.074,3.831L1.266,3.691L1.477,3.374C1.617,3.187 1.723,3.035 1.793,2.917C1.84,2.965 1.945,3.058 2.109,3.199C2.25,3.316 2.367,3.41 2.461,3.48C2.719,3.714 2.824,3.854 2.777,3.902M3.199,-0.317C3.199,-0.294 3.152,-0.258 3.059,-0.212C2.848,-0.141 2.602,-0.001 2.32,0.21C2.156,0.398 2.039,0.492 1.969,0.492C1.898,0.492 1.758,0.433 1.547,0.316C1.078,0.105 0.621,-0.247 0.176,-0.739C0.012,-0.902 -0.27,-1.243 -0.668,-1.758C-0.668,-1.711 -0.656,-1.583 -0.633,-1.372C-0.609,-1.113 -0.598,-0.891 -0.598,-0.704L-0.598,-0.247C-0.621,-0.083 -0.738,0.058 -0.949,0.175C-1.16,0.246 -1.312,0.269 -1.406,0.246C-1.453,0.223 -1.477,0.14 -1.477,-0.001L-1.477,-0.212C-1.453,-0.399 -1.441,-0.551 -1.441,-0.669L-1.441,-1.231C-1.652,-1.02 -1.898,-0.821 -2.18,-0.633C-2.742,-0.212 -3.41,0.175 -4.184,0.527C-4.254,0.55 -4.406,0.609 -4.641,0.703C-4.758,0.726 -4.84,0.75 -4.887,0.773C-4.934,0.773 -4.98,0.785 -5.027,0.808C-5.051,0.831 -5.098,0.843 -5.168,0.843C-5.191,0.843 -5.215,0.831 -5.238,0.808C-5.238,0.738 -5.133,0.656 -4.922,0.562C-3.469,-0.258 -2.367,-1.102 -1.617,-1.969L-1.723,-1.969C-2.168,-1.946 -2.695,-1.899 -3.305,-1.829C-3.68,-1.805 -4.008,-1.77 -4.289,-1.723C-4.359,-1.794 -4.43,-1.934 -4.5,-2.145L-3.375,-2.145C-2.859,-2.192 -2.215,-2.227 -1.441,-2.251L-1.441,-2.708C-1.441,-2.919 -1.453,-3.2 -1.477,-3.551C-1.266,-3.458 -1.055,-3.387 -0.844,-3.34C-0.562,-3.247 -0.422,-3.165 -0.422,-3.094C-0.422,-3.001 -0.504,-2.906 -0.668,-2.813L-0.668,-2.286L0.809,-2.356C0.809,-2.379 0.82,-2.403 0.844,-2.426C0.914,-2.544 1.066,-2.778 1.301,-3.13C1.488,-3.012 1.723,-2.848 2.004,-2.637C2.262,-2.426 2.367,-2.286 2.32,-2.215C2.32,-2.192 2.215,-2.157 2.004,-2.11C1.723,-2.11 1.336,-2.098 0.844,-2.075L-0.598,-2.005C0.363,-1.208 1.441,-0.704 2.637,-0.493C2.684,-0.493 2.754,-0.481 2.848,-0.458L2.988,-0.458C3.129,-0.434 3.199,-0.387 3.199,-0.317" style="fill:rgb(76,124,119);fill-rule:nonzero;"/>
            </g>
        </g>
        <g transform="matrix(8.33333,0,0,8.33333,0,0)">
            <g transform="matrix(1,0,0,1,620.468,76.0548)">
                <path d="M0,5.274C-0.211,5.977 -0.505,6.434 -0.879,6.645C-0.902,6.645 -0.927,6.657 -0.949,6.68C-0.997,6.703 -1.055,6.715 -1.125,6.715C-1.195,6.715 -1.266,6.668 -1.336,6.575L-1.441,6.469C-1.465,6.399 -1.489,6.352 -1.512,6.329C-1.605,6.211 -1.793,6.059 -2.074,5.872C-2.145,5.824 -2.228,5.766 -2.32,5.696C-2.391,5.649 -2.414,5.603 -2.391,5.555C-2.368,5.532 -2.32,5.52 -2.25,5.52L-2.109,5.52C-2.063,5.544 -2.027,5.555 -2.004,5.555L-1.828,5.555C-1.687,5.579 -1.57,5.59 -1.477,5.59C-1.313,5.614 -1.184,5.603 -1.09,5.555C-1.02,5.485 -0.927,5.344 -0.809,5.133C-0.786,5.063 -0.751,4.922 -0.703,4.712C-0.681,4.594 -0.656,4.513 -0.633,4.465C-0.47,3.434 -0.387,2.708 -0.387,2.286C-0.551,2.286 -1.465,2.333 -3.129,2.426C-3.504,2.45 -3.739,2.461 -3.832,2.461C-3.926,2.696 -4.043,2.848 -4.184,2.919C-4.583,2.708 -4.829,2.52 -4.922,2.356C-4.852,2.169 -4.746,2.04 -4.605,1.969C-4.418,0.892 -4.302,0.176 -4.254,-0.175C-4.184,-0.644 -4.148,-1.066 -4.148,-1.441C-4.102,-1.417 -4.021,-1.382 -3.902,-1.335C-3.715,-1.242 -3.563,-1.171 -3.445,-1.124C-3.188,-1.031 -3.059,-0.925 -3.059,-0.808C-3.059,-0.738 -3.164,-0.644 -3.375,-0.527L-3.551,0.598C-3.293,0.598 -2.777,0.575 -2.004,0.528C-1.208,0.481 -0.773,0.458 -0.703,0.458L-0.176,-0.281C0.012,-0.163 0.233,0.013 0.492,0.247C0.562,0.294 0.609,0.329 0.633,0.352C0.773,0.446 0.831,0.528 0.809,0.598C0.809,0.646 0.773,0.669 0.703,0.669C0.633,0.669 0.562,0.681 0.492,0.704C0.211,0.704 -0.164,0.716 -0.633,0.739L-3.586,0.844L-3.797,2.18C-1.946,2.063 -0.821,2.004 -0.422,2.004C-0.399,1.982 -0.34,1.899 -0.246,1.758C-0.176,1.665 -0.118,1.583 -0.07,1.512C0,1.536 0.141,1.63 0.352,1.794C0.444,1.864 0.515,1.922 0.562,1.969C0.75,2.11 0.831,2.215 0.809,2.286C0.809,2.356 0.69,2.45 0.457,2.567C0.363,3.575 0.211,4.478 0,5.274M-0.668,3.903C-0.668,3.95 -0.797,3.973 -1.055,3.973L-1.406,3.973C-1.711,3.997 -1.957,4.008 -2.145,4.008C-3.106,4.056 -4.043,4.114 -4.957,4.184C-5.356,4.208 -5.73,4.254 -6.082,4.325L-6.293,3.938C-6.13,3.938 -5.824,3.926 -5.379,3.903C-5.216,3.88 -5.086,3.868 -4.992,3.868C-4.57,3.845 -3.586,3.797 -2.039,3.727C-1.992,3.61 -1.887,3.446 -1.723,3.235C-1.652,3.118 -1.595,3.036 -1.547,2.989C-1.477,3.036 -1.371,3.118 -1.23,3.235C-1.113,3.329 -1.02,3.399 -0.949,3.446C-0.809,3.587 -0.727,3.669 -0.703,3.692C-0.656,3.762 -0.646,3.833 -0.668,3.903" style="fill:rgb(76,124,119);fill-rule:nonzero;"/>
            </g>
        </g>
        <g transform="matrix(8.33333,0,0,8.33333,0,0)">
            <g transform="matrix(1,0,0,1,631.781,79.2897)">
                <path d="M0,-1.125C0,-1.078 -0.048,-1.031 -0.141,-0.984C-0.048,-1.031 -0.059,-1.02 -0.176,-0.949C-0.224,-0.926 -0.294,-0.891 -0.387,-0.844C-0.435,-0.82 -0.47,-0.809 -0.492,-0.809C-0.562,-0.761 -0.762,-0.598 -1.09,-0.316C-1.184,-0.246 -1.266,-0.211 -1.336,-0.211C-1.477,-0.164 -1.711,-0.293 -2.039,-0.598C-3.001,-1.512 -3.715,-2.812 -4.184,-4.5C-4.091,-4.5 -3.915,-4.477 -3.656,-4.43C-3.586,-4.406 -3.528,-4.395 -3.48,-4.395C-3.317,-4.347 -3.234,-4.289 -3.234,-4.219C-3.258,-4.125 -3.375,-3.984 -3.586,-3.797C-3.142,-2.953 -2.614,-2.332 -2.004,-1.934C-1.56,-1.652 -1.055,-1.441 -0.492,-1.301C-0.445,-1.301 -0.387,-1.289 -0.316,-1.266C-0.246,-1.266 -0.199,-1.253 -0.176,-1.23C-0.059,-1.207 0,-1.172 0,-1.125M-2.355,-0.598C-2.355,-0.55 -2.461,-0.457 -2.672,-0.316C-2.695,0.27 -2.742,0.797 -2.813,1.266C-2.883,1.992 -3.001,2.508 -3.164,2.813C-3.258,3 -3.41,3.141 -3.621,3.234C-3.762,3.328 -3.88,3.375 -3.973,3.375C-4.066,3.352 -4.137,3.281 -4.184,3.164C-4.184,3.07 -4.207,2.965 -4.254,2.848C-4.302,2.73 -4.359,2.637 -4.43,2.566C-4.478,2.496 -4.559,2.403 -4.676,2.285C-4.699,2.262 -4.724,2.238 -4.746,2.215C-4.887,2.122 -4.945,2.051 -4.922,2.004C-4.922,1.957 -4.852,1.957 -4.711,2.004C-4.664,2.004 -4.594,2.016 -4.5,2.039C-4.337,2.063 -4.219,2.063 -4.148,2.039C-4.078,2.039 -3.985,2.027 -3.867,2.004C-3.797,1.934 -3.739,1.793 -3.691,1.582C-3.551,0.902 -3.493,0.141 -3.516,-0.703C-3.609,-0.703 -3.797,-0.691 -4.078,-0.668C-4.618,-0.621 -5.027,-0.585 -5.309,-0.563C-5.238,-0.539 -5.133,-0.469 -4.992,-0.352C-4.899,-0.281 -4.829,-0.234 -4.781,-0.211C-4.618,-0.117 -4.535,-0.012 -4.535,0.105C-4.535,0.176 -4.641,0.234 -4.852,0.281C-5.251,1.641 -6.176,2.613 -7.629,3.199C-7.77,3.27 -7.863,3.281 -7.91,3.234L-7.91,3.199C-7.91,3.152 -7.853,3.094 -7.734,3.023C-6.657,2.273 -5.977,1.324 -5.695,0.176C-5.695,0.153 -5.684,0.094 -5.66,0C-5.638,-0.07 -5.603,-0.258 -5.555,-0.563C-5.625,-0.539 -5.778,-0.515 -6.012,-0.492C-6.2,-0.469 -6.352,-0.445 -6.469,-0.422L-6.645,-0.809C-6.504,-0.809 -6.117,-0.832 -5.484,-0.879C-5.555,-0.855 -5.497,-0.855 -5.309,-0.879L-3.551,-0.984L-3.234,-1.406C-3.142,-1.359 -3.023,-1.277 -2.883,-1.16C-2.766,-1.066 -2.685,-1.007 -2.637,-0.984C-2.449,-0.82 -2.355,-0.691 -2.355,-0.598M-7.699,-0.035C-7.863,0.059 -8.004,0.129 -8.121,0.176C-8.239,0.246 -8.32,0.258 -8.367,0.211C-8.345,0.141 -8.204,-0.012 -7.945,-0.246C-7.079,-1.113 -6.481,-1.91 -6.152,-2.637C-5.919,-3.105 -5.754,-3.539 -5.66,-3.938C-5.613,-3.914 -5.52,-3.844 -5.379,-3.727C-5.216,-3.609 -5.086,-3.503 -4.992,-3.41C-4.759,-3.199 -4.641,-3.059 -4.641,-2.988C-4.664,-2.895 -4.805,-2.812 -5.062,-2.742C-5.789,-1.617 -6.668,-0.715 -7.699,-0.035" style="fill:rgb(76,124,119);fill-rule:nonzero;"/>
            </g>
        </g>
        <g transform="matrix(8.33333,0,0,8.33333,0,0)">
            <g transform="matrix(1,0,0,1,641.195,79.6991)">
                <path d="M0,-1.886C-0.023,-1.839 -0.129,-1.816 -0.316,-1.816L-0.914,-1.816L-1.582,-1.781C-1.582,-1.476 -1.57,-1.089 -1.547,-0.62C-1.547,-0.245 -1.535,0.247 -1.512,0.856L-1.512,1.419C-1.465,1.958 -1.465,2.298 -1.512,2.438C-1.582,2.602 -1.687,2.755 -1.828,2.895C-1.875,2.966 -1.957,3.012 -2.074,3.036C-2.191,3.106 -2.285,3.129 -2.355,3.106C-2.379,3.106 -2.414,3.083 -2.461,3.036L-2.461,2.438C-2.438,2.11 -2.414,1.794 -2.391,1.489L-2.391,0.821C-2.367,-0.046 -2.355,-0.889 -2.355,-1.71L-3.164,-1.64C-3.164,-1.077 -3.199,-0.608 -3.27,-0.234C-3.34,0.259 -3.492,0.693 -3.727,1.067C-3.773,1.114 -3.832,1.196 -3.902,1.313C-4.066,1.548 -4.219,1.723 -4.359,1.841C-4.594,2.075 -4.805,2.239 -4.992,2.333C-5.133,2.403 -5.215,2.415 -5.238,2.368L-5.238,2.333L-5.133,2.192C-4.828,1.818 -4.605,1.512 -4.465,1.278C-4.23,0.833 -4.066,0.294 -3.973,-0.339C-3.879,-0.878 -3.867,-1.652 -3.938,-2.659C-3.938,-2.941 -3.949,-3.304 -3.973,-3.749C-3.926,-3.726 -3.82,-3.691 -3.656,-3.644C-3.492,-3.596 -3.363,-3.561 -3.27,-3.538C-2.988,-3.726 -2.707,-3.96 -2.426,-4.241C-2.215,-4.475 -2.016,-4.734 -1.828,-5.015C-1.523,-4.804 -1.289,-4.616 -1.125,-4.452C-0.914,-4.264 -0.82,-4.136 -0.844,-4.066C-0.867,-3.995 -0.961,-3.96 -1.125,-3.96L-1.371,-3.96C-1.605,-3.82 -1.934,-3.667 -2.355,-3.503C-2.496,-3.48 -2.684,-3.409 -2.918,-3.292L-2.918,-3.222C-2.918,-3.198 -3,-3.128 -3.164,-3.011L-3.164,-1.921C-2.203,-1.991 -1.594,-2.027 -1.336,-2.027L-0.914,-2.73C-0.867,-2.682 -0.773,-2.612 -0.633,-2.519C-0.422,-2.355 -0.246,-2.214 -0.105,-2.097C-0.035,-2.05 0,-1.979 0,-1.886M-4.043,-2.519C-4.066,-2.448 -4.172,-2.413 -4.359,-2.413L-4.676,-2.413C-4.91,-2.39 -5.098,-2.378 -5.238,-2.378C-5.332,-2.378 -5.414,-2.366 -5.484,-2.343L-5.52,-1.745C-4.723,-1.511 -4.324,-1.148 -4.324,-0.656C-4.301,-0.281 -4.43,-0.093 -4.711,-0.093C-4.898,-0.093 -5.027,-0.175 -5.098,-0.339C-5.098,-0.409 -5.109,-0.55 -5.133,-0.761C-5.109,-0.62 -5.121,-0.656 -5.168,-0.866C-5.238,-1.124 -5.355,-1.324 -5.52,-1.464L-5.52,2.052C-5.52,2.192 -5.59,2.321 -5.73,2.438C-5.801,2.531 -5.906,2.614 -6.047,2.684C-6.187,2.755 -6.293,2.778 -6.363,2.755C-6.41,2.755 -6.434,2.719 -6.434,2.649L-6.363,2.052C-6.316,1.653 -6.281,1.137 -6.258,0.505L-6.223,-0.796C-6.199,-0.889 -6.187,-1.007 -6.187,-1.148C-6.492,-0.585 -6.844,-0.081 -7.242,0.364C-7.57,0.739 -7.875,1.044 -8.156,1.278C-8.25,1.348 -8.32,1.372 -8.367,1.348C-8.367,1.302 -8.332,1.22 -8.262,1.102C-8.004,0.774 -7.77,0.458 -7.559,0.153C-7.441,-0.034 -7.266,-0.351 -7.031,-0.796C-6.961,-0.937 -6.902,-1.042 -6.855,-1.113L-6.82,-1.183C-6.68,-1.464 -6.539,-1.827 -6.398,-2.273L-6.926,-2.238C-7.16,-2.238 -7.418,-2.202 -7.699,-2.132C-7.77,-2.225 -7.84,-2.355 -7.91,-2.519L-6.926,-2.519C-6.715,-2.542 -6.48,-2.554 -6.223,-2.554L-6.223,-3.644C-6.199,-3.807 -6.211,-4.148 -6.258,-4.663L-6.258,-4.804C-6.117,-4.781 -5.883,-4.699 -5.555,-4.558C-5.414,-4.488 -5.332,-4.452 -5.309,-4.452C-5.238,-4.429 -5.191,-4.382 -5.168,-4.312C-5.168,-4.218 -5.273,-4.113 -5.484,-3.995L-5.484,-2.624L-5.203,-2.624C-5.062,-2.882 -4.934,-3.104 -4.816,-3.292C-4.676,-3.198 -4.465,-3.023 -4.184,-2.765C-4.043,-2.647 -3.996,-2.566 -4.043,-2.519" style="fill:rgb(76,124,119);fill-rule:nonzero;"/>
            </g>
        </g>
        <g transform="matrix(8.33333,0,0,8.33333,0,0)">
            <g transform="matrix(1,0,0,1,645.477,81.8558)">
                <path d="M0,-6.152L0,-5.273L0.879,-5.273L0.879,-4.394L1.758,-4.394L1.758,-3.515L2.637,-3.515L2.637,-2.636L1.758,-2.636L1.758,-1.757L0.879,-1.757L0.879,-0.879L0,-0.879L0,0L-2.637,0L-2.637,-0.879L-0.879,-0.879L-0.879,-1.757L0,-1.757L0,-2.636L0.879,-2.636L0.879,-3.515L0,-3.515L0,-4.394L-0.879,-4.394L-0.879,-5.273L-2.637,-5.273L-2.637,-6.152L0,-6.152Z" style="fill:rgb(76,124,119);fill-rule:nonzero;"/>
            </g>
        </g>
    </g>
</svg>
