<?xml version="1.0" encoding="UTF-8" standalone="no"?>
<!DOCTYPE svg PUBLIC "-//W3C//DTD SVG 1.1//EN" "http://www.w3.org/Graphics/SVG/1.1/DTD/svg11.dtd">
<svg width="100%" height="100%" viewBox="0 0 745 112" version="1.1" xmlns="http://www.w3.org/2000/svg" xmlns:xlink="http://www.w3.org/1999/xlink" xml:space="preserve" xmlns:serif="http://www.serif.com/" style="fill-rule:evenodd;clip-rule:evenodd;stroke-linejoin:round;stroke-miterlimit:2;">
    <g transform="matrix(1,0,0,1,-1003.72,-10436.8)">
        <g transform="matrix(8.33333,0,0,8.33333,0,0)">
            <g transform="matrix(1,0,0,1,0,-605.999)">
                <path d="M144.468,1866.21L142.858,1866.21L142.858,1868.02L144.468,1868.02L144.468,1866.21ZM142.705,1865.82L144.468,1865.82L144.818,1865.29L145.645,1865.92C145.729,1865.99 145.771,1866.06 145.771,1866.11C145.771,1866.16 145.729,1866.21 145.645,1866.25L145.406,1866.39L145.406,1866.94C145.406,1867.25 145.42,1867.53 145.448,1867.79L145.49,1868.47C145.49,1868.62 145.362,1868.77 145.105,1868.92C144.849,1869.07 144.678,1869.15 144.594,1869.15C144.51,1869.15 144.468,1869.09 144.468,1868.95L144.468,1868.42L142.858,1868.42L142.858,1868.9C142.858,1869.02 142.833,1869.12 142.781,1869.18C142.73,1869.24 142.606,1869.33 142.411,1869.42C142.214,1869.52 142.077,1869.57 141.998,1869.57C141.918,1869.57 141.878,1869.51 141.878,1869.39C141.878,1869.27 141.885,1869.04 141.899,1868.71C141.914,1868.38 141.92,1867.88 141.92,1867.22L141.92,1866.62C141.92,1866.24 141.906,1865.8 141.878,1865.32L142.705,1865.82ZM144.09,1862.67L144.09,1864.21L144.986,1864.21L145.63,1863.43L146.344,1864.31C146.419,1864.38 146.457,1864.45 146.457,1864.5C146.457,1864.56 146.391,1864.59 146.26,1864.59L142.537,1864.59C142.154,1864.59 141.836,1864.64 141.584,1864.74L141.094,1864.14C141.439,1864.19 141.827,1864.21 142.256,1864.21L143.139,1864.21L143.139,1862.67L142.732,1862.67C142.34,1862.67 142.023,1862.72 141.78,1862.82L141.291,1862.22C141.636,1862.27 142.023,1862.29 142.453,1862.29L143.139,1862.29L143.139,1861.88C143.139,1861.36 143.125,1860.85 143.096,1860.36L144.188,1860.61C144.329,1860.64 144.398,1860.67 144.398,1860.72C144.398,1860.76 144.352,1860.82 144.258,1860.89L144.09,1861L144.09,1862.29L144.749,1862.29L145.336,1861.55L146.022,1862.39C146.087,1862.47 146.121,1862.53 146.121,1862.59C146.121,1862.64 146.055,1862.67 145.924,1862.67L144.09,1862.67ZM141.192,1859.76L146.428,1859.76L146.876,1859.13L147.871,1859.87C147.963,1859.94 148.01,1860.01 148.01,1860.07C148.01,1860.13 147.955,1860.19 147.842,1860.25L147.479,1860.44L147.479,1869.89C147.479,1870.23 147.434,1870.49 147.345,1870.67C147.257,1870.85 147.049,1871.05 146.723,1871.26C146.396,1871.47 146.197,1871.57 146.127,1871.57C146.058,1871.57 146.003,1871.49 145.966,1871.34C145.919,1871.05 145.792,1870.82 145.582,1870.67C145.372,1870.52 144.912,1870.34 144.203,1870.15L144.245,1869.94C144.963,1870.05 145.462,1870.1 145.743,1870.1C146.022,1870.1 146.218,1870.07 146.331,1870C146.442,1869.93 146.499,1869.78 146.499,1869.56L146.499,1860.15L141.052,1860.15L141.052,1864.46C141.052,1865.95 140.968,1867.12 140.8,1867.94C140.632,1868.77 140.312,1869.45 139.841,1870.01C139.37,1870.56 138.645,1871.13 137.665,1871.74L137.51,1871.55C138.313,1870.91 138.89,1870.35 139.239,1869.85C139.589,1869.36 139.82,1868.73 139.933,1867.98C140.044,1867.22 140.101,1866.07 140.101,1864.53L140.101,1860.5C140.101,1860.01 140.086,1859.52 140.059,1859.02L141.192,1859.76ZM136.601,1858.85C137.384,1859.18 137.896,1859.45 138.133,1859.65C138.372,1859.84 138.49,1860.07 138.49,1860.33C138.49,1860.59 138.404,1860.83 138.231,1861.04C138.059,1861.25 137.872,1861.35 137.671,1861.35C137.471,1861.35 137.356,1861.2 137.329,1860.89C137.263,1860.17 136.988,1859.55 136.502,1859.02L136.601,1858.85ZM139.834,1867.13C139.19,1867.78 138.656,1868.36 138.231,1868.87C137.807,1869.38 137.548,1869.74 137.455,1869.93C137.361,1870.12 137.289,1870.22 137.237,1870.22C137.186,1870.22 137.123,1870.15 137.048,1870.03L136.517,1869.07C136.722,1868.99 136.869,1868.9 136.958,1868.79C137.046,1868.68 137.09,1868.46 137.09,1868.13L137.09,1863.48L136.475,1863.48C136.063,1863.48 135.747,1863.54 135.522,1863.66L135.019,1863.05C135.457,1863.08 135.849,1863.09 136.194,1863.09L137.161,1863.09L137.539,1862.4L138.364,1863.06C138.495,1863.16 138.561,1863.24 138.561,1863.3C138.561,1863.36 138.5,1863.41 138.378,1863.45L138.07,1863.59L138.07,1868.1L139.708,1866.93L139.834,1867.13Z" style="fill:rgb(35,25,22);fill-rule:nonzero;"/>
            </g>
        </g>
        <g transform="matrix(8.33333,0,0,8.33333,0,0)">
            <g transform="matrix(1,0,0,1,0,-607.132)">
                <path d="M159.462,1868.18L154.758,1868.18L154.758,1869.7L159.462,1869.7L159.462,1868.18ZM159.462,1866.38L154.758,1866.38L154.758,1867.79L159.462,1867.79L159.462,1866.38ZM163.522,1871.73C163.606,1871.82 163.648,1871.89 163.648,1871.94C163.648,1872 163.578,1872.02 163.438,1872.02L152.462,1872.02C152.07,1872.02 151.753,1872.07 151.51,1872.16L151.021,1871.56C151.375,1871.62 151.757,1871.64 152.168,1871.64L161.744,1871.64L162.598,1870.59L163.522,1871.73ZM156.789,1862.39C156.098,1863.59 155.123,1864.62 153.862,1865.47L154.786,1865.99L159.28,1865.99L159.714,1865.52L160.583,1866.23C160.675,1866.29 160.722,1866.35 160.722,1866.4C160.722,1866.45 160.68,1866.5 160.596,1866.56L160.358,1866.69L160.358,1868.75C160.358,1869.12 160.373,1869.48 160.4,1869.83C160.428,1870.18 160.442,1870.36 160.442,1870.37C160.442,1870.56 160.312,1870.7 160.05,1870.8C159.789,1870.89 159.63,1870.94 159.574,1870.94C159.5,1870.94 159.462,1870.89 159.462,1870.77L159.462,1870.09L154.758,1870.09L154.758,1870.45C154.758,1870.67 154.642,1870.83 154.408,1870.95C154.175,1871.07 154.03,1871.12 153.974,1871.12C153.872,1871.12 153.82,1871.06 153.82,1870.93C153.82,1870.8 153.827,1870.59 153.841,1870.31C153.855,1870.02 153.862,1869.56 153.862,1868.91L153.862,1866.74C153.862,1866.38 153.848,1865.96 153.82,1865.5C152.943,1866.09 151.944,1866.6 150.824,1867.01L150.74,1866.83C152.019,1866.13 153.043,1865.42 153.813,1864.71C154.583,1863.99 155.234,1863.16 155.766,1862.22L152.714,1862.22C152.332,1862.22 152.019,1862.27 151.776,1862.37L151.286,1861.76C151.631,1861.82 152.019,1861.84 152.448,1861.84L156.789,1861.84L156.789,1860.86C156.789,1860.49 156.77,1860.06 156.732,1859.56L157.979,1860.04C158.081,1860.08 158.132,1860.13 158.132,1860.18C158.132,1860.24 158.09,1860.29 158.006,1860.34L157.685,1860.56L157.685,1861.84L161.254,1861.84L162.024,1860.93L162.85,1861.93C162.916,1862.02 162.948,1862.09 162.948,1862.14C162.948,1862.19 162.883,1862.22 162.752,1862.22L158.132,1862.22C158.757,1863.08 159.464,1863.74 160.253,1864.19C161.042,1864.64 162.131,1865 163.522,1865.26L163.522,1865.45C163.242,1865.49 163,1865.57 162.794,1865.69C162.589,1865.81 162.456,1865.93 162.396,1866.04C162.334,1866.15 162.271,1866.21 162.207,1866.21C162.094,1866.21 161.714,1866.04 161.065,1865.7C160.417,1865.36 159.814,1864.91 159.259,1864.36C158.704,1863.81 158.216,1863.1 157.796,1862.22L157.685,1862.22L157.685,1863.44C157.685,1864.07 157.693,1864.52 157.712,1864.78C157.731,1865.04 157.74,1865.19 157.74,1865.22C157.74,1865.34 157.603,1865.46 157.327,1865.57C157.052,1865.69 156.884,1865.75 156.823,1865.75C156.763,1865.75 156.732,1865.66 156.732,1865.48L156.76,1864.75C156.779,1864.47 156.789,1864.02 156.789,1863.41L156.789,1862.39Z" style="fill:rgb(35,25,22);fill-rule:nonzero;"/>
            </g>
        </g>
        <g transform="matrix(8.33333,0,0,8.33333,0,0)">
            <g transform="matrix(1,0,0,1,170.606,1262.19)">
                <path d="M0,-6.692L5.782,-6.692L6.706,-7.798L7.742,-6.538C7.807,-6.472 7.84,-6.42 7.84,-6.377C7.84,-6.336 7.774,-6.314 7.644,-6.314L-0.042,-6.314L-0.322,-3.906L5.712,-3.906L6.272,-4.634L7.336,-3.765C7.438,-3.681 7.49,-3.617 7.49,-3.57C7.49,-3.523 7.429,-3.481 7.308,-3.444L6.86,-3.29C6.729,-1.815 6.612,-0.693 6.51,0.077C6.407,0.847 6.304,1.366 6.202,1.631C6.099,1.897 5.926,2.128 5.684,2.325C5.441,2.52 5.154,2.696 4.823,2.849C4.491,3.003 4.291,3.08 4.221,3.08C4.151,3.08 4.111,3.024 4.102,2.912C4.074,2.455 3.416,2.044 2.128,1.68L2.198,1.414C3.234,1.629 3.938,1.737 4.312,1.737C4.685,1.737 4.939,1.615 5.075,1.371C5.21,1.129 5.362,0.543 5.53,-0.384C5.698,-1.314 5.819,-2.366 5.894,-3.542L-0.294,-3.542L-0.728,-2.94C-0.784,-2.865 -0.829,-2.828 -0.861,-2.828C-0.894,-2.828 -0.948,-2.861 -1.022,-2.925L-1.834,-3.612C-1.62,-3.771 -1.468,-3.921 -1.379,-4.067C-1.291,-4.212 -1.228,-4.489 -1.19,-4.9L-0.896,-8.078C-0.84,-8.731 -0.817,-9.296 -0.826,-9.772L0.56,-9.198C0.69,-9.151 0.756,-9.099 0.756,-9.045C0.756,-8.988 0.695,-8.931 0.574,-8.876L0.224,-8.694L0,-6.692ZM4.396,-0.755C4.461,-0.671 4.494,-0.611 4.494,-0.574C4.494,-0.537 4.428,-0.517 4.298,-0.517L-2.982,-0.517C-3.374,-0.517 -3.678,-0.47 -3.892,-0.379L-4.41,-0.98C-4.065,-0.923 -3.691,-0.896 -3.29,-0.896L2.66,-0.896L3.486,-1.876L4.396,-0.755Z" style="fill:rgb(35,25,22);fill-rule:nonzero;"/>
            </g>
        </g>
        <g transform="matrix(8.33333,0,0,8.33333,0,0)">
            <g transform="matrix(1,0,0,1,194.504,1259.86)">
                <path d="M0,-1.4C-0.485,-1.334 -0.789,-1.049 -0.91,-0.546C-0.929,-0.47 -0.961,-0.433 -1.008,-0.433C-1.12,-0.433 -1.556,-0.702 -2.317,-1.238C-3.078,-1.775 -3.731,-2.472 -4.277,-3.332C-4.823,-4.19 -5.301,-5.436 -5.712,-7.07L-4.298,-6.58C-4.214,-6.551 -4.172,-6.517 -4.172,-6.474C-4.172,-6.433 -4.2,-6.379 -4.256,-6.314L-4.704,-5.824C-3.901,-3.379 -2.329,-1.968 0.014,-1.595L0,-1.4ZM-7.084,-0.98C-7.597,1.158 -8.202,2.645 -8.897,3.479C-9.592,4.315 -10.756,5.045 -12.39,5.67L-12.488,5.475C-11.48,4.877 -10.722,4.329 -10.213,3.829C-9.704,3.33 -9.287,2.714 -8.96,1.981C-8.633,1.248 -8.381,0.262 -8.204,-0.98L-9.212,-0.98C-9.604,-0.98 -9.94,-0.923 -10.22,-0.812L-10.654,-1.427C-10.318,-1.38 -9.949,-1.357 -9.548,-1.357L-4.172,-1.357L-3.752,-2.029L-2.814,-1.189C-2.758,-1.133 -2.73,-1.088 -2.73,-1.049C-2.73,-1.012 -2.758,-0.97 -2.814,-0.923L-3.094,-0.7C-3.262,0.822 -3.418,2.004 -3.563,2.85C-3.708,3.694 -3.845,4.238 -3.976,4.481C-4.106,4.723 -4.391,4.958 -4.83,5.188C-5.269,5.416 -5.53,5.53 -5.614,5.53C-5.698,5.53 -5.745,5.489 -5.754,5.405C-5.801,4.965 -5.908,4.676 -6.076,4.537C-6.244,4.397 -6.636,4.246 -7.252,4.088L-7.182,3.823C-6.407,3.934 -5.871,3.991 -5.572,3.991C-5.273,3.991 -5.07,3.918 -4.963,3.774C-4.855,3.629 -4.727,3.206 -4.578,2.506C-4.429,1.807 -4.274,0.645 -4.116,-0.98L-7.084,-0.98ZM-7.28,-5.529C-7.214,-5.483 -7.182,-5.433 -7.182,-5.382C-7.182,-5.332 -7.247,-5.292 -7.378,-5.263C-7.63,-5.208 -7.816,-5.091 -7.938,-4.914C-8.918,-3.523 -9.77,-2.47 -10.493,-1.756C-11.216,-1.043 -12.007,-0.406 -12.866,0.155L-13.034,-0.042C-12.017,-0.9 -11.1,-1.901 -10.283,-3.045C-9.466,-4.187 -8.862,-5.32 -8.47,-6.439L-7.28,-5.529Z" style="fill:rgb(35,25,22);fill-rule:nonzero;"/>
            </g>
        </g>
        <g transform="matrix(8.33333,0,0,8.33333,0,0)">
            <g transform="matrix(1,0,0,1,203.898,1260.6)">
                <path d="M0,-3.066L4.2,-3.066L4.928,-3.933L5.754,-2.925C5.819,-2.861 5.852,-2.804 5.852,-2.757C5.852,-2.711 5.792,-2.687 5.67,-2.687L3.346,-2.687L3.346,1.569L3.388,4.172C3.388,4.368 3.25,4.524 2.975,4.641C2.7,4.758 2.529,4.817 2.464,4.817C2.343,4.817 2.282,4.7 2.282,4.466L2.338,3.121C2.366,2.506 2.38,1.881 2.38,1.246L2.38,-2.687L0,-2.687C-0.009,-0.503 -0.254,1.12 -0.735,2.184C-1.216,3.248 -2.137,4.135 -3.5,4.844L-3.64,4.649C-2.847,4.014 -2.261,3.4 -1.883,2.807C-1.505,2.215 -1.249,1.463 -1.113,0.553C-0.978,-0.357 -0.91,-1.806 -0.91,-3.794C-0.91,-4.793 -0.938,-5.834 -0.994,-6.916L0.28,-6.257C1.764,-6.63 3.071,-7.065 4.2,-7.56L4.914,-6.664C4.989,-6.57 5.026,-6.496 5.026,-6.44C5.026,-6.384 4.947,-6.365 4.788,-6.384C4.629,-6.402 4.487,-6.412 4.361,-6.412C4.235,-6.412 4.116,-6.402 4.004,-6.384L0.042,-5.824C0.042,-5.003 0.028,-4.084 0,-3.066M-4.802,-4.242L-5.6,-4.242C-5.955,-4.242 -6.267,-4.195 -6.538,-4.101L-7,-4.704C-6.664,-4.657 -6.286,-4.634 -5.866,-4.634L-4.676,-4.634L-4.676,-5.767C-4.676,-6.543 -4.695,-7.298 -4.732,-8.036L-3.346,-7.462C-3.243,-7.416 -3.192,-7.369 -3.192,-7.322C-3.192,-7.275 -3.243,-7.218 -3.346,-7.154L-3.752,-6.902L-3.752,-4.634L-2.786,-4.634L-2.1,-5.446L-1.344,-4.536C-1.288,-4.47 -1.26,-4.405 -1.26,-4.339C-1.26,-4.275 -1.321,-4.242 -1.442,-4.242L-3.752,-4.242L-3.752,-2.814C-2.427,-2.273 -1.764,-1.689 -1.764,-1.064C-1.764,-0.886 -1.815,-0.72 -1.918,-0.567C-2.021,-0.413 -2.128,-0.336 -2.24,-0.336C-2.352,-0.336 -2.429,-0.364 -2.471,-0.42C-2.513,-0.476 -2.543,-0.564 -2.562,-0.685C-2.711,-1.33 -3.108,-1.941 -3.752,-2.519L-3.752,1.596C-3.752,2.446 -3.747,3.043 -3.738,3.388L-3.71,4.229C-3.71,4.397 -3.843,4.562 -4.109,4.725C-4.375,4.889 -4.555,4.97 -4.648,4.97C-4.741,4.97 -4.788,4.868 -4.788,4.663L-4.718,3.262C-4.69,2.6 -4.676,1.955 -4.676,1.33L-4.676,-2.072C-5.161,-0.662 -5.973,0.639 -7.112,1.834L-7.266,1.722C-6.174,-0.013 -5.353,-2.002 -4.802,-4.242" style="fill:rgb(35,25,22);fill-rule:nonzero;"/>
            </g>
        </g>
        <g transform="matrix(8.33333,0,0,8.33333,0,0)">
            <g transform="matrix(0,-1,-1,0,123.146,1255.63)">
                <path d="M-2.7,-2.701C-4.191,-2.701 -5.4,-1.492 -5.4,-0.001C-5.4,1.49 -4.191,2.7 -2.7,2.7C-1.209,2.7 -0.001,1.49 -0.001,-0.001C-0.001,-1.492 -1.209,-2.701 -2.7,-2.701" style="fill:rgb(62,57,56);fill-rule:nonzero;"/>
            </g>
        </g>
    </g>
</svg>
