<?xml version="1.0" encoding="UTF-8" standalone="no"?>
<!DOCTYPE svg PUBLIC "-//W3C//DTD SVG 1.1//EN" "http://www.w3.org/Graphics/SVG/1.1/DTD/svg11.dtd">
<svg width="100%" height="100%" viewBox="0 0 874 111" version="1.1" xmlns="http://www.w3.org/2000/svg" xmlns:xlink="http://www.w3.org/1999/xlink" xml:space="preserve" xmlns:serif="http://www.serif.com/" style="fill-rule:evenodd;clip-rule:evenodd;stroke-linejoin:round;stroke-miterlimit:2;">
    <g transform="matrix(1,0,0,1,-1008.08,-7920.98)">
        <g transform="matrix(8.33333,0,0,8.33333,0,0)">
            <g transform="matrix(1,0,0,1,145.552,954.186)">
                <path d="M0,5.571C1.913,6.355 2.87,7.008 2.87,7.531C2.87,7.643 2.812,7.818 2.695,8.056C2.578,8.295 2.469,8.413 2.366,8.413C2.263,8.413 2.166,8.374 2.072,8.295C1.979,8.215 1.904,8.114 1.848,7.993C1.549,7.331 0.868,6.584 -0.196,5.754L0,5.571ZM-0.658,-3.319C-0.173,-3.179 0.229,-3.033 0.546,-2.885C0.863,-2.736 1.022,-2.581 1.022,-2.423C1.022,-2.264 0.966,-2.091 0.854,-1.905C0.742,-1.718 0.616,-1.624 0.476,-1.624C0.383,-1.624 0.278,-1.748 0.161,-1.995C0.044,-2.242 -0.261,-2.628 -0.756,-3.151L-0.658,-3.319ZM-4.074,4.983C-2.711,5.507 -2.03,6.038 -2.03,6.579C-2.03,6.775 -2.095,6.953 -2.226,7.111C-2.357,7.27 -2.49,7.349 -2.625,7.349C-2.76,7.349 -2.854,7.319 -2.905,7.258C-2.956,7.197 -3.01,7.069 -3.066,6.874C-3.188,6.36 -3.579,5.786 -4.242,5.151L-4.074,4.983ZM-3.304,2.057L-5.432,2.057L-5.432,3.527L-3.304,3.527L-3.304,2.057ZM-0.224,6.132C-0.233,6.346 -0.238,6.592 -0.238,6.866C-0.238,7.141 -0.203,7.354 -0.133,7.504C-0.063,7.652 0.075,7.783 0.28,7.895C0.364,7.961 0.406,8.038 0.406,8.127C0.406,8.215 0.289,8.371 0.056,8.595C-0.177,8.819 -0.616,8.95 -1.26,8.987C-1.904,9.024 -2.597,9.044 -3.339,9.044C-4.081,9.044 -4.615,9.022 -4.942,8.98C-5.269,8.938 -5.495,8.841 -5.621,8.686C-5.747,8.532 -5.81,8.292 -5.81,7.966L-5.81,6.691C-5.81,6.253 -5.833,5.804 -5.88,5.347L-4.718,5.809C-4.615,5.846 -4.564,5.884 -4.564,5.922C-4.564,5.959 -4.597,6.01 -4.662,6.075L-4.914,6.271L-4.914,7.741C-4.914,7.937 -4.858,8.056 -4.746,8.098C-4.634,8.14 -4.074,8.161 -3.066,8.161C-1.965,8.161 -1.292,8.122 -1.05,8.043C-0.807,7.963 -0.621,7.321 -0.49,6.117L-0.224,6.132ZM-5.404,1.651L-3.346,1.651L-2.982,1.175L-2.1,1.75C-2.016,1.796 -1.974,1.838 -1.974,1.876C-1.974,1.913 -2.011,1.95 -2.086,1.987L-2.422,2.197L-2.422,3.177L-2.366,3.975C-2.366,4.125 -2.417,4.225 -2.52,4.276C-2.623,4.328 -2.746,4.379 -2.891,4.43C-3.036,4.482 -3.141,4.508 -3.206,4.508C-3.271,4.508 -3.304,4.451 -3.304,4.34L-3.304,3.92L-5.432,3.92L-5.432,4.059C-5.432,4.218 -5.453,4.33 -5.495,4.395C-5.537,4.461 -5.649,4.526 -5.831,4.592C-6.013,4.657 -6.158,4.689 -6.265,4.689C-6.372,4.689 -6.426,4.642 -6.426,4.55C-6.426,4.456 -6.405,4.309 -6.363,4.108C-6.321,3.908 -6.3,3.602 -6.3,3.191L-6.3,2.183C-6.3,1.903 -6.314,1.516 -6.342,1.021L-5.404,1.651ZM-2.17,0.336C-2.077,0.447 -2.03,0.512 -2.03,0.531C-2.03,0.578 -2.1,0.601 -2.24,0.601L-5.474,0.601C-5.866,0.601 -6.165,0.648 -6.37,0.741L-6.86,0.168C-6.515,0.223 -6.141,0.252 -5.74,0.252L-3.472,0.252L-2.87,-0.505L-2.17,0.336ZM-7.14,5.599C-7.103,5.982 -7.084,6.411 -7.084,6.887C-7.084,7.363 -7.177,7.809 -7.364,8.224C-7.551,8.639 -7.845,8.847 -8.246,8.847C-8.433,8.847 -8.58,8.802 -8.687,8.715C-8.794,8.626 -8.848,8.5 -8.848,8.337C-8.848,8.173 -8.759,8.035 -8.582,7.924C-8.405,7.811 -8.197,7.541 -7.959,7.111C-7.721,6.682 -7.537,6.178 -7.406,5.599L-7.14,5.599ZM0.07,2.883C0.425,3.312 0.777,3.639 1.127,3.863C1.477,4.088 1.71,4.199 1.827,4.199C1.944,4.199 2.025,4.16 2.072,4.08C2.119,4.001 2.2,3.737 2.317,3.29C2.434,2.842 2.52,2.468 2.576,2.17L2.786,2.197C2.721,2.813 2.688,3.273 2.688,3.576C2.688,3.88 2.718,4.127 2.779,4.318C2.84,4.509 2.949,4.755 3.108,5.053C3.183,5.203 3.22,5.347 3.22,5.487C3.22,5.628 3.105,5.697 2.877,5.697C2.648,5.697 2.151,5.48 1.386,5.047C0.621,4.612 0.019,4.092 -0.42,3.485C-1.055,4.204 -2.007,4.797 -3.276,5.263L-3.36,5.067C-2.184,4.358 -1.334,3.644 -0.812,2.925C-1.363,2.01 -1.741,0.695 -1.946,-1.023L-6.93,-1.023L-6.93,0.727C-6.93,1.838 -7.117,2.801 -7.49,3.618C-7.863,4.435 -8.442,5.179 -9.226,5.851L-9.394,5.697C-8.386,4.344 -7.882,2.907 -7.882,1.385L-7.882,-0.841C-7.882,-1.307 -7.901,-1.788 -7.938,-2.283L-6.748,-1.401L-1.988,-1.401C-2.072,-2.213 -2.124,-2.904 -2.142,-3.473L-0.98,-3.025C-0.877,-2.978 -0.826,-2.934 -0.826,-2.892C-0.826,-2.85 -0.873,-2.796 -0.966,-2.731L-1.148,-2.605C-1.148,-2.194 -1.129,-1.792 -1.092,-1.401L1.232,-1.401L2.044,-2.381L2.884,-1.359C2.958,-1.256 2.996,-1.174 2.996,-1.114C2.996,-1.053 2.926,-1.023 2.786,-1.023L-1.064,-1.023C-0.952,0.265 -0.709,1.339 -0.336,2.197C0.056,1.525 0.458,0.578 0.868,-0.645L1.694,-0.057C1.778,0.009 1.82,0.067 1.82,0.118C1.82,0.17 1.78,0.215 1.701,0.252C1.622,0.289 1.524,0.391 1.407,0.559C1.291,0.727 1.176,0.914 1.064,1.119C0.709,1.857 0.378,2.445 0.07,2.883" style="fill:rgb(35,25,22);fill-rule:nonzero;"/>
            </g>
        </g>
        <g transform="matrix(8.33333,0,0,8.33333,0,0)">
            <g transform="matrix(1,0,0,1,157.13,959.085)">
                <path d="M0,-4.017C-0.495,-2.757 -1.05,-1.689 -1.666,-0.811L-1.904,-0.91C-1.027,-2.766 -0.411,-4.871 -0.056,-7.223L0.938,-6.817C1.106,-6.743 1.19,-6.67 1.19,-6.6C1.19,-6.531 1.129,-6.46 1.008,-6.39C0.887,-6.321 0.732,-6.027 0.546,-5.508C0.359,-4.991 0.229,-4.62 0.154,-4.395L1.96,-4.395L1.96,-6.215C1.96,-7.008 1.941,-7.779 1.904,-8.525L3.43,-7.797C3.542,-7.75 3.598,-7.702 3.598,-7.65C3.598,-7.599 3.542,-7.54 3.43,-7.475L3.038,-7.251L3.038,-4.395L4.872,-4.395L5.628,-5.305L6.51,-4.242C6.584,-4.166 6.622,-4.111 6.622,-4.074C6.622,-4.036 6.566,-4.017 6.454,-4.017L3.038,-4.017L3.038,-0.853L4.326,-0.853L5.096,-1.749L6.006,-0.658C6.052,-0.601 6.076,-0.554 6.076,-0.517C6.076,-0.48 6.015,-0.461 5.894,-0.461L3.038,-0.461L3.038,3.319L5.362,3.319L6.174,2.353L7.112,3.459C7.168,3.534 7.196,3.594 7.196,3.641C7.196,3.687 7.13,3.711 7,3.711L-0.882,3.711C-1.274,3.711 -1.591,3.762 -1.834,3.865L-2.338,3.235C-1.993,3.291 -1.605,3.319 -1.176,3.319L1.96,3.319L1.96,-0.461L0.812,-0.461C0.42,-0.461 0.103,-0.414 -0.14,-0.322L-0.644,-0.937C-0.299,-0.881 0.088,-0.853 0.518,-0.853L1.96,-0.853L1.96,-4.017L0,-4.017ZM-2.996,-5.194L-2.996,1.163C-2.996,2.096 -2.989,2.761 -2.975,3.158C-2.961,3.554 -2.954,3.767 -2.954,3.795C-2.954,3.972 -3.104,4.142 -3.402,4.305C-3.701,4.469 -3.892,4.55 -3.976,4.55C-4.06,4.55 -4.102,4.49 -4.102,4.369C-4.102,4.248 -4.098,4.122 -4.088,3.991C-4.014,3.291 -3.976,2.246 -3.976,0.855L-3.976,-6.257C-3.976,-7.023 -3.995,-7.792 -4.032,-8.567L-2.604,-7.965C-2.492,-7.928 -2.436,-7.881 -2.436,-7.826C-2.436,-7.769 -2.492,-7.708 -2.604,-7.643L-2.996,-7.433L-2.996,-5.473C-2.501,-5.324 -2.117,-5.163 -1.841,-4.991C-1.566,-4.818 -1.428,-4.617 -1.428,-4.388C-1.428,-4.16 -1.468,-3.975 -1.547,-3.835C-1.626,-3.696 -1.715,-3.625 -1.813,-3.625C-1.911,-3.625 -1.983,-3.656 -2.03,-3.716C-2.077,-3.777 -2.133,-3.886 -2.198,-4.045C-2.329,-4.39 -2.595,-4.773 -2.996,-5.194M-4.704,-5.109C-4.629,-4.578 -4.592,-4.129 -4.592,-3.765C-4.592,-3.13 -4.7,-2.675 -4.914,-2.4C-5.129,-2.124 -5.353,-1.988 -5.586,-1.988C-5.689,-1.988 -5.787,-2.03 -5.88,-2.114C-5.974,-2.198 -6.02,-2.304 -6.02,-2.435C-6.02,-2.566 -5.932,-2.729 -5.754,-2.925C-5.577,-3.121 -5.411,-3.417 -5.257,-3.814C-5.103,-4.211 -4.994,-4.638 -4.928,-5.095L-4.704,-5.109Z" style="fill:rgb(35,25,22);fill-rule:nonzero;"/>
            </g>
        </g>
        <g transform="matrix(8.33333,0,0,8.33333,0,0)">
            <g transform="matrix(1,0,0,1,173.552,961.228)">
                <path d="M0,-8.078L-0.084,-7.925C0.401,-7.094 0.971,-6.389 1.624,-5.81C2.23,-6.482 2.758,-7.238 3.206,-8.078L0,-8.078ZM-0.266,0.602L3.304,0.602L3.304,-2.324L-0.266,-2.324L-0.266,0.602ZM-0.28,-7.574C-0.877,-6.538 -1.456,-5.693 -2.016,-5.04L-2.17,-5.208C-1.545,-6.338 -1.099,-7.257 -0.833,-7.967C-0.567,-8.676 -0.275,-9.549 0.042,-10.584L1.176,-10.192C1.325,-10.145 1.4,-10.099 1.4,-10.053C1.4,-10.006 1.309,-9.945 1.127,-9.87C0.945,-9.796 0.653,-9.348 0.252,-8.526L3.304,-8.526L3.836,-9.156L4.746,-8.387C4.82,-8.321 4.858,-8.256 4.858,-8.19C4.858,-8.125 4.767,-8.071 4.585,-8.029C4.403,-7.987 4.176,-7.77 3.906,-7.379C3.318,-6.538 2.767,-5.852 2.254,-5.32C3.29,-4.611 4.652,-4.14 6.342,-3.906L6.328,-3.766C6.001,-3.645 5.77,-3.53 5.635,-3.424C5.5,-3.316 5.395,-3.155 5.32,-2.94C5.283,-2.865 5.236,-2.828 5.18,-2.828C5.068,-2.828 4.599,-3.033 3.773,-3.444C2.947,-3.855 2.263,-4.307 1.722,-4.803C1.022,-4.14 0.191,-3.538 -0.77,-2.996L-0.084,-2.717L3.136,-2.717L3.57,-3.318L4.508,-2.717C4.583,-2.67 4.62,-2.63 4.62,-2.598C4.62,-2.564 4.587,-2.52 4.522,-2.465L4.228,-2.198L4.228,-0.589C4.228,-0.206 4.251,0.187 4.298,0.588L4.41,1.554C4.41,1.722 4.279,1.866 4.018,1.987C3.756,2.109 3.572,2.17 3.465,2.17C3.357,2.17 3.304,2.09 3.304,1.932L3.304,1.022L-0.266,1.022L-0.266,1.806C-0.266,1.927 -0.296,2.018 -0.357,2.078C-0.418,2.139 -0.544,2.214 -0.735,2.303C-0.926,2.392 -1.057,2.436 -1.127,2.436C-1.197,2.436 -1.232,2.375 -1.232,2.254L-1.19,1.582C-1.181,1.311 -1.176,0.943 -1.176,0.476L-1.176,-1.61C-1.176,-2.208 -1.181,-2.595 -1.19,-2.772C-1.731,-2.483 -2.361,-2.18 -3.08,-1.862L-3.164,-2.087C-1.344,-3.159 0.107,-4.237 1.19,-5.32C0.695,-5.881 0.205,-6.632 -0.28,-7.574M-3.724,-5.194C-3.052,-4.971 -2.6,-4.776 -2.366,-4.613C-2.133,-4.45 -2.016,-4.257 -2.016,-4.032C-2.016,-3.808 -2.061,-3.617 -2.149,-3.458C-2.238,-3.3 -2.345,-3.221 -2.471,-3.221C-2.597,-3.221 -2.693,-3.347 -2.758,-3.599C-2.842,-3.906 -3.164,-4.321 -3.724,-4.845L-3.724,-0.896C-3.724,-0.047 -3.717,0.602 -3.703,1.05C-3.689,1.498 -3.682,1.74 -3.682,1.777C-3.682,1.964 -3.806,2.132 -4.053,2.281C-4.3,2.431 -4.476,2.506 -4.578,2.506C-4.681,2.506 -4.732,2.38 -4.732,2.128L-4.648,0.77C-4.62,0.163 -4.606,-0.5 -4.606,-1.219L-4.606,-4.914C-5.194,-3.468 -5.992,-2.161 -7,-0.994L-7.21,-1.106C-6.109,-3.011 -5.311,-4.947 -4.816,-6.916L-5.642,-6.916C-6.043,-6.916 -6.361,-6.865 -6.594,-6.763L-7.098,-7.364C-6.744,-7.317 -6.356,-7.295 -5.936,-7.295L-4.606,-7.295L-4.606,-8.778C-4.606,-9.525 -4.625,-10.127 -4.662,-10.584L-3.234,-9.982C-3.122,-9.945 -3.066,-9.893 -3.066,-9.828C-3.066,-9.763 -3.122,-9.707 -3.234,-9.66L-3.724,-9.45L-3.724,-7.295L-3.094,-7.295L-2.408,-8.078L-1.624,-7.126C-1.568,-7.052 -1.54,-6.998 -1.54,-6.966C-1.54,-6.932 -1.582,-6.916 -1.666,-6.916L-3.724,-6.916L-3.724,-5.194Z" style="fill:rgb(35,25,22);fill-rule:nonzero;"/>
            </g>
        </g>
        <g transform="matrix(8.33333,0,0,8.33333,0,0)">
            <g transform="matrix(1,0,0,1,189.666,954.479)">
                <path d="M0,5.866C1.157,6.091 2.077,6.405 2.758,6.811C3.439,7.218 3.78,7.597 3.78,7.952C3.78,8.242 3.738,8.472 3.654,8.645C3.57,8.818 3.477,8.904 3.374,8.904C3.271,8.904 3.187,8.879 3.122,8.827C3.057,8.776 2.963,8.671 2.842,8.512C2.142,7.607 1.157,6.795 -0.112,6.076L0,5.866ZM1.582,3.627L-3.542,3.627L-3.542,5.097L1.582,5.097L1.582,3.627ZM1.582,1.667L-3.542,1.667L-3.542,3.249L1.582,3.249L1.582,1.667ZM1.582,-0.28L-3.542,-0.28L-3.542,1.288L1.582,1.288L1.582,-0.28ZM1.582,-2.239L-3.542,-2.239L-3.542,-0.657L1.582,-0.657L1.582,-2.239ZM-2.128,6.482C-2.035,6.557 -1.988,6.618 -1.988,6.665C-1.988,6.711 -2.058,6.753 -2.198,6.791C-2.338,6.828 -2.525,6.926 -2.758,7.085C-4.027,7.98 -5.507,8.694 -7.196,9.226L-7.294,9.016C-5.437,7.97 -4.027,6.87 -3.066,5.713L-2.128,6.482ZM-3.542,-2.617L1.316,-2.617L1.848,-3.36L3.01,-2.575C3.075,-2.538 3.108,-2.498 3.108,-2.456C3.108,-2.414 3.075,-2.37 3.01,-2.323L2.548,-1.988L2.548,5.096L3.43,5.096L4.34,3.99L5.264,5.096C5.367,5.218 5.418,5.311 5.418,5.377C5.418,5.442 5.343,5.474 5.194,5.474L-6.244,5.474C-6.617,5.474 -6.935,5.521 -7.196,5.614L-7.714,5.012C-7.369,5.068 -6.981,5.096 -6.552,5.096L-4.55,5.096L-4.55,-1.581C-4.55,-2.189 -4.564,-2.758 -4.592,-3.289L-3.542,-2.617Z" style="fill:rgb(35,25,22);fill-rule:nonzero;"/>
            </g>
        </g>
        <g transform="matrix(8.33333,0,0,8.33333,0,0)">
            <g transform="matrix(1,0,0,1,205.557,958.54)">
                <path d="M0,-2.577L2.562,-2.577L2.562,-4.186L0.56,-4.186C0.392,-3.664 0.205,-3.128 0,-2.577M-2.338,-2.577L-0.826,-2.577C-0.583,-3.221 -0.406,-3.758 -0.294,-4.186L-2.338,-4.186L-2.338,-2.577ZM-1.498,-5.978C-1.956,-5.512 -2.441,-5.088 -2.954,-4.705L-2.646,-4.564L-0.182,-4.564L1.176,-5.978L-1.498,-5.978ZM-1.064,-2.199L-2.338,-2.199L-2.338,-2.016C-2.338,-1.84 -2.373,-1.721 -2.443,-1.66C-2.513,-1.599 -2.639,-1.529 -2.821,-1.45C-3.003,-1.37 -3.141,-1.331 -3.234,-1.331C-3.328,-1.331 -3.374,-1.385 -3.374,-1.492C-3.374,-1.599 -3.349,-1.806 -3.297,-2.115C-3.246,-2.423 -3.22,-2.754 -3.22,-3.109L-3.22,-3.487C-3.22,-3.934 -3.225,-4.27 -3.234,-4.495C-3.682,-4.178 -4.088,-3.926 -4.452,-3.739L-4.578,-3.921C-2.87,-5.33 -1.778,-6.641 -1.302,-7.854L-0.322,-7.337C-0.173,-7.262 -0.098,-7.192 -0.098,-7.127C-0.098,-7.061 -0.178,-7.01 -0.336,-6.973C-0.495,-6.935 -0.628,-6.875 -0.735,-6.791C-0.843,-6.707 -0.98,-6.562 -1.148,-6.357L1.218,-6.357L1.75,-6.917L2.646,-6.104C2.72,-6.039 2.758,-5.978 2.758,-5.923C2.758,-5.867 2.692,-5.829 2.562,-5.81C2.17,-5.736 1.824,-5.605 1.526,-5.419L0.21,-4.564L2.436,-4.564L2.884,-5.251L3.808,-4.663C3.882,-4.616 3.92,-4.581 3.92,-4.557C3.92,-4.534 3.882,-4.495 3.808,-4.438L3.5,-4.201L3.5,-3.403C3.5,-3.141 3.516,-2.945 3.549,-2.814C3.582,-2.684 3.598,-2.586 3.598,-2.52C3.598,-2.315 3.474,-2.178 3.227,-2.108C2.979,-2.038 2.807,-2.003 2.709,-2.003C2.611,-2.003 2.562,-2.068 2.562,-2.199L-0.182,-2.199C-0.397,-1.928 -0.654,-1.667 -0.952,-1.415C-0.252,-0.967 0.266,-0.472 0.602,0.069C1.376,-0.416 2.123,-1.046 2.842,-1.821L3.542,-1.247C3.663,-1.144 3.724,-1.069 3.724,-1.022C3.724,-0.976 3.63,-0.943 3.444,-0.925C3.257,-0.906 3.019,-0.794 2.73,-0.589C2.44,-0.384 2.058,-0.178 1.582,0.027C1.937,0.858 2.375,1.504 2.898,1.966C3.42,2.428 4.097,2.753 4.928,2.94L4.928,3.15C4.676,3.177 4.459,3.249 4.277,3.366C4.095,3.483 3.985,3.592 3.948,3.695C3.911,3.798 3.869,3.849 3.822,3.849C3.71,3.849 3.334,3.567 2.695,3.002C2.055,2.438 1.554,1.502 1.19,0.195L0.77,0.377C0.947,0.825 1.036,1.395 1.036,2.085C1.036,2.776 0.957,3.363 0.798,3.849C0.639,4.334 0.385,4.687 0.035,4.906C-0.315,5.125 -0.556,5.235 -0.686,5.235C-0.761,5.235 -0.822,5.155 -0.868,4.997C-0.961,4.745 -1.12,4.549 -1.344,4.409C-1.568,4.27 -1.857,4.148 -2.212,4.045L-2.142,3.807C-1.601,3.909 -1.186,3.961 -0.896,3.961C-0.607,3.961 -0.38,3.912 -0.217,3.815C-0.054,3.716 0.061,3.427 0.126,2.946C0.191,2.466 0.224,2.092 0.224,1.826C0.224,1.561 0.21,1.329 0.182,1.133C-0.798,2.225 -2.371,3.177 -4.536,3.989L-4.648,3.765C-2.399,2.599 -0.854,1.488 -0.014,0.433C-0.126,0.237 -0.252,0.036 -0.392,-0.169C-1.064,0.624 -2.375,1.427 -4.326,2.239L-4.438,2.043C-2.469,0.904 -1.246,0.018 -0.77,-0.617C-0.938,-0.804 -1.111,-0.976 -1.288,-1.135C-2.109,-0.5 -3.15,0.046 -4.41,0.503L-4.508,0.321C-3.015,-0.379 -1.867,-1.219 -1.064,-2.199M-6.188,-3.179C-6.776,-2.273 -7.383,-1.471 -8.008,-0.77L-8.218,-0.911C-6.771,-3.011 -5.759,-5.288 -5.18,-7.743L-4.074,-7.043C-3.943,-6.968 -3.878,-6.903 -3.878,-6.847C-3.878,-6.791 -3.958,-6.732 -4.116,-6.672C-4.275,-6.611 -4.448,-6.376 -4.634,-5.965C-4.942,-5.283 -5.273,-4.653 -5.628,-4.075L-5.082,-3.879C-5.017,-3.85 -4.984,-3.811 -4.984,-3.76C-4.984,-3.709 -5.008,-3.655 -5.054,-3.598L-5.222,-3.431L-5.222,2.099C-5.222,3.004 -5.215,3.644 -5.201,4.017C-5.187,4.391 -5.18,4.596 -5.18,4.633C-5.18,4.866 -5.313,5.032 -5.579,5.13C-5.845,5.229 -6.03,5.277 -6.132,5.277C-6.235,5.277 -6.286,5.17 -6.286,4.955L-6.23,3.569C-6.202,2.925 -6.188,2.328 -6.188,1.777L-6.188,-3.179Z" style="fill:rgb(35,25,22);fill-rule:nonzero;"/>
            </g>
        </g>
        <g transform="matrix(8.33333,0,0,8.33333,0,0)">
            <g transform="matrix(1,0,0,1,220.508,956.158)">
                <path d="M0,1.822L0,5.349C0,5.62 0.061,5.779 0.182,5.826C0.303,5.872 0.709,5.895 1.4,5.895C2.585,5.895 3.29,5.861 3.514,5.791C3.738,5.72 3.901,5.497 4.004,5.119C4.106,4.741 4.228,3.931 4.368,2.689L4.648,2.689C4.62,3.072 4.606,3.413 4.606,3.712C4.606,4.795 4.769,5.425 5.096,5.601C5.208,5.658 5.264,5.739 5.264,5.846C5.264,5.954 5.157,6.108 4.942,6.308C4.727,6.509 4.382,6.642 3.906,6.708C3.43,6.773 2.7,6.805 1.715,6.805C0.73,6.805 0.082,6.785 -0.231,6.743C-0.544,6.701 -0.749,6.605 -0.847,6.456C-0.945,6.306 -0.994,6.045 -0.994,5.672L-0.994,2.508C-1.694,2.946 -2.562,3.385 -3.598,3.824L-3.696,3.599C-2.828,3.095 -1.927,2.466 -0.994,1.71L-0.994,-3.302C-0.994,-4.039 -1.018,-4.81 -1.064,-5.613L0.434,-4.87C0.611,-4.795 0.7,-4.721 0.7,-4.647C0.7,-4.572 0.611,-4.497 0.434,-4.422L0,-4.212L0,0.842C1.185,-0.222 2.324,-1.441 3.416,-2.813L4.312,-1.874C4.396,-1.79 4.438,-1.715 4.438,-1.651C4.438,-1.585 4.342,-1.552 4.151,-1.552C3.959,-1.552 3.761,-1.449 3.556,-1.244C2.063,0.156 0.877,1.177 0,1.822M-5.32,-0.517C-5.927,0.333 -6.72,1.206 -7.7,2.101L-7.924,1.92C-6.039,-0.311 -4.69,-2.817 -3.878,-5.598L-2.716,-4.842C-2.613,-4.758 -2.562,-4.693 -2.562,-4.647C-2.562,-4.6 -2.604,-4.56 -2.688,-4.528C-2.772,-4.494 -2.879,-4.402 -3.01,-4.247C-3.141,-4.093 -3.355,-3.745 -3.654,-3.204C-3.953,-2.663 -4.303,-2.075 -4.704,-1.441L-4.144,-1.202C-4.032,-1.156 -3.976,-1.107 -3.976,-1.055C-3.976,-1.004 -4.009,-0.95 -4.074,-0.895L-4.326,-0.685L-4.326,4.09C-4.326,5.032 -4.319,5.7 -4.305,6.092C-4.291,6.483 -4.284,6.694 -4.284,6.721C-4.284,6.965 -4.426,7.144 -4.711,7.26C-4.996,7.378 -5.187,7.435 -5.285,7.435C-5.383,7.435 -5.432,7.324 -5.432,7.099L-5.362,5.546C-5.334,4.827 -5.32,4.239 -5.32,3.782L-5.32,-0.517Z" style="fill:rgb(35,25,22);fill-rule:nonzero;"/>
            </g>
        </g>
        <g transform="matrix(8.33333,0,0,8.33333,0,0)">
            <g transform="matrix(0,-1,-1,0,123.67,953.649)">
                <path d="M-2.7,-2.701C-4.191,-2.701 -5.4,-1.492 -5.4,-0.001C-5.4,1.49 -4.191,2.7 -2.7,2.7C-1.21,2.7 -0.001,1.49 -0.001,-0.001C-0.001,-1.492 -1.21,-2.701 -2.7,-2.701" style="fill:rgb(62,57,56);fill-rule:nonzero;"/>
            </g>
        </g>
    </g>
</svg>
