<svg xmlns="http://www.w3.org/2000/svg" viewBox="0 0 133.52 26.38"><defs><style>.cls-1{fill:#3e3a39;}.cls-2{fill:#231815;}</style></defs><title>页面另外</title><g id="情感性格"><circle class="cls-1" cx="6.73" cy="13.81" r="2.7"/><path class="cls-2" d="M20.85,11.39a9,9,0,0,1,.28,1.7,1.81,1.81,0,0,1-.22.87.73.73,0,0,1-.69.4.46.46,0,0,1-.36-.14.55.55,0,0,1-.12-.37.63.63,0,0,1,.21-.44,2.26,2.26,0,0,0,.57-.91,4.69,4.69,0,0,0,.13-1.11Zm2-.18v6.73c0,.81,0,1.38,0,1.73s0,.55,0,.58-.15.35-.45.5a1.79,1.79,0,0,1-.55.23c-.07,0-.1-.06-.1-.17s0-.24,0-.37c.07-.69.11-1.63.11-2.8V10.16c0-.73,0-1.48-.07-2.25l1.29.63c.12,0,.18.09.18.14s-.06.13-.19.22l-.28.2V11a4.25,4.25,0,0,1,1.35.44c.31.17.47.37.47.6a1.16,1.16,0,0,1-.14.58c-.09.15-.18.23-.29.23a.45.45,0,0,1-.3-.13.82.82,0,0,1-.18-.29A2.19,2.19,0,0,0,22.87,11.21Zm5.62,1.92h2.58l.78-.94.91,1a.27.27,0,0,1,.1.19c0,.05-.06.07-.19.07H25.08a2.35,2.35,0,0,0-.95.16l-.51-.59a8.61,8.61,0,0,0,1.18.07h2.71V11.92H26.35a2.58,2.58,0,0,0-1,.16l-.5-.59a8.31,8.31,0,0,0,1.16.07h1.45V10.23H25.67a3,3,0,0,0-1,.14l-.49-.59a8.36,8.36,0,0,0,1.17.07h2.12c0-.88,0-1.54,0-2l1.25.51q.24.09.24.18s-.07.09-.2.19l-.27.2v.88h2.16L31.41,9l.84,1a.42.42,0,0,1,.11.21c0,.06-.07.08-.2.08H28.49v1.33H30l.71-.83.8.91a.52.52,0,0,1,.11.21c0,.05-.07.07-.2.07H28.49Zm-2.31,4.7v2.48a.43.43,0,0,1-.07.28,1.1,1.1,0,0,1-.38.24,1.29,1.29,0,0,1-.44.15c-.09,0-.13-.08-.13-.24l0-.82c0-.36,0-.86,0-1.53V15.47c0-.48,0-1,0-1.47l.87.58h3.76l.51-.61.92.74c.1.07.16.13.16.18s-.07.13-.19.23l-.26.19v4.16a1.61,1.61,0,0,1-.12.72,1.4,1.4,0,0,1-.51.48,1.44,1.44,0,0,1-.52.24c-.08,0-.15-.1-.24-.31a1.15,1.15,0,0,0-.41-.52,3.37,3.37,0,0,0-1-.39l.08-.26c.56.05,1,.08,1.21.08a1,1,0,0,0,.48-.08.34.34,0,0,0,.1-.28V17.83Zm0-2.87v1H30V15Zm0,1.42v1.07H30V16.38Z"/><path class="cls-2" d="M45,14.35a5,5,0,0,0,1.06,1,1.83,1.83,0,0,0,.7.33.27.27,0,0,0,.25-.12,6.48,6.48,0,0,0,.24-.79c.12-.44.2-.82.26-1.12l.21,0a13.25,13.25,0,0,0-.1,1.38,2.53,2.53,0,0,0,.09.74,4.63,4.63,0,0,0,.33.74.89.89,0,0,1,.11.43c0,.14-.11.21-.34.21a4.43,4.43,0,0,1-1.49-.65A5.47,5.47,0,0,1,44.52,15a6.88,6.88,0,0,1-2.85,1.78l-.09-.2a8.53,8.53,0,0,0,2.55-2.14,10.06,10.06,0,0,1-1.13-4H38v1.75a6.78,6.78,0,0,1-.56,2.89,6.45,6.45,0,0,1-1.73,2.23l-.17-.15a7.07,7.07,0,0,0,1.51-4.31V10.62c0-.46,0-.94-.05-1.44l1.19.88H43c-.09-.81-.14-1.5-.16-2.07L44,8.44c.11.05.16.09.16.13s0,.1-.14.16l-.18.13a11.79,11.79,0,0,0,.05,1.2h2.33l.81-1,.84,1a.55.55,0,0,1,.11.25q0,.09-.21.09H43.88a10.14,10.14,0,0,0,.73,3.22,16,16,0,0,0,1.2-2.84l.83.59c.08.06.12.12.12.17s0,.1-.12.13a1,1,0,0,0-.29.31,5.93,5.93,0,0,0-.34.56A13.11,13.11,0,0,1,45,14.35ZM37.8,17.06a12.57,12.57,0,0,1,.06,1.29,3.19,3.19,0,0,1-.28,1.34.93.93,0,0,1-.88.62.64.64,0,0,1-.44-.13.46.46,0,0,1-.16-.38.47.47,0,0,1,.26-.41,2.33,2.33,0,0,0,.62-.82,5.58,5.58,0,0,0,.56-1.51Zm5-5.26a.71.71,0,0,1,.14.19s-.07.07-.21.07H39.47a2.35,2.35,0,0,0-.9.14l-.49-.57a6.63,6.63,0,0,0,1.12.08h2.27l.6-.75Zm-3.23,1.31H41.6l.36-.47.88.57c.09,0,.13.09.13.13s0,.07-.11.11l-.34.21v1l.06.8a.29.29,0,0,1-.16.3,2.81,2.81,0,0,1-.37.15,1.15,1.15,0,0,1-.31.08c-.07,0-.1-.06-.1-.17v-.42H39.51v.14a.71.71,0,0,1-.06.34.8.8,0,0,1-.34.2,1.43,1.43,0,0,1-.43.09c-.11,0-.16,0-.16-.14a2.56,2.56,0,0,1,.06-.44,5.07,5.07,0,0,0,.06-.92v-1c0-.28,0-.67,0-1.17Zm5.18,4.48c0,.22,0,.46,0,.74a1.59,1.59,0,0,0,.1.64.92.92,0,0,0,.41.39.27.27,0,0,1,.13.23c0,.09-.12.24-.35.47a2.14,2.14,0,0,1-1.32.39c-.64,0-1.33.06-2.08.06a12.15,12.15,0,0,1-1.6-.07,1,1,0,0,1-.68-.29,1.15,1.15,0,0,1-.19-.72V18.15a12.41,12.41,0,0,0-.07-1.34l1.17.46c.1,0,.15.08.15.11s0,.09-.1.16l-.25.19V19.2c0,.2.06.32.17.36a11,11,0,0,0,1.68.06,10.41,10.41,0,0,0,2-.11c.25-.08.43-.73.56-1.93ZM41.64,15V13.52H39.51V15Zm-.77,1.46q2,.78,2,1.59a.78.78,0,0,1-.19.53.55.55,0,0,1-.4.24.35.35,0,0,1-.28-.09,1.08,1.08,0,0,1-.16-.38,3.86,3.86,0,0,0-1.18-1.73Zm3.42-8.31a8.4,8.4,0,0,1,1.2.44c.32.15.48.3.48.46a1.06,1.06,0,0,1-.17.52.46.46,0,0,1-.38.28c-.09,0-.2-.12-.32-.37a5.46,5.46,0,0,0-.91-1.16ZM44.94,17c1.92.79,2.87,1.44,2.87,2a1.47,1.47,0,0,1-.17.53q-.18.36-.33.36a.44.44,0,0,1-.29-.12.86.86,0,0,1-.23-.3,6.66,6.66,0,0,0-2-2.24Z"/><path class="cls-2" d="M51.82,11.25a10.69,10.69,0,0,1,.11,1.35A2.27,2.27,0,0,1,51.61,14a.88.88,0,0,1-.67.41.44.44,0,0,1-.3-.12.43.43,0,0,1-.14-.32.81.81,0,0,1,.27-.49,3.13,3.13,0,0,0,.49-.89,5.35,5.35,0,0,0,.33-1.28Zm1.71-.08v6.35c0,.94,0,1.6,0,2s0,.61,0,.64-.15.34-.45.51a1.86,1.86,0,0,1-.57.24c-.09,0-.13-.06-.13-.18s0-.25,0-.38a29.93,29.93,0,0,0,.12-3.13V10.1q0-1.14-.06-2.31l1.43.61c.11,0,.17.08.17.14s-.06.11-.17.18l-.39.21v2a5.16,5.16,0,0,1,1.15.48.71.71,0,0,1,.41.6,1.13,1.13,0,0,1-.12.56c-.07.14-.16.21-.26.21a.27.27,0,0,1-.22-.09,1.58,1.58,0,0,1-.17-.33A3.54,3.54,0,0,0,53.53,11.17Zm3,1.17a15.48,15.48,0,0,1-1.66,3.21l-.24-.1a23,23,0,0,0,1.85-6.31l1,.4c.17.08.25.15.25.22s-.06.14-.18.21a2,2,0,0,0-.46.88c-.19.52-.32.89-.39,1.12h1.8V10.15c0-.8,0-1.57,0-2.31L60,8.56c.11,0,.17.1.17.15s-.06.11-.17.18l-.39.22V12h1.83l.76-.91L63,12.12c.08.08.11.13.11.17s0,.05-.16.05H59.56v3.17h1.29l.77-.9.91,1.09a.35.35,0,0,1,.07.14s-.06.06-.18.06H59.56v3.78h2.32l.82-1,.93,1.11a.33.33,0,0,1,.09.18c0,.05-.07.07-.2.07H55.64a2.32,2.32,0,0,0-1,.16l-.51-.63a8.27,8.27,0,0,0,1.17.08h3.13V15.9H57.33a2.76,2.76,0,0,0-.95.14l-.5-.62a6.75,6.75,0,0,0,1.16.09h1.44V12.34Z"/><path class="cls-2" d="M69.22,13.31a6.15,6.15,0,0,1,1.36.58.72.72,0,0,1,.35.58,1.16,1.16,0,0,1-.14.58.35.35,0,0,1-.32.23c-.12,0-.22-.12-.28-.37a3.33,3.33,0,0,0-1-1.25v3.95c0,.85,0,1.5,0,1.95s0,.69,0,.72a.62.62,0,0,1-.37.51,1.26,1.26,0,0,1-.52.22c-.11,0-.16-.13-.16-.38l.09-1.36c0-.6,0-1.26,0-2v-3.7a14.06,14.06,0,0,1-2.4,3.92l-.21-.11a22.91,22.91,0,0,0,2.4-5.81H67.3a2.45,2.45,0,0,0-1,.15l-.5-.6a8.31,8.31,0,0,0,1.16.07h1.33V9.73c0-.75,0-1.35-.06-1.81l1.43.6c.11,0,.17.09.17.16s-.06.12-.17.16l-.49.22v2.15h.63l.69-.78.78,1a.29.29,0,0,1,.08.16s0,.05-.12.05H69.22Zm3.44-2.38a16,16,0,0,1-1.73,2.53l-.16-.16a22,22,0,0,0,1.34-2.76c.27-.71.56-1.58.88-2.62l1.13.39c.15,0,.22.1.22.14s-.09.11-.27.18A3.56,3.56,0,0,0,73.2,10h3l.53-.63.91.77a.27.27,0,0,1,.11.19c0,.07-.09.12-.27.17s-.41.25-.68.65a18.46,18.46,0,0,1-1.65,2.06,9.52,9.52,0,0,0,4.09,1.41l0,.14a2.42,2.42,0,0,0-.69.34,1.07,1.07,0,0,0-.32.48c0,.08-.08.12-.14.12a7.54,7.54,0,0,1-1.4-.62,8.59,8.59,0,0,1-2-1.36,12.35,12.35,0,0,1-2.5,1.81l.69.28h3.22l.43-.6.94.6c.08.05.11.09.11.12s0,.07-.09.13l-.3.27v1.61a9.41,9.41,0,0,0,.07,1.17l.11,1c0,.17-.13.31-.39.43a1.58,1.58,0,0,1-.55.18c-.11,0-.16-.07-.16-.23v-.91H72.68v.78a.37.37,0,0,1-.09.27,1.52,1.52,0,0,1-.38.23,1.12,1.12,0,0,1-.39.13c-.07,0-.11-.06-.11-.18l0-.67c0-.27,0-.64,0-1.11V16.89c0-.59,0-1,0-1.16-.54.29-1.17.6-1.89.91l-.08-.22a21.73,21.73,0,0,0,4.35-3.23A12,12,0,0,1,72.66,10.93Zm0,5.25v2.93h3.57V16.18Zm.26-5.75-.08.15a8.15,8.15,0,0,0,1.71,2.11,11.54,11.54,0,0,0,1.58-2.26Z"/><path class="cls-2" d="M85.52,9.14h4.85l.54-.74,1.16.78c.06,0,.1.08.1.12a.19.19,0,0,1-.1.13l-.46.34v7.08h.88l.91-1.1.92,1.1a.59.59,0,0,1,.16.28c0,.07-.08.1-.23.1H82.81a2.93,2.93,0,0,0-1,.14l-.52-.6a8.27,8.27,0,0,0,1.17.08h2V10.17c0-.6,0-1.17,0-1.7Zm1.41,9.1c.09.07.14.13.14.18s-.07.09-.21.13a1.76,1.76,0,0,0-.56.29A15.78,15.78,0,0,1,81.86,21l-.1-.21A14.81,14.81,0,0,0,86,17.47Zm3.71-7.14V9.52H85.52V11.1Zm0,1.94V11.48H85.52V13Zm0,2V13.42H85.52V15Zm0,1.85V15.38H85.52v1.47Zm-1.58.77a8.86,8.86,0,0,1,2.76.95q1,.6,1,1.14a1.49,1.49,0,0,1-.13.69c-.08.17-.18.26-.28.26a.34.34,0,0,1-.25-.08,1.53,1.53,0,0,1-.28-.31,9.77,9.77,0,0,0-3-2.44Z"/><path class="cls-2" d="M98.76,12.64a21,21,0,0,1-1.82,2.41l-.21-.14a20,20,0,0,0,3-6.84l1.1.7c.13.08.2.14.2.2s-.08.12-.24.18-.33.29-.52.7a16.74,16.74,0,0,1-1,1.89l.55.2a.14.14,0,0,1,.09.12.25.25,0,0,1-.07.16l-.16.17v5.53c0,.9,0,1.54,0,1.91s0,.58,0,.62a.53.53,0,0,1-.4.5,1.84,1.84,0,0,1-.55.14c-.11,0-.16-.1-.16-.32l.06-1.38c0-.65,0-1.25,0-1.8Zm5.12,1h-1.27v.18a.47.47,0,0,1-.11.36,1.59,1.59,0,0,1-.37.21,1.19,1.19,0,0,1-.42.12c-.09,0-.14-.06-.14-.16a5.19,5.19,0,0,1,.08-.63,6.2,6.2,0,0,0,.08-1v-.38c0-.45,0-.78,0-1a10,10,0,0,1-1.21.76l-.13-.18A10.6,10.6,0,0,0,103.65,8l1,.52c.14.08.22.15.22.21s-.08.12-.24.15a1,1,0,0,0-.4.19,2.92,2.92,0,0,0-.41.43h2.37l.53-.56.89.81q.12.1.12.18c0,.06-.07.1-.2.12a2.88,2.88,0,0,0-1,.39l-1.31.85h2.22l.45-.68.93.58c.07,0,.11.09.11.11s0,.06-.11.12l-.31.24v.79a2.2,2.2,0,0,0,0,.59,1.53,1.53,0,0,1,0,.3c0,.2-.13.34-.38.41a2.15,2.15,0,0,1-.51.1c-.1,0-.15-.06-.15-.19h-2.74a6.28,6.28,0,0,1-.77.78,4.94,4.94,0,0,1,1.55,1.49A11.66,11.66,0,0,0,107.79,14l.7.57c.12.1.18.18.18.22s-.09.08-.28.1a1.59,1.59,0,0,0-.71.34,6.3,6.3,0,0,1-1.15.61,5.11,5.11,0,0,0,1.32,1.94,4.39,4.39,0,0,0,2,1V19a1.51,1.51,0,0,0-.66.21.74.74,0,0,0-.32.33c0,.11-.08.16-.13.16a4.36,4.36,0,0,1-1.13-.85,5.66,5.66,0,0,1-1.5-2.81l-.42.18A4.88,4.88,0,0,1,106,17.9a6.08,6.08,0,0,1-.23,1.77,1.89,1.89,0,0,1-.77,1,1.81,1.81,0,0,1-.72.33q-.11,0-.18-.24a1.09,1.09,0,0,0-.48-.58,3.69,3.69,0,0,0-.86-.37l.07-.24a6.61,6.61,0,0,0,1.24.16,1.29,1.29,0,0,0,.68-.15c.16-.1.28-.39.34-.87a8.1,8.1,0,0,0,.1-1.12,4.75,4.75,0,0,0,0-.69,12,12,0,0,1-4.72,2.86l-.11-.23a14.39,14.39,0,0,0,4.63-3.33c-.11-.19-.23-.4-.37-.6a10.93,10.93,0,0,1-3.94,2.41l-.11-.2a13.79,13.79,0,0,0,3.67-2.66,6.38,6.38,0,0,0-.52-.52,11.4,11.4,0,0,1-3.12,1.64l-.1-.18A9.64,9.64,0,0,0,103.88,13.62Zm-.43-3.78A11.65,11.65,0,0,1,102,11.11l.31.14h2.47l1.35-1.41Zm-.84,3.4h1.51a16.39,16.39,0,0,0,.53-1.61h-2Zm2.34,0h2.56V11.63h-2C105.34,12.15,105.15,12.69,105,13.24Z"/><path class="cls-2" d="M114.58,12.92a17.36,17.36,0,0,1-2.38,2.62l-.22-.19a20.38,20.38,0,0,0,4-7.51l1.16.75c.11.09.16.15.16.2s0,.09-.13.12a.9.9,0,0,0-.32.28,6.83,6.83,0,0,0-.64,1c-.3.54-.65,1.13-1,1.76l.56.24c.11,0,.16.1.16.15a.24.24,0,0,1-.09.16l-.26.21v4.77c0,.95,0,1.61,0,2s0,.6,0,.63a.59.59,0,0,1-.43.54,2.18,2.18,0,0,1-.58.17c-.09,0-.14-.11-.14-.34l.07-1.55c0-.72,0-1.31,0-1.76Zm5.32,2.34v3.52c0,.28.06.43.18.48a5.32,5.32,0,0,0,1.22.07,11.44,11.44,0,0,0,2.11-.1c.23-.07.39-.3.49-.68a18.22,18.22,0,0,0,.37-2.43h.28c0,.39,0,.73,0,1,0,1.08.16,1.71.49,1.89a.25.25,0,0,1,.16.24c0,.11-.1.26-.32.46a1.82,1.82,0,0,1-1,.4,16.87,16.87,0,0,1-2.2.1,19.32,19.32,0,0,1-1.94-.06.84.84,0,0,1-.62-.29,1.5,1.5,0,0,1-.14-.78V15.94a18.5,18.5,0,0,1-2.61,1.32l-.1-.23a21,21,0,0,0,2.71-1.89v-5c0-.74,0-1.5-.07-2.31l1.49.74c.18.08.27.15.27.23s-.09.15-.27.22l-.43.21v5.06a31.8,31.8,0,0,0,3.42-3.66l.89.94a.33.33,0,0,1,.13.22c0,.07-.1.1-.29.1a.88.88,0,0,0-.59.31A44.14,44.14,0,0,1,119.9,15.26Z"/></g></svg>