<?xml version="1.0" encoding="UTF-8" standalone="no"?>
<!DOCTYPE svg PUBLIC "-//W3C//DTD SVG 1.1//EN" "http://www.w3.org/Graphics/SVG/1.1/DTD/svg11.dtd">
<svg width="100%" height="100%" viewBox="0 0 658 70" version="1.1" xmlns="http://www.w3.org/2000/svg" xmlns:xlink="http://www.w3.org/1999/xlink" xml:space="preserve" xmlns:serif="http://www.serif.com/" style="fill-rule:evenodd;clip-rule:evenodd;stroke-linejoin:round;stroke-miterlimit:2;">
    <g transform="matrix(1,0,0,1,-4162.63,-620.905)">
        <g transform="matrix(8.33333,0,0,8.33333,0,0)">
            <g transform="matrix(1,0,0,1,504.789,81.8558)">
                <path d="M0,-6.152L0,-5.273L-1.758,-5.273L-1.758,-4.394L-2.637,-4.394L-2.637,-3.515L-3.516,-3.515L-3.516,-2.636L-2.637,-2.636L-2.637,-1.757L-1.758,-1.757L-1.758,-0.879L0,-0.879L0,0L-2.637,0L-2.637,-0.879L-3.516,-0.879L-3.516,-1.757L-4.395,-1.757L-4.395,-2.636L-5.273,-2.636L-5.273,-3.515L-4.395,-3.515L-4.395,-4.394L-3.516,-4.394L-3.516,-5.273L-2.637,-5.273L-2.637,-6.152L0,-6.152Z" style="fill:rgb(76,124,119);fill-rule:nonzero;"/>
            </g>
        </g>
        <g transform="matrix(8.33333,0,0,8.33333,0,0)">
            <g transform="matrix(1,0,0,1,513.677,78.5397)">
                <path d="M0,0.293C0,0.363 -0.047,0.446 -0.141,0.539C-0.187,0.539 -0.246,0.563 -0.316,0.609C-0.246,1.945 -0.211,2.684 -0.211,2.824C-0.211,3.434 -0.352,3.856 -0.633,4.09C-0.797,4.231 -0.937,4.289 -1.055,4.266C-1.125,4.266 -1.172,4.218 -1.195,4.125C-1.266,4.055 -1.301,3.984 -1.301,3.914C-1.395,3.726 -1.512,3.574 -1.652,3.457C-1.863,3.27 -1.969,3.164 -1.969,3.141C-1.969,3.094 -1.875,3.094 -1.687,3.141C-1.406,3.164 -1.242,3.164 -1.195,3.141C-1.125,3.141 -1.09,3.07 -1.09,2.93C-1.066,2.555 -1.09,1.699 -1.16,0.363C-1.324,0.363 -1.852,0.398 -2.742,0.469L-2.742,1.102C-2.695,1.102 -2.625,1.09 -2.531,1.066L-2.355,1.066C-2.238,1.066 -2.027,1.031 -1.723,0.961C-1.934,1.008 -1.898,0.996 -1.617,0.926C-1.594,0.949 -1.559,0.996 -1.512,1.066C-1.441,1.137 -1.406,1.184 -1.406,1.207C-1.406,1.277 -1.488,1.313 -1.652,1.313L-1.969,1.313C-2.039,1.313 -2.121,1.325 -2.215,1.348L-2.777,1.348L-2.777,2.016C-2.59,1.993 -2.426,1.98 -2.285,1.98C-2.191,1.98 -1.992,1.945 -1.687,1.875C-1.641,1.852 -1.605,1.84 -1.582,1.84C-1.441,1.98 -1.371,2.074 -1.371,2.121C-1.371,2.145 -1.453,2.18 -1.617,2.227L-2.285,2.227C-2.402,2.25 -2.566,2.262 -2.777,2.262L-2.777,3.035C-2.801,3.41 -2.836,3.645 -2.883,3.738C-2.977,3.926 -3.176,4.055 -3.48,4.125C-3.551,4.172 -3.609,4.172 -3.656,4.125C-3.703,4.125 -3.727,4.078 -3.727,3.984C-3.727,3.961 -3.715,3.891 -3.691,3.773C-3.574,3.023 -3.516,2.098 -3.516,0.996L-3.516,0.434C-3.539,0.106 -3.551,-0.141 -3.551,-0.305C-3.527,-0.305 -3.469,-0.281 -3.375,-0.234C-3.234,-0.164 -3.105,-0.105 -2.988,-0.059C-2.801,0.035 -2.672,0.106 -2.602,0.152L-1.16,0.082C-1.137,0.059 -1.09,0 -1.02,-0.094C-0.949,-0.211 -0.891,-0.292 -0.844,-0.34C-0.703,-0.269 -0.539,-0.176 -0.352,-0.059C-0.328,-0.035 -0.305,-0.011 -0.281,0.012C-0.094,0.129 0,0.223 0,0.293M1.02,-0.656C1.02,-0.586 0.902,-0.551 0.668,-0.551L-0.211,-0.551C-1.57,-0.48 -2.578,-0.422 -3.234,-0.375C-3.445,-0.352 -3.773,-0.316 -4.219,-0.269L-4.395,-0.621C-4.137,-0.621 -3.691,-0.633 -3.059,-0.656L-2.32,-0.691L-2.32,-1.359C-2.555,-1.359 -2.906,-1.324 -3.375,-1.254L-3.551,-1.605C-3.129,-1.605 -2.707,-1.617 -2.285,-1.641L-2.285,-2.273C-2.402,-2.273 -2.637,-2.261 -2.988,-2.238C-3.316,-2.191 -3.574,-2.168 -3.762,-2.168L-3.973,-2.484C-3.574,-2.484 -3.234,-2.496 -2.953,-2.52C-2.742,-2.52 -2.52,-2.531 -2.285,-2.555C-2.309,-2.578 -2.32,-2.812 -2.32,-3.258C-2.344,-3.562 -2.355,-3.808 -2.355,-3.996C-2.168,-3.926 -1.922,-3.843 -1.617,-3.75C-1.477,-3.68 -1.383,-3.632 -1.336,-3.609C-1.266,-3.586 -1.23,-3.551 -1.23,-3.504C-1.23,-3.41 -1.312,-3.316 -1.477,-3.223L-1.477,-2.59L-0.773,-2.625L-0.387,-3.223C-0.176,-3.082 0.023,-2.941 0.211,-2.801C0.398,-2.66 0.48,-2.542 0.457,-2.449C0.457,-2.402 0.352,-2.379 0.141,-2.379L-1.055,-2.379C-1.242,-2.355 -1.383,-2.344 -1.477,-2.344L-1.477,-1.676C-1.359,-1.699 -1.242,-1.711 -1.125,-1.711L-0.773,-2.203C-0.75,-2.18 -0.727,-2.156 -0.703,-2.133C-0.586,-2.085 -0.422,-1.957 -0.211,-1.746C-0.07,-1.676 -0.012,-1.605 -0.035,-1.535C-0.035,-1.488 -0.094,-1.465 -0.211,-1.465C-0.258,-1.441 -0.293,-1.43 -0.316,-1.43L-1.477,-1.43L-1.477,-0.762L-0.316,-0.797L0.141,-1.465C0.164,-1.441 0.199,-1.417 0.246,-1.394L0.773,-0.973C0.937,-0.832 1.02,-0.727 1.02,-0.656M-3.867,-1.43C-3.867,-1.289 -3.891,-1.184 -3.938,-1.113C-4.008,-0.973 -4.125,-0.902 -4.289,-0.902C-4.453,-0.902 -4.559,-0.984 -4.605,-1.148L-4.605,-1.676C-4.605,-1.839 -4.629,-1.957 -4.676,-2.027C-4.723,-2.168 -4.746,-2.25 -4.746,-2.273C-4.676,-2.32 -4.547,-2.273 -4.359,-2.133C-4.031,-1.922 -3.867,-1.687 -3.867,-1.43M-4.605,-3.012C-4.582,-2.941 -4.676,-2.824 -4.887,-2.66L-4.887,0.363C-4.887,0.715 -4.875,1.102 -4.852,1.523L-4.852,1.77C-4.852,2.285 -4.84,2.707 -4.816,3.035C-4.816,3.246 -4.898,3.445 -5.062,3.633C-5.156,3.726 -5.262,3.809 -5.379,3.879C-5.496,3.949 -5.59,3.972 -5.66,3.949C-5.73,3.949 -5.766,3.891 -5.766,3.773C-5.766,3.75 -5.754,3.645 -5.73,3.457L-5.73,2.648C-5.684,1.172 -5.66,0 -5.66,-0.867C-5.66,-1.781 -5.672,-2.367 -5.695,-2.625C-5.719,-3.023 -5.754,-3.351 -5.801,-3.609C-5.707,-3.586 -5.52,-3.516 -5.238,-3.398C-5.145,-3.351 -5.062,-3.316 -4.992,-3.293C-4.734,-3.223 -4.605,-3.129 -4.605,-3.012M-5.941,-1.219C-5.941,-0.844 -5.988,-0.492 -6.082,-0.164C-6.176,0.047 -6.305,0.152 -6.469,0.152C-6.562,0.152 -6.668,0.094 -6.785,-0.023C-6.855,-0.164 -6.891,-0.305 -6.891,-0.445C-6.891,-0.562 -6.855,-0.668 -6.785,-0.762C-6.715,-0.879 -6.645,-0.973 -6.574,-1.043C-6.504,-1.136 -6.41,-1.324 -6.293,-1.605L-6.223,-1.781C-6.223,-1.852 -6.199,-1.887 -6.152,-1.887C-6.035,-1.887 -5.965,-1.664 -5.941,-1.219" style="fill:rgb(76,124,119);fill-rule:nonzero;"/>
            </g>
        </g>
        <g transform="matrix(8.33333,0,0,8.33333,0,0)">
            <g transform="matrix(1,0,0,1,523.514,75.7036)">
                <path d="M0,5.59C0,5.731 -0.047,5.86 -0.141,5.977C-0.234,6.047 -0.352,6.094 -0.492,6.117C-0.633,6.117 -0.75,6.059 -0.844,5.942C-0.867,5.895 -0.902,5.836 -0.949,5.766C-0.996,5.673 -1.031,5.613 -1.055,5.59C-1.195,5.379 -1.348,5.203 -1.512,5.063C-1.535,5.04 -1.559,5.016 -1.582,4.992C-1.629,4.969 -1.664,4.957 -1.687,4.957C-1.734,4.91 -1.758,4.875 -1.758,4.852C-1.758,4.781 -1.652,4.758 -1.441,4.781C-0.902,4.781 -0.492,4.899 -0.211,5.133C-0.07,5.274 0,5.426 0,5.59M-0.879,-0.597C-0.879,-0.504 -0.914,-0.398 -0.984,-0.281C-1.078,-0.187 -1.184,-0.14 -1.301,-0.14C-1.441,-0.14 -1.547,-0.199 -1.617,-0.316C-1.641,-0.363 -1.676,-0.445 -1.723,-0.562C-1.77,-0.656 -1.805,-0.738 -1.828,-0.808C-1.805,-0.808 -1.898,-0.89 -2.109,-1.055C-2.133,-1.101 -2.145,-1.137 -2.145,-1.16C-2.145,-1.183 -2.074,-1.195 -1.934,-1.195C-1.652,-1.195 -1.406,-1.137 -1.195,-1.019C-1.008,-0.926 -0.902,-0.785 -0.879,-0.597M-2.602,5.063C-2.602,5.18 -2.648,5.286 -2.742,5.379C-2.813,5.449 -2.906,5.485 -3.023,5.485C-3.258,5.508 -3.398,5.426 -3.445,5.238C-3.469,5.168 -3.527,5.04 -3.621,4.852C-3.574,4.969 -3.598,4.91 -3.691,4.676C-3.668,4.676 -3.727,4.606 -3.867,4.465L-3.973,4.324C-3.926,4.278 -3.855,4.266 -3.762,4.289C-3.691,4.289 -3.609,4.301 -3.516,4.324C-3.281,4.395 -3.082,4.477 -2.918,4.57C-2.707,4.711 -2.602,4.875 -2.602,5.063M-3.867,2.637C-3.938,2.66 -4.078,2.672 -4.289,2.672C-4.453,2.695 -4.582,2.707 -4.676,2.707C-4.676,2.871 -4.664,3.129 -4.641,3.481L-3.938,3.445C-3.914,3.375 -3.902,3.235 -3.902,3.024C-3.879,2.86 -3.867,2.731 -3.867,2.637M-1.477,6.152C-1.477,6.293 -1.582,6.41 -1.793,6.504C-2.051,6.645 -2.496,6.738 -3.129,6.785L-3.621,6.785C-3.762,6.785 -3.949,6.773 -4.184,6.75L-4.5,6.75C-4.523,6.75 -4.559,6.738 -4.605,6.715C-4.84,6.668 -4.969,6.61 -4.992,6.539C-5.039,6.469 -5.062,6.246 -5.062,5.871L-5.062,4.992C-5.086,4.805 -5.098,4.641 -5.098,4.5C-5.074,4.5 -5.039,4.512 -4.992,4.535C-4.922,4.535 -4.746,4.583 -4.465,4.676C-4.277,4.746 -4.172,4.817 -4.148,4.887C-4.148,4.91 -4.219,4.981 -4.359,5.098L-4.359,5.801C-4.359,5.895 -4.348,5.965 -4.324,6.012C-4.277,6.059 -4.207,6.082 -4.113,6.082L-3.973,6.082C-3.855,6.106 -3.75,6.117 -3.656,6.117C-3.328,6.117 -3.023,6.07 -2.742,5.977C-2.461,5.906 -2.227,5.602 -2.039,5.063C-1.992,4.945 -1.957,4.887 -1.934,4.887C-1.91,4.887 -1.875,4.992 -1.828,5.203C-1.805,5.274 -1.793,5.321 -1.793,5.344C-1.77,5.578 -1.723,5.766 -1.652,5.906L-1.547,6.012C-1.5,6.082 -1.477,6.13 -1.477,6.152M-2.883,1.652C-2.883,1.723 -2.953,1.758 -3.094,1.758L-3.762,1.758L-4.641,1.793C-4.687,1.817 -4.77,1.828 -4.887,1.828C-5.004,1.852 -5.098,1.863 -5.168,1.863C-5.215,1.817 -5.273,1.723 -5.344,1.582C-5.18,1.582 -4.957,1.57 -4.676,1.547C-4.395,1.547 -4.16,1.535 -3.973,1.512C-3.902,1.442 -3.785,1.278 -3.621,1.02C-3.527,1.067 -3.422,1.149 -3.305,1.266C-3.188,1.336 -3.117,1.383 -3.094,1.406C-2.906,1.5 -2.836,1.582 -2.883,1.652M-2.883,2.672C-2.883,2.742 -2.965,2.825 -3.129,2.918L-3.164,3.375C-3.023,3.493 -2.965,3.574 -2.988,3.621C-2.988,3.669 -3.094,3.692 -3.305,3.692L-3.902,3.692C-3.949,3.715 -4.066,3.727 -4.254,3.727C-4.418,3.75 -4.547,3.762 -4.641,3.762C-4.617,3.856 -4.652,3.973 -4.746,4.113C-4.816,4.184 -4.898,4.254 -4.992,4.324C-5.086,4.372 -5.168,4.395 -5.238,4.395C-5.285,4.348 -5.309,4.278 -5.309,4.184L-5.309,4.043C-5.285,3.973 -5.273,3.915 -5.273,3.867L-5.273,3.797C-5.297,3.469 -5.309,3.117 -5.309,2.742C-5.332,2.695 -5.344,2.579 -5.344,2.391C-5.367,2.274 -5.379,2.168 -5.379,2.074C-5.355,2.074 -5.309,2.098 -5.238,2.145C-5.121,2.192 -5.016,2.227 -4.922,2.25C-4.805,2.298 -4.699,2.356 -4.605,2.426C-4.488,2.426 -4.324,2.414 -4.113,2.391L-3.867,2.391L-3.586,2.039C-3.563,2.063 -3.516,2.098 -3.445,2.145C-3.375,2.168 -3.27,2.25 -3.129,2.391C-3.012,2.461 -2.953,2.508 -2.953,2.531C-2.906,2.555 -2.883,2.602 -2.883,2.672M-5.766,5.309C-5.695,5.637 -5.719,5.93 -5.836,6.188C-5.977,6.516 -6.187,6.68 -6.469,6.68C-6.609,6.68 -6.715,6.632 -6.785,6.539C-6.879,6.445 -6.926,6.328 -6.926,6.188C-6.926,6.047 -6.879,5.942 -6.785,5.871C-6.762,5.848 -6.68,5.766 -6.539,5.625C-6.328,5.462 -6.164,5.238 -6.047,4.957C-6,4.84 -5.965,4.781 -5.941,4.781C-5.871,4.781 -5.812,4.957 -5.766,5.309M0.738,2.356C0.785,2.356 0.773,2.449 0.703,2.637C0.609,2.848 0.539,3.012 0.492,3.129C0.422,3.34 0.387,3.528 0.387,3.692C0.387,3.762 0.41,3.867 0.457,4.008C0.457,4.031 0.469,4.055 0.492,4.078C0.516,4.126 0.527,4.184 0.527,4.254C0.504,4.395 0.422,4.5 0.281,4.57L0.105,4.57C-0.199,4.57 -0.539,4.453 -0.914,4.219C-1.312,3.985 -1.641,3.692 -1.898,3.34C-2.039,3.434 -2.156,3.539 -2.25,3.656C-2.297,3.704 -2.379,3.762 -2.496,3.832C-2.613,3.926 -2.789,4.055 -3.023,4.219C-3.141,4.289 -3.211,4.301 -3.234,4.254C-3.258,4.207 -3.223,4.149 -3.129,4.078C-2.848,3.797 -2.637,3.574 -2.496,3.41C-2.426,3.27 -2.32,3.117 -2.18,2.953C-2.578,2.344 -2.836,1.606 -2.953,0.738C-3.68,0.762 -3.75,0.762 -3.164,0.738C-3.75,0.762 -4.5,0.809 -5.414,0.879C-5.414,1.043 -5.426,1.254 -5.449,1.512L-5.449,1.828C-5.59,3.305 -6.223,4.348 -7.348,4.957C-7.465,5.028 -7.547,5.04 -7.594,4.992C-7.617,4.945 -7.582,4.875 -7.488,4.781C-6.902,4.266 -6.504,3.61 -6.293,2.813C-6.223,2.485 -6.187,2.004 -6.187,1.371C-6.187,0.786 -6.199,0.387 -6.223,0.176C-6.035,0.246 -5.871,0.305 -5.73,0.352C-5.496,0.445 -5.332,0.528 -5.238,0.598L-2.988,0.492L-2.988,0.176C-3.012,0.012 -3.023,-0.117 -3.023,-0.211C-3.047,-0.351 -3.082,-0.656 -3.129,-1.125C-2.988,-1.101 -2.754,-1.019 -2.426,-0.879C-2.191,-0.808 -2.074,-0.738 -2.074,-0.668C-2.051,-0.574 -2.133,-0.492 -2.32,-0.422C-2.32,-0.304 -2.309,-0.152 -2.285,0.035L-2.285,0.457L-1.406,0.387L-0.949,-0.211C-0.598,0 -0.363,0.164 -0.246,0.281C-0.059,0.399 0.012,0.492 -0.035,0.563C-0.059,0.61 -0.117,0.633 -0.211,0.633C-0.234,0.656 -0.258,0.668 -0.281,0.668C-1.031,0.668 -1.687,0.68 -2.25,0.703C-2.18,1.289 -2.016,1.805 -1.758,2.25C-1.711,2.18 -1.629,2.016 -1.512,1.758C-1.465,1.641 -1.43,1.547 -1.406,1.477C-1.359,1.43 -1.301,1.278 -1.23,1.02C-1.207,0.973 -1.184,0.926 -1.16,0.879C-1.137,0.903 -1.078,0.949 -0.984,1.02C-0.82,1.16 -0.691,1.278 -0.598,1.371C-0.574,1.395 -0.551,1.419 -0.527,1.442C-0.457,1.512 -0.422,1.582 -0.422,1.652C-0.422,1.746 -0.539,1.817 -0.773,1.863L-1.406,2.813C-1.242,2.977 -1.02,3.152 -0.738,3.34C-0.621,3.434 -0.516,3.481 -0.422,3.481C-0.398,3.458 -0.352,3.423 -0.281,3.375C-0.234,3.328 -0.187,3.293 -0.141,3.27C-0.117,3.247 -0.07,3.188 0,3.094C0.094,3.001 0.176,2.918 0.246,2.848C0.293,2.755 0.387,2.637 0.527,2.496C0.645,2.356 0.715,2.309 0.738,2.356" style="fill:rgb(76,124,119);fill-rule:nonzero;"/>
            </g>
        </g>
        <g transform="matrix(8.33333,0,0,8.33333,0,0)">
            <g transform="matrix(1,0,0,1,533.737,75.5746)">
                <path d="M0,6.176C0,6.246 -0.129,6.281 -0.387,6.281L-1.406,6.281C-1.5,6.281 -1.665,6.293 -1.898,6.317C-2.414,6.317 -3.247,6.352 -4.395,6.422C-4.746,6.469 -5.098,6.504 -5.449,6.528L-5.625,6.141C-5.181,6.164 -4.816,6.164 -4.535,6.141L-4.113,6.141C-3.81,6.118 -3.563,6.106 -3.375,6.106L-3.375,4.067L-3.973,4.067C-4.184,4.09 -4.43,4.125 -4.711,4.172L-4.887,3.821C-4.699,3.821 -4.442,3.809 -4.113,3.785L-3.375,3.785L-3.375,2.168L-4.289,2.238L-4.289,2.274C-4.523,2.789 -4.781,3.211 -5.062,3.539C-5.133,3.703 -5.216,3.774 -5.309,3.75C-5.356,3.703 -5.344,3.598 -5.273,3.434L-4.957,2.485C-4.935,2.344 -4.875,2.075 -4.781,1.676C-4.759,1.512 -4.734,1.383 -4.711,1.289C-4.711,1.219 -4.699,1.091 -4.676,0.903C-4.629,0.645 -4.594,0.434 -4.57,0.27C-4.548,0.293 -4.488,0.328 -4.395,0.375C-4.207,0.493 -4.043,0.598 -3.902,0.692C-3.739,0.832 -3.656,0.938 -3.656,1.008C-3.634,1.102 -3.727,1.172 -3.938,1.219C-3.961,1.383 -4.043,1.618 -4.184,1.922L-3.375,1.887L-3.375,0.375C-3.398,0.305 -3.41,0.117 -3.41,-0.187C-3.434,-0.421 -3.445,-0.609 -3.445,-0.75C-3.353,-0.702 -3.142,-0.632 -2.813,-0.539C-3.071,-0.609 -3.023,-0.597 -2.672,-0.504C-2.391,-0.386 -2.25,-0.293 -2.25,-0.222C-2.228,-0.105 -2.32,0.012 -2.531,0.129L-2.566,1.852L-1.652,1.817C-1.63,1.746 -1.547,1.606 -1.406,1.395C-1.336,1.301 -1.289,1.231 -1.266,1.184C-1.219,1.207 -1.125,1.266 -0.984,1.36C-0.844,1.477 -0.727,1.559 -0.633,1.606C-0.445,1.77 -0.352,1.887 -0.352,1.957C-0.375,2.028 -0.48,2.063 -0.668,2.063L-0.984,2.063C-1.243,2.086 -1.465,2.098 -1.652,2.098L-2.566,2.133L-2.566,3.715L-2.074,3.715C-2.027,3.645 -1.934,3.492 -1.793,3.258C-1.746,3.165 -1.711,3.094 -1.687,3.047C-1.641,3.071 -1.57,3.13 -1.477,3.223C-1.313,3.341 -1.173,3.446 -1.055,3.539C-0.867,3.68 -0.797,3.785 -0.844,3.856C-0.844,3.879 -0.867,3.903 -0.914,3.926C-0.937,3.949 -0.962,3.961 -0.984,3.961L-2.074,3.961C-2.215,3.985 -2.379,3.996 -2.566,3.996L-2.566,6.035C-2.145,6.012 -1.781,6 -1.477,6C-1.454,5.953 -1.395,5.872 -1.301,5.754C-1.184,5.543 -1.078,5.367 -0.984,5.227C-0.797,5.367 -0.575,5.531 -0.316,5.719C-0.27,5.766 -0.234,5.801 -0.211,5.824C-0.07,5.965 0,6.083 0,6.176M-4.957,1.676C-4.957,1.817 -4.98,1.922 -5.027,1.992C-5.121,2.11 -5.251,2.168 -5.414,2.168C-5.555,2.168 -5.648,2.075 -5.695,1.887L-5.695,1.395C-5.695,1.348 -5.708,1.278 -5.73,1.184C-5.73,1.114 -5.743,1.055 -5.766,1.008C-5.813,0.985 -5.836,0.938 -5.836,0.867C-5.884,0.797 -5.871,0.762 -5.801,0.762C-5.754,0.762 -5.638,0.821 -5.449,0.938C-5.121,1.149 -4.957,1.395 -4.957,1.676M-5.695,-0.047C-5.695,0.024 -5.801,0.129 -6.012,0.27L-6.012,3.328C-5.989,4.102 -5.977,4.559 -5.977,4.699C-5.977,4.887 -5.965,5.145 -5.941,5.473L-5.941,5.965C-5.941,6.223 -6.024,6.422 -6.187,6.563C-6.398,6.821 -6.587,6.926 -6.75,6.879C-6.82,6.879 -6.868,6.821 -6.891,6.703C-6.868,6.703 -6.855,6.61 -6.855,6.422L-6.855,6.141C-6.833,5.907 -6.82,5.719 -6.82,5.578C-6.798,4.313 -6.773,3.2 -6.75,2.238L-6.75,2.063C-6.75,1.008 -6.809,0.094 -6.926,-0.679C-6.715,-0.609 -6.446,-0.504 -6.117,-0.363C-5.836,-0.269 -5.695,-0.164 -5.695,-0.047M-7.102,1.711C-7.079,2.133 -7.125,2.485 -7.242,2.766C-7.336,3 -7.466,3.117 -7.629,3.117C-7.747,3.117 -7.84,3.047 -7.91,2.906C-7.98,2.789 -8.016,2.649 -8.016,2.485C-8.016,2.367 -7.98,2.262 -7.91,2.168C-7.863,2.075 -7.805,1.992 -7.734,1.922C-7.594,1.759 -7.501,1.571 -7.453,1.36C-7.406,1.289 -7.383,1.219 -7.383,1.149C-7.383,1.126 -7.371,1.102 -7.348,1.078C-7.348,1.055 -7.336,1.043 -7.312,1.043C-7.242,1.043 -7.185,1.149 -7.137,1.36C-7.137,1.407 -7.125,1.477 -7.102,1.571L-7.102,1.711Z" style="fill:rgb(76,124,119);fill-rule:nonzero;"/>
            </g>
        </g>
        <g transform="matrix(8.33333,0,0,8.33333,0,0)">
            <g transform="matrix(1,0,0,1,540.867,77.3083)">
                <path d="M0,2.79L-1.547,2.86C-1.5,3.212 -1.465,3.739 -1.441,4.442C-1.278,4.442 -1.043,4.431 -0.738,4.407C-0.41,4.407 -0.176,4.395 -0.035,4.372L0,2.79ZM-0.141,-0.901C-0.329,-0.901 -0.633,-0.889 -1.055,-0.866C-1.219,-0.585 -1.384,-0.362 -1.547,-0.198C-1.454,-0.058 -1.301,0.095 -1.09,0.259C-1.043,0.282 -0.997,0.317 -0.949,0.364C-0.879,0.412 -0.832,0.447 -0.809,0.47C-0.598,0.142 -0.375,-0.315 -0.141,-0.901M2.355,1.524C2.308,1.595 2.227,1.653 2.109,1.7C1.921,1.841 1.758,1.994 1.617,2.157C1.617,2.181 1.604,2.205 1.582,2.228C1.559,2.275 1.534,2.31 1.512,2.333C1.464,2.403 1.406,2.438 1.336,2.438C1.312,2.438 1.23,2.427 1.09,2.403L0.668,2.192C0.223,1.935 -0.199,1.618 -0.598,1.243C-0.997,1.642 -1.406,1.981 -1.828,2.263L-1.617,2.368C-1.5,2.462 -1.419,2.521 -1.371,2.544L-0.035,2.509L0.211,2.122L0.422,2.228C0.562,2.298 0.655,2.356 0.703,2.403C0.937,2.567 1.055,2.685 1.055,2.755C1.077,2.825 1.055,2.873 0.984,2.895L0.879,3.001L0.844,3.036L0.809,4.091C0.831,4.114 0.866,4.149 0.914,4.196L0.949,4.267C1.066,4.384 1.112,4.466 1.09,4.513C1.066,4.583 0.961,4.618 0.773,4.618L0.562,4.618C0.398,4.641 0.258,4.653 0.141,4.653C-0.094,4.653 -0.516,4.665 -1.125,4.688C-1.266,4.711 -1.371,4.724 -1.441,4.724C-1.441,4.864 -1.477,4.981 -1.547,5.075C-1.617,5.145 -1.735,5.228 -1.898,5.321C-1.922,5.321 -1.957,5.333 -2.004,5.356C-2.074,5.379 -2.122,5.379 -2.145,5.356C-2.192,5.333 -2.215,5.263 -2.215,5.145C-2.215,5.075 -2.203,4.957 -2.18,4.794C-2.18,4.442 -2.192,4.068 -2.215,3.669C-2.215,3.341 -2.228,3.06 -2.25,2.825C-2.25,2.708 -2.263,2.603 -2.285,2.509C-2.496,2.603 -2.755,2.708 -3.059,2.825C-3.199,2.849 -3.282,2.849 -3.305,2.825C-3.328,2.778 -3.27,2.708 -3.129,2.614C-2.918,2.521 -2.625,2.333 -2.25,2.052C-1.806,1.7 -1.406,1.278 -1.055,0.786L-1.266,0.54C-1.359,0.423 -1.5,0.224 -1.687,-0.058C-1.969,0.224 -2.238,0.435 -2.496,0.575C-2.566,0.645 -2.625,0.658 -2.672,0.61C-2.695,0.61 -2.672,0.552 -2.602,0.435C-2.32,0.083 -2.122,-0.21 -2.004,-0.444C-1.771,-0.866 -1.582,-1.253 -1.441,-1.605C-1.419,-1.698 -1.371,-1.886 -1.301,-2.167L-1.195,-2.589C-1.032,-2.519 -0.809,-2.425 -0.527,-2.308C-0.294,-2.167 -0.176,-2.062 -0.176,-1.991C-0.176,-1.921 -0.281,-1.851 -0.492,-1.78C-0.516,-1.733 -0.551,-1.663 -0.598,-1.569C-0.668,-1.452 -0.751,-1.323 -0.844,-1.183L-0.035,-1.218C-0.013,-1.241 0.022,-1.288 0.07,-1.358C0.141,-1.476 0.198,-1.557 0.246,-1.605C0.293,-1.557 0.387,-1.476 0.527,-1.358C0.598,-1.311 0.655,-1.265 0.703,-1.218C0.914,-1.054 1.007,-0.924 0.984,-0.831C0.984,-0.761 0.866,-0.678 0.633,-0.585C0.328,0.025 0.035,0.493 -0.246,0.821C0.082,0.962 0.504,1.115 1.02,1.278C1.042,1.278 1.077,1.29 1.125,1.313C1.266,1.337 1.582,1.372 2.074,1.419C2.215,1.419 2.285,1.431 2.285,1.454C2.355,1.454 2.378,1.478 2.355,1.524M-2.25,-0.058C-2.25,-0.01 -2.368,0.013 -2.602,0.013L-2.953,0.013C-3.117,0.036 -3.247,0.048 -3.34,0.048L-3.586,0.083L-3.586,0.505C-3.353,0.552 -3.129,0.634 -2.918,0.751C-2.566,0.962 -2.403,1.22 -2.426,1.524C-2.426,1.665 -2.461,1.77 -2.531,1.841C-2.602,1.958 -2.707,2.017 -2.848,2.017C-2.988,1.994 -3.094,1.911 -3.164,1.77C-3.164,1.724 -3.177,1.618 -3.199,1.454C-3.177,1.548 -3.188,1.513 -3.234,1.349C-3.305,1.138 -3.423,0.95 -3.586,0.786L-3.586,4.442C-3.634,4.63 -3.704,4.759 -3.797,4.829C-3.867,4.922 -3.961,5.005 -4.078,5.075C-4.242,5.145 -4.359,5.168 -4.43,5.145C-4.478,5.145 -4.5,5.098 -4.5,5.005L-4.465,4.829L-4.43,4.477C-4.407,4.29 -4.383,3.833 -4.359,3.106C-4.337,2.497 -4.312,2.005 -4.289,1.63L-4.289,1.454L-4.324,1.524C-4.324,1.548 -4.359,1.607 -4.43,1.7C-4.711,2.192 -5.016,2.614 -5.344,2.966C-5.603,3.247 -5.801,3.446 -5.941,3.563C-6.035,3.634 -6.105,3.657 -6.152,3.634C-6.176,3.587 -6.152,3.517 -6.082,3.423C-5.871,3.142 -5.719,2.919 -5.625,2.755C-5.273,2.192 -5.005,1.688 -4.816,1.243C-4.676,0.915 -4.535,0.54 -4.395,0.118C-4.465,0.118 -4.559,0.13 -4.676,0.153L-4.852,0.153C-4.945,0.153 -5.075,0.165 -5.238,0.188C-5.427,0.212 -5.567,0.236 -5.66,0.259C-5.684,0.212 -5.719,0.153 -5.766,0.083C-5.789,-0.01 -5.824,-0.081 -5.871,-0.128L-4.887,-0.128L-4.289,-0.163L-4.289,-1.148C-4.289,-1.311 -4.302,-1.71 -4.324,-2.343C-4.184,-2.272 -3.95,-2.19 -3.621,-2.097C-3.388,-2.003 -3.258,-1.921 -3.234,-1.851C-3.234,-1.757 -3.34,-1.651 -3.551,-1.534C-3.574,-1.135 -3.586,-0.69 -3.586,-0.198C-3.469,-0.198 -3.375,-0.21 -3.305,-0.233C-3.282,-0.256 -3.247,-0.327 -3.199,-0.444C-3.106,-0.608 -3.023,-0.737 -2.953,-0.831C-2.86,-0.737 -2.742,-0.632 -2.602,-0.515C-2.509,-0.444 -2.449,-0.397 -2.426,-0.374C-2.285,-0.233 -2.228,-0.128 -2.25,-0.058" style="fill:rgb(76,124,119);fill-rule:nonzero;"/>
            </g>
        </g>
        <g transform="matrix(8.33333,0,0,8.33333,0,0)">
            <g transform="matrix(1,0,0,1,551.441,75.6456)">
                <path d="M0,6.316C0,6.503 -0.047,6.644 -0.141,6.738C-0.258,6.855 -0.387,6.925 -0.527,6.949C-0.668,6.949 -0.809,6.878 -0.949,6.738C-1.043,6.62 -1.148,6.492 -1.266,6.351C-1.57,5.953 -1.957,5.66 -2.426,5.472C-2.566,5.425 -2.637,5.379 -2.637,5.332C-2.59,5.285 -2.52,5.261 -2.426,5.261C-2.168,5.261 -1.863,5.296 -1.512,5.367C-1.23,5.414 -0.984,5.472 -0.773,5.543C-0.258,5.731 0,5.988 0,6.316M-4.113,2.589L-4.113,3.539C-3.879,3.539 -3.527,3.516 -3.059,3.468C-2.801,3.445 -2.566,3.398 -2.355,3.328C-2.215,3.492 -2.156,3.609 -2.18,3.679L-2.461,3.714C-2.625,3.738 -2.871,3.75 -3.199,3.75C-3.34,3.773 -3.645,3.808 -4.113,3.855L-4.113,4.769L-1.934,4.664L-1.934,1.746C-1.934,1.113 -1.945,0.539 -1.969,0.023C-2.133,0.046 -2.449,0.07 -2.918,0.093C-3.41,0.117 -3.82,0.141 -4.148,0.164C-4.125,0.492 -4.113,0.796 -4.113,1.078C-3.949,1.078 -3.668,1.066 -3.27,1.043C-3.152,1.02 -3.059,1.007 -2.988,1.007C-2.895,1.007 -2.742,0.984 -2.531,0.937C-2.438,0.914 -2.367,0.902 -2.32,0.902C-2.18,1.066 -2.109,1.171 -2.109,1.218C-2.109,1.242 -2.156,1.254 -2.25,1.254C-2.297,1.277 -2.344,1.289 -2.391,1.289C-2.602,1.289 -2.859,1.301 -3.164,1.324L-3.41,1.324C-3.691,1.347 -3.926,1.359 -4.113,1.359L-4.113,2.308C-3.949,2.308 -3.668,2.296 -3.27,2.273C-3.152,2.25 -3.059,2.238 -2.988,2.238C-2.754,2.238 -2.531,2.203 -2.32,2.132C-2.297,2.156 -2.273,2.18 -2.25,2.203C-2.156,2.343 -2.109,2.426 -2.109,2.449C-2.133,2.472 -2.191,2.484 -2.285,2.484C-2.332,2.507 -2.379,2.519 -2.426,2.519C-2.59,2.519 -2.836,2.531 -3.164,2.554L-3.445,2.554C-3.703,2.578 -3.926,2.589 -4.113,2.589M0.879,4.734C0.879,4.828 0.762,4.875 0.527,4.875C-0.035,4.875 -0.422,4.887 -0.633,4.91C-1.102,4.933 -2.109,4.98 -3.656,5.05C-4.477,5.098 -5.109,5.133 -5.555,5.156C-5.719,5.156 -6.082,5.191 -6.645,5.261L-6.82,4.875L-5.695,4.875L-4.922,4.839L-4.922,1.429C-4.898,0.609 -4.922,-0.082 -4.992,-0.645C-4.617,-0.504 -4.324,-0.364 -4.113,-0.223C-4.02,-0.2 -3.973,-0.164 -3.973,-0.118L-2.004,-0.258C-2.004,-0.281 -1.98,-0.305 -1.934,-0.329C-1.91,-0.375 -1.828,-0.516 -1.687,-0.75C-1.641,-0.727 -1.547,-0.668 -1.406,-0.575C-1.289,-0.481 -1.184,-0.411 -1.09,-0.364C-1.066,-0.364 -1.043,-0.351 -1.02,-0.329C-0.832,-0.188 -0.738,-0.07 -0.738,0.023C-0.738,0.093 -0.855,0.199 -1.09,0.339C-1.09,2.637 -1.078,4.066 -1.055,4.629L-0.598,4.593C-0.574,4.546 -0.516,4.453 -0.422,4.312C-0.305,4.125 -0.211,3.973 -0.141,3.855C-0.117,3.855 -0.094,3.867 -0.07,3.89C0.094,3.984 0.34,4.171 0.668,4.453C0.809,4.57 0.879,4.664 0.879,4.734M-3.832,6.175C-4.324,6.386 -4.746,6.562 -5.098,6.703C-5.449,6.82 -5.895,6.925 -6.434,7.019C-6.668,7.066 -6.809,7.066 -6.855,7.019C-6.855,6.949 -6.75,6.866 -6.539,6.773C-5.672,6.421 -4.992,6.047 -4.5,5.648C-4.406,5.555 -4.254,5.402 -4.043,5.191C-3.926,5.285 -3.773,5.449 -3.586,5.683C-3.727,5.496 -3.715,5.507 -3.551,5.718C-3.41,5.859 -3.34,5.964 -3.34,6.035C-3.34,6.105 -3.41,6.152 -3.551,6.175L-3.832,6.175Z" style="fill:rgb(76,124,119);fill-rule:nonzero;"/>
            </g>
        </g>
        <g transform="matrix(8.33333,0,0,8.33333,0,0)">
            <g transform="matrix(1,0,0,1,559.169,80.3437)">
                <path d="M0,-3.304C0.234,-3.21 0.352,-3.14 0.352,-3.093C0.305,-2.999 0.211,-2.929 0.07,-2.882C0.07,-2.812 0.047,-2.718 0,-2.601C-0.023,-2.531 -0.035,-2.483 -0.035,-2.46L0.949,-2.495L0.949,-3.409L-0.246,-3.339L0,-3.304ZM-0.246,-4.324C-0.34,-4.324 -0.562,-4.311 -0.914,-4.288C-1.078,-4.03 -1.254,-3.796 -1.441,-3.585L-1.406,-3.55L-0.527,-3.585C-0.527,-3.632 -0.445,-3.843 -0.281,-4.218C-0.445,-3.866 -0.434,-3.902 -0.246,-4.324M-1.477,-2.46L-1.477,-2.39L-0.844,-2.425C-0.703,-2.683 -0.633,-2.988 -0.633,-3.339L-1.512,-3.304L-1.512,-3.023C-1.488,-2.788 -1.477,-2.601 -1.477,-2.46M-0.527,-0.527C-0.598,-0.479 -0.703,-0.468 -0.844,-0.491C-1.125,-0.304 -1.453,-0.14 -1.828,0.001C-2.227,0.165 -2.578,0.282 -2.883,0.352C-3,0.4 -3.082,0.4 -3.129,0.352C-3.129,0.305 -3.059,0.247 -2.918,0.176C-2.777,0.106 -2.531,-0.046 -2.18,-0.281C-2.086,-0.327 -1.969,-0.409 -1.828,-0.527C-1.711,-0.597 -1.629,-0.655 -1.582,-0.702C-1.441,-0.82 -1.242,-1.031 -0.984,-1.335C-0.82,-1.124 -0.703,-0.971 -0.633,-0.878C-0.539,-0.714 -0.492,-0.62 -0.492,-0.597L-0.492,-0.562C-0.516,-0.562 -0.527,-0.55 -0.527,-0.527M1.898,-3.48C1.922,-3.432 1.863,-3.362 1.723,-3.269L1.687,-3.234L1.687,-2.671C1.711,-2.554 1.711,-2.437 1.687,-2.32L1.687,-2.284C1.664,-2.167 1.559,-2.074 1.371,-2.003C1.23,-1.909 1.113,-1.874 1.02,-1.898C0.949,-1.921 0.926,-2.038 0.949,-2.249L-0.035,-2.214L-0.211,-2.179C-0.281,-2.038 -0.398,-1.898 -0.562,-1.757C-0.305,-1.569 -0.117,-1.393 0,-1.23C0.117,-1.089 0.211,-0.936 0.281,-0.773C0.797,-1.101 1.195,-1.441 1.477,-1.792C1.594,-1.909 1.711,-2.074 1.828,-2.284C1.875,-2.237 1.957,-2.144 2.074,-2.003C2.168,-1.886 2.25,-1.792 2.32,-1.722C2.461,-1.534 2.52,-1.406 2.496,-1.335C2.496,-1.265 2.426,-1.23 2.285,-1.23L2.039,-1.265C1.594,-1.031 1.207,-0.855 0.879,-0.738C1.324,-0.105 1.91,0.376 2.637,0.704C2.707,0.704 2.777,0.739 2.848,0.809C2.988,0.833 3.047,0.88 3.023,0.95L2.848,1.02C2.777,1.068 2.707,1.091 2.637,1.091C2.496,1.161 2.344,1.255 2.18,1.372C2.133,1.419 2.051,1.477 1.934,1.548C1.887,1.548 1.828,1.512 1.758,1.442C1.336,1.138 0.984,0.435 0.703,-0.667C0.609,-0.644 0.504,-0.609 0.387,-0.562C0.504,-0.257 0.586,0.13 0.633,0.598C0.633,1.044 0.551,1.43 0.387,1.758C0.316,1.899 0.211,2.04 0.07,2.18C-0.117,2.344 -0.27,2.426 -0.387,2.426C-0.457,2.426 -0.527,2.391 -0.598,2.321C-0.598,2.274 -0.633,2.216 -0.703,2.145C-0.797,1.981 -0.914,1.829 -1.055,1.688C-1.102,1.665 -1.195,1.606 -1.336,1.512C-1.43,1.442 -1.477,1.384 -1.477,1.337C-1.453,1.29 -1.371,1.279 -1.23,1.301C-1.09,1.325 -0.891,1.36 -0.633,1.407C-0.398,1.407 -0.258,1.325 -0.211,1.161C-0.141,0.95 -0.105,0.704 -0.105,0.423C-0.129,-0.398 -0.352,-1.077 -0.773,-1.617C-1.195,-1.312 -1.793,-1.054 -2.566,-0.843C-2.707,-0.82 -2.801,-0.82 -2.848,-0.843C-2.848,-0.89 -2.766,-0.949 -2.602,-1.019C-1.852,-1.393 -1.324,-1.769 -1.02,-2.144L-1.512,-2.109C-1.559,-2.015 -1.676,-1.909 -1.863,-1.792L-1.898,-1.792C-1.969,-1.745 -2.039,-1.734 -2.109,-1.757C-2.133,-1.757 -2.145,-1.827 -2.145,-1.968L-2.145,-2.249C-2.121,-2.531 -2.121,-2.753 -2.145,-2.917C-2.355,-2.729 -2.648,-2.542 -3.023,-2.355C-3.117,-2.284 -3.188,-2.272 -3.234,-2.32C-3.281,-2.367 -3.234,-2.425 -3.094,-2.495C-2.695,-2.894 -2.379,-3.269 -2.145,-3.62C-1.699,-4.253 -1.359,-4.956 -1.125,-5.73C-0.961,-5.659 -0.738,-5.519 -0.457,-5.308C-0.293,-5.167 -0.211,-5.062 -0.211,-4.991C-0.211,-4.944 -0.316,-4.898 -0.527,-4.851C-0.598,-4.733 -0.656,-4.64 -0.703,-4.57L-0.141,-4.605L0.176,-4.956C0.316,-4.816 0.516,-4.628 0.773,-4.394C0.844,-4.324 0.867,-4.265 0.844,-4.218C0.844,-4.148 0.727,-4.1 0.492,-4.077C0.492,-4.054 0.352,-3.902 0.07,-3.62C0.422,-3.643 0.703,-3.656 0.914,-3.656L1.23,-4.042C1.277,-3.995 1.418,-3.902 1.652,-3.761C1.816,-3.643 1.898,-3.55 1.898,-3.48M-0.211,0.458C-0.281,0.505 -0.398,0.528 -0.562,0.528C-0.984,0.857 -1.605,1.149 -2.426,1.407C-2.637,1.524 -2.859,1.594 -3.094,1.618C-3.234,1.665 -3.316,1.653 -3.34,1.583C-3.34,1.559 -3.293,1.512 -3.199,1.442C-2.73,1.231 -2.344,1.02 -2.039,0.809C-2.016,0.786 -1.969,0.751 -1.898,0.704C-1.617,0.516 -1.395,0.341 -1.23,0.176C-1.043,0.013 -0.867,-0.175 -0.703,-0.386C-0.633,-0.268 -0.527,-0.128 -0.387,0.036C-0.34,0.106 -0.305,0.154 -0.281,0.176C-0.211,0.294 -0.187,0.387 -0.211,0.458M-2.531,-4.745C-2.531,-4.652 -2.648,-4.581 -2.883,-4.534C-2.93,-4.417 -3.047,-4.195 -3.234,-3.866C-3.117,-4.1 -3.164,-4.019 -3.375,-3.62L-3.375,1.126C-3.398,1.43 -3.469,1.618 -3.586,1.688C-3.82,1.969 -4.031,2.098 -4.219,2.075C-4.266,2.075 -4.289,2.04 -4.289,1.969C-4.289,1.946 -4.277,1.876 -4.254,1.758C-4.184,0.751 -4.125,-0.609 -4.078,-2.32L-4.078,-2.636C-4.242,-2.425 -4.418,-2.237 -4.605,-2.074C-4.934,-1.792 -5.191,-1.604 -5.379,-1.511C-5.473,-1.441 -5.543,-1.429 -5.59,-1.476C-5.59,-1.499 -5.566,-1.534 -5.52,-1.581C-5.566,-1.534 -5.555,-1.558 -5.484,-1.652C-5.461,-1.675 -5.402,-1.745 -5.309,-1.863C-5.191,-2.026 -5.086,-2.156 -4.992,-2.249C-4.289,-3.281 -3.82,-4.335 -3.586,-5.413C-3.445,-5.343 -3.223,-5.225 -2.918,-5.062C-2.66,-4.921 -2.531,-4.816 -2.531,-4.745" style="fill:rgb(76,124,119);fill-rule:nonzero;"/>
            </g>
        </g>
        <g transform="matrix(8.33333,0,0,8.33333,0,0)">
            <g transform="matrix(1,0,0,1,566.299,77.3441)">
                <path d="M0,2.93C0.492,2.555 0.902,2.215 1.23,1.91L1.23,-1.429C1.23,-1.64 1.219,-1.922 1.195,-2.273C1.57,-2.155 1.852,-2.062 2.039,-1.992C2.25,-1.922 2.355,-1.839 2.355,-1.746C2.379,-1.652 2.285,-1.535 2.074,-1.394L2.074,1.067C2.355,0.785 2.602,0.481 2.813,0.153C2.836,0.13 2.871,0.082 2.918,0.012C3.199,-0.386 3.398,-0.738 3.516,-1.043C3.703,-0.902 3.938,-0.668 4.219,-0.34C4.336,-0.199 4.395,-0.105 4.395,-0.058C4.418,0.012 4.395,0.071 4.324,0.117C4.301,0.141 4.148,0.153 3.867,0.153C3.281,0.879 2.684,1.477 2.074,1.946L2.074,3.563C2.074,3.751 2.086,3.879 2.109,3.95C2.227,4.02 2.402,4.055 2.637,4.055C3.129,4.055 3.504,3.962 3.762,3.774C3.926,3.68 4.043,3.528 4.113,3.317C4.23,2.965 4.371,2.508 4.535,1.946C4.535,1.899 4.57,1.77 4.641,1.559C4.664,1.371 4.711,1.301 4.781,1.348C4.828,1.348 4.852,1.418 4.852,1.559L4.852,1.875C4.828,2.204 4.793,2.649 4.746,3.211C4.77,3.446 4.816,3.61 4.887,3.703C4.91,3.751 4.945,3.809 4.992,3.879C5.039,3.927 5.062,3.962 5.062,3.985C5.062,4.125 4.992,4.254 4.852,4.371C4.57,4.582 4.02,4.723 3.199,4.793C3.059,4.816 2.906,4.828 2.742,4.828C2.461,4.828 2.18,4.805 1.898,4.758C1.453,4.688 1.219,4.395 1.195,3.879L1.195,3.563C1.219,3.422 1.23,3.34 1.23,3.317L1.23,2.508C1.043,2.649 0.727,2.825 0.281,3.035C0.187,3.083 0.117,3.118 0.07,3.141C-0.117,3.235 -0.223,3.259 -0.246,3.211C-0.246,3.164 -0.164,3.071 0,2.93M0.527,-1.64C0.527,-1.523 0.41,-1.429 0.176,-1.359C-0.035,-1.008 -0.211,-0.738 -0.352,-0.55L-0.352,4.301C-0.352,4.559 -0.41,4.746 -0.527,4.864C-0.645,5.004 -0.773,5.11 -0.914,5.18C-1.031,5.25 -1.125,5.273 -1.195,5.25C-1.242,5.25 -1.254,5.145 -1.23,4.934C-1.137,3.716 -1.09,2.215 -1.09,0.434C-1.535,0.996 -2.145,1.466 -2.918,1.84C-3.035,1.888 -3.141,1.923 -3.234,1.946C-3.281,1.946 -3.305,1.934 -3.305,1.91C-3.328,1.888 -3.293,1.84 -3.199,1.77L-3.059,1.629C-2.566,1.184 -2.18,0.785 -1.898,0.434C-1.5,-0.058 -1.16,-0.597 -0.879,-1.183C-0.691,-1.582 -0.551,-1.968 -0.457,-2.343C-0.246,-2.226 -0.035,-2.097 0.176,-1.957C0.41,-1.816 0.527,-1.711 0.527,-1.64" style="fill:rgb(76,124,119);fill-rule:nonzero;"/>
            </g>
        </g>
        <g transform="matrix(8.33333,0,0,8.33333,0,0)">
            <g transform="matrix(1,0,0,1,575.784,81.8558)">
                <path d="M0,-6.152L0,-5.273L0.879,-5.273L0.879,-4.394L1.758,-4.394L1.758,-3.515L2.637,-3.515L2.637,-2.636L1.758,-2.636L1.758,-1.757L0.879,-1.757L0.879,-0.879L0,-0.879L0,0L-2.637,0L-2.637,-0.879L-0.879,-0.879L-0.879,-1.757L0,-1.757L0,-2.636L0.879,-2.636L0.879,-3.515L0,-3.515L0,-4.394L-0.879,-4.394L-0.879,-5.273L-2.637,-5.273L-2.637,-6.152L0,-6.152Z" style="fill:rgb(76,124,119);fill-rule:nonzero;"/>
            </g>
        </g>
    </g>
</svg>
