<?xml version="1.0" encoding="UTF-8" standalone="no"?>
<!DOCTYPE svg PUBLIC "-//W3C//DTD SVG 1.1//EN" "http://www.w3.org/Graphics/SVG/1.1/DTD/svg11.dtd">
<svg width="100%" height="100%" viewBox="0 0 616 111" version="1.1" xmlns="http://www.w3.org/2000/svg" xmlns:xlink="http://www.w3.org/1999/xlink" xml:space="preserve" xmlns:serif="http://www.serif.com/" style="fill-rule:evenodd;clip-rule:evenodd;stroke-linejoin:round;stroke-miterlimit:2;">
    <g transform="matrix(1,0,0,1,-998.181,-4749.4)">
        <g transform="matrix(8.33333,0,0,8.33333,0,0)">
            <g transform="matrix(1,0,0,1,143.958,573.484)">
                <path d="M0,6.104C1.278,6.71 2.116,7.166 2.513,7.468C2.91,7.772 3.108,8.083 3.108,8.4C3.108,8.717 3.047,8.976 2.926,9.176C2.805,9.377 2.683,9.478 2.562,9.478C2.319,9.478 2.125,9.275 1.981,8.869C1.836,8.462 1.58,8.052 1.211,7.636C0.842,7.221 0.392,6.785 -0.14,6.328L0,6.104ZM-2.506,-0.182L-1.442,-0.182C-1.312,-0.975 -1.242,-1.628 -1.232,-2.142L-2.814,-2.142C-3.206,-2.142 -3.523,-2.091 -3.766,-1.989L-4.27,-2.619C-3.916,-2.572 -3.528,-2.548 -3.108,-2.548L1.61,-2.548L2.492,-3.556L3.444,-2.38C3.49,-2.315 3.514,-2.259 3.514,-2.212C3.514,-2.166 3.467,-2.142 3.374,-2.142L-0.07,-2.142C-0.238,-1.638 -0.542,-0.985 -0.98,-0.182L1.512,-0.182L1.96,-0.743L2.912,0.028C2.986,0.083 3.024,0.137 3.024,0.189C3.024,0.24 2.977,0.298 2.884,0.364L2.534,0.602L2.534,3.738C2.534,4.065 2.548,4.368 2.576,4.648L2.66,5.333C2.66,5.483 2.515,5.624 2.226,5.753C1.937,5.884 1.754,5.95 1.68,5.95C1.605,5.95 1.568,5.889 1.568,5.768L1.568,0.209L-2.45,0.209L-2.45,5.684C-2.45,5.815 -2.478,5.917 -2.534,5.992C-2.59,6.067 -2.726,6.148 -2.94,6.237C-3.155,6.326 -3.311,6.37 -3.409,6.37C-3.507,6.37 -3.556,6.316 -3.556,6.208C-3.556,6.101 -3.552,5.997 -3.542,5.894C-3.458,5.268 -3.416,4.536 -3.416,3.696L-3.416,0.994C-3.416,0.443 -3.435,-0.126 -3.472,-0.714L-2.506,-0.182ZM-1.176,0.881L-0.014,1.316C0.107,1.363 0.168,1.409 0.168,1.456C0.168,1.502 0.119,1.568 0.021,1.652C-0.077,1.736 -0.14,2.082 -0.168,2.688C-0.243,4.134 -0.359,5.166 -0.518,5.782C-0.677,6.398 -0.964,6.934 -1.379,7.392C-1.794,7.849 -2.359,8.257 -3.073,8.617C-3.787,8.976 -4.718,9.324 -5.866,9.66L-5.936,9.394C-5.068,9.067 -4.326,8.717 -3.71,8.343C-3.094,7.97 -2.604,7.585 -2.24,7.189C-1.876,6.792 -1.633,6.4 -1.512,6.012C-1.391,5.625 -1.3,5.137 -1.239,4.549C-1.179,3.961 -1.148,3.341 -1.148,2.688C-1.148,2.035 -1.158,1.432 -1.176,0.881M-6.16,4.774L-4.074,4.186L-3.99,4.438L-7.028,5.782C-7.709,6.089 -8.2,6.383 -8.498,6.664C-8.563,6.719 -8.626,6.748 -8.687,6.748C-8.748,6.748 -8.802,6.71 -8.848,6.635L-9.492,5.711L-7.084,5.026L-7.084,-0.938L-7.966,-0.938C-8.358,-0.938 -8.675,-0.891 -8.918,-0.798L-9.422,-1.4C-9.067,-1.344 -8.68,-1.316 -8.26,-1.316L-5.474,-1.316L-4.69,-2.268L-3.822,-1.218C-3.748,-1.125 -3.71,-1.055 -3.71,-1.008C-3.71,-0.961 -3.766,-0.938 -3.878,-0.938L-6.16,-0.938L-6.16,4.774Z" style="fill:rgb(35,25,22);fill-rule:nonzero;"/>
            </g>
        </g>
        <g transform="matrix(8.33333,0,0,8.33333,0,0)">
            <g transform="matrix(1,0,0,1,0,-1971.41)">
                <path d="M159.511,2549.27L153.603,2549.27L153.603,2552.12L159.511,2552.12L159.511,2549.27ZM159.511,2546.11L153.603,2546.11L153.603,2548.87L159.511,2548.87L159.511,2546.11ZM159.511,2543.04L153.603,2543.04L153.603,2545.7L159.511,2545.7L159.511,2543.04ZM153.687,2542.64L159.399,2542.64L159.959,2541.98L160.995,2542.78C161.088,2542.83 161.135,2542.88 161.135,2542.93C161.135,2542.97 161.084,2543.02 160.981,2543.07L160.478,2543.39L160.478,2551.68C160.478,2551.99 160.491,2552.27 160.52,2552.54L160.562,2553.21C160.562,2553.36 160.428,2553.51 160.162,2553.66C159.896,2553.82 159.721,2553.89 159.637,2553.89C159.553,2553.89 159.511,2553.83 159.511,2553.7L159.511,2552.52L153.604,2552.52L153.604,2553.32C153.604,2553.48 153.559,2553.6 153.47,2553.67C153.381,2553.74 153.244,2553.82 153.057,2553.9C152.871,2553.98 152.74,2554.02 152.666,2554.02C152.59,2554.02 152.542,2553.99 152.518,2553.92C152.495,2553.86 152.493,2553.73 152.511,2553.54C152.595,2552.77 152.637,2552.04 152.637,2551.35L152.637,2543.72C152.637,2543.1 152.624,2542.53 152.595,2541.99L153.687,2542.64Z" style="fill:rgb(35,25,22);fill-rule:nonzero;"/>
            </g>
        </g>
        <g transform="matrix(8.33333,0,0,8.33333,0,0)">
            <g transform="matrix(1,0,0,1,176.115,577.628)">
                <path d="M0,-2.114L-2.548,-2.114L-2.548,1.414C-2.548,1.591 -2.506,1.703 -2.422,1.75C-2.338,1.797 -1.904,1.82 -1.12,1.82C0,1.82 0.642,1.713 0.805,1.498C0.968,1.283 1.129,0.686 1.288,-0.294L1.568,-0.266C1.549,0.061 1.54,0.368 1.54,0.657C1.54,0.948 1.565,1.178 1.617,1.351C1.668,1.524 1.762,1.631 1.897,1.673C2.032,1.715 2.1,1.766 2.1,1.826C2.1,1.888 2.039,1.979 1.918,2.1C1.796,2.221 1.573,2.345 1.246,2.471C0.919,2.597 0.539,2.676 0.105,2.709C-0.329,2.741 -0.903,2.758 -1.617,2.758C-2.331,2.758 -2.819,2.686 -3.08,2.541C-3.341,2.397 -3.472,2.114 -3.472,1.694L-3.472,-1.246C-3.472,-1.834 -3.491,-2.502 -3.528,-3.248L-2.45,-2.507L0,-2.507L0,-5.124L-2.394,-5.124C-2.795,-5.124 -3.113,-5.077 -3.346,-4.984L-3.864,-5.6C-3.509,-5.544 -3.122,-5.516 -2.702,-5.516L-0.042,-5.516L0.448,-6.23L1.428,-5.46C1.549,-5.367 1.61,-5.3 1.61,-5.258C1.61,-5.216 1.554,-5.166 1.442,-5.11L0.966,-4.886L0.966,-3.584C0.966,-3.285 0.98,-3.01 1.008,-2.759L1.05,-2.086C1.05,-1.936 0.912,-1.785 0.637,-1.632C0.361,-1.477 0.187,-1.4 0.112,-1.4C0.037,-1.4 0,-1.47 0,-1.61L0,-2.114ZM-6.356,-4.76L-5.586,-4.76L-4.9,-5.558L-4.144,-4.69C-4.051,-4.588 -4.004,-4.509 -4.004,-4.452C-4.004,-4.396 -4.083,-4.368 -4.242,-4.368L-6.356,-4.368L-6.356,-2.1L-5.264,-2.1L-4.592,-2.87L-3.85,-2.002C-3.766,-1.918 -3.724,-1.85 -3.724,-1.8C-3.724,-1.748 -3.799,-1.722 -3.948,-1.722L-8.848,-1.722C-9.24,-1.722 -9.558,-1.676 -9.8,-1.582L-10.29,-2.184C-9.936,-2.128 -9.548,-2.1 -9.128,-2.1L-7.336,-2.1L-7.336,-4.368L-8.4,-4.368C-8.792,-4.368 -9.109,-4.321 -9.352,-4.228L-9.856,-4.83C-9.474,-4.783 -9.086,-4.76 -8.694,-4.76L-7.336,-4.76L-7.336,-5.978C-7.336,-6.491 -7.35,-6.991 -7.378,-7.476L-6.09,-6.902C-5.932,-6.827 -5.852,-6.76 -5.852,-6.699C-5.852,-6.638 -5.908,-6.556 -6.02,-6.454L-6.356,-6.16L-6.356,-4.76ZM-8.568,1.862C-8.96,3.29 -9.571,4.456 -10.402,5.362L-10.598,5.25C-9.618,3.42 -9.142,1.325 -9.17,-1.036L-8.064,-0.616C-7.943,-0.569 -7.882,-0.525 -7.882,-0.483C-7.882,-0.441 -7.929,-0.383 -8.022,-0.308C-8.144,-0.205 -8.241,0.103 -8.316,0.615C-8.354,0.943 -8.414,1.265 -8.498,1.582C-8.181,2.039 -7.761,2.511 -7.238,2.996L-7.238,-0.42C-7.238,-0.802 -7.252,-1.227 -7.28,-1.694L-6.16,-1.26C-6.048,-1.222 -5.992,-1.183 -5.992,-1.141C-5.992,-1.099 -6.034,-1.046 -6.118,-0.98L-6.314,-0.841L-6.314,0.602L-5.46,0.602L-4.76,-0.238L-4.018,0.672C-3.925,0.783 -3.878,0.865 -3.878,0.917C-3.878,0.968 -3.962,0.993 -4.13,0.993L-6.314,0.993L-6.314,3.598C-5.493,3.915 -4.242,4.073 -2.562,4.073C-0.882,4.073 0.816,3.943 2.534,3.682L2.562,3.878C1.964,4.073 1.624,4.406 1.54,4.872C1.521,5.031 1.468,5.113 1.379,5.116C1.29,5.121 0.896,5.124 0.196,5.124C-1.988,5.124 -3.626,5.032 -4.718,4.851C-5.81,4.669 -6.641,4.312 -7.21,3.78C-7.779,3.248 -8.232,2.609 -8.568,1.862" style="fill:rgb(35,25,22);fill-rule:nonzero;"/>
            </g>
        </g>
        <g transform="matrix(8.33333,0,0,8.33333,0,0)">
            <g transform="matrix(1,0,0,1,191.025,574.534)">
                <path d="M0,4.186C0.728,4.578 1.281,4.905 1.659,5.165C2.037,5.427 2.289,5.64 2.415,5.803C2.541,5.966 2.604,6.132 2.604,6.3C2.604,6.981 2.45,7.322 2.142,7.322C2.03,7.322 1.941,7.282 1.876,7.203C1.811,7.124 1.738,6.962 1.659,6.72C1.58,6.477 1.349,6.087 0.966,5.551C0.583,5.014 0.219,4.624 -0.126,4.382L0,4.186ZM-2.786,2.758L0.518,2.758L0.518,1.218L-2.786,1.218L-2.786,2.758ZM-2.786,0.826L0.518,0.826L0.518,-0.657L-2.786,-0.657L-2.786,0.826ZM-2.464,4.676C-2.361,4.76 -2.31,4.834 -2.31,4.9C-2.31,4.965 -2.389,5.017 -2.548,5.054C-2.716,5.101 -2.917,5.236 -3.15,5.459C-4.307,6.608 -5.329,7.485 -6.216,8.092L-6.37,7.924C-5.101,6.664 -4.064,5.38 -3.262,4.074L-2.464,4.676ZM0.518,3.136L-0.644,3.136L-0.644,6.454C-0.644,6.995 -0.688,7.366 -0.777,7.567C-0.866,7.767 -1.059,7.954 -1.358,8.126C-1.657,8.299 -1.841,8.386 -1.911,8.386C-1.981,8.386 -2.021,8.306 -2.03,8.148C-2.039,7.868 -2.149,7.663 -2.359,7.532C-2.569,7.401 -2.968,7.285 -3.556,7.182L-3.528,6.944C-3.033,6.999 -2.655,7.028 -2.394,7.028C-2.133,7.028 -1.939,6.999 -1.813,6.944C-1.687,6.888 -1.624,6.748 -1.624,6.524L-1.624,3.136L-2.786,3.136C-2.767,3.425 -2.893,3.625 -3.164,3.738C-3.435,3.85 -3.605,3.906 -3.675,3.906C-3.745,3.906 -3.78,3.857 -3.78,3.759C-3.78,3.661 -3.775,3.561 -3.766,3.457C-3.691,2.711 -3.654,1.937 -3.654,1.134L-3.654,0.112C-3.654,-0.485 -3.668,-1.041 -3.696,-1.554L-2.786,-1.036L-2.436,-1.036C-2.175,-1.662 -2.002,-2.268 -1.918,-2.856L-4.69,-2.856L-4.69,0.322C-4.69,2.552 -4.928,4.233 -5.404,5.362C-5.88,6.491 -6.626,7.466 -7.644,8.288L-7.854,8.176C-7.033,7.196 -6.456,6.176 -6.125,5.117C-5.793,4.058 -5.628,2.45 -5.628,0.293L-5.628,-2.338C-5.628,-2.814 -5.642,-3.299 -5.67,-3.794L-4.676,-3.234L0.784,-3.234L1.596,-4.2L2.478,-3.165C2.562,-3.071 2.604,-2.997 2.604,-2.94C2.604,-2.884 2.529,-2.856 2.38,-2.856L-0.938,-2.856C-1.134,-2.268 -1.493,-1.662 -2.016,-1.036L0.392,-1.036L0.812,-1.583L1.694,-0.952C1.788,-0.877 1.834,-0.817 1.834,-0.77C1.834,-0.723 1.769,-0.672 1.638,-0.616L1.47,-0.532L1.47,1.47C1.47,1.769 1.484,2.058 1.512,2.337L1.554,3.052C1.554,3.239 1.423,3.383 1.162,3.486C0.901,3.588 0.728,3.64 0.644,3.64C0.56,3.64 0.518,3.583 0.518,3.472L0.518,3.136ZM-8.666,-4.172C-8.05,-4.042 -7.583,-3.869 -7.266,-3.654C-6.949,-3.439 -6.79,-3.19 -6.79,-2.905C-6.79,-2.621 -6.851,-2.399 -6.972,-2.24C-7.093,-2.082 -7.243,-2.002 -7.42,-2.002C-7.597,-2.002 -7.709,-2.114 -7.756,-2.338C-7.915,-3.103 -8.246,-3.664 -8.75,-4.018L-8.666,-4.172ZM-5.866,-1.974L-7.252,2.38C-7.551,3.341 -7.7,4.419 -7.7,5.614C-7.7,6.015 -7.686,6.323 -7.658,6.538C-7.63,6.752 -7.616,6.902 -7.616,6.986C-7.616,7.453 -7.789,7.686 -8.134,7.686C-8.349,7.686 -8.523,7.602 -8.659,7.434C-8.794,7.266 -8.862,7.083 -8.862,6.888C-8.862,6.692 -8.848,6.529 -8.82,6.398C-8.633,5.623 -8.54,5.101 -8.54,4.83C-8.54,4.559 -8.605,4.347 -8.736,4.193C-8.867,4.039 -9.095,3.887 -9.422,3.738L-9.422,3.514C-9.123,3.551 -8.895,3.57 -8.736,3.57C-8.577,3.57 -8.456,3.523 -8.372,3.43C-8.288,3.336 -8.185,3.136 -8.064,2.828L-6.132,-2.086L-5.866,-1.974ZM-9.702,-1.484C-8.479,-1.092 -7.868,-0.644 -7.868,-0.14C-7.868,0.13 -7.931,0.357 -8.057,0.539C-8.183,0.721 -8.307,0.812 -8.428,0.812C-8.549,0.812 -8.636,0.782 -8.687,0.721C-8.738,0.661 -8.773,0.541 -8.792,0.364C-8.885,-0.243 -9.212,-0.798 -9.772,-1.302L-9.702,-1.484Z" style="fill:rgb(35,25,22);fill-rule:nonzero;"/>
            </g>
        </g>
        <g transform="matrix(8.33333,0,0,8.33333,0,0)">
            <g transform="matrix(0,-1,-1,0,122.481,573.088)">
                <path d="M-2.699,-2.7C-4.19,-2.7 -5.399,-1.492 -5.399,0C-5.399,1.49 -4.19,2.699 -2.699,2.699C-1.208,2.699 0,1.49 0,0C0,-1.492 -1.208,-2.7 -2.699,-2.7" style="fill:rgb(62,57,56);fill-rule:nonzero;"/>
            </g>
        </g>
    </g>
</svg>
