<?xml version="1.0" encoding="UTF-8" standalone="no"?>
<!DOCTYPE svg PUBLIC "-//W3C//DTD SVG 1.1//EN" "http://www.w3.org/Graphics/SVG/1.1/DTD/svg11.dtd">
<svg width="100%" height="100%" viewBox="0 0 727 69" version="1.1" xmlns="http://www.w3.org/2000/svg" xmlns:xlink="http://www.w3.org/1999/xlink" xml:space="preserve" xmlns:serif="http://www.serif.com/" style="fill-rule:evenodd;clip-rule:evenodd;stroke-linejoin:round;stroke-miterlimit:2;">
    <g transform="matrix(1,0,0,1,-1122.92,-621.78)">
        <g transform="matrix(8.33333,0,0,8.33333,0,0)">
            <g transform="matrix(1,0,0,1,142.977,81.8091)">
                <path d="M0,-6.246C0,-6.176 -0.105,-6.128 -0.316,-6.105C-0.48,-6.128 -0.691,-6.128 -0.949,-6.105L-1.195,-6.105C-1.313,-6.082 -1.547,-6.07 -1.898,-6.07C-2.227,-6.047 -2.473,-6.035 -2.637,-6.035C-2.496,-5.988 -2.379,-5.93 -2.285,-5.859C-2.192,-5.836 -2.133,-5.801 -2.109,-5.754C-2.086,-5.73 -2.063,-5.706 -2.039,-5.684L-2.004,-5.648C-2.004,-5.578 -2.027,-5.531 -2.074,-5.508L-2.109,-5.508C-2.133,-5.484 -2.157,-5.473 -2.18,-5.473C-2.25,-5.449 -2.309,-5.414 -2.355,-5.367C-2.403,-5.297 -2.449,-5.191 -2.496,-5.051C-2.543,-4.91 -2.579,-4.828 -2.602,-4.805L-1.828,-4.875C-1.781,-4.945 -1.7,-5.062 -1.582,-5.226C-1.535,-5.297 -1.5,-5.344 -1.477,-5.367C-1.289,-5.273 -1.125,-5.168 -0.984,-5.051C-0.727,-4.887 -0.598,-4.769 -0.598,-4.699C-0.598,-4.629 -0.633,-4.57 -0.703,-4.523C-0.773,-4.453 -0.856,-4.394 -0.949,-4.348C-0.949,-3.902 -0.937,-3.421 -0.914,-2.906C-0.914,-2.672 -0.902,-2.426 -0.879,-2.168L-0.879,-1.781C-0.856,-1.687 -0.867,-1.605 -0.914,-1.535C-0.914,-1.465 -1.032,-1.371 -1.266,-1.254C-1.289,-1.254 -1.313,-1.242 -1.336,-1.219C-1.477,-1.171 -1.57,-1.148 -1.617,-1.148C-1.687,-1.148 -1.723,-1.206 -1.723,-1.324L-1.723,-4.594C-1.84,-4.594 -2.145,-4.581 -2.637,-4.559C-3.082,-4.511 -3.434,-4.488 -3.691,-4.488C-3.645,-3.621 -3.645,-2.718 -3.691,-1.781L-3.691,-1.5C-3.691,-1.336 -3.774,-1.206 -3.938,-1.113C-4.078,-0.996 -4.207,-0.937 -4.324,-0.937C-4.395,-0.96 -4.43,-1.008 -4.43,-1.078L-4.43,-1.605C-4.407,-2.004 -4.395,-2.461 -4.395,-2.976L-4.395,-3.082C-4.372,-3.551 -4.383,-4.254 -4.43,-5.191C-4.407,-5.168 -4.359,-5.144 -4.289,-5.121C-4.196,-5.098 -4.043,-5.038 -3.832,-4.945C-3.809,-4.945 -3.774,-4.922 -3.727,-4.875C-3.633,-4.828 -3.563,-4.792 -3.516,-4.769L-3.305,-4.769C-3.282,-4.863 -3.234,-5.156 -3.164,-5.648C-3.141,-5.836 -3.117,-5.965 -3.094,-6.035L-3.656,-6C-3.891,-6 -4.231,-5.965 -4.676,-5.894C-4.746,-5.988 -4.816,-6.105 -4.887,-6.246C-4.699,-6.246 -4.372,-6.258 -3.902,-6.281C-3.691,-6.281 -3.328,-6.293 -2.813,-6.316C-2.25,-6.363 -1.805,-6.387 -1.477,-6.387L-1.441,-6.457C-1.371,-6.598 -1.219,-6.82 -0.984,-7.125C-0.797,-6.984 -0.527,-6.785 -0.176,-6.527C-0.035,-6.433 0.023,-6.339 0,-6.246M-0.527,0.258C-0.551,0.586 -0.68,0.762 -0.914,0.785C-1.125,0.808 -1.289,0.68 -1.406,0.399C-1.617,-0.046 -2.004,-0.445 -2.566,-0.797C-2.59,-0.797 -2.614,-0.809 -2.637,-0.832C-2.66,-0.832 -2.684,-0.844 -2.707,-0.867C-2.988,-0.141 -3.844,0.434 -5.273,0.856C-5.391,0.879 -5.461,0.879 -5.484,0.856C-5.508,0.808 -5.473,0.75 -5.379,0.68C-4.348,0.14 -3.715,-0.34 -3.48,-0.762C-3.199,-1.184 -3.071,-1.934 -3.094,-3.012C-3.094,-3.574 -3.106,-3.973 -3.129,-4.207C-2.777,-4.089 -2.543,-4.008 -2.426,-3.961C-2.192,-3.867 -2.074,-3.773 -2.074,-3.68C-2.074,-3.562 -2.157,-3.469 -2.32,-3.398C-2.32,-2.32 -2.426,-1.547 -2.637,-1.078C-2.566,-1.055 -2.52,-1.043 -2.496,-1.043C-1.957,-0.949 -1.512,-0.797 -1.16,-0.586C-0.738,-0.375 -0.527,-0.094 -0.527,0.258M-4.57,-3.047C-4.523,-2.976 -4.559,-2.906 -4.676,-2.836C-4.816,-2.718 -5.004,-2.59 -5.238,-2.449C-5.918,-2.027 -6.504,-1.605 -6.996,-1.184L-7.066,-1.113C-7.16,-0.996 -7.242,-0.914 -7.312,-0.867C-7.406,-0.89 -7.512,-0.96 -7.629,-1.078C-7.699,-1.148 -7.817,-1.277 -7.98,-1.465C-7.98,-1.488 -8.063,-1.582 -8.227,-1.746C-7.594,-1.91 -7.043,-2.109 -6.574,-2.344L-6.609,-4.523L-6.609,-5.473L-6.961,-5.437C-7.125,-5.414 -7.395,-5.379 -7.77,-5.332L-7.98,-5.719C-7.747,-5.719 -7.406,-5.73 -6.961,-5.754C-6.75,-5.754 -6.398,-5.766 -5.906,-5.789C-5.883,-5.859 -5.801,-6 -5.66,-6.211C-5.59,-6.304 -5.543,-6.374 -5.52,-6.422C-5.449,-6.374 -5.356,-6.304 -5.238,-6.211C-5.075,-6.07 -4.945,-5.965 -4.852,-5.894C-4.711,-5.801 -4.653,-5.719 -4.676,-5.648C-4.699,-5.578 -4.816,-5.543 -5.027,-5.543C-5.356,-5.543 -5.801,-5.519 -6.363,-5.473C-6.34,-5.473 -6.293,-5.46 -6.223,-5.437C-6.105,-5.414 -6,-5.367 -5.906,-5.297C-5.672,-5.226 -5.543,-5.144 -5.52,-5.051C-5.52,-4.957 -5.613,-4.863 -5.801,-4.769L-5.801,-2.625C-5.449,-2.766 -5.11,-2.894 -4.781,-3.012C-4.641,-3.082 -4.57,-3.094 -4.57,-3.047" style="fill:rgb(152,72,92);fill-rule:nonzero;"/>
            </g>
        </g>
        <g transform="matrix(8.33333,0,0,8.33333,0,0)">
            <g transform="matrix(1,0,0,1,150.064,81.7737)">
                <path d="M0,-5.859C-0.164,-5.859 -0.61,-5.836 -1.336,-5.789C-1.875,-5.765 -2.32,-5.741 -2.672,-5.718L-2.672,-4.242C-2.555,-4.265 -2.333,-4.277 -2.004,-4.277C-1.746,-4.3 -1.535,-4.312 -1.371,-4.312L-1.301,-4.312C-1.043,-4.335 -0.773,-4.382 -0.492,-4.453C-0.445,-4.429 -0.41,-4.382 -0.387,-4.312L-0.352,-4.136C-0.329,-4.113 -0.422,-4.101 -0.633,-4.101L-1.336,-4.031C-1.477,-4.031 -1.77,-4.019 -2.215,-3.996C-2.403,-3.972 -2.555,-3.961 -2.672,-3.961L-2.672,-2.519C-2.391,-2.566 -1.969,-2.589 -1.406,-2.589C-1.102,-2.612 -0.797,-2.66 -0.492,-2.73L-0.457,-2.695C-0.434,-2.648 -0.41,-2.612 -0.387,-2.589C-0.364,-2.519 -0.352,-2.461 -0.352,-2.414C-0.375,-2.39 -0.422,-2.379 -0.492,-2.379C-0.562,-2.355 -0.61,-2.343 -0.633,-2.343L-1.371,-2.308C-1.535,-2.308 -1.84,-2.296 -2.285,-2.273C-2.449,-2.25 -2.579,-2.238 -2.672,-2.238L-2.672,-0.48L0,-0.586L0,-5.859ZM1.301,-5.859C1.301,-5.765 1.23,-5.683 1.09,-5.613L1.02,-5.578L0.914,-5.472C0.914,-5.144 0.926,-4.629 0.949,-3.925L0.949,-2.66C0.949,-2.401 0.961,-2.062 0.984,-1.64C1.007,-1.171 1.02,-0.832 1.02,-0.621C1.02,-0.246 0.984,0.024 0.914,0.188C0.891,0.258 0.785,0.387 0.598,0.575C0.387,0.715 0.223,0.773 0.105,0.75C0.035,0.75 -0.012,0.703 -0.035,0.61C-0.035,0.516 -0.023,0.351 0,0.118L0,-0.304L-2.672,-0.164C-2.672,-0.093 -2.684,-0.023 -2.707,0.047C-2.754,0.235 -2.848,0.399 -2.988,0.539C-3.106,0.61 -3.199,0.668 -3.27,0.715C-3.363,0.738 -3.445,0.75 -3.516,0.75C-3.539,0.727 -3.551,0.692 -3.551,0.645L-3.551,0.118C-3.48,-0.726 -3.458,-1.336 -3.48,-1.711L-3.48,-2.449C-3.458,-2.847 -3.445,-3.082 -3.445,-3.152L-3.445,-5.472C-3.493,-5.871 -3.516,-6.246 -3.516,-6.597C-3.493,-6.597 -3.445,-6.574 -3.375,-6.527C-3.211,-6.457 -3.059,-6.398 -2.918,-6.351C-2.895,-6.328 -2.777,-6.257 -2.566,-6.14C-2.496,-6.093 -2.438,-6.058 -2.391,-6.035L0,-6.175C0.023,-6.198 0.093,-6.293 0.211,-6.457C0.258,-6.527 0.293,-6.585 0.316,-6.632C0.48,-6.539 0.703,-6.386 0.984,-6.175C1.195,-6.035 1.301,-5.929 1.301,-5.859" style="fill:rgb(152,72,92);fill-rule:nonzero;"/>
            </g>
        </g>
        <g transform="matrix(8.33333,0,0,8.33333,0,0)">
            <g transform="matrix(1,0,0,1,163.058,75.9139)">
                <path d="M0,5.45C0,5.497 -0.059,5.555 -0.176,5.626C-0.457,5.814 -0.738,6.071 -1.02,6.399C-1.043,6.422 -1.067,6.457 -1.09,6.505C-1.137,6.552 -1.184,6.598 -1.23,6.645C-1.254,6.668 -1.313,6.68 -1.406,6.68C-1.524,6.68 -1.735,6.657 -2.039,6.61C-1.828,6.657 -1.863,6.657 -2.145,6.61C-4.137,6.141 -5.754,5.38 -6.996,4.325C-7.184,4.7 -7.406,5.028 -7.664,5.309C-7.711,5.333 -7.758,5.38 -7.805,5.45C-7.875,5.497 -7.993,5.579 -8.156,5.696C-8.274,5.79 -8.355,5.837 -8.402,5.837L-8.438,5.837C-8.461,5.814 -8.426,5.731 -8.332,5.591C-8.191,5.427 -8.074,5.239 -7.98,5.028C-7.747,4.606 -7.582,4.184 -7.488,3.763C-7.395,3.411 -7.312,3.001 -7.242,2.532C-7.172,2.579 -7.079,2.637 -6.961,2.708C-6.82,2.778 -6.727,2.837 -6.68,2.884C-6.446,3.024 -6.328,3.13 -6.328,3.2C-6.328,3.27 -6.422,3.341 -6.609,3.411C-6.633,3.481 -6.68,3.599 -6.75,3.763C-6.797,3.903 -6.833,3.997 -6.855,4.044C-6.622,4.208 -6.398,4.36 -6.187,4.501L-6.187,3.833C-6.187,3.575 -6.2,2.977 -6.223,2.04C-6.692,2.063 -7.09,2.098 -7.418,2.145C-7.488,2.145 -7.629,2.158 -7.84,2.18C-7.98,2.204 -8.086,2.216 -8.156,2.216L-8.297,1.829L-7.875,1.829C-7.641,1.852 -7.5,1.852 -7.453,1.829C-7.336,1.806 -7.137,1.794 -6.855,1.794C-6.574,1.771 -6.363,1.759 -6.223,1.759L-6.223,0.704C-6.363,0.727 -6.516,0.739 -6.68,0.739C-6.727,0.739 -6.809,0.751 -6.926,0.774C-7.114,0.798 -7.277,0.822 -7.418,0.845C-7.441,0.798 -7.465,0.727 -7.488,0.634C-7.536,0.563 -7.571,0.505 -7.594,0.458L-6.223,0.458L-6.223,-0.14C-6.223,-0.187 -6.235,-0.55 -6.258,-1.23C-6.211,-1.206 -6.117,-1.171 -5.977,-1.124C-5.836,-1.077 -5.719,-1.042 -5.625,-1.019C-5.344,-0.948 -5.203,-0.866 -5.203,-0.773C-5.203,-0.725 -5.286,-0.632 -5.449,-0.491L-5.449,0.423C-5.379,0.423 -5.309,0.411 -5.238,0.388C-5.215,0.341 -5.168,0.27 -5.098,0.177C-5.004,0.036 -4.934,-0.07 -4.887,-0.14C-4.84,-0.092 -4.723,0.001 -4.535,0.141C-4.465,0.165 -4.418,0.189 -4.395,0.212C-4.254,0.352 -4.184,0.458 -4.184,0.528C-4.207,0.598 -4.324,0.634 -4.535,0.634C-4.676,0.634 -4.852,0.646 -5.062,0.669L-5.449,0.669L-5.449,1.723L-4.922,1.688C-4.899,1.665 -4.852,1.595 -4.781,1.477C-4.688,1.36 -4.618,1.255 -4.57,1.161C-4.523,1.184 -4.453,1.243 -4.359,1.337C-4.196,1.454 -4.055,1.56 -3.938,1.653L-3.938,1.231C-3.891,1.255 -3.809,1.302 -3.691,1.372C-3.551,1.419 -3.434,1.466 -3.34,1.512C-3.223,1.536 -3.094,1.606 -2.953,1.723L-2.461,1.688C-2.414,1.314 -2.379,0.774 -2.355,0.071C-2.426,0.095 -2.579,0.106 -2.813,0.106C-3,0.13 -3.152,0.141 -3.27,0.141C-3.317,0.165 -3.434,0.177 -3.621,0.177C-3.762,0.2 -3.879,0.212 -3.973,0.212L-4.184,-0.14C-3.902,-0.14 -3.645,-0.152 -3.41,-0.175C-3.036,-0.175 -2.695,-0.198 -2.391,-0.245L-2.039,-0.702C-1.992,-0.679 -1.922,-0.62 -1.828,-0.527C-1.687,-0.433 -1.582,-0.351 -1.512,-0.28C-1.301,-0.116 -1.195,0.024 -1.195,0.141C-1.195,0.212 -1.301,0.305 -1.512,0.423L-1.617,1.512L-1.582,1.583C-1.441,1.677 -1.371,1.747 -1.371,1.794C-1.371,1.864 -1.477,1.911 -1.687,1.934C-1.805,1.934 -2.004,1.947 -2.285,1.97C-2.59,1.97 -2.871,1.982 -3.129,2.005L-3.129,3.27L-3.164,3.411L-3.164,3.657C-3.164,3.821 -3.141,3.915 -3.094,3.938C-3.023,4.009 -2.871,4.044 -2.637,4.044C-2.403,4.044 -2.168,4.032 -1.934,4.009C-1.746,4.009 -1.605,3.973 -1.512,3.903C-1.395,3.833 -1.301,3.704 -1.23,3.516C-1.208,3.446 -1.172,3.341 -1.125,3.2C-1.102,3.107 -1.078,3.036 -1.055,2.989C-1.055,2.919 -1.02,2.778 -0.949,2.567C-0.926,2.52 -0.914,2.485 -0.914,2.462C-0.867,2.321 -0.832,2.251 -0.809,2.251C-0.762,2.251 -0.738,2.321 -0.738,2.462L-0.738,3.024C-0.738,3.399 -0.715,3.61 -0.668,3.657C-0.598,3.751 -0.504,3.856 -0.387,3.973C-0.364,4.161 -0.48,4.313 -0.738,4.43C-0.902,4.524 -1.102,4.583 -1.336,4.606C-1.875,4.7 -2.262,4.735 -2.496,4.712C-2.684,4.712 -2.883,4.7 -3.094,4.677L-3.305,4.677C-3.563,4.606 -3.727,4.513 -3.797,4.395C-3.867,4.325 -3.902,4.22 -3.902,4.079L-3.902,1.97L-4.113,1.97L-4.992,2.005L-5.801,2.04C-5.66,2.063 -5.555,2.098 -5.484,2.145C-5.321,2.216 -5.227,2.263 -5.203,2.286C-5.203,2.356 -5.227,2.415 -5.273,2.462C-5.344,2.485 -5.391,2.532 -5.414,2.602L-5.414,3.165L-5.238,3.165C-5.215,3.142 -5.191,3.107 -5.168,3.059C-5.075,2.896 -4.992,2.766 -4.922,2.673C-4.899,2.696 -4.84,2.743 -4.746,2.813C-4.629,2.907 -4.535,2.989 -4.465,3.059C-4.324,3.13 -4.254,3.212 -4.254,3.305C-4.254,3.376 -4.359,3.411 -4.57,3.411L-5.414,3.446L-5.449,4.817C-4.957,4.981 -4.407,5.122 -3.797,5.239C-3.023,5.357 -2.309,5.415 -1.652,5.415L-0.914,5.415C-0.75,5.415 -0.575,5.403 -0.387,5.38L-0.176,5.38C-0.059,5.38 0,5.403 0,5.45" style="fill:rgb(152,72,92);fill-rule:nonzero;"/>
            </g>
        </g>
        <g transform="matrix(8.33333,0,0,8.33333,0,0)">
            <g transform="matrix(1,0,0,1,172.361,76.4065)">
                <path d="M0,4.641C0,4.946 -0.105,5.145 -0.316,5.239C-0.457,5.262 -0.562,5.251 -0.633,5.203C-0.727,5.133 -0.797,5.04 -0.844,4.922C-0.961,4.477 -1.067,4.196 -1.16,4.079C-1.23,3.961 -1.324,3.868 -1.441,3.797C-1.465,3.774 -1.477,3.75 -1.477,3.727C-1.524,3.68 -1.547,3.645 -1.547,3.621L-1.336,3.621C-1.243,3.621 -1.125,3.657 -0.984,3.727C-0.703,3.797 -0.48,3.915 -0.316,4.079C-0.129,4.219 -0.023,4.407 0,4.641M-1.512,0.809L-3.094,0.914L-3.094,1.512L-2.496,1.512C-2.449,1.512 -2.391,1.5 -2.32,1.477C-2.157,1.454 -2.039,1.43 -1.969,1.407C-1.828,1.571 -1.77,1.665 -1.793,1.688C-1.793,1.735 -1.911,1.758 -2.145,1.758L-2.496,1.758C-2.73,1.782 -2.918,1.793 -3.059,1.793L-3.059,2.567L-1.547,2.461C-1.524,1.758 -1.512,1.208 -1.512,0.809M-3.164,3.762C-3.164,3.88 -3.188,3.996 -3.234,4.114C-3.305,4.372 -3.398,4.606 -3.516,4.817C-3.516,4.84 -3.528,4.852 -3.551,4.852C-3.621,4.97 -3.704,5.063 -3.797,5.133C-3.915,5.203 -4.043,5.239 -4.184,5.239C-4.395,5.216 -4.512,5.11 -4.535,4.922C-4.535,4.735 -4.465,4.583 -4.324,4.465C-4.231,4.418 -4.113,4.36 -3.973,4.289C-3.95,4.266 -3.915,4.243 -3.867,4.219C-3.75,4.172 -3.645,4.102 -3.551,4.008C-3.504,3.961 -3.445,3.891 -3.375,3.797C-3.398,3.821 -3.387,3.797 -3.34,3.727C-3.293,3.634 -3.258,3.586 -3.234,3.586C-3.188,3.586 -3.164,3.645 -3.164,3.762M-0.352,-0.668L-0.844,-0.668C-1.055,-0.644 -1.219,-0.632 -1.336,-0.632L-2.461,-0.562L-2.25,-0.457C-2.086,-0.409 -1.969,-0.363 -1.898,-0.316C-1.687,-0.222 -1.582,-0.14 -1.582,-0.07C-1.582,0 -1.676,0.059 -1.863,0.106C-1.887,0.153 -1.922,0.235 -1.969,0.352C-2.016,0.446 -2.051,0.528 -2.074,0.598C-2.004,0.598 -1.911,0.586 -1.793,0.563C-1.676,0.563 -1.594,0.551 -1.547,0.528C-1.477,0.457 -1.371,0.317 -1.23,0.106C-1.09,0.176 -0.926,0.282 -0.738,0.422C-0.527,0.563 -0.422,0.668 -0.422,0.739C-0.422,0.832 -0.527,0.938 -0.738,1.055C-0.762,1.524 -0.762,1.828 -0.738,1.969L-0.738,2.602C-0.738,2.72 -0.75,2.813 -0.773,2.883C-0.773,2.954 -0.821,3.024 -0.914,3.094C-1.008,3.141 -1.113,3.2 -1.23,3.27L-1.336,3.27C-1.383,3.293 -1.418,3.293 -1.441,3.27C-1.512,3.27 -1.547,3.235 -1.547,3.164L-1.547,2.743L-2.355,2.778C-1.911,2.942 -1.687,3.059 -1.687,3.129C-1.687,3.2 -1.77,3.282 -1.934,3.375L-1.934,4.114C-1.911,4.629 -1.898,5.016 -1.898,5.274C-1.898,5.485 -1.946,5.683 -2.039,5.871C-2.063,5.965 -2.133,6.047 -2.25,6.118C-2.368,6.211 -2.461,6.258 -2.531,6.258C-2.602,6.258 -2.684,6.164 -2.777,5.977C-2.871,5.766 -2.977,5.613 -3.094,5.52C-3.141,5.496 -3.211,5.461 -3.305,5.414C-3.328,5.391 -3.352,5.368 -3.375,5.344L-3.445,5.203C-3.445,5.157 -3.352,5.133 -3.164,5.133C-2.977,5.157 -2.871,5.168 -2.848,5.168C-2.777,5.168 -2.73,5.145 -2.707,5.098C-2.66,5.075 -2.637,4.993 -2.637,4.852L-2.637,2.778L-3.059,2.813C-3.059,2.907 -3.071,2.989 -3.094,3.059C-3.164,3.2 -3.293,3.305 -3.48,3.375C-3.551,3.399 -3.609,3.411 -3.656,3.411C-3.727,3.388 -3.762,3.305 -3.762,3.164C-3.739,2.625 -3.727,2.309 -3.727,2.215L-3.727,1.161C-3.727,1.114 -3.739,1.008 -3.762,0.844C-3.785,0.61 -3.809,0.411 -3.832,0.246C-3.574,0.317 -3.375,0.387 -3.234,0.457C-3.141,0.481 -3.023,0.54 -2.883,0.633L-2.707,0.633C-2.637,0.422 -2.59,0.211 -2.566,0C-2.566,-0.07 -2.555,-0.175 -2.531,-0.316L-2.531,-0.562L-4.148,-0.492C-4.148,0.375 -4.161,1.078 -4.184,1.618C-4.254,2.321 -4.324,2.883 -4.395,3.305C-4.512,3.727 -4.676,4.137 -4.887,4.536C-5.121,4.934 -5.414,5.274 -5.766,5.555C-5.836,5.625 -5.895,5.648 -5.941,5.625C-5.965,5.578 -5.941,5.496 -5.871,5.379C-5.309,4.465 -4.98,3.247 -4.887,1.723C-4.864,1.161 -4.852,0.598 -4.852,0.036L-4.852,-0.175C-4.875,-0.55 -4.899,-0.89 -4.922,-1.195C-4.781,-1.171 -4.594,-1.101 -4.359,-0.984C-4.196,-0.937 -4.055,-0.866 -3.938,-0.773C-2.766,-0.82 -1.934,-0.855 -1.441,-0.879L-1.02,-1.617C-0.973,-1.569 -0.879,-1.499 -0.738,-1.406C-0.527,-1.265 -0.352,-1.136 -0.211,-1.019C-0.094,-0.925 -0.035,-0.843 -0.035,-0.773C-0.035,-0.703 -0.141,-0.668 -0.352,-0.668M-5.344,-0.562C-5.344,-0.421 -5.391,-0.281 -5.484,-0.14C-5.578,-0.023 -5.719,0.036 -5.906,0.036C-6.07,0.036 -6.187,-0.046 -6.258,-0.211C-6.281,-0.257 -6.305,-0.328 -6.328,-0.421C-6.375,-0.515 -6.411,-0.585 -6.434,-0.632C-6.434,-0.75 -6.457,-0.855 -6.504,-0.949C-6.527,-1.019 -6.574,-1.089 -6.645,-1.16C-6.762,-1.277 -6.809,-1.336 -6.785,-1.336C-6.785,-1.406 -6.68,-1.418 -6.469,-1.371C-6.117,-1.371 -5.848,-1.288 -5.66,-1.125C-5.449,-0.961 -5.344,-0.773 -5.344,-0.562M-5.273,0.703C-5.297,0.821 -5.344,1.02 -5.414,1.301C-5.508,1.723 -5.578,2.075 -5.625,2.356C-5.813,3.27 -5.977,4.02 -6.117,4.606L-6.293,5.555C-6.34,5.766 -6.422,5.859 -6.539,5.836C-6.609,5.836 -6.762,5.766 -6.996,5.625C-7.043,5.602 -7.125,5.555 -7.242,5.485C-7.336,5.391 -7.418,5.332 -7.488,5.309C-7.348,5.098 -7.172,4.805 -6.961,4.43C-6.797,4.149 -6.551,3.563 -6.223,2.672C-6.129,2.461 -6.059,2.298 -6.012,2.18C-5.965,2.063 -5.883,1.852 -5.766,1.547C-5.625,1.196 -5.52,0.914 -5.449,0.703C-5.379,0.493 -5.321,0.399 -5.273,0.422C-5.227,0.422 -5.227,0.516 -5.273,0.703M-6.082,1.301C-6.082,1.442 -6.129,1.571 -6.223,1.688C-6.316,1.806 -6.446,1.864 -6.609,1.864C-6.82,1.864 -6.949,1.77 -6.996,1.582C-7.114,1.278 -7.254,1.055 -7.418,0.914C-7.582,0.797 -7.652,0.716 -7.629,0.668C-7.629,0.621 -7.477,0.61 -7.172,0.633C-6.446,0.633 -6.082,0.856 -6.082,1.301" style="fill:rgb(152,72,92);fill-rule:nonzero;"/>
            </g>
        </g>
        <g transform="matrix(8.33333,0,0,8.33333,0,0)">
            <g transform="matrix(1,0,0,1,181.171,79.8743)">
                <path d="M0,-2.483C-0.141,-2.483 -0.48,-2.471 -1.02,-2.448C-1.208,-2.424 -1.348,-2.413 -1.441,-2.413C-1.395,-1.71 -1.359,-0.69 -1.336,0.646C-1.102,0.646 -0.703,0.623 -0.141,0.576C-0.141,0.412 -0.129,0.107 -0.105,-0.338C-0.059,-1.229 -0.023,-1.943 0,-2.483M1.301,0.681C1.277,0.751 1.148,0.799 0.914,0.822C0.75,0.822 0.55,0.834 0.316,0.857L0.035,0.857C-0.083,0.88 -0.305,0.892 -0.633,0.892C-0.914,0.915 -1.137,0.927 -1.301,0.927L-1.301,1.033C-1.278,1.337 -1.336,1.56 -1.477,1.701C-1.547,1.771 -1.652,1.841 -1.793,1.912L-1.828,1.912C-1.946,1.959 -2.039,1.97 -2.109,1.947C-2.157,1.924 -2.18,1.841 -2.18,1.701C-2.157,1.537 -2.145,1.314 -2.145,1.033L-2.145,-0.831C-2.145,-0.901 -2.157,-1.018 -2.18,-1.182C-2.203,-1.486 -2.215,-1.78 -2.215,-2.061C-2.238,-2.014 -2.355,-1.991 -2.566,-1.991C-2.871,-1.991 -3.176,-1.979 -3.48,-1.956L-3.727,-1.956L-3.727,-1.428C-3.609,-1.405 -3.504,-1.37 -3.41,-1.323C-2.801,-1.088 -2.484,-0.76 -2.461,-0.338C-2.461,-0.15 -2.508,0.013 -2.602,0.154C-2.719,0.294 -2.848,0.342 -2.988,0.294C-3.199,0.271 -3.317,0.166 -3.34,-0.022C-3.34,-0.092 -3.352,-0.233 -3.375,-0.444C-3.422,-0.725 -3.539,-0.959 -3.727,-1.147L-3.727,0.33C-3.727,0.377 -3.715,0.716 -3.691,1.349L-3.691,1.912C-3.715,1.959 -3.762,2.04 -3.832,2.158C-3.879,2.204 -3.915,2.24 -3.938,2.263C-3.961,2.263 -3.985,2.286 -4.008,2.333C-4.078,2.38 -4.184,2.439 -4.324,2.509C-4.465,2.579 -4.559,2.602 -4.605,2.579C-4.653,2.532 -4.676,2.474 -4.676,2.404C-4.653,2.356 -4.641,2.275 -4.641,2.158C-4.618,2.064 -4.605,1.994 -4.605,1.947C-4.605,1.853 -4.594,1.689 -4.57,1.455C-4.523,1.103 -4.488,0.822 -4.465,0.611C-4.442,0.189 -4.407,-0.291 -4.359,-0.831L-4.359,-0.971C-4.758,-0.361 -5.238,0.177 -5.801,0.646C-6.012,0.81 -6.246,0.962 -6.504,1.103L-6.68,1.173C-6.703,1.126 -6.68,1.068 -6.609,0.997C-6,0.482 -5.449,-0.233 -4.957,-1.147C-4.887,-1.24 -4.781,-1.451 -4.641,-1.78C-4.758,-1.546 -4.746,-1.581 -4.605,-1.885C-4.934,-1.862 -5.203,-1.827 -5.414,-1.78C-5.484,-1.78 -5.613,-1.768 -5.801,-1.745C-6.012,-1.697 -6.176,-1.674 -6.293,-1.674C-6.363,-1.745 -6.434,-1.873 -6.504,-2.061C-6.27,-2.061 -5.941,-2.073 -5.52,-2.096L-4.465,-2.167L-4.465,-3.643C-4.488,-3.643 -4.547,-3.631 -4.641,-3.608C-4.711,-3.585 -4.77,-3.561 -4.816,-3.538C-5.098,-3.467 -5.402,-3.42 -5.73,-3.397C-5.895,-3.397 -5.989,-3.409 -6.012,-3.432C-6.012,-3.479 -5.93,-3.538 -5.766,-3.608C-5.743,-3.608 -5.719,-3.62 -5.695,-3.643C-5.648,-3.643 -5.52,-3.69 -5.309,-3.784C-4.395,-4.158 -3.704,-4.592 -3.234,-5.085C-3.094,-4.944 -2.918,-4.733 -2.707,-4.452C-2.614,-4.334 -2.566,-4.253 -2.566,-4.206C-2.566,-4.135 -2.625,-4.088 -2.742,-4.065C-2.79,-4.065 -2.883,-4.077 -3.023,-4.1C-3.094,-4.053 -3.317,-3.971 -3.691,-3.854C-3.832,-3.831 -3.95,-3.795 -4.043,-3.749C-3.879,-3.725 -3.762,-3.69 -3.691,-3.643C-3.551,-3.573 -3.48,-3.503 -3.48,-3.432C-3.48,-3.362 -3.563,-3.268 -3.727,-3.151L-3.727,-2.237L-3.551,-2.237C-3.528,-2.284 -3.458,-2.4 -3.34,-2.588C-3.247,-2.729 -3.176,-2.835 -3.129,-2.905C-2.801,-2.694 -2.555,-2.518 -2.391,-2.378L-2.355,-2.342C-2.355,-2.319 -2.32,-2.284 -2.25,-2.237C-2.273,-2.378 -2.309,-2.694 -2.355,-3.186C-2.215,-3.163 -2.004,-3.081 -1.723,-2.94C-1.512,-2.87 -1.324,-2.787 -1.16,-2.694L-0.105,-2.764L0.246,-3.256C0.269,-3.233 0.304,-3.209 0.352,-3.186C0.422,-3.139 0.598,-2.998 0.879,-2.764C1.09,-2.6 1.195,-2.471 1.195,-2.378C1.195,-2.33 1.16,-2.284 1.09,-2.237C1.066,-2.213 1.042,-2.202 1.02,-2.202C0.972,-2.178 0.914,-2.131 0.844,-2.061C0.844,-1.967 0.832,-1.827 0.809,-1.639C0.809,-1.358 0.773,-0.796 0.703,0.048C0.726,0.072 0.773,0.107 0.844,0.154C0.937,0.224 1.02,0.294 1.09,0.365C1.23,0.529 1.301,0.634 1.301,0.681" style="fill:rgb(152,72,92);fill-rule:nonzero;"/>
            </g>
        </g>
        <g transform="matrix(8.33333,0,0,8.33333,0,0)">
            <g transform="matrix(1,0,0,1,189.207,81.2936)">
                <path d="M0,-5.168C-0.07,-4.816 -0.246,-4.628 -0.527,-4.606C-0.738,-4.606 -0.867,-4.699 -0.914,-4.887C-0.914,-4.957 -0.926,-5.039 -0.949,-5.133C-0.973,-5.25 -0.997,-5.332 -1.02,-5.379C-1.043,-5.707 -1.113,-5.929 -1.23,-6.047C-1.348,-6.234 -1.406,-6.34 -1.406,-6.363C-1.336,-6.434 -1.113,-6.363 -0.738,-6.152C-0.527,-6.059 -0.364,-5.918 -0.246,-5.73C-0.083,-5.52 0,-5.332 0,-5.168M3.305,-1.652C3.305,-1.582 3.211,-1.535 3.023,-1.512C2.789,-1.512 2.438,-1.5 1.969,-1.477C1.734,-1.477 1.301,-1.464 0.668,-1.441C0.691,-1.277 0.703,-0.926 0.703,-0.387C0.726,0.059 0.738,0.41 0.738,0.668C0.738,0.855 0.656,1.031 0.492,1.195C0.304,1.406 0.105,1.512 -0.105,1.512C-0.176,1.488 -0.223,1.429 -0.246,1.336C-0.246,1.312 -0.234,1.23 -0.211,1.09C-0.211,0.902 -0.199,0.633 -0.176,0.281L-0.176,-0.281C-0.153,-0.726 -0.141,-1.09 -0.141,-1.371L-1.266,-1.301C-1.406,-1.301 -1.617,-1.289 -1.898,-1.266C-1.969,-1.242 -2.027,-1.23 -2.074,-1.23C-2.145,-1.324 -2.203,-1.441 -2.25,-1.582L-1.898,-1.582C-1.594,-1.605 -1.348,-1.617 -1.16,-1.617L-0.141,-1.652L-0.141,-2.813C-0.211,-2.813 -0.352,-2.8 -0.562,-2.777C-0.961,-2.73 -1.266,-2.695 -1.477,-2.672C-1.547,-2.765 -1.617,-2.895 -1.687,-3.059L-0.949,-3.059C-0.715,-3.059 -0.445,-3.07 -0.141,-3.094L-0.141,-3.727C-0.164,-3.914 -0.176,-4.066 -0.176,-4.184C-0.316,-4.184 -0.492,-4.171 -0.703,-4.148L-1.02,-4.148C-1.113,-4.148 -1.266,-4.136 -1.477,-4.113C-1.57,-4.09 -1.652,-4.078 -1.723,-4.078C-1.746,-4.125 -1.77,-4.184 -1.793,-4.254C-1.84,-4.347 -1.875,-4.406 -1.898,-4.43L-1.09,-4.43C-0.973,-4.453 -0.738,-4.465 -0.387,-4.465C-0.083,-4.488 0.164,-4.5 0.352,-4.5C0.492,-4.828 0.656,-5.285 0.844,-5.871C0.961,-6.223 1.031,-6.492 1.055,-6.68C1.102,-6.656 1.218,-6.586 1.406,-6.469C1.547,-6.375 1.664,-6.305 1.758,-6.258C2.039,-6.094 2.167,-5.953 2.145,-5.836C2.121,-5.742 1.98,-5.672 1.723,-5.625C1.512,-5.32 1.242,-4.98 0.914,-4.606C0.937,-4.628 0.926,-4.606 0.879,-4.535L1.758,-4.57C1.805,-4.688 1.934,-4.898 2.145,-5.203C2.285,-5.133 2.473,-4.992 2.707,-4.781C2.895,-4.641 2.988,-4.535 2.988,-4.465C2.988,-4.395 2.883,-4.347 2.672,-4.324C2.578,-4.324 2.285,-4.312 1.793,-4.289C1.582,-4.289 1.195,-4.266 0.633,-4.219L0.387,-4.219C0.504,-4.171 0.598,-4.148 0.668,-4.148C0.832,-4.101 0.914,-4.043 0.914,-3.973C0.914,-3.879 0.82,-3.785 0.633,-3.691L0.633,-3.129L1.301,-3.164C1.324,-3.211 1.359,-3.281 1.406,-3.375C1.523,-3.563 1.605,-3.714 1.652,-3.832C1.886,-3.691 2.109,-3.527 2.32,-3.34C2.508,-3.176 2.578,-3.082 2.531,-3.059C2.531,-2.988 2.414,-2.953 2.18,-2.953C2.086,-2.93 1.934,-2.918 1.723,-2.918C1.559,-2.895 1.418,-2.883 1.301,-2.883C1.16,-2.883 0.937,-2.871 0.633,-2.848C0.633,-2.589 0.645,-2.215 0.668,-1.723L1.969,-1.758C2.039,-1.875 2.18,-2.121 2.391,-2.496C2.461,-2.426 2.602,-2.308 2.813,-2.145C2.906,-2.097 2.976,-2.051 3.023,-2.004C3.234,-1.84 3.328,-1.723 3.305,-1.652M-2.391,-5.203C-2.391,-5.015 -2.438,-4.875 -2.531,-4.781C-2.672,-4.641 -2.813,-4.57 -2.953,-4.57C-3.117,-4.547 -3.247,-4.593 -3.34,-4.711C-3.387,-4.804 -3.434,-4.957 -3.48,-5.168C-3.48,-5.379 -3.539,-5.555 -3.656,-5.695C-3.727,-5.813 -3.785,-5.871 -3.832,-5.871C-3.902,-5.941 -3.926,-6 -3.902,-6.047C-3.902,-6.094 -3.832,-6.094 -3.691,-6.047L-3.34,-6.047C-3.293,-6.023 -3.234,-6 -3.164,-5.977C-3.071,-5.977 -2.965,-5.941 -2.848,-5.871C-2.566,-5.707 -2.414,-5.484 -2.391,-5.203M-1.969,-1.09C-1.828,-1.16 -1.746,-1.183 -1.723,-1.16C-1.676,-1.113 -1.7,-1.031 -1.793,-0.914C-1.793,-0.937 -1.805,-0.926 -1.828,-0.879C-2.227,-0.387 -2.531,0.012 -2.742,0.316C-2.766,0.364 -2.801,0.422 -2.848,0.492C-2.895,0.585 -2.93,0.656 -2.953,0.703C-3,0.82 -3.059,0.879 -3.129,0.879C-3.152,0.902 -3.258,0.844 -3.445,0.703C-3.633,0.492 -3.785,0.316 -3.902,0.176C-3.621,-0.012 -3.493,-0.246 -3.516,-0.527L-3.48,-3.234C-3.926,-3.187 -4.312,-3.129 -4.641,-3.059C-4.641,-3.082 -4.664,-3.129 -4.711,-3.199C-4.734,-3.316 -4.758,-3.398 -4.781,-3.445C-4.594,-3.422 -4.312,-3.422 -3.938,-3.445C-3.727,-3.468 -3.586,-3.481 -3.516,-3.481L-3.199,-3.902C-3.176,-3.879 -3.141,-3.855 -3.094,-3.832C-2.906,-3.691 -2.766,-3.574 -2.672,-3.481C-2.508,-3.363 -2.426,-3.27 -2.426,-3.199C-2.426,-3.082 -2.531,-2.988 -2.742,-2.918L-2.742,-0.563C-2.508,-0.703 -2.25,-0.879 -1.969,-1.09" style="fill:rgb(152,72,92);fill-rule:nonzero;"/>
            </g>
        </g>
        <g transform="matrix(8.33333,0,0,8.33333,0,0)">
            <g transform="matrix(1,0,0,1,200.9,80.9534)">
                <path d="M0,-4.652C-0.141,-4.652 -0.399,-4.629 -0.773,-4.582L-0.773,-2.543C-0.68,-2.543 -0.527,-2.578 -0.316,-2.648L-0.211,-2.472C-0.211,-2.449 -0.199,-2.425 -0.176,-2.402C-0.153,-2.355 -0.153,-2.319 -0.176,-2.297C-0.176,-2.273 -0.27,-2.261 -0.457,-2.261C-0.598,-2.238 -0.703,-2.226 -0.773,-2.226L-0.773,0.164L0,0.094L0,-4.652ZM-1.512,-2.191C-1.676,-2.191 -1.84,-2.179 -2.004,-2.156L-2.109,-2.472C-1.828,-2.472 -1.629,-2.484 -1.512,-2.507L-1.512,-4.582L-2.215,-4.547L-2.215,0.235L-1.512,0.2L-1.512,-2.191ZM1.195,-4.687C1.195,-4.617 1.078,-4.511 0.844,-4.371C0.82,-3.386 0.82,-2.613 0.844,-2.05C0.844,-1.394 0.855,-0.878 0.879,-0.504C0.879,-0.433 0.891,-0.316 0.914,-0.152C0.937,0.223 0.937,0.469 0.914,0.586C0.867,0.821 0.75,1.008 0.562,1.149C0.492,1.219 0.422,1.277 0.352,1.325C0.211,1.395 0.117,1.418 0.07,1.395C0.023,1.371 0,1.266 0,1.078L0,0.446L-2.25,0.551C-2.25,0.856 -2.355,1.078 -2.566,1.219C-2.73,1.407 -2.883,1.477 -3.023,1.43C-3.047,1.407 -3.059,1.348 -3.059,1.254L-3.059,0.938C-3.036,0.563 -3.012,-0.011 -2.988,-0.785C-2.965,-1.254 -2.953,-1.558 -2.953,-1.699L-2.953,-3.914C-2.953,-4.359 -2.977,-4.828 -3.023,-5.32C-2.93,-5.25 -2.742,-5.167 -2.461,-5.074C-2.297,-5.004 -2.145,-4.921 -2.004,-4.828L-0.105,-4.933L0.246,-5.496C0.598,-5.261 0.832,-5.109 0.949,-5.039C1.042,-4.945 1.102,-4.886 1.125,-4.863C1.172,-4.816 1.195,-4.757 1.195,-4.687M-3.375,-0.363C-3.493,-0.293 -3.704,-0.175 -4.008,-0.011C-4.523,0.27 -4.875,0.469 -5.062,0.586C-5.11,0.61 -5.156,0.645 -5.203,0.692C-5.297,0.739 -5.367,0.785 -5.414,0.832C-5.461,0.903 -5.532,0.961 -5.625,1.008C-5.602,1.008 -5.613,1.02 -5.66,1.043C-5.73,1.066 -5.836,0.973 -5.977,0.762C-6,0.739 -6.035,0.68 -6.082,0.586C-6.176,0.469 -6.246,0.364 -6.293,0.27C-5.754,0.177 -4.816,-0.105 -3.48,-0.574C-3.27,-0.644 -3.164,-0.656 -3.164,-0.609C-3.117,-0.539 -3.188,-0.456 -3.375,-0.363M-3.34,-3.597C-4.066,-2.66 -4.688,-1.957 -5.203,-1.488C-4.805,-1.558 -4.242,-1.629 -3.516,-1.699C-3.375,-1.746 -3.293,-1.746 -3.27,-1.699C-3.247,-1.629 -3.317,-1.57 -3.48,-1.523C-4.418,-1.148 -4.992,-0.913 -5.203,-0.82C-5.297,-0.75 -5.449,-0.691 -5.66,-0.644C-5.73,-0.621 -5.801,-0.702 -5.871,-0.89C-5.895,-0.913 -5.918,-0.948 -5.941,-0.996C-6.035,-1.159 -6.094,-1.3 -6.117,-1.418C-5.859,-1.488 -5.613,-1.664 -5.379,-1.945C-5.051,-2.319 -4.77,-2.718 -4.535,-3.14C-4.605,-3.117 -4.711,-3.07 -4.852,-3C-5.156,-2.859 -5.367,-2.765 -5.484,-2.718C-5.532,-2.718 -5.59,-2.695 -5.66,-2.648C-5.754,-2.601 -5.836,-2.566 -5.906,-2.543C-6,-2.519 -6.082,-2.601 -6.152,-2.789C-6.176,-2.836 -6.211,-2.917 -6.258,-3.035C-6.328,-3.152 -6.375,-3.246 -6.398,-3.316C-6.07,-3.409 -5.824,-3.585 -5.66,-3.843C-5.356,-4.359 -5.098,-4.898 -4.887,-5.461C-4.816,-5.718 -4.746,-5.941 -4.676,-6.129C-4.395,-5.941 -4.172,-5.765 -4.008,-5.601C-3.867,-5.484 -3.797,-5.39 -3.797,-5.32C-3.797,-5.226 -3.915,-5.156 -4.148,-5.109C-4.734,-4.242 -5.191,-3.655 -5.52,-3.351C-5.426,-3.374 -5.227,-3.386 -4.922,-3.386C-4.664,-3.409 -4.465,-3.422 -4.324,-3.422C-4.301,-3.468 -4.266,-3.527 -4.219,-3.597C-4.196,-3.691 -4.172,-3.75 -4.148,-3.773C-4.055,-3.961 -3.95,-4.23 -3.832,-4.582C-3.809,-4.558 -3.785,-4.534 -3.762,-4.511C-3.48,-4.323 -3.293,-4.172 -3.199,-4.054C-3.059,-3.937 -3,-3.843 -3.023,-3.773C-3,-3.703 -3.106,-3.644 -3.34,-3.597" style="fill:rgb(152,72,92);fill-rule:nonzero;"/>
            </g>
        </g>
        <g transform="matrix(8.33333,0,0,8.33333,0,0)">
            <g transform="matrix(1,0,0,1,209.816,79.2657)">
                <path d="M0,-1.101C0,-1.031 -0.105,-0.937 -0.316,-0.82L-0.316,0.094C-0.293,0.469 -0.281,0.774 -0.281,1.008C-0.281,1.243 -0.27,1.548 -0.246,1.922L-0.246,2.379C-0.246,2.661 -0.293,2.859 -0.387,2.977C-0.41,3 -0.434,3.024 -0.457,3.047C-0.598,3.188 -0.715,3.281 -0.809,3.329C-0.926,3.399 -1.02,3.422 -1.09,3.399C-1.184,3.399 -1.23,3.305 -1.23,3.118C-1.208,3.047 -1.195,2.895 -1.195,2.661C-1.172,2.497 -1.16,2.357 -1.16,2.239L-1.16,-0.82C-1.16,-1.031 -1.172,-1.324 -1.195,-1.699C-1.172,-1.699 -1.125,-1.686 -1.055,-1.663C-0.937,-1.64 -0.715,-1.558 -0.387,-1.417C-0.129,-1.324 0,-1.218 0,-1.101M2.637,-1.171C2.637,-1.124 2.554,-1.066 2.391,-0.996C2.18,-0.948 1.945,-0.808 1.687,-0.574C1.617,-0.55 1.559,-0.515 1.512,-0.468C1.441,-0.398 1.371,-0.363 1.301,-0.363C1.183,-0.386 1.02,-0.468 0.809,-0.609C0.339,-0.937 -0.094,-1.347 -0.492,-1.839C-0.773,-2.191 -1.125,-2.683 -1.547,-3.316C-1.828,-2.847 -2.086,-2.472 -2.32,-2.191L-2.566,-1.945C-2.754,-1.734 -2.918,-1.57 -3.059,-1.453C-2.965,-1.429 -2.813,-1.394 -2.602,-1.347C-2.484,-1.3 -2.391,-1.265 -2.32,-1.242L-2.109,-1.136C-2.063,-1.089 -2.027,-1.066 -2.004,-1.066C-1.911,-1.018 -1.863,-0.972 -1.863,-0.925C-1.863,-0.855 -1.911,-0.772 -2.004,-0.679C-2.074,-0.656 -2.133,-0.621 -2.18,-0.574C-2.203,0.012 -2.262,0.469 -2.355,0.797C-2.496,1.36 -2.684,1.805 -2.918,2.133C-3.387,2.743 -3.973,3.176 -4.676,3.434C-4.816,3.504 -4.899,3.516 -4.922,3.469C-4.945,3.469 -4.957,3.457 -4.957,3.434C-4.957,3.411 -4.899,3.34 -4.781,3.223C-4.266,2.824 -3.915,2.473 -3.727,2.169C-3.445,1.747 -3.247,1.232 -3.129,0.622C-3.082,0.388 -3.059,-0.058 -3.059,-0.714C-3.059,-0.785 -3.071,-0.913 -3.094,-1.101C-3.117,-1.218 -3.129,-1.312 -3.129,-1.382C-3.528,-0.983 -4.031,-0.644 -4.641,-0.363C-4.852,-0.269 -5.145,-0.152 -5.52,-0.011C-5.637,0.012 -5.695,-0.011 -5.695,-0.081C-5.719,-0.104 -5.684,-0.14 -5.59,-0.187C-5.684,-0.14 -5.672,-0.152 -5.555,-0.222C-5.461,-0.269 -5.297,-0.363 -5.062,-0.503C-4.969,-0.574 -4.887,-0.632 -4.816,-0.679C-3.996,-1.288 -3.375,-1.921 -2.953,-2.578C-2.813,-2.765 -2.614,-3.117 -2.355,-3.632C-2.309,-3.749 -2.273,-3.831 -2.25,-3.878C-2.25,-3.925 -2.168,-4.171 -2.004,-4.617C-1.934,-4.593 -1.793,-4.511 -1.582,-4.371C-1.489,-4.3 -1.418,-4.253 -1.371,-4.23C-1.348,-4.206 -1.289,-4.16 -1.195,-4.089C-1.243,-4.136 -1.219,-4.124 -1.125,-4.054C-1.055,-4.007 -1.02,-3.949 -1.02,-3.878C-1.043,-3.831 -1.16,-3.785 -1.371,-3.738L-1.406,-3.632C-0.773,-2.859 -0.059,-2.273 0.738,-1.874C1.348,-1.593 1.898,-1.394 2.391,-1.277C2.531,-1.253 2.613,-1.218 2.637,-1.171" style="fill:rgb(152,72,92);fill-rule:nonzero;"/>
            </g>
        </g>
        <g transform="matrix(8.33333,0,0,8.33333,0,0)">
            <g transform="matrix(1,0,0,1,220.455,78.1168)">
                <path d="M0,1.419C-0.375,1.442 -0.949,1.478 -1.723,1.524C-1.723,1.712 -1.711,2.11 -1.687,2.72C-1.665,2.954 -1.652,3.142 -1.652,3.282C-1.02,3.235 -0.492,3.2 -0.07,3.177L0,1.419ZM1.441,-2.097C1.441,-2.026 1.289,-1.933 0.984,-1.815C0.937,-1.394 0.879,-1.065 0.809,-0.831C0.761,-0.573 0.691,-0.291 0.598,0.013C0.574,0.036 0.562,0.06 0.562,0.083C0.469,0.294 0.352,0.447 0.211,0.54C0.023,0.658 -0.105,0.716 -0.176,0.716C-0.246,0.716 -0.293,0.693 -0.316,0.646C-0.316,0.623 -0.329,0.587 -0.352,0.54C-0.375,0.517 -0.399,0.493 -0.422,0.47C-0.516,0.282 -0.656,0.13 -0.844,0.013C-0.867,0.013 -0.891,0.001 -0.914,-0.022C-1.055,-0.14 -1.113,-0.221 -1.09,-0.268C-1.067,-0.315 -0.984,-0.315 -0.844,-0.268C-0.61,-0.268 -0.492,-0.256 -0.492,-0.233C-0.329,-0.256 -0.223,-0.315 -0.176,-0.409C-0.105,-0.573 -0.035,-0.831 0.035,-1.183C0.058,-1.253 0.082,-1.452 0.105,-1.78C0.128,-1.991 0.152,-2.155 0.176,-2.272C0.058,-2.272 -0.141,-2.26 -0.422,-2.237C-0.984,-2.19 -1.441,-2.155 -1.793,-2.132C-1.863,-2.132 -1.957,-2.12 -2.074,-2.097C-2.333,-2.097 -2.52,-2.073 -2.637,-2.026L-2.848,-2.413L-1.863,-2.413C-1.746,-2.413 -1.512,-2.425 -1.16,-2.448C-0.598,-2.495 -0.141,-2.53 0.211,-2.554L0.562,-2.94C0.796,-2.8 0.996,-2.647 1.16,-2.483C1.23,-2.413 1.301,-2.354 1.371,-2.308C1.441,-2.237 1.464,-2.167 1.441,-2.097M1.23,1.419C1.277,1.466 1.242,1.524 1.125,1.595L1.055,1.63C1.031,1.63 0.972,1.665 0.879,1.735L0.809,2.896C1.042,3.106 1.16,3.259 1.16,3.353C1.137,3.423 1.031,3.458 0.844,3.458C0.75,3.458 0.422,3.47 -0.141,3.493L-1.652,3.564L-1.652,4.021C-1.676,4.184 -1.735,4.314 -1.828,4.407C-1.969,4.524 -2.086,4.595 -2.18,4.618C-2.297,4.689 -2.391,4.711 -2.461,4.689C-2.508,4.665 -2.52,4.606 -2.496,4.513L-2.496,4.196C-2.496,4.126 -2.484,4.056 -2.461,3.985L-2.461,2.439C-2.461,1.759 -2.484,1.278 -2.531,0.997C-2.649,1.091 -2.777,1.196 -2.918,1.314C-3.036,1.384 -3.129,1.419 -3.199,1.419C-3.223,1.419 -3.234,1.407 -3.234,1.384C-3.234,1.337 -3.188,1.267 -3.094,1.173C-2.672,0.681 -2.32,0.153 -2.039,-0.409C-2.016,-0.479 -1.969,-0.573 -1.898,-0.69C-1.828,-0.854 -1.758,-1.065 -1.687,-1.323C-1.687,-1.37 -1.665,-1.452 -1.617,-1.569C-1.594,-1.757 -1.57,-1.909 -1.547,-2.026C-1.454,-2.003 -1.313,-1.933 -1.125,-1.815C-1.032,-1.745 -0.961,-1.698 -0.914,-1.675C-0.68,-1.511 -0.562,-1.381 -0.562,-1.288C-0.562,-1.265 -0.61,-1.229 -0.703,-1.183C-0.773,-1.159 -0.844,-1.124 -0.914,-1.077C-1.383,-0.163 -1.863,0.482 -2.355,0.857C-2.309,0.88 -2.227,0.927 -2.109,0.997C-1.969,1.044 -1.852,1.091 -1.758,1.138C-1.711,1.161 -1.652,1.185 -1.582,1.208C-1.535,1.208 -1.512,1.22 -1.512,1.243C-1.418,1.243 -1.278,1.232 -1.09,1.208C-0.738,1.185 -0.387,1.173 -0.035,1.173L0.352,0.681C0.375,0.704 0.434,0.739 0.527,0.786C0.645,0.88 0.75,0.95 0.844,0.997L1.055,1.208L1.125,1.243C1.195,1.314 1.23,1.372 1.23,1.419M-2.742,-0.901C-2.766,-0.831 -2.895,-0.784 -3.129,-0.761C-3.645,-0.058 -4.266,0.623 -4.992,1.278C-4.5,1.208 -3.973,1.115 -3.41,0.997C-3.223,0.95 -3.117,0.962 -3.094,1.032C-3.071,1.08 -3.164,1.15 -3.375,1.243C-4.078,1.524 -4.618,1.771 -4.992,1.981C-5.016,1.981 -5.062,2.005 -5.133,2.052C-5.227,2.122 -5.309,2.169 -5.379,2.192C-5.473,2.192 -5.567,2.099 -5.66,1.911C-5.73,1.748 -5.824,1.56 -5.941,1.349C-5.66,1.278 -5.414,1.103 -5.203,0.821C-4.875,0.447 -4.583,0.083 -4.324,-0.268C-4.465,-0.221 -4.688,-0.128 -4.992,0.013C-5.11,0.06 -5.191,0.095 -5.238,0.118C-5.286,0.142 -5.344,0.177 -5.414,0.224C-5.508,0.271 -5.578,0.306 -5.625,0.329C-5.719,0.329 -5.813,0.236 -5.906,0.048C-6,-0.14 -6.082,-0.315 -6.152,-0.479C-5.824,-0.573 -5.578,-0.761 -5.414,-1.042C-5.133,-1.487 -4.875,-2.014 -4.641,-2.624C-4.523,-2.882 -4.453,-3.104 -4.43,-3.292C-4.125,-3.104 -3.891,-2.928 -3.727,-2.765C-3.586,-2.647 -3.516,-2.554 -3.516,-2.483L-3.516,-2.413C-3.516,-2.366 -3.609,-2.319 -3.797,-2.272C-3.609,-2.319 -3.633,-2.308 -3.867,-2.237C-3.915,-2.167 -4.008,-2.038 -4.148,-1.851C-4.734,-1.1 -5.11,-0.655 -5.273,-0.515C-5.18,-0.538 -4.992,-0.55 -4.711,-0.55C-4.453,-0.573 -4.254,-0.585 -4.113,-0.585L-3.902,-1.007C-3.762,-1.311 -3.656,-1.569 -3.586,-1.78C-3.328,-1.64 -3.117,-1.476 -2.953,-1.288C-2.813,-1.194 -2.742,-1.089 -2.742,-0.972L-2.742,-0.901ZM-3.164,2.263C-2.953,2.192 -2.836,2.192 -2.813,2.263C-2.766,2.31 -2.836,2.392 -3.023,2.509C-3.563,2.767 -4.161,3.095 -4.816,3.493C-4.934,3.564 -5.11,3.681 -5.344,3.845C-5.391,3.915 -5.484,3.973 -5.625,4.021C-5.672,4.044 -5.743,3.997 -5.836,3.88C-5.859,3.833 -5.906,3.762 -5.977,3.669C-6.117,3.458 -6.223,3.282 -6.293,3.142C-5.52,3.001 -4.477,2.708 -3.164,2.263" style="fill:rgb(152,72,92);fill-rule:nonzero;"/>
            </g>
        </g>
    </g>
</svg>
