<?xml version="1.0" encoding="UTF-8" standalone="no"?>
<!DOCTYPE svg PUBLIC "-//W3C//DTD SVG 1.1//EN" "http://www.w3.org/Graphics/SVG/1.1/DTD/svg11.dtd">
<svg width="100%" height="100%" viewBox="0 0 422 67" version="1.1" xmlns="http://www.w3.org/2000/svg" xmlns:xlink="http://www.w3.org/1999/xlink" xml:space="preserve" xmlns:serif="http://www.serif.com/" style="fill-rule:evenodd;clip-rule:evenodd;stroke-linejoin:round;stroke-miterlimit:2;">
    <g transform="matrix(1,0,0,1,-3660.61,-622.366)">
        <g transform="matrix(8.33333,0,0,8.33333,0,0)">
            <g transform="matrix(1,0,0,1,444.546,81.8558)">
                <path d="M0,-6.152L0,-5.273L-1.758,-5.273L-1.758,-4.394L-2.637,-4.394L-2.637,-3.515L-3.516,-3.515L-3.516,-2.636L-2.637,-2.636L-2.637,-1.757L-1.758,-1.757L-1.758,-0.879L0,-0.879L0,0L-2.637,0L-2.637,-0.879L-3.516,-0.879L-3.516,-1.757L-4.395,-1.757L-4.395,-2.636L-5.273,-2.636L-5.273,-3.515L-4.395,-3.515L-4.395,-4.394L-3.516,-4.394L-3.516,-5.273L-2.637,-5.273L-2.637,-6.152L0,-6.152Z" style="fill:rgb(76,124,119);fill-rule:nonzero;"/>
            </g>
        </g>
        <g transform="matrix(8.33333,0,0,8.33333,0,0)">
            <g transform="matrix(1,0,0,1,454.418,81.8091)">
                <path d="M0,-6.246C0,-6.176 -0.105,-6.128 -0.316,-6.105C-0.48,-6.128 -0.691,-6.128 -0.949,-6.105L-1.195,-6.105C-1.313,-6.082 -1.547,-6.07 -1.898,-6.07C-2.228,-6.047 -2.474,-6.035 -2.637,-6.035C-2.496,-5.988 -2.379,-5.93 -2.285,-5.859C-2.192,-5.836 -2.133,-5.801 -2.109,-5.754C-2.087,-5.73 -2.063,-5.706 -2.039,-5.684L-2.004,-5.648C-2.004,-5.578 -2.027,-5.531 -2.074,-5.508L-2.109,-5.508C-2.133,-5.484 -2.157,-5.473 -2.18,-5.473C-2.25,-5.449 -2.309,-5.414 -2.355,-5.367C-2.403,-5.297 -2.449,-5.191 -2.496,-5.051C-2.544,-4.91 -2.579,-4.828 -2.602,-4.805L-1.828,-4.875C-1.781,-4.945 -1.7,-5.062 -1.582,-5.226C-1.535,-5.297 -1.5,-5.344 -1.477,-5.367C-1.289,-5.273 -1.125,-5.168 -0.984,-5.051C-0.727,-4.887 -0.598,-4.769 -0.598,-4.699C-0.598,-4.629 -0.633,-4.57 -0.703,-4.523C-0.773,-4.453 -0.856,-4.394 -0.949,-4.348C-0.949,-3.902 -0.937,-3.421 -0.914,-2.906C-0.914,-2.672 -0.902,-2.426 -0.879,-2.168L-0.879,-1.781C-0.856,-1.687 -0.867,-1.605 -0.914,-1.535C-0.914,-1.465 -1.032,-1.371 -1.266,-1.254C-1.289,-1.254 -1.313,-1.242 -1.336,-1.219C-1.477,-1.171 -1.57,-1.148 -1.617,-1.148C-1.687,-1.148 -1.723,-1.206 -1.723,-1.324L-1.723,-4.594C-1.841,-4.594 -2.145,-4.581 -2.637,-4.559C-3.082,-4.511 -3.434,-4.488 -3.691,-4.488C-3.645,-3.621 -3.645,-2.718 -3.691,-1.781L-3.691,-1.5C-3.691,-1.336 -3.774,-1.206 -3.938,-1.113C-4.078,-0.996 -4.207,-0.937 -4.324,-0.937C-4.395,-0.96 -4.43,-1.008 -4.43,-1.078L-4.43,-1.605C-4.407,-2.004 -4.395,-2.461 -4.395,-2.976L-4.395,-3.082C-4.372,-3.551 -4.383,-4.254 -4.43,-5.191C-4.407,-5.168 -4.359,-5.144 -4.289,-5.121C-4.196,-5.098 -4.043,-5.038 -3.832,-4.945C-3.81,-4.945 -3.774,-4.922 -3.727,-4.875C-3.634,-4.828 -3.563,-4.792 -3.516,-4.769L-3.305,-4.769C-3.282,-4.863 -3.234,-5.156 -3.164,-5.648C-3.142,-5.836 -3.117,-5.965 -3.094,-6.035L-3.656,-6C-3.891,-6 -4.231,-5.965 -4.676,-5.894C-4.746,-5.988 -4.816,-6.105 -4.887,-6.246C-4.699,-6.246 -4.372,-6.258 -3.902,-6.281C-3.691,-6.281 -3.328,-6.293 -2.813,-6.316C-2.25,-6.363 -1.806,-6.387 -1.477,-6.387L-1.441,-6.457C-1.371,-6.598 -1.219,-6.82 -0.984,-7.125C-0.797,-6.984 -0.527,-6.785 -0.176,-6.527C-0.035,-6.433 0.022,-6.339 0,-6.246M-0.527,0.258C-0.551,0.586 -0.681,0.762 -0.914,0.785C-1.125,0.808 -1.289,0.68 -1.406,0.399C-1.617,-0.046 -2.004,-0.445 -2.566,-0.797C-2.59,-0.797 -2.614,-0.809 -2.637,-0.832C-2.66,-0.832 -2.685,-0.844 -2.707,-0.867C-2.988,-0.141 -3.845,0.434 -5.273,0.856C-5.392,0.879 -5.462,0.879 -5.484,0.856C-5.508,0.808 -5.473,0.75 -5.379,0.68C-4.348,0.14 -3.715,-0.34 -3.48,-0.762C-3.199,-1.184 -3.071,-1.934 -3.094,-3.012C-3.094,-3.574 -3.106,-3.973 -3.129,-4.207C-2.777,-4.089 -2.544,-4.008 -2.426,-3.961C-2.192,-3.867 -2.074,-3.773 -2.074,-3.68C-2.074,-3.562 -2.157,-3.469 -2.32,-3.398C-2.32,-2.32 -2.426,-1.547 -2.637,-1.078C-2.566,-1.055 -2.52,-1.043 -2.496,-1.043C-1.957,-0.949 -1.512,-0.797 -1.16,-0.586C-0.738,-0.375 -0.527,-0.094 -0.527,0.258M-4.57,-3.047C-4.523,-2.976 -4.559,-2.906 -4.676,-2.836C-4.816,-2.718 -5.005,-2.59 -5.238,-2.449C-5.919,-2.027 -6.504,-1.605 -6.996,-1.184C-7.02,-1.16 -7.044,-1.136 -7.066,-1.113C-7.16,-0.996 -7.242,-0.914 -7.312,-0.867C-7.406,-0.89 -7.512,-0.96 -7.629,-1.078C-7.699,-1.148 -7.817,-1.277 -7.98,-1.465C-7.98,-1.488 -8.063,-1.582 -8.227,-1.746C-7.594,-1.91 -7.044,-2.109 -6.574,-2.344L-6.609,-4.523L-6.609,-5.473L-6.961,-5.437C-7.125,-5.414 -7.396,-5.379 -7.77,-5.332L-7.98,-5.719C-7.747,-5.719 -7.406,-5.73 -6.961,-5.754C-6.75,-5.754 -6.398,-5.766 -5.906,-5.789C-5.884,-5.859 -5.801,-6 -5.66,-6.211C-5.59,-6.304 -5.543,-6.374 -5.52,-6.422C-5.449,-6.374 -5.356,-6.304 -5.238,-6.211C-5.075,-6.07 -4.945,-5.965 -4.852,-5.894C-4.711,-5.801 -4.653,-5.719 -4.676,-5.648C-4.699,-5.578 -4.816,-5.543 -5.027,-5.543C-5.356,-5.543 -5.801,-5.519 -6.363,-5.473C-6.341,-5.473 -6.293,-5.46 -6.223,-5.437C-6.105,-5.414 -6,-5.367 -5.906,-5.297C-5.673,-5.226 -5.543,-5.144 -5.52,-5.051C-5.52,-4.957 -5.613,-4.863 -5.801,-4.769L-5.801,-2.625C-5.449,-2.766 -5.11,-2.894 -4.781,-3.012C-4.641,-3.082 -4.57,-3.094 -4.57,-3.047" style="fill:rgb(76,124,119);fill-rule:nonzero;"/>
            </g>
        </g>
        <g transform="matrix(8.33333,0,0,8.33333,0,0)">
            <g transform="matrix(1,0,0,1,461.056,81.7737)">
                <path d="M0,-5.859C-0.164,-5.859 -0.61,-5.836 -1.336,-5.789C-1.876,-5.765 -2.32,-5.741 -2.672,-5.718L-2.672,-4.242C-2.555,-4.265 -2.333,-4.277 -2.004,-4.277C-1.746,-4.3 -1.535,-4.312 -1.371,-4.312L-1.301,-4.312C-1.043,-4.335 -0.773,-4.382 -0.492,-4.453C-0.445,-4.429 -0.41,-4.382 -0.387,-4.312L-0.352,-4.136C-0.329,-4.113 -0.422,-4.101 -0.633,-4.101L-1.336,-4.031C-1.477,-4.031 -1.771,-4.019 -2.215,-3.996C-2.403,-3.972 -2.555,-3.961 -2.672,-3.961L-2.672,-2.519C-2.391,-2.566 -1.969,-2.589 -1.406,-2.589C-1.103,-2.612 -0.797,-2.66 -0.492,-2.73L-0.457,-2.695C-0.435,-2.648 -0.41,-2.612 -0.387,-2.589C-0.364,-2.519 -0.352,-2.461 -0.352,-2.414C-0.375,-2.39 -0.422,-2.379 -0.492,-2.379C-0.562,-2.355 -0.61,-2.343 -0.633,-2.343L-1.371,-2.308C-1.535,-2.308 -1.841,-2.296 -2.285,-2.273C-2.449,-2.25 -2.579,-2.238 -2.672,-2.238L-2.672,-0.48L0,-0.586L0,-5.859ZM1.301,-5.859C1.301,-5.765 1.23,-5.683 1.09,-5.613L1.02,-5.578C0.972,-5.53 0.937,-5.495 0.914,-5.472C0.914,-5.144 0.926,-4.629 0.949,-3.925L0.949,-2.66C0.949,-2.401 0.961,-2.062 0.984,-1.64C1.007,-1.171 1.02,-0.832 1.02,-0.621C1.02,-0.246 0.984,0.024 0.914,0.188C0.891,0.258 0.785,0.387 0.598,0.575C0.387,0.715 0.223,0.773 0.105,0.75C0.035,0.75 -0.013,0.703 -0.035,0.61C-0.035,0.516 -0.023,0.351 0,0.118L0,-0.304L-2.672,-0.164C-2.672,-0.093 -2.685,-0.023 -2.707,0.047C-2.755,0.235 -2.848,0.399 -2.988,0.539C-3.106,0.61 -3.199,0.668 -3.27,0.715C-3.363,0.738 -3.445,0.75 -3.516,0.75C-3.539,0.727 -3.551,0.692 -3.551,0.645L-3.551,0.118C-3.48,-0.726 -3.458,-1.336 -3.48,-1.711L-3.48,-2.449C-3.458,-2.847 -3.445,-3.082 -3.445,-3.152L-3.445,-5.472C-3.493,-5.871 -3.516,-6.246 -3.516,-6.597C-3.493,-6.597 -3.445,-6.574 -3.375,-6.527C-3.212,-6.457 -3.059,-6.398 -2.918,-6.351C-2.896,-6.328 -2.777,-6.257 -2.566,-6.14C-2.496,-6.093 -2.438,-6.058 -2.391,-6.035L0,-6.175C0.022,-6.198 0.093,-6.293 0.211,-6.457C0.258,-6.527 0.293,-6.585 0.316,-6.632C0.479,-6.539 0.703,-6.386 0.984,-6.175C1.195,-6.035 1.301,-5.929 1.301,-5.859" style="fill:rgb(76,124,119);fill-rule:nonzero;"/>
            </g>
        </g>
        <g transform="matrix(8.33333,0,0,8.33333,0,0)">
            <g transform="matrix(1,0,0,1,473.599,75.9139)">
                <path d="M0,5.45C0,5.497 -0.059,5.555 -0.176,5.626C-0.457,5.814 -0.738,6.071 -1.02,6.399C-1.043,6.422 -1.066,6.457 -1.09,6.505C-1.137,6.552 -1.184,6.598 -1.23,6.645C-1.254,6.668 -1.312,6.68 -1.406,6.68C-1.523,6.68 -1.734,6.657 -2.039,6.61C-1.828,6.657 -1.863,6.657 -2.145,6.61C-4.137,6.141 -5.754,5.38 -6.996,4.325C-7.184,4.7 -7.406,5.028 -7.664,5.309C-7.711,5.333 -7.758,5.38 -7.805,5.45C-7.875,5.497 -7.992,5.579 -8.156,5.696C-8.273,5.79 -8.355,5.837 -8.402,5.837L-8.438,5.837C-8.461,5.814 -8.426,5.731 -8.332,5.591C-8.191,5.427 -8.074,5.239 -7.98,5.028C-7.746,4.606 -7.582,4.184 -7.488,3.763C-7.395,3.411 -7.312,3.001 -7.242,2.532C-7.172,2.579 -7.078,2.637 -6.961,2.708C-6.82,2.778 -6.727,2.837 -6.68,2.884C-6.445,3.024 -6.328,3.13 -6.328,3.2C-6.328,3.27 -6.422,3.341 -6.609,3.411C-6.633,3.481 -6.68,3.599 -6.75,3.763C-6.797,3.903 -6.832,3.997 -6.855,4.044C-6.621,4.208 -6.398,4.36 -6.187,4.501L-6.187,3.833C-6.187,3.575 -6.199,2.977 -6.223,2.04C-6.691,2.063 -7.09,2.098 -7.418,2.145C-7.488,2.145 -7.629,2.158 -7.84,2.18C-7.98,2.204 -8.086,2.216 -8.156,2.216L-8.297,1.829L-7.875,1.829C-7.641,1.852 -7.5,1.852 -7.453,1.829C-7.336,1.806 -7.137,1.794 -6.855,1.794C-6.574,1.771 -6.363,1.759 -6.223,1.759L-6.223,0.704C-6.363,0.727 -6.516,0.739 -6.68,0.739C-6.727,0.739 -6.809,0.751 -6.926,0.774C-7.113,0.798 -7.277,0.822 -7.418,0.845C-7.441,0.798 -7.465,0.727 -7.488,0.634C-7.535,0.563 -7.57,0.505 -7.594,0.458L-6.223,0.458L-6.223,-0.14C-6.223,-0.187 -6.234,-0.55 -6.258,-1.23C-6.211,-1.206 -6.117,-1.171 -5.977,-1.124C-5.836,-1.077 -5.719,-1.042 -5.625,-1.019C-5.344,-0.948 -5.203,-0.866 -5.203,-0.773C-5.203,-0.725 -5.285,-0.632 -5.449,-0.491L-5.449,0.423C-5.379,0.423 -5.309,0.411 -5.238,0.388C-5.215,0.341 -5.168,0.27 -5.098,0.177L-4.887,-0.14C-4.84,-0.092 -4.723,0.001 -4.535,0.141C-4.465,0.165 -4.418,0.189 -4.395,0.212C-4.254,0.352 -4.184,0.458 -4.184,0.528C-4.207,0.598 -4.324,0.634 -4.535,0.634C-4.676,0.634 -4.852,0.646 -5.062,0.669L-5.449,0.669L-5.449,1.723L-4.922,1.688C-4.898,1.665 -4.852,1.595 -4.781,1.477C-4.687,1.36 -4.617,1.255 -4.57,1.161C-4.523,1.184 -4.453,1.243 -4.359,1.337C-4.195,1.454 -4.055,1.56 -3.938,1.653L-3.938,1.231C-3.891,1.255 -3.809,1.302 -3.691,1.372C-3.551,1.419 -3.434,1.466 -3.34,1.512C-3.223,1.536 -3.094,1.606 -2.953,1.723L-2.461,1.688C-2.414,1.314 -2.379,0.774 -2.355,0.071C-2.426,0.095 -2.578,0.106 -2.813,0.106C-3,0.13 -3.152,0.141 -3.27,0.141C-3.316,0.165 -3.434,0.177 -3.621,0.177C-3.762,0.2 -3.879,0.212 -3.973,0.212L-4.184,-0.14C-3.902,-0.14 -3.645,-0.152 -3.41,-0.175C-3.035,-0.175 -2.695,-0.198 -2.391,-0.245L-2.039,-0.702C-1.992,-0.679 -1.922,-0.62 -1.828,-0.527C-1.687,-0.433 -1.582,-0.351 -1.512,-0.28C-1.301,-0.116 -1.195,0.024 -1.195,0.141C-1.195,0.212 -1.301,0.305 -1.512,0.423L-1.617,1.512L-1.582,1.583C-1.441,1.677 -1.371,1.747 -1.371,1.794C-1.371,1.864 -1.477,1.911 -1.687,1.934C-1.805,1.934 -2.004,1.947 -2.285,1.97C-2.59,1.97 -2.871,1.982 -3.129,2.005L-3.129,3.27L-3.164,3.411L-3.164,3.657C-3.164,3.821 -3.141,3.915 -3.094,3.938C-3.023,4.009 -2.871,4.044 -2.637,4.044C-2.402,4.044 -2.168,4.032 -1.934,4.009C-1.746,4.009 -1.605,3.973 -1.512,3.903C-1.395,3.833 -1.301,3.704 -1.23,3.516L-1.125,3.2C-1.102,3.107 -1.078,3.036 -1.055,2.989C-1.055,2.919 -1.02,2.778 -0.949,2.567C-0.926,2.52 -0.914,2.485 -0.914,2.462C-0.867,2.321 -0.832,2.251 -0.809,2.251C-0.762,2.251 -0.738,2.321 -0.738,2.462L-0.738,3.024C-0.738,3.399 -0.715,3.61 -0.668,3.657C-0.598,3.751 -0.504,3.856 -0.387,3.973C-0.363,4.161 -0.48,4.313 -0.738,4.43C-0.902,4.524 -1.102,4.583 -1.336,4.606C-1.875,4.7 -2.262,4.735 -2.496,4.712C-2.684,4.712 -2.883,4.7 -3.094,4.677L-3.305,4.677C-3.563,4.606 -3.727,4.513 -3.797,4.395C-3.867,4.325 -3.902,4.22 -3.902,4.079L-3.902,1.97L-4.113,1.97L-4.992,2.005L-5.801,2.04C-5.66,2.063 -5.555,2.098 -5.484,2.145C-5.32,2.216 -5.227,2.263 -5.203,2.286C-5.203,2.356 -5.227,2.415 -5.273,2.462C-5.344,2.485 -5.391,2.532 -5.414,2.602L-5.414,3.165L-5.238,3.165C-5.215,3.142 -5.191,3.107 -5.168,3.059C-5.074,2.896 -4.992,2.766 -4.922,2.673C-4.898,2.696 -4.84,2.743 -4.746,2.813C-4.629,2.907 -4.535,2.989 -4.465,3.059C-4.324,3.13 -4.254,3.212 -4.254,3.305C-4.254,3.376 -4.359,3.411 -4.57,3.411L-5.414,3.446L-5.449,4.817C-4.957,4.981 -4.406,5.122 -3.797,5.239C-3.023,5.357 -2.309,5.415 -1.652,5.415L-0.914,5.415C-0.75,5.415 -0.574,5.403 -0.387,5.38L-0.176,5.38C-0.059,5.38 0,5.403 0,5.45" style="fill:rgb(76,124,119);fill-rule:nonzero;"/>
            </g>
        </g>
        <g transform="matrix(8.33333,0,0,8.33333,0,0)">
            <g transform="matrix(1,0,0,1,482.451,76.4065)">
                <path d="M0,4.641C0,4.946 -0.105,5.145 -0.316,5.239C-0.457,5.262 -0.562,5.251 -0.633,5.203C-0.727,5.133 -0.797,5.04 -0.844,4.922C-0.961,4.477 -1.066,4.196 -1.16,4.079C-1.23,3.961 -1.324,3.868 -1.441,3.797C-1.465,3.774 -1.477,3.75 -1.477,3.727C-1.523,3.68 -1.547,3.645 -1.547,3.621L-1.336,3.621C-1.242,3.621 -1.125,3.657 -0.984,3.727C-0.703,3.797 -0.48,3.915 -0.316,4.079C-0.129,4.219 -0.023,4.407 0,4.641M-1.512,0.809L-3.094,0.914L-3.094,1.512L-2.496,1.512C-2.449,1.512 -2.391,1.5 -2.32,1.477C-2.156,1.454 -2.039,1.43 -1.969,1.407C-1.828,1.571 -1.77,1.665 -1.793,1.688C-1.793,1.735 -1.91,1.758 -2.145,1.758L-2.496,1.758C-2.73,1.782 -2.918,1.793 -3.059,1.793L-3.059,2.567L-1.547,2.461C-1.523,1.758 -1.512,1.208 -1.512,0.809M-3.164,3.762C-3.164,3.88 -3.188,3.996 -3.234,4.114C-3.305,4.372 -3.398,4.606 -3.516,4.817C-3.516,4.84 -3.527,4.852 -3.551,4.852C-3.621,4.97 -3.703,5.063 -3.797,5.133C-3.914,5.203 -4.043,5.239 -4.184,5.239C-4.395,5.216 -4.512,5.11 -4.535,4.922C-4.535,4.735 -4.465,4.583 -4.324,4.465L-3.973,4.289C-3.949,4.266 -3.914,4.243 -3.867,4.219C-3.75,4.172 -3.645,4.102 -3.551,4.008C-3.504,3.961 -3.445,3.891 -3.375,3.797C-3.398,3.821 -3.387,3.797 -3.34,3.727C-3.293,3.634 -3.258,3.586 -3.234,3.586C-3.188,3.586 -3.164,3.645 -3.164,3.762M-0.352,-0.668L-0.844,-0.668C-1.055,-0.644 -1.219,-0.632 -1.336,-0.632L-2.461,-0.562L-2.25,-0.457C-2.086,-0.409 -1.969,-0.363 -1.898,-0.316C-1.687,-0.222 -1.582,-0.14 -1.582,-0.07C-1.582,0 -1.676,0.059 -1.863,0.106C-1.887,0.153 -1.922,0.235 -1.969,0.352C-2.016,0.446 -2.051,0.528 -2.074,0.598C-2.004,0.598 -1.91,0.586 -1.793,0.563C-1.676,0.563 -1.594,0.551 -1.547,0.528C-1.477,0.457 -1.371,0.317 -1.23,0.106C-1.09,0.176 -0.926,0.282 -0.738,0.422C-0.527,0.563 -0.422,0.668 -0.422,0.739C-0.422,0.832 -0.527,0.938 -0.738,1.055C-0.762,1.524 -0.762,1.828 -0.738,1.969L-0.738,2.602C-0.738,2.72 -0.75,2.813 -0.773,2.883C-0.773,2.954 -0.82,3.024 -0.914,3.094C-1.008,3.141 -1.113,3.2 -1.23,3.27L-1.336,3.27C-1.383,3.293 -1.418,3.293 -1.441,3.27C-1.512,3.27 -1.547,3.235 -1.547,3.164L-1.547,2.743L-2.355,2.778C-1.91,2.942 -1.687,3.059 -1.687,3.129C-1.687,3.2 -1.77,3.282 -1.934,3.375L-1.934,4.114C-1.91,4.629 -1.898,5.016 -1.898,5.274C-1.898,5.485 -1.945,5.683 -2.039,5.871C-2.063,5.965 -2.133,6.047 -2.25,6.118C-2.367,6.211 -2.461,6.258 -2.531,6.258C-2.602,6.258 -2.684,6.164 -2.777,5.977C-2.871,5.766 -2.977,5.613 -3.094,5.52L-3.305,5.414C-3.328,5.391 -3.352,5.368 -3.375,5.344L-3.445,5.203C-3.445,5.157 -3.352,5.133 -3.164,5.133C-2.977,5.157 -2.871,5.168 -2.848,5.168C-2.777,5.168 -2.73,5.145 -2.707,5.098C-2.66,5.075 -2.637,4.993 -2.637,4.852L-2.637,2.778L-3.059,2.813C-3.059,2.907 -3.07,2.989 -3.094,3.059C-3.164,3.2 -3.293,3.305 -3.48,3.375C-3.551,3.399 -3.609,3.411 -3.656,3.411C-3.727,3.388 -3.762,3.305 -3.762,3.164C-3.738,2.625 -3.727,2.309 -3.727,2.215L-3.727,1.161C-3.727,1.114 -3.738,1.008 -3.762,0.844C-3.785,0.61 -3.809,0.411 -3.832,0.246C-3.574,0.317 -3.375,0.387 -3.234,0.457C-3.141,0.481 -3.023,0.54 -2.883,0.633L-2.707,0.633C-2.637,0.422 -2.59,0.211 -2.566,0C-2.566,-0.07 -2.555,-0.175 -2.531,-0.316L-2.531,-0.562L-4.148,-0.492C-4.148,0.375 -4.16,1.078 -4.184,1.618C-4.254,2.321 -4.324,2.883 -4.395,3.305C-4.512,3.727 -4.676,4.137 -4.887,4.536C-5.121,4.934 -5.414,5.274 -5.766,5.555C-5.836,5.625 -5.895,5.648 -5.941,5.625C-5.965,5.578 -5.941,5.496 -5.871,5.379C-5.309,4.465 -4.98,3.247 -4.887,1.723C-4.863,1.161 -4.852,0.598 -4.852,0.036L-4.852,-0.175C-4.875,-0.55 -4.898,-0.89 -4.922,-1.195C-4.781,-1.171 -4.594,-1.101 -4.359,-0.984C-4.195,-0.937 -4.055,-0.866 -3.938,-0.773C-2.766,-0.82 -1.934,-0.855 -1.441,-0.879L-1.02,-1.617C-0.973,-1.569 -0.879,-1.499 -0.738,-1.406C-0.527,-1.265 -0.352,-1.136 -0.211,-1.019C-0.094,-0.925 -0.035,-0.843 -0.035,-0.773C-0.035,-0.703 -0.141,-0.668 -0.352,-0.668M-5.344,-0.562C-5.344,-0.421 -5.391,-0.281 -5.484,-0.14C-5.578,-0.023 -5.719,0.036 -5.906,0.036C-6.07,0.036 -6.187,-0.046 -6.258,-0.211C-6.281,-0.257 -6.305,-0.328 -6.328,-0.421C-6.375,-0.515 -6.41,-0.585 -6.434,-0.632C-6.434,-0.75 -6.457,-0.855 -6.504,-0.949C-6.527,-1.019 -6.574,-1.089 -6.645,-1.16C-6.762,-1.277 -6.809,-1.336 -6.785,-1.336C-6.785,-1.406 -6.68,-1.418 -6.469,-1.371C-6.117,-1.371 -5.848,-1.288 -5.66,-1.125C-5.449,-0.961 -5.344,-0.773 -5.344,-0.562M-5.273,0.703C-5.297,0.821 -5.344,1.02 -5.414,1.301C-5.508,1.723 -5.578,2.075 -5.625,2.356C-5.812,3.27 -5.977,4.02 -6.117,4.606L-6.293,5.555C-6.34,5.766 -6.422,5.859 -6.539,5.836C-6.609,5.836 -6.762,5.766 -6.996,5.625C-7.043,5.602 -7.125,5.555 -7.242,5.485C-7.336,5.391 -7.418,5.332 -7.488,5.309C-7.348,5.098 -7.172,4.805 -6.961,4.43C-6.797,4.149 -6.551,3.563 -6.223,2.672C-6.129,2.461 -6.059,2.298 -6.012,2.18C-5.965,2.063 -5.883,1.852 -5.766,1.547C-5.625,1.196 -5.52,0.914 -5.449,0.703C-5.379,0.493 -5.32,0.399 -5.273,0.422C-5.227,0.422 -5.227,0.516 -5.273,0.703M-6.082,1.301C-6.082,1.442 -6.129,1.571 -6.223,1.688C-6.316,1.806 -6.445,1.864 -6.609,1.864C-6.82,1.864 -6.949,1.77 -6.996,1.582C-7.113,1.278 -7.254,1.055 -7.418,0.914C-7.582,0.797 -7.652,0.716 -7.629,0.668C-7.629,0.621 -7.477,0.61 -7.172,0.633C-6.445,0.633 -6.082,0.856 -6.082,1.301" style="fill:rgb(76,124,119);fill-rule:nonzero;"/>
            </g>
        </g>
        <g transform="matrix(8.33333,0,0,8.33333,0,0)">
            <g transform="matrix(1,0,0,1,487.19,81.8558)">
                <path d="M0,-6.152L0,-5.273L0.879,-5.273L0.879,-4.394L1.758,-4.394L1.758,-3.515L2.637,-3.515L2.637,-2.636L1.758,-2.636L1.758,-1.757L0.879,-1.757L0.879,-0.879L0,-0.879L0,0L-2.637,0L-2.637,-0.879L-0.879,-0.879L-0.879,-1.757L0,-1.757L0,-2.636L0.879,-2.636L0.879,-3.515L0,-3.515L0,-4.394L-0.879,-4.394L-0.879,-5.273L-2.637,-5.273L-2.637,-6.152L0,-6.152Z" style="fill:rgb(76,124,119);fill-rule:nonzero;"/>
            </g>
        </g>
    </g>
</svg>
