<?xml version="1.0" encoding="UTF-8" standalone="no"?>
<!DOCTYPE svg PUBLIC "-//W3C//DTD SVG 1.1//EN" "http://www.w3.org/Graphics/SVG/1.1/DTD/svg11.dtd">
<svg width="100%" height="100%" viewBox="0 0 1729 73" version="1.1" xmlns="http://www.w3.org/2000/svg" xmlns:xlink="http://www.w3.org/1999/xlink" xml:space="preserve" xmlns:serif="http://www.serif.com/" style="fill-rule:evenodd;clip-rule:evenodd;stroke-linejoin:round;stroke-miterlimit:2;">
    <g transform="matrix(1,0,0,1,-2634.94,-13885.6)">
        <g transform="matrix(8.33333,0,0,8.33333,0,0)">
            <g transform="matrix(1,0,0,1,320.666,1671.18)">
                <path d="M0,-1.161L1.368,-1.161L1.827,-1.719L2.376,-1.062C2.412,-1.02 2.43,-0.984 2.43,-0.954C2.43,-0.924 2.391,-0.909 2.313,-0.909L0.189,-0.909C-0.051,-0.909 -0.255,-0.876 -0.423,-0.81L-0.747,-1.206C-0.525,-1.176 -0.276,-1.161 0,-1.161M0.162,0.568L-0.657,0.568C-0.891,0.568 -1.095,0.6 -1.269,0.666L-1.593,0.27C-1.365,0.3 -1.116,0.315 -0.846,0.315L2.34,0.315L2.817,-0.27L3.393,0.414C3.429,0.456 3.447,0.492 3.447,0.522C3.447,0.552 3.405,0.568 3.321,0.568L1.044,0.568C0.93,0.711 0.729,0.969 0.441,1.341C0.153,1.713 -0.243,2.169 -0.747,2.709L2.169,2.502C1.983,2.142 1.737,1.773 1.431,1.395L1.503,1.269C2.007,1.563 2.4,1.869 2.682,2.187C2.964,2.505 3.105,2.754 3.105,2.934C3.105,3.114 3.074,3.26 3.011,3.37C2.948,3.482 2.868,3.537 2.772,3.537C2.634,3.537 2.538,3.445 2.484,3.263C2.43,3.079 2.361,2.898 2.277,2.718L0.207,3.105C-0.537,3.243 -0.966,3.333 -1.08,3.375C-1.194,3.417 -1.268,3.438 -1.3,3.438C-1.333,3.438 -1.365,3.411 -1.395,3.357L-1.683,2.727C-1.431,2.721 -1.261,2.697 -1.174,2.655C-1.087,2.613 -0.984,2.502 -0.864,2.322L-0.324,1.485C-0.084,1.101 0.078,0.795 0.162,0.568M0.981,-3.807C0.609,-3.033 0.21,-2.376 -0.216,-1.836C-0.642,-1.296 -1.167,-0.78 -1.791,-0.288L-1.881,-0.387C-1.227,-1.131 -0.728,-1.807 -0.382,-2.417C-0.038,-3.025 0.276,-3.786 0.558,-4.698L1.332,-4.32C1.404,-4.29 1.44,-4.248 1.44,-4.194C1.44,-4.14 1.389,-4.098 1.287,-4.068C1.257,-4.056 1.215,-4.038 1.161,-4.014C1.797,-2.646 2.757,-1.8 4.041,-1.476L4.032,-1.296C3.66,-1.296 3.414,-1.197 3.294,-0.999C3.264,-0.951 3.225,-0.927 3.177,-0.927C3.051,-0.927 2.734,-1.188 2.228,-1.71C1.721,-2.232 1.305,-2.931 0.981,-3.807M-1.179,1.693L-2.988,2.547C-3.33,2.709 -3.568,2.835 -3.704,2.925C-3.838,3.015 -3.921,3.06 -3.951,3.06C-3.981,3.06 -4.011,3.03 -4.041,2.97L-4.401,2.349L-1.224,1.575L-1.179,1.693ZM-2.619,-1.26C-3.351,-1.11 -3.804,-0.984 -3.978,-0.882C-4.02,-0.851 -4.058,-0.837 -4.09,-0.837C-4.124,-0.837 -4.155,-0.858 -4.185,-0.9L-4.473,-1.422C-4.317,-1.464 -4.194,-1.525 -4.104,-1.606C-4.014,-1.687 -3.925,-1.802 -3.838,-1.948C-3.751,-2.096 -3.591,-2.398 -3.357,-2.857C-3.123,-3.316 -2.957,-3.66 -2.857,-3.888C-2.758,-4.116 -2.676,-4.352 -2.61,-4.599L-1.953,-4.113C-1.881,-4.065 -1.845,-4.026 -1.845,-3.996C-1.845,-3.966 -1.881,-3.939 -1.953,-3.915C-2.091,-3.861 -2.208,-3.759 -2.304,-3.609C-2.862,-2.751 -3.36,-2.043 -3.798,-1.485L-2.448,-1.53C-2.118,-2.07 -1.848,-2.589 -1.638,-3.087L-0.99,-2.592C-0.936,-2.544 -0.909,-2.498 -0.909,-2.452C-0.909,-2.407 -0.945,-2.382 -1.017,-2.376C-1.089,-2.37 -1.177,-2.323 -1.282,-2.236C-1.387,-2.149 -1.482,-2.04 -1.566,-1.908C-2.034,-1.212 -2.643,-0.408 -3.393,0.504L-1.701,0.378L-1.683,0.603C-2.805,0.837 -3.516,1.038 -3.816,1.206C-3.846,1.23 -3.875,1.242 -3.901,1.242C-3.928,1.242 -3.954,1.215 -3.978,1.161L-4.248,0.648C-4.032,0.618 -3.846,0.512 -3.69,0.328C-3.534,0.146 -3.177,-0.384 -2.619,-1.26" style="fill:rgb(35,25,22);fill-rule:nonzero;"/>
            </g>
        </g>
        <g transform="matrix(8.33333,0,0,8.33333,0,0)">
            <g transform="matrix(1,0,0,1,332.564,1672.8)">
                <path d="M0,-4.446L-0.198,-4.329L-0.198,-1.575L-0.18,-0.522C-0.18,-0.45 -0.252,-0.372 -0.396,-0.288C-0.54,-0.204 -0.641,-0.162 -0.697,-0.162C-0.754,-0.162 -0.783,-0.225 -0.783,-0.351C-0.783,-0.381 -0.778,-0.492 -0.77,-0.684C-0.76,-0.876 -0.756,-1.182 -0.756,-1.602L-0.756,-4.194C-0.756,-4.427 -0.765,-4.713 -0.783,-5.049L0,-4.662C0.072,-4.62 0.108,-4.586 0.108,-4.558C0.108,-4.531 0.072,-4.494 0,-4.446M1.467,-5.769L1.233,-5.633L1.233,0.639C1.233,0.957 1.208,1.187 1.157,1.327C1.105,1.468 0.987,1.61 0.801,1.75C0.615,1.892 0.495,1.962 0.441,1.962C0.387,1.962 0.345,1.914 0.315,1.818C0.267,1.632 0.153,1.494 -0.027,1.404C-0.207,1.314 -0.462,1.233 -0.792,1.161L-0.774,1.044C-0.384,1.08 -0.084,1.098 0.126,1.098C0.336,1.098 0.473,1.07 0.536,1.013C0.599,0.955 0.63,0.846 0.63,0.684L0.63,-4.914C0.63,-5.466 0.618,-5.94 0.594,-6.336L1.413,-5.976C1.515,-5.934 1.566,-5.898 1.566,-5.868C1.566,-5.838 1.533,-5.805 1.467,-5.769M-4.905,-1.575L-4.905,0.918C-4.905,1.014 -4.926,1.081 -4.968,1.12C-5.01,1.159 -5.091,1.206 -5.211,1.26C-5.331,1.314 -5.421,1.341 -5.481,1.341C-5.541,1.341 -5.562,1.242 -5.544,1.044C-5.502,0.696 -5.481,0.207 -5.481,-0.423L-5.481,-1.044C-5.481,-1.548 -5.487,-1.899 -5.499,-2.097L-4.914,-1.809L-3.843,-1.809L-3.843,-2.889L-5.283,-2.889C-5.535,-2.889 -5.736,-2.856 -5.886,-2.79L-6.21,-3.159C-5.988,-3.129 -5.742,-3.114 -5.472,-3.114L-3.843,-3.114L-3.843,-4.338L-5.04,-4.338C-5.244,-4.002 -5.496,-3.648 -5.796,-3.276L-5.922,-3.312C-5.46,-4.158 -5.184,-4.98 -5.094,-5.778L-4.482,-5.472C-4.392,-5.429 -4.347,-5.394 -4.347,-5.364C-4.347,-5.334 -4.378,-5.306 -4.441,-5.283C-4.504,-5.258 -4.554,-5.219 -4.59,-5.166C-4.626,-5.112 -4.679,-5.013 -4.748,-4.869C-4.816,-4.725 -4.869,-4.623 -4.905,-4.563L-3.843,-4.563C-3.843,-5.697 -3.852,-6.312 -3.87,-6.408L-2.997,-6.057C-2.925,-6.033 -2.889,-6.005 -2.889,-5.971C-2.889,-5.938 -2.925,-5.904 -2.997,-5.868L-3.249,-5.706L-3.249,-4.563L-2.403,-4.563L-1.953,-5.058L-1.467,-4.482C-1.431,-4.44 -1.413,-4.405 -1.413,-4.379C-1.413,-4.351 -1.455,-4.338 -1.539,-4.338L-3.249,-4.338L-3.249,-3.114L-2.043,-3.114L-1.629,-3.635L-1.089,-3.042C-1.047,-3 -1.026,-2.964 -1.026,-2.934C-1.026,-2.904 -1.077,-2.889 -1.179,-2.889L-3.249,-2.889L-3.249,-1.809L-2.295,-1.809L-1.971,-2.25L-1.413,-1.782C-1.371,-1.752 -1.35,-1.72 -1.35,-1.687C-1.35,-1.654 -1.386,-1.617 -1.458,-1.575L-1.611,-1.503L-1.611,0.396C-1.611,0.654 -1.711,0.877 -1.913,1.067C-2.114,1.255 -2.232,1.35 -2.268,1.35C-2.304,1.35 -2.331,1.308 -2.349,1.224C-2.379,1.002 -2.604,0.81 -3.024,0.648L-3.006,0.54C-2.82,0.564 -2.667,0.576 -2.547,0.576C-2.427,0.576 -2.337,0.561 -2.277,0.532C-2.217,0.501 -2.187,0.438 -2.187,0.342L-2.187,-1.575L-3.249,-1.575L-3.249,-0.171C-3.249,0.406 -3.245,0.813 -3.235,1.053C-3.227,1.293 -3.222,1.428 -3.222,1.458C-3.222,1.572 -3.298,1.668 -3.452,1.746C-3.604,1.824 -3.717,1.864 -3.789,1.864C-3.861,1.864 -3.897,1.791 -3.897,1.647L-3.861,0.865C-3.849,0.516 -3.843,0.105 -3.843,-0.369L-3.843,-1.575L-4.905,-1.575Z" style="fill:rgb(35,25,22);fill-rule:nonzero;"/>
            </g>
        </g>
        <g transform="matrix(8.33333,0,0,8.33333,0,0)">
            <g transform="matrix(1,0,0,1,338.963,1667.07)">
                <path d="M0,5.742C-0.156,5.736 -0.329,5.73 -0.518,5.724C-0.707,5.719 -0.897,5.716 -1.089,5.716C-1.281,5.716 -1.472,5.719 -1.661,5.724C-1.85,5.73 -2.022,5.736 -2.178,5.742L-2.178,5.59L-1.692,5.509C-1.482,5.461 -1.377,5.344 -1.377,5.157L-1.377,0.738L-2.448,1.431L-2.583,1.242C-2.373,1.104 -2.136,0.931 -1.872,0.724C-1.608,0.517 -1.332,0.276 -1.044,0L-0.747,0L-0.747,5.157C-0.747,5.361 -0.642,5.481 -0.432,5.517L0,5.59L0,5.742Z" style="fill:rgb(35,25,22);fill-rule:nonzero;"/>
            </g>
        </g>
        <g transform="matrix(8.33333,0,0,8.33333,0,0)">
            <g transform="matrix(1,0,0,1,343.319,1670.43)">
                <path d="M0,-0.837C0.246,-0.957 0.434,-1.126 0.562,-1.346C0.691,-1.565 0.753,-1.812 0.747,-2.088C0.741,-2.226 0.716,-2.358 0.671,-2.484C0.625,-2.61 0.56,-2.72 0.473,-2.813C0.386,-2.905 0.281,-2.981 0.158,-3.037C0.035,-3.095 -0.105,-3.123 -0.261,-3.123C-0.417,-3.123 -0.557,-3.096 -0.679,-3.042C-0.802,-2.988 -0.906,-2.916 -0.99,-2.826C-1.074,-2.736 -1.14,-2.63 -1.188,-2.507C-1.236,-2.384 -1.26,-2.25 -1.26,-2.107C-1.26,-2.016 -1.243,-1.914 -1.21,-1.8C-1.177,-1.686 -1.116,-1.57 -1.026,-1.453C-0.936,-1.337 -0.809,-1.224 -0.644,-1.116C-0.479,-1.008 -0.264,-0.915 0,-0.837M-0.495,-0.333C-0.801,-0.183 -1.017,0 -1.143,0.216C-1.269,0.432 -1.332,0.72 -1.332,1.08C-1.332,1.446 -1.229,1.738 -1.021,1.957C-0.814,2.177 -0.549,2.286 -0.225,2.286C0.099,2.286 0.366,2.18 0.576,1.967C0.786,1.754 0.891,1.473 0.891,1.125C0.891,0.945 0.866,0.786 0.814,0.648C0.764,0.51 0.681,0.384 0.567,0.269C0.453,0.156 0.309,0.05 0.135,-0.05C-0.039,-0.149 -0.249,-0.243 -0.495,-0.333M-0.72,-0.441C-1.446,-0.801 -1.809,-1.29 -1.809,-1.908C-1.809,-2.094 -1.769,-2.273 -1.687,-2.443C-1.606,-2.614 -1.497,-2.768 -1.359,-2.902C-1.221,-3.037 -1.056,-3.146 -0.864,-3.227C-0.672,-3.308 -0.468,-3.348 -0.252,-3.348C-0.036,-3.348 0.164,-3.316 0.347,-3.249C0.53,-3.183 0.688,-3.093 0.824,-2.98C0.958,-2.865 1.063,-2.732 1.139,-2.578C1.214,-2.426 1.251,-2.262 1.251,-2.088C1.251,-1.914 1.229,-1.761 1.184,-1.629C1.139,-1.497 1.071,-1.379 0.981,-1.274C0.891,-1.169 0.782,-1.071 0.653,-0.982C0.523,-0.891 0.375,-0.804 0.207,-0.72C0.483,-0.588 0.707,-0.456 0.877,-0.324C1.049,-0.192 1.179,-0.059 1.269,0.076C1.359,0.212 1.419,0.347 1.449,0.481C1.479,0.616 1.494,0.753 1.494,0.891C1.494,1.107 1.451,1.314 1.364,1.512C1.277,1.71 1.155,1.883 0.999,2.029C0.843,2.177 0.66,2.294 0.45,2.381C0.24,2.468 0.009,2.511 -0.243,2.511C-0.489,2.511 -0.714,2.475 -0.918,2.403C-1.122,2.331 -1.296,2.229 -1.44,2.097C-1.584,1.965 -1.696,1.809 -1.777,1.629C-1.858,1.449 -1.899,1.254 -1.899,1.044C-1.899,0.912 -1.888,0.781 -1.867,0.652C-1.846,0.523 -1.795,0.395 -1.714,0.269C-1.633,0.143 -1.515,0.022 -1.359,-0.095C-1.203,-0.212 -0.99,-0.327 -0.72,-0.441" style="fill:rgb(35,25,22);fill-rule:nonzero;"/>
            </g>
        </g>
        <g transform="matrix(8.33333,0,0,8.33333,0,0)">
            <g transform="matrix(1,0,0,1,350.987,1671.31)">
                <path d="M0,-1.296L0,-0.846L2.07,-0.846L2.637,-1.522L3.285,-0.747C3.333,-0.705 3.357,-0.671 3.357,-0.644C3.357,-0.616 3.315,-0.604 3.231,-0.604L0.891,-0.604C1.071,0.867 1.941,1.845 3.501,2.331L3.501,2.457C3.339,2.463 3.196,2.505 3.073,2.583C2.95,2.661 2.869,2.745 2.83,2.835C2.791,2.925 2.757,2.97 2.727,2.97C2.655,2.97 2.401,2.771 1.966,2.376C1.531,1.979 1.212,1.561 1.008,1.12C0.804,0.68 0.687,0.105 0.657,-0.604L0,-0.604L0,2.466L1.287,1.872L1.386,1.989L0.153,2.933C-0.075,3.107 -0.227,3.237 -0.302,3.321C-0.377,3.405 -0.429,3.447 -0.459,3.447C-0.489,3.447 -0.525,3.423 -0.567,3.375L-0.972,2.933C-0.798,2.838 -0.693,2.746 -0.657,2.659C-0.621,2.572 -0.603,2.382 -0.603,2.088L-0.603,-0.604L-1.089,-0.604C-1.323,-0.604 -1.521,-0.57 -1.683,-0.504L-2.016,-0.9C-1.794,-0.864 -1.551,-0.846 -1.287,-0.846L-0.603,-0.846L-0.603,-3.672C-0.603,-4.044 -0.615,-4.401 -0.639,-4.743L0.27,-4.374C0.33,-4.35 0.36,-4.32 0.36,-4.284C0.36,-4.248 0.342,-4.221 0.306,-4.203L0,-4.024L0,-1.567C0.882,-2.478 1.545,-3.351 1.989,-4.186L2.691,-3.627C2.75,-3.567 2.781,-3.52 2.781,-3.484C2.781,-3.447 2.715,-3.426 2.583,-3.42C2.451,-3.414 2.277,-3.306 2.061,-3.096C1.203,-2.256 0.516,-1.656 0,-1.296M-2.376,-2.052L-2.376,-3.744L-3.789,-3.744C-4.035,-3.744 -4.233,-3.711 -4.383,-3.646L-4.707,-4.032C-4.485,-4.002 -4.239,-3.987 -3.969,-3.987L-2.412,-3.987L-2.16,-4.473L-1.539,-4.032C-1.497,-4.002 -1.476,-3.974 -1.476,-3.946C-1.476,-3.92 -1.497,-3.894 -1.539,-3.87L-1.764,-3.726L-1.764,-2.817C-1.764,-2.613 -1.758,-2.421 -1.746,-2.241L-1.719,-1.818C-1.719,-1.71 -1.808,-1.615 -1.985,-1.534C-2.162,-1.453 -2.271,-1.413 -2.313,-1.413C-2.355,-1.413 -2.376,-1.458 -2.376,-1.548L-2.376,-1.809L-3.546,-1.809L-3.708,-0.252L-2.466,-0.252L-2.268,-0.612L-1.755,-0.216C-1.707,-0.186 -1.683,-0.156 -1.683,-0.126C-1.683,-0.096 -1.713,-0.057 -1.773,-0.009L-1.908,0.099C-1.986,1.017 -2.061,1.663 -2.133,2.038C-2.205,2.413 -2.289,2.676 -2.385,2.826C-2.481,2.975 -2.646,3.117 -2.88,3.249C-3.114,3.381 -3.257,3.447 -3.308,3.447C-3.359,3.447 -3.39,3.405 -3.402,3.321C-3.414,3.123 -3.506,2.972 -3.677,2.866C-3.848,2.762 -4.083,2.676 -4.383,2.61L-4.374,2.457C-3.864,2.535 -3.504,2.574 -3.294,2.574C-3.084,2.574 -2.94,2.525 -2.862,2.43C-2.784,2.334 -2.714,2.109 -2.651,1.755C-2.588,1.401 -2.529,0.809 -2.475,-0.018L-3.78,-0.018L-3.897,0.18C-3.927,0.228 -3.956,0.252 -3.983,0.252C-4.01,0.252 -4.044,0.234 -4.086,0.198L-4.536,-0.135C-4.398,-0.219 -4.312,-0.291 -4.28,-0.351C-4.247,-0.411 -4.221,-0.528 -4.203,-0.702L-4.113,-1.567C-4.101,-1.729 -4.095,-1.881 -4.095,-2.025C-4.095,-2.169 -4.101,-2.322 -4.113,-2.484L-3.537,-2.052L-2.376,-2.052Z" style="fill:rgb(35,25,22);fill-rule:nonzero;"/>
            </g>
        </g>
        <g transform="matrix(8.33333,0,0,8.33333,0,0)">
            <g transform="matrix(1,0,0,1,362.002,1674.18)">
                <path d="M0,-7.181C0.498,-7.116 0.872,-7.012 1.121,-6.87C1.37,-6.73 1.494,-6.57 1.494,-6.389C1.494,-6.209 1.445,-6.039 1.346,-5.881C1.247,-5.722 1.149,-5.642 1.053,-5.642C0.993,-5.642 0.948,-5.663 0.918,-5.705C0.888,-5.747 0.837,-5.866 0.765,-6.061C0.693,-6.256 0.589,-6.431 0.455,-6.587C0.32,-6.744 0.15,-6.893 -0.054,-7.037L0,-7.181ZM-0.594,-4.427C-0.51,-3.521 -0.343,-2.786 -0.094,-2.222C0.154,-1.659 0.46,-1.231 0.824,-0.94C1.187,-0.649 1.434,-0.503 1.566,-0.503C1.638,-0.503 1.703,-0.535 1.76,-0.598C1.816,-0.66 1.893,-0.851 1.989,-1.169C2.085,-1.488 2.163,-1.779 2.223,-2.042L2.358,-1.997C2.292,-1.452 2.259,-1.018 2.259,-0.697C2.259,-0.376 2.3,-0.145 2.38,-0.004C2.461,0.137 2.502,0.245 2.502,0.32C2.502,0.395 2.432,0.432 2.291,0.432C2.149,0.432 1.9,0.367 1.543,0.235C1.187,0.102 0.858,-0.077 0.558,-0.305C0.258,-0.534 -0.012,-0.826 -0.252,-1.183C-0.492,-1.539 -0.691,-1.979 -0.851,-2.501C-1.009,-3.024 -1.122,-3.632 -1.188,-4.328L-2.232,-4.158C-2.508,-4.109 -2.7,-4.046 -2.808,-3.968L-3.195,-4.31C-3.069,-4.31 -2.823,-4.34 -2.457,-4.401L-1.206,-4.598C-1.284,-5.516 -1.347,-6.56 -1.395,-7.73L-0.45,-7.343C-0.384,-7.32 -0.351,-7.292 -0.351,-7.262C-0.351,-7.232 -0.375,-7.202 -0.423,-7.172L-0.639,-7.019C-0.657,-6.599 -0.666,-6.238 -0.666,-5.935C-0.666,-5.632 -0.648,-5.219 -0.612,-4.698L1.215,-5.012L1.557,-5.652L2.304,-5.084C2.358,-5.042 2.385,-5.006 2.385,-4.976C2.385,-4.947 2.352,-4.925 2.286,-4.913L-0.594,-4.427ZM-4.149,-4.572C-4.689,-3.78 -5.187,-3.156 -5.643,-2.7L-5.769,-2.798C-4.845,-4.035 -4.086,-5.624 -3.492,-7.569L-2.727,-7.065C-2.655,-7.016 -2.619,-6.973 -2.619,-6.934C-2.619,-6.895 -2.664,-6.862 -2.754,-6.834C-2.844,-6.808 -2.917,-6.757 -2.975,-6.682C-3.032,-6.607 -3.12,-6.436 -3.24,-6.169C-3.36,-5.902 -3.543,-5.561 -3.789,-5.147L-3.393,-4.967C-3.339,-4.944 -3.312,-4.921 -3.312,-4.9C-3.312,-4.878 -3.336,-4.847 -3.384,-4.805L-3.528,-4.679L-3.528,-1.601C-3.528,-1.001 -3.523,-0.574 -3.515,-0.319C-3.505,-0.064 -3.501,0.087 -3.501,0.131C-3.501,0.176 -3.522,0.219 -3.564,0.261C-3.606,0.303 -3.701,0.362 -3.847,0.437C-3.995,0.512 -4.093,0.549 -4.145,0.549C-4.195,0.549 -4.221,0.474 -4.221,0.325L-4.176,-0.683C-4.158,-1.145 -4.149,-1.52 -4.149,-1.808L-4.149,-4.572Z" style="fill:rgb(35,25,22);fill-rule:nonzero;"/>
            </g>
        </g>
        <g transform="matrix(8.33333,0,0,8.33333,0,0)">
            <g transform="matrix(1,0,0,1,370.003,1673.41)">
                <path d="M0,-5.338L-2.043,-5.338C-2.277,-5.338 -2.481,-5.305 -2.655,-5.238L-2.997,-5.635C-2.769,-5.605 -2.517,-5.59 -2.241,-5.59L0,-5.59C0,-6.016 -0.012,-6.463 -0.036,-6.931L0.828,-6.67C0.906,-6.651 0.945,-6.626 0.945,-6.593C0.945,-6.56 0.906,-6.517 0.828,-6.463L0.648,-6.337L0.648,-5.59L2.565,-5.59L3.177,-6.327L3.906,-5.49C3.948,-5.448 3.969,-5.412 3.969,-5.383C3.969,-5.353 3.927,-5.338 3.843,-5.338L0.648,-5.338L0.648,-4.32L2.115,-4.32L2.673,-4.986L3.348,-4.222C3.384,-4.174 3.402,-4.135 3.402,-4.105C3.402,-4.074 3.36,-4.06 3.276,-4.06L0.648,-4.06L0.648,-3.114L3.222,-3.114L3.744,-3.744L4.374,-3.016C4.416,-2.968 4.437,-2.93 4.437,-2.903C4.437,-2.876 4.392,-2.862 4.302,-2.862L0.504,-2.862C0.66,-2.166 0.894,-1.606 1.206,-1.18C1.902,-1.707 2.4,-2.173 2.7,-2.574L3.285,-2.053C3.351,-1.981 3.384,-1.93 3.384,-1.9C3.384,-1.869 3.342,-1.849 3.258,-1.837C2.964,-1.807 2.334,-1.516 1.368,-0.964C1.974,-0.249 2.982,0.245 4.392,0.521L4.392,0.647C4.23,0.678 4.082,0.737 3.946,0.827C3.812,0.918 3.72,1.005 3.672,1.089C3.624,1.173 3.576,1.215 3.528,1.215C3.42,1.215 3.056,1.034 2.435,0.675C1.813,0.314 1.341,-0.109 1.017,-0.595C0.693,-1.08 0.447,-1.749 0.279,-2.602C0.009,-2.272 -0.342,-1.927 -0.774,-1.567L-0.774,0.504L1.062,-0.109L1.089,0.026L-0.351,0.882C-0.825,1.163 -1.095,1.352 -1.161,1.448C-1.227,1.544 -1.278,1.593 -1.314,1.593C-1.35,1.593 -1.389,1.559 -1.431,1.493L-1.8,0.891C-1.662,0.83 -1.564,0.768 -1.507,0.706C-1.451,0.642 -1.422,0.527 -1.422,0.359L-1.422,-1.063C-2.124,-0.553 -2.925,-0.091 -3.825,0.323L-3.906,0.171C-2.328,-0.808 -1.152,-1.818 -0.378,-2.862L-2.718,-2.862C-2.964,-2.862 -3.168,-2.829 -3.33,-2.764L-3.672,-3.159C-3.444,-3.13 -3.195,-3.114 -2.925,-3.114L0,-3.114L0,-4.06L-1.62,-4.06C-1.854,-4.06 -2.058,-4.029 -2.232,-3.97L-2.574,-4.365C-2.346,-4.335 -2.097,-4.32 -1.827,-4.32L0,-4.32L0,-5.338Z" style="fill:rgb(35,25,22);fill-rule:nonzero;"/>
            </g>
        </g>
        <g transform="matrix(8.33333,0,0,8.33333,0,0)">
            <g transform="matrix(1,0,0,1,378.904,1667.07)">
                <path d="M0,5.742C-0.156,5.736 -0.329,5.73 -0.518,5.724C-0.707,5.719 -0.897,5.716 -1.089,5.716C-1.281,5.716 -1.472,5.719 -1.661,5.724C-1.85,5.73 -2.022,5.736 -2.178,5.742L-2.178,5.59L-1.692,5.509C-1.482,5.461 -1.377,5.344 -1.377,5.157L-1.377,0.738L-2.448,1.431L-2.583,1.242C-2.373,1.104 -2.136,0.931 -1.872,0.724C-1.608,0.517 -1.332,0.276 -1.044,0L-0.747,0L-0.747,5.157C-0.747,5.361 -0.642,5.481 -0.432,5.517L0,5.59L0,5.742Z" style="fill:rgb(35,25,22);fill-rule:nonzero;"/>
            </g>
        </g>
        <g transform="matrix(8.33333,0,0,8.33333,0,0)">
            <g transform="matrix(1,0,0,1,383.26,1670.43)">
                <path d="M0,-0.837C0.246,-0.957 0.434,-1.126 0.562,-1.346C0.691,-1.565 0.753,-1.812 0.747,-2.088C0.741,-2.226 0.716,-2.358 0.671,-2.484C0.625,-2.61 0.56,-2.72 0.473,-2.813C0.386,-2.905 0.281,-2.981 0.158,-3.037C0.035,-3.095 -0.105,-3.123 -0.261,-3.123C-0.417,-3.123 -0.557,-3.096 -0.679,-3.042C-0.802,-2.988 -0.906,-2.916 -0.99,-2.826C-1.074,-2.736 -1.14,-2.63 -1.188,-2.507C-1.236,-2.384 -1.26,-2.25 -1.26,-2.107C-1.26,-2.016 -1.243,-1.914 -1.21,-1.8C-1.177,-1.686 -1.116,-1.57 -1.026,-1.453C-0.936,-1.337 -0.809,-1.224 -0.644,-1.116C-0.479,-1.008 -0.264,-0.915 0,-0.837M-0.495,-0.333C-0.801,-0.183 -1.017,0 -1.143,0.216C-1.269,0.432 -1.332,0.72 -1.332,1.08C-1.332,1.446 -1.229,1.738 -1.021,1.957C-0.814,2.177 -0.549,2.286 -0.225,2.286C0.099,2.286 0.366,2.18 0.576,1.967C0.786,1.754 0.891,1.473 0.891,1.125C0.891,0.945 0.866,0.786 0.814,0.648C0.764,0.51 0.681,0.384 0.567,0.269C0.453,0.156 0.309,0.05 0.135,-0.05C-0.039,-0.149 -0.249,-0.243 -0.495,-0.333M-0.72,-0.441C-1.446,-0.801 -1.809,-1.29 -1.809,-1.908C-1.809,-2.094 -1.769,-2.273 -1.687,-2.443C-1.606,-2.614 -1.497,-2.768 -1.359,-2.902C-1.221,-3.037 -1.056,-3.146 -0.864,-3.227C-0.672,-3.308 -0.468,-3.348 -0.252,-3.348C-0.036,-3.348 0.164,-3.316 0.347,-3.249C0.53,-3.183 0.688,-3.093 0.824,-2.98C0.958,-2.865 1.063,-2.732 1.139,-2.578C1.214,-2.426 1.251,-2.262 1.251,-2.088C1.251,-1.914 1.229,-1.761 1.184,-1.629C1.139,-1.497 1.071,-1.379 0.981,-1.274C0.891,-1.169 0.782,-1.071 0.653,-0.982C0.523,-0.891 0.375,-0.804 0.207,-0.72C0.483,-0.588 0.707,-0.456 0.877,-0.324C1.049,-0.192 1.179,-0.059 1.269,0.076C1.359,0.212 1.419,0.347 1.449,0.481C1.479,0.616 1.494,0.753 1.494,0.891C1.494,1.107 1.451,1.314 1.364,1.512C1.277,1.71 1.155,1.883 0.999,2.029C0.843,2.177 0.66,2.294 0.45,2.381C0.24,2.468 0.009,2.511 -0.243,2.511C-0.489,2.511 -0.714,2.475 -0.918,2.403C-1.122,2.331 -1.296,2.229 -1.44,2.097C-1.584,1.965 -1.696,1.809 -1.777,1.629C-1.858,1.449 -1.899,1.254 -1.899,1.044C-1.899,0.912 -1.888,0.781 -1.867,0.652C-1.846,0.523 -1.795,0.395 -1.714,0.269C-1.633,0.143 -1.515,0.022 -1.359,-0.095C-1.203,-0.212 -0.99,-0.327 -0.72,-0.441" style="fill:rgb(35,25,22);fill-rule:nonzero;"/>
            </g>
        </g>
        <g transform="matrix(8.33333,0,0,8.33333,0,0)">
            <g transform="matrix(1,0,0,1,390.829,1671.35)">
                <path d="M0,-1.593L-0.171,-1.467L-0.171,1.458C-0.171,1.962 -0.165,2.334 -0.153,2.574C-0.141,2.813 -0.135,2.946 -0.135,2.969C-0.135,3.108 -0.236,3.216 -0.437,3.294C-0.638,3.372 -0.759,3.411 -0.801,3.411C-0.873,3.411 -0.909,3.347 -0.909,3.221L-0.855,2.34C-0.837,1.956 -0.828,1.593 -0.828,1.251L-0.828,-0.711C-0.828,-1.215 -0.84,-1.731 -0.864,-2.259L0,-1.819C0.072,-1.788 0.108,-1.757 0.108,-1.724C0.108,-1.691 0.072,-1.648 0,-1.593M-0.351,-4.131C-0.963,-3.177 -1.64,-2.368 -2.38,-1.705C-3.122,-1.042 -3.852,-0.576 -4.572,-0.306L-4.626,-0.459C-3.81,-0.969 -3.057,-1.624 -2.367,-2.426C-1.677,-3.227 -1.128,-4.086 -0.72,-5.004L0.063,-4.5C0.153,-4.44 0.198,-4.394 0.198,-4.361C0.198,-4.327 0.148,-4.305 0.049,-4.293C-0.05,-4.281 -0.135,-4.26 -0.207,-4.231C0.177,-3.48 0.72,-2.868 1.422,-2.394C2.124,-1.92 2.916,-1.629 3.798,-1.521L3.789,-1.405C3.573,-1.398 3.385,-1.338 3.227,-1.224C3.067,-1.111 2.958,-0.969 2.898,-0.801C2.868,-0.741 2.832,-0.711 2.79,-0.711C2.7,-0.711 2.365,-0.899 1.787,-1.274C1.208,-1.649 0.75,-2.058 0.414,-2.502C0.078,-2.947 -0.177,-3.489 -0.351,-4.131" style="fill:rgb(35,25,22);fill-rule:nonzero;"/>
            </g>
        </g>
        <g transform="matrix(8.33333,0,0,8.33333,0,0)">
            <g transform="matrix(1,0,0,1,403.807,1673.68)">
                <path d="M0,-6.093C0.036,-6.039 0.054,-6 0.054,-5.976C0.054,-5.952 0.012,-5.941 -0.072,-5.941L-3.465,-5.941C-3.711,-5.941 -3.906,-5.907 -4.05,-5.841L-4.383,-6.229C-4.155,-6.198 -3.909,-6.183 -3.645,-6.183L-1.161,-6.183L-0.621,-6.822L0,-6.093ZM-1.827,-3.681L-4.023,-3.681C-4.275,-3.681 -4.473,-3.649 -4.617,-3.582L-4.95,-3.969C-4.722,-3.939 -4.476,-3.924 -4.212,-3.924L-0.603,-3.924L-0.027,-4.617L0.63,-3.825C0.672,-3.778 0.693,-3.741 0.693,-3.717C0.693,-3.694 0.651,-3.681 0.567,-3.681L-1.125,-3.681L-1.125,-0.081C-1.125,0.224 -1.155,0.444 -1.215,0.576C-1.275,0.708 -1.417,0.838 -1.638,0.968C-1.86,1.096 -1.998,1.161 -2.052,1.161C-2.106,1.161 -2.146,1.116 -2.169,1.026C-2.211,0.828 -2.318,0.679 -2.489,0.58C-2.66,0.481 -2.997,0.381 -3.501,0.279L-3.474,0.09C-2.922,0.156 -2.54,0.188 -2.327,0.188C-2.114,0.188 -1.977,0.171 -1.917,0.135C-1.857,0.098 -1.827,0.042 -1.827,-0.036L-1.827,-3.681ZM-4.59,-6.652C-4.554,-6.61 -4.536,-6.572 -4.536,-6.538C-4.536,-6.506 -4.589,-6.481 -4.694,-6.462C-4.799,-6.445 -4.938,-6.361 -5.112,-6.21C-5.844,-5.592 -6.657,-5.058 -7.551,-4.609L-7.668,-4.725C-6.474,-5.595 -5.613,-6.439 -5.085,-7.254L-4.59,-6.652ZM-6.084,-3.07C-6.486,-2.679 -6.984,-2.236 -7.578,-1.738L-7.686,-1.89C-6.558,-3.067 -5.706,-4.242 -5.13,-5.418L-4.581,-4.95C-4.515,-4.897 -4.482,-4.839 -4.482,-4.78C-4.482,-4.719 -4.518,-4.69 -4.59,-4.69C-4.65,-4.69 -4.766,-4.576 -4.937,-4.352C-5.108,-4.127 -5.319,-3.876 -5.571,-3.6L-5.319,-3.519C-5.247,-3.489 -5.211,-3.456 -5.211,-3.42C-5.211,-3.384 -5.244,-3.345 -5.31,-3.303L-5.454,-3.196L-5.454,-0.963C-5.454,-0.351 -5.45,0.075 -5.441,0.315C-5.432,0.554 -5.427,0.7 -5.427,0.751C-5.427,0.803 -5.447,0.848 -5.486,0.89C-5.525,0.932 -5.613,0.987 -5.751,1.053C-5.889,1.119 -5.991,1.152 -6.057,1.152C-6.123,1.152 -6.156,1.086 -6.156,0.954L-6.111,0.036C-6.093,-0.366 -6.084,-0.765 -6.084,-1.161L-6.084,-3.07Z" style="fill:rgb(35,25,22);fill-rule:nonzero;"/>
            </g>
        </g>
        <g transform="matrix(8.33333,0,0,8.33333,0,0)">
            <g transform="matrix(1,0,0,1,410.602,1670.45)">
                <path d="M0,0.172C0.372,0.369 0.675,0.568 0.909,0.766C1.143,0.964 1.26,1.174 1.26,1.396C1.26,1.539 1.215,1.675 1.125,1.801C1.035,1.927 0.928,1.989 0.805,1.989C0.682,1.989 0.6,1.908 0.558,1.746C0.378,1.093 0.156,0.598 -0.108,0.262L0,0.172ZM-2.781,-3.375C-2.343,-3.177 -1.994,-2.978 -1.733,-2.78C-1.472,-2.583 -1.341,-2.346 -1.341,-2.069C-1.341,-1.932 -1.391,-1.807 -1.49,-1.696C-1.589,-1.585 -1.701,-1.529 -1.827,-1.529C-1.953,-1.529 -2.034,-1.601 -2.07,-1.745C-2.244,-2.424 -2.505,-2.931 -2.853,-3.266L-2.781,-3.375ZM-0.72,-0.963L-3.06,-0.963C-3.312,-0.963 -3.507,-0.932 -3.645,-0.873L-3.969,-1.277C-3.729,-1.254 -3.486,-1.241 -3.24,-1.241L-0.666,-1.241C-0.486,-2.082 -0.366,-3.023 -0.306,-4.067L0.594,-3.617C0.69,-3.582 0.738,-3.544 0.738,-3.505C0.738,-3.466 0.699,-3.426 0.621,-3.384C0.489,-3.317 0.391,-3.109 0.328,-2.758C0.265,-2.407 0.156,-1.901 0,-1.241L2.475,-1.241L2.817,-1.71L3.492,-1.08C3.552,-1.025 3.582,-0.976 3.582,-0.931C3.582,-0.886 3.552,-0.846 3.492,-0.809L3.195,-0.656C3.129,0.214 3.054,0.94 2.97,1.522C2.886,2.104 2.817,2.541 2.763,2.835C2.709,3.129 2.599,3.375 2.434,3.573C2.269,3.772 2.071,3.918 1.84,4.015C1.609,4.11 1.465,4.158 1.408,4.158C1.351,4.158 1.32,4.116 1.314,4.032C1.308,3.906 1.278,3.806 1.224,3.731C1.17,3.656 1.068,3.581 0.918,3.506C0.768,3.431 0.525,3.343 0.189,3.24L0.279,3.088C0.699,3.19 1.024,3.24 1.255,3.24C1.486,3.24 1.662,3.204 1.782,3.133C1.902,3.061 1.987,2.958 2.038,2.826C2.089,2.694 2.155,2.384 2.236,1.895C2.317,1.406 2.382,0.931 2.43,0.469C2.478,0.007 2.514,-0.471 2.538,-0.963L-0.072,-0.963C-0.264,-0.182 -0.501,0.525 -0.783,1.157C-1.065,1.79 -1.514,2.38 -2.129,2.926C-2.744,3.472 -3.468,3.909 -4.302,4.239L-4.365,4.096C-3.279,3.526 -2.462,2.826 -1.913,1.998C-1.364,1.17 -0.966,0.184 -0.72,-0.963" style="fill:rgb(35,25,22);fill-rule:nonzero;"/>
            </g>
        </g>
        <g transform="matrix(8.33333,0,0,8.33333,0,0)">
            <g transform="matrix(1,0,0,1,420.115,1671.41)">
                <path d="M0,-1.594L2.187,-1.594L2.187,-2.7L0.36,-2.7C0.294,-2.323 0.174,-1.953 0,-1.594M-2.097,-1.594L-0.621,-1.594C-0.429,-2.008 -0.312,-2.376 -0.27,-2.7L-2.097,-2.7L-2.097,-1.594ZM-1.314,-3.834C-1.74,-3.445 -2.1,-3.151 -2.394,-2.952L-2.376,-2.944L-0.054,-2.944L0.675,-3.834L-1.314,-3.834ZM-0.783,-1.342L-2.097,-1.342C-2.097,-1.198 -2.167,-1.088 -2.309,-1.013C-2.45,-0.938 -2.563,-0.901 -2.65,-0.901C-2.737,-0.901 -2.781,-0.957 -2.781,-1.072C-2.781,-1.108 -2.778,-1.144 -2.772,-1.18C-2.724,-1.426 -2.7,-1.662 -2.7,-1.891L-2.7,-2.215C-2.7,-2.443 -2.703,-2.622 -2.709,-2.755C-3.027,-2.563 -3.45,-2.328 -3.978,-2.053L-4.068,-2.188C-2.88,-2.913 -1.911,-3.856 -1.161,-5.014L-0.54,-4.681C-0.45,-4.639 -0.405,-4.598 -0.405,-4.559C-0.405,-4.52 -0.452,-4.481 -0.544,-4.443C-0.638,-4.404 -0.804,-4.284 -1.044,-4.087L0.693,-4.087L1.152,-4.573L1.818,-3.979C1.902,-3.907 1.944,-3.854 1.944,-3.822C1.944,-3.788 1.932,-3.77 1.909,-3.767C1.884,-3.764 1.806,-3.763 1.674,-3.763C1.416,-3.763 1.149,-3.66 0.873,-3.456L0.18,-2.944L2.125,-2.944L2.421,-3.33L3.006,-2.863C3.054,-2.821 3.079,-2.789 3.079,-2.768C3.079,-2.747 3.054,-2.725 3.006,-2.7L2.791,-2.548L2.791,-2.376C2.791,-2.155 2.796,-1.987 2.808,-1.872L2.835,-1.558C2.835,-1.468 2.757,-1.376 2.601,-1.283C2.445,-1.19 2.337,-1.144 2.277,-1.144C2.217,-1.144 2.187,-1.209 2.187,-1.342L-0.153,-1.342C-0.237,-1.228 -0.327,-1.122 -0.423,-1.027C0.021,-0.739 0.366,-0.352 0.612,0.135C1.584,-0.364 2.283,-0.811 2.709,-1.206L3.124,-0.676C3.171,-0.61 3.195,-0.559 3.195,-0.523C3.195,-0.487 3.153,-0.466 3.069,-0.459C2.799,-0.448 2.55,-0.4 2.322,-0.316C1.884,-0.136 1.56,-0.01 1.35,0.062C1.752,0.644 2.125,1.063 2.471,1.318C2.816,1.573 3.348,1.763 4.068,1.889L4.068,2.024C3.906,2.06 3.774,2.133 3.672,2.24C3.57,2.348 3.507,2.468 3.483,2.6C3.471,2.666 3.447,2.699 3.412,2.699C3.292,2.699 2.956,2.497 2.403,2.092C1.851,1.687 1.428,1.038 1.134,0.143C1.008,0.185 0.858,0.236 0.684,0.297C0.858,0.74 0.945,1.178 0.945,1.61C0.945,2.043 0.882,2.383 0.756,2.632C0.63,2.881 0.479,3.074 0.301,3.213C0.125,3.35 0.001,3.42 -0.067,3.42C-0.137,3.42 -0.189,3.371 -0.225,3.275C-0.309,3.113 -0.418,2.992 -0.554,2.911C-0.688,2.83 -0.948,2.715 -1.332,2.564L-1.251,2.402C-0.783,2.48 -0.456,2.519 -0.27,2.519C-0.084,2.519 0.049,2.488 0.13,2.425C0.211,2.362 0.269,2.169 0.301,1.844C0.334,1.52 0.351,1.304 0.351,1.196C0.351,1.089 0.345,0.995 0.333,0.918C-0.303,1.464 -0.933,1.898 -1.557,2.222C-2.181,2.547 -2.937,2.825 -3.825,3.059L-3.951,2.942C-2.217,2.253 -0.819,1.383 0.243,0.333C0.183,0.165 0.099,0.003 -0.009,-0.154C-0.933,0.698 -2.118,1.346 -3.564,1.791L-3.699,1.664C-2.109,0.921 -0.987,0.182 -0.333,-0.55L-0.603,-0.828C-1.443,-0.091 -2.526,0.404 -3.852,0.656L-3.951,0.521C-3.327,0.329 -2.709,0.048 -2.097,-0.324C-1.485,-0.697 -1.047,-1.035 -0.783,-1.342" style="fill:rgb(35,25,22);fill-rule:nonzero;"/>
            </g>
        </g>
        <g transform="matrix(8.33333,0,0,8.33333,0,0)">
            <g transform="matrix(1,0,0,1,431.662,1671.03)">
                <path d="M0,-0.684L0.873,-0.684L1.351,-1.26L1.908,-0.585C1.944,-0.543 1.962,-0.507 1.962,-0.477C1.962,-0.447 1.923,-0.432 1.846,-0.432L0,-0.432L0,2.781L1.314,2.781L1.881,2.106L2.529,2.88C2.565,2.928 2.583,2.967 2.583,2.997C2.583,3.027 2.544,3.042 2.466,3.042L-2.897,3.042C-3.149,3.042 -3.354,3.072 -3.51,3.132L-3.843,2.736C-3.615,2.766 -3.366,2.781 -3.096,2.781L-2.483,2.781L-2.483,-0.18C-2.483,-0.749 -2.496,-1.245 -2.52,-1.665L-1.764,-1.287C-1.649,-1.227 -1.593,-1.179 -1.593,-1.143C-1.593,-1.107 -1.638,-1.062 -1.728,-1.008L-1.872,-0.918L-1.872,2.781L-0.639,2.781L-0.639,-3.15L-2.088,-3.15C-2.34,-3.15 -2.544,-3.12 -2.7,-3.06L-3.023,-3.455C-2.802,-3.42 -2.553,-3.402 -2.276,-3.402L0.928,-3.402L1.494,-4.086L2.143,-3.312C2.179,-3.264 2.196,-3.225 2.196,-3.195C2.196,-3.164 2.157,-3.15 2.079,-3.15L0,-3.15L0,-0.684ZM-3.104,-4.05C-3.033,-3.99 -2.997,-3.936 -2.997,-3.888C-2.997,-3.84 -3.043,-3.816 -3.136,-3.816C-3.229,-3.816 -3.417,-3.684 -3.698,-3.42C-4.245,-2.904 -4.887,-2.391 -5.625,-1.881L-5.732,-1.989C-5.402,-2.265 -5.026,-2.654 -4.604,-3.155C-4.181,-3.656 -3.854,-4.101 -3.627,-4.491L-3.104,-4.05ZM-4.509,-0.459C-4.904,-0.063 -5.334,0.321 -5.796,0.693L-5.877,0.531C-5.522,0.183 -5.088,-0.349 -4.571,-1.067C-4.056,-1.784 -3.695,-2.343 -3.492,-2.745L-2.961,-2.286C-2.906,-2.238 -2.88,-2.185 -2.88,-2.128C-2.88,-2.072 -2.923,-2.043 -3.01,-2.043C-3.098,-2.043 -3.225,-1.935 -3.393,-1.719C-3.627,-1.413 -3.891,-1.104 -4.185,-0.792L-3.825,-0.648C-3.747,-0.612 -3.708,-0.579 -3.708,-0.549C-3.708,-0.519 -3.741,-0.477 -3.807,-0.423L-3.905,-0.342L-3.905,1.701C-3.905,2.247 -3.899,2.654 -3.888,2.92C-3.876,3.187 -3.87,3.333 -3.87,3.357C-3.87,3.477 -3.961,3.582 -4.145,3.672C-4.327,3.762 -4.445,3.807 -4.5,3.807C-4.554,3.807 -4.581,3.747 -4.581,3.628L-4.536,2.799C-4.518,2.439 -4.509,2.094 -4.509,1.764L-4.509,-0.459Z" style="fill:rgb(35,25,22);fill-rule:nonzero;"/>
            </g>
        </g>
        <g transform="matrix(8.33333,0,0,8.33333,0,0)">
            <g transform="matrix(1,0,0,1,438.647,1667.07)">
                <path d="M0,5.742C-0.156,5.736 -0.329,5.73 -0.518,5.724C-0.707,5.719 -0.897,5.716 -1.089,5.716C-1.281,5.716 -1.472,5.719 -1.661,5.724C-1.85,5.73 -2.022,5.736 -2.178,5.742L-2.178,5.59L-1.692,5.509C-1.482,5.461 -1.377,5.344 -1.377,5.157L-1.377,0.738L-2.448,1.431L-2.583,1.242C-2.373,1.104 -2.137,0.931 -1.872,0.724C-1.608,0.517 -1.332,0.276 -1.044,0L-0.747,0L-0.747,5.157C-0.747,5.361 -0.643,5.481 -0.433,5.517L0,5.59L0,5.742Z" style="fill:rgb(35,25,22);fill-rule:nonzero;"/>
            </g>
        </g>
        <g transform="matrix(8.33333,0,0,8.33333,0,0)">
            <g transform="matrix(1,0,0,1,443.002,1670.43)">
                <path d="M0,-0.837C0.246,-0.957 0.434,-1.126 0.562,-1.346C0.691,-1.565 0.753,-1.812 0.747,-2.088C0.741,-2.226 0.716,-2.358 0.671,-2.484C0.625,-2.61 0.56,-2.72 0.473,-2.813C0.386,-2.905 0.28,-2.981 0.157,-3.037C0.034,-3.095 -0.105,-3.123 -0.261,-3.123C-0.417,-3.123 -0.557,-3.096 -0.68,-3.042C-0.803,-2.988 -0.906,-2.916 -0.99,-2.826C-1.074,-2.736 -1.14,-2.63 -1.188,-2.507C-1.236,-2.384 -1.26,-2.25 -1.26,-2.107C-1.26,-2.016 -1.243,-1.914 -1.211,-1.8C-1.178,-1.686 -1.116,-1.57 -1.026,-1.453C-0.937,-1.337 -0.809,-1.224 -0.644,-1.116C-0.479,-1.008 -0.264,-0.915 0,-0.837M-0.495,-0.333C-0.801,-0.183 -1.017,0 -1.143,0.216C-1.27,0.432 -1.332,0.72 -1.332,1.08C-1.332,1.446 -1.229,1.738 -1.021,1.957C-0.814,2.177 -0.549,2.286 -0.225,2.286C0.099,2.286 0.366,2.18 0.576,1.967C0.786,1.754 0.891,1.473 0.891,1.125C0.891,0.945 0.865,0.786 0.814,0.648C0.764,0.51 0.681,0.384 0.567,0.269C0.453,0.156 0.309,0.05 0.135,-0.05C-0.039,-0.149 -0.249,-0.243 -0.495,-0.333M-0.72,-0.441C-1.446,-0.801 -1.809,-1.29 -1.809,-1.908C-1.809,-2.094 -1.769,-2.273 -1.687,-2.443C-1.606,-2.614 -1.497,-2.768 -1.359,-2.902C-1.221,-3.037 -1.057,-3.146 -0.864,-3.227C-0.672,-3.308 -0.468,-3.348 -0.252,-3.348C-0.036,-3.348 0.163,-3.316 0.347,-3.249C0.529,-3.183 0.688,-3.093 0.823,-2.98C0.958,-2.865 1.063,-2.732 1.139,-2.578C1.214,-2.426 1.251,-2.262 1.251,-2.088C1.251,-1.914 1.229,-1.761 1.184,-1.629C1.139,-1.497 1.071,-1.379 0.98,-1.274C0.891,-1.169 0.781,-1.071 0.652,-0.982C0.523,-0.891 0.375,-0.804 0.207,-0.72C0.482,-0.588 0.706,-0.456 0.877,-0.324C1.049,-0.192 1.179,-0.059 1.269,0.076C1.359,0.212 1.419,0.347 1.449,0.481C1.479,0.616 1.494,0.753 1.494,0.891C1.494,1.107 1.45,1.314 1.363,1.512C1.276,1.71 1.155,1.883 0.999,2.029C0.843,2.177 0.66,2.294 0.45,2.381C0.24,2.468 0.009,2.511 -0.243,2.511C-0.489,2.511 -0.714,2.475 -0.918,2.403C-1.122,2.331 -1.296,2.229 -1.44,2.097C-1.584,1.965 -1.696,1.809 -1.777,1.629C-1.858,1.449 -1.899,1.254 -1.899,1.044C-1.899,0.912 -1.889,0.781 -1.867,0.652C-1.847,0.523 -1.796,0.395 -1.715,0.269C-1.634,0.143 -1.516,0.022 -1.359,-0.095C-1.203,-0.212 -0.99,-0.327 -0.72,-0.441" style="fill:rgb(35,25,22);fill-rule:nonzero;"/>
            </g>
        </g>
        <g transform="matrix(8.33333,0,0,8.33333,0,0)">
            <g transform="matrix(1,0,0,1,449.185,1671.46)">
                <path d="M0,-1.628L3.051,-1.628L3.563,-2.24L4.158,-1.529C4.206,-1.476 4.229,-1.435 4.229,-1.408C4.229,-1.381 4.185,-1.367 4.095,-1.367L0.207,-1.367C-0.033,-1.367 -0.24,-1.334 -0.414,-1.269L-0.747,-1.674C-0.525,-1.644 -0.276,-1.628 0,-1.628M3.528,-4.157L-1.224,-4.157L-1.224,-3.023L3.528,-3.023L3.528,-4.157ZM1.017,0.091L-0.378,0.091C-0.612,0.091 -0.816,0.124 -0.99,0.189L-1.314,-0.189C-1.398,0.525 -1.575,1.139 -1.845,1.652C-2.115,2.165 -2.547,2.685 -3.141,3.214L-3.24,3.105C-2.725,2.523 -2.362,1.911 -2.155,1.269C-1.948,0.628 -1.845,-0.446 -1.845,-1.952L-1.845,-3.591C-1.845,-4.082 -1.857,-4.502 -1.881,-4.851L-1.125,-4.409L3.375,-4.409L3.744,-4.832L4.355,-4.454C4.428,-4.406 4.464,-4.369 4.464,-4.342C4.464,-4.315 4.431,-4.277 4.365,-4.23L4.148,-4.095L4.148,-3.636C4.148,-3.497 4.156,-3.317 4.172,-3.096C4.187,-2.873 4.194,-2.738 4.194,-2.69C4.194,-2.643 4.172,-2.602 4.126,-2.569C4.081,-2.536 3.996,-2.495 3.87,-2.447C3.744,-2.399 3.655,-2.375 3.604,-2.375C3.554,-2.375 3.528,-2.411 3.528,-2.483L3.528,-2.772L-1.224,-2.772L-1.224,-1.935C-1.224,-1.274 -1.254,-0.698 -1.314,-0.206C-1.092,-0.177 -0.85,-0.161 -0.585,-0.161L3.825,-0.161L4.365,-0.791L4.977,-0.063C5.019,-0.002 5.04,0.038 5.04,0.059C5.04,0.08 4.995,0.091 4.905,0.091L1.098,0.091L1.683,0.486C1.761,0.535 1.8,0.572 1.8,0.599C1.8,0.626 1.74,0.664 1.62,0.712C1.5,0.76 1.353,0.886 1.179,1.09C0.825,1.491 0.432,1.902 0,2.322L3.375,2.241C3.11,1.876 2.736,1.485 2.25,1.071L2.34,0.973C3.689,1.705 4.365,2.293 4.365,2.736C4.365,2.868 4.33,2.982 4.262,3.078C4.192,3.175 4.114,3.223 4.027,3.223C3.94,3.223 3.876,3.201 3.834,3.159C3.792,3.117 3.748,3.027 3.703,2.89C3.658,2.752 3.603,2.622 3.537,2.503L1.476,2.7C0.99,2.742 0.562,2.792 0.193,2.849C-0.176,2.906 -0.384,2.948 -0.432,2.975C-0.48,3.002 -0.539,3.016 -0.607,3.016C-0.677,3.016 -0.727,2.982 -0.756,2.917L-0.972,2.403C-0.786,2.392 -0.632,2.347 -0.509,2.268C-0.386,2.19 -0.229,2.037 -0.041,1.81C0.148,1.582 0.36,1.277 0.594,0.896C0.828,0.516 0.969,0.247 1.017,0.091" style="fill:rgb(35,25,22);fill-rule:nonzero;"/>
            </g>
        </g>
        <g transform="matrix(8.33333,0,0,8.33333,0,0)">
            <g transform="matrix(1,0,0,1,461.605,1671.9)">
                <path d="M0,-2.673L1.08,-3.168L1.413,-3.798L2.133,-3.33C2.192,-3.294 2.223,-3.258 2.223,-3.222C2.223,-3.186 2.202,-3.15 2.16,-3.114L1.836,-2.844C1.818,-2.279 1.789,-1.669 1.75,-1.013C1.711,-0.356 1.68,0.031 1.656,0.148C1.632,0.265 1.567,0.375 1.463,0.477C1.357,0.579 1.227,0.68 1.071,0.778C0.915,0.878 0.815,0.927 0.773,0.927C0.731,0.927 0.697,0.855 0.67,0.711C0.644,0.567 0.583,0.468 0.49,0.414C0.397,0.36 0.261,0.309 0.081,0.261L0.09,0.117C0.336,0.147 0.537,0.162 0.693,0.162C0.849,0.162 0.948,0.12 0.99,0.036C1.032,-0.048 1.072,-0.357 1.111,-0.891C1.15,-1.425 1.176,-2.103 1.187,-2.925L0,-2.349L0,-0.144C0,0.282 0.005,0.575 0.014,0.733C0.022,0.892 0.027,0.978 0.027,0.99C0.027,1.098 -0.047,1.181 -0.193,1.237C-0.341,1.295 -0.444,1.323 -0.504,1.323C-0.564,1.323 -0.594,1.269 -0.594,1.161L-0.576,0.702C-0.57,0.522 -0.567,0.234 -0.567,-0.162L-0.567,-2.088L-1.566,-1.611L-1.566,1.639C-1.566,1.818 -1.542,1.935 -1.494,1.989C-1.446,2.043 -1.323,2.079 -1.125,2.098C-0.927,2.115 -0.609,2.124 -0.171,2.124C0.945,2.124 1.575,2.076 1.719,1.98C1.863,1.884 2.043,1.317 2.259,0.279L2.394,0.288C2.37,0.528 2.357,0.747 2.357,0.945C2.357,1.521 2.436,1.848 2.592,1.926C2.7,1.98 2.754,2.035 2.754,2.093C2.754,2.149 2.671,2.246 2.507,2.381C2.342,2.515 2.121,2.598 1.845,2.628C1.569,2.658 1.097,2.673 0.428,2.673C-0.241,2.673 -0.752,2.664 -1.103,2.646C-1.453,2.628 -1.698,2.595 -1.836,2.547C-1.975,2.499 -2.062,2.426 -2.097,2.327C-2.133,2.227 -2.151,2.055 -2.151,1.809L-2.151,-1.341L-2.511,-1.17C-2.757,-1.05 -2.931,-0.942 -3.033,-0.846L-3.474,-1.197C-3.229,-1.221 -2.994,-1.284 -2.772,-1.386L-2.151,-1.683L-2.151,-3.411C-2.151,-3.651 -2.16,-3.93 -2.178,-4.248L-1.404,-3.906C-1.309,-3.87 -1.26,-3.835 -1.26,-3.803C-1.26,-3.77 -1.296,-3.723 -1.368,-3.663L-1.566,-3.501L-1.566,-1.944L-0.567,-2.412L-0.567,-4.509C-0.567,-4.749 -0.576,-5.027 -0.594,-5.346L0.198,-4.995C0.275,-4.959 0.314,-4.928 0.314,-4.901C0.314,-4.873 0.282,-4.836 0.216,-4.788L0,-4.644L0,-2.673ZM-4.329,1.035L-4.329,-2.025L-4.743,-2.025C-4.995,-2.025 -5.199,-1.992 -5.355,-1.926L-5.679,-2.313C-5.451,-2.283 -5.202,-2.268 -4.932,-2.268L-4.329,-2.268L-4.329,-4.338C-4.329,-4.578 -4.338,-4.854 -4.356,-5.166L-3.483,-4.824C-3.381,-4.782 -3.33,-4.739 -3.33,-4.698C-3.33,-4.656 -3.369,-4.608 -3.447,-4.554L-3.744,-4.356L-3.744,-2.268L-3.204,-2.268L-2.817,-2.735L-2.376,-2.205C-2.334,-2.163 -2.313,-2.122 -2.313,-2.083C-2.313,-2.044 -2.353,-2.025 -2.43,-2.025L-3.744,-2.025L-3.744,0.846L-2.403,0.405L-2.349,0.531L-3.96,1.404C-4.524,1.71 -4.872,1.917 -5.004,2.025C-5.058,2.061 -5.101,2.079 -5.13,2.079C-5.16,2.079 -5.193,2.055 -5.229,2.007L-5.634,1.458L-4.329,1.035Z" style="fill:rgb(35,25,22);fill-rule:nonzero;"/>
            </g>
        </g>
        <g transform="matrix(8.33333,0,0,8.33333,0,0)">
            <g transform="matrix(1,0,0,1,472.468,1674.03)">
                <path d="M0,-6.785C0.366,-6.617 0.607,-6.469 0.725,-6.34C0.842,-6.211 0.9,-6.076 0.9,-5.935C0.9,-5.794 0.854,-5.674 0.761,-5.575C0.667,-5.476 0.571,-5.427 0.473,-5.427C0.373,-5.427 0.312,-5.502 0.288,-5.651C0.264,-5.97 0.225,-6.187 0.171,-6.304C0.117,-6.421 0.033,-6.546 -0.081,-6.678L0,-6.785ZM-3.456,-7.226C-3.145,-7.064 -2.889,-6.901 -2.691,-6.736C-2.493,-6.571 -2.394,-6.397 -2.394,-6.214C-2.394,-6.031 -2.436,-5.886 -2.52,-5.777C-2.604,-5.67 -2.714,-5.615 -2.849,-5.615C-2.983,-5.615 -3.054,-5.712 -3.06,-5.903C-3.078,-6.378 -3.231,-6.776 -3.519,-7.1L-3.456,-7.226ZM-0.612,-4.535C-0.69,-3.546 -0.786,-2.803 -0.9,-2.308C-1.014,-1.813 -1.189,-1.381 -1.427,-1.012C-1.664,-0.643 -1.984,-0.303 -2.39,0.01C-2.795,0.321 -3.252,0.585 -3.762,0.802L-3.816,0.685C-2.982,0.162 -2.355,-0.431 -1.935,-1.093C-1.515,-1.756 -1.263,-2.903 -1.179,-4.535L-1.503,-4.535C-1.749,-4.535 -1.953,-4.503 -2.115,-4.436L-2.448,-4.833C-2.22,-4.797 -1.971,-4.778 -1.701,-4.778L-1.17,-4.778C-1.128,-5.505 -1.107,-6.44 -1.107,-7.587L-0.324,-7.28C-0.24,-7.238 -0.198,-7.201 -0.198,-7.168C-0.198,-7.135 -0.231,-7.1 -0.297,-7.064C-0.411,-6.992 -0.471,-6.872 -0.477,-6.705L-0.594,-4.778L0.531,-4.778L0.918,-5.237L1.386,-4.68C1.428,-4.638 1.449,-4.603 1.449,-4.576C1.449,-4.549 1.41,-4.535 1.332,-4.535L-0.144,-4.535C0.09,-2.069 0.72,-0.549 1.746,0.027L1.746,0.19C1.578,0.19 1.434,0.209 1.314,0.248C1.194,0.287 1.105,0.349 1.049,0.433C0.991,0.517 0.951,0.559 0.927,0.559C0.891,0.559 0.854,0.533 0.814,0.482C0.775,0.431 0.636,0.178 0.396,-0.278C0.156,-0.734 -0.025,-1.249 -0.148,-1.822C-0.271,-2.395 -0.351,-3.3 -0.387,-4.535L-0.612,-4.535ZM-1.701,-2.673C-2.205,-2.024 -2.547,-1.568 -2.727,-1.305C-2.907,-1.041 -3.022,-0.844 -3.073,-0.715C-3.125,-0.586 -3.168,-0.521 -3.204,-0.521C-3.24,-0.521 -3.285,-0.552 -3.339,-0.611L-3.762,-1.034C-3.618,-1.167 -3.516,-1.296 -3.456,-1.422C-3.396,-1.548 -3.366,-1.703 -3.366,-1.889L-3.366,-4.428L-3.573,-4.428C-3.789,-4.428 -3.963,-4.389 -4.095,-4.31L-4.41,-4.697C-4.08,-4.685 -3.864,-4.68 -3.762,-4.68L-3.429,-4.68L-3.069,-5.094L-2.628,-4.671C-2.574,-4.622 -2.547,-4.582 -2.547,-4.549C-2.547,-4.515 -2.58,-4.481 -2.646,-4.445L-2.79,-4.374L-2.79,-1.845L-1.782,-2.754L-1.701,-2.673ZM-4.86,-5.651C-4.548,-4.871 -4.392,-3.843 -4.392,-2.564C-4.392,-1.982 -4.428,-1.416 -4.5,-0.863C-4.572,-0.311 -4.729,0.069 -4.968,0.279C-5.208,0.489 -5.37,0.595 -5.454,0.595C-5.49,0.595 -5.514,0.546 -5.526,0.45C-5.55,0.282 -5.613,0.158 -5.715,0.077C-5.817,-0.004 -6.036,-0.093 -6.372,-0.188L-6.372,-0.314C-6.12,-0.291 -5.905,-0.278 -5.729,-0.278C-5.552,-0.278 -5.418,-0.31 -5.328,-0.373C-5.238,-0.436 -5.172,-0.553 -5.13,-0.724C-5.088,-0.895 -5.042,-1.251 -4.99,-1.791C-4.939,-2.331 -4.923,-2.847 -4.941,-3.339C-5.367,-2.732 -5.946,-2.114 -6.678,-1.484L-6.768,-1.565C-5.904,-2.592 -5.307,-3.465 -4.977,-4.184C-5.031,-4.682 -5.1,-5.072 -5.184,-5.354C-5.718,-4.845 -6.213,-4.445 -6.669,-4.157L-6.732,-4.257C-6.312,-4.64 -5.85,-5.141 -5.346,-5.76C-5.58,-6.233 -5.922,-6.617 -6.372,-6.912L-6.228,-7.064C-5.706,-6.801 -5.325,-6.479 -5.085,-6.101C-4.803,-6.456 -4.566,-6.804 -4.374,-7.145L-3.87,-6.633C-3.822,-6.591 -3.798,-6.55 -3.798,-6.511C-3.798,-6.472 -3.846,-6.448 -3.942,-6.439C-4.038,-6.43 -4.161,-6.348 -4.311,-6.191C-4.461,-6.035 -4.644,-5.855 -4.86,-5.651" style="fill:rgb(35,25,22);fill-rule:nonzero;"/>
            </g>
        </g>
        <g transform="matrix(8.33333,0,0,8.33333,0,0)">
            <g transform="matrix(1,0,0,1,480.441,1671.13)">
                <path d="M0,-1.206C0.469,-0.87 0.781,-0.6 0.94,-0.396C1.1,-0.192 1.18,0.001 1.18,0.185C1.18,0.367 1.121,0.538 1.004,0.697C0.887,0.857 0.756,0.936 0.612,0.936C0.469,0.936 0.396,0.801 0.396,0.531C0.396,0.231 0.361,-0.034 0.293,-0.266C0.224,-0.496 0.093,-0.771 -0.099,-1.089L0,-1.206ZM0.504,-2.89L2.143,-2.89L2.557,-3.411L3.195,-2.925C3.268,-2.865 3.304,-2.818 3.304,-2.786C3.304,-2.753 3.268,-2.712 3.195,-2.664L2.961,-2.511L2.88,-0.198C2.845,0.522 2.809,1.117 2.772,1.588C2.736,2.06 2.699,2.379 2.66,2.547C2.621,2.715 2.534,2.863 2.398,2.992C2.264,3.121 2.084,3.249 1.858,3.375C1.634,3.501 1.503,3.564 1.467,3.564C1.383,3.564 1.328,3.485 1.301,3.33C1.273,3.174 1.2,3.054 1.08,2.97C0.96,2.886 0.679,2.774 0.234,2.637L0.288,2.448C0.853,2.532 1.234,2.574 1.436,2.574C1.637,2.574 1.777,2.552 1.858,2.506C1.939,2.461 1.995,2.393 2.025,2.3C2.056,2.206 2.091,1.971 2.133,1.593C2.175,1.215 2.213,0.692 2.246,0.026C2.278,-0.64 2.301,-1.524 2.313,-2.628L0.396,-2.628C0.096,-1.854 -0.345,-1.104 -0.927,-0.378L-1.07,-0.459C-0.381,-1.761 0.072,-3.195 0.288,-4.761L1.144,-4.401C1.245,-4.365 1.296,-4.323 1.296,-4.275C1.296,-4.227 1.241,-4.176 1.13,-4.122C1.019,-4.068 0.934,-3.966 0.873,-3.816L0.504,-2.89ZM-1.8,-0.162L-3.572,-0.162L-3.572,2.16L-1.8,2.16L-1.8,-0.162ZM-1.8,-2.476L-3.572,-2.476L-3.572,-0.442L-1.8,-0.442L-1.8,-2.476ZM-3.438,-2.754L-3.23,-2.754C-3.081,-3.408 -2.97,-4.08 -2.897,-4.77L-2.061,-4.491C-1.977,-4.467 -1.935,-4.43 -1.935,-4.379C-1.935,-4.327 -1.982,-4.281 -2.079,-4.239C-2.247,-4.149 -2.553,-3.654 -2.997,-2.754L-1.898,-2.754L-1.503,-3.249L-0.909,-2.691C-0.873,-2.655 -0.854,-2.619 -0.854,-2.583C-0.854,-2.547 -0.885,-2.511 -0.944,-2.476L-1.224,-2.322L-1.224,1.539C-1.224,1.737 -1.218,1.923 -1.206,2.097L-1.179,2.52C-1.179,2.628 -1.252,2.729 -1.399,2.821C-1.546,2.914 -1.649,2.961 -1.71,2.961C-1.77,2.961 -1.8,2.919 -1.8,2.835L-1.8,2.43L-3.572,2.43L-3.572,2.808C-3.572,2.898 -3.589,2.964 -3.622,3.006C-3.655,3.048 -3.741,3.099 -3.879,3.159C-4.017,3.219 -4.109,3.249 -4.158,3.249C-4.206,3.249 -4.235,3.228 -4.248,3.186C-4.26,3.144 -4.26,3.063 -4.248,2.942C-4.193,2.451 -4.167,1.983 -4.167,1.539L-4.167,-2.061C-4.167,-2.457 -4.179,-2.823 -4.203,-3.159L-3.438,-2.754Z" style="fill:rgb(35,25,22);fill-rule:nonzero;"/>
            </g>
        </g>
        <g transform="matrix(8.33333,0,0,8.33333,0,0)">
            <g transform="matrix(1,0,0,1,489.072,1671.09)">
                <path d="M0,-1.143L0,-3.861C0,-4.185 -0.012,-4.502 -0.036,-4.815L0.864,-4.554C0.96,-4.524 1.009,-4.488 1.009,-4.446C1.009,-4.404 0.973,-4.353 0.9,-4.292L0.64,-4.059L0.64,-2.952L2.628,-2.952L3.204,-3.645L3.853,-2.862C3.9,-2.808 3.925,-2.764 3.925,-2.731C3.925,-2.698 3.876,-2.682 3.78,-2.682L0.64,-2.682L0.64,-1.143L3.627,-1.143L4.248,-1.872L4.941,-1.035C4.989,-0.981 5.014,-0.94 5.014,-0.914C5.014,-0.886 4.965,-0.872 4.869,-0.872L0.162,-0.872L0.747,-0.684C0.825,-0.66 0.864,-0.632 0.864,-0.603C0.864,-0.573 0.825,-0.531 0.747,-0.477L0.666,-0.332L0.666,0.018C2.683,0.415 3.69,0.891 3.69,1.45C3.69,1.557 3.657,1.669 3.592,1.783C3.525,1.896 3.434,1.954 3.316,1.954C3.2,1.954 3.074,1.856 2.938,1.661C2.804,1.466 2.537,1.238 2.138,0.977C1.738,0.715 1.248,0.468 0.666,0.234L0.666,1.737C0.666,2.242 0.671,2.615 0.68,2.858C0.688,3.101 0.693,3.237 0.693,3.267C0.693,3.387 0.618,3.485 0.469,3.56C0.318,3.634 0.207,3.672 0.136,3.672C0.063,3.672 0.027,3.57 0.027,3.367L0.027,0.513C0.027,0.105 0.016,-0.357 -0.009,-0.872L-2.556,-0.872C-2.796,-0.872 -2.994,-0.842 -3.149,-0.783L-3.465,-1.188C-3.243,-1.158 -3.003,-1.143 -2.745,-1.143L0,-1.143Z" style="fill:rgb(35,25,22);fill-rule:nonzero;"/>
            </g>
        </g>
        <g transform="matrix(8.33333,0,0,8.33333,0,0)">
            <g transform="matrix(1,0,0,1,502.6,1672.05)">
                <path d="M0,-2.898L0,-4.113L-1.071,-4.113C-1.071,-3.71 -1.086,-3.305 -1.116,-2.898L0,-2.898ZM0,-1.421L0,-2.655L-1.125,-2.655C-1.173,-2.145 -1.233,-1.734 -1.305,-1.421L0,-1.421ZM-2.772,-1.421L-1.89,-1.421C-1.788,-1.77 -1.716,-2.18 -1.674,-2.655L-2.772,-2.655L-2.772,-1.421ZM-1.603,-4.113L-2.772,-4.113L-2.772,-2.898L-1.656,-2.898C-1.62,-3.288 -1.603,-3.693 -1.603,-4.113M-5.859,-0.845C-5.907,-0.066 -6.012,0.572 -6.174,1.067C-6.336,1.562 -6.612,2.067 -7.002,2.583L-7.137,2.52C-6.927,2.094 -6.767,1.672 -6.655,1.255C-6.545,0.839 -6.465,0.38 -6.417,-0.122C-6.369,-0.622 -6.345,-1.401 -6.345,-2.457C-6.345,-3.512 -6.378,-4.398 -6.444,-5.112L-5.616,-4.679C-5.557,-4.637 -5.526,-4.6 -5.526,-4.567C-5.526,-4.534 -5.55,-4.5 -5.598,-4.463L-5.77,-4.346C-5.775,-3.699 -5.784,-3.201 -5.796,-2.853L-5.031,-2.853L-5.031,-4.869C-5.031,-5.103 -5.04,-5.376 -5.059,-5.688L-4.302,-5.391C-4.225,-5.361 -4.186,-5.329 -4.186,-5.296C-4.186,-5.263 -4.206,-5.229 -4.248,-5.193L-4.437,-5.048L-4.437,-2.853L-4.312,-2.853L-3.942,-3.276L-3.501,-2.762C-3.459,-2.709 -3.438,-2.669 -3.438,-2.646C-3.438,-2.622 -3.483,-2.61 -3.573,-2.61L-5.796,-2.61C-5.809,-1.98 -5.826,-1.472 -5.851,-1.088L-4.959,-1.088L-4.68,-1.494L-4.194,-1.125C-4.128,-1.077 -4.095,-1.04 -4.095,-1.012C-4.095,-0.985 -4.119,-0.957 -4.167,-0.926L-4.32,-0.836L-4.32,0.387C-4.104,0.423 -3.867,0.441 -3.609,0.441L-1.485,0.441L-1.485,-0.162C-1.485,-0.389 -1.497,-0.645 -1.521,-0.926C-1.869,-0.369 -2.532,0.057 -3.51,0.351L-3.537,0.225C-2.715,-0.14 -2.19,-0.609 -1.962,-1.178L-2.772,-1.178C-2.772,-1.052 -2.795,-0.967 -2.84,-0.922C-2.885,-0.877 -2.966,-0.831 -3.083,-0.783C-3.199,-0.735 -3.282,-0.71 -3.33,-0.71C-3.378,-0.71 -3.411,-0.732 -3.429,-0.774C-3.447,-0.816 -3.439,-0.988 -3.406,-1.292C-3.374,-1.594 -3.357,-1.959 -3.357,-2.384L-3.357,-3.78C-3.357,-4.164 -3.366,-4.521 -3.384,-4.851L-2.7,-4.365L-2.205,-4.365C-1.923,-4.875 -1.758,-5.316 -1.71,-5.688L-1.053,-5.292C-0.987,-5.25 -0.954,-5.203 -0.954,-5.152C-0.954,-5.101 -0.993,-5.067 -1.071,-5.048C-1.264,-5.001 -1.545,-4.773 -1.917,-4.365L-0.027,-4.365L0.261,-4.743L0.801,-4.275C0.849,-4.239 0.873,-4.204 0.873,-4.171C0.873,-4.138 0.849,-4.11 0.801,-4.085L0.594,-3.96L0.594,-2.096C0.594,-1.905 0.6,-1.724 0.612,-1.557L0.639,-1.116C0.639,-1.002 0.56,-0.901 0.4,-0.814C0.241,-0.727 0.135,-0.684 0.081,-0.684C0.027,-0.684 0,-0.722 0,-0.8L0,-1.178L-1.386,-1.178C-1.416,-1.107 -1.446,-1.044 -1.477,-0.99L-0.738,-0.71C-0.643,-0.669 -0.594,-0.632 -0.594,-0.603C-0.594,-0.573 -0.627,-0.534 -0.693,-0.486L-0.864,-0.369L-0.864,0.441L0.342,0.441L0.819,-0.126L1.341,0.487C1.383,0.546 1.404,0.591 1.404,0.622C1.404,0.652 1.362,0.666 1.278,0.666L-0.864,0.666L-0.864,1.314C-0.864,1.71 -0.861,1.977 -0.855,2.116L-0.837,2.449C-0.837,2.514 -0.931,2.587 -1.116,2.668C-1.302,2.749 -1.416,2.79 -1.458,2.79C-1.5,2.79 -1.521,2.737 -1.521,2.628L-1.494,2.161C-1.488,1.968 -1.485,1.68 -1.485,1.296L-1.485,0.666L-3.42,0.666C-3.654,0.666 -3.855,0.697 -4.023,0.756L-4.32,0.415L-4.32,1.224C-4.32,1.44 -4.314,1.635 -4.302,1.809L-4.267,2.206C-4.267,2.331 -4.351,2.438 -4.519,2.525C-4.687,2.612 -4.797,2.656 -4.852,2.656C-4.905,2.656 -4.932,2.623 -4.932,2.556L-4.923,2.178C-4.917,2.016 -4.914,1.776 -4.914,1.458L-4.914,-0.845L-5.859,-0.845Z" style="fill:rgb(35,25,22);fill-rule:nonzero;"/>
            </g>
        </g>
        <g transform="matrix(8.33333,0,0,8.33333,0,0)">
            <g transform="matrix(1,0,0,1,0,216.571)">
                <path d="M510.646,1454.05L509.764,1454.05L509.764,1455.81L510.646,1455.81L510.646,1454.05ZM510.646,1452.11L509.764,1452.11L509.764,1453.8L510.646,1453.8L510.646,1452.11ZM508.359,1455.81L509.223,1455.81L509.223,1454.05L508.359,1454.05L508.359,1455.81ZM509.224,1452.11L508.36,1452.11L508.36,1453.8L509.224,1453.8L509.224,1452.11ZM508.423,1451.85L510.582,1451.85L510.934,1451.49L511.5,1451.93C511.549,1451.98 511.572,1452.01 511.572,1452.05C511.572,1452.08 511.555,1452.11 511.519,1452.13L511.258,1452.3L511.258,1455.27C511.258,1455.42 511.267,1455.59 511.284,1455.78L511.312,1456.24C511.312,1456.33 511.228,1456.43 511.06,1456.53C510.892,1456.62 510.78,1456.67 510.727,1456.67C510.673,1456.67 510.646,1456.63 510.646,1456.54L510.646,1456.07L508.359,1456.07L508.359,1456.25C508.359,1456.4 508.283,1456.51 508.13,1456.58C507.977,1456.64 507.876,1456.68 507.828,1456.68C507.78,1456.68 507.747,1456.66 507.729,1456.62C507.711,1456.57 507.708,1456.5 507.721,1456.38C507.774,1455.89 507.802,1455.42 507.802,1454.98L507.802,1452.53C507.802,1452.13 507.792,1451.77 507.774,1451.44L508.423,1451.85ZM512.202,1457.35L506.812,1457.35L506.604,1457.6C506.568,1457.64 506.535,1457.67 506.506,1457.67C506.476,1457.67 506.425,1457.64 506.353,1457.6L505.866,1457.25C506.047,1457.15 506.159,1457.07 506.204,1457C506.249,1456.94 506.271,1456.83 506.271,1456.7L506.271,1453.97C506.271,1453.3 506.263,1452.81 506.244,1452.5L507.126,1452.94C507.187,1452.97 507.217,1453 507.217,1453.02C507.217,1453.07 507.187,1453.1 507.126,1453.13L506.874,1453.27L506.874,1457.1L512.202,1457.1L512.202,1453.83C512.202,1453.37 512.19,1452.88 512.166,1452.37L513.111,1452.75C513.165,1452.77 513.192,1452.8 513.192,1452.83C513.192,1452.86 513.165,1452.89 513.111,1452.92L512.868,1453.06L512.868,1455.92C512.868,1456.52 512.873,1456.95 512.882,1457.2C512.891,1457.44 512.896,1457.58 512.896,1457.6C512.896,1457.71 512.815,1457.82 512.657,1457.9C512.498,1457.98 512.383,1458.02 512.311,1458.02C512.238,1458.02 512.202,1457.96 512.202,1457.84L512.202,1457.35ZM506.235,1450.65L512.274,1450.65L512.806,1450L513.408,1450.73C513.456,1450.78 513.48,1450.82 513.48,1450.85C513.48,1450.88 513.436,1450.89 513.346,1450.89L506.442,1450.89C506.232,1450.89 506.043,1450.92 505.875,1450.99L505.497,1450.59C505.726,1450.63 505.972,1450.65 506.235,1450.65" style="fill:rgb(35,25,22);fill-rule:nonzero;"/>
            </g>
        </g>
        <g transform="matrix(8.33333,0,0,8.33333,0,0)">
            <g transform="matrix(1,0,0,1,0,216.463)">
                <path d="M521.932,1452.62L520.663,1452.62L520.663,1457.01L521.932,1457.01L521.932,1452.62ZM518.719,1457.01L520.06,1457.01L520.06,1455.62L518.719,1455.62L518.719,1457.01ZM518.719,1455.37L520.06,1455.37L520.06,1454.14L518.719,1454.14L518.719,1455.37ZM520.06,1452.62L518.719,1452.62L518.719,1453.88L520.06,1453.88L520.06,1452.62ZM518.116,1452.62L516.991,1452.62L516.991,1457.01L518.116,1457.01L518.116,1452.62ZM517.288,1452.37L518.512,1452.37C518.716,1451.97 518.896,1451.5 519.052,1450.96L516.37,1450.96C516.124,1450.96 515.92,1451 515.758,1451.06L515.416,1450.67C515.644,1450.7 515.896,1450.71 516.172,1450.71L522.265,1450.71L522.85,1450.01L523.543,1450.81C523.591,1450.86 523.615,1450.9 523.615,1450.92C523.615,1450.95 523.569,1450.96 523.479,1450.96L519.861,1450.96C519.622,1451.42 519.282,1451.89 518.845,1452.37L521.814,1452.37L522.202,1451.9L522.877,1452.47C522.919,1452.5 522.939,1452.53 522.939,1452.56C522.939,1452.58 522.919,1452.61 522.877,1452.64L522.625,1452.84L522.625,1455.87C522.625,1456.61 522.628,1457.04 522.634,1457.18L522.643,1457.55C522.643,1457.64 522.548,1457.74 522.359,1457.84C522.17,1457.95 522.052,1458 522.004,1458C521.956,1458 521.932,1457.96 521.932,1457.87L521.932,1457.26L516.991,1457.26L516.991,1457.69C516.991,1457.77 516.975,1457.83 516.941,1457.88C516.908,1457.92 516.826,1457.97 516.693,1458.03C516.562,1458.09 516.469,1458.12 516.415,1458.12C516.36,1458.12 516.334,1458.06 516.334,1457.94C516.334,1457.93 516.34,1457.8 516.352,1457.53C516.363,1457.27 516.37,1457.03 516.37,1456.81L516.37,1452.73C516.37,1452.48 516.36,1452.2 516.343,1451.89L517.288,1452.37Z" style="fill:rgb(35,25,22);fill-rule:nonzero;"/>
            </g>
        </g>
    </g>
</svg>
