<?xml version="1.0" encoding="UTF-8" standalone="no"?>
<!DOCTYPE svg PUBLIC "-//W3C//DTD SVG 1.1//EN" "http://www.w3.org/Graphics/SVG/1.1/DTD/svg11.dtd">
<svg width="100%" height="100%" viewBox="0 0 617 111" version="1.1" xmlns="http://www.w3.org/2000/svg" xmlns:xlink="http://www.w3.org/1999/xlink" xml:space="preserve" xmlns:serif="http://www.serif.com/" style="fill-rule:evenodd;clip-rule:evenodd;stroke-linejoin:round;stroke-miterlimit:2;">
    <g transform="matrix(1,0,0,1,-1000.76,-13488.3)">
        <g transform="matrix(8.33333,0,0,8.33333,0,0)">
            <g transform="matrix(1,0,0,1,144.911,1628.69)">
                <path d="M0,-6.915L-0.308,-6.733L-0.308,-2.449L-0.28,-0.811C-0.28,-0.699 -0.392,-0.578 -0.616,-0.447C-0.84,-0.316 -0.997,-0.251 -1.085,-0.251C-1.174,-0.251 -1.218,-0.35 -1.218,-0.546C-1.218,-0.592 -1.211,-0.765 -1.197,-1.063C-1.183,-1.362 -1.176,-1.838 -1.176,-2.491L-1.176,-6.523C-1.176,-6.888 -1.19,-7.331 -1.218,-7.853L0,-7.251C0.112,-7.186 0.168,-7.133 0.168,-7.091C0.168,-7.049 0.112,-6.99 0,-6.915M2.282,-8.974L1.918,-8.764L1.918,0.994C1.918,1.489 1.878,1.846 1.799,2.065C1.719,2.285 1.535,2.504 1.246,2.724C0.957,2.942 0.77,3.053 0.686,3.053C0.602,3.053 0.537,2.978 0.49,2.828C0.415,2.539 0.238,2.324 -0.042,2.185C-0.322,2.045 -0.719,1.919 -1.232,1.807L-1.204,1.625C-0.598,1.681 -0.131,1.709 0.196,1.709C0.522,1.709 0.735,1.664 0.833,1.575C0.931,1.486 0.98,1.316 0.98,1.064L0.98,-7.644C0.98,-8.502 0.961,-9.239 0.924,-9.855L2.198,-9.296C2.356,-9.23 2.436,-9.174 2.436,-9.127C2.436,-9.081 2.384,-9.029 2.282,-8.974M-7.63,-2.449L-7.63,1.429C-7.63,1.578 -7.663,1.683 -7.728,1.743C-7.793,1.804 -7.919,1.877 -8.106,1.961C-8.293,2.045 -8.433,2.087 -8.526,2.087C-8.62,2.087 -8.652,1.933 -8.624,1.625C-8.559,1.083 -8.526,0.322 -8.526,-0.657L-8.526,-1.623C-8.526,-2.407 -8.536,-2.953 -8.554,-3.262L-7.644,-2.813L-5.978,-2.813L-5.978,-4.493L-8.218,-4.493C-8.61,-4.493 -8.923,-4.442 -9.156,-4.34L-9.66,-4.913C-9.315,-4.866 -8.932,-4.844 -8.512,-4.844L-5.978,-4.844L-5.978,-6.747L-7.84,-6.747C-8.158,-6.225 -8.55,-5.674 -9.016,-5.096L-9.212,-5.151C-8.494,-6.468 -8.064,-7.746 -7.924,-8.987L-6.972,-8.512C-6.832,-8.446 -6.762,-8.39 -6.762,-8.344C-6.762,-8.297 -6.811,-8.255 -6.909,-8.218C-7.007,-8.18 -7.084,-8.119 -7.14,-8.035C-7.196,-7.951 -7.278,-7.798 -7.385,-7.573C-7.493,-7.35 -7.574,-7.19 -7.63,-7.098L-5.978,-7.098C-5.978,-8.861 -5.992,-9.818 -6.02,-9.968L-4.662,-9.422C-4.55,-9.384 -4.494,-9.34 -4.494,-9.288C-4.494,-9.237 -4.55,-9.184 -4.662,-9.127L-5.054,-8.875L-5.054,-7.098L-3.738,-7.098L-3.038,-7.867L-2.282,-6.972C-2.226,-6.906 -2.198,-6.853 -2.198,-6.811C-2.198,-6.769 -2.264,-6.747 -2.394,-6.747L-5.054,-6.747L-5.054,-4.844L-3.178,-4.844L-2.534,-5.655L-1.694,-4.731C-1.629,-4.666 -1.596,-4.61 -1.596,-4.563C-1.596,-4.517 -1.676,-4.493 -1.834,-4.493L-5.054,-4.493L-5.054,-2.813L-3.57,-2.813L-3.066,-3.499L-2.198,-2.771C-2.133,-2.725 -2.1,-2.676 -2.1,-2.624C-2.1,-2.573 -2.156,-2.515 -2.268,-2.449L-2.506,-2.338L-2.506,0.616C-2.506,1.018 -2.663,1.365 -2.975,1.659C-3.288,1.953 -3.472,2.101 -3.528,2.101C-3.584,2.101 -3.626,2.035 -3.654,1.904C-3.701,1.56 -4.051,1.261 -4.704,1.009L-4.676,0.841C-4.387,0.878 -4.149,0.897 -3.962,0.897C-3.775,0.897 -3.636,0.873 -3.542,0.826C-3.449,0.78 -3.402,0.682 -3.402,0.532L-3.402,-2.449L-5.054,-2.449L-5.054,-0.266C-5.054,0.631 -5.047,1.266 -5.033,1.639C-5.019,2.012 -5.012,2.222 -5.012,2.269C-5.012,2.445 -5.131,2.595 -5.369,2.717C-5.607,2.838 -5.782,2.898 -5.894,2.898C-6.006,2.898 -6.062,2.786 -6.062,2.563L-6.006,1.345C-5.988,0.804 -5.978,0.164 -5.978,-0.573L-5.978,-2.449L-7.63,-2.449Z" style="fill:rgb(35,25,22);fill-rule:nonzero;"/>
            </g>
        </g>
        <g transform="matrix(8.33333,0,0,8.33333,0,0)">
            <g transform="matrix(1,0,0,1,158.631,1625.87)">
                <path d="M0,-1.006L2.282,-1.006L3.024,-1.902L3.92,-0.853C3.976,-0.787 4.004,-0.731 4.004,-0.685C4.004,-0.638 3.938,-0.614 3.808,-0.614L0,-0.614L0,1.947L2.66,1.947L3.458,1.038L4.354,2.101C4.419,2.177 4.452,2.237 4.452,2.283C4.452,2.33 4.387,2.353 4.256,2.353L0,2.353C0,3.399 0.009,4.15 0.028,4.607C0.046,5.064 0.056,5.307 0.056,5.336C0.056,5.55 -0.101,5.719 -0.413,5.84C-0.726,5.961 -0.926,6.021 -1.015,6.021C-1.104,6.021 -1.148,5.932 -1.148,5.756L-1.064,4.271C-1.036,3.609 -1.022,2.998 -1.022,2.437L-1.022,-3.681L-1.638,-3.681C-2.497,-2.234 -3.444,-0.992 -4.48,0.044L-4.69,-0.097C-3.178,-2.159 -2.053,-4.45 -1.316,-6.971L-0.014,-6.271C0.117,-6.205 0.182,-6.145 0.182,-6.088C0.182,-6.032 0.121,-5.985 0,-5.948C-0.28,-5.873 -0.504,-5.678 -0.672,-5.36L-1.4,-4.072L2.828,-4.072L3.682,-5.067L4.662,-3.933C4.718,-3.858 4.746,-3.797 4.746,-3.75C4.746,-3.703 4.681,-3.681 4.55,-3.681L0,-3.681L0,-1.006ZM-5.922,-2.28C-6.678,-1.16 -7.42,-0.241 -8.148,0.477L-8.344,0.323C-6.608,-2.205 -5.437,-4.655 -4.83,-7.027L-3.612,-6.452C-3.463,-6.378 -3.388,-6.306 -3.388,-6.235C-3.388,-6.165 -3.465,-6.107 -3.619,-6.061C-3.773,-6.014 -3.934,-5.818 -4.102,-5.473C-4.55,-4.576 -5.031,-3.708 -5.544,-2.868L-4.802,-2.561C-4.662,-2.504 -4.592,-2.448 -4.592,-2.393C-4.592,-2.336 -4.639,-2.276 -4.732,-2.21L-4.928,-2.057L-4.928,2.647C-4.928,3.544 -4.921,4.192 -4.907,4.594C-4.893,4.995 -4.886,5.21 -4.886,5.237C-4.886,5.405 -5.033,5.569 -5.327,5.727C-5.621,5.887 -5.805,5.966 -5.88,5.966C-5.992,5.966 -6.048,5.895 -6.048,5.756C-6.048,5.615 -6.043,5.504 -6.034,5.42C-6.006,5.186 -5.98,4.715 -5.957,4.006C-5.934,3.297 -5.922,2.746 -5.922,2.353L-5.922,-2.28Z" style="fill:rgb(35,25,22);fill-rule:nonzero;"/>
            </g>
        </g>
        <g transform="matrix(8.33333,0,0,8.33333,0,0)">
            <g transform="matrix(1,0,0,1,171.301,1626.54)">
                <path d="M0,-3.092C0.522,-2.803 0.95,-2.511 1.281,-2.217C1.612,-1.923 1.778,-1.627 1.778,-1.328C1.778,-1.029 1.689,-0.776 1.512,-0.566C1.334,-0.356 1.148,-0.25 0.952,-0.25C0.756,-0.25 0.644,-0.404 0.616,-0.712C0.551,-1.291 0.459,-1.728 0.343,-2.022C0.226,-2.316 0.065,-2.612 -0.14,-2.91L0,-3.092ZM4.438,-4.128L4.438,1.178C4.438,1.691 4.384,2.074 4.277,2.326C4.169,2.578 3.964,2.808 3.661,3.018C3.357,3.228 3.166,3.334 3.087,3.334C3.008,3.334 2.961,3.228 2.947,3.018C2.933,2.808 2.826,2.632 2.625,2.486C2.424,2.342 1.974,2.163 1.274,1.948L1.33,1.696C2.03,1.817 2.506,1.878 2.758,1.878C3.01,1.878 3.194,1.843 3.311,1.772C3.428,1.703 3.486,1.509 3.486,1.191L3.486,-4.128L0.042,-4.128C-0.359,-4.128 -0.677,-4.081 -0.91,-3.988L-1.414,-4.59C-1.06,-4.534 -0.672,-4.506 -0.252,-4.506L3.486,-4.506L3.486,-5.613C3.486,-6.35 3.467,-7.124 3.43,-7.937L4.816,-7.265C4.937,-7.218 4.998,-7.164 4.998,-7.104C4.998,-7.042 4.942,-6.97 4.83,-6.886L4.438,-6.592L4.438,-4.506L5.362,-4.506L6.09,-5.389L6.888,-4.422C6.944,-4.348 6.972,-4.28 6.972,-4.219C6.972,-4.158 6.911,-4.128 6.79,-4.128L4.438,-4.128ZM-3.808,-7.153C-2.445,-6.545 -1.764,-5.939 -1.764,-5.332C-1.764,-5.08 -1.836,-4.854 -1.981,-4.654C-2.126,-4.452 -2.296,-4.353 -2.492,-4.353C-2.576,-4.353 -2.66,-4.402 -2.744,-4.499C-2.828,-4.598 -2.879,-4.716 -2.898,-4.857C-2.991,-5.566 -3.332,-6.28 -3.92,-6.998L-3.808,-7.153ZM-2.282,2.424C-1.862,2.797 -1.358,3.091 -0.77,3.305C-0.182,3.52 0.464,3.643 1.169,3.677C1.874,3.709 2.66,3.725 3.528,3.725C4.396,3.725 5.614,3.637 7.182,3.46L7.224,3.698C6.916,3.819 6.68,3.969 6.517,4.145C6.354,4.323 6.263,4.472 6.244,4.594C6.225,4.715 6.2,4.787 6.167,4.81C6.134,4.834 6.057,4.845 5.936,4.845C5.367,4.845 4.592,4.817 3.612,4.762C2.632,4.706 1.888,4.652 1.379,4.6C0.87,4.55 0.394,4.454 -0.049,4.313C-0.492,4.174 -0.913,3.994 -1.309,3.774C-1.706,3.555 -2.021,3.331 -2.254,3.102C-2.487,2.874 -2.669,2.76 -2.8,2.76C-2.931,2.76 -3.068,2.811 -3.213,2.914C-3.358,3.016 -3.575,3.245 -3.864,3.599C-4.153,3.954 -4.368,4.286 -4.508,4.594C-4.573,4.706 -4.629,4.762 -4.676,4.762C-4.723,4.762 -4.779,4.715 -4.844,4.622L-5.516,3.712C-4.256,2.919 -3.5,2.479 -3.248,2.395L-3.248,-1.72L-4.186,-1.72C-4.681,-1.72 -4.998,-1.669 -5.138,-1.567L-5.628,-2.168C-5.283,-2.121 -4.896,-2.099 -4.466,-2.099L-3.29,-2.099L-2.758,-2.784L-1.862,-2.141C-1.759,-2.057 -1.708,-1.987 -1.708,-1.931C-1.708,-1.874 -1.755,-1.814 -1.848,-1.748L-2.282,-1.468L-2.282,2.424Z" style="fill:rgb(35,25,22);fill-rule:nonzero;"/>
            </g>
        </g>
        <g transform="matrix(8.33333,0,0,8.33333,0,0)">
            <g transform="matrix(1,0,0,1,0,125.856)">
                <path d="M188.045,1496.78L191.629,1496.78L191.629,1494.2L188.045,1494.2L188.045,1496.78ZM191.629,1497.17L188.045,1497.17L188.045,1497.46C188.045,1497.62 188.02,1497.73 187.968,1497.8C187.917,1497.87 187.786,1497.94 187.576,1498.02C187.366,1498.1 187.219,1498.13 187.135,1498.13C187.051,1498.13 187.009,1498.09 187.009,1497.99C187.009,1497.89 187.025,1497.69 187.058,1497.39C187.091,1497.09 187.107,1496.76 187.107,1496.38L187.107,1494.62C187.107,1494.16 187.093,1493.7 187.065,1493.24L188.073,1493.81L191.475,1493.81L192.021,1493.11L192.945,1493.84C193.039,1493.91 193.085,1493.97 193.085,1494.01C193.085,1494.04 193.048,1494.09 192.973,1494.13L192.637,1494.34L192.637,1495.71C192.637,1496.06 192.646,1496.36 192.665,1496.62L192.707,1497.25C192.707,1497.4 192.565,1497.55 192.28,1497.68C191.995,1497.82 191.816,1497.88 191.741,1497.88C191.667,1497.88 191.629,1497.82 191.629,1497.7L191.629,1497.17ZM189.263,1504.62L189.263,1501.97L188.073,1501.97C187.69,1501.97 187.378,1502.02 187.135,1502.12L186.659,1501.54C187.014,1501.58 187.396,1501.61 187.807,1501.61L189.263,1501.61L189.263,1499.41L187.751,1499.41C187.378,1499.41 187.065,1499.45 186.813,1499.54L186.323,1498.95C186.668,1499 187.046,1499.03 187.457,1499.03L192.175,1499.03L192.931,1498.11L193.771,1499.12C193.827,1499.2 193.855,1499.27 193.855,1499.33C193.855,1499.38 193.799,1499.41 193.687,1499.41L190.271,1499.41L190.271,1501.61L191.545,1501.61L192.343,1500.63L193.239,1501.7C193.295,1501.77 193.323,1501.83 193.323,1501.89C193.323,1501.94 193.262,1501.97 193.141,1501.97L190.271,1501.97L190.271,1504.62L192.273,1504.62L193.071,1503.64L193.939,1504.72C194.004,1504.78 194.037,1504.84 194.037,1504.9C194.037,1504.95 193.977,1504.98 193.855,1504.98L186.925,1504.98C186.542,1504.98 186.23,1505.03 185.987,1505.13L185.511,1504.51C186.034,1504.58 186.412,1504.62 186.645,1504.62L189.263,1504.62ZM183.831,1499.21C183.103,1500.73 182.235,1502.03 181.227,1503.11L181.017,1502.94C182.128,1501.4 183.019,1499.49 183.691,1497.21L182.389,1497.21C181.997,1497.21 181.68,1497.26 181.437,1497.37L180.947,1496.76C181.292,1496.81 181.68,1496.83 182.109,1496.83L183.831,1496.83L183.831,1494.65C183.056,1494.77 182.188,1494.87 181.227,1494.94L181.227,1494.7C183.084,1494.29 184.652,1493.71 185.931,1492.98L186.547,1493.85C186.622,1493.94 186.659,1494.01 186.659,1494.06C186.659,1494.11 186.584,1494.13 186.435,1494.13C186.286,1494.13 185.73,1494.24 184.769,1494.45L184.769,1496.83L185.273,1496.83L185.945,1496.04L186.687,1496.92C186.771,1497.01 186.813,1497.08 186.813,1497.13C186.813,1497.18 186.743,1497.21 186.603,1497.21L184.769,1497.21L184.769,1498.54C185.311,1498.78 185.719,1499.02 185.994,1499.23C186.27,1499.45 186.407,1499.68 186.407,1499.93C186.407,1500.17 186.358,1500.37 186.26,1500.54C186.162,1500.7 186.06,1500.78 185.952,1500.78C185.845,1500.78 185.754,1500.74 185.679,1500.65C185.604,1500.57 185.548,1500.46 185.511,1500.32C185.371,1499.83 185.124,1499.35 184.769,1498.88L184.769,1502.99C184.769,1503.82 184.783,1504.56 184.811,1505.2C184.811,1505.35 184.683,1505.47 184.426,1505.58C184.169,1505.69 183.999,1505.75 183.915,1505.75C183.831,1505.75 183.789,1505.66 183.789,1505.49L183.817,1504.58C183.826,1504.2 183.831,1503.66 183.831,1502.95L183.831,1499.21Z" style="fill:rgb(35,25,22);fill-rule:nonzero;"/>
            </g>
        </g>
        <g transform="matrix(8.33333,0,0,8.33333,0,0)">
            <g transform="matrix(0,-1,-1,0,122.791,1621.8)">
                <path d="M-2.701,-2.7C-4.191,-2.7 -5.4,-1.491 -5.4,0.001C-5.4,1.491 -4.191,2.701 -2.701,2.701C-1.21,2.701 -0.001,1.491 -0.001,0.001C-0.001,-1.491 -1.21,-2.7 -2.701,-2.7" style="fill:rgb(62,57,56);fill-rule:nonzero;"/>
            </g>
        </g>
    </g>
</svg>
