<?xml version="1.0" encoding="UTF-8" standalone="no"?>
<!DOCTYPE svg PUBLIC "-//W3C//DTD SVG 1.1//EN" "http://www.w3.org/Graphics/SVG/1.1/DTD/svg11.dtd">
<svg width="100%" height="100%" viewBox="0 0 731 73" version="1.1" xmlns="http://www.w3.org/2000/svg" xmlns:xlink="http://www.w3.org/1999/xlink" xml:space="preserve" xmlns:serif="http://www.serif.com/" style="fill-rule:evenodd;clip-rule:evenodd;stroke-linejoin:round;stroke-miterlimit:2;">
    <g transform="matrix(1,0,0,1,-3134.3,-19165)">
        <g transform="matrix(8.33333,0,0,8.33333,0,0)">
            <g transform="matrix(1,0,0,1,380.399,2304.58)">
                <path d="M0,-0.593C0.372,0.337 0.732,0.997 1.08,1.386C1.512,0.864 1.842,0.204 2.07,-0.593L0,-0.593ZM0.162,-3.609C0.132,-2.624 0.004,-1.954 -0.221,-1.597C-0.446,-1.239 -1.029,-0.861 -1.971,-0.458L-2.079,-0.585C-1.461,-0.927 -1.044,-1.265 -0.828,-1.602C-0.612,-1.938 -0.504,-2.529 -0.504,-3.374C-0.504,-3.638 -0.513,-3.966 -0.531,-4.356L0.135,-3.861L1.548,-3.861L1.881,-4.364L2.475,-3.897C2.529,-3.861 2.556,-3.829 2.556,-3.802C2.556,-3.775 2.529,-3.743 2.475,-3.708L2.268,-3.564L2.268,-2.376C2.268,-2.28 2.302,-2.218 2.371,-2.191C2.44,-2.164 2.622,-2.151 2.916,-2.151C3.336,-2.151 3.605,-2.216 3.726,-2.349C3.954,-2.007 4.068,-1.807 4.068,-1.75C4.068,-1.693 4.008,-1.652 3.888,-1.624C3.768,-1.597 3.487,-1.583 3.046,-1.583C2.605,-1.583 2.289,-1.6 2.097,-1.633C1.905,-1.666 1.777,-1.724 1.714,-1.809C1.651,-1.892 1.62,-2.03 1.62,-2.222L1.62,-3.609L0.162,-3.609ZM1.485,1.773C2.025,2.212 2.922,2.553 4.176,2.8L4.176,2.934C3.996,2.958 3.835,3.005 3.694,3.074C3.553,3.143 3.423,3.267 3.303,3.448C3.279,3.489 3.249,3.511 3.213,3.511C3.141,3.511 2.854,3.374 2.354,3.1C1.852,2.828 1.428,2.523 1.08,2.187C0.324,2.853 -0.906,3.382 -2.61,3.771L-2.682,3.628C-1.122,3.087 0.012,2.47 0.72,1.773C0.27,1.198 -0.054,0.409 -0.252,-0.593C-0.396,-0.593 -0.564,-0.561 -0.756,-0.494L-1.053,-0.882C-0.837,-0.845 -0.594,-0.827 -0.324,-0.827L2.043,-0.827L2.394,-1.278L3.006,-0.701C3.066,-0.642 3.096,-0.598 3.096,-0.572C3.096,-0.544 3.055,-0.523 2.974,-0.508C2.893,-0.493 2.824,-0.457 2.767,-0.4C2.71,-0.343 2.652,-0.234 2.592,-0.072C2.268,0.715 1.899,1.329 1.485,1.773M-3.15,-4.347C-2.178,-4.095 -1.692,-3.738 -1.692,-3.276C-1.692,-3.156 -1.724,-3.019 -1.787,-2.866C-1.85,-2.713 -1.949,-2.636 -2.083,-2.636C-2.219,-2.636 -2.316,-2.736 -2.376,-2.934C-2.532,-3.438 -2.812,-3.869 -3.213,-4.23L-3.15,-4.347ZM-2.259,1.927L-0.702,0.846L-0.603,0.964C-1.887,2.163 -2.583,2.881 -2.691,3.114C-2.721,3.198 -2.754,3.241 -2.79,3.241C-2.826,3.241 -2.868,3.202 -2.916,3.124L-3.294,2.548C-3.024,2.302 -2.889,2.073 -2.889,1.864L-2.889,-1.304L-3.348,-1.304C-3.618,-1.304 -3.822,-1.265 -3.96,-1.188L-4.284,-1.583C-4.008,-1.566 -3.759,-1.556 -3.537,-1.556L-2.862,-1.556L-2.574,-1.997L-1.971,-1.574C-1.905,-1.532 -1.872,-1.496 -1.872,-1.466C-1.872,-1.437 -1.905,-1.398 -1.971,-1.35L-2.259,-1.16L-2.259,1.927Z" style="fill:rgb(35,25,22);fill-rule:nonzero;"/>
            </g>
        </g>
        <g transform="matrix(8.33333,0,0,8.33333,0,0)">
            <g transform="matrix(1,0,0,1,391.874,2305.23)">
                <path d="M0,-2.107L1.431,-2.107L1.944,-2.718L2.547,-2.016C2.589,-1.968 2.61,-1.929 2.61,-1.9C2.61,-1.869 2.568,-1.855 2.484,-1.855L0,-1.855L0,0.998C0,1.581 0.006,2.005 0.018,2.272C0.03,2.539 0.036,2.684 0.036,2.708C0.036,2.852 -0.06,2.961 -0.252,3.033C-0.444,3.104 -0.573,3.141 -0.639,3.141C-0.705,3.141 -0.738,3.075 -0.738,2.943L-0.684,2.079C-0.666,1.688 -0.657,1.262 -0.657,0.801L-0.657,-1.855L-2.223,-1.855C-2.469,-1.855 -2.673,-1.822 -2.835,-1.755L-3.177,-2.16C-2.949,-2.125 -2.7,-2.107 -2.43,-2.107L-0.657,-2.107L-0.657,-3.762C-0.657,-4.242 -0.669,-4.738 -0.693,-5.248L0.261,-4.824C0.333,-4.789 0.369,-4.753 0.369,-4.72C0.369,-4.688 0.333,-4.648 0.261,-4.599L0,-4.42L0,-2.107ZM-4.86,-5.013C-4.452,-4.851 -4.111,-4.668 -3.838,-4.461C-3.565,-4.253 -3.429,-4.011 -3.429,-3.736C-3.429,-3.58 -3.484,-3.439 -3.595,-3.312C-3.707,-3.187 -3.82,-3.124 -3.938,-3.124C-4.054,-3.124 -4.137,-3.232 -4.185,-3.447C-4.329,-4.113 -4.578,-4.599 -4.932,-4.906L-4.86,-5.013ZM-3.699,1.502L-2.349,0.26L-2.232,0.369C-3.372,1.76 -3.984,2.559 -4.068,2.762C-4.092,2.834 -4.122,2.871 -4.158,2.871C-4.194,2.871 -4.236,2.834 -4.284,2.762L-4.635,2.196C-4.425,1.997 -4.32,1.779 -4.32,1.539L-4.32,-1.8L-4.932,-1.8C-5.196,-1.8 -5.4,-1.761 -5.544,-1.683L-5.868,-2.08C-5.586,-2.062 -5.337,-2.052 -5.121,-2.052L-4.302,-2.052L-3.969,-2.539L-3.411,-2.052C-3.321,-1.974 -3.276,-1.918 -3.276,-1.881C-3.276,-1.845 -3.312,-1.809 -3.384,-1.773L-3.699,-1.611L-3.699,1.502Z" style="fill:rgb(35,25,22);fill-rule:nonzero;"/>
            </g>
        </g>
        <g transform="matrix(8.33333,0,0,8.33333,0,0)">
            <g transform="matrix(1,0,0,1,399.461,2304.62)">
                <path d="M0,-1.142L0,-3.86C0,-4.184 -0.012,-4.501 -0.036,-4.814L0.864,-4.553C0.96,-4.523 1.008,-4.487 1.008,-4.445C1.008,-4.403 0.972,-4.352 0.9,-4.292L0.639,-4.058L0.639,-2.951L2.628,-2.951L3.204,-3.644L3.852,-2.861C3.9,-2.807 3.924,-2.763 3.924,-2.73C3.924,-2.697 3.876,-2.681 3.78,-2.681L0.639,-2.681L0.639,-1.142L3.627,-1.142L4.248,-1.871L4.941,-1.035C4.989,-0.98 5.013,-0.939 5.013,-0.913C5.013,-0.886 4.965,-0.872 4.869,-0.872L0.162,-0.872L0.747,-0.683C0.825,-0.66 0.864,-0.632 0.864,-0.602C0.864,-0.572 0.825,-0.53 0.747,-0.476L0.666,-0.331L0.666,0.019C2.682,0.415 3.69,0.892 3.69,1.45C3.69,1.558 3.657,1.669 3.591,1.784C3.525,1.897 3.434,1.954 3.316,1.954C3.2,1.954 3.074,1.856 2.938,1.662C2.804,1.467 2.537,1.239 2.138,0.977C1.738,0.716 1.248,0.469 0.666,0.235L0.666,1.738C0.666,2.243 0.67,2.616 0.68,2.858C0.688,3.102 0.693,3.238 0.693,3.268C0.693,3.387 0.618,3.485 0.468,3.561C0.318,3.635 0.207,3.672 0.135,3.672C0.063,3.672 0.027,3.571 0.027,3.368L0.027,0.514C0.027,0.106 0.015,-0.356 -0.009,-0.872L-2.556,-0.872C-2.796,-0.872 -2.994,-0.841 -3.15,-0.783L-3.465,-1.187C-3.243,-1.157 -3.003,-1.142 -2.745,-1.142L0,-1.142Z" style="fill:rgb(35,25,22);fill-rule:nonzero;"/>
            </g>
        </g>
        <g transform="matrix(8.33333,0,0,8.33333,0,0)">
            <g transform="matrix(1,0,0,1,412.988,2305.58)">
                <path d="M0,-2.898L0,-4.113L-1.071,-4.113C-1.071,-3.711 -1.086,-3.305 -1.116,-2.898L0,-2.898ZM0,-1.422L0,-2.655L-1.125,-2.655C-1.173,-2.145 -1.233,-1.734 -1.305,-1.422L0,-1.422ZM-2.772,-1.422L-1.89,-1.422C-1.788,-1.77 -1.716,-2.18 -1.674,-2.655L-2.772,-2.655L-2.772,-1.422ZM-1.602,-4.113L-2.772,-4.113L-2.772,-2.898L-1.656,-2.898C-1.62,-3.288 -1.602,-3.693 -1.602,-4.113M-5.859,-0.846C-5.907,-0.066 -6.012,0.572 -6.174,1.066C-6.336,1.562 -6.612,2.067 -7.002,2.583L-7.137,2.52C-6.927,2.094 -6.767,1.672 -6.655,1.255C-6.544,0.839 -6.465,0.38 -6.417,-0.122C-6.369,-0.622 -6.345,-1.401 -6.345,-2.458C-6.345,-3.512 -6.378,-4.398 -6.444,-5.112L-5.616,-4.68C-5.556,-4.637 -5.526,-4.6 -5.526,-4.567C-5.526,-4.534 -5.55,-4.501 -5.598,-4.463L-5.769,-4.346C-5.775,-3.699 -5.784,-3.201 -5.796,-2.853L-5.031,-2.853L-5.031,-4.869C-5.031,-5.103 -5.04,-5.376 -5.058,-5.688L-4.302,-5.391C-4.224,-5.361 -4.185,-5.329 -4.185,-5.296C-4.185,-5.263 -4.206,-5.229 -4.248,-5.193L-4.437,-5.049L-4.437,-2.853L-4.311,-2.853L-3.942,-3.276L-3.501,-2.762C-3.459,-2.71 -3.438,-2.67 -3.438,-2.646C-3.438,-2.622 -3.483,-2.61 -3.573,-2.61L-5.796,-2.61C-5.808,-1.98 -5.826,-1.473 -5.85,-1.088L-4.959,-1.088L-4.68,-1.494L-4.194,-1.126C-4.128,-1.077 -4.095,-1.04 -4.095,-1.012C-4.095,-0.985 -4.119,-0.958 -4.167,-0.926L-4.32,-0.836L-4.32,0.387C-4.104,0.423 -3.867,0.441 -3.609,0.441L-1.485,0.441L-1.485,-0.163C-1.485,-0.389 -1.497,-0.645 -1.521,-0.926C-1.869,-0.369 -2.532,0.057 -3.51,0.351L-3.537,0.225C-2.715,-0.141 -2.19,-0.609 -1.962,-1.178L-2.772,-1.178C-2.772,-1.053 -2.794,-0.967 -2.839,-0.922C-2.884,-0.877 -2.965,-0.831 -3.083,-0.783C-3.199,-0.735 -3.282,-0.711 -3.33,-0.711C-3.378,-0.711 -3.411,-0.732 -3.429,-0.774C-3.447,-0.816 -3.439,-0.989 -3.406,-1.292C-3.374,-1.594 -3.357,-1.96 -3.357,-2.385L-3.357,-3.78C-3.357,-4.164 -3.366,-4.521 -3.384,-4.851L-2.7,-4.365L-2.205,-4.365C-1.923,-4.876 -1.758,-5.316 -1.71,-5.688L-1.053,-5.292C-0.987,-5.251 -0.954,-5.204 -0.954,-5.153C-0.954,-5.102 -0.993,-5.067 -1.071,-5.049C-1.263,-5.001 -1.545,-4.773 -1.917,-4.365L-0.027,-4.365L0.261,-4.743L0.801,-4.275C0.849,-4.239 0.873,-4.204 0.873,-4.171C0.873,-4.138 0.849,-4.11 0.801,-4.086L0.594,-3.96L0.594,-2.096C0.594,-1.905 0.6,-1.725 0.612,-1.557L0.639,-1.116C0.639,-1.002 0.56,-0.901 0.4,-0.815C0.242,-0.727 0.135,-0.684 0.081,-0.684C0.027,-0.684 0,-0.723 0,-0.801L0,-1.178L-1.386,-1.178C-1.416,-1.107 -1.446,-1.044 -1.476,-0.99L-0.738,-0.711C-0.642,-0.669 -0.594,-0.633 -0.594,-0.603C-0.594,-0.573 -0.627,-0.534 -0.693,-0.486L-0.864,-0.369L-0.864,0.441L0.342,0.441L0.819,-0.126L1.341,0.486C1.383,0.546 1.404,0.591 1.404,0.621C1.404,0.652 1.362,0.665 1.278,0.665L-0.864,0.665L-0.864,1.314C-0.864,1.71 -0.861,1.977 -0.855,2.115L-0.837,2.449C-0.837,2.514 -0.93,2.587 -1.116,2.668C-1.302,2.749 -1.416,2.79 -1.458,2.79C-1.5,2.79 -1.521,2.736 -1.521,2.628L-1.494,2.16C-1.488,1.968 -1.485,1.68 -1.485,1.296L-1.485,0.665L-3.42,0.665C-3.654,0.665 -3.855,0.697 -4.023,0.756L-4.32,0.414L-4.32,1.224C-4.32,1.44 -4.314,1.635 -4.302,1.809L-4.266,2.205C-4.266,2.331 -4.35,2.437 -4.518,2.525C-4.686,2.611 -4.797,2.656 -4.851,2.656C-4.905,2.656 -4.932,2.623 -4.932,2.556L-4.923,2.178C-4.917,2.016 -4.914,1.776 -4.914,1.458L-4.914,-0.846L-5.859,-0.846Z" style="fill:rgb(35,25,22);fill-rule:nonzero;"/>
            </g>
        </g>
        <g transform="matrix(8.33333,0,0,8.33333,0,0)">
            <g transform="matrix(1,0,0,1,0,1484.14)">
                <path d="M422.835,817.622L421.169,817.622L421.169,822.005L422.835,822.005L422.835,817.622ZM421.205,817.37L422.673,817.37L423.132,816.875L423.753,817.433C423.795,817.476 423.815,817.513 423.815,817.546C423.815,817.579 423.798,817.606 423.762,817.631L423.51,817.812L423.51,821.879C423.51,822.089 423.516,822.278 423.527,822.446L423.555,822.868C423.555,822.971 423.468,823.073 423.294,823.175C423.119,823.276 422.999,823.328 422.934,823.328C422.867,823.328 422.835,823.28 422.835,823.185L422.835,822.257L421.169,822.257L421.169,823.094C421.169,823.243 421.081,823.354 420.904,823.427C420.727,823.499 420.614,823.534 420.566,823.534C420.518,823.534 420.485,823.515 420.467,823.477C420.449,823.437 420.449,823.354 420.467,823.229C420.515,822.737 420.54,822.269 420.54,821.825L420.54,818.036C420.54,817.645 420.53,817.28 420.512,816.938L421.205,817.37ZM417.92,820.142C417.434,821.084 416.765,821.954 415.913,822.752L415.778,822.626C416.846,821.294 417.539,820.079 417.857,818.981L416.615,818.981C416.363,818.981 416.159,819.015 416.003,819.08L415.679,818.692C415.907,818.724 416.156,818.737 416.426,818.737L417.92,818.737L417.92,817.262C417.23,817.376 416.636,817.444 416.138,817.469L416.111,817.298C417.677,816.933 418.82,816.554 419.541,816.164L419.99,816.758C420.032,816.824 420.053,816.87 420.053,816.897C420.053,816.925 420.029,816.938 419.981,816.938L419.828,816.929C419.63,816.929 419.21,816.998 418.568,817.136L418.568,818.737L419.271,818.737L419.774,818.135L420.333,818.801C420.374,818.854 420.396,818.898 420.396,818.931C420.396,818.964 420.353,818.981 420.27,818.981L418.568,818.981L418.568,819.827C419.066,819.929 419.437,820.049 419.68,820.187C419.923,820.325 420.044,820.487 420.044,820.673C420.044,820.858 420.016,821.005 419.959,821.109C419.902,821.214 419.828,821.267 419.738,821.267C419.702,821.267 419.656,821.232 419.599,821.163C419.542,821.095 419.492,821.024 419.45,820.952C419.324,820.7 419.03,820.385 418.568,820.007L418.568,822.509C418.568,823.067 418.577,823.544 418.595,823.94C418.595,824.018 418.504,824.096 418.321,824.174C418.138,824.252 418.02,824.291 417.965,824.291C417.911,824.291 417.884,824.231 417.884,824.11L417.911,823.534C417.917,823.295 417.92,822.946 417.92,822.491L417.92,820.142Z" style="fill:rgb(35,25,22);fill-rule:nonzero;"/>
            </g>
        </g>
        <g transform="matrix(8.33333,0,0,8.33333,0,0)">
            <g transform="matrix(1,0,0,1,430.962,2305.05)">
                <path d="M0,-1.396C0.149,-1.935 0.275,-2.617 0.378,-3.439L1.034,-2.935C1.112,-2.875 1.151,-2.828 1.151,-2.794C1.151,-2.762 1.117,-2.726 1.048,-2.687C0.979,-2.648 0.921,-2.581 0.872,-2.484C0.824,-2.388 0.763,-2.189 0.688,-1.886C0.613,-1.583 0.507,-1.263 0.368,-0.927C0.807,-0.334 1.025,0.125 1.025,0.45C1.025,0.606 0.976,0.736 0.877,0.84C0.778,0.946 0.685,0.999 0.598,0.999C0.511,0.999 0.449,0.887 0.413,0.666C0.354,0.317 0.255,-0.013 0.116,-0.325C-0.31,0.582 -0.877,1.362 -1.584,2.016L-1.711,1.907C-0.967,0.936 -0.447,0.005 -0.153,-0.882C-0.388,-1.32 -0.729,-1.857 -1.18,-2.494L-1.054,-2.583C-0.604,-2.097 -0.253,-1.702 0,-1.396M-2.322,-1.593C-2.179,-2.043 -2.028,-2.673 -1.872,-3.484L-1.332,-2.98C-1.255,-2.908 -1.216,-2.858 -1.216,-2.832C-1.216,-2.804 -1.242,-2.775 -1.297,-2.746C-1.417,-2.667 -1.519,-2.491 -1.603,-2.214C-1.687,-1.939 -1.81,-1.579 -1.972,-1.134C-1.695,-0.745 -1.502,-0.447 -1.391,-0.24C-1.28,-0.033 -1.225,0.154 -1.225,0.319C-1.225,0.484 -1.268,0.612 -1.354,0.702C-1.442,0.792 -1.526,0.836 -1.607,0.836C-1.687,0.836 -1.756,0.719 -1.81,0.485C-1.917,-0 -2.04,-0.37 -2.179,-0.622C-2.503,0.128 -2.952,0.836 -3.528,1.502L-3.628,1.403C-3.1,0.498 -2.713,-0.343 -2.467,-1.117L-3.411,-2.646L-3.285,-2.737C-2.968,-2.4 -2.646,-2.019 -2.322,-1.593M-3.87,-4.042L-3.87,1.259C-3.87,1.829 -3.864,2.252 -3.853,2.528C-3.841,2.804 -3.834,2.966 -3.834,3.014C-3.834,3.063 -3.853,3.106 -3.889,3.145C-3.925,3.184 -4.007,3.232 -4.136,3.29C-4.265,3.346 -4.365,3.375 -4.437,3.375C-4.51,3.375 -4.546,3.305 -4.546,3.167L-4.51,2.294C-4.491,1.917 -4.482,1.502 -4.482,1.052L-4.482,-3.196C-4.482,-3.711 -4.494,-4.207 -4.519,-4.681L-3.834,-4.293L1.386,-4.293L1.772,-4.771L2.376,-4.312C2.447,-4.251 2.483,-4.203 2.483,-4.164C2.483,-4.125 2.441,-4.081 2.357,-4.033L2.204,-3.943L2.204,2.151C2.204,2.42 2.167,2.612 2.092,2.727C2.017,2.84 1.87,2.965 1.651,3.1C1.432,3.235 1.294,3.302 1.237,3.302C1.18,3.302 1.146,3.26 1.134,3.176C1.086,2.798 0.726,2.543 0.054,2.412L0.062,2.276C0.566,2.342 0.919,2.375 1.12,2.375C1.321,2.375 1.447,2.346 1.498,2.29C1.549,2.233 1.574,2.126 1.574,1.97L1.574,-4.042L-3.87,-4.042Z" style="fill:rgb(35,25,22);fill-rule:nonzero;"/>
            </g>
        </g>
        <g transform="matrix(8.33333,0,0,8.33333,0,0)">
            <g transform="matrix(1,0,0,1,439.971,2302.17)">
                <path d="M0,3.744C0.882,4.031 1.548,4.275 1.998,4.473C2.447,4.671 2.743,4.84 2.884,4.981C3.025,5.122 3.096,5.27 3.096,5.427C3.096,5.781 2.993,5.957 2.79,5.957C2.682,5.957 2.55,5.861 2.394,5.67C1.752,4.908 0.933,4.305 -0.063,3.861L0,3.744ZM-2.098,0.08L-1.116,0.08C-0.942,-0.411 -0.825,-0.883 -0.766,-1.332L-3.178,-1.332C-3.43,-1.332 -3.634,-1.303 -3.789,-1.242L-4.113,-1.629C-3.886,-1.594 -3.637,-1.575 -3.366,-1.575L2.528,-1.575L3.096,-2.25L3.698,-1.522C3.74,-1.473 3.762,-1.43 3.762,-1.391C3.762,-1.352 3.723,-1.332 3.645,-1.332L-0.081,-1.332C-0.189,-0.96 -0.436,-0.489 -0.819,0.08L1.584,0.08L1.998,-0.405L2.592,0.09C2.657,0.138 2.69,0.181 2.69,0.221C2.69,0.26 2.66,0.294 2.601,0.324L2.321,0.494L2.321,2.519C2.321,2.718 2.327,2.906 2.34,3.087L2.366,3.527C2.366,3.636 2.271,3.733 2.079,3.82C1.887,3.907 1.765,3.951 1.714,3.951C1.663,3.951 1.638,3.908 1.638,3.824L1.638,0.332L-2.079,0.332L-2.079,3.662C-2.079,3.837 -2.174,3.963 -2.363,4.041C-2.552,4.119 -2.672,4.158 -2.723,4.158C-2.773,4.158 -2.809,4.137 -2.826,4.095C-2.845,4.053 -2.845,3.972 -2.826,3.851C-2.778,3.359 -2.754,2.892 -2.754,2.447L-2.754,0.765C-2.754,0.291 -2.764,-0.075 -2.781,-0.333L-2.098,0.08ZM-0.612,0.855L0.152,1.142C0.267,1.191 0.323,1.23 0.323,1.26C0.323,1.29 0.289,1.33 0.22,1.381C0.151,1.431 0.099,1.644 0.062,2.015C-0.027,2.958 -0.2,3.669 -0.455,4.148C-0.71,4.629 -1.154,5.014 -1.787,5.305C-2.42,5.596 -3.223,5.826 -4.194,5.994L-4.222,5.805C-3.76,5.703 -3.318,5.56 -2.898,5.377C-2.479,5.194 -2.111,4.984 -1.796,4.747C-1.48,4.51 -1.251,4.276 -1.107,4.045C-0.963,3.814 -0.839,3.396 -0.733,2.789C-0.629,2.183 -0.589,1.539 -0.612,0.855" style="fill:rgb(35,25,22);fill-rule:nonzero;"/>
            </g>
        </g>
        <g transform="matrix(8.33333,0,0,8.33333,0,0)">
            <g transform="matrix(1,0,0,1,450.779,2306.86)">
                <path d="M0,-5.455C0.93,-5.73 1.617,-6.021 2.061,-6.328L2.439,-5.725C2.48,-5.652 2.502,-5.598 2.502,-5.559C2.502,-5.519 2.452,-5.509 2.354,-5.527C2.255,-5.545 2.163,-5.554 2.079,-5.554C1.863,-5.554 1.17,-5.451 0,-5.248L0,-4.654C0,-4.527 0.017,-4.44 0.05,-4.393C0.082,-4.345 0.163,-4.312 0.292,-4.299C0.422,-4.283 0.612,-4.275 0.864,-4.275C1.116,-4.275 1.35,-4.287 1.566,-4.311C1.782,-4.336 1.928,-4.359 2.003,-4.384C2.077,-4.408 2.139,-4.454 2.187,-4.523C2.235,-4.592 2.278,-4.691 2.317,-4.82C2.356,-4.949 2.391,-5.131 2.421,-5.365L2.565,-5.355C2.559,-5.037 2.574,-4.822 2.61,-4.707C2.646,-4.594 2.718,-4.518 2.826,-4.482C2.904,-4.459 2.943,-4.42 2.943,-4.365C2.943,-4.311 2.879,-4.211 2.749,-4.064C2.62,-3.917 2.328,-3.827 1.872,-3.795C1.416,-3.762 0.954,-3.744 0.486,-3.744C0.018,-3.744 -0.285,-3.795 -0.423,-3.893C-0.562,-3.992 -0.63,-4.168 -0.63,-4.42L-0.63,-5.842C-0.63,-6.094 -0.643,-6.466 -0.666,-6.957L0.18,-6.598C0.264,-6.561 0.306,-6.53 0.306,-6.504C0.306,-6.476 0.267,-6.435 0.189,-6.382L0,-6.265L0,-5.455ZM0.666,-1.584L-2.934,-1.584L-2.934,-0.703L0.666,-0.703L0.666,-1.584ZM0.666,-2.746L-2.934,-2.746L-2.934,-1.837L0.666,-1.837L0.666,-2.746ZM-2.925,-2.998L0.585,-2.998L0.873,-3.438L1.575,-2.971C1.646,-2.916 1.683,-2.876 1.683,-2.85C1.683,-2.822 1.65,-2.787 1.584,-2.746L1.314,-2.601L1.314,0.639C1.314,0.908 1.197,1.125 0.963,1.286C0.729,1.448 0.579,1.529 0.513,1.529C0.447,1.529 0.408,1.467 0.396,1.34C0.384,1.215 0.316,1.112 0.193,1.034C0.07,0.956 -0.204,0.852 -0.63,0.719L-0.604,0.575C-0.225,0.641 0.046,0.674 0.212,0.674C0.376,0.674 0.493,0.654 0.562,0.615C0.632,0.576 0.666,0.5 0.666,0.387L0.666,-0.451L-2.934,-0.451L-2.934,1.133C-2.934,1.254 -3.024,1.345 -3.204,1.408C-3.384,1.471 -3.492,1.502 -3.528,1.502C-3.594,1.502 -3.627,1.451 -3.627,1.35L-3.609,0.801C-3.591,0.566 -3.582,0.248 -3.582,-0.154L-3.582,-2.404C-3.582,-2.716 -3.594,-3.033 -3.618,-3.357L-2.925,-2.998ZM-2.43,-5.355L-4.095,-5.355C-4.347,-5.355 -4.551,-5.322 -4.707,-5.257L-5.031,-5.652C-4.803,-5.623 -4.554,-5.607 -4.284,-5.607L-2.43,-5.607L-2.43,-6.147C-2.43,-6.393 -2.439,-6.673 -2.457,-6.984L-1.638,-6.625C-1.566,-6.595 -1.53,-6.566 -1.53,-6.539C-1.53,-6.512 -1.563,-6.484 -1.629,-6.453L-1.8,-6.363L-1.8,-4.861C-1.8,-4.44 -1.794,-4.148 -1.782,-3.983C-1.771,-3.818 -1.764,-3.729 -1.764,-3.718C-1.764,-3.651 -1.858,-3.576 -2.048,-3.492C-2.236,-3.408 -2.353,-3.367 -2.394,-3.367C-2.437,-3.367 -2.457,-3.424 -2.457,-3.537L-2.43,-4.393L-3.717,-3.906C-4.221,-3.721 -4.517,-3.598 -4.604,-3.537C-4.69,-3.477 -4.749,-3.447 -4.779,-3.447C-4.81,-3.447 -4.836,-3.469 -4.86,-3.511L-5.22,-4.096L-2.43,-4.6L-2.43,-5.355Z" style="fill:rgb(35,25,22);fill-rule:nonzero;"/>
            </g>
        </g>
        <g transform="matrix(8.33333,0,0,8.33333,0,0)">
            <g transform="matrix(1,0,0,1,460.571,2302.61)">
                <path d="M0,3.483C1.309,3.885 2.064,4.165 2.269,4.32C2.473,4.475 2.574,4.682 2.574,4.941C2.574,5.079 2.551,5.2 2.502,5.305C2.454,5.411 2.389,5.463 2.305,5.463C2.25,5.463 2.146,5.361 1.989,5.157C1.755,4.857 1.475,4.594 1.147,4.37C0.82,4.145 0.417,3.906 -0.062,3.654L0,3.483ZM-2.771,2.917L0.82,2.917L0.82,2.025L-2.771,2.025L-2.771,2.917ZM-2.906,-0.206L0.99,-0.206L0.99,-0.792L-2.906,-0.792L-2.906,-0.206ZM-2.906,-1.035L0.99,-1.035L0.99,-1.728L-2.906,-1.728L-2.906,-1.035ZM-2.771,3.159L-2.771,3.258C-2.771,3.318 -2.788,3.364 -2.821,3.397C-2.854,3.43 -2.933,3.475 -3.055,3.532C-3.178,3.589 -3.262,3.618 -3.308,3.618C-3.353,3.618 -3.375,3.567 -3.375,3.465L-3.348,2.736L-3.348,2.322C-3.348,2.1 -3.356,1.837 -3.375,1.53L-2.79,1.782L0.766,1.782L1.018,1.449L1.575,1.837C1.611,1.866 1.629,1.896 1.629,1.926C1.629,1.956 1.611,1.983 1.575,2.006L1.423,2.106L1.423,2.475C1.423,2.601 1.426,2.706 1.432,2.79L1.458,3.06C1.458,3.169 1.377,3.266 1.216,3.357C1.054,3.447 0.946,3.492 0.896,3.492C0.845,3.492 0.819,3.45 0.819,3.366L0.819,3.159L-0.566,3.159L-0.566,4.905C-0.566,5.115 -0.591,5.27 -0.639,5.368C-0.687,5.467 -0.81,5.574 -1.008,5.688C-1.206,5.801 -1.335,5.859 -1.395,5.859C-1.442,5.859 -1.473,5.794 -1.484,5.661C-1.497,5.529 -1.582,5.415 -1.741,5.319C-1.9,5.223 -2.133,5.135 -2.438,5.057L-2.402,4.915C-2.007,4.956 -1.725,4.977 -1.557,4.977C-1.389,4.977 -1.283,4.956 -1.241,4.915C-1.2,4.872 -1.179,4.792 -1.179,4.67L-1.179,3.159L-2.771,3.159ZM-2.906,0.036L-2.906,0.234C-2.906,0.318 -2.928,0.377 -2.97,0.409C-3.012,0.442 -3.094,0.487 -3.217,0.545C-3.34,0.602 -3.424,0.629 -3.469,0.629C-3.514,0.629 -3.537,0.583 -3.537,0.486L-3.519,0.072C-3.513,-0.09 -3.51,-0.251 -3.51,-0.413L-3.51,-1.538C-3.51,-1.725 -3.519,-1.997 -3.537,-2.359L-2.88,-1.971L0.864,-1.971L1.216,-2.376L1.782,-1.971C1.842,-1.923 1.872,-1.887 1.872,-1.863C1.872,-1.839 1.839,-1.8 1.773,-1.746L1.594,-1.576L1.594,-0.801C1.594,-0.675 1.6,-0.54 1.611,-0.396L1.639,-0.009C1.639,0.087 1.55,0.172 1.373,0.248C1.196,0.323 1.088,0.36 1.049,0.36C1.01,0.36 0.99,0.321 0.99,0.243L0.99,0.036L-1.196,0.036C-0.986,0.102 -0.826,0.18 -0.715,0.27C-0.604,0.36 -0.549,0.454 -0.549,0.553C-0.549,0.653 -0.588,0.741 -0.666,0.819C-0.744,0.897 -0.832,0.936 -0.931,0.936C-1.03,0.936 -1.095,0.92 -1.125,0.891C-1.154,0.861 -1.187,0.766 -1.224,0.608C-1.26,0.448 -1.355,0.258 -1.512,0.036L-2.906,0.036ZM-1.988,3.852C-1.923,3.906 -1.89,3.954 -1.89,3.996C-1.89,4.038 -1.952,4.059 -2.079,4.059C-2.156,4.059 -2.271,4.113 -2.421,4.221C-3.314,4.893 -4.227,5.381 -5.156,5.688L-5.201,5.562C-4.242,5.028 -3.345,4.326 -2.511,3.456L-1.988,3.852ZM3.114,1.062C3.156,1.11 3.178,1.147 3.178,1.174C3.178,1.202 3.136,1.215 3.052,1.215L-4.319,1.215C-4.56,1.215 -4.758,1.245 -4.914,1.305L-5.229,0.919C-5.013,0.954 -4.77,0.971 -4.5,0.971L1.98,0.971L2.502,0.342L3.114,1.062Z" style="fill:rgb(35,25,22);fill-rule:nonzero;"/>
            </g>
        </g>
    </g>
</svg>
