<?xml version="1.0" encoding="UTF-8" standalone="no"?>
<!DOCTYPE svg PUBLIC "-//W3C//DTD SVG 1.1//EN" "http://www.w3.org/Graphics/SVG/1.1/DTD/svg11.dtd">
<svg width="100%" height="100%" viewBox="0 0 422 69" version="1.1" xmlns="http://www.w3.org/2000/svg" xmlns:xlink="http://www.w3.org/1999/xlink" xml:space="preserve" xmlns:serif="http://www.serif.com/" style="fill-rule:evenodd;clip-rule:evenodd;stroke-linejoin:round;stroke-miterlimit:2;">
    <g transform="matrix(1,0,0,1,-5481.7,-621.197)">
        <g transform="matrix(8.33333,0,0,8.33333,0,0)">
            <g transform="matrix(1,0,0,1,663.077,81.8558)">
                <path d="M0,-6.152L0,-5.273L-1.758,-5.273L-1.758,-4.394L-2.637,-4.394L-2.637,-3.515L-3.516,-3.515L-3.516,-2.636L-2.637,-2.636L-2.637,-1.757L-1.758,-1.757L-1.758,-0.879L0,-0.879L0,0L-2.637,0L-2.637,-0.879L-3.516,-0.879L-3.516,-1.757L-4.395,-1.757L-4.395,-2.636L-5.273,-2.636L-5.273,-3.515L-4.395,-3.515L-4.395,-4.394L-3.516,-4.394L-3.516,-5.273L-2.637,-5.273L-2.637,-6.152L0,-6.152Z" style="fill:rgb(76,124,119);fill-rule:nonzero;"/>
            </g>
        </g>
        <g transform="matrix(8.33333,0,0,8.33333,0,0)">
            <g transform="matrix(1,0,0,1,672.457,82.1249)">
                <path d="M0,-6.843C0,-6.773 -0.035,-6.702 -0.105,-6.632C-0.129,-6.609 -0.164,-6.585 -0.211,-6.562C-0.259,-6.514 -0.294,-6.479 -0.316,-6.456L-0.316,-5.613C-0.316,-5.354 -0.305,-4.886 -0.281,-4.206C-0.259,-3.058 -0.234,-2.109 -0.211,-1.359L-0.211,-0.585C-0.211,-0.281 -0.27,-0.058 -0.387,0.083C-0.527,0.294 -0.716,0.446 -0.949,0.54L-0.984,0.54C-1.055,0.587 -1.125,0.598 -1.195,0.575C-1.219,0.552 -1.254,0.469 -1.301,0.329C-1.301,0.282 -1.313,0.235 -1.336,0.188C-1.359,0.141 -1.371,0.094 -1.371,0.048C-1.465,-0.116 -1.63,-0.269 -1.863,-0.409C-2.052,-0.503 -2.145,-0.585 -2.145,-0.656C-2.122,-0.702 -2.027,-0.714 -1.863,-0.691L-1.406,-0.691C-1.243,-0.691 -1.148,-0.714 -1.125,-0.761C-1.103,-0.808 -1.09,-0.902 -1.09,-1.042C-1.043,-1.394 -1.043,-1.781 -1.09,-2.202L-1.09,-4.136C-1.09,-4.769 -1.103,-5.402 -1.125,-6.034C-1.125,-6.339 -1.138,-6.808 -1.16,-7.441C-1.113,-7.417 -0.997,-7.37 -0.809,-7.3C-0.668,-7.253 -0.551,-7.206 -0.457,-7.159C-0.153,-7.019 0,-6.913 0,-6.843M-3.832,-2.941L-4.078,-2.941C-4.219,-2.917 -4.337,-2.905 -4.43,-2.905L-4.43,-1.64L-4.008,-1.64C-3.891,-1.64 -3.832,-1.71 -3.832,-1.851C-3.785,-1.991 -3.785,-2.355 -3.832,-2.941M-1.547,-5.613C-1.547,-5.519 -1.617,-5.425 -1.758,-5.331L-1.758,-3.398C-1.735,-2.835 -1.723,-2.507 -1.723,-2.413C-1.723,-2.366 -1.758,-2.296 -1.828,-2.202C-1.852,-2.179 -1.863,-2.155 -1.863,-2.132C-2.074,-1.874 -2.285,-1.757 -2.496,-1.781C-2.544,-1.781 -2.566,-1.839 -2.566,-1.956C-2.566,-2.003 -2.555,-2.073 -2.531,-2.167C-2.531,-2.26 -2.52,-2.401 -2.496,-2.589L-2.496,-3.011C-2.496,-3.363 -2.484,-3.726 -2.461,-4.101C-2.509,-4.077 -2.602,-4.066 -2.742,-4.066C-2.953,-4.042 -3.247,-4.03 -3.621,-4.03C-3.669,-4.007 -3.797,-3.995 -4.008,-3.995C-4.196,-3.972 -4.337,-3.96 -4.43,-3.96L-4.43,-3.187L-4.254,-3.187C-4.091,-3.21 -3.95,-3.222 -3.832,-3.222C-3.832,-3.245 -3.82,-3.269 -3.797,-3.292C-3.75,-3.339 -3.669,-3.468 -3.551,-3.679C-3.48,-3.632 -3.328,-3.526 -3.094,-3.363C-3.258,-3.48 -3.212,-3.456 -2.953,-3.292C-2.836,-3.175 -2.777,-3.081 -2.777,-3.011C-2.777,-2.988 -2.813,-2.941 -2.883,-2.87C-2.931,-2.847 -2.988,-2.812 -3.059,-2.765L-3.059,-2.695C-3.036,-2.436 -3.023,-2.167 -3.023,-1.886C-2.977,-1.628 -2.977,-1.429 -3.023,-1.288C-3.047,-1.195 -3.117,-1.089 -3.234,-0.972C-3.445,-0.808 -3.621,-0.726 -3.762,-0.726C-3.855,-0.773 -3.926,-0.843 -3.973,-0.937C-4.043,-1.148 -4.126,-1.288 -4.219,-1.359C-4.289,-1.382 -4.359,-1.429 -4.43,-1.499C-4.407,-1.218 -4.395,-0.96 -4.395,-0.726C-4.395,-0.468 -4.407,-0.292 -4.43,-0.198C-4.478,-0.011 -4.583,0.13 -4.746,0.223C-4.864,0.317 -4.992,0.364 -5.133,0.364C-5.203,0.364 -5.238,0.294 -5.238,0.153L-5.238,-0.163C-5.191,-0.773 -5.168,-1.675 -5.168,-2.87C-5.309,-2.87 -5.508,-2.858 -5.766,-2.835L-5.766,-1.253C-5.766,-1.065 -5.836,-0.937 -5.977,-0.866C-6,-0.866 -6.024,-0.854 -6.047,-0.831C-6.07,-0.808 -6.165,-0.761 -6.328,-0.691C-6.422,-0.667 -6.481,-0.667 -6.504,-0.691C-6.574,-0.714 -6.598,-0.773 -6.574,-0.866L-6.574,-1.218C-6.504,-1.593 -6.481,-2.097 -6.504,-2.73C-6.504,-2.753 -6.517,-3.011 -6.539,-3.503C-6.281,-3.433 -5.977,-3.304 -5.625,-3.116L-5.168,-3.152L-5.168,-3.925C-5.402,-3.925 -5.708,-3.913 -6.082,-3.89C-6.316,-3.866 -6.552,-3.855 -6.785,-3.855C-6.949,-3.831 -7.185,-3.796 -7.488,-3.749C-7.536,-3.843 -7.594,-3.96 -7.664,-4.101C-7.431,-4.101 -7.102,-4.113 -6.68,-4.136L-5.168,-4.206L-5.168,-5.12L-6.117,-5.05C-6.328,-4.698 -6.539,-4.452 -6.75,-4.312C-6.82,-4.241 -6.879,-4.218 -6.926,-4.241C-6.974,-4.241 -6.961,-4.312 -6.891,-4.452C-6.633,-5.015 -6.446,-5.859 -6.328,-6.984C-6.141,-6.913 -5.93,-6.808 -5.695,-6.667C-5.578,-6.597 -5.508,-6.538 -5.484,-6.491C-5.414,-6.444 -5.379,-6.398 -5.379,-6.351C-5.379,-6.257 -5.473,-6.175 -5.66,-6.105C-5.73,-5.823 -5.824,-5.577 -5.941,-5.366L-5.168,-5.402L-5.168,-6.21C-5.168,-6.444 -5.181,-6.773 -5.203,-7.195C-5.016,-7.147 -4.781,-7.077 -4.5,-6.984L-4.465,-6.948C-4.277,-6.878 -4.184,-6.796 -4.184,-6.702C-4.184,-6.632 -4.231,-6.55 -4.324,-6.456C-4.348,-6.456 -4.372,-6.444 -4.395,-6.421C-4.418,-6.398 -4.442,-6.386 -4.465,-6.386L-4.465,-5.437L-4.043,-5.472C-4.021,-5.519 -3.973,-5.589 -3.902,-5.683C-3.785,-5.846 -3.691,-5.987 -3.621,-6.105C-3.41,-5.964 -3.188,-5.788 -2.953,-5.577C-2.813,-5.46 -2.742,-5.366 -2.742,-5.296C-2.742,-5.249 -2.86,-5.226 -3.094,-5.226L-3.41,-5.226C-3.621,-5.202 -3.797,-5.191 -3.938,-5.191C-4.031,-5.191 -4.207,-5.178 -4.465,-5.156L-4.465,-4.241L-3.762,-4.277C-3.669,-4.44 -3.516,-4.663 -3.305,-4.945L-2.602,-4.417C-2.531,-4.347 -2.484,-4.3 -2.461,-4.277C-2.461,-4.745 -2.474,-5.085 -2.496,-5.296L-2.496,-6.07C-2.449,-6.07 -2.368,-6.046 -2.25,-5.999C-2.157,-5.976 -2.074,-5.952 -2.004,-5.929C-1.7,-5.788 -1.547,-5.683 -1.547,-5.613" style="fill:rgb(76,124,119);fill-rule:nonzero;"/>
            </g>
        </g>
        <g transform="matrix(8.33333,0,0,8.33333,0,0)">
            <g transform="matrix(1,0,0,1,681.942,80.7307)">
                <path d="M0.281,-4.148L-0.387,-4.148C-0.621,-4.125 -0.797,-4.113 -0.914,-4.113C-1.032,-4.113 -1.23,-4.101 -1.512,-4.078C-1.981,-4.03 -2.368,-3.995 -2.672,-3.972C-2.625,-3.972 -2.555,-3.949 -2.461,-3.902C-2.368,-3.878 -2.298,-3.855 -2.25,-3.832C-2.039,-3.761 -1.934,-3.703 -1.934,-3.656C-1.911,-3.586 -1.934,-3.527 -2.004,-3.48C-2.052,-3.433 -2.098,-3.386 -2.145,-3.339L-2.145,-2.461L-1.336,-2.531C-1.266,-2.648 -1.138,-2.847 -0.949,-3.128C-0.902,-3.105 -0.832,-3.058 -0.738,-2.988C-0.621,-2.894 -0.516,-2.824 -0.422,-2.777C-0.375,-2.753 -0.316,-2.707 -0.246,-2.636C-0.176,-2.589 -0.129,-2.554 -0.105,-2.531C-0.059,-2.461 -0.035,-2.402 -0.035,-2.355C-0.059,-2.308 -0.105,-2.273 -0.176,-2.25C-0.153,-2.273 -0.164,-2.273 -0.211,-2.25L-0.492,-2.25C-0.681,-2.25 -0.892,-2.237 -1.125,-2.214L-1.266,-2.214C-1.454,-2.214 -1.746,-2.202 -2.145,-2.179L-2.145,-0.632C-1.981,-0.632 -1.771,-0.644 -1.512,-0.668C-1.371,-0.69 -1.23,-0.703 -1.09,-0.703C-1.02,-0.82 -0.892,-1.019 -0.703,-1.3C-0.633,-1.277 -0.527,-1.207 -0.387,-1.089C-0.294,-1.019 -0.224,-0.972 -0.176,-0.949C-0.153,-0.949 -0.129,-0.937 -0.105,-0.914C-0.013,-0.843 0.058,-0.773 0.105,-0.703C0.176,-0.632 0.211,-0.574 0.211,-0.527C0.187,-0.48 0.128,-0.457 0.035,-0.457C-0.013,-0.457 -0.105,-0.444 -0.246,-0.421L-1.02,-0.421L-2.145,-0.316C-2.122,0.106 -2.109,0.598 -2.109,1.161C-2.109,1.394 -2.192,1.594 -2.355,1.758C-2.449,1.829 -2.555,1.887 -2.672,1.934C-2.86,2.027 -2.977,2.039 -3.023,1.969L-3.023,1.407C-3.001,1.266 -2.988,1.148 -2.988,1.055C-2.966,0.47 -2.953,-0.105 -2.953,-0.668C-2.931,-1.628 -2.918,-2.378 -2.918,-2.918C-2.918,-2.988 -2.931,-3.14 -2.953,-3.375L-2.953,-3.937L-3.059,-3.937C-3.152,-3.796 -3.258,-3.644 -3.375,-3.48C-3.398,-3.433 -3.458,-3.362 -3.551,-3.269C-3.669,-3.128 -3.774,-3 -3.867,-2.882L-4.008,-2.742C-4.196,-2.531 -4.359,-2.39 -4.5,-2.32C-4.548,-2.25 -4.605,-2.214 -4.676,-2.214C-4.724,-2.261 -4.711,-2.332 -4.641,-2.425C-4.523,-2.566 -4.359,-2.812 -4.148,-3.164C-4.008,-3.421 -3.867,-3.703 -3.727,-4.007C-3.586,-4.382 -3.445,-4.816 -3.305,-5.308C-3.305,-5.331 -3.282,-5.401 -3.234,-5.519C-3.188,-5.777 -3.142,-5.999 -3.094,-6.187C-2.86,-6.046 -2.637,-5.906 -2.426,-5.765C-2.215,-5.625 -2.109,-5.519 -2.109,-5.449C-2.109,-5.378 -2.145,-5.331 -2.215,-5.308C-2.285,-5.238 -2.368,-5.19 -2.461,-5.168C-2.531,-4.957 -2.672,-4.663 -2.883,-4.289L-0.949,-4.394C-0.927,-4.441 -0.856,-4.546 -0.738,-4.71C-0.646,-4.851 -0.562,-4.968 -0.492,-5.062C-0.47,-5.062 -0.445,-5.05 -0.422,-5.027C-0.281,-4.957 -0.07,-4.816 0.211,-4.605C0.398,-4.441 0.492,-4.335 0.492,-4.289C0.492,-4.218 0.422,-4.171 0.281,-4.148ZM-4.078,-5.238C-4.078,-5.144 -4.196,-5.062 -4.43,-4.992C-4.548,-4.804 -4.711,-4.535 -4.922,-4.183L-5.062,-3.972C-5.04,-2.894 -5.027,-1.898 -5.027,-0.984L-5.027,-0.14C-5.027,0.141 -5.04,0.399 -5.062,0.633C-5.11,0.914 -5.238,1.148 -5.449,1.336C-5.52,1.407 -5.613,1.477 -5.73,1.547C-5.895,1.618 -6.012,1.641 -6.082,1.618C-6.13,1.618 -6.152,1.524 -6.152,1.336C-6.105,1.219 -6.07,1.055 -6.047,0.844C-5.93,0.141 -5.859,-0.48 -5.836,-1.019C-5.789,-1.628 -5.766,-2.343 -5.766,-3.164C-6.352,-2.507 -6.996,-1.991 -7.699,-1.617C-7.793,-1.546 -7.853,-1.534 -7.875,-1.582C-7.898,-1.605 -7.888,-1.652 -7.84,-1.722C-7.888,-1.652 -7.875,-1.664 -7.805,-1.757C-6.82,-2.671 -6.07,-3.656 -5.555,-4.71C-5.392,-4.992 -5.238,-5.39 -5.098,-5.906C-5.027,-5.858 -4.91,-5.8 -4.746,-5.73C-4.653,-5.683 -4.583,-5.648 -4.535,-5.625C-4.254,-5.437 -4.102,-5.308 -4.078,-5.238" style="fill:rgb(76,124,119);fill-rule:nonzero;"/>
            </g>
        </g>
        <g transform="matrix(8.33333,0,0,8.33333,0,0)">
            <g transform="matrix(1,0,0,1,688.403,78.3633)">
                <path d="M0,0.61C-0.023,0.821 -0.141,0.95 -0.352,0.997C-0.539,1.067 -0.691,1.044 -0.809,0.926C-0.926,0.809 -0.984,0.68 -0.984,0.54C-0.984,0.399 -0.996,0.212 -1.02,-0.023C-1.02,-0.21 -1.066,-0.351 -1.16,-0.445L-1.23,-0.656C-1.207,-0.679 -1.16,-0.679 -1.09,-0.656C-1.043,-0.632 -1.008,-0.62 -0.984,-0.62C-0.867,-0.597 -0.727,-0.527 -0.562,-0.41C-0.469,-0.362 -0.398,-0.327 -0.352,-0.304C-0.328,-0.281 -0.305,-0.245 -0.281,-0.199C-0.141,-0.035 -0.059,0.095 -0.035,0.188C0.035,0.329 0.047,0.469 0,0.61M3.586,-1.675C3.563,-1.605 3.445,-1.57 3.234,-1.57C2.508,-1.57 1.98,-1.557 1.652,-1.535C1.652,-1.3 1.664,-1.03 1.687,-0.726C1.687,-0.186 1.699,0.446 1.723,1.172L1.723,1.77C1.723,2.005 1.676,2.18 1.582,2.297C1.535,2.438 1.441,2.567 1.301,2.684C1.16,2.802 1.031,2.86 0.914,2.86C0.844,2.86 0.785,2.79 0.738,2.649C0.738,2.602 0.715,2.521 0.668,2.403C0.598,2.262 0.527,2.157 0.457,2.087C0.387,1.993 0.246,1.876 0.035,1.735L-0.105,1.559C-0.105,1.489 -0.035,1.466 0.105,1.489C0.199,1.512 0.316,1.524 0.457,1.524C0.574,1.547 0.645,1.547 0.668,1.524C0.738,1.477 0.773,1.396 0.773,1.278C0.797,0.997 0.809,0.399 0.809,-0.515L0.773,-1.499L-0.738,-1.394C-0.785,-1.394 -0.855,-1.382 -0.949,-1.359C-1.184,-1.359 -1.383,-1.335 -1.547,-1.288L-1.758,-1.71L-1.336,-1.71C-1.102,-1.687 -0.937,-1.687 -0.844,-1.71C-0.211,-1.71 0.328,-1.733 0.773,-1.781L0.773,-2.66C0.773,-2.87 0.762,-3.245 0.738,-3.785C0.832,-3.761 0.984,-3.714 1.195,-3.644C1.383,-3.574 1.535,-3.515 1.652,-3.468C1.887,-3.374 2.004,-3.269 2.004,-3.152C2.004,-3.081 1.887,-2.976 1.652,-2.835L1.652,-1.816L2.18,-1.851L2.637,-2.589C2.637,-2.566 2.824,-2.413 3.199,-2.132C3.152,-2.155 3.211,-2.109 3.375,-1.992C3.516,-1.874 3.586,-1.768 3.586,-1.675M-2.145,-1.816C-2.145,-1.652 -2.191,-1.499 -2.285,-1.359C-2.379,-1.241 -2.52,-1.183 -2.707,-1.183C-2.895,-1.183 -3.023,-1.265 -3.094,-1.429C-3.117,-1.499 -3.152,-1.652 -3.199,-1.886C-3.199,-2.097 -3.258,-2.285 -3.375,-2.449L-3.41,-2.519C-3.457,-2.589 -3.504,-2.647 -3.551,-2.695C-3.598,-2.765 -3.621,-2.812 -3.621,-2.835L-3.586,-2.835C-3.539,-2.858 -3.492,-2.858 -3.445,-2.835C-3.305,-2.835 -3.176,-2.812 -3.059,-2.765C-2.848,-2.695 -2.684,-2.624 -2.566,-2.554C-2.309,-2.39 -2.168,-2.144 -2.145,-1.816M3.727,3.176C3.75,3.247 3.715,3.305 3.621,3.352C3.598,3.376 3.539,3.423 3.445,3.493C3.492,3.446 3.469,3.458 3.375,3.528C3.258,3.645 3.094,3.821 2.883,4.055C2.813,4.173 2.719,4.278 2.602,4.372C2.531,4.395 2.25,4.372 1.758,4.301C0.984,4.184 0.234,3.95 -0.492,3.598C-0.82,3.435 -1.195,3.212 -1.617,2.93C-1.781,2.837 -2.086,2.591 -2.531,2.192C-2.555,2.215 -2.59,2.239 -2.637,2.262C-2.918,2.473 -3.129,2.614 -3.27,2.684C-3.574,2.943 -3.785,3.13 -3.902,3.247L-4.043,3.387C-4.066,3.411 -4.09,3.435 -4.113,3.458C-4.16,3.458 -4.242,3.4 -4.359,3.282L-4.43,3.176C-4.57,2.989 -4.711,2.813 -4.852,2.649C-4.734,2.602 -4.582,2.544 -4.395,2.473C-4.184,2.426 -4.043,2.38 -3.973,2.333C-3.855,2.31 -3.551,2.18 -3.059,1.946L-3.059,0.434L-3.164,0.469C-3.375,0.517 -3.586,0.552 -3.797,0.575C-3.891,0.598 -4.078,0.633 -4.359,0.68C-4.359,0.657 -4.371,0.633 -4.395,0.61C-4.418,0.587 -4.465,0.493 -4.535,0.329C-4.09,0.306 -3.609,0.258 -3.094,0.188C-3.094,0.165 -3.082,0.141 -3.059,0.118C-3.012,0.048 -2.906,-0.093 -2.742,-0.304C-2.719,-0.281 -2.684,-0.257 -2.637,-0.234C-2.52,-0.186 -2.355,-0.081 -2.145,0.083C-2.074,0.106 -2.004,0.153 -1.934,0.223C-1.863,0.247 -1.828,0.294 -1.828,0.364C-1.828,0.482 -1.922,0.575 -2.109,0.645L-2.109,2.192C-1.828,2.426 -1.582,2.579 -1.371,2.649C-0.832,2.837 -0.352,2.965 0.07,3.036C0.492,3.13 1.23,3.189 2.285,3.212C2.402,3.212 2.66,3.2 3.059,3.176C3.223,3.153 3.34,3.141 3.41,3.141C3.621,3.141 3.727,3.153 3.727,3.176" style="fill:rgb(76,124,119);fill-rule:nonzero;"/>
            </g>
        </g>
        <g transform="matrix(8.33333,0,0,8.33333,0,0)">
            <g transform="matrix(1,0,0,1,699.506,81.4217)">
                <path d="M0,-5.507C-0.398,-5.484 -0.984,-5.448 -1.758,-5.402L-1.723,-3.96C-1.605,-3.96 -1.453,-3.972 -1.266,-3.995C-0.68,-4.018 -0.27,-4.03 -0.035,-4.03C-0.012,-4.523 0,-5.015 0,-5.507M1.195,-5.612C1.195,-5.519 1.09,-5.413 0.879,-5.296L0.809,-4.312C1.02,-4.124 1.113,-3.995 1.09,-3.925C1.09,-3.855 0.973,-3.82 0.738,-3.82L0.527,-3.82C0.27,-3.796 0.047,-3.784 -0.141,-3.784C-0.492,-3.761 -1.008,-3.726 -1.687,-3.679L-1.687,-3.573C-1.687,-3.362 -1.711,-3.222 -1.758,-3.152C-1.828,-3.081 -1.934,-2.999 -2.074,-2.905C-2.215,-2.812 -2.332,-2.777 -2.426,-2.8C-2.473,-2.847 -2.496,-2.976 -2.496,-3.187L-2.496,-3.468C-2.473,-3.749 -2.473,-3.96 -2.496,-4.101C-2.496,-4.452 -2.508,-4.804 -2.531,-5.155C-2.531,-5.202 -2.543,-5.319 -2.566,-5.507C-2.59,-5.765 -2.602,-5.976 -2.602,-6.14C-2.438,-6.116 -2.215,-6.034 -1.934,-5.894C-1.816,-5.846 -1.699,-5.8 -1.582,-5.753L-1.547,-5.718L-0.035,-5.753L0.352,-6.316C0.398,-6.268 0.504,-6.187 0.668,-6.069C0.762,-6.022 0.832,-5.976 0.879,-5.929C0.926,-5.882 0.984,-5.835 1.055,-5.788L1.09,-5.753C1.16,-5.706 1.195,-5.659 1.195,-5.612M2.039,0.399C2.016,0.47 1.898,0.493 1.687,0.47C1.477,0.493 1.148,0.505 0.703,0.505C0.516,0.505 0.164,0.516 -0.352,0.54C-1.125,0.587 -1.758,0.622 -2.25,0.645C-2.484,0.692 -2.848,0.727 -3.34,0.751L-3.48,0.434C-3.199,0.411 -2.836,0.399 -2.391,0.399C-2.203,0.399 -1.91,0.376 -1.512,0.329L-1.301,0.329L-1.266,-1.042C-1.734,-1.019 -2.098,-0.984 -2.355,-0.937L-2.531,-1.288C-2.109,-1.288 -1.687,-1.3 -1.266,-1.323L-1.266,-2.378L-1.758,-2.378C-1.805,-2.378 -1.887,-2.366 -2.004,-2.343C-2.191,-2.319 -2.355,-2.296 -2.496,-2.273C-2.496,-2.319 -2.52,-2.401 -2.566,-2.519C-2.59,-2.566 -2.613,-2.612 -2.637,-2.659L-1.652,-2.659C-1.535,-2.659 -1.348,-2.671 -1.09,-2.694C-0.598,-2.717 -0.211,-2.741 0.07,-2.765C0.117,-2.812 0.199,-2.928 0.316,-3.116C0.363,-3.21 0.41,-3.292 0.457,-3.362C1.09,-2.941 1.395,-2.694 1.371,-2.624C1.348,-2.53 1.242,-2.484 1.055,-2.484L0,-2.484C-0.211,-2.46 -0.363,-2.448 -0.457,-2.448L-0.457,-1.359L-0.07,-1.359C-0.047,-1.382 -0.012,-1.452 0.035,-1.569C0.129,-1.71 0.211,-1.839 0.281,-1.956C0.352,-1.909 0.457,-1.839 0.598,-1.745C0.738,-1.652 0.832,-1.581 0.879,-1.534C0.902,-1.511 0.926,-1.476 0.949,-1.429C1.066,-1.311 1.113,-1.241 1.09,-1.218C1.09,-1.148 0.984,-1.112 0.773,-1.112C0.398,-1.112 0.105,-1.1 -0.105,-1.077L-0.457,-1.077L-0.457,0.294C-0.34,0.271 -0.152,0.259 0.105,0.259C0.363,0.236 0.551,0.223 0.668,0.223C0.715,0.177 0.867,-0.058 1.125,-0.48C1.219,-0.432 1.383,-0.316 1.617,-0.128C1.711,-0.058 1.781,0.001 1.828,0.048C2.016,0.188 2.086,0.306 2.039,0.399M-2.707,-3.644C-2.707,-3.596 -2.801,-3.573 -2.988,-3.573C-3.035,-3.55 -3.152,-3.538 -3.34,-3.538C-3.457,-3.515 -3.563,-3.503 -3.656,-3.503L-3.902,-3.503L-3.902,-3.011C-3.879,-3.011 -3.844,-2.999 -3.797,-2.976C-3.75,-2.976 -3.645,-2.941 -3.48,-2.87C-3.012,-2.659 -2.777,-2.366 -2.777,-1.991C-2.777,-1.898 -2.824,-1.792 -2.918,-1.675C-3.012,-1.581 -3.129,-1.534 -3.27,-1.534C-3.41,-1.557 -3.48,-1.652 -3.48,-1.816C-3.504,-1.933 -3.516,-2.073 -3.516,-2.237C-3.563,-2.495 -3.691,-2.682 -3.902,-2.8L-3.902,0.399C-3.902,0.493 -3.973,0.61 -4.113,0.751C-4.16,0.821 -4.254,0.891 -4.395,0.962C-4.535,1.032 -4.629,1.055 -4.676,1.032C-4.746,1.032 -4.781,0.997 -4.781,0.927C-4.781,0.856 -4.77,0.774 -4.746,0.68L-4.746,0.47C-4.676,0.141 -4.594,-0.831 -4.5,-2.448C-4.711,-2.167 -4.922,-1.874 -5.133,-1.569C-5.437,-1.195 -5.824,-0.831 -6.293,-0.48C-6.387,-0.409 -6.457,-0.374 -6.504,-0.374C-6.527,-0.374 -6.551,-0.386 -6.574,-0.409L-6.469,-0.62C-6.141,-0.924 -5.848,-1.288 -5.59,-1.71C-5.449,-1.921 -5.25,-2.237 -4.992,-2.659C-4.969,-2.706 -4.898,-2.882 -4.781,-3.187C-4.875,-2.928 -4.84,-3.011 -4.676,-3.433C-4.746,-3.433 -4.852,-3.421 -4.992,-3.398C-5.156,-3.398 -5.273,-3.385 -5.344,-3.362C-5.367,-3.362 -5.414,-3.35 -5.484,-3.327C-5.742,-3.28 -5.941,-3.245 -6.082,-3.222C-6.176,-3.339 -6.258,-3.468 -6.328,-3.609C-6.117,-3.609 -5.801,-3.62 -5.379,-3.644C-5.332,-3.644 -5.215,-3.655 -5.027,-3.679C-4.84,-3.702 -4.687,-3.714 -4.57,-3.714L-4.57,-4.628C-4.57,-4.839 -4.582,-5.015 -4.605,-5.155C-4.676,-5.132 -4.781,-5.108 -4.922,-5.085C-5.156,-5.015 -5.437,-4.956 -5.766,-4.909C-5.883,-4.909 -5.941,-4.921 -5.941,-4.945C-5.941,-4.967 -5.883,-5.015 -5.766,-5.085C-5.578,-5.178 -5.344,-5.296 -5.062,-5.437L-4.852,-5.542C-4.594,-5.683 -4.359,-5.846 -4.148,-6.034C-3.938,-6.175 -3.75,-6.351 -3.586,-6.562C-3.469,-6.421 -3.328,-6.245 -3.164,-6.034C-3.023,-5.894 -2.953,-5.788 -2.953,-5.718C-2.953,-5.624 -3.012,-5.577 -3.129,-5.577C-3.152,-5.554 -3.188,-5.554 -3.234,-5.577L-3.375,-5.577C-3.445,-5.554 -3.645,-5.484 -3.973,-5.366C-3.996,-5.366 -4.008,-5.354 -4.008,-5.331C-4.031,-5.308 -4.078,-5.296 -4.148,-5.296C-4.031,-5.273 -3.938,-5.226 -3.867,-5.155C-3.727,-5.108 -3.656,-5.05 -3.656,-4.98C-3.656,-4.932 -3.727,-4.851 -3.867,-4.734L-3.867,-3.749C-3.844,-3.772 -3.797,-3.784 -3.727,-3.784C-3.703,-3.831 -3.645,-3.925 -3.551,-4.066C-3.504,-4.183 -3.457,-4.277 -3.41,-4.347L-3.305,-4.241C-3.234,-4.218 -3.07,-4.101 -2.813,-3.89C-2.695,-3.82 -2.66,-3.737 -2.707,-3.644" style="fill:rgb(76,124,119);fill-rule:nonzero;"/>
            </g>
        </g>
        <g transform="matrix(8.33333,0,0,8.33333,0,0)">
            <g transform="matrix(1,0,0,1,705.722,81.8558)">
                <path d="M0,-6.152L0,-5.273L0.879,-5.273L0.879,-4.394L1.758,-4.394L1.758,-3.515L2.637,-3.515L2.637,-2.636L1.758,-2.636L1.758,-1.757L0.879,-1.757L0.879,-0.879L0,-0.879L0,0L-2.637,0L-2.637,-0.879L-0.879,-0.879L-0.879,-1.757L0,-1.757L0,-2.636L0.879,-2.636L0.879,-3.515L0,-3.515L0,-4.394L-0.879,-4.394L-0.879,-5.273L-2.637,-5.273L-2.637,-6.152L0,-6.152Z" style="fill:rgb(76,124,119);fill-rule:nonzero;"/>
            </g>
        </g>
    </g>
</svg>
