<?xml version="1.0" encoding="UTF-8" standalone="no"?>
<!DOCTYPE svg PUBLIC "-//W3C//DTD SVG 1.1//EN" "http://www.w3.org/Graphics/SVG/1.1/DTD/svg11.dtd">
<svg width="100%" height="100%" viewBox="0 0 314 71" version="1.1" xmlns="http://www.w3.org/2000/svg" xmlns:xlink="http://www.w3.org/1999/xlink" xml:space="preserve" xmlns:serif="http://www.serif.com/" style="fill-rule:evenodd;clip-rule:evenodd;stroke-linejoin:round;stroke-miterlimit:2;">
    <g transform="matrix(1,0,0,1,-3334.31,-22083.6)">
        <g transform="matrix(8.33333,0,0,8.33333,0,0)">
            <g transform="matrix(1,0,0,1,406.327,2656.43)">
                <path d="M0,-4.445L-0.198,-4.329L-0.198,-1.575L-0.18,-0.521C-0.18,-0.45 -0.252,-0.372 -0.396,-0.288C-0.54,-0.204 -0.641,-0.161 -0.697,-0.161C-0.754,-0.161 -0.783,-0.224 -0.783,-0.35C-0.783,-0.38 -0.778,-0.491 -0.77,-0.683C-0.76,-0.876 -0.756,-1.181 -0.756,-1.601L-0.756,-4.193C-0.756,-4.426 -0.765,-4.712 -0.783,-5.048L0,-4.661C0.072,-4.62 0.108,-4.585 0.108,-4.557C0.108,-4.53 0.072,-4.493 0,-4.445M1.467,-5.768L1.233,-5.633L1.233,0.64C1.233,0.958 1.208,1.187 1.157,1.328C1.105,1.469 0.987,1.611 0.801,1.751C0.615,1.892 0.495,1.962 0.441,1.962C0.387,1.962 0.345,1.915 0.315,1.819C0.267,1.632 0.153,1.495 -0.027,1.405C-0.207,1.315 -0.462,1.234 -0.792,1.161L-0.774,1.044C-0.384,1.081 -0.084,1.099 0.126,1.099C0.336,1.099 0.473,1.07 0.536,1.013C0.599,0.956 0.63,0.847 0.63,0.685L0.63,-4.913C0.63,-5.466 0.618,-5.939 0.594,-6.335L1.413,-5.975C1.515,-5.933 1.566,-5.897 1.566,-5.868C1.566,-5.837 1.533,-5.804 1.467,-5.768M-4.905,-1.575L-4.905,0.919C-4.905,1.015 -4.926,1.082 -4.968,1.121C-5.01,1.16 -5.091,1.206 -5.211,1.261C-5.331,1.315 -5.421,1.341 -5.481,1.341C-5.541,1.341 -5.562,1.243 -5.544,1.044C-5.502,0.697 -5.481,0.208 -5.481,-0.423L-5.481,-1.044C-5.481,-1.548 -5.487,-1.898 -5.499,-2.096L-4.914,-1.808L-3.843,-1.808L-3.843,-2.888L-5.283,-2.888C-5.535,-2.888 -5.736,-2.855 -5.886,-2.79L-6.21,-3.159C-5.988,-3.128 -5.742,-3.113 -5.472,-3.113L-3.843,-3.113L-3.843,-4.337L-5.04,-4.337C-5.244,-4.001 -5.496,-3.647 -5.796,-3.275L-5.922,-3.311C-5.46,-4.157 -5.184,-4.979 -5.094,-5.777L-4.482,-5.471C-4.392,-5.428 -4.347,-5.393 -4.347,-5.363C-4.347,-5.333 -4.378,-5.305 -4.441,-5.282C-4.504,-5.258 -4.554,-5.219 -4.59,-5.165C-4.626,-5.111 -4.679,-5.012 -4.748,-4.868C-4.816,-4.724 -4.869,-4.622 -4.905,-4.562L-3.843,-4.562C-3.843,-5.696 -3.852,-6.311 -3.87,-6.407L-2.997,-6.056C-2.925,-6.032 -2.889,-6.004 -2.889,-5.971C-2.889,-5.938 -2.925,-5.903 -2.997,-5.868L-3.249,-5.706L-3.249,-4.562L-2.403,-4.562L-1.953,-5.057L-1.467,-4.481C-1.431,-4.439 -1.413,-4.405 -1.413,-4.378C-1.413,-4.35 -1.455,-4.337 -1.539,-4.337L-3.249,-4.337L-3.249,-3.113L-2.043,-3.113L-1.629,-3.635L-1.089,-3.042C-1.047,-2.999 -1.026,-2.964 -1.026,-2.933C-1.026,-2.903 -1.077,-2.888 -1.179,-2.888L-3.249,-2.888L-3.249,-1.808L-2.295,-1.808L-1.971,-2.249L-1.413,-1.781C-1.371,-1.751 -1.35,-1.719 -1.35,-1.686C-1.35,-1.653 -1.386,-1.616 -1.458,-1.575L-1.611,-1.503L-1.611,0.397C-1.611,0.655 -1.711,0.878 -1.913,1.068C-2.114,1.256 -2.232,1.351 -2.268,1.351C-2.304,1.351 -2.331,1.309 -2.349,1.225C-2.379,1.003 -2.604,0.811 -3.024,0.649L-3.006,0.54C-2.82,0.565 -2.667,0.577 -2.547,0.577C-2.427,0.577 -2.337,0.562 -2.277,0.533C-2.217,0.501 -2.187,0.439 -2.187,0.343L-2.187,-1.575L-3.249,-1.575L-3.249,-0.171C-3.249,0.406 -3.245,0.814 -3.235,1.054C-3.227,1.294 -3.222,1.429 -3.222,1.458C-3.222,1.573 -3.298,1.669 -3.452,1.747C-3.604,1.825 -3.717,1.865 -3.789,1.865C-3.861,1.865 -3.897,1.792 -3.897,1.648L-3.861,0.865C-3.849,0.517 -3.843,0.106 -3.843,-0.368L-3.843,-1.575L-4.905,-1.575Z" style="fill:rgb(35,25,22);fill-rule:nonzero;"/>
            </g>
        </g>
        <g transform="matrix(8.33333,0,0,8.33333,0,0)">
            <g transform="matrix(1,0,0,1,415.147,2654.62)">
                <path d="M0,-0.65L1.467,-0.65L1.944,-1.226L2.52,-0.55C2.556,-0.508 2.574,-0.472 2.574,-0.443C2.574,-0.413 2.532,-0.398 2.448,-0.398L0,-0.398L0,1.249L1.71,1.249L2.223,0.664L2.799,1.348C2.841,1.397 2.862,1.436 2.862,1.465C2.862,1.496 2.82,1.51 2.736,1.51L0,1.51C0,2.182 0.006,2.665 0.018,2.959C0.03,3.253 0.036,3.41 0.036,3.427C0.036,3.565 -0.064,3.673 -0.265,3.751C-0.466,3.829 -0.595,3.869 -0.652,3.869C-0.709,3.869 -0.738,3.811 -0.738,3.698L-0.684,2.744C-0.666,2.317 -0.657,1.924 -0.657,1.565L-0.657,-2.369L-1.053,-2.369C-1.605,-1.439 -2.214,-0.64 -2.88,0.026L-3.015,-0.064C-2.043,-1.39 -1.32,-2.864 -0.846,-4.484L-0.009,-4.034C0.075,-3.992 0.117,-3.953 0.117,-3.917C0.117,-3.88 0.078,-3.851 0,-3.827C-0.18,-3.779 -0.324,-3.652 -0.432,-3.449L-0.9,-2.621L1.818,-2.621L2.367,-3.259L2.997,-2.531C3.033,-2.482 3.051,-2.443 3.051,-2.414C3.051,-2.383 3.009,-2.369 2.925,-2.369L0,-2.369L0,-0.65ZM-3.807,-1.468C-4.293,-0.749 -4.77,-0.158 -5.238,0.305L-5.364,0.205C-4.248,-1.421 -3.495,-2.996 -3.105,-4.519L-2.322,-4.15C-2.226,-4.103 -2.178,-4.056 -2.178,-4.011C-2.178,-3.966 -2.228,-3.929 -2.326,-3.898C-2.425,-3.869 -2.529,-3.743 -2.637,-3.521C-2.925,-2.945 -3.234,-2.386 -3.564,-1.847L-3.087,-1.648C-2.997,-1.613 -2.952,-1.577 -2.952,-1.541C-2.952,-1.504 -2.982,-1.465 -3.042,-1.423L-3.168,-1.325L-3.168,1.7C-3.168,2.276 -3.164,2.692 -3.154,2.951C-3.146,3.208 -3.141,3.346 -3.141,3.364C-3.141,3.473 -3.235,3.577 -3.424,3.68C-3.613,3.782 -3.732,3.832 -3.78,3.832C-3.852,3.832 -3.888,3.787 -3.888,3.698C-3.888,3.608 -3.885,3.536 -3.879,3.481C-3.861,3.331 -3.844,3.028 -3.83,2.573C-3.814,2.117 -3.807,1.762 -3.807,1.51L-3.807,-1.468Z" style="fill:rgb(35,25,22);fill-rule:nonzero;"/>
            </g>
        </g>
        <g transform="matrix(8.33333,0,0,8.33333,0,0)">
            <g transform="matrix(1,0,0,1,425.012,2655.16)">
                <path d="M0,-1.396C0.149,-1.935 0.275,-2.617 0.377,-3.439L1.034,-2.935C1.112,-2.875 1.151,-2.828 1.151,-2.794C1.151,-2.762 1.117,-2.726 1.048,-2.687C0.979,-2.648 0.92,-2.581 0.872,-2.484C0.824,-2.388 0.763,-2.189 0.687,-1.886C0.613,-1.583 0.506,-1.263 0.368,-0.927C0.807,-0.334 1.025,0.125 1.025,0.45C1.025,0.606 0.976,0.736 0.877,0.84C0.777,0.946 0.685,0.999 0.598,0.999C0.511,0.999 0.449,0.887 0.413,0.666C0.354,0.317 0.254,-0.013 0.116,-0.325C-0.31,0.582 -0.877,1.362 -1.584,2.016L-1.711,1.907C-0.967,0.936 -0.447,0.005 -0.154,-0.882C-0.388,-1.32 -0.729,-1.857 -1.18,-2.494L-1.054,-2.583C-0.604,-2.097 -0.253,-1.702 0,-1.396M-2.322,-1.593C-2.179,-2.043 -2.029,-2.673 -1.873,-3.484L-1.332,-2.98C-1.255,-2.908 -1.216,-2.858 -1.216,-2.832C-1.216,-2.804 -1.242,-2.775 -1.297,-2.746C-1.417,-2.667 -1.519,-2.491 -1.603,-2.214C-1.687,-1.939 -1.81,-1.579 -1.972,-1.134C-1.695,-0.745 -1.502,-0.447 -1.391,-0.24C-1.28,-0.033 -1.225,0.154 -1.225,0.319C-1.225,0.484 -1.268,0.612 -1.355,0.702C-1.442,0.792 -1.526,0.836 -1.607,0.836C-1.687,0.836 -1.756,0.719 -1.81,0.485C-1.918,-0 -2.041,-0.37 -2.179,-0.622C-2.503,0.128 -2.953,0.836 -3.529,1.502L-3.628,1.403C-3.1,0.498 -2.713,-0.343 -2.467,-1.117L-3.412,-2.646L-3.286,-2.737C-2.968,-2.4 -2.646,-2.019 -2.322,-1.593M-3.871,-4.042L-3.871,1.259C-3.871,1.829 -3.865,2.252 -3.853,2.528C-3.841,2.804 -3.834,2.966 -3.834,3.014C-3.834,3.063 -3.853,3.106 -3.889,3.145C-3.925,3.184 -4.007,3.232 -4.136,3.29C-4.265,3.346 -4.366,3.375 -4.437,3.375C-4.51,3.375 -4.546,3.305 -4.546,3.167L-4.51,2.294C-4.492,1.917 -4.483,1.502 -4.483,1.052L-4.483,-3.196C-4.483,-3.711 -4.495,-4.207 -4.519,-4.681L-3.834,-4.293L1.385,-4.293L1.772,-4.771L2.375,-4.312C2.447,-4.251 2.483,-4.203 2.483,-4.164C2.483,-4.125 2.441,-4.081 2.357,-4.033L2.204,-3.943L2.204,2.151C2.204,2.42 2.167,2.612 2.092,2.727C2.017,2.84 1.869,2.965 1.65,3.1C1.432,3.235 1.294,3.302 1.236,3.302C1.18,3.302 1.145,3.26 1.133,3.176C1.086,2.798 0.725,2.543 0.053,2.412L0.062,2.276C0.566,2.342 0.919,2.375 1.119,2.375C1.32,2.375 1.447,2.346 1.498,2.29C1.549,2.233 1.574,2.126 1.574,1.97L1.574,-4.042L-3.871,-4.042Z" style="fill:rgb(35,25,22);fill-rule:nonzero;"/>
            </g>
        </g>
        <g transform="matrix(8.33333,0,0,8.33333,0,0)">
            <g transform="matrix(1,0,0,1,434.02,2652.28)">
                <path d="M0,3.744C0.882,4.031 1.548,4.275 1.998,4.473C2.448,4.671 2.743,4.84 2.884,4.981C3.025,5.122 3.096,5.27 3.096,5.427C3.096,5.781 2.993,5.957 2.79,5.957C2.683,5.957 2.55,5.861 2.394,5.67C1.752,4.908 0.933,4.305 -0.063,3.861L0,3.744ZM-2.097,0.08L-1.116,0.08C-0.942,-0.411 -0.825,-0.883 -0.765,-1.332L-3.177,-1.332C-3.429,-1.332 -3.634,-1.303 -3.789,-1.242L-4.113,-1.629C-3.886,-1.594 -3.636,-1.575 -3.366,-1.575L2.528,-1.575L3.096,-2.25L3.698,-1.522C3.741,-1.473 3.762,-1.43 3.762,-1.391C3.762,-1.352 3.723,-1.332 3.646,-1.332L-0.081,-1.332C-0.188,-0.96 -0.435,-0.489 -0.819,0.08L1.584,0.08L1.998,-0.405L2.592,0.09C2.657,0.138 2.69,0.181 2.69,0.221C2.69,0.26 2.661,0.294 2.601,0.324L2.321,0.494L2.321,2.519C2.321,2.718 2.327,2.906 2.34,3.087L2.366,3.527C2.366,3.636 2.271,3.733 2.079,3.82C1.887,3.907 1.765,3.951 1.714,3.951C1.663,3.951 1.638,3.908 1.638,3.824L1.638,0.332L-2.079,0.332L-2.079,3.662C-2.079,3.837 -2.174,3.963 -2.362,4.041C-2.552,4.119 -2.672,4.158 -2.723,4.158C-2.773,4.158 -2.808,4.137 -2.826,4.095C-2.845,4.053 -2.845,3.972 -2.826,3.851C-2.778,3.359 -2.754,2.892 -2.754,2.447L-2.754,0.765C-2.754,0.291 -2.763,-0.075 -2.781,-0.333L-2.097,0.08ZM-0.612,0.855L0.153,1.142C0.267,1.191 0.323,1.23 0.323,1.26C0.323,1.29 0.29,1.33 0.22,1.381C0.151,1.431 0.099,1.644 0.063,2.015C-0.026,2.958 -0.2,3.669 -0.454,4.148C-0.71,4.629 -1.153,5.014 -1.786,5.305C-2.42,5.596 -3.222,5.826 -4.194,5.994L-4.222,5.805C-3.759,5.703 -3.318,5.56 -2.897,5.377C-2.478,5.194 -2.11,4.984 -1.796,4.747C-1.48,4.51 -1.251,4.276 -1.106,4.045C-0.963,3.814 -0.839,3.396 -0.733,2.789C-0.629,2.183 -0.589,1.539 -0.612,0.855" style="fill:rgb(35,25,22);fill-rule:nonzero;"/>
            </g>
        </g>
    </g>
</svg>
