<svg width="244" height="94" viewBox="0 0 244 94" fill="none" xmlns="http://www.w3.org/2000/svg">
<rect x="1" y="1" width="242" height="92" rx="9" stroke="#862842" stroke-width="2"/>
<path d="M58.4375 66.3125H36.3125C33.3125 66.3125 30.9375 66.5 29.1875 66.875C28.8125 67.125 28.5 67 28.25 66.5C28 66.25 27.8125 65.9375 27.6875 65.5625C27.4375 65.0625 27.25 64.75 27.125 64.625C26.875 64.25 27 64.125 27.5 64.25C28.75 64.25 30.5625 64.375 32.9375 64.625C35.0625 64.625 36.6875 64.6875 37.8125 64.8125H45.875V60.125H39.5C38.375 60.125 36.5 60.3125 33.875 60.6875C33.375 60.6875 33 60.6875 32.75 60.6875C32.375 60.9375 32 60.8125 31.625 60.3125C31.5 60.3125 31.125 59.75 30.5 58.625C30.375 58.375 30.3125 58.25 30.3125 58.25C30.4375 58.125 30.6875 58.0625 31.0625 58.0625C31.6875 58.3125 32.9375 58.4375 34.8125 58.4375C36.9375 58.5625 39 58.625 41 58.625H45.875V53.1875H40.25V54.125C40.25 55.125 39.4375 55.75 37.8125 56C37.6875 56.125 37.5625 56.1875 37.4375 56.1875C36.4375 56.4375 35.5625 56.5 34.8125 56.375C33.1875 56.75 32.5625 56.0625 32.9375 54.3125C33.0625 52.9375 33.125 49.8125 33.125 44.9375V44.1875C33 41.9375 32.875 39.625 32.75 37.25C32.625 35.875 33.1875 35.375 34.4375 35.75C36.0625 36.375 38.1875 37.1875 40.8125 38.1875H45.875V34.0625H35.75C32.75 34.1875 30.5625 34.3125 29.1875 34.4375C28.4375 34.6875 28 34.5625 27.875 34.0625C27.125 33.5625 26.75 33.0625 26.75 32.5625C26.375 32.3125 26.4375 32.1875 26.9375 32.1875C28.0625 32.3125 29.6875 32.4375 31.8125 32.5625C34.1875 32.5625 36.0625 32.5625 37.4375 32.5625H45.875V29.375C42.875 29.625 38.9375 29.6875 34.0625 29.5625C33.4375 29.5625 33.0625 29.4375 32.9375 29.1875C32.9375 28.9375 33.25 28.6875 33.875 28.4375C44.375 26.5625 52.4375 24.3125 58.0625 21.6875C58.8125 21.1875 59.5625 21.25 60.3125 21.875C62.3125 23.375 64.1875 24.9375 65.9375 26.5625C66.3125 27.0625 66.375 27.5625 66.125 28.0625C65.75 28.4375 65.25 28.5 64.625 28.25C63.875 28 62.9375 27.9375 61.8125 28.0625C59.6875 28.4375 57.3125 28.6875 54.6875 28.8125C54.8125 29.5625 54.625 30.125 54.125 30.5C53.5 31 53.25 31.5 53.375 32V32.5625H63.3125C64.9375 29.9375 66.1875 28.5 67.0625 28.25C68.4375 28.625 70.4375 30.0625 73.0625 32.5625C73.6875 33.6875 73.5 34.3125 72.5 34.4375C67.875 34.3125 63.25 34.1875 58.625 34.0625H53.375V38.1875H57.875C58.875 36.3125 59.8125 35.25 60.6875 35C62.0625 35.125 64.1875 36.1875 67.0625 38.1875C67.8125 39.0625 67.8125 39.8125 67.0625 40.4375C66.4375 40.6875 66.1875 41.25 66.3125 42.125C66.3125 44.75 66.4375 48.0625 66.6875 52.0625C66.6875 53.3125 66.25 54.125 65.375 54.5C65.125 54.625 64.875 54.6875 64.625 54.6875C64.375 54.8125 64.1875 54.875 64.0625 54.875C64.9375 55.125 66.5625 56.3125 68.9375 58.4375C69.3125 58.9375 69.4375 59.375 69.3125 59.75C69.3125 60 69.0625 60.125 68.5625 60.125H53.375V64.8125H62.5625C64.4375 62.0625 65.75 60.6875 66.5 60.6875C68 60.9375 70.1875 62.1875 73.0625 64.4375C73.8125 65.4375 73.625 66.125 72.5 66.5C69.375 66.25 64.6875 66.1875 58.4375 66.3125ZM59.1875 53.1875H53.375V58.625H59.9375C60.5625 57.25 61.375 56.125 62.375 55.25C61.875 55.25 61.5625 55.3125 61.4375 55.4375C59.6875 55.6875 58.9375 55.3125 59.1875 54.3125V53.1875ZM53.375 51.875H59.1875V46.4375H53.375V51.875ZM40.25 46.4375V51.875H45.875V46.4375H40.25ZM59.1875 39.6875H53.375V44.9375H59.1875V39.6875ZM40.25 40.8125V44.9375H45.875V39.6875H41.375C40.5 39.6875 40.125 40.0625 40.25 40.8125ZM107.188 31.625V41.375H113.375C114.875 39 115.938 37.75 116.562 37.625C118.062 38.125 119.75 39.375 121.625 41.375C121.875 42.375 121.688 42.875 121.062 42.875H116V54.875C116 57.625 116.125 61 116.375 65C116.625 66.5 116.125 67.4375 114.875 67.8125C113.5 68.0625 112 68.3125 110.375 68.5625C109.25 68.5625 108.75 67.875 108.875 66.5C109 62.75 109.125 58.125 109.25 52.625V42.875H107.188C107.062 50.875 106 56.375 104 59.375C102.25 62.375 98.25 65.1875 92 67.8125C91.375 68.0625 91 68.0625 90.875 67.8125C90.625 67.6875 90.75 67.4375 91.25 67.0625C94.625 63.9375 96.875 61.375 98 59.375C97.875 59.5 97.75 59.5625 97.625 59.5625C97.625 59.6875 97.5 59.875 97.25 60.125C94.625 61.375 93.0625 60.5625 92.5625 57.6875C92.4375 56.0625 91.8125 54.125 90.6875 51.875V55.0625C90.5625 55.6875 90.5625 56.875 90.6875 58.625C90.8125 60.375 90.875 61.5 90.875 62C91 64.375 90.3125 65.9375 88.8125 66.6875C87.5625 67.4375 86.125 67.9375 84.5 68.1875C82.625 68.6875 81.6875 68.3125 81.6875 67.0625C81.4375 65.0625 80.375 63.875 78.5 63.5C77.75 63.25 77.4375 62.9375 77.5625 62.5625C77.6875 62.3125 78.1875 62.1875 79.0625 62.1875C82.9375 62.4375 84.5625 61.5625 83.9375 59.5625V53.9375C83.5625 54.0625 83.3125 54.375 83.1875 54.875C80.9375 59.5 78.3125 62.75 75.3125 64.625C74.8125 64.875 74.5 64.9375 74.375 64.8125C74.25 64.6875 74.3125 64.375 74.5625 63.875C75.5625 61.5 76.3125 58.9375 76.8125 56.1875C76.9375 55.4375 77.0625 54.625 77.1875 53.75C77.1875 52.875 77.25 52 77.375 51.125C77.25 50.375 77.75 50.125 78.875 50.375C79.75 50.5 81.4375 50.875 83.9375 51.5V49.25H79.4375C78.5625 49.375 77.625 49.5 76.625 49.625C76.25 49.75 75.9375 49.625 75.6875 49.25C75.4375 49.125 75.25 48.9375 75.125 48.6875C75 48.4375 74.875 48.1875 74.75 47.9375C74.5 47.8125 74.4375 47.6875 74.5625 47.5625C74.5625 47.5625 74.75 47.5 75.125 47.375C76.125 47.75 77.875 47.875 80.375 47.75H83.9375V42.3125H79.4375C78.5625 42.4375 77.625 42.5625 76.625 42.6875C76.25 42.8125 75.9375 42.6875 75.6875 42.3125C75.4375 42.1875 75.25 42 75.125 41.75C75 41.5 74.875 41.25 74.75 41C74.375 40.625 74.5 40.5 75.125 40.625C76.125 40.875 77.875 40.9375 80.375 40.8125H82.4375C81.3125 40.5625 80.75 39.6875 80.75 38.1875C80.75 36.4375 80.25 34.5625 79.25 32.5625C79 32.1875 78.9375 31.9375 79.0625 31.8125C79.1875 31.6875 79.5 31.625 80 31.625C83.875 32.625 86.1875 34.3125 86.9375 36.6875C87.1875 39.0625 86.25 40.4375 84.125 40.8125H87.6875C88.6875 38.3125 89.375 35.125 89.75 31.25H80.375C79.5 31.375 78.5625 31.5 77.5625 31.625C77.0625 31.875 76.75 31.8125 76.625 31.4375C76.375 31.3125 76.1875 31.0625 76.0625 30.6875C75.8125 30.4375 75.625 30.1875 75.5 29.9375C75.25 29.5625 75.375 29.4375 75.875 29.5625C76.5 29.6875 77.375 29.8125 78.5 29.9375C79.625 29.9375 80.5 29.9375 81.125 29.9375H85.25C84.25 29.6875 83.6875 28.8125 83.5625 27.3125C83.3125 25.4375 82.75 23.875 81.875 22.625C81.5 22.375 81.375 22.1875 81.5 22.0625C81.5 21.9375 81.75 21.8125 82.25 21.6875C86.5 21.9375 89.1875 23.0625 90.3125 25.0625C90.8125 27.5625 90 29.125 87.875 29.75L87.5 29.9375H91.0625C92.3125 27.3125 93.25 25.875 93.875 25.625C95 26 97.125 27.4375 100.25 29.9375C99.875 28.6875 99.75 27.9375 99.875 27.6875C99.625 27.0625 99.625 26.625 99.875 26.375C100 26.125 100.438 26.0625 101.188 26.1875C103.562 26.9375 105.625 27.6875 107.375 28.4375C107.5 28.6875 107.688 28.8125 107.938 28.8125C110.562 27.3125 112.875 25.6875 114.875 23.9375C115.25 23.4375 115.75 23.375 116.375 23.75C117.5 24.75 118.875 26.25 120.5 28.25C120.875 28.5 121.125 28.6875 121.25 28.8125C121.625 30.1875 121.188 30.75 119.938 30.5C119.312 30.375 118.312 30.25 116.938 30.125C115.312 30.5 113.688 30.75 112.062 30.875C110.562 31 108.938 31 107.188 30.875C107.188 31.125 107.188 31.375 107.188 31.625ZM99.3125 31.25H93.6875C94.4375 31.625 95.1875 31.9375 95.9375 32.1875C96.4375 32.4375 96.875 32.5625 97.25 32.5625C97.75 32.9375 98 33.375 98 33.875C98 34.25 97.75 34.4375 97.25 34.4375C96.25 34.5625 95.5625 34.875 95.1875 35.375C93.3125 37.875 91.6875 39.6875 90.3125 40.8125H92.1875C93.3125 38.4375 94.3125 37.1875 95.1875 37.0625C96.3125 37.5625 98.0625 38.75 100.438 40.625V36.125C100.438 35.5 100.375 34.5625 100.25 33.3125C100.25 32.1875 100.25 31.3125 100.25 30.6875C100 31.0625 99.6875 31.25 99.3125 31.25ZM99.6875 42.3125H91.4375C91.5625 42.8125 91.4375 43.125 91.0625 43.25C90.8125 43.375 90.6875 43.875 90.6875 44.75V47.75H92.1875C93.3125 45.375 94.3125 44.125 95.1875 44C96.6875 44.625 98.375 45.8125 100.25 47.5625C100.25 46.9375 100.25 46.25 100.25 45.5C100.375 44.75 100.438 43.6875 100.438 42.3125C100.188 42.3125 99.9375 42.3125 99.6875 42.3125ZM99.6875 49.25H90.6875V50.375H90.875C94.125 51 96.625 52.3125 98.375 54.3125C98.75 55.0625 99 55.875 99.125 56.75C99.625 54.75 100 52.25 100.25 49.25C100 49.25 99.8125 49.25 99.6875 49.25ZM148.062 33.875V29.9375C147.938 28.5625 147.812 27.3125 147.688 26.1875C147.312 25.1875 147.75 24.6875 149 24.6875C150 25.0625 151.938 25.625 154.812 26.375C155.188 26.625 155.438 26.875 155.562 27.125H159.125C160.5 25 161.562 23.9375 162.312 23.9375C164.938 25.0625 167.25 26.625 169.25 28.625C169.25 29.375 168.938 29.875 168.312 30.125C167.438 30.625 167.062 31.125 167.188 31.625V41.75C167.062 44.875 167.125 49.75 167.375 56.375C167.375 58.625 167.438 60.3125 167.562 61.4375C167.812 63.8125 167.125 65.375 165.5 66.125C164 67.25 162.5 68 161 68.375C159.25 68.75 158.312 68.3125 158.188 67.0625C157.938 65.3125 156.75 64.0625 154.625 63.3125C153.625 62.9375 153.188 62.5 153.312 62C153.188 61.875 153.812 61.8125 155.188 61.8125C159.312 62.1875 161.125 61.0625 160.625 58.4375V40.0625H153.875C153.625 40.3125 153.312 40.4375 152.938 40.4375C151.938 40.8125 150.75 41 149.375 41C147.875 41.25 147.312 40.4375 147.688 38.5625C147.812 37.0625 147.938 35.5 148.062 33.875ZM124.812 41.9375V34.4375C124.688 32.6875 124.625 31.125 124.625 29.75C124.5 28.375 124.375 27.375 124.25 26.75C124 26 124 25.5 124.25 25.25C124.5 25 125 24.9375 125.75 25.0625C126.75 25.3125 127.875 25.625 129.125 26C130.125 26.25 131.125 26.4375 132.125 26.5625C132.5 26.8125 132.812 27 133.062 27.125H136.812C137.688 25.5 138.438 24.625 139.062 24.5C140.562 24.875 142.562 26 145.062 27.875C145.312 28.625 145.125 29.1875 144.5 29.5625C143.875 29.8125 143.562 30.1875 143.562 30.6875C143.562 31.5625 143.562 32.8125 143.562 34.4375C143.688 35.9375 143.812 37 143.938 37.625C144.188 39.125 143.812 40 142.812 40.25C141.438 40.75 140.188 41 139.062 41C138.188 41.125 137.688 40.8125 137.562 40.0625H131.375V49.0625C131.25 52.9375 131.312 57.625 131.562 63.125C131.562 63.625 131.625 64.0625 131.75 64.4375C131.75 65.9375 131.188 66.875 130.062 67.25C128.562 67.875 127.438 68.1875 126.688 68.1875C124.562 68.5625 123.75 67.625 124.25 65.375C124.375 63.125 124.5 60.0625 124.625 56.1875C124.625 52.1875 124.688 47.4375 124.812 41.9375ZM140.75 44.5625H150.5C151.75 42.6875 152.688 41.5625 153.312 41.1875C154.562 41.6875 156 42.8125 157.625 44.5625C157.875 45.0625 158 45.4375 158 45.6875C157.875 45.9375 157.625 46.0625 157.25 46.0625C156.875 46.0625 156.312 46.0625 155.562 46.0625C154.312 45.9375 153.375 45.875 152.75 45.875C152.625 46 152.562 46.0625 152.562 46.0625C152.188 46.3125 152.062 46.6875 152.188 47.1875V52.25H152.75C154.25 50.125 155.25 49.0625 155.75 49.0625C157 49.5625 158.438 50.6875 160.062 52.4375C160.562 53.3125 160.438 53.8125 159.688 53.9375C157.938 53.8125 155.438 53.75 152.188 53.75C152.062 57.625 152.188 60.625 152.562 62.75C152.562 64 152.062 64.8125 151.062 65.1875C150.312 65.5625 149.375 65.875 148.25 66.125C146.5 66.5 145.812 65.6875 146.188 63.6875C146.188 62.6875 146.188 61.5 146.188 60.125C146.188 58.625 146.25 56.5 146.375 53.75H143.375C142.875 59.25 140.062 63.3125 134.938 65.9375C134.188 66.1875 133.688 66.1875 133.438 65.9375C133.312 65.8125 133.438 65.5 133.812 65C135.938 62.625 137.188 58.875 137.562 53.75C136.688 53.875 135.875 54 135.125 54.125C134.625 54.125 134.312 54.125 134.188 54.125C133.688 54.25 133.375 54.125 133.25 53.75C133 53.625 132.75 53.375 132.5 53C132.375 52.75 132.312 52.5625 132.312 52.4375C132.188 52.0625 132.312 51.875 132.688 51.875C133.938 52.125 135.562 52.25 137.562 52.25V46.0625C137.062 46.0625 136.5 46.125 135.875 46.25C135.5 46.25 135.312 46.25 135.312 46.25C134.812 46.5 134.5 46.375 134.375 45.875C134.25 45.875 134.125 45.75 134 45.5C133.875 45.25 133.75 44.9375 133.625 44.5625C133.375 44.1875 133.438 44.0625 133.812 44.1875C134.312 44.3125 135.25 44.4375 136.625 44.5625C138.375 44.5625 139.75 44.5625 140.75 44.5625ZM160.625 28.4375H154.625C154.625 28.5625 154.562 28.8125 154.438 29.1875C154.438 29.5625 154.438 29.8125 154.438 29.9375V32.9375H160.625V28.4375ZM154.438 38.5625H160.625V34.25H154.438V38.5625ZM131.375 34.25V38.5625H137.375V34.25H131.375ZM137.375 28.4375H132.5C131.625 28.9375 131.25 29.8125 131.375 31.0625V32.9375H137.375V28.4375ZM143.562 52.25H146.375V45.875H143.562V51.5C143.562 51.875 143.562 52.125 143.562 52.25ZM178.062 52.625V52.8125C177.812 53.9375 177.375 54.5625 176.75 54.6875C175.625 54.9375 174.5 55 173.375 54.875C172.75 54.875 172.25 54.6875 171.875 54.3125C171.625 53.9375 171.625 53.375 171.875 52.625C173 47.25 173.875 41.375 174.5 35C174.125 35.125 173.75 35.1875 173.375 35.1875C172.875 35.3125 172.5 35.375 172.25 35.375C171.75 35.625 171.438 35.5625 171.312 35.1875C171.062 34.6875 170.812 34.1875 170.562 33.6875C170.312 33.5625 170.438 33.4375 170.938 33.3125C171.062 33.3125 171.5 33.375 172.25 33.5C173.375 33.5 174.188 33.5 174.688 33.5C175.188 28.875 175.5 25.5625 175.625 23.5625C175.5 22.8125 175.562 22.375 175.812 22.25C175.938 22.125 176.375 22.125 177.125 22.25C179.125 22.5 181.062 22.875 182.938 23.375C183.438 23.625 183.688 24 183.688 24.5C183.688 25 183.438 25.3125 182.938 25.4375C182.438 25.6875 182.188 26.1875 182.188 26.9375C181.812 29.0625 181.438 31.3125 181.062 33.6875H182.75C183.875 32.0625 184.938 31.0625 185.938 30.6875C187.062 31.0625 188.75 32.25 191 34.25C191.375 34.875 191.188 35.5 190.438 36.125C189.562 36.5 189.188 37 189.312 37.625C188.938 44 187.75 49.375 185.75 53.75C187 54.5 188.188 55.375 189.312 56.375C191.688 59.125 191.75 61.375 189.5 63.125C187.25 64.25 185.625 63.75 184.625 61.625C184.125 60.625 183.625 59.625 183.125 58.625C180.5 62.125 176.688 65.3125 171.688 68.1875C171.062 68.5625 170.688 68.5625 170.562 68.1875C170.312 68.0625 170.438 67.75 170.938 67.25C174.938 63 177.875 58.625 179.75 54.125C179.25 53.625 178.75 53.1875 178.25 52.8125C178.25 52.6875 178.188 52.625 178.062 52.625ZM199.438 62.75V64.4375C199.812 66.3125 198 67.4375 194 67.8125C192.5 68.0625 191.875 67.625 192.125 66.5C192.25 61.5 192.375 56.75 192.5 52.25C192.375 49.75 192.25 48 192.125 47C191.75 45.75 192.312 45.25 193.812 45.5C196.438 46.375 198.562 47.3125 200.188 48.3125H206.375C207.375 46.4375 208.125 45.4375 208.625 45.3125C211.5 46.3125 213.75 47.5625 215.375 49.0625C215.375 49.5625 215.062 50.0625 214.438 50.5625C214.188 50.8125 214.062 51.25 214.062 51.875C214.062 53.625 214.062 55.6875 214.062 58.0625C214.188 60.4375 214.312 62.4375 214.438 64.0625C214.812 65.9375 212.938 67.125 208.812 67.625C207.312 67.875 206.688 67.5 206.938 66.5V62.75H199.438ZM211.062 42.6875C210.812 41.9375 210.562 41.1875 210.312 40.4375C202.438 42.0625 197.312 43.3125 194.938 44.1875C193.312 45.3125 192.312 45.3125 191.938 44.1875C191.312 43.3125 190.625 41.6875 189.875 39.3125C189.875 39.0625 189.875 38.875 189.875 38.75C189.625 38.375 189.562 38.0625 189.688 37.8125C189.812 37.5625 190.188 37.3125 190.812 37.0625C192.188 36.9375 193.312 36.125 194.188 34.625C195.938 32.125 197.375 28.3125 198.5 23.1875C198.5 22.0625 199.125 21.625 200.375 21.875C203 22.625 205.25 23.25 207.125 23.75C207.625 24.125 207.875 24.5 207.875 24.875C207.75 25.5 207.438 25.875 206.938 26C206.188 26.125 205.625 26.625 205.25 27.5C202.125 32.25 199.062 35.5 196.062 37.25C199.812 37.25 204.062 37.0625 208.812 36.6875C208.562 36.4375 208.25 36.0625 207.875 35.5625C207 33.9375 206.312 32.75 205.812 32C205.438 31.625 205.25 31.3125 205.25 31.0625C205.375 30.9375 205.688 30.9375 206.188 31.0625C211.688 33.0625 215.312 35.5625 217.062 38.5625C218.188 41.5625 217.688 43.6875 215.562 44.9375C213.188 45.6875 211.688 44.9375 211.062 42.6875ZM206.938 49.625H200.562C199.812 49.75 199.438 50.1875 199.438 50.9375V61.625H206.938V49.625ZM183.125 35H180.875C180 41.25 179.125 46.75 178.25 51.5H178.625C178.75 51.625 179.062 51.75 179.562 51.875C179.938 51.875 180.25 51.875 180.5 51.875C182 47 182.875 41.375 183.125 35Z" fill="#862842"/>
</svg>
