<?xml version="1.0" encoding="UTF-8" standalone="no"?>
<!DOCTYPE svg PUBLIC "-//W3C//DTD SVG 1.1//EN" "http://www.w3.org/Graphics/SVG/1.1/DTD/svg11.dtd">
<svg width="100%" height="100%" viewBox="0 0 970 72" version="1.1" xmlns="http://www.w3.org/2000/svg" xmlns:xlink="http://www.w3.org/1999/xlink" xml:space="preserve" xmlns:serif="http://www.serif.com/" style="fill-rule:evenodd;clip-rule:evenodd;stroke-linejoin:round;stroke-miterlimit:2;">
    <g transform="matrix(1,0,0,1,-2619.42,-2014.39)">
        <g transform="matrix(5.55556,0,0,5.55556,0,0)">
            <g transform="matrix(1,0,0,1,481.449,374.239)">
                <g>
                    <path d="M0,-10.227L-2.57,-10.063L-2.57,-8.915C-2.424,-8.951 -2.224,-8.969 -1.969,-8.969C-1.713,-9.005 -1.531,-9.024 -1.422,-9.024C-1.166,-9.024 -0.911,-9.079 -0.656,-9.188L-0.547,-9.079C-0.437,-8.932 -0.4,-8.841 -0.437,-8.805C-0.437,-8.732 -0.583,-8.696 -0.875,-8.696C-0.947,-8.659 -1.111,-8.641 -1.367,-8.641C-1.586,-8.604 -1.75,-8.586 -1.859,-8.586L-2.57,-8.586L-2.516,-7.438L0,-7.602L0,-10.227ZM1.695,-10.227C1.695,-10.154 1.55,-10.008 1.258,-9.79L1.258,-9.079C1.295,-8.458 1.312,-7.985 1.312,-7.657C1.35,-7.365 1.331,-7.164 1.258,-7.055C1.222,-6.836 1.058,-6.672 0.766,-6.563C0.475,-6.416 0.273,-6.362 0.164,-6.399C0.055,-6.399 0,-6.508 0,-6.727L0,-7.164L-2.516,-7.055C-2.552,-6.799 -2.68,-6.581 -2.898,-6.399C-3.189,-6.18 -3.427,-6.107 -3.609,-6.18C-3.719,-6.18 -3.773,-6.271 -3.773,-6.454C-3.773,-6.526 -3.755,-6.618 -3.719,-6.727L-3.719,-7.875C-3.682,-8.713 -3.682,-9.315 -3.719,-9.68C-3.719,-9.971 -3.736,-10.463 -3.773,-11.157C-3.7,-11.083 -3.463,-10.993 -3.063,-10.883C-2.989,-10.846 -2.916,-10.81 -2.844,-10.774C-2.516,-10.701 -2.333,-10.61 -2.297,-10.5C-2.005,-10.5 -1.641,-10.518 -1.203,-10.555C-0.656,-10.555 -0.273,-10.573 -0.055,-10.61L0.437,-11.266C0.475,-11.229 0.565,-11.157 0.711,-11.047C0.894,-10.974 1.039,-10.901 1.148,-10.829C1.514,-10.61 1.695,-10.409 1.695,-10.227M3.555,-0.602C3.555,-0.529 3.428,-0.438 3.172,-0.329C2.953,-0.183 2.734,-0.055 2.516,0.054C2.37,0.2 2.188,0.364 1.969,0.546L1.586,0.929C1.367,0.965 1.021,0.875 0.547,0.656C-0.109,0.328 -0.783,-0.11 -1.477,-0.657C-1.986,-1.057 -2.516,-1.659 -3.063,-2.461C-3.063,-2.424 -3.099,-2.352 -3.172,-2.243C-3.244,-2.06 -3.299,-1.896 -3.336,-1.75C-3.591,-1.094 -4.028,-0.474 -4.648,0.109C-4.721,0.181 -4.849,0.291 -5.031,0.437C-5.177,0.509 -5.286,0.583 -5.359,0.656C-5.76,0.947 -6.016,1.039 -6.125,0.929L-5.852,0.546C-5.778,0.473 -5.633,0.291 -5.414,-0C-5.305,-0.147 -5.213,-0.274 -5.141,-0.383C-4.922,-0.711 -4.685,-1.204 -4.43,-1.86C-4.32,-2.26 -4.211,-2.844 -4.102,-3.61C-4.064,-3.938 -4.047,-4.321 -4.047,-4.758C-3.974,-4.721 -3.846,-4.666 -3.664,-4.594C-3.372,-4.485 -3.117,-4.393 -2.898,-4.321C-2.533,-4.174 -2.352,-4.047 -2.352,-3.938C-2.352,-3.755 -2.497,-3.61 -2.789,-3.5C-2.789,-3.427 -2.807,-3.318 -2.844,-3.172C-2.844,-3.063 -2.861,-2.971 -2.898,-2.899C-2.497,-2.571 -2.114,-2.279 -1.75,-2.024L-1.75,-5.36L-3.336,-5.25C-3.81,-5.25 -4.266,-5.213 -4.703,-5.141L-4.977,-5.688L-3.5,-5.688L1.039,-5.961L1.75,-7.055C1.787,-7.018 1.859,-6.963 1.969,-6.891C2.042,-6.854 2.334,-6.635 2.844,-6.235C3.136,-6.016 3.245,-5.852 3.172,-5.743C3.172,-5.633 3.008,-5.579 2.68,-5.579C2.534,-5.579 2.097,-5.56 1.367,-5.524L0.437,-5.524C0,-5.487 -0.346,-5.469 -0.602,-5.469L-0.602,-3.774L-0.164,-3.774C0.128,-3.81 0.347,-3.829 0.492,-3.829C0.602,-4.047 0.82,-4.393 1.148,-4.868C1.222,-4.794 1.386,-4.685 1.641,-4.54C1.933,-4.321 2.17,-4.138 2.352,-3.993C2.498,-3.883 2.57,-3.774 2.57,-3.665C2.57,-3.555 2.406,-3.5 2.078,-3.5C1.896,-3.463 1.422,-3.446 0.656,-3.446C0.401,-3.446 -0.018,-3.427 -0.602,-3.391L-0.602,-1.477C0.092,-1.258 0.839,-1.076 1.641,-0.93C1.75,-0.893 1.969,-0.857 2.297,-0.821C2.625,-0.784 2.898,-0.748 3.117,-0.711L3.391,-0.711C3.464,-0.674 3.519,-0.638 3.555,-0.602M-3.938,-7.821C-4.01,-7.711 -4.156,-7.657 -4.375,-7.657L-4.539,-7.657C-4.867,-7.62 -5.177,-7.602 -5.469,-7.602L-5.742,-7.547L-5.742,-6.18C-5.633,-6.216 -5.505,-6.307 -5.359,-6.454C-5.286,-6.49 -5.231,-6.526 -5.195,-6.563C-4.794,-6.818 -4.575,-6.946 -4.539,-6.946C-4.502,-6.909 -4.484,-6.873 -4.484,-6.836C-4.484,-6.763 -4.521,-6.672 -4.594,-6.563C-4.594,-6.599 -4.611,-6.581 -4.648,-6.508C-4.721,-6.435 -4.867,-6.307 -5.086,-6.125C-5.377,-5.833 -5.596,-5.615 -5.742,-5.469L-5.742,-3.391C-5.705,-2.516 -5.687,-1.823 -5.687,-1.313C-5.687,-1.057 -5.724,-0.838 -5.797,-0.657C-5.833,-0.51 -5.961,-0.329 -6.18,-0.11C-6.361,0.072 -6.617,0.236 -6.945,0.382C-6.981,0.382 -7.018,0.4 -7.055,0.437C-7.127,0.473 -7.219,0.492 -7.328,0.492C-7.437,0.492 -7.51,0.4 -7.547,0.218C-7.547,0.109 -7.583,-0.019 -7.656,-0.164C-7.766,-0.419 -7.875,-0.602 -7.984,-0.711L-8.203,-0.93C-8.239,-0.966 -8.258,-1.002 -8.258,-1.039C-8.33,-1.112 -8.367,-1.166 -8.367,-1.204C-8.33,-1.276 -8.203,-1.294 -7.984,-1.258L-7.328,-1.258C-7.072,-1.258 -6.945,-1.368 -6.945,-1.586C-6.945,-1.914 -6.927,-2.424 -6.891,-3.118L-6.891,-4.375L-7.383,-3.883C-7.602,-3.701 -7.747,-3.573 -7.82,-3.5C-7.856,-3.463 -7.911,-3.409 -7.984,-3.336C-8.166,-3.118 -8.33,-2.935 -8.477,-2.79C-8.513,-2.752 -8.567,-2.68 -8.641,-2.571C-8.713,-2.534 -8.805,-2.479 -8.914,-2.407C-9.06,-2.407 -9.406,-2.752 -9.953,-3.446C-9.88,-3.518 -9.716,-3.627 -9.461,-3.774C-8.95,-4.065 -8.531,-4.321 -8.203,-4.54C-7.911,-4.685 -7.474,-4.977 -6.891,-5.415L-6.891,-7.438C-7.219,-7.438 -7.528,-7.401 -7.82,-7.329L-7.984,-7.329C-8.275,-7.291 -8.641,-7.219 -9.078,-7.11L-9.461,-7.766C-9.133,-7.766 -8.75,-7.784 -8.313,-7.821L-7.875,-7.821C-7.802,-7.857 -7.638,-7.875 -7.383,-7.875C-7.164,-7.912 -7,-7.93 -6.891,-7.93L-6.891,-9.407C-6.891,-9.735 -6.908,-10.318 -6.945,-11.157C-6.872,-11.083 -6.617,-10.993 -6.18,-10.883C-6.07,-10.846 -5.979,-10.81 -5.906,-10.774C-5.469,-10.627 -5.25,-10.482 -5.25,-10.336C-5.25,-10.227 -5.396,-10.063 -5.687,-9.844L-5.742,-8.039L-5.633,-8.039L-5.086,-8.969L-4.922,-8.805C-4.666,-8.623 -4.447,-8.44 -4.266,-8.258C-4.047,-8.076 -3.938,-7.93 -3.938,-7.821" style="fill:rgb(157,73,94);fill-rule:nonzero;"/>
                </g>
            </g>
        </g>
        <g transform="matrix(5.55556,0,0,5.55556,0,0)">
            <g transform="matrix(1,0,0,1,498.873,366.637)">
                <g>
                    <path d="M0,5.086C0.109,5.852 -0.128,6.272 -0.711,6.344C-1.039,6.381 -1.276,6.234 -1.422,5.906C-1.459,5.797 -1.514,5.651 -1.586,5.469C-1.659,5.25 -1.714,5.105 -1.75,5.031C-2.115,4.156 -2.479,3.555 -2.844,3.227C-2.917,3.154 -3.063,3.026 -3.281,2.844C-3.428,2.734 -3.482,2.662 -3.445,2.625C-3.445,2.589 -3.391,2.57 -3.281,2.57C-3.136,2.57 -2.953,2.607 -2.734,2.68C-2.115,2.862 -1.604,3.1 -1.203,3.391C-0.511,3.865 -0.109,4.43 0,5.086M-1.094,-2.133C-1.131,-1.986 -1.312,-1.914 -1.641,-1.914C-2.042,-1.914 -2.68,-1.895 -3.555,-1.859C-5.014,-1.786 -6.289,-1.695 -7.383,-1.586L-7.547,-1.586C-7.912,-1.549 -8.404,-1.476 -9.023,-1.367L-9.352,-2.023C-9.061,-2.023 -8.678,-2.041 -8.203,-2.078L-7.492,-2.078L-3.555,-2.351L-2.789,-3.664C-2.68,-3.591 -2.534,-3.481 -2.352,-3.336C-2.061,-3.117 -1.823,-2.953 -1.641,-2.844C-1.276,-2.516 -1.094,-2.278 -1.094,-2.133M-7.383,3.008C-7.383,3.117 -7.401,3.336 -7.437,3.664C-7.401,3.445 -7.42,3.5 -7.492,3.828C-7.675,4.448 -7.93,4.977 -8.258,5.414C-8.55,5.779 -8.805,6.053 -9.023,6.234C-9.315,6.453 -9.57,6.545 -9.789,6.508C-10.081,6.472 -10.227,6.289 -10.227,5.961C-10.264,5.414 -10.154,5.014 -9.898,4.758C-9.789,4.649 -9.644,4.558 -9.461,4.484C-9.315,4.412 -9.17,4.339 -9.023,4.266L-8.914,4.211C-8.586,4.029 -8.295,3.792 -8.039,3.5C-7.93,3.318 -7.82,3.154 -7.711,3.008C-7.602,2.717 -7.511,2.607 -7.437,2.68C-7.401,2.68 -7.383,2.789 -7.383,3.008M0.711,0.711C0.638,0.82 0.547,0.875 0.437,0.875C0.291,0.912 0.127,0.93 -0.055,0.93C-0.784,0.93 -1.404,0.948 -1.914,0.984L-5.141,1.148C-4.922,1.186 -4.776,1.24 -4.703,1.313C-4.339,1.495 -4.156,1.623 -4.156,1.695C-4.156,1.805 -4.284,1.951 -4.539,2.133C-4.539,2.279 -4.521,3.281 -4.484,5.141C-4.484,5.287 -4.467,5.578 -4.43,6.016L-4.43,6.781C-4.43,7.328 -4.576,7.802 -4.867,8.203C-4.94,8.349 -5.031,8.477 -5.141,8.586C-5.323,8.695 -5.469,8.75 -5.578,8.75C-5.687,8.75 -5.761,8.695 -5.797,8.586L-6.016,8.258C-6.053,8.111 -6.217,7.911 -6.508,7.656C-6.654,7.547 -6.873,7.383 -7.164,7.164C-7.347,7.055 -7.42,6.964 -7.383,6.891C-7.383,6.855 -7.273,6.836 -7.055,6.836C-6.945,6.836 -6.818,6.855 -6.672,6.891C-6.49,6.891 -6.362,6.909 -6.289,6.945C-6.07,6.945 -5.943,6.909 -5.906,6.836C-5.834,6.8 -5.797,6.672 -5.797,6.453L-5.797,4.047C-5.834,2.844 -5.852,1.878 -5.852,1.148C-6.18,1.186 -6.617,1.222 -7.164,1.258C-7.967,1.331 -8.568,1.386 -8.969,1.422C-9.662,1.459 -10.264,1.514 -10.773,1.586C-10.811,1.514 -10.865,1.404 -10.938,1.258C-11.011,1.076 -11.084,0.948 -11.156,0.875L-9.078,0.875C-8.276,0.803 -6.526,0.711 -3.828,0.602C-2.99,0.565 -2.334,0.529 -1.859,0.492C-1.787,0.347 -1.623,0.092 -1.367,-0.273C-1.222,-0.528 -1.094,-0.728 -0.984,-0.875C-0.875,-0.766 -0.656,-0.583 -0.328,-0.328C-0.037,-0.145 0.182,0.019 0.328,0.164C0.583,0.42 0.711,0.602 0.711,0.711" style="fill:rgb(157,73,94);fill-rule:nonzero;"/>
                </g>
            </g>
        </g>
        <g transform="matrix(5.55556,0,0,5.55556,0,0)">
            <g transform="matrix(1,0,0,1,505.578,367.293)">
                <g>
                    <path d="M0,7.219C-0.621,7.182 -0.967,6.818 -1.039,6.125C-0.967,5.506 -0.621,5.159 0,5.086C0.619,5.159 0.965,5.506 1.039,6.125C0.965,6.782 0.619,7.146 0,7.219M0,2.078C-0.656,2.042 -1.004,1.696 -1.039,1.039C-1.004,0.383 -0.656,0.037 0,0C0.619,0.073 0.965,0.42 1.039,1.039C0.965,1.659 0.619,2.006 0,2.078" style="fill:rgb(157,73,94);fill-rule:nonzero;"/>
                </g>
            </g>
        </g>
        <g transform="matrix(5.55556,0,0,5.55556,0,0)">
            <g transform="matrix(1,0,0,1,525.352,369.954)">
                <g>
                    <path d="M0,-2.169C0.328,-1.148 0.747,-0.255 1.258,0.511C1.513,-0.474 1.695,-1.604 1.805,-2.88L0.328,-2.825C0.292,-2.752 0.219,-2.606 0.109,-2.388C0.073,-2.278 0.036,-2.205 0,-2.169M-1.477,5.104C-1.513,5.104 -1.567,5.122 -1.641,5.159C-1.75,5.195 -1.805,5.195 -1.805,5.159C-1.841,5.122 -1.805,5.013 -1.695,4.831C-0.747,4.028 -0.073,3.3 0.328,2.643C0.511,2.352 0.656,2.06 0.766,1.769C0.328,0.784 -0.019,-0.346 -0.273,-1.622C-0.31,-1.585 -0.364,-1.494 -0.437,-1.349C-0.802,-0.802 -1.075,-0.455 -1.258,-0.31C-1.44,-0.127 -1.567,-0.036 -1.641,-0.036C-1.714,-0.108 -1.695,-0.255 -1.586,-0.474C-1.367,-0.911 -1.148,-1.421 -0.93,-2.005C-0.638,-2.989 -0.401,-4.138 -0.219,-5.45C-0.183,-5.669 -0.128,-6.288 -0.055,-7.31C0.055,-7.273 0.328,-7.163 0.766,-6.981C0.911,-6.944 1.021,-6.908 1.094,-6.872C1.458,-6.726 1.659,-6.562 1.695,-6.38C1.695,-6.307 1.531,-6.161 1.203,-5.942C1.058,-5.213 0.856,-4.429 0.602,-3.591C0.565,-3.481 0.547,-3.408 0.547,-3.372L2.898,-3.481C2.972,-3.554 3.081,-3.718 3.227,-3.974C3.372,-4.229 3.5,-4.429 3.609,-4.575C3.683,-4.538 3.81,-4.447 3.992,-4.302C4.284,-4.119 4.539,-3.955 4.758,-3.81C5.086,-3.591 5.25,-3.39 5.25,-3.208C5.214,-3.099 5.05,-3.044 4.758,-3.044C4.539,-3.007 4.102,-2.989 3.445,-2.989L3.063,-2.989C2.808,-2.952 2.589,-2.935 2.406,-2.935C2.771,-2.825 3.008,-2.733 3.117,-2.661C3.445,-2.479 3.609,-2.333 3.609,-2.224C3.609,-2.114 3.445,-1.968 3.117,-1.786C2.898,-0.729 2.661,0.11 2.406,0.729C2.297,0.985 2.188,1.259 2.078,1.55C2.844,2.352 3.864,2.972 5.141,3.409C5.469,3.482 5.633,3.573 5.633,3.683C5.633,3.756 5.542,3.829 5.359,3.901C5.323,3.937 5.25,3.956 5.141,3.956C5.067,3.992 5.013,4.011 4.977,4.011C4.758,4.156 4.521,4.339 4.266,4.558L4.102,4.722C4.065,4.758 4.028,4.794 3.992,4.831C3.992,4.903 3.901,4.995 3.719,5.104C3.609,5.104 3.464,5.05 3.281,4.94C3.136,4.867 2.898,4.667 2.57,4.339C2.133,3.865 1.714,3.337 1.312,2.753C0.656,3.665 -0.273,4.448 -1.477,5.104M-4.648,0.511C-4.575,0.475 -4.43,0.401 -4.211,0.292C-3.737,0.073 -3.391,-0.091 -3.172,-0.2L-3.172,-6.052C-3.172,-6.124 -3.19,-6.343 -3.227,-6.708C-3.263,-6.963 -3.281,-7.182 -3.281,-7.364C-2.88,-7.255 -2.516,-7.146 -2.188,-7.036C-1.714,-6.854 -1.477,-6.708 -1.477,-6.599C-1.477,-6.452 -1.622,-6.288 -1.914,-6.107C-1.95,-6.069 -1.969,-4.994 -1.969,-2.88L-1.969,0.128C-1.933,0.42 -1.914,0.948 -1.914,1.714C-1.878,2.407 -1.859,2.954 -1.859,3.354C-1.859,3.756 -1.896,4.047 -1.969,4.229C-2.078,4.411 -2.278,4.594 -2.57,4.776C-2.644,4.849 -2.789,4.903 -3.008,4.94C-3.117,4.977 -3.208,4.995 -3.281,4.995C-3.317,4.958 -3.336,4.886 -3.336,4.776L-3.336,4.503C-3.336,4.393 -3.317,4.247 -3.281,4.065C-3.245,3.701 -3.227,3.318 -3.227,2.917C-3.19,2.334 -3.172,1.495 -3.172,0.401C-3.792,0.912 -4.466,1.532 -5.195,2.261C-5.414,2.479 -5.56,2.589 -5.633,2.589C-5.742,2.553 -6.052,2.17 -6.562,1.44C-6.125,1.185 -5.906,0.839 -5.906,0.401C-5.906,0.22 -5.888,-0.018 -5.852,-0.31C-5.815,-1.221 -5.815,-2.369 -5.852,-3.755C-5.852,-4.411 -5.87,-4.94 -5.906,-5.341C-5.833,-5.304 -5.669,-5.249 -5.414,-5.177C-5.195,-5.104 -5.031,-5.049 -4.922,-5.013C-4.484,-4.866 -4.266,-4.721 -4.266,-4.575C-4.229,-4.429 -4.356,-4.265 -4.648,-4.083L-4.648,0.511Z" style="fill:rgb(157,73,94);fill-rule:nonzero;"/>
                </g>
            </g>
        </g>
        <g transform="matrix(5.55556,0,0,5.55556,0,0)">
            <g transform="matrix(1,0,0,1,541.792,363.739)">
                <g>
                    <path d="M0,9.898L0,6.89L-0.711,6.89L-0.711,9.953L0,9.898ZM2.406,5.523C2.37,6.107 2.133,6.417 1.695,6.453C1.477,6.453 1.312,6.38 1.203,6.234C1.167,6.162 1.058,5.998 0.875,5.742C0.692,5.414 0.328,4.976 -0.219,4.429C-0.474,4.174 -0.82,3.919 -1.258,3.664L-1.586,3.445L-1.586,3.336C-1.513,3.263 -1.349,3.263 -1.094,3.336C-0.511,3.409 0.273,3.682 1.258,4.156C1.695,4.375 1.987,4.593 2.133,4.812C2.352,5.031 2.442,5.268 2.406,5.523M0.711,0.601C0.602,0.71 0.474,0.857 0.328,1.039C0.109,1.257 -0.036,1.421 -0.109,1.531C-0.328,1.677 -0.602,1.896 -0.93,2.187C-1.258,2.406 -1.477,2.515 -1.586,2.515C-1.659,2.515 -1.695,2.498 -1.695,2.461C-1.695,2.424 -1.659,2.315 -1.586,2.132C-1.513,1.987 -1.458,1.877 -1.422,1.804C-1.203,1.367 -0.984,0.82 -0.766,0.164C-0.766,0.091 -0.729,-0.055 -0.656,-0.274C-0.547,-0.602 -0.474,-0.875 -0.437,-1.094C-0.292,-0.985 -0.036,-0.821 0.328,-0.602C0.656,-0.383 0.911,-0.219 1.094,-0.11C1.312,0.073 1.422,0.218 1.422,0.328C1.422,0.51 1.185,0.601 0.711,0.601M-1.695,10.007L-1.695,6.945L-2.406,7L-2.406,10.007L-1.695,10.007ZM-3.391,10.062L-3.391,7.054L-4.211,7.109L-4.211,10.117L-3.391,10.062ZM-3.391,2.351C-3.719,2.388 -3.938,2.187 -4.047,1.75C-4.12,1.568 -4.175,1.367 -4.211,1.148C-4.211,1.002 -4.229,0.929 -4.266,0.929C-4.302,0.674 -4.448,0.382 -4.703,0.054C-4.849,-0.055 -4.94,-0.165 -4.977,-0.274C-4.977,-0.31 -4.958,-0.346 -4.922,-0.383L-4.867,-0.438C-4.831,-0.438 -4.722,-0.419 -4.539,-0.383C-4.648,-0.419 -4.594,-0.401 -4.375,-0.329C-3.755,-0.146 -3.317,0.091 -3.063,0.382C-2.771,0.638 -2.606,0.966 -2.57,1.367C-2.461,1.951 -2.734,2.279 -3.391,2.351M-1.094,3.062L-1.75,3.062C-2.224,3.135 -2.734,3.171 -3.281,3.171C-3.208,3.209 -3.099,3.281 -2.953,3.39C-2.844,3.463 -2.753,3.518 -2.68,3.554C-2.425,3.773 -2.297,3.919 -2.297,3.992C-2.297,4.138 -2.516,4.248 -2.953,4.32C-3.427,4.904 -4.065,5.505 -4.867,6.125C-4.466,6.271 -4.138,6.453 -3.883,6.671C-3.336,6.635 -2.625,6.599 -1.75,6.562C-0.911,6.526 -0.364,6.49 -0.109,6.453C-0.073,6.453 -0.019,6.38 0.055,6.234C0.164,6.088 0.255,5.96 0.328,5.851L0.383,5.906C0.565,6.052 0.856,6.234 1.258,6.453C1.294,6.49 1.349,6.544 1.422,6.617C1.495,6.654 1.531,6.69 1.531,6.726C1.641,6.799 1.695,6.873 1.695,6.945C1.695,7.054 1.604,7.182 1.422,7.328L1.203,7.437L1.203,7.656C1.239,8.021 1.258,8.349 1.258,8.64L1.258,9.898L2.188,9.843C2.224,9.807 2.297,9.698 2.406,9.515C2.625,9.224 2.808,8.968 2.953,8.75C3.026,8.787 3.136,8.859 3.281,8.968C3.646,9.26 3.938,9.498 4.156,9.679C4.375,9.862 4.484,10.007 4.484,10.117C4.448,10.226 4.247,10.281 3.883,10.281C0.784,10.281 -2.625,10.445 -6.344,10.773C-6.489,10.809 -6.763,10.845 -7.164,10.882C-7.492,10.919 -7.766,10.955 -7.984,10.992L-8.313,10.281C-7.948,10.317 -7.511,10.317 -7,10.281L-6.617,10.281L-5.414,10.226C-5.378,9.242 -5.359,8.531 -5.359,8.093L-5.359,6.398C-6.344,7.054 -7.019,7.382 -7.383,7.382C-7.383,7.346 -7.401,7.328 -7.437,7.328C-7.474,7.255 -7.31,7.091 -6.945,6.835C-5.56,5.669 -4.575,4.466 -3.992,3.226C-4.138,3.226 -4.394,3.245 -4.758,3.281C-5.159,3.318 -5.433,3.354 -5.578,3.39C-5.906,3.39 -6.289,3.445 -6.727,3.554L-7.055,2.898L-6.836,2.898C-6.435,2.935 -6.052,2.935 -5.687,2.898C-4.776,2.826 -3.445,2.752 -1.695,2.679C-0.383,2.607 0.511,2.552 0.984,2.515C1.058,2.406 1.167,2.242 1.312,2.023C1.495,1.768 1.641,1.568 1.75,1.421C2.042,1.568 2.425,1.841 2.898,2.242C3.153,2.461 3.281,2.625 3.281,2.734C3.281,2.843 3.136,2.898 2.844,2.898C1.567,2.898 0.255,2.953 -1.094,3.062Z" style="fill:rgb(157,73,94);fill-rule:nonzero;"/>
                </g>
            </g>
        </g>
        <g transform="matrix(5.55556,0,0,5.55556,0,0)">
            <g transform="matrix(1,0,0,1,562.004,364.704)">
                <g>
                    <path d="M0,8.495C0,8.604 -0.091,8.714 -0.273,8.823C-0.711,9.151 -1.111,9.534 -1.477,9.972C-1.586,10.081 -1.641,10.19 -1.641,10.3C-1.677,10.336 -1.695,10.372 -1.695,10.409C-1.731,10.481 -1.805,10.518 -1.914,10.518C-1.986,10.555 -2.169,10.555 -2.461,10.518C-2.57,10.481 -2.661,10.464 -2.734,10.464C-5.177,9.989 -7.31,9.224 -9.133,8.167C-9.205,8.131 -9.314,8.058 -9.461,7.948C-9.898,7.657 -10.391,7.31 -10.938,6.909C-10.974,6.982 -11.047,7.092 -11.156,7.237C-11.229,7.384 -11.302,7.493 -11.375,7.565C-11.703,8.112 -12.141,8.568 -12.688,8.932C-12.869,9.115 -12.997,9.206 -13.07,9.206L-13.125,9.151C-13.161,9.115 -13.106,8.97 -12.961,8.714C-12.778,8.459 -12.505,7.967 -12.141,7.237C-12.141,7.201 -12.122,7.165 -12.086,7.128C-11.903,6.545 -11.758,5.998 -11.648,5.487C-11.539,5.087 -11.43,4.612 -11.32,4.065C-11.064,4.212 -10.773,4.339 -10.445,4.448C-10.044,4.704 -9.844,4.886 -9.844,4.995C-9.807,5.104 -9.935,5.214 -10.227,5.323C-10.445,5.87 -10.627,6.271 -10.773,6.526C-10.7,6.563 -10.591,6.618 -10.445,6.69C-10.299,6.8 -10.044,6.946 -9.68,7.128L-9.68,3.026C-10.372,3.026 -11.083,3.063 -11.813,3.136C-12.141,3.173 -12.469,3.227 -12.797,3.3C-12.869,3.227 -12.942,3.063 -13.016,2.808C-12.942,2.99 -12.961,2.954 -13.07,2.698C-12.705,2.698 -12.25,2.681 -11.703,2.643L-10.719,2.643C-10.281,2.607 -9.935,2.589 -9.68,2.589L-9.68,1.058L-10.609,1.112C-11.01,1.112 -11.375,1.149 -11.703,1.222C-11.703,1.149 -11.739,1.04 -11.813,0.893C-11.849,0.784 -11.885,0.693 -11.922,0.62L-11.594,0.62C-11.229,0.657 -10.938,0.657 -10.719,0.62L-9.68,0.62L-9.68,-0.31C-9.68,-0.528 -9.697,-1.093 -9.734,-2.005C-9.661,-1.968 -9.516,-1.913 -9.297,-1.841C-8.969,-1.732 -8.695,-1.64 -8.477,-1.568C-8.221,-1.458 -8.094,-1.349 -8.094,-1.239C-8.094,-1.057 -8.239,-0.911 -8.531,-0.802L-8.531,0.511L-8.367,0.511C-8.294,0.365 -8.13,0.128 -7.875,-0.2C-7.802,-0.127 -7.692,-0.054 -7.547,0.018C-7.364,0.128 -7.2,0.256 -7.055,0.401C-6.836,0.584 -6.744,0.729 -6.781,0.839C-6.781,0.912 -6.927,0.948 -7.219,0.948L-8.148,0.948L-8.531,1.003L-8.531,2.479L-7.984,2.479C-7.984,2.443 -7.947,2.389 -7.875,2.315C-7.729,2.06 -7.602,1.842 -7.492,1.659C-7.236,1.806 -6.872,2.06 -6.398,2.425L-6.398,1.604C-6.435,1.095 -6.453,0.693 -6.453,0.401C-6.344,0.438 -6.143,0.548 -5.852,0.729C-5.742,0.729 -5.523,0.839 -5.195,1.058L-4.539,1.058C-4.539,0.948 -4.557,0.639 -4.594,0.128C-4.63,-0.2 -4.648,-0.455 -4.648,-0.638C-4.648,-0.783 -4.666,-1.075 -4.703,-1.513C-4.739,-1.732 -4.758,-1.913 -4.758,-2.06C-4.539,-2.023 -4.192,-1.913 -3.719,-1.732C-3.609,-1.694 -3.481,-1.64 -3.336,-1.568C-2.314,-1.53 -1.75,-1.221 -1.641,-0.638C-1.604,-0.419 -1.641,-0.255 -1.75,-0.146C-1.859,0.037 -2.023,0.128 -2.242,0.128C-2.461,0.128 -2.625,0.001 -2.734,-0.255C-2.734,-0.364 -2.807,-0.583 -2.953,-0.911C-2.916,-0.874 -2.935,-0.929 -3.008,-1.075C-3.008,-1.111 -3.044,-1.148 -3.117,-1.185L-3.227,-1.294C-3.227,-1.257 -3.336,-1.148 -3.555,-0.966C-3.555,-0.638 -3.536,-0.2 -3.5,0.347L-3.5,1.003C-3.427,1.003 -3.317,0.985 -3.172,0.948L-2.844,0.948C-2.807,0.912 -2.752,0.821 -2.68,0.675C-2.533,0.493 -2.424,0.329 -2.352,0.182C-2.242,0.22 -2.06,0.347 -1.805,0.565C-1.622,0.675 -1.494,0.766 -1.422,0.839C-1.239,0.985 -1.166,1.112 -1.203,1.222C-1.203,1.331 -1.367,1.386 -1.695,1.386L-2.898,1.386C-3.08,1.386 -3.263,1.404 -3.445,1.44C-3.299,2.498 -3.117,3.354 -2.898,4.011C-2.68,3.573 -2.424,2.99 -2.133,2.261C-1.986,2.37 -1.822,2.553 -1.641,2.808L-1.367,3.081C-1.148,3.337 -1.039,3.518 -1.039,3.628L-1.094,3.683C-1.13,3.756 -1.185,3.792 -1.258,3.792L-1.422,3.792C-1.494,3.829 -1.549,3.847 -1.586,3.847C-1.695,4.102 -2.005,4.521 -2.516,5.104L-2.297,5.487C-2.114,5.815 -1.969,5.979 -1.859,5.979C-1.75,5.979 -1.604,5.834 -1.422,5.542C-1.239,5.432 -1.075,5.232 -0.93,4.94C-0.602,4.503 -0.419,4.321 -0.383,4.393C-0.31,4.393 -0.31,4.485 -0.383,4.667C-0.419,4.704 -0.437,4.776 -0.437,4.886C-0.474,4.959 -0.492,5.014 -0.492,5.05C-0.674,5.597 -0.766,6.126 -0.766,6.636C-0.766,6.854 -0.747,7.001 -0.711,7.073C-0.674,7.183 -0.656,7.274 -0.656,7.347C-0.656,7.493 -0.711,7.62 -0.82,7.729C-0.966,7.803 -1.111,7.839 -1.258,7.839C-1.695,7.839 -2.078,7.639 -2.406,7.237C-2.625,7.018 -2.898,6.636 -3.227,6.089C-3.189,6.126 -3.208,6.089 -3.281,5.979C-3.938,6.563 -4.611,7.001 -5.305,7.292C-5.523,7.438 -5.633,7.456 -5.633,7.347C-5.633,7.274 -5.56,7.183 -5.414,7.073C-4.685,6.454 -4.083,5.815 -3.609,5.159C-4.047,4.175 -4.356,2.954 -4.539,1.495L-5.414,1.495L-5.414,4.995L-4.32,4.448C-4.174,4.412 -4.083,4.412 -4.047,4.448C-4.01,4.521 -4.064,4.631 -4.211,4.776C-4.611,5.141 -5.158,5.67 -5.852,6.362C-5.924,6.472 -6.052,6.581 -6.234,6.69C-6.416,6.581 -6.689,6.235 -7.055,5.651C-6.617,5.47 -6.398,5.141 -6.398,4.667L-6.398,2.862C-6.435,2.862 -6.544,2.881 -6.727,2.917L-7.875,2.917L-9.133,2.972C-9.06,3.009 -8.969,3.045 -8.859,3.081C-8.75,3.118 -8.658,3.154 -8.586,3.19C-8.33,3.3 -8.203,3.409 -8.203,3.518C-8.203,3.556 -8.313,3.665 -8.531,3.847L-8.531,4.831C-8.422,4.795 -8.33,4.776 -8.258,4.776C-8.148,4.595 -7.984,4.321 -7.766,3.956C-7.692,4.029 -7.547,4.157 -7.328,4.339C-7.219,4.412 -7.127,4.485 -7.055,4.557L-6.945,4.667C-6.872,4.704 -6.836,4.74 -6.836,4.776C-6.763,4.849 -6.727,4.923 -6.727,4.995C-6.727,5.104 -6.872,5.159 -7.164,5.159L-8.094,5.159L-8.531,5.214L-8.531,7.565C-6.599,8.185 -4.611,8.495 -2.57,8.495L-2.188,8.495C-1.531,8.459 -0.93,8.44 -0.383,8.44C-0.164,8.404 -0.036,8.423 0,8.495" style="fill:rgb(157,73,94);fill-rule:nonzero;"/>
                </g>
            </g>
        </g>
        <g transform="matrix(5.55556,0,0,5.55556,0,0)">
            <g transform="matrix(1,0,0,1,577.35,364.412)">
                <g>
                    <path d="M0,8.842C0,8.879 -0.109,8.934 -0.328,9.006C-0.109,8.934 -0.146,8.951 -0.437,9.061C-0.656,9.061 -0.857,9.098 -1.039,9.17C-1.514,9.279 -1.969,9.461 -2.406,9.717C-2.516,9.789 -2.644,9.881 -2.789,9.99C-2.898,10.1 -3.008,10.136 -3.117,10.1C-3.336,10.1 -3.573,9.972 -3.828,9.717C-4.631,8.879 -5.25,7.895 -5.687,6.764C-5.943,6.071 -6.217,5.051 -6.508,3.701C-6.617,4.285 -6.727,4.74 -6.836,5.069C-7.492,6.709 -8.568,8.004 -10.063,8.951C-11.011,9.534 -11.959,9.953 -12.906,10.209C-13.162,10.281 -13.308,10.281 -13.344,10.209C-13.381,10.1 -13.271,9.99 -13.016,9.881C-12.287,9.553 -11.539,9.098 -10.773,8.514C-9.936,7.895 -9.279,7.238 -8.805,6.545C-8.148,5.561 -7.766,4.412 -7.656,3.1C-7.766,3.1 -7.967,3.118 -8.258,3.155C-8.623,3.155 -9.589,3.228 -11.156,3.373C-11.266,3.155 -11.357,2.954 -11.43,2.772C-11.211,2.772 -10.664,2.754 -9.789,2.717C-9.279,2.717 -8.568,2.699 -7.656,2.662C-7.547,1.787 -7.511,1.059 -7.547,0.475L-7.547,-0.017C-7.584,-0.564 -7.602,-1.038 -7.602,-1.439C-7.529,-1.402 -7.383,-1.33 -7.164,-1.221C-6.836,-1.111 -6.562,-1.002 -6.344,-0.892C-5.943,-0.746 -5.742,-0.582 -5.742,-0.4C-5.742,-0.291 -5.889,-0.144 -6.18,0.037C-6.217,0.912 -6.271,1.751 -6.344,2.553C-5.906,2.553 -5.214,2.535 -4.266,2.498L-3.555,1.186C-3.409,1.295 -3.19,1.459 -2.898,1.678C-2.607,1.861 -2.406,2.006 -2.297,2.115C-1.896,2.407 -1.732,2.608 -1.805,2.717C-1.805,2.826 -2.006,2.881 -2.406,2.881C-2.844,2.881 -3.482,2.9 -4.32,2.936C-4.94,2.936 -5.633,2.954 -6.398,2.99C-5.852,4.412 -5.123,5.579 -4.211,6.49C-3.409,7.293 -2.352,7.912 -1.039,8.35C-0.93,8.387 -0.766,8.442 -0.547,8.514C-0.475,8.551 -0.42,8.569 -0.383,8.569C-0.128,8.642 0,8.733 0,8.842" style="fill:rgb(157,73,94);fill-rule:nonzero;"/>
                </g>
            </g>
        </g>
        <g transform="matrix(5.55556,0,0,5.55556,0,0)">
            <g transform="matrix(1,0,0,1,582.797,365.051)">
                <g>
                    <path d="M0,8.148C-0.184,8.257 -0.293,8.294 -0.328,8.257C-0.365,8.185 -0.311,8.076 -0.164,7.929C0.893,6.726 1.75,5.468 2.406,4.156C1.932,3.427 1.367,2.734 0.711,2.078C0.564,1.932 0.51,1.841 0.547,1.804C0.619,1.732 0.729,1.732 0.875,1.804C1.275,2.06 1.859,2.515 2.625,3.171C2.697,3.209 2.752,3.245 2.789,3.281C3.117,2.406 3.371,1.531 3.555,0.656C4.064,0.948 4.539,1.276 4.977,1.64C5.012,1.677 5.066,1.732 5.141,1.804C5.213,1.914 5.25,1.987 5.25,2.023C5.213,2.169 4.994,2.279 4.594,2.351C4.301,3.007 3.992,3.609 3.664,4.156C4.32,4.849 4.812,5.523 5.141,6.179C5.141,6.216 5.158,6.271 5.195,6.343C5.268,6.599 5.285,6.781 5.25,6.89C5.25,7.437 5.066,7.748 4.703,7.82C4.338,7.893 4.082,7.656 3.938,7.109C3.938,7.073 3.918,7.037 3.883,7C3.59,6.234 3.299,5.615 3.008,5.14C2.168,6.307 1.166,7.31 0,8.148M9.953,5.851C9.953,5.888 9.934,5.943 9.898,6.015C9.898,6.125 9.879,6.198 9.844,6.234C9.625,7.037 9.516,7.693 9.516,8.203C9.516,8.385 9.533,8.513 9.57,8.585C9.643,8.695 9.697,8.804 9.734,8.914C9.807,9.023 9.844,9.15 9.844,9.296C9.844,9.515 9.734,9.679 9.516,9.789C9.479,9.825 9.406,9.843 9.297,9.843C9.223,9.879 9.168,9.898 9.133,9.898C8.914,9.898 8.621,9.789 8.258,9.57C8.221,9.533 8.148,9.478 8.039,9.406C7.893,9.333 7.729,9.187 7.547,8.968C6.854,8.203 6.398,7.474 6.18,6.781C5.852,5.687 5.633,4.393 5.523,2.898C5.486,1.623 5.469,0.474 5.469,-0.547L0.602,-0.274C0.602,0.456 0.564,1.44 0.492,2.679C0.455,3.882 0.328,4.812 0.109,5.468C-0.109,6.343 -0.566,7.237 -1.258,8.148C-1.586,8.585 -2.043,9.023 -2.625,9.46C-2.662,9.497 -2.717,9.533 -2.789,9.57C-2.936,9.679 -3.045,9.734 -3.117,9.734C-3.191,9.734 -3.227,9.697 -3.227,9.625C-3.227,9.551 -3.137,9.423 -2.953,9.242C-2.881,9.205 -2.789,9.095 -2.68,8.914C-2.535,8.695 -2.406,8.531 -2.297,8.421C-2.262,8.385 -2.207,8.294 -2.133,8.148C-1.988,7.929 -1.805,7.584 -1.586,7.109C-1.186,6.234 -0.912,5.287 -0.766,4.265C-0.693,3.609 -0.656,2.643 -0.656,1.367C-0.656,0.711 -0.676,0.237 -0.711,-0.055C-0.711,-0.711 -0.73,-1.185 -0.766,-1.477C-0.693,-1.44 -0.529,-1.368 -0.273,-1.258C-0.129,-1.185 0,-1.13 0.109,-1.094C0.328,-0.985 0.582,-0.857 0.875,-0.711C1.531,-0.748 2.387,-0.784 3.445,-0.821C4.355,-0.857 4.977,-0.893 5.305,-0.93C5.34,-0.966 5.377,-1.021 5.414,-1.094C5.449,-1.166 5.596,-1.385 5.852,-1.75C5.924,-1.677 6.07,-1.549 6.289,-1.368C6.508,-1.221 6.672,-1.094 6.781,-0.985C7.109,-0.729 7.273,-0.547 7.273,-0.438C7.273,-0.329 7.09,-0.146 6.727,0.109L6.727,2.351C6.799,3.664 6.926,4.74 7.109,5.578C7.291,6.271 7.547,6.854 7.875,7.328C8.094,7.584 8.258,7.711 8.367,7.711C8.402,7.711 8.477,7.656 8.586,7.546C8.621,7.546 8.695,7.437 8.805,7.218C8.84,7.146 8.914,7 9.023,6.781C9.205,6.526 9.332,6.326 9.406,6.179C9.697,5.742 9.861,5.542 9.898,5.578C9.971,5.578 9.988,5.669 9.953,5.851" style="fill:rgb(157,73,94);fill-rule:nonzero;"/>
                </g>
            </g>
        </g>
        <g transform="matrix(5.55556,0,0,5.55556,0,0)">
            <g transform="matrix(1,0,0,1,603.938,366.782)">
                <g>
                    <path d="M0,4.066C0.109,4.431 0.109,4.759 0,5.05C-0.219,5.452 -0.492,5.616 -0.82,5.543C-1.003,5.543 -1.148,5.397 -1.258,5.105L-1.258,5.05C-1.294,4.832 -1.294,4.577 -1.258,4.285C-1.258,3.811 -1.386,3.355 -1.641,2.918C-1.677,2.845 -1.714,2.772 -1.75,2.699C-1.786,2.663 -1.805,2.627 -1.805,2.589C-1.731,2.517 -1.622,2.517 -1.477,2.589C-0.711,2.991 -0.219,3.483 0,4.066M-1.75,5.378C-1.75,5.78 -1.914,6.035 -2.242,6.144C-2.68,6.181 -2.935,6.017 -3.008,5.652C-3.008,5.543 -3.044,5.324 -3.117,4.996C-3.153,4.814 -3.172,4.668 -3.172,4.558C-3.245,4.267 -3.354,4.011 -3.5,3.793C-3.609,3.647 -3.646,3.556 -3.609,3.519C-3.573,3.483 -3.481,3.483 -3.336,3.519C-2.825,3.775 -2.461,4.011 -2.242,4.23C-1.878,4.631 -1.714,5.014 -1.75,5.378M1.258,6.855C1.331,6.746 1.495,6.472 1.75,6.035C1.859,5.889 1.933,5.78 1.969,5.707C2.078,5.816 2.278,5.999 2.57,6.254C2.825,6.436 3.026,6.6 3.172,6.746C3.354,6.892 3.427,7.019 3.391,7.129C3.354,7.201 3.227,7.238 3.008,7.238C2.242,7.238 1.604,7.255 1.094,7.293C0.839,7.293 0.383,7.31 -0.273,7.347C-1.294,7.42 -2.114,7.474 -2.734,7.511C-2.844,7.511 -3.227,7.547 -3.883,7.621C-4.175,7.657 -4.394,7.675 -4.539,7.675L-4.812,7.074C-4.192,7.11 -3.519,7.091 -2.789,7.019C-2.352,7.019 -1.55,6.983 -0.383,6.91C-0.055,6.217 0.273,5.306 0.602,4.175C0.638,4.066 0.711,3.775 0.82,3.3C0.894,3.009 0.948,2.791 0.984,2.644C1.094,2.681 1.477,2.918 2.133,3.355C2.388,3.574 2.516,3.756 2.516,3.902C2.37,4.048 2.188,4.139 1.969,4.175C1.933,4.249 1.878,4.339 1.805,4.449C1.294,5.361 0.766,6.181 0.219,6.91C0.583,6.874 0.93,6.855 1.258,6.855M-3.336,-2.168C-3.336,-2.059 -3.445,-1.967 -3.664,-1.895L-3.773,-1.895C-3.883,-1.858 -4.011,-1.822 -4.156,-1.786C-4.339,-1.567 -4.594,-1.22 -4.922,-0.746C-5.141,-0.418 -5.25,-0.181 -5.25,-0.036C-5.25,0.038 -5.086,0.22 -4.758,0.511C-4.466,0.767 -4.211,1.041 -3.992,1.332C-3.81,1.55 -3.683,1.806 -3.609,2.097C-2.917,0.894 -2.352,-0.491 -1.914,-2.059C-1.805,-2.387 -1.677,-3.043 -1.531,-4.028C-1.495,-3.991 -1.422,-3.955 -1.312,-3.918C-1.239,-3.881 -0.948,-3.736 -0.437,-3.481L-0.055,-3.207C0.055,-3.134 0.109,-3.043 0.109,-2.934C0.146,-2.825 0,-2.715 -0.328,-2.606C0.109,-1.803 0.583,-1.147 1.094,-0.637C1.567,-0.09 2.333,0.42 3.391,0.894C3.536,0.931 3.683,1.003 3.828,1.113C4.047,1.186 4.156,1.277 4.156,1.386C4.156,1.496 4.102,1.55 3.992,1.55C3.664,1.587 3.336,1.752 3.008,2.043C2.972,2.08 2.898,2.152 2.789,2.261C2.68,2.335 2.589,2.371 2.516,2.371C2.37,2.371 2.151,2.261 1.859,2.043C1.386,1.496 0.948,0.949 0.547,0.402C0.146,-0.254 -0.219,-1.111 -0.547,-2.168C-1.13,-0.637 -1.786,0.548 -2.516,1.386C-2.297,1.386 -1.969,1.369 -1.531,1.332C-1.276,1.332 -0.93,1.314 -0.492,1.277L0,0.347C0.255,0.53 0.565,0.785 0.93,1.113C1.112,1.295 1.203,1.441 1.203,1.55C1.167,1.587 1.094,1.605 0.984,1.605C0.875,1.642 0.784,1.66 0.711,1.66C-0.055,1.66 -0.82,1.697 -1.586,1.769C-1.695,1.769 -1.823,1.788 -1.969,1.824C-2.151,1.861 -2.297,1.897 -2.406,1.933L-2.625,1.55C-2.989,1.988 -3.3,2.335 -3.555,2.589C-3.555,2.991 -3.664,3.355 -3.883,3.683C-3.919,3.793 -4.083,3.92 -4.375,4.066C-4.594,4.249 -4.776,4.339 -4.922,4.339C-5.031,4.303 -5.122,4.194 -5.195,4.011L-5.195,3.902C-5.231,3.611 -5.414,3.355 -5.742,3.136L-6.016,2.808C-5.979,2.699 -5.852,2.644 -5.633,2.644L-5.141,2.644C-4.922,2.572 -4.812,2.48 -4.812,2.371C-4.812,2.261 -4.831,2.08 -4.867,1.824C-4.903,1.533 -4.977,1.314 -5.086,1.168C-5.122,1.095 -5.214,0.949 -5.359,0.73C-5.469,0.511 -5.56,0.347 -5.633,0.238C-5.706,0.128 -5.742,0.038 -5.742,-0.036C-5.742,-0.145 -5.706,-0.491 -5.633,-1.075C-5.633,-1.147 -5.597,-1.293 -5.523,-1.512C-5.45,-1.84 -5.396,-2.114 -5.359,-2.332L-6.234,-2.332L-6.234,3.902C-6.198,4.96 -6.18,5.761 -6.18,6.308C-6.18,7.002 -6.38,7.474 -6.781,7.73C-6.927,7.876 -7.073,7.966 -7.219,8.004C-7.328,8.076 -7.419,8.094 -7.492,8.058C-7.565,8.058 -7.602,7.949 -7.602,7.73C-7.528,6.783 -7.474,5.378 -7.437,3.519C-7.401,2.9 -7.383,2.444 -7.383,2.152C-7.383,1.861 -7.364,1.222 -7.328,0.238L-7.328,-1.731C-7.364,-2.241 -7.383,-2.788 -7.383,-3.371C-6.727,-3.08 -6.289,-2.879 -6.07,-2.77L-5.414,-2.77C-5.305,-2.989 -5.086,-3.244 -4.758,-3.536C-4.43,-3.317 -4.083,-3.043 -3.719,-2.715C-3.464,-2.496 -3.336,-2.314 -3.336,-2.168" style="fill:rgb(157,73,94);fill-rule:nonzero;"/>
                </g>
            </g>
        </g>
        <g transform="matrix(5.55556,0,0,5.55556,0,0)">
            <g transform="matrix(1,0,0,1,623.605,364.704)">
                <g>
                    <path d="M0,8.495C0,8.604 -0.091,8.714 -0.273,8.823C-0.711,9.151 -1.112,9.534 -1.477,9.972C-1.586,10.081 -1.641,10.19 -1.641,10.3C-1.677,10.336 -1.695,10.372 -1.695,10.409C-1.731,10.481 -1.805,10.518 -1.914,10.518C-1.987,10.555 -2.169,10.555 -2.461,10.518C-2.57,10.481 -2.661,10.464 -2.734,10.464C-5.177,9.989 -7.31,9.224 -9.133,8.167C-9.206,8.131 -9.315,8.058 -9.461,7.948C-9.898,7.657 -10.391,7.31 -10.938,6.909C-10.974,6.982 -11.047,7.092 -11.156,7.237C-11.229,7.384 -11.302,7.493 -11.375,7.565C-11.703,8.112 -12.141,8.568 -12.688,8.932C-12.87,9.115 -12.997,9.206 -13.07,9.206L-13.125,9.151C-13.161,9.115 -13.106,8.97 -12.961,8.714C-12.778,8.459 -12.505,7.967 -12.141,7.237C-12.141,7.201 -12.122,7.165 -12.086,7.128C-11.903,6.545 -11.758,5.998 -11.648,5.487C-11.539,5.087 -11.43,4.612 -11.32,4.065C-11.065,4.212 -10.773,4.339 -10.445,4.448C-10.044,4.704 -9.844,4.886 -9.844,4.995C-9.808,5.104 -9.935,5.214 -10.227,5.323C-10.445,5.87 -10.628,6.271 -10.773,6.526C-10.7,6.563 -10.591,6.618 -10.445,6.69C-10.3,6.8 -10.044,6.946 -9.68,7.128L-9.68,3.026C-10.372,3.026 -11.083,3.063 -11.813,3.136C-12.141,3.173 -12.469,3.227 -12.797,3.3C-12.87,3.227 -12.942,3.063 -13.016,2.808C-12.942,2.99 -12.961,2.954 -13.07,2.698C-12.706,2.698 -12.25,2.681 -11.703,2.643L-10.719,2.643C-10.281,2.607 -9.935,2.589 -9.68,2.589L-9.68,1.058L-10.609,1.112C-11.011,1.112 -11.375,1.149 -11.703,1.222C-11.703,1.149 -11.739,1.04 -11.813,0.893C-11.849,0.784 -11.886,0.693 -11.922,0.62L-11.594,0.62C-11.229,0.657 -10.938,0.657 -10.719,0.62L-9.68,0.62L-9.68,-0.31C-9.68,-0.528 -9.698,-1.093 -9.734,-2.005C-9.661,-1.968 -9.516,-1.913 -9.297,-1.841C-8.969,-1.732 -8.695,-1.64 -8.477,-1.568C-8.222,-1.458 -8.094,-1.349 -8.094,-1.239C-8.094,-1.057 -8.239,-0.911 -8.531,-0.802L-8.531,0.511L-8.367,0.511C-8.294,0.365 -8.13,0.128 -7.875,-0.2C-7.802,-0.127 -7.692,-0.054 -7.547,0.018C-7.364,0.128 -7.2,0.256 -7.055,0.401C-6.836,0.584 -6.745,0.729 -6.781,0.839C-6.781,0.912 -6.927,0.948 -7.219,0.948L-8.148,0.948L-8.531,1.003L-8.531,2.479L-7.984,2.479C-7.984,2.443 -7.948,2.389 -7.875,2.315C-7.729,2.06 -7.602,1.842 -7.492,1.659C-7.237,1.806 -6.872,2.06 -6.398,2.425L-6.398,1.604C-6.435,1.095 -6.453,0.693 -6.453,0.401C-6.344,0.438 -6.144,0.548 -5.852,0.729C-5.742,0.729 -5.523,0.839 -5.195,1.058L-4.539,1.058C-4.539,0.948 -4.558,0.639 -4.594,0.128C-4.63,-0.2 -4.648,-0.455 -4.648,-0.638C-4.648,-0.783 -4.667,-1.075 -4.703,-1.513C-4.739,-1.732 -4.758,-1.913 -4.758,-2.06C-4.539,-2.023 -4.192,-1.913 -3.719,-1.732C-3.609,-1.694 -3.481,-1.64 -3.336,-1.568C-2.315,-1.53 -1.75,-1.221 -1.641,-0.638C-1.604,-0.419 -1.641,-0.255 -1.75,-0.146C-1.859,0.037 -2.023,0.128 -2.242,0.128C-2.461,0.128 -2.625,0.001 -2.734,-0.255C-2.734,-0.364 -2.808,-0.583 -2.953,-0.911C-2.917,-0.874 -2.935,-0.929 -3.008,-1.075C-3.008,-1.111 -3.044,-1.148 -3.117,-1.185C-3.153,-1.221 -3.19,-1.257 -3.227,-1.294C-3.227,-1.257 -3.336,-1.148 -3.555,-0.966C-3.555,-0.638 -3.536,-0.2 -3.5,0.347L-3.5,1.003C-3.427,1.003 -3.317,0.985 -3.172,0.948L-2.844,0.948C-2.808,0.912 -2.753,0.821 -2.68,0.675C-2.534,0.493 -2.425,0.329 -2.352,0.182C-2.242,0.22 -2.06,0.347 -1.805,0.565C-1.622,0.675 -1.495,0.766 -1.422,0.839C-1.239,0.985 -1.167,1.112 -1.203,1.222C-1.203,1.331 -1.367,1.386 -1.695,1.386L-2.898,1.386C-3.081,1.386 -3.263,1.404 -3.445,1.44C-3.3,2.498 -3.117,3.354 -2.898,4.011C-2.68,3.573 -2.425,2.99 -2.133,2.261C-1.987,2.37 -1.823,2.553 -1.641,2.808C-1.495,2.954 -1.403,3.045 -1.367,3.081C-1.148,3.337 -1.039,3.518 -1.039,3.628L-1.094,3.683C-1.13,3.756 -1.185,3.792 -1.258,3.792L-1.422,3.792C-1.495,3.829 -1.55,3.847 -1.586,3.847C-1.695,4.102 -2.005,4.521 -2.516,5.104L-2.297,5.487C-2.114,5.815 -1.969,5.979 -1.859,5.979C-1.75,5.979 -1.604,5.834 -1.422,5.542C-1.239,5.432 -1.075,5.232 -0.93,4.94C-0.602,4.503 -0.419,4.321 -0.383,4.393C-0.31,4.393 -0.31,4.485 -0.383,4.667C-0.419,4.704 -0.437,4.776 -0.437,4.886C-0.474,4.959 -0.492,5.014 -0.492,5.05C-0.675,5.597 -0.766,6.126 -0.766,6.636C-0.766,6.854 -0.747,7.001 -0.711,7.073C-0.675,7.183 -0.656,7.274 -0.656,7.347C-0.656,7.493 -0.711,7.62 -0.82,7.729C-0.966,7.803 -1.112,7.839 -1.258,7.839C-1.695,7.839 -2.078,7.639 -2.406,7.237C-2.625,7.018 -2.898,6.636 -3.227,6.089C-3.19,6.126 -3.208,6.089 -3.281,5.979C-3.938,6.563 -4.612,7.001 -5.305,7.292C-5.523,7.438 -5.633,7.456 -5.633,7.347C-5.633,7.274 -5.56,7.183 -5.414,7.073C-4.685,6.454 -4.083,5.815 -3.609,5.159C-4.047,4.175 -4.356,2.954 -4.539,1.495L-5.414,1.495L-5.414,4.995L-4.32,4.448C-4.175,4.412 -4.083,4.412 -4.047,4.448C-4.011,4.521 -4.065,4.631 -4.211,4.776C-4.612,5.141 -5.159,5.67 -5.852,6.362C-5.925,6.472 -6.052,6.581 -6.234,6.69C-6.417,6.581 -6.69,6.235 -7.055,5.651C-6.617,5.47 -6.398,5.141 -6.398,4.667L-6.398,2.862C-6.435,2.862 -6.544,2.881 -6.727,2.917L-7.875,2.917L-9.133,2.972C-9.06,3.009 -8.969,3.045 -8.859,3.081C-8.75,3.118 -8.659,3.154 -8.586,3.19C-8.331,3.3 -8.203,3.409 -8.203,3.518C-8.203,3.556 -8.313,3.665 -8.531,3.847L-8.531,4.831C-8.422,4.795 -8.331,4.776 -8.258,4.776C-8.148,4.595 -7.984,4.321 -7.766,3.956C-7.692,4.029 -7.547,4.157 -7.328,4.339C-7.219,4.412 -7.128,4.485 -7.055,4.557C-7.019,4.595 -6.981,4.631 -6.945,4.667C-6.872,4.704 -6.836,4.74 -6.836,4.776C-6.763,4.849 -6.727,4.923 -6.727,4.995C-6.727,5.104 -6.872,5.159 -7.164,5.159L-8.094,5.159L-8.531,5.214L-8.531,7.565C-6.599,8.185 -4.612,8.495 -2.57,8.495L-2.188,8.495C-1.531,8.459 -0.93,8.44 -0.383,8.44C-0.164,8.404 -0.036,8.423 0,8.495" style="fill:rgb(157,73,94);fill-rule:nonzero;"/>
                </g>
            </g>
        </g>
        <g transform="matrix(5.55556,0,0,5.55556,0,0)">
            <g transform="matrix(1,0,0,1,638.949,364.412)">
                <g>
                    <path d="M0,8.842C0,8.879 -0.109,8.934 -0.328,9.006C-0.109,8.934 -0.146,8.951 -0.437,9.061C-0.656,9.061 -0.856,9.098 -1.039,9.17C-1.513,9.279 -1.969,9.461 -2.406,9.717C-2.516,9.789 -2.643,9.881 -2.789,9.99C-2.898,10.1 -3.008,10.136 -3.117,10.1C-3.336,10.1 -3.572,9.972 -3.828,9.717C-4.63,8.879 -5.25,7.895 -5.687,6.764C-5.942,6.071 -6.216,5.051 -6.508,3.701C-6.617,4.285 -6.727,4.74 -6.836,5.069C-7.492,6.709 -8.567,8.004 -10.063,8.951C-11.01,9.534 -11.958,9.953 -12.906,10.209C-13.161,10.281 -13.307,10.281 -13.344,10.209C-13.38,10.1 -13.271,9.99 -13.016,9.881C-12.286,9.553 -11.539,9.098 -10.773,8.514C-9.935,7.895 -9.278,7.238 -8.805,6.545C-8.148,5.561 -7.766,4.412 -7.656,3.1C-7.766,3.1 -7.966,3.118 -8.258,3.155C-8.622,3.155 -9.588,3.228 -11.156,3.373C-11.266,3.155 -11.356,2.954 -11.43,2.772C-11.211,2.772 -10.664,2.754 -9.789,2.717C-9.278,2.717 -8.567,2.699 -7.656,2.662C-7.547,1.787 -7.51,1.059 -7.547,0.475L-7.547,-0.017C-7.583,-0.564 -7.602,-1.038 -7.602,-1.439C-7.528,-1.402 -7.383,-1.33 -7.164,-1.221C-6.836,-1.111 -6.562,-1.002 -6.344,-0.892C-5.942,-0.746 -5.742,-0.582 -5.742,-0.4C-5.742,-0.291 -5.888,-0.144 -6.18,0.037C-6.216,0.912 -6.271,1.751 -6.344,2.553C-5.906,2.553 -5.213,2.535 -4.266,2.498L-3.555,1.186C-3.408,1.295 -3.189,1.459 -2.898,1.678C-2.606,1.861 -2.406,2.006 -2.297,2.115C-1.896,2.407 -1.731,2.608 -1.805,2.717C-1.805,2.826 -2.005,2.881 -2.406,2.881C-2.844,2.881 -3.481,2.9 -4.32,2.936C-4.939,2.936 -5.633,2.954 -6.398,2.99C-5.852,4.412 -5.122,5.579 -4.211,6.49C-3.408,7.293 -2.352,7.912 -1.039,8.35C-0.93,8.387 -0.766,8.442 -0.547,8.514C-0.474,8.551 -0.419,8.569 -0.383,8.569C-0.127,8.642 0,8.733 0,8.842" style="fill:rgb(157,73,94);fill-rule:nonzero;"/>
                </g>
            </g>
        </g>
        <g transform="matrix(5.55556,0,0,5.55556,0,0)">
            <g transform="matrix(1,0,0,1,644.178,371.012)">
                <g>
                    <path d="M0,2.406C0.766,2.37 1.166,1.969 1.203,1.203C1.166,0.437 0.766,0.037 0,0C-0.766,0.037 -1.186,0.437 -1.258,1.203C-1.222,1.932 -0.803,2.334 0,2.406M0,3.008C-1.131,2.934 -1.732,2.334 -1.805,1.203C-1.695,0.109 -1.094,-0.492 0,-0.602C1.094,-0.492 1.695,0.109 1.805,1.203C1.731,2.334 1.13,2.934 0,3.008" style="fill:rgb(157,73,94);fill-rule:nonzero;"/>
                </g>
            </g>
        </g>
    </g>
</svg>
