<?xml version="1.0" encoding="UTF-8" standalone="no"?>
<!DOCTYPE svg PUBLIC "-//W3C//DTD SVG 1.1//EN" "http://www.w3.org/Graphics/SVG/1.1/DTD/svg11.dtd">
<svg width="100%" height="100%" viewBox="0 0 813 37" version="1.1" xmlns="http://www.w3.org/2000/svg" xmlns:xlink="http://www.w3.org/1999/xlink" xml:space="preserve" xmlns:serif="http://www.serif.com/" style="fill-rule:evenodd;clip-rule:evenodd;stroke-linejoin:round;stroke-miterlimit:2;">
    <g transform="matrix(1,0,0,1,-129.578,-2438.57)">
        <g transform="matrix(5.55556,0,0,5.55556,0,0)">
            <g transform="matrix(1,0,0,1,24.106,444.411)">
                <path d="M0,-5.469L1.562,-5.469L1.562,-4.688L2.344,-4.688L2.344,-3.907L3.125,-3.907L3.125,-4.688L3.906,-4.688L3.906,-5.469L5.469,-5.469L5.469,0L3.906,0L3.906,-3.125L3.125,-3.125L3.125,-2.344L2.344,-2.344L2.344,-3.125L1.562,-3.125L1.562,0L0,0L0,-5.469Z" style="fill:white;fill-rule:nonzero;"/>
            </g>
        </g>
        <g transform="matrix(5.55556,0,0,5.55556,0,0)">
            <g transform="matrix(1,0,0,1,0,420.773)">
                <path d="M32.318,22.857L33.88,22.857L33.88,22.076L32.318,22.076L32.318,22.857ZM30.756,22.076L31.537,22.076L31.537,21.294L33.881,21.294L33.881,20.513L31.537,20.513L31.537,19.732L34.662,19.732L34.662,20.513L35.443,20.513L35.443,23.638L31.537,23.638L31.537,22.857L30.756,22.857L30.756,22.076Z" style="fill:white;fill-rule:nonzero;"/>
            </g>
        </g>
        <g transform="matrix(5.55556,0,0,5.55556,0,0)">
            <g transform="matrix(1,0,0,1,0,419.992)">
                <path d="M38.968,23.638L40.53,23.638L40.53,22.076L38.968,22.076L38.968,23.638ZM42.093,24.419L38.187,24.419L38.187,23.638L37.406,23.638L37.406,22.075L38.187,22.075L38.187,21.294L40.531,21.294L40.531,19.732L42.093,19.732L42.093,24.419Z" style="fill:white;fill-rule:nonzero;"/>
            </g>
        </g>
        <g transform="matrix(5.55556,0,0,5.55556,0,0)">
            <g transform="matrix(1,0,0,1,0,420.773)">
                <path d="M45.619,21.294L47.181,21.294L47.181,20.513L45.619,20.513L45.619,21.294ZM44.056,20.513L44.837,20.513L44.837,19.732L47.962,19.732L47.962,20.513L48.744,20.513L48.744,22.076L45.619,22.076L45.619,22.857L47.962,22.857L47.962,23.638L44.837,23.638L44.837,22.857L44.056,22.857L44.056,20.513Z" style="fill:white;fill-rule:nonzero;"/>
            </g>
        </g>
        <g transform="matrix(5.55556,0,0,5.55556,0,0)">
            <g transform="matrix(1,0,0,1,0,419.992)">
                <path d="M58.918,23.638L60.48,23.638L60.48,22.076L58.918,22.076L58.918,23.638ZM57.356,19.732L58.918,19.732L58.918,21.294L61.262,21.294L61.262,22.075L62.043,22.075L62.043,23.638L61.262,23.638L61.262,24.419L57.356,24.419L57.356,19.732Z" style="fill:white;fill-rule:nonzero;"/>
            </g>
        </g>
        <g transform="matrix(5.55556,0,0,5.55556,0,0)">
            <g transform="matrix(1,0,0,1,64.0063,441.286)">
                <path d="M0,3.125L2.344,3.125L2.344,2.344L0.781,2.344L0.781,1.563L0,1.563L0,-0.781L1.562,-0.781L1.562,1.563L3.125,1.563L3.125,-0.781L4.687,-0.781L4.687,2.344L3.906,2.344L3.906,3.125L3.125,3.125L3.125,3.906L0,3.906L0,3.125Z" style="fill:white;fill-rule:nonzero;"/>
            </g>
        </g>
        <g transform="matrix(5.55556,0,0,5.55556,0,0)">
            <g transform="matrix(1,0,0,1,90.606,443.63)">
                <path d="M0,-3.906L0.781,-3.906L0.781,-4.687L3.906,-4.687L3.906,-3.906L4.687,-3.906L4.687,-3.125L3.125,-3.125L3.125,-3.906L1.562,-3.906L1.562,0L3.125,0L3.125,-0.781L4.687,-0.781L4.687,0L3.906,0L3.906,0.781L0.781,0.781L0.781,0L0,0L0,-3.906Z" style="fill:white;fill-rule:nonzero;"/>
            </g>
        </g>
        <g transform="matrix(5.55556,0,0,5.55556,0,0)">
            <g transform="matrix(1,0,0,1,97.2563,444.411)">
                <path d="M0,-5.469L1.562,-5.469L1.562,-3.907L3.906,-3.907L3.906,-3.125L4.687,-3.125L4.687,0L3.125,0L3.125,-3.125L1.562,-3.125L1.562,0L0,0L0,-5.469Z" style="fill:white;fill-rule:nonzero;"/>
            </g>
        </g>
        <g transform="matrix(5.55556,0,0,5.55556,0,0)">
            <g transform="matrix(1,0,0,1,0,420.773)">
                <path d="M105.468,21.294L107.03,21.294L107.03,20.513L105.468,20.513L105.468,21.294ZM103.906,20.513L104.687,20.513L104.687,19.732L107.812,19.732L107.812,20.513L108.593,20.513L108.593,22.076L105.468,22.076L105.468,22.857L107.812,22.857L107.812,23.638L104.687,23.638L104.687,22.857L103.906,22.857L103.906,20.513Z" style="fill:white;fill-rule:nonzero;"/>
            </g>
        </g>
        <g transform="matrix(5.55556,0,0,5.55556,0,0)">
            <g transform="matrix(1,0,0,1,110.556,444.411)">
                <path d="M0,-3.906L3.906,-3.906L3.906,-3.125L4.687,-3.125L4.687,0L3.125,0L3.125,-3.125L1.562,-3.125L1.562,0L0,0L0,-3.906Z" style="fill:white;fill-rule:nonzero;"/>
            </g>
        </g>
        <g transform="matrix(5.55556,0,0,5.55556,0,0)">
            <g transform="matrix(1,0,0,1,123.856,444.411)">
                <path d="M0,-5.469L1.562,-5.469L1.562,-4.688L2.344,-4.688L2.344,-3.907L3.125,-3.907L3.125,-4.688L3.906,-4.688L3.906,-5.469L5.469,-5.469L5.469,0L3.906,0L3.906,-3.125L3.125,-3.125L3.125,-2.344L2.344,-2.344L2.344,-3.125L1.562,-3.125L1.562,0L0,0L0,-5.469Z" style="fill:white;fill-rule:nonzero;"/>
            </g>
        </g>
        <g transform="matrix(5.55556,0,0,5.55556,0,0)">
            <g transform="matrix(1,0,0,1,0,419.21)">
                <path d="M132.069,19.732L133.631,19.732L133.631,20.513L132.069,20.513L132.069,19.732ZM132.069,22.076L131.288,22.076L131.288,21.295L133.631,21.295L133.631,24.42L134.413,24.42L134.413,25.201L131.288,25.201L131.288,24.42L132.069,24.42L132.069,22.076Z" style="fill:white;fill-rule:nonzero;"/>
            </g>
        </g>
        <g transform="matrix(5.55556,0,0,5.55556,0,0)">
            <g transform="matrix(1,0,0,1,137.156,444.411)">
                <path d="M0,-3.906L3.906,-3.906L3.906,-3.125L4.687,-3.125L4.687,0L3.125,0L3.125,-3.125L1.562,-3.125L1.562,0L0,0L0,-3.906Z" style="fill:white;fill-rule:nonzero;"/>
            </g>
        </g>
        <g transform="matrix(5.55556,0,0,5.55556,0,0)">
            <g transform="matrix(1,0,0,1,0,421.554)">
                <path d="M145.369,21.295L146.931,21.295L146.931,19.733L145.369,19.733L145.369,21.295ZM143.806,22.857L146.931,22.857L146.931,22.076L144.587,22.076L144.587,21.295L143.806,21.295L143.806,19.732L144.587,19.732L144.587,18.951L148.494,18.951L148.494,22.857L147.712,22.857L147.712,23.638L143.806,23.638L143.806,22.857Z" style="fill:white;fill-rule:nonzero;"/>
            </g>
        </g>
        <g transform="matrix(5.55556,0,0,5.55556,0,0)">
            <g transform="matrix(1,0,0,1,150.456,444.411)">
                <path d="M0,-5.469L1.562,-5.469L1.562,-3.907L3.906,-3.907L3.906,-3.125L4.687,-3.125L4.687,0L3.125,0L3.125,-3.125L1.562,-3.125L1.562,0L0,0L0,-5.469Z" style="fill:white;fill-rule:nonzero;"/>
            </g>
        </g>
        <g transform="matrix(5.55556,0,0,5.55556,0,0)">
            <g transform="matrix(1,0,0,1,157.106,444.411)">
                <path d="M0,-3.906L1.562,-3.906L1.562,-0.781L3.125,-0.781L3.125,-3.906L4.687,-3.906L4.687,0L0.781,0L0.781,-0.781L0,-0.781L0,-3.906Z" style="fill:white;fill-rule:nonzero;"/>
            </g>
        </g>
        <g transform="matrix(5.55556,0,0,5.55556,0,0)">
            <g transform="matrix(1,0,0,1,0,420.773)">
                <path d="M165.319,22.857L166.881,22.857L166.881,22.076L165.319,22.076L165.319,22.857ZM163.756,22.076L164.538,22.076L164.538,21.294L166.881,21.294L166.881,20.513L164.538,20.513L164.538,19.732L167.663,19.732L167.663,20.513L168.444,20.513L168.444,23.638L164.538,23.638L164.538,22.857L163.756,22.857L163.756,22.076Z" style="fill:white;fill-rule:nonzero;"/>
            </g>
        </g>
        <g transform="matrix(5.55556,0,0,5.55556,0,0)">
            <g transform="matrix(1,0,0,1,0,426.242)">
                <rect x="23.324" y="18.56" width="146.3" height="0.781" style="fill:white;"/>
            </g>
        </g>
        <g transform="matrix(5.55556,0,0,5.55556,0,0)">
            <g transform="matrix(1,0,0,1,79.0669,443.791)">
                <path d="M0,-2.991L-0.454,-2.991L-0.454,-3.543L-1.043,-3.543L-1.043,-4.08L-3.446,-4.08L-3.446,-2.764L-3.945,-2.764L-3.945,-1.495L-3.446,-1.495L-3.446,-0.997L-2.856,-0.997L-2.856,-0.452L-2.176,-0.452L-2.176,0.092L-1.632,0.092L-1.632,0.59L-0.952,0.59L-0.952,1.089L0,1.089" style="fill:white;fill-rule:nonzero;"/>
            </g>
        </g>
        <g transform="matrix(5.55556,0,0,5.55556,0,0)">
            <g transform="matrix(1,0,0,1,79.0669,443.791)">
                <path d="M0,-2.991L0.453,-2.991L0.453,-3.543L1.043,-3.543L1.043,-4.08L3.446,-4.08L3.446,-2.764L3.944,-2.764L3.944,-1.495L3.446,-1.495L3.446,-0.997L2.856,-0.997L2.856,-0.452L2.176,-0.452L2.176,0.092L1.632,0.092L1.632,0.59L0.952,0.59L0.952,1.089L0,1.089" style="fill:white;fill-rule:nonzero;"/>
            </g>
        </g>
    </g>
</svg>
