<?xml version="1.0" encoding="UTF-8" standalone="no"?>
<!DOCTYPE svg PUBLIC "-//W3C//DTD SVG 1.1//EN" "http://www.w3.org/Graphics/SVG/1.1/DTD/svg11.dtd">
<svg width="100%" height="100%" viewBox="0 0 1220 56" version="1.1" xmlns="http://www.w3.org/2000/svg" xmlns:xlink="http://www.w3.org/1999/xlink" xml:space="preserve" xmlns:serif="http://www.serif.com/" style="fill-rule:evenodd;clip-rule:evenodd;stroke-linejoin:round;stroke-miterlimit:2;">
    <g transform="matrix(1,0,0,1,-195.292,-3661.24)">
        <g transform="matrix(8.33333,0,0,8.33333,0,0)">
            <g>
                <g transform="matrix(1,0,0,1,24.2158,444.818)">
                    <path d="M0,-5.469L1.562,-5.469L1.562,-4.688L2.344,-4.688L2.344,-3.907L3.125,-3.907L3.125,-4.688L3.906,-4.688L3.906,-5.469L5.469,-5.469L5.469,0L3.906,0L3.906,-3.125L3.125,-3.125L3.125,-2.344L2.344,-2.344L2.344,-3.125L1.562,-3.125L1.562,0L0,0L0,-5.469Z" style="fill:rgb(76,124,119);fill-rule:nonzero;"/>
                </g>
                <g transform="matrix(1,0,0,1,0,421.585)">
                    <path d="M32.428,22.451L33.99,22.451L33.99,21.67L32.428,21.67L32.428,22.451ZM30.866,21.67L31.647,21.67L31.647,20.889L33.991,20.889L33.991,20.107L31.647,20.107L31.647,19.326L34.772,19.326L34.772,20.107L35.553,20.107L35.553,23.232L31.647,23.232L31.647,22.451L30.866,22.451L30.866,21.67Z" style="fill:rgb(76,124,119);fill-rule:nonzero;"/>
                </g>
                <g transform="matrix(1,0,0,1,0,420.804)">
                    <path d="M39.078,23.232L40.64,23.232L40.64,21.67L39.078,21.67L39.078,23.232ZM42.203,24.013L38.297,24.013L38.297,23.232L37.516,23.232L37.516,21.67L38.297,21.67L38.297,20.888L40.641,20.888L40.641,19.326L42.203,19.326L42.203,24.013Z" style="fill:rgb(76,124,119);fill-rule:nonzero;"/>
                </g>
                <g transform="matrix(1,0,0,1,0,421.585)">
                    <path d="M45.729,20.889L47.291,20.889L47.291,20.108L45.729,20.108L45.729,20.889ZM44.166,20.107L44.947,20.107L44.947,19.326L48.072,19.326L48.072,20.107L48.854,20.107L48.854,21.67L45.729,21.67L45.729,22.451L48.072,22.451L48.072,23.232L44.947,23.232L44.947,22.451L44.166,22.451L44.166,20.107Z" style="fill:rgb(76,124,119);fill-rule:nonzero;"/>
                </g>
                <g transform="matrix(1,0,0,1,0,420.804)">
                    <path d="M59.028,23.232L60.59,23.232L60.59,21.67L59.028,21.67L59.028,23.232ZM57.466,19.326L59.028,19.326L59.028,20.888L61.372,20.888L61.372,21.67L62.153,21.67L62.153,23.232L61.372,23.232L61.372,24.013L57.466,24.013L57.466,19.326Z" style="fill:rgb(76,124,119);fill-rule:nonzero;"/>
                </g>
                <g transform="matrix(1,0,0,1,64.1162,441.692)">
                    <path d="M0,3.125L2.344,3.125L2.344,2.344L0.781,2.344L0.781,1.563L0,1.563L0,-0.781L1.562,-0.781L1.562,1.563L3.125,1.563L3.125,-0.781L4.687,-0.781L4.687,2.344L3.906,2.344L3.906,3.125L3.125,3.125L3.125,3.906L0,3.906L0,3.125Z" style="fill:rgb(76,124,119);fill-rule:nonzero;"/>
                </g>
                <g transform="matrix(1,0,0,1,90.7158,444.036)">
                    <path d="M0,-3.906L0.781,-3.906L0.781,-4.687L3.906,-4.687L3.906,-3.906L4.687,-3.906L4.687,-3.125L3.125,-3.125L3.125,-3.906L1.562,-3.906L1.562,0L3.125,0L3.125,-0.781L4.687,-0.781L4.687,0L3.906,0L3.906,0.781L0.781,0.781L0.781,0L0,0L0,-3.906Z" style="fill:rgb(76,124,119);fill-rule:nonzero;"/>
                </g>
                <g transform="matrix(1,0,0,1,97.3662,444.818)">
                    <path d="M0,-5.469L1.562,-5.469L1.562,-3.907L3.906,-3.907L3.906,-3.125L4.687,-3.125L4.687,0L3.125,0L3.125,-3.125L1.562,-3.125L1.562,0L0,0L0,-5.469Z" style="fill:rgb(76,124,119);fill-rule:nonzero;"/>
                </g>
                <g transform="matrix(1,0,0,1,0,421.585)">
                    <path d="M105.578,20.889L107.14,20.889L107.14,20.108L105.578,20.108L105.578,20.889ZM104.016,20.107L104.797,20.107L104.797,19.326L107.922,19.326L107.922,20.107L108.703,20.107L108.703,21.67L105.578,21.67L105.578,22.451L107.922,22.451L107.922,23.232L104.797,23.232L104.797,22.451L104.016,22.451L104.016,20.107Z" style="fill:rgb(76,124,119);fill-rule:nonzero;"/>
                </g>
                <g transform="matrix(1,0,0,1,110.666,444.817)">
                    <path d="M0,-3.906L3.906,-3.906L3.906,-3.125L4.687,-3.125L4.687,0L3.125,0L3.125,-3.125L1.562,-3.125L1.562,0L0,0L0,-3.906Z" style="fill:rgb(76,124,119);fill-rule:nonzero;"/>
                </g>
                <g transform="matrix(1,0,0,1,123.966,444.818)">
                    <path d="M0,-5.469L1.562,-5.469L1.562,-4.688L2.344,-4.688L2.344,-3.907L3.125,-3.907L3.125,-4.688L3.906,-4.688L3.906,-5.469L5.469,-5.469L5.469,0L3.906,0L3.906,-3.125L3.125,-3.125L3.125,-2.344L2.344,-2.344L2.344,-3.125L1.562,-3.125L1.562,0L0,0L0,-5.469Z" style="fill:rgb(76,124,119);fill-rule:nonzero;"/>
                </g>
                <g transform="matrix(1,0,0,1,0,420.023)">
                    <path d="M132.179,19.326L133.741,19.326L133.741,20.107L132.179,20.107L132.179,19.326ZM132.179,21.669L131.397,21.669L131.397,20.888L133.741,20.888L133.741,24.013L134.522,24.013L134.522,24.794L131.397,24.794L131.397,24.013L132.179,24.013L132.179,21.669Z" style="fill:rgb(76,124,119);fill-rule:nonzero;"/>
                </g>
                <g transform="matrix(1,0,0,1,137.266,444.817)">
                    <path d="M0,-3.906L3.906,-3.906L3.906,-3.125L4.687,-3.125L4.687,0L3.125,0L3.125,-3.125L1.562,-3.125L1.562,0L0,0L0,-3.906Z" style="fill:rgb(76,124,119);fill-rule:nonzero;"/>
                </g>
                <g transform="matrix(1,0,0,1,0,422.367)">
                    <path d="M145.479,20.888L147.041,20.888L147.041,19.326L145.479,19.326L145.479,20.888ZM143.916,22.45L147.041,22.45L147.041,21.669L144.697,21.669L144.697,20.888L143.916,20.888L143.916,19.325L144.697,19.325L144.697,18.544L148.604,18.544L148.604,22.45L147.822,22.45L147.822,23.232L143.916,23.232L143.916,22.45Z" style="fill:rgb(76,124,119);fill-rule:nonzero;"/>
                </g>
                <g transform="matrix(1,0,0,1,150.565,444.818)">
                    <path d="M0,-5.469L1.562,-5.469L1.562,-3.907L3.906,-3.907L3.906,-3.125L4.687,-3.125L4.687,0L3.125,0L3.125,-3.125L1.562,-3.125L1.562,0L0,0L0,-5.469Z" style="fill:rgb(76,124,119);fill-rule:nonzero;"/>
                </g>
                <g transform="matrix(1,0,0,1,157.216,444.817)">
                    <path d="M0,-3.906L1.562,-3.906L1.562,-0.781L3.125,-0.781L3.125,-3.906L4.687,-3.906L4.687,0L0.781,0L0.781,-0.781L0,-0.781L0,-3.906Z" style="fill:rgb(76,124,119);fill-rule:nonzero;"/>
                </g>
                <g transform="matrix(1,0,0,1,0,421.585)">
                    <path d="M165.429,22.451L166.991,22.451L166.991,21.67L165.429,21.67L165.429,22.451ZM163.866,21.67L164.647,21.67L164.647,20.889L166.991,20.889L166.991,20.107L164.647,20.107L164.647,19.326L167.772,19.326L167.772,20.107L168.554,20.107L168.554,23.232L164.647,23.232L164.647,22.451L163.866,22.451L163.866,21.67Z" style="fill:rgb(76,124,119);fill-rule:nonzero;"/>
                </g>
                <g transform="matrix(1,0,0,1,0,427.054)">
                    <rect x="23.435" y="18.154" width="146.3" height="0.781" style="fill:rgb(76,124,119);"/>
                </g>
            </g>
        </g>
        <g transform="matrix(8.33333,0,0,8.33333,0,0)">
            <g transform="matrix(1,0,0,1,79.1777,444.197)">
                <g>
                    <path d="M0,-2.991L-0.454,-2.991L-0.454,-3.542L-1.043,-3.542L-1.043,-4.08L-3.446,-4.08L-3.446,-2.764L-3.945,-2.764L-3.945,-1.495L-3.446,-1.495L-3.446,-0.996L-2.856,-0.996L-2.856,-0.452L-2.176,-0.452L-2.176,0.092L-1.632,0.092L-1.632,0.591L-0.952,0.591L-0.952,1.089L0,1.089" style="fill:rgb(76,124,119);fill-rule:nonzero;"/>
                </g>
            </g>
        </g>
        <g transform="matrix(8.33333,0,0,8.33333,0,0)">
            <g transform="matrix(1,0,0,1,79.1777,444.197)">
                <g>
                    <path d="M0,-2.991L0.453,-2.991L0.453,-3.542L1.042,-3.542L1.042,-4.08L3.446,-4.08L3.446,-2.764L3.944,-2.764L3.944,-1.495L3.446,-1.495L3.446,-0.996L2.856,-0.996L2.856,-0.452L2.176,-0.452L2.176,0.092L1.632,0.092L1.632,0.591L0.952,0.591L0.952,1.089L0,1.089" style="fill:rgb(76,124,119);fill-rule:nonzero;"/>
                </g>
            </g>
        </g>
    </g>
</svg>
