<svg width="142" height="44" viewBox="0 0 142 44" xmlns="http://www.w3.org/2000/svg">
    <path d="M42.5 16.5C42.375 17 42.0625 17.5 41.5625 18C41.4375 18 41.3125 18.0625 41.1875 18.1875C41.0625 18.3125 40.9375 18.375 40.8125 18.375C40.8125 18.875 40.8125 20.25 40.8125 22.5C40.8125 24.5 40.8125 25.625 40.8125 25.875C40.8125 26 40.8125 26.5 40.8125 27.375C40.9375 29.375 41.0625 31.25 41.1875 33C41.4375 36.625 41.4375 38.625 41.1875 39C40.9375 40.125 40.4375 41 39.6875 41.625C39.1875 42 38.625 42.25 38 42.375C37.5 42.625 37.0625 42.625 36.6875 42.375C36.5625 42.375 36.5 42.125 36.5 41.625C36.5 41.375 36.5 41 36.5 40.5V38.4375L24.3125 39.1875C24.3125 40.9375 23.6875 42.1875 22.4375 42.9375C21.6875 43.5625 21.0625 43.75 20.5625 43.5C20.3125 43.5 20.1875 43.3125 20.1875 42.9375C20.1875 42.5625 20.1875 41.9375 20.1875 41.0625C20.3125 40.3125 20.375 39.75 20.375 39.375L20.5625 32.25V20.0625C20.5625 17.6875 20.5 15.75 20.375 14.25C20.375 14.25 19.9375 14.3125 19.0625 14.4375C17.9375 14.4375 16.6875 14.5 15.3125 14.625C15.3125 16.625 15.3125 18.3125 15.3125 19.6875C15.5625 19.5625 15.9375 19.3125 16.4375 18.9375C17.3125 18.3125 18.0625 17.75 18.6875 17.25C19.0625 16.875 19.375 16.8125 19.625 17.0625C19.75 17.3125 19.625 17.625 19.25 18C18.125 19.25 16.8125 20.5625 15.3125 21.9375C15.3125 22.6875 15.3125 25.0625 15.3125 29.0625C15.3125 32.0625 15.3125 34.375 15.3125 36C15.3125 37.125 15.25 37.875 15.125 38.25C14.875 39 14.375 39.6875 13.625 40.3125C12.125 41.6875 10.875 42.3125 9.875 42.1875C9.5 42.1875 9.25 41.9375 9.125 41.4375C8.875 40.8125 8.75 40.3125 8.75 39.9375C8.625 39.8125 8.5 39.625 8.375 39.375C8.25 39.125 7.9375 38.6875 7.4375 38.0625C7.4375 37.9375 7.125 37.6875 6.5 37.3125C6 36.6875 5.8125 36.3125 5.9375 36.1875C5.9375 36.1875 6.25 36.1875 6.875 36.1875C8.25 36.3125 9.25 36.375 9.875 36.375C10.125 36.375 10.4375 36.3125 10.8125 36.1875C11.0625 36.0625 11.1875 35.75 11.1875 35.25C11.1875 34 11.1875 32.25 11.1875 30C11.3125 28.625 11.375 27.1875 11.375 25.6875C11 26.0625 10.4375 26.625 9.6875 27.375C8.8125 28 8.1875 28.5 7.8125 28.875C7.1875 29.5 6.5 30.1875 5.75 30.9375C5.625 31.0625 5.5 31.25 5.375 31.5C5.25 31.75 5.125 31.9375 5 32.0625C4.625 32.4375 4.3125 32.625 4.0625 32.625C3.8125 32.625 3.1875 32.125 2.1875 31.125C1.4375 30.375 0.875 29.75 0.5 29.25C1.625 28.5 3.625 27.25 6.5 25.5L11.375 22.3125V15C9.75 15.125 7.25 15.5 3.875 16.125C3.875 16 3.6875 15.625 3.3125 15C3.0625 14.625 2.875 14.3125 2.75 14.0625C3.125 14.0625 3.6875 14.0625 4.4375 14.0625C5.8125 13.9375 6.875 13.875 7.625 13.875L11.375 13.5V8.4375C11.375 7.9375 11.3125 6.75 11.1875 4.875C11.0625 3.875 11 3.0625 11 2.4375C11.75 2.5625 13 2.9375 14.75 3.5625C16.25 4.0625 17 4.625 17 5.25C17 5.625 16.8125 5.9375 16.4375 6.1875C16.0625 6.3125 15.6875 6.5625 15.3125 6.9375V13.125H16.0625L17.375 10.3125C18 10.9375 18.875 11.625 20 12.375C20.5 12.875 20.75 13.1875 20.75 13.3125C20.875 13.4375 21.6875 13.875 23.1875 14.625C23.1875 14.625 23.375 14.6875 23.75 14.8125C24.375 15.1875 24.9375 15.5 25.4375 15.75L28.25 15.5625V7.6875C28.25 6.8125 28.25 4.375 28.25 0.375C29.125 0.5 30.375 0.875 32 1.5C33.5 2 34.1875 2.5625 34.0625 3.1875C34.0625 3.5625 33.9375 3.8125 33.6875 3.9375C33.3125 4.3125 32.9375 4.5625 32.5625 4.6875V15.375C32.8125 15.375 33.25 15.375 33.875 15.375C34.875 15.25 35.6875 15.1875 36.3125 15.1875L38 12.9375C39 13.4375 39.875 14 40.625 14.625C41.875 15.5 42.5 16.125 42.5 16.5ZM36.5 36.75C36.5 33.375 36.5 30 36.5 26.625C36.5 24.5 36.4375 22 36.3125 19.125C36.3125 17.875 36.3125 17.0625 36.3125 16.6875C35.5625 16.8125 34.25 16.875 32.375 16.875V20.625C32.5 22.625 32.5625 24.125 32.5625 25.125C32.8125 25 33.1875 24.9375 33.6875 24.9375C33.9375 24.9375 34.3125 24.8125 34.8125 24.5625C35.5625 25.6875 35.875 26.3125 35.75 26.4375C35.75 26.4375 35.6875 26.4375 35.5625 26.4375C35.0625 26.5625 34.625 26.625 34.25 26.625C33.625 26.625 33.0625 26.6875 32.5625 26.8125L32.375 36.9375L36.5 36.75ZM28.25 17.25L24.3125 17.625V32.25C24.3125 33.375 24.3125 35.125 24.3125 37.5L28.25 37.3125V27C28.25 27 28.0625 27 27.6875 27C26.9375 27.125 26.25 27.25 25.625 27.375L24.875 25.5C25.375 25.5 26 25.5 26.75 25.5C27 25.5 27.5 25.4375 28.25 25.3125V17.25ZM130.062 12.75C130.188 13.25 130.062 13.8125 129.688 14.4375C129.188 15.1875 128.688 15.5625 128.188 15.5625C127.562 15.6875 127.062 15.5 126.688 15C126.312 14.75 126.062 14.125 125.938 13.125C125.812 11.625 125.188 10.375 124.062 9.375C124.062 9.25 124 9.1875 123.875 9.1875C123.125 9.1875 122.75 9.1875 122.75 9.1875C120.75 11.4375 119.375 12.875 118.625 13.5L119.375 13.875C120.75 14.625 121.375 15.1875 121.25 15.5625C121.25 15.9375 120.812 16.1875 119.938 16.3125C125.312 20.3125 131.875 22.375 139.625 22.5C140.375 22.5 140.75 22.5 140.75 22.5C141.125 22.5 141.312 22.625 141.312 22.875C141.312 23.25 140.812 23.625 139.812 24C138.562 24.75 137.25 25.6875 135.875 26.8125C135.625 27.3125 135.125 27.75 134.375 28.125C133.875 28.25 133.062 28.125 131.938 27.75C127.938 26.125 123.5 22.5625 118.625 17.0625C116.375 19.8125 114.062 22.125 111.688 24C111.562 24 111.438 24.0625 111.312 24.1875C111.062 24.3125 110.875 24.4375 110.75 24.5625C112.25 24.5625 113.312 24.5625 113.938 24.5625C114.438 24.5625 115.312 24.5 116.562 24.375C117.562 24.375 118.25 24.375 118.625 24.375C118.75 24 119.438 22.9375 120.688 21.1875C120.938 21.3125 121.5 21.6875 122.375 22.3125C123.125 22.9375 123.688 23.375 124.062 23.625C124.188 23.75 124.375 23.9375 124.625 24.1875C124.875 24.5625 125 24.8125 125 24.9375C125 25.3125 124.562 25.5 123.688 25.5C123.438 25.5 123.062 25.5 122.562 25.5C121.438 25.625 120.438 25.6875 119.562 25.6875C118.562 25.6875 117.062 25.8125 115.062 26.0625C114.688 26.0625 114.375 26.0625 114.125 26.0625C113.625 26.1875 112.938 26.25 112.062 26.25C111.188 26.375 110.5 26.4375 110 26.4375L109.438 25.5C106.562 27.625 103.125 29.375 99.125 30.75C96.875 31.625 95.6875 31.875 95.5625 31.5C95.4375 31.125 95.75 30.75 96.5 30.375C101.5 27.875 105.5 25.3125 108.5 22.6875C109.25 21.9375 110.5 20.5 112.25 18.375C111 20 111.125 19.875 112.625 18C113.875 16.375 115.062 14.375 116.188 12C116.312 12 116.438 12.0625 116.562 12.1875C116.938 12.4375 117.25 12.625 117.5 12.75C118.875 10.625 120.25 7.8125 121.625 4.3125C121.75 3.8125 122 2.9375 122.375 1.6875C122.5 1.0625 122.625 0.625 122.75 0.375C123.25 0.625 124.188 1.1875 125.562 2.0625C125.938 2.1875 126.188 2.3125 126.312 2.4375C127.188 3.0625 127.625 3.5625 127.625 3.9375C127.625 4.3125 126.938 4.6875 125.562 5.0625C125.062 6.0625 124.5 6.875 123.875 7.5C126.25 7.375 128 7.3125 129.125 7.3125C129.25 6.8125 130.062 5.5625 131.562 3.5625C132.312 4.1875 133.375 5.0625 134.75 6.1875C134.875 6.3125 135.062 6.4375 135.312 6.5625C135.562 6.8125 135.75 7 135.875 7.125C136.125 7.5 136.25 7.8125 136.25 8.0625C136.125 8.4375 135.438 8.625 134.188 8.625C132.438 8.625 129.75 8.75 126.125 9C127 9.375 127.812 9.8125 128.562 10.3125C129.312 10.8125 129.812 11.625 130.062 12.75ZM135.5 39.75C135.375 40.125 134.688 40.25 133.438 40.125C130.562 40.125 128.75 40.125 128 40.125C122.375 40.375 115.625 40.75 107.75 41.25C107.5 41.25 107.062 41.3125 106.438 41.4375C104.188 41.5625 102.625 41.75 101.75 42L100.625 39.75C103.75 39.75 106.125 39.75 107.75 39.75L120.875 39C122.125 36.25 123.062 33.75 123.688 31.5C123.938 31.375 124.438 29.8125 125.188 26.8125C125.312 26.8125 125.438 26.875 125.562 27C126.312 27.375 127.438 28.125 128.938 29.25C129.938 30 130.438 30.5625 130.438 30.9375C130.062 31.5625 129.375 31.8125 128.375 31.6875C126.875 34.1875 125 36.5625 122.75 38.8125L127.812 38.625C128.188 37.875 129.062 36.5625 130.438 34.6875C130.688 34.9375 131.188 35.3125 131.938 35.8125C133.062 36.6875 134 37.4375 134.75 38.0625C135.375 38.8125 135.625 39.375 135.5 39.75ZM98.75 17.625C98 18 97.5625 18.0625 97.4375 17.8125C97.4375 17.8125 97.4375 17.75 97.4375 17.625C97.4375 17.375 97.6875 17 98.1875 16.5C99.9375 14.875 101.375 13.25 102.5 11.625C103.5 10.125 104.562 8.0625 105.688 5.4375C105.938 4.9375 106.312 3.8125 106.812 2.0625C106.438 3.4375 106.5 3.1875 107 1.3125C107.75 1.6875 108.812 2.375 110.188 3.375C111.562 4.125 112.125 4.75 111.875 5.25C111.875 5.625 111.25 6 110 6.375C109.625 7.125 109.188 7.75 108.688 8.25C109.188 8.25 109.938 8.1875 110.938 8.0625C111.688 8.0625 112.188 8.0625 112.438 8.0625C112.812 7.4375 113.5 6.375 114.5 4.875C115.625 5.75 116.75 6.6875 117.875 7.6875C118.625 8.0625 118.938 8.4375 118.812 8.8125C118.688 9.1875 118.25 9.375 117.5 9.375C116.75 9.5 115.625 9.5625 114.125 9.5625L110.75 9.75C112.25 10.5 113.188 11.0625 113.562 11.4375C113.938 11.9375 114.188 12.5 114.312 13.125C114.188 14.625 113.5 15.4375 112.25 15.5625C111.375 15.4375 110.812 15 110.562 14.25C110.438 13.125 110.125 12.125 109.625 11.25C109.5 11 109.125 10.5625 108.5 9.9375H107.562C106.438 11.1875 105.438 12.375 104.562 13.5C103.188 14.875 101.25 16.25 98.75 17.625ZM120.125 31.6875C120.75 32.8125 120.75 33.875 120.125 34.875C119.5 36 118.625 36.5625 117.5 36.5625C116.75 36.5625 116.188 36.0625 115.812 35.0625C115.812 35.0625 115.812 34.9375 115.812 34.6875C115.688 33.9375 115.625 33.125 115.625 32.25C115.625 30.75 115.375 29.5 114.875 28.5C114.5 27.875 114.375 27.5625 114.5 27.5625C114.5 27.3125 114.812 27.3125 115.438 27.5625C117.938 28.5625 119.5 29.9375 120.125 31.6875ZM112.438 35.25C112.438 36.625 111.812 37.5 110.562 37.875C110.062 38 109.5 38 108.875 37.875C108.5 37.5 108.25 37 108.125 36.375C108.125 36.25 108.062 36.0625 107.938 35.8125C107.938 35.1875 107.75 34.25 107.375 33C107.125 32 106.75 31.25 106.25 30.75C105.75 30.375 105.562 30.0625 105.688 29.8125C105.688 29.5625 106 29.5625 106.625 29.8125C108.25 30.0625 109.75 30.8125 111.125 32.0625C112.25 32.9375 112.688 34 112.438 35.25Z" fill="#9D495E"/>
</svg>
