<?xml version="1.0" encoding="UTF-8" standalone="no"?>
<!DOCTYPE svg PUBLIC "-//W3C//DTD SVG 1.1//EN" "http://www.w3.org/Graphics/SVG/1.1/DTD/svg11.dtd">
<svg width="100%" height="100%" viewBox="0 0 367 122" version="1.1" xmlns="http://www.w3.org/2000/svg" xmlns:xlink="http://www.w3.org/1999/xlink" xml:space="preserve" xmlns:serif="http://www.serif.com/" style="fill-rule:evenodd;clip-rule:evenodd;stroke-linejoin:round;stroke-miterlimit:10;">
    <g transform="matrix(1,0,0,1,-202.604,-218.808)">
        <g transform="matrix(4.16667,0,0,4.16667,0,0)">
            <g transform="matrix(-1,0,0,1,185.235,43.8839)">
                <rect x="49.625" y="9.63" width="85.985" height="27.169" style="fill:none;stroke:rgb(157,73,94);stroke-width:2px;"/>
            </g>
        </g>
        <g transform="matrix(4.16667,0,0,4.16667,0,0)">
            <g transform="matrix(1,0,0,1,0,42.9519)">
                <path d="M80.557,28.547L81.541,28.547L81.541,24.609L80.557,24.609L80.557,28.547ZM81.542,20.946L80.558,20.946L80.558,24.282L81.542,24.282L81.542,20.946ZM77.714,28.547L78.698,28.547L78.698,24.609L77.714,24.609L77.714,28.547ZM77.714,21.383L77.714,24.282L78.698,24.282L78.698,20.946L77.823,20.946C77.75,20.982 77.714,21.128 77.714,21.383M75.69,20.563L74.378,20.563L74.378,22.915C74.487,22.915 74.687,22.878 74.979,22.805C75.307,22.769 75.562,22.714 75.745,22.641C75.745,21.584 75.726,20.891 75.69,20.563M80.557,18.594L80.557,20.563L81.323,20.563C81.687,20.016 81.961,19.725 82.143,19.688C82.836,19.907 83.437,20.308 83.948,20.891C83.984,21.074 83.893,21.219 83.675,21.329C83.565,21.329 83.511,21.493 83.511,21.821L83.511,27.016C83.547,28.365 83.583,29.112 83.62,29.258C83.656,29.659 83.511,29.915 83.182,30.024C82.818,30.097 82.508,30.151 82.253,30.188C82.179,30.188 82.143,30.206 82.143,30.243C81.669,30.315 81.469,30.206 81.542,29.915L81.542,28.766L77.714,28.766L77.714,29.641C77.714,29.969 77.55,30.169 77.221,30.243L77.057,30.243C76.839,30.279 76.583,30.315 76.292,30.352C75.745,30.425 75.544,30.169 75.69,29.586L75.69,26.251C75.69,25.594 75.708,24.883 75.745,24.118L75.745,23.352C75.599,23.425 75.38,23.553 75.089,23.735C74.761,23.881 74.523,23.99 74.378,24.063L74.378,26.086C74.414,27.18 74.45,27.964 74.487,28.438C74.487,29.058 74.286,29.513 73.886,29.805C73.63,29.951 73.265,30.097 72.792,30.243C72.245,30.315 71.971,30.188 71.971,29.86C71.935,29.386 71.57,29.021 70.878,28.766C70.55,28.62 70.422,28.547 70.495,28.547C70.422,28.438 70.604,28.402 71.042,28.438C71.99,28.657 72.427,28.329 72.354,27.454L72.354,25.047C72.281,25.084 72.208,25.121 72.136,25.157C72.026,25.193 71.953,25.211 71.917,25.211C71.734,25.357 71.625,25.449 71.589,25.485C71.479,25.704 71.37,25.813 71.261,25.813C71.151,25.813 71.06,25.686 70.987,25.43C70.95,25.321 70.878,25.066 70.768,24.665C70.622,24.264 70.55,23.99 70.55,23.844C70.476,23.662 70.604,23.535 70.932,23.461C71.005,23.461 71.133,23.443 71.315,23.407C71.753,23.371 72.099,23.316 72.354,23.243L72.354,20.563L71.862,20.563C71.497,20.563 71.242,20.582 71.096,20.618C70.95,20.691 70.859,20.672 70.823,20.563C70.714,20.454 70.64,20.344 70.604,20.235L70.55,20.126C70.55,20.089 70.604,20.071 70.714,20.071C71.37,20.18 71.844,20.235 72.136,20.235L72.354,20.235L72.354,19.688C72.318,19.251 72.3,18.813 72.3,18.376C72.263,17.975 72.226,17.665 72.19,17.446C72.081,17.082 72.208,16.936 72.573,17.008C73.265,17.082 73.922,17.209 74.542,17.391C74.724,17.501 74.833,17.61 74.87,17.719C74.87,17.829 74.797,17.938 74.651,18.047C74.432,18.193 74.341,18.339 74.378,18.485L74.378,19.907C74.633,19.506 74.851,19.287 75.034,19.251C75.253,19.324 75.526,19.506 75.854,19.797L76.073,19.797C76.729,20.016 77.276,20.235 77.714,20.454C77.714,20.49 77.732,20.527 77.768,20.563L78.698,20.563L78.698,18.922C78.661,18.339 78.625,17.883 78.589,17.555C78.515,17.191 78.661,17.027 79.026,17.063C79.39,17.136 79.992,17.3 80.831,17.555C81.05,17.738 81.05,17.92 80.831,18.102C80.648,18.211 80.557,18.376 80.557,18.594" style="fill:rgb(157,73,94);fill-rule:nonzero;"/>
            </g>
        </g>
        <g transform="matrix(4.16667,0,0,4.16667,0,0)">
            <g transform="matrix(1,0,0,1,110.023,65.3739)">
                <path d="M0,2.352L-1.094,2.352C-1.094,2.389 -1.112,2.425 -1.148,2.461L-1.148,3.829L0,3.829L0,2.352ZM-5.797,0.711L-2.844,0.711C-2.771,0.639 -2.68,0.529 -2.57,0.383C-2.461,0.238 -2.352,0.11 -2.242,0C-2.644,-0.218 -2.99,-0.473 -3.281,-0.765C-3.975,-0.145 -4.812,0.347 -5.797,0.711ZM-5.797,2.407L-6.836,2.407C-6.909,2.48 -6.928,2.589 -6.891,2.735L-6.891,3.883L-5.797,3.883L-5.797,2.407ZM-8.859,2.954L-8.859,2.899C-8.896,2.571 -8.933,2.206 -8.969,1.805C-9.078,1.55 -8.951,1.422 -8.586,1.422C-8.148,1.532 -7.584,1.678 -6.891,1.86C-6.818,1.933 -6.745,1.988 -6.672,2.024L-5.961,2.024C-5.742,1.586 -5.542,1.331 -5.359,1.258C-4.631,1.477 -3.992,1.842 -3.445,2.352C-3.445,2.461 -3.537,2.589 -3.719,2.735C-3.828,2.808 -3.865,2.935 -3.828,3.118L-3.828,3.61C-3.792,3.829 -3.773,4.011 -3.773,4.157C-3.701,4.558 -3.811,4.758 -4.102,4.758C-4.248,4.831 -4.539,4.904 -4.977,4.977L-5.25,4.977C-5.651,5.05 -5.834,4.941 -5.797,4.649L-5.797,4.266L-6.891,4.266C-6.891,4.449 -6.909,4.594 -6.945,4.704C-6.545,4.777 -5.961,4.977 -5.195,5.305C-5.05,5.378 -4.995,5.469 -5.031,5.579C-5.068,5.725 -5.159,5.797 -5.305,5.797C-5.523,5.797 -5.706,5.852 -5.852,5.961C-5.305,6.035 -4.812,6.18 -4.375,6.399C-3.938,6.8 -3.901,7.237 -4.266,7.711C-4.812,8.039 -5.269,7.966 -5.633,7.493C-5.815,7.128 -6.07,6.763 -6.398,6.399C-7.42,7.237 -8.55,7.766 -9.789,7.985C-9.936,7.985 -10.026,7.948 -10.063,7.875C-10.1,7.766 -10.063,7.693 -9.953,7.657C-8.604,6.854 -7.748,5.98 -7.383,5.032C-7.82,5.105 -8.203,5.141 -8.531,5.141C-8.896,5.214 -9.042,5.014 -8.969,4.54C-8.933,4.139 -8.896,3.61 -8.859,2.954M-6.562,-3.664L-5.086,-3.664C-4.722,-4.356 -4.448,-4.721 -4.266,-4.757C-4.011,-4.684 -3.609,-4.447 -3.063,-4.046C-2.881,-4.557 -2.753,-5.012 -2.68,-5.414C-2.68,-5.596 -2.534,-5.687 -2.242,-5.687C-1.367,-5.504 -0.711,-5.359 -0.273,-5.25C-0.092,-5.176 0,-5.067 0,-4.921C0,-4.775 -0.073,-4.684 -0.219,-4.648C-0.475,-4.575 -0.656,-4.484 -0.766,-4.375C-1.021,-4.01 -1.203,-3.773 -1.312,-3.664L0.492,-3.664C0.528,-3.736 0.602,-3.846 0.711,-3.992C1.039,-4.502 1.258,-4.757 1.367,-4.757C1.877,-4.575 2.406,-4.21 2.953,-3.664C3.025,-3.518 3.044,-3.39 3.008,-3.281C2.971,-3.171 2.898,-3.135 2.789,-3.171C2.278,-3.208 1.549,-3.226 0.602,-3.226L-0.109,-3.226C0.474,-3.117 0.875,-2.861 1.094,-2.46C1.275,-1.986 1.185,-1.64 0.82,-1.421C0.091,-1.093 -0.328,-1.257 -0.437,-1.914C-0.475,-2.497 -0.602,-2.934 -0.82,-3.226L-1.586,-3.226C-2.097,-2.715 -2.516,-2.333 -2.844,-2.078C-2.553,-1.932 -2.389,-1.877 -2.352,-1.914C-2.206,-1.804 -2.151,-1.695 -2.188,-1.586C-2.225,-1.44 -2.334,-1.348 -2.516,-1.312C-2.553,-1.312 -2.589,-1.294 -2.625,-1.257C-0.948,-0.711 0.93,-0.528 3.008,-0.711C3.227,-0.711 3.336,-0.656 3.336,-0.546C3.372,-0.437 3.299,-0.328 3.117,-0.218C2.57,0.146 2.224,0.621 2.078,1.204C2.041,1.496 1.805,1.568 1.367,1.422C1.185,1.422 1.021,1.386 0.875,1.313C1.713,1.75 2.224,2.06 2.406,2.243C2.442,2.389 2.369,2.516 2.188,2.625C2.078,2.699 2.023,2.826 2.023,3.008L2.023,3.664C2.06,3.81 2.096,3.938 2.133,4.047C2.169,4.412 2.041,4.613 1.75,4.649C1.239,4.758 0.82,4.813 0.492,4.813C0.091,4.922 -0.073,4.831 0,4.54L0,4.211L-1.148,4.211C-1.148,4.43 -1.167,4.576 -1.203,4.649C-0.803,4.722 -0.164,4.922 0.711,5.25C0.856,5.36 0.93,5.469 0.93,5.579C0.93,5.688 0.856,5.743 0.711,5.743C0.455,5.816 0.273,5.907 0.164,6.016C1.221,6.053 1.95,6.144 2.352,6.29C2.898,6.654 3.025,7.11 2.734,7.657C2.26,8.021 1.75,7.985 1.203,7.547C0.802,7 0.346,6.581 -0.164,6.29C-1.076,7.128 -2.279,7.675 -3.773,7.93C-4.029,7.821 -4.084,7.711 -3.938,7.602C-2.589,6.836 -1.769,5.943 -1.477,4.922L-1.586,4.922C-1.732,4.996 -1.987,5.05 -2.352,5.086C-2.534,5.123 -2.644,5.141 -2.68,5.141C-3.117,5.178 -3.264,4.959 -3.117,4.485L-3.117,3.938C-3.081,3.5 -3.063,3.172 -3.063,2.954L-3.063,2.789C-3.1,2.425 -3.136,2.079 -3.172,1.75C-3.209,1.422 -3.081,1.277 -2.789,1.313C-2.17,1.459 -1.623,1.605 -1.148,1.75C-1.003,1.824 -0.912,1.878 -0.875,1.915L-0.219,1.915C-0.073,1.586 0.109,1.35 0.328,1.204C0.219,1.167 0.091,1.131 -0.055,1.094C-0.201,1.058 -0.311,1.003 -0.383,0.93C-0.42,1.076 -0.492,1.149 -0.602,1.149L-5.141,1.149C-5.433,1.185 -5.725,1.222 -6.016,1.258C-6.125,1.331 -6.217,1.295 -6.289,1.149C-6.326,1.149 -6.362,1.113 -6.398,1.04C-6.436,1.003 -6.453,0.967 -6.453,0.93C-7.547,1.222 -8.75,1.441 -10.063,1.586C-10.209,1.586 -10.3,1.532 -10.336,1.422C-10.336,1.277 -10.281,1.185 -10.172,1.149C-7.475,0.383 -5.615,-0.747 -4.594,-2.242C-4.521,-2.424 -4.357,-2.497 -4.102,-2.46C-4.102,-2.424 -4.065,-2.406 -3.992,-2.406C-3.956,-2.369 -3.92,-2.351 -3.883,-2.351C-3.737,-2.643 -3.573,-2.934 -3.391,-3.226C-3.865,-3.262 -4.412,-3.281 -5.031,-3.281L-6.18,-3.281C-5.815,-3.098 -5.506,-2.898 -5.25,-2.679C-4.959,-1.986 -5.086,-1.531 -5.633,-1.312C-6.253,-1.239 -6.581,-1.494 -6.617,-2.078C-6.654,-2.661 -6.727,-3.062 -6.836,-3.281L-6.891,-3.281C-7.584,-2.333 -8.514,-1.567 -9.68,-0.984C-9.898,-0.875 -10.045,-0.838 -10.117,-0.875C-10.154,-0.947 -10.1,-1.075 -9.953,-1.257C-8.969,-2.606 -8.367,-3.992 -8.148,-5.414C-8.148,-5.596 -7.967,-5.669 -7.602,-5.632C-6.909,-5.523 -6.234,-5.395 -5.578,-5.25C-5.433,-5.176 -5.342,-5.067 -5.305,-4.921C-5.305,-4.739 -5.378,-4.648 -5.523,-4.648C-5.815,-4.575 -5.998,-4.465 -6.07,-4.32C-6.362,-3.992 -6.526,-3.773 -6.562,-3.664" style="fill:rgb(157,73,94);fill-rule:nonzero;"/>
            </g>
        </g>
    </g>
</svg>
