<svg width="1126" height="50" viewBox="0 0 1126 50" fill="none" xmlns="http://www.w3.org/2000/svg">
<path d="M22.9375 20.5625V13.4375C22.8125 11.3125 22.75 9.25 22.75 7.25C22.625 5.375 22.5 4.125 22.375 3.5C22 2.25 22.5 1.6875 23.875 1.8125C25.75 2.4375 27.75 3.1875 29.875 4.0625C30.25 4.3125 30.4375 4.4375 30.4375 4.4375H35.3125C35.4375 4.3125 35.5625 4.1875 35.6875 4.0625C36.8125 2.5625 37.5625 1.8125 37.9375 1.8125C40.1875 2.6875 42.375 4.125 44.5 6.125C44.75 7 44.5625 7.5625 43.9375 7.8125C43.0625 8.1875 42.625 8.5625 42.625 8.9375V25.625C42.625 29.125 42.8125 34.25 43.1875 41C43.4375 43 42.625 44.5 40.75 45.5C39.875 46 38.5625 46.5 36.8125 47C35.0625 47.375 34.125 46.9375 34 45.6875C33.625 43.8125 32.625 42.625 31 42.125C29.75 41.75 29.3125 41.375 29.6875 41C29.5625 40.875 30.125 40.875 31.375 41C34.375 41.125 35.8125 40.3125 35.6875 38.5625V27.875H29.3125C29.3125 37.25 22.25 43.5625 8.125 46.8125C7.75 46.9375 7.5 46.875 7.375 46.625C7.25 46.25 7.375 46 7.75 45.875C14.125 42.625 18.1875 39.375 19.9375 36.125C21.9375 32.875 22.9375 27.6875 22.9375 20.5625ZM1.5625 19.625V14.375C1.4375 10 1.3125 6.75 1.1875 4.625C1.0625 3.25 1.5625 2.6875 2.6875 2.9375C4.9375 3.3125 6.875 3.875 8.5 4.625C8.875 5 9.0625 5.1875 9.0625 5.1875H12.625C13.5 3.5625 14.25 2.6875 14.875 2.5625C17.625 3.5625 19.8125 4.875 21.4375 6.5C21.4375 7.125 21.125 7.5625 20.5 7.8125C20 8.0625 19.8125 8.5625 19.9375 9.3125V34.8125C19.8125 36.3125 19.125 37.3125 17.875 37.8125C17.625 37.9375 17.3125 38.0625 16.9375 38.1875C16.4375 38.4375 15.875 38.5625 15.25 38.5625C13.5 39.1875 12.75 38.375 13 36.125V34.0625H8.3125V36.875C8.3125 38.875 7.6875 40 6.4375 40.25C5.4375 40.5 4.375 40.6875 3.25 40.8125C1.125 41.3125 0.375 40.1875 1 37.4375C1.125 34.6875 1.25 31.375 1.375 27.5C1.375 24.125 1.4375 21.5 1.5625 19.625ZM8.3125 20.1875V32.75H13V20.1875H8.3125ZM29.5 26.375H35.6875V16.8125H29.6875V20C29.6875 21.875 29.625 23.1875 29.5 23.9375C29.5 24.9375 29.5 25.75 29.5 26.375ZM13 6.5H8.6875C8.3125 6.875 8.1875 7.25 8.3125 7.625V18.6875H13V6.5ZM35.6875 5.9375H30.0625C29.8125 6.3125 29.6875 6.8125 29.6875 7.4375V15.3125H35.6875V5.9375ZM52.9375 23H57.0625C57.1875 21.5 57.25 19.8125 57.25 17.9375C57.25 16.0625 57.25 13.9375 57.25 11.5625H57.0625C55.0625 15.1875 52.3125 18.5 48.8125 21.5C48.4375 21.75 48.125 21.8125 47.875 21.6875C47.75 21.5625 47.75 21.25 47.875 20.75C50.125 16 51.5625 11.4375 52.1875 7.0625C52.4375 5.5625 52.625 3.875 52.75 2C52.75 1 53.3125 0.5625 54.4375 0.6875C56.4375 1.1875 58.625 1.8125 61 2.5625C61.5 2.8125 61.75 3.125 61.75 3.5C61.625 4 61.375 4.3125 61 4.4375C60.375 4.6875 59.9375 5 59.6875 5.375C59.3125 7.125 58.6875 8.6875 57.8125 10.0625H64.1875C65.5625 7.8125 66.5625 6.625 67.1875 6.5C68.4375 6.75 70.0625 7.75 72.0625 9.5C72.1875 9.625 72.25 9.75 72.25 9.875C72.25 8.875 72.1875 8.0625 72.0625 7.4375C71.8125 6.1875 72.375 5.6875 73.75 5.9375C75.75 6.5625 77.875 7.375 80.125 8.375H82.9375C83.9375 6.625 84.8125 5.625 85.5625 5.375C87.3125 5.625 89.375 6.5625 91.75 8.1875C92.625 9.1875 92.625 10 91.75 10.625C91.125 11 90.875 11.4375 91 11.9375V24.5C91 27.75 91.125 33.1875 91.375 40.8125C91.375 41.8125 90.8125 42.5625 89.6875 43.0625C88.4375 43.3125 87.375 43.5 86.5 43.625C86.25 43.625 86.125 43.6875 86.125 43.8125C84.625 44.1875 83.9375 43.8125 84.0625 42.6875V40.25H79.1875V41.1875C79.1875 42.0625 78.625 42.75 77.5 43.25C77.25 43.25 77 43.25 76.75 43.25C75.5 43.625 74.625 43.8125 74.125 43.8125C72.625 43.9375 72 43.3125 72.25 41.9375C72.375 40.6875 72.4375 37.625 72.4375 32.75V24.3125H64C63.75 26.1875 63.4375 27.875 63.0625 29.375C66.9375 30.375 69.6875 32.3125 71.3125 35.1875C72.4375 38.3125 71.75 40.375 69.25 41.375C66.875 42.125 65.3125 40.9375 64.5625 37.8125C64.1875 35.6875 63.5 33.5625 62.5 31.4375C60.625 37.8125 55.9375 42.75 48.4375 46.25C47.6875 46.375 47.3125 46.375 47.3125 46.25C47.1875 46 47.25 45.625 47.5 45.125C47.5 45.125 47.5625 45.125 47.6875 45.125C52.9375 40.375 56 33.4375 56.875 24.3125H52.375C51 24.4375 49.8125 24.5625 48.8125 24.6875C48.4375 24.8125 48.125 24.75 47.875 24.5C47.75 24.375 47.5625 24.1875 47.3125 23.9375C47.0625 23.6875 46.9375 23.4375 46.9375 23.1875C46.8125 23.0625 46.75 22.9375 46.75 22.8125C46.875 22.6875 47.0625 22.625 47.3125 22.625C49.1875 22.875 51.0625 23 52.9375 23ZM84.0625 9.875H80.3125C80.1875 9.875 80.0625 9.875 79.9375 9.875C79.3125 9.875 79.0625 10.125 79.1875 10.625V38.75H84.0625V9.875ZM64.1875 23H65.3125C66.5625 20.625 67.625 19.3125 68.5 19.0625C69.25 19.1875 70.5625 20 72.4375 21.5V14C72.4375 13.125 72.4375 12.1875 72.4375 11.1875C72.1875 11.4375 72 11.5625 71.875 11.5625H65.875C65.875 12.0625 65.6875 12.375 65.3125 12.5C64.9375 12.875 64.75 13.4375 64.75 14.1875C64.625 15.6875 64.5 17.1875 64.375 18.6875C64.25 20.0625 64.1875 21.5 64.1875 23ZM119.875 20.5625V13.4375C119.75 11.3125 119.688 9.1875 119.688 7.0625C119.562 5.1875 119.438 4 119.312 3.5C118.938 2.25 119.438 1.6875 120.812 1.8125C122.438 2.3125 124.5 3.0625 127 4.0625C127.125 4.3125 127.312 4.4375 127.562 4.4375H130.75C131.75 3.0625 132.562 2.25 133.188 2C135.438 2.875 137.625 4.25 139.75 6.125C140.125 6.875 139.938 7.4375 139.188 7.8125C139.062 7.9375 138.938 8 138.812 8C138.062 8.5 137.75 8.875 137.875 9.125V25.625C137.875 29.125 138.062 34.25 138.438 41C138.688 42.875 137.938 44.4375 136.188 45.6875C134.438 46.1875 133.062 46.625 132.062 47C130.312 47.375 129.375 47 129.25 45.875C129 44 128 42.8125 126.25 42.3125C125.125 41.8125 124.688 41.4375 124.938 41.1875C124.688 40.9375 125.312 40.875 126.812 41C129.812 41.125 131.188 40.3125 130.938 38.5625V27.875H126.438C126.438 36 122.25 42.25 113.875 46.625C113.375 46.875 113.062 46.875 112.938 46.625C112.812 46.375 112.938 46.125 113.312 45.875C113.938 44.875 114.562 43.9375 115.188 43.0625L114.625 43.625C112.875 44.375 111.5 44.875 110.5 45.125C108.875 45.5 108 45.0625 107.875 43.8125C107.625 42.1875 106.562 41.1875 104.688 40.8125C103.562 40.6875 103.125 40.3125 103.375 39.6875C103.25 39.3125 103.875 39.1875 105.25 39.3125C108.125 39.8125 109.5 38.9375 109.375 36.6875V27.6875H106.188C105.438 35.3125 101.938 41.3125 95.6875 45.6875C95.3125 45.9375 95.0625 46 94.9375 45.875C94.6875 45.625 94.6875 45.375 94.9375 45.125C98.1875 38.5 99.8125 30.1875 99.8125 20.1875V13.8125C99.6875 12.5625 99.625 10.8125 99.625 8.5625C99.375 6.1875 99.25 4.5625 99.25 3.6875C99 2.6875 99.5625 2.25 100.938 2.375C103.188 3 105.125 3.6875 106.75 4.4375C106.75 4.5625 106.812 4.625 106.938 4.625C107.062 4.75 107.188 4.8125 107.312 4.8125H109.188C110.062 3.3125 110.938 2.4375 111.812 2.1875C114.062 3.0625 116.25 4.5 118.375 6.5C118.5 7.375 118.25 7.875 117.625 8C116.875 8.625 116.5 9.0625 116.5 9.3125V23.75C116.5 26 116.5 28.6875 116.5 31.8125C116.625 34.9375 116.75 37.3125 116.875 38.9375C116.875 39.8125 116.812 40.5 116.688 41C118.938 37.25 120 30.4375 119.875 20.5625ZM126.625 26.375H130.938V16.8125H126.625V20C126.625 22.5 126.625 24.625 126.625 26.375ZM130.938 5.9375H127C126.75 6.3125 126.625 6.8125 126.625 7.4375V15.3125H130.938V5.9375ZM106.188 26.1875H109.375V16.4375H106.562V19.625C106.438 22 106.312 24.1875 106.188 26.1875ZM109.375 6.3125H106.938C106.562 6.6875 106.438 7.1875 106.562 7.8125V15.125H109.375V6.3125ZM166.188 11.75H178C179.625 8.875 180.875 7.3125 181.75 7.0625C183.875 7.9375 186.062 9.5 188.312 11.75C188.562 12.25 188.688 12.6875 188.688 13.0625C188.562 13.3125 188.312 13.4375 187.938 13.4375C186.188 13.4375 184.375 13.4375 182.5 13.4375C180.875 13.3125 178.438 13.25 175.188 13.25H165.812C165.062 16 164.25 18.5 163.375 20.75H172.562C173.562 19.125 174.438 18.1875 175.188 17.9375C176.812 18.3125 179.062 19.625 181.938 21.875C182.812 23 182.688 23.8125 181.562 24.3125C180.562 24.5625 179.875 25.25 179.5 26.375C178 29.625 176.188 32.5 174.062 35C177.938 37.625 182.625 39.1875 188.125 39.6875C188.875 39.6875 189.25 39.9375 189.25 40.4375C189.25 40.6875 188.875 40.875 188.125 41C186.125 41.875 184.688 43.5 183.812 45.875C183.438 46.5 182.812 46.75 181.938 46.625C176.688 45 172.375 42.6875 169 39.6875C163.625 43.1875 157.25 45.4375 149.875 46.4375C148.875 46.5625 148.375 46.5625 148.375 46.4375C148.25 45.9375 148.625 45.5625 149.5 45.3125C156.375 42.6875 161.75 39.25 165.625 35C163.75 31.75 162.688 28 162.438 23.75C158.438 33.625 152.438 40.625 144.438 44.75C143.938 44.875 143.625 44.75 143.5 44.375C143.375 44 143.5 43.625 143.875 43.25C150 37.25 154.562 27.25 157.562 13.25H152.125C149.75 13.375 147.562 13.5 145.562 13.625C145.312 13.875 145 13.75 144.625 13.25C144.25 12.875 143.875 12.375 143.5 11.75C143.25 11.375 143.375 11.25 143.875 11.375C146.5 11.625 149.812 11.75 153.812 11.75H157.938C158.062 10.5 158.25 9 158.5 7.25C158.75 5.375 159 3.6875 159.25 2.1875C159.25 1.3125 159.812 1 160.938 1.25C165.062 2 167.812 2.5625 169.188 2.9375C170.188 3.6875 170.125 4.4375 169 5.1875C168 5.5625 167.438 6.125 167.312 6.875C166.938 8.625 166.562 10.25 166.188 11.75ZM172.375 22.25H163.562C164.938 25.625 166.688 28.4375 168.812 30.6875C170.438 28.0625 171.625 25.25 172.375 22.25ZM209.688 27.6875V24.125C204.312 29.5 198.438 33.625 192.062 36.5C191.562 36.75 191.25 36.75 191.125 36.5C191 36.125 191.125 35.75 191.5 35.375C200.5 26.875 206.938 17.6875 210.812 7.8125H200.875C199.5 7.9375 198.062 8 196.562 8C195.188 8.125 194.188 8.25 193.562 8.375C193.188 8.5 192.875 8.3125 192.625 7.8125C192.375 7.5625 192.125 7.125 191.875 6.5C191.625 6.375 191.5 6.25 191.5 6.125C191.5 6 191.688 5.9375 192.062 5.9375C193.062 6.1875 194.75 6.375 197.125 6.5C199.125 6.5 200.938 6.5 202.562 6.5H225.25C227.125 3 228.5 1.125 229.375 0.875C231.375 1.875 233.688 3.8125 236.312 6.6875C236.562 7.1875 236.688 7.625 236.688 8C236.562 8.25 236.312 8.3125 235.938 8.1875C231.438 8.0625 226.938 7.9375 222.438 7.8125H215.312C218.062 9.1875 219.75 9.9375 220.375 10.0625C220.875 10.5625 221.125 11.0625 221.125 11.5625C220.875 12.0625 220.438 12.3125 219.812 12.3125C218.938 12.3125 218.25 12.6875 217.75 13.4375C217.5 13.9375 217.188 14.5 216.812 15.125C216.688 15.375 216.562 15.625 216.438 15.875C216.562 16 216.75 16.0625 217 16.0625C217.125 16.1875 217.312 16.25 217.562 16.25C218.062 16.375 218.375 16.6875 218.5 17.1875C218.5 17.5625 218.25 17.875 217.75 18.125C217.25 18.5 217.062 19.0625 217.188 19.8125V27.3125C217.062 34.5625 217.188 39.625 217.562 42.5C217.562 44.5 216.875 45.6875 215.5 46.0625C214.5 46.4375 213.188 46.75 211.562 47C209.312 47.625 208.5 46.4375 209.125 43.4375C209.25 41.8125 209.375 39.6875 209.5 37.0625C209.5 33.9375 209.562 30.8125 209.688 27.6875ZM227.688 33.3125C226.062 29.3125 223.062 25.3125 218.688 21.3125C218.312 21.0625 218.125 20.8125 218.125 20.5625C218.25 20.3125 218.562 20.25 219.062 20.375C225.562 22 230.562 24.6875 234.062 28.4375C235.562 31.0625 235.312 33.3125 233.312 35.1875C230.812 36.4375 228.938 35.8125 227.688 33.3125ZM256.375 17.1875H268.562C269.312 15.8125 270.062 14.9375 270.812 14.5625C273.312 15.3125 275.562 16.625 277.562 18.5C277.688 18.875 277.375 19.3125 276.625 19.8125C276.125 19.8125 276 21.1875 276.25 23.9375C276.5 25.3125 276 26.125 274.75 26.375C274.5 26.5 274.188 26.5625 273.812 26.5625C273.312 26.6875 273 26.75 272.875 26.75C273.375 27.5 273.25 28 272.5 28.25C271.25 28.375 270.5 28.625 270.25 29C270.125 29.125 270 29.25 269.875 29.375C268.25 30.75 267.062 31.5625 266.312 31.8125H275.5C277.5 29.1875 278.875 27.8125 279.625 27.6875C281 28.1875 282.938 29.625 285.438 32C286.062 32.875 285.938 33.4375 285.062 33.6875C281.938 33.5625 277.812 33.4375 272.688 33.3125H248.125C245.25 33.4375 242.812 33.5625 240.812 33.6875C240.438 33.9375 240.125 33.8125 239.875 33.3125C239.625 33.0625 239.375 32.625 239.125 32C238.875 31.875 238.75 31.75 238.75 31.625C238.875 31.625 239.062 31.5625 239.312 31.4375C239.938 31.5625 241.312 31.6875 243.438 31.8125C245.562 31.8125 247.688 31.8125 249.812 31.8125H255.25C254.625 31.6875 254.312 31.125 254.312 30.125C254.062 28.875 253.625 27.8125 253 26.9375C251.75 27.1875 250.75 27.3125 250 27.3125C248.375 27.4375 247.75 26.8125 248.125 25.4375C248 25.1875 248 24.4375 248.125 23.1875C248.25 22.0625 248.312 21.3125 248.312 20.9375C248.188 19.0625 248.062 17.75 247.938 17C247.688 15.75 248.25 15.25 249.625 15.5C250.25 15.625 251.562 15.875 253.562 16.25C254.438 16.5 255.125 16.625 255.625 16.625C255.625 16.75 255.75 16.875 256 17C256.125 17.125 256.25 17.1875 256.375 17.1875ZM255.625 36.3125H269.312C269.938 35.1875 270.688 34.3125 271.562 33.6875C274.438 34.6875 276.75 36.0625 278.5 37.8125C278.5 38.1875 278.125 38.5625 277.375 38.9375C277.125 39.0625 276.938 39.5625 276.812 40.4375C276.812 40.9375 276.875 42.375 277 44.75C277.25 46 276.75 46.75 275.5 47C274.375 47.25 273.125 47.4375 271.75 47.5625C270.25 47.6875 269.625 47.1875 269.875 46.0625V44.5625H254.875V45.125C254.875 45.875 254.562 46.4375 253.938 46.8125C252.562 47.1875 251.062 47.4375 249.438 47.5625C247.812 47.6875 247.188 47.0625 247.562 45.6875C247.438 45.4375 247.438 44.4375 247.562 42.6875C247.688 41.3125 247.75 40.5 247.75 40.25C247.625 39.125 247.562 38.125 247.562 37.25C247.562 36.625 247.562 36.1875 247.562 35.9375C247.438 35.3125 247.438 34.9375 247.562 34.8125C247.688 34.6875 248.188 34.625 249.062 34.625C251.062 35 253.062 35.4375 255.062 35.9375C255.438 36.1875 255.625 36.3125 255.625 36.3125ZM270.438 14H250.75C248.75 14.125 247.188 14.25 246.062 14.375C245.562 14.5 245.25 14.4375 245.125 14.1875C245 14.1875 244.812 13.9375 244.562 13.4375C244.312 13.0625 244.188 12.8125 244.188 12.6875C243.938 12.5625 244.062 12.4375 244.562 12.3125C246.062 12.5625 248.438 12.6875 251.688 12.6875H258.438V8H250.75C247.75 8.125 245.312 8.25 243.438 8.375C242.938 8.5 242.625 8.375 242.5 8C242.25 7.75 241.938 7.3125 241.562 6.6875C241.438 6.4375 241.375 6.3125 241.375 6.3125C241.375 6.1875 241.562 6.125 241.938 6.125C242.562 6.25 243.938 6.375 246.062 6.5C248.062 6.5 250.125 6.5 252.25 6.5H258.438C258.312 5.75 258.25 5.0625 258.25 4.4375C258.125 3.3125 258.062 2.5625 258.062 2.1875C257.562 0.9375 258.062 0.375 259.562 0.5C261.688 0.875 264 1.25 266.5 1.625C266.875 1.75 267.062 2 267.062 2.375C266.938 2.75 266.688 3.0625 266.312 3.3125C265.812 3.6875 265.625 4.3125 265.75 5.1875V6.5H273.812C275.562 4 276.875 2.625 277.75 2.375C278.75 2.5 280.75 3.9375 283.75 6.6875C284.125 7.1875 284.25 7.625 284.125 8C284 8.25 283.688 8.3125 283.188 8.1875C282.562 8.1875 281.25 8.1875 279.25 8.1875C275.625 8.0625 272.875 8 271 8H265.75V12.6875H271.938C272.938 10.8125 274 9.5625 275.125 8.9375C276.75 9.5625 278.688 10.875 280.938 12.875C281.188 13.75 281.062 14.1875 280.562 14.1875C279.812 14.1875 278.562 14.1875 276.812 14.1875C275.062 14.0625 272.938 14 270.438 14ZM269.875 37.8125H255.25C255 38.1875 254.875 38.6875 254.875 39.3125V43.0625H269.875V37.8125ZM269.125 18.6875H255.625C255.375 18.8125 255.312 19.1875 255.438 19.8125V23.375H269.125V18.6875ZM257.688 31.8125H263.688C264.562 29.5625 265.188 27.5 265.562 25.625C265.438 24.875 266 24.625 267.25 24.875C267.75 25.125 268.375 25.3125 269.125 25.4375V24.6875H255.438V24.875C255.438 25.125 255.438 25.3125 255.438 25.4375C257.562 25.8125 258.938 26.4375 259.562 27.3125C260.438 29.5625 259.812 31.0625 257.688 31.8125ZM290.125 37.25V33.5C289.375 34.125 288.625 34.6875 287.875 35.1875C287.375 35.4375 287.062 35.5 286.938 35.375C286.812 35.25 286.875 34.9375 287.125 34.4375C288.375 32.4375 289.438 30.0625 290.312 27.3125C290.812 25.8125 291.188 24 291.438 21.875C291.188 22 290.812 22.125 290.312 22.25C289.938 22.25 289.688 22.25 289.562 22.25C288.312 22.375 287.812 21.6875 288.062 20.1875C288.188 19.5625 288.25 18.1875 288.25 16.0625C288.25 14.8125 288.25 13.875 288.25 13.25C288.125 12.875 288.125 12.625 288.25 12.5C288.375 12.375 288.75 12.3125 289.375 12.3125C290 12.4375 291.312 12.8125 293.312 13.4375C293.312 13.5625 293.375 13.625 293.5 13.625C293.5 13.625 293.562 13.6875 293.688 13.8125H294.062C294.812 12.5625 295.312 11.9375 295.562 11.9375C297.062 12.3125 298.562 13.125 300.062 14.375C300.312 14.875 300.25 15.3125 299.875 15.6875C299.5 15.9375 299.312 16.1875 299.312 16.4375V19.4375C299.188 20.0625 299.062 20.4375 298.938 20.5625C299.062 20.5625 299.25 20.5625 299.5 20.5625L300.625 20.75C300.625 20.5 300.625 20.1875 300.625 19.8125V15.6875C300.625 14.8125 300.562 13.9375 300.438 13.0625C300.312 12.5625 300.312 12.25 300.438 12.125C300.562 12 300.938 11.9375 301.562 11.9375C302.562 12.0625 303.812 12.4375 305.312 13.0625C305.312 13.1875 305.375 13.25 305.5 13.25C305.5 13.25 305.562 13.3125 305.688 13.4375H306.062C306.562 12.3125 307.062 11.75 307.562 11.75C308.938 12 310.5 12.75 312.25 14C312.5 14.625 312.375 15.0625 311.875 15.3125C311.625 15.5625 311.5 15.8125 311.5 16.0625C311.5 16.8125 311.5 17.75 311.5 18.875C311.625 19.25 311.625 19.5625 311.5 19.8125C312.125 18.0625 312.812 15.3125 313.562 11.5625C313.688 11.1875 313.812 10.75 313.938 10.25C314.562 6.5 314.875 3.6875 314.875 1.8125C314.75 1.4375 314.75 1.1875 314.875 1.0625C315 0.9375 315.312 0.875 315.812 0.875C317.562 1.25 320.25 1.9375 323.875 2.9375C324.875 3.9375 324.812 4.75 323.688 5.375C322.812 5.625 322.312 6 322.188 6.5C321.438 8.625 320.562 10.625 319.562 12.5H324.625C325.5 11 326.312 10.1875 327.062 10.0625C329.312 10.9375 331.25 12.1875 332.875 13.8125C333.375 14.5625 333.5 15.125 333.25 15.5C333.125 15.875 332.625 16.0625 331.75 16.0625C329.5 16.6875 327.438 18.0625 325.562 20.1875C325.188 20.5625 324.875 20.6875 324.625 20.5625C324.375 20.4375 324.312 20.0625 324.438 19.4375L325.188 14H318.812C318.438 14.5 318.062 15.0625 317.688 15.6875C317.312 16.4375 317 17 316.75 17.375H317.125C318.5 17.5 320.188 17.75 322.188 18.125C322.688 18.125 323.062 18.125 323.312 18.125C324.438 18.875 324.5 19.625 323.5 20.375C323 20.75 322.688 21.25 322.562 21.875C322.438 22.375 322.375 22.9375 322.375 23.5625C322.25 24.3125 322.188 24.875 322.188 25.25C324.812 33.125 328.375 38.375 332.875 41C333.375 41 333.625 41.25 333.625 41.75C333.625 42.25 333.375 42.625 332.875 42.875C331 43.375 329.562 44.6875 328.562 46.8125C327.938 47.5625 327.25 47.5625 326.5 46.8125C323.375 43.0625 321.625 37.625 321.25 30.5C319.125 39.875 313.688 45.5 304.938 47.375C304.312 47.5 303.938 47.4375 303.812 47.1875C303.688 46.9375 303.938 46.6875 304.562 46.4375C306.438 45.3125 308.062 44.125 309.438 42.875H296.125V44.75C296.125 45.75 295.688 46.4375 294.812 46.8125C293.938 47.1875 292.812 47.4375 291.438 47.5625C289.938 47.6875 289.375 46.875 289.75 45.125C290 43.25 290.125 40.625 290.125 37.25ZM301 10.25V8.1875H298.188V9.125C298.188 10.375 297.688 11.125 296.688 11.375C295.812 11.875 294.812 12.125 293.688 12.125C292.438 12.375 291.938 11.8125 292.188 10.4375C292.188 10.4375 292.188 10.1875 292.188 9.6875C292.312 9.0625 292.375 8.5625 292.375 8.1875H291.438C290.062 8.1875 289.125 8.25 288.625 8.375C288 8.5 287.625 8.375 287.5 8C287.25 7.625 287.062 7.25 286.938 6.875C286.812 6.75 286.75 6.625 286.75 6.5C286.75 6.375 286.938 6.3125 287.312 6.3125C289.188 6.5625 290.875 6.6875 292.375 6.6875V5.9375C292.375 4.6875 292.312 3.5625 292.188 2.5625C292.062 1.8125 292.062 1.375 292.188 1.25C292.312 1 292.75 0.9375 293.5 1.0625C294.75 1.1875 296.312 1.3125 298.188 1.4375C299.188 1.9375 299.375 2.5 298.75 3.125C298.375 3.5 298.188 3.875 298.188 4.25V6.6875H301C301 5.4375 300.938 4.5625 300.812 4.0625C300.812 3.4375 300.812 2.9375 300.812 2.5625C300.562 1.1875 301.062 0.625 302.312 0.875C302.562 1 304.062 1.1875 306.812 1.4375C307.312 1.5625 307.625 1.8125 307.75 2.1875C307.875 2.6875 307.75 3.0625 307.375 3.3125C306.875 3.4375 306.688 3.875 306.812 4.625V6.3125C307.938 4.5625 308.812 3.5625 309.438 3.3125C310.688 3.6875 312.125 4.8125 313.75 6.6875C314.125 7.1875 314.25 7.5625 314.125 7.8125C314 8.0625 313.688 8.1875 313.188 8.1875H306.812C306.688 8.6875 306.75 9.1875 307 9.6875C307 10.4375 306.625 10.9375 305.875 11.1875C305.125 11.5625 304 11.75 302.5 11.75C301.375 12 300.875 11.5 301 10.25ZM311.312 38H304.562V41.5625H305.875C307.125 39.9375 308.062 39 308.688 38.75C309.312 38.875 310.375 39.5 311.875 40.625C314 38 315.312 32.8125 315.812 25.0625C315.812 21.6875 315.75 19.5625 315.625 18.6875C314.25 20.4375 312.812 22.1875 311.312 23.9375C310.938 24.3125 310.625 24.4375 310.375 24.3125C310.125 24.1875 310.125 23.875 310.375 23.375C311 21.75 311.375 20.625 311.5 20C311.375 20.5 311.062 20.75 310.562 20.75C309.438 21.25 308.438 21.5 307.562 21.5C306.812 21.625 306.438 21.1875 306.438 20.1875H305.312C305.312 20.5625 305 20.8125 304.375 20.9375C303.75 21.1875 303.188 21.375 302.688 21.5C303.188 21.875 303.625 22.3125 304 22.8125C304.5 24.3125 304.125 25.375 302.875 26H304.75C304.875 25.75 305.062 25.4375 305.312 25.0625C306.312 23.5625 307 22.8125 307.375 22.8125C308.5 23.1875 309.875 24.25 311.5 26C311.75 26.375 311.812 26.6875 311.688 26.9375C311.562 27.1875 311.312 27.3125 310.938 27.3125H304.562V31.25H304.75C306.25 29.25 307.188 28.1875 307.562 28.0625C308.562 28.4375 309.812 29.5 311.312 31.25C311.562 31.875 311.625 32.25 311.5 32.375C311.5 32.625 311.25 32.6875 310.75 32.5625H304.562V36.5H305.125C306.375 34.625 307.25 33.625 307.75 33.5C308.875 33.875 310.188 34.875 311.688 36.5C311.938 37 312.062 37.375 312.062 37.625C311.938 37.875 311.688 38 311.312 38ZM294.438 20.5625H293.312C293.312 21.0625 293.062 21.375 292.562 21.5C294.688 21.875 296.5 22.3125 298 22.8125C298.375 23.0625 298.562 23.375 298.562 23.75C298.562 24.25 298.375 24.5 298 24.5C297.5 24.625 297.125 24.9375 296.875 25.4375C296.75 25.5625 296.688 25.6875 296.688 25.8125C296.562 25.9375 296.5 26 296.5 26H300.25C299.875 25.75 299.688 25.125 299.688 24.125C299.438 23.125 299.188 22.125 298.938 21.125C298.938 21.125 298.938 21 298.938 20.75C298.688 21 298.438 21.125 298.188 21.125C297.562 21.375 296.875 21.5625 296.125 21.6875C295.875 21.6875 295.688 21.6875 295.562 21.6875C294.938 21.8125 294.562 21.4375 294.438 20.5625ZM296.125 38V41.5625H298.75V38H296.125ZM296.125 32.5625V36.5H298.75V32.5625H296.125ZM296.125 28.25V31.25H298.75V27.3125H296.312C296.312 27.5625 296.25 27.75 296.125 27.875C296 28 296 28.125 296.125 28.25ZM294.438 14.9375H293.5C293.25 15.1875 293.188 15.4375 293.312 15.6875V19.4375H294.438V14.9375ZM306.438 14.5625H305.5C305.25 14.8125 305.188 15.0625 305.312 15.3125V19.0625H306.438V14.5625ZM344.5 47.9375L342.625 46.4375C342.75 46.1875 342.875 45.9375 343 45.6875C345.5 42.9375 346.875 40.75 347.125 39.125C346.875 39.125 346.688 39.125 346.562 39.125C346.438 39.25 346.312 39.3125 346.188 39.3125C343.688 39.1875 342.375 37.8125 342.25 35.1875C342.375 32.8125 343.688 31.5 346.188 31.25C348.688 31.5 350.062 33.25 350.312 36.5C350.312 39.5 348.375 43.3125 344.5 47.9375ZM416.688 19.625V23.1875C416.688 22.8125 417.062 22.8125 417.812 23.1875C422.688 25.0625 426.188 28.0625 428.312 32.1875C429.062 35.6875 428.125 38 425.5 39.125C422.875 39.625 421.312 38.125 420.812 34.625C420.312 31.125 419.062 27.625 417.062 24.125C416.812 24 416.688 23.8125 416.688 23.5625V25.8125C416.562 32.6875 416.625 37.625 416.875 40.625C417.125 42.875 416.438 44.5 414.812 45.5C412.938 46.5 411.062 47.125 409.188 47.375C407.562 47.625 406.688 47.25 406.562 46.25C406.188 44.125 405.125 42.8125 403.375 42.3125C402.375 41.9375 401.938 41.5625 402.062 41.1875C401.938 41.0625 402.562 41 403.938 41C407.938 41.625 409.75 40.375 409.375 37.25V24.875C409.375 25.125 409.188 25.25 408.812 25.25C408.188 25.5 407.875 25.875 407.875 26.375C405.875 32.625 402.438 37.3125 397.562 40.4375C396.938 40.8125 396.562 40.9375 396.438 40.8125C396.312 40.6875 396.438 40.3125 396.812 39.6875C398.562 35.6875 399.812 32.0625 400.562 28.8125C400.562 28.6875 400.562 28.375 400.562 27.875C400.938 26.5 401.188 25 401.312 23.375C401.438 22.375 401.938 21.9375 402.812 22.0625C404.688 22.3125 406.688 22.8125 408.812 23.5625C409.188 23.9375 409.375 24.125 409.375 24.125V23.5625C409.25 22.0625 409.188 20.625 409.188 19.25C409.062 17.875 408.938 16.875 408.812 16.25C408.438 14.875 408.938 14.3125 410.312 14.5625C412.062 14.8125 414.312 15.1875 417.062 15.6875C418.312 16.4375 418.5 17.1875 417.625 17.9375C416.875 18.3125 416.562 18.875 416.688 19.625ZM395.5 18.125V35.75C395.375 39.25 395.438 41.75 395.688 43.25C395.938 44.875 395.375 45.9375 394 46.4375C392.75 46.8125 391.438 47.125 390.062 47.375C387.938 48 387.188 46.875 387.812 44C387.812 43.375 387.812 42.4375 387.812 41.1875C388.188 35.6875 388.375 31.5625 388.375 28.8125V22.625C386.625 24.75 384.875 26.4375 383.125 27.6875C382.75 28.0625 382.5 28.125 382.375 27.875C382.25 27.625 382.312 27.25 382.562 26.75C385.562 20.75 387.938 14.5625 389.688 8.1875C390.312 6.4375 390.75 4.1875 391 1.4375C390.875 0.6875 391.375 0.3125 392.5 0.3125C394 0.6875 396.5 1.4375 400 2.5625C400.75 3.3125 400.75 4.0625 400 4.8125C399.125 5.1875 398.625 5.5625 398.5 5.9375C396.875 9.1875 395.438 12 394.188 14.375C394.312 14.375 394.562 14.4375 394.938 14.5625C395.312 14.5625 395.562 14.5625 395.688 14.5625C396.562 15.1875 396.688 15.8125 396.062 16.4375C395.562 16.8125 395.375 17.375 395.5 18.125ZM418.938 17.375L420.25 12.875H407.875C405.125 17.25 401.625 20.8125 397.375 23.5625C397 23.8125 396.75 23.8125 396.625 23.5625C396.5 23.4375 396.562 23.125 396.812 22.625C400.062 17.625 402.375 12.4375 403.75 7.0625C404 6.0625 404.188 5.125 404.312 4.25C404.562 3.25 404.688 2.3125 404.688 1.4375C404.688 0.5625 405.188 0.25 406.188 0.5C407.312 0.625 409.25 1.125 412 2C412.25 2.125 412.562 2.1875 412.938 2.1875C413.312 2.4375 413.562 2.8125 413.688 3.3125C413.562 3.8125 413.312 4.0625 412.938 4.0625C412.062 4.4375 411.562 4.9375 411.438 5.5625C410.562 7.6875 409.688 9.625 408.812 11.375H419.312C420.188 9.375 421.125 8.1875 422.125 7.8125C424 8.1875 426.188 9.625 428.688 12.125C429.312 12.75 429.562 13.4375 429.438 14.1875C429.312 14.9375 428.688 15.3125 427.562 15.3125C424.562 15.0625 422.062 16 420.062 18.125C419.562 18.5 419.188 18.625 418.938 18.5C418.812 18.375 418.812 18 418.938 17.375ZM463.938 7.625H460.375C460.875 8.25 460.875 8.75 460.375 9.125C459.75 9.375 459.5 9.75 459.625 10.25C459.375 22.625 458.25 31.125 456.25 35.75C454.625 40.125 450.812 43.9375 444.812 47.1875C444.062 47.4375 443.562 47.5 443.312 47.375C443.188 47.125 443.438 46.6875 444.062 46.0625C448.812 41.3125 451.5 33 452.125 21.125C452.125 19.75 452.125 18 452.125 15.875C452.25 14 452.312 11.25 452.312 7.625C451.812 7.625 451.188 7.6875 450.438 7.8125C449.938 7.8125 449.625 7.8125 449.5 7.8125C449.125 8.0625 448.875 8 448.75 7.625C448.375 7.375 448 6.9375 447.625 6.3125C447.375 6.0625 447.5 5.9375 448 5.9375C448.25 5.9375 448.938 6 450.062 6.125C452.062 6.125 453.625 6.125 454.75 6.125H463.562C463.562 6 463.688 5.8125 463.938 5.5625C465.062 4.0625 465.875 3.3125 466.375 3.3125C467.375 3.4375 469.562 4.5625 472.938 6.6875C473.812 7.6875 473.75 8.4375 472.75 8.9375C471.75 9.4375 471.125 9.9375 470.875 10.4375C469.875 14.8125 469 18.375 468.25 21.125H468.438C469.938 19.125 470.875 18.125 471.25 18.125C472.75 18.375 474.75 19.625 477.25 21.875C478 22.875 477.938 23.5625 477.062 23.9375C476.312 24.5625 475.875 25 475.75 25.25C475.625 27.875 475.438 30.4375 475.188 32.9375C474.812 35.5625 474.438 38.1875 474.062 40.8125C473.562 43.1875 472.5 44.75 470.875 45.5C469.25 46.25 467.562 46.75 465.812 47C464.188 47.375 463.312 47 463.188 45.875C462.812 43.5 461.5 42.0625 459.25 41.5625C458.5 41.3125 458.125 41.0625 458.125 40.8125C458.125 40.4375 458.562 40.25 459.438 40.25C464.438 40.75 466.938 39.8125 466.938 37.4375C467.562 33.6875 468.125 28.6875 468.625 22.4375H467.875C467.75 22.5625 467.688 22.75 467.688 23C467.688 23.125 467.625 23.1875 467.5 23.1875C467.25 23.6875 466.812 24.1875 466.188 24.6875C465.562 25.3125 464.875 25.3125 464.125 24.6875C462.75 23.9375 461.562 23.1875 460.562 22.4375C459.938 21.8125 459.938 21.1875 460.562 20.5625C461.062 20.1875 461.438 19.5 461.688 18.5C462.188 16.5 462.875 13.1875 463.75 8.5625C463.75 8.1875 463.812 7.875 463.938 7.625ZM444.25 16.8125V43.4375C444.375 44.9375 443.812 45.875 442.562 46.25C441.188 46.75 439.938 47.0625 438.812 47.1875C436.812 47.9375 436.062 46.8125 436.562 43.8125C436.688 38.6875 436.812 33.625 436.938 28.625V23.5625C435.438 25.4375 433.688 27.3125 431.688 29.1875C431.188 29.5625 430.812 29.6875 430.562 29.5625C430.312 29.4375 430.375 29.0625 430.75 28.4375C434.625 19.9375 437.188 11.0625 438.438 1.8125C438.312 0.9375 438.812 0.5 439.938 0.5C440.938 0.625 443.312 1.1875 447.062 2.1875C447.562 2.3125 448 2.375 448.375 2.375C449.375 3.125 449.375 3.9375 448.375 4.8125C447.75 4.9375 447.25 5.3125 446.875 5.9375C445.875 8.4375 444.812 10.8125 443.688 13.0625C443.812 13.1875 443.938 13.25 444.062 13.25C444.312 13.375 444.5 13.4375 444.625 13.4375C445.125 13.5625 445.438 13.875 445.562 14.375C445.562 14.75 445.375 15.0625 445 15.3125C444.375 15.4375 444.125 15.9375 444.25 16.8125ZM512.5 14.375H517.188C517.438 14.125 517.75 13.6875 518.125 13.0625C519.25 11.5625 519.938 10.8125 520.188 10.8125C521.062 10.8125 522.812 12 525.438 14.375C526.062 15.125 525.938 15.625 525.062 15.875C524.062 15.875 522.25 15.875 519.625 15.875C517.125 15.75 515.5 15.6875 514.75 15.6875H512.688C514.938 22.5625 519.062 27.0625 525.062 29.1875C526.062 29.9375 526.062 30.625 525.062 31.25C523.438 31.875 521.875 33.3125 520.375 35.5625C519.875 36.5625 519.25 36.6875 518.5 35.9375C514.125 32.3125 511.75 27.125 511.375 20.375C510.25 28.75 504 34.125 492.625 36.5C491.875 36.75 491.438 36.75 491.312 36.5C491.188 36.125 491.438 35.75 492.062 35.375C499.938 31.125 504.312 24.5625 505.188 15.6875H503.125C503 15.6875 502.75 15.75 502.375 15.875C501.875 15.875 501.562 15.875 501.438 15.875C498.188 27 491.375 33.9375 481 36.6875C480.625 36.9375 480.312 36.9375 480.062 36.6875C480.062 36.5625 480.25 36.3125 480.625 35.9375C484.5 32.6875 487.188 29.8125 488.688 27.3125C486.562 28.1875 485.438 27.3125 485.312 24.6875C485.062 23.1875 484.688 21.875 484.188 20.75C484.188 20.625 484.188 20.5625 484.188 20.5625C482.812 21.6875 481.438 22.6875 480.062 23.5625C479.562 23.9375 479.188 24.0625 478.938 23.9375C478.812 23.8125 478.938 23.5 479.312 23C481.688 19.375 483.562 14.625 484.938 8.75C485.062 7.75 485.188 6.625 485.312 5.375C485.438 4.125 485.562 3.0625 485.688 2.1875C485.562 1.5625 486 1.25 487 1.25C490.125 1.75 492.75 2.3125 494.875 2.9375C495.875 3.8125 495.812 4.5625 494.688 5.1875C493.812 5.5625 493.25 6 493 6.5C492.375 7.625 491.938 8.625 491.688 9.5H495.25C496.5 7.75 497.375 6.875 497.875 6.875C499.625 7.5 501.75 8.75 504.25 10.625C505 11.75 504.812 12.4375 503.688 12.6875C502.938 13.0625 502.375 13.5625 502 14.1875C502.875 14.4375 503.5 14.5 503.875 14.375H505.375C505.25 13.5 505.312 12.5625 505.562 11.5625C505.438 8.6875 505.312 5.9375 505.188 3.3125C505.188 2.5625 505.188 2 505.188 1.625C504.938 0.875 505.25 0.5625 506.125 0.6875C508.25 0.6875 510.812 0.9375 513.812 1.4375C514.312 1.5625 514.625 1.875 514.75 2.375C514.75 2.75 514.5 3.0625 514 3.3125C513.625 3.5625 513.375 3.8125 513.25 4.0625C516.875 3.9375 519.375 4.5 520.75 5.75C522 7.875 521.625 9.5625 519.625 10.8125C517.625 11.6875 516.375 11.3125 515.875 9.6875C515 7.6875 514 6.1875 512.875 5.1875C512.875 5.3125 512.875 5.4375 512.875 5.5625C512.75 8.8125 512.625 11.75 512.5 14.375ZM515.875 43.8125C515.625 41.0625 514.875 38.625 513.625 36.5C513.25 36.25 513.125 36 513.25 35.75C513.5 35.625 513.875 35.5625 514.375 35.5625C520 36.9375 523.25 39.3125 524.125 42.6875C524 45.3125 522.5 46.8125 519.625 47.1875C517.125 47.1875 515.875 46.0625 515.875 43.8125ZM481.75 40.8125C483.75 40.1875 485.625 38.625 487.375 36.125C487.625 35.75 487.875 35.5625 488.125 35.5625C488.375 35.6875 488.625 35.9375 488.875 36.3125C490.25 40.0625 489.812 43.1875 487.562 45.6875C484.438 48.1875 482.125 48.25 480.625 45.875C479.125 43.25 479.5 41.5625 481.75 40.8125ZM504.438 43.625C504.438 41.5 504.062 39.375 503.312 37.25C503.062 36.875 503 36.625 503.125 36.5C503.25 36.375 503.625 36.3125 504.25 36.3125C508.875 37.0625 511.562 38.9375 512.312 41.9375C512.438 44.6875 511.062 46.375 508.188 47C505.688 47.125 504.438 46 504.438 43.625ZM493.375 44C493.5 41.75 493.312 39.625 492.812 37.625C492.562 37.125 492.5 36.8125 492.625 36.6875C492.75 36.5625 493.125 36.5 493.75 36.5C498.125 37.875 500.562 40.0625 501.062 43.0625C500.938 45.8125 499.438 47.25 496.562 47.375C494.312 47.25 493.25 46.125 493.375 44ZM495.25 11H490.938C490.688 11.375 490.438 11.75 490.188 12.125C489.812 12.875 489.562 13.375 489.438 13.625C491.312 13.875 492.875 14.5 494.125 15.5C494.5 14 494.875 12.5 495.25 11ZM490.938 23.1875V23.375C491.312 22.625 491.688 21.875 492.062 21.125C490.562 21.375 489.625 20.5 489.25 18.5C489 18.25 488.812 17.8125 488.688 17.1875C488.562 16.5625 488.438 16.0625 488.312 15.6875C487.188 17.1875 486.062 18.5625 484.938 19.8125C488.188 20.3125 490.188 21.4375 490.938 23.1875ZM557.125 15.5H537.812C537.438 15.625 537.062 15.75 536.688 15.875C536.188 16.125 535.812 16.25 535.562 16.25C537.062 16.75 538.5 17.25 539.875 17.75H557.688C558.688 16.125 559.5 15.3125 560.125 15.3125C563.375 16.4375 565.688 17.75 567.062 19.25C567.062 19.875 566.75 20.3125 566.125 20.5625C565.625 20.9375 565.438 21.4375 565.562 22.0625C565.438 23.6875 565.5 25.125 565.75 26.375C565.75 27 565.812 27.5 565.938 27.875C565.938 29.125 565.562 29.875 564.812 30.125C564.062 30.625 562.938 31 561.438 31.25C563.312 32 564.688 32.8125 565.562 33.6875C565.438 34.4375 565.125 34.9375 564.625 35.1875C564.125 35.4375 563.938 35.8125 564.062 36.3125C563.938 39.8125 564 42.25 564.25 43.625C564.375 45.25 563.875 46.125 562.75 46.25C561 46.625 559.375 46.875 557.875 47C556.625 47.125 556.062 46.625 556.188 45.5V44.1875H541.75V44.9375C541.75 45.8125 541.438 46.3125 540.812 46.4375C539.438 46.8125 537.875 47.0625 536.125 47.1875C534.375 47.4375 533.75 46.75 534.25 45.125C534.25 44.75 534.25 43.8125 534.25 42.3125C534.375 40.3125 534.438 38.875 534.438 38C534.438 37.25 534.375 35.9375 534.25 34.0625C534.25 33.0625 534.25 32.375 534.25 32C534 31.75 533.938 31.5 534.062 31.25C533.812 31.25 533.688 31.25 533.688 31.25C532.188 31.5 531.562 30.8125 531.812 29.1875C531.812 28.9375 531.812 28.5625 531.812 28.0625C532.062 25.5625 532.188 23.5625 532.188 22.0625C532.188 20.4375 532.125 19.4375 532 19.0625C532 18.4375 532 17.9375 532 17.5625C531.375 17.8125 530.625 18 529.75 18.125C528.875 18.375 528.188 18.5625 527.688 18.6875C527.062 18.8125 526.625 18.75 526.375 18.5C526.375 18.25 526.625 17.9375 527.125 17.5625C535.75 12.8125 541.062 7.625 543.062 2C543.188 1 543.875 0.5625 545.125 0.6875C547.25 1.0625 549.812 1.75 552.812 2.75C553.438 3.125 553.75 3.625 553.75 4.25C553.75 4.75 553.438 5.0625 552.812 5.1875C552.688 5.1875 552.562 5.25 552.438 5.375C552.312 5.5 552.188 5.5 552.062 5.375C558.562 9.625 565.375 11.1875 572.5 10.0625C573.125 10.1875 573.5 10.4375 573.625 10.8125C573.75 11.3125 573.5 11.6875 572.875 11.9375C571.25 13.0625 570.062 14.75 569.312 17C569.188 18 568.375 18.1875 566.875 17.5625C560.125 15.5625 554.812 11.8125 550.938 6.3125C550.688 6.4375 550.438 6.625 550.188 6.875C550.188 7 550.188 7.0625 550.188 7.0625C548.062 9.6875 545 12 541 14H550.188C551.312 12 552.375 10.875 553.375 10.625C554.125 10.75 555.438 11.75 557.312 13.625C557.688 14.125 557.875 14.5625 557.875 14.9375C557.875 15.3125 557.625 15.5 557.125 15.5ZM542.688 32.375H555.438C556.188 30.875 556.938 30.0625 557.688 29.9375C557.938 29.9375 558.188 29.9375 558.438 29.9375V29H539.125C538.875 29.75 538.438 30.1875 537.812 30.3125C537.438 30.5625 537.062 30.6875 536.688 30.6875C538.562 31.3125 540.375 31.75 542.125 32C542.125 32.125 542.188 32.1875 542.312 32.1875C542.438 32.3125 542.562 32.375 542.688 32.375ZM541.75 39.125V42.6875H556.188V39.125H541.75ZM556.188 33.875H542.125C541.875 34.125 541.75 34.5 541.75 35V37.8125H556.188V33.875ZM558.438 20.9375V19.25H552.25V27.6875H552.438C552.312 27.5625 552.375 27.3125 552.625 26.9375C552.875 25.8125 553.062 24.75 553.188 23.75C553.312 22.75 553.375 21.75 553.375 20.75C553.25 20.125 553.625 19.875 554.5 20C555.75 20.25 557.062 20.5625 558.438 20.9375ZM539.125 20.5625V27.6875H545.5V25.0625C545.25 26.0625 544.562 26.6875 543.438 26.9375C541.312 27.5625 540.25 26.75 540.25 24.5C540.25 23.375 539.875 22.0625 539.125 20.5625ZM553.75 27.6875H558.438V23C557.938 23.25 557.625 23.5 557.5 23.75C556.75 24.875 555.5 26.1875 553.75 27.6875ZM545.5 23.75V19.25H540.25C539.625 19.25 539.25 19.4375 539.125 19.8125C539.25 19.8125 539.375 19.8125 539.5 19.8125C542.375 20.3125 544.312 21.375 545.312 23C545.312 23.25 545.312 23.4375 545.312 23.5625C545.312 23.6875 545.375 23.75 545.5 23.75ZM604.75 35.375H601.375V42.5H610.375C611.75 40.25 612.938 38.875 613.938 38.375C615.812 39 617.938 40.375 620.312 42.5C620.812 43.375 620.688 43.875 619.938 44C619.688 44 618.5 43.9375 616.375 43.8125C612.5 43.8125 610.125 43.8125 609.25 43.8125H582.438C581.188 43.8125 579.625 44 577.75 44.375C577.375 44.375 577.062 44.25 576.812 44C576.688 43.625 576.312 43.1875 575.688 42.6875C575.438 42.4375 575.375 42.25 575.5 42.125C575.5 42.125 575.688 42.125 576.062 42.125C577.562 42.25 580 42.375 583.375 42.5H593.875V35.375H587.312C585.312 35.5 583.75 35.625 582.625 35.75C582.25 36 581.938 35.9375 581.688 35.5625C581.562 35.5625 581.438 35.4375 581.312 35.1875C581.062 34.8125 580.875 34.4375 580.75 34.0625C580.375 33.6875 580.438 33.5625 580.938 33.6875C581.312 33.8125 582.25 33.9375 583.75 34.0625C585.25 34.0625 586.75 34.0625 588.25 34.0625H593.875V33.5C593.875 31.125 593.812 29.625 593.688 29C593.438 28.375 593.438 27.9375 593.688 27.6875C593.562 27.6875 593.562 27.625 593.688 27.5C593.812 27.5 593.875 27.4375 593.875 27.3125H584.688C584.438 27.8125 584.188 28.3125 583.938 28.8125C583.438 29.5625 582.812 29.8125 582.062 29.5625C581.188 29.3125 579.938 28.75 578.312 27.875C577.812 27.625 577.5 27.4375 577.375 27.3125C576.375 26.8125 576.312 26 577.188 24.875C577.688 24.125 578 23.375 578.125 22.625V13.0625C578 12.1875 577.938 10.9375 577.938 9.3125C577.812 7.3125 577.688 5.625 577.562 4.25C577.438 3.5 577.5 3.0625 577.75 2.9375C577.875 2.6875 578.312 2.625 579.062 2.75C581.438 3.25 583.438 3.8125 585.062 4.4375C585.562 4.6875 585.938 4.9375 586.188 5.1875H592.375C593.875 2.6875 595.062 1.375 595.938 1.25C596.688 1.125 598.312 2.4375 600.812 5.1875C601.062 5.6875 601.125 6.0625 601 6.3125C600.875 6.4375 600.625 6.5 600.25 6.5C601.25 6.75 602.625 6.8125 604.375 6.6875H610.562C611.688 5.4375 612.562 4.75 613.188 4.625C613.938 4.875 616 6.0625 619.375 8.1875C620.375 9.4375 620.312 10.25 619.188 10.625C618.062 10.875 617.312 11.4375 616.938 12.3125C615.812 14.6875 614.625 16.6875 613.375 18.3125C615.375 19.3125 617.438 19.9375 619.562 20.1875C620.438 20.3125 621 20.5625 621.25 20.9375C621.25 21.3125 620.812 21.75 619.938 22.25C618.812 23 617.75 24.375 616.75 26.375C616.375 27.5 615.688 27.75 614.688 27.125C612.188 26.25 610 24.8125 608.125 22.8125C606.25 23.9375 604 24.875 601.375 25.625C601.5 25.875 601.562 25.9375 601.562 25.8125C601.812 26.3125 601.938 26.6875 601.938 26.9375C601.812 27.1875 601.562 27.3125 601.188 27.3125H595.562C595.938 27.4375 596.5 27.5625 597.25 27.6875C599.25 27.9375 600.688 28.125 601.562 28.25C602.062 28.5 602.375 28.8125 602.5 29.1875C602.625 29.5625 602.5 29.875 602.125 30.125C601.5 30.375 601.25 30.875 601.375 31.625V34.0625H606.625C608 31.4375 609.062 30.0625 609.812 29.9375C610.938 30.3125 612.75 31.6875 615.25 34.0625C615.875 34.9375 615.75 35.4375 614.875 35.5625C612.625 35.4375 609.25 35.375 604.75 35.375ZM592.188 9.3125V11.75H592.75C593.625 9.875 594.5 8.875 595.375 8.75C596.625 8.875 598.375 9.875 600.625 11.75C601.125 12.5 601 13.1875 600.25 13.8125C599.625 14.1875 599.375 14.75 599.5 15.5C599.375 16.875 599.438 17.875 599.688 18.5C599.688 20.125 599.188 21.125 598.188 21.5C597.938 21.625 597.625 21.75 597.25 21.875C596.625 22 596.062 22.0625 595.562 22.0625C594.312 22.4375 593.688 21.8125 593.688 20.1875H593.125C592.875 20.5625 592.688 20.75 592.562 20.75C592.062 21.125 591.875 21.6875 592 22.4375V25.8125H593.5C595.125 23.4375 596.25 22.3125 596.875 22.4375C597.75 22.5625 598.812 23.1875 600.062 24.3125C602.188 22.6875 604 20.875 605.5 18.875C603.75 16.125 602.625 12.625 602.125 8.375C601.5 8.375 601.062 8.4375 600.812 8.5625C600.312 8.6875 600 8.5625 599.875 8.1875C599.625 8.0625 599.438 7.875 599.312 7.625C599.062 7.375 598.875 7.125 598.75 6.875C598.75 6.875 598.688 6.8125 598.562 6.6875C598.438 6.6875 598.438 6.625 598.562 6.5H593.312C593.438 7.125 593.25 7.5 592.75 7.625C592.375 7.875 592.188 8.4375 592.188 9.3125ZM593.688 13.25H584.875V18.875H593.688V13.25ZM610.562 8.1875H603.25C604.375 10.6875 606 12.8125 608.125 14.5625C608.125 14.3125 608.312 13.875 608.688 13.25C609.062 12.375 609.688 10.6875 610.562 8.1875ZM584.875 20.1875V25.8125H586.938V20.1875H584.875ZM584.875 8.1875V11.75H586.938V6.5H585.625C585.625 6.75 585.562 6.8125 585.438 6.6875C585.062 7.0625 584.875 7.5625 584.875 8.1875ZM645.625 27.3125H655.188V20.75H645.438C645.188 21.25 644.938 21.5625 644.688 21.6875C642.562 23.0625 640.25 24.4375 637.75 25.8125C637.75 27.0625 637.75 29.3125 637.75 32.5625C638 36.4375 638.125 39.1875 638.125 40.8125C638.125 43.1875 637.438 44.75 636.062 45.5C635.062 46 633.625 46.5 631.75 47C630.125 47.5 629.25 47.0625 629.125 45.6875C628.875 44.0625 627.625 42.8125 625.375 41.9375C625.25 41.8125 625.062 41.75 624.812 41.75C623.938 41.375 623.625 41.125 623.875 41C624 40.75 624.625 40.6875 625.75 40.8125C629.25 41.5625 630.75 40.4375 630.25 37.4375V29.5625C629.875 29.8125 629.438 30 628.938 30.125C628.312 30.375 627.875 30.5625 627.625 30.6875C627.25 30.8125 626.875 31.125 626.5 31.625C626.25 32.25 625.938 32.5625 625.562 32.5625C625.188 32.5625 624.875 32.1875 624.625 31.4375C623.625 29.6875 622.875 27.8125 622.375 25.8125C622.125 25.0625 622.438 24.5625 623.312 24.3125C624.062 24.3125 625.438 24.125 627.438 23.75C628.688 23.5 629.625 23.3125 630.25 23.1875V14.75H627.062C625.688 14.75 624.75 14.8125 624.25 14.9375C624.125 14.9375 624 15 623.875 15.125C623.5 15.125 623.312 14.9375 623.312 14.5625C623.188 14.4375 623.062 14.3125 622.938 14.1875C622.688 14.0625 622.562 13.875 622.562 13.625C622.438 13.5 622.375 13.375 622.375 13.25C622.5 13.125 622.688 13.0625 622.938 13.0625C624.562 13.3125 626.188 13.4375 627.812 13.4375H630.25V10.4375C630.125 8.8125 630.062 7.25 630.062 5.75C629.938 4.25 629.812 3.1875 629.688 2.5625C629.312 1.3125 629.812 0.8125 631.188 1.0625C632.938 1.1875 635.312 1.625 638.312 2.375C639.562 3 639.688 3.75 638.688 4.625C637.938 5.25 637.625 5.8125 637.75 6.3125V13.4375H638.125C639.375 10.9375 640.312 9.625 640.938 9.5C641.562 9.625 642.312 10 643.188 10.625H649.188V6.875C649.188 5 649.062 3.4375 648.812 2.1875C648.562 1.5625 648.562 1.125 648.812 0.875C648.938 0.75 649.5 0.6875 650.5 0.6875C653.375 1.0625 655.625 1.5625 657.25 2.1875C657.875 2.5625 657.812 3.125 657.062 3.875C656.562 4.25 656.375 4.8125 656.5 5.5625V10.625H658.375C659.875 8 661.062 6.5 661.938 6.125C664.062 7.125 666.062 8.625 667.938 10.625C668.312 11.5 668.062 11.9375 667.188 11.9375C666.188 11.9375 664.875 11.9375 663.25 11.9375C661.75 11.8125 659.625 11.75 656.875 11.75H656.5V19.625H660.438C662.062 16.75 663.188 15.25 663.812 15.125C665.562 15.875 667.438 17.375 669.438 19.625C669.688 20.5 669.438 20.9375 668.688 20.9375C668.312 20.9375 667.688 20.9375 666.812 20.9375C665.438 20.8125 664.438 20.75 663.812 20.75C663.938 21.375 663.812 21.8125 663.438 22.0625C662.812 22.3125 662.562 22.75 662.688 23.375V23.9375C663.438 23.1875 663.875 22.8125 664 22.8125C665.75 23.6875 667.562 25.1875 669.438 27.3125C669.688 28.1875 669.438 28.625 668.688 28.625C667.688 28.5 665.688 28.4375 662.688 28.4375C662.562 35.6875 662.625 39.875 662.875 41C662.875 43.625 662.188 45.3125 660.812 46.0625C659.562 46.6875 658.125 47.125 656.5 47.375C654.875 47.75 653.938 47.375 653.688 46.25C653.562 44.5 651.938 43.25 648.812 42.5C647.812 42.125 647.375 41.75 647.5 41.375C647.375 41.125 647.938 41 649.188 41C649.562 41 650.125 41 650.875 41C651.625 41.125 652.188 41.25 652.562 41.375C654.562 41.75 655.438 40.625 655.188 38V28.4375H645.062C649.062 29.3125 651.625 30.9375 652.75 33.3125C653.5 35.6875 652.75 37.5625 650.5 38.9375C647.75 39.6875 646.188 38.9375 645.812 36.6875C645.812 34.0625 645.375 31.5625 644.5 29.1875C644.375 29.1875 644.312 29.125 644.312 29C644.188 28.875 644.188 28.6875 644.312 28.4375C643.562 28.5625 642.812 28.6875 642.062 28.8125C641.562 28.9375 641.25 28.8125 641.125 28.4375C641 28.4375 640.812 28.375 640.562 28.25C640.312 28 640.188 27.75 640.188 27.5C639.938 27.25 639.812 27.0625 639.812 26.9375C639.812 26.9375 640 26.9375 640.375 26.9375C642.25 27.1875 644 27.3125 645.625 27.3125ZM646 14.75H637.75V21.6875C638.75 21.5625 639.75 21.3125 640.75 20.9375C640.75 21.0625 640.688 21 640.562 20.75C640.438 20.75 640.25 20.6875 640 20.5625C639.75 20.3125 639.625 20.0625 639.625 19.8125C639.375 19.6875 639.25 19.5625 639.25 19.4375C639.375 19.3125 639.562 19.25 639.812 19.25C641.938 19.5 643.75 19.625 645.25 19.625H649.188V11.75H644.875C645.625 12.375 646.188 12.9375 646.562 13.4375C646.812 14.3125 646.625 14.75 646 14.75ZM696.062 11.9375V7.8125C695.938 6.3125 695.812 5 695.688 3.875C695.438 3.375 695.438 3 695.688 2.75C696.062 2.5 696.5 2.4375 697 2.5625C698.25 2.8125 699.875 3.25 701.875 3.875C702.125 4 702.438 4.0625 702.812 4.0625C702.938 4.3125 703.062 4.375 703.188 4.25H707.125C708.375 2.375 709.375 1.3125 710.125 1.0625C713.375 2.4375 715.75 4.0625 717.25 5.9375C717.25 6.6875 716.938 7.1875 716.312 7.4375C715.438 7.6875 715.062 8.1875 715.188 8.9375V20.1875C715.062 23.3125 715.125 28.375 715.375 35.375C715.375 37.375 715.438 38.875 715.562 39.875C715.812 42.25 715.125 43.875 713.5 44.75C713.25 44.75 713.062 44.8125 712.938 44.9375C711.688 45.8125 710.375 46.4375 709 46.8125C707.25 47.1875 706.312 46.75 706.188 45.5C705.938 43.25 704.75 41.9375 702.625 41.5625C701.5 41.1875 701.062 40.875 701.312 40.625C701.312 40 701.938 39.8125 703.188 40.0625C707.312 40.6875 709.125 39.625 708.625 36.875V17.5625H702.25C702 18.1875 701.562 18.5625 700.938 18.6875C700.812 18.8125 700.562 18.875 700.188 18.875C698.938 19.25 698 19.375 697.375 19.25C695.875 19.375 695.312 18.5625 695.688 16.8125C695.812 15.3125 695.938 13.6875 696.062 11.9375ZM673.375 20.375V11.9375C673.25 10.1875 673.188 8.625 673.188 7.25C673.062 5.875 672.938 4.8125 672.812 4.0625C672.438 2.6875 672.938 2.125 674.312 2.375C675.188 2.625 676.688 3.0625 678.812 3.6875C679.438 3.8125 680.062 3.9375 680.688 4.0625C680.812 4.0625 680.938 4.125 681.062 4.25C681.188 4.25 681.312 4.25 681.438 4.25H685.375C685.5 4 685.562 3.9375 685.562 4.0625C686.562 2.4375 687.25 1.625 687.625 1.625C689.5 2.25 691.5 3.4375 693.625 5.1875C693.875 5.9375 693.688 6.4375 693.062 6.6875C692.438 7.0625 692.125 7.6875 692.125 8.5625C692.125 9.5625 692.125 10.9375 692.125 12.6875C692.25 14.1875 692.375 15.25 692.5 15.875C692.75 17.375 692.375 18.25 691.375 18.5C689.75 19 688.438 19.25 687.438 19.25C686.312 19.375 685.812 18.8125 685.938 17.5625H680.125V27.5C680.125 29.625 680.125 32.4375 680.125 35.9375C680.25 39.1875 680.312 41.5625 680.312 43.0625C680.312 44.4375 679.75 45.375 678.625 45.875C678.375 45.875 678.188 45.875 678.062 45.875C676.938 46.375 676 46.625 675.25 46.625C673.25 47 672.438 46.0625 672.812 43.8125C672.938 41.6875 673.062 38.625 673.188 34.625C673.188 30.625 673.25 25.875 673.375 20.375ZM684.625 29V27.3125C684.5 25.5625 684.375 24 684.25 22.625C683.875 21.75 684.312 21.3125 685.562 21.3125C687.938 21.8125 689.938 22.3125 691.562 22.8125C691.688 22.9375 691.875 23.0625 692.125 23.1875H696.25C697.125 21.5625 697.875 20.6875 698.5 20.5625C700.75 21.3125 703 22.5625 705.25 24.3125C705.25 24.8125 704.938 25.3125 704.312 25.8125C703.938 26.0625 703.75 26.5 703.75 27.125C703.75 29.625 703.875 32.125 704.125 34.625C704.25 36 703.875 36.8125 703 37.0625C702.375 37.1875 701.5 37.375 700.375 37.625C699.625 37.75 699.125 37.8125 698.875 37.8125C697.375 38.0625 696.688 37.5 696.812 36.125V34.25H691.375V35.75C691.375 37.375 690.812 38.25 689.688 38.375C689.312 38.5 688.562 38.625 687.438 38.75C686.688 38.875 686.188 38.9375 685.938 38.9375C684.688 39.0625 684.188 38.3125 684.438 36.6875C684.438 35.9375 684.438 34.9375 684.438 33.6875C684.562 32.6875 684.625 31.125 684.625 29ZM696.812 24.6875H691.562C691.312 24.9375 691.25 25.375 691.375 26V32.75H696.812V24.6875ZM702.438 11.5625V16.0625H708.625V11.5625H702.438ZM708.625 5.75H703.375C702.625 6.125 702.312 6.8125 702.438 7.8125V10.25H708.625V5.75ZM680.125 11.5625V16.0625H685.938V11.5625H680.125ZM685.938 5.75H681.25C681.125 5.75 681.062 5.75 681.062 5.75C680.312 6.25 680 7.125 680.125 8.375V10.25H685.938V5.75ZM723.625 18.875V13.0625C723.625 11.3125 723.562 10.0625 723.438 9.3125C723.438 8.4375 723.438 7.625 723.438 6.875C723.062 6 723.5 5.5625 724.75 5.5625C725.625 5.6875 727.938 6.0625 731.688 6.6875C732.438 7.1875 732.438 7.75 731.688 8.375C731.188 8.75 731 9.375 731.125 10.25V20.5625H737.688V9.875C737.562 6.75 737.438 4.1875 737.312 2.1875C737.062 1.4375 737 1 737.125 0.875C737.25 0.625 737.75 0.5 738.625 0.5C740.5 0.625 742.938 1.0625 745.938 1.8125C747.188 2.3125 747.375 3.0625 746.5 4.0625C745.625 4.5625 745.25 5.0625 745.375 5.5625V20.5625H752.875V12.3125C752.75 9.9375 752.625 8.125 752.5 6.875C752.125 5.75 752.562 5.25 753.812 5.375C755.938 5.5 758.25 5.8125 760.75 6.3125C761.625 6.9375 761.688 7.625 760.938 8.375C760.312 8.75 760.062 9.1875 760.188 9.6875V17.375C760.188 17.875 760.188 18.5625 760.188 19.4375C760.312 20.6875 760.375 21.5625 760.375 22.0625C760.5 23.5625 760.062 24.4375 759.062 24.6875C758.312 25.0625 756.875 25.375 754.75 25.625C753.25 25.875 752.562 25.375 752.688 24.125C752.562 24 752.562 23.625 752.688 23C752.688 22.5 752.75 22.1875 752.875 22.0625H745.375V41H753.625V33.5C753.5 32.125 753.375 30.125 753.25 27.5C752.875 26.375 753.375 25.875 754.75 26C756.75 26.125 758.938 26.5 761.312 27.125C761.938 27.5 762.25 27.875 762.25 28.25C762.375 28.625 762.188 28.9375 761.688 29.1875C761.312 29.6875 761.125 30.1875 761.125 30.6875C761.125 32.4375 761.125 35 761.125 38.375C761.25 40.875 761.375 42.6875 761.5 43.8125C761.625 45.1875 761.188 46.125 760.188 46.625C758.688 47 757.125 47.3125 755.5 47.5625C753.75 47.8125 753.062 47.25 753.438 45.875C753.438 44.625 753.438 43.5 753.438 42.5H729.625C728.75 43.875 728.125 44.875 727.75 45.5C727.125 46 726.5 46.125 725.875 45.875C724.125 45.125 722.5 44.1875 721 43.0625C720.25 42.5625 720.25 41.9375 721 41.1875C721.875 40.6875 722.312 39.625 722.312 38V33.125C722.312 31.5 722.25 30.3125 722.125 29.5625C722.125 28.5625 722.062 27.625 721.938 26.75C721.688 25.5 722.188 25 723.438 25.25C725.062 25.375 727.25 25.75 730 26.375C731 27 731.062 27.625 730.188 28.25C729.688 28.5 729.5 29.125 729.625 30.125V41H737.688V22.0625H731.312C731.062 22.4375 730.75 22.875 730.375 23.375C730.125 24.125 729.875 24.5625 729.625 24.6875C729.25 25.3125 728.688 25.4375 727.938 25.0625C725.312 24.3125 723.5 23.5 722.5 22.625C722.125 22.5 722.062 22.1875 722.312 21.6875C722.312 21.6875 722.375 21.625 722.5 21.5C723.25 20.625 723.625 19.75 723.625 18.875ZM800.688 19.625V23.1875C800.688 22.8125 801.062 22.8125 801.812 23.1875C806.688 25.0625 810.188 28.0625 812.312 32.1875C813.062 35.6875 812.125 38 809.5 39.125C806.875 39.625 805.312 38.125 804.812 34.625C804.312 31.125 803.062 27.625 801.062 24.125C800.812 24 800.688 23.8125 800.688 23.5625V25.8125C800.562 32.6875 800.625 37.625 800.875 40.625C801.125 42.875 800.438 44.5 798.812 45.5C796.938 46.5 795.062 47.125 793.188 47.375C791.562 47.625 790.688 47.25 790.562 46.25C790.188 44.125 789.125 42.8125 787.375 42.3125C786.375 41.9375 785.938 41.5625 786.062 41.1875C785.938 41.0625 786.562 41 787.938 41C791.938 41.625 793.75 40.375 793.375 37.25V24.875C793.375 25.125 793.188 25.25 792.812 25.25C792.188 25.5 791.875 25.875 791.875 26.375C789.875 32.625 786.438 37.3125 781.562 40.4375C780.938 40.8125 780.562 40.9375 780.438 40.8125C780.312 40.6875 780.438 40.3125 780.812 39.6875C782.562 35.6875 783.812 32.0625 784.562 28.8125C784.562 28.6875 784.562 28.375 784.562 27.875C784.938 26.5 785.188 25 785.312 23.375C785.438 22.375 785.938 21.9375 786.812 22.0625C788.688 22.3125 790.688 22.8125 792.812 23.5625C793.188 23.9375 793.375 24.125 793.375 24.125V23.5625C793.25 22.0625 793.188 20.625 793.188 19.25C793.062 17.875 792.938 16.875 792.812 16.25C792.438 14.875 792.938 14.3125 794.312 14.5625C796.062 14.8125 798.312 15.1875 801.062 15.6875C802.312 16.4375 802.5 17.1875 801.625 17.9375C800.875 18.3125 800.562 18.875 800.688 19.625ZM779.5 18.125V35.75C779.375 39.25 779.438 41.75 779.688 43.25C779.938 44.875 779.375 45.9375 778 46.4375C776.75 46.8125 775.438 47.125 774.062 47.375C771.938 48 771.188 46.875 771.812 44C771.812 43.375 771.812 42.4375 771.812 41.1875C772.188 35.6875 772.375 31.5625 772.375 28.8125V22.625C770.625 24.75 768.875 26.4375 767.125 27.6875C766.75 28.0625 766.5 28.125 766.375 27.875C766.25 27.625 766.312 27.25 766.562 26.75C769.562 20.75 771.938 14.5625 773.688 8.1875C774.312 6.4375 774.75 4.1875 775 1.4375C774.875 0.6875 775.375 0.3125 776.5 0.3125C778 0.6875 780.5 1.4375 784 2.5625C784.75 3.3125 784.75 4.0625 784 4.8125C783.125 5.1875 782.625 5.5625 782.5 5.9375C780.875 9.1875 779.438 12 778.188 14.375C778.312 14.375 778.562 14.4375 778.938 14.5625C779.312 14.5625 779.562 14.5625 779.688 14.5625C780.562 15.1875 780.688 15.8125 780.062 16.4375C779.562 16.8125 779.375 17.375 779.5 18.125ZM802.938 17.375L804.25 12.875H791.875C789.125 17.25 785.625 20.8125 781.375 23.5625C781 23.8125 780.75 23.8125 780.625 23.5625C780.5 23.4375 780.562 23.125 780.812 22.625C784.062 17.625 786.375 12.4375 787.75 7.0625C788 6.0625 788.188 5.125 788.312 4.25C788.562 3.25 788.688 2.3125 788.688 1.4375C788.688 0.5625 789.188 0.25 790.188 0.5C791.312 0.625 793.25 1.125 796 2C796.25 2.125 796.562 2.1875 796.938 2.1875C797.312 2.4375 797.562 2.8125 797.688 3.3125C797.562 3.8125 797.312 4.0625 796.938 4.0625C796.062 4.4375 795.562 4.9375 795.438 5.5625C794.562 7.6875 793.688 9.625 792.812 11.375H803.312C804.188 9.375 805.125 8.1875 806.125 7.8125C808 8.1875 810.188 9.625 812.688 12.125C813.312 12.75 813.562 13.4375 813.438 14.1875C813.312 14.9375 812.688 15.3125 811.562 15.3125C808.562 15.0625 806.062 16 804.062 18.125C803.562 18.5 803.188 18.625 802.938 18.5C802.812 18.375 802.812 18 802.938 17.375ZM847.938 25.8125H839.688C839.188 26.0625 838.688 26.5 838.188 27.125C837.812 27.5 837.438 27.875 837.062 28.25C836.188 29.25 835.5 29.875 835 30.125H848.5C849.375 28.625 850.188 27.75 850.938 27.5C853.688 28.5 855.875 29.875 857.5 31.625C857.625 32.125 857.375 32.625 856.75 33.125C856.125 33.5 855.812 33.875 855.812 34.25C855.812 35.25 855.875 36.75 856 38.75C856 39.75 856.062 40.5 856.188 41C856.438 43.375 855.812 45.0625 854.312 46.0625C852.812 46.5625 851.5 47 850.375 47.375C848.5 47.625 847.562 47.1875 847.562 46.0625C847.188 44.6875 846.562 43.8125 845.688 43.4375C845.688 43.9375 845.188 44.375 844.188 44.75C844.062 44.75 843.938 44.75 843.812 44.75C842.562 45.125 841.438 45.3125 840.438 45.3125C839.312 45.6875 838.812 45 838.938 43.25C838.938 42.125 838.938 41.1875 838.938 40.4375C839.062 39.4375 839.125 38.4375 839.125 37.4375V31.625H836.312V43.25C836.312 44.375 835.75 45.0625 834.625 45.3125C834.5 45.3125 834.375 45.3125 834.25 45.3125C833 45.6875 831.938 45.875 831.062 45.875C829.688 46.25 829.125 45.5625 829.375 43.8125C829.375 42.6875 829.375 41.75 829.375 41C829.5 40 829.562 39 829.562 38V31.625H827.688C827.688 31.75 827.625 31.875 827.5 32C827 32.25 826.75 32.6875 826.75 33.3125V43.625C826.75 45.25 826.188 46.1875 825.062 46.4375C823.688 46.8125 822.5 47.0625 821.5 47.1875C819.875 47.3125 819.25 46.6875 819.625 45.3125C819.875 41.0625 820 37.75 820 35.375C820 35.125 819.938 34.1875 819.812 32.5625C819.688 31.0625 819.688 30.125 819.812 29.75C819.688 29 819.688 28.5625 819.812 28.4375C819.938 28.3125 820.375 28.25 821.125 28.25C821.875 28.375 823.375 28.75 825.625 29.375C826.125 29.625 826.625 29.75 827.125 29.75C827.25 30 827.438 30.125 827.688 30.125H832.375C832.5 29 832.562 27.5625 832.562 25.8125H819.625C818.75 25.8125 817.688 25.875 816.438 26C815.938 26.25 815.625 26.1875 815.5 25.8125C815.375 25.6875 815.188 25.5 814.938 25.25C814.688 25 814.562 24.75 814.562 24.5C814.312 24.375 814.188 24.25 814.188 24.125C814.312 24 814.5 23.9375 814.75 23.9375C816.5 24.3125 818.625 24.4375 821.125 24.3125H850.938C853.062 21.5625 854.438 20.125 855.062 20C856.812 20.75 858.75 22.3125 860.875 24.6875C861.25 25.1875 861.375 25.5625 861.25 25.8125C861.125 26.0625 860.812 26.125 860.312 26C858.438 26 856.625 26 854.875 26C853.375 25.875 851.062 25.8125 847.938 25.8125ZM821.875 9.6875H834.25V5.75H824.688C823.688 5.875 822.75 6 821.875 6.125C821.625 6.125 821.438 6.125 821.312 6.125C820.938 6.25 820.625 6.125 820.375 5.75C820.25 5.75 820.125 5.625 820 5.375C819.625 5 819.438 4.6875 819.438 4.4375C819.188 4.3125 819.062 4.1875 819.062 4.0625C819.188 4.0625 819.375 4 819.625 3.875C821.375 4.25 823.5 4.375 826 4.25H846.625C848.125 2.125 849.375 0.875 850.375 0.5C851.75 1 853.5 2.375 855.625 4.625C855.875 5 855.938 5.375 855.812 5.75C855.688 6 855.438 6.125 855.062 6.125C853.062 6 851.312 5.9375 849.812 5.9375C848.562 5.8125 846.5 5.75 843.625 5.75H841.188V9.6875H852.438C853.562 8.0625 854.438 7.25 855.062 7.25C856.812 7.875 858.75 9.1875 860.875 11.1875C861.5 12.0625 861.75 12.75 861.625 13.25C861.5 13.625 860.75 13.875 859.375 14C857.125 14 855.312 14.75 853.938 16.25C853.062 17.125 852.5 17.5 852.25 17.375C852 17.25 852 16.625 852.25 15.5C852.25 14.75 852.438 13.3125 852.812 11.1875H841.188V15.125C841.188 15.625 841.188 16.375 841.188 17.375C841.312 19 841.375 20.1875 841.375 20.9375C841.375 22.0625 840.812 22.8125 839.688 23.1875C838.312 23.6875 836.938 24 835.562 24.125C834.562 24.25 834.125 23.6875 834.25 22.4375C834.25 21.3125 834.25 19.3125 834.25 16.4375C834.25 15.6875 834.25 14.9375 834.25 14.1875V11.1875H822.812C823.312 12.6875 823.438 14 823.188 15.125C822.062 17.75 820.25 18.875 817.75 18.5C815.5 17.5 815.188 15.875 816.812 13.625C818.062 12.5 818.938 10.875 819.438 8.75C819.688 8 820.188 7.875 820.938 8.375C821.312 8.875 821.625 9.3125 821.875 9.6875ZM848.875 38.375V31.625H845.875V41.5625C848 41.9375 849 40.875 848.875 38.375ZM833.5 16.0625H824.5V14.5625H833.5V16.0625ZM833.312 20.75H824.5V19.4375H833.312V20.75ZM851.312 20.75H842.5V19.4375H851.312V20.75ZM851.125 16.0625H842.5V14.5625H851.125V16.0625ZM875.125 23.375V23.75C875.125 24.625 874.375 25.25 872.875 25.625C871.875 25.875 870.75 26.0625 869.5 26.1875C868 26.5625 867.375 25.9375 867.625 24.3125C867.625 23.8125 867.625 23.0625 867.625 22.0625C867.875 20.3125 868 18.6875 868 17.1875C867.875 16.5625 867.812 15.5 867.812 14C867.688 12.375 867.625 11.25 867.625 10.625C867.375 9.375 867.875 8.875 869.125 9.125C870.875 9.5 873.125 10.3125 875.875 11.5625H878.312V5.75H871.938C870.688 5.875 869.312 5.9375 867.812 5.9375C866.438 6.0625 865.375 6.1875 864.625 6.3125C864.25 6.5625 863.938 6.4375 863.688 5.9375C863.312 5.4375 862.938 4.875 862.562 4.25C862.438 4.125 862.438 4 862.562 3.875C862.562 3.875 862.75 3.875 863.125 3.875C864.25 4 866.125 4.1875 868.75 4.4375C871 4.4375 872.688 4.4375 873.812 4.4375H898.562C900.438 1.8125 901.75 0.4375 902.5 0.3125C903.75 0.5625 905.812 1.875 908.688 4.25C909.438 5.375 909.25 6 908.125 6.125C907.5 6.125 906.625 6.125 905.5 6.125C901.375 5.875 898 5.75 895.375 5.75H893.875V11.5625H895.938C897.312 9.8125 898.438 8.8125 899.312 8.5625C901.062 8.8125 903.125 9.875 905.5 11.75C906.25 12.75 906.188 13.4375 905.312 13.8125C904.688 14.1875 904.375 14.75 904.375 15.5C904.375 16.75 904.438 18.1875 904.562 19.8125C904.562 20.9375 904.625 21.8125 904.75 22.4375C904.875 23.5625 904.5 24.3125 903.625 24.6875C905 25.1875 906.812 26.5 909.062 28.625C909.688 30 909.438 30.6875 908.312 30.6875C907.312 30.6875 905.875 30.6875 904 30.6875C902 30.5625 900.5 30.5 899.5 30.5C899.375 30.75 899.062 31.0625 898.562 31.4375C898.438 31.4375 898.375 31.4375 898.375 31.4375C897.875 31.5625 897.5 31.9375 897.25 32.5625C896.875 33.0625 896.562 33.5625 896.312 34.0625C896.062 34.6875 895.5 35.5625 894.625 36.6875C895.25 36.9375 895.938 37.125 896.688 37.25C898.688 37.75 900.188 38.125 901.188 38.375C904.688 39.875 906.375 41.875 906.25 44.375C905.875 46 904.812 47 903.062 47.375C901.812 47.375 900.375 46.6875 898.75 45.3125C896.375 43.4375 893.625 42 890.5 41C885.75 44.875 877.438 46.9375 865.562 47.1875C864.938 47.0625 864.562 46.875 864.438 46.625C864.438 46.25 864.75 46 865.375 45.875C873.125 43.875 879 41.3125 883 38.1875C882.625 38.1875 882.062 38.125 881.312 38C880.438 37.75 879.812 37.5625 879.438 37.4375L879.25 37.625C878.875 38 878.5 38.5 878.125 39.125C877.5 39.75 876.812 39.8125 876.062 39.3125C875.812 39.3125 875.5 39.125 875.125 38.75C873.25 37.625 872.062 36.75 871.562 36.125C871.062 35.625 871.312 35.0625 872.312 34.4375C872.562 34.3125 873 33.875 873.625 33.125L875.5 30.5H871.188C868.438 30.625 866.062 30.75 864.062 30.875C863.688 31 863.375 30.875 863.125 30.5C862.875 30.375 862.688 30.125 862.562 29.75C862.438 29.5 862.312 29.25 862.188 29C862.062 28.625 862.188 28.4375 862.562 28.4375C863.438 28.6875 864.812 28.875 866.688 29C868.688 29 870.75 29 872.875 29H876.438L880.375 23.375H875.125ZM897.062 23.375H890.312C890.312 24 889.938 24.4375 889.188 24.6875C888.562 24.6875 888 25.0625 887.5 25.8125L885.25 29H899.125C900 27.5 900.875 26.3125 901.75 25.4375C901.375 25.4375 900.875 25.5625 900.25 25.8125C899.875 25.8125 899.562 25.8125 899.312 25.8125C897.688 26.3125 896.938 25.9375 897.062 24.6875V23.375ZM897.25 13.0625H893.875V21.875H897.25V13.0625ZM884.5 13.0625V21.875H887.688V13.0625H884.5ZM875.125 14.1875V21.875H878.312V13.0625H876.25C875.375 13.0625 875 13.4375 875.125 14.1875ZM889.562 30.5H884.312L880.938 35.375C881.438 35.375 882.25 35.4375 883.375 35.5625C884.375 35.5625 885.125 35.5625 885.625 35.5625C887.125 34.0625 888.438 32.375 889.562 30.5ZM884.5 5.75V11.5625H887.688V5.75H884.5ZM912.625 31.8125V20.375C912.625 18.125 912.562 16.4375 912.438 15.3125C912.438 13.9375 912.375 12.625 912.25 11.375C912.125 10 912.562 9.5 913.562 9.875C915.438 10.5 917.438 11.3125 919.562 12.3125H919.938C919.938 10.4375 919.938 8.625 919.938 6.875C919.938 5.125 919.938 3.5 919.938 2C919.688 1.25 920.062 0.9375 921.062 1.0625C923.062 1.1875 925.125 1.5 927.25 2C928 2.125 928.375 2.4375 928.375 2.9375C928.5 3.3125 928.25 3.625 927.625 3.875C927 4.375 926.562 4.9375 926.312 5.5625C925.188 8.0625 923.938 10.3125 922.562 12.3125H926.5C927.625 10.6875 928.5 9.8125 929.125 9.6875C931.625 10.5625 933.688 11.9375 935.312 13.8125C935.312 14.4375 935 14.875 934.375 15.125C933.75 15.5 933.5 15.9375 933.625 16.4375V21.875C936 14.5 937.375 7.8125 937.75 1.8125C937.625 1.1875 937.938 0.875 938.688 0.875C941.438 1.375 944.125 2.0625 946.75 2.9375C947.25 3.3125 947.5 3.6875 947.5 4.0625C947.375 4.4375 947.062 4.75 946.562 5C945.562 5.5 945 6.125 944.875 6.875C944.25 8.875 943.562 10.6875 942.812 12.3125H947.5C949 10.3125 950.062 9.25 950.688 9.125C954.062 10.625 956.375 12.125 957.625 13.625C957.625 14.25 957.25 14.75 956.5 15.125C955.75 15.5 955.438 15.9375 955.562 16.4375C955.438 29.4375 955.188 37.625 954.812 41C954.312 44.5 951.5 46.625 946.375 47.375C944.875 47.625 944 47.3125 943.75 46.4375C943 43.5625 941.312 41.75 938.688 41C937.438 41 937 40.6875 937.375 40.0625C937.25 39.5625 937.75 39.4375 938.875 39.6875C942 40.1875 944.062 40.375 945.062 40.25C946.062 40.125 946.688 39.5 946.938 38.375C947.688 31.375 948.125 23.1875 948.25 13.8125H942.062C940.812 16.3125 939.438 18.625 937.938 20.75C942.562 22.125 945.125 24.625 945.625 28.25C945.625 31.375 944.25 33 941.5 33.125C939.25 33.375 938 32.3125 937.75 29.9375C937.875 27.4375 937.438 24.9375 936.438 22.4375C936.188 22.6875 935.938 22.9375 935.688 23.1875C934.812 24.0625 934.125 24.6875 933.625 25.0625V27.6875C933.625 30.9375 933.812 35.375 934.188 41C934.188 41.875 933.75 42.5 932.875 42.875C931.25 43.25 929.875 43.5 928.75 43.625C927.125 43.875 926.438 43.5 926.688 42.5V39.875H919.375V42.125C919.375 43.625 918.75 44.5 917.5 44.75C916.375 45 915.25 45.1875 914.125 45.3125C912.375 45.5625 911.75 44.8125 912.25 43.0625C912.375 39.8125 912.5 36.0625 912.625 31.8125ZM926.688 13.8125H920.125C919.5 14.1875 919.25 14.75 919.375 15.5V25.625H926.688V13.8125ZM919.375 27.125V38.375H926.688V27.125H919.375ZM984.062 11.9375V7.8125C983.938 6.3125 983.812 5 983.688 3.875C983.438 3.375 983.438 3 983.688 2.75C984.062 2.5 984.5 2.4375 985 2.5625C986.25 2.8125 987.875 3.25 989.875 3.875C990.125 4 990.438 4.0625 990.812 4.0625C990.938 4.3125 991.062 4.375 991.188 4.25H995.125C996.375 2.375 997.375 1.3125 998.125 1.0625C1001.38 2.4375 1003.75 4.0625 1005.25 5.9375C1005.25 6.6875 1004.94 7.1875 1004.31 7.4375C1003.44 7.6875 1003.06 8.1875 1003.19 8.9375V20.1875C1003.06 23.3125 1003.12 28.375 1003.38 35.375C1003.38 37.375 1003.44 38.875 1003.56 39.875C1003.81 42.25 1003.12 43.875 1001.5 44.75C1001.25 44.75 1001.06 44.8125 1000.94 44.9375C999.688 45.8125 998.375 46.4375 997 46.8125C995.25 47.1875 994.312 46.75 994.188 45.5C993.938 43.25 992.75 41.9375 990.625 41.5625C989.5 41.1875 989.062 40.875 989.312 40.625C989.312 40 989.938 39.8125 991.188 40.0625C995.312 40.6875 997.125 39.625 996.625 36.875V17.5625H990.25C990 18.1875 989.562 18.5625 988.938 18.6875C988.812 18.8125 988.562 18.875 988.188 18.875C986.938 19.25 986 19.375 985.375 19.25C983.875 19.375 983.312 18.5625 983.688 16.8125C983.812 15.3125 983.938 13.6875 984.062 11.9375ZM961.375 20.375V11.9375C961.25 10.1875 961.188 8.625 961.188 7.25C961.062 5.875 960.938 4.8125 960.812 4.0625C960.438 2.6875 960.938 2.125 962.312 2.375C963.188 2.625 964.688 3.0625 966.812 3.6875C967.438 3.8125 968.062 3.9375 968.688 4.0625C968.812 4.0625 968.938 4.125 969.062 4.25C969.188 4.25 969.312 4.25 969.438 4.25H973.375C973.5 4 973.562 3.9375 973.562 4.0625C974.562 2.4375 975.25 1.625 975.625 1.625C977.5 2.25 979.5 3.4375 981.625 5.1875C981.875 5.9375 981.688 6.4375 981.062 6.6875C980.438 7.0625 980.125 7.6875 980.125 8.5625C980.125 9.5625 980.125 10.9375 980.125 12.6875C980.25 14.1875 980.375 15.25 980.5 15.875C980.75 17.375 980.375 18.25 979.375 18.5C977.75 19 976.438 19.25 975.438 19.25C974.312 19.375 973.812 18.8125 973.938 17.5625H968.125V27.5C968.125 29.625 968.125 32.4375 968.125 35.9375C968.25 39.1875 968.312 41.5625 968.312 43.0625C968.312 44.4375 967.75 45.375 966.625 45.875C966.375 45.875 966.188 45.875 966.062 45.875C964.938 46.375 964 46.625 963.25 46.625C961.25 47 960.438 46.0625 960.812 43.8125C960.938 41.6875 961.062 38.625 961.188 34.625C961.188 30.625 961.25 25.875 961.375 20.375ZM972.625 29V27.3125C972.5 25.5625 972.375 24 972.25 22.625C971.875 21.75 972.312 21.3125 973.562 21.3125C975.938 21.8125 977.938 22.3125 979.562 22.8125C979.688 22.9375 979.875 23.0625 980.125 23.1875H984.25C985.125 21.5625 985.875 20.6875 986.5 20.5625C988.75 21.3125 991 22.5625 993.25 24.3125C993.25 24.8125 992.938 25.3125 992.312 25.8125C991.938 26.0625 991.75 26.5 991.75 27.125C991.75 29.625 991.875 32.125 992.125 34.625C992.25 36 991.875 36.8125 991 37.0625C990.375 37.1875 989.5 37.375 988.375 37.625C987.625 37.75 987.125 37.8125 986.875 37.8125C985.375 38.0625 984.688 37.5 984.812 36.125V34.25H979.375V35.75C979.375 37.375 978.812 38.25 977.688 38.375C977.312 38.5 976.562 38.625 975.438 38.75C974.688 38.875 974.188 38.9375 973.938 38.9375C972.688 39.0625 972.188 38.3125 972.438 36.6875C972.438 35.9375 972.438 34.9375 972.438 33.6875C972.562 32.6875 972.625 31.125 972.625 29ZM984.812 24.6875H979.562C979.312 24.9375 979.25 25.375 979.375 26V32.75H984.812V24.6875ZM990.438 11.5625V16.0625H996.625V11.5625H990.438ZM996.625 5.75H991.375C990.625 6.125 990.312 6.8125 990.438 7.8125V10.25H996.625V5.75ZM968.125 11.5625V16.0625H973.938V11.5625H968.125ZM973.938 5.75H969.25C969.125 5.75 969.062 5.75 969.062 5.75C968.312 6.25 968 7.125 968.125 8.375V10.25H973.938V5.75ZM1016.88 28.0625V24.125H1014.81C1012.94 24.125 1011.56 24.1875 1010.69 24.3125C1009.69 24.3125 1008.75 24.375 1007.88 24.5C1007.38 24.625 1007.19 24.5625 1007.31 24.3125C1007.06 24.1875 1006.88 23.9375 1006.75 23.5625C1006.62 23.3125 1006.5 23.0625 1006.38 22.8125C1006.25 22.4375 1006.38 22.25 1006.75 22.25C1008.25 22.625 1011.5 22.75 1016.5 22.625H1024.19C1024.81 21.625 1025.44 20.8125 1026.06 20.1875C1025.56 20.4375 1024.81 20.625 1023.81 20.75C1023.19 20.75 1022.81 20.75 1022.69 20.75C1021.31 20.75 1020.69 20.375 1020.81 19.625V18.5H1015.56V18.6875C1015.69 19.9375 1015.19 20.625 1014.06 20.75C1013.56 21 1012.62 21.25 1011.25 21.5C1010.88 21.5 1010.69 21.5 1010.69 21.5C1009.31 21.875 1008.75 21.25 1009 19.625C1009 18.125 1009 15.4375 1009 11.5625C1009.12 9.6875 1009.19 8.5 1009.19 8C1009.06 7.375 1009 6.4375 1009 5.1875C1009 4.1875 1009 3.4375 1009 2.9375C1008.88 1.9375 1009.31 1.5 1010.31 1.625C1012.06 2 1013.81 2.5 1015.56 3.125C1015.69 3.125 1015.88 3.1875 1016.12 3.3125H1020.44C1021.31 1.8125 1022.06 1 1022.69 0.875C1024.69 1.375 1026.69 2.5 1028.69 4.25C1029.06 4.875 1028.94 5.4375 1028.31 5.9375C1027.69 6.1875 1027.44 6.75 1027.56 7.625C1027.44 8.625 1027.38 10.0625 1027.38 11.9375C1027.38 13.9375 1027.5 15.8125 1027.75 17.5625C1027.75 18.6875 1027.62 19.375 1027.38 19.625C1028.5 20.5 1029.5 21.3125 1030.38 22.0625C1030.5 20.9375 1030.56 19.75 1030.56 18.5V15.3125C1030.56 14.5625 1030.5 13.5 1030.38 12.125C1030.38 11.25 1030.38 10.625 1030.38 10.25C1030.12 9.25 1030.5 8.8125 1031.5 8.9375C1033 9.1875 1034.5 9.625 1036 10.25C1036.38 10.375 1036.62 10.5 1036.75 10.625H1037.5C1037.62 8.375 1037.56 6.3125 1037.31 4.4375H1031.88C1031.38 4.4375 1030.69 4.5 1029.81 4.625C1029.44 4.875 1029.19 4.8125 1029.06 4.4375C1028.81 4.1875 1028.56 3.75 1028.31 3.125C1028.19 3 1028.31 2.875 1028.69 2.75C1029.31 3 1030.69 3.0625 1032.81 2.9375H1045.38C1046.62 1.3125 1047.5 0.4375 1048 0.3125C1048.62 0.5625 1049.88 1.5 1051.75 3.125C1052 3.5 1052.12 3.8125 1052.12 4.0625C1052.12 4.3125 1051.94 4.4375 1051.56 4.4375H1044.62C1043.88 4.9375 1043.44 5.375 1043.31 5.75C1043.06 6.125 1042.88 6.375 1042.75 6.5C1041.25 8.625 1040.12 10 1039.38 10.625H1043.12C1044.12 9.125 1044.88 8.375 1045.38 8.375C1047.25 8.875 1049.19 10.0625 1051.19 11.9375C1051.56 12.5625 1051.31 13.125 1050.44 13.625C1049.94 14 1049.75 14.5 1049.88 15.125V19.0625C1049.88 20.3125 1049.88 22.125 1049.88 24.5C1050 26 1050.06 27 1050.06 27.5C1050.31 29.125 1049.81 30 1048.56 30.125C1047.94 30.375 1047.25 30.5625 1046.5 30.6875C1046.12 30.6875 1045.88 30.6875 1045.75 30.6875C1044.88 30.8125 1044.38 30.6875 1044.25 30.3125H1042.38C1046.25 31.3125 1048.56 32.5 1049.31 33.875C1050.19 35.5 1050.06 36.8125 1048.94 37.8125C1048.81 37.9375 1048.69 38.0625 1048.56 38.1875C1048.31 38.1875 1048.19 38.1875 1048.19 38.1875C1048.56 38.1875 1049.12 38.125 1049.88 38C1050.62 37.875 1051.25 37.75 1051.75 37.625C1052.62 37.5 1053.12 37.5625 1053.25 37.8125C1053.38 37.9375 1053.12 38.5 1052.5 39.5C1051.38 40.5 1050.75 41.75 1050.62 43.25C1050.5 44 1049.88 44.375 1048.75 44.375C1039.75 45.25 1031.69 45.1875 1024.56 44.1875C1019.69 43.3125 1016.06 40.4375 1013.69 35.5625C1012.56 38.6875 1010.62 41.6875 1007.88 44.5625C1007.5 44.9375 1007.19 45.0625 1006.94 44.9375C1006.69 44.6875 1006.69 44.3125 1006.94 43.8125C1008.81 39.3125 1009.69 33.75 1009.56 27.125C1009.44 26.5 1009.69 26.1875 1010.31 26.1875C1012.69 26.6875 1014.25 27.0625 1015 27.3125C1015.38 27.4375 1015.75 27.5 1016.12 27.5C1016.38 27.75 1016.62 27.9375 1016.88 28.0625ZM1039.75 30.3125H1037.12C1038.25 30.9375 1039.31 31.5 1040.31 32C1040.56 32.375 1040.69 32.75 1040.69 33.125C1040.56 33.375 1040.31 33.5 1039.94 33.5C1039.31 33.5 1038.69 33.8125 1038.06 34.4375C1035.56 36.3125 1032.31 37.8125 1028.31 38.9375C1033.19 39.4375 1039.31 39.25 1046.69 38.375C1045.81 38.25 1045.12 37.5625 1044.62 36.3125C1043.75 34.5625 1042.31 32.75 1040.31 30.875C1040.06 30.75 1039.88 30.5625 1039.75 30.3125ZM1023.06 31.0625V38.375C1023.19 38.375 1023.44 38.4375 1023.81 38.5625C1024.19 38.6875 1024.5 38.6875 1024.75 38.5625C1025 38.6875 1025.44 38.75 1026.06 38.75C1026.56 38.875 1027 38.9375 1027.38 38.9375C1027.25 38.8125 1027.38 38.5625 1027.75 38.1875C1030.5 36.3125 1032.62 33.9375 1034.12 31.0625C1033.75 31.1875 1033.38 31.3125 1033 31.4375C1032.62 31.5625 1032.31 31.625 1032.06 31.625C1030.94 32.125 1030.38 31.9375 1030.38 31.0625H1023.06ZM1036 29H1043.88V24.3125H1036V29ZM1036 18.125V22.8125H1043.88V18.125H1036ZM1043.88 12.125H1036.19C1035.94 12.375 1035.88 12.75 1036 13.25V16.8125H1043.88V12.125ZM1023.06 24.125V29.75H1024.38C1025.38 28 1026.25 27 1027 26.75C1027.75 27.125 1028.81 28 1030.19 29.375C1030.19 28.875 1030.19 28.25 1030.19 27.5C1030.31 26.75 1030.38 25.6875 1030.38 24.3125C1029.5 24.3125 1028.5 24.3125 1027.38 24.3125C1026.38 24.1875 1024.94 24.125 1023.06 24.125ZM1015.56 11.5625V17.1875H1020.81V11.5625H1015.56ZM1020.81 4.625H1015.94C1015.69 5 1015.56 5.5 1015.56 6.125V10.25H1020.81V4.625ZM1016.88 35.75V28.625C1016.75 28.75 1016.69 28.875 1016.69 29C1016.56 29 1016.38 29.125 1016.12 29.375C1015.62 29.75 1015.31 30.3125 1015.19 31.0625C1015.06 31.4375 1014.94 31.875 1014.81 32.375C1014.56 33 1014.44 33.4375 1014.44 33.6875C1015.06 34.5625 1015.88 35.25 1016.88 35.75ZM1099.19 20.5625H1091.31V25.8125H1093.56C1093.56 25.8125 1093.69 25.625 1093.94 25.25C1094.81 24 1095.5 23.375 1096 23.375C1098.75 24.5 1100.69 25.8125 1101.81 27.3125C1101.81 27.8125 1101.56 28.3125 1101.06 28.8125C1100.69 29.0625 1100.5 29.5 1100.5 30.125C1100.25 33.625 1100 37.125 1099.75 40.625C1099.38 43.875 1096.62 45.875 1091.5 46.625C1090.25 46.75 1089.5 46.375 1089.25 45.5C1088.88 43.5 1087.62 42.0625 1085.5 41.1875C1084.75 41.0625 1084.5 40.8125 1084.75 40.4375C1084.62 40.1875 1085.06 40.0625 1086.06 40.0625C1091.19 40.6875 1093.62 40.0625 1093.38 38.1875C1093.5 37.5625 1093.56 36.9375 1093.56 36.3125C1093.19 36.9375 1092.62 37.3125 1091.88 37.4375C1090.25 37.5625 1089.38 36.6875 1089.25 34.8125C1088.88 32.5625 1088.31 30.75 1087.56 29.375C1087.44 28.75 1087.69 28.5 1088.31 28.625C1091.19 29.75 1093.06 31 1093.94 32.375C1093.94 32.625 1093.94 32.6875 1093.94 32.5625C1093.94 31.9375 1093.94 31.25 1093.94 30.5C1094.06 29.75 1094.12 28.6875 1094.12 27.3125H1080.62C1080.62 27.4375 1080.56 27.5625 1080.44 27.6875C1080.31 27.8125 1080.31 27.875 1080.44 27.875C1079.81 28.625 1079.19 28.875 1078.56 28.625C1076.81 28.25 1075.44 27.6875 1074.44 26.9375C1073.56 26.4375 1073.44 25.8125 1074.06 25.0625C1074.69 24.4375 1075 23.3125 1075 21.6875V8.5625C1075 6.9375 1074.94 5.8125 1074.81 5.1875C1074.56 4.4375 1074.5 3.9375 1074.62 3.6875C1074.88 3.4375 1075.38 3.375 1076.12 3.5C1078.62 4 1080.56 4.5625 1081.94 5.1875C1082.31 5.4375 1082.62 5.625 1082.88 5.75H1093.75C1094.75 4 1095.56 3 1096.19 2.75C1097.44 3.25 1098.75 4.25 1100.12 5.75C1100.38 6.125 1100.5 6.5 1100.5 6.875C1100.38 7.125 1100.12 7.25 1099.75 7.25H1091.31V12.5H1093.38C1094.12 10.875 1094.94 9.8125 1095.81 9.3125C1097.06 9.8125 1098.38 10.875 1099.75 12.5C1100.25 13.375 1100.12 13.875 1099.38 14H1091.31V19.0625H1093.38C1094.12 17.6875 1094.88 16.6875 1095.62 16.0625C1096.75 16.4375 1098.06 17.4375 1099.56 19.0625C1099.81 19.4375 1099.94 19.8125 1099.94 20.1875C1099.81 20.4375 1099.56 20.5625 1099.19 20.5625ZM1056.44 22.25V15.125C1056.31 11.875 1056.19 8.8125 1056.06 5.9375C1055.94 5.3125 1055.94 4.9375 1056.06 4.8125C1056.31 4.5625 1056.75 4.5 1057.38 4.625C1059.38 5.25 1061.38 5.9375 1063.38 6.6875C1063.75 6.9375 1064 7.1875 1064.12 7.4375H1064.88C1065.62 5.6875 1066.38 4.6875 1067.12 4.4375C1069 4.9375 1071.12 6.125 1073.5 8C1073.62 8.625 1073.31 9.125 1072.56 9.5C1072.19 9.75 1072 10.1875 1072 10.8125V20.9375C1072 22.0625 1072 23.5625 1072 25.4375C1072.12 27.1875 1072.25 28.375 1072.38 29C1072.5 30 1072.12 30.625 1071.25 30.875C1070 31.5 1068.69 31.8125 1067.31 31.8125C1065.69 32.1875 1065 31.8125 1065.25 30.6875V29.375H1063.19V30.6875C1063.19 32.6875 1062.62 33.75 1061.5 33.875C1061.12 34 1060.75 34.0625 1060.38 34.0625C1059.12 34.4375 1058.25 34.5625 1057.75 34.4375C1056 34.6875 1055.38 33.875 1055.88 32C1056 31.375 1056.12 30.1875 1056.25 28.4375C1056.25 26.4375 1056.31 24.375 1056.44 22.25ZM1070.12 35.75C1071.75 34.25 1072.94 32.3125 1073.69 29.9375C1073.69 29.6875 1073.75 29.5625 1073.88 29.5625C1074.12 29.5625 1074.38 29.6875 1074.62 29.9375C1076.12 32.4375 1076.12 35.3125 1074.62 38.5625C1073.38 40.1875 1071.88 40.5 1070.12 39.5C1068.88 38.375 1068.88 37.125 1070.12 35.75ZM1065.25 8.75H1063.19C1063.19 9.125 1063.19 9.4375 1063.19 9.6875V28.0625H1065.25V8.75ZM1083.25 35.9375C1083.25 33.8125 1082.81 31.75 1081.94 29.75C1081.69 29.5 1081.62 29.3125 1081.75 29.1875C1081.88 29.0625 1082.12 29.0625 1082.5 29.1875C1085.25 30.3125 1087.06 31.875 1087.94 33.875C1088.81 36.75 1088.12 38.3125 1085.88 38.5625C1084.25 38.8125 1083.38 37.9375 1083.25 35.9375ZM1077.06 35.9375C1077.56 34.0625 1077.5 32.125 1076.88 30.125C1076.75 29.875 1076.75 29.75 1076.88 29.75C1077.12 29.625 1077.44 29.625 1077.81 29.75C1080.06 31.25 1081.44 33.0625 1081.94 35.1875C1082.19 38.0625 1081.19 39.4375 1078.94 39.3125C1077.56 39.1875 1076.94 38.0625 1077.06 35.9375ZM1081.38 25.8125H1085.12V20.5625H1081.56V25.625C1081.44 25.875 1081.38 25.9375 1081.38 25.8125ZM1081.56 14V19.0625H1085.12V14H1081.56ZM1081.56 8.75V12.5H1085.12V7.25H1082.12C1081.62 7.5 1081.44 8 1081.56 8.75ZM1115.69 34.0625H1113.25V31.0625C1113.25 29.4375 1113.88 27.6875 1115.12 25.8125C1116.75 23.8125 1117.56 21.75 1117.56 19.625C1117.56 15.125 1116.06 12.8125 1113.06 12.6875C1110.69 12.9375 1109.06 13.8125 1108.19 15.3125C1108.44 15.3125 1108.69 15.3125 1108.94 15.3125C1111.31 15.4375 1112.56 16.5 1112.69 18.5C1112.44 20.5 1111.19 21.625 1108.94 21.875C1106.56 21.75 1105.31 20.4375 1105.19 17.9375C1105.56 13.5625 1108.75 11.125 1114.75 10.625C1121.12 11 1124.56 13.375 1125.06 17.75C1125.06 20.375 1123.44 22.875 1120.19 25.25C1117.19 27.5 1115.69 29.75 1115.69 32V34.0625ZM1110.25 40.0625C1110.5 37.6875 1111.81 36.3125 1114.19 35.9375C1116.69 36.1875 1118.06 37.5625 1118.31 40.0625C1117.94 42.0625 1116.56 43.25 1114.19 43.625C1111.81 43.25 1110.5 42.0625 1110.25 40.0625Z" fill="#10656A"/>
</svg>
