<svg width="984" height="49" viewBox="0 0 984 49" fill="none" xmlns="http://www.w3.org/2000/svg">
<path d="M34.6875 19.625V23.1875C34.6875 22.8125 35.0625 22.8125 35.8125 23.1875C40.6875 25.0625 44.1875 28.0625 46.3125 32.1875C47.0625 35.6875 46.125 38 43.5 39.125C40.875 39.625 39.3125 38.125 38.8125 34.625C38.3125 31.125 37.0625 27.625 35.0625 24.125C34.8125 24 34.6875 23.8125 34.6875 23.5625V25.8125C34.5625 32.6875 34.625 37.625 34.875 40.625C35.125 42.875 34.4375 44.5 32.8125 45.5C30.9375 46.5 29.0625 47.125 27.1875 47.375C25.5625 47.625 24.6875 47.25 24.5625 46.25C24.1875 44.125 23.125 42.8125 21.375 42.3125C20.375 41.9375 19.9375 41.5625 20.0625 41.1875C19.9375 41.0625 20.5625 41 21.9375 41C25.9375 41.625 27.75 40.375 27.375 37.25V24.875C27.375 25.125 27.1875 25.25 26.8125 25.25C26.1875 25.5 25.875 25.875 25.875 26.375C23.875 32.625 20.4375 37.3125 15.5625 40.4375C14.9375 40.8125 14.5625 40.9375 14.4375 40.8125C14.3125 40.6875 14.4375 40.3125 14.8125 39.6875C16.5625 35.6875 17.8125 32.0625 18.5625 28.8125C18.5625 28.6875 18.5625 28.375 18.5625 27.875C18.9375 26.5 19.1875 25 19.3125 23.375C19.4375 22.375 19.9375 21.9375 20.8125 22.0625C22.6875 22.3125 24.6875 22.8125 26.8125 23.5625C27.1875 23.9375 27.375 24.125 27.375 24.125V23.5625C27.25 22.0625 27.1875 20.625 27.1875 19.25C27.0625 17.875 26.9375 16.875 26.8125 16.25C26.4375 14.875 26.9375 14.3125 28.3125 14.5625C30.0625 14.8125 32.3125 15.1875 35.0625 15.6875C36.3125 16.4375 36.5 17.1875 35.625 17.9375C34.875 18.3125 34.5625 18.875 34.6875 19.625ZM13.5 18.125V35.75C13.375 39.25 13.4375 41.75 13.6875 43.25C13.9375 44.875 13.375 45.9375 12 46.4375C10.75 46.8125 9.4375 47.125 8.0625 47.375C5.9375 48 5.1875 46.875 5.8125 44C5.8125 43.375 5.8125 42.4375 5.8125 41.1875C6.1875 35.6875 6.375 31.5625 6.375 28.8125V22.625C4.625 24.75 2.875 26.4375 1.125 27.6875C0.75 28.0625 0.5 28.125 0.375 27.875C0.25 27.625 0.3125 27.25 0.5625 26.75C3.5625 20.75 5.9375 14.5625 7.6875 8.1875C8.3125 6.4375 8.75 4.1875 9 1.4375C8.875 0.6875 9.375 0.3125 10.5 0.3125C12 0.6875 14.5 1.4375 18 2.5625C18.75 3.3125 18.75 4.0625 18 4.8125C17.125 5.1875 16.625 5.5625 16.5 5.9375C14.875 9.1875 13.4375 12 12.1875 14.375C12.3125 14.375 12.5625 14.4375 12.9375 14.5625C13.3125 14.5625 13.5625 14.5625 13.6875 14.5625C14.5625 15.1875 14.6875 15.8125 14.0625 16.4375C13.5625 16.8125 13.375 17.375 13.5 18.125ZM36.9375 17.375L38.25 12.875H25.875C23.125 17.25 19.625 20.8125 15.375 23.5625C15 23.8125 14.75 23.8125 14.625 23.5625C14.5 23.4375 14.5625 23.125 14.8125 22.625C18.0625 17.625 20.375 12.4375 21.75 7.0625C22 6.0625 22.1875 5.125 22.3125 4.25C22.5625 3.25 22.6875 2.3125 22.6875 1.4375C22.6875 0.5625 23.1875 0.25 24.1875 0.5C25.3125 0.625 27.25 1.125 30 2C30.25 2.125 30.5625 2.1875 30.9375 2.1875C31.3125 2.4375 31.5625 2.8125 31.6875 3.3125C31.5625 3.8125 31.3125 4.0625 30.9375 4.0625C30.0625 4.4375 29.5625 4.9375 29.4375 5.5625C28.5625 7.6875 27.6875 9.625 26.8125 11.375H37.3125C38.1875 9.375 39.125 8.1875 40.125 7.8125C42 8.1875 44.1875 9.625 46.6875 12.125C47.3125 12.75 47.5625 13.4375 47.4375 14.1875C47.3125 14.9375 46.6875 15.3125 45.5625 15.3125C42.5625 15.0625 40.0625 16 38.0625 18.125C37.5625 18.5 37.1875 18.625 36.9375 18.5C36.8125 18.375 36.8125 18 36.9375 17.375ZM61.875 33.875V40.8125C61.875 41.8125 61.4375 42.375 60.5625 42.5C59.0625 42.625 57.6875 42.75 56.4375 42.875C54.6875 42.875 54 41.875 54.375 39.875C54.5 37.875 54.625 35.75 54.75 33.5C54.625 32.5 54.5 31.375 54.375 30.125C54.125 29 54.625 28.5 55.875 28.625C56.125 28.75 56.4375 28.875 56.8125 29C59.3125 29.75 60.9375 30.3125 61.6875 30.6875C62.0625 30.8125 62.25 30.875 62.25 30.875H67.5V25.4375H66.375V26.1875C66.375 27.5625 65.875 28.25 64.875 28.25C63.625 28.5 62.375 28.625 61.125 28.625C59.375 28.875 58.6875 27.75 59.0625 25.25C59.1875 23.25 59.3125 21.5 59.4375 20C59.3125 19 59.1875 17.875 59.0625 16.625C58.8125 15.5 59.3125 15.0625 60.5625 15.3125C62.8125 15.9375 64.6875 16.5625 66.1875 17.1875C66.1875 17.3125 66.25 17.375 66.375 17.375C66.625 17.375 66.75 17.4375 66.75 17.5625H76.3125C77.3125 15.6875 78.125 14.625 78.75 14.375C80 14.625 82.0625 15.5625 84.9375 17.1875L85.875 13.25H56.625C57.125 16 56.8125 18.1875 55.6875 19.8125C53.1875 22.0625 51 22.3125 49.125 20.5625C48.25 18.9375 48.4375 17.25 49.6875 15.5C51.8125 14.125 52.9375 12.125 53.0625 9.5C53.0625 9.125 53.1875 8.9375 53.4375 8.9375C53.8125 8.9375 54.1875 9.125 54.5625 9.5C54.8125 9.75 55.25 10.375 55.875 11.375C56 11.625 56.125 11.75 56.25 11.75H67.875V5.9375C67.875 4.1875 67.8125 3 67.6875 2.375C67.3125 1.125 67.8125 0.5 69.1875 0.5C70.0625 0.625 71.1875 0.6875 72.5625 0.6875C73.8125 0.8125 74.8125 0.9375 75.5625 1.0625C76.0625 1.1875 76.375 1.4375 76.5 1.8125C76.5 2.3125 76.25 2.6875 75.75 2.9375C75.375 3.1875 75.25 3.75 75.375 4.625V11.75H76.5C77.75 8.75 78.75 5.6875 79.5 2.5625C79.5 1.6875 80.1875 1.4375 81.5625 1.8125C83.0625 2.3125 85.3125 3.0625 88.3125 4.0625C89.1875 5.0625 89 5.75 87.75 6.125C86.375 6.125 85.5625 6.4375 85.3125 7.0625C84.0625 8.4375 82.3125 10 80.0625 11.75H85.6875C86.6875 10 87.5 9 88.125 8.75C90.375 9.5 92.875 11.125 95.625 13.625C95.75 14.375 95.6875 15.0625 95.4375 15.6875C95.3125 15.9375 94.625 16.0625 93.375 16.0625C90.375 16.1875 88 16.9375 86.25 18.3125C86.125 18.5625 86.0625 18.625 86.0625 18.5C86.1875 19.125 86 19.5625 85.5 19.8125C84.75 20.3125 84.375 20.9375 84.375 21.6875V25.25C84.375 26.75 83.75 27.5 82.5 27.5C81.625 27.75 80.375 27.8125 78.75 27.6875C77.625 27.9375 77.125 27.3125 77.25 25.8125V25.4375H76.125C76.25 25.9375 76.125 26.3125 75.75 26.5625C75.125 27.0625 74.875 27.5625 75 28.0625V30.875H81.1875C81.9375 29.25 82.6875 28.25 83.4375 27.875C85.0625 28.125 87.1875 29.125 89.8125 30.875C90.5625 31.625 90.5625 32.375 89.8125 33.125C89.0625 33.5 88.75 33.9375 88.875 34.4375V38.375C88.875 40.375 87.9375 41.9375 86.0625 43.0625C85.4375 43.4375 84 43.9375 81.75 44.5625C80.75 44.6875 80.1875 44.3125 80.0625 43.4375C79.5625 41.8125 78.625 40.8125 77.25 40.4375C76.5 40.3125 76.1875 40 76.3125 39.5C76.3125 39.125 76.75 39 77.625 39.125C80.75 40 82.0625 39 81.5625 36.125V32.1875H75V35.9375C75 36.4375 75 38.125 75 41C75.125 43.25 75.1875 44.5625 75.1875 44.9375C75.1875 45.9375 74.6875 46.625 73.6875 47C72.4375 47.375 71 47.625 69.375 47.75C68 47.625 67.3125 47 67.3125 45.875C67.4375 43.875 67.5 39.75 67.5 33.5V32.1875H62.25C61.875 32.4375 61.75 33 61.875 33.875ZM59.25 8.375C59 6.375 58.1875 4.6875 56.8125 3.3125C56.4375 3.0625 56.3125 2.8125 56.4375 2.5625C56.4375 2.4375 56.6875 2.3125 57.1875 2.1875C62.1875 2.3125 65.25 3.4375 66.375 5.5625C67.125 8.5625 66.1875 10.5625 63.5625 11.5625C61.1875 11.9375 59.75 10.875 59.25 8.375ZM66.375 20.375V24.3125H77.25V18.6875H66.75C66.375 18.9375 66.25 19.5 66.375 20.375ZM109.875 33.875V40.8125C109.875 41.8125 109.438 42.375 108.562 42.5C107.062 42.625 105.688 42.75 104.438 42.875C102.688 42.875 102 41.875 102.375 39.875C102.5 37.875 102.625 35.75 102.75 33.5C102.625 32.5 102.5 31.375 102.375 30.125C102.125 29 102.625 28.5 103.875 28.625C104.125 28.75 104.438 28.875 104.812 29C107.312 29.75 108.938 30.3125 109.688 30.6875C110.062 30.8125 110.25 30.875 110.25 30.875H115.5V25.4375H114.375V26.1875C114.375 27.5625 113.875 28.25 112.875 28.25C111.625 28.5 110.375 28.625 109.125 28.625C107.375 28.875 106.688 27.75 107.062 25.25C107.188 23.25 107.312 21.5 107.438 20C107.312 19 107.188 17.875 107.062 16.625C106.812 15.5 107.312 15.0625 108.562 15.3125C110.812 15.9375 112.688 16.5625 114.188 17.1875C114.188 17.3125 114.25 17.375 114.375 17.375C114.625 17.375 114.75 17.4375 114.75 17.5625H124.312C125.312 15.6875 126.125 14.625 126.75 14.375C128 14.625 130.062 15.5625 132.938 17.1875L133.875 13.25H104.625C105.125 16 104.812 18.1875 103.688 19.8125C101.188 22.0625 99 22.3125 97.125 20.5625C96.25 18.9375 96.4375 17.25 97.6875 15.5C99.8125 14.125 100.938 12.125 101.062 9.5C101.062 9.125 101.188 8.9375 101.438 8.9375C101.812 8.9375 102.188 9.125 102.562 9.5C102.812 9.75 103.25 10.375 103.875 11.375C104 11.625 104.125 11.75 104.25 11.75H115.875V5.9375C115.875 4.1875 115.812 3 115.688 2.375C115.312 1.125 115.812 0.5 117.188 0.5C118.062 0.625 119.188 0.6875 120.562 0.6875C121.812 0.8125 122.812 0.9375 123.562 1.0625C124.062 1.1875 124.375 1.4375 124.5 1.8125C124.5 2.3125 124.25 2.6875 123.75 2.9375C123.375 3.1875 123.25 3.75 123.375 4.625V11.75H124.5C125.75 8.75 126.75 5.6875 127.5 2.5625C127.5 1.6875 128.188 1.4375 129.562 1.8125C131.062 2.3125 133.312 3.0625 136.312 4.0625C137.188 5.0625 137 5.75 135.75 6.125C134.375 6.125 133.562 6.4375 133.312 7.0625C132.062 8.4375 130.312 10 128.062 11.75H133.688C134.688 10 135.5 9 136.125 8.75C138.375 9.5 140.875 11.125 143.625 13.625C143.75 14.375 143.688 15.0625 143.438 15.6875C143.312 15.9375 142.625 16.0625 141.375 16.0625C138.375 16.1875 136 16.9375 134.25 18.3125C134.125 18.5625 134.062 18.625 134.062 18.5C134.188 19.125 134 19.5625 133.5 19.8125C132.75 20.3125 132.375 20.9375 132.375 21.6875V25.25C132.375 26.75 131.75 27.5 130.5 27.5C129.625 27.75 128.375 27.8125 126.75 27.6875C125.625 27.9375 125.125 27.3125 125.25 25.8125V25.4375H124.125C124.25 25.9375 124.125 26.3125 123.75 26.5625C123.125 27.0625 122.875 27.5625 123 28.0625V30.875H129.188C129.938 29.25 130.688 28.25 131.438 27.875C133.062 28.125 135.188 29.125 137.812 30.875C138.562 31.625 138.562 32.375 137.812 33.125C137.062 33.5 136.75 33.9375 136.875 34.4375V38.375C136.875 40.375 135.938 41.9375 134.062 43.0625C133.438 43.4375 132 43.9375 129.75 44.5625C128.75 44.6875 128.188 44.3125 128.062 43.4375C127.562 41.8125 126.625 40.8125 125.25 40.4375C124.5 40.3125 124.188 40 124.312 39.5C124.312 39.125 124.75 39 125.625 39.125C128.75 40 130.062 39 129.562 36.125V32.1875H123V35.9375C123 36.4375 123 38.125 123 41C123.125 43.25 123.188 44.5625 123.188 44.9375C123.188 45.9375 122.688 46.625 121.688 47C120.438 47.375 119 47.625 117.375 47.75C116 47.625 115.312 47 115.312 45.875C115.438 43.875 115.5 39.75 115.5 33.5V32.1875H110.25C109.875 32.4375 109.75 33 109.875 33.875ZM107.25 8.375C107 6.375 106.188 4.6875 104.812 3.3125C104.438 3.0625 104.312 2.8125 104.438 2.5625C104.438 2.4375 104.688 2.3125 105.188 2.1875C110.188 2.3125 113.25 3.4375 114.375 5.5625C115.125 8.5625 114.188 10.5625 111.562 11.5625C109.188 11.9375 107.75 10.875 107.25 8.375ZM114.375 20.375V24.3125H125.25V18.6875H114.75C114.375 18.9375 114.25 19.5 114.375 20.375ZM189 8V26.75C189 30.625 189.125 36.1875 189.375 43.4375C189.5 44.9375 189.062 45.875 188.062 46.25C187.812 46.25 187.5 46.25 187.125 46.25C185.75 46.625 184.75 46.875 184.125 47C182.375 47.125 181.562 46.5 181.688 45.125V42.125H154.5V43.625C154.5 45 153.938 45.875 152.812 46.25C151.312 46.5 150 46.75 148.875 47C147.25 47.25 146.625 46.75 147 45.5C147.125 41.75 147.25 38.0625 147.375 34.4375C147.375 30.6875 147.438 27.4375 147.562 24.6875V11.375C147.438 9.375 147.188 6.625 146.812 3.125C146.688 2.375 146.75 1.9375 147 1.8125C147.125 1.5625 147.625 1.5 148.5 1.625C149.75 1.875 151.938 2.625 155.062 3.875C155.312 3.875 155.5 3.875 155.625 3.875H180.938C181.938 2.125 182.812 1.1875 183.562 1.0625C185.438 1.3125 187.562 2.3125 189.938 4.0625C190.812 5.0625 190.75 5.9375 189.75 6.6875C189.125 7.1875 188.875 7.625 189 8ZM154.5 37.8125V41H181.688V18.125H171C170.75 20.25 170.375 22.125 169.875 23.75C175.125 25.375 178.625 27.8125 180.375 31.0625C181.375 34.8125 180.375 36.9375 177.375 37.4375C175.25 37.9375 173.938 36.625 173.438 33.5C172.812 30.625 171.5 27.875 169.5 25.25C167.5 31.625 162.688 35.75 155.062 37.625C154.938 37.625 154.812 37.6875 154.688 37.8125C154.562 37.9375 154.5 37.9375 154.5 37.8125ZM171.188 16.625H173.812C175.188 14.25 176.188 13 176.812 12.875C178.188 13.375 179.812 14.375 181.688 15.875V5.375H155.25C154.625 5.375 154.375 5.75 154.5 6.5V16.25C156.125 16.5 157.75 16.625 159.375 16.625H163.875C163.875 16 163.875 15.1875 163.875 14.1875C163.75 11.8125 163.625 9.875 163.5 8.375C163.25 7.125 163.688 6.4375 164.812 6.3125C165.688 6.4375 166.812 6.5 168.188 6.5C169.438 6.625 170.5 6.75 171.375 6.875C172.75 7.375 173.062 8.0625 172.312 8.9375C171.562 9.4375 171.25 10.0625 171.375 10.8125C171.375 11.5625 171.312 12.6875 171.188 14.1875C171.188 15.3125 171.188 16.125 171.188 16.625ZM154.5 17.5625V36.3125C160 32.4375 163.062 26.375 163.688 18.125H158.625C157.625 18.25 156.688 18.375 155.812 18.5C155.312 18.75 155 18.625 154.875 18.125C154.75 18.125 154.625 18.0625 154.5 17.9375C154.5 17.8125 154.5 17.6875 154.5 17.5625ZM220.5 16.8125H222C223 15.1875 223.812 14.375 224.438 14.375C226.438 15 228.312 16.25 230.062 18.125C230.312 18.875 230.188 19.375 229.688 19.625C228.938 20 228.5 20.5625 228.375 21.3125V21.6875C228.75 21.3125 229.125 21.0625 229.5 20.9375C231 21.3125 232.688 22.5 234.562 24.5C234.688 25.25 234.5 25.75 234 26C233.375 26.375 233.062 26.9375 233.062 27.6875L232.875 28.0625C233.375 27.5625 233.875 27.25 234.375 27.125C236.25 28 237.938 29.375 239.438 31.25C239.312 31.75 239 32.1875 238.5 32.5625C238 33.1875 237.75 33.875 237.75 34.625C237.5 36.875 237.125 39.0625 236.625 41.1875C236.125 43.6875 235.062 45.3125 233.438 46.0625C232.062 46.5625 230.562 47 228.938 47.375C227.438 47.625 226.688 47.3125 226.688 46.4375C226.062 44.3125 224.812 42.875 222.938 42.125C222.188 41.625 221.875 41.3125 222 41.1875C222 41.0625 222.438 41 223.312 41C227.438 41 229.562 40.4375 229.688 39.3125C230.062 37.3125 230.438 34.6875 230.812 31.4375H205.688C204.438 37.8125 200.75 42.75 194.625 46.25C193.875 46.625 193.375 46.6875 193.125 46.4375C193 46.1875 193.188 45.8125 193.688 45.3125C197.438 40.3125 199.312 33.8125 199.312 25.8125V23.5625C199.312 20.8125 199.062 18.4375 198.562 16.4375C198.312 15.1875 198.812 14.625 200.062 14.75C201.062 15 202.875 15.5 205.5 16.25C205.875 16.5 206.312 16.625 206.812 16.625L207 16.8125H217.688C219.438 13.4375 220.625 10.0625 221.25 6.6875H212.438C214.438 7.1875 215.938 8.125 216.938 9.5C217.938 11.75 217.375 13.4375 215.25 14.5625C212.75 15.4375 211.25 14.625 210.75 12.125C210.5 10.25 209.75 8.5 208.5 6.875C208.25 6.875 208.188 6.8125 208.312 6.6875C207.062 6.6875 205.25 6.6875 202.875 6.6875C200.375 6.5625 198.625 6.4375 197.625 6.3125C197 6.3125 196.625 6.1875 196.5 5.9375C196.5 5.5625 196.812 5.3125 197.438 5.1875C209.812 3.8125 218.812 2.3125 224.438 0.6875C225.438 0.4375 226.438 0.5625 227.438 1.0625C229.062 2.3125 230.812 3.8125 232.688 5.5625C232.938 5.9375 232.938 6.3125 232.688 6.6875C232.312 6.9375 231.938 6.9375 231.562 6.6875C231.188 6.5625 230.688 6.5 230.062 6.5C229.938 6.5 229.75 6.5 229.5 6.5C228.625 6.5 227.812 6.5 227.062 6.5C227.312 6.75 227.688 7 228.188 7.25C228.688 7.5 229.125 7.6875 229.5 7.8125C230.25 8.5625 230.188 9.1875 229.312 9.6875C228.188 9.9375 227.375 10.3125 226.875 10.8125C224.875 13.1875 222.75 15.1875 220.5 16.8125ZM227.625 24.875H206.25V25.25C206.25 26.5 206.188 27.4375 206.062 28.0625C206.062 28.8125 206 29.4375 205.875 29.9375H226.688L227.625 24.875ZM222.562 18.3125H207.188C207.062 18.3125 207 18.375 207 18.5C206.5 18.875 206.25 19.4375 206.25 20.1875V23.375H221.625L222.562 18.3125ZM201.375 12.3125C201 11.0625 200.312 9.5625 199.312 7.8125C198.938 7.5625 198.812 7.375 198.938 7.25C198.938 7.125 199.188 7 199.688 6.875C203.188 7.125 205.688 8.125 207.188 9.875C208.562 12.375 208.062 14.25 205.688 15.5C203.188 16.125 201.75 15.0625 201.375 12.3125ZM204.562 38.1875C205.688 37.6875 206.688 36.25 207.562 33.875C207.688 33.625 207.875 33.5 208.125 33.5C208.375 33.5 208.562 33.6875 208.688 34.0625C209.562 37.5625 209.438 40.25 208.312 42.125C206.438 43.625 204.812 43.6875 203.438 42.3125C202.188 40.9375 202.562 39.5625 204.562 38.1875ZM211.125 39.875C211.25 37.875 210.938 36.125 210.188 34.625C209.938 34.375 209.875 34.1875 210 34.0625C210.125 33.9375 210.375 33.875 210.75 33.875C213.625 34.75 215.438 36.0625 216.188 37.8125C216.812 40.0625 216.188 41.4375 214.312 41.9375C212.312 42.0625 211.25 41.375 211.125 39.875ZM217.875 38.75C217.75 37.25 217.25 35.8125 216.375 34.4375C216.25 34.1875 216.188 34 216.188 33.875C216.312 33.75 216.562 33.6875 216.938 33.6875C220.062 34.0625 222 35.3125 222.75 37.4375C223.5 39.5625 222.938 40.75 221.062 41C219.188 41.375 218.125 40.625 217.875 38.75ZM224.438 38C224.062 36.25 223.375 34.8125 222.375 33.6875C222 33.5625 221.812 33.4375 221.812 33.3125C221.938 33.1875 222.188 33.0625 222.562 32.9375C225.562 32.6875 227.625 33.4375 228.75 35.1875C229.5 36.8125 229.25 38.1875 228 39.3125C226.25 40.3125 225.062 39.875 224.438 38ZM257.438 22.8125H269.25C270.5 21.1875 271.438 20.3125 272.062 20.1875C272.812 20.3125 274.562 21.25 277.312 23C277.312 22.125 277.5 21.125 277.875 20C277.875 19.75 277.938 19.5625 278.062 19.4375H249C249.125 21.6875 248.688 23.4375 247.688 24.6875C245.438 27.1875 243.312 27.4375 241.312 25.4375C240.312 23.9375 240.562 22.375 242.062 20.75C243.562 19.5 244.562 17.75 245.062 15.5C245.188 14.75 245.688 14.6875 246.562 15.3125C246.938 15.6875 247.312 16.125 247.688 16.625V11.5625C247.562 10.5625 247.5 9.375 247.5 8C247.375 6.625 247.25 5.1875 247.125 3.6875C246.875 3.0625 246.812 2.625 246.938 2.375C247.188 2.125 247.688 2 248.438 2C249.562 2.25 250.875 2.6875 252.375 3.3125C252.5 3.3125 252.625 3.3125 252.75 3.3125C253.25 2.5625 253.875 1.8125 254.625 1.0625C254.875 0.6875 255.312 0.6875 255.938 1.0625C257.188 2.4375 258.125 3.5 258.75 4.25C259.125 4.875 259 5.25 258.375 5.375C258 5.25 257.562 5.25 257.062 5.375C255.688 5.625 254.438 5.8125 253.312 5.9375V8.9375C254.312 7.6875 255 7 255.375 6.875C255.5 6.875 256.438 7.5625 258.188 8.9375C259.312 7.9375 260.375 6.75 261.375 5.375C260.75 5.125 260 4.625 259.125 3.875C258.875 3.75 258.75 3.625 258.75 3.5C258.375 3.375 258.25 3.25 258.375 3.125C258.375 3 258.562 2.9375 258.938 2.9375C259.188 3.0625 259.75 3.25 260.625 3.5C261.375 3.75 262 3.875 262.5 3.875C262.5 3.75 262.562 3.5625 262.688 3.3125C263.188 2.5625 263.5 1.9375 263.625 1.4375C263.875 1.0625 264.25 1 264.75 1.25C266 2 267.125 2.6875 268.125 3.3125C268 3.4375 268.062 3.5625 268.312 3.6875C269.438 3.9375 271.062 4 273.188 3.875H273.75C275 1.875 275.812 0.9375 276.188 1.0625C278.812 2.0625 280.688 3.375 281.812 5C281.812 5.625 281.562 6.0625 281.062 6.3125C280.188 6.8125 279.812 7.25 279.938 7.625V16.25C280.688 15.5 281.25 15.125 281.625 15.125C282.625 15.5 284.375 16.8125 286.875 19.0625C287.625 19.8125 287.875 20.5 287.625 21.125C287.5 21.625 286.75 21.8125 285.375 21.6875C283.125 21.9375 280.938 22.9375 278.812 24.6875C278.938 25.1875 278.688 25.625 278.062 26C277.438 26.25 277.188 26.6875 277.312 27.3125C277.188 30.4375 277.25 32.75 277.5 34.25C277.5 35.875 277 36.75 276 36.875C275.625 37 275 37.125 274.125 37.25C273 37.375 272.25 37.4375 271.875 37.4375C270.375 37.5625 269.75 37.125 270 36.125H258C259.75 36.75 261.312 37.3125 262.688 37.8125C263.062 38.0625 263.25 38.4375 263.25 38.9375C263.25 39.4375 263 39.6875 262.5 39.6875C261.25 40.0625 260.25 40.5 259.5 41C256 44.875 250.125 47 241.875 47.375C241.25 47.375 240.938 47.1875 240.938 46.8125C240.812 46.4375 241.062 46.25 241.688 46.25C248.062 44.125 252.312 41.1875 254.438 37.4375C253.938 37.6875 253.188 37.875 252.188 38C251.688 38 251.375 38 251.25 38C249.5 38.25 248.812 37.4375 249.188 35.5625C249.312 33.0625 249.438 30.1875 249.562 26.9375C249.562 25.6875 249.438 24.25 249.188 22.625C249.188 22.375 249.188 22.125 249.188 21.875C249.062 21.125 249.125 20.6875 249.375 20.5625C249.5 20.3125 249.938 20.25 250.688 20.375C252.688 21 254.688 21.625 256.688 22.25C256.938 22.5 257.188 22.6875 257.438 22.8125ZM271.688 41.5625H279.188C280.562 41.5625 281.938 39.4375 283.312 35.1875C283.438 34.4375 283.688 34.0625 284.062 34.0625C284.438 34.1875 284.688 34.625 284.812 35.375C284.688 38.125 285.25 40 286.5 41C287.125 41.625 287.375 42.3125 287.25 43.0625C286.125 45.5625 283.5 46.875 279.375 47H269.25C265.625 47.125 263.938 45.5625 264.188 42.3125V41.75C264.062 40.875 263.938 39.625 263.812 38C263.688 37.125 264.125 36.6875 265.125 36.6875C266.625 36.8125 268.312 37.1875 270.188 37.8125C271.062 38.1875 271.188 38.75 270.562 39.5C270.312 39.75 270.25 40.1875 270.375 40.8125C270.5 41.1875 270.938 41.4375 271.688 41.5625ZM257.812 10.4375H253.312V14H253.688C254.812 12.5 255.562 11.6875 255.938 11.5625C256.562 11.6875 257.625 12.5 259.125 14C259.375 14.625 259.25 15 258.75 15.125H253.312V17.9375H265.688C265.188 17.9375 264.875 17.6875 264.75 17.1875C264.375 16.6875 263.938 16.0625 263.438 15.3125C261.688 16.3125 259.562 17.125 257.062 17.75C256.188 18 256.062 17.875 256.688 17.375C258.688 16 260.375 14.625 261.75 13.25C261.5 13.125 261.188 12.9375 260.812 12.6875C260.188 12.0625 259.75 11.625 259.5 11.375C259.25 11.25 259.188 11.125 259.312 11C259.312 10.875 259.5 10.75 259.875 10.625C260 10.75 260.375 10.9375 261 11.1875C261.75 11.5625 262.375 11.8125 262.875 11.9375C263 11.8125 263.188 11.5 263.438 11C263.688 10.625 263.938 10.3125 264.188 10.0625C264.312 9.5625 264.688 9.5 265.312 9.875C265.562 10.125 266.25 10.6875 267.375 11.5625C267.75 11.9375 268.062 12.125 268.312 12.125C268.562 12.875 268.375 13.25 267.75 13.25C267.5 13.125 267.062 13.25 266.438 13.625C266.312 13.75 266.25 13.8125 266.25 13.8125C266.25 13.9375 266.312 14 266.438 14C266.562 14.125 266.688 14.1875 266.812 14.1875C268.188 15.5625 268.375 16.75 267.375 17.75C267.25 18 267.125 18.0625 267 17.9375H274.125V15.125C273.625 15.125 272.938 15.25 272.062 15.5C271.688 15.5 271.375 15.5 271.125 15.5C270.375 15.625 270 15.5 270 15.125C269.75 14.625 269.5 14.25 269.25 14C269 13.625 269.125 13.4375 269.625 13.4375C270.875 13.6875 272.375 13.8125 274.125 13.8125V10.25C273 10.25 271.938 10.3125 270.938 10.4375C270.438 10.6875 270.062 10.5625 269.812 10.0625C269.438 9.6875 269.25 9.375 269.25 9.125C269 9 268.938 8.875 269.062 8.75C269.062 9.375 268.875 9.8125 268.5 10.0625C267.5 10.8125 266.5 10.625 265.5 9.5C265 8.75 264.312 8 263.438 7.25C261.812 8.25 260.188 9.0625 258.562 9.6875C258.688 10.1875 258.438 10.4375 257.812 10.4375ZM256.5 32.1875V34.625H270V32.1875H256.5ZM256.5 28.0625V30.6875H270V28.0625H256.5ZM270 24.3125H257.062C256.688 24.5625 256.5 24.9375 256.5 25.4375V26.5625H270V24.3125ZM274.125 5.1875H273.375C272 5.1875 270.688 5.3125 269.438 5.5625C268.938 5.6875 268.625 5.5625 268.5 5.1875C268.125 4.6875 267.875 4.4375 267.75 4.4375H267.562C267.188 4.4375 266.812 4.5625 266.438 4.8125L265.688 5.375C266.562 5.75 267.25 6.125 267.75 6.5C268.625 7.375 269.062 8.0625 269.062 8.5625C269.062 8.5625 269.25 8.5625 269.625 8.5625C270.875 8.8125 272.375 8.9375 274.125 8.9375V5.1875ZM316.125 3.875H323.25C324.25 2.375 325.125 1.5625 325.875 1.4375C328.75 2.4375 330.875 3.8125 332.25 5.5625C332.25 6.1875 331.938 6.6875 331.312 7.0625C330.938 7.3125 330.75 7.75 330.75 8.375C330.75 8.875 330.75 10.375 330.75 12.875C330.875 15.25 330.938 16.5625 330.938 16.8125C331.188 18.4375 330.688 19.3125 329.438 19.4375C327.812 19.9375 326.5 20.1875 325.5 20.1875C324 20.4375 323.375 19.9375 323.625 18.6875V18.125H315.375V19.25C315.375 20.375 314.875 21.0625 313.875 21.3125C313.5 21.4375 312.875 21.5625 312 21.6875C311.125 21.8125 310.562 21.875 310.312 21.875C308.688 22.25 308 21.375 308.25 19.25C308.5 15.75 308.688 12.0625 308.812 8.1875C308.812 5.9375 308.688 4.3125 308.438 3.3125C308.062 2.0625 308.562 1.5625 309.938 1.8125C311.562 2.1875 313.375 2.75 315.375 3.5C315.75 3.75 316 3.875 316.125 3.875ZM329.625 24.5H328.5V29.1875C329.5 27.5625 330.375 26.625 331.125 26.375C332.625 26.75 334.125 27.8125 335.625 29.5625C336 30.4375 335.812 30.9375 335.062 31.0625C334.312 31.0625 333.438 31.0625 332.438 31.0625C331.562 30.9375 330.25 30.875 328.5 30.875V32.5625C328.5 33.1875 328.5 34.75 328.5 37.25C328.625 39.625 328.688 40.9375 328.688 41.1875C328.938 43.5625 328.312 45.25 326.812 46.25C325.812 46.75 324.312 47.1875 322.312 47.5625C320.562 47.9375 319.625 47.5625 319.5 46.4375C319.125 44.4375 317.625 43.125 315 42.5C313.875 42.25 313.438 41.9375 313.688 41.5625C313.562 41.1875 314.125 41 315.375 41C319.875 41.625 321.938 40.6875 321.562 38.1875V30.875H307.125C305.875 31 305 31.125 304.5 31.25C304 31.375 303.688 31.25 303.562 30.875C303.062 30.625 302.75 30.1875 302.625 29.5625C302.25 29.1875 302.312 29.0625 302.812 29.1875C304.312 29.4375 306.125 29.5625 308.25 29.5625H321.562V24.5H308.812C307.438 24.5 306.562 24.5625 306.188 24.6875C305.688 24.8125 305.375 24.6875 305.25 24.3125C304.875 23.9375 304.625 23.5625 304.5 23.1875C304.25 22.9375 304.188 22.8125 304.312 22.8125C304.312 22.6875 304.5 22.625 304.875 22.625C306.375 22.875 308 23 309.75 23H326.062C327.438 20.875 328.375 19.8125 328.875 19.8125C330.625 20.4375 332.25 21.5625 333.75 23.1875C334.125 24.0625 333.938 24.5 333.188 24.5C332.188 24.5 331 24.5 329.625 24.5ZM301.688 24.6875V36.5C301.562 38.875 301.625 41.1875 301.875 43.4375C301.875 45.1875 301.312 46.25 300.188 46.625C299.062 46.875 297.875 47.125 296.625 47.375C294.375 48 293.562 46.875 294.188 44C294.188 43.25 294.25 42.5 294.375 41.75C294.625 39.625 294.75 38.0625 294.75 37.0625V26C292.875 27.25 291 28.3125 289.125 29.1875C288.75 29.4375 288.5 29.5 288.375 29.375C288.25 29.125 288.312 28.8125 288.562 28.4375C293.062 23.5625 296.375 18.25 298.5 12.5C298.5 11.625 298.938 11.3125 299.812 11.5625C301.688 12.1875 303.75 12.875 306 13.625C306.5 14 306.688 14.4375 306.562 14.9375C306.438 15.4375 306.125 15.6875 305.625 15.6875C305.375 15.6875 304.938 16.0625 304.312 16.8125C304.188 17.0625 304.125 17.1875 304.125 17.1875C303.125 18.4375 301.938 19.6875 300.562 20.9375C300.688 21.0625 300.938 21.125 301.312 21.125C301.562 21.25 301.812 21.3125 302.062 21.3125C302.938 21.8125 303.062 22.4375 302.438 23.1875C301.812 23.5625 301.562 24.0625 301.688 24.6875ZM299.812 0.5C301.688 1.125 303.75 1.8125 306 2.5625C306.5 2.9375 306.688 3.375 306.562 3.875C306.438 4.375 306.125 4.625 305.625 4.625C305.375 4.625 304.938 5 304.312 5.75C304.188 6 304.125 6.125 304.125 6.125C300.375 10.625 295.625 14.25 289.875 17C289.375 17.25 289.062 17.3125 288.938 17.1875C288.812 16.9375 288.938 16.625 289.312 16.25C293.562 11.75 296.625 6.8125 298.5 1.4375C298.5 0.5625 298.938 0.25 299.812 0.5ZM310.312 38.1875C310.188 36.1875 309.5 34.3125 308.25 32.5625C308 32.4375 307.938 32.3125 308.062 32.1875C308.188 32.0625 308.438 31.9375 308.812 31.8125C313.312 32.4375 315.938 33.75 316.688 35.75C317.188 38.375 316.25 39.9375 313.875 40.4375C311.875 40.6875 310.688 39.9375 310.312 38.1875ZM315.375 11.75V16.625H323.625V11.75H315.375ZM323.625 5.375H315.562C315.562 5.5 315.5 5.6875 315.375 5.9375C315.375 6.3125 315.375 6.5625 315.375 6.6875V10.25H323.625V5.375ZM381.188 18.875H372.938C374.812 25.25 378.188 30 383.062 33.125C383.812 34 383.75 34.5625 382.875 34.8125C381.25 35.5625 379.875 36.75 378.75 38.375C377.875 39.5 377.062 39.4375 376.312 38.1875C373.562 35.4375 372.125 29 372 18.875H371.438V21.875C371.438 25.25 371.5 29.4375 371.625 34.4375C371.75 38.9375 371.938 42.1875 372.188 44.1875C372.188 45.3125 371.75 46.0625 370.875 46.4375C369.875 46.6875 368.562 47 366.938 47.375C365.188 47.5 364.438 46.9375 364.688 45.6875C364.812 44.0625 364.938 42 365.062 39.5C365.062 37.125 365.125 34.9375 365.25 32.9375C362.75 36.1875 360 38.5 357 39.875C357 41.5 357 42.9375 357 44.1875C357.125 45.1875 356.75 46 355.875 46.625C355.25 46.875 354.188 47.125 352.688 47.375C352.812 47.375 352.688 47.4375 352.312 47.5625C350.562 47.5625 349.812 47 350.062 45.875C350.062 45 350.25 41 350.625 33.875C347.75 37.875 344.938 40.5625 342.188 41.9375C341.688 42.1875 341.375 42.1875 341.25 41.9375C341.125 41.8125 341.25 41.5625 341.625 41.1875C345.75 35.1875 348.625 27.75 350.25 18.875H348.75C348.5 18.875 348.188 18.9375 347.812 19.0625C347.312 19.1875 347 19.1875 346.875 19.0625C346.125 31.6875 343.062 40.25 337.688 44.75C337.312 45 337 45 336.75 44.75C336.5 44.375 336.5 44.0625 336.75 43.8125C338.875 40.3125 339.938 31.375 339.938 17V14C339.812 12.125 339.75 10.3125 339.75 8.5625C339.625 6.9375 339.5 5.8125 339.375 5.1875C339.125 4.4375 339.062 3.9375 339.188 3.6875C339.438 3.4375 339.938 3.375 340.688 3.5C342.812 4.125 345 4.9375 347.25 5.9375C347.75 6.1875 348.125 6.5 348.375 6.875H359.062C358.688 6.625 358.5 6.1875 358.5 5.5625C358.25 3.8125 357.75 2.375 357 1.25C356.625 1 356.5 0.8125 356.625 0.6875C356.625 0.5625 356.875 0.4375 357.375 0.3125C361.5 0.1875 364.062 1.125 365.062 3.125C365.438 4.5 365 5.75 363.75 6.875H371.812C373.688 4 374.938 2.5 375.562 2.375C377.812 3.375 379.875 4.9375 381.75 7.0625C382 7.4375 382 7.8125 381.75 8.1875C381.625 8.4375 381.375 8.5 381 8.375C378.25 8.375 374.562 8.375 369.938 8.375H347.438C347.062 8.625 346.875 9.0625 346.875 9.6875V16.0625C346.875 16.6875 346.875 17.25 346.875 17.75C347.875 17.75 348.75 17.75 349.5 17.75H350.625C350.5 16.375 350.438 15.125 350.438 14C350.312 12.75 350.188 11.6875 350.062 10.8125C349.812 9.5625 350.25 9.0625 351.375 9.3125C352 9.4375 352.938 9.5 354.188 9.5C355.562 9.625 356.625 9.75 357.375 9.875C358 10 358.312 10.3125 358.312 10.8125C358.438 11.1875 358.25 11.5 357.75 11.75C357.125 12.125 356.812 12.8125 356.812 13.8125V16.4375C357.562 15.4375 358.062 14.9375 358.312 14.9375C359.188 15.1875 360.5 16.125 362.25 17.75C363.25 17.75 364.188 17.75 365.062 17.75H365.25C365.125 15.375 365 13.125 364.875 11C364.5 9.875 364.938 9.3125 366.188 9.3125C366.562 9.4375 367.438 9.5625 368.812 9.6875C370.562 9.8125 371.688 9.875 372.188 9.875C372.688 10 373 10.3125 373.125 10.8125C373.125 11.1875 372.875 11.5 372.375 11.75C371.75 12.125 371.438 12.875 371.438 14V17.75H374.062C374.938 15.875 375.812 14.75 376.688 14.375C377.812 14.625 379.375 15.75 381.375 17.75C381.625 18.125 381.75 18.4375 381.75 18.6875C381.75 18.8125 381.562 18.875 381.188 18.875ZM356.812 23.9375V31.4375C356.812 33.8125 356.812 36.1875 356.812 38.5625C360.938 32.6875 363.625 26.125 364.875 18.875H364.125C363.125 19 362.188 19.125 361.312 19.25C360.938 19.375 360.688 19.3125 360.562 19.0625C360.438 19.1875 360.375 19.125 360.375 18.875H356.812V22.625C359.562 23.125 361.375 24 362.25 25.25C362.875 27.5 362.25 29 360.375 29.75C358.5 30.125 357.562 29.4375 357.562 27.6875C357.312 26.1875 357.062 24.9375 356.812 23.9375ZM392.062 19.625V10.625C391.938 9.75 391.875 8.625 391.875 7.25C391.75 6 391.625 4.5 391.5 2.75C391 1.625 391.438 1.0625 392.812 1.0625C395.562 1.4375 397.812 1.75 399.562 2C400.188 2.25 400.562 2.5625 400.688 2.9375C400.812 3.3125 400.625 3.6875 400.125 4.0625C399.375 4.4375 399 5.125 399 6.125V14.75C399.875 13 400.688 10.75 401.438 8C401.562 7.375 402.062 7.1875 402.938 7.4375C404.812 8.3125 406.688 9.1875 408.562 10.0625C408.938 10.3125 409.062 10.625 408.938 11C408.812 11.375 408.562 11.5625 408.188 11.5625C407.438 11.6875 406.938 11.8125 406.688 11.9375C407.188 12.1875 407.75 12.375 408.375 12.5C408.875 12.75 410.188 13.1875 412.312 13.8125C412.438 12.0625 412.375 9.6875 412.125 6.6875H407.812C406.438 6.6875 405.5 6.75 405 6.875C404.75 7 404.438 7 404.062 6.875C404.062 6.875 404.062 6.8125 404.062 6.6875C403.938 6.5625 403.812 6.375 403.688 6.125C403.438 5.875 403.312 5.625 403.312 5.375C403.188 5.125 403.125 5 403.125 5C403.25 4.875 403.438 4.8125 403.688 4.8125C404.688 5.1875 406.375 5.3125 408.75 5.1875H423.188C424.688 2.6875 425.688 1.4375 426.188 1.4375C427.562 2.0625 429.125 3.4375 430.875 5.5625C431.125 6.3125 431 6.6875 430.5 6.6875H420.188C420.188 7.1875 419.938 7.5 419.438 7.625C418.938 7.75 418.562 8.1875 418.312 8.9375C416.938 11.5625 416 13.25 415.5 14H420.75C421.875 12.25 422.75 11.3125 423.375 11.1875C426 12.1875 428.188 13.625 429.938 15.5C429.938 16.125 429.625 16.5625 429 16.8125C428.625 17.0625 428.438 17.4375 428.438 17.9375C428.562 18.1875 428.625 18.3125 428.625 18.3125C428.625 20.3125 428.625 22.9375 428.625 26.1875C428.75 29.4375 428.875 31.875 429 33.5C429 35.125 428.5 36 427.5 36.125C426 36.625 424.5 36.875 423 36.875C421.75 37 421.188 36.5 421.312 35.375V34.8125H411.75C411.625 36.0625 411.062 36.6875 410.062 36.6875C410.688 37.1875 411.688 37.9375 413.062 38.9375C414.188 39.5625 414.875 39.9375 415.125 40.0625C415.5 40.4375 415.625 40.75 415.5 41C415.375 41.25 415.062 41.4375 414.562 41.5625C413.688 41.4375 413 41.625 412.5 42.125C409.125 44 405.125 45.6875 400.5 47.1875C399.625 47.3125 399.125 47.25 399 47C398.875 46.625 399.125 46.25 399.75 45.875C403.5 43 406.375 40.0625 408.375 37.0625C408 37.0625 407.562 37.125 407.062 37.25C406.688 37.25 406.438 37.25 406.312 37.25C406.312 39.125 405.5 40.375 403.875 41C401 42.125 399.375 40.9375 399 37.4375C398.75 35.5625 398.375 33.9375 397.875 32.5625C396.75 38.8125 392.75 43.5625 385.875 46.8125C385.375 47.0625 385.062 47.125 384.938 47C384.562 46.625 384.562 46.25 384.938 45.875C389.938 41.25 392.312 33.125 392.062 21.5V20.9375C391.938 21.1875 391.875 21.4375 391.875 21.6875C391.75 22.8125 391.562 23.5625 391.312 23.9375C389.438 26.4375 387.5 26.9375 385.5 25.4375C384.375 23.8125 384.375 22.1875 385.5 20.5625C387 18.9375 388 16.9375 388.5 14.5625C388.5 14.1875 388.688 13.9375 389.062 13.8125C389.312 13.6875 389.625 13.75 390 14C391 15.75 391.688 17.625 392.062 19.625ZM405 26.1875V19.25C405 18 404.875 16.4375 404.625 14.5625C404.625 14.3125 404.625 14.125 404.625 14C402.875 15.625 401 17.0625 399 18.3125V19.625C399 23.5 398.812 26.8125 398.438 29.5625C401.312 30.8125 403.438 32.25 404.812 33.875C404.812 33 404.812 31.5625 404.812 29.5625C404.938 27.9375 405 26.8125 405 26.1875ZM423.938 45.125C422.562 42.375 420.375 40.125 417.375 38.375C417.125 38.25 417 38.0625 417 37.8125C417.125 37.6875 417.375 37.5625 417.75 37.4375C422.375 37.5625 426.062 38.625 428.812 40.625C430.438 42.125 430.5 43.9375 429 46.0625C426.625 47.5625 424.938 47.25 423.938 45.125ZM411.938 33.5H421.312V28.4375H411.938V33.5ZM411.938 21.875V26.9375H421.312V21.875H411.938ZM421.312 15.5H412.688C412.188 16 411.938 16.4375 411.938 16.8125V20.375H421.312V15.5ZM436.5 27.6875V21.6875C436.375 20.5625 436.312 19.375 436.312 18.125C436.188 17 436.062 16.125 435.938 15.5C435.562 14.125 436.062 13.5 437.438 13.625C439.938 14.25 442.25 14.9375 444.375 15.6875C444.625 15.9375 444.875 16.1875 445.125 16.4375H449.438C450.312 12.9375 450.875 9.75 451.125 6.875V6.6875H441.938C440.562 6.8125 439.188 6.875 437.812 6.875C436.438 7 435.375 7.125 434.625 7.25C434.25 7.5 433.938 7.375 433.688 6.875C433.438 6.75 433.25 6.5 433.125 6.125C433 5.75 432.875 5.4375 432.75 5.1875C432.5 4.9375 432.375 4.8125 432.375 4.8125C432.375 4.6875 432.625 4.625 433.125 4.625C433.75 4.875 434.938 5.0625 436.688 5.1875C438.438 5.3125 440.812 5.3125 443.812 5.1875H467.812C469.688 2.0625 471.125 0.4375 472.125 0.3125C473.875 0.9375 476.188 2.5625 479.062 5.1875C479.312 5.6875 479.375 6.125 479.25 6.5C479.125 6.875 478.875 7 478.5 6.875C476.625 6.875 474.625 6.875 472.5 6.875C470.75 6.75 468.188 6.6875 464.812 6.6875H458.25C458.375 6.6875 458.562 6.8125 458.812 7.0625C458.938 7.0625 459.062 7.0625 459.188 7.0625C460.188 7.9375 460.062 8.6875 458.812 9.3125C458.062 9.6875 457.5 10.125 457.125 10.625C456.5 11.75 455.375 13.375 453.75 15.5C453.5 16 453.312 16.3125 453.188 16.4375H466.688C468.062 14.0625 469 12.8125 469.5 12.6875C471.625 12.9375 474.125 14.1875 477 16.4375C477.625 17.1875 477.5 17.875 476.625 18.5C475.875 19 475.5 19.5 475.5 20V23.9375C475.5 25.4375 475.5 27.5625 475.5 30.3125C475.625 33.1875 475.75 35.8125 475.875 38.1875C476.125 43.0625 473.75 46.125 468.75 47.375C467.125 47.75 466.25 47.375 466.125 46.25C465.5 44.125 464.125 42.75 462 42.125C461.875 42.125 461.812 42.125 461.812 42.125C460.812 42.5 459.875 42.6875 459 42.6875C457.25 43.1875 456.562 42.1875 456.938 39.6875C457.062 36.9375 457.188 33 457.312 27.875V17.9375H453.75V29.5625C453.625 31.0625 453.688 34.5 453.938 39.875C454.062 41.375 453.5 42.3125 452.25 42.6875C451.375 42.9375 450.312 43.1875 449.062 43.4375C447.438 43.9375 446.75 42.9375 447 40.4375C447.25 35.0625 447.375 31.1875 447.375 28.8125V17.9375H444.75C444.5 17.9375 444.438 17.9375 444.562 17.9375C444.062 18.3125 443.875 18.875 444 19.625V31.625C443.875 36.25 443.938 39.875 444.188 42.5C444.438 44.375 443.75 45.5625 442.125 46.0625C441.875 46.0625 441.625 46.0625 441.375 46.0625C439.875 46.4375 438.812 46.6875 438.188 46.8125C436.312 47.4375 435.562 46.25 435.938 43.25C436.062 41.25 436.188 38.875 436.312 36.125C436.312 33.25 436.375 30.4375 436.5 27.6875ZM467.625 17.9375H463.688V28.625C463.688 29.625 463.688 31.3125 463.688 33.6875C463.812 36.1875 463.875 38 463.875 39.125C464 40.25 463.875 40.9375 463.5 41.1875C466.625 41.5625 468 40.1875 467.625 37.0625V17.9375ZM499.688 27.6875V24.125C494.312 29.5 488.438 33.625 482.062 36.5C481.562 36.75 481.25 36.75 481.125 36.5C481 36.125 481.125 35.75 481.5 35.375C490.5 26.875 496.938 17.6875 500.812 7.8125H490.875C489.5 7.9375 488.062 8 486.562 8C485.188 8.125 484.188 8.25 483.562 8.375C483.188 8.5 482.875 8.3125 482.625 7.8125C482.375 7.5625 482.125 7.125 481.875 6.5C481.625 6.375 481.5 6.25 481.5 6.125C481.5 6 481.688 5.9375 482.062 5.9375C483.062 6.1875 484.75 6.375 487.125 6.5C489.125 6.5 490.938 6.5 492.562 6.5H515.25C517.125 3 518.5 1.125 519.375 0.875C521.375 1.875 523.688 3.8125 526.312 6.6875C526.562 7.1875 526.688 7.625 526.688 8C526.562 8.25 526.312 8.3125 525.938 8.1875C521.438 8.0625 516.938 7.9375 512.438 7.8125H505.312C508.062 9.1875 509.75 9.9375 510.375 10.0625C510.875 10.5625 511.125 11.0625 511.125 11.5625C510.875 12.0625 510.438 12.3125 509.812 12.3125C508.938 12.3125 508.25 12.6875 507.75 13.4375C507.5 13.9375 507.188 14.5 506.812 15.125C506.688 15.375 506.562 15.625 506.438 15.875C506.562 16 506.75 16.0625 507 16.0625C507.125 16.1875 507.312 16.25 507.562 16.25C508.062 16.375 508.375 16.6875 508.5 17.1875C508.5 17.5625 508.25 17.875 507.75 18.125C507.25 18.5 507.062 19.0625 507.188 19.8125V27.3125C507.062 34.5625 507.188 39.625 507.562 42.5C507.562 44.5 506.875 45.6875 505.5 46.0625C504.5 46.4375 503.188 46.75 501.562 47C499.312 47.625 498.5 46.4375 499.125 43.4375C499.25 41.8125 499.375 39.6875 499.5 37.0625C499.5 33.9375 499.562 30.8125 499.688 27.6875ZM517.688 33.3125C516.062 29.3125 513.062 25.3125 508.688 21.3125C508.312 21.0625 508.125 20.8125 508.125 20.5625C508.25 20.3125 508.562 20.25 509.062 20.375C515.562 22 520.562 24.6875 524.062 28.4375C525.562 31.0625 525.312 33.3125 523.312 35.1875C520.812 36.4375 518.938 35.8125 517.688 33.3125ZM535.312 22.4375V13.625H533.25C532.125 13.75 531.25 13.875 530.625 14C530.125 14.125 529.812 14 529.688 13.625C529.438 13.5 529.188 13.1875 528.938 12.6875C528.938 12.5625 528.938 12.4375 528.938 12.3125C528.812 12.1875 528.75 12.0625 528.75 11.9375C528.75 11.8125 528.875 11.75 529.125 11.75C529.25 11.875 529.625 11.9375 530.25 11.9375C532.25 12.3125 533.562 12.4375 534.188 12.3125H535.312V9.875C535.188 9 535.125 7.8125 535.125 6.3125C535 4.6875 534.875 3.3125 534.75 2.1875C534.5 1.5625 534.438 1.125 534.562 0.875C534.812 0.625 535.312 0.5 536.062 0.5C538.562 0.75 540.812 1.125 542.812 1.625C543.438 1.75 543.875 2.125 544.125 2.75C544.125 3.25 543.875 3.625 543.375 3.875C542.5 4.25 542.125 4.75 542.25 5.375V11.1875C543 9.8125 543.688 9.0625 544.312 8.9375C545.188 9.0625 546.375 9.8125 547.875 11.1875V9.3125C547.875 6.3125 547.812 4.3125 547.688 3.3125C547.562 2.6875 547.562 2.3125 547.688 2.1875C547.938 2.0625 548.438 2.0625 549.188 2.1875C551.438 2.9375 553.5 3.75 555.375 4.625C555.875 4.875 556.188 5.1875 556.312 5.5625H563.812C564.938 3.6875 565.938 2.625 566.812 2.375C568.312 2.75 570.312 3.9375 572.812 5.9375C573.562 6.9375 573.562 7.8125 572.812 8.5625C572.062 9.1875 571.688 9.9375 571.688 10.8125C571.562 12.0625 571.562 14.5 571.688 18.125C571.812 21.75 571.875 24.125 571.875 25.25C571.875 26.875 571.438 27.75 570.562 27.875C568.812 28.25 567.5 28.375 566.625 28.25C565.125 28.625 564.5 28.125 564.75 26.75V24.5H554.812V37.625C554.688 39.125 555.5 39.875 557.25 39.875H565.688C567.812 40.25 569.75 37.5625 571.5 31.8125C571.75 30.6875 572.062 30.25 572.438 30.5C572.812 30.5 573 30.9375 573 31.8125C572.625 35.4375 573.062 37.75 574.312 38.75C575.438 39.625 576 40.625 576 41.75C576 42.875 575.188 43.875 573.562 44.75C572.062 45.25 570.188 45.5625 567.938 45.6875H554.062C550.062 45.5625 548 43.5 547.875 39.5V20.9375C547.625 21.0625 547.312 21.3125 546.938 21.6875C545.812 22.4375 544.25 23.375 542.25 24.5C542.25 25.75 542.25 28.0625 542.25 31.4375C542.5 35.8125 542.625 39 542.625 41C542.625 43.375 541.875 44.9375 540.375 45.6875C538.875 46.3125 537.562 46.75 536.438 47C534.812 47.125 533.875 46.6875 533.625 45.6875C533 43.4375 531.875 42.0625 530.25 41.5625C529.375 41.1875 529 40.9375 529.125 40.8125C529 40.3125 529.562 40.125 530.812 40.25C534.188 40.75 535.688 39.6875 535.312 37.0625V28.8125C534.688 29.1875 534.062 29.5625 533.438 29.9375C532.688 30.3125 532.312 30.625 532.312 30.875C532.062 31.5 531.688 31.8125 531.188 31.8125C530.812 31.6875 530.5 31.3125 530.25 30.6875C529.625 29.6875 529 27.8125 528.375 25.0625C528.125 24.1875 528.438 23.6875 529.312 23.5625C529.938 23.5625 531 23.375 532.5 23C533.625 22.75 534.562 22.5625 535.312 22.4375ZM564.75 6.875H563.25C563.125 7.25 563 7.5 562.875 7.625C562.5 7.875 562.312 8.125 562.312 8.375V23H564.75V6.875ZM554.812 8.1875V23H557.062V6.875H555C554.75 7.25 554.688 7.6875 554.812 8.1875ZM547.875 19.25V13.625H542.25V20.75C543 20.625 543.75 20.4375 544.5 20.1875C545 20.0625 546.125 19.75 547.875 19.25ZM608.438 41.9375C608.438 41.6875 608.375 41.4375 608.25 41.1875C608.25 41.0625 608.25 41 608.25 41C599.25 42.75 592.438 44.5 587.812 46.25C586.188 47.25 585.25 47.1875 585 46.0625C584 44.1875 583.188 42 582.562 39.5C582.312 38.625 582.688 38.0625 583.688 37.8125C585.812 37.5625 587.375 36.8125 588.375 35.5625C590.375 31.9375 592.188 26.125 593.812 18.125C594.062 17 594.75 16.625 595.875 17C598.375 17.625 601.125 18.5 604.125 19.625C604.75 20 605.062 20.375 605.062 20.75C605.062 21.25 604.75 21.625 604.125 21.875C603.375 22.25 602.562 23 601.688 24.125C597.812 30.5 594.438 35.3125 591.562 38.5625C594.562 38.6875 599.812 38.5625 607.312 38.1875C606.562 36.3125 605.062 33.9375 602.812 31.0625C602.688 30.8125 602.562 30.5625 602.438 30.3125C602.062 29.9375 601.938 29.625 602.062 29.375C602.188 29.125 602.562 29.0625 603.188 29.1875C609.812 31.4375 614.25 34.625 616.5 38.75C617.875 42.375 617.062 45 614.062 46.625C611.188 47.5 609.312 45.9375 608.438 41.9375ZM622.5 20.5625C623.375 20.9375 623.812 21.3125 623.812 21.6875C623.812 22.1875 623.375 22.5625 622.5 22.8125C620.625 23.8125 618.75 25.625 616.875 28.25C616 29.125 615.188 29.25 614.438 28.625C607.688 23.5 603.75 14.8125 602.625 2.5625C602.5 1.9375 602.562 1.5625 602.812 1.4375C602.938 1.3125 603.438 1.3125 604.312 1.4375C605.938 1.9375 607 2.3125 607.5 2.5625C608 2.9375 608.125 3.3125 607.875 3.6875C607.5 4.0625 607.188 4.375 606.938 4.625C606.438 5 606.312 5.4375 606.562 5.9375C609.312 12.9375 614.625 17.8125 622.5 20.5625ZM590.062 2.375C592.062 2.75 594.75 3.5625 598.125 4.8125C598.75 5.1875 599.062 5.625 599.062 6.125C599.062 6.625 598.812 7 598.312 7.25C597.562 7.625 596.938 8.1875 596.438 8.9375C590.562 19.3125 584.375 26.625 577.875 30.875C577.125 31.375 576.688 31.5 576.562 31.25C576.312 31 576.438 30.5625 576.938 29.9375C581.938 23.5625 585.812 14.6875 588.562 3.3125C588.688 2.5625 589.188 2.25 590.062 2.375ZM660.75 30.125H632.438C631.062 30.125 629 30.3125 626.25 30.6875C626.125 30.6875 626.062 30.6875 626.062 30.6875C625.688 30.8125 625.375 30.6875 625.125 30.3125C625 30.3125 624.875 30.1875 624.75 29.9375C624.5 29.5625 624.312 29.1875 624.188 28.8125C624.062 28.4375 624.188 28.25 624.562 28.25C625.188 28.5 626.375 28.6875 628.125 28.8125C630 28.8125 631.875 28.8125 633.75 28.8125H637.125V15.6875H633.375C632.125 15.6875 630.188 15.875 627.562 16.25C627.312 16.25 627.188 16.25 627.188 16.25C626.812 16.375 626.5 16.25 626.25 15.875C625.875 15.625 625.562 15.125 625.312 14.375C625.188 14.25 625.125 14.125 625.125 14C625.125 13.875 625.312 13.8125 625.688 13.8125C626.812 14.1875 629.875 14.3125 634.875 14.1875H637.125V9.5C637 6.25 636.875 3.8125 636.75 2.1875C636.5 1.4375 636.5 1 636.75 0.875C636.875 0.75 637.438 0.6875 638.438 0.6875C641.312 1.0625 643.562 1.5625 645.188 2.1875C646.062 2.6875 646.125 3.3125 645.375 4.0625C644.875 4.4375 644.625 5.0625 644.625 5.9375V14.1875H650.812V9.3125C650.688 5.9375 650.562 3.4375 650.438 1.8125C650.188 1.1875 650.125 0.8125 650.25 0.6875C650.5 0.4375 651.062 0.3125 651.938 0.3125C654.688 0.5625 656.938 1 658.688 1.625C659.562 2.125 659.625 2.6875 658.875 3.3125C658.5 3.6875 658.312 4.375 658.312 5.375V14.1875H660.375C662.25 11.1875 663.5 9.6875 664.125 9.6875C665.75 10.4375 667.625 11.9375 669.75 14.1875C670.125 14.8125 670.25 15.25 670.125 15.5C670 15.75 669.688 15.875 669.188 15.875C666.562 15.75 663.188 15.6875 659.062 15.6875H658.312V28.8125H661.875C664 25.8125 665.312 24.25 665.812 24.125C667.062 24.625 668.938 26.1875 671.438 28.8125C671.812 29.3125 671.938 29.75 671.812 30.125C671.688 30.375 671.375 30.4375 670.875 30.3125C668.375 30.1875 665 30.125 660.75 30.125ZM640.688 31.25C643.188 32.5 645.375 33.8125 647.25 35.1875C647.75 35.6875 647.938 36.25 647.812 36.875C647.688 37.25 647.312 37.4375 646.688 37.4375C646.562 37.5625 646.438 37.625 646.312 37.625C645.062 38 644.188 38.375 643.688 38.75C637.188 42.875 631.125 45.8125 625.5 47.5625C624.75 47.6875 624.312 47.625 624.188 47.375C624.062 47.125 624.312 46.8125 624.938 46.4375C630.062 42.8125 634.688 37.875 638.812 31.625C639.188 31 639.812 30.875 640.688 31.25ZM659.438 44C657.938 40.375 655.125 37.0625 651 34.0625C650.25 33.5625 649.938 33.1875 650.062 32.9375C650.188 32.6875 650.75 32.5625 651.75 32.5625C659.375 33.8125 664.438 36.0625 666.938 39.3125C668.938 42.3125 668.562 44.875 665.812 47C662.938 48.125 660.812 47.125 659.438 44ZM644.625 15.6875V28.8125H650.812V15.6875H644.625ZM681.75 25.625V16.625H679.312C677.812 20.75 676.062 23.9375 674.062 26.1875C673.688 26.6875 673.375 26.875 673.125 26.75C672.875 26.5 672.812 26.125 672.938 25.625C674.438 20.25 675.188 14.125 675.188 7.25C675.188 6.375 675.562 6.0625 676.312 6.3125C676.812 6.4375 677.562 6.625 678.562 6.875C679.938 7 680.938 7.125 681.562 7.25C681.438 6.875 681.375 6.25 681.375 5.375C681.25 4.25 681.188 3.5625 681.188 3.3125C680.812 1.9375 681.312 1.375 682.688 1.625C683.062 1.75 683.688 1.9375 684.562 2.1875C686.812 2.5625 688.375 2.8125 689.25 2.9375C689.875 3.1875 690.188 3.5625 690.188 4.0625C690.312 4.5625 690.125 4.9375 689.625 5.1875C689 5.5625 688.688 6.125 688.688 6.875V13.0625C689.062 12.6875 689.438 12.4375 689.812 12.3125C690.188 12.3125 691.438 13.0625 693.562 14.5625C694.188 12.6875 694.812 10.5625 695.438 8.1875C695.438 8.0625 695.438 7.75 695.438 7.25C696.062 4.5 696.375 2.75 696.375 2C696.375 1.375 696.938 1.125 698.062 1.25C698.438 1.375 698.938 1.5 699.562 1.625C702.062 2.25 703.875 2.75 705 3.125C705.5 3.25 705.75 3.5625 705.75 4.0625C705.625 4.6875 705.312 5 704.812 5C703.812 5.5 703 6.5 702.375 8C701.625 9.75 700.812 11.375 699.938 12.875H710.062C710.812 11.5 711.625 10.5625 712.5 10.0625C714.875 10.9375 717.125 12.375 719.25 14.375C719.375 14.875 719.125 15.375 718.5 15.875C718 16.125 717.75 16.5625 717.75 17.1875C717 26.9375 716.188 34.875 715.312 41C715.188 43.25 714.062 44.875 711.938 45.875C710.438 46.375 709 46.8125 707.625 47.1875C706.25 47.5625 705.5 47.1875 705.375 46.0625C704.75 44.0625 703.188 42.625 700.688 41.75C699.812 41.5 699.5 41.25 699.75 41C699.75 41 700.125 40.9375 700.875 40.8125C701.5 40.9375 703.188 41 705.938 41C707.562 41 708.5 40.0625 708.75 38.1875C709.125 35.3125 709.5 31.4375 709.875 26.5625C710.375 21.1875 710.75 17.0625 711 14.1875H710.625C706.75 32.0625 700.625 42.25 692.25 44.75C691.625 45 691.25 45 691.125 44.75C691 44.5 691.062 44.1875 691.312 43.8125C691.562 43.6875 691.75 43.5625 691.875 43.4375C696.25 39.8125 700.562 30.0625 704.812 14.1875H704.062C700.938 25.9375 696.312 33.3125 690.188 36.3125C689.562 36.6875 689.188 36.75 689.062 36.5C688.938 36.125 689.188 35.625 689.812 35C693.062 30.5 695.75 24.125 697.875 15.875C696.125 18.25 694.062 20.1875 691.688 21.6875C691.188 22.0625 690.875 22.125 690.75 21.875C690.625 21.75 690.688 21.375 690.938 20.75C691.562 19.625 692.188 18.25 692.812 16.625H688.688V23.5625C689.812 23.1875 690.875 22.875 691.875 22.625C692.5 22.375 692.938 22.4375 693.188 22.8125C693.312 23.0625 693.125 23.4375 692.625 23.9375C692.25 24.3125 691.625 24.75 690.75 25.25C689.75 26 689.062 26.5 688.688 26.75V28.0625C688.688 30.0625 688.688 32.75 688.688 36.125C688.812 39.25 688.938 41.5 689.062 42.875C689.312 44.625 688.688 45.6875 687.188 46.0625C686.188 46.4375 684.938 46.75 683.438 47C681.312 47.625 680.5 46.5 681 43.625C681.125 42.125 681.25 40.4375 681.375 38.5625C681.375 36.4375 681.438 34.125 681.562 31.625C680.938 32 680.188 32.5 679.312 33.125C678.688 33.375 678.312 33.5625 678.188 33.6875C677.562 34.0625 677.125 34.4375 676.875 34.8125C676.375 35.4375 676 35.75 675.75 35.75C675.375 35.75 675.062 35.375 674.812 34.625C674.312 33.875 673.812 32.875 673.312 31.625C672.812 30.625 672.5 29.875 672.375 29.375C672.125 28.625 672.5 28.125 673.5 27.875C674.25 27.75 676.062 27.3125 678.938 26.5625C680.188 26.1875 681.125 25.875 681.75 25.625ZM679.688 15.3125H681.75V11.1875C681.75 10.6875 681.688 10.1875 681.562 9.6875C681.312 10.0625 681.062 10.5625 680.812 11.1875C680.562 12.5625 680.188 13.9375 679.688 15.3125ZM731.438 10.4375V8.9375C731.438 5.8125 731.375 3.875 731.25 3.125C731.125 2.375 731.188 1.9375 731.438 1.8125C731.562 1.5625 732 1.5 732.75 1.625C735.125 2.125 737.25 2.75 739.125 3.5C739.375 3.75 739.625 3.9375 739.875 4.0625H749.25C750.625 1.9375 751.625 0.875 752.25 0.875C754 1.5 756.125 2.6875 758.625 4.4375C759.125 5.3125 759 6.0625 758.25 6.6875C757.5 7.0625 757.188 7.6875 757.312 8.5625C757.312 10.0625 757.312 11.75 757.312 13.625C757.438 15.5 757.562 16.875 757.688 17.75C757.938 19.375 757.375 20.3125 756 20.5625C754 20.9375 752.625 21.125 751.875 21.125C750.5 21.5 749.938 20.9375 750.188 19.4375V17.9375H738.75V18.875C738.75 20 738.25 20.6875 737.25 20.9375C736.125 21.1875 734.75 21.4375 733.125 21.6875C731.375 22.0625 730.688 21.1875 731.062 19.0625C731.188 16.5625 731.312 13.6875 731.438 10.4375ZM745.5 44.375V29C745.5 27.375 745.438 26.3125 745.312 25.8125C745.312 25.0625 745.312 24.4375 745.312 23.9375C745.062 22.8125 745.625 22.375 747 22.625C748.75 23.25 750.75 24 753 24.875C753.375 25.25 753.562 25.4375 753.562 25.4375H756.75C758 23.3125 758.938 22.25 759.562 22.25C761.562 22.875 763.625 24.0625 765.75 25.8125C766.25 26.8125 766.125 27.5 765.375 27.875C764.625 28.375 764.312 29 764.438 29.75C764.438 31.75 764.438 34.0625 764.438 36.6875C764.562 39.3125 764.688 41.1875 764.812 42.3125C764.938 43.5625 764.375 44.5 763.125 45.125C762.375 45.25 761.625 45.375 760.875 45.5C760.25 45.5 759.75 45.5625 759.375 45.6875C758 45.9375 757.375 45.375 757.5 44V41H752.438V43.25C752.438 44.25 751.938 44.9375 750.938 45.3125C749.812 45.6875 748.562 45.9375 747.188 46.0625C745.938 46.3125 745.375 45.75 745.5 44.375ZM723.562 31.4375V29.9375C723.438 27.4375 723.312 25.4375 723.188 23.9375C722.938 22.6875 723.438 22.1875 724.688 22.4375C727.562 23.4375 729.688 24.1875 731.062 24.6875C731.062 24.8125 731.125 24.9375 731.25 25.0625C731.375 25.3125 731.5 25.4375 731.625 25.4375H734.812C736.062 23.1875 737 22.0625 737.625 22.0625C739.125 22.4375 741.188 23.625 743.812 25.625C744.312 26.625 744.188 27.375 743.438 27.875C742.688 28.25 742.375 28.875 742.5 29.75V41.75C742.5 43.375 742.062 44.3125 741.188 44.5625C739.312 44.9375 738.062 45.125 737.438 45.125C736.062 45.375 735.438 44.8125 735.562 43.4375V41H730.5V43.25C730.5 44.375 730 45.125 729 45.5C728.25 45.625 727.5 45.75 726.75 45.875C726.125 45.875 725.625 45.9375 725.25 46.0625C723.5 46.3125 722.812 45.625 723.188 44C723.312 40.25 723.438 36.0625 723.562 31.4375ZM750.188 5.5625H739.5C738.875 5.9375 738.625 6.5 738.75 7.25V16.4375H750.188V5.5625ZM735.562 26.75H731.25C730.625 27.125 730.375 27.6875 730.5 28.4375V39.6875H735.562V26.75ZM757.5 26.75H753.375C752.75 27.125 752.438 27.6875 752.438 28.4375V39.6875H757.5V26.75ZM774.75 21.875V14.1875H773.062C772.312 14.3125 771.375 14.4375 770.25 14.5625C769.875 14.8125 769.562 14.6875 769.312 14.1875C769.062 14.0625 768.812 13.8125 768.562 13.4375C768.438 13.1875 768.375 13 768.375 12.875C768.125 12.5 768.25 12.375 768.75 12.5C769.75 12.75 771.5 12.8125 774 12.6875H785.625C787.875 9.9375 789.188 8.6875 789.562 8.9375C790.562 9.3125 792.062 10.375 794.062 12.125C794.688 9 795.125 5.5625 795.375 1.8125C795.375 1.1875 795.75 0.9375 796.5 1.0625C799 1.8125 801.562 2.625 804.188 3.5C804.688 3.875 804.938 4.25 804.938 4.625C804.938 5 804.688 5.3125 804.188 5.5625C803.438 5.8125 802.812 6.5 802.312 7.625C802.188 7.875 802.062 8.0625 801.938 8.1875C801.062 10.3125 800.188 12.1875 799.312 13.8125H804.938C806.938 11.0625 808.188 9.6875 808.688 9.6875C809.438 9.6875 811.375 11.1875 814.5 14.1875C814.75 14.8125 814.562 15.125 813.938 15.125H807.375C808.875 15.75 810.25 16.375 811.5 17C812 17.375 812.25 17.75 812.25 18.125C812.25 18.625 812 18.9375 811.5 19.0625C810.5 19.4375 809.875 20.125 809.625 21.125C808.375 26.375 806.75 30.75 804.75 34.25C807.25 36.75 810.5 38.9375 814.5 40.8125C815.375 40.9375 815.812 41.1875 815.812 41.5625C815.812 41.6875 815.375 41.9375 814.5 42.3125C812 43.3125 810.25 44.625 809.25 46.25C808.5 47.375 807.625 47.4375 806.625 46.4375C804.75 44.9375 802.75 43 800.625 40.625C800.375 40.375 800.25 40.125 800.25 39.875C796.875 42.75 792.562 45.125 787.312 47C786.688 47 786.375 46.9375 786.375 46.8125C786.25 46.5625 786.438 46.3125 786.938 46.0625C791.438 42.6875 795 38.875 797.625 34.625C796.875 32.75 796.25 30.6875 795.75 28.4375C795.375 26.1875 795.125 23.4375 795 20.1875C794.375 20.8125 793.812 21.375 793.312 21.875C793.562 22.125 793.75 22.375 793.875 22.625C793.875 22.75 793.938 22.8125 794.062 22.8125C794.062 23.4375 793.75 23.875 793.125 24.125C792.75 24.5 792.5 25 792.375 25.625C791.75 32.75 791.312 37.1875 791.062 38.9375C790.562 42.6875 788 44.9375 783.375 45.6875C782.125 45.9375 781.375 45.625 781.125 44.75C780.375 42.375 779.062 41 777.188 40.625C775.312 42.5 772.812 44.375 769.688 46.25C769.062 46.5 768.625 46.5 768.375 46.25C768.375 46 768.625 45.625 769.125 45.125C773 41 774.875 33.25 774.75 21.875ZM778.875 8.5625C778.5 6.4375 777.75 4.625 776.625 3.125C776.25 2.875 776.125 2.625 776.25 2.375C776.375 2.125 776.688 1.9375 777.188 1.8125C782.062 1.8125 785.125 3.25 786.375 6.125C787.125 8.625 786.25 10.4375 783.75 11.5625C781 12.5625 779.375 11.5625 778.875 8.5625ZM785.438 22.4375H782.062C781.562 30.8125 780.188 36.5 777.938 39.5C781.812 40.125 783.875 38.75 784.125 35.375C784.375 33.75 784.688 30.5 785.062 25.625C785.188 24.5 785.312 23.4375 785.438 22.4375ZM784.312 14.1875H783.375C782.625 15.0625 782.312 16 782.438 17C782.188 18.5 782.125 19.875 782.25 21.125H785.062C785.938 19.625 786.688 18.75 787.312 18.5C788.312 18.625 789.688 19.3125 791.438 20.5625C792.312 18.5625 793 16.5 793.5 14.375C792.5 14.375 791.25 14.375 789.75 14.375C788.5 14.25 786.688 14.1875 784.312 14.1875ZM802.875 15.125H798.562C798.312 15.625 797.562 16.75 796.312 18.5C797.312 22.25 798.688 25.625 800.438 28.625C801.812 24.75 802.625 20.25 802.875 15.125ZM859.5 8.375V13.625C859.5 18 859.562 22.75 859.688 27.875C859.812 33 860.062 37.375 860.438 41C860.438 42.125 859.875 42.9375 858.75 43.4375C857.75 43.6875 856.5 43.9375 855 44.1875C853.25 44.3125 852.438 43.6875 852.562 42.3125V39.6875H826.5V41C826.5 42.375 825.625 43.25 823.875 43.625C823.5 43.75 822.812 43.875 821.812 44C821.438 44 821.125 44.0625 820.875 44.1875C819.25 44.4375 818.562 43.5 818.812 41.375C819.312 29.625 819.562 21.1875 819.562 16.0625V11.75C819.438 9.75 819.188 7 818.812 3.5C818.688 2.75 818.75 2.3125 819 2.1875C819.125 1.9375 819.625 1.875 820.5 2C821.75 2.25 823.938 3 827.062 4.25C827.312 4.25 827.5 4.25 827.625 4.25H851.812C852.812 2.5 853.688 1.5625 854.438 1.4375C856.188 1.6875 858.25 2.6875 860.625 4.4375C861.5 5.4375 861.438 6.3125 860.438 7.0625C859.688 7.5625 859.375 8 859.5 8.375ZM852.562 38.375V5.75H827.25C826.625 5.75 826.375 6.125 826.5 6.875V38.375H852.562ZM836.062 29V30.3125C836.062 31.3125 835.5 31.9375 834.375 32.1875C833.75 32.4375 832.75 32.6875 831.375 32.9375C831.125 32.9375 831 32.9375 831 32.9375C829.5 33.0625 828.875 32.4375 829.125 31.0625C829.25 29.4375 829.312 26.25 829.312 21.5V17.9375C829.312 15.5625 829.188 13.8125 828.938 12.6875C828.688 11.4375 829.25 11 830.625 11.375C832 11.75 834.125 12.5625 837 13.8125H841.312C842.312 12.0625 843.188 11.0625 843.938 10.8125C845.812 11.1875 847.75 12.1875 849.75 13.8125C850.5 14.8125 850.5 15.5625 849.75 16.0625C849.375 16.4375 849.188 16.875 849.188 17.375V20.1875C849.188 20.6875 849.188 21.875 849.188 23.75C849.312 26.375 849.375 28.0625 849.375 28.8125C849.375 30.3125 848.875 31.1875 847.875 31.4375C846.75 31.9375 845.625 32.25 844.5 32.375C843 32.625 842.312 32.25 842.438 31.25V29H836.062ZM842.438 15.3125H837.188C836.312 15.3125 835.938 15.5625 836.062 16.0625V27.5H842.438V15.3125ZM899.062 6.125H897.75C898.25 7.25 898.062 7.875 897.188 8C896.438 8.125 895.812 8.5 895.312 9.125C894.188 10.75 893.062 12 891.938 12.875H898.875C899.75 11.5 900.5 10.75 901.125 10.625C904.25 11.625 906.438 12.875 907.688 14.375C907.688 14.875 907.375 15.3125 906.75 15.6875C906.375 15.9375 906.188 16.375 906.188 17C906.188 17.5 906.188 19.0625 906.188 21.6875C906.312 23.9375 906.438 25.4375 906.562 26.1875C906.812 27.8125 906.312 28.6875 905.062 28.8125C903.812 29.4375 902.625 29.6875 901.5 29.5625C900 29.8125 899.312 29.25 899.438 27.875V27.125H896.438V30.5C896.438 31.75 896.438 33.5625 896.438 35.9375C896.562 38.0625 896.688 39.75 896.812 41C897.062 43.25 896.562 44.75 895.312 45.5C894.062 46.25 892.188 46.8125 889.688 47.1875C888.062 47.5625 887.312 47.1875 887.438 46.0625C887.438 43.8125 885.938 42.5625 882.938 42.3125C881.938 42.0625 881.5 41.6875 881.625 41.1875C881.625 41.0625 882.188 41 883.312 41C885.688 41 887.312 41 888.188 41C889.188 40.875 889.688 40.1875 889.688 38.9375V27.125H886.312V27.3125C886.312 28.3125 885.812 28.9375 884.812 29.1875C883.562 29.6875 882.188 29.9375 880.688 29.9375C879.438 30.0625 878.938 29.5 879.188 28.25C879.312 26.375 879.438 22.8125 879.562 17.5625C879.562 15.0625 879.5 13.25 879.375 12.125C879.125 10.875 879.625 10.375 880.875 10.625C883.25 11.375 885.188 12 886.688 12.5C886.688 12.625 886.75 12.6875 886.875 12.6875C887 12.8125 887.125 12.875 887.25 12.875H888.75C889 9.875 889.062 7.625 888.938 6.125H877.875C877.625 6.5 877.5 6.9375 877.5 7.4375V20C877.5 32.875 873.875 41.625 866.625 46.25C865.875 46.625 865.438 46.75 865.312 46.625C865.062 46.5 865.188 46.0625 865.688 45.3125C868.812 39.4375 870.375 30.9375 870.375 19.8125V11.9375C870.25 10.8125 870.188 9.375 870.188 7.625C870.062 5.75 869.938 4.25 869.812 3.125C869.562 2.5 869.562 2.0625 869.812 1.8125C870.062 1.5625 870.625 1.5 871.5 1.625C873 1.875 875.188 2.5625 878.062 3.6875C878.562 4.0625 878.938 4.4375 879.188 4.8125H901.125C902.875 2.1875 904.062 0.75 904.688 0.5C907.188 1.5 909.25 3 910.875 5C911.125 5.5 911.125 5.875 910.875 6.125C910.75 6.375 910.5 6.4375 910.125 6.3125C909 6.3125 907.562 6.3125 905.812 6.3125C904.312 6.1875 902.062 6.125 899.062 6.125ZM882.375 30.5C883 30.75 884 31.0625 885.375 31.4375C886.75 31.9375 887.812 32.25 888.562 32.375C889.062 32.75 889.312 33.1875 889.312 33.6875C889.312 34.3125 889 34.625 888.375 34.625C887.25 34.875 886.312 35.375 885.562 36.125C881.812 39.75 877.438 42.625 872.438 44.75C871.812 45 871.438 45 871.312 44.75C871.188 44.625 871.312 44.375 871.688 44C874.438 41.375 876.625 38.6875 878.25 35.9375C879.125 34.4375 879.875 32.875 880.5 31.25C880.625 30.375 881.25 30.125 882.375 30.5ZM903.188 40.625C902.062 37.625 900.062 34.8125 897.188 32.1875C896.812 31.9375 896.688 31.6875 896.812 31.4375C896.938 31.1875 897.25 31.125 897.75 31.25C902.875 32.5 906.688 34.1875 909.188 36.3125C911.062 39.1875 910.938 41.4375 908.812 43.0625C906.062 44.1875 904.188 43.375 903.188 40.625ZM886.312 20.75V25.625H899.438V20.75H886.312ZM899.438 14.375H886.688C886.438 14.75 886.312 15.1875 886.312 15.6875V19.25H899.438V14.375ZM919.125 27.5V23.1875C917.375 25.0625 915.75 26.625 914.25 27.875C913.75 28.25 913.375 28.3125 913.125 28.0625C912.875 27.8125 912.875 27.4375 913.125 26.9375C915.875 22.1875 918.125 16.875 919.875 11C920.375 9.125 920.875 6.625 921.375 3.5C921.375 2.5 921.938 2.0625 923.062 2.1875C924.062 2.4375 925.938 2.9375 928.688 3.6875C929.438 3.9375 930.062 4.0625 930.562 4.0625C931.062 4.3125 931.312 4.75 931.312 5.375C931.312 5.875 931.062 6.1875 930.562 6.3125C929.688 6.5625 929.062 7.1875 928.688 8.1875C927.688 10.4375 926.562 12.625 925.312 14.75C925.688 14.875 926.125 15 926.625 15.125C927.125 15.25 927.438 15.5625 927.562 16.0625C927.562 16.4375 927.375 16.75 927 17C926.375 17.25 926.125 17.8125 926.25 18.6875V26.9375C926.25 29.0625 926.25 31.5625 926.25 34.4375C926.375 37.4375 926.5 40 926.625 42.125C927 42.125 927.812 42.125 929.062 42.125C930.812 42.25 932.125 42.3125 933 42.3125H940.875C942.75 33.9375 944 26.375 944.625 19.625C944.625 18.375 945.188 17.875 946.312 18.125C949.812 18.875 952.375 19.5625 954 20.1875C954.875 21.0625 954.812 21.75 953.812 22.25C952.812 22.375 952.25 22.8125 952.125 23.5625C949.625 30.5625 946.812 36.8125 943.688 42.3125H949.5C950.625 40.1875 951.75 38.875 952.875 38.375C954.75 39.25 956.812 40.625 959.062 42.5C959.312 43.375 959.125 43.8125 958.5 43.8125C954.5 43.8125 950.875 43.8125 947.625 43.8125H932.062C930.438 43.8125 928.875 43.9375 927.375 44.1875C927 44.1875 926.688 44.125 926.438 44C926.188 44.75 925.625 45.3125 924.75 45.6875C923.875 46.0625 922.625 46.4375 921 46.8125C919.625 46.9375 918.812 46.8125 918.562 46.4375C918.188 45.9375 918.188 44.875 918.562 43.25C918.688 41.375 918.812 38.75 918.938 35.375C918.938 32.375 919 29.75 919.125 27.5ZM932.25 34.4375C932.25 29.0625 931.375 24.25 929.625 20C929.375 19.5 929.375 19.1875 929.625 19.0625C929.875 18.8125 930.25 18.875 930.75 19.25C935.375 23 938.438 27.25 939.938 32C940.438 35.75 939.25 38 936.375 38.75C933.75 39.25 932.375 37.8125 932.25 34.4375ZM946.5 15.6875H934.312C932.438 15.8125 930.875 15.9375 929.625 16.0625C929.125 16.1875 928.812 16.0625 928.688 15.6875C928.438 15.5625 928.25 15.375 928.125 15.125C928 14.875 927.875 14.625 927.75 14.375C927.5 14 927.625 13.8125 928.125 13.8125C928.375 13.9375 929.25 14.0625 930.75 14.1875C932.375 14.1875 933.875 14.1875 935.25 14.1875H948.375C949.625 11.8125 950.75 10.375 951.75 9.875C953.875 10.875 955.938 12.375 957.938 14.375C958.188 14.75 958.25 15.125 958.125 15.5C958 15.75 957.812 15.8125 957.562 15.6875C953.688 15.6875 950 15.6875 946.5 15.6875ZM937.875 9.875C937.625 7.5 936.875 5.4375 935.625 3.6875C935.25 3.3125 935.188 3 935.438 2.75C935.562 2.5 935.938 2.4375 936.562 2.5625C940.562 3.5625 943.375 5.1875 945 7.4375C946.125 10.0625 945.312 12 942.562 13.25C939.812 14.125 938.25 13 937.875 9.875ZM973.688 34.0625H971.25V31.0625C971.25 29.4375 971.875 27.6875 973.125 25.8125C974.75 23.8125 975.562 21.75 975.562 19.625C975.562 15.125 974.062 12.8125 971.062 12.6875C968.688 12.9375 967.062 13.8125 966.188 15.3125C966.438 15.3125 966.688 15.3125 966.938 15.3125C969.312 15.4375 970.562 16.5 970.688 18.5C970.438 20.5 969.188 21.625 966.938 21.875C964.562 21.75 963.312 20.4375 963.188 17.9375C963.562 13.5625 966.75 11.125 972.75 10.625C979.125 11 982.562 13.375 983.062 17.75C983.062 20.375 981.438 22.875 978.188 25.25C975.188 27.5 973.688 29.75 973.688 32V34.0625ZM968.25 40.0625C968.5 37.6875 969.812 36.3125 972.188 35.9375C974.688 36.1875 976.062 37.5625 976.312 40.0625C975.938 42.0625 974.562 43.25 972.188 43.625C969.812 43.25 968.5 42.0625 968.25 40.0625Z" fill="#10656A"/>
</svg>
