<svg width="792" height="49" viewBox="0 0 792 49" fill="none" xmlns="http://www.w3.org/2000/svg">
<path d="M34.6875 19.625V23.1875C34.6875 22.8125 35.0625 22.8125 35.8125 23.1875C40.6875 25.0625 44.1875 28.0625 46.3125 32.1875C47.0625 35.6875 46.125 38 43.5 39.125C40.875 39.625 39.3125 38.125 38.8125 34.625C38.3125 31.125 37.0625 27.625 35.0625 24.125C34.8125 24 34.6875 23.8125 34.6875 23.5625V25.8125C34.5625 32.6875 34.625 37.625 34.875 40.625C35.125 42.875 34.4375 44.5 32.8125 45.5C30.9375 46.5 29.0625 47.125 27.1875 47.375C25.5625 47.625 24.6875 47.25 24.5625 46.25C24.1875 44.125 23.125 42.8125 21.375 42.3125C20.375 41.9375 19.9375 41.5625 20.0625 41.1875C19.9375 41.0625 20.5625 41 21.9375 41C25.9375 41.625 27.75 40.375 27.375 37.25V24.875C27.375 25.125 27.1875 25.25 26.8125 25.25C26.1875 25.5 25.875 25.875 25.875 26.375C23.875 32.625 20.4375 37.3125 15.5625 40.4375C14.9375 40.8125 14.5625 40.9375 14.4375 40.8125C14.3125 40.6875 14.4375 40.3125 14.8125 39.6875C16.5625 35.6875 17.8125 32.0625 18.5625 28.8125C18.5625 28.6875 18.5625 28.375 18.5625 27.875C18.9375 26.5 19.1875 25 19.3125 23.375C19.4375 22.375 19.9375 21.9375 20.8125 22.0625C22.6875 22.3125 24.6875 22.8125 26.8125 23.5625C27.1875 23.9375 27.375 24.125 27.375 24.125V23.5625C27.25 22.0625 27.1875 20.625 27.1875 19.25C27.0625 17.875 26.9375 16.875 26.8125 16.25C26.4375 14.875 26.9375 14.3125 28.3125 14.5625C30.0625 14.8125 32.3125 15.1875 35.0625 15.6875C36.3125 16.4375 36.5 17.1875 35.625 17.9375C34.875 18.3125 34.5625 18.875 34.6875 19.625ZM13.5 18.125V35.75C13.375 39.25 13.4375 41.75 13.6875 43.25C13.9375 44.875 13.375 45.9375 12 46.4375C10.75 46.8125 9.4375 47.125 8.0625 47.375C5.9375 48 5.1875 46.875 5.8125 44C5.8125 43.375 5.8125 42.4375 5.8125 41.1875C6.1875 35.6875 6.375 31.5625 6.375 28.8125V22.625C4.625 24.75 2.875 26.4375 1.125 27.6875C0.75 28.0625 0.5 28.125 0.375 27.875C0.25 27.625 0.3125 27.25 0.5625 26.75C3.5625 20.75 5.9375 14.5625 7.6875 8.1875C8.3125 6.4375 8.75 4.1875 9 1.4375C8.875 0.6875 9.375 0.3125 10.5 0.3125C12 0.6875 14.5 1.4375 18 2.5625C18.75 3.3125 18.75 4.0625 18 4.8125C17.125 5.1875 16.625 5.5625 16.5 5.9375C14.875 9.1875 13.4375 12 12.1875 14.375C12.3125 14.375 12.5625 14.4375 12.9375 14.5625C13.3125 14.5625 13.5625 14.5625 13.6875 14.5625C14.5625 15.1875 14.6875 15.8125 14.0625 16.4375C13.5625 16.8125 13.375 17.375 13.5 18.125ZM36.9375 17.375L38.25 12.875H25.875C23.125 17.25 19.625 20.8125 15.375 23.5625C15 23.8125 14.75 23.8125 14.625 23.5625C14.5 23.4375 14.5625 23.125 14.8125 22.625C18.0625 17.625 20.375 12.4375 21.75 7.0625C22 6.0625 22.1875 5.125 22.3125 4.25C22.5625 3.25 22.6875 2.3125 22.6875 1.4375C22.6875 0.5625 23.1875 0.25 24.1875 0.5C25.3125 0.625 27.25 1.125 30 2C30.25 2.125 30.5625 2.1875 30.9375 2.1875C31.3125 2.4375 31.5625 2.8125 31.6875 3.3125C31.5625 3.8125 31.3125 4.0625 30.9375 4.0625C30.0625 4.4375 29.5625 4.9375 29.4375 5.5625C28.5625 7.6875 27.6875 9.625 26.8125 11.375H37.3125C38.1875 9.375 39.125 8.1875 40.125 7.8125C42 8.1875 44.1875 9.625 46.6875 12.125C47.3125 12.75 47.5625 13.4375 47.4375 14.1875C47.3125 14.9375 46.6875 15.3125 45.5625 15.3125C42.5625 15.0625 40.0625 16 38.0625 18.125C37.5625 18.5 37.1875 18.625 36.9375 18.5C36.8125 18.375 36.8125 18 36.9375 17.375ZM68.4375 9.125H74.25C74.875 7 75.25 4.4375 75.375 1.4375C75.25 0.6875 75.6875 0.3125 76.6875 0.3125C79.0625 0.5625 81.5 0.875 84 1.25C84.5 1.5 84.75 1.9375 84.75 2.5625C84.625 3.0625 84.3125 3.3125 83.8125 3.3125C82.9375 3.6875 82.375 4.0625 82.125 4.4375C81 6.0625 79.5 7.625 77.625 9.125H84.5625C85.6875 7.5 86.5 6.625 87 6.5C89.875 7.5 92.1875 8.8125 93.9375 10.4375C93.9375 11.0625 93.625 11.5625 93 11.9375C92.75 12.1875 92.625 12.625 92.625 13.25C92.5 18.25 92.5625 21.4375 92.8125 22.8125C92.8125 24.0625 92.4375 24.875 91.6875 25.25C91.5625 25.375 91.4375 25.4375 91.3125 25.4375C90.0625 25.9375 88.8125 26.1875 87.5625 26.1875C85.9375 26.6875 85.1875 26.3125 85.3125 25.0625V24.125H58.875C58.875 25 58.5 25.5 57.75 25.625C56.625 26.125 55.1875 26.4375 53.4375 26.5625C51.8125 26.9375 51.1875 26.25 51.5625 24.5C51.6875 22.5 51.75 20.6875 51.75 19.0625C51.875 17.6875 51.9375 15.75 51.9375 13.25C51.9375 11 51.8125 9.375 51.5625 8.375C51.3125 7.625 51.3125 7.1875 51.5625 7.0625C51.8125 6.8125 52.375 6.75 53.25 6.875C55.5 7.375 57.625 8.125 59.625 9.125H64.3125C63.8125 8.75 63.5 8 63.375 6.875C63.25 5.75 62.5 4 61.125 1.625C60.75 1.375 60.625 1.1875 60.75 1.0625C60.75 0.8125 61 0.6875 61.5 0.6875C65.625 0.8125 68.4375 1.875 69.9375 3.875C71.1875 6.125 70.6875 7.875 68.4375 9.125ZM57.5625 37.4375V33.5C57.4375 30.875 57.3125 28.8125 57.1875 27.3125C57.0625 26.6875 57.0625 26.3125 57.1875 26.1875C57.3125 26.0625 57.8125 26 58.6875 26C60.4375 26.375 62.625 26.875 65.25 27.5C65.375 27.625 65.5 27.6875 65.625 27.6875H78.375C79.375 25.8125 80.1875 24.875 80.8125 24.875C82.4375 25.25 84.875 26.625 88.125 29C88.5 29.75 88.25 30.3125 87.375 30.6875C86.875 31.0625 86.5625 31.375 86.4375 31.625V38.5625C86.3125 38.9375 86.3125 39.75 86.4375 41C86.5625 42.5 86.625 43.4375 86.625 43.8125C86.875 45.4375 86.375 46.375 85.125 46.625C83.375 47 81.9375 47.25 80.8125 47.375C79.4375 47.5 78.875 46.9375 79.125 45.6875V44H64.875V44.5625C64.875 45.8125 64.25 46.625 63 47C61.5 47.125 60.1875 47.25 59.0625 47.375C57.4375 47.5 56.8125 46.8125 57.1875 45.3125C57.3125 44.0625 57.4375 41.4375 57.5625 37.4375ZM58.875 11.75V22.625H68.625V10.625H60.1875C59.1875 10.625 58.75 11 58.875 11.75ZM64.875 36.6875V42.5H79.125V36.6875H64.875ZM79.125 29.1875H65.625C65 29.5625 64.75 30.0625 64.875 30.6875V35.1875H79.125V29.1875ZM60.9375 18.3125C60.9375 16.6875 60.5 14.875 59.625 12.875C59.375 12.625 59.3125 12.375 59.4375 12.125C59.5625 12 59.875 11.9375 60.375 11.9375C64 12.8125 66.4375 14.25 67.6875 16.25C68.4375 19.125 67.5625 21 65.0625 21.875C62.4375 22.5 61.0625 21.3125 60.9375 18.3125ZM85.3125 12.5V10.625H75.5625V22.625H76.6875C76.5625 22.5 76.625 22.1875 76.875 21.6875C77.75 18.6875 78.25 15.5 78.375 12.125C78.25 11.25 78.6875 10.9375 79.6875 11.1875C80.0625 11.3125 80.5 11.4375 81 11.5625C82.875 11.9375 84.3125 12.25 85.3125 12.5ZM78.1875 22.625H85.3125V15.3125C84.9375 15.5625 84.6875 15.8125 84.5625 16.0625C82.8125 18.4375 80.75 20.5625 78.375 22.4375C78.25 22.5625 78.1875 22.625 78.1875 22.625ZM109.875 29.5625C109.875 29.4375 109.812 29.25 109.688 29C109.562 28.75 109.562 28.5 109.688 28.25C105.562 30.375 103.125 31.875 102.375 32.75C101.75 33.5 101.25 33.875 100.875 33.875C100.5 33.875 100.188 33.5 99.9375 32.75C98.9375 31.5 98.1875 30.0625 97.6875 28.4375C97.4375 28.0625 97.4375 27.6875 97.6875 27.3125C97.8125 27.0625 98.125 26.8125 98.625 26.5625C100 26.0625 101.188 25.1875 102.188 23.9375C103.062 22.5625 103.938 21 104.812 19.25C102.688 20.25 101.562 20.875 101.438 21.125C100.312 22.375 99.5 22.3125 99 20.9375C98 19.5625 97.3125 18.25 96.9375 17C96.6875 16.5 96.6875 16.125 96.9375 15.875C96.8125 15.75 97.0625 15.5 97.6875 15.125C99.1875 14.375 100.188 13.1875 100.688 11.5625C101.812 8.1875 102.5 5.125 102.75 2.375C102.75 1.125 103.438 0.6875 104.812 1.0625C106.438 1.6875 108.438 2.5 110.812 3.5C111.312 3.875 111.562 4.3125 111.562 4.8125C111.562 5.3125 111.25 5.625 110.625 5.75C109.625 6 108.938 6.5625 108.562 7.4375C105.688 11.1875 103.5 13.75 102 15.125C103.375 15.125 105 15.125 106.875 15.125C107 14.625 107.188 13.9375 107.438 13.0625C107.688 12.4375 107.875 11.875 108 11.375C108.125 10 108.812 9.5 110.062 9.875C110.438 10.125 111.188 10.5625 112.312 11.1875C113.688 11.8125 114.688 12.25 115.312 12.5C116.438 13.625 116.375 14.4375 115.125 14.9375C114.375 14.9375 113.688 15.375 113.062 16.25C111.438 18.375 109.875 20.3125 108.375 22.0625C108.375 22.0625 108.5 22.0625 108.75 22.0625C111.75 22.9375 113.875 24.6875 115.125 27.3125C115.5 29.3125 114.875 30.75 113.25 31.625C111.25 32.125 110.125 31.4375 109.875 29.5625ZM140.438 29.1875H131.625C130.875 29.6875 130.562 30.3125 130.688 31.0625V42.3125H133.688C135.312 40.0625 136.562 38.8125 137.438 38.5625C138.188 38.8125 139.938 40.125 142.688 42.5C142.938 42.75 143 43 142.875 43.25C142.875 43.375 142.688 43.5 142.312 43.625H117.375C116.375 43.625 115.438 43.75 114.562 44C114.062 44 113.75 43.9375 113.625 43.8125C113.375 43.4375 113.125 42.9375 112.875 42.3125C112.625 41.8125 112.75 41.6875 113.25 41.9375C115 42.0625 116.688 42.1875 118.312 42.3125H123.375V29.1875H120.188C119.188 29.3125 118.25 29.4375 117.375 29.5625C116.875 29.6875 116.562 29.625 116.438 29.375C116.312 29.25 116.125 29 115.875 28.625C115.75 28.375 115.688 28.125 115.688 27.875C115.438 27.5 115.562 27.375 116.062 27.5C117.688 27.75 119.312 27.875 120.938 27.875H132.375C132.375 27.75 132.5 27.5625 132.75 27.3125C133.5 26.4375 134.188 25.75 134.812 25.25C134.688 25.125 134.562 24.9375 134.438 24.6875C134.188 24.3125 134.125 24 134.25 23.75C133.75 21.75 132.562 19.8125 130.688 17.9375C130.312 17.6875 130.25 17.4375 130.5 17.1875C130.375 17.0625 130.438 16.875 130.688 16.625C132.062 15.125 133.25 12.8125 134.25 9.6875C134.25 8.9375 134.812 8.75 135.938 9.125C137.438 9.875 138.938 10.6875 140.438 11.5625C140.812 11.9375 140.938 12.3125 140.812 12.6875C140.562 12.9375 140.25 13 139.875 12.875C139.25 12.875 138.688 13.125 138.188 13.625C136.312 14.875 134.438 16.125 132.562 17.375C136.188 18.375 138.438 19.6875 139.312 21.3125C139.938 23.1875 139.562 24.625 138.188 25.625C138.938 26.25 139.875 27.0625 141 28.0625C141.25 28.4375 141.312 28.75 141.188 29C141.062 29.125 140.812 29.1875 140.438 29.1875ZM122.25 17.9375V17.75C122.25 17.875 122.25 17.8125 122.25 17.5625C122.25 17.5625 122.312 17.5 122.438 17.375C123.938 14.875 125.125 12.1875 126 9.3125C126 8.3125 126.5 8 127.5 8.375C129.125 8.875 130.875 9.5 132.75 10.25C133.25 11.125 133.062 11.625 132.188 11.75C131.438 11.875 130.812 12.1875 130.312 12.6875C128.312 14.6875 126.312 16.3125 124.312 17.5625C127.562 18.5625 129.75 19.875 130.875 21.5C131.75 23.5 131.312 25 129.562 26C127.562 26.75 126.375 26.125 126 24.125C125.625 22.25 124.5 20.3125 122.625 18.3125C122.25 18.3125 122.125 18.1875 122.25 17.9375ZM117.75 24.3125C117.75 22.4375 116.938 20.5 115.312 18.5C115.062 18.375 115.062 18.1875 115.312 17.9375C115.312 17.8125 115.312 17.625 115.312 17.375C116.188 15.5 116.875 12.75 117.375 9.125C117.25 8.25 117.75 7.875 118.875 8C119.375 8.25 120.5 8.5625 122.25 8.9375C123.375 9.1875 124.062 9.3125 124.312 9.3125C124.562 9.4375 124.688 9.75 124.688 10.25C124.562 10.625 124.312 10.8125 123.938 10.8125C123.188 11.0625 122.562 11.5 122.062 12.125C120.312 14.625 118.5 16.625 116.625 18.125C120.25 19.5 122.375 21.0625 123 22.8125C123.25 25.1875 122.562 26.5625 120.938 26.9375C118.812 27.3125 117.75 26.4375 117.75 24.3125ZM140.25 6.5H117.75C116.625 6.625 115.75 6.75 115.125 6.875C114.5 7 114.188 6.9375 114.188 6.6875C113.812 6.4375 113.562 5.9375 113.438 5.1875C113.188 4.8125 113.25 4.6875 113.625 4.8125C115.5 5.0625 117.188 5.1875 118.688 5.1875H131.625C133.25 2.6875 134.5 1.3125 135.375 1.0625C136.25 1.3125 138 2.75 140.625 5.375C140.875 5.75 140.938 6.0625 140.812 6.3125C140.812 6.4375 140.625 6.5 140.25 6.5ZM97.3125 40.4375C99.0625 38.9375 100.25 37 100.875 34.625C100.875 34.375 101 34.25 101.25 34.25C101.625 34.25 101.875 34.375 102 34.625C103.375 37.625 103.562 40.4375 102.562 43.0625C101.062 44.9375 99.375 45.25 97.5 44C96.375 42.625 96.3125 41.4375 97.3125 40.4375ZM111.375 38.375C111.125 36 110.25 34.125 108.75 32.75C108.375 32.5 108.25 32.3125 108.375 32.1875C108.5 32.0625 108.812 31.9375 109.312 31.8125C112.188 32.0625 114.438 33 116.062 34.625C117.562 37.25 117.188 39.1875 114.938 40.4375C113.188 40.8125 112 40.125 111.375 38.375ZM104.812 40.4375C105.188 38.0625 105.125 35.9375 104.625 34.0625C104.5 33.8125 104.5 33.6875 104.625 33.6875C104.75 33.5625 105 33.5625 105.375 33.6875C108 35.4375 109.625 37.3125 110.25 39.3125C110.5 41.8125 109.438 43.1875 107.062 43.4375C105.188 43.0625 104.438 42.0625 104.812 40.4375ZM103.5 26.75C103.625 26.75 103.75 26.75 103.875 26.75C106 26.375 107.812 26.125 109.312 26C108.812 24.875 108.312 23.875 107.812 23C107.812 23 107.75 22.9375 107.625 22.8125C107.5 22.8125 107.5 22.75 107.625 22.625C106.25 24.25 104.875 25.625 103.5 26.75ZM157.125 29.9375V29.1875C153.125 31.3125 150.812 32.8125 150.188 33.6875C149.188 34.8125 148.375 34.8125 147.75 33.6875C147.5 33.3125 147.188 32.8125 146.812 32.1875C146.188 31.3125 145.75 30.375 145.5 29.375C145.375 28.875 145.438 28.4375 145.688 28.0625C145.688 27.9375 146 27.75 146.625 27.5C147.75 26.75 148.75 25.8125 149.625 24.6875C150.5 23.3125 151.438 21.75 152.438 20C150.688 20.875 149.562 21.5 149.062 21.875C147.938 23.125 147.125 23.0625 146.625 21.6875C145.625 20.3125 144.938 19 144.562 17.75C144.312 17.25 144.312 16.875 144.562 16.625C144.438 16.5 144.688 16.25 145.312 15.875C146.688 15.25 147.688 14.0625 148.312 12.3125C149.188 10.1875 150 7.1875 150.75 3.3125C150.75 2.0625 151.438 1.625 152.812 2C154.438 2.5 156.062 3.1875 157.688 4.0625C158.062 4.1875 158.438 4.3125 158.812 4.4375C159.312 4.6875 159.562 5.125 159.562 5.75C159.562 6.125 159.25 6.4375 158.625 6.6875C157.875 6.8125 157.25 7.25 156.75 8C154.5 10.75 152.125 13.375 149.625 15.875C151 15.875 152.562 15.875 154.312 15.875C155.062 14.125 155.562 12.625 155.812 11.375C156.062 10 156.75 9.5 157.875 9.875C160 10.75 161.688 11.625 162.938 12.5C163.438 12.875 163.688 13.3125 163.688 13.8125C163.688 14.3125 163.375 14.625 162.75 14.75C162 15 161.438 15.5625 161.062 16.4375C158.062 20.3125 155 24 151.875 27.5C153.25 27.5 154.688 27.3125 156.188 26.9375C156.562 26.9375 156.875 26.875 157.125 26.75C156.875 25.75 156.5 24.75 156 23.75C155.75 23.375 155.688 23.125 155.812 23C155.938 22.875 156.188 22.8125 156.562 22.8125C157.812 23.1875 159 23.75 160.125 24.5C160 24.5 160.062 24.4375 160.312 24.3125C165.812 16.8125 168.875 9.75 169.5 3.125C169.375 2.25 169.875 1.875 171 2C173.875 2.875 176.312 3.5625 178.312 4.0625C178.812 4.3125 179 4.6875 178.875 5.1875C178.875 5.6875 178.625 6 178.125 6.125C178 6.25 177.875 6.3125 177.75 6.3125C177.5 6.4375 177.188 6.625 176.812 6.875C180.938 12 185.5 15.5 190.5 17.375C191.25 17.75 191.688 18.125 191.812 18.5C191.812 19 191.438 19.3125 190.688 19.4375C189.188 20.3125 188.062 21.5625 187.312 23.1875C186.938 24.0625 186.312 24.1875 185.438 23.5625C184.812 23.3125 184.188 22.875 183.562 22.25H165.562C164.188 23.375 162.625 24.375 160.875 25.25C161.875 26.125 162.5 27.125 162.75 28.25C163 30.25 162.312 31.625 160.688 32.375C158.562 33.125 157.375 32.3125 157.125 29.9375ZM164.438 36.3125V32.75C164.312 30.625 164.125 29.0625 163.875 28.0625C163.625 27.0625 164.125 26.625 165.375 26.75C167.875 27.375 169.812 27.875 171.188 28.25C171.438 28.5 171.688 28.6875 171.938 28.8125H178.312C179.062 27.3125 179.75 26.5 180.375 26.375C183.375 27.375 185.688 28.625 187.312 30.125C187.438 30.5 187.188 30.9375 186.562 31.4375C186.188 31.6875 186 32.125 186 32.75C186 34.25 186 36.1875 186 38.5625C186.125 40.6875 186.25 42.5 186.375 44C186.375 45.375 185.938 46.1875 185.062 46.4375C184.688 46.4375 183.562 46.625 181.688 47C181.312 47 181 47.0625 180.75 47.1875C179.25 47.1875 178.562 46.625 178.688 45.5V42.3125H171V44.1875C171 45.6875 170.5 46.5625 169.5 46.8125C168 46.9375 166.75 47.0625 165.75 47.1875C164.5 47.4375 164 46.75 164.25 45.125C164.375 43.5 164.438 40.5625 164.438 36.3125ZM178.688 30.3125H171.188C171.188 30.4375 171.125 30.5625 171 30.6875C171 31.0625 171 31.3125 171 31.4375V41H178.688V30.3125ZM167.438 20.9375H177.562C178.438 19.0625 179.188 18 179.812 17.75C179.688 17.75 179.75 17.75 180 17.75C178.5 15.25 177.188 12.1875 176.062 8.5625C174.062 13.6875 171.188 17.8125 167.438 20.9375ZM145.125 41C146.625 40 147.75 38.1875 148.5 35.5625C148.5 35.3125 148.562 35.1875 148.688 35.1875C148.938 35.1875 149.188 35.3125 149.438 35.5625C150.812 38.5625 150.875 41.375 149.625 44C148.375 45.75 146.812 46.0625 144.938 44.9375C144.312 44.3125 144.062 43.6875 144.188 43.0625C144.188 42.1875 144.5 41.5 145.125 41ZM151.688 41.375C152.188 39.125 152.25 36.875 151.875 34.625C151.75 34.375 151.812 34.1875 152.062 34.0625C152.188 33.9375 152.438 33.9375 152.812 34.0625C155.312 36.1875 156.75 38.5 157.125 41C157 42.625 156.062 43.625 154.312 44C152.312 44 151.438 43.125 151.688 41.375ZM158.062 40.0625C157.812 37.3125 157.25 35.25 156.375 33.875C156.125 33.75 156.062 33.5625 156.188 33.3125C156.312 33.1875 156.562 33.125 156.938 33.125C159.812 33.875 161.812 35.5 162.938 38C163.438 40 162.812 41.3125 161.062 41.9375C159.188 42.3125 158.188 41.6875 158.062 40.0625ZM204.75 17.9375V23.5625C205.625 23.1875 206.5 22.875 207.375 22.625L208.5 22.0625V17.375C208.375 13.875 208.125 11.0625 207.75 8.9375C207.5 8.3125 207.438 7.875 207.562 7.625C207.812 7.375 208.312 7.25 209.062 7.25C210.312 7.5 212.562 8 215.812 8.75C216.938 9.375 217.062 10.125 216.188 11C215.562 11.25 215.312 11.75 215.438 12.5V19.4375L218.062 18.3125V7.8125C217.938 7.1875 217.875 6.375 217.875 5.375C217.75 4.375 217.625 3.3125 217.5 2.1875C217.125 0.9375 217.688 0.375 219.188 0.5C220.938 0.75 223 1.125 225.375 1.625C225.875 1.875 226.188 2.25 226.312 2.75C226.312 3.25 226.062 3.5625 225.562 3.6875C225.062 4.0625 224.875 4.5625 225 5.1875V15.6875L228 14.375C229 12.125 229.75 11 230.25 11C233.75 12.5 236.062 13.8125 237.188 14.9375C237.188 15.5625 236.875 16 236.25 16.25C235.875 16.375 235.688 16.875 235.688 17.75C235.562 18.5 235.438 20.4375 235.312 23.5625C235.188 25.4375 235.125 26.75 235.125 27.5C235.125 27.875 235.062 28.25 234.938 28.625C234.938 28.875 234.938 29.0625 234.938 29.1875C235.062 29.0625 235.312 28.9375 235.688 28.8125C236.188 29.0625 236.375 29.625 236.25 30.5C235.75 35.375 236.188 38 237.562 38.375C239.188 39.375 239.938 40.375 239.812 41.375C239.688 42.625 239.125 43.5625 238.125 44.1875C236.875 45.0625 234.75 45.5 231.75 45.5H215.25C210.625 45.5 208.375 43.4375 208.5 39.3125V23.75L207.188 24.125C207.062 24.25 206.875 24.3125 206.625 24.3125C206.125 24.5625 205.5 25 204.75 25.625V33.3125C204.75 34.5625 204.75 36.3125 204.75 38.5625C204.875 40.3125 205 41.8125 205.125 43.0625C205.25 44.8125 204.688 45.875 203.438 46.25C202.438 46.625 201.125 47 199.5 47.375C197.875 47.625 197.188 47 197.438 45.5C197.562 44.125 197.688 42 197.812 39.125C197.812 36 197.875 32.375 198 28.25V22.8125C196.625 24.5625 195.188 26.125 193.688 27.5C193.188 28 192.812 28.1875 192.562 28.0625C192.312 27.9375 192.312 27.5 192.562 26.75C196.438 17.625 198.75 9.5 199.5 2.375C199.625 1 200.25 0.4375 201.375 0.6875C204.25 1.4375 206.625 2.1875 208.5 2.9375C209.5 3.6875 209.438 4.4375 208.312 5.1875C207.562 5.4375 207 6.0625 206.625 7.0625C206 9.3125 205.062 11.5625 203.812 13.8125C203.938 13.9375 204.125 14 204.375 14C204.5 14 204.688 14.0625 204.938 14.1875C205.938 14.6875 206.062 15.3125 205.312 16.0625C204.938 16.4375 204.75 17.0625 204.75 17.9375ZM218.625 39.6875H228.188C231.062 40.4375 233.125 37.4375 234.375 30.6875C233.625 32.4375 231.812 33.625 228.938 34.25C227.688 34.625 226.938 34.3125 226.688 33.3125C226.438 32.0625 225.875 31.0625 225 30.3125C225 30.6875 225 31.1875 225 31.8125C225.125 32.5625 225.188 33.125 225.188 33.5C225.188 34.625 224.625 35.3125 223.5 35.5625C221.875 36.0625 220.25 36.3125 218.625 36.3125C217.625 36.4375 217.188 35.9375 217.312 34.8125C217.438 33.0625 217.562 31.1875 217.688 29.1875C217.812 27.0625 217.938 25 218.062 23V20L215.438 20.9375V35.75C215.188 38.625 216.25 39.9375 218.625 39.6875ZM228.562 15.6875L225 17.1875V26.75V28.25C227.125 28.625 228.188 27.75 228.188 25.625C228.562 20.625 228.688 17.3125 228.562 15.6875ZM266.25 6.875V9.125C266.25 16.375 267.75 22.375 270.75 27.125C274.5 32.75 279.625 36.625 286.125 38.75C287.375 39.25 287.938 39.625 287.812 39.875C287.812 40 287.625 40.125 287.25 40.25C287.125 40.375 286.938 40.5 286.688 40.625C283.938 41.75 282.062 43.25 281.062 45.125C280.438 46.625 279.5 46.8125 278.25 45.6875C269.5 40.8125 265.25 31.5 265.5 17.75C264.625 32.875 256.5 42.25 241.125 45.875C240.75 46 240.5 45.875 240.375 45.5C240.25 45.25 240.438 45 240.938 44.75C252.812 38.5 258.75 26.375 258.75 8.375C258.625 6 258.5 4.375 258.375 3.5C258.125 2.875 258.125 2.4375 258.375 2.1875C258.5 2.0625 259 2 259.875 2C262.25 2.25 264.625 2.6875 267 3.3125C267.625 3.5625 267.938 3.9375 267.938 4.4375C267.938 5.0625 267.625 5.4375 267 5.5625C266.375 5.8125 266.125 6.25 266.25 6.875ZM292.312 33.875V6.875C291.312 6.875 290.5 6.9375 289.875 7.0625C289.5 7.3125 289.25 7.1875 289.125 6.6875C288.75 6.4375 288.5 6.125 288.375 5.75C288.125 5.375 288.25 5.25 288.75 5.375C289.5 5.625 291.125 5.6875 293.625 5.5625H306.188C307.688 2.9375 308.812 1.5625 309.562 1.4375C311.312 2.3125 313 3.6875 314.625 5.5625C314.875 5.9375 314.938 6.25 314.812 6.5C314.812 6.75 314.625 6.875 314.25 6.875H310.875C311 7.125 310.938 7.3125 310.688 7.4375C310.062 7.8125 309.75 8.25 309.75 8.75C311.75 9 313.75 9.125 315.75 9.125H323.062C323.938 7.5 324.875 6.4375 325.875 5.9375C327.875 6.5625 330.312 7.9375 333.188 10.0625C333.812 10.9375 333.688 11.6875 332.812 12.3125C331.438 12.8125 330.75 13.25 330.75 13.625C329.375 23.5 327.562 30.375 325.312 34.25C327.812 36.75 330.875 38.5625 334.5 39.6875C335 40.0625 335.312 40.4375 335.438 40.8125C335.438 40.9375 335.188 41.125 334.688 41.375C332.688 42.125 330.938 43.75 329.438 46.25C328.938 47.25 328.25 47.4375 327.375 46.8125C324.125 44.9375 321.75 42.9375 320.25 40.8125C318.125 42.6875 314.688 44.75 309.938 47C309.188 47.25 308.75 47.3125 308.625 47.1875C308.5 46.9375 308.688 46.5625 309.188 46.0625C312.938 42.1875 315.625 38.625 317.25 35.375C315.25 30.375 314 22.0625 313.5 10.4375C312 10.6875 311 10.8125 310.5 10.8125C310.25 11.0625 310 11 309.75 10.625V29.375V31.625C310.5 31.625 311.312 31.5 312.188 31.25C312.938 31.125 313.438 31.3125 313.688 31.8125C313.812 32.4375 313.5 32.875 312.75 33.125C312.25 33.375 311.625 33.6875 310.875 34.0625C310.375 34.3125 310 34.4375 309.75 34.4375C309.625 36.9375 309.75 40.0625 310.125 43.8125C310.125 44.6875 309.5 45.4375 308.25 46.0625C307.125 46.3125 306.062 46.5625 305.062 46.8125C303.438 47.3125 302.688 46.4375 302.812 44.1875V37.4375C300.312 38.4375 298 39.25 295.875 39.875C294.625 40.25 293.75 40.75 293.25 41.375C292.75 41.875 292.312 42.125 291.938 42.125C291.562 42.125 291.25 41.8125 291 41.1875C290.875 41.0625 290.75 40.8125 290.625 40.4375C289.75 38.3125 289.312 36.8125 289.312 35.9375C288.812 34.6875 289.25 34.0625 290.625 34.0625C291.125 34.1875 291.688 34.125 292.312 33.875ZM323.25 10.4375H315.188H314.812C316.438 17.5625 318.375 23.25 320.625 27.5C321.75 23.375 322.625 17.6875 323.25 10.4375ZM302.812 32.75V24.875H299.25V33.3125C300.25 33.1875 301.438 33 302.812 32.75ZM299.25 6.875V14.75H302.812V6.875H299.25ZM299.25 15.875V23.75H302.812V15.875H299.25ZM373.312 19.625H359.625C359.5 19.75 359.438 19.8125 359.438 19.8125C358.812 20.1875 358.562 20.75 358.688 21.5V36.3125C358.688 38.0625 358.062 38.9375 356.812 38.9375C355.938 39.1875 354.938 39.3125 353.812 39.3125C352.688 39.5625 352.125 38.9375 352.125 37.4375C352.125 36.0625 352.125 34.8125 352.125 33.6875C352.25 32.8125 352.312 31.375 352.312 29.375V23.5625C352.312 22.0625 352.25 20.9375 352.125 20.1875C352.125 19.3125 352.125 18.4375 352.125 17.5625C352 17.0625 352 16.75 352.125 16.625C352.25 16.5 352.625 16.4375 353.25 16.4375C353.25 16.5625 353.375 16.625 353.625 16.625C354.375 16.75 355.25 16.9375 356.25 17.1875V11.375C356.25 7.625 356.125 5.125 355.875 3.875C355.75 3.125 355.75 2.625 355.875 2.375C356 2.25 356.438 2.1875 357.188 2.1875C359.438 2.6875 361.125 3.0625 362.25 3.3125C362.375 3.5625 362.562 3.75 362.812 3.875H369.188C369.938 2.25 370.688 1.3125 371.438 1.0625C372.938 1.3125 374.75 2.25 376.875 3.875C377.375 4.625 377.25 5.1875 376.5 5.5625C375.75 5.9375 375.438 6.3125 375.562 6.6875V15.875C378.188 17 380.062 18.1875 381.188 19.4375C381.438 20.3125 381.25 20.875 380.625 21.125C380 21.5 379.75 21.9375 379.875 22.4375V34.8125C380.125 37.5625 378.312 39.1875 374.438 39.6875C372.812 40.0625 372 39.75 372 38.75C371.625 37.25 370.875 36.1875 369.75 35.5625C369 35.1875 368.688 34.8125 368.812 34.4375C368.812 34.1875 369.25 34.125 370.125 34.25C372.5 34.625 373.562 33.9375 373.312 32.1875V19.625ZM349.875 24.6875V35.9375C349.875 38.4375 352.688 40 358.312 40.625C361.688 40.875 365.25 41 369 41C372.75 41 376.438 40.75 380.062 40.25C381.938 40 383 39.9375 383.25 40.0625C383.5 40.4375 383.188 40.875 382.312 41.375C381.062 42.5 380.438 43.8125 380.438 45.3125C380.188 46.4375 379.438 47 378.188 47C374.062 47.125 370.312 47.125 366.938 47C363.562 47 360.812 46.875 358.688 46.625C354.812 46.25 351.188 44.3125 347.812 40.8125C346.938 39.9375 346.188 39.8125 345.562 40.4375C343.688 42.5625 342.625 44.5 342.375 46.25C342.125 46.875 341.812 47.25 341.438 47.375C341.188 47.375 340.812 47.1875 340.312 46.8125C339.062 46.0625 337.812 44.75 336.562 42.875C336.188 42.375 336.375 41.875 337.125 41.375C341.25 39.125 343.188 37.4375 342.938 36.3125V22.25H340.312C339.688 22.375 338.875 22.5 337.875 22.625C337.5 22.875 337.25 22.875 337.125 22.625C336.625 22.125 336.312 21.5625 336.188 20.9375C336.062 20.8125 336 20.6875 336 20.5625C336.125 20.4375 336.312 20.375 336.562 20.375C337.312 20.75 338.75 20.875 340.875 20.75H342.75C343.75 19.125 344.5 18.3125 345 18.3125C347.125 18.8125 349.125 20 351 21.875C351.375 22.5 351.25 23 350.625 23.375C350 23.625 349.75 24.0625 349.875 24.6875ZM364.688 23.1875H366.375C367.375 21.8125 368.125 21.0625 368.625 20.9375C370.25 21.4375 371.75 22.5625 373.125 24.3125C373 24.8125 372.688 25.25 372.188 25.625C371.938 25.75 371.812 26.1875 371.812 26.9375C371.812 28.0625 371.812 29.25 371.812 30.5C371.938 31.875 371.688 32.625 371.062 32.75C369.938 33.25 369.062 33.4375 368.438 33.3125C367.438 33.5625 367 33.0625 367.125 31.8125V31.25H364.5V32.1875C364.5 33.0625 364.125 33.5625 363.375 33.6875C363.125 33.8125 362.875 33.9375 362.625 34.0625C362.25 34.1875 361.812 34.3125 361.312 34.4375C359.938 34.6875 359.375 34.0625 359.625 32.5625C359.875 30.5625 359.938 28.75 359.812 27.125C359.812 24.875 359.75 23.5625 359.625 23.1875C359.375 22.4375 359.375 22 359.625 21.875C359.75 21.625 360.25 21.5625 361.125 21.6875C362 21.8125 363.062 22.1875 364.312 22.8125C364.438 22.9375 364.562 23.0625 364.688 23.1875ZM343.125 8.9375C342.75 6.4375 342.062 4.625 341.062 3.5C340.562 2.875 340.875 2.4375 342 2.1875C346.5 3.0625 349.188 4.625 350.062 6.875C350.688 9.75 349.812 11.625 347.438 12.5C344.938 13.375 343.5 12.1875 343.125 8.9375ZM369.75 5H362.438C362.062 5.125 361.938 5.5625 362.062 6.3125V10.0625H363C363.875 8.8125 364.562 8.1875 365.062 8.1875C366.562 8.6875 367.875 9.5 369 10.625C369.5 11.375 369.375 11.9375 368.625 12.3125C368.125 12.5625 367.875 13.1875 367.875 14.1875V18.125H369.75V5ZM367.125 24.6875H364.5V29.9375H367.125V24.6875ZM363.562 11.375H362.062V18.125H363.562V11.375ZM420 35.375H419.438V38.1875C419.312 40.8125 419.375 42.9375 419.625 44.5625C419.625 45.8125 419.062 46.5625 417.938 46.8125C417.062 46.9375 415.688 47.125 413.812 47.375C413.438 47.375 413.188 47.4375 413.062 47.5625C412.062 47.5625 411.625 47.0625 411.75 46.0625C411.875 44.1875 412 42.3125 412.125 40.4375C412.25 38.4375 412.375 36.75 412.5 35.375H406.875C405.625 35.5 404.562 35.625 403.688 35.75C403.188 35.875 402.875 35.75 402.75 35.375C402.375 35.125 402 34.6875 401.625 34.0625C401.5 33.9375 401.438 33.8125 401.438 33.6875C401.438 33.5625 401.625 33.5 402 33.5C403 33.875 404.938 34 407.812 33.875H412.5V27.3125H410.625V27.875C410.75 29 410.25 29.625 409.125 29.75C408.125 30.25 406.938 30.5625 405.562 30.6875C403.938 31.1875 403.312 30.125 403.688 27.5C403.938 24.125 404 21.3125 403.875 19.0625C403.875 17.5625 403.812 16.4375 403.688 15.6875C403.688 14.8125 403.688 13.9375 403.688 13.0625C403.562 12.4375 403.562 12 403.688 11.75C403.938 11.625 404.438 11.625 405.188 11.75C405.562 11.875 406.188 12.0625 407.062 12.3125C408.688 12.5625 409.938 12.75 410.812 12.875C411.062 13 411.25 13.125 411.375 13.25H411.75V6.5C411.75 5 411.625 3.5 411.375 2C411.125 0.75 411.688 0.25 413.062 0.5C414.688 0.5 416.688 0.75 419.062 1.25C420.062 1.5 420.125 2.125 419.25 3.125C418.75 3.5 418.562 4.0625 418.688 4.8125V7.0625H422.25C423.625 4.9375 424.562 3.8125 425.062 3.6875C426.562 4.3125 428.312 5.5625 430.312 7.4375C430.688 8.0625 430.5 8.4375 429.75 8.5625H418.688V13.25H420.562C421.312 11.75 422 10.9375 422.625 10.8125C425.75 11.9375 428 13.4375 429.375 15.3125C429.375 15.9375 429.125 16.3125 428.625 16.4375C428.25 16.9375 428.062 17.4375 428.062 17.9375C427.938 22.3125 428 25.125 428.25 26.375C428.5 28 428 28.875 426.75 29C425.375 29.375 424.125 29.5625 423 29.5625C421.5 29.8125 420.875 29.4375 421.125 28.4375V27.3125H419.438V33.875H421.875C423.25 31.5 424.438 30.125 425.438 29.75C427.562 30.625 429.5 32.0625 431.25 34.0625C431.75 35.0625 431.562 35.5625 430.688 35.5625C429.688 35.5625 428.312 35.5625 426.562 35.5625C425.062 35.4375 422.875 35.375 420 35.375ZM397.5 30.3125V29.375C393.125 31.75 390.562 33.375 389.812 34.25C388.812 35.375 388 35.375 387.375 34.25C386.375 32.875 385.625 31.4375 385.125 29.9375C384.875 29.4375 384.875 29 385.125 28.625C385.25 28.5 385.562 28.3125 386.062 28.0625C387.312 27.4375 388.375 26.5 389.25 25.25C390.125 24 391.062 22.375 392.062 20.375C390.438 21.25 389.438 21.875 389.062 22.25C387.938 23.5 387.125 23.4375 386.625 22.0625C385.625 20.8125 384.938 19.5 384.562 18.125C384.312 17.625 384.312 17.25 384.562 17C384.562 16.875 384.75 16.625 385.125 16.25C386.75 15.5 387.812 14.3125 388.312 12.6875C389.312 9.9375 390.125 6.4375 390.75 2.1875C390.75 0.9375 391.438 0.5 392.812 0.875C394.438 1.5 396.438 2.3125 398.812 3.3125C399.312 3.6875 399.562 4.125 399.562 4.625C399.562 5.125 399.25 5.4375 398.625 5.5625C397.875 5.6875 397.312 6.25 396.938 7.25C394.312 11 391.812 14 389.438 16.25C390.812 16.375 392.375 16.3125 394.125 16.0625C394.75 14.5625 395.188 13.1875 395.438 11.9375C395.562 10.5625 396.25 10.0625 397.5 10.4375C397.5 10.5625 397.562 10.625 397.688 10.625C399.688 11.5 401.312 12.3125 402.562 13.0625C403.062 13.4375 403.312 13.875 403.312 14.375C403.188 14.875 402.875 15.1875 402.375 15.3125C401.75 15.4375 401.125 16 400.5 17C398.375 20.125 395.375 23.8125 391.5 28.0625C392.875 28.0625 394.312 27.9375 395.812 27.6875C396.438 27.5625 396.938 27.4375 397.312 27.3125C396.938 25.8125 396.562 24.625 396.188 23.75C395.938 23.5 395.875 23.25 396 23C396.125 22.875 396.375 22.8125 396.75 22.8125C399.75 24.0625 401.75 26 402.75 28.625C403 30.625 402.25 32 400.5 32.75C398.5 33.125 397.5 32.3125 397.5 30.3125ZM410.625 20.9375V25.8125H421.125V20.9375H410.625ZM421.125 14.5625H411.188C410.688 14.9375 410.5 15.5 410.625 16.25V19.4375H421.125V14.5625ZM385.688 41C387.312 39.875 388.5 38.1875 389.25 35.9375C389.375 35.4375 389.75 35.375 390.375 35.75C391.75 38.75 391.875 41.375 390.75 43.625C389.5 45.375 387.875 45.75 385.875 44.75C384.625 43.375 384.562 42.125 385.688 41ZM399.188 39.875C398.812 37.875 398 36.0625 396.75 34.4375C396.5 34.1875 396.438 34 396.562 33.875C396.688 33.75 396.938 33.6875 397.312 33.6875C400.312 34.1875 402.438 35.25 403.688 36.875C404.938 39.625 404.5 41.25 402.375 41.75C400.625 42.125 399.562 41.5 399.188 39.875ZM392.625 41C393.125 39.375 393.062 37.5625 392.438 35.5625C392.312 35.3125 392.312 35.125 392.438 35C392.688 34.875 393 34.875 393.375 35C396 36.75 397.625 38.5 398.25 40.25C398.5 42.75 397.375 44 394.875 44C393.25 43.75 392.5 42.75 392.625 41ZM476.812 8H467.438V11.5625H471C471.75 10.0625 472.438 9.3125 473.062 9.3125C474.688 9.8125 476.625 11.0625 478.875 13.0625C479.25 13.6875 479.375 14.25 479.25 14.75C478.875 15.375 478.25 15.5625 477.375 15.3125C475.75 15.3125 474.375 15.625 473.25 16.25C474 16.75 474.812 17.25 475.688 17.75C476.312 18.375 476.188 18.875 475.312 19.25L467.438 20.375V22.0625C467.188 23.3125 467.688 23.875 468.938 23.75H469.875C471.875 24 472.938 23 473.062 20.75C473.062 20.25 473.25 20 473.625 20C474.125 20.125 474.438 20.4375 474.562 20.9375C474.438 22.4375 474.938 23.4375 476.062 23.9375C477.312 24.9375 477.375 26.0625 476.25 27.3125C475 28.3125 473.562 28.75 471.938 28.625H465.938C462.938 28.75 461.5 27 461.625 23.375V21.3125H460.5C460.25 21.4375 459.875 21.5625 459.375 21.6875C458.875 21.6875 458.562 21.6875 458.438 21.6875V21.875C458.812 34.5 455.188 42.875 447.562 47C447.062 47.25 446.688 47.3125 446.438 47.1875C446.188 46.9375 446.25 46.5625 446.625 46.0625C449 42.9375 450.625 39.875 451.5 36.875C452.375 33.625 452.812 28.75 452.812 22.25H443.438C443.562 22.5 443.438 22.8125 443.062 23.1875C442.812 23.4375 442.562 23.75 442.312 24.125L441.562 28.25H444.562C445.438 26.75 446.188 25.9375 446.812 25.8125C447.312 25.8125 449 26.8125 451.875 28.8125C452.625 29.6875 452.625 30.4375 451.875 31.0625C451.25 31.4375 450.875 31.9375 450.75 32.5625C450.625 33.0625 450.438 34 450.188 35.375C449.812 38 449.562 39.5625 449.438 40.0625C448.688 42.9375 446.562 44.8125 443.062 45.6875C441.312 46.0625 440.438 45.6875 440.438 44.5625C440.062 42.1875 438.375 40.8125 435.375 40.4375C434.75 40.3125 434.438 40 434.438 39.5C434.562 39 434.938 38.8125 435.562 38.9375C440.312 40.3125 442.938 39.875 443.438 37.625C444.062 34 444.5 31.375 444.75 29.75H441.188C441.062 30 440.938 30.3125 440.812 30.6875C440.562 31.0625 440.438 31.3125 440.438 31.4375C439.688 32.3125 439 32.5 438.375 32C437.625 31.875 436.625 31.3125 435.375 30.3125C434.5 29.8125 434.438 29.3125 435.188 28.8125C435.688 28.4375 436.062 27.875 436.312 27.125L437.062 22.25C436.812 22.375 436.312 22.4375 435.562 22.4375C434.938 22.5625 434.562 22.625 434.438 22.625C434.188 22.875 433.875 22.8125 433.5 22.4375C433.375 22.3125 433.188 22.125 432.938 21.875C432.688 21.625 432.562 21.375 432.562 21.125C432.438 20.875 432.375 20.6875 432.375 20.5625C432.375 20.4375 432.562 20.375 432.938 20.375C433.688 20.75 435.625 20.875 438.75 20.75H446.25C446.25 20.75 446.312 20.5625 446.438 20.1875C447.188 18.9375 447.812 18.125 448.312 17.75C447.562 18 446.938 18.0625 446.438 17.9375C445.062 18.1875 444.438 17.6875 444.562 16.4375V15.875H441.562V16.25C441.562 17.375 441.062 18.0625 440.062 18.3125C439.812 18.4375 439.625 18.5 439.5 18.5C438.5 18.75 437.562 18.8125 436.688 18.6875C435.312 19.0625 434.688 18.375 434.812 16.625C434.938 13.875 435.062 11.1875 435.188 8.5625C435.188 7.8125 435.062 6.625 434.812 5C434.812 4.625 434.812 4.3125 434.812 4.0625C434.688 2.9375 435.188 2.4375 436.312 2.5625C437.312 2.8125 438.688 3.25 440.438 3.875C440.688 4 441.062 4.125 441.562 4.25C441.688 4.375 441.812 4.4375 441.938 4.4375C442.188 4.5625 442.375 4.625 442.5 4.625H444C445 3.25 445.75 2.4375 446.25 2.1875C448 2.5625 449.875 3.75 451.875 5.75C452.125 6.5 451.875 7 451.125 7.25C450.75 7.625 450.562 8.0625 450.562 8.5625C450.438 12.0625 450.5 14.25 450.75 15.125C450.75 16.5 450.25 17.3125 449.25 17.5625C449.125 17.5625 449 17.5625 448.875 17.5625C450.25 18.0625 451.562 18.9375 452.812 20.1875V17.375C452.812 15.625 452.75 14.375 452.625 13.625C452.625 12.875 452.625 12.1875 452.625 11.5625C452.25 10.3125 452.75 9.75 454.125 9.875C455.5 10.25 457 10.6875 458.625 11.1875C458.625 11.3125 458.688 11.375 458.812 11.375C458.938 11.5 459.062 11.5625 459.188 11.5625H461.438V6.875C461.438 4.875 461.312 3.25 461.062 2C460.812 1.125 461.188 0.6875 462.188 0.6875C462.938 0.8125 463.875 0.875 465 0.875C466 1 466.938 1.125 467.812 1.25C468.312 1.375 468.625 1.625 468.75 2C468.875 2.375 468.75 2.6875 468.375 2.9375C467.75 3.4375 467.438 3.9375 467.438 4.4375V6.6875H469.312C470.562 4.8125 471.562 3.6875 472.312 3.3125C474.312 4.0625 475.938 5.25 477.188 6.875C477.562 7.625 477.438 8 476.812 8ZM465.938 32.375H464.625C464.25 32.625 464 33.1875 463.875 34.0625C462.75 41.1875 459.312 45.625 453.562 47.375C452.938 47.5 452.562 47.4375 452.438 47.1875C452.312 47.0625 452.5 46.75 453 46.25C456 43.125 457.75 39.4375 458.25 35.1875C458.25 34.6875 458.25 34.125 458.25 33.5C458.25 32.125 458.25 31.0625 458.25 30.3125C458 29.3125 458.438 28.875 459.562 29C461.312 29.5 462.938 30 464.438 30.5C464.812 30.625 465 30.75 465 30.875H465.75C465.875 30.625 465.938 30.5625 465.938 30.6875C466.688 29.4375 467.25 28.8125 467.625 28.8125C468.875 28.9375 470.562 29.875 472.688 31.625C473.562 32.5 473.625 33.1875 472.875 33.6875C472.125 34.0625 471.812 34.5 471.938 35V40.0625C471.812 40.9375 472.25 41.375 473.25 41.375C474 41.5 474.688 39.8125 475.312 36.3125C475.438 35.5625 475.75 35.1875 476.25 35.1875C476.625 35.3125 476.875 35.8125 477 36.6875C476.875 39.0625 477.438 40.5 478.688 41C479.438 41.5 479.75 42.375 479.625 43.625C479 45.75 476.812 46.8125 473.062 46.8125H470.25C467.125 46.9375 465.688 45.0625 465.938 41.1875V32.375ZM467.438 17V18.875L468.75 18.6875C469.625 16.9375 470.25 15.9375 470.625 15.6875L471.562 12.875H459.375C459.125 13.125 459.062 13.1875 459.188 13.0625C458.562 13.5625 458.312 14 458.438 14.375V20C458.812 20 459.375 20 460.125 20C460.625 19.875 461 19.8125 461.25 19.8125H461.625V18.875C461.625 17.25 461.5 15.8125 461.25 14.5625C460.875 13.6875 461.312 13.25 462.562 13.25C463.938 13.375 465.625 13.5625 467.625 13.8125C468.5 14.3125 468.625 14.875 468 15.5C467.625 15.75 467.438 16.25 467.438 17ZM444.562 6.125H442.312C441.688 6.375 441.438 6.875 441.562 7.625V14.375H444.562V6.125ZM492.562 18.6875V14H490.875C489 14.125 487.062 14.25 485.062 14.375C484.688 14.5 484.375 14.375 484.125 14C484 14 483.875 13.875 483.75 13.625C483.5 13.25 483.312 12.875 483.188 12.5C482.938 12.25 483.062 12.125 483.562 12.125C486.062 12.375 488.75 12.5 491.625 12.5H506.438C507.938 8.5 508.75 4.9375 508.875 1.8125C508.75 0.8125 509.188 0.4375 510.188 0.6875C512.312 1.1875 514.625 1.6875 517.125 2.1875C517.5 2.3125 517.688 2.6875 517.688 3.3125C517.688 3.8125 517.438 4.0625 516.938 4.0625C516.188 4.1875 515.625 4.5625 515.25 5.1875C513.375 8.0625 511.188 10.5 508.688 12.5H514.875C516.75 9.25 517.938 7.625 518.438 7.625C520.688 8.625 522.938 10.3125 525.188 12.6875C525.562 13.1875 525.688 13.5625 525.562 13.8125C525.562 14.0625 525.312 14.1875 524.812 14.1875C523.688 14.1875 522.5 14.1875 521.25 14.1875C520.125 14.0625 518.562 14 516.562 14C516.938 14.625 516.812 15.25 516.188 15.875C515.438 16.375 515.125 16.875 515.25 17.375V24.125V25.4375H516C517.875 21.9375 519.25 20.0625 520.125 19.8125C522.125 20.8125 524.5 22.8125 527.25 25.8125C527.75 26.8125 527.562 27.3125 526.688 27.3125C522.938 27.1875 519.125 27.0625 515.25 26.9375C515.25 31.5625 515.438 36.9375 515.812 43.0625C515.938 44.6875 515.5 45.75 514.5 46.25C513 46.75 511.312 47.125 509.438 47.375C507.812 47.625 507.125 46.5625 507.375 44.1875C507.5 39.5625 507.625 33.8125 507.75 26.9375H500.062C499.562 36.3125 493.938 42.9375 483.188 46.8125C482.312 47.0625 481.75 47 481.5 46.625C481.375 46.25 481.75 45.8125 482.625 45.3125C488.75 41.6875 492 35.5625 492.375 26.9375H489.562C487.062 27.0625 484.688 27.1875 482.438 27.3125C481.812 27.4375 481.438 27.3125 481.312 26.9375C481.062 26.8125 480.938 26.625 480.938 26.375C480.812 26.125 480.688 25.875 480.562 25.625C480.312 25.125 480.375 24.875 480.75 24.875C481.5 25.125 482.875 25.25 484.875 25.25C487.125 25.375 489.25 25.4375 491.25 25.4375H492.375C492.375 24.6875 492.375 23.8125 492.375 22.8125C492.5 21.9375 492.562 20.5625 492.562 18.6875ZM507.75 21.3125V14H502.125C502.375 14.75 502.188 15.25 501.562 15.5C500.812 15.75 500.438 16.3125 500.438 17.1875V19.8125C500.438 21.4375 500.375 22.5625 500.25 23.1875C500.25 24.0625 500.25 24.8125 500.25 25.4375H507.75V21.3125ZM494.625 9.125C494.25 6.875 493.312 4.75 491.812 2.75C491.438 2.5 491.312 2.25 491.438 2C491.562 1.75 491.875 1.5625 492.375 1.4375C497 1.5625 500.125 2.8125 501.75 5.1875C503.125 7.9375 502.25 10 499.125 11.375C496.5 12 495 11.25 494.625 9.125ZM566.25 40.625C565.625 36.875 564.688 34.0625 563.438 32.1875C559.812 38.1875 552.062 42.5625 540.188 45.3125C539.438 45.3125 538.938 45.1875 538.688 44.9375C538.562 44.6875 538.812 44.4375 539.438 44.1875C554.312 37.8125 561.375 26.125 560.625 9.125C560.5 7.25 560.375 5.625 560.25 4.25C559.75 2.75 560.062 2.0625 561.188 2.1875C563.812 2.4375 566.5 2.875 569.25 3.5C570.5 4.25 570.562 5.125 569.438 6.125C568.688 6.625 568.312 7.5625 568.312 8.9375C568.312 18.5625 567 25.875 564.375 30.875C569.25 32.25 572.375 34.5625 573.75 37.8125C574.625 40.8125 573.75 42.9375 571.125 44.1875C568.125 45.0625 566.5 43.875 566.25 40.625ZM540.562 9.3125V30.5C544.938 27.875 548.875 25.3125 552.375 22.8125C552.75 22.5625 553.062 22.5625 553.312 22.8125C553.562 23.0625 553.562 23.375 553.312 23.75C545.062 33 539.812 39.375 537.562 42.875C536.812 43.625 536.125 43.6875 535.5 43.0625C533.125 40.8125 531.562 38.8125 530.812 37.0625C530.312 36.3125 530.5 35.5625 531.375 34.8125C532.5 34.4375 533.062 33.375 533.062 31.625V14C532.938 10.5 532.812 7.9375 532.688 6.3125C532.312 5.0625 532.75 4.5 534 4.625C534.75 4.75 535.688 4.875 536.812 5C538.062 5.125 539.5 5.3125 541.125 5.5625C542.25 6.0625 542.375 6.8125 541.5 7.8125C540.75 8.1875 540.438 8.6875 540.562 9.3125ZM547.125 13.625C546.5 10.625 545.562 8.3125 544.312 6.6875C543.938 6.3125 543.875 6.0625 544.125 5.9375C544.25 5.6875 544.625 5.5625 545.25 5.5625C550 6.1875 553 7.875 554.25 10.625C555.375 13.75 554.625 15.8125 552 16.8125C549.25 17.8125 547.625 16.75 547.125 13.625ZM579.375 38V20.75C579.25 19.125 579.188 17.5625 579.188 16.0625C579.062 14.5625 578.938 13.5 578.812 12.875C578.438 11.75 578.938 11.1875 580.312 11.1875C582.562 11.4375 584.812 11.875 587.062 12.5C588.188 13 588.312 13.75 587.438 14.75C586.688 15.375 586.375 15.875 586.5 16.25V36.875C586.625 37 586.938 37 587.438 36.875C587.812 36.75 588.125 36.6875 588.375 36.6875V10.625C588.375 6.375 588.25 3.8125 588 2.9375C587.75 2.1875 587.688 1.75 587.812 1.625C588.062 1.375 588.562 1.25 589.312 1.25C591.312 1.375 593.625 1.75 596.25 2.375C597.375 3 597.5 3.75 596.625 4.625C595.875 5.125 595.562 5.625 595.688 6.125V18.125C596.812 16.25 597.688 15.3125 598.312 15.3125C599.312 15.6875 600.438 16.5 601.688 17.75V10.25C601.688 6.75 601.562 4.25 601.312 2.75C601.188 2 601.688 1.6875 602.812 1.8125C603.188 1.9375 603.562 2 603.938 2C605.938 2.125 607.75 2.3125 609.375 2.5625C609.875 2.6875 610.188 3 610.312 3.5C610.312 4 610.062 4.375 609.562 4.625C609.062 4.875 608.875 5.375 609 6.125V20.1875C610.875 17.4375 612.562 14.5 614.062 11.375C614.438 10.75 615 10.5625 615.75 10.8125C617.75 12.0625 619.75 13.6875 621.75 15.6875C622 16.0625 622.062 16.375 621.938 16.625C621.688 16.875 621.375 17 621 17C620.25 17 619.438 17.25 618.562 17.75C615.938 19.625 612.938 21.5 609.562 23.375C609.312 23.5 609.125 23.625 609 23.75V36.6875C609 38.5625 609.938 39.5 611.812 39.5H612.938C615.188 40.125 617 37.875 618.375 32.75C618.625 31.75 619 31.25 619.5 31.25C619.875 31.375 620 31.875 619.875 32.75C619.375 37 620 39.1875 621.75 39.3125C623.125 40.0625 623.688 40.75 623.438 41.375C622.312 43.875 619.438 45.1875 614.812 45.3125H607.875C603.75 45.3125 601.688 43.4375 601.688 39.6875V36.3125C597.438 38.5625 591.625 41.125 584.25 44C582.875 44.375 581.875 45.0625 581.25 46.0625C580.5 46.9375 579.75 46.8125 579 45.6875C578.5 44.4375 577.75 42.4375 576.75 39.6875C576.5 38.8125 576.812 38.3125 577.688 38.1875C578.188 38.0625 578.75 38 579.375 38ZM595.688 19.4375V35.5625C596.312 35.4375 597.312 35.25 598.688 35C599.938 34.875 600.938 34.6875 601.688 34.4375V19.4375H595.688ZM652.5 16.8125H654C655 15.1875 655.812 14.375 656.438 14.375C658.438 15 660.312 16.25 662.062 18.125C662.312 18.875 662.188 19.375 661.688 19.625C660.938 20 660.5 20.5625 660.375 21.3125V21.6875C660.75 21.3125 661.125 21.0625 661.5 20.9375C663 21.3125 664.688 22.5 666.562 24.5C666.688 25.25 666.5 25.75 666 26C665.375 26.375 665.062 26.9375 665.062 27.6875L664.875 28.0625C665.375 27.5625 665.875 27.25 666.375 27.125C668.25 28 669.938 29.375 671.438 31.25C671.312 31.75 671 32.1875 670.5 32.5625C670 33.1875 669.75 33.875 669.75 34.625C669.5 36.875 669.125 39.0625 668.625 41.1875C668.125 43.6875 667.062 45.3125 665.438 46.0625C664.062 46.5625 662.562 47 660.938 47.375C659.438 47.625 658.688 47.3125 658.688 46.4375C658.062 44.3125 656.812 42.875 654.938 42.125C654.188 41.625 653.875 41.3125 654 41.1875C654 41.0625 654.438 41 655.312 41C659.438 41 661.562 40.4375 661.688 39.3125C662.062 37.3125 662.438 34.6875 662.812 31.4375H637.688C636.438 37.8125 632.75 42.75 626.625 46.25C625.875 46.625 625.375 46.6875 625.125 46.4375C625 46.1875 625.188 45.8125 625.688 45.3125C629.438 40.3125 631.312 33.8125 631.312 25.8125V23.5625C631.312 20.8125 631.062 18.4375 630.562 16.4375C630.312 15.1875 630.812 14.625 632.062 14.75C633.062 15 634.875 15.5 637.5 16.25C637.875 16.5 638.312 16.625 638.812 16.625L639 16.8125H649.688C651.438 13.4375 652.625 10.0625 653.25 6.6875H644.438C646.438 7.1875 647.938 8.125 648.938 9.5C649.938 11.75 649.375 13.4375 647.25 14.5625C644.75 15.4375 643.25 14.625 642.75 12.125C642.5 10.25 641.75 8.5 640.5 6.875C640.25 6.875 640.188 6.8125 640.312 6.6875C639.062 6.6875 637.25 6.6875 634.875 6.6875C632.375 6.5625 630.625 6.4375 629.625 6.3125C629 6.3125 628.625 6.1875 628.5 5.9375C628.5 5.5625 628.812 5.3125 629.438 5.1875C641.812 3.8125 650.812 2.3125 656.438 0.6875C657.438 0.4375 658.438 0.5625 659.438 1.0625C661.062 2.3125 662.812 3.8125 664.688 5.5625C664.938 5.9375 664.938 6.3125 664.688 6.6875C664.312 6.9375 663.938 6.9375 663.562 6.6875C663.188 6.5625 662.688 6.5 662.062 6.5C661.938 6.5 661.75 6.5 661.5 6.5C660.625 6.5 659.812 6.5 659.062 6.5C659.312 6.75 659.688 7 660.188 7.25C660.688 7.5 661.125 7.6875 661.5 7.8125C662.25 8.5625 662.188 9.1875 661.312 9.6875C660.188 9.9375 659.375 10.3125 658.875 10.8125C656.875 13.1875 654.75 15.1875 652.5 16.8125ZM659.625 24.875H638.25V25.25C638.25 26.5 638.188 27.4375 638.062 28.0625C638.062 28.8125 638 29.4375 637.875 29.9375H658.688L659.625 24.875ZM654.562 18.3125H639.188C639.062 18.3125 639 18.375 639 18.5C638.5 18.875 638.25 19.4375 638.25 20.1875V23.375H653.625L654.562 18.3125ZM633.375 12.3125C633 11.0625 632.312 9.5625 631.312 7.8125C630.938 7.5625 630.812 7.375 630.938 7.25C630.938 7.125 631.188 7 631.688 6.875C635.188 7.125 637.688 8.125 639.188 9.875C640.562 12.375 640.062 14.25 637.688 15.5C635.188 16.125 633.75 15.0625 633.375 12.3125ZM636.562 38.1875C637.688 37.6875 638.688 36.25 639.562 33.875C639.688 33.625 639.875 33.5 640.125 33.5C640.375 33.5 640.562 33.6875 640.688 34.0625C641.562 37.5625 641.438 40.25 640.312 42.125C638.438 43.625 636.812 43.6875 635.438 42.3125C634.188 40.9375 634.562 39.5625 636.562 38.1875ZM643.125 39.875C643.25 37.875 642.938 36.125 642.188 34.625C641.938 34.375 641.875 34.1875 642 34.0625C642.125 33.9375 642.375 33.875 642.75 33.875C645.625 34.75 647.438 36.0625 648.188 37.8125C648.812 40.0625 648.188 41.4375 646.312 41.9375C644.312 42.0625 643.25 41.375 643.125 39.875ZM649.875 38.75C649.75 37.25 649.25 35.8125 648.375 34.4375C648.25 34.1875 648.188 34 648.188 33.875C648.312 33.75 648.562 33.6875 648.938 33.6875C652.062 34.0625 654 35.3125 654.75 37.4375C655.5 39.5625 654.938 40.75 653.062 41C651.188 41.375 650.125 40.625 649.875 38.75ZM656.438 38C656.062 36.25 655.375 34.8125 654.375 33.6875C654 33.5625 653.812 33.4375 653.812 33.3125C653.938 33.1875 654.188 33.0625 654.562 32.9375C657.562 32.6875 659.625 33.4375 660.75 35.1875C661.5 36.8125 661.25 38.1875 660 39.3125C658.25 40.3125 657.062 39.875 656.438 38ZM699.188 30.3125V30.875H711.375C712.25 29.375 713.062 28.4375 713.812 28.0625C715.188 28.5625 716.938 29.5625 719.062 31.0625C719.312 31.5625 719.438 32 719.438 32.375C719.312 32.625 719.062 32.6875 718.688 32.5625C718.438 32.5625 717.625 32.5625 716.25 32.5625C713.625 32.4375 711.875 32.375 711 32.375H700.125C705.375 36 711.312 37.875 717.938 38C718.438 38.125 718.75 38.4375 718.875 38.9375C718.875 39.3125 718.625 39.625 718.125 39.875C716.625 40.625 715.438 41.875 714.562 43.625C714.188 44.625 713.562 45 712.688 44.75C706.438 43 701.938 39.8125 699.188 35.1875V36.125C699.188 37.25 699.188 38.8125 699.188 40.8125C699.312 42.1875 699.375 43.3125 699.375 44.1875C699.375 45.4375 698.812 46.25 697.688 46.625C696.062 47 694.312 47.25 692.438 47.375C691.312 47.375 690.875 46.8125 691.125 45.6875C691.125 44.9375 691.312 42.125 691.688 37.25C687.688 40.75 681.75 43.5625 673.875 45.6875C673.125 45.8125 672.625 45.75 672.375 45.5C672.375 45.125 672.688 44.8125 673.312 44.5625C679.688 40.4375 684.125 36.375 686.625 32.375H680.812C679.688 32.5 678.625 32.5625 677.625 32.5625C676.625 32.6875 675.812 32.8125 675.188 32.9375C674.812 33.1875 674.5 33.0625 674.25 32.5625C674 32.4375 673.75 32.1875 673.5 31.8125C673.375 31.5625 673.312 31.375 673.312 31.25C673.188 31 673.125 30.8125 673.125 30.6875C673.125 30.5625 673.312 30.5 673.688 30.5C674.812 30.875 677.312 31 681.188 30.875H691.875C691.75 30.5 691.688 30 691.688 29.375C691.562 28.625 691.5 28 691.5 27.5C691.5 27.5 691.5 27.4375 691.5 27.3125C691.375 27.3125 691.25 27.375 691.125 27.5C690.875 27.5 690.688 27.5 690.562 27.5C689.688 27.625 689.125 27.375 688.875 26.75C688.75 27.875 688.062 28.625 686.812 29C684.188 29.5 683.125 28.375 683.625 25.625C683.625 25.5 683.625 25.25 683.625 24.875C681.125 25.75 679.062 26.6875 677.438 27.6875C676.438 28.3125 675.812 28.125 675.562 27.125C675.188 26.125 674.812 24.875 674.438 23.375C674.188 22.5 674.5 22 675.375 21.875C676.125 21.875 677 21.5 678 20.75C678.75 19.625 679.625 18.1875 680.625 16.4375C679.75 16.8125 678.688 17.25 677.438 17.75C676.188 18.375 675.5 18.1875 675.375 17.1875C674.75 15.9375 674.375 14.875 674.25 14C674 13.375 674.312 12.9375 675.188 12.6875C676.062 12.6875 676.688 12.375 677.062 11.75C678.312 9.75 679.438 6.9375 680.438 3.3125C680.562 2.5625 681.062 2.375 681.938 2.75C683.812 3.625 685.5 4.5 687 5.375C687.375 5.75 687.5 6.1875 687.375 6.6875C687.25 7.1875 687 7.3125 686.625 7.0625C685.875 6.9375 685.25 7.1875 684.75 7.8125C684.25 8.3125 683.688 8.9375 683.062 9.6875C681.688 11.1875 680.438 12.4375 679.312 13.4375C680.312 13.4375 681.312 13.4375 682.312 13.4375C682.812 12.5625 683.312 11.5 683.812 10.25C684.312 9.75 684.875 9.625 685.5 9.875C686.125 10.25 687 10.8125 688.125 11.5625C688.25 11.6875 688.5 11.8125 688.875 11.9375C688.75 11.5625 688.688 10.9375 688.688 10.0625C688.562 8.4375 688.438 7.1875 688.312 6.3125C688.188 5.3125 688.688 4.875 689.812 5C690.812 5.25 691.812 5.5 692.812 5.75C693.062 4.25 693.125 2.8125 693 1.4375C693 0.6875 693.438 0.3125 694.312 0.3125C695.688 0.5625 697.062 0.875 698.438 1.25C699.312 1.875 699.375 2.4375 698.625 2.9375C697.875 3.1875 697.438 3.5 697.312 3.875C696.688 4.875 696 5.8125 695.25 6.6875C695.375 6.6875 695.562 6.875 695.812 7.25H696.188C697.062 5.875 697.812 5.125 698.438 5C701.062 5.75 703 6.75 704.25 8C704.125 8.625 703.875 9.0625 703.5 9.3125C703 9.6875 702.75 10.1875 702.75 10.8125V13.0625C702.75 13.0625 702.875 13 703.125 12.875C703.25 12.875 703.375 12.8125 703.5 12.6875C704.375 12.6875 705 12.375 705.375 11.75C706.125 10.5 707.25 7.6875 708.75 3.3125C708.75 2.5625 709.25 2.375 710.25 2.75C712.125 3.625 713.812 4.5 715.312 5.375C715.688 5.75 715.812 6.1875 715.688 6.6875C715.562 7.1875 715.312 7.3125 714.938 7.0625C714.188 6.9375 713.562 7.1875 713.062 7.8125C712.562 8.3125 712 8.9375 711.375 9.6875C710 11.1875 708.75 12.4375 707.625 13.4375C708.625 13.4375 709.625 13.4375 710.625 13.4375C711.125 12.5625 711.625 11.5 712.125 10.25C712.625 9.75 713.188 9.625 713.812 9.875C715.438 10.875 716.938 11.8125 718.312 12.6875C718.688 13.1875 718.812 13.625 718.688 14C718.562 14.375 718.25 14.5625 717.75 14.5625C716.875 14.5625 716.125 14.8125 715.5 15.3125C714.875 16.1875 713.938 17.25 712.688 18.5C715.688 19.5 717.688 20.9375 718.688 22.8125C719.438 25.1875 719.062 26.75 717.562 27.5C715.062 28.75 713.625 28 713.25 25.25C713.25 25 713.25 24.75 713.25 24.5C710.5 25.375 708 26.5 705.75 27.875C704.75 28.5 704.125 28.3125 703.875 27.3125C703.5 26.3125 703.125 25.0625 702.75 23.5625V24.3125C702.625 25.5625 702.188 26.25 701.438 26.375C700.562 26.75 699.688 27 698.812 27.125C698.938 27.125 699.125 27.1875 699.375 27.3125C699.5 27.4375 699.688 27.4375 699.938 27.3125C700.562 27.6875 700.688 28.3125 700.312 29.1875C699.562 29.4375 699.188 29.8125 699.188 30.3125ZM688.875 24.3125V14.5625C688.125 14.5625 687.562 14.8125 687.188 15.3125C686.812 15.6875 686.312 16.25 685.688 17C685.062 17.75 684.625 18.25 684.375 18.5C686.375 20 687.875 21.9375 688.875 24.3125ZM702.75 14.9375V22.25C702.875 22.125 703.188 22 703.688 21.875C704.438 21.875 705.312 21.5 706.312 20.75C707.062 19.625 707.938 18.1875 708.938 16.4375C708.688 16.5625 708.312 16.75 707.812 17C706.812 17.375 706.062 17.625 705.562 17.75C704.438 18.375 703.75 18.1875 703.5 17.1875C703.25 16.5625 703 15.8125 702.75 14.9375ZM694.5 16.25V23H696.75V16.25H694.5ZM696.75 8.375H695.062C694.688 8.625 694.5 9 694.5 9.5V14.9375H696.75V8.375ZM708.188 22.8125C709.938 22.6875 711.5 22.5625 712.875 22.4375C712.625 21.4375 712.25 20.4375 711.75 19.4375C710.375 20.8125 709.188 21.9375 708.188 22.8125ZM679.875 22.8125C681.375 22.6875 682.688 22.5625 683.812 22.4375C683.812 21.4375 683.688 20.375 683.438 19.25C682.812 20 681.938 20.9375 680.812 22.0625C680.312 22.4375 680 22.6875 679.875 22.8125ZM696.75 26V24.125H694.5V24.5C694.5 25.5 694.375 26.0625 694.125 26.1875C694.375 26.3125 694.812 26.4375 695.438 26.5625C695.938 26.6875 696.375 26.75 696.75 26.75C696.75 26.625 696.75 26.375 696.75 26ZM765.188 20.5625H757.312V25.8125H759.562C759.562 25.8125 759.688 25.625 759.938 25.25C760.812 24 761.5 23.375 762 23.375C764.75 24.5 766.688 25.8125 767.812 27.3125C767.812 27.8125 767.562 28.3125 767.062 28.8125C766.688 29.0625 766.5 29.5 766.5 30.125C766.25 33.625 766 37.125 765.75 40.625C765.375 43.875 762.625 45.875 757.5 46.625C756.25 46.75 755.5 46.375 755.25 45.5C754.875 43.5 753.625 42.0625 751.5 41.1875C750.75 41.0625 750.5 40.8125 750.75 40.4375C750.625 40.1875 751.062 40.0625 752.062 40.0625C757.188 40.6875 759.625 40.0625 759.375 38.1875C759.5 37.5625 759.562 36.9375 759.562 36.3125C759.188 36.9375 758.625 37.3125 757.875 37.4375C756.25 37.5625 755.375 36.6875 755.25 34.8125C754.875 32.5625 754.312 30.75 753.562 29.375C753.438 28.75 753.688 28.5 754.312 28.625C757.188 29.75 759.062 31 759.938 32.375C759.938 32.625 759.938 32.6875 759.938 32.5625C759.938 31.9375 759.938 31.25 759.938 30.5C760.062 29.75 760.125 28.6875 760.125 27.3125H746.625C746.625 27.4375 746.562 27.5625 746.438 27.6875C746.312 27.8125 746.312 27.875 746.438 27.875C745.812 28.625 745.188 28.875 744.562 28.625C742.812 28.25 741.438 27.6875 740.438 26.9375C739.562 26.4375 739.438 25.8125 740.062 25.0625C740.688 24.4375 741 23.3125 741 21.6875V8.5625C741 6.9375 740.938 5.8125 740.812 5.1875C740.562 4.4375 740.5 3.9375 740.625 3.6875C740.875 3.4375 741.375 3.375 742.125 3.5C744.625 4 746.562 4.5625 747.938 5.1875C748.312 5.4375 748.625 5.625 748.875 5.75H759.75C760.75 4 761.562 3 762.188 2.75C763.438 3.25 764.75 4.25 766.125 5.75C766.375 6.125 766.5 6.5 766.5 6.875C766.375 7.125 766.125 7.25 765.75 7.25H757.312V12.5H759.375C760.125 10.875 760.938 9.8125 761.812 9.3125C763.062 9.8125 764.375 10.875 765.75 12.5C766.25 13.375 766.125 13.875 765.375 14H757.312V19.0625H759.375C760.125 17.6875 760.875 16.6875 761.625 16.0625C762.75 16.4375 764.062 17.4375 765.562 19.0625C765.812 19.4375 765.938 19.8125 765.938 20.1875C765.812 20.4375 765.562 20.5625 765.188 20.5625ZM722.438 22.25V15.125C722.312 11.875 722.188 8.8125 722.062 5.9375C721.938 5.3125 721.938 4.9375 722.062 4.8125C722.312 4.5625 722.75 4.5 723.375 4.625C725.375 5.25 727.375 5.9375 729.375 6.6875C729.75 6.9375 730 7.1875 730.125 7.4375H730.875C731.625 5.6875 732.375 4.6875 733.125 4.4375C735 4.9375 737.125 6.125 739.5 8C739.625 8.625 739.312 9.125 738.562 9.5C738.188 9.75 738 10.1875 738 10.8125V20.9375C738 22.0625 738 23.5625 738 25.4375C738.125 27.1875 738.25 28.375 738.375 29C738.5 30 738.125 30.625 737.25 30.875C736 31.5 734.688 31.8125 733.312 31.8125C731.688 32.1875 731 31.8125 731.25 30.6875V29.375H729.188V30.6875C729.188 32.6875 728.625 33.75 727.5 33.875C727.125 34 726.75 34.0625 726.375 34.0625C725.125 34.4375 724.25 34.5625 723.75 34.4375C722 34.6875 721.375 33.875 721.875 32C722 31.375 722.125 30.1875 722.25 28.4375C722.25 26.4375 722.312 24.375 722.438 22.25ZM736.125 35.75C737.75 34.25 738.938 32.3125 739.688 29.9375C739.688 29.6875 739.75 29.5625 739.875 29.5625C740.125 29.5625 740.375 29.6875 740.625 29.9375C742.125 32.4375 742.125 35.3125 740.625 38.5625C739.375 40.1875 737.875 40.5 736.125 39.5C734.875 38.375 734.875 37.125 736.125 35.75ZM731.25 8.75H729.188C729.188 9.125 729.188 9.4375 729.188 9.6875V28.0625H731.25V8.75ZM749.25 35.9375C749.25 33.8125 748.812 31.75 747.938 29.75C747.688 29.5 747.625 29.3125 747.75 29.1875C747.875 29.0625 748.125 29.0625 748.5 29.1875C751.25 30.3125 753.062 31.875 753.938 33.875C754.812 36.75 754.125 38.3125 751.875 38.5625C750.25 38.8125 749.375 37.9375 749.25 35.9375ZM743.062 35.9375C743.562 34.0625 743.5 32.125 742.875 30.125C742.75 29.875 742.75 29.75 742.875 29.75C743.125 29.625 743.438 29.625 743.812 29.75C746.062 31.25 747.438 33.0625 747.938 35.1875C748.188 38.0625 747.188 39.4375 744.938 39.3125C743.562 39.1875 742.938 38.0625 743.062 35.9375ZM747.375 25.8125H751.125V20.5625H747.562V25.625C747.438 25.875 747.375 25.9375 747.375 25.8125ZM747.562 14V19.0625H751.125V14H747.562ZM747.562 8.75V12.5H751.125V7.25H748.125C747.625 7.5 747.438 8 747.562 8.75ZM781.688 34.0625H779.25V31.0625C779.25 29.4375 779.875 27.6875 781.125 25.8125C782.75 23.8125 783.562 21.75 783.562 19.625C783.562 15.125 782.062 12.8125 779.062 12.6875C776.688 12.9375 775.062 13.8125 774.188 15.3125C774.438 15.3125 774.688 15.3125 774.938 15.3125C777.312 15.4375 778.562 16.5 778.688 18.5C778.438 20.5 777.188 21.625 774.938 21.875C772.562 21.75 771.312 20.4375 771.188 17.9375C771.562 13.5625 774.75 11.125 780.75 10.625C787.125 11 790.562 13.375 791.062 17.75C791.062 20.375 789.438 22.875 786.188 25.25C783.188 27.5 781.688 29.75 781.688 32V34.0625ZM776.25 40.0625C776.5 37.6875 777.812 36.3125 780.188 35.9375C782.688 36.1875 784.062 37.5625 784.312 40.0625C783.938 42.0625 782.562 43.25 780.188 43.625C777.812 43.25 776.5 42.0625 776.25 40.0625Z" fill="#10656A"/>
</svg>
