<svg width="1128" height="50" viewBox="0 0 1128 50" fill="none" xmlns="http://www.w3.org/2000/svg">
<path d="M34.6875 20.625V24.1875C34.6875 23.8125 35.0625 23.8125 35.8125 24.1875C40.6875 26.0625 44.1875 29.0625 46.3125 33.1875C47.0625 36.6875 46.125 39 43.5 40.125C40.875 40.625 39.3125 39.125 38.8125 35.625C38.3125 32.125 37.0625 28.625 35.0625 25.125C34.8125 25 34.6875 24.8125 34.6875 24.5625V26.8125C34.5625 33.6875 34.625 38.625 34.875 41.625C35.125 43.875 34.4375 45.5 32.8125 46.5C30.9375 47.5 29.0625 48.125 27.1875 48.375C25.5625 48.625 24.6875 48.25 24.5625 47.25C24.1875 45.125 23.125 43.8125 21.375 43.3125C20.375 42.9375 19.9375 42.5625 20.0625 42.1875C19.9375 42.0625 20.5625 42 21.9375 42C25.9375 42.625 27.75 41.375 27.375 38.25V25.875C27.375 26.125 27.1875 26.25 26.8125 26.25C26.1875 26.5 25.875 26.875 25.875 27.375C23.875 33.625 20.4375 38.3125 15.5625 41.4375C14.9375 41.8125 14.5625 41.9375 14.4375 41.8125C14.3125 41.6875 14.4375 41.3125 14.8125 40.6875C16.5625 36.6875 17.8125 33.0625 18.5625 29.8125C18.5625 29.6875 18.5625 29.375 18.5625 28.875C18.9375 27.5 19.1875 26 19.3125 24.375C19.4375 23.375 19.9375 22.9375 20.8125 23.0625C22.6875 23.3125 24.6875 23.8125 26.8125 24.5625C27.1875 24.9375 27.375 25.125 27.375 25.125V24.5625C27.25 23.0625 27.1875 21.625 27.1875 20.25C27.0625 18.875 26.9375 17.875 26.8125 17.25C26.4375 15.875 26.9375 15.3125 28.3125 15.5625C30.0625 15.8125 32.3125 16.1875 35.0625 16.6875C36.3125 17.4375 36.5 18.1875 35.625 18.9375C34.875 19.3125 34.5625 19.875 34.6875 20.625ZM13.5 19.125V36.75C13.375 40.25 13.4375 42.75 13.6875 44.25C13.9375 45.875 13.375 46.9375 12 47.4375C10.75 47.8125 9.4375 48.125 8.0625 48.375C5.9375 49 5.1875 47.875 5.8125 45C5.8125 44.375 5.8125 43.4375 5.8125 42.1875C6.1875 36.6875 6.375 32.5625 6.375 29.8125V23.625C4.625 25.75 2.875 27.4375 1.125 28.6875C0.75 29.0625 0.5 29.125 0.375 28.875C0.25 28.625 0.3125 28.25 0.5625 27.75C3.5625 21.75 5.9375 15.5625 7.6875 9.1875C8.3125 7.4375 8.75 5.1875 9 2.4375C8.875 1.6875 9.375 1.3125 10.5 1.3125C12 1.6875 14.5 2.4375 18 3.5625C18.75 4.3125 18.75 5.0625 18 5.8125C17.125 6.1875 16.625 6.5625 16.5 6.9375C14.875 10.1875 13.4375 13 12.1875 15.375C12.3125 15.375 12.5625 15.4375 12.9375 15.5625C13.3125 15.5625 13.5625 15.5625 13.6875 15.5625C14.5625 16.1875 14.6875 16.8125 14.0625 17.4375C13.5625 17.8125 13.375 18.375 13.5 19.125ZM36.9375 18.375L38.25 13.875H25.875C23.125 18.25 19.625 21.8125 15.375 24.5625C15 24.8125 14.75 24.8125 14.625 24.5625C14.5 24.4375 14.5625 24.125 14.8125 23.625C18.0625 18.625 20.375 13.4375 21.75 8.0625C22 7.0625 22.1875 6.125 22.3125 5.25C22.5625 4.25 22.6875 3.3125 22.6875 2.4375C22.6875 1.5625 23.1875 1.25 24.1875 1.5C25.3125 1.625 27.25 2.125 30 3C30.25 3.125 30.5625 3.1875 30.9375 3.1875C31.3125 3.4375 31.5625 3.8125 31.6875 4.3125C31.5625 4.8125 31.3125 5.0625 30.9375 5.0625C30.0625 5.4375 29.5625 5.9375 29.4375 6.5625C28.5625 8.6875 27.6875 10.625 26.8125 12.375H37.3125C38.1875 10.375 39.125 9.1875 40.125 8.8125C42 9.1875 44.1875 10.625 46.6875 13.125C47.3125 13.75 47.5625 14.4375 47.4375 15.1875C47.3125 15.9375 46.6875 16.3125 45.5625 16.3125C42.5625 16.0625 40.0625 17 38.0625 19.125C37.5625 19.5 37.1875 19.625 36.9375 19.5C36.8125 19.375 36.8125 19 36.9375 18.375ZM68.4375 10.125H74.25C74.875 8 75.25 5.4375 75.375 2.4375C75.25 1.6875 75.6875 1.3125 76.6875 1.3125C79.0625 1.5625 81.5 1.875 84 2.25C84.5 2.5 84.75 2.9375 84.75 3.5625C84.625 4.0625 84.3125 4.3125 83.8125 4.3125C82.9375 4.6875 82.375 5.0625 82.125 5.4375C81 7.0625 79.5 8.625 77.625 10.125H84.5625C85.6875 8.5 86.5 7.625 87 7.5C89.875 8.5 92.1875 9.8125 93.9375 11.4375C93.9375 12.0625 93.625 12.5625 93 12.9375C92.75 13.1875 92.625 13.625 92.625 14.25C92.5 19.25 92.5625 22.4375 92.8125 23.8125C92.8125 25.0625 92.4375 25.875 91.6875 26.25C91.5625 26.375 91.4375 26.4375 91.3125 26.4375C90.0625 26.9375 88.8125 27.1875 87.5625 27.1875C85.9375 27.6875 85.1875 27.3125 85.3125 26.0625V25.125H58.875C58.875 26 58.5 26.5 57.75 26.625C56.625 27.125 55.1875 27.4375 53.4375 27.5625C51.8125 27.9375 51.1875 27.25 51.5625 25.5C51.6875 23.5 51.75 21.6875 51.75 20.0625C51.875 18.6875 51.9375 16.75 51.9375 14.25C51.9375 12 51.8125 10.375 51.5625 9.375C51.3125 8.625 51.3125 8.1875 51.5625 8.0625C51.8125 7.8125 52.375 7.75 53.25 7.875C55.5 8.375 57.625 9.125 59.625 10.125H64.3125C63.8125 9.75 63.5 9 63.375 7.875C63.25 6.75 62.5 5 61.125 2.625C60.75 2.375 60.625 2.1875 60.75 2.0625C60.75 1.8125 61 1.6875 61.5 1.6875C65.625 1.8125 68.4375 2.875 69.9375 4.875C71.1875 7.125 70.6875 8.875 68.4375 10.125ZM57.5625 38.4375V34.5C57.4375 31.875 57.3125 29.8125 57.1875 28.3125C57.0625 27.6875 57.0625 27.3125 57.1875 27.1875C57.3125 27.0625 57.8125 27 58.6875 27C60.4375 27.375 62.625 27.875 65.25 28.5C65.375 28.625 65.5 28.6875 65.625 28.6875H78.375C79.375 26.8125 80.1875 25.875 80.8125 25.875C82.4375 26.25 84.875 27.625 88.125 30C88.5 30.75 88.25 31.3125 87.375 31.6875C86.875 32.0625 86.5625 32.375 86.4375 32.625V39.5625C86.3125 39.9375 86.3125 40.75 86.4375 42C86.5625 43.5 86.625 44.4375 86.625 44.8125C86.875 46.4375 86.375 47.375 85.125 47.625C83.375 48 81.9375 48.25 80.8125 48.375C79.4375 48.5 78.875 47.9375 79.125 46.6875V45H64.875V45.5625C64.875 46.8125 64.25 47.625 63 48C61.5 48.125 60.1875 48.25 59.0625 48.375C57.4375 48.5 56.8125 47.8125 57.1875 46.3125C57.3125 45.0625 57.4375 42.4375 57.5625 38.4375ZM58.875 12.75V23.625H68.625V11.625H60.1875C59.1875 11.625 58.75 12 58.875 12.75ZM64.875 37.6875V43.5H79.125V37.6875H64.875ZM79.125 30.1875H65.625C65 30.5625 64.75 31.0625 64.875 31.6875V36.1875H79.125V30.1875ZM60.9375 19.3125C60.9375 17.6875 60.5 15.875 59.625 13.875C59.375 13.625 59.3125 13.375 59.4375 13.125C59.5625 13 59.875 12.9375 60.375 12.9375C64 13.8125 66.4375 15.25 67.6875 17.25C68.4375 20.125 67.5625 22 65.0625 22.875C62.4375 23.5 61.0625 22.3125 60.9375 19.3125ZM85.3125 13.5V11.625H75.5625V23.625H76.6875C76.5625 23.5 76.625 23.1875 76.875 22.6875C77.75 19.6875 78.25 16.5 78.375 13.125C78.25 12.25 78.6875 11.9375 79.6875 12.1875C80.0625 12.3125 80.5 12.4375 81 12.5625C82.875 12.9375 84.3125 13.25 85.3125 13.5ZM78.1875 23.625H85.3125V16.3125C84.9375 16.5625 84.6875 16.8125 84.5625 17.0625C82.8125 19.4375 80.75 21.5625 78.375 23.4375C78.25 23.5625 78.1875 23.625 78.1875 23.625ZM109.875 30.5625C109.875 30.4375 109.812 30.25 109.688 30C109.562 29.75 109.562 29.5 109.688 29.25C105.562 31.375 103.125 32.875 102.375 33.75C101.75 34.5 101.25 34.875 100.875 34.875C100.5 34.875 100.188 34.5 99.9375 33.75C98.9375 32.5 98.1875 31.0625 97.6875 29.4375C97.4375 29.0625 97.4375 28.6875 97.6875 28.3125C97.8125 28.0625 98.125 27.8125 98.625 27.5625C100 27.0625 101.188 26.1875 102.188 24.9375C103.062 23.5625 103.938 22 104.812 20.25C102.688 21.25 101.562 21.875 101.438 22.125C100.312 23.375 99.5 23.3125 99 21.9375C98 20.5625 97.3125 19.25 96.9375 18C96.6875 17.5 96.6875 17.125 96.9375 16.875C96.8125 16.75 97.0625 16.5 97.6875 16.125C99.1875 15.375 100.188 14.1875 100.688 12.5625C101.812 9.1875 102.5 6.125 102.75 3.375C102.75 2.125 103.438 1.6875 104.812 2.0625C106.438 2.6875 108.438 3.5 110.812 4.5C111.312 4.875 111.562 5.3125 111.562 5.8125C111.562 6.3125 111.25 6.625 110.625 6.75C109.625 7 108.938 7.5625 108.562 8.4375C105.688 12.1875 103.5 14.75 102 16.125C103.375 16.125 105 16.125 106.875 16.125C107 15.625 107.188 14.9375 107.438 14.0625C107.688 13.4375 107.875 12.875 108 12.375C108.125 11 108.812 10.5 110.062 10.875C110.438 11.125 111.188 11.5625 112.312 12.1875C113.688 12.8125 114.688 13.25 115.312 13.5C116.438 14.625 116.375 15.4375 115.125 15.9375C114.375 15.9375 113.688 16.375 113.062 17.25C111.438 19.375 109.875 21.3125 108.375 23.0625C108.375 23.0625 108.5 23.0625 108.75 23.0625C111.75 23.9375 113.875 25.6875 115.125 28.3125C115.5 30.3125 114.875 31.75 113.25 32.625C111.25 33.125 110.125 32.4375 109.875 30.5625ZM140.438 30.1875H131.625C130.875 30.6875 130.562 31.3125 130.688 32.0625V43.3125H133.688C135.312 41.0625 136.562 39.8125 137.438 39.5625C138.188 39.8125 139.938 41.125 142.688 43.5C142.938 43.75 143 44 142.875 44.25C142.875 44.375 142.688 44.5 142.312 44.625H117.375C116.375 44.625 115.438 44.75 114.562 45C114.062 45 113.75 44.9375 113.625 44.8125C113.375 44.4375 113.125 43.9375 112.875 43.3125C112.625 42.8125 112.75 42.6875 113.25 42.9375C115 43.0625 116.688 43.1875 118.312 43.3125H123.375V30.1875H120.188C119.188 30.3125 118.25 30.4375 117.375 30.5625C116.875 30.6875 116.562 30.625 116.438 30.375C116.312 30.25 116.125 30 115.875 29.625C115.75 29.375 115.688 29.125 115.688 28.875C115.438 28.5 115.562 28.375 116.062 28.5C117.688 28.75 119.312 28.875 120.938 28.875H132.375C132.375 28.75 132.5 28.5625 132.75 28.3125C133.5 27.4375 134.188 26.75 134.812 26.25C134.688 26.125 134.562 25.9375 134.438 25.6875C134.188 25.3125 134.125 25 134.25 24.75C133.75 22.75 132.562 20.8125 130.688 18.9375C130.312 18.6875 130.25 18.4375 130.5 18.1875C130.375 18.0625 130.438 17.875 130.688 17.625C132.062 16.125 133.25 13.8125 134.25 10.6875C134.25 9.9375 134.812 9.75 135.938 10.125C137.438 10.875 138.938 11.6875 140.438 12.5625C140.812 12.9375 140.938 13.3125 140.812 13.6875C140.562 13.9375 140.25 14 139.875 13.875C139.25 13.875 138.688 14.125 138.188 14.625C136.312 15.875 134.438 17.125 132.562 18.375C136.188 19.375 138.438 20.6875 139.312 22.3125C139.938 24.1875 139.562 25.625 138.188 26.625C138.938 27.25 139.875 28.0625 141 29.0625C141.25 29.4375 141.312 29.75 141.188 30C141.062 30.125 140.812 30.1875 140.438 30.1875ZM122.25 18.9375V18.75C122.25 18.875 122.25 18.8125 122.25 18.5625C122.25 18.5625 122.312 18.5 122.438 18.375C123.938 15.875 125.125 13.1875 126 10.3125C126 9.3125 126.5 9 127.5 9.375C129.125 9.875 130.875 10.5 132.75 11.25C133.25 12.125 133.062 12.625 132.188 12.75C131.438 12.875 130.812 13.1875 130.312 13.6875C128.312 15.6875 126.312 17.3125 124.312 18.5625C127.562 19.5625 129.75 20.875 130.875 22.5C131.75 24.5 131.312 26 129.562 27C127.562 27.75 126.375 27.125 126 25.125C125.625 23.25 124.5 21.3125 122.625 19.3125C122.25 19.3125 122.125 19.1875 122.25 18.9375ZM117.75 25.3125C117.75 23.4375 116.938 21.5 115.312 19.5C115.062 19.375 115.062 19.1875 115.312 18.9375C115.312 18.8125 115.312 18.625 115.312 18.375C116.188 16.5 116.875 13.75 117.375 10.125C117.25 9.25 117.75 8.875 118.875 9C119.375 9.25 120.5 9.5625 122.25 9.9375C123.375 10.1875 124.062 10.3125 124.312 10.3125C124.562 10.4375 124.688 10.75 124.688 11.25C124.562 11.625 124.312 11.8125 123.938 11.8125C123.188 12.0625 122.562 12.5 122.062 13.125C120.312 15.625 118.5 17.625 116.625 19.125C120.25 20.5 122.375 22.0625 123 23.8125C123.25 26.1875 122.562 27.5625 120.938 27.9375C118.812 28.3125 117.75 27.4375 117.75 25.3125ZM140.25 7.5H117.75C116.625 7.625 115.75 7.75 115.125 7.875C114.5 8 114.188 7.9375 114.188 7.6875C113.812 7.4375 113.562 6.9375 113.438 6.1875C113.188 5.8125 113.25 5.6875 113.625 5.8125C115.5 6.0625 117.188 6.1875 118.688 6.1875H131.625C133.25 3.6875 134.5 2.3125 135.375 2.0625C136.25 2.3125 138 3.75 140.625 6.375C140.875 6.75 140.938 7.0625 140.812 7.3125C140.812 7.4375 140.625 7.5 140.25 7.5ZM97.3125 41.4375C99.0625 39.9375 100.25 38 100.875 35.625C100.875 35.375 101 35.25 101.25 35.25C101.625 35.25 101.875 35.375 102 35.625C103.375 38.625 103.562 41.4375 102.562 44.0625C101.062 45.9375 99.375 46.25 97.5 45C96.375 43.625 96.3125 42.4375 97.3125 41.4375ZM111.375 39.375C111.125 37 110.25 35.125 108.75 33.75C108.375 33.5 108.25 33.3125 108.375 33.1875C108.5 33.0625 108.812 32.9375 109.312 32.8125C112.188 33.0625 114.438 34 116.062 35.625C117.562 38.25 117.188 40.1875 114.938 41.4375C113.188 41.8125 112 41.125 111.375 39.375ZM104.812 41.4375C105.188 39.0625 105.125 36.9375 104.625 35.0625C104.5 34.8125 104.5 34.6875 104.625 34.6875C104.75 34.5625 105 34.5625 105.375 34.6875C108 36.4375 109.625 38.3125 110.25 40.3125C110.5 42.8125 109.438 44.1875 107.062 44.4375C105.188 44.0625 104.438 43.0625 104.812 41.4375ZM103.5 27.75C103.625 27.75 103.75 27.75 103.875 27.75C106 27.375 107.812 27.125 109.312 27C108.812 25.875 108.312 24.875 107.812 24C107.812 24 107.75 23.9375 107.625 23.8125C107.5 23.8125 107.5 23.75 107.625 23.625C106.25 25.25 104.875 26.625 103.5 27.75ZM158.625 12.375H153.375C151 12.5 148.688 12.625 146.438 12.75C146.312 12.75 146.125 12.8125 145.875 12.9375C145.625 12.9375 145.5 12.8125 145.5 12.5625C145.25 12.4375 145.062 12.1875 144.938 11.8125C144.812 11.5625 144.688 11.3125 144.562 11.0625C144.438 10.9375 144.375 10.8125 144.375 10.6875C144.375 10.5625 144.562 10.5 144.938 10.5C145.562 10.75 146.812 10.9375 148.688 11.0625C150.812 11.0625 152.875 11.0625 154.875 11.0625H159C159.75 8.4375 160.25 5.5625 160.5 2.4375C160.375 1.6875 160.875 1.3125 162 1.3125C166.375 1.9375 169.438 2.375 171.188 2.625C171.812 2.875 172.188 3.3125 172.312 3.9375C172.312 4.5625 172 4.9375 171.375 5.0625C170 5.4375 169.25 6.0625 169.125 6.9375C168.875 7.5625 168.562 8.375 168.188 9.375C167.938 10.25 167.812 10.8125 167.812 11.0625H181.875C183.375 8.4375 184.438 7.0625 185.062 6.9375C186.438 7.1875 188.5 8.5625 191.25 11.0625C191.875 12.0625 191.75 12.625 190.875 12.75C188 12.625 184.875 12.5 181.5 12.375H167.25C165.375 16.75 163.25 20.375 160.875 23.25V27C162.5 27.25 164.812 27.3125 167.812 27.1875H170.062V23.4375C169.938 22.5625 169.875 21.4375 169.875 20.0625C169.75 18.6875 169.625 17.5625 169.5 16.6875C169.25 15.6875 169.75 15.1875 171 15.1875C172.125 15.3125 173.312 15.5 174.562 15.75C175.812 15.875 176.938 16 177.938 16.125C178.438 16.25 178.75 16.625 178.875 17.25C179 17.75 178.812 18.125 178.312 18.375C177.562 18.75 177.188 19.3125 177.188 20.0625V27.1875H180.188C181.688 24.5625 182.75 23.25 183.375 23.25C184.5 23.5 186.562 24.8125 189.562 27.1875C189.938 27.6875 190.062 28.125 189.938 28.5C189.812 28.75 189.5 28.875 189 28.875C187.5 28.75 184.438 28.6875 179.812 28.6875H177.188V42.375H181.875C183.375 40.125 184.438 38.9375 185.062 38.8125C186.438 39.0625 188.5 40.3125 191.25 42.5625C191.5 42.8125 191.625 43.125 191.625 43.5C191.5 43.75 191.25 43.9375 190.875 44.0625C190.125 44.0625 188.688 44 186.562 43.875C184.062 43.875 182.375 43.875 181.5 43.875H160.875V45.5625C160.875 46.6875 160.312 47.5 159.188 48C156.938 48.375 155.5 48.5625 154.875 48.5625C153.375 48.8125 152.812 48.125 153.188 46.5C153.312 44.375 153.438 42.25 153.562 40.125C153.562 37.75 153.625 35.6875 153.75 33.9375V30.1875C151.125 31.9375 148.375 33.625 145.5 35.25C144.875 35.625 144.5 35.6875 144.375 35.4375C144.125 35.1875 144.188 34.8125 144.562 34.3125C147.812 31.1875 150.812 27.4375 153.562 23.0625C153.438 21.4375 153.312 20.1875 153.188 19.3125C152.938 18.3125 153.438 17.875 154.688 18C155.062 18.25 155.562 18.3125 156.188 18.1875C157.062 16.4375 157.875 14.5 158.625 12.375ZM160.875 28.875V42.375H170.062V28.6875H166.312C163.812 28.6875 162 28.75 160.875 28.875ZM200.812 38.4375V24.9375C200.812 23.8125 200.812 22.3125 200.812 20.4375C198.562 21.5625 196.188 22.5 193.688 23.25C193.188 23.5 192.875 23.5 192.75 23.25C192.75 23 192.938 22.6875 193.312 22.3125C198.812 18.3125 203.188 13.875 206.438 9C207.812 6.75 208.812 4.625 209.438 2.625C209.312 2 209.75 1.75 210.75 1.875C213.875 2.5 216.625 3.125 219 3.75C219.5 4.125 219.75 4.625 219.75 5.25C219.75 5.75 219.438 6 218.812 6C218.562 6 218.312 6.0625 218.062 6.1875C223.688 11.6875 230.438 14.8125 238.312 15.5625C239.062 15.8125 239.5 16.125 239.625 16.5C239.625 16.875 239.312 17.25 238.688 17.625C236.938 18.625 235.375 20.1875 234 22.3125C233.375 23.3125 232.562 23.5 231.562 22.875C231.438 22.875 231.188 22.8125 230.812 22.6875C230.438 22.5625 229.875 22.1875 229.125 21.5625C229 21.5625 228.875 21.625 228.75 21.75C228.625 21.875 228.562 21.875 228.562 21.75C228.062 22 227.812 22.4375 227.812 23.0625C227.688 24.3125 227.688 25.8125 227.812 27.5625C227.938 28.5625 228 29.1875 228 29.4375C228.375 29.0625 228.938 29.125 229.688 29.625C231.312 30.75 233 32 234.75 33.375C235.375 34.875 235 35.625 233.625 35.625C232.625 35.5 231.625 35.5625 230.625 35.8125C228.875 36.4375 227.188 36.9375 225.562 37.3125C227.938 38.3125 229.75 39.3125 231 40.3125C233.5 42.5625 233.688 44.9375 231.562 47.4375C229.188 49.0625 226.812 48.1875 224.438 44.8125C223.812 43.8125 222 42.1875 219 39.9375C219.25 40.0625 219.125 39.875 218.625 39.375C212.25 41.875 207.312 44.6875 203.812 47.8125C202.938 48.8125 202.25 48.875 201.75 48C200.75 46.375 199.875 44.5 199.125 42.375C198.625 41.75 198.875 41.125 199.875 40.5C200.5 40.25 200.812 39.5625 200.812 38.4375ZM220.312 32.0625H208.312V39.5625L216.75 38.0625C214.5 36.6875 212.625 35.5625 211.125 34.6875C210.5 34.4375 210.188 34.1875 210.188 33.9375C210.312 33.6875 210.688 33.5625 211.312 33.5625C215.562 34.4375 219.25 35.3125 222.375 36.1875C223.25 35.4375 224.188 34.5 225.188 33.375C223.938 33.625 223 33.75 222.375 33.75C221 33.875 220.312 33.3125 220.312 32.0625ZM208.312 26.0625V30.5625H220.312V26.0625H208.312ZM220.312 20.25H208.875C208.375 20.375 208.188 20.75 208.312 21.375V24.75H220.312V20.25ZM216.375 18.75H219.938C220.938 17.25 221.75 16.4375 222.375 16.3125C222.5 16.3125 222.75 16.375 223.125 16.5C220.75 13.875 218.812 10.5625 217.312 6.5625C217.062 6.6875 216.812 6.875 216.562 7.125C216.562 7.25 216.562 7.3125 216.562 7.3125C216.062 7.8125 215.625 8.3125 215.25 8.8125C215 9.1875 214.375 9.9375 213.375 11.0625C215.875 11.3125 217.625 12.1875 218.625 13.6875C219.625 16.1875 218.875 17.875 216.375 18.75ZM209.25 18.75H213.75C213 18.5 212.562 17.8125 212.438 16.6875C212.188 15.0625 211.875 13.8125 211.5 12.9375C209.75 14.6875 207.875 16.1875 205.875 17.4375C206.125 17.5625 206.625 17.75 207.375 18C207.75 18.125 208.25 18.25 208.875 18.375C209 18.5 209.125 18.625 209.25 18.75ZM273.75 46.875H248.625C246 46.75 244.188 46.875 243.188 47.25C242.688 47.25 242.375 47.0625 242.25 46.6875C241.75 46.3125 241.438 45.875 241.312 45.375C241.062 45.125 240.938 44.9375 240.938 44.8125C241.062 44.6875 241.25 44.6875 241.5 44.8125C242.25 44.9375 243.312 45.0625 244.688 45.1875C246.188 45.1875 247.625 45.25 249 45.375H260.25V38.25H253.125C250.375 38.25 248.5 38.375 247.5 38.625C247.25 38.75 247 38.5625 246.75 38.0625C246.375 37.8125 246 37.375 245.625 36.75C245.5 36.5 245.438 36.375 245.438 36.375C245.438 36.25 245.625 36.1875 246 36.1875C247.625 36.5625 250.125 36.75 253.5 36.75H260.25V30.375H257.625C257.5 31 257.062 31.375 256.312 31.5C256.062 31.625 255.75 31.6875 255.375 31.6875C253.75 32.0625 252.75 32.1875 252.375 32.0625C250.75 32.3125 250.125 31.5625 250.5 29.8125C250.625 28.6875 250.688 26.75 250.688 24C250.688 22.125 250.625 20.4375 250.5 18.9375C250.375 18.1875 250.375 17.75 250.5 17.625C250.625 17.5 251.062 17.4375 251.812 17.4375C253.438 17.9375 255.562 18.75 258.188 19.875C258.312 20.125 258.438 20.25 258.562 20.25H269.438C270.438 18.625 271.188 17.8125 271.688 17.8125C272.062 17.8125 273.125 18.25 274.875 19.125C275.25 19.25 275.625 19.375 276 19.5L277.312 15.5625H249.188C249.812 18.6875 249.688 21 248.812 22.5C247.062 24.875 245.062 25.4375 242.812 24.1875C240.938 22.6875 240.812 20.875 242.438 18.75C244.438 17.125 245.75 14.875 246.375 12C246.375 11.75 246.562 11.625 246.938 11.625C247.188 11.625 247.438 11.8125 247.688 12.1875C248.062 12.6875 248.438 13.375 248.812 14.25H260.625V7.6875C260.5 5.3125 260.375 3.75 260.25 3C260 2.25 259.938 1.8125 260.062 1.6875C260.188 1.4375 260.688 1.3125 261.562 1.3125C264.688 1.6875 266.875 2.0625 268.125 2.4375C268.5 2.5625 268.75 2.8125 268.875 3.1875C268.875 3.4375 268.75 3.6875 268.5 3.9375C267.75 4.4375 267.438 5 267.562 5.625V14.25H268.5C270.25 10.625 271.625 7 272.625 3.375C272.625 2.5 273.188 2.25 274.312 2.625C276.062 3.125 278.25 4.3125 280.875 6.1875C281.5 7.0625 281.312 7.625 280.312 7.875C279.438 7.875 278.562 8.375 277.688 9.375C277.062 9.875 276.5 10.3125 276 10.6875C274.125 12.3125 272.688 13.5 271.688 14.25H277.5C278.625 11.875 279.5 10.6875 280.125 10.6875C281.5 11.1875 283.688 12.625 286.688 15C287.312 16 287.562 16.625 287.438 16.875C287.188 17.5 286.438 17.75 285.188 17.625C282.562 17.75 280 18.6875 277.5 20.4375C278.125 20.9375 278.5 21.3125 278.625 21.5625C278.625 22.0625 278.312 22.5 277.688 22.875C277.312 23 277.125 23.5 277.125 24.375C277.125 24.875 277.125 25.6875 277.125 26.8125C277.25 27.8125 277.312 28.4375 277.312 28.6875C277.562 30.3125 277.125 31.1875 276 31.3125C274.875 31.6875 273.562 31.875 272.062 31.875C270.688 32.125 270.062 31.6875 270.188 30.5625V30.375H266.625C267.875 30.75 268.562 30.9375 268.688 30.9375C269.562 31.5625 269.562 32.25 268.688 33C268.062 33.125 267.812 33.625 267.938 34.5V36.75H272.438C273.688 34.375 274.875 32.875 276 32.25C278.25 33.125 280.438 34.625 282.562 36.75C282.812 37.25 282.938 37.6875 282.938 38.0625C282.812 38.3125 282.562 38.375 282.188 38.25C280.062 38.25 277.312 38.25 273.938 38.25C272.562 38.25 271 38.25 269.25 38.25H267.938V45.375H276.938C278.562 42.875 279.812 41.5 280.688 41.25C282.688 41.75 284.875 43.125 287.25 45.375C287.5 45.75 287.562 46.125 287.438 46.5C287.312 46.75 287.062 46.875 286.688 46.875C284.688 46.75 282 46.6875 278.625 46.6875C276.5 46.8125 274.875 46.875 273.75 46.875ZM270.188 21.5625H258.375C258 21.9375 257.812 22.5 257.812 23.25V28.875H270.188V21.5625ZM251.625 11.0625C251.5 9.0625 250.562 7.0625 248.812 5.0625C248.312 4.6875 248.125 4.4375 248.25 4.3125C248.375 4.0625 248.812 3.9375 249.562 3.9375C254.062 4.0625 257 5.375 258.375 7.875C259.25 11 258.375 12.9375 255.75 13.6875C253.5 14.1875 252.125 13.3125 251.625 11.0625ZM319.312 11.8125H326.062C327.312 9.5625 328.375 8.25 329.25 7.875C330.375 8.125 332.125 9.4375 334.5 11.8125C335.125 12.9375 334.938 13.5625 333.938 13.6875C332.188 13.5625 330.312 13.5 328.312 13.5C326.688 13.375 324.25 13.3125 321 13.3125H319.5C319.5 15.9375 319.688 18.4375 320.062 20.8125C320.312 23.0625 320.688 25.0625 321.188 26.8125C321.312 26.6875 321.5 26.375 321.75 25.875C322.875 23 323.625 20.1875 324 17.4375C324 16.4375 324.688 16.125 326.062 16.5C328.688 17.25 331.062 18.125 333.188 19.125C333.812 19.875 333.625 20.5 332.625 21C331.875 21.25 331.375 21.8125 331.125 22.6875C328.875 27.5625 326.5 31.5 324 34.5C325.125 36.5 326.375 37.9375 327.75 38.8125C328.625 39.3125 329.25 39.25 329.625 38.625C330.5 37.25 331.438 35.4375 332.438 33.1875C332.562 32.5625 332.75 32.25 333 32.25C333.375 32.25 333.562 32.5 333.562 33C333.562 33.5 333.5 34.5 333.375 36C333.375 38 333.375 39.375 333.375 40.125C333.25 41.25 333.688 42.25 334.688 43.125C335.562 45.5 334.562 47.0625 331.688 47.8125C329.312 47.9375 326.875 47.125 324.375 45.375C322.25 44 320.375 42.125 318.75 39.75C314 43 307.938 45.3125 300.562 46.6875C299.438 46.8125 298.812 46.75 298.688 46.5C298.562 46.125 299.062 45.6875 300.188 45.1875C307.062 42.0625 312.375 38.4375 316.125 34.3125C313.875 28.3125 312.625 21.3125 312.375 13.3125H298.125C296.625 13.4375 294.375 13.625 291.375 13.875C291.25 13.875 291.125 13.9375 291 14.0625C290.75 14.0625 290.562 13.875 290.438 13.5C289.938 13 289.625 12.4375 289.5 11.8125C289.25 11.6875 289.125 11.5625 289.125 11.4375C289.25 11.3125 289.438 11.25 289.688 11.25C290.312 11.5 291.562 11.625 293.438 11.625C295.688 11.75 297.812 11.8125 299.812 11.8125H312.375C312.375 11.4375 312.312 10.875 312.188 10.125C312.062 9.5 312.062 8.9375 312.188 8.4375C312.062 7.0625 311.938 5.3125 311.812 3.1875C311.438 2.1875 311.875 1.6875 313.125 1.6875C314.125 1.8125 315.688 2.0625 317.812 2.4375C318.188 2.5625 318.688 2.625 319.312 2.625C319.938 2.75 320.312 3.1875 320.438 3.9375C320.438 3.8125 320.625 3.75 321 3.75C323.25 3.5 325.188 3.8125 326.812 4.6875C328.562 6.1875 328.625 7.875 327 9.75C324.875 11.125 323.438 10.8125 322.688 8.8125C322.062 7.0625 321.375 5.6875 320.625 4.6875C320.625 4.6875 320.562 4.625 320.438 4.5C320.312 4.5 320.312 4.4375 320.438 4.3125C320.312 4.4375 320.125 4.5625 319.875 4.6875C319.375 4.9375 319.188 5.5625 319.312 6.5625C319.312 8.4375 319.312 10.1875 319.312 11.8125ZM292.875 26.25V23.0625C292.75 21.3125 292.625 19.75 292.5 18.375C292.25 17.125 292.75 16.625 294 16.875C294.125 17 294.375 17.125 294.75 17.25C296.625 17.75 298.062 18.125 299.062 18.375C299.562 18.625 299.812 18.8125 299.812 18.9375H303.375C304.25 17.4375 305 16.625 305.625 16.5C307.25 16.75 309.188 17.6875 311.438 19.3125C312.062 20.1875 312.125 20.8125 311.625 21.1875C311 21.6875 310.75 22.1875 310.875 22.6875V31.3125C310.875 32.3125 310.562 32.9375 309.938 33.1875C308.312 33.5625 307.125 33.75 306.375 33.75C304.75 33.875 304.062 33.5 304.312 32.625V30.5625H299.25V32.625C299.25 33.75 298.812 34.4375 297.938 34.6875C297.188 35.0625 295.812 35.1875 293.812 35.0625C292.812 35.4375 292.375 35.125 292.5 34.125C292.625 32.5 292.75 29.875 292.875 26.25ZM294.188 44.625C293.438 44.875 292.938 45.125 292.688 45.375C292.188 45.875 291.75 46.0625 291.375 45.9375C291.125 45.8125 290.875 45.4375 290.625 44.8125C289.625 42.4375 289 40.5 288.75 39C288.375 38.25 288.875 37.8125 290.25 37.6875C294.875 37.3125 302.5 36.1875 313.125 34.3125C313.875 34.1875 314.312 34.3125 314.438 34.6875C314.438 35.0625 314.125 35.375 313.5 35.625C310.25 37.375 304.625 39.9375 296.625 43.3125C295.5 43.9375 294.688 44.375 294.188 44.625ZM304.312 20.4375H299.25V29.0625H304.312V20.4375ZM356.25 39.375V26.25H345.562C342.812 26.375 340.438 26.5 338.438 26.625C337.938 26.75 337.625 26.625 337.5 26.25C337.125 25.875 336.75 25.375 336.375 24.75C336.125 24.375 336.25 24.25 336.75 24.375C337.5 24.5 339 24.625 341.25 24.75C343.625 24.75 345.625 24.75 347.25 24.75H372.938C374.938 21.75 376.25 20.25 376.875 20.25C378.25 20.75 380.25 22.25 382.875 24.75C383.125 25.25 383.188 25.6875 383.062 26.0625C382.938 26.3125 382.688 26.4375 382.312 26.4375C381.938 26.4375 380.938 26.4375 379.312 26.4375C376.312 26.4375 372.75 26.375 368.625 26.25H363.562V32.4375H368.812C370.562 29.6875 371.688 28.3125 372.188 28.3125C373.062 28.4375 374.875 29.8125 377.625 32.4375C378 32.9375 378.125 33.375 378 33.75C378 34 377.75 34.125 377.25 34.125C376.875 34.125 376.375 34.125 375.75 34.125C370.875 33.875 367.062 33.75 364.312 33.75H363.562V40.5C366.812 40.75 370.125 40.875 373.5 40.875C376.875 40.75 379.75 40.5 382.125 40.125C382.875 40.125 383.312 40.3125 383.438 40.6875C383.688 41.1875 383.5 41.625 382.875 42C381.25 43 380.25 44.4375 379.875 46.3125C379.75 47.3125 378.938 47.8125 377.438 47.8125C369.938 47.8125 364.125 47.375 360 46.5C356 45.625 352.5 42.875 349.5 38.25C346.25 42.125 342.188 45.0625 337.312 47.0625C336.688 47.3125 336.312 47.375 336.188 47.25C336.062 47 336.25 46.6875 336.75 46.3125C340.25 42.5625 342.688 38.75 344.062 34.875C344.688 32.75 345.125 30.4375 345.375 27.9375C345.375 27.0625 345.812 26.75 346.688 27C348.938 27.375 351.562 27.9375 354.562 28.6875C355.562 29.4375 355.562 30.125 354.562 30.75C353.562 31 353 31.375 352.875 31.875C352.25 33.25 351.625 34.5 351 35.625C352 37.375 353.75 38.625 356.25 39.375ZM365.812 21.5625V19.6875H353.625V20.8125C353.5 21.8125 353 22.4375 352.125 22.6875C351 23.1875 349.625 23.4375 348 23.4375C346.25 23.6875 345.625 23 346.125 21.375C346.25 19.375 346.312 15.0625 346.312 8.4375C346.312 6.8125 346.25 5.6875 346.125 5.0625C346.125 4.4375 346.125 3.875 346.125 3.375C345.875 2.75 345.875 2.375 346.125 2.25C346.375 2 346.938 1.9375 347.812 2.0625C350.438 2.5625 352.562 3.1875 354.188 3.9375C354.312 3.9375 354.438 4 354.562 4.125H365.625C366.75 2.625 367.625 1.8125 368.25 1.6875C370.875 2.8125 373.062 4.1875 374.812 5.8125C374.938 6.6875 374.688 7.1875 374.062 7.3125C373.438 7.8125 373.125 8.3125 373.125 8.8125C373 9.3125 372.938 10.875 372.938 13.5C373.062 16.375 373.188 18.375 373.312 19.5C373.312 20.75 372.812 21.625 371.812 22.125C371.188 22.375 370 22.625 368.25 22.875C368.125 22.875 368.062 22.875 368.062 22.875C366.438 23 365.688 22.5625 365.812 21.5625ZM353.625 6.75V11.25H365.812V5.4375H354.375C353.75 5.6875 353.5 6.125 353.625 6.75ZM353.625 12.75V18.375H365.812V12.75H353.625ZM419.625 6.375V9.375H420.188C421.688 6.625 422.812 5.1875 423.562 5.0625C425.188 5.5625 427.125 7 429.375 9.375C429.625 9.875 429.688 10.3125 429.562 10.6875C429.438 10.9375 429.188 11.0625 428.812 11.0625C427.938 11.0625 426.812 11.0625 425.438 11.0625C424.062 10.9375 422.125 10.875 419.625 10.875V32.8125H421.312C422.938 29.8125 424.188 28.25 425.062 28.125C427.062 29 429.062 30.5 431.062 32.625C431.688 33.875 431.562 34.4375 430.688 34.3125C429.562 34.3125 428.188 34.3125 426.562 34.3125C425.062 34.1875 422.938 34.125 420.188 34.125H390.938C388.938 34.25 387.375 34.375 386.25 34.5C385.75 34.625 385.438 34.5625 385.312 34.3125C385.062 34.1875 384.812 33.9375 384.562 33.5625C384.438 33.3125 384.312 33.0625 384.188 32.8125C384.062 32.6875 384.188 32.5625 384.562 32.4375C384.688 32.5625 384.812 32.625 384.938 32.625C387.188 32.875 389.438 32.9375 391.688 32.8125H394.875V10.875H391.688C390.438 11 389.5 11.0625 388.875 11.0625C388.25 11.0625 387.875 11.0625 387.75 11.0625C387.25 11.1875 386.938 11.125 386.812 10.875C386.438 10.625 386.062 10.1875 385.688 9.5625C385.438 9.3125 385.562 9.1875 386.062 9.1875C388.062 9.4375 390.562 9.5 393.562 9.375H394.875C394.875 7.5 394.812 6.1875 394.688 5.4375C394.688 4.5625 394.688 3.875 394.688 3.375C394.312 2.125 394.875 1.5625 396.375 1.6875C398.5 1.9375 400.625 2.375 402.75 3C403.5 3.5 403.562 4.125 402.938 4.875C402.562 5.125 402.375 5.6875 402.375 6.5625V9.375H411.938C411.812 8.5 411.75 7.125 411.75 5.25C411.75 4.25 411.75 3.5625 411.75 3.1875C411.375 1.9375 411.938 1.375 413.438 1.5C415.312 1.75 417.562 2.1875 420.188 2.8125C420.938 3.1875 420.938 3.8125 420.188 4.6875C419.812 4.9375 419.625 5.5 419.625 6.375ZM400.312 35.0625C403.062 36.8125 405 38.0625 406.125 38.8125C406.5 39.3125 406.625 39.75 406.5 40.125C406.25 40.5 405.875 40.6875 405.375 40.6875C404.375 40.8125 403.688 41.0625 403.312 41.4375C399.188 44.3125 393.562 46.5 386.438 48C385.812 48.125 385.438 48.0625 385.312 47.8125C385.188 47.5625 385.438 47.25 386.062 46.875C391.812 43.25 395.875 39.5 398.25 35.625C398.75 34.875 399.438 34.6875 400.312 35.0625ZM420 45.75C417.25 42.625 414 40 410.25 37.875C409.625 37.75 409.312 37.5625 409.312 37.3125C409.438 37.1875 409.812 37.0625 410.438 36.9375C416.438 36.5625 420.812 37.3125 423.562 39.1875C426.688 41.5625 427.312 44.1875 425.438 47.0625C423.562 48.5625 421.75 48.125 420 45.75ZM402.375 18.375V24.9375H411.938V18.375H402.375ZM402.375 26.25V32.8125H411.938V26.25H402.375ZM402.375 10.875V16.875H411.938V10.875H402.375ZM444.75 18.9375V24.5625C445.625 24.1875 446.5 23.875 447.375 23.625L448.5 23.0625V18.375C448.375 14.875 448.125 12.0625 447.75 9.9375C447.5 9.3125 447.438 8.875 447.562 8.625C447.812 8.375 448.312 8.25 449.062 8.25C450.312 8.5 452.562 9 455.812 9.75C456.938 10.375 457.062 11.125 456.188 12C455.562 12.25 455.312 12.75 455.438 13.5V20.4375L458.062 19.3125V8.8125C457.938 8.1875 457.875 7.375 457.875 6.375C457.75 5.375 457.625 4.3125 457.5 3.1875C457.125 1.9375 457.688 1.375 459.188 1.5C460.938 1.75 463 2.125 465.375 2.625C465.875 2.875 466.188 3.25 466.312 3.75C466.312 4.25 466.062 4.5625 465.562 4.6875C465.062 5.0625 464.875 5.5625 465 6.1875V16.6875L468 15.375C469 13.125 469.75 12 470.25 12C473.75 13.5 476.062 14.8125 477.188 15.9375C477.188 16.5625 476.875 17 476.25 17.25C475.875 17.375 475.688 17.875 475.688 18.75C475.562 19.5 475.438 21.4375 475.312 24.5625C475.188 26.4375 475.125 27.75 475.125 28.5C475.125 28.875 475.062 29.25 474.938 29.625C474.938 29.875 474.938 30.0625 474.938 30.1875C475.062 30.0625 475.312 29.9375 475.688 29.8125C476.188 30.0625 476.375 30.625 476.25 31.5C475.75 36.375 476.188 39 477.562 39.375C479.188 40.375 479.938 41.375 479.812 42.375C479.688 43.625 479.125 44.5625 478.125 45.1875C476.875 46.0625 474.75 46.5 471.75 46.5H455.25C450.625 46.5 448.375 44.4375 448.5 40.3125V24.75L447.188 25.125C447.062 25.25 446.875 25.3125 446.625 25.3125C446.125 25.5625 445.5 26 444.75 26.625V34.3125C444.75 35.5625 444.75 37.3125 444.75 39.5625C444.875 41.3125 445 42.8125 445.125 44.0625C445.25 45.8125 444.688 46.875 443.438 47.25C442.438 47.625 441.125 48 439.5 48.375C437.875 48.625 437.188 48 437.438 46.5C437.562 45.125 437.688 43 437.812 40.125C437.812 37 437.875 33.375 438 29.25V23.8125C436.625 25.5625 435.188 27.125 433.688 28.5C433.188 29 432.812 29.1875 432.562 29.0625C432.312 28.9375 432.312 28.5 432.562 27.75C436.438 18.625 438.75 10.5 439.5 3.375C439.625 2 440.25 1.4375 441.375 1.6875C444.25 2.4375 446.625 3.1875 448.5 3.9375C449.5 4.6875 449.438 5.4375 448.312 6.1875C447.562 6.4375 447 7.0625 446.625 8.0625C446 10.3125 445.062 12.5625 443.812 14.8125C443.938 14.9375 444.125 15 444.375 15C444.5 15 444.688 15.0625 444.938 15.1875C445.938 15.6875 446.062 16.3125 445.312 17.0625C444.938 17.4375 444.75 18.0625 444.75 18.9375ZM458.625 40.6875H468.188C471.062 41.4375 473.125 38.4375 474.375 31.6875C473.625 33.4375 471.812 34.625 468.938 35.25C467.688 35.625 466.938 35.3125 466.688 34.3125C466.438 33.0625 465.875 32.0625 465 31.3125C465 31.6875 465 32.1875 465 32.8125C465.125 33.5625 465.188 34.125 465.188 34.5C465.188 35.625 464.625 36.3125 463.5 36.5625C461.875 37.0625 460.25 37.3125 458.625 37.3125C457.625 37.4375 457.188 36.9375 457.312 35.8125C457.438 34.0625 457.562 32.1875 457.688 30.1875C457.812 28.0625 457.938 26 458.062 24V21L455.438 21.9375V36.75C455.188 39.625 456.25 40.9375 458.625 40.6875ZM468.562 16.6875L465 18.1875V27.75V29.25C467.125 29.625 468.188 28.75 468.188 26.625C468.562 21.625 468.688 18.3125 468.562 16.6875ZM512.438 42.9375C512.438 42.6875 512.375 42.4375 512.25 42.1875C512.25 42.0625 512.25 42 512.25 42C503.25 43.75 496.438 45.5 491.812 47.25C490.188 48.25 489.25 48.1875 489 47.0625C488 45.1875 487.188 43 486.562 40.5C486.312 39.625 486.688 39.0625 487.688 38.8125C489.812 38.5625 491.375 37.8125 492.375 36.5625C494.375 32.9375 496.188 27.125 497.812 19.125C498.062 18 498.75 17.625 499.875 18C502.375 18.625 505.125 19.5 508.125 20.625C508.75 21 509.062 21.375 509.062 21.75C509.062 22.25 508.75 22.625 508.125 22.875C507.375 23.25 506.562 24 505.688 25.125C501.812 31.5 498.438 36.3125 495.562 39.5625C498.562 39.6875 503.812 39.5625 511.312 39.1875C510.562 37.3125 509.062 34.9375 506.812 32.0625C506.688 31.8125 506.562 31.5625 506.438 31.3125C506.062 30.9375 505.938 30.625 506.062 30.375C506.188 30.125 506.562 30.0625 507.188 30.1875C513.812 32.4375 518.25 35.625 520.5 39.75C521.875 43.375 521.062 46 518.062 47.625C515.188 48.5 513.312 46.9375 512.438 42.9375ZM526.5 21.5625C527.375 21.9375 527.812 22.3125 527.812 22.6875C527.812 23.1875 527.375 23.5625 526.5 23.8125C524.625 24.8125 522.75 26.625 520.875 29.25C520 30.125 519.188 30.25 518.438 29.625C511.688 24.5 507.75 15.8125 506.625 3.5625C506.5 2.9375 506.562 2.5625 506.812 2.4375C506.938 2.3125 507.438 2.3125 508.312 2.4375C509.938 2.9375 511 3.3125 511.5 3.5625C512 3.9375 512.125 4.3125 511.875 4.6875C511.5 5.0625 511.188 5.375 510.938 5.625C510.438 6 510.312 6.4375 510.562 6.9375C513.312 13.9375 518.625 18.8125 526.5 21.5625ZM494.062 3.375C496.062 3.75 498.75 4.5625 502.125 5.8125C502.75 6.1875 503.062 6.625 503.062 7.125C503.062 7.625 502.812 8 502.312 8.25C501.562 8.625 500.938 9.1875 500.438 9.9375C494.562 20.3125 488.375 27.625 481.875 31.875C481.125 32.375 480.688 32.5 480.562 32.25C480.312 32 480.438 31.5625 480.938 30.9375C485.938 24.5625 489.812 15.6875 492.562 4.3125C492.688 3.5625 493.188 3.25 494.062 3.375ZM564.75 31.125H536.438C535.062 31.125 533 31.3125 530.25 31.6875C530.125 31.6875 530.062 31.6875 530.062 31.6875C529.688 31.8125 529.375 31.6875 529.125 31.3125C529 31.3125 528.875 31.1875 528.75 30.9375C528.5 30.5625 528.312 30.1875 528.188 29.8125C528.062 29.4375 528.188 29.25 528.562 29.25C529.188 29.5 530.375 29.6875 532.125 29.8125C534 29.8125 535.875 29.8125 537.75 29.8125H541.125V16.6875H537.375C536.125 16.6875 534.188 16.875 531.562 17.25C531.312 17.25 531.188 17.25 531.188 17.25C530.812 17.375 530.5 17.25 530.25 16.875C529.875 16.625 529.562 16.125 529.312 15.375C529.188 15.25 529.125 15.125 529.125 15C529.125 14.875 529.312 14.8125 529.688 14.8125C530.812 15.1875 533.875 15.3125 538.875 15.1875H541.125V10.5C541 7.25 540.875 4.8125 540.75 3.1875C540.5 2.4375 540.5 2 540.75 1.875C540.875 1.75 541.438 1.6875 542.438 1.6875C545.312 2.0625 547.562 2.5625 549.188 3.1875C550.062 3.6875 550.125 4.3125 549.375 5.0625C548.875 5.4375 548.625 6.0625 548.625 6.9375V15.1875H554.812V10.3125C554.688 6.9375 554.562 4.4375 554.438 2.8125C554.188 2.1875 554.125 1.8125 554.25 1.6875C554.5 1.4375 555.062 1.3125 555.938 1.3125C558.688 1.5625 560.938 2 562.688 2.625C563.562 3.125 563.625 3.6875 562.875 4.3125C562.5 4.6875 562.312 5.375 562.312 6.375V15.1875H564.375C566.25 12.1875 567.5 10.6875 568.125 10.6875C569.75 11.4375 571.625 12.9375 573.75 15.1875C574.125 15.8125 574.25 16.25 574.125 16.5C574 16.75 573.688 16.875 573.188 16.875C570.562 16.75 567.188 16.6875 563.062 16.6875H562.312V29.8125H565.875C568 26.8125 569.312 25.25 569.812 25.125C571.062 25.625 572.938 27.1875 575.438 29.8125C575.812 30.3125 575.938 30.75 575.812 31.125C575.688 31.375 575.375 31.4375 574.875 31.3125C572.375 31.1875 569 31.125 564.75 31.125ZM544.688 32.25C547.188 33.5 549.375 34.8125 551.25 36.1875C551.75 36.6875 551.938 37.25 551.812 37.875C551.688 38.25 551.312 38.4375 550.688 38.4375C550.562 38.5625 550.438 38.625 550.312 38.625C549.062 39 548.188 39.375 547.688 39.75C541.188 43.875 535.125 46.8125 529.5 48.5625C528.75 48.6875 528.312 48.625 528.188 48.375C528.062 48.125 528.312 47.8125 528.938 47.4375C534.062 43.8125 538.688 38.875 542.812 32.625C543.188 32 543.812 31.875 544.688 32.25ZM563.438 45C561.938 41.375 559.125 38.0625 555 35.0625C554.25 34.5625 553.938 34.1875 554.062 33.9375C554.188 33.6875 554.75 33.5625 555.75 33.5625C563.375 34.8125 568.438 37.0625 570.938 40.3125C572.938 43.3125 572.562 45.875 569.812 48C566.938 49.125 564.812 48.125 563.438 45ZM548.625 16.6875V29.8125H554.812V16.6875H548.625ZM595.875 12.9375V10.875C595.875 9.25 595.812 8.0625 595.688 7.3125C595.688 6.5625 595.688 5.75 595.688 4.875C595.438 3.625 595.938 3.125 597.188 3.375C599.062 3.875 601.062 4.5 603.188 5.25C603.188 5.5 603.25 5.5625 603.375 5.4375H610.125C611.125 3.8125 611.938 2.9375 612.562 2.8125C615.562 3.8125 617.812 5.1875 619.312 6.9375C619.312 7.5625 619 8 618.375 8.25C617.75 8.625 617.5 9.125 617.625 9.75C617.5 12.5 617.562 14.9375 617.812 17.0625C617.812 18.3125 617.625 19 617.25 19.125C617.25 19.125 617.312 19.0625 617.438 18.9375C617.562 18.9375 617.75 18.875 618 18.75C619.75 19.5 621.562 20.9375 623.438 23.0625C623.688 23.9375 623.5 24.4375 622.875 24.5625C622 24.5625 620.312 24.5625 617.812 24.5625C615.062 24.5625 613.188 24.5 612.188 24.375H605.062C605.188 25.25 604.938 25.6875 604.312 25.6875C603.688 25.9375 603.25 26.375 603 27C602.75 27.375 602.5 27.6875 602.25 27.9375H614.812C614.938 27.6875 615 27.625 615 27.75C616 26.25 616.688 25.5 617.062 25.5C619.562 26.625 621.688 27.875 623.438 29.25C623.688 30.125 623.5 30.6875 622.875 30.9375C622.125 31.3125 621.75 31.875 621.75 32.625C621.5 34.75 621.062 37.6875 620.438 41.4375C619.688 44.8125 618.312 46.75 616.312 47.25C615.688 47.625 614.375 48.0625 612.375 48.5625C610.75 48.6875 610 48.4375 610.125 47.8125C609.75 45.3125 608.438 43.75 606.188 43.125C605.812 43.125 605.562 42.9375 605.438 42.5625C602.438 44.5625 598.75 46 594.375 46.875C593.625 46.875 593.188 46.75 593.062 46.5C592.938 46.25 593.188 46 593.812 45.75C601.438 42.75 606.438 37.3125 608.812 29.4375H608.062C604.812 35.6875 599.5 39.9375 592.125 42.1875C591.375 42.4375 590.938 42.4375 590.812 42.1875C590.688 42.0625 590.938 41.8125 591.562 41.4375C596.812 38.3125 600.25 34.3125 601.875 29.4375H601.312C598.938 32.9375 595.25 35.75 590.25 37.875C589.75 38 589.438 38 589.312 37.875C589.188 37.75 589.25 37.5 589.5 37.125C594 33.25 596.5 29 597 24.375H596.062C594.562 24.5 593.438 24.625 592.688 24.75C592.188 24.875 591.875 24.8125 591.75 24.5625C591.5 24.4375 591.312 24.25 591.188 24C590.938 23.75 590.75 23.5 590.625 23.25C590.5 23.125 590.438 23 590.438 22.875C590.562 22.75 590.75 22.6875 591 22.6875C593.25 22.9375 595.312 23.0625 597.188 23.0625H614.438C615.062 21.9375 615.938 20.75 617.062 19.5C616.812 19.75 616.562 19.875 616.312 19.875C615.062 20.375 613.812 20.625 612.562 20.625C611.062 21 610.438 20.375 610.688 18.75V18.1875H602.625C602.625 19.9375 602.062 20.875 600.938 21C600.062 21.375 598.875 21.5625 597.375 21.5625C595.875 21.9375 595.312 21.1875 595.688 19.3125V19.125H589.312V30.375C590.812 30 592.188 29.625 593.438 29.25C594.188 29.125 594.625 29.1875 594.75 29.4375C594.875 29.6875 594.688 30.0625 594.188 30.5625C590.812 33.4375 587.125 36.125 583.125 38.625C582.25 39.125 581.562 39.75 581.062 40.5C580.312 41.375 579.625 41.25 579 40.125C577.75 37.875 576.938 35.9375 576.562 34.3125C576.312 33.8125 576.25 33.5 576.375 33.375C576.5 33.125 576.938 33 577.688 33C578.188 32.875 579 32.75 580.125 32.625C580.875 32.5 581.625 32.3125 582.375 32.0625V19.125H580.875C579.5 19.125 578.562 19.1875 578.062 19.3125C577.688 19.5625 577.375 19.5 577.125 19.125C577 19 576.875 18.8125 576.75 18.5625C576.5 18.3125 576.375 18.0625 576.375 17.8125C576.25 17.4375 576.375 17.25 576.75 17.25C578.375 17.5 580 17.625 581.625 17.625H582.375V11.8125C582.25 10.6875 582.125 9.3125 582 7.6875C581.875 6.1875 581.75 5 581.625 4.125C581.25 3 581.75 2.4375 583.125 2.4375C585.125 2.6875 587.375 3 589.875 3.375C591 3.875 591.125 4.625 590.25 5.625C589.5 6.125 589.188 6.625 589.312 7.125V17.625C590.062 15.75 590.812 14.625 591.562 14.25C592.812 14.625 594.25 15.5 595.875 16.875C595.875 15.625 595.875 14.3125 595.875 12.9375ZM615.188 29.4375H614.625C612.625 35.4375 610 39.625 606.75 42C608.75 42 610.25 42 611.25 42C612.5 42 613.312 41.3125 613.688 39.9375C614.562 36.5625 615.062 33.0625 615.188 29.4375ZM602.625 12.5625V16.6875H610.688V12.5625H602.625ZM610.688 6.9375H603.375C603.375 7.0625 603.312 7.125 603.188 7.125C602.812 7.375 602.625 7.875 602.625 8.625V11.0625H610.688V6.9375ZM648 23.0625H640.688C639.812 23.1875 638.875 23.3125 637.875 23.4375C637.5 23.5625 637.188 23.4375 636.938 23.0625C636.562 22.8125 636.188 22.375 635.812 21.75C633.188 23.5 630 25 626.25 26.25C625.375 26.625 624.875 26.625 624.75 26.25C624.625 26 624.938 25.5625 625.688 24.9375C633.688 18.9375 639.188 11.5625 642.188 2.8125C642.312 1.9375 642.938 1.625 644.062 1.875C647.938 2.875 650.438 3.625 651.562 4.125C652.062 4.5 652.312 4.875 652.312 5.25C652.312 5.75 652 6.0625 651.375 6.1875C650.875 6.1875 650.5 6.375 650.25 6.75C656 13.25 662.688 17.25 670.312 18.75C670.938 19 671.312 19.25 671.438 19.5C671.438 20 671.125 20.375 670.5 20.625C668.75 21.625 667.5 23.1875 666.75 25.3125C666.375 26.5625 665.562 26.6875 664.312 25.6875C662.062 24.8125 660.062 23.5625 658.312 21.9375C658.688 22.6875 658.5 23.125 657.75 23.25C656.75 23.25 655.438 23.25 653.812 23.25C652.562 23.125 650.625 23.0625 648 23.0625ZM633.938 41.625V34.875C633.812 33.125 633.688 31.3125 633.562 29.4375C633.438 28.8125 633.438 28.375 633.562 28.125C633.812 28 634.312 28 635.062 28.125C637.188 28.75 639.312 29.375 641.438 30H653.438C654.438 28.375 655.312 27.4375 656.062 27.1875C658.312 27.8125 660.625 29.1875 663 31.3125C663.125 31.8125 662.812 32.25 662.062 32.625C661.688 32.875 661.5 33.3125 661.5 33.9375V39.5625C661.375 41.9375 661.438 43.625 661.688 44.625C661.938 46.125 661.438 47 660.188 47.25C659.312 47.375 658.5 47.5 657.75 47.625C657 47.75 656.438 47.875 656.062 48C654.688 48.125 654.125 47.625 654.375 46.5V43.5H641.062V46.3125C641.062 47.1875 640.75 47.6875 640.125 47.8125C639.5 47.9375 638.375 48.125 636.75 48.375C636 48.375 635.562 48.4375 635.438 48.5625C633.812 48.6875 633.188 47.9375 633.562 46.3125C633.688 44.8125 633.812 43.25 633.938 41.625ZM654.375 31.5H641.812C641.188 31.75 640.938 32.1875 641.062 32.8125V42.1875H654.375V31.5ZM641.625 21.5625H649.688C651.062 19.3125 652.125 18.125 652.875 18C653.375 18.125 654.5 18.75 656.25 19.875C653.25 17 650.812 13.125 648.938 8.25C645.562 14 641.5 18.375 636.75 21.375C637.75 21.625 639.375 21.6875 641.625 21.5625ZM708.562 14.25H699.375C696.5 17.375 693.25 20.125 689.625 22.5C689.5 25 689.562 28 689.812 31.5C689.812 32.25 689.875 32.8125 690 33.1875C690.125 34.6875 689.688 35.6875 688.688 36.1875C687.562 36.6875 686.125 37.0625 684.375 37.3125C682.75 37.4375 682.062 37.0625 682.312 36.1875V32.0625H679.875V35.25C680 37.125 679.438 38.25 678.188 38.625C677.812 38.75 677.125 38.875 676.125 39C675.125 39.25 674.5 39.375 674.25 39.375C672.625 39.875 672 38.8125 672.375 36.1875C672.5 33.1875 672.625 29.8125 672.75 26.0625V17.4375C672.75 14.5625 672.688 12.625 672.562 11.625C672.562 10.375 672.5 9.25 672.375 8.25C672.25 7.625 672.25 7.1875 672.375 6.9375C672.625 6.8125 673.062 6.8125 673.688 6.9375C675.562 7.5625 677.812 8.375 680.438 9.375C680.438 9.625 680.562 9.6875 680.812 9.5625H681.75C683 7.8125 683.938 6.875 684.562 6.75C687.188 7.875 689.312 9.25 690.938 10.875C690.938 11.5 690.625 11.9375 690 12.1875C689.625 12.4375 689.438 12.8125 689.438 13.3125C689.562 13.5625 689.625 13.6875 689.625 13.6875V19.6875C693.25 12.9375 695.688 7.125 696.938 2.25C696.938 1.75 697.312 1.5625 698.062 1.6875C700.938 2.5625 703.688 3.6875 706.312 5.0625C706.938 5.9375 706.625 6.5625 705.375 6.9375C704.625 7.0625 704.125 7.375 703.875 7.875C703.375 9 702.25 10.625 700.5 12.75H708.188C710.312 9.75 711.875 8.0625 712.875 7.6875C715.375 8.9375 717.562 10.6875 719.438 12.9375C719.688 13.8125 719.438 14.3125 718.688 14.4375C717.688 14.4375 716.375 14.4375 714.75 14.4375C713.375 14.3125 711.312 14.25 708.562 14.25ZM703.125 41.25H709.312C711.438 41.75 713.312 39.25 714.938 33.75C715.188 32.75 715.5 32.25 715.875 32.25C716.375 32.5 716.562 33 716.438 33.75C715.812 37.75 716.562 39.9375 718.688 40.3125C719.438 40.6875 719.812 41.3125 719.812 42.1875C719.188 45.0625 716.625 46.6875 712.125 47.0625H699C692.125 46.3125 690.062 42.75 692.812 36.375C694.562 32.75 697.438 28.3125 701.438 23.0625H695.812C694.812 23.1875 693.875 23.3125 693 23.4375C692.625 23.5625 692.375 23.4375 692.25 23.0625C691.875 22.8125 691.625 22.375 691.5 21.75C691.25 21.375 691.312 21.25 691.688 21.375C692.688 21.625 694.375 21.6875 696.75 21.5625H701.625C702.75 19.8125 703.625 18.9375 704.25 18.9375C706.125 19.5625 708.562 20.9375 711.562 23.0625C712.562 24.1875 712.312 25 710.812 25.5C709.812 25.625 708.875 26.25 708 27.375C705.375 29.875 702.938 32.8125 700.688 36.1875C699.562 37.9375 699.188 39.25 699.562 40.125C699.938 40.875 701.125 41.25 703.125 41.25ZM682.312 10.875H680.812C680.188 11.25 679.875 11.75 679.875 12.375V30.9375H682.312V10.875ZM757.312 20.625H743.625C743.5 20.75 743.438 20.8125 743.438 20.8125C742.812 21.1875 742.562 21.75 742.688 22.5V37.3125C742.688 39.0625 742.062 39.9375 740.812 39.9375C739.938 40.1875 738.938 40.3125 737.812 40.3125C736.688 40.5625 736.125 39.9375 736.125 38.4375C736.125 37.0625 736.125 35.8125 736.125 34.6875C736.25 33.8125 736.312 32.375 736.312 30.375V24.5625C736.312 23.0625 736.25 21.9375 736.125 21.1875C736.125 20.3125 736.125 19.4375 736.125 18.5625C736 18.0625 736 17.75 736.125 17.625C736.25 17.5 736.625 17.4375 737.25 17.4375C737.25 17.5625 737.375 17.625 737.625 17.625C738.375 17.75 739.25 17.9375 740.25 18.1875V12.375C740.25 8.625 740.125 6.125 739.875 4.875C739.75 4.125 739.75 3.625 739.875 3.375C740 3.25 740.438 3.1875 741.188 3.1875C743.438 3.6875 745.125 4.0625 746.25 4.3125C746.375 4.5625 746.562 4.75 746.812 4.875H753.188C753.938 3.25 754.688 2.3125 755.438 2.0625C756.938 2.3125 758.75 3.25 760.875 4.875C761.375 5.625 761.25 6.1875 760.5 6.5625C759.75 6.9375 759.438 7.3125 759.562 7.6875V16.875C762.188 18 764.062 19.1875 765.188 20.4375C765.438 21.3125 765.25 21.875 764.625 22.125C764 22.5 763.75 22.9375 763.875 23.4375V35.8125C764.125 38.5625 762.312 40.1875 758.438 40.6875C756.812 41.0625 756 40.75 756 39.75C755.625 38.25 754.875 37.1875 753.75 36.5625C753 36.1875 752.688 35.8125 752.812 35.4375C752.812 35.1875 753.25 35.125 754.125 35.25C756.5 35.625 757.562 34.9375 757.312 33.1875V20.625ZM733.875 25.6875V36.9375C733.875 39.4375 736.688 41 742.312 41.625C745.688 41.875 749.25 42 753 42C756.75 42 760.438 41.75 764.062 41.25C765.938 41 767 40.9375 767.25 41.0625C767.5 41.4375 767.188 41.875 766.312 42.375C765.062 43.5 764.438 44.8125 764.438 46.3125C764.188 47.4375 763.438 48 762.188 48C758.062 48.125 754.312 48.125 750.938 48C747.562 48 744.812 47.875 742.688 47.625C738.812 47.25 735.188 45.3125 731.812 41.8125C730.938 40.9375 730.188 40.8125 729.562 41.4375C727.688 43.5625 726.625 45.5 726.375 47.25C726.125 47.875 725.812 48.25 725.438 48.375C725.188 48.375 724.812 48.1875 724.312 47.8125C723.062 47.0625 721.812 45.75 720.562 43.875C720.188 43.375 720.375 42.875 721.125 42.375C725.25 40.125 727.188 38.4375 726.938 37.3125V23.25H724.312C723.688 23.375 722.875 23.5 721.875 23.625C721.5 23.875 721.25 23.875 721.125 23.625C720.625 23.125 720.312 22.5625 720.188 21.9375C720.062 21.8125 720 21.6875 720 21.5625C720.125 21.4375 720.312 21.375 720.562 21.375C721.312 21.75 722.75 21.875 724.875 21.75H726.75C727.75 20.125 728.5 19.3125 729 19.3125C731.125 19.8125 733.125 21 735 22.875C735.375 23.5 735.25 24 734.625 24.375C734 24.625 733.75 25.0625 733.875 25.6875ZM748.688 24.1875H750.375C751.375 22.8125 752.125 22.0625 752.625 21.9375C754.25 22.4375 755.75 23.5625 757.125 25.3125C757 25.8125 756.688 26.25 756.188 26.625C755.938 26.75 755.812 27.1875 755.812 27.9375C755.812 29.0625 755.812 30.25 755.812 31.5C755.938 32.875 755.688 33.625 755.062 33.75C753.938 34.25 753.062 34.4375 752.438 34.3125C751.438 34.5625 751 34.0625 751.125 32.8125V32.25H748.5V33.1875C748.5 34.0625 748.125 34.5625 747.375 34.6875C747.125 34.8125 746.875 34.9375 746.625 35.0625C746.25 35.1875 745.812 35.3125 745.312 35.4375C743.938 35.6875 743.375 35.0625 743.625 33.5625C743.875 31.5625 743.938 29.75 743.812 28.125C743.812 25.875 743.75 24.5625 743.625 24.1875C743.375 23.4375 743.375 23 743.625 22.875C743.75 22.625 744.25 22.5625 745.125 22.6875C746 22.8125 747.062 23.1875 748.312 23.8125C748.438 23.9375 748.562 24.0625 748.688 24.1875ZM727.125 9.9375C726.75 7.4375 726.062 5.625 725.062 4.5C724.562 3.875 724.875 3.4375 726 3.1875C730.5 4.0625 733.188 5.625 734.062 7.875C734.688 10.75 733.812 12.625 731.438 13.5C728.938 14.375 727.5 13.1875 727.125 9.9375ZM753.75 6H746.438C746.062 6.125 745.938 6.5625 746.062 7.3125V11.0625H747C747.875 9.8125 748.562 9.1875 749.062 9.1875C750.562 9.6875 751.875 10.5 753 11.625C753.5 12.375 753.375 12.9375 752.625 13.3125C752.125 13.5625 751.875 14.1875 751.875 15.1875V19.125H753.75V6ZM751.125 25.6875H748.5V30.9375H751.125V25.6875ZM747.562 12.375H746.062V19.125H747.562V12.375ZM780.938 23.4375V29.0625C780.938 32.6875 781.062 37.625 781.312 43.875C781.438 45.625 780.812 46.6875 779.438 47.0625C778.562 47.4375 777.5 47.6875 776.25 47.8125C776.125 47.8125 776 47.875 775.875 48C773.875 48.625 773.125 47.5 773.625 44.625C773.625 44.125 773.625 43.375 773.625 42.375C774 37.125 774.188 33.125 774.188 30.375C773.062 32.5 771.375 34.75 769.125 37.125C768.75 37.5 768.5 37.6875 768.375 37.6875C768.25 37.5625 768.312 37.25 768.562 36.75C770.938 29.875 772.375 23.25 772.875 16.875C771.625 16.875 770.75 16.9375 770.25 17.0625C769.75 17.3125 769.438 17.25 769.312 16.875C768.812 16.625 768.562 16.25 768.562 15.75C768.438 15.5 768.375 15.375 768.375 15.375C768.375 15.25 768.562 15.1875 768.938 15.1875C771.188 15.5625 772.812 15.75 773.812 15.75H774.188V11.625C774.062 10.625 774 9.375 774 7.875C773.875 6.375 773.75 5 773.625 3.75C773.375 3.125 773.312 2.6875 773.438 2.4375C773.688 2.1875 774.188 2.0625 774.938 2.0625C777.062 2.3125 779.25 2.75 781.5 3.375C782.75 4.125 782.875 4.875 781.875 5.625C781.125 6.25 780.812 6.8125 780.938 7.3125V13.875C781.562 12.75 782.188 12.0625 782.812 11.8125C783.688 12.0625 785 13 786.75 14.625V10.5C786.75 9.125 786.625 8.125 786.375 7.5C786.375 7.125 786.375 6.75 786.375 6.375C786 5.125 786.438 4.5625 787.688 4.6875C789.312 4.9375 791 5.4375 792.75 6.1875C793.625 5.1875 794.5 3.9375 795.375 2.4375C795.875 1.4375 796.625 1.3125 797.625 2.0625C798.875 3.0625 800.062 4.125 801.188 5.25C801.562 6.125 801.312 6.5625 800.438 6.5625C799.812 6.5625 799.375 6.625 799.125 6.75C798.75 6.75 798.312 6.875 797.812 7.125C797.688 7.125 797.625 7.125 797.625 7.125C799 7.125 800.875 7.125 803.25 7.125H805.875C805.875 7 806 6.8125 806.25 6.5625C807.125 5.3125 807.812 4.6875 808.312 4.6875C811.312 5.6875 813.438 6.9375 814.688 8.4375C814.688 9.0625 814.375 9.5 813.75 9.75C813.375 10 813.188 10.4375 813.188 11.0625L812.812 20.0625C812.688 23.5625 810.5 25.75 806.25 26.625C805 27.125 804.25 26.8125 804 25.6875C803.75 23.6875 802.75 22.4375 801 21.9375C799.375 23.8125 797 25.75 793.875 27.75C793.375 28.125 793.062 28.25 792.938 28.125C792.688 28 792.75 27.6875 793.125 27.1875C794.75 25.1875 796 23.1875 796.875 21.1875C796.25 21.0625 796 20.5625 796.125 19.6875C796.125 19.5625 796.062 19.4375 795.938 19.3125C795.812 19.1875 795.812 19 795.938 18.75C793.438 21.125 791.625 23.1875 790.5 24.9375C789.875 26.0625 789.312 26.1875 788.812 25.3125C787.562 24.4375 786.438 23.1875 785.438 21.5625C784.812 20.9375 784.875 20.3125 785.625 19.6875C786.375 19.1875 786.75 18.375 786.75 17.25V16.875H780.938V20.4375C783.938 21.1875 785.938 22.4375 786.938 24.1875C787.312 25.1875 787.375 26.0625 787.125 26.8125C787.125 26.8125 787.188 26.875 787.312 27C787.562 27 787.812 27 788.062 27C789.688 27.375 791.688 28.125 794.062 29.25H803.625C804.75 27.625 805.562 26.8125 806.062 26.8125C808.938 27.8125 811.062 28.9375 812.438 30.1875C812.438 30.8125 812.188 31.25 811.688 31.5C811.062 31.875 810.812 32.4375 810.938 33.1875C810.938 34.3125 811 36 811.125 38.25C811.25 40.875 811.375 42.875 811.5 44.25C811.5 45.5 810.875 46.4375 809.625 47.0625C808.75 47.3125 807.625 47.5625 806.25 47.8125C804.75 48.0625 804.125 47.625 804.375 46.5V43.5H793.312V45.1875C793.438 46.3125 792.688 47.0625 791.062 47.4375C790.438 47.5625 789.438 47.75 788.062 48C786.562 48.25 785.938 47.8125 786.188 46.6875C786.312 44.4375 786.438 42.125 786.562 39.75C786.688 38.125 786.75 36.125 786.75 33.75C786.625 31 786.5 29.25 786.375 28.5C786.375 28.375 786.375 28.3125 786.375 28.3125C785.875 28.6875 785.375 28.9375 784.875 29.0625C782.75 29.6875 781.625 28.9375 781.5 26.8125C781.375 26.4375 781.188 25.3125 780.938 23.4375ZM792.938 10.125V17.25L795.562 16.5C795.438 15.875 794.938 14.875 794.062 13.5C794.062 13.375 794.062 13.25 794.062 13.125C793.812 12.875 793.75 12.6875 793.875 12.5625C794 12.5625 794.25 12.5625 794.625 12.5625C796.5 13.1875 797.938 13.9375 798.938 14.8125C799.062 14.0625 799.188 12.6875 799.312 10.6875C799.312 10.0625 799.375 9.375 799.5 8.625C799.25 8.625 799 8.6875 798.75 8.8125C798.625 8.9375 798.562 8.9375 798.562 8.8125C798.188 8.9375 797.938 8.8125 797.812 8.4375C797.438 8.3125 797.188 8 797.062 7.5C796.812 7.375 796.75 7.3125 796.875 7.3125C795.75 7.5625 794.625 7.75 793.5 7.875C793.5 8 793.438 8.0625 793.312 8.0625C793.188 8.1875 793.188 8.25 793.312 8.25C793.062 8.5 792.938 9.125 792.938 10.125ZM806.625 8.4375H805.312C804.812 14.1875 803.625 18.3125 801.75 20.8125C804.875 21.4375 806.375 20.5625 806.25 18.1875L806.625 8.4375ZM801.938 42.375H804.375V37.125H801.938V42.375ZM793.312 37.125V42.375H795.562V37.125H793.312ZM804.375 30.5625H801.938V36H804.375V30.5625ZM793.312 31.6875V36H795.562V30.5625H794.438C793.562 30.5625 793.188 30.9375 793.312 31.6875ZM829.125 30.1875V34.5C829.125 38.375 832.25 40.5625 838.5 41.0625C840.75 41.3125 844.062 41.375 848.438 41.25C853.438 41.125 857.562 40.9375 860.812 40.6875C862.438 40.5625 863.312 40.5625 863.438 40.6875C863.562 40.9375 863.312 41.375 862.688 42C861.438 42.625 860.5 43.9375 859.875 45.9375C859.75 46.8125 859 47.375 857.625 47.625C848.875 47.875 842.688 47.6875 839.062 47.0625C834.312 46.1875 830.688 44.125 828.188 40.875C827.562 40 826.75 40 825.75 40.875C824 42.375 822.938 44 822.562 45.75C821.938 47.375 821.188 47.75 820.312 46.875C820.062 46.5 819.625 45.9375 819 45.1875C817.5 43.3125 816.625 42.1875 816.375 41.8125C816.125 40.9375 816.375 40.1875 817.125 39.5625C820.5 38.0625 822.188 36.3125 822.188 34.3125V27.75H820.312C819.562 27.875 818.812 28 818.062 28.125C817.438 28.25 817.125 28.1875 817.125 27.9375C816.875 27.4375 816.625 26.9375 816.375 26.4375C816.125 26.0625 816.25 25.875 816.75 25.875C817.375 26.125 818.625 26.25 820.5 26.25H821.438C821.438 26.25 821.5 26.125 821.625 25.875C823 24.125 823.938 23.25 824.438 23.25C826.938 24.125 829.062 25.4375 830.812 27.1875C830.938 27.9375 830.625 28.4375 829.875 28.6875C829.25 29.0625 829 29.5625 829.125 30.1875ZM822.375 18.9375C822.375 17.0625 821.75 15.1875 820.5 13.3125C820.125 13.0625 820 12.8125 820.125 12.5625C820.25 12.4375 820.562 12.3125 821.062 12.1875C825.438 12.1875 828.25 13.375 829.5 15.75C830.25 18.375 829.25 20.1875 826.5 21.1875C824.125 21.6875 822.75 20.9375 822.375 18.9375ZM849.75 34.3125H855C855.25 34.0625 855.5 33.8125 855.75 33.5625C856.75 32.3125 857.5 31.5 858 31.125C856.625 31.5 855.25 31.6875 853.875 31.6875C852.5 31.9375 851.938 31.5625 852.188 30.5625V29.8125H849.75C849.75 31.0625 849.75 32.5625 849.75 34.3125ZM839.625 21.9375V24H842.25V21H839.625C839.625 21.25 839.625 21.5625 839.625 21.9375ZM842.25 25.3125H839.625V28.3125H842.25C842.25 27.1875 842.25 26.1875 842.25 25.3125ZM852.188 21H849.75V24H852.188V21ZM849.75 25.3125V28.3125H852.188V25.3125H849.75ZM849.75 15H854.25C855.625 13.125 856.625 12.125 857.25 12C858.625 12.375 860.188 13.3125 861.938 14.8125C862.562 15.8125 862.438 16.375 861.562 16.5H849.75V19.5H851.625C852.625 18 853.375 17.125 853.875 16.875C856.875 17.875 859.25 19.25 861 21C861 21.5 860.625 21.9375 859.875 22.3125C859.5 22.5625 859.312 23 859.312 23.625V24.375C859.188 24.75 859.188 25.4375 859.312 26.4375C859.438 27.4375 859.5 28.0625 859.5 28.3125C859.625 29.6875 859.375 30.5 858.75 30.75C859.75 31 861.312 32.25 863.438 34.5C863.688 35.375 863.5 35.875 862.875 36C861.875 36 860.5 36 858.75 36C857.25 35.875 855.062 35.8125 852.188 35.8125H849.75C849.625 36.0625 849.625 36.375 849.75 36.75C849.875 37.125 849.938 37.375 849.938 37.5C850.062 38.625 849.438 39.375 848.062 39.75C846.562 40.25 845.062 40.5625 843.562 40.6875C842.062 40.9375 841.438 40.25 841.688 38.625C841.562 37.75 841.625 36.8125 841.875 35.8125H834.938C833.562 35.8125 832.625 35.9375 832.125 36.1875C831.75 36.3125 831.438 36.1875 831.188 35.8125C830.688 35.4375 830.375 35 830.25 34.5C830 34.25 829.875 34.0625 829.875 33.9375C829.875 33.9375 830.062 33.9375 830.438 33.9375C832.188 34.1875 834.312 34.3125 836.812 34.3125H841.875C841.75 33.8125 841.75 33.0625 841.875 32.0625C842 31.1875 842.062 30.4375 842.062 29.8125H839.625V30.1875C839.625 31.0625 839.312 31.5625 838.688 31.6875C838.188 31.8125 837.5 31.9375 836.625 32.0625C835.625 32.3125 834.938 32.4375 834.562 32.4375C832.812 32.8125 832.188 32.0625 832.688 30.1875C832.812 29.8125 832.875 28.25 832.875 25.5V23.625C832.875 21.375 832.812 19.8125 832.688 18.9375C832.312 17.6875 832.812 17.1875 834.188 17.4375C834.438 17.5625 834.938 17.75 835.688 18C837.562 18.375 838.812 18.625 839.438 18.75C839.938 19 840.25 19.25 840.375 19.5H842.25V16.5H835.688C834.688 16.625 833.75 16.75 832.875 16.875C832.375 17 832.062 16.875 831.938 16.5C831.688 16.375 831.5 16.1875 831.375 15.9375C831.25 15.6875 831.125 15.4375 831 15.1875C830.75 14.8125 830.875 14.625 831.375 14.625C833.125 14.875 834.875 15 836.625 15H842.25C842.25 14.875 842.125 14.375 841.875 13.5C841.75 13.125 841.688 12.75 841.688 12.375C841.312 11.375 841.625 10.875 842.625 10.875C842.75 10.875 842.938 10.875 843.188 10.875C843.188 9.875 843.25 9.0625 843.375 8.4375H836.438C836.312 9.3125 836.375 10.0625 836.625 10.6875C836.75 11.6875 836.125 12.3125 834.75 12.5625C833.75 12.9375 832.562 13.1875 831.188 13.3125C829.938 13.5625 829.438 12.9375 829.688 11.4375C829.688 11.1875 829.688 10.1875 829.688 8.4375H825.938C822.562 8.5625 820.188 8.75 818.812 9C818.562 9.125 818.25 8.9375 817.875 8.4375C817.75 8.4375 817.375 7.875 816.75 6.75C816.5 6.375 816.625 6.25 817.125 6.375C818.375 6.625 820.25 6.8125 822.75 6.9375C824.875 6.9375 826.5 6.9375 827.625 6.9375H829.688V6.5625C829.688 5.5625 829.625 4.625 829.5 3.75C828.875 2.375 829.375 1.75 831 1.875C832.875 2.125 834.75 2.375 836.625 2.625C837.625 3.125 837.812 3.75 837.188 4.5C836.562 4.75 836.312 5.3125 836.438 6.1875V6.9375H843.375V6.5625C843.375 5.9375 843.25 5.3125 843 4.6875C843 4.3125 843 4 843 3.75C842.625 2.625 843.125 2.0625 844.5 2.0625C847.25 2.4375 849.188 2.625 850.312 2.625C850.812 2.75 851.125 3.0625 851.25 3.5625C851.25 4.0625 851.062 4.375 850.688 4.5C850.188 4.875 850 5.4375 850.125 6.1875V6.9375H853.5C855.125 4.4375 856.438 3 857.438 2.625C859.062 3.125 861 4.5625 863.25 6.9375C864 8.0625 863.875 8.6875 862.875 8.8125C861 8.6875 859.25 8.625 857.625 8.625C856.25 8.5 854.125 8.4375 851.25 8.4375H850.125C850.25 8.9375 850.312 9.375 850.312 9.75C850.438 10.75 850 11.375 849 11.625C849.375 11.75 849.688 11.8125 849.938 11.8125C850.438 11.9375 850.75 12.1875 850.875 12.5625C851 12.9375 850.875 13.25 850.5 13.5C849.875 14 849.625 14.5 849.75 15ZM895.312 11.8125H902.062C903.312 9.5625 904.375 8.25 905.25 7.875C906.375 8.125 908.125 9.4375 910.5 11.8125C911.125 12.9375 910.938 13.5625 909.938 13.6875C908.188 13.5625 906.312 13.5 904.312 13.5C902.688 13.375 900.25 13.3125 897 13.3125H895.5C895.5 15.9375 895.688 18.4375 896.062 20.8125C896.312 23.0625 896.688 25.0625 897.188 26.8125C897.312 26.6875 897.5 26.375 897.75 25.875C898.875 23 899.625 20.1875 900 17.4375C900 16.4375 900.688 16.125 902.062 16.5C904.688 17.25 907.062 18.125 909.188 19.125C909.812 19.875 909.625 20.5 908.625 21C907.875 21.25 907.375 21.8125 907.125 22.6875C904.875 27.5625 902.5 31.5 900 34.5C901.125 36.5 902.375 37.9375 903.75 38.8125C904.625 39.3125 905.25 39.25 905.625 38.625C906.5 37.25 907.438 35.4375 908.438 33.1875C908.562 32.5625 908.75 32.25 909 32.25C909.375 32.25 909.562 32.5 909.562 33C909.562 33.5 909.5 34.5 909.375 36C909.375 38 909.375 39.375 909.375 40.125C909.25 41.25 909.688 42.25 910.688 43.125C911.562 45.5 910.562 47.0625 907.688 47.8125C905.312 47.9375 902.875 47.125 900.375 45.375C898.25 44 896.375 42.125 894.75 39.75C890 43 883.938 45.3125 876.562 46.6875C875.438 46.8125 874.812 46.75 874.688 46.5C874.562 46.125 875.062 45.6875 876.188 45.1875C883.062 42.0625 888.375 38.4375 892.125 34.3125C889.875 28.3125 888.625 21.3125 888.375 13.3125H874.125C872.625 13.4375 870.375 13.625 867.375 13.875C867.25 13.875 867.125 13.9375 867 14.0625C866.75 14.0625 866.562 13.875 866.438 13.5C865.938 13 865.625 12.4375 865.5 11.8125C865.25 11.6875 865.125 11.5625 865.125 11.4375C865.25 11.3125 865.438 11.25 865.688 11.25C866.312 11.5 867.562 11.625 869.438 11.625C871.688 11.75 873.812 11.8125 875.812 11.8125H888.375C888.375 11.4375 888.312 10.875 888.188 10.125C888.062 9.5 888.062 8.9375 888.188 8.4375C888.062 7.0625 887.938 5.3125 887.812 3.1875C887.438 2.1875 887.875 1.6875 889.125 1.6875C890.125 1.8125 891.688 2.0625 893.812 2.4375C894.188 2.5625 894.688 2.625 895.312 2.625C895.938 2.75 896.312 3.1875 896.438 3.9375C896.438 3.8125 896.625 3.75 897 3.75C899.25 3.5 901.188 3.8125 902.812 4.6875C904.562 6.1875 904.625 7.875 903 9.75C900.875 11.125 899.438 10.8125 898.688 8.8125C898.062 7.0625 897.375 5.6875 896.625 4.6875C896.625 4.6875 896.562 4.625 896.438 4.5C896.312 4.5 896.312 4.4375 896.438 4.3125C896.312 4.4375 896.125 4.5625 895.875 4.6875C895.375 4.9375 895.188 5.5625 895.312 6.5625C895.312 8.4375 895.312 10.1875 895.312 11.8125ZM868.875 26.25V23.0625C868.75 21.3125 868.625 19.75 868.5 18.375C868.25 17.125 868.75 16.625 870 16.875C870.125 17 870.375 17.125 870.75 17.25C872.625 17.75 874.062 18.125 875.062 18.375C875.562 18.625 875.812 18.8125 875.812 18.9375H879.375C880.25 17.4375 881 16.625 881.625 16.5C883.25 16.75 885.188 17.6875 887.438 19.3125C888.062 20.1875 888.125 20.8125 887.625 21.1875C887 21.6875 886.75 22.1875 886.875 22.6875V31.3125C886.875 32.3125 886.562 32.9375 885.938 33.1875C884.312 33.5625 883.125 33.75 882.375 33.75C880.75 33.875 880.062 33.5 880.312 32.625V30.5625H875.25V32.625C875.25 33.75 874.812 34.4375 873.938 34.6875C873.188 35.0625 871.812 35.1875 869.812 35.0625C868.812 35.4375 868.375 35.125 868.5 34.125C868.625 32.5 868.75 29.875 868.875 26.25ZM870.188 44.625C869.438 44.875 868.938 45.125 868.688 45.375C868.188 45.875 867.75 46.0625 867.375 45.9375C867.125 45.8125 866.875 45.4375 866.625 44.8125C865.625 42.4375 865 40.5 864.75 39C864.375 38.25 864.875 37.8125 866.25 37.6875C870.875 37.3125 878.5 36.1875 889.125 34.3125C889.875 34.1875 890.312 34.3125 890.438 34.6875C890.438 35.0625 890.125 35.375 889.5 35.625C886.25 37.375 880.625 39.9375 872.625 43.3125C871.5 43.9375 870.688 44.375 870.188 44.625ZM880.312 20.4375H875.25V29.0625H880.312V20.4375ZM920.812 36.1875V27H919.688V28.875C919.562 30.125 919.062 30.8125 918.188 30.9375C917.812 31.0625 917.375 31.125 916.875 31.125C916.375 31.25 916 31.3125 915.75 31.3125C914 31.4375 913.312 30.8125 913.688 29.4375C913.812 28.3125 913.938 26.6875 914.062 24.5625C914.062 22.8125 914.125 21.3125 914.25 20.0625C914.125 16.3125 914 13.8125 913.875 12.5625C913.625 11.3125 914.125 10.8125 915.375 11.0625C915.5 11.1875 915.75 11.3125 916.125 11.4375C918 12.0625 919.188 12.4375 919.688 12.5625C920.062 12.6875 920.25 12.8125 920.25 12.9375H920.625V8.0625C920.625 5.8125 920.5 4.3125 920.25 3.5625C920.125 3.0625 920.125 2.6875 920.25 2.4375C920.375 2.3125 920.75 2.25 921.375 2.25C922.875 2.375 924.562 2.5 926.438 2.625C926.938 2.75 927.25 3 927.375 3.375C927.375 3.75 927.188 4.125 926.812 4.5C926.438 4.875 926.25 5.1875 926.25 5.4375V12.9375H926.812C927.562 11.4375 928.188 10.6875 928.688 10.6875C929.938 11.0625 931.562 12 933.562 13.5V9.1875C933.438 7.3125 933.312 5.75 933.188 4.5C933.062 3.75 933.125 3.3125 933.375 3.1875C933.5 2.9375 933.938 2.875 934.688 3C936.562 3.625 938.125 4.0625 939.375 4.3125C939.75 4.5625 940 4.75 940.125 4.875H950.625C950.75 4.625 950.812 4.5625 950.812 4.6875C951.812 3.0625 952.5 2.25 952.875 2.25C955.25 2.875 957.438 4.25 959.438 6.375C959.438 6.75 959.125 7.125 958.5 7.5C957.875 7.75 957.625 8.1875 957.75 8.8125V9.5625C957.75 11.1875 957.75 12.875 957.75 14.625C957.875 16.375 958 17.5625 958.125 18.1875C958.25 19.6875 957.75 20.5625 956.625 20.8125C955.625 21.1875 954.562 21.375 953.438 21.375C954.562 22 955.75 22.6875 957 23.4375C957.5 23.8125 957.688 24.25 957.562 24.75C957.438 25.25 957.125 25.4375 956.625 25.3125C954.875 25.4375 953.5 25.75 952.5 26.25C950.5 27.375 947.25 28.8125 942.75 30.5625C944.75 30.5625 947.625 30.4375 951.375 30.1875C951.125 29.6875 950.812 29.25 950.438 28.875C950.188 28.75 950.125 28.625 950.25 28.5C950.375 28.375 950.625 28.25 951 28.125C954.25 28.375 956.75 29.25 958.5 30.75C959.75 33 959.375 34.875 957.375 36.375C955.25 37.25 953.875 36.6875 953.25 34.6875C953 33.9375 952.75 33.25 952.5 32.625C951.125 32.875 949.875 33.0625 948.75 33.1875V36.5625C952.5 36.8125 955.5 37.625 957.75 39C959.75 41.25 959.688 43.4375 957.562 45.5625C955.562 46.4375 954.062 45.8125 953.062 43.6875C951.938 41.4375 950.5 39.4375 948.75 37.6875C948.625 38.6875 948.625 39.875 948.75 41.25C948.875 41.875 948.938 42.3125 948.938 42.5625C949.188 44.8125 948.5 46.3125 946.875 47.0625C946 47.4375 944.938 47.8125 943.688 48.1875C942.438 48.5625 941.625 48.125 941.25 46.875C940.5 45.625 939.188 44.625 937.312 43.875C936.438 43.625 936 43.3125 936 42.9375C933.125 44.3125 930.375 45.375 927.75 46.125C927.125 46.25 926.75 46.1875 926.625 45.9375C926.625 45.8125 926.875 45.5625 927.375 45.1875C931.5 42.3125 934.375 39.5 936 36.75C935.5 36.875 935.125 36.5625 934.875 35.8125C934.75 35.8125 934.625 35.6875 934.5 35.4375C934 33.9375 933.75 32.875 933.75 32.25C933.5 31.625 933.438 31.1875 933.562 30.9375C933.812 30.5625 934.125 30.4375 934.5 30.5625C936.5 30.5625 938.312 30.125 939.938 29.25C941.188 28.5 942.5 27.625 943.875 26.625C940 27.625 937.812 28.3125 937.312 28.6875C936.188 29.6875 935.5 29.625 935.25 28.5C935.125 28.375 934.938 27.875 934.688 27C934.438 26.5 934.312 26.0625 934.312 25.6875C934.062 25.1875 934.062 24.8125 934.312 24.5625C934.312 24.3125 934.625 24.0625 935.25 23.8125C938.125 23.4375 940.312 21.8125 941.812 18.9375H939.562V19.875C939.562 20.625 939.188 21.125 938.438 21.375C938.062 21.5 937.625 21.625 937.125 21.75C936 22 935.375 22.125 935.25 22.125C933.5 22.5 932.875 21.75 933.375 19.875C933.375 19.75 933.375 19.3125 933.375 18.5625C933.375 17.4375 933.438 16.3125 933.562 15.1875V14.625C933.438 14.75 933.312 14.8125 933.188 14.8125C933.062 14.9375 933 15 933 15C932.75 15.125 932.625 15.625 932.625 16.5C932.5 21.75 932.562 24.9375 932.812 26.0625C932.938 27.6875 932.438 28.5625 931.312 28.6875C931.062 28.8125 930.562 28.9375 929.812 29.0625C929.188 29.1875 928.812 29.25 928.688 29.25C927.438 29.375 926.875 28.9375 927 27.9375V27H926.062V35.25C926.312 35.25 926.625 35.1875 927 35.0625C927.375 35.0625 927.75 35 928.125 34.875C927.875 33.5 927.625 32.3125 927.375 31.3125C927.125 30.8125 927.375 30.5625 928.125 30.5625C930.75 31.6875 932.688 33.125 933.938 34.875C934.688 37.25 934.062 39.125 932.062 40.5C929.562 41.25 928.312 40.375 928.312 37.875V36.9375C923.938 39.8125 920.562 41.6875 918.188 42.5625C917.562 42.9375 917.125 43.3125 916.875 43.6875C916.375 44.1875 916 44.4375 915.75 44.4375C915.375 44.3125 915.062 43.9375 914.812 43.3125C913.938 41.8125 913.25 40.1875 912.75 38.4375C912.375 37.6875 912.812 37.25 914.062 37.125C915.312 37.125 917.562 36.8125 920.812 36.1875ZM951.375 20.4375V18.9375H946.5C946.625 19.0625 946.875 19.125 947.25 19.125C947.5 19.25 947.75 19.3125 948 19.3125C948.5 19.5625 948.75 19.9375 948.75 20.4375C948.625 20.9375 948.312 21.125 947.812 21C946.688 21.125 945.625 21.5 944.625 22.125C943.875 22.75 942.438 23.5625 940.312 24.5625C940.562 24.5625 941.312 24.5625 942.562 24.5625C944.438 24.4375 945.812 24.375 946.688 24.375C948.188 23.125 949.25 22.0625 949.875 21.1875C950.375 20.6875 950.875 20.4375 951.375 20.4375ZM951.375 6.375H948.375V11.25H951.375V6.375ZM948.375 12.5625V17.4375H951.375V12.5625H948.375ZM939.562 12.5625V17.4375H942.375V12.5625H939.562ZM939.562 7.5V11.25H942.375V6.375H939.562C939.562 6.625 939.562 7 939.562 7.5ZM920.812 14.4375H919.688V25.5H920.812V14.4375ZM927 14.4375H925.875V25.5H927V14.4375ZM942.562 37.875V34.5C940.188 34.875 938.562 35.25 937.688 35.625C937.688 35.625 937.75 35.625 937.875 35.625C938.25 35.875 938.875 36.1875 939.75 36.5625C941 37.1875 941.938 37.625 942.562 37.875ZM937.312 42.1875H937.875C941.25 42.3125 942.812 41.4375 942.562 39.5625C941.938 39.5625 941.375 39.75 940.875 40.125C940.625 40.375 940.312 40.625 939.938 40.875C938.812 41.625 937.938 42.0625 937.312 42.1875ZM992.062 16.3125H993.375V8.625H989.062C988.062 8.625 987.375 8.6875 987 8.8125C986.75 9.0625 986.5 9 986.25 8.625C986.125 8.5 985.938 8.25 985.688 7.875C985.562 7.625 985.5 7.4375 985.5 7.3125C985.25 6.9375 985.312 6.75 985.688 6.75C987.312 7 988.625 7.125 989.625 7.125H1000.69C1002.06 5.125 1003.12 4 1003.88 3.75C1005.12 4.375 1006.38 5.5625 1007.62 7.3125C1007.88 8.1875 1007.69 8.6875 1007.06 8.8125C1005.56 8.6875 1003 8.625 999.375 8.625H999C999.125 9.25 999.062 9.625 998.812 9.75C998.438 9.875 998.312 10.25 998.438 10.875V16.3125H999.938C1000.94 14.9375 1001.69 14.25 1002.19 14.25C1003.69 14.875 1005.38 16 1007.25 17.625C1007.75 18.375 1007.75 18.875 1007.25 19.125C1006.25 19.75 1005.69 20.3125 1005.56 20.8125V21.9375C1005.56 22.9375 1005.62 24.875 1005.75 27.75C1005.88 30.875 1006 33.1875 1006.12 34.6875C1006.38 37.4375 1005.75 39.125 1004.25 39.75C1003.38 40.125 1002.31 40.5 1001.06 40.875C1000.19 41.375 999.688 40.9375 999.562 39.5625C999.312 38.3125 998.938 37.5 998.438 37.125V44.8125C998.438 46.0625 998 46.9375 997.125 47.4375C996.125 47.8125 995.125 48 994.125 48C993 48 992.625 47.3125 993 45.9375C993.125 42.5625 993.25 37.3125 993.375 30.1875V17.8125H992.062C991.688 18.0625 991.562 18.5 991.688 19.125V38.8125C991.562 39.9375 991.25 40.625 990.75 40.875C989.75 41.5 988.875 41.8125 988.125 41.8125C986.875 41.9375 986.375 41.3125 986.625 39.9375C986.625 39.4375 986.625 38.4375 986.625 36.9375C986.75 34.8125 986.812 33.0625 986.812 31.6875C986.688 31.6875 986.625 31.75 986.625 31.875C986.5 32 986.438 32 986.438 31.875C985.688 32.25 985.312 32.625 985.312 33C985.312 39 985.375 42.5 985.5 43.5C985.5 45.125 985.188 46 984.562 46.125C984.062 46.25 983.312 46.4375 982.312 46.6875C982.062 46.6875 981.875 46.75 981.75 46.875C980.75 46.875 980.312 46.5 980.438 45.75V43.3125H978.375V46.125C978.25 47 977.938 47.5 977.438 47.625C977.062 47.75 976.312 47.9375 975.188 48.1875C974.812 48.1875 974.562 48.25 974.438 48.375C973.312 48.5 972.812 47.75 972.938 46.125C973.062 44.25 973.188 41.3125 973.312 37.3125V16.3125C973.188 13.8125 973.062 11.8125 972.938 10.3125C972.812 9.1875 973.25 8.75 974.25 9C974.5 9.125 974.938 9.3125 975.562 9.5625C976.062 9.8125 976.625 10 977.25 10.125C977.375 7.625 977.5 5.4375 977.625 3.5625C977.625 2.9375 978.062 2.75 978.938 3C980.312 3.375 981.625 3.8125 982.875 4.3125C983.25 4.4375 983.375 4.75 983.25 5.25C983.25 5.625 983.062 5.8125 982.688 5.8125C982.188 5.9375 981.75 6.25 981.375 6.75C980.25 8.625 979.438 9.9375 978.938 10.6875H980.25C980.375 10.5625 980.438 10.5 980.438 10.5C981.438 9.25 982.062 8.625 982.312 8.625C983.938 9.375 985.5 10.6875 987 12.5625C987 13.1875 986.812 13.5625 986.438 13.6875C985.688 13.8125 985.375 14.125 985.5 14.625C985.5 17.625 985.5 20.375 985.5 22.875C985.625 24.5 985.312 25.375 984.562 25.5C984.312 25.625 984.062 25.6875 983.812 25.6875C982.938 26.0625 982.312 26.1875 981.938 26.0625C980.812 26.3125 980.25 25.9375 980.25 24.9375V24.375H978.375V29.25H980.062C980.938 27.875 981.625 27.125 982.125 27C983.375 27.5 984.938 28.625 986.812 30.375V21.75C986.812 21.25 986.75 20.25 986.625 18.75C986.625 17.5 986.625 16.625 986.625 16.125C986.375 14.875 986.75 14.375 987.75 14.625C989.375 15.25 990.812 15.8125 992.062 16.3125ZM965.812 47.8125C964.562 48.1875 963.938 47.8125 963.938 46.6875C963.812 44.8125 962.938 43.5625 961.312 42.9375C960.812 42.5625 960.562 42.25 960.562 42C960.562 41.875 960.875 41.8125 961.5 41.8125C962.625 41.9375 963.562 41.9375 964.312 41.8125C965.438 41.6875 966.062 40.375 966.188 37.875C966.188 37.875 966.188 37.75 966.188 37.5C966.312 35.75 966.438 33.9375 966.562 32.0625C965.062 34.1875 963.375 35.875 961.5 37.125C961.125 37.5 960.875 37.625 960.75 37.5C960.625 37.375 960.688 37.0625 960.938 36.5625C963.188 32.5625 965.062 28.25 966.562 23.625C966.562 23.375 966.5 23 966.375 22.5C966.25 22.125 966.25 21.75 966.375 21.375C966.375 21.125 966.312 20.75 966.188 20.25C966.062 19.875 966.062 19.5 966.188 19.125C964.688 20.75 962.938 22.1875 960.938 23.4375C960.562 23.8125 960.312 23.9375 960.188 23.8125C960.062 23.5625 960.188 23.25 960.562 22.875C962.188 20.375 963.688 17.6875 965.062 14.8125C964.438 12.8125 963.188 10.5 961.312 7.875C960.812 7.5 960.688 7.125 960.938 6.75C961.188 6.5 961.625 6.5 962.25 6.75C963.5 7.25 965.125 8.375 967.125 10.125C967.875 8 968.375 6.0625 968.625 4.3125C968.75 3.5625 969.188 3.375 969.938 3.75C970.438 4 970.875 4.1875 971.25 4.3125C972.75 4.9375 973.938 5.4375 974.812 5.8125C975.312 6.1875 975.562 6.5625 975.562 6.9375C975.438 7.4375 975.125 7.6875 974.625 7.6875C973.875 7.8125 973.375 8.125 973.125 8.625C971.875 10.625 970.812 12.4375 969.938 14.0625C969.938 14.1875 969.938 14.25 969.938 14.25C971.688 19.25 972.188 27.5625 971.438 39.1875C971.062 44.3125 969.188 47.1875 965.812 47.8125ZM1000.31 17.8125H998.438V35.25C999.812 35.5 1000.44 34.8125 1000.31 33.1875V17.8125ZM980.438 30.75H978.375V42H980.438V30.75ZM980.25 12.1875H978.562C978.312 12.5625 978.25 13 978.375 13.5V23.0625H980.25V12.1875ZM1015.69 11.625V11.25C1015.56 10.375 1015.44 9.125 1015.31 7.5C1015.19 5.875 1015.06 4.5 1014.94 3.375C1014.44 2.125 1014.94 1.5625 1016.44 1.6875C1017.69 1.8125 1019.44 2.0625 1021.69 2.4375C1022.06 2.5625 1022.5 2.625 1023 2.625C1023.62 2.75 1024 3 1024.12 3.375C1024.12 3.75 1023.88 4.1875 1023.38 4.6875C1022.75 5.4375 1022.44 6.1875 1022.44 6.9375V15C1023.31 12.5 1023.94 9.6875 1024.31 6.5625C1024.44 5.6875 1025.06 5.4375 1026.19 5.8125C1026.31 5.9375 1026.62 6.125 1027.12 6.375C1028.75 7 1030.12 7.625 1031.25 8.25C1031.38 8.5 1031.56 8.75 1031.81 9C1031.94 7.25 1032.12 5.3125 1032.38 3.1875C1032.38 2.6875 1032.69 2.5 1033.31 2.625C1036.44 3.25 1038.81 3.8125 1040.44 4.3125C1041.31 4.8125 1041.38 5.4375 1040.62 6.1875C1039.88 6.5625 1039.25 7.25 1038.75 8.25C1035.75 15.75 1032.62 20.75 1029.38 23.25C1030.25 23.5 1031.5 23.5625 1033.12 23.4375H1042.69C1043.56 22.0625 1044.38 21.375 1045.12 21.375C1047.38 22.5 1049.56 24.0625 1051.69 26.0625C1051.81 26.5625 1051.56 27.0625 1050.94 27.5625C1050.81 27.6875 1050.75 27.75 1050.75 27.75C1050.25 28.125 1050.06 28.5 1050.19 28.875C1050.06 31.25 1049.94 33.1875 1049.81 34.6875C1049.69 36.3125 1049.5 38.125 1049.25 40.125C1049.12 44.875 1046.44 47.4375 1041.19 47.8125C1039.69 47.9375 1038.88 47.5625 1038.75 46.6875C1038.62 44.4375 1037.5 43.0625 1035.38 42.5625C1034.5 42.1875 1034.19 41.9375 1034.44 41.8125C1034.31 41.5625 1034.75 41.5 1035.75 41.625C1040 42.25 1042 41 1041.75 37.875C1041.75 37 1041.81 36.125 1041.94 35.25C1042.31 31.125 1042.56 27.6875 1042.69 24.9375H1040.62C1039.88 25.6875 1039.44 26.625 1039.31 27.75C1037.94 38.125 1032.88 44.625 1024.12 47.25C1023.38 47.375 1022.81 47.3125 1022.44 47.0625C1022.31 46.8125 1022.62 46.5 1023.38 46.125C1029 42.125 1032 35.0625 1032.38 24.9375C1031 24.9375 1030.06 25 1029.56 25.125C1029.06 25.25 1028.75 25.1875 1028.62 24.9375C1028.5 24.9375 1028.44 24.875 1028.44 24.75C1028.31 24.625 1028.25 24.5 1028.25 24.375L1027.31 24.9375C1028.06 25.5625 1028.62 26.1875 1029 26.8125C1029.88 28.9375 1029.5 30.5625 1027.88 31.6875C1025.12 32.9375 1023.56 32.125 1023.19 29.25C1023.19 27 1022.94 25.3125 1022.44 24.1875V29.25C1022.31 35.625 1022.44 40.5625 1022.81 44.0625C1022.81 45.9375 1022.19 47.0625 1020.94 47.4375C1019.81 47.5625 1018.62 47.8125 1017.38 48.1875C1015.25 48.6875 1014.44 47.5 1014.94 44.625C1015.19 39.625 1015.38 36.5625 1015.5 35.4375C1015.5 34.3125 1015.56 33.25 1015.69 32.25C1013.94 34.5 1011.75 36.75 1009.12 39C1008.75 39.375 1008.5 39.5 1008.38 39.375C1008.12 39.125 1008.12 38.8125 1008.38 38.4375C1011.75 32.4375 1013.81 26.4375 1014.56 20.4375H1012.69C1011.31 20.4375 1010.38 20.5 1009.88 20.625C1009.38 20.75 1009.06 20.625 1008.94 20.25C1008.81 20.25 1008.69 20.125 1008.56 19.875C1008.44 19.625 1008.31 19.3125 1008.19 18.9375C1008.06 18.5625 1008.19 18.4375 1008.56 18.5625C1008.94 18.6875 1009.69 18.8125 1010.81 18.9375C1011.94 18.9375 1012.81 18.9375 1013.44 18.9375H1015.69V14.0625C1015.31 15.0625 1014.69 15.75 1013.81 16.125C1011.69 17 1010.5 16.125 1010.25 13.5C1009.88 11.25 1009.44 9.5625 1008.94 8.4375C1008.69 8.1875 1008.62 7.9375 1008.75 7.6875C1008.88 7.5625 1009.19 7.5 1009.69 7.5C1013.06 8.5 1015 9.75 1015.5 11.25C1015.62 11.5 1015.69 11.625 1015.69 11.625ZM1054.88 18.1875C1055.5 18.6875 1055.81 19 1055.81 19.125C1055.81 19.375 1055.56 19.6875 1055.06 20.0625C1053.44 20.9375 1052.19 22.0625 1051.31 23.4375C1050.81 24.4375 1050.12 24.5 1049.25 23.625C1043.88 18.625 1041.25 11.4375 1041.38 2.0625C1041.38 1.5625 1041.69 1.375 1042.31 1.5C1042.56 1.625 1042.81 1.75 1043.06 1.875C1043.81 2 1044.5 2.1875 1045.12 2.4375C1045.38 2.5625 1045.5 2.75 1045.5 3C1045.5 3.25 1045.38 3.4375 1045.12 3.5625C1044.88 3.6875 1044.69 3.8125 1044.56 3.9375C1044.31 4.1875 1044.12 4.3125 1044 4.3125C1045.25 10.3125 1048.88 14.9375 1054.88 18.1875ZM1022.44 16.3125V18.9375H1022.62C1022.62 18.9375 1022.69 18.75 1022.81 18.375C1024.19 16.25 1025.06 15.1875 1025.44 15.1875C1026.06 15.4375 1027.38 16.4375 1029.38 18.1875C1030.5 15.4375 1031.25 12.5625 1031.62 9.5625C1031.38 9.8125 1031.12 9.875 1030.88 9.75C1030.25 9.875 1029.62 10.1875 1029 10.6875C1026.5 13.3125 1024.31 15.1875 1022.44 16.3125ZM1028.62 20.4375H1022.44V23.0625H1022.62C1024.12 23.4375 1025.44 23.875 1026.56 24.375C1026.81 24 1027.12 23.375 1027.5 22.5C1027.88 21.625 1028.25 20.9375 1028.62 20.4375ZM1101.19 21.5625H1093.31V26.8125H1095.56C1095.56 26.8125 1095.69 26.625 1095.94 26.25C1096.81 25 1097.5 24.375 1098 24.375C1100.75 25.5 1102.69 26.8125 1103.81 28.3125C1103.81 28.8125 1103.56 29.3125 1103.06 29.8125C1102.69 30.0625 1102.5 30.5 1102.5 31.125C1102.25 34.625 1102 38.125 1101.75 41.625C1101.38 44.875 1098.62 46.875 1093.5 47.625C1092.25 47.75 1091.5 47.375 1091.25 46.5C1090.88 44.5 1089.62 43.0625 1087.5 42.1875C1086.75 42.0625 1086.5 41.8125 1086.75 41.4375C1086.62 41.1875 1087.06 41.0625 1088.06 41.0625C1093.19 41.6875 1095.62 41.0625 1095.38 39.1875C1095.5 38.5625 1095.56 37.9375 1095.56 37.3125C1095.19 37.9375 1094.62 38.3125 1093.88 38.4375C1092.25 38.5625 1091.38 37.6875 1091.25 35.8125C1090.88 33.5625 1090.31 31.75 1089.56 30.375C1089.44 29.75 1089.69 29.5 1090.31 29.625C1093.19 30.75 1095.06 32 1095.94 33.375C1095.94 33.625 1095.94 33.6875 1095.94 33.5625C1095.94 32.9375 1095.94 32.25 1095.94 31.5C1096.06 30.75 1096.12 29.6875 1096.12 28.3125H1082.62C1082.62 28.4375 1082.56 28.5625 1082.44 28.6875C1082.31 28.8125 1082.31 28.875 1082.44 28.875C1081.81 29.625 1081.19 29.875 1080.56 29.625C1078.81 29.25 1077.44 28.6875 1076.44 27.9375C1075.56 27.4375 1075.44 26.8125 1076.06 26.0625C1076.69 25.4375 1077 24.3125 1077 22.6875V9.5625C1077 7.9375 1076.94 6.8125 1076.81 6.1875C1076.56 5.4375 1076.5 4.9375 1076.62 4.6875C1076.88 4.4375 1077.38 4.375 1078.12 4.5C1080.62 5 1082.56 5.5625 1083.94 6.1875C1084.31 6.4375 1084.62 6.625 1084.88 6.75H1095.75C1096.75 5 1097.56 4 1098.19 3.75C1099.44 4.25 1100.75 5.25 1102.12 6.75C1102.38 7.125 1102.5 7.5 1102.5 7.875C1102.38 8.125 1102.12 8.25 1101.75 8.25H1093.31V13.5H1095.38C1096.12 11.875 1096.94 10.8125 1097.81 10.3125C1099.06 10.8125 1100.38 11.875 1101.75 13.5C1102.25 14.375 1102.12 14.875 1101.38 15H1093.31V20.0625H1095.38C1096.12 18.6875 1096.88 17.6875 1097.62 17.0625C1098.75 17.4375 1100.06 18.4375 1101.56 20.0625C1101.81 20.4375 1101.94 20.8125 1101.94 21.1875C1101.81 21.4375 1101.56 21.5625 1101.19 21.5625ZM1058.44 23.25V16.125C1058.31 12.875 1058.19 9.8125 1058.06 6.9375C1057.94 6.3125 1057.94 5.9375 1058.06 5.8125C1058.31 5.5625 1058.75 5.5 1059.38 5.625C1061.38 6.25 1063.38 6.9375 1065.38 7.6875C1065.75 7.9375 1066 8.1875 1066.12 8.4375H1066.88C1067.62 6.6875 1068.38 5.6875 1069.12 5.4375C1071 5.9375 1073.12 7.125 1075.5 9C1075.62 9.625 1075.31 10.125 1074.56 10.5C1074.19 10.75 1074 11.1875 1074 11.8125V21.9375C1074 23.0625 1074 24.5625 1074 26.4375C1074.12 28.1875 1074.25 29.375 1074.38 30C1074.5 31 1074.12 31.625 1073.25 31.875C1072 32.5 1070.69 32.8125 1069.31 32.8125C1067.69 33.1875 1067 32.8125 1067.25 31.6875V30.375H1065.19V31.6875C1065.19 33.6875 1064.62 34.75 1063.5 34.875C1063.12 35 1062.75 35.0625 1062.38 35.0625C1061.12 35.4375 1060.25 35.5625 1059.75 35.4375C1058 35.6875 1057.38 34.875 1057.88 33C1058 32.375 1058.12 31.1875 1058.25 29.4375C1058.25 27.4375 1058.31 25.375 1058.44 23.25ZM1072.12 36.75C1073.75 35.25 1074.94 33.3125 1075.69 30.9375C1075.69 30.6875 1075.75 30.5625 1075.88 30.5625C1076.12 30.5625 1076.38 30.6875 1076.62 30.9375C1078.12 33.4375 1078.12 36.3125 1076.62 39.5625C1075.38 41.1875 1073.88 41.5 1072.12 40.5C1070.88 39.375 1070.88 38.125 1072.12 36.75ZM1067.25 9.75H1065.19C1065.19 10.125 1065.19 10.4375 1065.19 10.6875V29.0625H1067.25V9.75ZM1085.25 36.9375C1085.25 34.8125 1084.81 32.75 1083.94 30.75C1083.69 30.5 1083.62 30.3125 1083.75 30.1875C1083.88 30.0625 1084.12 30.0625 1084.5 30.1875C1087.25 31.3125 1089.06 32.875 1089.94 34.875C1090.81 37.75 1090.12 39.3125 1087.88 39.5625C1086.25 39.8125 1085.38 38.9375 1085.25 36.9375ZM1079.06 36.9375C1079.56 35.0625 1079.5 33.125 1078.88 31.125C1078.75 30.875 1078.75 30.75 1078.88 30.75C1079.12 30.625 1079.44 30.625 1079.81 30.75C1082.06 32.25 1083.44 34.0625 1083.94 36.1875C1084.19 39.0625 1083.19 40.4375 1080.94 40.3125C1079.56 40.1875 1078.94 39.0625 1079.06 36.9375ZM1083.38 26.8125H1087.12V21.5625H1083.56V26.625C1083.44 26.875 1083.38 26.9375 1083.38 26.8125ZM1083.56 15V20.0625H1087.12V15H1083.56ZM1083.56 9.75V13.5H1087.12V8.25H1084.12C1083.62 8.5 1083.44 9 1083.56 9.75ZM1117.69 35.0625H1115.25V32.0625C1115.25 30.4375 1115.88 28.6875 1117.12 26.8125C1118.75 24.8125 1119.56 22.75 1119.56 20.625C1119.56 16.125 1118.06 13.8125 1115.06 13.6875C1112.69 13.9375 1111.06 14.8125 1110.19 16.3125C1110.44 16.3125 1110.69 16.3125 1110.94 16.3125C1113.31 16.4375 1114.56 17.5 1114.69 19.5C1114.44 21.5 1113.19 22.625 1110.94 22.875C1108.56 22.75 1107.31 21.4375 1107.19 18.9375C1107.56 14.5625 1110.75 12.125 1116.75 11.625C1123.12 12 1126.56 14.375 1127.06 18.75C1127.06 21.375 1125.44 23.875 1122.19 26.25C1119.19 28.5 1117.69 30.75 1117.69 33V35.0625ZM1112.25 41.0625C1112.5 38.6875 1113.81 37.3125 1116.19 36.9375C1118.69 37.1875 1120.06 38.5625 1120.31 41.0625C1119.94 43.0625 1118.56 44.25 1116.19 44.625C1113.81 44.25 1112.5 43.0625 1112.25 41.0625Z" fill="#10656A"/>
</svg>
