<svg width="984" height="49" viewBox="0 0 984 49" fill="none" xmlns="http://www.w3.org/2000/svg">
<path d="M34.6875 19.625V23.1875C34.6875 22.8125 35.0625 22.8125 35.8125 23.1875C40.6875 25.0625 44.1875 28.0625 46.3125 32.1875C47.0625 35.6875 46.125 38 43.5 39.125C40.875 39.625 39.3125 38.125 38.8125 34.625C38.3125 31.125 37.0625 27.625 35.0625 24.125C34.8125 24 34.6875 23.8125 34.6875 23.5625V25.8125C34.5625 32.6875 34.625 37.625 34.875 40.625C35.125 42.875 34.4375 44.5 32.8125 45.5C30.9375 46.5 29.0625 47.125 27.1875 47.375C25.5625 47.625 24.6875 47.25 24.5625 46.25C24.1875 44.125 23.125 42.8125 21.375 42.3125C20.375 41.9375 19.9375 41.5625 20.0625 41.1875C19.9375 41.0625 20.5625 41 21.9375 41C25.9375 41.625 27.75 40.375 27.375 37.25V24.875C27.375 25.125 27.1875 25.25 26.8125 25.25C26.1875 25.5 25.875 25.875 25.875 26.375C23.875 32.625 20.4375 37.3125 15.5625 40.4375C14.9375 40.8125 14.5625 40.9375 14.4375 40.8125C14.3125 40.6875 14.4375 40.3125 14.8125 39.6875C16.5625 35.6875 17.8125 32.0625 18.5625 28.8125C18.5625 28.6875 18.5625 28.375 18.5625 27.875C18.9375 26.5 19.1875 25 19.3125 23.375C19.4375 22.375 19.9375 21.9375 20.8125 22.0625C22.6875 22.3125 24.6875 22.8125 26.8125 23.5625C27.1875 23.9375 27.375 24.125 27.375 24.125V23.5625C27.25 22.0625 27.1875 20.625 27.1875 19.25C27.0625 17.875 26.9375 16.875 26.8125 16.25C26.4375 14.875 26.9375 14.3125 28.3125 14.5625C30.0625 14.8125 32.3125 15.1875 35.0625 15.6875C36.3125 16.4375 36.5 17.1875 35.625 17.9375C34.875 18.3125 34.5625 18.875 34.6875 19.625ZM13.5 18.125V35.75C13.375 39.25 13.4375 41.75 13.6875 43.25C13.9375 44.875 13.375 45.9375 12 46.4375C10.75 46.8125 9.4375 47.125 8.0625 47.375C5.9375 48 5.1875 46.875 5.8125 44C5.8125 43.375 5.8125 42.4375 5.8125 41.1875C6.1875 35.6875 6.375 31.5625 6.375 28.8125V22.625C4.625 24.75 2.875 26.4375 1.125 27.6875C0.75 28.0625 0.5 28.125 0.375 27.875C0.25 27.625 0.3125 27.25 0.5625 26.75C3.5625 20.75 5.9375 14.5625 7.6875 8.1875C8.3125 6.4375 8.75 4.1875 9 1.4375C8.875 0.6875 9.375 0.3125 10.5 0.3125C12 0.6875 14.5 1.4375 18 2.5625C18.75 3.3125 18.75 4.0625 18 4.8125C17.125 5.1875 16.625 5.5625 16.5 5.9375C14.875 9.1875 13.4375 12 12.1875 14.375C12.3125 14.375 12.5625 14.4375 12.9375 14.5625C13.3125 14.5625 13.5625 14.5625 13.6875 14.5625C14.5625 15.1875 14.6875 15.8125 14.0625 16.4375C13.5625 16.8125 13.375 17.375 13.5 18.125ZM36.9375 17.375L38.25 12.875H25.875C23.125 17.25 19.625 20.8125 15.375 23.5625C15 23.8125 14.75 23.8125 14.625 23.5625C14.5 23.4375 14.5625 23.125 14.8125 22.625C18.0625 17.625 20.375 12.4375 21.75 7.0625C22 6.0625 22.1875 5.125 22.3125 4.25C22.5625 3.25 22.6875 2.3125 22.6875 1.4375C22.6875 0.5625 23.1875 0.25 24.1875 0.5C25.3125 0.625 27.25 1.125 30 2C30.25 2.125 30.5625 2.1875 30.9375 2.1875C31.3125 2.4375 31.5625 2.8125 31.6875 3.3125C31.5625 3.8125 31.3125 4.0625 30.9375 4.0625C30.0625 4.4375 29.5625 4.9375 29.4375 5.5625C28.5625 7.6875 27.6875 9.625 26.8125 11.375H37.3125C38.1875 9.375 39.125 8.1875 40.125 7.8125C42 8.1875 44.1875 9.625 46.6875 12.125C47.3125 12.75 47.5625 13.4375 47.4375 14.1875C47.3125 14.9375 46.6875 15.3125 45.5625 15.3125C42.5625 15.0625 40.0625 16 38.0625 18.125C37.5625 18.5 37.1875 18.625 36.9375 18.5C36.8125 18.375 36.8125 18 36.9375 17.375ZM68.4375 9.125H74.25C74.875 7 75.25 4.4375 75.375 1.4375C75.25 0.6875 75.6875 0.3125 76.6875 0.3125C79.0625 0.5625 81.5 0.875 84 1.25C84.5 1.5 84.75 1.9375 84.75 2.5625C84.625 3.0625 84.3125 3.3125 83.8125 3.3125C82.9375 3.6875 82.375 4.0625 82.125 4.4375C81 6.0625 79.5 7.625 77.625 9.125H84.5625C85.6875 7.5 86.5 6.625 87 6.5C89.875 7.5 92.1875 8.8125 93.9375 10.4375C93.9375 11.0625 93.625 11.5625 93 11.9375C92.75 12.1875 92.625 12.625 92.625 13.25C92.5 18.25 92.5625 21.4375 92.8125 22.8125C92.8125 24.0625 92.4375 24.875 91.6875 25.25C91.5625 25.375 91.4375 25.4375 91.3125 25.4375C90.0625 25.9375 88.8125 26.1875 87.5625 26.1875C85.9375 26.6875 85.1875 26.3125 85.3125 25.0625V24.125H58.875C58.875 25 58.5 25.5 57.75 25.625C56.625 26.125 55.1875 26.4375 53.4375 26.5625C51.8125 26.9375 51.1875 26.25 51.5625 24.5C51.6875 22.5 51.75 20.6875 51.75 19.0625C51.875 17.6875 51.9375 15.75 51.9375 13.25C51.9375 11 51.8125 9.375 51.5625 8.375C51.3125 7.625 51.3125 7.1875 51.5625 7.0625C51.8125 6.8125 52.375 6.75 53.25 6.875C55.5 7.375 57.625 8.125 59.625 9.125H64.3125C63.8125 8.75 63.5 8 63.375 6.875C63.25 5.75 62.5 4 61.125 1.625C60.75 1.375 60.625 1.1875 60.75 1.0625C60.75 0.8125 61 0.6875 61.5 0.6875C65.625 0.8125 68.4375 1.875 69.9375 3.875C71.1875 6.125 70.6875 7.875 68.4375 9.125ZM57.5625 37.4375V33.5C57.4375 30.875 57.3125 28.8125 57.1875 27.3125C57.0625 26.6875 57.0625 26.3125 57.1875 26.1875C57.3125 26.0625 57.8125 26 58.6875 26C60.4375 26.375 62.625 26.875 65.25 27.5C65.375 27.625 65.5 27.6875 65.625 27.6875H78.375C79.375 25.8125 80.1875 24.875 80.8125 24.875C82.4375 25.25 84.875 26.625 88.125 29C88.5 29.75 88.25 30.3125 87.375 30.6875C86.875 31.0625 86.5625 31.375 86.4375 31.625V38.5625C86.3125 38.9375 86.3125 39.75 86.4375 41C86.5625 42.5 86.625 43.4375 86.625 43.8125C86.875 45.4375 86.375 46.375 85.125 46.625C83.375 47 81.9375 47.25 80.8125 47.375C79.4375 47.5 78.875 46.9375 79.125 45.6875V44H64.875V44.5625C64.875 45.8125 64.25 46.625 63 47C61.5 47.125 60.1875 47.25 59.0625 47.375C57.4375 47.5 56.8125 46.8125 57.1875 45.3125C57.3125 44.0625 57.4375 41.4375 57.5625 37.4375ZM58.875 11.75V22.625H68.625V10.625H60.1875C59.1875 10.625 58.75 11 58.875 11.75ZM64.875 36.6875V42.5H79.125V36.6875H64.875ZM79.125 29.1875H65.625C65 29.5625 64.75 30.0625 64.875 30.6875V35.1875H79.125V29.1875ZM60.9375 18.3125C60.9375 16.6875 60.5 14.875 59.625 12.875C59.375 12.625 59.3125 12.375 59.4375 12.125C59.5625 12 59.875 11.9375 60.375 11.9375C64 12.8125 66.4375 14.25 67.6875 16.25C68.4375 19.125 67.5625 21 65.0625 21.875C62.4375 22.5 61.0625 21.3125 60.9375 18.3125ZM85.3125 12.5V10.625H75.5625V22.625H76.6875C76.5625 22.5 76.625 22.1875 76.875 21.6875C77.75 18.6875 78.25 15.5 78.375 12.125C78.25 11.25 78.6875 10.9375 79.6875 11.1875C80.0625 11.3125 80.5 11.4375 81 11.5625C82.875 11.9375 84.3125 12.25 85.3125 12.5ZM78.1875 22.625H85.3125V15.3125C84.9375 15.5625 84.6875 15.8125 84.5625 16.0625C82.8125 18.4375 80.75 20.5625 78.375 22.4375C78.25 22.5625 78.1875 22.625 78.1875 22.625ZM109.875 29.5625C109.875 29.4375 109.812 29.25 109.688 29C109.562 28.75 109.562 28.5 109.688 28.25C105.562 30.375 103.125 31.875 102.375 32.75C101.75 33.5 101.25 33.875 100.875 33.875C100.5 33.875 100.188 33.5 99.9375 32.75C98.9375 31.5 98.1875 30.0625 97.6875 28.4375C97.4375 28.0625 97.4375 27.6875 97.6875 27.3125C97.8125 27.0625 98.125 26.8125 98.625 26.5625C100 26.0625 101.188 25.1875 102.188 23.9375C103.062 22.5625 103.938 21 104.812 19.25C102.688 20.25 101.562 20.875 101.438 21.125C100.312 22.375 99.5 22.3125 99 20.9375C98 19.5625 97.3125 18.25 96.9375 17C96.6875 16.5 96.6875 16.125 96.9375 15.875C96.8125 15.75 97.0625 15.5 97.6875 15.125C99.1875 14.375 100.188 13.1875 100.688 11.5625C101.812 8.1875 102.5 5.125 102.75 2.375C102.75 1.125 103.438 0.6875 104.812 1.0625C106.438 1.6875 108.438 2.5 110.812 3.5C111.312 3.875 111.562 4.3125 111.562 4.8125C111.562 5.3125 111.25 5.625 110.625 5.75C109.625 6 108.938 6.5625 108.562 7.4375C105.688 11.1875 103.5 13.75 102 15.125C103.375 15.125 105 15.125 106.875 15.125C107 14.625 107.188 13.9375 107.438 13.0625C107.688 12.4375 107.875 11.875 108 11.375C108.125 10 108.812 9.5 110.062 9.875C110.438 10.125 111.188 10.5625 112.312 11.1875C113.688 11.8125 114.688 12.25 115.312 12.5C116.438 13.625 116.375 14.4375 115.125 14.9375C114.375 14.9375 113.688 15.375 113.062 16.25C111.438 18.375 109.875 20.3125 108.375 22.0625C108.375 22.0625 108.5 22.0625 108.75 22.0625C111.75 22.9375 113.875 24.6875 115.125 27.3125C115.5 29.3125 114.875 30.75 113.25 31.625C111.25 32.125 110.125 31.4375 109.875 29.5625ZM140.438 29.1875H131.625C130.875 29.6875 130.562 30.3125 130.688 31.0625V42.3125H133.688C135.312 40.0625 136.562 38.8125 137.438 38.5625C138.188 38.8125 139.938 40.125 142.688 42.5C142.938 42.75 143 43 142.875 43.25C142.875 43.375 142.688 43.5 142.312 43.625H117.375C116.375 43.625 115.438 43.75 114.562 44C114.062 44 113.75 43.9375 113.625 43.8125C113.375 43.4375 113.125 42.9375 112.875 42.3125C112.625 41.8125 112.75 41.6875 113.25 41.9375C115 42.0625 116.688 42.1875 118.312 42.3125H123.375V29.1875H120.188C119.188 29.3125 118.25 29.4375 117.375 29.5625C116.875 29.6875 116.562 29.625 116.438 29.375C116.312 29.25 116.125 29 115.875 28.625C115.75 28.375 115.688 28.125 115.688 27.875C115.438 27.5 115.562 27.375 116.062 27.5C117.688 27.75 119.312 27.875 120.938 27.875H132.375C132.375 27.75 132.5 27.5625 132.75 27.3125C133.5 26.4375 134.188 25.75 134.812 25.25C134.688 25.125 134.562 24.9375 134.438 24.6875C134.188 24.3125 134.125 24 134.25 23.75C133.75 21.75 132.562 19.8125 130.688 17.9375C130.312 17.6875 130.25 17.4375 130.5 17.1875C130.375 17.0625 130.438 16.875 130.688 16.625C132.062 15.125 133.25 12.8125 134.25 9.6875C134.25 8.9375 134.812 8.75 135.938 9.125C137.438 9.875 138.938 10.6875 140.438 11.5625C140.812 11.9375 140.938 12.3125 140.812 12.6875C140.562 12.9375 140.25 13 139.875 12.875C139.25 12.875 138.688 13.125 138.188 13.625C136.312 14.875 134.438 16.125 132.562 17.375C136.188 18.375 138.438 19.6875 139.312 21.3125C139.938 23.1875 139.562 24.625 138.188 25.625C138.938 26.25 139.875 27.0625 141 28.0625C141.25 28.4375 141.312 28.75 141.188 29C141.062 29.125 140.812 29.1875 140.438 29.1875ZM122.25 17.9375V17.75C122.25 17.875 122.25 17.8125 122.25 17.5625C122.25 17.5625 122.312 17.5 122.438 17.375C123.938 14.875 125.125 12.1875 126 9.3125C126 8.3125 126.5 8 127.5 8.375C129.125 8.875 130.875 9.5 132.75 10.25C133.25 11.125 133.062 11.625 132.188 11.75C131.438 11.875 130.812 12.1875 130.312 12.6875C128.312 14.6875 126.312 16.3125 124.312 17.5625C127.562 18.5625 129.75 19.875 130.875 21.5C131.75 23.5 131.312 25 129.562 26C127.562 26.75 126.375 26.125 126 24.125C125.625 22.25 124.5 20.3125 122.625 18.3125C122.25 18.3125 122.125 18.1875 122.25 17.9375ZM117.75 24.3125C117.75 22.4375 116.938 20.5 115.312 18.5C115.062 18.375 115.062 18.1875 115.312 17.9375C115.312 17.8125 115.312 17.625 115.312 17.375C116.188 15.5 116.875 12.75 117.375 9.125C117.25 8.25 117.75 7.875 118.875 8C119.375 8.25 120.5 8.5625 122.25 8.9375C123.375 9.1875 124.062 9.3125 124.312 9.3125C124.562 9.4375 124.688 9.75 124.688 10.25C124.562 10.625 124.312 10.8125 123.938 10.8125C123.188 11.0625 122.562 11.5 122.062 12.125C120.312 14.625 118.5 16.625 116.625 18.125C120.25 19.5 122.375 21.0625 123 22.8125C123.25 25.1875 122.562 26.5625 120.938 26.9375C118.812 27.3125 117.75 26.4375 117.75 24.3125ZM140.25 6.5H117.75C116.625 6.625 115.75 6.75 115.125 6.875C114.5 7 114.188 6.9375 114.188 6.6875C113.812 6.4375 113.562 5.9375 113.438 5.1875C113.188 4.8125 113.25 4.6875 113.625 4.8125C115.5 5.0625 117.188 5.1875 118.688 5.1875H131.625C133.25 2.6875 134.5 1.3125 135.375 1.0625C136.25 1.3125 138 2.75 140.625 5.375C140.875 5.75 140.938 6.0625 140.812 6.3125C140.812 6.4375 140.625 6.5 140.25 6.5ZM97.3125 40.4375C99.0625 38.9375 100.25 37 100.875 34.625C100.875 34.375 101 34.25 101.25 34.25C101.625 34.25 101.875 34.375 102 34.625C103.375 37.625 103.562 40.4375 102.562 43.0625C101.062 44.9375 99.375 45.25 97.5 44C96.375 42.625 96.3125 41.4375 97.3125 40.4375ZM111.375 38.375C111.125 36 110.25 34.125 108.75 32.75C108.375 32.5 108.25 32.3125 108.375 32.1875C108.5 32.0625 108.812 31.9375 109.312 31.8125C112.188 32.0625 114.438 33 116.062 34.625C117.562 37.25 117.188 39.1875 114.938 40.4375C113.188 40.8125 112 40.125 111.375 38.375ZM104.812 40.4375C105.188 38.0625 105.125 35.9375 104.625 34.0625C104.5 33.8125 104.5 33.6875 104.625 33.6875C104.75 33.5625 105 33.5625 105.375 33.6875C108 35.4375 109.625 37.3125 110.25 39.3125C110.5 41.8125 109.438 43.1875 107.062 43.4375C105.188 43.0625 104.438 42.0625 104.812 40.4375ZM103.5 26.75C103.625 26.75 103.75 26.75 103.875 26.75C106 26.375 107.812 26.125 109.312 26C108.812 24.875 108.312 23.875 107.812 23C107.812 23 107.75 22.9375 107.625 22.8125C107.5 22.8125 107.5 22.75 107.625 22.625C106.25 24.25 104.875 25.625 103.5 26.75ZM182.25 40.625C181.625 36.875 180.688 34.0625 179.438 32.1875C175.812 38.1875 168.062 42.5625 156.188 45.3125C155.438 45.3125 154.938 45.1875 154.688 44.9375C154.562 44.6875 154.812 44.4375 155.438 44.1875C170.312 37.8125 177.375 26.125 176.625 9.125C176.5 7.25 176.375 5.625 176.25 4.25C175.75 2.75 176.062 2.0625 177.188 2.1875C179.812 2.4375 182.5 2.875 185.25 3.5C186.5 4.25 186.562 5.125 185.438 6.125C184.688 6.625 184.312 7.5625 184.312 8.9375C184.312 18.5625 183 25.875 180.375 30.875C185.25 32.25 188.375 34.5625 189.75 37.8125C190.625 40.8125 189.75 42.9375 187.125 44.1875C184.125 45.0625 182.5 43.875 182.25 40.625ZM156.562 9.3125V30.5C160.938 27.875 164.875 25.3125 168.375 22.8125C168.75 22.5625 169.062 22.5625 169.312 22.8125C169.562 23.0625 169.562 23.375 169.312 23.75C161.062 33 155.812 39.375 153.562 42.875C152.812 43.625 152.125 43.6875 151.5 43.0625C149.125 40.8125 147.562 38.8125 146.812 37.0625C146.312 36.3125 146.5 35.5625 147.375 34.8125C148.5 34.4375 149.062 33.375 149.062 31.625V14C148.938 10.5 148.812 7.9375 148.688 6.3125C148.312 5.0625 148.75 4.5 150 4.625C150.75 4.75 151.688 4.875 152.812 5C154.062 5.125 155.5 5.3125 157.125 5.5625C158.25 6.0625 158.375 6.8125 157.5 7.8125C156.75 8.1875 156.438 8.6875 156.562 9.3125ZM163.125 13.625C162.5 10.625 161.562 8.3125 160.312 6.6875C159.938 6.3125 159.875 6.0625 160.125 5.9375C160.25 5.6875 160.625 5.5625 161.25 5.5625C166 6.1875 169 7.875 170.25 10.625C171.375 13.75 170.625 15.8125 168 16.8125C165.25 17.8125 163.625 16.75 163.125 13.625ZM206.812 27.875V20C206.812 17.375 206.75 15.5 206.625 14.375C206.375 13.25 206.875 12.875 208.125 13.25C208.5 13.5 209.625 14 211.5 14.75V10.25H207.375C207.375 10.5 207.125 10.8125 206.625 11.1875C206.5 11.1875 206.438 11.1875 206.438 11.1875C205.938 11.4375 205.688 12 205.688 12.875V30.3125C205.688 31.6875 205.312 32.4375 204.562 32.5625C204.188 32.6875 203.75 32.8125 203.25 32.9375C202.5 33.1875 201.875 33.25 201.375 33.125C200.375 33.5 199.938 33.0625 200.062 31.8125V30.3125H198.75V32.375C198.75 33.875 198.375 34.625 197.625 34.625C197.125 34.875 196.25 35.125 195 35.375C194.875 35.375 194.812 35.375 194.812 35.375C193.188 35.75 192.5 35.125 192.75 33.5C192.875 31.5 193 29.625 193.125 27.875V13.625C193 11.625 192.875 9.625 192.75 7.625C192.5 6.375 193 5.875 194.25 6.125C194.625 6.375 195.188 6.6875 195.938 7.0625C197.438 7.8125 198.438 8.25 198.938 8.375C198.938 8.5 199 8.5625 199.125 8.5625C199.25 8.6875 199.375 8.75 199.5 8.75H199.688C199.688 8.625 199.812 8.375 200.062 8C200.812 6.75 201.375 6.125 201.75 6.125C203 6.5 204.688 7.4375 206.812 8.9375H211.5V7.25C211.375 6.375 211.25 4.9375 211.125 2.9375C210.625 1.6875 211 1.125 212.25 1.25C214.5 1.75 216.375 2.1875 217.875 2.5625C218.375 2.8125 218.688 3.125 218.812 3.5C218.812 3.75 218.625 4.0625 218.25 4.4375C217.625 4.8125 217.375 5.4375 217.5 6.3125V8.9375C217.5 8.9375 217.562 8.8125 217.688 8.5625C218.938 6.6875 219.75 5.75 220.125 5.75C221 6 222.125 6.625 223.5 7.625C223.375 7.25 223.312 6.9375 223.312 6.6875C223.188 6.1875 223.125 5.8125 223.125 5.5625C222.875 4.0625 223.375 3.5 224.625 3.875C226.25 4.25 227.938 4.8125 229.688 5.5625C229.688 5.6875 229.875 5.8125 230.25 5.9375H231.188C232.188 4.3125 232.938 3.5 233.438 3.5C236.188 4.625 238.25 6.125 239.625 8C239.75 8.75 239.5 9.25 238.875 9.5C238.25 9.75 237.938 10.3125 237.938 11.1875V24.3125C237.938 25.0625 237.938 27.0625 237.938 30.3125C238.062 35.1875 238.125 38.375 238.125 39.875C238.25 42.5 237.75 44.1875 236.625 44.9375C235.125 45.9375 233.188 46.6875 230.812 47.1875C229.688 47.4375 229.062 47 228.938 45.875C228.438 43.875 227.625 42.625 226.5 42.125C226.25 42 226.062 41.875 225.938 41.75C225.312 41.5 225.062 41.25 225.188 41C224.938 40.875 225.5 40.8125 226.875 40.8125C230.5 41.3125 232.125 40.3125 231.75 37.8125V27.5H229.5C229.375 36.5 225.438 42.5625 217.688 45.6875C216.812 46.0625 216.312 46.1875 216.188 46.0625C216.062 45.8125 216.375 45.375 217.125 44.75C220.625 41.375 222.625 37.9375 223.125 34.4375H217.5V35.9375C217.375 38.0625 217.438 39.9375 217.688 41.5625C217.812 43.3125 217.188 44.375 215.812 44.75C215.438 44.75 214.812 44.8125 213.938 44.9375C213.312 45.0625 212.875 45.1875 212.625 45.3125C211.375 45.5625 210.875 45 211.125 43.625C211.25 40.5 211.375 37.75 211.5 35.375V34.4375H208.688C207.812 34.5625 206.812 34.6875 205.688 34.8125C205.312 35.0625 205.062 34.9375 204.938 34.4375C204.688 34.3125 204.5 34.125 204.375 33.875C204.25 33.75 204.125 33.5625 204 33.3125C203.875 33.1875 203.812 33.0625 203.812 32.9375C203.812 32.8125 204 32.75 204.375 32.75C205.5 33.125 207.188 33.3125 209.438 33.3125H211.5V31.0625C211.5 30.1875 211.438 29.4375 211.312 28.8125C211.188 29.0625 211.062 29.125 210.938 29C209.812 29.375 209 29.5625 208.5 29.5625C207.125 29.8125 206.562 29.25 206.812 27.875ZM223.688 26.375V17.75C223.562 18 223.438 18.1875 223.312 18.3125C222.688 18.6875 222.438 19.0625 222.562 19.4375V25.8125C222.562 27.0625 222.125 27.75 221.25 27.875C221 28 220.562 28.125 219.938 28.25C219.312 28.375 218.938 28.4375 218.812 28.4375C218.688 28.4375 218.562 28.4375 218.438 28.4375C218.688 28.9375 218.562 29.375 218.062 29.75C217.688 30 217.5 30.375 217.5 30.875V33.3125C218.75 31.4375 219.75 30.3125 220.5 29.9375C221.375 30.1875 222.375 30.8125 223.5 31.8125C223.5 31.1875 223.5 30.5 223.5 29.75C223.625 29 223.688 27.875 223.688 26.375ZM223.688 16.4375V15.5C223.688 14 223.688 12.25 223.688 10.25H217.5V14.5625C218 13.6875 218.5 13.1875 219 13.0625C220.625 13.5625 222.188 14.6875 223.688 16.4375ZM200.062 9.875H199.5C199 10.125 198.75 10.6875 198.75 11.5625V29.1875H200.062V9.875ZM212.438 21.6875V26H216.75V21.6875H212.438ZM231.75 7.25H229.875C229.625 7.5 229.562 7.875 229.688 8.375V16.4375H231.75V7.25ZM216.75 16.625H212.812C212.438 16.625 212.312 17.1875 212.438 18.3125V20.5625H216.75V16.625ZM229.688 26.1875H231.75V17.5625H229.688V21.5C229.688 23.25 229.688 24.8125 229.688 26.1875ZM216.75 27.3125H212.438C212.312 27.4375 212.25 27.5625 212.25 27.6875C213.375 27.8125 214.938 27.9375 216.938 28.0625C216.688 27.9375 216.625 27.6875 216.75 27.3125ZM273.562 8.375H278.625C280 6 281.062 4.75 281.812 4.625C283.562 5.375 285.188 6.75 286.688 8.75C286.812 9.25 286.875 9.625 286.875 9.875C286.75 10 286.5 10.0625 286.125 10.0625C284.375 9.9375 281.938 9.875 278.812 9.875H273C276.375 11 278.438 12.75 279.188 15.125C279.562 16.375 279.375 17.375 278.625 18.125C278.875 18.5 279.25 18.9375 279.75 19.4375C280.125 20.0625 280.5 20.5 280.875 20.75C281.25 22 280.875 22.5 279.75 22.25C279.125 22 278.5 21.9375 277.875 22.0625C276.25 22.3125 273.625 22.5 270 22.625C270 23.125 269.75 23.4375 269.25 23.5625C268.75 23.8125 268.438 24.375 268.312 25.25C268.188 26.375 268.062 27.375 267.938 28.25H278.062C280.062 25.625 281.375 24.25 282 24.125C283.25 24.5 284.938 25.875 287.062 28.25C287.312 28.75 287.438 29.125 287.438 29.375C287.312 29.75 287.062 29.875 286.688 29.75C284.812 29.75 282.562 29.75 279.938 29.75C278.938 29.75 278 29.75 277.125 29.75H268.688C271.938 35.25 277.812 38.75 286.312 40.25C287.188 40.5 287.688 40.75 287.812 41C287.812 41.25 287.312 41.5625 286.312 41.9375C285.188 42.3125 283.688 43.75 281.812 46.25C281.312 47.375 280.5 47.625 279.375 47C273.125 44.5 269.188 39 267.562 30.5C266.312 40.75 258.438 46.375 243.938 47.375C243.312 47.375 243 47.25 243 47C243 46.75 243.25 46.5625 243.75 46.4375C254 42.4375 259.375 36.875 259.875 29.75H249.188C247.562 29.875 245.75 30 243.75 30.125C243.375 30.375 243.062 30.25 242.812 29.75C242.688 29.625 242.5 29.4375 242.25 29.1875C242 28.9375 241.875 28.6875 241.875 28.4375C241.625 28.0625 241.75 27.875 242.25 27.875C243.375 28.25 245.812 28.375 249.562 28.25H260.25C260.25 27.875 260.25 27.125 260.25 26C260.25 24.75 260.312 23.75 260.438 23C258.312 23.125 256.125 23.1875 253.875 23.1875C251.5 23.1875 249 23.0625 246.375 22.8125C245.75 22.8125 245.375 22.6875 245.25 22.4375C245.25 22.1875 245.562 22 246.188 21.875C251.188 21.25 256.25 20.375 261.375 19.25C261.25 19.125 261.375 18.8125 261.75 18.3125C263.25 16.3125 264.75 13.5 266.25 9.875C265.5 9.875 264.375 9.875 262.875 9.875C261.375 9.75 260.375 9.6875 259.875 9.6875H256.312C259.188 10.6875 261 12.25 261.75 14.375C262 16.5 261.312 17.9375 259.688 18.6875C257.062 19.5625 255.562 18.875 255.188 16.625C255.062 13.5 254.562 11.5 253.688 10.625C251.062 14.75 247.562 18.0625 243.188 20.5625C242.688 20.9375 242.312 21.0625 242.062 20.9375C241.812 20.8125 241.875 20.5 242.25 20C246.125 14.125 248.688 7.9375 249.938 1.4375C250.062 0.8125 250.5 0.5 251.25 0.5C253.625 0.75 256 1.25 258.375 2C258.875 2.125 259.125 2.4375 259.125 2.9375C259.125 3.4375 258.875 3.75 258.375 3.875C257.5 4.125 257.062 4.375 257.062 4.625C256.938 5 256.375 6 255.375 7.625C255.125 8 255 8.25 255 8.375H259.875C261.125 6.125 262.125 4.875 262.875 4.625C263.5 4.875 264.875 5.9375 267 7.8125C267.75 5.5625 268.375 3.3125 268.875 1.0625C268.75 0.4375 269.188 0.1875 270.188 0.3125C273.062 1.1875 275.5 1.875 277.5 2.375C278 2.625 278.25 3 278.25 3.5C278.25 4 278 4.25 277.5 4.25C276.625 4.5 276.062 4.8125 275.812 5.1875C274.438 6.9375 273.688 8 273.562 8.375ZM271.688 10.8125C271.562 10.9375 271.375 11.1875 271.125 11.5625C267.75 15.3125 265 17.75 262.875 18.875C266.875 18.125 270.125 17.25 272.625 16.25C272.5 14.375 272.188 12.5625 271.688 10.8125ZM290.625 31.8125V20.375C290.625 18.125 290.562 16.4375 290.438 15.3125C290.438 13.9375 290.375 12.625 290.25 11.375C290.125 10 290.562 9.5 291.562 9.875C293.438 10.5 295.438 11.3125 297.562 12.3125H297.938C297.938 10.4375 297.938 8.625 297.938 6.875C297.938 5.125 297.938 3.5 297.938 2C297.688 1.25 298.062 0.9375 299.062 1.0625C301.062 1.1875 303.125 1.5 305.25 2C306 2.125 306.375 2.4375 306.375 2.9375C306.5 3.3125 306.25 3.625 305.625 3.875C305 4.375 304.562 4.9375 304.312 5.5625C303.188 8.0625 301.938 10.3125 300.562 12.3125H304.5C305.625 10.6875 306.5 9.8125 307.125 9.6875C309.625 10.5625 311.688 11.9375 313.312 13.8125C313.312 14.4375 313 14.875 312.375 15.125C311.75 15.5 311.5 15.9375 311.625 16.4375V21.875C314 14.5 315.375 7.8125 315.75 1.8125C315.625 1.1875 315.938 0.875 316.688 0.875C319.438 1.375 322.125 2.0625 324.75 2.9375C325.25 3.3125 325.5 3.6875 325.5 4.0625C325.375 4.4375 325.062 4.75 324.562 5C323.562 5.5 323 6.125 322.875 6.875C322.25 8.875 321.562 10.6875 320.812 12.3125H325.5C327 10.3125 328.062 9.25 328.688 9.125C332.062 10.625 334.375 12.125 335.625 13.625C335.625 14.25 335.25 14.75 334.5 15.125C333.75 15.5 333.438 15.9375 333.562 16.4375C333.438 29.4375 333.188 37.625 332.812 41C332.312 44.5 329.5 46.625 324.375 47.375C322.875 47.625 322 47.3125 321.75 46.4375C321 43.5625 319.312 41.75 316.688 41C315.438 41 315 40.6875 315.375 40.0625C315.25 39.5625 315.75 39.4375 316.875 39.6875C320 40.1875 322.062 40.375 323.062 40.25C324.062 40.125 324.688 39.5 324.938 38.375C325.688 31.375 326.125 23.1875 326.25 13.8125H320.062C318.812 16.3125 317.438 18.625 315.938 20.75C320.562 22.125 323.125 24.625 323.625 28.25C323.625 31.375 322.25 33 319.5 33.125C317.25 33.375 316 32.3125 315.75 29.9375C315.875 27.4375 315.438 24.9375 314.438 22.4375C314.188 22.6875 313.938 22.9375 313.688 23.1875C312.812 24.0625 312.125 24.6875 311.625 25.0625V27.6875C311.625 30.9375 311.812 35.375 312.188 41C312.188 41.875 311.75 42.5 310.875 42.875C309.25 43.25 307.875 43.5 306.75 43.625C305.125 43.875 304.438 43.5 304.688 42.5V39.875H297.375V42.125C297.375 43.625 296.75 44.5 295.5 44.75C294.375 45 293.25 45.1875 292.125 45.3125C290.375 45.5625 289.75 44.8125 290.25 43.0625C290.375 39.8125 290.5 36.0625 290.625 31.8125ZM304.688 13.8125H298.125C297.5 14.1875 297.25 14.75 297.375 15.5V25.625H304.688V13.8125ZM297.375 27.125V38.375H304.688V27.125H297.375ZM360 37.625H363C365.5 38.375 367.438 35.1875 368.812 28.0625C368.938 27.0625 369.312 26.5625 369.938 26.5625C370.312 26.5625 370.5 27.125 370.5 28.25C370.375 33.25 371.125 36.125 372.75 36.875C374.625 38.125 375.25 39.3125 374.625 40.4375C373.5 42.9375 370.25 44.1875 364.875 44.1875H356.438C351.312 44.1875 348.812 42.0625 348.938 37.8125V23C348.812 21.375 348.75 19.75 348.75 18.125C348.625 16.625 348.5 15.5625 348.375 14.9375C347.875 13.6875 348.375 13.125 349.875 13.25C351.75 13.375 354.188 13.8125 357.188 14.5625C358.438 15.3125 358.562 16.0625 357.562 16.8125C356.812 17.4375 356.5 18 356.625 18.5V33.6875C356.5 36.4375 357.625 37.75 360 37.625ZM373.688 29.1875C373.562 24.8125 372.75 21 371.25 17.75C370.875 17.125 370.812 16.75 371.062 16.625C371.188 16.375 371.562 16.3125 372.188 16.4375C377.688 19.0625 381 22.125 382.125 25.625C382.75 29.125 381.812 31.4375 379.312 32.5625C375.938 33.6875 374.062 32.5625 373.688 29.1875ZM337.875 27.6875C340.5 24.9375 342.188 21.6875 342.938 17.9375C342.938 17.5625 343.062 17.3125 343.312 17.1875C343.562 17.1875 343.875 17.375 344.25 17.75C347 22.625 347.75 26.9375 346.5 30.6875C344.375 33.4375 342 34.5 339.375 33.875C337.125 32.25 336.625 30.1875 337.875 27.6875ZM358.875 14.9375C358.375 11.3125 357.25 8.0625 355.5 5.1875C355.25 4.8125 355.188 4.5625 355.312 4.4375C355.312 4.3125 355.625 4.25 356.25 4.25C361.875 5.625 365.375 7.6875 366.75 10.4375C367.625 13.5625 367 15.875 364.875 17.375C361.75 18.875 359.75 18.0625 358.875 14.9375ZM420.188 43.25H403.5C400.75 43.125 399.188 43.1875 398.812 43.4375C398.438 43.4375 398.188 43.3125 398.062 43.0625C397.562 42.5625 397.25 42.125 397.125 41.75C396.875 41.375 397 41.1875 397.5 41.1875C400 41.4375 402.25 41.625 404.25 41.75H411.562V33.5H406.312C404.938 33.5 404 33.5625 403.5 33.6875C403.125 33.9375 402.812 33.875 402.562 33.5L402 32.9375C398.25 35.4375 394.375 37.8125 390.375 40.0625C389.875 40.3125 389.375 40.625 388.875 41C388.125 41.75 387.438 41.75 386.812 41C386.188 40.125 385.375 38.3125 384.375 35.5625C384.125 34.6875 384.5 34.0625 385.5 33.6875C385.5 33.6875 385.625 33.6875 385.875 33.6875C386.875 33.5625 388.188 33.3125 389.812 32.9375V20.375H389.25C389 20.375 388.562 20.4375 387.938 20.5625C387.188 20.5625 386.688 20.5625 386.438 20.5625C385.938 20.8125 385.625 20.75 385.5 20.375C385.125 20.125 384.875 19.6875 384.75 19.0625C384.5 18.8125 384.625 18.6875 385.125 18.6875C386.125 18.9375 387.688 19 389.812 18.875V7.4375H389.062C388.188 7.5625 387.25 7.6875 386.25 7.8125C385.75 8.0625 385.375 7.9375 385.125 7.4375C384.875 7.1875 384.625 6.8125 384.375 6.3125C384.125 5.9375 384.25 5.75 384.75 5.75C386.375 6 388.062 6.125 389.812 6.125H395.812C397.062 3.75 398 2.4375 398.625 2.1875C399.125 2.3125 400.188 2.875 401.812 3.875C401.562 3.875 401.5 3.75 401.625 3.5C401.375 2.25 401.938 1.75 403.312 2C405.312 2.625 407.438 3.4375 409.688 4.4375H420.562C421.812 2.5625 422.688 1.625 423.188 1.625C424.812 1.875 426.688 2.8125 428.812 4.4375C429.688 5.3125 429.75 6.0625 429 6.6875C428.5 6.9375 428.312 7.375 428.438 8V12.875C428.438 15.25 428.562 18.875 428.812 23.75C428.812 25.125 428.188 26 426.938 26.375C426.188 26.625 425.125 26.875 423.75 27.125C423.5 27.125 423.375 27.125 423.375 27.125C421.875 27.625 421.25 27.25 421.5 26V24.6875H418.5V32H421.125C422.375 29.625 423.438 28.3125 424.312 28.0625C425.562 28.4375 427.438 29.8125 429.938 32.1875C430.188 33.0625 429.938 33.5 429.188 33.5C426.312 33.5 423.062 33.5 419.438 33.5H418.5V41.75H421.688C423.688 39.25 425 38 425.625 38C427.125 38.5 429 39.75 431.25 41.75C431.75 42.625 431.625 43.125 430.875 43.25C427.5 43.25 423.938 43.25 420.188 43.25ZM408.75 24.6875V25.4375C408.75 26.4375 408.188 27.0625 407.062 27.3125C406.312 27.5625 405.188 27.75 403.688 27.875C402.438 28.25 401.938 27.5625 402.188 25.8125V20.375H396.562V31.625C396.812 31.625 397.25 31.5625 397.875 31.4375C399.25 31.0625 401.188 30.5 403.688 29.75C404.312 29.625 404.75 29.75 405 30.125C405.125 30.5 404.938 30.875 404.438 31.25L403.5 31.8125C404.375 32.0625 405.625 32.125 407.25 32H411.562V24.6875H408.75ZM396.562 9.875V18.3125C397.188 16.9375 397.875 16.0625 398.625 15.6875C399.5 15.9375 400.688 16.625 402.188 17.75V8.5625C402.188 8.4375 402.125 8.0625 402 7.4375H397.688C397.562 7.9375 397.438 8.25 397.312 8.375C396.688 8.875 396.438 9.375 396.562 9.875ZM418.5 23.1875H421.5V15.125H418.5V23.1875ZM421.5 5.9375H418.5V13.625H421.5V5.9375ZM408.75 15.125V23.1875H411.562V15.125H408.75ZM408.75 6.6875V13.625H411.562V5.9375H409.875C409.75 5.9375 409.625 5.9375 409.5 5.9375C408.875 5.9375 408.625 6.1875 408.75 6.6875ZM445.5 20.375V43.625C445.5 45.125 445 46.125 444 46.625C442.75 46.875 441.562 47.125 440.438 47.375C439.312 47.5 438.625 47.4375 438.375 47.1875C438.125 46.8125 438.062 46.0625 438.188 44.9375C438.312 42.9375 438.375 40.75 438.375 38.375C438.5 36.25 438.562 32.875 438.562 28.25C436.938 30.5 435.125 32.4375 433.125 34.0625C432.75 34.4375 432.5 34.5 432.375 34.25C432.125 34 432.125 33.6875 432.375 33.3125C435.625 26.5625 437.625 19.875 438.375 13.25H436.875C435.875 13.375 434.875 13.5 433.875 13.625C433.5 13.875 433.188 13.75 432.938 13.25C432.812 13.125 432.688 12.9375 432.562 12.6875C432.312 12.4375 432.188 12.1875 432.188 11.9375C432.062 11.8125 432 11.6875 432 11.5625C432.125 11.4375 432.312 11.375 432.562 11.375C435.062 11.875 436.75 12.0625 437.625 11.9375H438.562V10.25C438.438 8.75 438.375 7.25 438.375 5.75C438.25 4.25 438.125 3 438 2C437.75 0.75 438.25 0.25 439.5 0.5C441.375 0.75 443.5 1.1875 445.875 1.8125C447.25 2.4375 447.438 3.25 446.438 4.25C445.688 4.625 445.375 5.1875 445.5 5.9375V11.1875C446.375 9.8125 447.062 9 447.562 8.75C448.688 9 450.188 10.0625 452.062 11.9375C452.312 12.4375 452.375 12.8125 452.25 13.0625C452.375 13.0625 452.562 13.125 452.812 13.25C454.812 13.625 456.5 14.0625 457.875 14.5625C458 14.6875 458.125 14.8125 458.25 14.9375H467.812C467.938 14.6875 468.188 14.3125 468.562 13.8125C468.812 13.5625 469 13.3125 469.125 13.0625C468.625 13.3125 468 13.5 467.25 13.625C466.875 13.625 466.625 13.625 466.5 13.625C465.375 13.875 464.875 13.25 465 11.75V8.75H461.625V11C461.625 12.25 461.062 13.0625 459.938 13.4375C459.562 13.5625 459.125 13.6875 458.625 13.8125C458.125 13.9375 457.75 14 457.5 14C456.125 14.375 455.5 13.875 455.625 12.5V8.75H452.625C451.875 8.875 450.938 9 449.812 9.125C449.438 9.375 449.188 9.25 449.062 8.75C448.562 8.375 448.25 7.9375 448.125 7.4375C447.875 7.0625 448 6.9375 448.5 7.0625C449 7.1875 449.75 7.3125 450.75 7.4375C451.875 7.4375 452.812 7.4375 453.562 7.4375H455.625V5.5625C455.625 5.1875 455.562 4.4375 455.438 3.3125C455.438 2.5625 455.438 2.0625 455.438 1.8125C455.062 0.6875 455.562 0.1875 456.938 0.3125C457.438 0.4375 457.938 0.5 458.438 0.5C459.938 0.625 461.062 0.75 461.812 0.875C462.938 1.375 463.125 2 462.375 2.75C461.75 3.125 461.5 3.625 461.625 4.25V7.4375H465V5.75C465 3.75 464.938 2.4375 464.812 1.8125C464.438 0.6875 464.75 0.1875 465.75 0.3125C465.75 0.4375 465.812 0.5 465.938 0.5C467.438 0.5 469.25 0.75 471.375 1.25C471.75 1.375 472 1.625 472.125 2C472.25 2.375 472.125 2.625 471.75 2.75C471.125 3.125 470.875 3.5625 471 4.0625V7.4375H471.375C472.375 5.1875 473.25 3.9375 474 3.6875C475 3.9375 476.812 5.125 479.438 7.25C479.688 8.125 479.5 8.625 478.875 8.75H471V10.625C471 11.375 470.875 11.9375 470.625 12.3125C472 12.6875 473.625 13.4375 475.5 14.5625C476.375 15.4375 476.438 16.3125 475.688 17.1875C475.188 17.4375 475 18 475.125 18.875V20.9375C475 23.8125 475.062 25.8125 475.312 26.9375C475.188 27.8125 474.875 28.3125 474.375 28.4375C475.875 29.3125 477.438 30.5 479.062 32C479.312 32.5 479.438 32.9375 479.438 33.3125C479.312 33.5625 479.062 33.6875 478.688 33.6875H466.125C468.875 37.5625 473.062 39.9375 478.688 40.8125C478.812 40.9375 478.875 41 478.875 41C479.5 41 479.812 41.0625 479.812 41.1875C479.812 41.3125 479.5 41.625 478.875 42.125C477.375 42.75 476.188 44.125 475.312 46.25C474.812 47 474.25 47.1875 473.625 46.8125C468.125 43.8125 465.062 39.5625 464.438 34.0625C461.812 41.0625 455.938 45.25 446.812 46.625C445.938 46.75 445.5 46.6875 445.5 46.4375C445.375 46.1875 445.688 45.875 446.438 45.5C452.438 42.25 456.188 38.3125 457.688 33.6875H454.688C453.688 33.8125 452.688 33.875 451.688 33.875C450.688 34 449.875 34.125 449.25 34.25C449 34.375 448.75 34.25 448.5 33.875C448.125 33.5 447.75 33 447.375 32.375C447.125 32 447.25 31.875 447.75 32C450.25 32.25 452.75 32.375 455.25 32.375H458.25C458.625 31 458.812 29.4375 458.812 27.6875H457.688C457.688 28.8125 457.125 29.5 456 29.75C455.5 30 454.562 30.1875 453.188 30.3125C452.188 30.5625 451.688 30 451.688 28.625V24.5C451.562 26.125 450.875 27.125 449.625 27.5C447.5 28 446.375 27.0625 446.25 24.6875C446.125 23.1875 445.875 21.75 445.5 20.375ZM457.688 22.0625V26.1875H468.562V22.0625H457.688ZM468.562 16.4375H457.688V20.5625H468.562V16.4375ZM451.5 13.25H445.5V17.9375C448.25 18.6875 450.188 20.0625 451.312 22.0625C451.312 22.1875 451.312 22.3125 451.312 22.4375C451.438 22.9375 451.562 23.5 451.688 24.125V20C451.688 17 451.625 15.0625 451.5 14.1875C451.375 13.8125 451.438 13.5 451.688 13.25H451.5ZM468.562 28.0625V27.6875H466.5C466.375 27.8125 466.25 27.9375 466.125 28.0625C465.625 28.3125 465.375 28.75 465.375 29.375C465.25 29.625 465.188 30 465.188 30.5C465.062 31.375 464.938 32 464.812 32.375H470.438C471.188 30.875 471.875 29.75 472.5 29C472.125 29.125 471.75 29.25 471.375 29.375C471 29.5 470.688 29.5625 470.438 29.5625C469.062 29.6875 468.438 29.1875 468.562 28.0625ZM515.25 14H511.312C510.438 14.75 509.938 15.8125 509.812 17.1875C509.812 18.4375 509.75 19.3125 509.625 19.8125C509.625 20.4375 509.625 21 509.625 21.5H514.5C515.5 19.875 516.312 19 516.938 18.875C519.688 20 522.062 21.625 524.062 23.75C524.188 24.25 523.938 24.625 523.312 24.875C522.812 25.25 522.5 25.75 522.375 26.375C522.125 28.875 522 31 522 32.75C521.875 35 521.75 37.25 521.625 39.5C521.375 43.625 518.562 46 513.188 46.625C511.812 46.875 511.062 46.5625 510.938 45.6875C510.312 43.4375 509 42 507 41.375C505.875 41.125 505.5 40.875 505.875 40.625C505.75 40.375 506.25 40.3125 507.375 40.4375C512.125 40.8125 514.375 39.375 514.125 36.125C514.25 33.75 514.438 29.8125 514.688 24.3125C514.688 23.8125 514.75 23.375 514.875 23H509.625C509.625 35 504.625 42.8125 494.625 46.4375C494.125 46.6875 493.75 46.75 493.5 46.625C493.25 46.5 493.25 46.25 493.5 45.875C493.25 46 493 46.125 492.75 46.25C491.5 46.625 490.188 46.9375 488.812 47.1875C486.688 47.8125 485.938 46.6875 486.562 43.8125C486.688 38.4375 486.812 33.375 486.938 28.625V23.375C485.438 25 483.812 26.625 482.062 28.25C481.562 28.5 481.25 28.5625 481.125 28.4375C481 28.3125 481.062 28 481.312 27.5C484.562 20.125 486.875 11.75 488.25 2.375C488.375 1.5 488.875 1.125 489.75 1.25C492.5 2 495.375 2.875 498.375 3.875C499 4.25 499.312 4.6875 499.312 5.1875C499.312 5.6875 498.938 6.0625 498.188 6.3125C497.188 6.6875 496.438 7.4375 495.938 8.5625C494.812 11.1875 493.688 13.375 492.562 15.125C492.938 15.375 493.438 15.625 494.062 15.875C494.312 15.875 494.5 15.875 494.625 15.875C495.75 16.5 495.875 17.1875 495 17.9375C494.375 18.4375 494.125 18.9375 494.25 19.4375V28.25C494.125 34.625 494.25 39.5625 494.625 43.0625C494.625 43.5625 494.562 44.0625 494.438 44.5625C500.188 38.9375 502.75 28.75 502.125 14H499.312C498.812 14 498.062 14.125 497.062 14.375C496.812 14.375 496.625 14.375 496.5 14.375C496.125 14.625 495.812 14.5625 495.562 14.1875C495.438 14.1875 495.312 14.0625 495.188 13.8125C494.938 13.4375 494.75 13.0625 494.625 12.6875C494.375 12.3125 494.5 12.1875 495 12.3125C496.25 12.6875 498 12.8125 500.25 12.6875H516.938C519.062 9.6875 520.438 8.1875 521.062 8.1875C522.562 8.8125 524.375 10.375 526.5 12.875C526.75 13.375 526.812 13.75 526.688 14C526.562 14.125 526.312 14.1875 525.938 14.1875C524.812 14.1875 523.438 14.1875 521.812 14.1875C520.188 14.0625 518 14 515.25 14ZM506.25 8.75C505.875 6.5 504.875 4.3125 503.25 2.1875C502.875 1.8125 502.75 1.5 502.875 1.25C503.125 1 503.5 0.875 504 0.875C509.5 1 513.062 2.5625 514.688 5.5625C515.312 8.4375 514.375 10.5625 511.875 11.9375C508.625 13.0625 506.75 12 506.25 8.75ZM565.312 19.625H551.625C551.5 19.75 551.438 19.8125 551.438 19.8125C550.812 20.1875 550.562 20.75 550.688 21.5V36.3125C550.688 38.0625 550.062 38.9375 548.812 38.9375C547.938 39.1875 546.938 39.3125 545.812 39.3125C544.688 39.5625 544.125 38.9375 544.125 37.4375C544.125 36.0625 544.125 34.8125 544.125 33.6875C544.25 32.8125 544.312 31.375 544.312 29.375V23.5625C544.312 22.0625 544.25 20.9375 544.125 20.1875C544.125 19.3125 544.125 18.4375 544.125 17.5625C544 17.0625 544 16.75 544.125 16.625C544.25 16.5 544.625 16.4375 545.25 16.4375C545.25 16.5625 545.375 16.625 545.625 16.625C546.375 16.75 547.25 16.9375 548.25 17.1875V11.375C548.25 7.625 548.125 5.125 547.875 3.875C547.75 3.125 547.75 2.625 547.875 2.375C548 2.25 548.438 2.1875 549.188 2.1875C551.438 2.6875 553.125 3.0625 554.25 3.3125C554.375 3.5625 554.562 3.75 554.812 3.875H561.188C561.938 2.25 562.688 1.3125 563.438 1.0625C564.938 1.3125 566.75 2.25 568.875 3.875C569.375 4.625 569.25 5.1875 568.5 5.5625C567.75 5.9375 567.438 6.3125 567.562 6.6875V15.875C570.188 17 572.062 18.1875 573.188 19.4375C573.438 20.3125 573.25 20.875 572.625 21.125C572 21.5 571.75 21.9375 571.875 22.4375V34.8125C572.125 37.5625 570.312 39.1875 566.438 39.6875C564.812 40.0625 564 39.75 564 38.75C563.625 37.25 562.875 36.1875 561.75 35.5625C561 35.1875 560.688 34.8125 560.812 34.4375C560.812 34.1875 561.25 34.125 562.125 34.25C564.5 34.625 565.562 33.9375 565.312 32.1875V19.625ZM541.875 24.6875V35.9375C541.875 38.4375 544.688 40 550.312 40.625C553.688 40.875 557.25 41 561 41C564.75 41 568.438 40.75 572.062 40.25C573.938 40 575 39.9375 575.25 40.0625C575.5 40.4375 575.188 40.875 574.312 41.375C573.062 42.5 572.438 43.8125 572.438 45.3125C572.188 46.4375 571.438 47 570.188 47C566.062 47.125 562.312 47.125 558.938 47C555.562 47 552.812 46.875 550.688 46.625C546.812 46.25 543.188 44.3125 539.812 40.8125C538.938 39.9375 538.188 39.8125 537.562 40.4375C535.688 42.5625 534.625 44.5 534.375 46.25C534.125 46.875 533.812 47.25 533.438 47.375C533.188 47.375 532.812 47.1875 532.312 46.8125C531.062 46.0625 529.812 44.75 528.562 42.875C528.188 42.375 528.375 41.875 529.125 41.375C533.25 39.125 535.188 37.4375 534.938 36.3125V22.25H532.312C531.688 22.375 530.875 22.5 529.875 22.625C529.5 22.875 529.25 22.875 529.125 22.625C528.625 22.125 528.312 21.5625 528.188 20.9375C528.062 20.8125 528 20.6875 528 20.5625C528.125 20.4375 528.312 20.375 528.562 20.375C529.312 20.75 530.75 20.875 532.875 20.75H534.75C535.75 19.125 536.5 18.3125 537 18.3125C539.125 18.8125 541.125 20 543 21.875C543.375 22.5 543.25 23 542.625 23.375C542 23.625 541.75 24.0625 541.875 24.6875ZM556.688 23.1875H558.375C559.375 21.8125 560.125 21.0625 560.625 20.9375C562.25 21.4375 563.75 22.5625 565.125 24.3125C565 24.8125 564.688 25.25 564.188 25.625C563.938 25.75 563.812 26.1875 563.812 26.9375C563.812 28.0625 563.812 29.25 563.812 30.5C563.938 31.875 563.688 32.625 563.062 32.75C561.938 33.25 561.062 33.4375 560.438 33.3125C559.438 33.5625 559 33.0625 559.125 31.8125V31.25H556.5V32.1875C556.5 33.0625 556.125 33.5625 555.375 33.6875C555.125 33.8125 554.875 33.9375 554.625 34.0625C554.25 34.1875 553.812 34.3125 553.312 34.4375C551.938 34.6875 551.375 34.0625 551.625 32.5625C551.875 30.5625 551.938 28.75 551.812 27.125C551.812 24.875 551.75 23.5625 551.625 23.1875C551.375 22.4375 551.375 22 551.625 21.875C551.75 21.625 552.25 21.5625 553.125 21.6875C554 21.8125 555.062 22.1875 556.312 22.8125C556.438 22.9375 556.562 23.0625 556.688 23.1875ZM535.125 8.9375C534.75 6.4375 534.062 4.625 533.062 3.5C532.562 2.875 532.875 2.4375 534 2.1875C538.5 3.0625 541.188 4.625 542.062 6.875C542.688 9.75 541.812 11.625 539.438 12.5C536.938 13.375 535.5 12.1875 535.125 8.9375ZM561.75 5H554.438C554.062 5.125 553.938 5.5625 554.062 6.3125V10.0625H555C555.875 8.8125 556.562 8.1875 557.062 8.1875C558.562 8.6875 559.875 9.5 561 10.625C561.5 11.375 561.375 11.9375 560.625 12.3125C560.125 12.5625 559.875 13.1875 559.875 14.1875V18.125H561.75V5ZM559.125 24.6875H556.5V29.9375H559.125V24.6875ZM555.562 11.375H554.062V18.125H555.562V11.375ZM588.75 17.9375V23.5625C589.625 23.1875 590.5 22.875 591.375 22.625L592.5 22.0625V17.375C592.375 13.875 592.125 11.0625 591.75 8.9375C591.5 8.3125 591.438 7.875 591.562 7.625C591.812 7.375 592.312 7.25 593.062 7.25C594.312 7.5 596.562 8 599.812 8.75C600.938 9.375 601.062 10.125 600.188 11C599.562 11.25 599.312 11.75 599.438 12.5V19.4375L602.062 18.3125V7.8125C601.938 7.1875 601.875 6.375 601.875 5.375C601.75 4.375 601.625 3.3125 601.5 2.1875C601.125 0.9375 601.688 0.375 603.188 0.5C604.938 0.75 607 1.125 609.375 1.625C609.875 1.875 610.188 2.25 610.312 2.75C610.312 3.25 610.062 3.5625 609.562 3.6875C609.062 4.0625 608.875 4.5625 609 5.1875V15.6875L612 14.375C613 12.125 613.75 11 614.25 11C617.75 12.5 620.062 13.8125 621.188 14.9375C621.188 15.5625 620.875 16 620.25 16.25C619.875 16.375 619.688 16.875 619.688 17.75C619.562 18.5 619.438 20.4375 619.312 23.5625C619.188 25.4375 619.125 26.75 619.125 27.5C619.125 27.875 619.062 28.25 618.938 28.625C618.938 28.875 618.938 29.0625 618.938 29.1875C619.062 29.0625 619.312 28.9375 619.688 28.8125C620.188 29.0625 620.375 29.625 620.25 30.5C619.75 35.375 620.188 38 621.562 38.375C623.188 39.375 623.938 40.375 623.812 41.375C623.688 42.625 623.125 43.5625 622.125 44.1875C620.875 45.0625 618.75 45.5 615.75 45.5H599.25C594.625 45.5 592.375 43.4375 592.5 39.3125V23.75L591.188 24.125C591.062 24.25 590.875 24.3125 590.625 24.3125C590.125 24.5625 589.5 25 588.75 25.625V33.3125C588.75 34.5625 588.75 36.3125 588.75 38.5625C588.875 40.3125 589 41.8125 589.125 43.0625C589.25 44.8125 588.688 45.875 587.438 46.25C586.438 46.625 585.125 47 583.5 47.375C581.875 47.625 581.188 47 581.438 45.5C581.562 44.125 581.688 42 581.812 39.125C581.812 36 581.875 32.375 582 28.25V22.8125C580.625 24.5625 579.188 26.125 577.688 27.5C577.188 28 576.812 28.1875 576.562 28.0625C576.312 27.9375 576.312 27.5 576.562 26.75C580.438 17.625 582.75 9.5 583.5 2.375C583.625 1 584.25 0.4375 585.375 0.6875C588.25 1.4375 590.625 2.1875 592.5 2.9375C593.5 3.6875 593.438 4.4375 592.312 5.1875C591.562 5.4375 591 6.0625 590.625 7.0625C590 9.3125 589.062 11.5625 587.812 13.8125C587.938 13.9375 588.125 14 588.375 14C588.5 14 588.688 14.0625 588.938 14.1875C589.938 14.6875 590.062 15.3125 589.312 16.0625C588.938 16.4375 588.75 17.0625 588.75 17.9375ZM602.625 39.6875H612.188C615.062 40.4375 617.125 37.4375 618.375 30.6875C617.625 32.4375 615.812 33.625 612.938 34.25C611.688 34.625 610.938 34.3125 610.688 33.3125C610.438 32.0625 609.875 31.0625 609 30.3125C609 30.6875 609 31.1875 609 31.8125C609.125 32.5625 609.188 33.125 609.188 33.5C609.188 34.625 608.625 35.3125 607.5 35.5625C605.875 36.0625 604.25 36.3125 602.625 36.3125C601.625 36.4375 601.188 35.9375 601.312 34.8125C601.438 33.0625 601.562 31.1875 601.688 29.1875C601.812 27.0625 601.938 25 602.062 23V20L599.438 20.9375V35.75C599.188 38.625 600.25 39.9375 602.625 39.6875ZM612.562 15.6875L609 17.1875V26.75V28.25C611.125 28.625 612.188 27.75 612.188 25.625C612.562 20.625 612.688 17.3125 612.562 15.6875ZM650.25 6.875V9.125C650.25 16.375 651.75 22.375 654.75 27.125C658.5 32.75 663.625 36.625 670.125 38.75C671.375 39.25 671.938 39.625 671.812 39.875C671.812 40 671.625 40.125 671.25 40.25C671.125 40.375 670.938 40.5 670.688 40.625C667.938 41.75 666.062 43.25 665.062 45.125C664.438 46.625 663.5 46.8125 662.25 45.6875C653.5 40.8125 649.25 31.5 649.5 17.75C648.625 32.875 640.5 42.25 625.125 45.875C624.75 46 624.5 45.875 624.375 45.5C624.25 45.25 624.438 45 624.938 44.75C636.812 38.5 642.75 26.375 642.75 8.375C642.625 6 642.5 4.375 642.375 3.5C642.125 2.875 642.125 2.4375 642.375 2.1875C642.5 2.0625 643 2 643.875 2C646.25 2.25 648.625 2.6875 651 3.3125C651.625 3.5625 651.938 3.9375 651.938 4.4375C651.938 5.0625 651.625 5.4375 651 5.5625C650.375 5.8125 650.125 6.25 650.25 6.875ZM674.625 31.8125V20.375C674.625 18.125 674.562 16.4375 674.438 15.3125C674.438 13.9375 674.375 12.625 674.25 11.375C674.125 10 674.562 9.5 675.562 9.875C677.438 10.5 679.438 11.3125 681.562 12.3125H681.938C681.938 10.4375 681.938 8.625 681.938 6.875C681.938 5.125 681.938 3.5 681.938 2C681.688 1.25 682.062 0.9375 683.062 1.0625C685.062 1.1875 687.125 1.5 689.25 2C690 2.125 690.375 2.4375 690.375 2.9375C690.5 3.3125 690.25 3.625 689.625 3.875C689 4.375 688.562 4.9375 688.312 5.5625C687.188 8.0625 685.938 10.3125 684.562 12.3125H688.5C689.625 10.6875 690.5 9.8125 691.125 9.6875C693.625 10.5625 695.688 11.9375 697.312 13.8125C697.312 14.4375 697 14.875 696.375 15.125C695.75 15.5 695.5 15.9375 695.625 16.4375V21.875C698 14.5 699.375 7.8125 699.75 1.8125C699.625 1.1875 699.938 0.875 700.688 0.875C703.438 1.375 706.125 2.0625 708.75 2.9375C709.25 3.3125 709.5 3.6875 709.5 4.0625C709.375 4.4375 709.062 4.75 708.562 5C707.562 5.5 707 6.125 706.875 6.875C706.25 8.875 705.562 10.6875 704.812 12.3125H709.5C711 10.3125 712.062 9.25 712.688 9.125C716.062 10.625 718.375 12.125 719.625 13.625C719.625 14.25 719.25 14.75 718.5 15.125C717.75 15.5 717.438 15.9375 717.562 16.4375C717.438 29.4375 717.188 37.625 716.812 41C716.312 44.5 713.5 46.625 708.375 47.375C706.875 47.625 706 47.3125 705.75 46.4375C705 43.5625 703.312 41.75 700.688 41C699.438 41 699 40.6875 699.375 40.0625C699.25 39.5625 699.75 39.4375 700.875 39.6875C704 40.1875 706.062 40.375 707.062 40.25C708.062 40.125 708.688 39.5 708.938 38.375C709.688 31.375 710.125 23.1875 710.25 13.8125H704.062C702.812 16.3125 701.438 18.625 699.938 20.75C704.562 22.125 707.125 24.625 707.625 28.25C707.625 31.375 706.25 33 703.5 33.125C701.25 33.375 700 32.3125 699.75 29.9375C699.875 27.4375 699.438 24.9375 698.438 22.4375C698.188 22.6875 697.938 22.9375 697.688 23.1875C696.812 24.0625 696.125 24.6875 695.625 25.0625V27.6875C695.625 30.9375 695.812 35.375 696.188 41C696.188 41.875 695.75 42.5 694.875 42.875C693.25 43.25 691.875 43.5 690.75 43.625C689.125 43.875 688.438 43.5 688.688 42.5V39.875H681.375V42.125C681.375 43.625 680.75 44.5 679.5 44.75C678.375 45 677.25 45.1875 676.125 45.3125C674.375 45.5625 673.75 44.8125 674.25 43.0625C674.375 39.8125 674.5 36.0625 674.625 31.8125ZM688.688 13.8125H682.125C681.5 14.1875 681.25 14.75 681.375 15.5V25.625H688.688V13.8125ZM681.375 27.125V38.375H688.688V27.125H681.375ZM754.125 22.8125H752.438C755.188 26.0625 759.875 27.9375 766.5 28.4375C767.375 28.6875 767.812 28.9375 767.812 29.1875C767.812 29.5625 767.438 29.875 766.688 30.125C765.062 31.125 763.812 32.8125 762.938 35.1875C762.688 35.5625 762.375 35.75 762 35.75C761.625 36 761.125 35.875 760.5 35.375C755.75 32.5 752.188 28.3125 749.812 22.8125H739.5C739 23.1875 738.688 23.5625 738.562 23.9375C736.688 26.4375 734.625 28.5625 732.375 30.3125C734.25 30.5625 735.938 30.6875 737.438 30.6875H738.938C738.938 30.3125 738.875 29.625 738.75 28.625C738.625 27.75 738.625 27.0625 738.75 26.5625C738.5 25.3125 739 24.8125 740.25 25.0625C740.5 25.1875 740.812 25.25 741.188 25.25C742.562 25.5 744.438 25.875 746.812 26.375C747.938 27 748 27.75 747 28.625C746.375 29 746.125 29.5 746.25 30.125V30.6875H747.75C749.125 28.8125 750.062 27.8125 750.562 27.6875C751.062 27.8125 752.25 28.875 754.125 30.875C754.375 31.25 754.5 31.5625 754.5 31.8125C754.375 32.0625 754.125 32.1875 753.75 32.1875H746.25V36.6875H751.688C753.562 34.1875 754.688 33 755.062 33.125C755.438 33.125 756.875 34.3125 759.375 36.6875C759.625 37.0625 759.75 37.375 759.75 37.625C759.625 37.875 759.375 38 759 38H746.25V38.75C746.25 39.625 746.25 40.5 746.25 41.375C746.375 42.625 746.438 43.8125 746.438 44.9375C746.562 46.0625 746 46.8125 744.75 47.1875C743.75 47.3125 742.062 47.5 739.688 47.75C738.812 47.75 738.5 47.1875 738.75 46.0625C738.75 44.9375 738.75 43.5625 738.75 41.9375C738.875 40.4375 739 39.125 739.125 38H731.25C730.25 38.125 729.312 38.25 728.438 38.375C727.938 38.5 727.625 38.375 727.5 38C727.25 37.75 727 37.3125 726.75 36.6875C726.625 36.3125 726.75 36.125 727.125 36.125C728.5 36.5 730.188 36.6875 732.188 36.6875H739.125V36.125V32.375V32.1875H736.5C735.125 32.1875 734.188 32.25 733.688 32.375C733.312 32.5 733 32.375 732.75 32C732.5 31.75 732.312 31.3125 732.188 30.6875C731.938 30.5625 731.875 30.5 732 30.5C729 32.5 725.5 34.3125 721.5 35.9375C720.875 36.3125 720.438 36.375 720.188 36.125C720.062 35.75 720.25 35.3125 720.75 34.8125C725.875 30.8125 729.312 26.8125 731.062 22.8125H729.938C728.438 22.9375 727.125 23 726 23C724.75 23.125 723.812 23.25 723.188 23.375C722.688 23.5 722.375 23.4375 722.25 23.1875C721.625 22.4375 721.25 21.875 721.125 21.5C720.875 21.125 721 21 721.5 21.125C722.5 21.375 724.062 21.4375 726.188 21.3125V13.4375C726.062 10.1875 725.812 7.5625 725.438 5.5625C725.062 4.3125 725.562 3.75 726.938 3.875C727.438 4 727.875 4.125 728.25 4.25C729.25 4.375 730.125 4.5625 730.875 4.8125C731.625 4.0625 732.375 3.1875 733.125 2.1875C733.5 1.8125 734 1.8125 734.625 2.1875C735.625 3.3125 736.625 4.5 737.625 5.75C738 6.375 737.812 6.75 737.062 6.875C736.688 6.75 736.25 6.75 735.75 6.875C734.125 7.125 732.688 7.3125 731.438 7.4375V11.9375H731.812C731.812 11.9375 731.875 11.8125 732 11.5625C733 10.1875 733.625 9.5 733.875 9.5C734.25 9.625 735.062 10.4375 736.312 11.9375C736.562 12.8125 736.375 13.25 735.75 13.25H731.438V17.375H731.812C732.062 17 732.188 16.875 732.188 17C733.188 15.75 733.812 15.125 734.062 15.125C734.438 15.25 735.188 16 736.312 17.375C736.688 18.125 736.562 18.5625 735.938 18.6875H731.438V21.5H737.062V19.4375C737.062 18.4375 737 17.6875 736.875 17.1875C736.875 16.6875 736.875 16.25 736.875 15.875C736.5 15.125 736.875 14.75 738 14.75C738.5 14.875 739.125 14.9375 739.875 14.9375C740.875 15.0625 741.688 15.1875 742.312 15.3125C742.688 15.4375 742.938 15.6875 743.062 16.0625C743.062 16.3125 742.938 16.5 742.688 16.625C742.062 17 741.812 17.375 741.938 17.75V21.5H745.312V11.9375H742.688C742.438 12.4375 742.125 12.9375 741.75 13.4375C741.25 14.1875 740.75 14.375 740.25 14C739.75 14 738.75 13.5625 737.25 12.6875C737.125 12.5625 737.062 12.4375 737.062 12.3125C736.562 11.8125 736.625 11.375 737.25 11C737.625 10.75 737.875 10.125 738 9.125V5.5625C737.875 4.6875 737.812 3.875 737.812 3.125C737.812 2.75 737.812 2.4375 737.812 2.1875C737.438 1.3125 737.812 0.875 738.938 0.875C739.438 1 740.062 1.0625 740.812 1.0625C741.812 1.1875 742.625 1.3125 743.25 1.4375C743.625 1.5625 743.875 1.8125 744 2.1875C744 2.4375 743.875 2.625 743.625 2.75C743.125 3.125 742.875 3.5 742.875 3.875V5.5625H744.188C745.062 3.9375 745.812 3.0625 746.438 2.9375C747.688 3.1875 748.812 4.1875 749.812 5.9375C749.938 6.1875 749.938 6.375 749.812 6.5C749.812 6.625 749.688 6.6875 749.438 6.6875H742.875V10.625H744.75C745.375 9.375 745.938 8.6875 746.438 8.5625C747.688 8.9375 749.375 9.8125 751.5 11.1875C751.625 11.8125 751.562 12.25 751.312 12.5C750.688 12.875 750.375 13.25 750.375 13.625V21.5H755.438V17H755.062C754.438 17.125 753.688 17.25 752.812 17.375C752.438 17.5 752.125 17.375 751.875 17C751.625 16.625 751.438 16.25 751.312 15.875C751.062 15.625 751.125 15.5 751.5 15.5C751.875 15.625 752.5 15.6875 753.375 15.6875C754.25 15.8125 754.938 15.875 755.438 15.875V10.4375H754.688C754.062 10.5625 753.375 10.6875 752.625 10.8125C752.125 10.9375 751.812 10.8125 751.688 10.4375C751.188 10.1875 750.938 9.8125 750.938 9.3125C750.688 9.0625 750.812 8.9375 751.312 8.9375C752.812 9.1875 754.188 9.3125 755.438 9.3125V4.8125H753C752.375 4.9375 751.625 5.0625 750.75 5.1875C750.375 5.4375 750.062 5.3125 749.812 4.8125C749.688 4.6875 749.562 4.5625 749.438 4.4375C749.312 4.3125 749.25 4.125 749.25 3.875C749.125 3.625 749.062 3.5 749.062 3.5C749.062 3.375 749.188 3.3125 749.438 3.3125C750.938 3.5625 752.188 3.6875 753.188 3.6875H753.375H753.75H754.688C755.562 2.4375 756.188 1.75 756.562 1.625C758.062 2 759.75 2.875 761.625 4.25C762 4.875 762 5.3125 761.625 5.5625C761 5.8125 760.688 6.125 760.688 6.5V19.4375C761.438 18.3125 762.062 17.75 762.562 17.75C763.562 17.875 764.938 19.125 766.688 21.5C766.938 22 767 22.375 766.875 22.625C766.75 22.875 766.5 23 766.125 23C765.125 23 763.375 23 760.875 23C757.75 23 755.5 22.9375 754.125 22.8125ZM801 43.625H777.562C774.312 43.625 772.062 43.8125 770.812 44.1875C770.438 44.1875 770.125 44.0625 769.875 43.8125C769.125 43.0625 768.688 42.3125 768.562 41.5625C768.312 41.1875 768.375 41.0625 768.75 41.1875C769.75 41.3125 772.062 41.5 775.688 41.75C776.188 41.75 776.688 41.8125 777.188 41.9375V21.3125C777.062 19.4375 777 17.75 777 16.25C776.875 14.75 776.75 13.6875 776.625 13.0625C776.375 11.8125 776.938 11.3125 778.312 11.5625C781.062 11.9375 783.25 12.375 784.875 12.875C785.875 13.375 786.062 14.125 785.438 15.125C784.812 15.5 784.5 15.9375 784.5 16.4375V41.9375H790.312V10.8125C790.188 9.3125 790.125 7.875 790.125 6.5C790 5.125 789.875 4 789.75 3.125C789.375 1.75 789.875 1.1875 791.25 1.4375C792.875 1.6875 795.188 2.0625 798.188 2.5625C799.562 3.3125 799.812 4.0625 798.938 4.8125C798.188 5.4375 797.875 6 798 6.5V19.625H800.812C802.438 16.75 803.625 15.25 804.375 15.125C805.75 15.375 807.875 16.8125 810.75 19.4375C811.375 20.3125 811.312 20.875 810.562 21.125H798V41.9375H804.188C805.812 39.3125 807.188 37.8125 808.312 37.4375C809.938 37.9375 812.188 39.375 815.062 41.75C815.688 42.875 815.562 43.5625 814.688 43.8125C810.062 43.5625 805.5 43.5 801 43.625ZM847.312 38V20H838.875C837.625 20.125 836.438 20.25 835.312 20.375C835.062 20.5 834.75 20.5 834.375 20.375C834.375 20.375 834.375 20.3125 834.375 20.1875C833.875 19.8125 833.562 19.375 833.438 18.875C833.188 18.75 833.062 18.625 833.062 18.5C833.188 18.375 833.375 18.3125 833.625 18.3125C835 18.5625 836.938 18.6875 839.438 18.6875H855C856.75 16.1875 857.875 14.9375 858.375 14.9375C859.5 15.3125 861 16.5625 862.875 18.6875C863.25 19.1875 863.375 19.625 863.25 20C863.125 20.25 862.812 20.3125 862.312 20.1875C859.812 20.3125 857.75 20.25 856.125 20C856.25 20.375 856.062 20.75 855.562 21.125C854.938 21.375 854.625 21.8125 854.625 22.4375V32C854.625 33.625 854.625 35.5 854.625 37.625C854.75 39.75 854.875 41.1875 855 41.9375C855.125 44.1875 854.5 45.5625 853.125 46.0625C853 46.0625 852.875 46.0625 852.75 46.0625C850.75 46.8125 849.125 47.25 847.875 47.375C846.25 47.625 845.375 47.25 845.25 46.25C845.125 44.375 844 43.0625 841.875 42.3125C840.625 41.8125 840.188 41.375 840.562 41C840.562 41 841.188 40.9375 842.438 40.8125C845.938 40.9375 847.562 40 847.312 38ZM831.375 23.375V35.9375C831.25 36.9375 831.25 38.1875 831.375 39.6875C831.5 40.9375 831.562 42.0625 831.562 43.0625C831.688 44.8125 831.125 45.9375 829.875 46.4375C828.75 46.6875 827.5 46.9375 826.125 47.1875C825 47.3125 824.312 47.25 824.062 47C823.812 46.75 823.75 46.1875 823.875 45.3125C824 41.8125 824.125 38.8125 824.25 36.3125V26.1875C822.25 27.6875 820.25 29 818.25 30.125C817.75 30.375 817.438 30.4375 817.312 30.3125C817.188 30.0625 817.312 29.75 817.688 29.375C822.562 24.25 826.312 18.125 828.938 11C829.062 10.125 829.562 9.8125 830.438 10.0625C831.312 10.5625 832.812 11.375 834.938 12.5C835.312 12.75 835.688 12.9375 836.062 13.0625C836.562 13.4375 836.812 13.875 836.812 14.375C836.812 14.75 836.5 15 835.875 15.125C835 15.375 834.312 15.8125 833.812 16.4375C833.438 16.9375 833.062 17.375 832.688 17.75C832.562 18.125 832.062 18.75 831.188 19.625C831.188 19.625 831.25 19.6875 831.375 19.8125C831.5 19.9375 831.625 19.9375 831.75 19.8125C832.75 20.3125 832.938 20.9375 832.312 21.6875C831.562 21.9375 831.25 22.5 831.375 23.375ZM829.875 0.5C832 2 833.688 3.25 834.938 4.25C835.312 4.75 835.438 5.25 835.312 5.75C835.188 6.125 834.875 6.3125 834.375 6.3125C833.5 6.3125 832.812 6.5625 832.312 7.0625C827.812 10.8125 823.125 13.9375 818.25 16.4375C817.75 16.6875 817.5 16.6875 817.5 16.4375C817.375 16.1875 817.5 15.875 817.875 15.5C822.5 11 825.938 6.1875 828.188 1.0625C828.438 0.5625 829 0.375 829.875 0.5ZM850.5 7.8125H842.062C840.688 7.9375 839.5 8.0625 838.5 8.1875C838.25 8.1875 838 8.125 837.75 8C837.625 8 837.562 7.9375 837.562 7.8125C837.188 7.4375 836.938 7.0625 836.812 6.6875C836.688 6.4375 836.625 6.3125 836.625 6.3125C836.75 6.1875 836.938 6.125 837.188 6.125C838.688 6.375 840.5 6.5 842.625 6.5H852C853.5 4.125 854.562 2.9375 855.188 2.9375C856.312 3.3125 857.875 4.5 859.875 6.5C860.25 7 860.375 7.375 860.25 7.625C860.125 7.875 859.75 8 859.125 8C858.375 8 857.312 8 855.938 8C854.562 8 852.75 7.9375 850.5 7.8125ZM892.5 16.8125H894C895 15.1875 895.812 14.375 896.438 14.375C898.438 15 900.312 16.25 902.062 18.125C902.312 18.875 902.188 19.375 901.688 19.625C900.938 20 900.5 20.5625 900.375 21.3125V21.6875C900.75 21.3125 901.125 21.0625 901.5 20.9375C903 21.3125 904.688 22.5 906.562 24.5C906.688 25.25 906.5 25.75 906 26C905.375 26.375 905.062 26.9375 905.062 27.6875L904.875 28.0625C905.375 27.5625 905.875 27.25 906.375 27.125C908.25 28 909.938 29.375 911.438 31.25C911.312 31.75 911 32.1875 910.5 32.5625C910 33.1875 909.75 33.875 909.75 34.625C909.5 36.875 909.125 39.0625 908.625 41.1875C908.125 43.6875 907.062 45.3125 905.438 46.0625C904.062 46.5625 902.562 47 900.938 47.375C899.438 47.625 898.688 47.3125 898.688 46.4375C898.062 44.3125 896.812 42.875 894.938 42.125C894.188 41.625 893.875 41.3125 894 41.1875C894 41.0625 894.438 41 895.312 41C899.438 41 901.562 40.4375 901.688 39.3125C902.062 37.3125 902.438 34.6875 902.812 31.4375H877.688C876.438 37.8125 872.75 42.75 866.625 46.25C865.875 46.625 865.375 46.6875 865.125 46.4375C865 46.1875 865.188 45.8125 865.688 45.3125C869.438 40.3125 871.312 33.8125 871.312 25.8125V23.5625C871.312 20.8125 871.062 18.4375 870.562 16.4375C870.312 15.1875 870.812 14.625 872.062 14.75C873.062 15 874.875 15.5 877.5 16.25C877.875 16.5 878.312 16.625 878.812 16.625L879 16.8125H889.688C891.438 13.4375 892.625 10.0625 893.25 6.6875H884.438C886.438 7.1875 887.938 8.125 888.938 9.5C889.938 11.75 889.375 13.4375 887.25 14.5625C884.75 15.4375 883.25 14.625 882.75 12.125C882.5 10.25 881.75 8.5 880.5 6.875C880.25 6.875 880.188 6.8125 880.312 6.6875C879.062 6.6875 877.25 6.6875 874.875 6.6875C872.375 6.5625 870.625 6.4375 869.625 6.3125C869 6.3125 868.625 6.1875 868.5 5.9375C868.5 5.5625 868.812 5.3125 869.438 5.1875C881.812 3.8125 890.812 2.3125 896.438 0.6875C897.438 0.4375 898.438 0.5625 899.438 1.0625C901.062 2.3125 902.812 3.8125 904.688 5.5625C904.938 5.9375 904.938 6.3125 904.688 6.6875C904.312 6.9375 903.938 6.9375 903.562 6.6875C903.188 6.5625 902.688 6.5 902.062 6.5C901.938 6.5 901.75 6.5 901.5 6.5C900.625 6.5 899.812 6.5 899.062 6.5C899.312 6.75 899.688 7 900.188 7.25C900.688 7.5 901.125 7.6875 901.5 7.8125C902.25 8.5625 902.188 9.1875 901.312 9.6875C900.188 9.9375 899.375 10.3125 898.875 10.8125C896.875 13.1875 894.75 15.1875 892.5 16.8125ZM899.625 24.875H878.25V25.25C878.25 26.5 878.188 27.4375 878.062 28.0625C878.062 28.8125 878 29.4375 877.875 29.9375H898.688L899.625 24.875ZM894.562 18.3125H879.188C879.062 18.3125 879 18.375 879 18.5C878.5 18.875 878.25 19.4375 878.25 20.1875V23.375H893.625L894.562 18.3125ZM873.375 12.3125C873 11.0625 872.312 9.5625 871.312 7.8125C870.938 7.5625 870.812 7.375 870.938 7.25C870.938 7.125 871.188 7 871.688 6.875C875.188 7.125 877.688 8.125 879.188 9.875C880.562 12.375 880.062 14.25 877.688 15.5C875.188 16.125 873.75 15.0625 873.375 12.3125ZM876.562 38.1875C877.688 37.6875 878.688 36.25 879.562 33.875C879.688 33.625 879.875 33.5 880.125 33.5C880.375 33.5 880.562 33.6875 880.688 34.0625C881.562 37.5625 881.438 40.25 880.312 42.125C878.438 43.625 876.812 43.6875 875.438 42.3125C874.188 40.9375 874.562 39.5625 876.562 38.1875ZM883.125 39.875C883.25 37.875 882.938 36.125 882.188 34.625C881.938 34.375 881.875 34.1875 882 34.0625C882.125 33.9375 882.375 33.875 882.75 33.875C885.625 34.75 887.438 36.0625 888.188 37.8125C888.812 40.0625 888.188 41.4375 886.312 41.9375C884.312 42.0625 883.25 41.375 883.125 39.875ZM889.875 38.75C889.75 37.25 889.25 35.8125 888.375 34.4375C888.25 34.1875 888.188 34 888.188 33.875C888.312 33.75 888.562 33.6875 888.938 33.6875C892.062 34.0625 894 35.3125 894.75 37.4375C895.5 39.5625 894.938 40.75 893.062 41C891.188 41.375 890.125 40.625 889.875 38.75ZM896.438 38C896.062 36.25 895.375 34.8125 894.375 33.6875C894 33.5625 893.812 33.4375 893.812 33.3125C893.938 33.1875 894.188 33.0625 894.562 32.9375C897.562 32.6875 899.625 33.4375 900.75 35.1875C901.5 36.8125 901.25 38.1875 900 39.3125C898.25 40.3125 897.062 39.875 896.438 38ZM957.188 20.5625H949.312V25.8125H951.562C951.562 25.8125 951.688 25.625 951.938 25.25C952.812 24 953.5 23.375 954 23.375C956.75 24.5 958.688 25.8125 959.812 27.3125C959.812 27.8125 959.562 28.3125 959.062 28.8125C958.688 29.0625 958.5 29.5 958.5 30.125C958.25 33.625 958 37.125 957.75 40.625C957.375 43.875 954.625 45.875 949.5 46.625C948.25 46.75 947.5 46.375 947.25 45.5C946.875 43.5 945.625 42.0625 943.5 41.1875C942.75 41.0625 942.5 40.8125 942.75 40.4375C942.625 40.1875 943.062 40.0625 944.062 40.0625C949.188 40.6875 951.625 40.0625 951.375 38.1875C951.5 37.5625 951.562 36.9375 951.562 36.3125C951.188 36.9375 950.625 37.3125 949.875 37.4375C948.25 37.5625 947.375 36.6875 947.25 34.8125C946.875 32.5625 946.312 30.75 945.562 29.375C945.438 28.75 945.688 28.5 946.312 28.625C949.188 29.75 951.062 31 951.938 32.375C951.938 32.625 951.938 32.6875 951.938 32.5625C951.938 31.9375 951.938 31.25 951.938 30.5C952.062 29.75 952.125 28.6875 952.125 27.3125H938.625C938.625 27.4375 938.562 27.5625 938.438 27.6875C938.312 27.8125 938.312 27.875 938.438 27.875C937.812 28.625 937.188 28.875 936.562 28.625C934.812 28.25 933.438 27.6875 932.438 26.9375C931.562 26.4375 931.438 25.8125 932.062 25.0625C932.688 24.4375 933 23.3125 933 21.6875V8.5625C933 6.9375 932.938 5.8125 932.812 5.1875C932.562 4.4375 932.5 3.9375 932.625 3.6875C932.875 3.4375 933.375 3.375 934.125 3.5C936.625 4 938.562 4.5625 939.938 5.1875C940.312 5.4375 940.625 5.625 940.875 5.75H951.75C952.75 4 953.562 3 954.188 2.75C955.438 3.25 956.75 4.25 958.125 5.75C958.375 6.125 958.5 6.5 958.5 6.875C958.375 7.125 958.125 7.25 957.75 7.25H949.312V12.5H951.375C952.125 10.875 952.938 9.8125 953.812 9.3125C955.062 9.8125 956.375 10.875 957.75 12.5C958.25 13.375 958.125 13.875 957.375 14H949.312V19.0625H951.375C952.125 17.6875 952.875 16.6875 953.625 16.0625C954.75 16.4375 956.062 17.4375 957.562 19.0625C957.812 19.4375 957.938 19.8125 957.938 20.1875C957.812 20.4375 957.562 20.5625 957.188 20.5625ZM914.438 22.25V15.125C914.312 11.875 914.188 8.8125 914.062 5.9375C913.938 5.3125 913.938 4.9375 914.062 4.8125C914.312 4.5625 914.75 4.5 915.375 4.625C917.375 5.25 919.375 5.9375 921.375 6.6875C921.75 6.9375 922 7.1875 922.125 7.4375H922.875C923.625 5.6875 924.375 4.6875 925.125 4.4375C927 4.9375 929.125 6.125 931.5 8C931.625 8.625 931.312 9.125 930.562 9.5C930.188 9.75 930 10.1875 930 10.8125V20.9375C930 22.0625 930 23.5625 930 25.4375C930.125 27.1875 930.25 28.375 930.375 29C930.5 30 930.125 30.625 929.25 30.875C928 31.5 926.688 31.8125 925.312 31.8125C923.688 32.1875 923 31.8125 923.25 30.6875V29.375H921.188V30.6875C921.188 32.6875 920.625 33.75 919.5 33.875C919.125 34 918.75 34.0625 918.375 34.0625C917.125 34.4375 916.25 34.5625 915.75 34.4375C914 34.6875 913.375 33.875 913.875 32C914 31.375 914.125 30.1875 914.25 28.4375C914.25 26.4375 914.312 24.375 914.438 22.25ZM928.125 35.75C929.75 34.25 930.938 32.3125 931.688 29.9375C931.688 29.6875 931.75 29.5625 931.875 29.5625C932.125 29.5625 932.375 29.6875 932.625 29.9375C934.125 32.4375 934.125 35.3125 932.625 38.5625C931.375 40.1875 929.875 40.5 928.125 39.5C926.875 38.375 926.875 37.125 928.125 35.75ZM923.25 8.75H921.188C921.188 9.125 921.188 9.4375 921.188 9.6875V28.0625H923.25V8.75ZM941.25 35.9375C941.25 33.8125 940.812 31.75 939.938 29.75C939.688 29.5 939.625 29.3125 939.75 29.1875C939.875 29.0625 940.125 29.0625 940.5 29.1875C943.25 30.3125 945.062 31.875 945.938 33.875C946.812 36.75 946.125 38.3125 943.875 38.5625C942.25 38.8125 941.375 37.9375 941.25 35.9375ZM935.062 35.9375C935.562 34.0625 935.5 32.125 934.875 30.125C934.75 29.875 934.75 29.75 934.875 29.75C935.125 29.625 935.438 29.625 935.812 29.75C938.062 31.25 939.438 33.0625 939.938 35.1875C940.188 38.0625 939.188 39.4375 936.938 39.3125C935.562 39.1875 934.938 38.0625 935.062 35.9375ZM939.375 25.8125H943.125V20.5625H939.562V25.625C939.438 25.875 939.375 25.9375 939.375 25.8125ZM939.562 14V19.0625H943.125V14H939.562ZM939.562 8.75V12.5H943.125V7.25H940.125C939.625 7.5 939.438 8 939.562 8.75ZM973.688 34.0625H971.25V31.0625C971.25 29.4375 971.875 27.6875 973.125 25.8125C974.75 23.8125 975.562 21.75 975.562 19.625C975.562 15.125 974.062 12.8125 971.062 12.6875C968.688 12.9375 967.062 13.8125 966.188 15.3125C966.438 15.3125 966.688 15.3125 966.938 15.3125C969.312 15.4375 970.562 16.5 970.688 18.5C970.438 20.5 969.188 21.625 966.938 21.875C964.562 21.75 963.312 20.4375 963.188 17.9375C963.562 13.5625 966.75 11.125 972.75 10.625C979.125 11 982.562 13.375 983.062 17.75C983.062 20.375 981.438 22.875 978.188 25.25C975.188 27.5 973.688 29.75 973.688 32V34.0625ZM968.25 40.0625C968.5 37.6875 969.812 36.3125 972.188 35.9375C974.688 36.1875 976.062 37.5625 976.312 40.0625C975.938 42.0625 974.562 43.25 972.188 43.625C969.812 43.25 968.5 42.0625 968.25 40.0625Z" fill="#10656A"/>
</svg>
