<svg width="1080" height="49" viewBox="0 0 1080 49" fill="none" xmlns="http://www.w3.org/2000/svg">
<path d="M14.625 11.375H9.375C7 11.5 4.6875 11.625 2.4375 11.75C2.3125 11.75 2.125 11.8125 1.875 11.9375C1.625 11.9375 1.5 11.8125 1.5 11.5625C1.25 11.4375 1.0625 11.1875 0.9375 10.8125C0.8125 10.5625 0.6875 10.3125 0.5625 10.0625C0.4375 9.9375 0.375 9.8125 0.375 9.6875C0.375 9.5625 0.5625 9.5 0.9375 9.5C1.5625 9.75 2.8125 9.9375 4.6875 10.0625C6.8125 10.0625 8.875 10.0625 10.875 10.0625H15C15.75 7.4375 16.25 4.5625 16.5 1.4375C16.375 0.6875 16.875 0.3125 18 0.3125C22.375 0.9375 25.4375 1.375 27.1875 1.625C27.8125 1.875 28.1875 2.3125 28.3125 2.9375C28.3125 3.5625 28 3.9375 27.375 4.0625C26 4.4375 25.25 5.0625 25.125 5.9375C24.875 6.5625 24.5625 7.375 24.1875 8.375C23.9375 9.25 23.8125 9.8125 23.8125 10.0625H37.875C39.375 7.4375 40.4375 6.0625 41.0625 5.9375C42.4375 6.1875 44.5 7.5625 47.25 10.0625C47.875 11.0625 47.75 11.625 46.875 11.75C44 11.625 40.875 11.5 37.5 11.375H23.25C21.375 15.75 19.25 19.375 16.875 22.25V26C18.5 26.25 20.8125 26.3125 23.8125 26.1875H26.0625V22.4375C25.9375 21.5625 25.875 20.4375 25.875 19.0625C25.75 17.6875 25.625 16.5625 25.5 15.6875C25.25 14.6875 25.75 14.1875 27 14.1875C28.125 14.3125 29.3125 14.5 30.5625 14.75C31.8125 14.875 32.9375 15 33.9375 15.125C34.4375 15.25 34.75 15.625 34.875 16.25C35 16.75 34.8125 17.125 34.3125 17.375C33.5625 17.75 33.1875 18.3125 33.1875 19.0625V26.1875H36.1875C37.6875 23.5625 38.75 22.25 39.375 22.25C40.5 22.5 42.5625 23.8125 45.5625 26.1875C45.9375 26.6875 46.0625 27.125 45.9375 27.5C45.8125 27.75 45.5 27.875 45 27.875C43.5 27.75 40.4375 27.6875 35.8125 27.6875H33.1875V41.375H37.875C39.375 39.125 40.4375 37.9375 41.0625 37.8125C42.4375 38.0625 44.5 39.3125 47.25 41.5625C47.5 41.8125 47.625 42.125 47.625 42.5C47.5 42.75 47.25 42.9375 46.875 43.0625C46.125 43.0625 44.6875 43 42.5625 42.875C40.0625 42.875 38.375 42.875 37.5 42.875H16.875V44.5625C16.875 45.6875 16.3125 46.5 15.1875 47C12.9375 47.375 11.5 47.5625 10.875 47.5625C9.375 47.8125 8.8125 47.125 9.1875 45.5C9.3125 43.375 9.4375 41.25 9.5625 39.125C9.5625 36.75 9.625 34.6875 9.75 32.9375V29.1875C7.125 30.9375 4.375 32.625 1.5 34.25C0.875 34.625 0.5 34.6875 0.375 34.4375C0.125 34.1875 0.1875 33.8125 0.5625 33.3125C3.8125 30.1875 6.8125 26.4375 9.5625 22.0625C9.4375 20.4375 9.3125 19.1875 9.1875 18.3125C8.9375 17.3125 9.4375 16.875 10.6875 17C11.0625 17.25 11.5625 17.3125 12.1875 17.1875C13.0625 15.4375 13.875 13.5 14.625 11.375ZM16.875 27.875V41.375H26.0625V27.6875H22.3125C19.8125 27.6875 18 27.75 16.875 27.875ZM60.75 17.9375V23.5625C61.625 23.1875 62.5 22.875 63.375 22.625L64.5 22.0625V17.375C64.375 13.875 64.125 11.0625 63.75 8.9375C63.5 8.3125 63.4375 7.875 63.5625 7.625C63.8125 7.375 64.3125 7.25 65.0625 7.25C66.3125 7.5 68.5625 8 71.8125 8.75C72.9375 9.375 73.0625 10.125 72.1875 11C71.5625 11.25 71.3125 11.75 71.4375 12.5V19.4375L74.0625 18.3125V7.8125C73.9375 7.1875 73.875 6.375 73.875 5.375C73.75 4.375 73.625 3.3125 73.5 2.1875C73.125 0.9375 73.6875 0.375 75.1875 0.5C76.9375 0.75 79 1.125 81.375 1.625C81.875 1.875 82.1875 2.25 82.3125 2.75C82.3125 3.25 82.0625 3.5625 81.5625 3.6875C81.0625 4.0625 80.875 4.5625 81 5.1875V15.6875L84 14.375C85 12.125 85.75 11 86.25 11C89.75 12.5 92.0625 13.8125 93.1875 14.9375C93.1875 15.5625 92.875 16 92.25 16.25C91.875 16.375 91.6875 16.875 91.6875 17.75C91.5625 18.5 91.4375 20.4375 91.3125 23.5625C91.1875 25.4375 91.125 26.75 91.125 27.5C91.125 27.875 91.0625 28.25 90.9375 28.625C90.9375 28.875 90.9375 29.0625 90.9375 29.1875C91.0625 29.0625 91.3125 28.9375 91.6875 28.8125C92.1875 29.0625 92.375 29.625 92.25 30.5C91.75 35.375 92.1875 38 93.5625 38.375C95.1875 39.375 95.9375 40.375 95.8125 41.375C95.6875 42.625 95.125 43.5625 94.125 44.1875C92.875 45.0625 90.75 45.5 87.75 45.5H71.25C66.625 45.5 64.375 43.4375 64.5 39.3125V23.75L63.1875 24.125C63.0625 24.25 62.875 24.3125 62.625 24.3125C62.125 24.5625 61.5 25 60.75 25.625V33.3125C60.75 34.5625 60.75 36.3125 60.75 38.5625C60.875 40.3125 61 41.8125 61.125 43.0625C61.25 44.8125 60.6875 45.875 59.4375 46.25C58.4375 46.625 57.125 47 55.5 47.375C53.875 47.625 53.1875 47 53.4375 45.5C53.5625 44.125 53.6875 42 53.8125 39.125C53.8125 36 53.875 32.375 54 28.25V22.8125C52.625 24.5625 51.1875 26.125 49.6875 27.5C49.1875 28 48.8125 28.1875 48.5625 28.0625C48.3125 27.9375 48.3125 27.5 48.5625 26.75C52.4375 17.625 54.75 9.5 55.5 2.375C55.625 1 56.25 0.4375 57.375 0.6875C60.25 1.4375 62.625 2.1875 64.5 2.9375C65.5 3.6875 65.4375 4.4375 64.3125 5.1875C63.5625 5.4375 63 6.0625 62.625 7.0625C62 9.3125 61.0625 11.5625 59.8125 13.8125C59.9375 13.9375 60.125 14 60.375 14C60.5 14 60.6875 14.0625 60.9375 14.1875C61.9375 14.6875 62.0625 15.3125 61.3125 16.0625C60.9375 16.4375 60.75 17.0625 60.75 17.9375ZM74.625 39.6875H84.1875C87.0625 40.4375 89.125 37.4375 90.375 30.6875C89.625 32.4375 87.8125 33.625 84.9375 34.25C83.6875 34.625 82.9375 34.3125 82.6875 33.3125C82.4375 32.0625 81.875 31.0625 81 30.3125C81 30.6875 81 31.1875 81 31.8125C81.125 32.5625 81.1875 33.125 81.1875 33.5C81.1875 34.625 80.625 35.3125 79.5 35.5625C77.875 36.0625 76.25 36.3125 74.625 36.3125C73.625 36.4375 73.1875 35.9375 73.3125 34.8125C73.4375 33.0625 73.5625 31.1875 73.6875 29.1875C73.8125 27.0625 73.9375 25 74.0625 23V20L71.4375 20.9375V35.75C71.1875 38.625 72.25 39.9375 74.625 39.6875ZM84.5625 15.6875L81 17.1875V26.75V28.25C83.125 28.625 84.1875 27.75 84.1875 25.625C84.5625 20.625 84.6875 17.3125 84.5625 15.6875ZM122.25 6.875V9.125C122.25 16.375 123.75 22.375 126.75 27.125C130.5 32.75 135.625 36.625 142.125 38.75C143.375 39.25 143.938 39.625 143.812 39.875C143.812 40 143.625 40.125 143.25 40.25C143.125 40.375 142.938 40.5 142.688 40.625C139.938 41.75 138.062 43.25 137.062 45.125C136.438 46.625 135.5 46.8125 134.25 45.6875C125.5 40.8125 121.25 31.5 121.5 17.75C120.625 32.875 112.5 42.25 97.125 45.875C96.75 46 96.5 45.875 96.375 45.5C96.25 45.25 96.4375 45 96.9375 44.75C108.812 38.5 114.75 26.375 114.75 8.375C114.625 6 114.5 4.375 114.375 3.5C114.125 2.875 114.125 2.4375 114.375 2.1875C114.5 2.0625 115 2 115.875 2C118.25 2.25 120.625 2.6875 123 3.3125C123.625 3.5625 123.938 3.9375 123.938 4.4375C123.938 5.0625 123.625 5.4375 123 5.5625C122.375 5.8125 122.125 6.25 122.25 6.875ZM147 24.6875V12.5C146.875 8.75 146.75 5.8125 146.625 3.6875C146.5 2.9375 146.5 2.4375 146.625 2.1875C146.875 1.9375 147.375 1.875 148.125 2C149.125 2.375 150.688 3.0625 152.812 4.0625C153.188 4.1875 153.5 4.25 153.75 4.25C154 4.625 154.25 4.875 154.5 5H156C156.75 3.5 157.688 2.5 158.812 2C160.188 2.5 162.062 3.75 164.438 5.75C164.438 6 164.5 6.1875 164.625 6.3125C164.75 6.4375 164.875 6.5625 165 6.6875C164.75 6.0625 164.688 5.5625 164.812 5.1875C164.562 3.6875 165 3.125 166.125 3.5C168.75 4.375 170.812 5.125 172.312 5.75C172.562 6 172.812 6.1875 173.062 6.3125H176.438C177.562 4.1875 178.375 3.125 178.875 3.125C181.625 4.125 184.062 5.6875 186.188 7.8125C186.312 8.3125 186 8.8125 185.25 9.3125C184.625 9.5625 184.375 10 184.5 10.625V41C185.375 40 186.062 39.5 186.562 39.5C188.562 40.25 190.188 41.25 191.438 42.5C191.688 43.125 191.562 43.5625 191.062 43.8125H161.438C160.562 43.8125 159.688 43.9375 158.812 44.1875C158.312 44.1875 158 44.0625 157.875 43.8125C157.5 43.4375 157.25 43 157.125 42.5C156.875 42 157 41.875 157.5 42.125C158.875 42.25 160.5 42.375 162.375 42.5H165.188V12.3125C165.188 11.9375 165.125 11.125 165 9.875C165 8.5 165 7.5 165 6.875C164.875 7.375 164.562 7.6875 164.062 7.8125C163.438 8.0625 162.938 8.4375 162.562 8.9375C160.938 11.8125 158.875 15 156.375 18.5C161.25 21.625 163.875 24.9375 164.25 28.4375C164.125 32.8125 161.938 35.4375 157.688 36.3125C156.562 36.4375 156.062 36 156.188 35C155.812 33.625 155 32.625 153.75 32C153.75 32 153.75 31.9375 153.75 31.8125V42.3125C153.75 44.0625 153.125 45.1875 151.875 45.6875C150.875 46.1875 149.812 46.4375 148.688 46.4375C147.312 46.5625 146.562 46.4375 146.438 46.0625C146.188 45.8125 146.188 44.8125 146.438 43.0625C146.562 41.3125 146.688 38.75 146.812 35.375C146.812 31.75 146.875 28.1875 147 24.6875ZM156.562 6.5H153.938C153.688 6.75 153.625 7.1875 153.75 7.8125V30.5H153.938C157.188 30.875 158.812 29.875 158.812 27.5C158.688 24.875 157.312 22.125 154.688 19.25C155.312 15.125 155.938 10.875 156.562 6.5ZM171.75 30.5V42.5H177.375V30.5H171.75ZM171.75 19.25V29.1875H177.375V19.25H171.75ZM177.375 7.8125H172.312C171.938 8.0625 171.75 8.5 171.75 9.125V17.75H177.375V7.8125ZM225 43.625H201.562C198.312 43.625 196.062 43.8125 194.812 44.1875C194.438 44.1875 194.125 44.0625 193.875 43.8125C193.125 43.0625 192.688 42.3125 192.562 41.5625C192.312 41.1875 192.375 41.0625 192.75 41.1875C193.75 41.3125 196.062 41.5 199.688 41.75C200.188 41.75 200.688 41.8125 201.188 41.9375V21.3125C201.062 19.4375 201 17.75 201 16.25C200.875 14.75 200.75 13.6875 200.625 13.0625C200.375 11.8125 200.938 11.3125 202.312 11.5625C205.062 11.9375 207.25 12.375 208.875 12.875C209.875 13.375 210.062 14.125 209.438 15.125C208.812 15.5 208.5 15.9375 208.5 16.4375V41.9375H214.312V10.8125C214.188 9.3125 214.125 7.875 214.125 6.5C214 5.125 213.875 4 213.75 3.125C213.375 1.75 213.875 1.1875 215.25 1.4375C216.875 1.6875 219.188 2.0625 222.188 2.5625C223.562 3.3125 223.812 4.0625 222.938 4.8125C222.188 5.4375 221.875 6 222 6.5V19.625H224.812C226.438 16.75 227.625 15.25 228.375 15.125C229.75 15.375 231.875 16.8125 234.75 19.4375C235.375 20.3125 235.312 20.875 234.562 21.125H222V41.9375H228.188C229.812 39.3125 231.188 37.8125 232.312 37.4375C233.938 37.9375 236.188 39.375 239.062 41.75C239.688 42.875 239.562 43.5625 238.688 43.8125C234.062 43.5625 229.5 43.5 225 43.625ZM277.312 19.625H263.625C263.5 19.75 263.438 19.8125 263.438 19.8125C262.812 20.1875 262.562 20.75 262.688 21.5V36.3125C262.688 38.0625 262.062 38.9375 260.812 38.9375C259.938 39.1875 258.938 39.3125 257.812 39.3125C256.688 39.5625 256.125 38.9375 256.125 37.4375C256.125 36.0625 256.125 34.8125 256.125 33.6875C256.25 32.8125 256.312 31.375 256.312 29.375V23.5625C256.312 22.0625 256.25 20.9375 256.125 20.1875C256.125 19.3125 256.125 18.4375 256.125 17.5625C256 17.0625 256 16.75 256.125 16.625C256.25 16.5 256.625 16.4375 257.25 16.4375C257.25 16.5625 257.375 16.625 257.625 16.625C258.375 16.75 259.25 16.9375 260.25 17.1875V11.375C260.25 7.625 260.125 5.125 259.875 3.875C259.75 3.125 259.75 2.625 259.875 2.375C260 2.25 260.438 2.1875 261.188 2.1875C263.438 2.6875 265.125 3.0625 266.25 3.3125C266.375 3.5625 266.562 3.75 266.812 3.875H273.188C273.938 2.25 274.688 1.3125 275.438 1.0625C276.938 1.3125 278.75 2.25 280.875 3.875C281.375 4.625 281.25 5.1875 280.5 5.5625C279.75 5.9375 279.438 6.3125 279.562 6.6875V15.875C282.188 17 284.062 18.1875 285.188 19.4375C285.438 20.3125 285.25 20.875 284.625 21.125C284 21.5 283.75 21.9375 283.875 22.4375V34.8125C284.125 37.5625 282.312 39.1875 278.438 39.6875C276.812 40.0625 276 39.75 276 38.75C275.625 37.25 274.875 36.1875 273.75 35.5625C273 35.1875 272.688 34.8125 272.812 34.4375C272.812 34.1875 273.25 34.125 274.125 34.25C276.5 34.625 277.562 33.9375 277.312 32.1875V19.625ZM253.875 24.6875V35.9375C253.875 38.4375 256.688 40 262.312 40.625C265.688 40.875 269.25 41 273 41C276.75 41 280.438 40.75 284.062 40.25C285.938 40 287 39.9375 287.25 40.0625C287.5 40.4375 287.188 40.875 286.312 41.375C285.062 42.5 284.438 43.8125 284.438 45.3125C284.188 46.4375 283.438 47 282.188 47C278.062 47.125 274.312 47.125 270.938 47C267.562 47 264.812 46.875 262.688 46.625C258.812 46.25 255.188 44.3125 251.812 40.8125C250.938 39.9375 250.188 39.8125 249.562 40.4375C247.688 42.5625 246.625 44.5 246.375 46.25C246.125 46.875 245.812 47.25 245.438 47.375C245.188 47.375 244.812 47.1875 244.312 46.8125C243.062 46.0625 241.812 44.75 240.562 42.875C240.188 42.375 240.375 41.875 241.125 41.375C245.25 39.125 247.188 37.4375 246.938 36.3125V22.25H244.312C243.688 22.375 242.875 22.5 241.875 22.625C241.5 22.875 241.25 22.875 241.125 22.625C240.625 22.125 240.312 21.5625 240.188 20.9375C240.062 20.8125 240 20.6875 240 20.5625C240.125 20.4375 240.312 20.375 240.562 20.375C241.312 20.75 242.75 20.875 244.875 20.75H246.75C247.75 19.125 248.5 18.3125 249 18.3125C251.125 18.8125 253.125 20 255 21.875C255.375 22.5 255.25 23 254.625 23.375C254 23.625 253.75 24.0625 253.875 24.6875ZM268.688 23.1875H270.375C271.375 21.8125 272.125 21.0625 272.625 20.9375C274.25 21.4375 275.75 22.5625 277.125 24.3125C277 24.8125 276.688 25.25 276.188 25.625C275.938 25.75 275.812 26.1875 275.812 26.9375C275.812 28.0625 275.812 29.25 275.812 30.5C275.938 31.875 275.688 32.625 275.062 32.75C273.938 33.25 273.062 33.4375 272.438 33.3125C271.438 33.5625 271 33.0625 271.125 31.8125V31.25H268.5V32.1875C268.5 33.0625 268.125 33.5625 267.375 33.6875C267.125 33.8125 266.875 33.9375 266.625 34.0625C266.25 34.1875 265.812 34.3125 265.312 34.4375C263.938 34.6875 263.375 34.0625 263.625 32.5625C263.875 30.5625 263.938 28.75 263.812 27.125C263.812 24.875 263.75 23.5625 263.625 23.1875C263.375 22.4375 263.375 22 263.625 21.875C263.75 21.625 264.25 21.5625 265.125 21.6875C266 21.8125 267.062 22.1875 268.312 22.8125C268.438 22.9375 268.562 23.0625 268.688 23.1875ZM247.125 8.9375C246.75 6.4375 246.062 4.625 245.062 3.5C244.562 2.875 244.875 2.4375 246 2.1875C250.5 3.0625 253.188 4.625 254.062 6.875C254.688 9.75 253.812 11.625 251.438 12.5C248.938 13.375 247.5 12.1875 247.125 8.9375ZM273.75 5H266.438C266.062 5.125 265.938 5.5625 266.062 6.3125V10.0625H267C267.875 8.8125 268.562 8.1875 269.062 8.1875C270.562 8.6875 271.875 9.5 273 10.625C273.5 11.375 273.375 11.9375 272.625 12.3125C272.125 12.5625 271.875 13.1875 271.875 14.1875V18.125H273.75V5ZM271.125 24.6875H268.5V29.9375H271.125V24.6875ZM267.562 11.375H266.062V18.125H267.562V11.375ZM322.688 19.625V23.1875C322.688 22.8125 323.062 22.8125 323.812 23.1875C328.688 25.0625 332.188 28.0625 334.312 32.1875C335.062 35.6875 334.125 38 331.5 39.125C328.875 39.625 327.312 38.125 326.812 34.625C326.312 31.125 325.062 27.625 323.062 24.125C322.812 24 322.688 23.8125 322.688 23.5625V25.8125C322.562 32.6875 322.625 37.625 322.875 40.625C323.125 42.875 322.438 44.5 320.812 45.5C318.938 46.5 317.062 47.125 315.188 47.375C313.562 47.625 312.688 47.25 312.562 46.25C312.188 44.125 311.125 42.8125 309.375 42.3125C308.375 41.9375 307.938 41.5625 308.062 41.1875C307.938 41.0625 308.562 41 309.938 41C313.938 41.625 315.75 40.375 315.375 37.25V24.875C315.375 25.125 315.188 25.25 314.812 25.25C314.188 25.5 313.875 25.875 313.875 26.375C311.875 32.625 308.438 37.3125 303.562 40.4375C302.938 40.8125 302.562 40.9375 302.438 40.8125C302.312 40.6875 302.438 40.3125 302.812 39.6875C304.562 35.6875 305.812 32.0625 306.562 28.8125C306.562 28.6875 306.562 28.375 306.562 27.875C306.938 26.5 307.188 25 307.312 23.375C307.438 22.375 307.938 21.9375 308.812 22.0625C310.688 22.3125 312.688 22.8125 314.812 23.5625C315.188 23.9375 315.375 24.125 315.375 24.125V23.5625C315.25 22.0625 315.188 20.625 315.188 19.25C315.062 17.875 314.938 16.875 314.812 16.25C314.438 14.875 314.938 14.3125 316.312 14.5625C318.062 14.8125 320.312 15.1875 323.062 15.6875C324.312 16.4375 324.5 17.1875 323.625 17.9375C322.875 18.3125 322.562 18.875 322.688 19.625ZM301.5 18.125V35.75C301.375 39.25 301.438 41.75 301.688 43.25C301.938 44.875 301.375 45.9375 300 46.4375C298.75 46.8125 297.438 47.125 296.062 47.375C293.938 48 293.188 46.875 293.812 44C293.812 43.375 293.812 42.4375 293.812 41.1875C294.188 35.6875 294.375 31.5625 294.375 28.8125V22.625C292.625 24.75 290.875 26.4375 289.125 27.6875C288.75 28.0625 288.5 28.125 288.375 27.875C288.25 27.625 288.312 27.25 288.562 26.75C291.562 20.75 293.938 14.5625 295.688 8.1875C296.312 6.4375 296.75 4.1875 297 1.4375C296.875 0.6875 297.375 0.3125 298.5 0.3125C300 0.6875 302.5 1.4375 306 2.5625C306.75 3.3125 306.75 4.0625 306 4.8125C305.125 5.1875 304.625 5.5625 304.5 5.9375C302.875 9.1875 301.438 12 300.188 14.375C300.312 14.375 300.562 14.4375 300.938 14.5625C301.312 14.5625 301.562 14.5625 301.688 14.5625C302.562 15.1875 302.688 15.8125 302.062 16.4375C301.562 16.8125 301.375 17.375 301.5 18.125ZM324.938 17.375L326.25 12.875H313.875C311.125 17.25 307.625 20.8125 303.375 23.5625C303 23.8125 302.75 23.8125 302.625 23.5625C302.5 23.4375 302.562 23.125 302.812 22.625C306.062 17.625 308.375 12.4375 309.75 7.0625C310 6.0625 310.188 5.125 310.312 4.25C310.562 3.25 310.688 2.3125 310.688 1.4375C310.688 0.5625 311.188 0.25 312.188 0.5C313.312 0.625 315.25 1.125 318 2C318.25 2.125 318.562 2.1875 318.938 2.1875C319.312 2.4375 319.562 2.8125 319.688 3.3125C319.562 3.8125 319.312 4.0625 318.938 4.0625C318.062 4.4375 317.562 4.9375 317.438 5.5625C316.562 7.6875 315.688 9.625 314.812 11.375H325.312C326.188 9.375 327.125 8.1875 328.125 7.8125C330 8.1875 332.188 9.625 334.688 12.125C335.312 12.75 335.562 13.4375 335.438 14.1875C335.312 14.9375 334.688 15.3125 333.562 15.3125C330.562 15.0625 328.062 16 326.062 18.125C325.562 18.5 325.188 18.625 324.938 18.5C324.812 18.375 324.812 18 324.938 17.375ZM338.625 31.8125V20.375C338.625 18.125 338.562 16.4375 338.438 15.3125C338.438 13.9375 338.375 12.625 338.25 11.375C338.125 10 338.562 9.5 339.562 9.875C341.438 10.5 343.438 11.3125 345.562 12.3125H345.938C345.938 10.4375 345.938 8.625 345.938 6.875C345.938 5.125 345.938 3.5 345.938 2C345.688 1.25 346.062 0.9375 347.062 1.0625C349.062 1.1875 351.125 1.5 353.25 2C354 2.125 354.375 2.4375 354.375 2.9375C354.5 3.3125 354.25 3.625 353.625 3.875C353 4.375 352.562 4.9375 352.312 5.5625C351.188 8.0625 349.938 10.3125 348.562 12.3125H352.5C353.625 10.6875 354.5 9.8125 355.125 9.6875C357.625 10.5625 359.688 11.9375 361.312 13.8125C361.312 14.4375 361 14.875 360.375 15.125C359.75 15.5 359.5 15.9375 359.625 16.4375V21.875C362 14.5 363.375 7.8125 363.75 1.8125C363.625 1.1875 363.938 0.875 364.688 0.875C367.438 1.375 370.125 2.0625 372.75 2.9375C373.25 3.3125 373.5 3.6875 373.5 4.0625C373.375 4.4375 373.062 4.75 372.562 5C371.562 5.5 371 6.125 370.875 6.875C370.25 8.875 369.562 10.6875 368.812 12.3125H373.5C375 10.3125 376.062 9.25 376.688 9.125C380.062 10.625 382.375 12.125 383.625 13.625C383.625 14.25 383.25 14.75 382.5 15.125C381.75 15.5 381.438 15.9375 381.562 16.4375C381.438 29.4375 381.188 37.625 380.812 41C380.312 44.5 377.5 46.625 372.375 47.375C370.875 47.625 370 47.3125 369.75 46.4375C369 43.5625 367.312 41.75 364.688 41C363.438 41 363 40.6875 363.375 40.0625C363.25 39.5625 363.75 39.4375 364.875 39.6875C368 40.1875 370.062 40.375 371.062 40.25C372.062 40.125 372.688 39.5 372.938 38.375C373.688 31.375 374.125 23.1875 374.25 13.8125H368.062C366.812 16.3125 365.438 18.625 363.938 20.75C368.562 22.125 371.125 24.625 371.625 28.25C371.625 31.375 370.25 33 367.5 33.125C365.25 33.375 364 32.3125 363.75 29.9375C363.875 27.4375 363.438 24.9375 362.438 22.4375C362.188 22.6875 361.938 22.9375 361.688 23.1875C360.812 24.0625 360.125 24.6875 359.625 25.0625V27.6875C359.625 30.9375 359.812 35.375 360.188 41C360.188 41.875 359.75 42.5 358.875 42.875C357.25 43.25 355.875 43.5 354.75 43.625C353.125 43.875 352.438 43.5 352.688 42.5V39.875H345.375V42.125C345.375 43.625 344.75 44.5 343.5 44.75C342.375 45 341.25 45.1875 340.125 45.3125C338.375 45.5625 337.75 44.8125 338.25 43.0625C338.375 39.8125 338.5 36.0625 338.625 31.8125ZM352.688 13.8125H346.125C345.5 14.1875 345.25 14.75 345.375 15.5V25.625H352.688V13.8125ZM345.375 27.125V38.375H352.688V27.125H345.375ZM397.312 25.8125V44.1875C397.438 45.5625 396.875 46.375 395.625 46.625C395.375 46.625 395.125 46.625 394.875 46.625C393.625 47 392.75 47.1875 392.25 47.1875C390.25 47.5625 389.5 46.625 390 44.375C390.375 40.125 390.562 36.125 390.562 32.375V28.4375C388.812 29.8125 387 30.9375 385.125 31.8125C384.625 32.0625 384.312 32.0625 384.188 31.8125C384.062 31.6875 384.188 31.375 384.562 30.875C389.438 24.75 392.875 19.1875 394.875 14.1875H388.688C387.938 14.1875 387.062 14.3125 386.062 14.5625C385.938 14.5625 385.875 14.5625 385.875 14.5625C385.375 14.6875 385.062 14.625 384.938 14.375C384.812 14.375 384.75 14.25 384.75 14C384.625 13.875 384.438 13.5 384.188 12.875C384.062 12.75 384.188 12.625 384.562 12.5C386.188 12.75 387.875 12.875 389.625 12.875H394.875C396.125 11 396.938 10.0625 397.312 10.0625C398.812 10.4375 400.938 11.5 403.688 13.25V11.1875C403.562 9.3125 403.438 7.4375 403.312 5.5625C403.062 4.3125 403.562 3.8125 404.812 4.0625C407.188 4.4375 409.25 5.0625 411 5.9375C411 5.9375 411.062 6 411.188 6.125C411.188 6.25 411.25 6.25 411.375 6.125H420.375C421.25 4.75 422.062 3.9375 422.812 3.6875C423.812 3.6875 425.938 5 429.188 7.625C429.812 8.75 429.625 9.5 428.625 9.875C428 10.125 427.688 10.5625 427.688 11.1875V12.875C427.688 14.875 427.75 17.3125 427.875 20.1875C428 23.1875 428.188 25.5625 428.438 27.3125C428.438 28.8125 427.938 29.625 426.938 29.75C425.688 30.25 424.438 30.5625 423.188 30.6875C423.562 31.5625 423.5 32.1875 423 32.5625C422.375 32.8125 422.125 33.25 422.25 33.875V39.5C422.125 40.625 422.562 41.125 423.562 41C424.812 41.375 426.188 39.3125 427.688 34.8125C427.812 33.8125 428.188 33.375 428.812 33.5C429.062 33.5 429.188 33.9375 429.188 34.8125C428.938 38.5625 429.312 40.625 430.312 41C431.188 41.75 431.688 42.5625 431.812 43.4375C431.812 44.5625 431.25 45.4375 430.125 46.0625C428.25 46.6875 426.5 47.0625 424.875 47.1875H420.562C417.188 47.5625 415.75 45.875 416.25 42.125V35.75C416.125 34.75 416.062 33.75 416.062 32.75C415.938 31.75 415.812 30.9375 415.688 30.3125C415.562 29.5625 416.062 29.25 417.188 29.375C418.438 29.625 419.688 29.8125 420.938 29.9375C420.938 29.8125 420.938 29.4375 420.938 28.8125V28.25H410.438C410.438 28.5 410.375 28.75 410.25 29C410.25 29.125 410.25 29.1875 410.25 29.1875C410.75 29.4375 411.688 29.625 413.062 29.75C413.812 29.875 414.312 29.9375 414.562 29.9375C415.688 30.5625 415.812 31.3125 414.938 32.1875C414.312 32.4375 413.938 33.0625 413.812 34.0625C412.688 41.3125 407.75 45.5 399 46.625C398.375 46.5 398.125 46.375 398.25 46.25C398.125 46 398.25 45.8125 398.625 45.6875C404.625 42.5625 407.562 37.6875 407.438 31.0625C406.812 31.3125 406.125 31.4375 405.375 31.4375C404.25 31.5625 403.562 31.3125 403.312 30.6875C403.062 31.3125 402.562 31.75 401.812 32C399.438 32.75 398.125 32 397.875 29.75C397.75 29.375 397.688 29 397.688 28.625C397.562 27.375 397.438 26.4375 397.312 25.8125ZM410.438 21.3125V26.75H420.938V21.3125H410.438ZM420.938 7.625H411.188C410.562 8 410.312 8.5 410.438 9.125V13.0625H420.938V7.625ZM410.438 14.5625V20H420.938V14.5625H410.438ZM390.938 7.8125C390.562 6.0625 389.688 4.125 388.312 2C387.938 1.625 387.812 1.375 387.938 1.25C387.938 1.125 388.188 1.0625 388.688 1.0625C392.938 1.0625 395.688 2.0625 396.938 4.0625C397.812 6.4375 397.062 8.25 394.688 9.5C392.812 10.125 391.562 9.5625 390.938 7.8125ZM403.688 17.9375V15.125C403.562 15.375 403.438 15.4375 403.312 15.3125C402.438 15.5625 401.812 16.0625 401.438 16.8125C400.438 18.1875 399.312 19.6875 398.062 21.3125C398.438 21.9375 398.375 22.4375 397.875 22.8125C397.375 23.1875 397.188 23.5625 397.312 23.9375C400.438 24.3125 402.5 25.375 403.5 27.125C403.5 26.5 403.5 25.3125 403.5 23.5625C403.625 21.3125 403.688 19.4375 403.688 17.9375ZM460.688 28.25L460.875 29.375L468.562 28.625C469.062 27.5 469.75 26.5 470.625 25.625C467.25 24.875 464.5 23.375 462.375 21.125C457.75 22.625 453.562 23.4375 449.812 23.5625C449.188 23.5625 448.812 23.4375 448.688 23.1875C448.688 22.9375 449 22.6875 449.625 22.4375C453.375 21.1875 456.688 19.6875 459.562 17.9375C458.312 16.0625 457.312 14 456.562 11.75H455.25C453.5 12 452.125 12.3125 451.125 12.6875C450.625 12.9375 450.25 12.8125 450 12.3125C449.25 11.8125 448.875 11.375 448.875 11C448.75 10.875 448.688 10.75 448.688 10.625C448.688 10.5 448.875 10.4375 449.25 10.4375C450 10.6875 452.312 10.625 456.188 10.25C455.688 8.75 455.188 6.625 454.688 3.875C454.562 3.375 454.5 3 454.5 2.75C453.875 1.375 454.25 0.6875 455.625 0.6875C456.5 0.8125 457.75 1 459.375 1.25C460 1.375 460.625 1.4375 461.25 1.4375C461.875 1.5625 462.25 1.8125 462.375 2.1875C462.5 2.5625 462.375 2.875 462 3.125C461.375 3.5 461.188 4.125 461.438 5C461.562 6.75 461.875 8.3125 462.375 9.6875L469.125 9.125C470.625 6.625 471.625 5.375 472.125 5.375C473.25 5.625 474.75 6.6875 476.625 8.5625C476.875 8.9375 477 9.3125 477 9.6875C476.875 9.9375 476.625 10.0625 476.25 10.0625C475 10.0625 472.875 10.1875 469.875 10.4375C469.625 10.4375 469.438 10.4375 469.312 10.4375C469.438 10.4375 469.562 10.5 469.688 10.625C471.062 11.375 472.75 12.375 474.75 13.625C475.125 14.125 475.25 14.5625 475.125 14.9375C475 15.4375 474.688 15.625 474.188 15.5C473.062 15.625 472.125 16 471.375 16.625C470.625 17.25 469.812 17.75 468.938 18.125C469.562 18.5 470.188 18.75 470.812 18.875C471.938 19.375 472.812 19.125 473.438 18.125C474.188 17.125 475 15.9375 475.875 14.5625C476.125 13.9375 476.438 13.6875 476.812 13.8125C477.062 13.9375 477.188 14.3125 477.188 14.9375C476.562 18.3125 476.75 20.5625 477.75 21.6875C479.25 24.3125 478.375 25.75 475.125 26C476.25 26.625 477.125 27.3125 477.75 28.0625C478 28.4375 478.125 28.8125 478.125 29.1875C478 29.4375 477.75 29.5625 477.375 29.5625C475.125 29.6875 472.938 29.8125 470.812 29.9375C470.062 29.9375 469.562 29.9375 469.312 29.9375C470.062 30.3125 471.25 30.9375 472.875 31.8125C473.5 32.1875 473.938 32.375 474.188 32.375C474.688 32.75 474.875 33.125 474.75 33.5C474.625 34 474.312 34.25 473.812 34.25C473.062 34.25 472.062 34.75 470.812 35.75C469.562 37.125 468.312 38.25 467.062 39.125C467.688 39.5 468.5 39.6875 469.5 39.6875C470.625 39.9375 471.562 39.5625 472.312 38.5625C473.438 36.6875 474.312 35 474.938 33.5C475.188 32.875 475.5 32.625 475.875 32.75C476.125 32.875 476.25 33.25 476.25 33.875C476 38.625 476.5 41.4375 477.75 42.3125C478.75 43.1875 479.062 44.125 478.688 45.125C478.188 46.125 477.25 46.6875 475.875 46.8125C469.25 47.0625 464.188 45.625 460.688 42.5C456.688 44.375 452.5 45.6875 448.125 46.4375C447.375 46.3125 446.938 46.125 446.812 45.875C446.688 45.625 446.938 45.4375 447.562 45.3125C451.062 43.6875 454.438 41.8125 457.688 39.6875C456.562 37.9375 455.75 35.8125 455.25 33.3125C455 32.8125 454.875 32.25 454.875 31.625C453.25 31.75 451.938 32 450.938 32.375C450.562 32.5 450.188 32.5 449.812 32.375C449.812 32.375 449.812 32.3125 449.812 32.1875C449.688 32.3125 449.5 32.4375 449.25 32.5625C449 32.6875 448.75 32.8125 448.5 32.9375C446.625 33.1875 445.625 32.375 445.5 30.5C445.5 30 445.5 29.4375 445.5 28.8125C441.25 30.8125 438.875 32.25 438.375 33.125C437.125 34.375 436.25 34.375 435.75 33.125C434.875 31.875 434.188 30.4375 433.688 28.8125C433.438 28.4375 433.438 28.0625 433.688 27.6875C433.812 27.4375 434.125 27.1875 434.625 26.9375C435.75 26.4375 436.812 25.5 437.812 24.125C438.812 22.875 439.812 21.25 440.812 19.25C438.562 20.125 437.312 20.8125 437.062 21.3125C435.938 22.5625 435.125 22.5 434.625 21.125C433.75 19.875 433.125 18.5625 432.75 17.1875C432.5 16.6875 432.438 16.3125 432.562 16.0625C432.688 15.8125 432.938 15.5625 433.312 15.3125C434.562 14.4375 435.562 13.25 436.312 11.75C437.438 8.5 438.188 5.4375 438.562 2.5625C438.688 1.3125 439.375 0.875 440.625 1.25C442 1.875 444 2.625 446.625 3.5C447.125 3.75 447.375 4.1875 447.375 4.8125C447.375 5.3125 447.062 5.625 446.438 5.75C445.438 6 444.75 6.5625 444.375 7.4375C441.625 11.0625 439.375 13.6875 437.625 15.3125C439 15.4375 440.625 15.375 442.5 15.125C442.875 14.25 443.188 13.3125 443.438 12.3125C443.688 11.0625 444.375 10.625 445.5 11C445.625 11.125 445.812 11.25 446.062 11.375C448.312 12.25 449.812 12.9375 450.562 13.4375C451.062 13.9375 451.312 14.375 451.312 14.75C451.188 15.25 450.875 15.5625 450.375 15.6875C449.5 15.9375 448.812 16.5 448.312 17.375C445.688 21 442.875 24.25 439.875 27.125C441.875 26.75 443.625 26.5625 445.125 26.5625C444.875 25.4375 444.562 24.5 444.188 23.75C443.938 23.5 443.875 23.25 444 23C444.25 22.875 444.562 22.8125 444.938 22.8125C447.938 24.3125 449.875 26.3125 450.75 28.8125C450.875 29.3125 450.875 29.8125 450.75 30.3125C451 30.3125 451.562 30.3125 452.438 30.3125C453.312 30.1875 454 30.125 454.5 30.125C454.25 29 453.875 27.5625 453.375 25.8125C453.375 25.5625 453.375 25.375 453.375 25.25C453 24.5 452.875 24.0625 453 23.9375C453.125 23.8125 453.688 23.75 454.688 23.75C454.688 23.875 454.812 23.9375 455.062 23.9375C457.688 24.1875 459.625 24.375 460.875 24.5C462.125 25 462.375 25.625 461.625 26.375C460.875 27 460.562 27.625 460.688 28.25ZM433.5 41C435 39.625 436.125 37.8125 436.875 35.5625C437 35.0625 437.375 35 438 35.375C439.375 38.375 439.5 41.0625 438.375 43.4375C437 45.1875 435.438 45.5 433.688 44.375C432.562 43.125 432.5 42 433.5 41ZM446.812 39.5C446.438 37.5 445.625 35.6875 444.375 34.0625C444.125 33.8125 444.062 33.625 444.188 33.5C444.312 33.375 444.562 33.3125 444.938 33.3125C447.812 33.8125 449.938 34.9375 451.312 36.6875C452.438 39.0625 451.938 40.6875 449.812 41.5625C448.188 41.6875 447.188 41 446.812 39.5ZM440.438 41C440.688 39.125 440.625 37.125 440.25 35C440.125 34.75 440.125 34.625 440.25 34.625C440.375 34.5 440.625 34.5 441 34.625C443.25 36 444.75 37.75 445.5 39.875C445.875 42.25 444.875 43.5 442.5 43.625C440.875 43.375 440.188 42.5 440.438 41ZM465.75 6.6875C465.25 5.6875 464.375 4.625 463.125 3.5C462.75 3.5 462.625 3.375 462.75 3.125C462.875 3 463.125 2.875 463.5 2.75C466 2.25 467.938 2.375 469.312 3.125C470.688 4.5 470.875 5.875 469.875 7.25C468.25 8.625 466.875 8.4375 465.75 6.6875ZM462.188 23.9375C461.938 23.9375 461.875 23.875 462 23.75C462.125 23.625 462.312 23.5 462.562 23.375C465.062 23.625 466.625 24.375 467.25 25.625C467.75 27.125 467.375 28.125 466.125 28.625C464.5 29.25 463.562 28.75 463.312 27.125C463.062 25.875 462.688 24.8125 462.188 23.9375ZM465.75 30.3125L461.062 30.875C461.438 32.5 462 33.875 462.75 35C464 33.625 465.188 32.0625 466.312 30.3125C466.062 30.3125 465.875 30.3125 465.75 30.3125ZM464.625 10.8125L462.938 11C463.438 12.25 464 13.3125 464.625 14.1875C465.75 13.1875 466.75 12 467.625 10.625C467.5 10.625 467.562 10.625 467.812 10.625C467.312 10.625 466.75 10.6875 466.125 10.8125C465.5 10.9375 465 10.9375 464.625 10.8125ZM511.312 10.8125H518.062C519.312 8.5625 520.375 7.25 521.25 6.875C522.375 7.125 524.125 8.4375 526.5 10.8125C527.125 11.9375 526.938 12.5625 525.938 12.6875C524.188 12.5625 522.312 12.5 520.312 12.5C518.688 12.375 516.25 12.3125 513 12.3125H511.5C511.5 14.9375 511.688 17.4375 512.062 19.8125C512.312 22.0625 512.688 24.0625 513.188 25.8125C513.312 25.6875 513.5 25.375 513.75 24.875C514.875 22 515.625 19.1875 516 16.4375C516 15.4375 516.688 15.125 518.062 15.5C520.688 16.25 523.062 17.125 525.188 18.125C525.812 18.875 525.625 19.5 524.625 20C523.875 20.25 523.375 20.8125 523.125 21.6875C520.875 26.5625 518.5 30.5 516 33.5C517.125 35.5 518.375 36.9375 519.75 37.8125C520.625 38.3125 521.25 38.25 521.625 37.625C522.5 36.25 523.438 34.4375 524.438 32.1875C524.562 31.5625 524.75 31.25 525 31.25C525.375 31.25 525.562 31.5 525.562 32C525.562 32.5 525.5 33.5 525.375 35C525.375 37 525.375 38.375 525.375 39.125C525.25 40.25 525.688 41.25 526.688 42.125C527.562 44.5 526.562 46.0625 523.688 46.8125C521.312 46.9375 518.875 46.125 516.375 44.375C514.25 43 512.375 41.125 510.75 38.75C506 42 499.938 44.3125 492.562 45.6875C491.438 45.8125 490.812 45.75 490.688 45.5C490.562 45.125 491.062 44.6875 492.188 44.1875C499.062 41.0625 504.375 37.4375 508.125 33.3125C505.875 27.3125 504.625 20.3125 504.375 12.3125H490.125C488.625 12.4375 486.375 12.625 483.375 12.875C483.25 12.875 483.125 12.9375 483 13.0625C482.75 13.0625 482.562 12.875 482.438 12.5C481.938 12 481.625 11.4375 481.5 10.8125C481.25 10.6875 481.125 10.5625 481.125 10.4375C481.25 10.3125 481.438 10.25 481.688 10.25C482.312 10.5 483.562 10.625 485.438 10.625C487.688 10.75 489.812 10.8125 491.812 10.8125H504.375C504.375 10.4375 504.312 9.875 504.188 9.125C504.062 8.5 504.062 7.9375 504.188 7.4375C504.062 6.0625 503.938 4.3125 503.812 2.1875C503.438 1.1875 503.875 0.6875 505.125 0.6875C506.125 0.8125 507.688 1.0625 509.812 1.4375C510.188 1.5625 510.688 1.625 511.312 1.625C511.938 1.75 512.312 2.1875 512.438 2.9375C512.438 2.8125 512.625 2.75 513 2.75C515.25 2.5 517.188 2.8125 518.812 3.6875C520.562 5.1875 520.625 6.875 519 8.75C516.875 10.125 515.438 9.8125 514.688 7.8125C514.062 6.0625 513.375 4.6875 512.625 3.6875C512.625 3.6875 512.562 3.625 512.438 3.5C512.312 3.5 512.312 3.4375 512.438 3.3125C512.312 3.4375 512.125 3.5625 511.875 3.6875C511.375 3.9375 511.188 4.5625 511.312 5.5625C511.312 7.4375 511.312 9.1875 511.312 10.8125ZM484.875 25.25V22.0625C484.75 20.3125 484.625 18.75 484.5 17.375C484.25 16.125 484.75 15.625 486 15.875C486.125 16 486.375 16.125 486.75 16.25C488.625 16.75 490.062 17.125 491.062 17.375C491.562 17.625 491.812 17.8125 491.812 17.9375H495.375C496.25 16.4375 497 15.625 497.625 15.5C499.25 15.75 501.188 16.6875 503.438 18.3125C504.062 19.1875 504.125 19.8125 503.625 20.1875C503 20.6875 502.75 21.1875 502.875 21.6875V30.3125C502.875 31.3125 502.562 31.9375 501.938 32.1875C500.312 32.5625 499.125 32.75 498.375 32.75C496.75 32.875 496.062 32.5 496.312 31.625V29.5625H491.25V31.625C491.25 32.75 490.812 33.4375 489.938 33.6875C489.188 34.0625 487.812 34.1875 485.812 34.0625C484.812 34.4375 484.375 34.125 484.5 33.125C484.625 31.5 484.75 28.875 484.875 25.25ZM486.188 43.625C485.438 43.875 484.938 44.125 484.688 44.375C484.188 44.875 483.75 45.0625 483.375 44.9375C483.125 44.8125 482.875 44.4375 482.625 43.8125C481.625 41.4375 481 39.5 480.75 38C480.375 37.25 480.875 36.8125 482.25 36.6875C486.875 36.3125 494.5 35.1875 505.125 33.3125C505.875 33.1875 506.312 33.3125 506.438 33.6875C506.438 34.0625 506.125 34.375 505.5 34.625C502.25 36.375 496.625 38.9375 488.625 42.3125C487.5 42.9375 486.688 43.375 486.188 43.625ZM496.312 19.4375H491.25V28.0625H496.312V19.4375ZM564.375 20H559.5C557.25 22.25 554.812 24.3125 552.188 26.1875H558.188C559.438 24.3125 560.5 23.3125 561.375 23.1875C563.75 24.0625 565.875 25.5 567.75 27.5C568 28.125 567.812 28.6875 567.188 29.1875C566.562 29.4375 566.25 29.9375 566.25 30.6875C566.25 32.8125 566.438 37.125 566.812 43.625C566.938 45.25 566.438 46.1875 565.312 46.4375C564.188 46.8125 562.812 47.0625 561.188 47.1875C559.562 47.4375 558.875 46.875 559.125 45.5V42.6875H547.688V43.625C547.688 45.375 547 46.4375 545.625 46.8125C544.5 46.9375 543.188 47.0625 541.688 47.1875C540.438 47.4375 539.875 46.875 540 45.5C540.375 39.875 540.562 35.625 540.562 32.75C537.188 34.375 533.562 35.8125 529.688 37.0625C528.938 37.4375 528.5 37.4375 528.375 37.0625C528.375 36.6875 528.75 36.25 529.5 35.75C533.5 33.125 537.125 30.6875 540.375 28.4375C540.375 27.3125 540.312 26.375 540.188 25.625C539.938 24.625 540.375 24.1875 541.5 24.3125C542.5 24.3125 543.688 24.5 545.062 24.875C545.188 24.875 545.312 24.75 545.438 24.5C547.188 23.125 548.938 21.625 550.688 20H535.688C533.938 20.125 532.062 20.25 530.062 20.375C529.688 20.5 529.438 20.375 529.312 20C529.062 19.875 528.812 19.625 528.562 19.25C528.438 19 528.375 18.8125 528.375 18.6875C528.125 18.4375 528.062 18.3125 528.188 18.3125C528.188 18.1875 528.375 18.125 528.75 18.125C529.875 18.5 532.375 18.625 536.25 18.5H546.188V11.1875H540.188C537.438 11.1875 535.562 11.3125 534.562 11.5625C534.188 11.6875 533.875 11.5 533.625 11C533.375 10.875 533.125 10.625 532.875 10.25C532.75 10 532.688 9.8125 532.688 9.6875C532.438 9.3125 532.562 9.1875 533.062 9.3125C535.312 9.5625 537.875 9.6875 540.75 9.6875H546.188C546.188 6.0625 546 3.5625 545.625 2.1875C545.375 1.1875 545.875 0.6875 547.125 0.6875C548.25 0.8125 549.5 0.875 550.875 0.875C552.25 1 553.312 1.125 554.062 1.25C555.062 1.875 555.125 2.625 554.25 3.5C553.875 3.75 553.688 4.25 553.688 5V9.3125C554.938 6.9375 555.875 5.75 556.5 5.75C557.125 6 558.438 6.875 560.438 8.375C561.188 7.125 561.938 5.8125 562.688 4.4375C563.062 3.5625 563.812 3.3125 564.938 3.6875C566.312 4.4375 568.188 5.6875 570.562 7.4375C571.062 8.0625 571.188 8.625 570.938 9.125C570.812 9.625 570.438 9.8125 569.812 9.6875C568.812 9.8125 567.938 10.3125 567.188 11.1875C565.062 14.0625 563 16.5 561 18.5H565.688C567.438 15.5 568.688 14 569.438 14C570.938 14.5 572.875 16 575.25 18.5C575.5 19 575.562 19.4375 575.438 19.8125C575.188 20.1875 574.875 20.3125 574.5 20.1875C573.625 20.1875 572.375 20.1875 570.75 20.1875C569.5 20.0625 567.375 20 564.375 20ZM547.688 35V41.1875H559.125V35H547.688ZM559.125 27.6875H550.125L547.688 29V33.5H559.125V27.6875ZM558.562 11.1875H553.688V17C555.312 15.25 556.938 13.3125 558.562 11.1875ZM607.312 38V20H598.875C597.625 20.125 596.438 20.25 595.312 20.375C595.062 20.5 594.75 20.5 594.375 20.375C594.375 20.375 594.375 20.3125 594.375 20.1875C593.875 19.8125 593.562 19.375 593.438 18.875C593.188 18.75 593.062 18.625 593.062 18.5C593.188 18.375 593.375 18.3125 593.625 18.3125C595 18.5625 596.938 18.6875 599.438 18.6875H615C616.75 16.1875 617.875 14.9375 618.375 14.9375C619.5 15.3125 621 16.5625 622.875 18.6875C623.25 19.1875 623.375 19.625 623.25 20C623.125 20.25 622.812 20.3125 622.312 20.1875C619.812 20.3125 617.75 20.25 616.125 20C616.25 20.375 616.062 20.75 615.562 21.125C614.938 21.375 614.625 21.8125 614.625 22.4375V32C614.625 33.625 614.625 35.5 614.625 37.625C614.75 39.75 614.875 41.1875 615 41.9375C615.125 44.1875 614.5 45.5625 613.125 46.0625C613 46.0625 612.875 46.0625 612.75 46.0625C610.75 46.8125 609.125 47.25 607.875 47.375C606.25 47.625 605.375 47.25 605.25 46.25C605.125 44.375 604 43.0625 601.875 42.3125C600.625 41.8125 600.188 41.375 600.562 41C600.562 41 601.188 40.9375 602.438 40.8125C605.938 40.9375 607.562 40 607.312 38ZM591.375 23.375V35.9375C591.25 36.9375 591.25 38.1875 591.375 39.6875C591.5 40.9375 591.562 42.0625 591.562 43.0625C591.688 44.8125 591.125 45.9375 589.875 46.4375C588.75 46.6875 587.5 46.9375 586.125 47.1875C585 47.3125 584.312 47.25 584.062 47C583.812 46.75 583.75 46.1875 583.875 45.3125C584 41.8125 584.125 38.8125 584.25 36.3125V26.1875C582.25 27.6875 580.25 29 578.25 30.125C577.75 30.375 577.438 30.4375 577.312 30.3125C577.188 30.0625 577.312 29.75 577.688 29.375C582.562 24.25 586.312 18.125 588.938 11C589.062 10.125 589.562 9.8125 590.438 10.0625C591.312 10.5625 592.812 11.375 594.938 12.5C595.312 12.75 595.688 12.9375 596.062 13.0625C596.562 13.4375 596.812 13.875 596.812 14.375C596.812 14.75 596.5 15 595.875 15.125C595 15.375 594.312 15.8125 593.812 16.4375C593.438 16.9375 593.062 17.375 592.688 17.75C592.562 18.125 592.062 18.75 591.188 19.625C591.188 19.625 591.25 19.6875 591.375 19.8125C591.5 19.9375 591.625 19.9375 591.75 19.8125C592.75 20.3125 592.938 20.9375 592.312 21.6875C591.562 21.9375 591.25 22.5 591.375 23.375ZM589.875 0.5C592 2 593.688 3.25 594.938 4.25C595.312 4.75 595.438 5.25 595.312 5.75C595.188 6.125 594.875 6.3125 594.375 6.3125C593.5 6.3125 592.812 6.5625 592.312 7.0625C587.812 10.8125 583.125 13.9375 578.25 16.4375C577.75 16.6875 577.5 16.6875 577.5 16.4375C577.375 16.1875 577.5 15.875 577.875 15.5C582.5 11 585.938 6.1875 588.188 1.0625C588.438 0.5625 589 0.375 589.875 0.5ZM610.5 7.8125H602.062C600.688 7.9375 599.5 8.0625 598.5 8.1875C598.25 8.1875 598 8.125 597.75 8C597.625 8 597.562 7.9375 597.562 7.8125C597.188 7.4375 596.938 7.0625 596.812 6.6875C596.688 6.4375 596.625 6.3125 596.625 6.3125C596.75 6.1875 596.938 6.125 597.188 6.125C598.688 6.375 600.5 6.5 602.625 6.5H612C613.5 4.125 614.562 2.9375 615.188 2.9375C616.312 3.3125 617.875 4.5 619.875 6.5C620.25 7 620.375 7.375 620.25 7.625C620.125 7.875 619.75 8 619.125 8C618.375 8 617.312 8 615.938 8C614.562 8 612.75 7.9375 610.5 7.8125ZM649.688 34.8125H642.375V37.625C644.75 37.5 647.188 37.25 649.688 36.875H649.875C652.125 32.75 653.438 25.625 653.812 15.5H653.25C652.375 15.625 651.438 15.75 650.438 15.875C650.062 16 649.75 15.875 649.5 15.5C649.125 15 648.938 14.625 648.938 14.375C648.812 14.25 648.75 14.125 648.75 14C648.75 13.875 648.875 13.8125 649.125 13.8125C650.375 14.0625 651.938 14.1875 653.812 14.1875C653.812 12.5625 653.812 10.9375 653.812 9.3125C653.688 6.5625 653.562 4.3125 653.438 2.5625C653.062 1.3125 653.5 0.8125 654.75 1.0625C655.875 1.1875 657 1.375 658.125 1.625C659.125 1.75 660.375 1.9375 661.875 2.1875C662.375 2.3125 662.688 2.625 662.812 3.125C662.938 3.625 662.75 4 662.25 4.25C661.5 4.625 661.125 5.4375 661.125 6.6875C661.125 7.6875 661.062 9 660.938 10.625C660.812 12.25 660.812 13.4375 660.938 14.1875H662.062C662.812 12.4375 663.5 11.5 664.125 11.375C665.75 11.75 668.062 12.8125 671.062 14.5625C671.562 15.4375 671.5 16.125 670.875 16.625C669.75 17.125 669.25 17.625 669.375 18.125C669.375 27.25 669.062 34.75 668.438 40.625C668.188 42 667.562 43.25 666.562 44.375C664.938 45.375 663.062 46.1875 660.938 46.8125C659.438 47.0625 658.625 46.75 658.5 45.875C658.375 43.625 657.062 42.125 654.562 41.375C654.062 41.375 653.688 41.25 653.438 41C650.938 43.125 647.062 45.1875 641.812 47.1875C641.188 47.3125 640.75 47.25 640.5 47C640.25 46.625 640.438 46.3125 641.062 46.0625C643.938 43.9375 646.438 41.6875 648.562 39.3125C644.938 40.4375 639.312 42.0625 631.688 44.1875C630.562 44.4375 629.812 44.875 629.438 45.5C628.438 46.375 627.75 46.3125 627.375 45.3125C626.75 43.5625 626.188 41.6875 625.688 39.6875C625.438 38.8125 625.812 38.375 626.812 38.375C630.312 38.5 633.25 38.4375 635.625 38.1875V34.8125H631.875C630.875 34.9375 629.812 35.0625 628.688 35.1875C628.188 35.3125 627.875 35.1875 627.75 34.8125C627.375 34.4375 627.125 34.0625 627 33.6875C626.875 33.5625 626.812 33.4375 626.812 33.3125C626.812 33.1875 626.938 33.125 627.188 33.125C627.188 33.25 627.25 33.3125 627.375 33.3125C629 33.5625 630.75 33.625 632.625 33.5H635.625V28.4375H633.938C633.688 29.5625 633.25 30.1875 632.625 30.3125C631.25 30.6875 630.062 30.875 629.062 30.875C627.312 31.25 626.688 30.6875 627.188 29.1875C627.188 28.5625 627.188 27.3125 627.188 25.4375C627.188 24.4375 627.188 23.375 627.188 22.25C627.312 21 627.375 19.625 627.375 18.125C627.375 17.125 627.312 16.3125 627.188 15.6875C626.812 14.6875 627.312 14.3125 628.688 14.5625C630.562 15.0625 632.375 15.5625 634.125 16.0625C634.125 16.1875 634.188 16.25 634.312 16.25C634.438 16.375 634.562 16.4375 634.688 16.4375H635.625V12.875H630.938C629.812 13 628.688 13.125 627.562 13.25C627.062 13.375 626.75 13.25 626.625 12.875C626.125 12.5 625.812 12.125 625.688 11.75C625.438 11.625 625.312 11.5 625.312 11.375C625.438 11.25 625.625 11.1875 625.875 11.1875C626.5 11.3125 627.5 11.4375 628.875 11.5625C630.375 11.5625 631.5 11.5625 632.25 11.5625H635.625V7.625C633.375 7.875 630.25 7.9375 626.25 7.8125C625.625 7.8125 625.312 7.6875 625.312 7.4375C625.312 7.1875 625.562 6.9375 626.062 6.6875C632.438 5.5625 638.812 3.5625 645.188 0.6875C645.812 0.3125 646.438 0.375 647.062 0.875C648.812 2.625 650.375 4.1875 651.75 5.5625C652 5.9375 652 6.375 651.75 6.875C651.375 7.25 651 7.3125 650.625 7.0625C650 6.8125 649.125 6.75 648 6.875C647.5 6.875 646.75 6.9375 645.75 7.0625C644.25 7.1875 643.125 7.25 642.375 7.25V11.5625H644.625C645.75 9.6875 646.625 8.5625 647.25 8.1875C647.625 8.1875 648.938 9.125 651.188 11C651.312 11.125 651.5 11.25 651.75 11.375C652 11.75 652.062 12.125 651.938 12.5C651.812 12.75 651.562 12.875 651.188 12.875H642.375V16.4375H643.5C643.5 16.4375 643.562 16.3125 643.688 16.0625C644.438 14.6875 645 14 645.375 14C648.125 14.875 650.25 15.9375 651.75 17.1875C652 17.8125 651.875 18.25 651.375 18.5C650.75 18.75 650.438 19.125 650.438 19.625C650.438 21.625 650.438 24.1875 650.438 27.3125C650.562 28.4375 650.125 29.125 649.125 29.375C648 29.625 646.875 29.75 645.75 29.75C644.5 30 643.875 29.5625 643.875 28.4375H642.375V33.5H643.312C644.562 31.5 645.375 30.4375 645.75 30.3125C646.875 30.4375 648.438 31.4375 650.438 33.3125C650.688 33.6875 650.75 34.0625 650.625 34.4375C650.5 34.6875 650.188 34.8125 649.688 34.8125ZM662.438 15.5H660.938C660.312 28.25 658.188 36.4375 654.562 40.0625C656.438 40.0625 657.938 40.0625 659.062 40.0625C660.312 40.0625 661.062 39.4375 661.312 38.1875C661.812 32.1875 662.188 24.625 662.438 15.5ZM633.938 23.1875V27.125H635.625V23.1875H633.938ZM633.938 18.6875V21.6875H635.625V17.9375H634.125C633.875 18.1875 633.812 18.4375 633.938 18.6875ZM642.375 23.1875V27.125H643.875V23.1875H642.375ZM643.875 17.9375H642.375V21.6875H643.875V17.9375ZM701.812 27.875H706.688C707.438 26.5 708.188 25.75 708.938 25.625C710.562 26 712.562 27.0625 714.938 28.8125C715.812 29.8125 715.688 30.625 714.562 31.25C713.938 31.375 713.438 31.8125 713.062 32.5625C711.688 34.8125 710.312 36.6875 708.938 38.1875C711.188 39.4375 714.375 40.1875 718.5 40.4375C719.25 40.4375 719.625 40.625 719.625 41C719.875 41 719.562 41.3125 718.688 41.9375C716.938 42.9375 715.5 44.375 714.375 46.25C713.75 47.25 712.875 47.5625 711.75 47.1875C708.625 46.0625 706 44.375 703.875 42.125C699.875 44.625 694.75 46.4375 688.5 47.5625C687.75 47.5625 687.375 47.4375 687.375 47.1875C687.25 46.8125 687.5 46.5 688.125 46.25C693.5 43.875 697.812 41.25 701.062 38.375C700.062 36.75 699.312 34.875 698.812 32.75C695.938 36.375 692.812 39.125 689.438 41C688.812 41.125 688.375 41.1875 688.125 41.1875C688 41.0625 688.125 40.875 688.5 40.625C692.125 35.875 694.312 31.125 695.062 26.375C694.938 26.5 694.812 26.625 694.688 26.75C694.438 26.875 694.312 26.9375 694.312 26.9375C693.188 27.5625 692.438 27.3125 692.062 26.1875C691.438 25.1875 690.938 23.875 690.562 22.25C690.188 21.125 690.625 20.5625 691.875 20.5625C693.875 20.5625 695.5 20 696.75 18.875C699.25 16.875 701.438 15.0625 703.312 13.4375C698.688 14.5625 696 15.5 695.25 16.25C694.625 16.875 694.125 17.125 693.75 17C693.5 16.875 693.25 16.4375 693 15.6875C692.875 15.5625 692.75 15.375 692.625 15.125C692.375 14.625 692.062 13.5625 691.688 11.9375C691.312 11.3125 691.625 10.9375 692.625 10.8125C694.25 10.5625 695.375 9.9375 696 8.9375C697.625 6.9375 698.938 4.3125 699.938 1.0625C699.938 0.4375 700.375 0.25 701.25 0.5C703.125 1.25 705.188 2.25 707.438 3.5C707.938 3.875 708.188 4.3125 708.188 4.8125C708.188 5.3125 707.875 5.5 707.25 5.375C706.375 5.375 705.625 5.625 705 6.125C702.5 8.125 700.25 9.75 698.25 11C700.25 11 702.688 11 705.562 11C706.812 9.625 707.875 8.1875 708.75 6.6875C709.25 5.8125 710 5.5625 711 5.9375C712.875 7.0625 714.75 8.3125 716.625 9.6875C717.125 10.1875 717.375 10.6875 717.375 11.1875C717.25 11.6875 716.938 11.9375 716.438 11.9375C715.438 11.9375 714.625 12.125 714 12.5C710.25 15.25 705.25 18 699 20.75C701.125 20.875 704.375 20.8125 708.75 20.5625C709.5 20.5625 710.125 20.5 710.625 20.375C710 19.5 709.375 18.625 708.75 17.75C708.5 17.5 708.438 17.3125 708.562 17.1875C708.688 17.0625 708.938 16.9375 709.312 16.8125C713.812 17.5625 716.75 19 718.125 21.125C718.875 23.375 718.375 25.0625 716.625 26.1875C714.125 27.0625 712.562 26.3125 711.938 23.9375C711.688 23.5625 711.562 23.125 711.562 22.625C707.688 23.25 704.562 23.8125 702.188 24.3125C702.562 24.5625 702.938 24.6875 703.312 24.6875C703.812 25.0625 704.062 25.4375 704.062 25.8125C704.062 26.1875 703.875 26.4375 703.5 26.5625C702.75 26.8125 702.188 27.25 701.812 27.875ZM686.438 24.6875V36.5C686.312 38.875 686.375 41.1875 686.625 43.4375C686.75 45.1875 686.188 46.25 684.938 46.625C683.938 47 682.75 47.25 681.375 47.375C679.375 47.625 678.562 46.9375 678.938 45.3125C679.062 43.9375 679.188 42.5 679.312 41C679.312 39.5 679.375 38.1875 679.5 37.0625V26.5625C678 27.5625 676.25 28.5625 674.25 29.5625C673.75 29.8125 673.438 29.875 673.312 29.75C673.188 29.5 673.312 29.1875 673.688 28.8125C679.438 22.8125 683 17.0625 684.375 11.5625C684.625 10.6875 685.062 10.4375 685.688 10.8125C686.688 11.1875 688.125 12.0625 690 13.4375C690.5 13.6875 691 13.9375 691.5 14.1875C692 14.8125 692.25 15.3125 692.25 15.6875C692.25 16.0625 691.938 16.25 691.312 16.25C690.562 16.5 689.875 16.9375 689.25 17.5625C688.75 18.1875 688.312 18.6875 687.938 19.0625C687.688 19.4375 687.125 20.125 686.25 21.125C686.375 21.375 686.562 21.4375 686.812 21.3125C687.812 21.8125 687.938 22.4375 687.188 23.1875C686.562 23.5625 686.312 24.0625 686.438 24.6875ZM684.375 1.0625C686.375 2.1875 688.188 3.3125 689.812 4.4375C690.312 4.9375 690.562 5.375 690.562 5.75C690.438 6.25 690.125 6.5 689.625 6.5C688.75 6.75 688.062 7.125 687.562 7.625C684.062 11.375 679.688 14.375 674.438 16.625C673.938 16.875 673.625 16.875 673.5 16.625C673.375 16.375 673.5 16.0625 673.875 15.6875C678 12.0625 681 7.4375 682.875 1.8125C683.125 0.9375 683.625 0.6875 684.375 1.0625ZM706.5 29.375H701.062C700.562 30.125 700.062 30.875 699.562 31.625C699.688 31.75 699.875 31.9375 700.125 32.1875C701.25 33.1875 702.375 34.1875 703.5 35.1875C704.5 33.4375 705.5 31.5 706.5 29.375ZM730.5 47.9375L728.625 46.4375C728.75 46.1875 728.875 45.9375 729 45.6875C731.5 42.9375 732.875 40.75 733.125 39.125C732.875 39.125 732.688 39.125 732.562 39.125C732.438 39.25 732.312 39.3125 732.188 39.3125C729.688 39.1875 728.375 37.8125 728.25 35.1875C728.375 32.8125 729.688 31.5 732.188 31.25C734.688 31.5 736.062 33.25 736.312 36.5C736.312 39.5 734.375 43.3125 730.5 47.9375ZM802.688 19.625V23.1875C802.688 22.8125 803.062 22.8125 803.812 23.1875C808.688 25.0625 812.188 28.0625 814.312 32.1875C815.062 35.6875 814.125 38 811.5 39.125C808.875 39.625 807.312 38.125 806.812 34.625C806.312 31.125 805.062 27.625 803.062 24.125C802.812 24 802.688 23.8125 802.688 23.5625V25.8125C802.562 32.6875 802.625 37.625 802.875 40.625C803.125 42.875 802.438 44.5 800.812 45.5C798.938 46.5 797.062 47.125 795.188 47.375C793.562 47.625 792.688 47.25 792.562 46.25C792.188 44.125 791.125 42.8125 789.375 42.3125C788.375 41.9375 787.938 41.5625 788.062 41.1875C787.938 41.0625 788.562 41 789.938 41C793.938 41.625 795.75 40.375 795.375 37.25V24.875C795.375 25.125 795.188 25.25 794.812 25.25C794.188 25.5 793.875 25.875 793.875 26.375C791.875 32.625 788.438 37.3125 783.562 40.4375C782.938 40.8125 782.562 40.9375 782.438 40.8125C782.312 40.6875 782.438 40.3125 782.812 39.6875C784.562 35.6875 785.812 32.0625 786.562 28.8125C786.562 28.6875 786.562 28.375 786.562 27.875C786.938 26.5 787.188 25 787.312 23.375C787.438 22.375 787.938 21.9375 788.812 22.0625C790.688 22.3125 792.688 22.8125 794.812 23.5625C795.188 23.9375 795.375 24.125 795.375 24.125V23.5625C795.25 22.0625 795.188 20.625 795.188 19.25C795.062 17.875 794.938 16.875 794.812 16.25C794.438 14.875 794.938 14.3125 796.312 14.5625C798.062 14.8125 800.312 15.1875 803.062 15.6875C804.312 16.4375 804.5 17.1875 803.625 17.9375C802.875 18.3125 802.562 18.875 802.688 19.625ZM781.5 18.125V35.75C781.375 39.25 781.438 41.75 781.688 43.25C781.938 44.875 781.375 45.9375 780 46.4375C778.75 46.8125 777.438 47.125 776.062 47.375C773.938 48 773.188 46.875 773.812 44C773.812 43.375 773.812 42.4375 773.812 41.1875C774.188 35.6875 774.375 31.5625 774.375 28.8125V22.625C772.625 24.75 770.875 26.4375 769.125 27.6875C768.75 28.0625 768.5 28.125 768.375 27.875C768.25 27.625 768.312 27.25 768.562 26.75C771.562 20.75 773.938 14.5625 775.688 8.1875C776.312 6.4375 776.75 4.1875 777 1.4375C776.875 0.6875 777.375 0.3125 778.5 0.3125C780 0.6875 782.5 1.4375 786 2.5625C786.75 3.3125 786.75 4.0625 786 4.8125C785.125 5.1875 784.625 5.5625 784.5 5.9375C782.875 9.1875 781.438 12 780.188 14.375C780.312 14.375 780.562 14.4375 780.938 14.5625C781.312 14.5625 781.562 14.5625 781.688 14.5625C782.562 15.1875 782.688 15.8125 782.062 16.4375C781.562 16.8125 781.375 17.375 781.5 18.125ZM804.938 17.375L806.25 12.875H793.875C791.125 17.25 787.625 20.8125 783.375 23.5625C783 23.8125 782.75 23.8125 782.625 23.5625C782.5 23.4375 782.562 23.125 782.812 22.625C786.062 17.625 788.375 12.4375 789.75 7.0625C790 6.0625 790.188 5.125 790.312 4.25C790.562 3.25 790.688 2.3125 790.688 1.4375C790.688 0.5625 791.188 0.25 792.188 0.5C793.312 0.625 795.25 1.125 798 2C798.25 2.125 798.562 2.1875 798.938 2.1875C799.312 2.4375 799.562 2.8125 799.688 3.3125C799.562 3.8125 799.312 4.0625 798.938 4.0625C798.062 4.4375 797.562 4.9375 797.438 5.5625C796.562 7.6875 795.688 9.625 794.812 11.375H805.312C806.188 9.375 807.125 8.1875 808.125 7.8125C810 8.1875 812.188 9.625 814.688 12.125C815.312 12.75 815.562 13.4375 815.438 14.1875C815.312 14.9375 814.688 15.3125 813.562 15.3125C810.562 15.0625 808.062 16 806.062 18.125C805.562 18.5 805.188 18.625 804.938 18.5C804.812 18.375 804.812 18 804.938 17.375ZM829.125 23.375V33.5C829.125 37.375 832.25 39.5625 838.5 40.0625C840.75 40.3125 844.062 40.375 848.438 40.25C853.438 40.125 857.562 39.9375 860.812 39.6875C862.438 39.5625 863.312 39.5625 863.438 39.6875C863.562 39.9375 863.312 40.375 862.688 41C861.438 41.625 860.5 42.9375 859.875 44.9375C859.75 45.8125 859 46.375 857.625 46.625C848.875 46.875 842.688 46.6875 839.062 46.0625C834.312 45.1875 830.688 43.125 828.188 39.875C827.562 39 826.75 39 825.75 39.875C824 41.375 822.938 43 822.562 44.75C821.938 46.375 821.188 46.75 820.312 45.875C820.062 45.5 819.625 44.9375 819 44.1875C817.5 42.3125 816.625 41.1875 816.375 40.8125C816.125 39.9375 816.375 39.1875 817.125 38.5625C820.5 37.0625 822.188 35.3125 822.188 33.3125V20.9375H820.312C819.562 21.0625 818.812 21.1875 818.062 21.3125C817.438 21.4375 817.125 21.375 817.125 21.125C816.875 20.625 816.625 20.125 816.375 19.625C816.25 19.5 816.188 19.375 816.188 19.25C816.312 19.125 816.5 19.0625 816.75 19.0625C817.375 19.3125 818.625 19.4375 820.5 19.4375H821.438C821.438 19.4375 821.562 19.25 821.812 18.875C823.062 17.125 823.938 16.25 824.438 16.25C827.188 17.125 829.312 18.5 830.812 20.375C830.812 20.875 830.562 21.375 830.062 21.875C829.938 21.875 829.875 21.875 829.875 21.875C829.25 22.125 829 22.625 829.125 23.375ZM842.062 24.6875H841.125C841 25.3125 840.688 25.6875 840.188 25.8125C840.188 25.9375 839.25 26.125 837.375 26.375C835.75 26.75 835.125 26.25 835.5 24.875C835.5 24.75 835.5 24.1875 835.5 23.1875C835.625 21.8125 835.688 20.875 835.688 20.375C835.688 20.25 835.625 19.8125 835.5 19.0625C835.375 18.3125 835.375 17.8125 835.5 17.5625C835.375 17.1875 835.375 16.9375 835.5 16.8125C835.625 16.6875 836.062 16.625 836.812 16.625C838.188 16.875 839.75 17.25 841.5 17.75C841.625 17.875 841.75 18 841.875 18.125H851.438C851.938 17 852.438 16.3125 852.938 16.0625C855.312 16.9375 857.125 17.875 858.375 18.875C858.625 19.5 858.5 19.9375 858 20.1875C857.375 20.4375 857.062 20.8125 857.062 21.3125C857.062 22.4375 857.125 23.375 857.25 24.125C857.25 25 856.875 25.5625 856.125 25.8125C856 25.8125 855.875 25.875 855.75 26C855.625 26.125 855.562 26.125 855.562 26C856.312 26.375 857.438 27.0625 858.938 28.0625C859.312 28.1875 859.562 28.25 859.688 28.25C859.938 28.5 860.062 28.8125 860.062 29.1875C859.812 29.5625 859.562 29.6875 859.312 29.5625C858.812 29.4375 858.188 29.5 857.438 29.75C856.812 30 855.938 30.25 854.812 30.5C854.562 30.5 854.438 30.5 854.438 30.5C855.562 31.125 856.625 31.625 857.625 32C859.875 33.625 860.438 35.5625 859.312 37.8125C857.438 39.4375 855.688 39.1875 854.062 37.0625C852.688 35.1875 850 32.9375 846 30.3125V30.5C846 31.375 846 32.5 846 33.875C846.125 35.125 846.188 36.0625 846.188 36.6875C846.188 37.9375 845.625 38.6875 844.5 38.9375C843.25 39.3125 842 39.5 840.75 39.5C839.75 39.625 839.375 39.125 839.625 38C839.75 37.25 839.875 36.1875 840 34.8125C840 33.5625 840.062 32.25 840.188 30.875C837.312 32.25 834.125 33.25 830.625 33.875C830 34 829.625 33.9375 829.5 33.6875C829.375 33.4375 829.562 33.125 830.062 32.75C835.938 30.25 839.938 27.5625 842.062 24.6875ZM862.312 15.875H835.125C833.75 15.875 832.812 15.9375 832.312 16.0625C831.812 16.3125 831.5 16.25 831.375 15.875C831.25 15.875 831.188 15.75 831.188 15.5C830.938 15 830.75 14.625 830.625 14.375C830.375 14 830.5 13.8125 831 13.8125C831 13.9375 831.125 14 831.375 14C833.625 14.375 835.125 14.5 835.875 14.375H856.5C856.625 14.25 856.812 13.9375 857.062 13.4375C857.312 13.0625 857.562 12.75 857.812 12.5C857.562 12.625 857.25 12.6875 856.875 12.6875C856.25 12.9375 855.625 13 855 12.875C853.875 13.125 853.312 12.75 853.312 11.75H840.188C839.938 12.375 839.562 12.75 839.062 12.875C838.812 13.125 837.938 13.3125 836.438 13.4375C834.812 13.8125 834.188 13.3125 834.562 11.9375C834.688 10.5625 834.75 8.5 834.75 5.75C834.75 5.625 834.688 5.25 834.562 4.625C834.562 3.875 834.562 3.3125 834.562 2.9375C834.312 2.4375 834.312 2.0625 834.562 1.8125C834.688 1.6875 835.125 1.6875 835.875 1.8125C837.25 2.0625 838.812 2.5 840.562 3.125C840.688 3.25 840.812 3.375 840.938 3.5H853.125C853.625 2.375 854.125 1.6875 854.625 1.4375C857.125 2.1875 859.062 3.125 860.438 4.25C860.562 5 860.375 5.4375 859.875 5.5625C859.375 5.8125 859.125 6.1875 859.125 6.6875C859.125 6.8125 859.062 6.9375 858.938 7.0625C858.938 8.6875 859 9.8125 859.125 10.4375C859.125 11.0625 859.062 11.4375 858.938 11.5625C860.312 12.0625 861.562 13.0625 862.688 14.5625C862.938 15.3125 862.812 15.75 862.312 15.875ZM822.562 10.0625C822.438 8.0625 821.75 6.0625 820.5 4.0625C820.25 3.6875 820.125 3.375 820.125 3.125C820.25 3 820.562 2.875 821.062 2.75C825.812 2.75 828.812 4.0625 830.062 6.6875C831.062 9.3125 830 11.25 826.875 12.5C824.375 13.125 822.938 12.3125 822.562 10.0625ZM851.625 19.625H841.312C841.062 19.75 841 20.0625 841.125 20.5625V23.1875H851.625V19.625ZM851.625 24.875V24.6875H849.188C848.188 25.8125 847.125 26.8125 846 27.6875V28.4375C848.125 28.8125 850.062 29.25 851.812 29.75C852.688 28.625 853.375 27.5 853.875 26.375C853.625 26.375 853.438 26.375 853.312 26.375C851.938 26.625 851.375 26.125 851.625 24.875ZM846 4.8125V10.25H847.5V4.8125H846ZM853.312 4.8125H851.812V10.25H853.312V4.8125ZM840.188 5.9375V10.25H841.688V4.8125H840.562C840.312 5.1875 840.188 5.5625 840.188 5.9375ZM895.125 15.5H875.812C875.438 15.625 875.062 15.75 874.688 15.875C874.188 16.125 873.812 16.25 873.562 16.25C875.062 16.75 876.5 17.25 877.875 17.75H895.688C896.688 16.125 897.5 15.3125 898.125 15.3125C901.375 16.4375 903.688 17.75 905.062 19.25C905.062 19.875 904.75 20.3125 904.125 20.5625C903.625 20.9375 903.438 21.4375 903.562 22.0625C903.438 23.6875 903.5 25.125 903.75 26.375C903.75 27 903.812 27.5 903.938 27.875C903.938 29.125 903.562 29.875 902.812 30.125C902.062 30.625 900.938 31 899.438 31.25C901.312 32 902.688 32.8125 903.562 33.6875C903.438 34.4375 903.125 34.9375 902.625 35.1875C902.125 35.4375 901.938 35.8125 902.062 36.3125C901.938 39.8125 902 42.25 902.25 43.625C902.375 45.25 901.875 46.125 900.75 46.25C899 46.625 897.375 46.875 895.875 47C894.625 47.125 894.062 46.625 894.188 45.5V44.1875H879.75V44.9375C879.75 45.8125 879.438 46.3125 878.812 46.4375C877.438 46.8125 875.875 47.0625 874.125 47.1875C872.375 47.4375 871.75 46.75 872.25 45.125C872.25 44.75 872.25 43.8125 872.25 42.3125C872.375 40.3125 872.438 38.875 872.438 38C872.438 37.25 872.375 35.9375 872.25 34.0625C872.25 33.0625 872.25 32.375 872.25 32C872 31.75 871.938 31.5 872.062 31.25C871.812 31.25 871.688 31.25 871.688 31.25C870.188 31.5 869.562 30.8125 869.812 29.1875C869.812 28.9375 869.812 28.5625 869.812 28.0625C870.062 25.5625 870.188 23.5625 870.188 22.0625C870.188 20.4375 870.125 19.4375 870 19.0625C870 18.4375 870 17.9375 870 17.5625C869.375 17.8125 868.625 18 867.75 18.125C866.875 18.375 866.188 18.5625 865.688 18.6875C865.062 18.8125 864.625 18.75 864.375 18.5C864.375 18.25 864.625 17.9375 865.125 17.5625C873.75 12.8125 879.062 7.625 881.062 2C881.188 1 881.875 0.5625 883.125 0.6875C885.25 1.0625 887.812 1.75 890.812 2.75C891.438 3.125 891.75 3.625 891.75 4.25C891.75 4.75 891.438 5.0625 890.812 5.1875C890.688 5.1875 890.562 5.25 890.438 5.375C890.312 5.5 890.188 5.5 890.062 5.375C896.562 9.625 903.375 11.1875 910.5 10.0625C911.125 10.1875 911.5 10.4375 911.625 10.8125C911.75 11.3125 911.5 11.6875 910.875 11.9375C909.25 13.0625 908.062 14.75 907.312 17C907.188 18 906.375 18.1875 904.875 17.5625C898.125 15.5625 892.812 11.8125 888.938 6.3125C888.688 6.4375 888.438 6.625 888.188 6.875C888.188 7 888.188 7.0625 888.188 7.0625C886.062 9.6875 883 12 879 14H888.188C889.312 12 890.375 10.875 891.375 10.625C892.125 10.75 893.438 11.75 895.312 13.625C895.688 14.125 895.875 14.5625 895.875 14.9375C895.875 15.3125 895.625 15.5 895.125 15.5ZM880.688 32.375H893.438C894.188 30.875 894.938 30.0625 895.688 29.9375C895.938 29.9375 896.188 29.9375 896.438 29.9375V29H877.125C876.875 29.75 876.438 30.1875 875.812 30.3125C875.438 30.5625 875.062 30.6875 874.688 30.6875C876.562 31.3125 878.375 31.75 880.125 32C880.125 32.125 880.188 32.1875 880.312 32.1875C880.438 32.3125 880.562 32.375 880.688 32.375ZM879.75 39.125V42.6875H894.188V39.125H879.75ZM894.188 33.875H880.125C879.875 34.125 879.75 34.5 879.75 35V37.8125H894.188V33.875ZM896.438 20.9375V19.25H890.25V27.6875H890.438C890.312 27.5625 890.375 27.3125 890.625 26.9375C890.875 25.8125 891.062 24.75 891.188 23.75C891.312 22.75 891.375 21.75 891.375 20.75C891.25 20.125 891.625 19.875 892.5 20C893.75 20.25 895.062 20.5625 896.438 20.9375ZM877.125 20.5625V27.6875H883.5V25.0625C883.25 26.0625 882.562 26.6875 881.438 26.9375C879.312 27.5625 878.25 26.75 878.25 24.5C878.25 23.375 877.875 22.0625 877.125 20.5625ZM891.75 27.6875H896.438V23C895.938 23.25 895.625 23.5 895.5 23.75C894.75 24.875 893.5 26.1875 891.75 27.6875ZM883.5 23.75V19.25H878.25C877.625 19.25 877.25 19.4375 877.125 19.8125C877.25 19.8125 877.375 19.8125 877.5 19.8125C880.375 20.3125 882.312 21.375 883.312 23C883.312 23.25 883.312 23.4375 883.312 23.5625C883.312 23.6875 883.375 23.75 883.5 23.75ZM948.938 44.5625H935.625C935.375 44.9375 935.125 45.3125 934.875 45.6875C934.625 45.8125 934.5 45.9375 934.5 46.0625C934.25 46.5625 933.875 46.6875 933.375 46.4375C931.625 45.6875 930.188 44.9375 929.062 44.1875C928.188 43.5625 928.062 42.9375 928.688 42.3125C929.438 41.5625 929.812 40.375 929.812 38.75V32.375C929.562 33.125 928.875 33.6875 927.75 34.0625C926.125 34.5625 925.312 33.8125 925.312 31.8125C925.312 31.6875 925.25 31.4375 925.125 31.0625C925 30.6875 925 30.375 925.125 30.125C921.625 31.625 919.062 33.0625 917.438 34.4375C916.938 35.0625 916.5 35.375 916.125 35.375C915.75 35.375 915.438 35 915.188 34.25C914.312 32.75 913.688 31.25 913.312 29.75C913.062 29.375 913.062 29 913.312 28.625C913.312 28.625 913.688 28.4375 914.438 28.0625C915.812 27.5625 916.812 26.75 917.438 25.625C917.688 25.25 918.062 24.5625 918.562 23.5625C918.938 22.8125 919.25 22.25 919.5 21.875C918.25 22.5 917.312 23.0625 916.688 23.5625C915.812 24.5625 915.062 24.5 914.438 23.375C913.562 22.125 912.938 20.8125 912.562 19.4375C912.312 18.9375 912.312 18.625 912.562 18.5C912.438 18.375 912.5 18.25 912.75 18.125C913 18 913.25 17.8125 913.5 17.5625C914.25 17.3125 915 16.25 915.75 14.375C916.875 10.625 917.688 7.0625 918.188 3.6875C918.188 2.4375 918.75 2 919.875 2.375C921.625 3.125 923.688 4 926.062 5C927.062 5.75 927 6.5 925.875 7.25C925.25 7.375 924.688 7.875 924.188 8.75C922.812 10.75 920.688 13.5 917.812 17C917.562 17.25 917.375 17.5 917.25 17.75H921.188C921.938 15.75 922.5 13.9375 922.875 12.3125C923 11.0625 923.625 10.6875 924.75 11.1875C926.25 12.0625 927.938 13.125 929.812 14.375V12.6875C929.812 10.6875 929.75 9.375 929.625 8.75C929.625 7.875 929.625 7.25 929.625 6.875C929.125 5.75 929.562 5.1875 930.938 5.1875C932.562 5.4375 934.375 5.75 936.375 6.125C937 6.375 937.312 6.6875 937.312 7.0625C937.438 7.4375 937.25 7.75 936.75 8C936.375 8.375 936.188 9.0625 936.188 10.0625V17.9375C936.312 17.8125 936.5 17.75 936.75 17.75C937.125 17.75 937.625 17.5625 938.25 17.1875C939.125 16.3125 939.938 15.3125 940.688 14.1875C940.312 14.4375 939.812 14.6875 939.188 14.9375C938.812 15.0625 938.562 15.125 938.438 15.125C937.562 15.75 937.062 15.625 936.938 14.75C936.812 14.625 936.75 14.4375 936.75 14.1875C936.625 14.0625 936.438 13.5 936.188 12.5C936.062 12 936.312 11.6875 936.938 11.5625C937.188 11.4375 937.5 11.125 937.875 10.625C938.875 9.25 939.812 7.125 940.688 4.25C940.812 3.75 941.125 3.625 941.625 3.875C942.125 4.125 942.938 4.5625 944.062 5.1875C944.562 5.4375 945 5.625 945.375 5.75C945.625 6 945.75 6.3125 945.75 6.6875C945.5 7.0625 945.25 7.1875 945 7.0625C944.5 6.9375 944 7.125 943.5 7.625C942.125 9.375 940.812 10.8125 939.562 11.9375C940.438 11.9375 941.375 11.9375 942.375 11.9375C942.625 11.5625 942.938 11 943.312 10.25C943.438 10 943.562 9.75 943.688 9.5C943.938 9 944.312 8.875 944.812 9.125C945.812 9.625 946.75 10.1875 947.625 10.8125C947.625 10.8125 947.688 10.75 947.812 10.625C947.938 10.5 948.062 10.375 948.188 10.25C949.312 8.25 950.188 6.125 950.812 3.875C950.938 3.375 951.312 3.25 951.938 3.5C953.188 4 954.438 4.625 955.688 5.375C956.188 6.25 956.062 6.6875 955.312 6.6875C954.812 6.5625 954.312 6.75 953.812 7.25C952.438 8.75 951.062 10.25 949.688 11.75C949.938 11.75 950.875 11.75 952.5 11.75C952.625 11.375 952.812 10.9375 953.062 10.4375C953.312 9.8125 953.5 9.375 953.625 9.125C953.75 8.625 954.125 8.5 954.75 8.75C955.625 9.25 956.75 10 958.125 11C958.375 11.375 958.5 11.6875 958.5 11.9375C958.5 12.1875 958.312 12.3125 957.938 12.3125C957.188 12.3125 956.625 12.5 956.25 12.875C955.375 13.75 954.5 14.625 953.625 15.5H954C955.625 15.875 956.875 16.5625 957.75 17.5625C958.5 18.8125 958.5 19.875 957.75 20.75C957.25 21.375 956.562 21.5625 955.688 21.3125C956.938 22.4375 957.875 23.3125 958.5 23.9375C958.75 24.3125 958.812 24.6875 958.688 25.0625C958.562 25.3125 958.312 25.375 957.938 25.25C956.688 25.25 954.688 25.25 951.938 25.25C952.438 25.5 953.312 25.9375 954.562 26.5625C954.812 26.6875 955.125 26.8125 955.5 26.9375C955.75 27.3125 955.812 27.6875 955.688 28.0625C955.562 28.3125 955.375 28.375 955.125 28.25C954.625 28.25 954.125 28.4375 953.625 28.8125C953.375 29.0625 953.062 29.375 952.688 29.75C951.312 31.375 950.312 32.3125 949.688 32.5625H951.938C952.188 32.1875 952.562 31.625 953.062 30.875C953.312 30.5 953.5 30.1875 953.625 29.9375C953.75 29.4375 954.125 29.3125 954.75 29.5625C956 30.1875 957 30.8125 957.75 31.4375C958 31.8125 958.125 32.125 958.125 32.375C958.125 32.625 957.938 32.75 957.562 32.75C956.938 32.75 956.375 32.9375 955.875 33.3125C953.25 35.5625 951.312 37.125 950.062 38C951.312 37.75 952.812 37.5 954.562 37.25C954.312 36.75 954.062 36.3125 953.812 35.9375C953.562 35.8125 953.5 35.6875 953.625 35.5625C953.625 35.4375 953.812 35.375 954.188 35.375C956.062 35.75 957.438 36.4375 958.312 37.4375C958.812 38.8125 958.75 39.9375 958.125 40.8125C957.5 41.1875 956.75 41.25 955.875 41C956.625 41.375 957.625 42.1875 958.875 43.4375C959.25 44.1875 959.062 44.625 958.312 44.75C957.312 44.5 954.188 44.4375 948.938 44.5625ZM943.125 40.4375V40.25C940.875 40.75 939.312 41.25 938.438 41.75C937.938 42 937.625 42.0625 937.5 41.9375C937.25 41.9375 937.125 41.75 937.125 41.375C936.625 40.75 936.312 39.875 936.188 38.75V43.25H950.25C951.375 41.375 952.438 40.25 953.438 39.875C953.812 40 954.5 40.3125 955.5 40.8125C955 40.5625 954.75 40.125 954.75 39.5C954.75 39.25 954.75 39 954.75 38.75C952.375 39.625 950.438 40.5 948.938 41.375C948.188 41.75 947.75 41.625 947.625 41C947.375 41 947 40.1875 946.5 38.5625C946.375 37.9375 946.625 37.625 947.25 37.625C947.75 37.625 948.312 37.3125 948.938 36.6875C949.062 36.5625 949.25 36.25 949.5 35.75C949.75 35.375 950 35.0625 950.25 34.8125C950 34.9375 949.688 35.0625 949.312 35.1875C948.938 35.4375 948.688 35.5625 948.562 35.5625C947.688 36.1875 947.25 36.125 947.25 35.375C946.875 34.75 946.625 34 946.5 33.125C946.25 33 946.188 32.875 946.312 32.75C946.062 33 945.875 33.125 945.75 33.125C945.25 33.625 944.75 34.125 944.25 34.625C943.625 35.25 943.188 35.75 942.938 36.125C942.938 36.125 943.062 36.125 943.312 36.125C944.938 36.75 946 37.75 946.5 39.125C947 40.375 946.875 41.25 946.125 41.75C944.375 42.5 943.375 42.0625 943.125 40.4375ZM929.812 29.9375V16.625C929.812 16.625 929.75 16.625 929.625 16.625C929.125 16.75 928.562 17.3125 927.938 18.3125C925.062 22.3125 922.438 25.5625 920.062 28.0625C921.812 28.1875 923.375 28.125 924.75 27.875C924.375 26.75 924 25.875 923.625 25.25C923.5 24.875 923.5 24.6875 923.625 24.6875C923.75 24.5625 924 24.5625 924.375 24.6875C927 25.5625 928.812 27.3125 929.812 29.9375ZM943.312 20.1875V20C941.188 20.625 939.5 21.25 938.25 21.875C937.75 22.25 937.438 22.375 937.312 22.25C937.062 22.25 936.938 22 936.938 21.5C936.562 21 936.312 20.375 936.188 19.625V23.75H951C952.25 21.625 953.312 20.5 954.188 20.375C954.312 20.375 954.625 20.5625 955.125 20.9375C955 20.9375 954.938 20.875 954.938 20.75C954.562 20.375 954.438 20 954.562 19.625C954.562 19.5 954.562 19.3125 954.562 19.0625C951.688 20.1875 949.812 21.125 948.938 21.875C948.188 22.5 947.75 22.375 947.625 21.5C947.375 21.125 947.25 20.75 947.25 20.375C947.125 21.125 946.812 21.6875 946.312 22.0625C944.562 22.9375 943.562 22.3125 943.312 20.1875ZM913.125 41.75C914.375 41 915.5 39.25 916.5 36.5C916.5 36.25 916.562 36.125 916.688 36.125C916.938 36.125 917.188 36.25 917.438 36.5C918.562 39.75 918.562 42.5 917.438 44.75C916.062 46.5 914.562 46.8125 912.938 45.6875C912.312 45.1875 912.062 44.5625 912.188 43.8125C912.188 42.9375 912.5 42.25 913.125 41.75ZM950.812 25.25H941.812C942.812 25.75 943.812 26.25 944.812 26.75C945.062 27.125 945.188 27.4375 945.188 27.6875C945.188 27.9375 945 28.0625 944.625 28.0625C944 28.0625 943.5 28.25 943.125 28.625C942.625 29.125 942.438 29.3125 942.562 29.1875C941.188 30.9375 940.188 32.0625 939.562 32.5625C940.438 32.5625 941.312 32.5625 942.188 32.5625C942.688 31.6875 943.188 30.75 943.688 29.75C943.812 29.375 944.188 29.25 944.812 29.375C945.562 29.75 946.375 30.3125 947.25 31.0625C947.125 30.9375 947.25 31 947.625 31.25C947.75 31.375 947.875 31.5 948 31.625C947.875 31.625 947.875 31.5625 948 31.4375C948.125 31.4375 948.188 31.375 948.188 31.25C949.438 29.375 950.25 27.4375 950.625 25.4375C950.75 25.4375 950.812 25.375 950.812 25.25ZM919.5 42.3125C919.75 40.3125 919.688 38.1875 919.312 35.9375C919.188 35.6875 919.188 35.5 919.312 35.375C919.312 35.25 919.5 35.25 919.875 35.375C922.5 37.25 923.938 39.3125 924.188 41.5625C924.188 43.4375 923.312 44.5625 921.562 44.9375C920.062 44.9375 919.375 44.0625 919.5 42.3125ZM924.75 40.25C924.5 38.25 923.875 36.5 922.875 35C922.75 34.75 922.688 34.5625 922.688 34.4375C922.812 34.3125 923 34.25 923.25 34.25C926.125 35.125 928 36.5 928.875 38.375C929.375 40.125 928.875 41.25 927.375 41.75C925.875 42.125 925 41.625 924.75 40.25ZM940.125 25.25H936.188V38.5625C936.062 38.1875 936.312 38 936.938 38C937.312 38 937.812 37.8125 938.438 37.4375C938.562 37.1875 938.75 36.9375 939 36.6875C939.375 36.3125 939.875 35.6875 940.5 34.8125C940.125 35.0625 939.562 35.375 938.812 35.75C938.562 35.75 938.438 35.75 938.438 35.75C937.562 36.25 937.062 36.125 936.938 35.375C936.688 34.75 936.438 34 936.188 33.125C936.188 32.75 936.312 32.4375 936.562 32.1875C936.688 32.1875 936.812 32.125 936.938 32C937.312 31.875 937.625 31.625 937.875 31.25C938.625 30 939.375 28 940.125 25.25ZM940.125 18.125C941 18.125 942.062 18.125 943.312 18.125C943.188 17.375 943.062 16.75 942.938 16.25C942.812 16.125 942.812 16 942.938 15.875C943.062 15.75 943.25 15.6875 943.5 15.6875C944.75 16.3125 945.812 17.25 946.688 18.5C946.562 18 946.812 17.75 947.438 17.75C947.812 17.75 948.188 17.5625 948.562 17.1875C949.438 16.0625 950.25 14.9375 951 13.8125C950.625 14.0625 950.125 14.25 949.5 14.375C949.125 14.5 948.812 14.625 948.562 14.75C947.688 15.25 947.188 15.1875 947.062 14.5625C946.938 14.3125 946.812 14 946.688 13.625C946.562 13.25 946.5 12.875 946.5 12.5C946.25 12.625 946 12.75 945.75 12.875C943.125 15.5 941.25 17.25 940.125 18.125ZM950.625 17.9375C951.375 18.0625 952.625 17.9375 954.375 17.5625C954 16.8125 953.688 16.25 953.438 15.875C953.438 15.875 953.438 15.8125 953.438 15.6875C953.188 15.9375 952.875 16.25 952.5 16.625C951.5 17.375 950.875 17.8125 950.625 17.9375ZM940.312 38.375C941.062 38.375 942 38.375 943.125 38.375C943 37.75 942.875 37.125 942.75 36.5C942.75 36.5 942.75 36.4375 942.75 36.3125C942.375 36.5625 941.938 36.9375 941.438 37.4375C940.938 37.9375 940.562 38.25 940.312 38.375ZM981.562 13.0625L981.375 12.875C980.75 12.375 980.375 12 980.25 11.75C980 11.375 980.125 11.1875 980.625 11.1875C982.75 11.4375 984.562 11.5625 986.062 11.5625H987.938V8.5625H982.312C980.938 8.5625 980 8.625 979.5 8.75C979.25 9 979 8.9375 978.75 8.5625C978.375 8.3125 978 7.875 977.625 7.25C977.375 6.875 977.5 6.75 978 6.875C978.5 7 979.375 7.125 980.625 7.25C981.875 7.25 982.75 7.25 983.25 7.25H987.75C987.75 4.625 987.688 2.9375 987.562 2.1875C987.188 0.9375 987.688 0.4375 989.062 0.6875C990.938 0.9375 992.938 1.3125 995.062 1.8125C995.562 2.0625 995.875 2.375 996 2.75C996 3.125 995.812 3.5 995.438 3.875C994.938 4.25 994.688 4.8125 994.688 5.5625V7.25H997.312C998.562 5.25 999.688 3.9375 1000.69 3.3125C1001.56 3.3125 1003.25 4.625 1005.75 7.25C1006 8.125 1005.75 8.5625 1005 8.5625C1004.12 8.5625 1003.19 8.5625 1002.19 8.5625C1002.56 8.9375 1003.38 9.8125 1004.62 11.1875C1003.62 10.0625 1003.81 10.25 1005.19 11.75C1005.56 12.5 1005.38 12.9375 1004.62 13.0625C1003.88 13.0625 1003.25 13.0625 1002.75 13.0625C1005.38 14.4375 1006.94 15.5625 1007.44 16.4375C1007.31 17.0625 1007 17.5 1006.5 17.75C1005.88 18 1005.56 18.375 1005.56 18.875C1005.56 19.25 1005.62 19.6875 1005.75 20.1875C1005.75 20.5625 1005.81 20.9375 1005.94 21.3125C1006.19 22.3125 1005.81 23 1004.81 23.375C1003.56 23.75 1002.5 23.9375 1001.62 23.9375C1001.38 24.0625 1001.25 24.125 1001.25 24.125C1002.62 24.75 1003.56 25.375 1004.06 26C1004.56 26.75 1004.44 27.375 1003.69 27.875C1003.31 28.125 1003.12 28.4375 1003.12 28.8125C1003 32.6875 1003.06 35.375 1003.31 36.875C1003.31 38.375 1002.75 39.1875 1001.62 39.3125C1000.5 39.8125 999.562 40 998.812 39.875C1001.56 40.375 1003.25 40.8125 1003.88 41.1875C1005.75 42.4375 1006.06 44.0625 1004.81 46.0625C1003.06 47.6875 1001.44 47.5625 999.938 45.6875C998.438 43.4375 996.188 41.875 993.188 41C992.562 40.625 992.688 40.25 993.562 39.875C993.812 39.875 994.188 39.875 994.688 39.875C995.938 39.875 996.875 39.875 997.5 39.875C996.875 39.75 996.625 39.25 996.75 38.375H986.812C986.688 38.625 986.562 38.875 986.438 39.125C989.312 41.125 990.812 42.25 990.938 42.5C991.312 43 991.438 43.4375 991.312 43.8125C991.062 44.1875 990.688 44.3125 990.188 44.1875C989.562 43.9375 988.875 44 988.125 44.375C984.125 45.75 980.375 46.75 976.875 47.375C976.125 47.5 975.625 47.4375 975.375 47.1875C975.375 46.8125 975.688 46.4375 976.312 46.0625C979.562 43.9375 982.062 42 983.812 40.25C983.562 40.25 983.25 40.3125 982.875 40.4375C982.75 40.5625 982.688 40.5625 982.688 40.4375C981.188 40.5625 980.438 40.25 980.438 39.5C980.188 40.5 979.562 41.1875 978.562 41.5625C976.688 41.9375 975.625 41.25 975.375 39.5C974.875 37.125 973.875 35 972.375 33.125C972.125 32.875 972.062 32.6875 972.188 32.5625C972.438 32.4375 972.75 32.375 973.125 32.375C976.25 33 978.5 34.4375 979.875 36.6875C980.25 37.3125 980.438 37.875 980.438 38.375C980.312 38.25 980.312 37.6875 980.438 36.6875C980.438 34.4375 980.5 31.9375 980.625 29.1875C980.625 26.9375 980.562 25.375 980.438 24.5C979.188 24.75 978.75 23.8125 979.125 21.6875C979.25 20.3125 979.312 19.25 979.312 18.5C979.312 16.625 979.188 15.3125 978.938 14.5625C978.938 14.5625 978.938 14.5 978.938 14.375C978.812 14.375 978.75 14.375 978.75 14.375C978.125 14.625 977.562 15.1875 977.062 16.0625C975.812 17.6875 974.25 19.5625 972.375 21.6875C972.375 21.6875 972.5 21.6875 972.75 21.6875C976.125 22.8125 978.188 24.75 978.938 27.5C979.062 29.625 978.25 31.0625 976.5 31.8125C974.125 32.1875 972.938 31.3125 972.938 29.1875C972.938 28.9375 972.938 28.5 972.938 27.875C969.062 29.875 966.688 31.375 965.812 32.375C965.188 33.125 964.688 33.5 964.312 33.5C963.938 33.5 963.625 33.125 963.375 32.375C962.375 31.125 961.625 29.75 961.125 28.25C960.875 27.75 960.875 27.3125 961.125 26.9375C961.25 26.6875 961.562 26.4375 962.062 26.1875C962.938 25.9375 964 25.0625 965.25 23.5625C965.375 23.3125 965.688 22.75 966.188 21.875C967.062 20.625 967.75 19.625 968.25 18.875C966.5 19.75 965.438 20.375 965.062 20.75C964.062 22 963.25 21.9375 962.625 20.5625C961.75 19.5625 961.125 18.25 960.75 16.625C960.5 16.125 960.438 15.75 960.562 15.5C960.688 15.375 960.938 15.125 961.312 14.75C962.938 14 964 12.8125 964.5 11.1875C965.375 9.3125 966.125 6.3125 966.75 2.1875C966.75 0.9375 967.438 0.5 968.812 0.875C970.438 1.5 972.438 2.3125 974.812 3.3125C975.312 3.6875 975.562 4.125 975.562 4.625C975.562 5.125 975.25 5.4375 974.625 5.5625C973.75 5.8125 973.125 6.375 972.75 7.25C969.875 11.125 967.5 13.625 965.625 14.75C967 14.875 968.625 14.8125 970.5 14.5625C970.5 14.3125 970.625 13.9375 970.875 13.4375C971.375 12.4375 971.75 11.625 972 11C972.25 9.75 972.875 9.3125 973.875 9.6875C975.375 10.1875 977.125 11 979.125 12.125C979.125 12.25 979.188 12.375 979.312 12.5C979.438 12.75 979.562 12.875 979.688 12.875C979.812 12.875 980.125 12.875 980.625 12.875C980.75 13.125 981.062 13.1875 981.562 13.0625ZM961.688 41C963.438 39.625 964.625 37.375 965.25 34.25C965.25 34 965.375 33.875 965.625 33.875C966 33.875 966.25 34 966.375 34.25C967.75 38.25 967.875 41.375 966.75 43.625C965.5 45.375 963.875 45.75 961.875 44.75C960.625 43.375 960.562 42.125 961.688 41ZM968.625 41C969.125 39.5 969.062 37.125 968.438 33.875C968.312 33.625 968.312 33.5 968.438 33.5C968.688 33.375 969 33.375 969.375 33.5C971.875 35 973.5 37.25 974.25 40.25C974.5 42.625 973.375 43.875 970.875 44C969 44 968.25 43 968.625 41ZM999.375 22.4375H985.125C984.875 23.1875 984.625 23.625 984.375 23.75C985.25 24 986.188 24.3125 987.188 24.6875C987.562 24.8125 987.75 24.9375 987.75 25.0625H996.562C997.062 23.9375 997.688 23.1875 998.438 22.8125C998.438 22.8125 998.625 22.875 999 23C999.125 23.125 999.312 23.1875 999.562 23.1875C999.312 23.0625 999.25 22.8125 999.375 22.4375ZM994.688 12.875H985.125C984.25 13 983.312 13.125 982.312 13.25C982.062 13.25 982 13.25 982.125 13.25C983.25 13.625 984.375 14.0625 985.5 14.5625C985.625 14.6875 985.812 14.8125 986.062 14.9375H999C999.375 14.1875 999.875 13.5 1000.5 12.875C998.5 12.875 996.562 12.875 994.688 12.875ZM986.812 34.25V36.875H996.75V34.25H986.812ZM986.812 30.3125V32.9375H996.75V30.3125H986.812ZM986.812 27.5V29H996.75V26.375H987.375C987 26.75 986.812 27.125 986.812 27.5ZM995.25 8.5625H994.688V11.5625H997.5C998.5 10.0625 999.312 9.0625 999.938 8.5625H995.25ZM967.5 26.375C968.5 26.25 969.562 26.0625 970.688 25.8125C971.312 25.8125 972 25.6875 972.75 25.4375C972.75 24.4375 972.562 23.4375 972.188 22.4375C971.938 22.3125 971.875 22.1875 972 22.0625C971.375 22.6875 970.562 23.5 969.562 24.5C968.562 25.375 967.875 26 967.5 26.375ZM999.375 16.25H997.688V21.125H999.375V16.25ZM991.312 16.25V21.125H993.188V16.25H991.312ZM985.125 17.75V21.125H986.812V16.25H985.875C985.875 16.25 985.812 16.25 985.688 16.25C985.188 16.625 985 17.125 985.125 17.75ZM1053.19 20.5625H1045.31V25.8125H1047.56C1047.56 25.8125 1047.69 25.625 1047.94 25.25C1048.81 24 1049.5 23.375 1050 23.375C1052.75 24.5 1054.69 25.8125 1055.81 27.3125C1055.81 27.8125 1055.56 28.3125 1055.06 28.8125C1054.69 29.0625 1054.5 29.5 1054.5 30.125C1054.25 33.625 1054 37.125 1053.75 40.625C1053.38 43.875 1050.62 45.875 1045.5 46.625C1044.25 46.75 1043.5 46.375 1043.25 45.5C1042.88 43.5 1041.62 42.0625 1039.5 41.1875C1038.75 41.0625 1038.5 40.8125 1038.75 40.4375C1038.62 40.1875 1039.06 40.0625 1040.06 40.0625C1045.19 40.6875 1047.62 40.0625 1047.38 38.1875C1047.5 37.5625 1047.56 36.9375 1047.56 36.3125C1047.19 36.9375 1046.62 37.3125 1045.88 37.4375C1044.25 37.5625 1043.38 36.6875 1043.25 34.8125C1042.88 32.5625 1042.31 30.75 1041.56 29.375C1041.44 28.75 1041.69 28.5 1042.31 28.625C1045.19 29.75 1047.06 31 1047.94 32.375C1047.94 32.625 1047.94 32.6875 1047.94 32.5625C1047.94 31.9375 1047.94 31.25 1047.94 30.5C1048.06 29.75 1048.12 28.6875 1048.12 27.3125H1034.62C1034.62 27.4375 1034.56 27.5625 1034.44 27.6875C1034.31 27.8125 1034.31 27.875 1034.44 27.875C1033.81 28.625 1033.19 28.875 1032.56 28.625C1030.81 28.25 1029.44 27.6875 1028.44 26.9375C1027.56 26.4375 1027.44 25.8125 1028.06 25.0625C1028.69 24.4375 1029 23.3125 1029 21.6875V8.5625C1029 6.9375 1028.94 5.8125 1028.81 5.1875C1028.56 4.4375 1028.5 3.9375 1028.62 3.6875C1028.88 3.4375 1029.38 3.375 1030.12 3.5C1032.62 4 1034.56 4.5625 1035.94 5.1875C1036.31 5.4375 1036.62 5.625 1036.88 5.75H1047.75C1048.75 4 1049.56 3 1050.19 2.75C1051.44 3.25 1052.75 4.25 1054.12 5.75C1054.38 6.125 1054.5 6.5 1054.5 6.875C1054.38 7.125 1054.12 7.25 1053.75 7.25H1045.31V12.5H1047.38C1048.12 10.875 1048.94 9.8125 1049.81 9.3125C1051.06 9.8125 1052.38 10.875 1053.75 12.5C1054.25 13.375 1054.12 13.875 1053.38 14H1045.31V19.0625H1047.38C1048.12 17.6875 1048.88 16.6875 1049.62 16.0625C1050.75 16.4375 1052.06 17.4375 1053.56 19.0625C1053.81 19.4375 1053.94 19.8125 1053.94 20.1875C1053.81 20.4375 1053.56 20.5625 1053.19 20.5625ZM1010.44 22.25V15.125C1010.31 11.875 1010.19 8.8125 1010.06 5.9375C1009.94 5.3125 1009.94 4.9375 1010.06 4.8125C1010.31 4.5625 1010.75 4.5 1011.38 4.625C1013.38 5.25 1015.38 5.9375 1017.38 6.6875C1017.75 6.9375 1018 7.1875 1018.12 7.4375H1018.88C1019.62 5.6875 1020.38 4.6875 1021.12 4.4375C1023 4.9375 1025.12 6.125 1027.5 8C1027.62 8.625 1027.31 9.125 1026.56 9.5C1026.19 9.75 1026 10.1875 1026 10.8125V20.9375C1026 22.0625 1026 23.5625 1026 25.4375C1026.12 27.1875 1026.25 28.375 1026.38 29C1026.5 30 1026.12 30.625 1025.25 30.875C1024 31.5 1022.69 31.8125 1021.31 31.8125C1019.69 32.1875 1019 31.8125 1019.25 30.6875V29.375H1017.19V30.6875C1017.19 32.6875 1016.62 33.75 1015.5 33.875C1015.12 34 1014.75 34.0625 1014.38 34.0625C1013.12 34.4375 1012.25 34.5625 1011.75 34.4375C1010 34.6875 1009.38 33.875 1009.88 32C1010 31.375 1010.12 30.1875 1010.25 28.4375C1010.25 26.4375 1010.31 24.375 1010.44 22.25ZM1024.12 35.75C1025.75 34.25 1026.94 32.3125 1027.69 29.9375C1027.69 29.6875 1027.75 29.5625 1027.88 29.5625C1028.12 29.5625 1028.38 29.6875 1028.62 29.9375C1030.12 32.4375 1030.12 35.3125 1028.62 38.5625C1027.38 40.1875 1025.88 40.5 1024.12 39.5C1022.88 38.375 1022.88 37.125 1024.12 35.75ZM1019.25 8.75H1017.19C1017.19 9.125 1017.19 9.4375 1017.19 9.6875V28.0625H1019.25V8.75ZM1037.25 35.9375C1037.25 33.8125 1036.81 31.75 1035.94 29.75C1035.69 29.5 1035.62 29.3125 1035.75 29.1875C1035.88 29.0625 1036.12 29.0625 1036.5 29.1875C1039.25 30.3125 1041.06 31.875 1041.94 33.875C1042.81 36.75 1042.12 38.3125 1039.88 38.5625C1038.25 38.8125 1037.38 37.9375 1037.25 35.9375ZM1031.06 35.9375C1031.56 34.0625 1031.5 32.125 1030.88 30.125C1030.75 29.875 1030.75 29.75 1030.88 29.75C1031.12 29.625 1031.44 29.625 1031.81 29.75C1034.06 31.25 1035.44 33.0625 1035.94 35.1875C1036.19 38.0625 1035.19 39.4375 1032.94 39.3125C1031.56 39.1875 1030.94 38.0625 1031.06 35.9375ZM1035.38 25.8125H1039.12V20.5625H1035.56V25.625C1035.44 25.875 1035.38 25.9375 1035.38 25.8125ZM1035.56 14V19.0625H1039.12V14H1035.56ZM1035.56 8.75V12.5H1039.12V7.25H1036.12C1035.62 7.5 1035.44 8 1035.56 8.75ZM1069.69 34.0625H1067.25V31.0625C1067.25 29.4375 1067.88 27.6875 1069.12 25.8125C1070.75 23.8125 1071.56 21.75 1071.56 19.625C1071.56 15.125 1070.06 12.8125 1067.06 12.6875C1064.69 12.9375 1063.06 13.8125 1062.19 15.3125C1062.44 15.3125 1062.69 15.3125 1062.94 15.3125C1065.31 15.4375 1066.56 16.5 1066.69 18.5C1066.44 20.5 1065.19 21.625 1062.94 21.875C1060.56 21.75 1059.31 20.4375 1059.19 17.9375C1059.56 13.5625 1062.75 11.125 1068.75 10.625C1075.12 11 1078.56 13.375 1079.06 17.75C1079.06 20.375 1077.44 22.875 1074.19 25.25C1071.19 27.5 1069.69 29.75 1069.69 32V34.0625ZM1064.25 40.0625C1064.5 37.6875 1065.81 36.3125 1068.19 35.9375C1070.69 36.1875 1072.06 37.5625 1072.31 40.0625C1071.94 42.0625 1070.56 43.25 1068.19 43.625C1065.81 43.25 1064.5 42.0625 1064.25 40.0625Z" fill="#10656A"/>
</svg>
