<svg width="1416" height="50" viewBox="0 0 1416 50" fill="none" xmlns="http://www.w3.org/2000/svg">
<path d="M34.6875 19.625V23.1875C34.6875 22.8125 35.0625 22.8125 35.8125 23.1875C40.6875 25.0625 44.1875 28.0625 46.3125 32.1875C47.0625 35.6875 46.125 38 43.5 39.125C40.875 39.625 39.3125 38.125 38.8125 34.625C38.3125 31.125 37.0625 27.625 35.0625 24.125C34.8125 24 34.6875 23.8125 34.6875 23.5625V25.8125C34.5625 32.6875 34.625 37.625 34.875 40.625C35.125 42.875 34.4375 44.5 32.8125 45.5C30.9375 46.5 29.0625 47.125 27.1875 47.375C25.5625 47.625 24.6875 47.25 24.5625 46.25C24.1875 44.125 23.125 42.8125 21.375 42.3125C20.375 41.9375 19.9375 41.5625 20.0625 41.1875C19.9375 41.0625 20.5625 41 21.9375 41C25.9375 41.625 27.75 40.375 27.375 37.25V24.875C27.375 25.125 27.1875 25.25 26.8125 25.25C26.1875 25.5 25.875 25.875 25.875 26.375C23.875 32.625 20.4375 37.3125 15.5625 40.4375C14.9375 40.8125 14.5625 40.9375 14.4375 40.8125C14.3125 40.6875 14.4375 40.3125 14.8125 39.6875C16.5625 35.6875 17.8125 32.0625 18.5625 28.8125C18.5625 28.6875 18.5625 28.375 18.5625 27.875C18.9375 26.5 19.1875 25 19.3125 23.375C19.4375 22.375 19.9375 21.9375 20.8125 22.0625C22.6875 22.3125 24.6875 22.8125 26.8125 23.5625C27.1875 23.9375 27.375 24.125 27.375 24.125V23.5625C27.25 22.0625 27.1875 20.625 27.1875 19.25C27.0625 17.875 26.9375 16.875 26.8125 16.25C26.4375 14.875 26.9375 14.3125 28.3125 14.5625C30.0625 14.8125 32.3125 15.1875 35.0625 15.6875C36.3125 16.4375 36.5 17.1875 35.625 17.9375C34.875 18.3125 34.5625 18.875 34.6875 19.625ZM13.5 18.125V35.75C13.375 39.25 13.4375 41.75 13.6875 43.25C13.9375 44.875 13.375 45.9375 12 46.4375C10.75 46.8125 9.4375 47.125 8.0625 47.375C5.9375 48 5.1875 46.875 5.8125 44C5.8125 43.375 5.8125 42.4375 5.8125 41.1875C6.1875 35.6875 6.375 31.5625 6.375 28.8125V22.625C4.625 24.75 2.875 26.4375 1.125 27.6875C0.75 28.0625 0.5 28.125 0.375 27.875C0.25 27.625 0.3125 27.25 0.5625 26.75C3.5625 20.75 5.9375 14.5625 7.6875 8.1875C8.3125 6.4375 8.75 4.1875 9 1.4375C8.875 0.6875 9.375 0.3125 10.5 0.3125C12 0.6875 14.5 1.4375 18 2.5625C18.75 3.3125 18.75 4.0625 18 4.8125C17.125 5.1875 16.625 5.5625 16.5 5.9375C14.875 9.1875 13.4375 12 12.1875 14.375C12.3125 14.375 12.5625 14.4375 12.9375 14.5625C13.3125 14.5625 13.5625 14.5625 13.6875 14.5625C14.5625 15.1875 14.6875 15.8125 14.0625 16.4375C13.5625 16.8125 13.375 17.375 13.5 18.125ZM36.9375 17.375L38.25 12.875H25.875C23.125 17.25 19.625 20.8125 15.375 23.5625C15 23.8125 14.75 23.8125 14.625 23.5625C14.5 23.4375 14.5625 23.125 14.8125 22.625C18.0625 17.625 20.375 12.4375 21.75 7.0625C22 6.0625 22.1875 5.125 22.3125 4.25C22.5625 3.25 22.6875 2.3125 22.6875 1.4375C22.6875 0.5625 23.1875 0.25 24.1875 0.5C25.3125 0.625 27.25 1.125 30 2C30.25 2.125 30.5625 2.1875 30.9375 2.1875C31.3125 2.4375 31.5625 2.8125 31.6875 3.3125C31.5625 3.8125 31.3125 4.0625 30.9375 4.0625C30.0625 4.4375 29.5625 4.9375 29.4375 5.5625C28.5625 7.6875 27.6875 9.625 26.8125 11.375H37.3125C38.1875 9.375 39.125 8.1875 40.125 7.8125C42 8.1875 44.1875 9.625 46.6875 12.125C47.3125 12.75 47.5625 13.4375 47.4375 14.1875C47.3125 14.9375 46.6875 15.3125 45.5625 15.3125C42.5625 15.0625 40.0625 16 38.0625 18.125C37.5625 18.5 37.1875 18.625 36.9375 18.5C36.8125 18.375 36.8125 18 36.9375 17.375ZM72.5625 9.5H84.75C86.75 6.5 88 4.9375 88.5 4.8125C90.75 5.6875 92.9375 7.3125 95.0625 9.6875C95.3125 10.0625 95.4375 10.4375 95.4375 10.8125C95.3125 11.0625 95.0625 11.1875 94.6875 11.1875C92.9375 11.1875 91.125 11.1875 89.25 11.1875C87.625 11.0625 85.1875 11 81.9375 11H71.8125C70.6875 13.625 69.375 15.9375 67.875 17.9375H79.125C80.125 16.1875 80.9375 15.25 81.5625 15.125C84.6875 16.25 87.1875 17.75 89.0625 19.625C88.9375 20.125 88.625 20.625 88.125 21.125C87.5 21.375 87.25 21.875 87.375 22.625V41.75C87.5 43.875 86.375 45.3125 84 46.0625C82.625 46.5625 81.125 47 79.5 47.375C77.875 47.75 77.125 47.4375 77.25 46.4375C77 44.4375 75.75 43 73.5 42.125C72.75 41.75 72.4375 41.4375 72.5625 41.1875C72.4375 41.0625 72.875 41 73.875 41C74 41 74.1875 41 74.4375 41C75.8125 41.125 77 41.25 78 41.375C79.25 41.375 79.875 40.625 79.875 39.125V33.5H68.625V44.375C68.625 45.625 68.125 46.375 67.125 46.625C66.375 46.75 65.5625 46.875 64.6875 47C63.8125 47 63 47.0625 62.25 47.1875C61.125 47.1875 60.6875 46.625 60.9375 45.5C61.3125 43.25 61.5625 39.8125 61.6875 35.1875V25.4375C58.3125 28.3125 54.625 30.625 50.625 32.375C50.125 32.625 49.75 32.625 49.5 32.375C49.25 32 49.375 31.5625 49.875 31.0625C56.125 25.4375 60.6875 18.75 63.5625 11H58.125C56.875 11.125 55.5625 11.1875 54.1875 11.1875C53.0625 11.3125 52.1875 11.4375 51.5625 11.5625C51.1875 11.6875 50.875 11.5625 50.625 11.1875C50.375 11.0625 50.1875 10.8125 50.0625 10.4375C49.8125 10.1875 49.625 9.9375 49.5 9.6875C49.375 9.4375 49.3125 9.3125 49.3125 9.3125C49.3125 9.1875 49.5 9.125 49.875 9.125C52.375 9.375 55.6875 9.5 59.8125 9.5H64.125C65.125 6.375 65.8125 3.8125 66.1875 1.8125C66.1875 0.8125 66.75 0.4375 67.875 0.6875C71.75 1.6875 74.5 2.375 76.125 2.75C76.625 3 76.875 3.375 76.875 3.875C76.75 4.5 76.4375 4.8125 75.9375 4.8125C75.8125 4.9375 75.6875 5 75.5625 5C74.6875 5.375 74.125 5.9375 73.875 6.6875C73.625 7.0625 73.375 7.5625 73.125 8.1875C72.875 8.8125 72.6875 9.25 72.5625 9.5ZM68.625 26.375V32.1875H79.875V26.375H68.625ZM68.625 20.5625V25.0625H79.875V19.4375H68.8125C68.5625 19.6875 68.5 20.0625 68.625 20.5625ZM118.875 28.0625H117.188C117.062 28.0625 116.812 28.125 116.438 28.25C115.938 28.25 115.562 28.25 115.312 28.25C115.188 29.25 115.188 30.75 115.312 32.75C115.438 34.75 115.5 36.1875 115.5 37.0625C115.625 38.5625 115.312 39.25 114.562 39.125C113.188 39.625 111.875 39.875 110.625 39.875C109.125 40.25 108.438 39.625 108.562 38V36.3125H105V38.9375C105.125 40.6875 104.5 41.6875 103.125 41.9375C101.875 42.0625 100.812 42.1875 99.9375 42.3125C98.3125 42.5625 97.625 42.0625 97.875 40.8125C98.25 36.5625 98.4375 32.8125 98.4375 29.5625V16.25C98.4375 13 98.25 9.75 97.875 6.5C97.875 5.25 98.375 4.8125 99.375 5.1875C101.625 5.6875 103.688 6.375 105.562 7.25C105.812 7.375 106.062 7.5 106.312 7.625H108.188C108.938 6.125 109.688 5.375 110.438 5.375C111.188 5.375 112.938 6.3125 115.688 8.1875C116.938 9.3125 117 10.1875 115.875 10.8125C115.5 10.9375 115.312 11.4375 115.312 12.3125V18.875C116.438 18.875 118 18.875 120 18.875H123.75V11.375H121.688C120.812 11.5 119.938 11.625 119.062 11.75C118.812 11.875 118.5 11.875 118.125 11.75C118.125 11.75 118.125 11.6875 118.125 11.5625C117.625 11.1875 117.312 10.75 117.188 10.25C116.938 9.875 117.062 9.6875 117.562 9.6875C118.688 9.9375 120.438 10.0625 122.812 10.0625H123.75C123.5 6.4375 123.312 4.0625 123.188 2.9375C122.812 1.8125 123.312 1.25 124.688 1.25C126.812 1.5 128.875 1.8125 130.875 2.1875C131.5 2.4375 131.875 2.8125 132 3.3125C132.125 3.6875 131.938 4.0625 131.438 4.4375C130.812 4.9375 130.562 5.4375 130.688 5.9375V10.0625H132.562C133.938 7.4375 134.938 6.125 135.562 6.125C137.188 6.875 138.812 8.1875 140.438 10.0625C140.688 10.4375 140.75 10.75 140.625 11C140.5 11.25 140.25 11.375 139.875 11.375H130.688V18.875H134.25C135.625 16.625 136.625 15.4375 137.25 15.3125C138.25 15.5625 140.062 16.75 142.688 18.875C143.062 19.75 142.875 20.25 142.125 20.375H137.625C137.5 21 137.25 21.375 136.875 21.5C136.375 21.875 136.188 22.375 136.312 23V26.5625C137.188 24.6875 137.938 23.6875 138.562 23.5625C139.438 23.8125 140.875 24.75 142.875 26.375C143.125 26.75 143.25 27.0625 143.25 27.3125C143.125 27.8125 142.812 28.0625 142.312 28.0625H136.312V29.375C136.188 35 136.25 38.75 136.5 40.625C136.75 43.25 136.062 44.9375 134.438 45.6875C133.188 46.1875 131.625 46.6875 129.75 47.1875C128.25 47.5625 127.375 47.1875 127.125 46.0625C126.75 44.0625 125.312 42.6875 122.812 41.9375C121.812 41.5625 121.375 41.25 121.5 41C121.375 40.75 122 40.625 123.375 40.625C127.625 40.875 129.5 39.875 129 37.625V28.0625H120.562C123.062 29.0625 125 30.4375 126.375 32.1875C127.375 34.8125 127 36.6875 125.25 37.8125C122.25 39.0625 120.625 38.25 120.375 35.375C120.25 32.75 119.75 30.5625 118.875 28.8125C118.875 28.8125 118.812 28.75 118.688 28.625C118.688 28.375 118.75 28.1875 118.875 28.0625ZM118.312 26.5625H129C129 23.3125 128.938 21.25 128.812 20.375H119.062C118.188 20.5 117.25 20.625 116.25 20.75C115.875 20.875 115.562 20.8125 115.312 20.5625V26.5625C116.188 26.5625 117.188 26.5625 118.312 26.5625ZM105 22.625V35H108.562V22.625H105ZM108.562 9.125H105.562C105.188 9.375 105 9.75 105 10.25V21.3125H108.562V9.125ZM175.125 15.5H155.812C155.438 15.625 155.062 15.75 154.688 15.875C154.188 16.125 153.812 16.25 153.562 16.25C155.062 16.75 156.5 17.25 157.875 17.75H175.688C176.688 16.125 177.5 15.3125 178.125 15.3125C181.375 16.4375 183.688 17.75 185.062 19.25C185.062 19.875 184.75 20.3125 184.125 20.5625C183.625 20.9375 183.438 21.4375 183.562 22.0625C183.438 23.6875 183.5 25.125 183.75 26.375C183.75 27 183.812 27.5 183.938 27.875C183.938 29.125 183.562 29.875 182.812 30.125C182.062 30.625 180.938 31 179.438 31.25C181.312 32 182.688 32.8125 183.562 33.6875C183.438 34.4375 183.125 34.9375 182.625 35.1875C182.125 35.4375 181.938 35.8125 182.062 36.3125C181.938 39.8125 182 42.25 182.25 43.625C182.375 45.25 181.875 46.125 180.75 46.25C179 46.625 177.375 46.875 175.875 47C174.625 47.125 174.062 46.625 174.188 45.5V44.1875H159.75V44.9375C159.75 45.8125 159.438 46.3125 158.812 46.4375C157.438 46.8125 155.875 47.0625 154.125 47.1875C152.375 47.4375 151.75 46.75 152.25 45.125C152.25 44.75 152.25 43.8125 152.25 42.3125C152.375 40.3125 152.438 38.875 152.438 38C152.438 37.25 152.375 35.9375 152.25 34.0625C152.25 33.0625 152.25 32.375 152.25 32C152 31.75 151.938 31.5 152.062 31.25C151.812 31.25 151.688 31.25 151.688 31.25C150.188 31.5 149.562 30.8125 149.812 29.1875C149.812 28.9375 149.812 28.5625 149.812 28.0625C150.062 25.5625 150.188 23.5625 150.188 22.0625C150.188 20.4375 150.125 19.4375 150 19.0625C150 18.4375 150 17.9375 150 17.5625C149.375 17.8125 148.625 18 147.75 18.125C146.875 18.375 146.188 18.5625 145.688 18.6875C145.062 18.8125 144.625 18.75 144.375 18.5C144.375 18.25 144.625 17.9375 145.125 17.5625C153.75 12.8125 159.062 7.625 161.062 2C161.188 1 161.875 0.5625 163.125 0.6875C165.25 1.0625 167.812 1.75 170.812 2.75C171.438 3.125 171.75 3.625 171.75 4.25C171.75 4.75 171.438 5.0625 170.812 5.1875C170.688 5.1875 170.562 5.25 170.438 5.375C170.312 5.5 170.188 5.5 170.062 5.375C176.562 9.625 183.375 11.1875 190.5 10.0625C191.125 10.1875 191.5 10.4375 191.625 10.8125C191.75 11.3125 191.5 11.6875 190.875 11.9375C189.25 13.0625 188.062 14.75 187.312 17C187.188 18 186.375 18.1875 184.875 17.5625C178.125 15.5625 172.812 11.8125 168.938 6.3125C168.688 6.4375 168.438 6.625 168.188 6.875C168.188 7 168.188 7.0625 168.188 7.0625C166.062 9.6875 163 12 159 14H168.188C169.312 12 170.375 10.875 171.375 10.625C172.125 10.75 173.438 11.75 175.312 13.625C175.688 14.125 175.875 14.5625 175.875 14.9375C175.875 15.3125 175.625 15.5 175.125 15.5ZM160.688 32.375H173.438C174.188 30.875 174.938 30.0625 175.688 29.9375C175.938 29.9375 176.188 29.9375 176.438 29.9375V29H157.125C156.875 29.75 156.438 30.1875 155.812 30.3125C155.438 30.5625 155.062 30.6875 154.688 30.6875C156.562 31.3125 158.375 31.75 160.125 32C160.125 32.125 160.188 32.1875 160.312 32.1875C160.438 32.3125 160.562 32.375 160.688 32.375ZM159.75 39.125V42.6875H174.188V39.125H159.75ZM174.188 33.875H160.125C159.875 34.125 159.75 34.5 159.75 35V37.8125H174.188V33.875ZM176.438 20.9375V19.25H170.25V27.6875H170.438C170.312 27.5625 170.375 27.3125 170.625 26.9375C170.875 25.8125 171.062 24.75 171.188 23.75C171.312 22.75 171.375 21.75 171.375 20.75C171.25 20.125 171.625 19.875 172.5 20C173.75 20.25 175.062 20.5625 176.438 20.9375ZM157.125 20.5625V27.6875H163.5V25.0625C163.25 26.0625 162.562 26.6875 161.438 26.9375C159.312 27.5625 158.25 26.75 158.25 24.5C158.25 23.375 157.875 22.0625 157.125 20.5625ZM171.75 27.6875H176.438V23C175.938 23.25 175.625 23.5 175.5 23.75C174.75 24.875 173.5 26.1875 171.75 27.6875ZM163.5 23.75V19.25H158.25C157.625 19.25 157.25 19.4375 157.125 19.8125C157.25 19.8125 157.375 19.8125 157.5 19.8125C160.375 20.3125 162.312 21.375 163.312 23C163.312 23.25 163.312 23.4375 163.312 23.5625C163.312 23.6875 163.375 23.75 163.5 23.75ZM209.062 5.5625V6.875H210.188C211.188 5.125 212.062 4.125 212.812 3.875C213.812 4.125 215.062 5.125 216.562 6.875C216.938 7.5 217.062 7.9375 216.938 8.1875C216.812 8.4375 216.5 8.5625 216 8.5625C215.75 8.5625 214.938 8.5625 213.562 8.5625C211.188 8.4375 209.688 8.375 209.062 8.375V13.25H210.375C211.75 11.25 212.75 10.1875 213.375 10.0625C213.625 10.0625 214.688 10.8125 216.562 12.3125C216.438 11.9375 216.5 11.8125 216.75 11.9375C217.625 12.0625 218.562 12 219.562 11.75V10.4375C219.438 8.8125 219.375 7.1875 219.375 5.5625C219.25 4.0625 219.125 3 219 2.375C218.625 1.125 219.125 0.625 220.5 0.875C222 1 224.188 1.3125 227.062 1.8125C228.062 2.4375 228.125 3.0625 227.25 3.6875C226.625 4.0625 226.312 4.5 226.312 5C226.312 7.125 226.312 9 226.312 10.625C226.438 10.625 226.625 10.625 226.875 10.625C227.75 8.875 228.625 7.8125 229.5 7.4375C232.125 8.6875 234.125 10.25 235.5 12.125C235.5 13 235.188 13.5 234.562 13.625C234.062 14 233.812 14.4375 233.812 14.9375C233.688 21.1875 234.062 24.875 234.938 26C235.188 26 235.562 25.25 236.062 23.75C236.188 23.5 236.312 23.1875 236.438 22.8125C236.562 21.9375 236.875 21.5 237.375 21.5C237.5 21.5 237.625 22 237.75 23C237.375 25.875 237.75 28.25 238.875 30.125C239.625 31.375 239.875 32.6875 239.625 34.0625C239.125 35.3125 238 35.75 236.25 35.375C229.5 35.125 226.562 27.375 227.438 12.125C227.188 12.25 226.938 12.3125 226.688 12.3125C226.438 12.4375 226.25 12.5 226.125 12.5C225.875 16.25 225.438 19.4375 224.812 22.0625C225.688 22.6875 226.5 23.4375 227.25 24.3125C228.75 26.9375 228.312 28.9375 225.938 30.3125C224.062 31.0625 222.75 30.5625 222 28.8125C221.75 28.8125 221.688 28.6875 221.812 28.4375C219.688 30.9375 216.562 33.25 212.438 35.375C211.812 35.75 211.438 35.8125 211.312 35.5625C210.938 35.3125 211.062 34.875 211.688 34.25C215.062 30.75 217.312 26.75 218.438 22.25C218.188 22.125 217.875 21.875 217.5 21.5C217.25 21 217.062 20.625 216.938 20.375C216.688 21.25 216.312 21.75 215.812 21.875C214.188 22.75 212.625 22 211.125 19.625C210.375 18.5 209.062 17.25 207.188 15.875C206.812 15.375 206.938 15 207.562 14.75C211.938 15.375 214.75 16.1875 216 17.1875C216.375 17.6875 216.688 18.1875 216.938 18.6875C217.688 18.9375 218.375 19.125 219 19.25C219.125 17.625 219.312 15.6875 219.562 13.4375C219.312 13.5625 219 13.6875 218.625 13.8125C218.375 13.8125 218.25 13.8125 218.25 13.8125C218.125 13.8125 218 13.8125 217.875 13.8125C218 14.1875 218 14.5 217.875 14.75C217.625 14.875 217.312 14.875 216.938 14.75C215.062 14.75 212.75 14.75 210 14.75H201.375C201.75 15 202.25 15.1875 202.875 15.3125C203.5 15.5625 204.062 15.75 204.562 15.875C205.062 16.25 205.188 16.625 204.938 17C204.812 17.375 204.438 17.5625 203.812 17.5625C203.312 17.6875 202.75 18 202.125 18.5C199 21.375 196 23.4375 193.125 24.6875C192.75 24.9375 192.5 25 192.375 24.875C192.125 24.625 192.188 24.375 192.562 24.125C195.062 21.375 197.125 18.25 198.75 14.75C197.375 14.875 196.188 15 195.188 15.125C194.812 15.25 194.5 15.125 194.25 14.75C194.125 14.75 194 14.625 193.875 14.375C193.75 14.125 193.625 13.8125 193.5 13.4375C193.25 13.0625 193.375 12.875 193.875 12.875C194.75 13.25 196.875 13.375 200.25 13.25H201.938V8.75V8.375H200.812C199.312 8.5 198.062 8.625 197.062 8.75C196.688 8.875 196.375 8.75 196.125 8.375C195.625 8 195.312 7.625 195.188 7.25C194.938 6.875 195.125 6.6875 195.75 6.6875C196.5 6.9375 198.562 7 201.938 6.875C201.812 6.125 201.75 5.375 201.75 4.625C201.625 3.375 201.562 2.5625 201.562 2.1875C201.312 1.5625 201.312 1.125 201.562 0.875C201.688 0.75 202.25 0.6875 203.25 0.6875C205.875 1.0625 208.062 1.5625 209.812 2.1875C210.688 2.6875 210.75 3.25 210 3.875C209.25 4.375 208.938 4.9375 209.062 5.5625ZM201.938 28.8125V24.875H201.75C200.875 25 199.688 25.1875 198.188 25.4375C197.812 25.5625 197.5 25.5625 197.25 25.4375C197.25 25.3125 197.25 25.1875 197.25 25.0625C197.125 25.0625 197 24.9375 196.875 24.6875C196.625 24.4375 196.5 24.125 196.5 23.75C196.125 23.375 196.125 23.1875 196.5 23.1875C197.25 23.4375 199.062 23.5 201.938 23.375C201.812 22.375 201.688 21.375 201.562 20.375C201.188 19 201.75 18.4375 203.25 18.6875C205.25 19.0625 207.25 19.375 209.25 19.625C210.25 20 210.438 20.5625 209.812 21.3125C209.188 21.6875 208.938 22.25 209.062 23V23.375H209.625C210.875 22 211.5 21.375 211.5 21.5C212 21.5 213.125 22.25 214.875 23.75C215.25 24.5 215 24.875 214.125 24.875H209.062V28.4375C209.688 28.4375 210.625 28.4375 211.875 28.4375C213 28.3125 213.812 28.25 214.312 28.25C214.812 28.25 215.125 28.4375 215.25 28.8125C215.375 29.3125 215.188 29.625 214.688 29.75C206.938 32.125 201.438 33.6875 198.188 34.4375C198.062 34.5625 197.938 34.6875 197.812 34.8125C197.312 35.0625 197.062 35.25 197.062 35.375C196.062 36.25 195.438 36.1875 195.188 35.1875C195.062 34.9375 194.688 33.25 194.062 30.125C193.812 29.375 194.188 29 195.188 29C196.188 28.875 198.438 28.8125 201.938 28.8125ZM231.375 43.625C231 41 230.25 38.625 229.125 36.5C228.75 36.25 228.688 36 228.938 35.75C229.062 35.5 229.375 35.375 229.875 35.375C235.5 36.875 238.75 39.25 239.625 42.5C239.625 45.25 238.125 46.75 235.125 47C232.875 47.125 231.625 46 231.375 43.625ZM194.625 41C196.625 40.125 198.312 38.3125 199.688 35.5625C199.812 35.1875 200.062 35.0625 200.438 35.1875C200.688 35.1875 200.938 35.375 201.188 35.75C202.938 39.5 202.812 42.6875 200.812 45.3125C198.062 47.8125 195.75 48.0625 193.875 46.0625C192.5 43.5625 192.75 41.875 194.625 41ZM219.375 43.625C219.375 41.375 219 39.1875 218.25 37.0625C217.875 36.5625 217.75 36.25 217.875 36.125C218 36 218.375 35.9375 219 35.9375C223.875 36.9375 226.625 38.875 227.25 41.75C227.5 44.625 226.125 46.3125 223.125 46.8125C221 46.8125 219.75 45.75 219.375 43.625ZM207.188 43.625C207.438 40.875 207.25 38.6875 206.625 37.0625C206.375 36.5625 206.312 36.25 206.438 36.125C206.562 36 206.938 35.9375 207.562 35.9375C211.938 37.1875 214.438 39.375 215.062 42.5C215.062 45.375 213.562 46.9375 210.562 47.1875C208.312 46.9375 207.188 45.75 207.188 43.625ZM248.25 25.0625V17.75C248.25 16.625 248.125 15.3125 247.875 13.8125C247.875 13.1875 247.875 12.6875 247.875 12.3125C247.75 11.5625 247.75 11.0625 247.875 10.8125C248 10.6875 248.5 10.6875 249.375 10.8125C251.125 11.1875 253.062 11.75 255.188 12.5C255.688 12.75 256 13.0625 256.125 13.4375H260.812V8.9375H249.75C249 9.0625 247.938 9.125 246.562 9.125C245.188 9.25 243.875 9.375 242.625 9.5C242.5 9.5 242.375 9.5625 242.25 9.6875C242.125 9.6875 241.938 9.5 241.688 9.125C241.188 8.5 240.875 7.875 240.75 7.25C240.375 6.875 240.438 6.75 240.938 6.875C242.188 7 244.062 7.1875 246.562 7.4375C248.688 7.4375 250.312 7.4375 251.438 7.4375H262.312C261.812 7.0625 261.562 6.5 261.562 5.75C261.062 4.25 260.25 2.9375 259.125 1.8125C258.75 1.5625 258.562 1.3125 258.562 1.0625C258.688 0.8125 259 0.625 259.5 0.5C260.375 0.375 261.25 0.3125 262.125 0.3125C266.125 0.4375 268.375 1.75 268.875 4.25C269 5.875 268.5 6.9375 267.375 7.4375H276.562C278.312 4.5625 279.688 3.0625 280.688 2.9375C282.188 3.3125 284.312 4.75 287.062 7.25C287.688 8.375 287.438 9 286.312 9.125C284.438 9.125 282.5 9.125 280.5 9.125C278.75 9 276.188 8.9375 272.812 8.9375H269.25C269.5 9.4375 269.375 9.9375 268.875 10.4375C268.25 10.8125 267.938 11.25 267.938 11.75V13.4375H273.562C274.688 11.5625 275.625 10.5625 276.375 10.4375C277.375 10.5625 279.25 11.5 282 13.25C282.875 14.125 282.875 14.9375 282 15.6875C281.375 16.0625 281.125 16.5 281.25 17V21.875C281.25 23.625 280.812 24.5625 279.938 24.6875C279.188 24.9375 278.625 25.125 278.25 25.25C279.5 26 280.75 26.75 282 27.5C282.75 28.625 282.625 29.3125 281.625 29.5625C280.625 29.3125 279.625 29.5 278.625 30.125C276.5 31.25 274.312 32.125 272.062 32.75C276.188 36.25 281.062 38.25 286.688 38.75C287.438 39 287.812 39.25 287.812 39.5C287.812 39.875 287.438 40.25 286.688 40.625C284.812 41 283.312 42.375 282.188 44.75C281.438 45.875 280.438 46.0625 279.188 45.3125C274.688 42.8125 271.562 40.375 269.812 38C264.312 41.125 260.375 44 258 46.625C257.125 47.5 256.375 47.625 255.75 47C254.25 45.125 253.125 43.5 252.375 42.125C251.875 41.375 252 40.9375 252.75 40.8125C253.875 40.6875 254.375 39.8125 254.25 38.1875V34.0625C250.25 35.9375 246.125 37.375 241.875 38.375C241.375 38.5 241.062 38.4375 240.938 38.1875C240.812 37.8125 241 37.5 241.5 37.25C249.875 32.875 255.812 28.125 259.312 23H255.188V24.125C255.188 25.25 254.688 26 253.688 26.375C253.438 26.5 253.062 26.625 252.562 26.75C251.812 26.875 251 27 250.125 27.125C248.75 27.5 248.125 26.8125 248.25 25.0625ZM261.375 29.9375V38.375C264 37.875 266.375 37.1875 268.5 36.3125C266.75 33.9375 265.5 31 264.75 27.5C263.625 28.5 262.5 29.3125 261.375 29.9375ZM274.5 14.75H267.938V21.6875H274.5V14.75ZM255.188 15.6875V21.6875H260.812V14.75H255.188C255.188 15.125 255.188 15.4375 255.188 15.6875ZM274.5 23.9375V23.375V23H269.25C269.5 23.75 269.375 24.1875 268.875 24.3125C268.25 24.3125 267.688 24.5625 267.188 25.0625C266.938 25.5625 266.688 25.875 266.438 26C267.312 27.75 268.438 29.3125 269.812 30.6875C271.688 28.5625 272.938 26.625 273.562 24.875C273.688 24.375 274 24.0625 274.5 23.9375ZM321 6.5H317.062C317.188 7 317 7.4375 316.5 7.8125C316 7.9375 315.812 8.5625 315.938 9.6875V19.4375H325.312C327.062 16.8125 328.25 15.375 328.875 15.125C330.625 15.75 332.75 17.25 335.25 19.625C335.75 20.5 335.625 21 334.875 21.125C334.125 21 330.562 20.9375 324.188 20.9375H315.938V24.6875C315.938 29.4375 316.062 34.8125 316.312 40.8125C316.562 43.0625 315.625 44.75 313.5 45.875C311.875 46.5 310.125 47 308.25 47.375C306.875 47.75 306.062 47.25 305.812 45.875C305.188 44.125 303.875 42.9375 301.875 42.3125C300.625 41.8125 300.125 41.375 300.375 41C300.375 40.625 300.938 40.5 302.062 40.625C302.312 40.625 302.875 40.6875 303.75 40.8125C304.5 40.8125 305 40.8125 305.25 40.8125C307.375 40.9375 308.438 39.9375 308.438 37.8125V20.9375H295.875C294 21.0625 292.438 21.1875 291.188 21.3125C290.812 21.5625 290.5 21.5 290.25 21.125C289.875 20.75 289.5 20.25 289.125 19.625C288.75 19.375 288.875 19.25 289.5 19.25C290 19.5 292.438 19.5625 296.812 19.4375H308.438V6.5H300C298 6.625 296.438 6.75 295.312 6.875C295.062 7 294.75 7 294.375 6.875C294.375 6.875 294.375 6.8125 294.375 6.6875C294 6.3125 293.625 5.8125 293.25 5.1875C293 4.8125 293.125 4.6875 293.625 4.8125C293.75 4.8125 294.188 4.875 294.938 5C296.562 5.125 298.562 5.1875 300.938 5.1875H322.875C324 2.8125 325 1.4375 325.875 1.0625C326.75 1.1875 328.625 2.5625 331.5 5.1875C332.125 6.0625 332 6.5625 331.125 6.6875C328.875 6.5625 325.5 6.5 321 6.5ZM348.562 18.875V19.4375C348.562 19.4375 348.625 19.3125 348.75 19.0625C352.75 15.3125 355.812 11.3125 357.938 7.0625C358.812 5.1875 359.438 3.375 359.812 1.625C359.688 0.625 360.375 0.25 361.875 0.5C364.25 1 366.25 1.5625 367.875 2.1875C368.375 2.4375 368.625 2.8125 368.625 3.3125C368.625 3.9375 368.312 4.3125 367.688 4.4375C367.688 4.4375 367.625 4.4375 367.5 4.4375C371.25 8.8125 376.375 11.6875 382.875 13.0625C383.5 13.3125 383.812 13.5625 383.812 13.8125C383.812 14.3125 383.562 14.625 383.062 14.75C381.688 15.625 380.5 16.875 379.5 18.5C379.625 18.75 379.688 18.8125 379.688 18.6875C380.938 19.3125 381.125 20.0625 380.25 20.9375C379.625 21.3125 379.312 21.875 379.312 22.625V25.0625C379.312 27.0625 379.312 29.6875 379.312 32.9375C379.438 36.3125 379.562 39 379.688 41C379.938 42.875 379.188 44.3125 377.438 45.3125C376.312 45.8125 375.062 46.25 373.688 46.625C372.062 47 371.188 46.6875 371.062 45.6875C370.438 43.4375 369.312 42.1875 367.688 41.9375C366.438 41.8125 366 41.5 366.375 41C366.125 40.875 366.688 40.8125 368.062 40.8125C371.562 41.0625 373.188 40.0625 372.938 37.8125V23.75C372.812 23.875 372.75 24 372.75 24.125C372.625 24.125 372.438 24.25 372.188 24.5C371.812 24.875 371.625 25.4375 371.625 26.1875V36.5C371.75 38 371.25 38.8125 370.125 38.9375C369.75 39.0625 369.312 39.1875 368.812 39.3125C368.438 39.3125 368.188 39.3125 368.062 39.3125C366.812 39.6875 366.25 39.25 366.375 38V27.875C366.375 25.75 366.312 24.125 366.188 23C365.938 22.375 365.938 21.9375 366.188 21.6875C366.312 21.4375 366.75 21.3125 367.5 21.3125C369 21.6875 370.438 22.0625 371.812 22.4375C372.312 22.8125 372.375 22.875 372 22.625C372.375 22.875 372.625 23.125 372.75 23.375C372.625 22.25 372.5 20.75 372.375 18.875C372 17.625 372.438 17.0625 373.688 17.1875C373.438 17.0625 373.125 16.8125 372.75 16.4375C372.375 16.1875 372.125 15.9375 372 15.6875H360.75C360.5 15.6875 360.062 15.75 359.438 15.875C358.688 15.875 358.188 15.875 357.938 15.875C357.562 16.125 357.312 16.125 357.188 15.875C356.062 16.625 354.875 17.375 353.625 18.125C354 18.25 354.625 18.4375 355.5 18.6875C356 18.8125 356.562 18.9375 357.188 19.0625C357.562 19.4375 357.75 19.625 357.75 19.625H359.062C359.938 18.125 360.688 17.25 361.312 17C362.312 17.125 363.812 17.8125 365.812 19.0625C366.562 19.6875 366.562 20.5 365.812 21.5C365.438 21.625 365.312 22.1875 365.438 23.1875V40.625C365.562 43.75 364.062 45.625 360.938 46.25C359.562 46.5 358.812 46.125 358.688 45.125C358.312 44 357.875 43.3125 357.375 43.0625V43.8125C357.375 44.9375 356.812 45.625 355.688 45.875C355.562 45.875 355.375 45.875 355.125 45.875C354.125 46.25 353.375 46.4375 352.875 46.4375C351.5 46.6875 350.938 46.125 351.188 44.75C351.312 41.375 351.438 37.875 351.562 34.25V24.875C351.562 23.5 351.5 22.5 351.375 21.875C351.375 21.125 351.312 20.3125 351.188 19.4375C350.938 19.5625 350.625 19.6875 350.25 19.8125C349.875 20.0625 349.625 20.1875 349.5 20.1875C349 20.4375 348.688 20.5 348.562 20.375V35.9375C348.438 39.3125 348.5 41.75 348.75 43.25C348.875 45.125 348.25 46.25 346.875 46.625C346.625 46.625 346.375 46.6875 346.125 46.8125C345.375 47.0625 344.375 47.3125 343.125 47.5625C341.375 47.8125 340.562 47 340.688 45.125C340.812 43.125 340.938 40.8125 341.062 38.1875C341.062 35.0625 341.125 32 341.25 29V24.5C340 26.125 338.75 27.375 337.5 28.25C337.125 28.625 336.875 28.6875 336.75 28.4375C336.625 28.1875 336.688 27.8125 336.938 27.3125C339.312 22.1875 341.438 15.875 343.312 8.375C343.812 6.125 344.188 3.8125 344.438 1.4375C344.312 0.6875 344.812 0.3125 345.938 0.3125C347.438 0.6875 349.938 1.4375 353.438 2.5625C354.312 3.3125 354.312 3.9375 353.438 4.4375C352.812 4.6875 352.375 5.0625 352.125 5.5625C350.5 9.6875 349 12.9375 347.625 15.3125C348 15.3125 348.375 15.375 348.75 15.5C349.5 15.875 349.625 16.4375 349.125 17.1875C348.625 17.4375 348.438 18 348.562 18.875ZM361.5 14.1875H366C366.75 12.8125 367.562 11.8125 368.438 11.1875C367.812 10.3125 367.125 8.8125 366.375 6.6875C366.25 6.4375 366.188 6.1875 366.188 5.9375C364.688 8.8125 362.438 11.5625 359.438 14.1875C360.312 14.1875 361 14.1875 361.5 14.1875ZM359.625 39.875V34.8125H357.375V41.1875C358.875 41.1875 359.625 40.75 359.625 39.875ZM357.375 27.875V33.3125H359.625V27.875H357.375ZM359.625 20.9375H357.375C357.375 21.1875 357.375 21.25 357.375 21.125V26.375H359.625V20.9375ZM395.812 34.4375V30.6875C392.562 32.9375 389.188 34.6875 385.688 35.9375C385.062 36.1875 384.688 36.1875 384.562 35.9375C384.438 35.6875 384.625 35.3125 385.125 34.8125C390.5 30.9375 394.75 26.0625 397.875 20.1875H392.25C390.5 20.3125 388.625 20.4375 386.625 20.5625C386.125 20.6875 385.812 20.625 385.688 20.375C385.312 20.125 384.938 19.6875 384.562 19.0625C384.312 18.8125 384.25 18.625 384.375 18.5C384.375 18.375 384.562 18.3125 384.938 18.3125C385.562 18.4375 386.75 18.5625 388.5 18.6875C390.25 18.6875 391.875 18.6875 393.375 18.6875H398.625C399.375 17.3125 400.062 15.6875 400.688 13.8125H393.562C392.562 13.9375 391.25 14.0625 389.625 14.1875C389.125 14.3125 388.75 14.375 388.5 14.375C388.125 14.5 387.875 14.375 387.75 14C387.375 13.75 387.062 13.3125 386.812 12.6875C386.562 12.3125 386.688 12.1875 387.188 12.3125C389.688 12.5625 392.188 12.6875 394.688 12.6875H401.062C401.312 12.0625 401.625 10.9375 402 9.3125C402.125 9.0625 402.25 8.8125 402.375 8.5625C396 8.6875 391.812 8.5625 389.812 8.1875C389.312 8.1875 389 8.0625 388.875 7.8125C389 7.5625 389.312 7.375 389.812 7.25C406.188 5 416.5 3 420.75 1.25C421.25 0.875 421.875 0.875 422.625 1.25C423.375 2 424.5 3.3125 426 5.1875C426.625 5.8125 427.125 6.25 427.5 6.5C427.75 7 427.688 7.375 427.312 7.625C427.062 8 426.688 8.0625 426.188 7.8125C425.562 7.5625 424.812 7.4375 423.938 7.4375C420.812 7.8125 417.188 8.0625 413.062 8.1875C412.938 8.8125 412.688 9.125 412.312 9.125C411.562 9.625 410.938 10.1875 410.438 10.8125C410.188 11.5625 410 12.1875 409.875 12.6875H415.688C417.312 10.0625 418.438 8.75 419.062 8.75C420.062 9 421.875 10.1875 424.5 12.3125C424.875 12.8125 425 13.25 424.875 13.625C424.75 13.875 424.438 14 423.938 14C422.562 14 421.312 14 420.188 14C419.188 13.875 417.688 13.8125 415.688 13.8125H409.312C408.562 15.6875 407.75 17.3125 406.875 18.6875H422.062C424.062 16.0625 425.312 14.6875 425.812 14.5625C427.188 15.0625 429.062 16.4375 431.438 18.6875C431.812 19.1875 431.938 19.625 431.812 20C431.688 20.375 431.375 20.5 430.875 20.375C429.125 20.375 427.188 20.375 425.062 20.375C423.312 20.25 420.75 20.1875 417.375 20.1875H405.938C405.062 21.5625 404.188 22.8125 403.312 23.9375C403.312 23.9375 403.375 24 403.5 24.125H416.062C417.062 22.625 417.938 21.6875 418.688 21.3125C420.562 21.8125 422.688 23.125 425.062 25.25C425.562 26 425.5 26.625 424.875 27.125C424.125 27.75 423.75 28.25 423.75 28.625V31.4375C423.75 33.5625 423.75 35.9375 423.75 38.5625C423.875 40.6875 424.062 42.375 424.312 43.625C424.312 45.125 423.812 46.0625 422.812 46.4375C422.188 46.5625 421.5 46.6875 420.75 46.8125C419.875 46.8125 419.125 46.875 418.5 47C417.125 47 416.5 46.4375 416.625 45.3125V42.875H402.938V44.1875C402.938 45.3125 402.5 46.0625 401.625 46.4375C400.375 46.9375 398.938 47.3125 397.312 47.5625C395.688 47.5625 395.062 46.875 395.438 45.5C395.562 43.25 395.688 39.5625 395.812 34.4375ZM402.938 37.25V41.375H416.625V37.25H402.938ZM416.625 25.4375H403.688C403.688 25.6875 403.688 25.75 403.688 25.625C403.188 25.875 402.938 26.3125 402.938 26.9375V29.9375H416.625V25.4375ZM402.938 31.4375V35.75H416.625V31.4375H402.938ZM444.75 17.9375V23.5625C445.625 23.1875 446.5 22.875 447.375 22.625L448.5 22.0625V17.375C448.375 13.875 448.125 11.0625 447.75 8.9375C447.5 8.3125 447.438 7.875 447.562 7.625C447.812 7.375 448.312 7.25 449.062 7.25C450.312 7.5 452.562 8 455.812 8.75C456.938 9.375 457.062 10.125 456.188 11C455.562 11.25 455.312 11.75 455.438 12.5V19.4375L458.062 18.3125V7.8125C457.938 7.1875 457.875 6.375 457.875 5.375C457.75 4.375 457.625 3.3125 457.5 2.1875C457.125 0.9375 457.688 0.375 459.188 0.5C460.938 0.75 463 1.125 465.375 1.625C465.875 1.875 466.188 2.25 466.312 2.75C466.312 3.25 466.062 3.5625 465.562 3.6875C465.062 4.0625 464.875 4.5625 465 5.1875V15.6875L468 14.375C469 12.125 469.75 11 470.25 11C473.75 12.5 476.062 13.8125 477.188 14.9375C477.188 15.5625 476.875 16 476.25 16.25C475.875 16.375 475.688 16.875 475.688 17.75C475.562 18.5 475.438 20.4375 475.312 23.5625C475.188 25.4375 475.125 26.75 475.125 27.5C475.125 27.875 475.062 28.25 474.938 28.625C474.938 28.875 474.938 29.0625 474.938 29.1875C475.062 29.0625 475.312 28.9375 475.688 28.8125C476.188 29.0625 476.375 29.625 476.25 30.5C475.75 35.375 476.188 38 477.562 38.375C479.188 39.375 479.938 40.375 479.812 41.375C479.688 42.625 479.125 43.5625 478.125 44.1875C476.875 45.0625 474.75 45.5 471.75 45.5H455.25C450.625 45.5 448.375 43.4375 448.5 39.3125V23.75L447.188 24.125C447.062 24.25 446.875 24.3125 446.625 24.3125C446.125 24.5625 445.5 25 444.75 25.625V33.3125C444.75 34.5625 444.75 36.3125 444.75 38.5625C444.875 40.3125 445 41.8125 445.125 43.0625C445.25 44.8125 444.688 45.875 443.438 46.25C442.438 46.625 441.125 47 439.5 47.375C437.875 47.625 437.188 47 437.438 45.5C437.562 44.125 437.688 42 437.812 39.125C437.812 36 437.875 32.375 438 28.25V22.8125C436.625 24.5625 435.188 26.125 433.688 27.5C433.188 28 432.812 28.1875 432.562 28.0625C432.312 27.9375 432.312 27.5 432.562 26.75C436.438 17.625 438.75 9.5 439.5 2.375C439.625 1 440.25 0.4375 441.375 0.6875C444.25 1.4375 446.625 2.1875 448.5 2.9375C449.5 3.6875 449.438 4.4375 448.312 5.1875C447.562 5.4375 447 6.0625 446.625 7.0625C446 9.3125 445.062 11.5625 443.812 13.8125C443.938 13.9375 444.125 14 444.375 14C444.5 14 444.688 14.0625 444.938 14.1875C445.938 14.6875 446.062 15.3125 445.312 16.0625C444.938 16.4375 444.75 17.0625 444.75 17.9375ZM458.625 39.6875H468.188C471.062 40.4375 473.125 37.4375 474.375 30.6875C473.625 32.4375 471.812 33.625 468.938 34.25C467.688 34.625 466.938 34.3125 466.688 33.3125C466.438 32.0625 465.875 31.0625 465 30.3125C465 30.6875 465 31.1875 465 31.8125C465.125 32.5625 465.188 33.125 465.188 33.5C465.188 34.625 464.625 35.3125 463.5 35.5625C461.875 36.0625 460.25 36.3125 458.625 36.3125C457.625 36.4375 457.188 35.9375 457.312 34.8125C457.438 33.0625 457.562 31.1875 457.688 29.1875C457.812 27.0625 457.938 25 458.062 23V20L455.438 20.9375V35.75C455.188 38.625 456.25 39.9375 458.625 39.6875ZM468.562 15.6875L465 17.1875V26.75V28.25C467.125 28.625 468.188 27.75 468.188 25.625C468.562 20.625 468.688 17.3125 468.562 15.6875ZM506.25 6.875V9.125C506.25 16.375 507.75 22.375 510.75 27.125C514.5 32.75 519.625 36.625 526.125 38.75C527.375 39.25 527.938 39.625 527.812 39.875C527.812 40 527.625 40.125 527.25 40.25C527.125 40.375 526.938 40.5 526.688 40.625C523.938 41.75 522.062 43.25 521.062 45.125C520.438 46.625 519.5 46.8125 518.25 45.6875C509.5 40.8125 505.25 31.5 505.5 17.75C504.625 32.875 496.5 42.25 481.125 45.875C480.75 46 480.5 45.875 480.375 45.5C480.25 45.25 480.438 45 480.938 44.75C492.812 38.5 498.75 26.375 498.75 8.375C498.625 6 498.5 4.375 498.375 3.5C498.125 2.875 498.125 2.4375 498.375 2.1875C498.5 2.0625 499 2 499.875 2C502.25 2.25 504.625 2.6875 507 3.3125C507.625 3.5625 507.938 3.9375 507.938 4.4375C507.938 5.0625 507.625 5.4375 507 5.5625C506.375 5.8125 506.125 6.25 506.25 6.875ZM530.625 31.8125V20.375C530.625 18.125 530.562 16.4375 530.438 15.3125C530.438 13.9375 530.375 12.625 530.25 11.375C530.125 10 530.562 9.5 531.562 9.875C533.438 10.5 535.438 11.3125 537.562 12.3125H537.938C537.938 10.4375 537.938 8.625 537.938 6.875C537.938 5.125 537.938 3.5 537.938 2C537.688 1.25 538.062 0.9375 539.062 1.0625C541.062 1.1875 543.125 1.5 545.25 2C546 2.125 546.375 2.4375 546.375 2.9375C546.5 3.3125 546.25 3.625 545.625 3.875C545 4.375 544.562 4.9375 544.312 5.5625C543.188 8.0625 541.938 10.3125 540.562 12.3125H544.5C545.625 10.6875 546.5 9.8125 547.125 9.6875C549.625 10.5625 551.688 11.9375 553.312 13.8125C553.312 14.4375 553 14.875 552.375 15.125C551.75 15.5 551.5 15.9375 551.625 16.4375V21.875C554 14.5 555.375 7.8125 555.75 1.8125C555.625 1.1875 555.938 0.875 556.688 0.875C559.438 1.375 562.125 2.0625 564.75 2.9375C565.25 3.3125 565.5 3.6875 565.5 4.0625C565.375 4.4375 565.062 4.75 564.562 5C563.562 5.5 563 6.125 562.875 6.875C562.25 8.875 561.562 10.6875 560.812 12.3125H565.5C567 10.3125 568.062 9.25 568.688 9.125C572.062 10.625 574.375 12.125 575.625 13.625C575.625 14.25 575.25 14.75 574.5 15.125C573.75 15.5 573.438 15.9375 573.562 16.4375C573.438 29.4375 573.188 37.625 572.812 41C572.312 44.5 569.5 46.625 564.375 47.375C562.875 47.625 562 47.3125 561.75 46.4375C561 43.5625 559.312 41.75 556.688 41C555.438 41 555 40.6875 555.375 40.0625C555.25 39.5625 555.75 39.4375 556.875 39.6875C560 40.1875 562.062 40.375 563.062 40.25C564.062 40.125 564.688 39.5 564.938 38.375C565.688 31.375 566.125 23.1875 566.25 13.8125H560.062C558.812 16.3125 557.438 18.625 555.938 20.75C560.562 22.125 563.125 24.625 563.625 28.25C563.625 31.375 562.25 33 559.5 33.125C557.25 33.375 556 32.3125 555.75 29.9375C555.875 27.4375 555.438 24.9375 554.438 22.4375C554.188 22.6875 553.938 22.9375 553.688 23.1875C552.812 24.0625 552.125 24.6875 551.625 25.0625V27.6875C551.625 30.9375 551.812 35.375 552.188 41C552.188 41.875 551.75 42.5 550.875 42.875C549.25 43.25 547.875 43.5 546.75 43.625C545.125 43.875 544.438 43.5 544.688 42.5V39.875H537.375V42.125C537.375 43.625 536.75 44.5 535.5 44.75C534.375 45 533.25 45.1875 532.125 45.3125C530.375 45.5625 529.75 44.8125 530.25 43.0625C530.375 39.8125 530.5 36.0625 530.625 31.8125ZM544.688 13.8125H538.125C537.5 14.1875 537.25 14.75 537.375 15.5V25.625H544.688V13.8125ZM537.375 27.125V38.375H544.688V27.125H537.375ZM597.188 36.125V28.4375H586.125C583.5 28.5625 581.188 28.6875 579.188 28.8125C578.688 28.9375 578.375 28.875 578.25 28.625C577.625 28.25 577.25 27.75 577.125 27.125C576.875 26.875 576.812 26.75 576.938 26.75C576.938 26.625 577.125 26.5625 577.5 26.5625C578.125 26.8125 579.375 26.9375 581.25 26.9375C583.5 27.0625 585.688 27.125 587.812 27.125H597.188V19.0625H589.688C587.062 19.1875 584.75 19.3125 582.75 19.4375C582.25 19.5625 581.938 19.5 581.812 19.25C581.438 18.75 581.062 18.25 580.688 17.75C580.562 17.5 580.5 17.375 580.5 17.375C580.5 17.25 580.688 17.1875 581.062 17.1875C581.688 17.4375 583 17.5625 585 17.5625C587.25 17.6875 589.375 17.75 591.375 17.75H597.188V10.4375C590.812 10.4375 585.688 10.25 581.812 9.875C581.188 9.875 580.812 9.6875 580.688 9.3125C580.688 8.9375 581 8.6875 581.625 8.5625C590.625 7.4375 597.562 6.3125 602.438 5.1875C607.438 3.9375 611 2.875 613.125 2C614 1.625 614.688 1.6875 615.188 2.1875C618.062 5.1875 620 7.3125 621 8.5625C621.25 8.9375 621.25 9.375 621 9.875C620.625 10.25 620.25 10.3125 619.875 10.0625C619.25 9.8125 618.125 9.6875 616.5 9.6875C615.375 9.8125 612 10 606.375 10.25C606.625 10.875 606.438 11.375 605.812 11.75C605.062 12.25 604.75 12.75 604.875 13.25V17.75H610.5C610.5 17.75 610.625 17.5625 610.875 17.1875C612.75 14.4375 613.938 13.0625 614.438 13.0625C615.812 13.5625 617.812 15.0625 620.438 17.5625C620.688 18.0625 620.75 18.5 620.625 18.875C620.5 19.125 620.188 19.25 619.688 19.25C618.812 19.125 614.312 19.0625 606.188 19.0625H604.875V23.9375C604.875 24.9375 604.875 26 604.875 27.125H613.5C613.5 27.125 613.625 26.9375 613.875 26.5625C615.75 23.8125 616.938 22.4375 617.438 22.4375C618.812 22.9375 620.812 24.4375 623.438 26.9375C623.688 27.4375 623.75 27.875 623.625 28.25C623.5 28.5 623.188 28.625 622.688 28.625C621.812 28.5 617.312 28.4375 609.188 28.4375H604.875C605.125 33.4375 605.25 37.5 605.25 40.625C605.25 43.125 604.625 44.75 603.375 45.5C603.125 45.5 602.875 45.5625 602.625 45.6875C600.625 46.5625 598.812 47.1875 597.188 47.5625C595.438 47.9375 594.5 47.5 594.375 46.25C594 43.5 591.938 41.75 588.188 41C586.938 40.875 586.438 40.625 586.688 40.25C586.562 39.625 587.125 39.375 588.375 39.5C590.5 39.875 592.188 40 593.438 39.875C596.062 40.125 597.312 38.875 597.188 36.125ZM635.812 17.75V43.625C635.938 45.375 635.438 46.375 634.312 46.625C634.062 46.625 633.812 46.625 633.562 46.625C632.562 47 631.75 47.25 631.125 47.375C629.5 47.75 628.812 46.75 629.062 44.375C629.188 39.75 629.312 35.1875 629.438 30.6875C628.188 32.4375 626.75 34 625.125 35.375C624.625 35.75 624.312 35.875 624.188 35.75C624.062 35.625 624.125 35.3125 624.375 34.8125C626.875 28.9375 628.438 21.9375 629.062 13.8125H628.875C627.5 13.8125 626.562 13.875 626.062 14C625.562 14.25 625.25 14.1875 625.125 13.8125C624.875 13.5625 624.625 13.125 624.375 12.5C624.125 12.125 624.25 11.9375 624.75 11.9375C626.125 12.1875 627.688 12.3125 629.438 12.3125V9.875C629.312 8.25 629.25 6.6875 629.25 5.1875C629.125 3.8125 629 2.8125 628.875 2.1875C628.5 0.8125 629 0.25 630.375 0.5C632.25 0.625 634.188 0.9375 636.188 1.4375C637.062 1.8125 637.188 2.375 636.562 3.125C635.938 3.375 635.688 3.875 635.812 4.625V12.3125C636.562 10.8125 637.125 10 637.5 9.875C638.25 10 639.312 10.8125 640.688 12.3125C640.688 12.1875 640.812 12.0625 641.062 11.9375C641.188 11.9375 641.312 11.875 641.438 11.75C641.688 11.625 642 11.3125 642.375 10.8125C643.375 9.1875 644.25 6.8125 645 3.6875C645 3.3125 645.375 3.1875 646.125 3.3125C648 4.1875 649.375 4.875 650.25 5.375C650.75 6.25 650.625 6.6875 649.875 6.6875C649.25 6.6875 648.75 6.9375 648.375 7.4375C647.5 8.5625 646.188 10.1875 644.438 12.3125C645.062 12.3125 645.875 12.3125 646.875 12.3125C647.375 11.3125 647.688 10.5625 647.812 10.0625C647.938 9.8125 648.062 9.5625 648.188 9.3125C648.312 8.9375 648.688 8.8125 649.312 8.9375C650.312 9.5625 651.375 10.1875 652.5 10.8125V9.5C652.375 8.375 652.312 7.1875 652.312 5.9375C652.188 4.4375 652.062 3.0625 651.938 1.8125C651.812 1.3125 651.812 0.9375 651.938 0.6875C652.062 0.5625 652.438 0.5 653.062 0.5C653.062 0.625 653.188 0.6875 653.438 0.6875C655.688 0.9375 657.375 1.1875 658.5 1.4375C659.5 1.9375 659.562 2.5625 658.688 3.3125C658.062 3.4375 657.812 3.9375 657.938 4.8125V13.4375C657.938 18.5625 658.5 23.375 659.625 27.875H661.5C661.125 27.75 660.875 27.3125 660.75 26.5625C660.625 25.8125 660.188 25.0625 659.438 24.3125C659.188 24.0625 659.062 23.875 659.062 23.75C659.188 23.625 659.438 23.5625 659.812 23.5625H660.188C659.938 23.4375 659.812 23.25 659.812 23C659.438 22.125 659.062 21.0625 658.688 19.8125C658.438 19.1875 658.75 18.875 659.625 18.875C660.125 19 660.625 18.8125 661.125 18.3125C661.25 18.0625 661.562 17.625 662.062 17C662.812 16 663.375 15.1875 663.75 14.5625C663.5 14.6875 663.25 14.875 663 15.125C662.75 15.25 662.125 15.5 661.125 15.875C660.25 16.375 659.75 16.25 659.625 15.5C659 14.375 658.562 13.4375 658.312 12.6875C658.188 12.1875 658.438 11.875 659.062 11.75C659.438 11.625 659.75 11.375 660 11C660.625 10 661.5 7.625 662.625 3.875C662.625 3.25 663 3.125 663.75 3.5C664.875 3.875 666.25 4.5625 667.875 5.5625C668.125 5.8125 668.25 6.125 668.25 6.5C668.125 6.75 667.875 6.875 667.5 6.875C667 6.75 666.562 7 666.188 7.625C664.188 10 662.75 11.625 661.875 12.5C662.25 12.5 662.75 12.5 663.375 12.5C664 12.5 664.562 12.4375 665.062 12.3125C665.562 11.4375 666.062 10.5 666.562 9.5C666.688 9 667.062 8.875 667.688 9.125C668.938 9.75 670.125 10.5 671.25 11.375C671.75 12.125 671.688 12.5625 671.062 12.6875C670.188 12.8125 669.625 13.0625 669.375 13.4375C668.5 14.3125 667.5 15.3125 666.375 16.4375C666.375 16.4375 666.438 16.4375 666.562 16.4375C668.688 17.6875 670.062 19.125 670.688 20.75C671.062 22.875 670.5 24.0625 669 24.3125C667.25 24.8125 666.438 24 666.562 21.875V21.3125C663.562 22.1875 661.812 22.875 661.312 23.375C661.188 23.375 661.125 23.4375 661.125 23.5625C661 23.6875 660.938 23.6875 660.938 23.5625C662.312 23.5625 663.375 23.8125 664.125 24.3125C665.125 25.5625 665.125 26.6875 664.125 27.6875C664 27.9375 663.875 28 663.75 27.875H664.5C665.5 26.25 666.438 25.25 667.312 24.875C668.312 25.125 669.625 26.1875 671.25 28.0625C671.75 28.9375 671.625 29.4375 670.875 29.5625C670.125 29.5625 668.938 29.5625 667.312 29.5625C665.938 29.4375 663.75 29.375 660.75 29.375H660C660.5 31.125 661.125 32.625 661.875 33.875C662.25 33 662.625 31.9375 663 30.6875C663.125 29.6875 663.812 29.375 665.062 29.75C666.688 30.25 668.188 30.75 669.562 31.25C670.062 31.625 670.312 32 670.312 32.375C670.188 32.875 669.938 33.125 669.562 33.125C668.938 33.25 668.438 33.75 668.062 34.625C667.938 34.75 667.875 34.8125 667.875 34.8125C667.25 36.3125 666.5 37.625 665.625 38.75C667.25 39.5 668.562 38.375 669.562 35.375C669.688 34.875 669.938 34.625 670.312 34.625C670.688 34.75 670.875 35.0625 670.875 35.5625C670.125 39.0625 670.062 41.4375 670.688 42.6875C671.188 44.1875 671 45.375 670.125 46.25C669.375 46.875 668.188 46.9375 666.562 46.4375C664.438 45.6875 662.562 44.5 660.938 42.875C657.688 44.75 653.562 46.0625 648.562 46.8125C647.812 46.8125 647.312 46.625 647.062 46.25C647.062 45.875 647.438 45.625 648.188 45.5C652.062 44 655.375 42.0625 658.125 39.6875C656.375 36.9375 655 33.5 654 29.375H648.938C648.812 30.875 648.688 32.1875 648.562 33.3125C648.562 33.3125 648.688 33.3125 648.938 33.3125C651.688 33.3125 653.688 34.0625 654.938 35.5625C655.938 37.5625 655.625 39.0625 654 40.0625C651.75 40.6875 650.438 40.125 650.062 38.375C649.688 36.25 649.188 34.8125 648.562 34.0625H648.375C647.25 40.0625 643.375 44.3125 636.75 46.8125C636 47.0625 635.562 47.0625 635.438 46.8125C635.438 46.4375 635.75 46.0625 636.375 45.6875C640.625 42.5625 642.688 37.3125 642.562 29.9375V29.375C640.562 29.375 639.375 29.4375 639 29.5625C638.5 29.8125 638.188 29.75 638.062 29.375C637.812 29.25 637.625 29 637.5 28.625C637.375 28.375 637.25 28.125 637.125 27.875C636.875 27.5 637 27.375 637.5 27.5C638.375 27.625 640.062 27.75 642.562 27.875C642.438 27 642.312 26.125 642.188 25.25C641.688 24.125 642.188 23.625 643.688 23.75C645.812 24.125 647.812 24.5 649.688 24.875C650.188 25.125 650.5 25.4375 650.625 25.8125C650.625 26.3125 650.438 26.6875 650.062 26.9375C649.688 27.1875 649.438 27.5 649.312 27.875H653.625C652.875 23.875 652.5 19.0625 652.5 13.4375V12.5C651.875 12.75 651.375 13 651 13.25C650.125 14 649.25 14.9375 648.375 16.0625C650.25 16.8125 651.562 18.125 652.312 20C652.812 22.125 652.312 23.4375 650.812 23.9375C649.188 24.4375 648.375 23.625 648.375 21.5V21.3125C646.125 21.9375 644.375 22.5625 643.125 23.1875C642.25 23.8125 641.688 23.6875 641.438 22.8125C641.188 22.0625 640.875 21.0625 640.5 19.8125C640.25 19.1875 640.562 18.875 641.438 18.875C641.812 19 642.25 18.75 642.75 18.125C643.625 17.25 644.438 16.1875 645.188 14.9375C644.938 15.1875 644.562 15.4375 644.062 15.6875C643.812 15.8125 643.625 15.875 643.5 15.875C642.625 16.25 642.125 16.125 642 15.5C641.875 15.375 641.688 15 641.438 14.375C641.312 14.25 641.188 14 641.062 13.625C640.812 13.875 640.562 13.9375 640.312 13.8125H635.812V16.4375C635.688 16.4375 635.75 16.5 636 16.625C638.125 17.875 639.625 19.375 640.5 21.125C640.875 23.25 640.312 24.5 638.812 24.875C637.062 25.375 636.25 24.625 636.375 22.625C636.5 21.25 636.312 19.625 635.812 17.75ZM645 19.25C645.125 19.25 645.562 19.25 646.312 19.25C647.188 19.125 647.875 19.0625 648.375 19.0625C648.375 18.1875 648.188 17.3125 647.812 16.4375C647.312 17.0625 646.625 17.75 645.75 18.5C645.375 18.875 645.125 19.125 645 19.25ZM663.375 19.4375C663.5 19.4375 663.875 19.4375 664.5 19.4375C665.375 19.3125 666.062 19.25 666.562 19.25C666.312 18 666.125 17.25 666 17C666 17.125 666 17.0625 666 16.8125C665 18.0625 664.125 18.9375 663.375 19.4375ZM678.938 33.6875C682.938 34.0625 686.562 36.375 689.812 40.625C690.812 42 691 43.1875 690.375 44.1875C689.875 44.6875 689.125 45 688.125 45.125C687.5 44.875 687 44.25 686.625 43.25C686.625 43.125 686.625 43.0625 686.625 43.0625C686.375 42.5625 686.125 42.0625 685.875 41.5625C685 39.6875 684.188 38.25 683.438 37.25C681.938 35.25 680.438 34.0625 678.938 33.6875ZM746.25 5.375V6.125H751.5C752.625 4.5 753.438 3.625 753.938 3.5C756.062 4.25 758.375 5.6875 760.875 7.8125C761.125 8.5625 760.938 9.125 760.312 9.5C759.812 9.75 759.562 10.125 759.562 10.625V11.75H760.125C761.25 10 762.188 8.9375 762.938 8.5625C763.812 8.9375 765.125 10 766.875 11.75C767.125 12.625 766.938 13.125 766.312 13.25H759.562C759.438 14.625 759.5 16 759.75 17.375C759.875 18.875 759.375 19.75 758.25 20C758.125 20 758 20.0625 757.875 20.1875C757.625 20.1875 757.438 20.1875 757.312 20.1875C757.688 20.4375 758.25 21 759 21.875C759.25 22.25 759.562 22.5625 759.938 22.8125C760.312 23.3125 760.438 23.75 760.312 24.125C760.188 24.375 759.875 24.5 759.375 24.5C756.125 24.5 752.188 24.5 747.562 24.5H746.25V27.6875H756.938C757.188 27.4375 757.5 27.125 757.875 26.75C759.25 25.125 760.125 24.3125 760.5 24.3125C761.25 24.6875 762.688 25.75 764.812 27.5C765.188 28 765.312 28.5 765.188 29C765.062 29.375 764.75 29.5 764.25 29.375C763.125 29.375 761.625 29.375 759.75 29.375C758 29.25 755.438 29.1875 752.062 29.1875H730.875C727.5 29.3125 725.125 29.5 723.75 29.75C723.375 29.875 723.062 29.6875 722.812 29.1875C722.562 29.0625 722.375 28.8125 722.25 28.4375C722.125 28.1875 722 27.9375 721.875 27.6875C721.625 27.4375 721.75 27.3125 722.25 27.3125C723.25 27.4375 724.812 27.5625 726.938 27.6875C729.062 27.6875 730.938 27.6875 732.562 27.6875H739.125V24.5H735.562C732.188 24.625 729.812 24.8125 728.438 25.0625C727.938 25.1875 727.625 25 727.5 24.5C727 24.25 726.688 23.8125 726.562 23.1875C726.438 22.9375 726.375 22.8125 726.375 22.8125C726.375 22.6875 726.5 22.625 726.75 22.625C730.875 23 734.375 23.1875 737.25 23.1875H739.125V18.5H731.25C730.875 18.5 730.312 18.5625 729.562 18.6875C728.812 18.6875 728.375 18.6875 728.25 18.6875C727.75 18.9375 727.438 18.875 727.312 18.5C726.812 18.125 726.5 17.75 726.375 17.375C726.125 17.25 726 17.125 726 17C726.125 16.875 726.312 16.75 726.562 16.625C727.688 17 729.562 17.125 732.188 17H739.125V13.25H726.188C724.812 13.25 723.875 13.3125 723.375 13.4375C723 13.5625 722.625 13.5625 722.25 13.4375C722.25 13.4375 722.25 13.375 722.25 13.25C722.125 13.25 722 13.125 721.875 12.875C721.625 12.5 721.438 12.1875 721.312 11.9375C721.062 11.8125 721 11.6875 721.125 11.5625C721.125 11.5625 721.312 11.5 721.688 11.375C723.562 11.625 725.375 11.75 727.125 11.75H739.125V7.625H732.75C732.375 7.625 731.875 7.6875 731.25 7.8125C730.625 7.9375 730.188 7.9375 729.938 7.8125C729.312 8.0625 728.938 8 728.812 7.625C728.562 7.5 728.312 7.25 728.062 6.875C727.938 6.625 727.875 6.4375 727.875 6.3125C727.625 6.1875 727.562 6.0625 727.688 5.9375C727.688 5.9375 727.875 5.875 728.25 5.75C729.25 6.125 731.062 6.25 733.688 6.125H739.125C739 4.75 738.875 3.5625 738.75 2.5625C738.375 1.4375 738.938 0.875 740.438 0.875C742.188 1 744.188 1.3125 746.438 1.8125C747.312 2.4375 747.438 3.0625 746.812 3.6875C746.312 3.9375 746.125 4.5 746.25 5.375ZM727.125 38.1875V37.625C727 37 726.938 35.75 726.938 33.875C726.938 32.75 726.938 32 726.938 31.625C726.562 30.375 727.062 29.875 728.438 30.125C729.812 30.625 731.875 31.25 734.625 32C734.625 32.25 734.75 32.3125 735 32.1875H751.5C752.375 30.8125 753.188 30 753.938 29.75C756.562 30.75 759 32.1875 761.25 34.0625C761.25 34.4375 760.938 34.875 760.312 35.375C759.688 35.625 759.438 36.0625 759.562 36.6875V37.4375C759.562 38.3125 759.562 39.5 759.562 41C759.688 42.125 759.75 42.9375 759.75 43.4375C760 45.0625 759.5 46 758.25 46.25C757.625 46.375 756.938 46.5 756.188 46.625C755.312 46.625 754.562 46.6875 753.938 46.8125C752.562 47.0625 752 46.625 752.25 45.5V45.3125H734.438V45.5C734.438 46.125 734.062 46.625 733.312 47C731.312 47.25 729.812 47.4375 728.812 47.5625C727.188 47.8125 726.562 47.125 726.938 45.5C726.938 45.125 726.938 44.25 726.938 42.875C727.062 40.875 727.125 39.3125 727.125 38.1875ZM734.438 39.6875V43.8125H752.25V39.6875H734.438ZM752.25 33.6875H735C734.625 33.9375 734.438 34.4375 734.438 35.1875V38.1875H752.25V33.6875ZM752.062 18.5H746.25V23.1875H752.062C752.062 23.1875 752.125 23.0625 752.25 22.8125C752.75 21.9375 753.375 21.1875 754.125 20.5625H753.938C752.562 20.6875 751.938 20 752.062 18.5ZM752.062 7.625H746.25V11.75H752.062V7.625ZM746.25 13.25V17H752.062V13.25H746.25ZM805.5 36.6875H795.562C795.562 37.5625 795.562 38.75 795.562 40.25C795.688 41.5 795.812 42.5625 795.938 43.4375C796.188 44.8125 795.562 45.75 794.062 46.25C792.938 46.75 791.562 47.125 789.938 47.375C787.938 47.875 787.125 46.875 787.5 44.375C787.5 42.125 787.562 39.9375 787.688 37.8125C787.688 37.4375 787.75 37.0625 787.875 36.6875H781.5C779.625 36.8125 778.375 36.9375 777.75 37.0625C777.25 37.1875 776.938 37.125 776.812 36.875C776.562 36.625 776.375 36.375 776.25 36.125C774.5 37.375 772.562 38.5625 770.438 39.6875C769.562 40.3125 769.062 40.375 768.938 39.875C768.812 39.75 768.875 39.4375 769.125 38.9375C769.25 38.8125 769.375 38.6875 769.5 38.5625C776.625 31.5625 781.312 23.25 783.562 13.625H777.75C775.5 13.75 773.062 13.875 770.438 14C769.938 14.125 769.625 14.0625 769.5 13.8125C769.25 13.5625 769 13.25 768.75 12.875C768.625 12.625 768.562 12.4375 768.562 12.3125C768.312 11.9375 768.438 11.75 768.938 11.75C770.062 12.125 773.625 12.25 779.625 12.125H788.062V10.0625C787.938 9.0625 787.875 7.875 787.875 6.5C787.75 4.875 787.625 3.375 787.5 2C787.25 1.375 787.188 0.9375 787.312 0.6875C787.562 0.5625 788.062 0.5 788.812 0.5C791.688 0.625 794.125 1 796.125 1.625C797.5 2.375 797.625 3.1875 796.5 4.0625C795.75 4.5625 795.375 5.0625 795.375 5.5625V12.125H804.188C806.188 9.125 807.688 7.5 808.688 7.25C810.438 8 812.562 9.625 815.062 12.125C815.312 12.625 815.375 13.0625 815.25 13.4375C815.125 13.8125 814.875 13.9375 814.5 13.8125C812.625 13.8125 810.688 13.8125 808.688 13.8125C807.188 13.6875 804.812 13.625 801.562 13.625H797.438C801.062 22.375 806.75 28.1875 814.5 31.0625C815.375 31.4375 815.812 31.75 815.812 32C815.812 32.5 815.438 32.875 814.688 33.125C813.438 33.875 812.062 35.5 810.562 38C809.938 39.25 809.125 39.5 808.125 38.75C807.375 38.25 806.625 37.5625 805.875 36.6875C805.75 36.6875 805.625 36.6875 805.5 36.6875ZM795.562 35.1875H797.062C797.062 35.1875 797.125 35.0625 797.25 34.8125C798.75 32.4375 799.75 31.25 800.25 31.25C800.625 31.375 801.5 31.875 802.875 32.75C799 26.75 796.688 20.375 795.938 13.625H795.375V28.4375C795.375 29.0625 795.375 30 795.375 31.25C795.5 33 795.562 34.3125 795.562 35.1875ZM788.062 29V22.625C785.438 27.5 781.875 31.6875 777.375 35.1875C778.25 35.1875 780 35.1875 782.625 35.1875H787.875C787.875 34.5625 787.875 33.5 787.875 32C788 30.625 788.062 29.625 788.062 29ZM822.938 33.6875C826.938 34.0625 830.562 36.375 833.812 40.625C834.812 42 835 43.1875 834.375 44.1875C833.875 44.6875 833.125 45 832.125 45.125C831.5 44.875 831 44.25 830.625 43.25C830.625 43.125 830.625 43.0625 830.625 43.0625C830.375 42.5625 830.125 42.0625 829.875 41.5625C829 39.6875 828.188 38.25 827.438 37.25C825.938 35.25 824.438 34.0625 822.938 33.6875ZM870.375 28.0625V27.125C870.25 25.75 870.125 24.1875 870 22.4375C869.75 21.4375 870.25 21 871.5 21.125C873.875 21.375 876.125 21.875 878.25 22.625C878.375 22.75 878.5 22.875 878.625 23H896.438C897.938 21 898.938 20 899.438 20C901.688 20.875 904 22.4375 906.375 24.6875C906.625 25.3125 906.312 25.8125 905.438 26.1875C904.688 26.6875 904.375 27.25 904.5 27.875C904.375 30 904.438 32.125 904.688 34.25C904.688 35.75 904.062 36.6875 902.812 37.0625C901.938 37.5625 900.688 37.875 899.062 38C897.562 38.25 896.875 37.8125 897 36.6875V35.75H890.625V37.625C890.625 39.125 891.375 39.875 892.875 39.875H901.125C902.625 40 903.75 39.25 904.5 37.625C904.625 37.375 904.938 36.375 905.438 34.625C905.812 33.5 906.25 32.3125 906.75 31.0625C906.875 30.0625 907.188 29.625 907.688 29.75C908.062 29.75 908.25 30.1875 908.25 31.0625C908.125 34.5625 908.812 37.125 910.312 38.75C912.438 40.625 912.25 42.375 909.75 44C907.75 45 905.125 45.5 901.875 45.5H889.688C884.938 45.75 882.75 43.5625 883.125 38.9375V35.75H877.5V38C877.5 39.125 876.938 39.8125 875.812 40.0625C875.062 40.4375 873.75 40.6875 871.875 40.8125C870.5 40.9375 869.875 40.4375 870 39.3125C870 38.9375 870 37.8125 870 35.9375C870.25 32.4375 870.375 29.8125 870.375 28.0625ZM871.5 9.5H883.5V5.75H876.938C875.438 5.75 874.375 5.8125 873.75 5.9375C873 5.9375 872.5 5.9375 872.25 5.9375C872.125 5.9375 871.938 6 871.688 6.125C871.562 6.125 871.375 5.9375 871.125 5.5625C870.625 5.1875 870.312 4.8125 870.188 4.4375C869.938 4.1875 869.812 4.0625 869.812 4.0625C869.812 3.9375 870 3.875 870.375 3.875C870.5 4 870.688 4.0625 870.938 4.0625C873.312 4.3125 875.375 4.375 877.125 4.25H897.188C898.438 1.875 899.438 0.6875 900.188 0.6875C901.438 1.0625 902.938 2.1875 904.688 4.0625C905.062 4.9375 904.938 5.5 904.312 5.75H891.562C891.438 6.125 891.312 6.3125 891.188 6.3125C890.688 6.6875 890.5 7.0625 890.625 7.4375V9.5H901.875C902.875 7.75 903.75 6.6875 904.5 6.3125C906.125 6.8125 908.188 8.375 910.688 11C911.188 11.875 911.375 12.5625 911.25 13.0625C910.875 13.5625 910.312 13.8125 909.562 13.8125C907.562 13.6875 905.25 14.6875 902.625 16.8125C902.125 17.1875 901.75 17.3125 901.5 17.1875C901.375 17.0625 901.375 16.6875 901.5 16.0625L902.438 11H890.625V19.8125C890.625 21.0625 890.062 21.8125 888.938 22.0625C887.312 22.4375 886 22.625 885 22.625C883.875 22.875 883.375 22.375 883.5 21.125V11H871.875C872.25 12.375 872.375 13.75 872.25 15.125C871.375 18.125 869.688 19.3125 867.188 18.6875C865.062 17.6875 864.562 16 865.688 13.625C867.438 11.75 868.5 9.75 868.875 7.625C868.875 7.25 869 7.0625 869.25 7.0625C869.5 7.0625 869.812 7.1875 870.188 7.4375C870.688 8.1875 871.125 8.875 871.5 9.5ZM890.625 34.25H897V30.125H890.625V34.25ZM897 24.5H890.625V28.625H897V24.5ZM877.5 30.125V34.25H883.125V30.125H877.5ZM877.5 26V28.625H883.125V24.5H878.062C877.688 24.875 877.5 25.375 877.5 26ZM882.938 15.125H873.375V13.8125H882.938V15.125ZM882.75 19.25H873.375V17.9375H882.75V19.25ZM900.75 15.125H891.75V13.8125H900.75V15.125ZM900.75 19.25H891.75V17.9375H900.75V19.25ZM943.688 25.0625H950.438C951.188 23.5625 952 22.625 952.875 22.25C955 22.875 957.125 24.3125 959.25 26.5625C959.375 26.9375 959.062 27.3125 958.312 27.6875C958.188 27.8125 958.125 27.875 958.125 27.875C957.625 28.25 957.438 28.6875 957.562 29.1875V35.9375C957.562 39.4375 957.688 42.0625 957.938 43.8125C958.062 45.3125 957.562 46.25 956.438 46.625C955.062 46.875 953.938 47.0625 953.062 47.1875C951.562 47.3125 950.938 46.8125 951.188 45.6875V43.625H938.062V45.3125C938.062 46.0625 937.75 46.5625 937.125 46.8125C936.875 46.8125 936.625 46.8125 936.375 46.8125C935.125 47.1875 934.25 47.375 933.75 47.375C932.25 47.625 931.625 46.9375 931.875 45.3125V30.6875C931.875 30.0625 931.812 28.875 931.688 27.125C931.562 25.875 931.562 25.0625 931.688 24.6875C931.438 23.6875 931.938 23.25 933.188 23.375C933.938 23.5 935.25 23.875 937.125 24.5C937.5 24.625 937.875 24.6875 938.25 24.6875C938.25 24.8125 938.312 24.875 938.438 24.875C938.562 25 938.688 25.0625 938.812 25.0625H940.5C940.75 24.1875 940.875 22.875 940.875 21.125C940.75 20.25 941.188 19.9375 942.188 20.1875C942.562 20.3125 943 20.4375 943.5 20.5625C943 20.0625 942.75 19.375 942.75 18.5C942.5 16.75 941.5 14.9375 939.75 13.0625C939.375 12.9375 939.312 12.5625 939.562 11.9375C940.688 9.5625 941.75 6.6875 942.75 3.3125C942.625 2.8125 942.688 2.5 942.938 2.375C943.188 2.25 943.688 2.3125 944.438 2.5625C945.688 2.8125 947.375 3.375 949.5 4.25C950 4.5 950.188 4.875 950.062 5.375C949.938 5.875 949.625 6.125 949.125 6.125C948.5 6.25 947.875 6.5625 947.25 7.0625C945.75 8.9375 943.812 10.6875 941.438 12.3125C945.312 13.1875 947.75 14.5625 948.75 16.4375C949.5 18.8125 948.688 20.4375 946.312 21.3125C946.188 21.3125 946.125 21.3125 946.125 21.3125C946.125 21.3125 946.188 21.375 946.312 21.5C946.438 21.625 946.562 21.625 946.688 21.5C947.062 21.625 947.25 21.875 947.25 22.25C947.25 22.75 947.062 23 946.688 23C946.062 23.25 945.5 23.5625 945 23.9375C944.625 24.3125 944.188 24.6875 943.688 25.0625ZM915.375 22.8125V14.75C915.25 13.5 915.188 11.75 915.188 9.5C914.938 7 914.812 5.25 914.812 4.25C914.562 3.625 914.562 3.125 914.812 2.75C915.062 2.5 915.5 2.4375 916.125 2.5625C918.875 3.4375 920.75 4.125 921.75 4.625C921.75 4.75 921.812 4.8125 921.938 4.8125C922.188 4.9375 922.375 5 922.5 5H923.25C924.125 3.375 924.875 2.5 925.5 2.375C926.875 2.5 928.625 3.375 930.75 5C931.5 6 931.5 6.8125 930.75 7.4375C930.375 7.8125 930.188 8.3125 930.188 8.9375V40.25C930.188 42.75 929.75 44.4375 928.875 45.3125C928 45.8125 926.938 46.3125 925.688 46.8125C923.938 47.1875 923 46.75 922.875 45.5C922.75 44 921.688 42.9375 919.688 42.3125C918.688 41.9375 918.25 41.5625 918.375 41.1875C918.125 41.0625 918.75 41 920.25 41C923 41.375 924.188 40.1875 923.812 37.4375V27.6875H921.562C921.062 35.3125 918.25 41.5625 913.125 46.4375C912.75 46.6875 912.438 46.75 912.188 46.625C912.062 46.5 912.125 46.1875 912.375 45.6875C914.375 39.9375 915.375 32.3125 915.375 22.8125ZM934.312 19.625C934.062 17.5 933.125 15.25 931.5 12.875C931.125 12.875 930.938 12.6875 930.938 12.3125C930.938 12.1875 931 12.125 931.125 12.125C931.125 12 931.125 11.9375 931.125 11.9375C932.5 9.0625 933.5 6 934.125 2.75C934 1.875 934.562 1.625 935.812 2C938.438 2.75 940.25 3.3125 941.25 3.6875C941.625 3.9375 941.812 4.3125 941.812 4.8125C941.688 5.1875 941.375 5.375 940.875 5.375C940.125 5.375 939.5 5.75 939 6.5C936.75 9.125 934.75 11 933 12.125C936.75 13.375 939.25 15.1875 940.5 17.5625C941 19.8125 940.125 21.375 937.875 22.25C935.75 22.75 934.562 21.875 934.312 19.625ZM953.625 2.375C954.5 2.75 956.188 3.5 958.688 4.625C959.312 5.5 959.125 6.0625 958.125 6.3125C957.125 6.4375 956.438 6.75 956.062 7.25C954.188 9 952 10.5 949.5 11.75C953.25 12.75 955.812 14.1875 957.188 16.0625C958.188 18.4375 957.562 20.125 955.312 21.125C953.312 21.875 952 21.125 951.375 18.875C950.875 16.75 949.625 14.625 947.625 12.5C947.125 12.375 947.062 11.9375 947.438 11.1875C949.688 8.1875 951.125 5.5 951.75 3.125C951.75 2.25 952.375 2 953.625 2.375ZM938.062 27.3125V40.25C939.562 38.25 941 36.1875 942.375 34.0625C941.75 33.4375 940.875 32.5 939.75 31.25C939.25 30.625 938.875 30.125 938.625 29.75C938.25 29.5 938.062 29.3125 938.062 29.1875C938.188 28.9375 938.5 28.8125 939 28.8125C939.25 29.0625 939.75 29.375 940.5 29.75C941.875 30.5 942.938 31.0625 943.688 31.4375C944.188 30.1875 944.75 28.75 945.375 27.125C945.25 27.125 945.25 27.0625 945.375 26.9375C945.5 26.8125 945.562 26.6875 945.562 26.5625H938.438C938.188 26.8125 938.062 27.0625 938.062 27.3125ZM938.062 41.375V42.125H951.188V30.875C950.938 30.875 950.812 30.875 950.812 30.875C950.188 31.125 949.688 31.5 949.312 32C948.688 32.75 948.062 33.5 947.438 34.25C947.688 34.625 948.125 35.0625 948.75 35.5625C948.875 35.8125 949.062 36 949.312 36.125C951.188 38.625 951.312 40.375 949.688 41.375C948.188 42.25 946.812 41.5 945.562 39.125C945.438 39 945.312 38.8125 945.188 38.5625C944.938 37.9375 944.75 37.5 944.625 37.25C942.5 39 940.312 40.375 938.062 41.375ZM923.812 6.5H921.938C921.688 6.75 921.625 7.125 921.75 7.625V15.6875H923.812V6.5ZM921.75 26.1875H923.812V17.1875H921.75V23.375C921.75 24.375 921.75 25.3125 921.75 26.1875ZM951.188 26.5625H946.875C948.5 27.5625 949.938 28.375 951.188 29V26.5625ZM974.438 21.5V33.125C974.188 37.25 977.562 39.375 984.562 39.5C987.812 39.75 991.625 39.875 996 39.875C1000 39.75 1003 39.5 1005 39.125C1005.5 39.125 1005.88 39.0625 1006.12 38.9375C1007 38.6875 1007.44 38.6875 1007.44 38.9375C1007.81 39.3125 1007.62 39.75 1006.88 40.25C1005.25 41.125 1004.31 42.5625 1004.06 44.5625C1004.06 45.6875 1003.31 46.1875 1001.81 46.0625C999.812 46.0625 997.938 46.0625 996.188 46.0625C989.438 46.0625 985 46 982.875 45.875C978.125 45 974.562 42.4375 972.188 38.1875C971.688 37.3125 971.125 37.25 970.5 38C968.625 40.625 967.625 42.875 967.5 44.75C967.25 46 966.562 46.375 965.438 45.875C963.938 44.75 962.5 43.5 961.125 42.125C960.375 41.375 960.5 40.75 961.5 40.25C965.375 37.375 967.25 35.1875 967.125 33.6875V19.25H964.688C963.812 19.375 963 19.5 962.25 19.625C961.75 19.75 961.438 19.625 961.312 19.25C961.062 19.125 960.812 18.6875 960.562 17.9375C960.438 17.8125 960.375 17.6875 960.375 17.5625C960.375 17.4375 960.562 17.375 960.938 17.375C962.438 17.625 963.938 17.75 965.438 17.75H966.562C967.938 16 968.875 15.0625 969.375 14.9375C972.5 15.9375 974.75 17.1875 976.125 18.6875C976.25 19.1875 975.938 19.625 975.188 20C974.688 20.375 974.438 20.875 974.438 21.5ZM986.25 26.5625H994.875C995.875 25.0625 996.688 24.25 997.312 24.125C999.312 24.75 1001.38 26 1003.5 27.875C1003.75 28.625 1003.5 29.125 1002.75 29.375C1002.38 29.625 1002.19 30.0625 1002.19 30.6875C1002.06 33.0625 1002.12 34.6875 1002.38 35.5625C1002.38 37.0625 1001.88 37.875 1000.88 38C999.625 38.375 998.438 38.5625 997.312 38.5625C995.938 38.6875 995.312 38.125 995.438 36.875V35.9375H985.688C985.688 37.0625 985.188 37.75 984.188 38C983.812 38.125 983.312 38.25 982.688 38.375C981.812 38.625 981.125 38.75 980.625 38.75C979.25 38.875 978.625 38.125 978.75 36.5C978.75 35.75 978.75 34.9375 978.75 34.0625C978.875 33.1875 978.938 31.9375 978.938 30.3125C978.938 28.6875 978.875 27.1875 978.75 25.8125C978.5 24.6875 979 24.1875 980.25 24.3125C981 24.5625 982.25 25 984 25.625C984.5 25.875 985.062 26.0625 985.688 26.1875C985.688 26.3125 985.75 26.375 985.875 26.375C986 26.5 986.125 26.5625 986.25 26.5625ZM980.625 9.125H987.938C987.312 8.625 986.938 7.875 986.812 6.875C986.688 5.25 986 3.5625 984.75 1.8125C984.5 1.4375 984.438 1.1875 984.562 1.0625C984.688 0.8125 985 0.6875 985.5 0.6875C990 0.9375 992.688 2.25 993.562 4.625C994.188 6.5 993.625 8 991.875 9.125H997.125C999.25 6.5 1000.69 5 1001.44 4.625C1002.94 5.25 1004.81 6.75 1007.06 9.125C1007.31 10.125 1007.06 10.625 1006.31 10.625C1005.56 10.625 1004.88 10.625 1004.25 10.625C1003.62 10.5 1002.81 10.4375 1001.81 10.4375H979.688C978.812 10.5625 977.938 10.6875 977.062 10.8125C976.812 10.9375 976.5 10.9375 976.125 10.8125C976.125 10.8125 976.125 10.75 976.125 10.625C975.875 10.625 975.688 10.375 975.562 9.875C975.312 9.5 975.125 9.25 975 9.125C974.875 8.875 974.812 8.75 974.812 8.75C974.812 8.625 975 8.5625 975.375 8.5625C976.75 8.9375 978.5 9.125 980.625 9.125ZM967.312 10.8125C966.688 8.4375 965.5 6.375 963.75 4.625C963.375 4.375 963.25 4.125 963.375 3.875C963.5 3.75 963.812 3.625 964.312 3.5C969.562 3.375 972.875 4.375 974.25 6.5C975.25 9.375 974.375 11.4375 971.625 12.6875C969.75 13.4375 968.312 12.8125 967.312 10.8125ZM995.438 28.0625H986.625C986.375 28.0625 986.312 28.0625 986.438 28.0625C985.812 28.4375 985.562 29 985.688 29.75V34.4375H995.438V28.0625ZM1003.31 16.25H982.312C981.688 16.25 980.875 16.3125 979.875 16.4375C979.5 16.4375 979.25 16.4375 979.125 16.4375C978.625 16.6875 978.312 16.625 978.188 16.25C977.938 16.125 977.75 15.75 977.625 15.125C977.375 14.875 977.312 14.75 977.438 14.75C977.438 14.625 977.625 14.5625 978 14.5625C978.875 14.8125 980.562 14.875 983.062 14.75H994.875C996.5 12.75 997.812 11.4375 998.812 10.8125C999.562 11.0625 1001.25 12.375 1003.88 14.75C1004.12 15.75 1003.94 16.25 1003.31 16.25ZM1003.5 22.0625H983.062C982.438 22.0625 981.625 22.125 980.625 22.25C980.25 22.25 980 22.25 979.875 22.25C979.375 22.5 979.062 22.4375 978.938 22.0625C978.812 21.9375 978.688 21.8125 978.562 21.6875C978.438 21.5625 978.375 21.375 978.375 21.125C978.25 20.875 978.188 20.6875 978.188 20.5625C978.188 20.4375 978.375 20.375 978.75 20.375C980.375 20.625 982.062 20.75 983.812 20.75H995.062C996.812 18.375 998.125 17 999 16.625C1000 17 1001.69 18.375 1004.06 20.75C1004.31 21.625 1004.12 22.0625 1003.5 22.0625ZM1015.12 32.1875H1016.25C1016.12 31.6875 1016.19 31.1875 1016.44 30.6875C1016.56 28.6875 1016.5 26.8125 1016.25 25.0625C1016.12 24.3125 1016.5 23.9375 1017.38 23.9375C1017.38 24.1875 1017.75 24.25 1018.5 24.125C1018.12 24 1018 23.4375 1018.12 22.4375C1018.25 21.9375 1018.31 21.0625 1018.31 19.8125C1015.69 22.3125 1012.81 24.1875 1009.69 25.4375C1009.06 25.6875 1008.69 25.75 1008.56 25.625C1008.44 25.375 1008.62 25.0625 1009.12 24.6875C1012.5 20.9375 1014.75 17.3125 1015.88 13.8125H1013.81C1012.44 13.8125 1011.5 13.875 1011 14C1010.62 14.125 1010.25 14.125 1009.88 14C1009.88 14 1009.88 13.9375 1009.88 13.8125C1009.75 13.8125 1009.62 13.6875 1009.5 13.4375C1009.25 13.0625 1009.06 12.75 1008.94 12.5C1008.69 12.25 1008.62 12.0625 1008.75 11.9375C1008.88 11.9375 1009.12 11.9375 1009.5 11.9375C1010.38 12.1875 1012.19 12.3125 1014.94 12.3125H1018.5V8.375C1018.38 5.875 1018.25 3.75 1018.12 2C1017.88 1 1018.38 0.5 1019.62 0.5C1020.25 0.625 1021.5 0.875 1023.38 1.25C1024.38 1.375 1025.06 1.4375 1025.44 1.4375C1025.94 1.6875 1026.25 2.0625 1026.38 2.5625C1026.38 3.0625 1026.12 3.375 1025.62 3.5C1024.88 3.75 1024.56 4.375 1024.69 5.375V10.25C1025.31 8.875 1025.94 6.9375 1026.56 4.4375C1026.69 3.6875 1027.25 3.5 1028.25 3.875C1028.88 4.25 1029.94 4.8125 1031.44 5.5625C1031.94 5.8125 1032.38 6 1032.75 6.125C1033.12 6.625 1033.25 7.0625 1033.12 7.4375C1033 7.9375 1032.69 8.125 1032.19 8C1031.19 8.125 1030.38 8.375 1029.75 8.75C1029.62 8.875 1029.5 9 1029.38 9.125C1027.5 10.625 1026.06 11.5625 1025.06 11.9375C1024.94 11.9375 1024.88 12 1024.88 12.125C1024.75 12.25 1024.69 12.25 1024.69 12.125V12.3125H1027.88C1029.62 9.9375 1030.62 8.8125 1030.88 8.9375C1031.88 9.1875 1033.25 10.3125 1035 12.3125C1035 12.3125 1035.06 12.375 1035.19 12.5C1035.19 12.625 1035.25 12.6875 1035.38 12.6875C1036.62 12.9375 1037.94 13.25 1039.31 13.625C1039.56 11.25 1039.62 8.75 1039.5 6.125H1036.69C1035.81 6.25 1034.88 6.375 1033.88 6.5C1033.5 6.75 1033.25 6.6875 1033.12 6.3125C1032.75 5.8125 1032.38 5.375 1032 5C1031.75 4.875 1031.69 4.75 1031.81 4.625C1031.81 4.625 1032 4.5625 1032.38 4.4375C1033.38 4.8125 1035.12 4.9375 1037.62 4.8125H1046.62C1048.25 2.4375 1049.44 1.125 1050.19 0.875C1051.94 1.375 1053.69 2.6875 1055.44 4.8125C1055.69 5.8125 1055.5 6.3125 1054.88 6.3125C1054.25 6.3125 1053.19 6.3125 1051.69 6.3125C1049.81 6.1875 1048.44 6.125 1047.56 6.125C1048.06 6.875 1047.81 7.5 1046.81 8C1046.31 8.25 1045.81 8.8125 1045.31 9.6875C1044.44 11.5625 1043.44 13.0625 1042.31 14.1875H1045.69C1046.94 12.4375 1047.88 11.5 1048.5 11.375C1049.88 11.75 1051.62 12.875 1053.75 14.75C1054.5 15.625 1054.44 16.25 1053.56 16.625C1053.06 17.125 1052.81 17.75 1052.81 18.5V34.25C1052.81 36 1052.31 36.9375 1051.31 37.0625C1050.56 37.4375 1049.62 37.6875 1048.5 37.8125C1047.12 38.1875 1046.5 37.5625 1046.62 35.9375V35.1875H1039.5C1039.38 35.9375 1038.88 36.375 1038 36.5C1037.88 36.75 1037.81 36.8125 1037.81 36.6875C1039.31 37.6875 1040.81 38.6875 1042.31 39.6875C1042.81 40.0625 1043 40.4375 1042.88 40.8125C1042.75 40.9375 1042.44 41.0625 1041.94 41.1875C1041.06 41.0625 1040.38 41.25 1039.88 41.75C1036.38 44 1032.75 45.8125 1029 47.1875C1028.25 47.4375 1027.75 47.4375 1027.5 47.1875C1027.38 46.8125 1027.62 46.4375 1028.25 46.0625C1031.25 43.1875 1033.62 40.3125 1035.38 37.4375C1033.75 37.9375 1033.06 37.125 1033.31 35C1033.31 34.375 1033.31 33.75 1033.31 33.125C1033.19 33.375 1032.94 33.4375 1032.56 33.3125H1022.62C1022.5 33.5625 1022.44 33.8125 1022.44 34.0625C1022.31 34.4375 1022.25 34.6875 1022.25 34.8125C1026.12 35.5625 1028.88 36.8125 1030.5 38.5625C1031.5 40.1875 1031.19 41.875 1029.56 43.625C1027.44 44.75 1025.94 44.1875 1025.06 41.9375C1024.31 39.9375 1023.12 38.125 1021.5 36.5C1019.38 41 1015.56 44.4375 1010.06 46.8125C1009.44 47.0625 1009.06 47.0625 1008.94 46.8125C1008.81 46.5625 1008.94 46.25 1009.31 45.875C1013.06 42.375 1015.25 38.1875 1015.88 33.3125H1013.81C1012.31 33.4375 1011.19 33.5625 1010.44 33.6875C1009.94 33.8125 1009.62 33.75 1009.5 33.5C1009.25 33.375 1009.06 33.1875 1008.94 32.9375C1008.81 32.8125 1008.69 32.625 1008.56 32.375C1008.31 32.25 1008.25 32.125 1008.38 32C1008.38 32 1008.56 31.9375 1008.94 31.8125C1009.56 31.9375 1010.5 32.0625 1011.75 32.1875C1013.25 32.1875 1014.38 32.1875 1015.12 32.1875ZM1022.81 32.1875H1026.19C1026.19 32.0625 1026.31 31.8125 1026.56 31.4375C1026.69 31.1875 1026.81 31 1026.94 30.875C1025.94 30.625 1025.5 29.9375 1025.62 28.8125C1025.75 27.1875 1025.62 26 1025.25 25.25C1025.12 25 1025.06 24.8125 1025.06 24.6875C1025.19 24.5625 1025.44 24.5 1025.81 24.5C1027.44 24.875 1028.69 25.5625 1029.56 26.5625C1030.06 27.5625 1030.19 28.4375 1029.94 29.1875C1031.06 29.9375 1032.06 30.8125 1032.94 31.8125C1033.06 32.1875 1033.25 32.4375 1033.5 32.5625C1033.5 31.6875 1033.5 30.3125 1033.5 28.4375C1033.62 26.5625 1033.69 25.1875 1033.69 24.3125V21.875C1033.56 18.75 1033.31 16.1875 1032.94 14.1875C1032.94 14.0625 1032.94 13.9375 1032.94 13.8125H1024.69V14V15.5C1027.94 15.375 1030.31 15.9375 1031.81 17.1875C1033.06 18.5625 1033.12 20.0625 1032 21.6875C1030 23.1875 1028.5 22.875 1027.5 20.75C1027.12 19.25 1026.19 17.875 1024.69 16.625C1024.69 17.375 1024.69 18.5 1024.69 20C1024.81 21 1024.88 21.625 1024.88 21.875C1025 22.75 1024.56 23.3125 1023.56 23.5625C1023.06 23.8125 1022.19 24.0625 1020.94 24.3125C1020.81 24.3125 1020.75 24.3125 1020.75 24.3125C1021.88 24.3125 1023.06 24.5 1024.31 24.875C1024.69 25 1024.94 25.25 1025.06 25.625C1025.06 26 1024.88 26.25 1024.5 26.375C1023.75 26.75 1023.38 27.3125 1023.38 28.0625C1023.38 29.5625 1023.19 30.9375 1022.81 32.1875ZM1047.56 44.9375C1046.81 42.3125 1045.38 40.1875 1043.25 38.5625C1042.88 38.4375 1042.75 38.25 1042.88 38C1043 37.875 1043.25 37.75 1043.62 37.625C1047.75 37.875 1050.75 38.9375 1052.62 40.8125C1054.25 42.5625 1054.25 44.375 1052.62 46.25C1050.12 47.625 1048.44 47.1875 1047.56 44.9375ZM1012.31 9.5C1012.06 7.5 1011.44 5.8125 1010.44 4.4375C1010.19 4.3125 1010.12 4.1875 1010.25 4.0625C1010.25 3.9375 1010.44 3.8125 1010.81 3.6875C1014.31 4.1875 1016.56 5.3125 1017.56 7.0625C1018.44 9.0625 1018.12 10.5 1016.62 11.375C1014.25 12.5 1012.81 11.875 1012.31 9.5ZM1039.69 33.3125V33.6875H1046.62V28.4375H1039.69C1039.69 30.4375 1039.69 32.0625 1039.69 33.3125ZM1039.69 25.0625V27.125H1046.62V22.0625H1039.69V25.0625ZM1046.62 15.6875H1040.25C1039.75 15.8125 1039.56 16.25 1039.69 17V20.5625H1046.62V15.6875ZM1064.06 33.3125V31.25H1063.31C1063.19 32.25 1062.75 32.8125 1062 32.9375C1060.88 33.3125 1059.75 33.5 1058.62 33.5C1057.12 33.875 1056.5 33.3125 1056.75 31.8125C1056.88 29.6875 1057 24.5 1057.12 16.25C1057 15.625 1056.88 14.8125 1056.75 13.8125C1056.62 12.9375 1057.12 12.5625 1058.25 12.6875C1060 13.1875 1061.75 13.6875 1063.5 14.1875C1063.62 14.4375 1063.81 14.5625 1064.06 14.5625V10.4375H1060.88C1060.5 10.4375 1060 10.5 1059.38 10.625C1058.75 10.625 1058.38 10.625 1058.25 10.625C1057.88 10.875 1057.62 10.875 1057.5 10.625C1057 10.25 1056.69 9.875 1056.56 9.5C1056.31 9.375 1056.19 9.25 1056.19 9.125C1056.31 9.125 1056.5 9.0625 1056.75 8.9375C1056.88 9.0625 1057.12 9.125 1057.5 9.125C1059 9.375 1060.44 9.4375 1061.81 9.3125H1064.06C1063.94 6.4375 1063.81 4.0625 1063.69 2.1875C1063.56 1.4375 1063.56 1 1063.69 0.875C1063.81 0.75 1064.31 0.6875 1065.19 0.6875C1065.19 0.8125 1065.31 0.875 1065.56 0.875C1067.19 1 1069 1.1875 1071 1.4375C1071.62 1.6875 1072 2.0625 1072.12 2.5625C1072.12 3.0625 1071.88 3.5 1071.38 3.875C1070.75 4.25 1070.5 4.8125 1070.62 5.5625V9.3125H1071C1072.12 7.4375 1073 6.3125 1073.62 5.9375C1074.62 6.1875 1075.88 7.3125 1077.38 9.3125C1077.75 9.9375 1077.62 10.3125 1077 10.4375H1070.62V14.5625H1071C1071.62 13.1875 1072.19 12.375 1072.69 12.125C1074.81 12.875 1076.69 13.9375 1078.31 15.3125C1078.56 15.8125 1078.44 16.25 1077.94 16.625C1077.44 17.125 1077.19 17.5 1077.19 17.75C1077.19 18.5 1077.19 20.6875 1077.19 24.3125C1079.31 20.3125 1080.62 16.75 1081.12 13.625C1081.38 13.25 1081.81 13.125 1082.44 13.25C1083.81 13.5 1085.88 14.25 1088.62 15.5C1089.12 15.875 1089.38 16.3125 1089.38 16.8125C1089.38 17.4375 1089.06 17.75 1088.44 17.75C1087.94 17.875 1087.44 18.125 1086.94 18.5C1085.56 20.125 1084.25 21.5 1083 22.625C1083.88 25.75 1085.38 28.5 1087.5 30.875C1088.75 27.625 1089.5 24.6875 1089.75 22.0625C1089.88 21.0625 1090.56 20.8125 1091.81 21.3125C1091.94 21.4375 1092.31 21.625 1092.94 21.875C1093.81 22.25 1094.56 22.5 1095.19 22.625C1093.81 19.75 1091.75 16.9375 1089 14.1875C1088.62 13.9375 1088.5 13.75 1088.62 13.625C1088.75 13.5 1089.06 13.4375 1089.56 13.4375C1094.56 14.0625 1098.62 15.875 1101.75 18.875C1103.62 22 1103.25 24.5 1100.62 26.375C1099.62 27 1098.69 27.0625 1097.81 26.5625C1097.19 26.8125 1096.69 27.375 1096.31 28.25C1095.19 31 1093.88 33.375 1092.38 35.375C1095.38 37.5 1098.75 39.0625 1102.5 40.0625C1103 40.3125 1103.31 40.625 1103.44 41C1103.44 41.125 1103.19 41.3125 1102.69 41.5625C1100.44 42.9375 1098.88 44.5625 1098 46.4375C1097.5 47.3125 1096.81 47.5625 1095.94 47.1875C1092.56 45.5625 1089.75 43.4375 1087.5 40.8125C1083.62 43.5625 1078.75 45.4375 1072.88 46.4375C1072.12 46.5625 1071.69 46.5 1071.56 46.25C1071.56 46.125 1071.88 45.9375 1072.5 45.6875C1077.88 42.5625 1081.88 39.25 1084.5 35.75C1083.12 32.375 1082.25 28.4375 1081.88 23.9375C1080.75 24.9375 1079.75 25.8125 1078.88 26.5625C1078 27.1875 1077.44 27.625 1077.19 27.875C1077.19 29.125 1077.19 29.9375 1077.19 30.3125C1077.31 31.4375 1076.88 32.0625 1075.88 32.1875C1074.88 32.6875 1073.94 32.875 1073.06 32.75C1071.81 33.125 1071.25 32.625 1071.38 31.25H1070.62V33.125C1070.5 34 1070.56 35 1070.81 36.125H1072.88C1074.12 33.875 1075.06 32.6875 1075.69 32.5625C1076.69 32.9375 1078.19 34.125 1080.19 36.125C1080.44 37 1080.25 37.4375 1079.62 37.4375H1070.81C1070.81 38.3125 1070.81 39.5 1070.81 41C1070.94 42 1071 42.75 1071 43.25C1071.25 45.125 1070.62 46.25 1069.12 46.625C1068.25 46.875 1067.31 47.0625 1066.31 47.1875C1066.06 47.1875 1065.88 47.25 1065.75 47.375C1063.75 47.875 1063 46.75 1063.5 44C1063.62 42 1063.75 39.8125 1063.88 37.4375H1060.88C1060.5 37.4375 1059.88 37.5 1059 37.625C1058.5 37.625 1058.25 37.625 1058.25 37.625C1057.88 37.875 1057.62 37.875 1057.5 37.625C1057.12 37.375 1056.75 36.9375 1056.38 36.3125C1056.12 36.1875 1056.25 36.0625 1056.75 35.9375C1057.75 36.1875 1059.44 36.25 1061.81 36.125H1064.06C1064.06 35.25 1064.06 34.3125 1064.06 33.3125ZM1084.5 7.8125C1084.25 5.8125 1083.5 3.875 1082.25 2C1081.88 1.75 1081.75 1.5 1081.88 1.25C1082 1.125 1082.38 1 1083 0.875C1087.25 0.75 1090.06 1.75 1091.44 3.875C1092.44 6.25 1091.94 8.1875 1089.94 9.6875C1086.94 11.0625 1085.12 10.4375 1084.5 7.8125ZM1093.31 12.5H1081.88C1081.25 12.5 1080.25 12.5625 1078.88 12.6875C1078.12 12.6875 1077.69 12.6875 1077.56 12.6875C1077.06 12.8125 1076.75 12.75 1076.62 12.5C1076.38 12.25 1076.12 11.8125 1075.88 11.1875C1075.62 10.8125 1075.75 10.625 1076.25 10.625C1076.88 10.75 1077.88 10.875 1079.25 11C1080.62 11 1081.81 11 1082.81 11H1094.81C1096.31 8.375 1097.31 7 1097.81 6.875C1099.44 7.625 1101.25 9.0625 1103.25 11.1875C1103.5 12.0625 1103.38 12.5 1102.88 12.5C1101.38 12.5 1098.81 12.5 1095.19 12.5C1094.31 12.5 1093.69 12.5 1093.31 12.5ZM1071.38 16.0625H1070.25V22.25H1071.38V16.0625ZM1063.31 16.8125V22.25H1064.44V16.0625H1063.5C1063.25 16.3125 1063.19 16.5625 1063.31 16.8125ZM1063.31 23.75V29.75H1064.44V23.75H1063.31ZM1070.25 23.75V29.75H1071.38V23.75H1070.25ZM1132.5 16.8125H1134C1135 15.1875 1135.81 14.375 1136.44 14.375C1138.44 15 1140.31 16.25 1142.06 18.125C1142.31 18.875 1142.19 19.375 1141.69 19.625C1140.94 20 1140.5 20.5625 1140.38 21.3125V21.6875C1140.75 21.3125 1141.12 21.0625 1141.5 20.9375C1143 21.3125 1144.69 22.5 1146.56 24.5C1146.69 25.25 1146.5 25.75 1146 26C1145.38 26.375 1145.06 26.9375 1145.06 27.6875L1144.88 28.0625C1145.38 27.5625 1145.88 27.25 1146.38 27.125C1148.25 28 1149.94 29.375 1151.44 31.25C1151.31 31.75 1151 32.1875 1150.5 32.5625C1150 33.1875 1149.75 33.875 1149.75 34.625C1149.5 36.875 1149.12 39.0625 1148.62 41.1875C1148.12 43.6875 1147.06 45.3125 1145.44 46.0625C1144.06 46.5625 1142.56 47 1140.94 47.375C1139.44 47.625 1138.69 47.3125 1138.69 46.4375C1138.06 44.3125 1136.81 42.875 1134.94 42.125C1134.19 41.625 1133.88 41.3125 1134 41.1875C1134 41.0625 1134.44 41 1135.31 41C1139.44 41 1141.56 40.4375 1141.69 39.3125C1142.06 37.3125 1142.44 34.6875 1142.81 31.4375H1117.69C1116.44 37.8125 1112.75 42.75 1106.62 46.25C1105.88 46.625 1105.38 46.6875 1105.12 46.4375C1105 46.1875 1105.19 45.8125 1105.69 45.3125C1109.44 40.3125 1111.31 33.8125 1111.31 25.8125V23.5625C1111.31 20.8125 1111.06 18.4375 1110.56 16.4375C1110.31 15.1875 1110.81 14.625 1112.06 14.75C1113.06 15 1114.88 15.5 1117.5 16.25C1117.88 16.5 1118.31 16.625 1118.81 16.625L1119 16.8125H1129.69C1131.44 13.4375 1132.62 10.0625 1133.25 6.6875H1124.44C1126.44 7.1875 1127.94 8.125 1128.94 9.5C1129.94 11.75 1129.38 13.4375 1127.25 14.5625C1124.75 15.4375 1123.25 14.625 1122.75 12.125C1122.5 10.25 1121.75 8.5 1120.5 6.875C1120.25 6.875 1120.19 6.8125 1120.31 6.6875C1119.06 6.6875 1117.25 6.6875 1114.88 6.6875C1112.38 6.5625 1110.62 6.4375 1109.62 6.3125C1109 6.3125 1108.62 6.1875 1108.5 5.9375C1108.5 5.5625 1108.81 5.3125 1109.44 5.1875C1121.81 3.8125 1130.81 2.3125 1136.44 0.6875C1137.44 0.4375 1138.44 0.5625 1139.44 1.0625C1141.06 2.3125 1142.81 3.8125 1144.69 5.5625C1144.94 5.9375 1144.94 6.3125 1144.69 6.6875C1144.31 6.9375 1143.94 6.9375 1143.56 6.6875C1143.19 6.5625 1142.69 6.5 1142.06 6.5C1141.94 6.5 1141.75 6.5 1141.5 6.5C1140.62 6.5 1139.81 6.5 1139.06 6.5C1139.31 6.75 1139.69 7 1140.19 7.25C1140.69 7.5 1141.12 7.6875 1141.5 7.8125C1142.25 8.5625 1142.19 9.1875 1141.31 9.6875C1140.19 9.9375 1139.38 10.3125 1138.88 10.8125C1136.88 13.1875 1134.75 15.1875 1132.5 16.8125ZM1139.62 24.875H1118.25V25.25C1118.25 26.5 1118.19 27.4375 1118.06 28.0625C1118.06 28.8125 1118 29.4375 1117.88 29.9375H1138.69L1139.62 24.875ZM1134.56 18.3125H1119.19C1119.06 18.3125 1119 18.375 1119 18.5C1118.5 18.875 1118.25 19.4375 1118.25 20.1875V23.375H1133.62L1134.56 18.3125ZM1113.38 12.3125C1113 11.0625 1112.31 9.5625 1111.31 7.8125C1110.94 7.5625 1110.81 7.375 1110.94 7.25C1110.94 7.125 1111.19 7 1111.69 6.875C1115.19 7.125 1117.69 8.125 1119.19 9.875C1120.56 12.375 1120.06 14.25 1117.69 15.5C1115.19 16.125 1113.75 15.0625 1113.38 12.3125ZM1116.56 38.1875C1117.69 37.6875 1118.69 36.25 1119.56 33.875C1119.69 33.625 1119.88 33.5 1120.12 33.5C1120.38 33.5 1120.56 33.6875 1120.69 34.0625C1121.56 37.5625 1121.44 40.25 1120.31 42.125C1118.44 43.625 1116.81 43.6875 1115.44 42.3125C1114.19 40.9375 1114.56 39.5625 1116.56 38.1875ZM1123.12 39.875C1123.25 37.875 1122.94 36.125 1122.19 34.625C1121.94 34.375 1121.88 34.1875 1122 34.0625C1122.12 33.9375 1122.38 33.875 1122.75 33.875C1125.62 34.75 1127.44 36.0625 1128.19 37.8125C1128.81 40.0625 1128.19 41.4375 1126.31 41.9375C1124.31 42.0625 1123.25 41.375 1123.12 39.875ZM1129.88 38.75C1129.75 37.25 1129.25 35.8125 1128.38 34.4375C1128.25 34.1875 1128.19 34 1128.19 33.875C1128.31 33.75 1128.56 33.6875 1128.94 33.6875C1132.06 34.0625 1134 35.3125 1134.75 37.4375C1135.5 39.5625 1134.94 40.75 1133.06 41C1131.19 41.375 1130.12 40.625 1129.88 38.75ZM1136.44 38C1136.06 36.25 1135.38 34.8125 1134.38 33.6875C1134 33.5625 1133.81 33.4375 1133.81 33.3125C1133.94 33.1875 1134.19 33.0625 1134.56 32.9375C1137.56 32.6875 1139.62 33.4375 1140.75 35.1875C1141.5 36.8125 1141.25 38.1875 1140 39.3125C1138.25 40.3125 1137.06 39.875 1136.44 38ZM1187.81 24.125H1177.31C1175.69 24.25 1174.38 24.375 1173.38 24.5C1173 24.75 1172.69 24.625 1172.44 24.125C1172.31 24.125 1172.06 23.9375 1171.69 23.5625C1171.56 23.3125 1171.5 23.125 1171.5 23C1171.25 22.625 1171.38 22.4375 1171.88 22.4375C1173.12 22.6875 1175.25 22.8125 1178.25 22.8125H1187.25C1187.38 22.5625 1187.56 22.1875 1187.81 21.6875C1188.06 21.1875 1188.31 20.8125 1188.56 20.5625H1175.81C1174.69 20.6875 1173.62 20.75 1172.62 20.75C1171.62 20.875 1170.88 21 1170.38 21.125C1170 21.375 1169.69 21.25 1169.44 20.75C1169.19 20.625 1169 20.4375 1168.88 20.1875C1168.75 19.9375 1168.62 19.6875 1168.5 19.4375C1168.38 19.1875 1168.31 19 1168.31 18.875C1168.31 18.875 1168.5 18.875 1168.88 18.875C1170.12 19.25 1172.62 19.375 1176.38 19.25H1179.75V16.4375H1174.88C1173.62 16.4375 1172.69 16.5 1172.06 16.625C1171.56 16.875 1171.25 16.8125 1171.12 16.4375C1171 16.4375 1170.88 16.3125 1170.75 16.0625C1170.5 15.6875 1170.31 15.375 1170.19 15.125C1169.94 14.75 1170.06 14.5625 1170.56 14.5625C1172.19 14.8125 1173.94 14.9375 1175.81 14.9375H1186.12C1186.88 12.6875 1187.25 10.375 1187.25 8C1187.25 7.625 1187.38 7.3125 1187.62 7.0625C1187.25 7.1875 1186.81 7.25 1186.31 7.25C1181.94 7.375 1177.5 7.4375 1173 7.4375C1172.75 7.6875 1172.5 7.8125 1172.25 7.8125C1171.5 8.0625 1171 8.4375 1170.75 8.9375C1168.5 12.4375 1166.38 15.375 1164.38 17.75C1168.75 20.5 1171 23.625 1171.12 27.125C1170.75 31.25 1168.56 33.875 1164.56 35C1163.44 35.25 1162.81 34.875 1162.69 33.875C1162.56 33 1162.25 32.25 1161.75 31.625V43.25C1161.75 44.625 1161.19 45.5 1160.06 45.875C1159.44 46 1158.44 46.1875 1157.06 46.4375C1156.81 46.4375 1156.69 46.5 1156.69 46.625C1154.81 47 1154 46.1875 1154.25 44.1875C1154.62 37.8125 1154.88 29.6875 1155 19.8125V12.3125C1154.88 9.0625 1154.75 6.1875 1154.62 3.6875C1154.25 2.1875 1154.75 1.5625 1156.12 1.8125C1158.25 2.4375 1160.31 3.125 1162.31 3.875C1162.69 4.125 1162.94 4.3125 1163.06 4.4375H1163.81C1164.69 2.8125 1165.44 2 1166.06 2C1167.44 2.25 1169.62 3.4375 1172.62 5.5625C1172.75 5.8125 1172.88 6 1173 6.125C1179.75 4.75 1185.56 2.9375 1190.44 0.6875C1191.31 0.3125 1192 0.375 1192.5 0.875C1194.12 2.5 1195.44 3.9375 1196.44 5.1875C1196.94 6.4375 1196.69 7 1195.69 6.875C1194.94 6.625 1194.12 6.5625 1193.25 6.6875C1192.75 6.6875 1192.12 6.75 1191.38 6.875C1190.5 7 1189.88 7 1189.5 6.875C1191 7.375 1192.56 7.875 1194.19 8.375C1195.19 9.375 1195.19 10.0625 1194.19 10.4375C1193.31 10.5625 1192.62 10.875 1192.12 11.375C1190.75 12.875 1189.38 14.0625 1188 14.9375H1190.81C1192.19 13.3125 1193.19 12.4375 1193.81 12.3125C1194.81 12.6875 1196.12 13.625 1197.75 15.125C1198 16 1197.81 16.4375 1197.19 16.4375H1196.44C1197.06 17.0625 1197.88 17.875 1198.88 18.875C1199.5 20.125 1199.38 20.8125 1198.5 20.9375C1197.75 20.9375 1196.62 20.875 1195.12 20.75C1193.62 20.75 1192.56 20.6875 1191.94 20.5625C1194.31 22.0625 1195.88 23.25 1196.62 24.125C1196.62 24.5 1196.38 24.9375 1195.88 25.4375C1195.75 25.4375 1195.69 25.4375 1195.69 25.4375C1195.44 25.5625 1195.25 25.8125 1195.12 26.1875C1195.12 26.4375 1195.12 26.5625 1195.12 26.5625V27.3125C1195.12 27.8125 1195.12 28.5625 1195.12 29.5625C1195.25 30.1875 1195.31 30.5625 1195.31 30.6875C1195.44 32.4375 1194.94 33.375 1193.81 33.5C1193.56 33.625 1193.25 33.6875 1192.88 33.6875C1191.38 34.0625 1190.31 34.1875 1189.69 34.0625C1188.31 34.3125 1187.69 33.75 1187.81 32.375V32.1875H1177.88C1176 32.3125 1174.62 32.4375 1173.75 32.5625C1173.25 32.6875 1172.94 32.5625 1172.81 32.1875C1172.31 31.8125 1171.94 31.375 1171.69 30.875C1171.44 30.5 1171.56 30.3125 1172.06 30.3125C1173.44 30.5625 1175.69 30.6875 1178.81 30.6875H1187.81V28.0625H1178.62C1177.38 28.1875 1176.31 28.3125 1175.44 28.4375C1174.94 28.4375 1174.62 28.4375 1174.5 28.4375C1174 28.6875 1173.62 28.625 1173.38 28.25C1173.25 28.25 1173.12 28.125 1173 27.875C1172.75 27.5 1172.56 27.1875 1172.44 26.9375C1172.19 26.5625 1172.31 26.375 1172.81 26.375C1173.94 26.625 1176.12 26.75 1179.38 26.75H1187.81V24.125ZM1180.12 38.1875V40.25C1179.88 41.25 1180.38 41.6875 1181.62 41.5625H1184.62C1186.75 41.8125 1188 40.375 1188.38 37.25C1188.38 36.375 1188.62 35.9375 1189.12 35.9375C1189.5 35.9375 1189.75 36.4375 1189.88 37.4375C1189.75 39.5625 1190.31 40.8125 1191.56 41.1875C1192.44 41.6875 1192.94 42.4375 1193.06 43.4375C1192.94 44.5625 1192.31 45.4375 1191.19 46.0625C1189.81 46.6875 1187.75 47.0625 1185 47.1875H1179.56C1175.31 47.4375 1173.38 45.625 1173.75 41.75V39.875C1173.75 37.25 1173.69 35.6875 1173.56 35.1875C1173.44 34.0625 1173.88 33.625 1174.88 33.875C1176.75 34.125 1178.56 34.4375 1180.31 34.8125C1181.19 35.3125 1181.31 35.875 1180.69 36.5C1180.31 36.875 1180.12 37.4375 1180.12 38.1875ZM1162.5 18.3125L1164.38 5.75H1162.69C1162.56 5.75 1162.5 5.75 1162.5 5.75C1162 6 1161.75 6.5625 1161.75 7.4375V29C1164.12 29 1165.25 27.875 1165.12 25.625C1165 23 1164.12 20.5625 1162.5 18.3125ZM1165.88 39.6875C1168.12 38.6875 1169.75 37.25 1170.75 35.375C1170.75 35.125 1170.88 35 1171.12 35C1171.38 35.125 1171.56 35.3125 1171.69 35.5625C1172.56 39.1875 1172.31 41.8125 1170.94 43.4375C1168.81 45.3125 1166.81 45.3125 1164.94 43.4375C1163.94 41.8125 1164.25 40.5625 1165.88 39.6875ZM1193.81 41.5625C1193.19 39.3125 1192.31 37.3125 1191.19 35.5625C1190.94 35.3125 1190.88 35.125 1191 35C1191.12 34.875 1191.38 34.8125 1191.75 34.8125C1195.38 35.5625 1197.94 37.125 1199.44 39.5C1199.56 40.125 1199.69 40.625 1199.81 41C1199.69 42.25 1199.06 43.125 1197.94 43.625C1195.69 44.375 1194.31 43.6875 1193.81 41.5625ZM1182.56 38C1182.06 36.125 1181.38 34.5625 1180.5 33.3125C1180.25 32.9375 1180.19 32.6875 1180.31 32.5625C1180.44 32.4375 1180.69 32.375 1181.06 32.375C1183.81 32.5 1186 33.375 1187.62 35C1188.62 37.125 1188.06 38.6875 1185.94 39.6875C1184.06 40.3125 1182.94 39.75 1182.56 38ZM1180.12 12.125C1180.12 10.625 1179.75 9.4375 1179 8.5625C1178.75 8.3125 1178.69 8.125 1178.81 8C1178.94 7.875 1179.25 7.8125 1179.75 7.8125C1182.38 8.1875 1184 9.0625 1184.62 10.4375C1185.25 12.1875 1184.81 13.4375 1183.31 14.1875C1181.31 14.5625 1180.25 13.875 1180.12 12.125ZM1173.38 12.5C1173.38 11 1173 9.8125 1172.25 8.9375C1171.88 8.6875 1171.81 8.5 1172.06 8.375C1172.19 8.25 1172.5 8.1875 1173 8.1875C1175.38 8.5625 1177 9.375 1177.88 10.625C1178.5 12.5 1178.06 13.75 1176.56 14.375C1174.44 15.125 1173.38 14.5 1173.38 12.5ZM1193.81 16.4375H1185.19V19.25H1191.56C1192.44 17.75 1193.19 16.8125 1193.81 16.4375ZM1217.25 10.8125V16.4375H1219.31C1220.56 14.0625 1221.62 12.8125 1222.5 12.6875C1224 13.3125 1225.75 14.5625 1227.75 16.4375C1228.12 17.3125 1227.94 17.8125 1227.19 17.9375H1217.25V21.125H1217.44C1221.44 21.625 1223.94 22.875 1224.94 24.875C1226.06 28 1225.25 29.9375 1222.5 30.6875C1220.5 31.1875 1219.31 30.5 1218.94 28.625C1218.56 26.375 1218 24.4375 1217.25 22.8125V27.875C1217.25 31.5 1217.38 36.4375 1217.62 42.6875C1217.75 44.4375 1217.12 45.5 1215.75 45.875C1214.5 46.375 1213.19 46.75 1211.81 47C1209.81 47.375 1209.06 46.1875 1209.56 43.4375C1209.56 42.1875 1209.75 37.875 1210.12 30.5C1207.88 33.875 1205.12 36.4375 1201.88 38.1875C1201.12 38.6875 1200.69 38.875 1200.56 38.75C1200.44 38.625 1200.62 38.1875 1201.12 37.4375C1205.38 30.6875 1207.75 24.1875 1208.25 17.9375H1205.25C1203.88 17.9375 1202.94 18 1202.44 18.125C1202.06 18.375 1201.75 18.3125 1201.5 17.9375C1201.38 17.8125 1201.25 17.625 1201.12 17.375C1201 17.125 1200.94 16.875 1200.94 16.625C1200.81 16.375 1200.75 16.25 1200.75 16.25C1200.75 16.125 1200.88 16.0625 1201.12 16.0625C1202.75 16.3125 1204.44 16.4375 1206.19 16.4375H1210.12V9.6875C1207.75 9.6875 1205.62 9.6875 1203.75 9.6875C1203 9.6875 1202.56 9.5625 1202.44 9.3125C1202.44 8.9375 1202.81 8.625 1203.56 8.375C1210.44 6.5 1215.81 4.5 1219.69 2.375C1220.44 1.875 1221.06 1.875 1221.56 2.375C1222.69 3.375 1224.38 5.125 1226.62 7.625C1226.88 8.125 1226.88 8.5 1226.62 8.75C1226.38 9 1226.06 9 1225.69 8.75C1225.44 8.75 1225.06 8.75 1224.56 8.75C1224.06 8.625 1223.81 8.5625 1223.81 8.5625C1222.31 8.8125 1220.44 9 1218.19 9.125C1218.19 9.375 1218.12 9.5 1218 9.5C1217.38 9.875 1217.12 10.3125 1217.25 10.8125ZM1239 40.8125C1239 40.0625 1239 39.3125 1239 38.5625C1231.75 40.4375 1227.5 41.8125 1226.25 42.6875C1224.62 43.8125 1223.69 43.8125 1223.44 42.6875C1223.19 42.1875 1222.94 41.625 1222.69 41C1222.19 39.75 1221.81 38.5625 1221.56 37.4375C1221.31 36.9375 1221.31 36.5625 1221.56 36.3125C1221.56 36.1875 1221.69 36 1221.94 35.75C1222.06 35.625 1222.19 35.5 1222.31 35.375C1223.44 34.625 1224.31 33.4375 1224.94 31.8125C1227.69 25.1875 1229.69 18.4375 1230.94 11.5625C1231.06 10.6875 1231.31 8.8125 1231.69 5.9375C1231.69 5.5625 1231.75 5.1875 1231.88 4.8125C1231.88 3.8125 1232.44 3.375 1233.56 3.5C1235.56 4.125 1238.06 4.9375 1241.06 5.9375C1242.06 6.6875 1242 7.4375 1240.88 8.1875C1240 8.5625 1239.44 9.25 1239.19 10.25C1236.56 19.25 1232.56 27.8125 1227.19 35.9375C1230.56 35.9375 1234.38 35.9375 1238.62 35.9375C1238.25 32.3125 1237.31 28.9375 1235.81 25.8125C1235.69 25.4375 1235.69 25.1875 1235.81 25.0625C1236.06 24.9375 1236.38 24.9375 1236.75 25.0625C1242.25 29.4375 1245.62 33.9375 1246.88 38.5625C1247.12 42.0625 1245.69 44.0625 1242.56 44.5625C1240.44 44.5625 1239.25 43.3125 1239 40.8125ZM1250.62 31.8125V20.375C1250.62 18.125 1250.56 16.4375 1250.44 15.3125C1250.44 13.9375 1250.38 12.625 1250.25 11.375C1250.12 10 1250.56 9.5 1251.56 9.875C1253.44 10.5 1255.44 11.3125 1257.56 12.3125H1257.94C1257.94 10.4375 1257.94 8.625 1257.94 6.875C1257.94 5.125 1257.94 3.5 1257.94 2C1257.69 1.25 1258.06 0.9375 1259.06 1.0625C1261.06 1.1875 1263.12 1.5 1265.25 2C1266 2.125 1266.38 2.4375 1266.38 2.9375C1266.5 3.3125 1266.25 3.625 1265.62 3.875C1265 4.375 1264.56 4.9375 1264.31 5.5625C1263.19 8.0625 1261.94 10.3125 1260.56 12.3125H1264.5C1265.62 10.6875 1266.5 9.8125 1267.12 9.6875C1269.62 10.5625 1271.69 11.9375 1273.31 13.8125C1273.31 14.4375 1273 14.875 1272.38 15.125C1271.75 15.5 1271.5 15.9375 1271.62 16.4375V21.875C1274 14.5 1275.38 7.8125 1275.75 1.8125C1275.62 1.1875 1275.94 0.875 1276.69 0.875C1279.44 1.375 1282.12 2.0625 1284.75 2.9375C1285.25 3.3125 1285.5 3.6875 1285.5 4.0625C1285.38 4.4375 1285.06 4.75 1284.56 5C1283.56 5.5 1283 6.125 1282.88 6.875C1282.25 8.875 1281.56 10.6875 1280.81 12.3125H1285.5C1287 10.3125 1288.06 9.25 1288.69 9.125C1292.06 10.625 1294.38 12.125 1295.62 13.625C1295.62 14.25 1295.25 14.75 1294.5 15.125C1293.75 15.5 1293.44 15.9375 1293.56 16.4375C1293.44 29.4375 1293.19 37.625 1292.81 41C1292.31 44.5 1289.5 46.625 1284.38 47.375C1282.88 47.625 1282 47.3125 1281.75 46.4375C1281 43.5625 1279.31 41.75 1276.69 41C1275.44 41 1275 40.6875 1275.38 40.0625C1275.25 39.5625 1275.75 39.4375 1276.88 39.6875C1280 40.1875 1282.06 40.375 1283.06 40.25C1284.06 40.125 1284.69 39.5 1284.94 38.375C1285.69 31.375 1286.12 23.1875 1286.25 13.8125H1280.06C1278.81 16.3125 1277.44 18.625 1275.94 20.75C1280.56 22.125 1283.12 24.625 1283.62 28.25C1283.62 31.375 1282.25 33 1279.5 33.125C1277.25 33.375 1276 32.3125 1275.75 29.9375C1275.88 27.4375 1275.44 24.9375 1274.44 22.4375C1274.19 22.6875 1273.94 22.9375 1273.69 23.1875C1272.81 24.0625 1272.12 24.6875 1271.62 25.0625V27.6875C1271.62 30.9375 1271.81 35.375 1272.19 41C1272.19 41.875 1271.75 42.5 1270.88 42.875C1269.25 43.25 1267.88 43.5 1266.75 43.625C1265.12 43.875 1264.44 43.5 1264.69 42.5V39.875H1257.38V42.125C1257.38 43.625 1256.75 44.5 1255.5 44.75C1254.38 45 1253.25 45.1875 1252.12 45.3125C1250.38 45.5625 1249.75 44.8125 1250.25 43.0625C1250.38 39.8125 1250.5 36.0625 1250.62 31.8125ZM1264.69 13.8125H1258.12C1257.5 14.1875 1257.25 14.75 1257.38 15.5V25.625H1264.69V13.8125ZM1257.38 27.125V38.375H1264.69V27.125H1257.38ZM1305.75 25.625V16.625H1303.31C1301.81 20.75 1300.06 23.9375 1298.06 26.1875C1297.69 26.6875 1297.38 26.875 1297.12 26.75C1296.88 26.5 1296.81 26.125 1296.94 25.625C1298.44 20.25 1299.19 14.125 1299.19 7.25C1299.19 6.375 1299.56 6.0625 1300.31 6.3125C1300.81 6.4375 1301.56 6.625 1302.56 6.875C1303.94 7 1304.94 7.125 1305.56 7.25C1305.44 6.875 1305.38 6.25 1305.38 5.375C1305.25 4.25 1305.19 3.5625 1305.19 3.3125C1304.81 1.9375 1305.31 1.375 1306.69 1.625C1307.06 1.75 1307.69 1.9375 1308.56 2.1875C1310.81 2.5625 1312.38 2.8125 1313.25 2.9375C1313.88 3.1875 1314.19 3.5625 1314.19 4.0625C1314.31 4.5625 1314.12 4.9375 1313.62 5.1875C1313 5.5625 1312.69 6.125 1312.69 6.875V13.0625C1313.06 12.6875 1313.44 12.4375 1313.81 12.3125C1314.19 12.3125 1315.44 13.0625 1317.56 14.5625C1318.19 12.6875 1318.81 10.5625 1319.44 8.1875C1319.44 8.0625 1319.44 7.75 1319.44 7.25C1320.06 4.5 1320.38 2.75 1320.38 2C1320.38 1.375 1320.94 1.125 1322.06 1.25C1322.44 1.375 1322.94 1.5 1323.56 1.625C1326.06 2.25 1327.88 2.75 1329 3.125C1329.5 3.25 1329.75 3.5625 1329.75 4.0625C1329.62 4.6875 1329.31 5 1328.81 5C1327.81 5.5 1327 6.5 1326.38 8C1325.62 9.75 1324.81 11.375 1323.94 12.875H1334.06C1334.81 11.5 1335.62 10.5625 1336.5 10.0625C1338.88 10.9375 1341.12 12.375 1343.25 14.375C1343.38 14.875 1343.12 15.375 1342.5 15.875C1342 16.125 1341.75 16.5625 1341.75 17.1875C1341 26.9375 1340.19 34.875 1339.31 41C1339.19 43.25 1338.06 44.875 1335.94 45.875C1334.44 46.375 1333 46.8125 1331.62 47.1875C1330.25 47.5625 1329.5 47.1875 1329.38 46.0625C1328.75 44.0625 1327.19 42.625 1324.69 41.75C1323.81 41.5 1323.5 41.25 1323.75 41C1323.75 41 1324.12 40.9375 1324.88 40.8125C1325.5 40.9375 1327.19 41 1329.94 41C1331.56 41 1332.5 40.0625 1332.75 38.1875C1333.12 35.3125 1333.5 31.4375 1333.88 26.5625C1334.38 21.1875 1334.75 17.0625 1335 14.1875H1334.62C1330.75 32.0625 1324.62 42.25 1316.25 44.75C1315.62 45 1315.25 45 1315.12 44.75C1315 44.5 1315.06 44.1875 1315.31 43.8125C1315.56 43.6875 1315.75 43.5625 1315.88 43.4375C1320.25 39.8125 1324.56 30.0625 1328.81 14.1875H1328.06C1324.94 25.9375 1320.31 33.3125 1314.19 36.3125C1313.56 36.6875 1313.19 36.75 1313.06 36.5C1312.94 36.125 1313.19 35.625 1313.81 35C1317.06 30.5 1319.75 24.125 1321.88 15.875C1320.12 18.25 1318.06 20.1875 1315.69 21.6875C1315.19 22.0625 1314.88 22.125 1314.75 21.875C1314.62 21.75 1314.69 21.375 1314.94 20.75C1315.56 19.625 1316.19 18.25 1316.81 16.625H1312.69V23.5625C1313.81 23.1875 1314.88 22.875 1315.88 22.625C1316.5 22.375 1316.94 22.4375 1317.19 22.8125C1317.31 23.0625 1317.12 23.4375 1316.62 23.9375C1316.25 24.3125 1315.62 24.75 1314.75 25.25C1313.75 26 1313.06 26.5 1312.69 26.75V28.0625C1312.69 30.0625 1312.69 32.75 1312.69 36.125C1312.81 39.25 1312.94 41.5 1313.06 42.875C1313.31 44.625 1312.69 45.6875 1311.19 46.0625C1310.19 46.4375 1308.94 46.75 1307.44 47C1305.31 47.625 1304.5 46.5 1305 43.625C1305.12 42.125 1305.25 40.4375 1305.38 38.5625C1305.38 36.4375 1305.44 34.125 1305.56 31.625C1304.94 32 1304.19 32.5 1303.31 33.125C1302.69 33.375 1302.31 33.5625 1302.19 33.6875C1301.56 34.0625 1301.12 34.4375 1300.88 34.8125C1300.38 35.4375 1300 35.75 1299.75 35.75C1299.38 35.75 1299.06 35.375 1298.81 34.625C1298.31 33.875 1297.81 32.875 1297.31 31.625C1296.81 30.625 1296.5 29.875 1296.38 29.375C1296.12 28.625 1296.5 28.125 1297.5 27.875C1298.25 27.75 1300.06 27.3125 1302.94 26.5625C1304.19 26.1875 1305.12 25.875 1305.75 25.625ZM1303.69 15.3125H1305.75V11.1875C1305.75 10.6875 1305.69 10.1875 1305.56 9.6875C1305.31 10.0625 1305.06 10.5625 1304.81 11.1875C1304.56 12.5625 1304.19 13.9375 1303.69 15.3125ZM1355.44 10.4375V8.9375C1355.44 5.8125 1355.38 3.875 1355.25 3.125C1355.12 2.375 1355.19 1.9375 1355.44 1.8125C1355.56 1.5625 1356 1.5 1356.75 1.625C1359.12 2.125 1361.25 2.75 1363.12 3.5C1363.38 3.75 1363.62 3.9375 1363.88 4.0625H1373.25C1374.62 1.9375 1375.62 0.875 1376.25 0.875C1378 1.5 1380.12 2.6875 1382.62 4.4375C1383.12 5.3125 1383 6.0625 1382.25 6.6875C1381.5 7.0625 1381.19 7.6875 1381.31 8.5625C1381.31 10.0625 1381.31 11.75 1381.31 13.625C1381.44 15.5 1381.56 16.875 1381.69 17.75C1381.94 19.375 1381.38 20.3125 1380 20.5625C1378 20.9375 1376.62 21.125 1375.88 21.125C1374.5 21.5 1373.94 20.9375 1374.19 19.4375V17.9375H1362.75V18.875C1362.75 20 1362.25 20.6875 1361.25 20.9375C1360.12 21.1875 1358.75 21.4375 1357.12 21.6875C1355.38 22.0625 1354.69 21.1875 1355.06 19.0625C1355.19 16.5625 1355.31 13.6875 1355.44 10.4375ZM1369.5 44.375V29C1369.5 27.375 1369.44 26.3125 1369.31 25.8125C1369.31 25.0625 1369.31 24.4375 1369.31 23.9375C1369.06 22.8125 1369.62 22.375 1371 22.625C1372.75 23.25 1374.75 24 1377 24.875C1377.38 25.25 1377.56 25.4375 1377.56 25.4375H1380.75C1382 23.3125 1382.94 22.25 1383.56 22.25C1385.56 22.875 1387.62 24.0625 1389.75 25.8125C1390.25 26.8125 1390.12 27.5 1389.38 27.875C1388.62 28.375 1388.31 29 1388.44 29.75C1388.44 31.75 1388.44 34.0625 1388.44 36.6875C1388.56 39.3125 1388.69 41.1875 1388.81 42.3125C1388.94 43.5625 1388.38 44.5 1387.12 45.125C1386.38 45.25 1385.62 45.375 1384.88 45.5C1384.25 45.5 1383.75 45.5625 1383.38 45.6875C1382 45.9375 1381.38 45.375 1381.5 44V41H1376.44V43.25C1376.44 44.25 1375.94 44.9375 1374.94 45.3125C1373.81 45.6875 1372.56 45.9375 1371.19 46.0625C1369.94 46.3125 1369.38 45.75 1369.5 44.375ZM1347.56 31.4375V29.9375C1347.44 27.4375 1347.31 25.4375 1347.19 23.9375C1346.94 22.6875 1347.44 22.1875 1348.69 22.4375C1351.56 23.4375 1353.69 24.1875 1355.06 24.6875C1355.06 24.8125 1355.12 24.9375 1355.25 25.0625C1355.38 25.3125 1355.5 25.4375 1355.62 25.4375H1358.81C1360.06 23.1875 1361 22.0625 1361.62 22.0625C1363.12 22.4375 1365.19 23.625 1367.81 25.625C1368.31 26.625 1368.19 27.375 1367.44 27.875C1366.69 28.25 1366.38 28.875 1366.5 29.75V41.75C1366.5 43.375 1366.06 44.3125 1365.19 44.5625C1363.31 44.9375 1362.06 45.125 1361.44 45.125C1360.06 45.375 1359.44 44.8125 1359.56 43.4375V41H1354.5V43.25C1354.5 44.375 1354 45.125 1353 45.5C1352.25 45.625 1351.5 45.75 1350.75 45.875C1350.12 45.875 1349.62 45.9375 1349.25 46.0625C1347.5 46.3125 1346.81 45.625 1347.19 44C1347.31 40.25 1347.44 36.0625 1347.56 31.4375ZM1374.19 5.5625H1363.5C1362.88 5.9375 1362.62 6.5 1362.75 7.25V16.4375H1374.19V5.5625ZM1359.56 26.75H1355.25C1354.62 27.125 1354.38 27.6875 1354.5 28.4375V39.6875H1359.56V26.75ZM1381.5 26.75H1377.38C1376.75 27.125 1376.44 27.6875 1376.44 28.4375V39.6875H1381.5V26.75ZM1405.69 34.0625H1403.25V31.0625C1403.25 29.4375 1403.88 27.6875 1405.12 25.8125C1406.75 23.8125 1407.56 21.75 1407.56 19.625C1407.56 15.125 1406.06 12.8125 1403.06 12.6875C1400.69 12.9375 1399.06 13.8125 1398.19 15.3125C1398.44 15.3125 1398.69 15.3125 1398.94 15.3125C1401.31 15.4375 1402.56 16.5 1402.69 18.5C1402.44 20.5 1401.19 21.625 1398.94 21.875C1396.56 21.75 1395.31 20.4375 1395.19 17.9375C1395.56 13.5625 1398.75 11.125 1404.75 10.625C1411.12 11 1414.56 13.375 1415.06 17.75C1415.06 20.375 1413.44 22.875 1410.19 25.25C1407.19 27.5 1405.69 29.75 1405.69 32V34.0625ZM1400.25 40.0625C1400.5 37.6875 1401.81 36.3125 1404.19 35.9375C1406.69 36.1875 1408.06 37.5625 1408.31 40.0625C1407.94 42.0625 1406.56 43.25 1404.19 43.625C1401.81 43.25 1400.5 42.0625 1400.25 40.0625Z" fill="#10656A"/>
</svg>
