<svg width="1176" height="49" viewBox="0 0 1176 49" fill="none" xmlns="http://www.w3.org/2000/svg">
<path d="M6.9375 40.4375V34.625C6.9375 31.375 6.875 29.375 6.75 28.625C6.625 28 6.625 27.5625 6.75 27.3125C7 27.1875 7.5 27.1875 8.25 27.3125C8.875 27.4375 10.5 27.9375 13.125 28.8125C13.75 28.9375 14.1875 29 14.4375 29C14.6875 29.25 14.9375 29.4375 15.1875 29.5625H32.4375C33.1875 28.0625 34 27.125 34.875 26.75C37.375 27.625 39.8125 29.0625 42.1875 31.0625C42.3125 31.4375 42 31.8125 41.25 32.1875C40.75 32.5625 40.5625 33.0625 40.6875 33.6875V38C40.5625 40.625 40.625 42.4375 40.875 43.4375C40.875 44.9375 40.375 45.8125 39.375 46.0625C38.625 46.1875 37.5 46.375 36 46.625C35.625 46.625 35.3125 46.6875 35.0625 46.8125C33.6875 46.8125 33.0625 46.3125 33.1875 45.3125V43.625H14.25V45.3125C14.25 45.9375 13.875 46.4375 13.125 46.8125C11.125 47.0625 9.625 47.25 8.625 47.375C7 47.625 6.375 46.9375 6.75 45.3125C6.875 44.8125 6.9375 43.1875 6.9375 40.4375ZM37.5 19.625L38.8125 14.1875H8.8125C9.1875 16.6875 8.75 18.625 7.5 20C5.375 21.875 3.375 21.9375 1.5 20.1875C0.5 18.6875 0.625 17.25 1.875 15.875C3.75 14.875 4.8125 13.0625 5.0625 10.4375C5.0625 9.9375 5.1875 9.6875 5.4375 9.6875C5.6875 9.5625 6 9.6875 6.375 10.0625C7 10.6875 7.625 11.625 8.25 12.875H20.4375V7.8125C20.3125 5.9375 20.1875 4.0625 20.0625 2.1875C19.6875 0.9375 20.25 0.375 21.75 0.5C23.5 0.625 25.5625 0.875 27.9375 1.25C28.9375 1.75 29.0625 2.4375 28.3125 3.3125C27.6875 3.5625 27.4375 4 27.5625 4.625V12.875H29.4375C30.5625 9.625 31.5625 6.125 32.4375 2.375C32.4375 1.5 33.0625 1.25 34.3125 1.625C35.4375 2.125 37 2.875 39 3.875C39.375 4.125 39.75 4.3125 40.125 4.4375C40.5 4.6875 40.625 5.125 40.5 5.75C40.375 6.125 40.0625 6.3125 39.5625 6.3125C38.6875 6.3125 38 6.6875 37.5 7.4375C35.75 9.6875 34.0625 11.5 32.4375 12.875H38.25C39.125 11.25 39.9375 10.25 40.6875 9.875C42.8125 10.375 45.0625 11.9375 47.4375 14.5625C47.8125 15.3125 47.8125 16 47.4375 16.625C47.3125 16.875 46.625 17.0625 45.375 17.1875C42.875 17.3125 40.6875 18.375 38.8125 20.375C38.3125 20.875 37.9375 21.0625 37.6875 20.9375C37.4375 20.8125 37.375 20.375 37.5 19.625ZM19.5 17.375H27.1875C28.1875 15.625 29 14.6875 29.625 14.5625C32.25 15.3125 34.6875 16.75 36.9375 18.875C37.0625 19.25 36.75 19.625 36 20C35.625 20.25 35.4375 20.6875 35.4375 21.3125C35.3125 23.3125 35.375 24.4375 35.625 24.6875C35.875 25.9375 35.375 26.625 34.125 26.75C32.375 27.25 30.9375 27.5 29.8125 27.5C28.3125 27.75 27.6875 27.25 27.9375 26V25.4375H18.5625V25.625C18.5625 26.5 18.25 27 17.625 27.125C16.25 27.625 14.6875 27.875 12.9375 27.875C11.4375 28.125 10.8125 27.4375 11.0625 25.8125C11.1875 24.8125 11.3125 23.1875 11.4375 20.9375C11.3125 19.4375 11.1875 18 11.0625 16.625C10.9375 16 10.9375 15.625 11.0625 15.5C11.3125 15.25 11.8125 15.1875 12.5625 15.3125C14.5625 15.6875 16.625 16.1875 18.75 16.8125C19 17.0625 19.25 17.25 19.5 17.375ZM11.625 8.9375C11.25 6.8125 10.3125 5.0625 8.8125 3.6875C8.4375 3.4375 8.3125 3.1875 8.4375 2.9375C8.5625 2.6875 8.875 2.5 9.375 2.375C14 2.5 17 3.75 18.375 6.125C19.25 9.125 18.375 11.1875 15.75 12.3125C13.5 12.8125 12.125 11.6875 11.625 8.9375ZM27.9375 18.875H18.75C18.625 19 18.5625 19.125 18.5625 19.25C18.5625 19.625 18.5625 19.875 18.5625 20V24.125H27.9375V18.875ZM27 37.4375V42.125H33.1875V37.4375H27ZM33.1875 31.0625H27V35.9375H33.1875V31.0625ZM14.25 37.4375V42.125H19.875V37.4375H14.25ZM14.25 32.1875V35.9375H19.875V31.0625H14.4375C14.1875 31.4375 14.125 31.8125 14.25 32.1875ZM82.6875 19.625V23.1875C82.6875 22.8125 83.0625 22.8125 83.8125 23.1875C88.6875 25.0625 92.1875 28.0625 94.3125 32.1875C95.0625 35.6875 94.125 38 91.5 39.125C88.875 39.625 87.3125 38.125 86.8125 34.625C86.3125 31.125 85.0625 27.625 83.0625 24.125C82.8125 24 82.6875 23.8125 82.6875 23.5625V25.8125C82.5625 32.6875 82.625 37.625 82.875 40.625C83.125 42.875 82.4375 44.5 80.8125 45.5C78.9375 46.5 77.0625 47.125 75.1875 47.375C73.5625 47.625 72.6875 47.25 72.5625 46.25C72.1875 44.125 71.125 42.8125 69.375 42.3125C68.375 41.9375 67.9375 41.5625 68.0625 41.1875C67.9375 41.0625 68.5625 41 69.9375 41C73.9375 41.625 75.75 40.375 75.375 37.25V24.875C75.375 25.125 75.1875 25.25 74.8125 25.25C74.1875 25.5 73.875 25.875 73.875 26.375C71.875 32.625 68.4375 37.3125 63.5625 40.4375C62.9375 40.8125 62.5625 40.9375 62.4375 40.8125C62.3125 40.6875 62.4375 40.3125 62.8125 39.6875C64.5625 35.6875 65.8125 32.0625 66.5625 28.8125C66.5625 28.6875 66.5625 28.375 66.5625 27.875C66.9375 26.5 67.1875 25 67.3125 23.375C67.4375 22.375 67.9375 21.9375 68.8125 22.0625C70.6875 22.3125 72.6875 22.8125 74.8125 23.5625C75.1875 23.9375 75.375 24.125 75.375 24.125V23.5625C75.25 22.0625 75.1875 20.625 75.1875 19.25C75.0625 17.875 74.9375 16.875 74.8125 16.25C74.4375 14.875 74.9375 14.3125 76.3125 14.5625C78.0625 14.8125 80.3125 15.1875 83.0625 15.6875C84.3125 16.4375 84.5 17.1875 83.625 17.9375C82.875 18.3125 82.5625 18.875 82.6875 19.625ZM61.5 18.125V35.75C61.375 39.25 61.4375 41.75 61.6875 43.25C61.9375 44.875 61.375 45.9375 60 46.4375C58.75 46.8125 57.4375 47.125 56.0625 47.375C53.9375 48 53.1875 46.875 53.8125 44C53.8125 43.375 53.8125 42.4375 53.8125 41.1875C54.1875 35.6875 54.375 31.5625 54.375 28.8125V22.625C52.625 24.75 50.875 26.4375 49.125 27.6875C48.75 28.0625 48.5 28.125 48.375 27.875C48.25 27.625 48.3125 27.25 48.5625 26.75C51.5625 20.75 53.9375 14.5625 55.6875 8.1875C56.3125 6.4375 56.75 4.1875 57 1.4375C56.875 0.6875 57.375 0.3125 58.5 0.3125C60 0.6875 62.5 1.4375 66 2.5625C66.75 3.3125 66.75 4.0625 66 4.8125C65.125 5.1875 64.625 5.5625 64.5 5.9375C62.875 9.1875 61.4375 12 60.1875 14.375C60.3125 14.375 60.5625 14.4375 60.9375 14.5625C61.3125 14.5625 61.5625 14.5625 61.6875 14.5625C62.5625 15.1875 62.6875 15.8125 62.0625 16.4375C61.5625 16.8125 61.375 17.375 61.5 18.125ZM84.9375 17.375L86.25 12.875H73.875C71.125 17.25 67.625 20.8125 63.375 23.5625C63 23.8125 62.75 23.8125 62.625 23.5625C62.5 23.4375 62.5625 23.125 62.8125 22.625C66.0625 17.625 68.375 12.4375 69.75 7.0625C70 6.0625 70.1875 5.125 70.3125 4.25C70.5625 3.25 70.6875 2.3125 70.6875 1.4375C70.6875 0.5625 71.1875 0.25 72.1875 0.5C73.3125 0.625 75.25 1.125 78 2C78.25 2.125 78.5625 2.1875 78.9375 2.1875C79.3125 2.4375 79.5625 2.8125 79.6875 3.3125C79.5625 3.8125 79.3125 4.0625 78.9375 4.0625C78.0625 4.4375 77.5625 4.9375 77.4375 5.5625C76.5625 7.6875 75.6875 9.625 74.8125 11.375H85.3125C86.1875 9.375 87.125 8.1875 88.125 7.8125C90 8.1875 92.1875 9.625 94.6875 12.125C95.3125 12.75 95.5625 13.4375 95.4375 14.1875C95.3125 14.9375 94.6875 15.3125 93.5625 15.3125C90.5625 15.0625 88.0625 16 86.0625 18.125C85.5625 18.5 85.1875 18.625 84.9375 18.5C84.8125 18.375 84.8125 18 84.9375 17.375ZM129.938 25.8125H121.688C121.188 26.0625 120.688 26.5 120.188 27.125C119.812 27.5 119.438 27.875 119.062 28.25C118.188 29.25 117.5 29.875 117 30.125H130.5C131.375 28.625 132.188 27.75 132.938 27.5C135.688 28.5 137.875 29.875 139.5 31.625C139.625 32.125 139.375 32.625 138.75 33.125C138.125 33.5 137.812 33.875 137.812 34.25C137.812 35.25 137.875 36.75 138 38.75C138 39.75 138.062 40.5 138.188 41C138.438 43.375 137.812 45.0625 136.312 46.0625C134.812 46.5625 133.5 47 132.375 47.375C130.5 47.625 129.562 47.1875 129.562 46.0625C129.188 44.6875 128.562 43.8125 127.688 43.4375C127.688 43.9375 127.188 44.375 126.188 44.75C126.062 44.75 125.938 44.75 125.812 44.75C124.562 45.125 123.438 45.3125 122.438 45.3125C121.312 45.6875 120.812 45 120.938 43.25C120.938 42.125 120.938 41.1875 120.938 40.4375C121.062 39.4375 121.125 38.4375 121.125 37.4375V31.625H118.312V43.25C118.312 44.375 117.75 45.0625 116.625 45.3125C116.5 45.3125 116.375 45.3125 116.25 45.3125C115 45.6875 113.938 45.875 113.062 45.875C111.688 46.25 111.125 45.5625 111.375 43.8125C111.375 42.6875 111.375 41.75 111.375 41C111.5 40 111.562 39 111.562 38V31.625H109.688C109.688 31.75 109.625 31.875 109.5 32C109 32.25 108.75 32.6875 108.75 33.3125V43.625C108.75 45.25 108.188 46.1875 107.062 46.4375C105.688 46.8125 104.5 47.0625 103.5 47.1875C101.875 47.3125 101.25 46.6875 101.625 45.3125C101.875 41.0625 102 37.75 102 35.375C102 35.125 101.938 34.1875 101.812 32.5625C101.688 31.0625 101.688 30.125 101.812 29.75C101.688 29 101.688 28.5625 101.812 28.4375C101.938 28.3125 102.375 28.25 103.125 28.25C103.875 28.375 105.375 28.75 107.625 29.375C108.125 29.625 108.625 29.75 109.125 29.75C109.25 30 109.438 30.125 109.688 30.125H114.375C114.5 29 114.562 27.5625 114.562 25.8125H101.625C100.75 25.8125 99.6875 25.875 98.4375 26C97.9375 26.25 97.625 26.1875 97.5 25.8125C97.375 25.6875 97.1875 25.5 96.9375 25.25C96.6875 25 96.5625 24.75 96.5625 24.5C96.3125 24.375 96.1875 24.25 96.1875 24.125C96.3125 24 96.5 23.9375 96.75 23.9375C98.5 24.3125 100.625 24.4375 103.125 24.3125H132.938C135.062 21.5625 136.438 20.125 137.062 20C138.812 20.75 140.75 22.3125 142.875 24.6875C143.25 25.1875 143.375 25.5625 143.25 25.8125C143.125 26.0625 142.812 26.125 142.312 26C140.438 26 138.625 26 136.875 26C135.375 25.875 133.062 25.8125 129.938 25.8125ZM103.875 9.6875H116.25V5.75H106.688C105.688 5.875 104.75 6 103.875 6.125C103.625 6.125 103.438 6.125 103.312 6.125C102.938 6.25 102.625 6.125 102.375 5.75C102.25 5.75 102.125 5.625 102 5.375C101.625 5 101.438 4.6875 101.438 4.4375C101.188 4.3125 101.062 4.1875 101.062 4.0625C101.188 4.0625 101.375 4 101.625 3.875C103.375 4.25 105.5 4.375 108 4.25H128.625C130.125 2.125 131.375 0.875 132.375 0.5C133.75 1 135.5 2.375 137.625 4.625C137.875 5 137.938 5.375 137.812 5.75C137.688 6 137.438 6.125 137.062 6.125C135.062 6 133.312 5.9375 131.812 5.9375C130.562 5.8125 128.5 5.75 125.625 5.75H123.188V9.6875H134.438C135.562 8.0625 136.438 7.25 137.062 7.25C138.812 7.875 140.75 9.1875 142.875 11.1875C143.5 12.0625 143.75 12.75 143.625 13.25C143.5 13.625 142.75 13.875 141.375 14C139.125 14 137.312 14.75 135.938 16.25C135.062 17.125 134.5 17.5 134.25 17.375C134 17.25 134 16.625 134.25 15.5C134.25 14.75 134.438 13.3125 134.812 11.1875H123.188V15.125C123.188 15.625 123.188 16.375 123.188 17.375C123.312 19 123.375 20.1875 123.375 20.9375C123.375 22.0625 122.812 22.8125 121.688 23.1875C120.312 23.6875 118.938 24 117.562 24.125C116.562 24.25 116.125 23.6875 116.25 22.4375C116.25 21.3125 116.25 19.3125 116.25 16.4375C116.25 15.6875 116.25 14.9375 116.25 14.1875V11.1875H104.812C105.312 12.6875 105.438 14 105.188 15.125C104.062 17.75 102.25 18.875 99.75 18.5C97.5 17.5 97.1875 15.875 98.8125 13.625C100.062 12.5 100.938 10.875 101.438 8.75C101.688 8 102.188 7.875 102.938 8.375C103.312 8.875 103.625 9.3125 103.875 9.6875ZM130.875 38.375V31.625H127.875V41.5625C130 41.9375 131 40.875 130.875 38.375ZM115.5 16.0625H106.5V14.5625H115.5V16.0625ZM115.312 20.75H106.5V19.4375H115.312V20.75ZM133.312 20.75H124.5V19.4375H133.312V20.75ZM133.125 16.0625H124.5V14.5625H133.125V16.0625ZM157.125 23.375V23.75C157.125 24.625 156.375 25.25 154.875 25.625C153.875 25.875 152.75 26.0625 151.5 26.1875C150 26.5625 149.375 25.9375 149.625 24.3125C149.625 23.8125 149.625 23.0625 149.625 22.0625C149.875 20.3125 150 18.6875 150 17.1875C149.875 16.5625 149.812 15.5 149.812 14C149.688 12.375 149.625 11.25 149.625 10.625C149.375 9.375 149.875 8.875 151.125 9.125C152.875 9.5 155.125 10.3125 157.875 11.5625H160.312V5.75H153.938C152.688 5.875 151.312 5.9375 149.812 5.9375C148.438 6.0625 147.375 6.1875 146.625 6.3125C146.25 6.5625 145.938 6.4375 145.688 5.9375C145.312 5.4375 144.938 4.875 144.562 4.25C144.438 4.125 144.438 4 144.562 3.875C144.562 3.875 144.75 3.875 145.125 3.875C146.25 4 148.125 4.1875 150.75 4.4375C153 4.4375 154.688 4.4375 155.812 4.4375H180.562C182.438 1.8125 183.75 0.4375 184.5 0.3125C185.75 0.5625 187.812 1.875 190.688 4.25C191.438 5.375 191.25 6 190.125 6.125C189.5 6.125 188.625 6.125 187.5 6.125C183.375 5.875 180 5.75 177.375 5.75H175.875V11.5625H177.938C179.312 9.8125 180.438 8.8125 181.312 8.5625C183.062 8.8125 185.125 9.875 187.5 11.75C188.25 12.75 188.188 13.4375 187.312 13.8125C186.688 14.1875 186.375 14.75 186.375 15.5C186.375 16.75 186.438 18.1875 186.562 19.8125C186.562 20.9375 186.625 21.8125 186.75 22.4375C186.875 23.5625 186.5 24.3125 185.625 24.6875C187 25.1875 188.812 26.5 191.062 28.625C191.688 30 191.438 30.6875 190.312 30.6875C189.312 30.6875 187.875 30.6875 186 30.6875C184 30.5625 182.5 30.5 181.5 30.5C181.375 30.75 181.062 31.0625 180.562 31.4375C180.438 31.4375 180.375 31.4375 180.375 31.4375C179.875 31.5625 179.5 31.9375 179.25 32.5625C178.875 33.0625 178.562 33.5625 178.312 34.0625C178.062 34.6875 177.5 35.5625 176.625 36.6875C177.25 36.9375 177.938 37.125 178.688 37.25C180.688 37.75 182.188 38.125 183.188 38.375C186.688 39.875 188.375 41.875 188.25 44.375C187.875 46 186.812 47 185.062 47.375C183.812 47.375 182.375 46.6875 180.75 45.3125C178.375 43.4375 175.625 42 172.5 41C167.75 44.875 159.438 46.9375 147.562 47.1875C146.938 47.0625 146.562 46.875 146.438 46.625C146.438 46.25 146.75 46 147.375 45.875C155.125 43.875 161 41.3125 165 38.1875C164.625 38.1875 164.062 38.125 163.312 38C162.438 37.75 161.812 37.5625 161.438 37.4375L161.25 37.625C160.875 38 160.5 38.5 160.125 39.125C159.5 39.75 158.812 39.8125 158.062 39.3125C157.812 39.3125 157.5 39.125 157.125 38.75C155.25 37.625 154.062 36.75 153.562 36.125C153.062 35.625 153.312 35.0625 154.312 34.4375C154.562 34.3125 155 33.875 155.625 33.125L157.5 30.5H153.188C150.438 30.625 148.062 30.75 146.062 30.875C145.688 31 145.375 30.875 145.125 30.5C144.875 30.375 144.688 30.125 144.562 29.75C144.438 29.5 144.312 29.25 144.188 29C144.062 28.625 144.188 28.4375 144.562 28.4375C145.438 28.6875 146.812 28.875 148.688 29C150.688 29 152.75 29 154.875 29H158.438L162.375 23.375H157.125ZM179.062 23.375H172.312C172.312 24 171.938 24.4375 171.188 24.6875C170.562 24.6875 170 25.0625 169.5 25.8125L167.25 29H181.125C182 27.5 182.875 26.3125 183.75 25.4375C183.375 25.4375 182.875 25.5625 182.25 25.8125C181.875 25.8125 181.562 25.8125 181.312 25.8125C179.688 26.3125 178.938 25.9375 179.062 24.6875V23.375ZM179.25 13.0625H175.875V21.875H179.25V13.0625ZM166.5 13.0625V21.875H169.688V13.0625H166.5ZM157.125 14.1875V21.875H160.312V13.0625H158.25C157.375 13.0625 157 13.4375 157.125 14.1875ZM171.562 30.5H166.312L162.938 35.375C163.438 35.375 164.25 35.4375 165.375 35.5625C166.375 35.5625 167.125 35.5625 167.625 35.5625C169.125 34.0625 170.438 32.375 171.562 30.5ZM166.5 5.75V11.5625H169.688V5.75H166.5ZM202.125 35.375V27.875C201.75 28.125 201.188 28.4375 200.438 28.8125C200.062 29.0625 199.75 29.25 199.5 29.375C198.75 29.75 198.25 30.1875 198 30.6875C197.625 31.3125 197.25 31.625 196.875 31.625C196.375 31.625 196 31.25 195.75 30.5C195 29.375 194.25 27.5625 193.5 25.0625C193 24.1875 193.312 23.6875 194.438 23.5625C195.188 23.4375 196.375 23.25 198 23C199.375 22.75 200.75 22.4375 202.125 22.0625V13.25H198.375C197 13.25 196.062 13.3125 195.562 13.4375C195.438 13.4375 195.312 13.5 195.188 13.625C194.938 13.625 194.75 13.4375 194.625 13.0625C194.5 12.9375 194.375 12.75 194.25 12.5C194 12.25 193.875 12 193.875 11.75C193.625 11.375 193.75 11.25 194.25 11.375C195.875 11.625 197.562 11.75 199.312 11.75H202.125V10.4375C202 8.8125 201.938 7.25 201.938 5.75C201.812 4.25 201.688 3.125 201.562 2.375C201.188 1 201.688 0.4375 203.062 0.6875C204.688 0.8125 206.75 1.0625 209.25 1.4375C209.625 1.5625 210.062 1.625 210.562 1.625C211.188 1.75 211.562 2.0625 211.688 2.5625C211.688 2.9375 211.438 3.375 210.938 3.875C210.188 4.375 209.812 5.0625 209.812 5.9375V11.75H210.375C211.75 9.375 212.75 8.1875 213.375 8.1875C214.75 8.5625 216.375 9.8125 218.25 11.9375C218.625 12.8125 218.438 13.25 217.688 13.25H209.812V20.1875C211.312 19.8125 212.812 19.4375 214.312 19.0625C215.312 18.8125 215.938 18.8125 216.188 19.0625C216.312 19.4375 215.938 19.875 215.062 20.375C214.062 21.125 212.562 22.125 210.562 23.375C210.188 23.5 209.938 23.625 209.812 23.75C209.812 25.5 209.875 28.6875 210 33.3125C210.125 36.1875 210.25 38.3125 210.375 39.6875C210.375 42.1875 209.625 43.8125 208.125 44.5625C206.875 45.3125 205.188 45.9375 203.062 46.4375C201.562 46.6875 200.625 46.25 200.25 45.125C199.875 42.75 198.562 41.375 196.312 41C195.188 40.625 194.688 40.25 194.812 39.875C194.938 39.5 195.562 39.375 196.688 39.5C200.938 40.5 202.75 39.125 202.125 35.375ZM223.875 35.5625V9.5H219.938C219.062 9.625 218.125 9.75 217.125 9.875C216.625 10 216.312 9.875 216.188 9.5C215.688 9.25 215.375 8.8125 215.25 8.1875C214.875 7.8125 214.938 7.6875 215.438 7.8125C217.562 8.0625 219.375 8.1875 220.875 8.1875H230.812C232.688 5.5625 234 4.25 234.75 4.25C235.875 4.625 237.375 6 239.25 8.375C239.5 8.75 239.562 9.0625 239.438 9.3125C239.438 9.5625 239.25 9.6875 238.875 9.6875C237.875 9.6875 236.938 9.6875 236.062 9.6875C235.188 9.5625 234 9.5 232.5 9.5C231.75 10.25 231.438 11 231.562 11.75V23C231.562 26.75 231.688 32.5625 231.938 40.4375C231.938 42.9375 231.25 44.5625 229.875 45.3125C228.25 46.1875 226.5 46.875 224.625 47.375C222.625 47.625 221.562 47.1875 221.438 46.0625C220.938 43.0625 219.438 41.375 216.938 41C215.562 40.875 215 40.5625 215.25 40.0625C215.125 39.6875 215.75 39.5 217.125 39.5C217.75 39.75 218.75 39.8125 220.125 39.6875C222.75 39.9375 224 38.5625 223.875 35.5625ZM273.562 4.625V6.3125H277.312C278.812 3.8125 279.938 2.4375 280.688 2.1875C282.188 2.8125 283.875 4.25 285.75 6.5C286.125 7.25 285.938 7.6875 285.188 7.8125C281.938 7.8125 278.562 7.8125 275.062 7.8125H273.562V11.1875C273.688 12.4375 273.188 13.125 272.062 13.25C271.562 13.375 271 13.5 270.375 13.625C269.75 13.75 269.25 13.8125 268.875 13.8125C267.5 14.1875 266.812 13.625 266.812 12.125C266.438 12.375 266.25 12.875 266.25 13.625V15.125H274.312V14.1875C274.312 13.3125 274.188 12.25 273.938 11C273.688 9.75 274.188 9.25 275.438 9.5C276.562 9.625 278 9.875 279.75 10.25C279.875 10.25 280.062 10.25 280.312 10.25C280.812 10.375 281.062 10.5625 281.062 10.8125C281.188 11.0625 281.062 11.375 280.688 11.75C280.438 12.125 280.312 12.625 280.312 13.25V15.125C281.438 13.25 282.312 12.25 282.938 12.125C283.688 12.25 285.125 13.3125 287.25 15.3125C287.5 15.8125 287.562 16.1875 287.438 16.4375C287.312 16.6875 287 16.75 286.5 16.625C284.375 16.625 282.312 16.625 280.312 16.625V17.5625C280.438 18.8125 279.875 19.5 278.625 19.625C278.5 19.625 278.438 19.625 278.438 19.625C280.688 20.875 282.438 22 283.688 23C283.938 23.625 283.875 24.0625 283.5 24.3125C283 24.5625 282.75 24.9375 282.75 25.4375C282.75 26.9375 282.75 28.9375 282.75 31.4375C282.875 33.3125 283 34.5 283.125 35C283.25 36.5 282.75 37.375 281.625 37.625C280.375 37.875 279.125 38.0625 277.875 38.1875C276.5 38.5625 275.938 38.125 276.188 36.875V36.6875H264.75V36.875C264.75 37.125 264.688 37.3125 264.562 37.4375C267.688 39.1875 269.625 40.3125 270.375 40.8125C270.75 41.0625 270.875 41.375 270.75 41.75C270.625 42.25 270.312 42.5 269.812 42.5C269.062 42.25 268.25 42.4375 267.375 43.0625C264.375 44.6875 260 46.125 254.25 47.375C253.375 47.375 252.875 47.25 252.75 47C252.625 46.625 252.875 46.3125 253.5 46.0625C257.125 43.8125 260.125 41.4375 262.5 38.9375C261.5 39.1875 260.625 39.25 259.875 39.125C258.125 39.625 257.438 38.8125 257.812 36.6875C258.062 34.9375 258.188 31.5 258.188 26.375C258.188 25 258.125 23.9375 258 23.1875C258 22.4375 258 21.75 258 21.125C257.875 19.875 258.312 19.375 259.312 19.625C259.438 19.625 259.562 19.6875 259.688 19.8125C259.812 19.9375 260 19.9375 260.25 19.8125C260 19.5625 259.938 19.0625 260.062 18.3125C259.938 18.1875 259.938 17.9375 260.062 17.5625C260.188 17.1875 260.25 16.875 260.25 16.625H256.312V30.6875C256.312 32.1875 255.875 33.125 255 33.5C253.875 33.875 252.812 34.125 251.812 34.25C250.438 34.5 249.812 33.8125 249.938 32.1875V30.3125H247.875V33.125C248 34.375 247.5 35.125 246.375 35.375C245.25 35.75 244.125 35.9375 243 35.9375C241.25 36.4375 240.562 35.375 240.938 32.75C241.062 31.625 241.188 29.875 241.312 27.5C241.312 25.125 241.375 22.6875 241.5 20.1875V16.0625C241.5 13.8125 241.438 12 241.312 10.625C241.312 9.25 241.25 7.9375 241.125 6.6875C241 5.6875 241.5 5.3125 242.625 5.5625C244.5 5.9375 246.5 6.6875 248.625 7.8125C248.625 8.0625 248.688 8.125 248.812 8H249.375C250.5 6.375 251.312 5.5 251.812 5.375C254.062 6.125 256.125 7.4375 258 9.3125C258.25 10.0625 258 10.625 257.25 11C256.625 11.25 256.312 11.6875 256.312 12.3125V15.125H260.25V14.375C260.25 13.5 260.188 12.4375 260.062 11.1875C259.812 9.9375 260.25 9.4375 261.375 9.6875C263.25 9.9375 264.875 10.25 266.25 10.625C266.625 10.75 266.812 10.875 266.812 11C266.812 10.875 266.875 10.75 267 10.625C267 9.5 267 8.5625 267 7.8125H261.375C260 7.8125 259.062 7.875 258.562 8C258.188 8.125 257.875 8 257.625 7.625C257.125 7.375 256.812 6.9375 256.688 6.3125C256.312 5.9375 256.375 5.8125 256.875 5.9375C258.75 6.1875 260.562 6.3125 262.312 6.3125H267.188V5.5625C267.188 5.0625 267.125 4.4375 267 3.6875C266.875 3.3125 266.812 2.75 266.812 2C266.438 0.875 266.938 0.375 268.312 0.5C268.812 0.625 269.312 0.75 269.812 0.875C271.312 1.125 272.562 1.375 273.562 1.625C274.062 1.75 274.375 1.9375 274.5 2.1875C274.625 2.4375 274.5 2.75 274.125 3.125C273.75 3.5 273.562 4 273.562 4.625ZM279.188 45.3125C278.062 42.9375 275.562 40.9375 271.688 39.3125C271.312 39.3125 271.188 39.1875 271.312 38.9375C271.312 38.6875 271.5 38.5 271.875 38.375C276.5 38.125 280.5 38.9375 283.875 40.8125C285.625 42.3125 285.875 44.0625 284.625 46.0625C282.25 47.8125 280.438 47.5625 279.188 45.3125ZM265.5 21.5H275.625C275.75 21.25 275.938 20.9375 276.188 20.5625C276.312 20.3125 276.438 20.125 276.562 20C276.312 20 276.188 20 276.188 20C274.688 20.375 274 19.6875 274.125 17.9375C274.125 17.3125 274.125 16.875 274.125 16.625H266.25V17.9375C266.375 19.1875 265.875 19.875 264.75 20C264.625 20.125 264.438 20.1875 264.188 20.1875C263.562 20.3125 262.938 20.375 262.312 20.375C262.438 20.5 262.75 20.6875 263.25 20.9375C263.875 21.0625 264.375 21.1875 264.75 21.3125C264.875 21.3125 265 21.375 265.125 21.5C265.25 21.625 265.375 21.625 265.5 21.5ZM249.938 9.5H248.812C248.562 9.625 248.5 9.6875 248.625 9.6875C248 10.0625 247.75 10.375 247.875 10.625V28.8125H249.938V9.5ZM264.75 32V35.1875H276.188V32H264.75ZM264.75 27.5V30.6875H276.188V27.5H264.75ZM276.188 23H265.5C265.375 23 265.312 23.0625 265.312 23.1875C264.938 23.4375 264.75 23.8125 264.75 24.3125V26H276.188V23ZM312.375 27.125C312.5 28 312.062 28.5 311.062 28.625C310.562 28.875 309.875 29.125 309 29.375C308.75 29.375 308.625 29.375 308.625 29.375C307.125 29.625 306.438 29.1875 306.562 28.0625C306.688 26.6875 306.75 24.625 306.75 21.875V18.875C305.625 19.5 304.5 19.375 303.375 18.5V19.4375C303.25 23.8125 303.312 28 303.562 32C303.562 32.875 303.125 33.4375 302.25 33.6875C302 33.8125 301.75 33.9375 301.5 34.0625C300.875 34.3125 300.062 34.5 299.062 34.625C297.688 35 297.125 34.5 297.375 33.125V30.5H295.125V32.75C295.125 34.5 294.562 35.4375 293.438 35.5625C292.688 35.9375 291.812 36.1875 290.812 36.3125C289.438 36.5625 288.875 36 289.125 34.625C289.125 33.875 289.125 32.6875 289.125 31.0625C289.375 27.1875 289.5 24.5 289.5 23V16.4375C289.5 12.8125 289.312 9.75 288.938 7.25C288.812 6.125 289.312 5.6875 290.438 5.9375C291.312 6.1875 292.625 6.8125 294.375 7.8125C294.625 7.9375 294.938 8.0625 295.312 8.1875C295.688 8.4375 295.875 8.5625 295.875 8.5625H296.812C297.688 7.0625 298.5 6.1875 299.25 5.9375C301.5 6.8125 303.375 8.125 304.875 9.875C304.875 10.5 304.562 10.9375 303.938 11.1875C303.562 11.5625 303.375 12.0625 303.375 12.6875V14.5625C304.375 13.9375 305.312 12.4375 306.188 10.0625C306.562 9.5625 306.938 9.5625 307.312 10.0625C307.562 10.4375 307.812 10.8125 308.062 11.1875H314.812V7.8125H312.375C310.5 7.8125 309.125 7.875 308.25 8C307.25 8 306.312 8 305.438 8C305.188 8.25 305 8.25 304.875 8C304.5 7.5 304.25 7 304.125 6.5C304 6.125 304.062 5.9375 304.312 5.9375C305.812 6.3125 309.062 6.4375 314.062 6.3125H314.812C314.688 5.8125 314.625 5.125 314.625 4.25C314.5 3.25 314.438 2.5 314.438 2C314.188 1 314.688 0.5 315.938 0.5C318.312 0.875 320.125 1.25 321.375 1.625C322.5 2.375 322.625 3.0625 321.75 3.6875C321 4.0625 320.688 4.4375 320.812 4.8125V6.3125H324.938C326.438 4.3125 327.5 3.25 328.125 3.125C328.875 3.375 330.125 4.375 331.875 6.125C332.375 6.75 332.562 7.1875 332.438 7.4375C332.438 7.8125 332.125 7.9375 331.5 7.8125C328.5 7.8125 325.312 7.8125 321.938 7.8125H320.812V11.1875H327C327.875 9.8125 328.562 9.125 329.062 9.125C330.188 9.5 332 10.875 334.5 13.25C334.75 13.875 334.812 14.3125 334.688 14.5625C334.438 15.0625 333.875 15.1875 333 14.9375C331.5 14.9375 330.312 15.1875 329.438 15.6875C330.438 16.3125 331.062 16.8125 331.312 17.1875C331.438 17.9375 331.25 18.4375 330.75 18.6875C329.875 19.0625 329.5 19.375 329.625 19.625V26C329.625 27 329.438 27.625 329.062 27.875C330.062 28.375 331.375 29.125 333 30.125C333.375 30.625 333.5 31.0625 333.375 31.4375C333.125 31.8125 332.625 32 331.875 32C329.875 32.25 328.438 32.6875 327.562 33.3125C327.812 33.5625 328.375 34.0625 329.25 34.8125C329.5 34.9375 329.812 35.125 330.188 35.375C330.562 35.875 330.688 36.25 330.562 36.5C330.438 36.625 330.125 36.6875 329.625 36.6875H321.562V41C325.312 41 328.938 40.875 332.438 40.625C333.188 40.625 333.75 40.625 334.125 40.625C334.375 40.875 334.188 41.1875 333.562 41.5625C332.438 42.6875 331.75 43.9375 331.5 45.3125C331.25 46.0625 330.812 46.4375 330.188 46.4375C324.062 46.5625 319.312 46 315.938 44.75C313.812 43.875 312.125 42.0625 310.875 39.3125C308.5 42.5625 304.625 45 299.25 46.625C298.75 46.625 298.438 46.5625 298.312 46.4375C298.062 46.1875 298.125 46 298.5 45.875C302.125 43 304.5 40.375 305.625 38C306.25 36.5 306.75 35 307.125 33.5C307.125 32.625 307.562 32.3125 308.438 32.5625C310.312 33.0625 312.062 33.5 313.688 33.875C314.188 34.125 314.5 34.4375 314.625 34.8125C314.625 35.1875 314.375 35.4375 313.875 35.5625C313.25 35.9375 312.812 36.375 312.562 36.875L312 37.8125C313.25 39.3125 314.5 40.1875 315.75 40.4375V31.0625H312C310.75 31.1875 309.625 31.25 308.625 31.25C307.625 31.375 306.875 31.5 306.375 31.625C306 31.75 305.625 31.625 305.25 31.25C305.125 31.125 304.938 30.9375 304.688 30.6875C304.438 30.4375 304.312 30.1875 304.312 29.9375C304.188 29.8125 304.188 29.6875 304.312 29.5625C304.438 29.4375 304.625 29.375 304.875 29.375C306.875 29.625 309.375 29.75 312.375 29.75H325.875C326 29.375 326.188 29 326.438 28.625C326.312 28.625 326.188 28.6875 326.062 28.8125C325.938 28.9375 325.875 28.9375 325.875 28.8125C324.5 28.9375 323.875 28.5 324 27.5V27.125H312.375ZM327 12.6875H308.625C308.625 12.9375 308.625 13.1875 308.625 13.4375C308.75 13.5625 308.812 13.625 308.812 13.625C311.188 14.625 312.625 15.3125 313.125 15.6875H323.25C324.125 14.4375 324.875 13.75 325.5 13.625C325.75 13.75 326.125 13.875 326.625 14C326.625 13.875 326.625 13.6875 326.625 13.4375C326.75 13.1875 326.875 12.9375 327 12.6875ZM297.375 10.0625H295.5C295.25 10.3125 295.125 10.75 295.125 11.375V29H297.375V10.0625ZM325.875 31.0625H321.562V35.5625H324.375C324.5 35.1875 324.688 34.875 324.938 34.625C324.812 34.5 324.875 34.1875 325.125 33.6875C325.25 33.3125 325.375 32.875 325.5 32.375C325.5 32 325.625 31.5625 325.875 31.0625ZM320.625 25.8125H324V21.875H320.625V25.8125ZM324 16.8125H320.625V20.75H324V16.8125ZM312.375 21.875V25.8125H315.375V21.875H312.375ZM312.375 17.5625V20.75H315.375V16.8125H312.938C312.562 16.9375 312.375 17.1875 312.375 17.5625ZM367.312 10.8125H374.062C375.312 8.5625 376.375 7.25 377.25 6.875C378.375 7.125 380.125 8.4375 382.5 10.8125C383.125 11.9375 382.938 12.5625 381.938 12.6875C380.188 12.5625 378.312 12.5 376.312 12.5C374.688 12.375 372.25 12.3125 369 12.3125H367.5C367.5 14.9375 367.688 17.4375 368.062 19.8125C368.312 22.0625 368.688 24.0625 369.188 25.8125C369.312 25.6875 369.5 25.375 369.75 24.875C370.875 22 371.625 19.1875 372 16.4375C372 15.4375 372.688 15.125 374.062 15.5C376.688 16.25 379.062 17.125 381.188 18.125C381.812 18.875 381.625 19.5 380.625 20C379.875 20.25 379.375 20.8125 379.125 21.6875C376.875 26.5625 374.5 30.5 372 33.5C373.125 35.5 374.375 36.9375 375.75 37.8125C376.625 38.3125 377.25 38.25 377.625 37.625C378.5 36.25 379.438 34.4375 380.438 32.1875C380.562 31.5625 380.75 31.25 381 31.25C381.375 31.25 381.562 31.5 381.562 32C381.562 32.5 381.5 33.5 381.375 35C381.375 37 381.375 38.375 381.375 39.125C381.25 40.25 381.688 41.25 382.688 42.125C383.562 44.5 382.562 46.0625 379.688 46.8125C377.312 46.9375 374.875 46.125 372.375 44.375C370.25 43 368.375 41.125 366.75 38.75C362 42 355.938 44.3125 348.562 45.6875C347.438 45.8125 346.812 45.75 346.688 45.5C346.562 45.125 347.062 44.6875 348.188 44.1875C355.062 41.0625 360.375 37.4375 364.125 33.3125C361.875 27.3125 360.625 20.3125 360.375 12.3125H346.125C344.625 12.4375 342.375 12.625 339.375 12.875C339.25 12.875 339.125 12.9375 339 13.0625C338.75 13.0625 338.562 12.875 338.438 12.5C337.938 12 337.625 11.4375 337.5 10.8125C337.25 10.6875 337.125 10.5625 337.125 10.4375C337.25 10.3125 337.438 10.25 337.688 10.25C338.312 10.5 339.562 10.625 341.438 10.625C343.688 10.75 345.812 10.8125 347.812 10.8125H360.375C360.375 10.4375 360.312 9.875 360.188 9.125C360.062 8.5 360.062 7.9375 360.188 7.4375C360.062 6.0625 359.938 4.3125 359.812 2.1875C359.438 1.1875 359.875 0.6875 361.125 0.6875C362.125 0.8125 363.688 1.0625 365.812 1.4375C366.188 1.5625 366.688 1.625 367.312 1.625C367.938 1.75 368.312 2.1875 368.438 2.9375C368.438 2.8125 368.625 2.75 369 2.75C371.25 2.5 373.188 2.8125 374.812 3.6875C376.562 5.1875 376.625 6.875 375 8.75C372.875 10.125 371.438 9.8125 370.688 7.8125C370.062 6.0625 369.375 4.6875 368.625 3.6875C368.625 3.6875 368.562 3.625 368.438 3.5C368.312 3.5 368.312 3.4375 368.438 3.3125C368.312 3.4375 368.125 3.5625 367.875 3.6875C367.375 3.9375 367.188 4.5625 367.312 5.5625C367.312 7.4375 367.312 9.1875 367.312 10.8125ZM340.875 25.25V22.0625C340.75 20.3125 340.625 18.75 340.5 17.375C340.25 16.125 340.75 15.625 342 15.875C342.125 16 342.375 16.125 342.75 16.25C344.625 16.75 346.062 17.125 347.062 17.375C347.562 17.625 347.812 17.8125 347.812 17.9375H351.375C352.25 16.4375 353 15.625 353.625 15.5C355.25 15.75 357.188 16.6875 359.438 18.3125C360.062 19.1875 360.125 19.8125 359.625 20.1875C359 20.6875 358.75 21.1875 358.875 21.6875V30.3125C358.875 31.3125 358.562 31.9375 357.938 32.1875C356.312 32.5625 355.125 32.75 354.375 32.75C352.75 32.875 352.062 32.5 352.312 31.625V29.5625H347.25V31.625C347.25 32.75 346.812 33.4375 345.938 33.6875C345.188 34.0625 343.812 34.1875 341.812 34.0625C340.812 34.4375 340.375 34.125 340.5 33.125C340.625 31.5 340.75 28.875 340.875 25.25ZM342.188 43.625C341.438 43.875 340.938 44.125 340.688 44.375C340.188 44.875 339.75 45.0625 339.375 44.9375C339.125 44.8125 338.875 44.4375 338.625 43.8125C337.625 41.4375 337 39.5 336.75 38C336.375 37.25 336.875 36.8125 338.25 36.6875C342.875 36.3125 350.5 35.1875 361.125 33.3125C361.875 33.1875 362.312 33.3125 362.438 33.6875C362.438 34.0625 362.125 34.375 361.5 34.625C358.25 36.375 352.625 38.9375 344.625 42.3125C343.5 42.9375 342.688 43.375 342.188 43.625ZM352.312 19.4375H347.25V28.0625H352.312V19.4375ZM404.25 38.375V25.25H393.562C390.812 25.375 388.438 25.5 386.438 25.625C385.938 25.75 385.625 25.625 385.5 25.25C385.125 24.875 384.75 24.375 384.375 23.75C384.125 23.375 384.25 23.25 384.75 23.375C385.5 23.5 387 23.625 389.25 23.75C391.625 23.75 393.625 23.75 395.25 23.75H420.938C422.938 20.75 424.25 19.25 424.875 19.25C426.25 19.75 428.25 21.25 430.875 23.75C431.125 24.25 431.188 24.6875 431.062 25.0625C430.938 25.3125 430.688 25.4375 430.312 25.4375C429.938 25.4375 428.938 25.4375 427.312 25.4375C424.312 25.4375 420.75 25.375 416.625 25.25H411.562V31.4375H416.812C418.562 28.6875 419.688 27.3125 420.188 27.3125C421.062 27.4375 422.875 28.8125 425.625 31.4375C426 31.9375 426.125 32.375 426 32.75C426 33 425.75 33.125 425.25 33.125C424.875 33.125 424.375 33.125 423.75 33.125C418.875 32.875 415.062 32.75 412.312 32.75H411.562V39.5C414.812 39.75 418.125 39.875 421.5 39.875C424.875 39.75 427.75 39.5 430.125 39.125C430.875 39.125 431.312 39.3125 431.438 39.6875C431.688 40.1875 431.5 40.625 430.875 41C429.25 42 428.25 43.4375 427.875 45.3125C427.75 46.3125 426.938 46.8125 425.438 46.8125C417.938 46.8125 412.125 46.375 408 45.5C404 44.625 400.5 41.875 397.5 37.25C394.25 41.125 390.188 44.0625 385.312 46.0625C384.688 46.3125 384.312 46.375 384.188 46.25C384.062 46 384.25 45.6875 384.75 45.3125C388.25 41.5625 390.688 37.75 392.062 33.875C392.688 31.75 393.125 29.4375 393.375 26.9375C393.375 26.0625 393.812 25.75 394.688 26C396.938 26.375 399.562 26.9375 402.562 27.6875C403.562 28.4375 403.562 29.125 402.562 29.75C401.562 30 401 30.375 400.875 30.875C400.25 32.25 399.625 33.5 399 34.625C400 36.375 401.75 37.625 404.25 38.375ZM413.812 20.5625V18.6875H401.625V19.8125C401.5 20.8125 401 21.4375 400.125 21.6875C399 22.1875 397.625 22.4375 396 22.4375C394.25 22.6875 393.625 22 394.125 20.375C394.25 18.375 394.312 14.0625 394.312 7.4375C394.312 5.8125 394.25 4.6875 394.125 4.0625C394.125 3.4375 394.125 2.875 394.125 2.375C393.875 1.75 393.875 1.375 394.125 1.25C394.375 1 394.938 0.9375 395.812 1.0625C398.438 1.5625 400.562 2.1875 402.188 2.9375C402.312 2.9375 402.438 3 402.562 3.125H413.625C414.75 1.625 415.625 0.8125 416.25 0.6875C418.875 1.8125 421.062 3.1875 422.812 4.8125C422.938 5.6875 422.688 6.1875 422.062 6.3125C421.438 6.8125 421.125 7.3125 421.125 7.8125C421 8.3125 420.938 9.875 420.938 12.5C421.062 15.375 421.188 17.375 421.312 18.5C421.312 19.75 420.812 20.625 419.812 21.125C419.188 21.375 418 21.625 416.25 21.875C416.125 21.875 416.062 21.875 416.062 21.875C414.438 22 413.688 21.5625 413.812 20.5625ZM401.625 5.75V10.25H413.812V4.4375H402.375C401.75 4.6875 401.5 5.125 401.625 5.75ZM401.625 11.75V17.375H413.812V11.75H401.625ZM433.875 25.0625V17.9375C433.875 15.5625 433.812 13.75 433.688 12.5C433.688 11 433.625 9.625 433.5 8.375C433.25 7.25 433.75 6.8125 435 7.0625C436.875 7.4375 438.875 8 441 8.75C441.25 9 441.5 9.25 441.75 9.5H443.25C444.375 7.5 445.312 6.4375 446.062 6.3125C447.188 6.4375 449 7.4375 451.5 9.3125C452.375 10.1875 452.438 11 451.688 11.75C451.562 11.875 451.5 12 451.5 12.125C451 12.625 450.812 13.125 450.938 13.625V20C452.812 20.25 454.562 20.375 456.188 20.375H458.812V10.8125C458.688 9.0625 458.625 7.4375 458.625 5.9375C458.5 4.4375 458.375 3.375 458.25 2.75C457.875 1.375 458.375 0.75 459.75 0.875C460.25 1 460.875 1.125 461.625 1.25C464 1.625 465.688 1.9375 466.688 2.1875C467.812 2.6875 467.938 3.4375 467.062 4.4375C466.438 4.9375 466.188 5.4375 466.312 5.9375V20.375H468.375C470 17.75 471.125 16.375 471.75 16.25C473 16.5 474.875 17.8125 477.375 20.1875C478 21.0625 477.875 21.625 477 21.875H466.312V41.75H469.312C470.812 39.25 472.062 37.8125 473.062 37.4375C474.188 37.6875 476.312 39.0625 479.438 41.5625C479.688 42.5625 479.438 43.1875 478.688 43.4375C476.688 43.1875 473.125 43.125 468 43.25H449.062C447.688 43.125 446.75 43.1875 446.25 43.4375C445.75 43.5625 445.438 43.5 445.312 43.25C444.938 42.625 444.562 42.1875 444.188 41.9375C443.938 41.5625 443.875 41.375 444 41.375C444 41.25 444.188 41.25 444.562 41.375C446.438 41.5 448.25 41.625 450 41.75H458.812V21.875H455.438C454.312 22 453.312 22.125 452.438 22.25C451.938 22.375 451.625 22.25 451.5 21.875C451.375 21.875 451.25 21.75 451.125 21.5C451 21.375 450.938 21.25 450.938 21.125C450.812 22.375 451 26.1875 451.5 32.5625C451.5 34.1875 451 35.125 450 35.375C448.75 36 447.562 36.375 446.438 36.5C444.812 36.875 444.125 36.125 444.375 34.25V32.375H440.625V34.625C440.625 36.75 440 37.875 438.75 38C437.75 38.375 436.625 38.625 435.375 38.75C433.625 39.375 432.938 38.3125 433.312 35.5625C433.438 34.1875 433.562 32.5625 433.688 30.6875C433.688 28.6875 433.75 26.8125 433.875 25.0625ZM444.375 10.8125H441.188C440.688 11.1875 440.5 11.625 440.625 12.125V30.875H444.375V10.8125ZM522.188 29.5625L524.438 30.5C524.812 30.875 525 31.25 525 31.625C524.875 32.125 524.562 32.375 524.062 32.375C523.188 32.5 522.562 32.625 522.188 32.75C520.438 34 518.438 35.0625 516.188 35.9375C518.938 38.6875 522.5 40.375 526.875 41C527.375 41 527.625 41.1875 527.625 41.5625C527.75 41.9375 527.625 42.3125 527.25 42.6875C525.75 43.5625 524.438 45 523.312 47C522.938 47.625 522.312 47.75 521.438 47.375C515.812 44.625 512.5 40.1875 511.5 34.0625C509.875 41.0625 503.312 45.5625 491.812 47.5625C491.188 47.5625 490.812 47.4375 490.688 47.1875C490.688 46.9375 490.938 46.6875 491.438 46.4375C500.312 42.4375 504.938 37.4375 505.312 31.4375C505.312 29.1875 505.25 27.5 505.125 26.375C503 27.625 500.125 28.6875 496.5 29.5625C495.75 29.9375 495.312 30 495.188 29.75C495.062 29.375 495.312 28.9375 495.938 28.4375C502.688 24.3125 505.812 19.25 505.312 13.25C505.312 13 505.188 12.5 504.938 11.75C504.938 11.5 504.938 11.25 504.938 11C504.688 10.625 504.688 10.3125 504.938 10.0625C505.188 9.9375 505.688 9.875 506.438 9.875C507.688 9.875 509.438 10.0625 511.688 10.4375C512.188 10.5625 512.75 10.625 513.375 10.625C514.5 11.375 514.562 12.125 513.562 12.875C512.688 13.25 512.312 13.8125 512.438 14.5625C512.312 15.0625 512.188 15.6875 512.062 16.4375C511.938 16.9375 511.75 17.75 511.5 18.875C511.5 19 511.562 19.0625 511.688 19.0625C512.188 19.1875 512.812 19.25 513.562 19.25C515.562 16.875 516.75 14.625 517.125 12.5C517.125 11.875 517.625 11.6875 518.625 11.9375C519.375 12.3125 520.438 12.8125 521.812 13.4375C522.688 13.8125 523.438 14.0625 524.062 14.1875C524.438 14.5625 524.562 14.9375 524.438 15.3125C524.312 15.6875 524.062 15.875 523.688 15.875C522.938 16.125 522.375 16.375 522 16.625C520.375 17.625 518.562 18.6875 516.562 19.8125C518.562 20.3125 520.188 20.8125 521.438 21.3125C524.812 23.4375 525.688 25.8125 524.062 28.4375C523.438 29.0625 522.812 29.4375 522.188 29.5625ZM515.25 9.3125H496.688C496.438 9.5625 496.375 9.625 496.5 9.5C495.75 9.875 495.438 10.3125 495.562 10.8125V22.8125C495.812 33.0625 491.312 40.75 482.062 45.875C481.312 46.25 480.812 46.375 480.562 46.25C480.438 46 480.625 45.625 481.125 45.125C485.625 39.75 488.062 33.5625 488.438 26.5625C487.688 27.5625 486.625 28.75 485.25 30.125C485 30.375 484.75 30.6875 484.5 31.0625C484.375 31.3125 484.312 31.4375 484.312 31.4375C483.688 32.5625 483 32.5625 482.25 31.4375C481.375 29.5625 480.75 27.8125 480.375 26.1875C480.25 25.3125 480.5 24.8125 481.125 24.6875C483.5 24.3125 486 23.5625 488.625 22.4375V16.25C488.5 12.625 488.25 9.6875 487.875 7.4375C487.625 6.6875 487.625 6.25 487.875 6.125C488 5.875 488.5 5.75 489.375 5.75C491.625 6.25 493.812 6.875 495.938 7.625C496.188 7.75 496.438 7.875 496.688 8H505.5C504.875 7.625 504.625 7.0625 504.75 6.3125C504.75 4.1875 504.125 2.5625 502.875 1.4375C502.5 1.1875 502.312 1 502.312 0.875C502.438 0.625 502.75 0.4375 503.25 0.3125C507.75 0.3125 510.625 1.4375 511.875 3.6875C512.375 5.5625 511.812 7 510.188 8H517.125C518.75 5.125 520 3.5625 520.875 3.3125C522.875 4.1875 524.938 5.75 527.062 8C527.438 8.875 527.188 9.375 526.312 9.5C525.312 9.5 523.938 9.5 522.188 9.5C520.562 9.375 518.25 9.3125 515.25 9.3125ZM482.062 17.9375C482.062 15.4375 481.688 13.3125 480.938 11.5625C480.688 11.3125 480.625 11.125 480.75 11C480.875 10.875 481.188 10.8125 481.688 10.8125C485.688 12.1875 487.938 14.0625 488.438 16.4375C488.438 19.0625 487.312 20.5625 485.062 20.9375C483.188 21.1875 482.188 20.1875 482.062 17.9375ZM519 28.0625C516.5 24.8125 513.75 22.375 510.75 20.75C510.125 22.25 509.125 23.5625 507.75 24.6875C508.625 24.8125 510 25.0625 511.875 25.4375C512.375 25.5625 513 25.625 513.75 25.625C514.875 26.375 514.875 27.125 513.75 27.875C513.125 28.125 512.75 28.6875 512.625 29.5625C512.625 29.8125 512.562 30.0625 512.438 30.3125C512.312 30.5625 512.312 30.75 512.438 30.875C512.938 32.125 513.625 33.1875 514.5 34.0625C516.125 32.3125 517.125 30.4375 517.5 28.4375C517.75 27.9375 518.25 27.8125 519 28.0625ZM497.062 18.3125C498.812 17.1875 500 15.3125 500.625 12.6875C500.625 12.4375 500.688 12.3125 500.812 12.3125C501.062 12.1875 501.312 12.25 501.562 12.5C503.062 14.875 503.562 17.4375 503.062 20.1875C502.312 22.0625 500.938 22.875 498.938 22.625C496.438 22 495.812 20.5625 497.062 18.3125ZM496.5 34.4375C498.375 33.5625 499.688 31.75 500.438 29C500.438 28.75 500.562 28.625 500.812 28.625C500.938 28.5 501.125 28.5625 501.375 28.8125C502.75 31.5625 503.125 34.125 502.5 36.5C501.625 38.5 500.188 39.3125 498.188 38.9375C495.812 38.3125 495.25 36.8125 496.5 34.4375ZM550.875 28.0625H549.188C549.062 28.0625 548.812 28.125 548.438 28.25C547.938 28.25 547.562 28.25 547.312 28.25C547.188 29.25 547.188 30.75 547.312 32.75C547.438 34.75 547.5 36.1875 547.5 37.0625C547.625 38.5625 547.312 39.25 546.562 39.125C545.188 39.625 543.875 39.875 542.625 39.875C541.125 40.25 540.438 39.625 540.562 38V36.3125H537V38.9375C537.125 40.6875 536.5 41.6875 535.125 41.9375C533.875 42.0625 532.812 42.1875 531.938 42.3125C530.312 42.5625 529.625 42.0625 529.875 40.8125C530.25 36.5625 530.438 32.8125 530.438 29.5625V16.25C530.438 13 530.25 9.75 529.875 6.5C529.875 5.25 530.375 4.8125 531.375 5.1875C533.625 5.6875 535.688 6.375 537.562 7.25C537.812 7.375 538.062 7.5 538.312 7.625H540.188C540.938 6.125 541.688 5.375 542.438 5.375C543.188 5.375 544.938 6.3125 547.688 8.1875C548.938 9.3125 549 10.1875 547.875 10.8125C547.5 10.9375 547.312 11.4375 547.312 12.3125V18.875C548.438 18.875 550 18.875 552 18.875H555.75V11.375H553.688C552.812 11.5 551.938 11.625 551.062 11.75C550.812 11.875 550.5 11.875 550.125 11.75C550.125 11.75 550.125 11.6875 550.125 11.5625C549.625 11.1875 549.312 10.75 549.188 10.25C548.938 9.875 549.062 9.6875 549.562 9.6875C550.688 9.9375 552.438 10.0625 554.812 10.0625H555.75C555.5 6.4375 555.312 4.0625 555.188 2.9375C554.812 1.8125 555.312 1.25 556.688 1.25C558.812 1.5 560.875 1.8125 562.875 2.1875C563.5 2.4375 563.875 2.8125 564 3.3125C564.125 3.6875 563.938 4.0625 563.438 4.4375C562.812 4.9375 562.562 5.4375 562.688 5.9375V10.0625H564.562C565.938 7.4375 566.938 6.125 567.562 6.125C569.188 6.875 570.812 8.1875 572.438 10.0625C572.688 10.4375 572.75 10.75 572.625 11C572.5 11.25 572.25 11.375 571.875 11.375H562.688V18.875H566.25C567.625 16.625 568.625 15.4375 569.25 15.3125C570.25 15.5625 572.062 16.75 574.688 18.875C575.062 19.75 574.875 20.25 574.125 20.375H569.625C569.5 21 569.25 21.375 568.875 21.5C568.375 21.875 568.188 22.375 568.312 23V26.5625C569.188 24.6875 569.938 23.6875 570.562 23.5625C571.438 23.8125 572.875 24.75 574.875 26.375C575.125 26.75 575.25 27.0625 575.25 27.3125C575.125 27.8125 574.812 28.0625 574.312 28.0625H568.312V29.375C568.188 35 568.25 38.75 568.5 40.625C568.75 43.25 568.062 44.9375 566.438 45.6875C565.188 46.1875 563.625 46.6875 561.75 47.1875C560.25 47.5625 559.375 47.1875 559.125 46.0625C558.75 44.0625 557.312 42.6875 554.812 41.9375C553.812 41.5625 553.375 41.25 553.5 41C553.375 40.75 554 40.625 555.375 40.625C559.625 40.875 561.5 39.875 561 37.625V28.0625H552.562C555.062 29.0625 557 30.4375 558.375 32.1875C559.375 34.8125 559 36.6875 557.25 37.8125C554.25 39.0625 552.625 38.25 552.375 35.375C552.25 32.75 551.75 30.5625 550.875 28.8125C550.875 28.8125 550.812 28.75 550.688 28.625C550.688 28.375 550.75 28.1875 550.875 28.0625ZM550.312 26.5625H561C561 23.3125 560.938 21.25 560.812 20.375H551.062C550.188 20.5 549.25 20.625 548.25 20.75C547.875 20.875 547.562 20.8125 547.312 20.5625V26.5625C548.188 26.5625 549.188 26.5625 550.312 26.5625ZM537 22.625V35H540.562V22.625H537ZM540.562 9.125H537.562C537.188 9.375 537 9.75 537 10.25V21.3125H540.562V9.125ZM586.5 47.9375L584.625 46.4375C584.75 46.1875 584.875 45.9375 585 45.6875C587.5 42.9375 588.875 40.75 589.125 39.125C588.875 39.125 588.688 39.125 588.562 39.125C588.438 39.25 588.312 39.3125 588.188 39.3125C585.688 39.1875 584.375 37.8125 584.25 35.1875C584.375 32.8125 585.688 31.5 588.188 31.25C590.688 31.5 592.062 33.25 592.312 36.5C592.312 39.5 590.375 43.3125 586.5 47.9375ZM658.688 19.625V23.1875C658.688 22.8125 659.062 22.8125 659.812 23.1875C664.688 25.0625 668.188 28.0625 670.312 32.1875C671.062 35.6875 670.125 38 667.5 39.125C664.875 39.625 663.312 38.125 662.812 34.625C662.312 31.125 661.062 27.625 659.062 24.125C658.812 24 658.688 23.8125 658.688 23.5625V25.8125C658.562 32.6875 658.625 37.625 658.875 40.625C659.125 42.875 658.438 44.5 656.812 45.5C654.938 46.5 653.062 47.125 651.188 47.375C649.562 47.625 648.688 47.25 648.562 46.25C648.188 44.125 647.125 42.8125 645.375 42.3125C644.375 41.9375 643.938 41.5625 644.062 41.1875C643.938 41.0625 644.562 41 645.938 41C649.938 41.625 651.75 40.375 651.375 37.25V24.875C651.375 25.125 651.188 25.25 650.812 25.25C650.188 25.5 649.875 25.875 649.875 26.375C647.875 32.625 644.438 37.3125 639.562 40.4375C638.938 40.8125 638.562 40.9375 638.438 40.8125C638.312 40.6875 638.438 40.3125 638.812 39.6875C640.562 35.6875 641.812 32.0625 642.562 28.8125C642.562 28.6875 642.562 28.375 642.562 27.875C642.938 26.5 643.188 25 643.312 23.375C643.438 22.375 643.938 21.9375 644.812 22.0625C646.688 22.3125 648.688 22.8125 650.812 23.5625C651.188 23.9375 651.375 24.125 651.375 24.125V23.5625C651.25 22.0625 651.188 20.625 651.188 19.25C651.062 17.875 650.938 16.875 650.812 16.25C650.438 14.875 650.938 14.3125 652.312 14.5625C654.062 14.8125 656.312 15.1875 659.062 15.6875C660.312 16.4375 660.5 17.1875 659.625 17.9375C658.875 18.3125 658.562 18.875 658.688 19.625ZM637.5 18.125V35.75C637.375 39.25 637.438 41.75 637.688 43.25C637.938 44.875 637.375 45.9375 636 46.4375C634.75 46.8125 633.438 47.125 632.062 47.375C629.938 48 629.188 46.875 629.812 44C629.812 43.375 629.812 42.4375 629.812 41.1875C630.188 35.6875 630.375 31.5625 630.375 28.8125V22.625C628.625 24.75 626.875 26.4375 625.125 27.6875C624.75 28.0625 624.5 28.125 624.375 27.875C624.25 27.625 624.312 27.25 624.562 26.75C627.562 20.75 629.938 14.5625 631.688 8.1875C632.312 6.4375 632.75 4.1875 633 1.4375C632.875 0.6875 633.375 0.3125 634.5 0.3125C636 0.6875 638.5 1.4375 642 2.5625C642.75 3.3125 642.75 4.0625 642 4.8125C641.125 5.1875 640.625 5.5625 640.5 5.9375C638.875 9.1875 637.438 12 636.188 14.375C636.312 14.375 636.562 14.4375 636.938 14.5625C637.312 14.5625 637.562 14.5625 637.688 14.5625C638.562 15.1875 638.688 15.8125 638.062 16.4375C637.562 16.8125 637.375 17.375 637.5 18.125ZM660.938 17.375L662.25 12.875H649.875C647.125 17.25 643.625 20.8125 639.375 23.5625C639 23.8125 638.75 23.8125 638.625 23.5625C638.5 23.4375 638.562 23.125 638.812 22.625C642.062 17.625 644.375 12.4375 645.75 7.0625C646 6.0625 646.188 5.125 646.312 4.25C646.562 3.25 646.688 2.3125 646.688 1.4375C646.688 0.5625 647.188 0.25 648.188 0.5C649.312 0.625 651.25 1.125 654 2C654.25 2.125 654.562 2.1875 654.938 2.1875C655.312 2.4375 655.562 2.8125 655.688 3.3125C655.562 3.8125 655.312 4.0625 654.938 4.0625C654.062 4.4375 653.562 4.9375 653.438 5.5625C652.562 7.6875 651.688 9.625 650.812 11.375H661.312C662.188 9.375 663.125 8.1875 664.125 7.8125C666 8.1875 668.188 9.625 670.688 12.125C671.312 12.75 671.562 13.4375 671.438 14.1875C671.312 14.9375 670.688 15.3125 669.562 15.3125C666.562 15.0625 664.062 16 662.062 18.125C661.562 18.5 661.188 18.625 660.938 18.5C660.812 18.375 660.812 18 660.938 17.375ZM691.688 27.6875V24.125C686.312 29.5 680.438 33.625 674.062 36.5C673.562 36.75 673.25 36.75 673.125 36.5C673 36.125 673.125 35.75 673.5 35.375C682.5 26.875 688.938 17.6875 692.812 7.8125H682.875C681.5 7.9375 680.062 8 678.562 8C677.188 8.125 676.188 8.25 675.562 8.375C675.188 8.5 674.875 8.3125 674.625 7.8125C674.375 7.5625 674.125 7.125 673.875 6.5C673.625 6.375 673.5 6.25 673.5 6.125C673.5 6 673.688 5.9375 674.062 5.9375C675.062 6.1875 676.75 6.375 679.125 6.5C681.125 6.5 682.938 6.5 684.562 6.5H707.25C709.125 3 710.5 1.125 711.375 0.875C713.375 1.875 715.688 3.8125 718.312 6.6875C718.562 7.1875 718.688 7.625 718.688 8C718.562 8.25 718.312 8.3125 717.938 8.1875C713.438 8.0625 708.938 7.9375 704.438 7.8125H697.312C700.062 9.1875 701.75 9.9375 702.375 10.0625C702.875 10.5625 703.125 11.0625 703.125 11.5625C702.875 12.0625 702.438 12.3125 701.812 12.3125C700.938 12.3125 700.25 12.6875 699.75 13.4375C699.5 13.9375 699.188 14.5 698.812 15.125C698.688 15.375 698.562 15.625 698.438 15.875C698.562 16 698.75 16.0625 699 16.0625C699.125 16.1875 699.312 16.25 699.562 16.25C700.062 16.375 700.375 16.6875 700.5 17.1875C700.5 17.5625 700.25 17.875 699.75 18.125C699.25 18.5 699.062 19.0625 699.188 19.8125V27.3125C699.062 34.5625 699.188 39.625 699.562 42.5C699.562 44.5 698.875 45.6875 697.5 46.0625C696.5 46.4375 695.188 46.75 693.562 47C691.312 47.625 690.5 46.4375 691.125 43.4375C691.25 41.8125 691.375 39.6875 691.5 37.0625C691.5 33.9375 691.562 30.8125 691.688 27.6875ZM709.688 33.3125C708.062 29.3125 705.062 25.3125 700.688 21.3125C700.312 21.0625 700.125 20.8125 700.125 20.5625C700.25 20.3125 700.562 20.25 701.062 20.375C707.562 22 712.562 24.6875 716.062 28.4375C717.562 31.0625 717.312 33.3125 715.312 35.1875C712.812 36.4375 710.938 35.8125 709.688 33.3125ZM751.125 15.5H731.812C731.438 15.625 731.062 15.75 730.688 15.875C730.188 16.125 729.812 16.25 729.562 16.25C731.062 16.75 732.5 17.25 733.875 17.75H751.688C752.688 16.125 753.5 15.3125 754.125 15.3125C757.375 16.4375 759.688 17.75 761.062 19.25C761.062 19.875 760.75 20.3125 760.125 20.5625C759.625 20.9375 759.438 21.4375 759.562 22.0625C759.438 23.6875 759.5 25.125 759.75 26.375C759.75 27 759.812 27.5 759.938 27.875C759.938 29.125 759.562 29.875 758.812 30.125C758.062 30.625 756.938 31 755.438 31.25C757.312 32 758.688 32.8125 759.562 33.6875C759.438 34.4375 759.125 34.9375 758.625 35.1875C758.125 35.4375 757.938 35.8125 758.062 36.3125C757.938 39.8125 758 42.25 758.25 43.625C758.375 45.25 757.875 46.125 756.75 46.25C755 46.625 753.375 46.875 751.875 47C750.625 47.125 750.062 46.625 750.188 45.5V44.1875H735.75V44.9375C735.75 45.8125 735.438 46.3125 734.812 46.4375C733.438 46.8125 731.875 47.0625 730.125 47.1875C728.375 47.4375 727.75 46.75 728.25 45.125C728.25 44.75 728.25 43.8125 728.25 42.3125C728.375 40.3125 728.438 38.875 728.438 38C728.438 37.25 728.375 35.9375 728.25 34.0625C728.25 33.0625 728.25 32.375 728.25 32C728 31.75 727.938 31.5 728.062 31.25C727.812 31.25 727.688 31.25 727.688 31.25C726.188 31.5 725.562 30.8125 725.812 29.1875C725.812 28.9375 725.812 28.5625 725.812 28.0625C726.062 25.5625 726.188 23.5625 726.188 22.0625C726.188 20.4375 726.125 19.4375 726 19.0625C726 18.4375 726 17.9375 726 17.5625C725.375 17.8125 724.625 18 723.75 18.125C722.875 18.375 722.188 18.5625 721.688 18.6875C721.062 18.8125 720.625 18.75 720.375 18.5C720.375 18.25 720.625 17.9375 721.125 17.5625C729.75 12.8125 735.062 7.625 737.062 2C737.188 1 737.875 0.5625 739.125 0.6875C741.25 1.0625 743.812 1.75 746.812 2.75C747.438 3.125 747.75 3.625 747.75 4.25C747.75 4.75 747.438 5.0625 746.812 5.1875C746.688 5.1875 746.562 5.25 746.438 5.375C746.312 5.5 746.188 5.5 746.062 5.375C752.562 9.625 759.375 11.1875 766.5 10.0625C767.125 10.1875 767.5 10.4375 767.625 10.8125C767.75 11.3125 767.5 11.6875 766.875 11.9375C765.25 13.0625 764.062 14.75 763.312 17C763.188 18 762.375 18.1875 760.875 17.5625C754.125 15.5625 748.812 11.8125 744.938 6.3125C744.688 6.4375 744.438 6.625 744.188 6.875C744.188 7 744.188 7.0625 744.188 7.0625C742.062 9.6875 739 12 735 14H744.188C745.312 12 746.375 10.875 747.375 10.625C748.125 10.75 749.438 11.75 751.312 13.625C751.688 14.125 751.875 14.5625 751.875 14.9375C751.875 15.3125 751.625 15.5 751.125 15.5ZM736.688 32.375H749.438C750.188 30.875 750.938 30.0625 751.688 29.9375C751.938 29.9375 752.188 29.9375 752.438 29.9375V29H733.125C732.875 29.75 732.438 30.1875 731.812 30.3125C731.438 30.5625 731.062 30.6875 730.688 30.6875C732.562 31.3125 734.375 31.75 736.125 32C736.125 32.125 736.188 32.1875 736.312 32.1875C736.438 32.3125 736.562 32.375 736.688 32.375ZM735.75 39.125V42.6875H750.188V39.125H735.75ZM750.188 33.875H736.125C735.875 34.125 735.75 34.5 735.75 35V37.8125H750.188V33.875ZM752.438 20.9375V19.25H746.25V27.6875H746.438C746.312 27.5625 746.375 27.3125 746.625 26.9375C746.875 25.8125 747.062 24.75 747.188 23.75C747.312 22.75 747.375 21.75 747.375 20.75C747.25 20.125 747.625 19.875 748.5 20C749.75 20.25 751.062 20.5625 752.438 20.9375ZM733.125 20.5625V27.6875H739.5V25.0625C739.25 26.0625 738.562 26.6875 737.438 26.9375C735.312 27.5625 734.25 26.75 734.25 24.5C734.25 23.375 733.875 22.0625 733.125 20.5625ZM747.75 27.6875H752.438V23C751.938 23.25 751.625 23.5 751.5 23.75C750.75 24.875 749.5 26.1875 747.75 27.6875ZM739.5 23.75V19.25H734.25C733.625 19.25 733.25 19.4375 733.125 19.8125C733.25 19.8125 733.375 19.8125 733.5 19.8125C736.375 20.3125 738.312 21.375 739.312 23C739.312 23.25 739.312 23.4375 739.312 23.5625C739.312 23.6875 739.375 23.75 739.5 23.75ZM792.562 9.5H804.75C806.75 6.5 808 4.9375 808.5 4.8125C810.75 5.6875 812.938 7.3125 815.062 9.6875C815.312 10.0625 815.438 10.4375 815.438 10.8125C815.312 11.0625 815.062 11.1875 814.688 11.1875C812.938 11.1875 811.125 11.1875 809.25 11.1875C807.625 11.0625 805.188 11 801.938 11H791.812C790.688 13.625 789.375 15.9375 787.875 17.9375H799.125C800.125 16.1875 800.938 15.25 801.562 15.125C804.688 16.25 807.188 17.75 809.062 19.625C808.938 20.125 808.625 20.625 808.125 21.125C807.5 21.375 807.25 21.875 807.375 22.625V41.75C807.5 43.875 806.375 45.3125 804 46.0625C802.625 46.5625 801.125 47 799.5 47.375C797.875 47.75 797.125 47.4375 797.25 46.4375C797 44.4375 795.75 43 793.5 42.125C792.75 41.75 792.438 41.4375 792.562 41.1875C792.438 41.0625 792.875 41 793.875 41C794 41 794.188 41 794.438 41C795.812 41.125 797 41.25 798 41.375C799.25 41.375 799.875 40.625 799.875 39.125V33.5H788.625V44.375C788.625 45.625 788.125 46.375 787.125 46.625C786.375 46.75 785.562 46.875 784.688 47C783.812 47 783 47.0625 782.25 47.1875C781.125 47.1875 780.688 46.625 780.938 45.5C781.312 43.25 781.562 39.8125 781.688 35.1875V25.4375C778.312 28.3125 774.625 30.625 770.625 32.375C770.125 32.625 769.75 32.625 769.5 32.375C769.25 32 769.375 31.5625 769.875 31.0625C776.125 25.4375 780.688 18.75 783.562 11H778.125C776.875 11.125 775.562 11.1875 774.188 11.1875C773.062 11.3125 772.188 11.4375 771.562 11.5625C771.188 11.6875 770.875 11.5625 770.625 11.1875C770.375 11.0625 770.188 10.8125 770.062 10.4375C769.812 10.1875 769.625 9.9375 769.5 9.6875C769.375 9.4375 769.312 9.3125 769.312 9.3125C769.312 9.1875 769.5 9.125 769.875 9.125C772.375 9.375 775.688 9.5 779.812 9.5H784.125C785.125 6.375 785.812 3.8125 786.188 1.8125C786.188 0.8125 786.75 0.4375 787.875 0.6875C791.75 1.6875 794.5 2.375 796.125 2.75C796.625 3 796.875 3.375 796.875 3.875C796.75 4.5 796.438 4.8125 795.938 4.8125C795.812 4.9375 795.688 5 795.562 5C794.688 5.375 794.125 5.9375 793.875 6.6875C793.625 7.0625 793.375 7.5625 793.125 8.1875C792.875 8.8125 792.688 9.25 792.562 9.5ZM788.625 26.375V32.1875H799.875V26.375H788.625ZM788.625 20.5625V25.0625H799.875V19.4375H788.812C788.562 19.6875 788.5 20.0625 788.625 20.5625ZM823.312 22.8125V14.1875H821.062C819.562 14.1875 818.562 14.25 818.062 14.375C817.688 14.625 817.375 14.5625 817.125 14.1875C817 14.0625 816.875 13.875 816.75 13.625C816.5 13.375 816.375 13.125 816.375 12.875C816.25 12.75 816.188 12.625 816.188 12.5C816.312 12.375 816.5 12.3125 816.75 12.3125C818.375 12.5625 820.062 12.6875 821.812 12.6875H823.312V10.625C823.188 9.625 823.125 8.3125 823.125 6.6875C823 4.9375 822.875 3.5625 822.75 2.5625C822.25 1.3125 822.75 0.75 824.25 0.875C825 0.875 826.75 1.1875 829.5 1.8125C829.875 1.9375 830.312 2 830.812 2C832.188 2.75 832.312 3.5625 831.188 4.4375C830.438 4.6875 830.125 5.1875 830.25 5.9375V11.75C831.125 10.5 831.812 9.8125 832.312 9.6875C833.312 9.9375 834.75 11 836.625 12.875C836.75 13.375 836.75 13.75 836.625 14C836.875 14 837.312 14.0625 837.938 14.1875C838.938 14.1875 839.75 14.1875 840.375 14.1875L841.688 6.125H838.688C837.312 6.125 836.375 6.1875 835.875 6.3125C835.375 6.5625 835.062 6.5 834.938 6.125C834.812 6 834.688 5.8125 834.562 5.5625C834.312 5.3125 834.188 5.0625 834.188 4.8125C834.062 4.6875 834 4.5625 834 4.4375C834.125 4.3125 834.312 4.25 834.562 4.25C835.938 4.5 837.562 4.625 839.438 4.625H853.688C854.938 2.375 855.938 1.0625 856.688 0.6875C857.938 1.1875 859.625 2.5625 861.75 4.8125C862 5.6875 861.875 6.125 861.375 6.125H848.25L846.938 14.1875H849.75C850.625 12.6875 851.438 11.875 852.188 11.75C854.312 12.25 856.438 13.4375 858.562 15.3125C858.688 15.9375 858.438 16.375 857.812 16.625C857.188 16.875 856.875 17.375 856.875 18.125L856.125 23.5625C857.25 21.6875 858.062 20.8125 858.562 20.9375C860.188 21.6875 861.812 23.0625 863.438 25.0625C863.688 25.9375 863.562 26.375 863.062 26.375H835.688C834.438 26.375 833.562 26.4375 833.062 26.5625C832.562 26.6875 832.25 26.5625 832.125 26.1875C831.75 25.9375 831.5 25.5 831.375 24.875C831.125 24.625 831.25 24.5 831.75 24.5C833.125 24.75 834.75 24.875 836.625 24.875H838.5L840.188 15.5C839.188 15.75 838.312 15.875 837.562 15.875C837.188 16.125 836.938 16.0625 836.812 15.6875C836.688 15.6875 836.5 15.5625 836.25 15.3125C835.875 14.8125 835.625 14.4375 835.5 14.1875H830.25V20.9375C831.5 20.5625 832.688 20.1875 833.812 19.8125C834.438 19.6875 834.938 19.875 835.312 20.375C835.438 21 835.25 21.5 834.75 21.875C833.75 22.5 832.438 23.375 830.812 24.5C831.688 23.75 831.5 23.875 830.25 24.875C830.25 27.25 830.25 30 830.25 33.125C830.375 36.375 830.5 39 830.625 41C830.625 43.5 829.875 45.125 828.375 45.875C827.625 46.25 826.25 46.75 824.25 47.375C822.5 47.625 821.562 47.1875 821.438 46.0625C821.062 43.9375 819.938 42.5625 818.062 41.9375C817.062 41.4375 816.625 41.125 816.75 41C816.625 40.625 817.25 40.5 818.625 40.625C822 40.875 823.562 39.6875 823.312 37.0625V29.1875L821.625 29.9375C820.875 30.4375 820.5 30.8125 820.5 31.0625C820.25 31.6875 819.875 32 819.375 32C819 31.875 818.688 31.5 818.438 30.875C817.688 29.375 817.125 27.625 816.75 25.625C816.25 24.75 816.562 24.25 817.688 24.125C817.812 24.125 818.125 24.0625 818.625 23.9375C819.625 23.8125 821.188 23.4375 823.312 22.8125ZM835.5 36.125V33.3125C835.375 31.9375 835.25 30.5625 835.125 29.1875C834.75 28.0625 835.188 27.5625 836.438 27.6875C838.438 28.1875 840.5 28.75 842.625 29.375C842.875 29.625 843.125 29.8125 843.375 29.9375H850.312C851.312 28.3125 852.062 27.5625 852.562 27.6875C855.188 28.5625 857.5 29.8125 859.5 31.4375C859.375 32.0625 859.062 32.5 858.562 32.75C858.188 33.125 858.062 33.625 858.188 34.25C858.062 35.75 858 37.375 858 39.125C858 40.625 858.125 42.375 858.375 44.375C858.375 45.75 857.938 46.5625 857.062 46.8125C856.562 46.9375 855.125 47.1875 852.75 47.5625C851.25 47.5625 850.625 47.125 850.875 46.25V43.8125H842.438V44.75C842.438 45.875 841.875 46.5625 840.75 46.8125C839.375 47.0625 838 47.3125 836.625 47.5625C835.375 47.5625 834.875 46.8125 835.125 45.3125C835.25 42.8125 835.375 39.75 835.5 36.125ZM850.875 31.4375H842.625C842.375 31.6875 842.312 32.0625 842.438 32.5625V42.3125H850.875V31.4375ZM850.5 15.5H846.562L845.062 24.875H849.188L850.5 15.5ZM871.5 27.875V23C869.5 25.125 867.562 27.0625 865.688 28.8125C865.188 29.1875 864.875 29.25 864.75 29C864.625 28.75 864.688 28.375 864.938 27.875C867.938 22 870.188 16.1875 871.688 10.4375C872.312 7.3125 872.75 4.75 873 2.75C873.125 1.875 873.688 1.5 874.688 1.625C876.688 2.125 879.375 2.8125 882.75 3.6875C883.25 3.9375 883.5 4.375 883.5 5C883.375 5.625 883.062 5.9375 882.562 5.9375C881.688 6.3125 881.125 6.75 880.875 7.25C879.875 9.875 878.75 12.25 877.5 14.375C878 14.625 878.5 14.8125 879 14.9375C879.5 15.1875 879.812 15.5 879.938 15.875C879.938 16.25 879.75 16.5625 879.375 16.8125C878.75 17.1875 878.5 17.75 878.625 18.5V27.3125C878.625 29.6875 878.625 32.375 878.625 35.375C878.75 38.5 878.875 40.8125 879 42.3125C879.5 42.1875 880.438 42.1875 881.812 42.3125C883.062 42.4375 884 42.5 884.625 42.5H889.312V28.0625H887.25C884.375 28.0625 882.812 28.125 882.562 28.25C882.312 28.375 882 28.375 881.625 28.25C881.625 28.25 881.625 28.1875 881.625 28.0625C881.5 27.9375 881.375 27.75 881.25 27.5C881 27.25 880.875 27 880.875 26.75C880.625 26.625 880.5 26.5 880.5 26.375C880.625 26.375 880.812 26.3125 881.062 26.1875C882.688 26.4375 885.062 26.5625 888.188 26.5625H889.312V14.375H886.312C884.688 14.5 883.375 14.5625 882.375 14.5625C881.875 14.5625 881.625 14.5625 881.625 14.5625C881.125 14.8125 880.812 14.75 880.688 14.375C880.562 14.25 880.375 14.0625 880.125 13.8125C879.875 13.5625 879.75 13.3125 879.75 13.0625C879.5 12.6875 879.625 12.5 880.125 12.5C880.375 12.625 881.25 12.75 882.75 12.875C884.25 12.875 885.688 12.875 887.062 12.875H900.75C902.375 10.375 903.5 9 904.125 8.75C905.625 9.375 907.5 10.875 909.75 13.25C910 14.125 909.812 14.5625 909.188 14.5625C907.938 14.4375 904.625 14.375 899.25 14.375H898.125C898.25 15.125 898 15.5625 897.375 15.6875C897.25 15.8125 897.188 15.875 897.188 15.875C896.688 16.25 896.5 16.6875 896.625 17.1875V26.5625H900.188C901.438 24.6875 902.438 23.5 903.188 23C904.688 23.625 906.438 24.875 908.438 26.75C908.688 27.75 908.5 28.1875 907.875 28.0625C905.125 28.0625 901.75 28.0625 897.75 28.0625H896.625V42.5H901.5C903 39.875 904.125 38.5 904.875 38.375C907 39.375 909.062 40.8125 911.062 42.6875C911.312 43.3125 911.188 43.75 910.688 44C909.688 43.75 906.25 43.6875 900.375 43.8125H883.875C881.5 43.8125 879.938 43.9375 879.188 44.1875C878.938 44.1875 878.875 44.1875 879 44.1875C878.75 45.0625 878.125 45.6875 877.125 46.0625C875.5 46.5625 874.25 46.9375 873.375 47.1875C871.125 47.8125 870.312 46.5625 870.938 43.4375C871.062 41.6875 871.188 39.0625 871.312 35.5625C871.312 32.5625 871.375 30 871.5 27.875ZM890.25 9.6875C889.875 6.9375 888.875 4.75 887.25 3.125C886.875 2.875 886.75 2.625 886.875 2.375C887 2.25 887.312 2.125 887.812 2C892.562 2.625 895.75 4.125 897.375 6.5C898.25 9.125 897.375 11.0625 894.75 12.3125C892.25 13.0625 890.75 12.1875 890.25 9.6875ZM919.125 23.5625V21.3125C919 18.9375 918.938 16.5625 918.938 14.1875C918.812 11.5625 918.688 9.25 918.562 7.25C918.438 6.5 918.438 6.0625 918.562 5.9375C918.812 5.8125 919.375 5.75 920.25 5.75C922.5 6.25 924.75 7.0625 927 8.1875C927.25 8.4375 927.5 8.6875 927.75 8.9375H944.438C945.312 7.4375 946.125 6.4375 946.875 5.9375C949.5 6.5625 951.938 7.875 954.188 9.875C954.688 10.75 954.562 11.4375 953.812 11.9375C952.812 12.4375 952.375 12.9375 952.5 13.4375V20.5625C952.5 23.1875 952.5 26.375 952.5 30.125C952.75 34.25 952.938 36.8125 953.062 37.8125C953.062 39.8125 952.625 40.875 951.75 41C951.25 41 950.5 41.125 949.5 41.375C948.5 41.5 947.625 41.625 946.875 41.75C945.5 41.625 944.875 41.0625 945 40.0625V36.3125H926.625V39.5C926.75 40.75 926.125 41.5625 924.75 41.9375C923.625 42.1875 922.25 42.375 920.625 42.5C918.75 42.75 918.125 41.8125 918.75 39.6875C918.875 36.8125 919 31.4375 919.125 23.5625ZM945 10.25H927.188C926.812 10.625 926.625 11.125 926.625 11.75V34.8125H945V10.25ZM967.688 12.6875V9.6875C967.562 8.1875 967.438 6.625 967.312 5C967.062 4.375 967.062 3.9375 967.312 3.6875C967.562 3.4375 968.125 3.375 969 3.5C970.875 4 973.062 4.625 975.562 5.375H978.75C978.75 5 978.75 4.5 978.75 3.875C978.75 2.75 978.688 1.9375 978.562 1.4375C978.312 0.8125 978.625 0.5 979.5 0.5C979.5 0.625 979.625 0.6875 979.875 0.6875C981.625 0.8125 983.688 1 986.062 1.25C986.938 1.75 987 2.3125 986.25 2.9375C985.75 2.9375 985.375 3.125 985.125 3.5C984.5 4.25 983.938 4.875 983.438 5.375H990C991.125 3.375 992 2.3125 992.625 2.1875C995.875 3.3125 998.25 4.6875 999.75 6.3125C999.875 6.8125 999.625 7.3125 999 7.8125C998.625 8.0625 998.438 8.5625 998.438 9.3125C998.312 11.0625 998.375 13 998.625 15.125C998.625 15.625 998.688 15.9375 998.812 16.0625C999.062 17.5625 998.562 18.4375 997.312 18.6875C996.062 19.1875 994.688 19.5 993.188 19.625C991.562 19.875 990.812 19.5 990.938 18.5V18.125H975.188C975.188 18.75 974.562 19.125 973.312 19.25C972.312 19.5 971 19.625 969.375 19.625C967.75 19.875 967.062 19.375 967.312 18.125C967.438 17.25 967.5 16.375 967.5 15.5C967.625 14.625 967.688 13.6875 967.688 12.6875ZM972.75 21.3125H994.312C995.188 19.9375 996 19.125 996.75 18.875C1000 20.25 1002.19 21.5625 1003.31 22.8125C1003.56 23.4375 1003.38 23.875 1002.75 24.125C1002.12 24.375 1001.81 24.9375 1001.81 25.8125C1001.81 27.3125 1001.88 28.5 1002 29.375C1002.25 30.75 1001.75 31.625 1000.5 32C999.25 32.375 998.062 32.5625 996.938 32.5625C995.188 32.8125 994.438 32.5 994.688 31.625H972.188C972.188 32.5 971.688 33.0625 970.688 33.3125C969.562 33.5625 968.312 33.6875 966.938 33.6875C965.312 34.0625 964.625 33.625 964.875 32.375C965 29.75 965.125 27.5 965.25 25.625C965.25 23.625 965.125 22.0625 964.875 20.9375C964.75 20.1875 964.812 19.75 965.062 19.625C965.188 19.375 965.688 19.3125 966.562 19.4375C968.562 19.8125 970.625 20.4375 972.75 21.3125ZM995.812 36.3125H995.062C994.812 36.5625 994.75 36.875 994.875 37.25V38.5625C994.875 40.3125 995 42.375 995.25 44.75C995.375 46 994.812 46.8125 993.562 47.1875C991.938 47.5625 990.188 47.6875 988.312 47.5625C987.312 47.5625 986.938 47.0625 987.188 46.0625C987.188 45.8125 987.188 45.5625 987.188 45.3125C987.312 42.6875 987.438 40.3125 987.562 38.1875V36.3125H981.375C981 36.6875 980.75 37.3125 980.625 38.1875C978.875 44.0625 973.75 47.1875 965.25 47.5625C964.375 47.5625 963.875 47.4375 963.75 47.1875C963.75 46.5625 964.188 46.1875 965.062 46.0625C970.062 43.9375 972.812 40.6875 973.312 36.3125H968.062C966.938 36.4375 965.875 36.5 964.875 36.5C963.875 36.625 963.125 36.75 962.625 36.875C962.125 37 961.812 36.875 961.688 36.5C961.188 36.25 960.875 35.8125 960.75 35.1875C960.5 35.0625 960.375 34.9375 960.375 34.8125C960.5 34.6875 960.688 34.625 960.938 34.625C961.938 34.875 964.5 34.9375 968.625 34.8125H998.625C998.75 34.6875 998.938 34.4375 999.188 34.0625C1000.94 31.8125 1002 30.75 1002.38 30.875C1003.75 31.25 1005.44 32.5625 1007.44 34.8125C1008.06 35.8125 1007.94 36.375 1007.06 36.5C1005.44 36.5 1003.81 36.5 1002.19 36.5C1000.56 36.375 998.438 36.3125 995.812 36.3125ZM975.188 10.625V12.875H990.938V10.625H975.188ZM975.188 16.625H990.938V14.375H975.188V16.625ZM990.938 6.875H976.312C975.562 6.875 975.188 7.3125 975.188 8.1875V9.125H990.938V6.875ZM986.438 30.3125H994.688V27.125H986.438V30.3125ZM972.188 27.125V30.3125H980.25V27.125H972.188ZM994.688 22.8125H986.438V25.625H994.688V22.8125ZM972.188 24.3125V25.625H980.25V22.8125H973.875C972.75 22.9375 972.188 23.4375 972.188 24.3125ZM1010.62 31.8125V20.375C1010.62 18.125 1010.56 16.4375 1010.44 15.3125C1010.44 13.9375 1010.38 12.625 1010.25 11.375C1010.12 10 1010.56 9.5 1011.56 9.875C1013.44 10.5 1015.44 11.3125 1017.56 12.3125H1017.94C1017.94 10.4375 1017.94 8.625 1017.94 6.875C1017.94 5.125 1017.94 3.5 1017.94 2C1017.69 1.25 1018.06 0.9375 1019.06 1.0625C1021.06 1.1875 1023.12 1.5 1025.25 2C1026 2.125 1026.38 2.4375 1026.38 2.9375C1026.5 3.3125 1026.25 3.625 1025.62 3.875C1025 4.375 1024.56 4.9375 1024.31 5.5625C1023.19 8.0625 1021.94 10.3125 1020.56 12.3125H1024.5C1025.62 10.6875 1026.5 9.8125 1027.12 9.6875C1029.62 10.5625 1031.69 11.9375 1033.31 13.8125C1033.31 14.4375 1033 14.875 1032.38 15.125C1031.75 15.5 1031.5 15.9375 1031.62 16.4375V21.875C1034 14.5 1035.38 7.8125 1035.75 1.8125C1035.62 1.1875 1035.94 0.875 1036.69 0.875C1039.44 1.375 1042.12 2.0625 1044.75 2.9375C1045.25 3.3125 1045.5 3.6875 1045.5 4.0625C1045.38 4.4375 1045.06 4.75 1044.56 5C1043.56 5.5 1043 6.125 1042.88 6.875C1042.25 8.875 1041.56 10.6875 1040.81 12.3125H1045.5C1047 10.3125 1048.06 9.25 1048.69 9.125C1052.06 10.625 1054.38 12.125 1055.62 13.625C1055.62 14.25 1055.25 14.75 1054.5 15.125C1053.75 15.5 1053.44 15.9375 1053.56 16.4375C1053.44 29.4375 1053.19 37.625 1052.81 41C1052.31 44.5 1049.5 46.625 1044.38 47.375C1042.88 47.625 1042 47.3125 1041.75 46.4375C1041 43.5625 1039.31 41.75 1036.69 41C1035.44 41 1035 40.6875 1035.38 40.0625C1035.25 39.5625 1035.75 39.4375 1036.88 39.6875C1040 40.1875 1042.06 40.375 1043.06 40.25C1044.06 40.125 1044.69 39.5 1044.94 38.375C1045.69 31.375 1046.12 23.1875 1046.25 13.8125H1040.06C1038.81 16.3125 1037.44 18.625 1035.94 20.75C1040.56 22.125 1043.12 24.625 1043.62 28.25C1043.62 31.375 1042.25 33 1039.5 33.125C1037.25 33.375 1036 32.3125 1035.75 29.9375C1035.88 27.4375 1035.44 24.9375 1034.44 22.4375C1034.19 22.6875 1033.94 22.9375 1033.69 23.1875C1032.81 24.0625 1032.12 24.6875 1031.62 25.0625V27.6875C1031.62 30.9375 1031.81 35.375 1032.19 41C1032.19 41.875 1031.75 42.5 1030.88 42.875C1029.25 43.25 1027.88 43.5 1026.75 43.625C1025.12 43.875 1024.44 43.5 1024.69 42.5V39.875H1017.38V42.125C1017.38 43.625 1016.75 44.5 1015.5 44.75C1014.38 45 1013.25 45.1875 1012.12 45.3125C1010.38 45.5625 1009.75 44.8125 1010.25 43.0625C1010.38 39.8125 1010.5 36.0625 1010.62 31.8125ZM1024.69 13.8125H1018.12C1017.5 14.1875 1017.25 14.75 1017.38 15.5V25.625H1024.69V13.8125ZM1017.38 27.125V38.375H1024.69V27.125H1017.38ZM1071.56 15.125V5.9375H1063.69C1062.56 5.9375 1061.75 6 1061.25 6.125C1060.62 6.125 1060.12 6.1875 1059.75 6.3125C1059.5 6.4375 1059.31 6.375 1059.19 6.125C1058.94 6 1058.69 5.6875 1058.44 5.1875C1058.31 4.9375 1058.25 4.75 1058.25 4.625C1058 4.25 1058.12 4.125 1058.62 4.25C1058.75 4.25 1059.19 4.3125 1059.94 4.4375C1061.44 4.4375 1062.88 4.4375 1064.25 4.4375H1070.62C1071.88 2.4375 1072.81 1.4375 1073.44 1.4375C1075.31 1.8125 1077.31 2.8125 1079.44 4.4375C1080.19 5.1875 1080.12 5.9375 1079.25 6.6875C1078.88 7.0625 1078.69 7.625 1078.69 8.375V20C1078.56 20.25 1078.5 20.5625 1078.5 20.9375C1078.5 21.1875 1078.5 21.3125 1078.5 21.3125C1079.62 21.5625 1080.75 21.875 1081.88 22.25C1082.62 22.625 1083 23 1083 23.375C1083 23.875 1082.69 24.1875 1082.06 24.3125C1081.69 24.4375 1081.31 24.6875 1080.94 25.0625C1080.81 25.1875 1080.69 25.25 1080.56 25.25C1079.69 26.125 1078.81 26.8125 1077.94 27.3125H1089.19C1090.19 25.9375 1091.06 25.125 1091.81 24.875C1094.69 25.875 1096.94 27.1875 1098.56 28.8125C1098.56 29.4375 1098.25 29.875 1097.62 30.125C1097.12 30.625 1096.88 31.0625 1096.88 31.4375C1096.88 34.0625 1096.94 37.0625 1097.06 40.4375C1097.06 42.3125 1097.12 43.4375 1097.25 43.8125C1097.5 45.5625 1097 46.5625 1095.75 46.8125C1093.88 47.1875 1092.56 47.375 1091.81 47.375C1090.31 47.5 1089.62 46.9375 1089.75 45.6875V43.625H1071.19V44.75C1071.31 46 1070.75 46.75 1069.5 47C1069 47.125 1068 47.3125 1066.5 47.5625C1066.12 47.5625 1065.81 47.625 1065.56 47.75C1063.81 48 1063.19 46.9375 1063.69 44.5625C1063.81 41.5625 1063.94 37.375 1064.06 32C1064.06 29.75 1063.94 27.875 1063.69 26.375C1063.44 25.125 1063.94 24.625 1065.19 24.875C1068.06 25.625 1070.25 26.375 1071.75 27.125C1071.75 27.125 1071.81 27.1875 1071.94 27.3125C1072.06 27.4375 1072.19 27.4375 1072.31 27.3125H1074.38C1074.75 25.6875 1074.94 24.125 1074.94 22.625C1074.44 22.625 1073.94 22.625 1073.44 22.625C1071.94 23 1071.31 22.5625 1071.56 21.3125V17.1875C1069.56 19.0625 1067.25 20.8125 1064.62 22.4375C1063.62 23.0625 1063.06 23.625 1062.94 24.125C1062.06 25 1061.38 25 1060.88 24.125C1060 22.625 1059.31 21 1058.81 19.25C1058.44 18.375 1058.81 17.875 1059.94 17.75C1063.19 17.25 1067.06 16.375 1071.56 15.125ZM1091.81 14.375V5.5625H1086.38C1084.88 5.5625 1083.94 5.625 1083.56 5.75C1082.94 5.75 1082.56 5.75 1082.44 5.75C1082.19 5.875 1081.94 5.75 1081.69 5.375C1081.31 5 1081.06 4.625 1080.94 4.25C1080.81 4 1080.75 3.875 1080.75 3.875C1080.88 3.75 1081.06 3.6875 1081.31 3.6875C1082.19 3.9375 1084 4.0625 1086.75 4.0625H1091.06C1091.94 2.3125 1092.81 1.3125 1093.69 1.0625C1096.94 2.0625 1099.25 3.4375 1100.62 5.1875C1100.62 5.6875 1100.31 6.1875 1099.69 6.6875C1099.31 6.9375 1099.12 7.3125 1099.12 7.8125V11.5625C1099.12 13.1875 1099.12 15.1875 1099.12 17.5625C1099.25 19.5625 1099.38 20.75 1099.5 21.125C1099.5 22.75 1099 23.625 1098 23.75C1097.38 24 1096.19 24.25 1094.44 24.5C1094.06 24.5 1093.81 24.5 1093.69 24.5C1092.31 24.75 1091.69 24.25 1091.81 23V17.1875C1090.19 18.8125 1088.56 20.25 1086.94 21.5C1085.81 22.25 1085.25 22.8125 1085.25 23.1875C1084.75 24.0625 1084.12 24 1083.38 23C1083.12 22.75 1082.88 22.375 1082.62 21.875C1081.88 20.375 1081.38 19.1875 1081.12 18.3125C1080.62 17.4375 1080.94 16.875 1082.06 16.625C1085.56 16.125 1088.81 15.375 1091.81 14.375ZM1071.19 36.125V42.125H1089.75V36.125H1071.19ZM1071.19 30.125V34.625H1089.75V28.8125H1071.94C1071.44 29.0625 1071.19 29.5 1071.19 30.125ZM1063.69 13.25C1063.31 11.25 1062.5 9.625 1061.25 8.375C1060.88 7.875 1061.12 7.5625 1062 7.4375C1064.88 7.4375 1067.06 8.0625 1068.56 9.3125C1070.06 11.3125 1069.94 13.0625 1068.19 14.5625C1065.81 15.9375 1064.31 15.5 1063.69 13.25ZM1084.31 12.875C1083.69 10.875 1082.88 9.25 1081.88 8C1081.5 7.875 1081.38 7.6875 1081.5 7.4375C1081.62 7.1875 1081.94 7.0625 1082.44 7.0625C1085.31 7.0625 1087.5 7.6875 1089 8.9375C1090.5 11.0625 1090.44 12.8125 1088.81 14.1875C1086.44 15.4375 1084.94 15 1084.31 12.875ZM1117.12 11.1875V28.625C1117 30.25 1117.06 33.625 1117.31 38.75C1117.44 40.75 1117.56 42.3125 1117.69 43.4375C1117.81 45.1875 1117.19 46.3125 1115.81 46.8125C1114.81 47.0625 1113.69 47.3125 1112.44 47.5625C1110.44 47.9375 1109.69 46.75 1110.19 44C1110.19 43.5 1110.19 42.6875 1110.19 41.5625C1110.56 36.0625 1110.75 31.875 1110.75 29V10.0625C1110.62 8.5625 1110.56 7.0625 1110.56 5.5625C1110.44 4.1875 1110.31 3.125 1110.19 2.375C1109.81 1.25 1110.31 0.6875 1111.69 0.6875C1114.06 1.0625 1116.12 1.4375 1117.88 1.8125C1119 2.4375 1119.12 3.1875 1118.25 4.0625C1117.38 4.6875 1117 5.25 1117.12 5.75V9.6875C1117.62 9.8125 1118.31 10.125 1119.19 10.625C1119.31 10.75 1119.5 10.8125 1119.75 10.8125H1123.12V9.3125C1123.12 7.8125 1123.06 6.75 1122.94 6.125C1122.94 5.375 1122.94 4.4375 1122.94 3.3125C1122.69 2.0625 1123.19 1.5625 1124.44 1.8125C1126.56 2.3125 1128.31 2.9375 1129.69 3.6875C1130.19 3.9375 1130.56 4.25 1130.81 4.625H1139.62C1141 2.625 1142 1.625 1142.62 1.625C1145.12 2.75 1147 4.1875 1148.25 5.9375C1148.25 6.5625 1147.94 7 1147.31 7.25C1146.69 7.5 1146.44 8 1146.56 8.75V9.5C1147.06 8.625 1147.62 8.125 1148.25 8C1148.75 8 1149.75 8.9375 1151.25 10.8125C1151.75 11.6875 1151.62 12.1875 1150.88 12.3125H1146.56C1146.56 12.9375 1146.56 13.75 1146.56 14.75C1146.69 15.75 1146.81 16.4375 1146.94 16.8125C1147.19 18.1875 1146.69 19.0625 1145.44 19.4375C1145.06 19.8125 1144.5 20.0625 1143.75 20.1875C1146.12 21.4375 1147.94 22.6875 1149.19 23.9375C1149.31 24.6875 1149.12 25.1875 1148.62 25.4375C1148 25.8125 1147.69 26.3125 1147.69 26.9375C1147.69 30.4375 1147.88 33.3125 1148.25 35.5625C1148.12 36.9375 1147.62 37.75 1146.75 38C1145.38 38.5 1144.12 38.75 1143 38.75C1141.88 38.875 1141.25 38.375 1141.12 37.25H1128.94C1128.94 37.75 1128.75 38.0625 1128.38 38.1875C1128.5 38.1875 1128.75 38.25 1129.12 38.375C1128.88 38.125 1128.94 38.125 1129.31 38.375C1130.06 39.125 1130.88 39.8125 1131.75 40.4375C1133.12 41.1875 1134 41.75 1134.38 42.125C1134.75 42.5 1134.81 42.875 1134.56 43.25C1134.31 43.75 1133.94 43.875 1133.44 43.625C1132.44 43.625 1131.75 43.6875 1131.38 43.8125C1127.5 45.3125 1123.38 46.375 1119 47C1118.12 47 1117.62 46.875 1117.5 46.625C1117.38 46.25 1117.69 45.9375 1118.44 45.6875C1122.69 43.3125 1125.88 40.9375 1128 38.5625C1127.88 38.6875 1127.94 38.625 1128.19 38.375C1128.06 38.5 1127.94 38.5625 1127.81 38.5625C1127.69 38.6875 1127.5 38.75 1127.25 38.75C1125.88 39.25 1124.69 39.5 1123.69 39.5C1122.31 39.625 1121.75 38.9375 1122 37.4375C1122 37.1875 1122 36.0625 1122 34.0625C1122.25 31.8125 1122.38 30.4375 1122.38 29.9375V26.375C1122.38 25.25 1122.25 23.8125 1122 22.0625C1122 21.9375 1122 21.8125 1122 21.6875C1121.88 21.0625 1121.88 20.6875 1122 20.5625C1122.25 20.3125 1122.69 20.25 1123.31 20.375C1125.81 21 1127.75 21.5625 1129.12 22.0625C1129.12 22.1875 1129.19 22.25 1129.31 22.25C1129.44 22.375 1129.56 22.4375 1129.69 22.4375H1140.38C1140.88 21.5625 1141.38 20.875 1141.88 20.375C1140.62 20.625 1140.06 20.125 1140.19 18.875V18.6875H1129.12C1128.88 19.0625 1128.69 19.4375 1128.56 19.8125C1127.81 20.8125 1127.12 21.0625 1126.5 20.5625C1124.75 19.8125 1123.5 19.0625 1122.75 18.3125C1122.38 18.1875 1122.12 18 1122 17.75C1121.5 18.25 1121 18.5625 1120.5 18.6875C1118.75 19.1875 1117.88 18.3125 1117.88 16.0625C1117.62 14.0625 1117.38 12.4375 1117.12 11.1875ZM1143.56 45.6875C1142.19 43.3125 1139.81 41.625 1136.44 40.625C1136.06 40.625 1135.88 40.5 1135.88 40.25C1136 40 1136.25 39.8125 1136.62 39.6875C1140.88 39.3125 1144.5 39.75 1147.5 41C1149.38 42.375 1149.75 44 1148.62 45.875C1146.88 47.625 1145.19 47.5625 1143.56 45.6875ZM1104.75 20C1106.25 18.25 1107.19 16.0625 1107.56 13.4375C1107.56 13.0625 1107.69 12.875 1107.94 12.875C1108.19 12.875 1108.44 13.0625 1108.69 13.4375C1110.19 15.9375 1110.75 18.6875 1110.38 21.6875C1109.75 23.9375 1108.5 25 1106.62 24.875C1104.5 24.375 1103.88 22.75 1104.75 20ZM1128.94 32.75V35.75H1141.12V32.75H1128.94ZM1128.94 28.25V31.25H1141.12V28.25H1128.94ZM1141.12 23.9375H1129.31C1129.06 24.1875 1128.94 24.5625 1128.94 25.0625V26.75H1141.12V23.9375ZM1129.5 12.3125V17.1875H1131.75V12.3125H1129.5ZM1137.75 12.3125V17.1875H1140.19V12.3125H1137.75ZM1140.19 5.9375H1137.75V10.8125H1140.19V5.9375ZM1129.5 7.625V10.8125H1131.75V5.9375H1130.06C1129.69 6.4375 1129.5 7 1129.5 7.625ZM1123.12 14V12.3125H1121.25C1121.62 12.8125 1121.94 13.3125 1122.19 13.8125C1122.56 14.6875 1122.69 15.5 1122.56 16.25C1122.94 15.75 1123.12 15 1123.12 14ZM1165.69 34.0625H1163.25V31.0625C1163.25 29.4375 1163.88 27.6875 1165.12 25.8125C1166.75 23.8125 1167.56 21.75 1167.56 19.625C1167.56 15.125 1166.06 12.8125 1163.06 12.6875C1160.69 12.9375 1159.06 13.8125 1158.19 15.3125C1158.44 15.3125 1158.69 15.3125 1158.94 15.3125C1161.31 15.4375 1162.56 16.5 1162.69 18.5C1162.44 20.5 1161.19 21.625 1158.94 21.875C1156.56 21.75 1155.31 20.4375 1155.19 17.9375C1155.56 13.5625 1158.75 11.125 1164.75 10.625C1171.12 11 1174.56 13.375 1175.06 17.75C1175.06 20.375 1173.44 22.875 1170.19 25.25C1167.19 27.5 1165.69 29.75 1165.69 32V34.0625ZM1160.25 40.0625C1160.5 37.6875 1161.81 36.3125 1164.19 35.9375C1166.69 36.1875 1168.06 37.5625 1168.31 40.0625C1167.94 42.0625 1166.56 43.25 1164.19 43.625C1161.81 43.25 1160.5 42.0625 1160.25 40.0625Z" fill="#10656A"/>
</svg>
