<svg width="1416" height="50" viewBox="0 0 1416 50" fill="none" xmlns="http://www.w3.org/2000/svg">
<path d="M34.6875 20.625V24.1875C34.6875 23.8125 35.0625 23.8125 35.8125 24.1875C40.6875 26.0625 44.1875 29.0625 46.3125 33.1875C47.0625 36.6875 46.125 39 43.5 40.125C40.875 40.625 39.3125 39.125 38.8125 35.625C38.3125 32.125 37.0625 28.625 35.0625 25.125C34.8125 25 34.6875 24.8125 34.6875 24.5625V26.8125C34.5625 33.6875 34.625 38.625 34.875 41.625C35.125 43.875 34.4375 45.5 32.8125 46.5C30.9375 47.5 29.0625 48.125 27.1875 48.375C25.5625 48.625 24.6875 48.25 24.5625 47.25C24.1875 45.125 23.125 43.8125 21.375 43.3125C20.375 42.9375 19.9375 42.5625 20.0625 42.1875C19.9375 42.0625 20.5625 42 21.9375 42C25.9375 42.625 27.75 41.375 27.375 38.25V25.875C27.375 26.125 27.1875 26.25 26.8125 26.25C26.1875 26.5 25.875 26.875 25.875 27.375C23.875 33.625 20.4375 38.3125 15.5625 41.4375C14.9375 41.8125 14.5625 41.9375 14.4375 41.8125C14.3125 41.6875 14.4375 41.3125 14.8125 40.6875C16.5625 36.6875 17.8125 33.0625 18.5625 29.8125C18.5625 29.6875 18.5625 29.375 18.5625 28.875C18.9375 27.5 19.1875 26 19.3125 24.375C19.4375 23.375 19.9375 22.9375 20.8125 23.0625C22.6875 23.3125 24.6875 23.8125 26.8125 24.5625C27.1875 24.9375 27.375 25.125 27.375 25.125V24.5625C27.25 23.0625 27.1875 21.625 27.1875 20.25C27.0625 18.875 26.9375 17.875 26.8125 17.25C26.4375 15.875 26.9375 15.3125 28.3125 15.5625C30.0625 15.8125 32.3125 16.1875 35.0625 16.6875C36.3125 17.4375 36.5 18.1875 35.625 18.9375C34.875 19.3125 34.5625 19.875 34.6875 20.625ZM13.5 19.125V36.75C13.375 40.25 13.4375 42.75 13.6875 44.25C13.9375 45.875 13.375 46.9375 12 47.4375C10.75 47.8125 9.4375 48.125 8.0625 48.375C5.9375 49 5.1875 47.875 5.8125 45C5.8125 44.375 5.8125 43.4375 5.8125 42.1875C6.1875 36.6875 6.375 32.5625 6.375 29.8125V23.625C4.625 25.75 2.875 27.4375 1.125 28.6875C0.75 29.0625 0.5 29.125 0.375 28.875C0.25 28.625 0.3125 28.25 0.5625 27.75C3.5625 21.75 5.9375 15.5625 7.6875 9.1875C8.3125 7.4375 8.75 5.1875 9 2.4375C8.875 1.6875 9.375 1.3125 10.5 1.3125C12 1.6875 14.5 2.4375 18 3.5625C18.75 4.3125 18.75 5.0625 18 5.8125C17.125 6.1875 16.625 6.5625 16.5 6.9375C14.875 10.1875 13.4375 13 12.1875 15.375C12.3125 15.375 12.5625 15.4375 12.9375 15.5625C13.3125 15.5625 13.5625 15.5625 13.6875 15.5625C14.5625 16.1875 14.6875 16.8125 14.0625 17.4375C13.5625 17.8125 13.375 18.375 13.5 19.125ZM36.9375 18.375L38.25 13.875H25.875C23.125 18.25 19.625 21.8125 15.375 24.5625C15 24.8125 14.75 24.8125 14.625 24.5625C14.5 24.4375 14.5625 24.125 14.8125 23.625C18.0625 18.625 20.375 13.4375 21.75 8.0625C22 7.0625 22.1875 6.125 22.3125 5.25C22.5625 4.25 22.6875 3.3125 22.6875 2.4375C22.6875 1.5625 23.1875 1.25 24.1875 1.5C25.3125 1.625 27.25 2.125 30 3C30.25 3.125 30.5625 3.1875 30.9375 3.1875C31.3125 3.4375 31.5625 3.8125 31.6875 4.3125C31.5625 4.8125 31.3125 5.0625 30.9375 5.0625C30.0625 5.4375 29.5625 5.9375 29.4375 6.5625C28.5625 8.6875 27.6875 10.625 26.8125 12.375H37.3125C38.1875 10.375 39.125 9.1875 40.125 8.8125C42 9.1875 44.1875 10.625 46.6875 13.125C47.3125 13.75 47.5625 14.4375 47.4375 15.1875C47.3125 15.9375 46.6875 16.3125 45.5625 16.3125C42.5625 16.0625 40.0625 17 38.0625 19.125C37.5625 19.5 37.1875 19.625 36.9375 19.5C36.8125 19.375 36.8125 19 36.9375 18.375ZM68.4375 10.125H74.25C74.875 8 75.25 5.4375 75.375 2.4375C75.25 1.6875 75.6875 1.3125 76.6875 1.3125C79.0625 1.5625 81.5 1.875 84 2.25C84.5 2.5 84.75 2.9375 84.75 3.5625C84.625 4.0625 84.3125 4.3125 83.8125 4.3125C82.9375 4.6875 82.375 5.0625 82.125 5.4375C81 7.0625 79.5 8.625 77.625 10.125H84.5625C85.6875 8.5 86.5 7.625 87 7.5C89.875 8.5 92.1875 9.8125 93.9375 11.4375C93.9375 12.0625 93.625 12.5625 93 12.9375C92.75 13.1875 92.625 13.625 92.625 14.25C92.5 19.25 92.5625 22.4375 92.8125 23.8125C92.8125 25.0625 92.4375 25.875 91.6875 26.25C91.5625 26.375 91.4375 26.4375 91.3125 26.4375C90.0625 26.9375 88.8125 27.1875 87.5625 27.1875C85.9375 27.6875 85.1875 27.3125 85.3125 26.0625V25.125H58.875C58.875 26 58.5 26.5 57.75 26.625C56.625 27.125 55.1875 27.4375 53.4375 27.5625C51.8125 27.9375 51.1875 27.25 51.5625 25.5C51.6875 23.5 51.75 21.6875 51.75 20.0625C51.875 18.6875 51.9375 16.75 51.9375 14.25C51.9375 12 51.8125 10.375 51.5625 9.375C51.3125 8.625 51.3125 8.1875 51.5625 8.0625C51.8125 7.8125 52.375 7.75 53.25 7.875C55.5 8.375 57.625 9.125 59.625 10.125H64.3125C63.8125 9.75 63.5 9 63.375 7.875C63.25 6.75 62.5 5 61.125 2.625C60.75 2.375 60.625 2.1875 60.75 2.0625C60.75 1.8125 61 1.6875 61.5 1.6875C65.625 1.8125 68.4375 2.875 69.9375 4.875C71.1875 7.125 70.6875 8.875 68.4375 10.125ZM57.5625 38.4375V34.5C57.4375 31.875 57.3125 29.8125 57.1875 28.3125C57.0625 27.6875 57.0625 27.3125 57.1875 27.1875C57.3125 27.0625 57.8125 27 58.6875 27C60.4375 27.375 62.625 27.875 65.25 28.5C65.375 28.625 65.5 28.6875 65.625 28.6875H78.375C79.375 26.8125 80.1875 25.875 80.8125 25.875C82.4375 26.25 84.875 27.625 88.125 30C88.5 30.75 88.25 31.3125 87.375 31.6875C86.875 32.0625 86.5625 32.375 86.4375 32.625V39.5625C86.3125 39.9375 86.3125 40.75 86.4375 42C86.5625 43.5 86.625 44.4375 86.625 44.8125C86.875 46.4375 86.375 47.375 85.125 47.625C83.375 48 81.9375 48.25 80.8125 48.375C79.4375 48.5 78.875 47.9375 79.125 46.6875V45H64.875V45.5625C64.875 46.8125 64.25 47.625 63 48C61.5 48.125 60.1875 48.25 59.0625 48.375C57.4375 48.5 56.8125 47.8125 57.1875 46.3125C57.3125 45.0625 57.4375 42.4375 57.5625 38.4375ZM58.875 12.75V23.625H68.625V11.625H60.1875C59.1875 11.625 58.75 12 58.875 12.75ZM64.875 37.6875V43.5H79.125V37.6875H64.875ZM79.125 30.1875H65.625C65 30.5625 64.75 31.0625 64.875 31.6875V36.1875H79.125V30.1875ZM60.9375 19.3125C60.9375 17.6875 60.5 15.875 59.625 13.875C59.375 13.625 59.3125 13.375 59.4375 13.125C59.5625 13 59.875 12.9375 60.375 12.9375C64 13.8125 66.4375 15.25 67.6875 17.25C68.4375 20.125 67.5625 22 65.0625 22.875C62.4375 23.5 61.0625 22.3125 60.9375 19.3125ZM85.3125 13.5V11.625H75.5625V23.625H76.6875C76.5625 23.5 76.625 23.1875 76.875 22.6875C77.75 19.6875 78.25 16.5 78.375 13.125C78.25 12.25 78.6875 11.9375 79.6875 12.1875C80.0625 12.3125 80.5 12.4375 81 12.5625C82.875 12.9375 84.3125 13.25 85.3125 13.5ZM78.1875 23.625H85.3125V16.3125C84.9375 16.5625 84.6875 16.8125 84.5625 17.0625C82.8125 19.4375 80.75 21.5625 78.375 23.4375C78.25 23.5625 78.1875 23.625 78.1875 23.625ZM109.875 30.5625C109.875 30.4375 109.812 30.25 109.688 30C109.562 29.75 109.562 29.5 109.688 29.25C105.562 31.375 103.125 32.875 102.375 33.75C101.75 34.5 101.25 34.875 100.875 34.875C100.5 34.875 100.188 34.5 99.9375 33.75C98.9375 32.5 98.1875 31.0625 97.6875 29.4375C97.4375 29.0625 97.4375 28.6875 97.6875 28.3125C97.8125 28.0625 98.125 27.8125 98.625 27.5625C100 27.0625 101.188 26.1875 102.188 24.9375C103.062 23.5625 103.938 22 104.812 20.25C102.688 21.25 101.562 21.875 101.438 22.125C100.312 23.375 99.5 23.3125 99 21.9375C98 20.5625 97.3125 19.25 96.9375 18C96.6875 17.5 96.6875 17.125 96.9375 16.875C96.8125 16.75 97.0625 16.5 97.6875 16.125C99.1875 15.375 100.188 14.1875 100.688 12.5625C101.812 9.1875 102.5 6.125 102.75 3.375C102.75 2.125 103.438 1.6875 104.812 2.0625C106.438 2.6875 108.438 3.5 110.812 4.5C111.312 4.875 111.562 5.3125 111.562 5.8125C111.562 6.3125 111.25 6.625 110.625 6.75C109.625 7 108.938 7.5625 108.562 8.4375C105.688 12.1875 103.5 14.75 102 16.125C103.375 16.125 105 16.125 106.875 16.125C107 15.625 107.188 14.9375 107.438 14.0625C107.688 13.4375 107.875 12.875 108 12.375C108.125 11 108.812 10.5 110.062 10.875C110.438 11.125 111.188 11.5625 112.312 12.1875C113.688 12.8125 114.688 13.25 115.312 13.5C116.438 14.625 116.375 15.4375 115.125 15.9375C114.375 15.9375 113.688 16.375 113.062 17.25C111.438 19.375 109.875 21.3125 108.375 23.0625C108.375 23.0625 108.5 23.0625 108.75 23.0625C111.75 23.9375 113.875 25.6875 115.125 28.3125C115.5 30.3125 114.875 31.75 113.25 32.625C111.25 33.125 110.125 32.4375 109.875 30.5625ZM140.438 30.1875H131.625C130.875 30.6875 130.562 31.3125 130.688 32.0625V43.3125H133.688C135.312 41.0625 136.562 39.8125 137.438 39.5625C138.188 39.8125 139.938 41.125 142.688 43.5C142.938 43.75 143 44 142.875 44.25C142.875 44.375 142.688 44.5 142.312 44.625H117.375C116.375 44.625 115.438 44.75 114.562 45C114.062 45 113.75 44.9375 113.625 44.8125C113.375 44.4375 113.125 43.9375 112.875 43.3125C112.625 42.8125 112.75 42.6875 113.25 42.9375C115 43.0625 116.688 43.1875 118.312 43.3125H123.375V30.1875H120.188C119.188 30.3125 118.25 30.4375 117.375 30.5625C116.875 30.6875 116.562 30.625 116.438 30.375C116.312 30.25 116.125 30 115.875 29.625C115.75 29.375 115.688 29.125 115.688 28.875C115.438 28.5 115.562 28.375 116.062 28.5C117.688 28.75 119.312 28.875 120.938 28.875H132.375C132.375 28.75 132.5 28.5625 132.75 28.3125C133.5 27.4375 134.188 26.75 134.812 26.25C134.688 26.125 134.562 25.9375 134.438 25.6875C134.188 25.3125 134.125 25 134.25 24.75C133.75 22.75 132.562 20.8125 130.688 18.9375C130.312 18.6875 130.25 18.4375 130.5 18.1875C130.375 18.0625 130.438 17.875 130.688 17.625C132.062 16.125 133.25 13.8125 134.25 10.6875C134.25 9.9375 134.812 9.75 135.938 10.125C137.438 10.875 138.938 11.6875 140.438 12.5625C140.812 12.9375 140.938 13.3125 140.812 13.6875C140.562 13.9375 140.25 14 139.875 13.875C139.25 13.875 138.688 14.125 138.188 14.625C136.312 15.875 134.438 17.125 132.562 18.375C136.188 19.375 138.438 20.6875 139.312 22.3125C139.938 24.1875 139.562 25.625 138.188 26.625C138.938 27.25 139.875 28.0625 141 29.0625C141.25 29.4375 141.312 29.75 141.188 30C141.062 30.125 140.812 30.1875 140.438 30.1875ZM122.25 18.9375V18.75C122.25 18.875 122.25 18.8125 122.25 18.5625C122.25 18.5625 122.312 18.5 122.438 18.375C123.938 15.875 125.125 13.1875 126 10.3125C126 9.3125 126.5 9 127.5 9.375C129.125 9.875 130.875 10.5 132.75 11.25C133.25 12.125 133.062 12.625 132.188 12.75C131.438 12.875 130.812 13.1875 130.312 13.6875C128.312 15.6875 126.312 17.3125 124.312 18.5625C127.562 19.5625 129.75 20.875 130.875 22.5C131.75 24.5 131.312 26 129.562 27C127.562 27.75 126.375 27.125 126 25.125C125.625 23.25 124.5 21.3125 122.625 19.3125C122.25 19.3125 122.125 19.1875 122.25 18.9375ZM117.75 25.3125C117.75 23.4375 116.938 21.5 115.312 19.5C115.062 19.375 115.062 19.1875 115.312 18.9375C115.312 18.8125 115.312 18.625 115.312 18.375C116.188 16.5 116.875 13.75 117.375 10.125C117.25 9.25 117.75 8.875 118.875 9C119.375 9.25 120.5 9.5625 122.25 9.9375C123.375 10.1875 124.062 10.3125 124.312 10.3125C124.562 10.4375 124.688 10.75 124.688 11.25C124.562 11.625 124.312 11.8125 123.938 11.8125C123.188 12.0625 122.562 12.5 122.062 13.125C120.312 15.625 118.5 17.625 116.625 19.125C120.25 20.5 122.375 22.0625 123 23.8125C123.25 26.1875 122.562 27.5625 120.938 27.9375C118.812 28.3125 117.75 27.4375 117.75 25.3125ZM140.25 7.5H117.75C116.625 7.625 115.75 7.75 115.125 7.875C114.5 8 114.188 7.9375 114.188 7.6875C113.812 7.4375 113.562 6.9375 113.438 6.1875C113.188 5.8125 113.25 5.6875 113.625 5.8125C115.5 6.0625 117.188 6.1875 118.688 6.1875H131.625C133.25 3.6875 134.5 2.3125 135.375 2.0625C136.25 2.3125 138 3.75 140.625 6.375C140.875 6.75 140.938 7.0625 140.812 7.3125C140.812 7.4375 140.625 7.5 140.25 7.5ZM97.3125 41.4375C99.0625 39.9375 100.25 38 100.875 35.625C100.875 35.375 101 35.25 101.25 35.25C101.625 35.25 101.875 35.375 102 35.625C103.375 38.625 103.562 41.4375 102.562 44.0625C101.062 45.9375 99.375 46.25 97.5 45C96.375 43.625 96.3125 42.4375 97.3125 41.4375ZM111.375 39.375C111.125 37 110.25 35.125 108.75 33.75C108.375 33.5 108.25 33.3125 108.375 33.1875C108.5 33.0625 108.812 32.9375 109.312 32.8125C112.188 33.0625 114.438 34 116.062 35.625C117.562 38.25 117.188 40.1875 114.938 41.4375C113.188 41.8125 112 41.125 111.375 39.375ZM104.812 41.4375C105.188 39.0625 105.125 36.9375 104.625 35.0625C104.5 34.8125 104.5 34.6875 104.625 34.6875C104.75 34.5625 105 34.5625 105.375 34.6875C108 36.4375 109.625 38.3125 110.25 40.3125C110.5 42.8125 109.438 44.1875 107.062 44.4375C105.188 44.0625 104.438 43.0625 104.812 41.4375ZM103.5 27.75C103.625 27.75 103.75 27.75 103.875 27.75C106 27.375 107.812 27.125 109.312 27C108.812 25.875 108.312 24.875 107.812 24C107.812 24 107.75 23.9375 107.625 23.8125C107.5 23.8125 107.5 23.75 107.625 23.625C106.25 25.25 104.875 26.625 103.5 27.75ZM151.312 23.4375V14.625H149.25C148.125 14.75 147.25 14.875 146.625 15C146.125 15.125 145.812 15 145.688 14.625C145.438 14.5 145.188 14.1875 144.938 13.6875C144.938 13.5625 144.938 13.4375 144.938 13.3125C144.812 13.1875 144.75 13.0625 144.75 12.9375C144.75 12.8125 144.875 12.75 145.125 12.75C145.25 12.875 145.625 12.9375 146.25 12.9375C148.25 13.3125 149.562 13.4375 150.188 13.3125H151.312V10.875C151.188 10 151.125 8.8125 151.125 7.3125C151 5.6875 150.875 4.3125 150.75 3.1875C150.5 2.5625 150.438 2.125 150.562 1.875C150.812 1.625 151.312 1.5 152.062 1.5C154.562 1.75 156.812 2.125 158.812 2.625C159.438 2.75 159.875 3.125 160.125 3.75C160.125 4.25 159.875 4.625 159.375 4.875C158.5 5.25 158.125 5.75 158.25 6.375V12.1875C159 10.8125 159.688 10.0625 160.312 9.9375C161.188 10.0625 162.375 10.8125 163.875 12.1875V10.3125C163.875 7.3125 163.812 5.3125 163.688 4.3125C163.562 3.6875 163.562 3.3125 163.688 3.1875C163.938 3.0625 164.438 3.0625 165.188 3.1875C167.438 3.9375 169.5 4.75 171.375 5.625C171.875 5.875 172.188 6.1875 172.312 6.5625H179.812C180.938 4.6875 181.938 3.625 182.812 3.375C184.312 3.75 186.312 4.9375 188.812 6.9375C189.562 7.9375 189.562 8.8125 188.812 9.5625C188.062 10.1875 187.688 10.9375 187.688 11.8125C187.562 13.0625 187.562 15.5 187.688 19.125C187.812 22.75 187.875 25.125 187.875 26.25C187.875 27.875 187.438 28.75 186.562 28.875C184.812 29.25 183.5 29.375 182.625 29.25C181.125 29.625 180.5 29.125 180.75 27.75V25.5H170.812V38.625C170.688 40.125 171.5 40.875 173.25 40.875H181.688C183.812 41.25 185.75 38.5625 187.5 32.8125C187.75 31.6875 188.062 31.25 188.438 31.5C188.812 31.5 189 31.9375 189 32.8125C188.625 36.4375 189.062 38.75 190.312 39.75C191.438 40.625 192 41.625 192 42.75C192 43.875 191.188 44.875 189.562 45.75C188.062 46.25 186.188 46.5625 183.938 46.6875H170.062C166.062 46.5625 164 44.5 163.875 40.5V21.9375C163.625 22.0625 163.312 22.3125 162.938 22.6875C161.812 23.4375 160.25 24.375 158.25 25.5C158.25 26.75 158.25 29.0625 158.25 32.4375C158.5 36.8125 158.625 40 158.625 42C158.625 44.375 157.875 45.9375 156.375 46.6875C154.875 47.3125 153.562 47.75 152.438 48C150.812 48.125 149.875 47.6875 149.625 46.6875C149 44.4375 147.875 43.0625 146.25 42.5625C145.375 42.1875 145 41.9375 145.125 41.8125C145 41.3125 145.562 41.125 146.812 41.25C150.188 41.75 151.688 40.6875 151.312 38.0625V29.8125C150.688 30.1875 150.062 30.5625 149.438 30.9375C148.688 31.3125 148.312 31.625 148.312 31.875C148.062 32.5 147.688 32.8125 147.188 32.8125C146.812 32.6875 146.5 32.3125 146.25 31.6875C145.625 30.6875 145 28.8125 144.375 26.0625C144.125 25.1875 144.438 24.6875 145.312 24.5625C145.938 24.5625 147 24.375 148.5 24C149.625 23.75 150.562 23.5625 151.312 23.4375ZM180.75 7.875H179.25C179.125 8.25 179 8.5 178.875 8.625C178.5 8.875 178.312 9.125 178.312 9.375V24H180.75V7.875ZM170.812 9.1875V24H173.062V7.875H171C170.75 8.25 170.688 8.6875 170.812 9.1875ZM163.875 20.25V14.625H158.25V21.75C159 21.625 159.75 21.4375 160.5 21.1875C161 21.0625 162.125 20.75 163.875 20.25ZM208.5 37.6875V42.9375C208.5 44.4375 207.938 45.6875 206.812 46.6875C205.812 47.3125 204.688 47.75 203.438 48C201.688 48.375 200.75 48 200.625 46.875C200.125 45.125 199.438 44.0625 198.562 43.6875C197.812 43.1875 197.438 42.75 197.438 42.375C197.312 42.125 197.938 42 199.312 42C201.688 42.375 202.75 41.625 202.5 39.75V28.3125H200.25C200 37.6875 197.5 44.0625 192.75 47.4375C192.375 47.6875 192.125 47.75 192 47.625C192 47.625 192.062 47.375 192.188 46.875C193.062 44.375 193.688 41.5625 194.062 38.4375C194.438 35.3125 194.625 30.4375 194.625 23.8125V14.8125C194.5 10.5625 194.25 7.375 193.875 5.25C193.625 4.125 194.188 3.6875 195.562 3.9375C197.062 4.3125 198.812 4.875 200.812 5.625C200.938 5.75 201.062 5.875 201.188 6C201.312 6.125 201.438 6.1875 201.562 6.1875H201.938C202.938 4.5625 203.812 3.6875 204.562 3.5625C206.438 4.1875 208.312 5.5 210.188 7.5C210.188 8.25 209.938 8.6875 209.438 8.8125C208.562 9.1875 208.25 9.6875 208.5 10.3125V13.125H211.875V10.125C211.75 7.125 211.625 4.75 211.5 3C211.375 1.75 212 1.25 213.375 1.5C215.125 1.625 216.875 1.9375 218.625 2.4375C219.125 2.6875 219.438 3 219.562 3.375C219.562 3.75 219.312 4.0625 218.812 4.3125C218.312 4.6875 218.125 5.25 218.25 6V12.75C219.25 10.875 220.062 9.8125 220.688 9.5625C221.188 9.6875 222.062 10.125 223.312 10.875C223.188 9.5 223.062 8 222.938 6.375C222.688 5.625 222.688 5.125 222.938 4.875C223.188 4.625 223.75 4.5625 224.625 4.6875C225.5 4.9375 226.688 5.375 228.188 6C228.562 6.25 229.062 6.4375 229.688 6.5625C229.562 6.5625 229.625 6.5625 229.875 6.5625H231.375C232.375 4.8125 233.188 3.8125 233.812 3.5625C236.188 4.3125 238.25 5.75 240 7.875C240 8.625 239.688 9.125 239.062 9.375C238.438 9.75 238.125 10.1875 238.125 10.6875V17.625C238 22.625 238.188 28.75 238.688 36C238.688 37.625 238 38.875 236.625 39.75C235.5 40.375 234.25 40.8125 232.875 41.0625C231.625 41.3125 230.938 41 230.812 40.125C230.188 38.75 229.688 37.8125 229.312 37.3125V45.9375C229.312 47.0625 228.75 47.8125 227.625 48.1875C226.625 48.5625 225.438 48.75 224.062 48.75C222.938 48.625 222.5 48.0625 222.75 47.0625C222.625 46.3125 222.688 44.375 222.938 41.25C222.938 40.75 223 40.375 223.125 40.125C222.5 40.625 221.875 40.875 221.25 40.875C219.25 41.125 218.125 40 217.875 37.5C217.875 37.125 217.875 36.75 217.875 36.375C214.5 38.375 212.5 39.8125 211.875 40.6875C211 41.5625 210.375 41.625 210 40.875C209.375 40.25 208.875 39.1875 208.5 37.6875ZM229.312 10.125V35.25C231.062 35.5 231.875 34.625 231.75 32.625V8.0625H230.625C230.5 8.1875 230.438 8.25 230.438 8.25C230.188 8.625 230 8.75 229.875 8.625C229.375 9 229.188 9.5 229.312 10.125ZM223.312 28.875V23.25H216.375C216.75 23.5 217.125 23.625 217.5 23.625C217.875 23.75 218.438 23.9375 219.188 24.1875C219.688 24.5625 219.938 25 219.938 25.5C219.812 26 219.5 26.25 219 26.25C218.25 26.5 217.688 26.9375 217.312 27.5625C217.188 27.6875 217.125 27.8125 217.125 27.9375C217 28.0625 216.938 28.25 216.938 28.5C219.938 29.875 222 31.5625 223.125 33.5625C223.125 33.0625 223.125 32.4375 223.125 31.6875C223.25 31.0625 223.312 30.125 223.312 28.875ZM208.5 14.4375V21.75H211.875V14.4375H208.5ZM211.5 23.8125V23.25H208.5V34.6875C208.375 34.8125 208.438 34.75 208.688 34.5C209.062 34.25 209.5 33.4375 210 32.0625C210.5 30.4375 210.938 28 211.312 24.75C211.312 24.375 211.375 24.0625 211.5 23.8125ZM223.312 19.875V14.4375H218.25V21C219 19.375 219.75 18.5 220.5 18.375C221.25 18.625 222.188 19.125 223.312 19.875ZM200.438 27.1875H202.5V17.8125H200.625V19.3125C200.625 20.4375 200.562 21.9375 200.438 23.8125C200.438 25.4375 200.438 26.5625 200.438 27.1875ZM202.5 7.5H201.188C200.812 7.875 200.625 8.3125 200.625 8.8125V16.6875H202.5V7.5ZM211.875 35.25C213.375 35.25 215.25 35 217.5 34.5C217.125 32.75 216.688 31.1875 216.188 29.8125C215.312 31.5625 213.875 33.375 211.875 35.25ZM246.75 22.875V15.1875H245.062C244.312 15.3125 243.375 15.4375 242.25 15.5625C241.875 15.8125 241.562 15.6875 241.312 15.1875C241.062 15.0625 240.812 14.8125 240.562 14.4375C240.438 14.1875 240.375 14 240.375 13.875C240.125 13.5 240.25 13.375 240.75 13.5C241.75 13.75 243.5 13.8125 246 13.6875H257.625C259.875 10.9375 261.188 9.6875 261.562 9.9375C262.562 10.3125 264.062 11.375 266.062 13.125C266.688 10 267.125 6.5625 267.375 2.8125C267.375 2.1875 267.75 1.9375 268.5 2.0625C271 2.8125 273.562 3.625 276.188 4.5C276.688 4.875 276.938 5.25 276.938 5.625C276.938 6 276.688 6.3125 276.188 6.5625C275.438 6.8125 274.812 7.5 274.312 8.625C274.188 8.875 274.062 9.0625 273.938 9.1875C273.062 11.3125 272.188 13.1875 271.312 14.8125H276.938C278.938 12.0625 280.188 10.6875 280.688 10.6875C281.438 10.6875 283.375 12.1875 286.5 15.1875C286.75 15.8125 286.562 16.125 285.938 16.125H279.375C280.875 16.75 282.25 17.375 283.5 18C284 18.375 284.25 18.75 284.25 19.125C284.25 19.625 284 19.9375 283.5 20.0625C282.5 20.4375 281.875 21.125 281.625 22.125C280.375 27.375 278.75 31.75 276.75 35.25C279.25 37.75 282.5 39.9375 286.5 41.8125C287.375 41.9375 287.812 42.1875 287.812 42.5625C287.812 42.6875 287.375 42.9375 286.5 43.3125C284 44.3125 282.25 45.625 281.25 47.25C280.5 48.375 279.625 48.4375 278.625 47.4375C276.75 45.9375 274.75 44 272.625 41.625C272.375 41.375 272.25 41.125 272.25 40.875C268.875 43.75 264.562 46.125 259.312 48C258.688 48 258.375 47.9375 258.375 47.8125C258.25 47.5625 258.438 47.3125 258.938 47.0625C263.438 43.6875 267 39.875 269.625 35.625C268.875 33.75 268.25 31.6875 267.75 29.4375C267.375 27.1875 267.125 24.4375 267 21.1875C266.375 21.8125 265.812 22.375 265.312 22.875C265.562 23.125 265.75 23.375 265.875 23.625C265.875 23.75 265.938 23.8125 266.062 23.8125C266.062 24.4375 265.75 24.875 265.125 25.125C264.75 25.5 264.5 26 264.375 26.625C263.75 33.75 263.312 38.1875 263.062 39.9375C262.562 43.6875 260 45.9375 255.375 46.6875C254.125 46.9375 253.375 46.625 253.125 45.75C252.375 43.375 251.062 42 249.188 41.625C247.312 43.5 244.812 45.375 241.688 47.25C241.062 47.5 240.625 47.5 240.375 47.25C240.375 47 240.625 46.625 241.125 46.125C245 42 246.875 34.25 246.75 22.875ZM250.875 9.5625C250.5 7.4375 249.75 5.625 248.625 4.125C248.25 3.875 248.125 3.625 248.25 3.375C248.375 3.125 248.688 2.9375 249.188 2.8125C254.062 2.8125 257.125 4.25 258.375 7.125C259.125 9.625 258.25 11.4375 255.75 12.5625C253 13.5625 251.375 12.5625 250.875 9.5625ZM257.438 23.4375H254.062C253.562 31.8125 252.188 37.5 249.938 40.5C253.812 41.125 255.875 39.75 256.125 36.375C256.375 34.75 256.688 31.5 257.062 26.625C257.188 25.5 257.312 24.4375 257.438 23.4375ZM256.312 15.1875H255.375C254.625 16.0625 254.312 17 254.438 18C254.188 19.5 254.125 20.875 254.25 22.125H257.062C257.938 20.625 258.688 19.75 259.312 19.5C260.312 19.625 261.688 20.3125 263.438 21.5625C264.312 19.5625 265 17.5 265.5 15.375C264.5 15.375 263.25 15.375 261.75 15.375C260.5 15.25 258.688 15.1875 256.312 15.1875ZM274.875 16.125H270.562C270.312 16.625 269.562 17.75 268.312 19.5C269.312 23.25 270.688 26.625 272.438 29.625C273.812 25.75 274.625 21.25 274.875 16.125ZM302.625 12.375H297.375C295 12.5 292.688 12.625 290.438 12.75C290.312 12.75 290.125 12.8125 289.875 12.9375C289.625 12.9375 289.5 12.8125 289.5 12.5625C289.25 12.4375 289.062 12.1875 288.938 11.8125C288.812 11.5625 288.688 11.3125 288.562 11.0625C288.438 10.9375 288.375 10.8125 288.375 10.6875C288.375 10.5625 288.562 10.5 288.938 10.5C289.562 10.75 290.812 10.9375 292.688 11.0625C294.812 11.0625 296.875 11.0625 298.875 11.0625H303C303.75 8.4375 304.25 5.5625 304.5 2.4375C304.375 1.6875 304.875 1.3125 306 1.3125C310.375 1.9375 313.438 2.375 315.188 2.625C315.812 2.875 316.188 3.3125 316.312 3.9375C316.312 4.5625 316 4.9375 315.375 5.0625C314 5.4375 313.25 6.0625 313.125 6.9375C312.875 7.5625 312.562 8.375 312.188 9.375C311.938 10.25 311.812 10.8125 311.812 11.0625H325.875C327.375 8.4375 328.438 7.0625 329.062 6.9375C330.438 7.1875 332.5 8.5625 335.25 11.0625C335.875 12.0625 335.75 12.625 334.875 12.75C332 12.625 328.875 12.5 325.5 12.375H311.25C309.375 16.75 307.25 20.375 304.875 23.25V27C306.5 27.25 308.812 27.3125 311.812 27.1875H314.062V23.4375C313.938 22.5625 313.875 21.4375 313.875 20.0625C313.75 18.6875 313.625 17.5625 313.5 16.6875C313.25 15.6875 313.75 15.1875 315 15.1875C316.125 15.3125 317.312 15.5 318.562 15.75C319.812 15.875 320.938 16 321.938 16.125C322.438 16.25 322.75 16.625 322.875 17.25C323 17.75 322.812 18.125 322.312 18.375C321.562 18.75 321.188 19.3125 321.188 20.0625V27.1875H324.188C325.688 24.5625 326.75 23.25 327.375 23.25C328.5 23.5 330.562 24.8125 333.562 27.1875C333.938 27.6875 334.062 28.125 333.938 28.5C333.812 28.75 333.5 28.875 333 28.875C331.5 28.75 328.438 28.6875 323.812 28.6875H321.188V42.375H325.875C327.375 40.125 328.438 38.9375 329.062 38.8125C330.438 39.0625 332.5 40.3125 335.25 42.5625C335.5 42.8125 335.625 43.125 335.625 43.5C335.5 43.75 335.25 43.9375 334.875 44.0625C334.125 44.0625 332.688 44 330.562 43.875C328.062 43.875 326.375 43.875 325.5 43.875H304.875V45.5625C304.875 46.6875 304.312 47.5 303.188 48C300.938 48.375 299.5 48.5625 298.875 48.5625C297.375 48.8125 296.812 48.125 297.188 46.5C297.312 44.375 297.438 42.25 297.562 40.125C297.562 37.75 297.625 35.6875 297.75 33.9375V30.1875C295.125 31.9375 292.375 33.625 289.5 35.25C288.875 35.625 288.5 35.6875 288.375 35.4375C288.125 35.1875 288.188 34.8125 288.562 34.3125C291.812 31.1875 294.812 27.4375 297.562 23.0625C297.438 21.4375 297.312 20.1875 297.188 19.3125C296.938 18.3125 297.438 17.875 298.688 18C299.062 18.25 299.562 18.3125 300.188 18.1875C301.062 16.4375 301.875 14.5 302.625 12.375ZM304.875 28.875V42.375H314.062V28.6875H310.312C307.812 28.6875 306 28.75 304.875 28.875ZM348.75 18.9375V24.5625C349.625 24.1875 350.5 23.875 351.375 23.625L352.5 23.0625V18.375C352.375 14.875 352.125 12.0625 351.75 9.9375C351.5 9.3125 351.438 8.875 351.562 8.625C351.812 8.375 352.312 8.25 353.062 8.25C354.312 8.5 356.562 9 359.812 9.75C360.938 10.375 361.062 11.125 360.188 12C359.562 12.25 359.312 12.75 359.438 13.5V20.4375L362.062 19.3125V8.8125C361.938 8.1875 361.875 7.375 361.875 6.375C361.75 5.375 361.625 4.3125 361.5 3.1875C361.125 1.9375 361.688 1.375 363.188 1.5C364.938 1.75 367 2.125 369.375 2.625C369.875 2.875 370.188 3.25 370.312 3.75C370.312 4.25 370.062 4.5625 369.562 4.6875C369.062 5.0625 368.875 5.5625 369 6.1875V16.6875L372 15.375C373 13.125 373.75 12 374.25 12C377.75 13.5 380.062 14.8125 381.188 15.9375C381.188 16.5625 380.875 17 380.25 17.25C379.875 17.375 379.688 17.875 379.688 18.75C379.562 19.5 379.438 21.4375 379.312 24.5625C379.188 26.4375 379.125 27.75 379.125 28.5C379.125 28.875 379.062 29.25 378.938 29.625C378.938 29.875 378.938 30.0625 378.938 30.1875C379.062 30.0625 379.312 29.9375 379.688 29.8125C380.188 30.0625 380.375 30.625 380.25 31.5C379.75 36.375 380.188 39 381.562 39.375C383.188 40.375 383.938 41.375 383.812 42.375C383.688 43.625 383.125 44.5625 382.125 45.1875C380.875 46.0625 378.75 46.5 375.75 46.5H359.25C354.625 46.5 352.375 44.4375 352.5 40.3125V24.75L351.188 25.125C351.062 25.25 350.875 25.3125 350.625 25.3125C350.125 25.5625 349.5 26 348.75 26.625V34.3125C348.75 35.5625 348.75 37.3125 348.75 39.5625C348.875 41.3125 349 42.8125 349.125 44.0625C349.25 45.8125 348.688 46.875 347.438 47.25C346.438 47.625 345.125 48 343.5 48.375C341.875 48.625 341.188 48 341.438 46.5C341.562 45.125 341.688 43 341.812 40.125C341.812 37 341.875 33.375 342 29.25V23.8125C340.625 25.5625 339.188 27.125 337.688 28.5C337.188 29 336.812 29.1875 336.562 29.0625C336.312 28.9375 336.312 28.5 336.562 27.75C340.438 18.625 342.75 10.5 343.5 3.375C343.625 2 344.25 1.4375 345.375 1.6875C348.25 2.4375 350.625 3.1875 352.5 3.9375C353.5 4.6875 353.438 5.4375 352.312 6.1875C351.562 6.4375 351 7.0625 350.625 8.0625C350 10.3125 349.062 12.5625 347.812 14.8125C347.938 14.9375 348.125 15 348.375 15C348.5 15 348.688 15.0625 348.938 15.1875C349.938 15.6875 350.062 16.3125 349.312 17.0625C348.938 17.4375 348.75 18.0625 348.75 18.9375ZM362.625 40.6875H372.188C375.062 41.4375 377.125 38.4375 378.375 31.6875C377.625 33.4375 375.812 34.625 372.938 35.25C371.688 35.625 370.938 35.3125 370.688 34.3125C370.438 33.0625 369.875 32.0625 369 31.3125C369 31.6875 369 32.1875 369 32.8125C369.125 33.5625 369.188 34.125 369.188 34.5C369.188 35.625 368.625 36.3125 367.5 36.5625C365.875 37.0625 364.25 37.3125 362.625 37.3125C361.625 37.4375 361.188 36.9375 361.312 35.8125C361.438 34.0625 361.562 32.1875 361.688 30.1875C361.812 28.0625 361.938 26 362.062 24V21L359.438 21.9375V36.75C359.188 39.625 360.25 40.9375 362.625 40.6875ZM372.562 16.6875L369 18.1875V27.75V29.25C371.125 29.625 372.188 28.75 372.188 26.625C372.562 21.625 372.688 18.3125 372.562 16.6875ZM410.25 7.875V10.125C410.25 17.375 411.75 23.375 414.75 28.125C418.5 33.75 423.625 37.625 430.125 39.75C431.375 40.25 431.938 40.625 431.812 40.875C431.812 41 431.625 41.125 431.25 41.25C431.125 41.375 430.938 41.5 430.688 41.625C427.938 42.75 426.062 44.25 425.062 46.125C424.438 47.625 423.5 47.8125 422.25 46.6875C413.5 41.8125 409.25 32.5 409.5 18.75C408.625 33.875 400.5 43.25 385.125 46.875C384.75 47 384.5 46.875 384.375 46.5C384.25 46.25 384.438 46 384.938 45.75C396.812 39.5 402.75 27.375 402.75 9.375C402.625 7 402.5 5.375 402.375 4.5C402.125 3.875 402.125 3.4375 402.375 3.1875C402.5 3.0625 403 3 403.875 3C406.25 3.25 408.625 3.6875 411 4.3125C411.625 4.5625 411.938 4.9375 411.938 5.4375C411.938 6.0625 411.625 6.4375 411 6.5625C410.375 6.8125 410.125 7.25 410.25 7.875ZM455.438 25.875V11.25H444.188C443.938 11.5 443.812 11.9375 443.812 12.5625V20.625C443.938 34.125 440.812 43.0625 434.438 47.4375C433.938 47.6875 433.5 47.75 433.125 47.625C432.875 47.375 432.938 47 433.312 46.5C435.562 42.625 436.688 34.1875 436.688 21.1875V16.875C436.562 15.75 436.5 14.3125 436.5 12.5625C436.375 10.6875 436.25 9.1875 436.125 8.0625C435.75 6.6875 436.188 6.125 437.438 6.375C438.188 6.75 439.5 7.25 441.375 7.875C442.75 8.375 443.75 8.6875 444.375 8.8125C444.875 9.0625 445.188 9.375 445.312 9.75H455.438C455.062 9.375 454.875 8.8125 454.875 8.0625C454.75 5.9375 454.062 4.25 452.812 3C452.438 2.875 452.25 2.6875 452.25 2.4375C452.375 2.3125 452.688 2.1875 453.188 2.0625C457.812 1.9375 460.688 3.0625 461.812 5.4375C462.438 7.1875 461.875 8.625 460.125 9.75H468.375C469.875 7 471.125 5.4375 472.125 5.0625C473.75 5.8125 475.812 7.375 478.312 9.75C478.562 10.625 478.312 11.125 477.562 11.25C476.188 11.25 473.75 11.25 470.25 11.25C468.875 11.25 467.625 11.25 466.5 11.25H463.875C464 11.75 463.812 12.1875 463.312 12.5625C462.688 12.9375 462.438 13.625 462.562 14.625V29.625C464.438 25 465.438 20.1875 465.562 15.1875C465.562 14.4375 466.062 14.125 467.062 14.25C469.438 14.625 471.562 15.0625 473.438 15.5625C473.812 15.6875 474.062 16 474.188 16.5C474.062 17 473.812 17.25 473.438 17.25C472.812 17.5 472.312 18.0625 471.938 18.9375C471.312 20.1875 470.688 21.4375 470.062 22.6875H470.25C473.125 23.3125 475.062 24.375 476.062 25.875C476.938 28.375 476.312 30.0625 474.188 30.9375C471.688 31.6875 470.375 30.6875 470.25 27.9375C470.125 26.0625 469.812 24.625 469.312 23.625C467.312 26.75 465.312 29.125 463.312 30.75C463.188 30.875 463.062 30.9375 462.938 30.9375C462.812 31.0625 462.688 31.0625 462.562 30.9375V34.875H465.375C467 32.125 468.188 30.6875 468.938 30.5625C470.562 31.1875 472.5 32.625 474.75 34.875C475 35.875 474.75 36.4375 474 36.5625C473.125 36.5625 471.938 36.5625 470.438 36.5625C469.062 36.4375 467 36.375 464.25 36.375H462.562V44.625H468.938C470.812 41.875 472.062 40.4375 472.688 40.3125C474.938 41.3125 477 42.75 478.875 44.625C479.25 45.5 479 46.0625 478.125 46.3125C476.25 46.0625 472.562 46 467.062 46.125H444.562C443.688 46.125 442.75 46.25 441.75 46.5C441.375 46.5 441.062 46.375 440.812 46.125C440.562 45.875 440.375 45.625 440.25 45.375C440 45.125 439.812 44.9375 439.688 44.8125C439.438 44.5625 439.375 44.375 439.5 44.25C439.5 44.25 439.688 44.25 440.062 44.25C441.062 44.5 442.875 44.625 445.5 44.625H455.438V36.375H449.062C448.188 36.5 447.25 36.625 446.25 36.75C445.875 36.875 445.562 36.75 445.312 36.375C445.188 36.25 445 36.0625 444.75 35.8125C444.5 35.5625 444.375 35.3125 444.375 35.0625C444 34.9375 443.875 34.8125 444 34.6875C444 34.6875 444.188 34.625 444.562 34.5C445.688 34.875 447.562 35 450.188 34.875H455.438V30.375C454.812 30.875 454.188 31.1875 453.562 31.3125C451.312 31.6875 450.312 30.625 450.562 28.125C450.562 26.125 450.438 24.6875 450.188 23.8125C448.438 26.4375 446.5 28.6875 444.375 30.5625C443.875 30.9375 443.562 31.0625 443.438 30.9375C443.312 30.6875 443.312 30.25 443.438 29.625C445.188 25.25 446.25 20.4375 446.625 15.1875C446.5 14.3125 447 13.9375 448.125 14.0625C450 14.5625 452.062 15 454.312 15.375C454.812 15.625 455.062 15.9375 455.062 16.3125C455.062 16.8125 454.812 17.125 454.312 17.25C453.688 17.5 453.25 18 453 18.75C452.375 20.25 451.625 21.625 450.75 22.875C450.75 22.875 450.812 22.875 450.938 22.875C452.812 23.75 454.312 24.75 455.438 25.875ZM487.125 28.5V24.1875C485.375 26.0625 483.75 27.625 482.25 28.875C481.75 29.25 481.375 29.3125 481.125 29.0625C480.875 28.8125 480.875 28.4375 481.125 27.9375C483.875 23.1875 486.125 17.875 487.875 12C488.375 10.125 488.875 7.625 489.375 4.5C489.375 3.5 489.938 3.0625 491.062 3.1875C492.062 3.4375 493.938 3.9375 496.688 4.6875C497.438 4.9375 498.062 5.0625 498.562 5.0625C499.062 5.3125 499.312 5.75 499.312 6.375C499.312 6.875 499.062 7.1875 498.562 7.3125C497.688 7.5625 497.062 8.1875 496.688 9.1875C495.688 11.4375 494.562 13.625 493.312 15.75C493.688 15.875 494.125 16 494.625 16.125C495.125 16.25 495.438 16.5625 495.562 17.0625C495.562 17.4375 495.375 17.75 495 18C494.375 18.25 494.125 18.8125 494.25 19.6875V27.9375C494.25 30.0625 494.25 32.5625 494.25 35.4375C494.375 38.4375 494.5 41 494.625 43.125C495 43.125 495.812 43.125 497.062 43.125C498.812 43.25 500.125 43.3125 501 43.3125H508.875C510.75 34.9375 512 27.375 512.625 20.625C512.625 19.375 513.188 18.875 514.312 19.125C517.812 19.875 520.375 20.5625 522 21.1875C522.875 22.0625 522.812 22.75 521.812 23.25C520.812 23.375 520.25 23.8125 520.125 24.5625C517.625 31.5625 514.812 37.8125 511.688 43.3125H517.5C518.625 41.1875 519.75 39.875 520.875 39.375C522.75 40.25 524.812 41.625 527.062 43.5C527.312 44.375 527.125 44.8125 526.5 44.8125C522.5 44.8125 518.875 44.8125 515.625 44.8125H500.062C498.438 44.8125 496.875 44.9375 495.375 45.1875C495 45.1875 494.688 45.125 494.438 45C494.188 45.75 493.625 46.3125 492.75 46.6875C491.875 47.0625 490.625 47.4375 489 47.8125C487.625 47.9375 486.812 47.8125 486.562 47.4375C486.188 46.9375 486.188 45.875 486.562 44.25C486.688 42.375 486.812 39.75 486.938 36.375C486.938 33.375 487 30.75 487.125 28.5ZM500.25 35.4375C500.25 30.0625 499.375 25.25 497.625 21C497.375 20.5 497.375 20.1875 497.625 20.0625C497.875 19.8125 498.25 19.875 498.75 20.25C503.375 24 506.438 28.25 507.938 33C508.438 36.75 507.25 39 504.375 39.75C501.75 40.25 500.375 38.8125 500.25 35.4375ZM514.5 16.6875H502.312C500.438 16.8125 498.875 16.9375 497.625 17.0625C497.125 17.1875 496.812 17.0625 496.688 16.6875C496.438 16.5625 496.25 16.375 496.125 16.125C496 15.875 495.875 15.625 495.75 15.375C495.5 15 495.625 14.8125 496.125 14.8125C496.375 14.9375 497.25 15.0625 498.75 15.1875C500.375 15.1875 501.875 15.1875 503.25 15.1875H516.375C517.625 12.8125 518.75 11.375 519.75 10.875C521.875 11.875 523.938 13.375 525.938 15.375C526.188 15.75 526.25 16.125 526.125 16.5C526 16.75 525.812 16.8125 525.562 16.6875C521.688 16.6875 518 16.6875 514.5 16.6875ZM505.875 10.875C505.625 8.5 504.875 6.4375 503.625 4.6875C503.25 4.3125 503.188 4 503.438 3.75C503.562 3.5 503.938 3.4375 504.562 3.5625C508.562 4.5625 511.375 6.1875 513 8.4375C514.125 11.0625 513.312 13 510.562 14.25C507.812 15.125 506.25 14 505.875 10.875ZM530.625 32.8125V21.375C530.625 19.125 530.562 17.4375 530.438 16.3125C530.438 14.9375 530.375 13.625 530.25 12.375C530.125 11 530.562 10.5 531.562 10.875C533.438 11.5 535.438 12.3125 537.562 13.3125H537.938C537.938 11.4375 537.938 9.625 537.938 7.875C537.938 6.125 537.938 4.5 537.938 3C537.688 2.25 538.062 1.9375 539.062 2.0625C541.062 2.1875 543.125 2.5 545.25 3C546 3.125 546.375 3.4375 546.375 3.9375C546.5 4.3125 546.25 4.625 545.625 4.875C545 5.375 544.562 5.9375 544.312 6.5625C543.188 9.0625 541.938 11.3125 540.562 13.3125H544.5C545.625 11.6875 546.5 10.8125 547.125 10.6875C549.625 11.5625 551.688 12.9375 553.312 14.8125C553.312 15.4375 553 15.875 552.375 16.125C551.75 16.5 551.5 16.9375 551.625 17.4375V22.875C554 15.5 555.375 8.8125 555.75 2.8125C555.625 2.1875 555.938 1.875 556.688 1.875C559.438 2.375 562.125 3.0625 564.75 3.9375C565.25 4.3125 565.5 4.6875 565.5 5.0625C565.375 5.4375 565.062 5.75 564.562 6C563.562 6.5 563 7.125 562.875 7.875C562.25 9.875 561.562 11.6875 560.812 13.3125H565.5C567 11.3125 568.062 10.25 568.688 10.125C572.062 11.625 574.375 13.125 575.625 14.625C575.625 15.25 575.25 15.75 574.5 16.125C573.75 16.5 573.438 16.9375 573.562 17.4375C573.438 30.4375 573.188 38.625 572.812 42C572.312 45.5 569.5 47.625 564.375 48.375C562.875 48.625 562 48.3125 561.75 47.4375C561 44.5625 559.312 42.75 556.688 42C555.438 42 555 41.6875 555.375 41.0625C555.25 40.5625 555.75 40.4375 556.875 40.6875C560 41.1875 562.062 41.375 563.062 41.25C564.062 41.125 564.688 40.5 564.938 39.375C565.688 32.375 566.125 24.1875 566.25 14.8125H560.062C558.812 17.3125 557.438 19.625 555.938 21.75C560.562 23.125 563.125 25.625 563.625 29.25C563.625 32.375 562.25 34 559.5 34.125C557.25 34.375 556 33.3125 555.75 30.9375C555.875 28.4375 555.438 25.9375 554.438 23.4375C554.188 23.6875 553.938 23.9375 553.688 24.1875C552.812 25.0625 552.125 25.6875 551.625 26.0625V28.6875C551.625 31.9375 551.812 36.375 552.188 42C552.188 42.875 551.75 43.5 550.875 43.875C549.25 44.25 547.875 44.5 546.75 44.625C545.125 44.875 544.438 44.5 544.688 43.5V40.875H537.375V43.125C537.375 44.625 536.75 45.5 535.5 45.75C534.375 46 533.25 46.1875 532.125 46.3125C530.375 46.5625 529.75 45.8125 530.25 44.0625C530.375 40.8125 530.5 37.0625 530.625 32.8125ZM544.688 14.8125H538.125C537.5 15.1875 537.25 15.75 537.375 16.5V26.625H544.688V14.8125ZM537.375 28.125V39.375H544.688V28.125H537.375ZM588.75 23.25V29.0625C588.75 32.6875 588.875 37.625 589.125 43.875C589.375 45.625 588.75 46.6875 587.25 47.0625C586.375 47.4375 585.375 47.6875 584.25 47.8125C584.125 47.8125 584 47.875 583.875 48C581.75 48.625 580.938 47.5 581.438 44.625C581.562 42.25 581.688 39.6875 581.812 36.9375C581.938 34.1875 582.062 31.75 582.188 29.625C580.688 31.75 578.938 33.875 576.938 36C576.688 36.25 576.5 36.375 576.375 36.375C576.25 36.25 576.25 36 576.375 35.625C579.5 27.5 581.188 20.4375 581.438 14.4375H580.688C579.688 14.5625 578.75 14.6875 577.875 14.8125C577.5 14.9375 577.188 14.8125 576.938 14.4375C576.812 14.4375 576.688 14.3125 576.562 14.0625C576.312 13.9375 576.188 13.6875 576.188 13.3125C576.062 12.9375 576.188 12.8125 576.562 12.9375C578.188 13.1875 579.812 13.3125 581.438 13.3125H582.188V10.875C582.062 9.75 581.938 8.375 581.812 6.75C581.688 5.25 581.562 4.0625 581.438 3.1875C581.062 1.8125 581.562 1.25 582.938 1.5C585.812 1.875 587.938 2.1875 589.312 2.4375C589.812 2.5625 590.125 2.875 590.25 3.375C590.25 3.875 590 4.3125 589.5 4.6875C589 5.0625 588.75 5.75 588.75 6.75V12.375C589.875 10.875 590.75 10.0625 591.375 9.9375C593 10.5625 594.562 11.625 596.062 13.125C596.438 14 596.25 14.4375 595.5 14.4375H588.75V20.4375C591 20.8125 592.688 21.5625 593.812 22.6875C593.812 22.3125 593.75 21.9375 593.625 21.5625C593.375 20.1875 593.938 19.6875 595.312 20.0625C595.562 20.1875 597.625 20.75 601.5 21.75H602.812V17.625H594.75C593.875 17.75 592.938 17.875 591.938 18C591.438 18.125 591.125 18 591 17.625C590.875 17.5 590.75 17.3125 590.625 17.0625C590.375 16.9375 590.25 16.75 590.25 16.5C589.875 16.25 589.938 16.125 590.438 16.125C592.062 16.375 593.75 16.5 595.5 16.5H598.125V9.9375H597.375C596.125 10.0625 595.125 10.1875 594.375 10.3125C594 10.4375 593.688 10.375 593.438 10.125C592.938 9.625 592.625 9.25 592.5 9C592.25 8.875 592.125 8.75 592.125 8.625C592.25 8.5 592.438 8.4375 592.688 8.4375C594.312 8.6875 596.125 8.8125 598.125 8.8125V7.125C598 6 597.875 4.75 597.75 3.375C597.5 2 598.062 1.375 599.438 1.5C600.812 1.75 602.5 2.125 604.5 2.625C605.5 3.125 605.625 3.75 604.875 4.5C604.5 4.75 604.312 5.25 604.312 6V8.8125H607.688V7.125C607.688 5.375 607.625 4.125 607.5 3.375C607.125 2.125 607.625 1.5 609 1.5C610.5 1.75 612.25 2.125 614.25 2.625C614.75 2.75 615 3 615 3.375C615.125 3.75 615 4.0625 614.625 4.3125C614.125 4.6875 613.875 5.1875 613.875 5.8125V8.8125H614.438C615.938 6.4375 617 5.1875 617.625 5.0625C619.25 5.6875 621 6.875 622.875 8.625C623.125 9.5 622.938 9.9375 622.312 9.9375H613.875V16.5H614.625C616.25 13.875 617.375 12.5625 618 12.5625C619.625 13.1875 621.375 14.4375 623.25 16.3125C623.5 16.6875 623.562 17 623.438 17.25C623.438 17.5 623.25 17.625 622.875 17.625H610.312C610.188 17.75 610.062 17.875 609.938 18C609.812 18.25 609.75 18.375 609.75 18.375C609.375 18.75 609.188 19.3125 609.188 20.0625V21.75H611.625C612.875 20.125 613.812 19.25 614.438 19.125C616.688 20 618.562 21.1875 620.062 22.6875C620.438 23.1875 620.25 23.6875 619.5 24.1875C619.125 24.5625 618.938 25 618.938 25.5C618.812 31.125 618.875 34.4375 619.125 35.4375C619.125 36.8125 618.562 37.6875 617.438 38.0625C616.562 38.3125 615.562 38.5625 614.438 38.8125C616.062 39.1875 617.562 39.75 618.938 40.5C621.188 41.75 622.062 43.5625 621.562 45.9375C620.938 47.4375 619.938 48.25 618.562 48.375C617.312 48.5 616.125 47.625 615 45.75C613.625 43.375 611.25 41.125 607.875 39C607.25 38.75 607 38.4375 607.125 38.0625C607.125 37.8125 607.5 37.6875 608.25 37.6875C609.75 37.9375 611.25 38.1875 612.75 38.4375C612.75 38.1875 612.75 37.9375 612.75 37.6875V36.5625H600.375C602.25 37.5625 604 38.75 605.625 40.125C606 40.625 606.125 41.0625 606 41.4375C605.875 41.8125 605.625 41.9375 605.25 41.8125C604.5 41.9375 603.938 42.0625 603.562 42.1875C598.688 45.3125 594.312 47.375 590.438 48.375C589.812 48.375 589.438 48.3125 589.312 48.1875C589.188 47.9375 589.375 47.6875 589.875 47.4375C593.25 44.8125 595.875 41.875 597.75 38.625C596.75 38.875 596 39 595.5 39C594.375 39.375 593.938 38.8125 594.188 37.3125V28.5C593.812 28.875 593.438 29.0625 593.062 29.0625C591.062 29.6875 589.875 28.8125 589.5 26.4375C589.25 25.3125 589 24.25 588.75 23.25ZM604.312 9.9375V16.5H607.688V9.9375H604.312ZM609.188 35.25H612.75V29.4375H609.188V35.25ZM612.75 23.0625H609.188V28.3125H612.75V23.0625ZM600.375 29.4375V35.25H602.812V29.4375H600.375ZM600.375 24.1875V28.3125H602.812V23.0625H601.312C600.688 23.3125 600.375 23.6875 600.375 24.1875ZM640.875 15.1875H637.5V23.25C638.125 23.125 639.062 23 640.312 22.875C640.812 22.75 641.188 22.625 641.438 22.5C642.188 22.375 642.625 22.4375 642.75 22.6875C642.875 22.9375 642.625 23.25 642 23.625C641.25 24.375 639.75 25.3125 637.5 26.4375V41.625C637.5 43.875 637 45.375 636 46.125C634.75 46.75 633.062 47.375 630.938 48C629.562 48.125 628.875 47.6875 628.875 46.6875C628.625 44.9375 627.875 43.75 626.625 43.125C625.375 42.75 624.875 42.375 625.125 42C625 41.875 625.625 41.875 627 42C629.75 42.25 630.938 41.125 630.562 38.625V30.1875C629.938 30.4375 629.5 30.625 629.25 30.75C628.5 31.25 628.125 31.5625 628.125 31.6875C627.75 32.3125 627.375 32.625 627 32.625C626.625 32.5 626.312 32.125 626.062 31.5C625.938 31.125 625.625 30.375 625.125 29.25C624.75 28.25 624.5 27.25 624.375 26.25C624.125 25.5 624.5 25 625.5 24.75C626.75 24.75 628.438 24.5625 630.562 24.1875V15.1875H628.688C627.438 15.1875 626.5 15.25 625.875 15.375C625.5 15.625 625.25 15.5625 625.125 15.1875C624.75 14.8125 624.5 14.4375 624.375 14.0625C624.125 13.6875 624.25 13.5625 624.75 13.6875C625.5 13.9375 627.125 14 629.625 13.875H630.562V11.0625C630.438 10.0625 630.312 8.8125 630.188 7.3125C630.062 5.8125 629.938 4.5 629.812 3.375C629.562 2.625 629.5 2.1875 629.625 2.0625C629.75 1.8125 630.25 1.6875 631.125 1.6875C631.125 1.8125 631.25 1.875 631.5 1.875C634.5 2.25 636.688 2.5625 638.062 2.8125C638.688 2.9375 639.062 3.1875 639.188 3.5625C639.312 4.0625 639.125 4.4375 638.625 4.6875C637.75 5.0625 637.375 5.75 637.5 6.75V12.1875C638.25 11.3125 638.75 10.875 639 10.875C639.75 11.125 640.75 11.875 642 13.125C642.125 12.375 642.312 11.4375 642.562 10.3125C642.438 9.9375 642.5 9.75 642.75 9.75C642.875 9.625 643.188 9.75 643.688 10.125C644.438 11.125 645.062 12.0625 645.562 12.9375H651.188V6.5625C651.188 4.6875 651.125 3.5625 651 3.1875C650.75 1.6875 651.25 1.125 652.5 1.5C653.5 1.625 654.625 1.6875 655.875 1.6875C656.875 1.8125 657.688 1.9375 658.312 2.0625C658.812 2.1875 659.125 2.4375 659.25 2.8125C659.25 3.1875 659.062 3.4375 658.688 3.5625C658.188 3.8125 658 4.375 658.125 5.25V12.9375H663C664.375 10.8125 665.375 9.6875 666 9.5625C667.625 10.4375 669.438 11.875 671.438 13.875C671.688 14.5 671.75 15.0625 671.625 15.5625C671.375 16.0625 670.75 16.3125 669.75 16.3125C667.875 16.3125 666.062 16.875 664.312 18C664.938 18.5 665.312 18.875 665.438 19.125C665.438 19.625 665.25 20 664.875 20.25C664.5 20.5 664.312 20.8125 664.312 21.1875C664.312 22.5625 664.312 23.75 664.312 24.75C664.562 26.125 664.125 26.8125 663 26.8125C662.5 27.0625 661.625 27.3125 660.375 27.5625C659.875 27.5625 659.562 27.5625 659.438 27.5625C658.438 27.6875 658 27.125 658.125 25.875V25.6875H650.812V26.25C650.812 27.125 650.312 27.5625 649.312 27.5625C648.938 27.6875 648.312 27.8125 647.438 27.9375C646.938 28.0625 646.562 28.125 646.312 28.125C645.812 28.125 645.5 28.125 645.375 28.125C647 28.625 648.312 29.1875 649.312 29.8125H659.625C660.875 28.0625 661.688 27.1875 662.062 27.1875C664.938 28.1875 667.062 29.3125 668.438 30.5625C668.438 31.1875 668.188 31.625 667.688 31.875C667.062 32.25 666.812 32.8125 666.938 33.5625C666.938 34.5625 667 36.0625 667.125 38.0625C667.25 40.6875 667.375 42.75 667.5 44.25C667.5 45.5 666.875 46.4375 665.625 47.0625C664.75 47.3125 663.625 47.5625 662.25 47.8125C660.75 48.0625 660.125 47.625 660.375 46.5V43.5H648.375V45.1875C648.5 46.3125 647.812 47.0625 646.312 47.4375C645.562 47.5625 644.562 47.75 643.312 48C641.812 48.125 641.125 47.6875 641.25 46.6875C641.375 44.4375 641.562 42.125 641.812 39.75C641.812 38.875 641.812 37.75 641.812 36.375C641.938 35.375 642 34.625 642 34.125C641.875 31.625 641.75 29.875 641.625 28.875C641.375 28.25 641.375 27.8125 641.625 27.5625C641.875 27.3125 642.438 27.25 643.312 27.375C643.438 27.5 643.625 27.625 643.875 27.75C644.25 27.75 644.562 27.75 644.812 27.75C644.312 27.625 644.188 26.9375 644.438 25.6875C644.562 24.8125 644.625 23.125 644.625 20.625C644.625 20.5 644.625 20.375 644.625 20.25C643.625 20.75 642.562 20.8125 641.438 20.4375C639.312 19.5625 638.938 18.0625 640.312 15.9375C640.312 15.9375 640.375 15.8125 640.5 15.5625C640.625 15.4375 640.75 15.3125 640.875 15.1875ZM663.375 14.0625H646.125C646.5 15.0625 646.688 15.875 646.688 16.5C647.938 16.75 649.312 17.125 650.812 17.625C650.812 17.75 650.875 17.8125 651 17.8125C651.25 17.8125 651.375 17.875 651.375 18H657.562C658.438 16.5 659.188 15.6875 659.812 15.5625C660.062 15.5625 660.688 15.875 661.688 16.5C661.938 16.625 662.188 16.6875 662.438 16.6875L663.375 14.0625ZM645 9.9375C644.625 8.0625 643.875 6.4375 642.75 5.0625C642.375 4.6875 642.25 4.4375 642.375 4.3125C642.5 4.0625 642.875 3.9375 643.5 3.9375C646.25 4.0625 648.312 4.8125 649.688 6.1875C650.688 7.8125 650.562 9.375 649.312 10.875C646.938 12.25 645.5 11.9375 645 9.9375ZM658.125 19.125H651.188C650.938 19.5 650.812 20 650.812 20.625V24.5625H658.125V19.125ZM662.438 3.5625C664.562 4.3125 666.25 4.9375 667.5 5.4375C667.875 5.6875 668 6 667.875 6.375C667.75 6.75 667.438 6.9375 666.938 6.9375C666.562 6.9375 666.125 7.1875 665.625 7.6875C664 9.4375 662.312 10.875 660.562 12C659.938 12.375 659.5 12.5 659.25 12.375C658.875 12.25 658.875 11.875 659.25 11.25C660.375 8.75 661.062 6.375 661.312 4.125C661.438 3.5 661.812 3.3125 662.438 3.5625ZM660.375 30.9375H657.375V36.1875H660.375V30.9375ZM657.375 42.375H660.375V37.5H657.375V42.375ZM648.375 37.5V42.375H651.188V37.5H648.375ZM648.375 32.0625V36.1875H651.188V30.9375H649.688C648.812 31.0625 648.375 31.4375 648.375 32.0625ZM702.562 20.25H699V42H708.562C710.188 39.25 711.5 37.8125 712.5 37.6875C714 37.9375 716.188 39.375 719.062 42C719.438 42.25 719.562 42.5625 719.438 42.9375C719.312 43.3125 719 43.5625 718.5 43.6875C715.625 43.4375 710.812 43.375 704.062 43.5H681.562C679.938 43.5 677.625 43.6875 674.625 44.0625C674.125 44.0625 673.812 43.875 673.688 43.5C673.562 43.375 673.188 42.875 672.562 42C672.188 41.75 672.312 41.625 672.938 41.625C674.562 41.875 678 42 683.25 42H691.312V11.25C691.188 8.375 691.062 5.6875 690.938 3.1875C690.562 1.9375 691.062 1.4375 692.438 1.6875C695.562 2.0625 697.875 2.4375 699.375 2.8125C700.625 3.4375 700.75 4.1875 699.75 5.0625C699.25 5.4375 699 6 699 6.75V18.75H705.562C707.312 16 708.562 14.5 709.312 14.25C711.438 15 713.5 16.5625 715.5 18.9375C715.75 19.3125 715.812 19.6875 715.688 20.0625C715.562 20.3125 715.312 20.4375 714.938 20.4375C712.812 20.4375 710.875 20.4375 709.125 20.4375C707.5 20.3125 705.312 20.25 702.562 20.25ZM730.5 48.9375L728.625 47.4375C728.75 47.1875 728.875 46.9375 729 46.6875C731.5 43.9375 732.875 41.75 733.125 40.125C732.875 40.125 732.688 40.125 732.562 40.125C732.438 40.25 732.312 40.3125 732.188 40.3125C729.688 40.1875 728.375 38.8125 728.25 36.1875C728.375 33.8125 729.688 32.5 732.188 32.25C734.688 32.5 736.062 34.25 736.312 37.5C736.312 40.5 734.375 44.3125 730.5 48.9375ZM799.312 11.8125H806.062C807.312 9.5625 808.375 8.25 809.25 7.875C810.375 8.125 812.125 9.4375 814.5 11.8125C815.125 12.9375 814.938 13.5625 813.938 13.6875C812.188 13.5625 810.312 13.5 808.312 13.5C806.688 13.375 804.25 13.3125 801 13.3125H799.5C799.5 15.9375 799.688 18.4375 800.062 20.8125C800.312 23.0625 800.688 25.0625 801.188 26.8125C801.312 26.6875 801.5 26.375 801.75 25.875C802.875 23 803.625 20.1875 804 17.4375C804 16.4375 804.688 16.125 806.062 16.5C808.688 17.25 811.062 18.125 813.188 19.125C813.812 19.875 813.625 20.5 812.625 21C811.875 21.25 811.375 21.8125 811.125 22.6875C808.875 27.5625 806.5 31.5 804 34.5C805.125 36.5 806.375 37.9375 807.75 38.8125C808.625 39.3125 809.25 39.25 809.625 38.625C810.5 37.25 811.438 35.4375 812.438 33.1875C812.562 32.5625 812.75 32.25 813 32.25C813.375 32.25 813.562 32.5 813.562 33C813.562 33.5 813.5 34.5 813.375 36C813.375 38 813.375 39.375 813.375 40.125C813.25 41.25 813.688 42.25 814.688 43.125C815.562 45.5 814.562 47.0625 811.688 47.8125C809.312 47.9375 806.875 47.125 804.375 45.375C802.25 44 800.375 42.125 798.75 39.75C794 43 787.938 45.3125 780.562 46.6875C779.438 46.8125 778.812 46.75 778.688 46.5C778.562 46.125 779.062 45.6875 780.188 45.1875C787.062 42.0625 792.375 38.4375 796.125 34.3125C793.875 28.3125 792.625 21.3125 792.375 13.3125H778.125C776.625 13.4375 774.375 13.625 771.375 13.875C771.25 13.875 771.125 13.9375 771 14.0625C770.75 14.0625 770.562 13.875 770.438 13.5C769.938 13 769.625 12.4375 769.5 11.8125C769.25 11.6875 769.125 11.5625 769.125 11.4375C769.25 11.3125 769.438 11.25 769.688 11.25C770.312 11.5 771.562 11.625 773.438 11.625C775.688 11.75 777.812 11.8125 779.812 11.8125H792.375C792.375 11.4375 792.312 10.875 792.188 10.125C792.062 9.5 792.062 8.9375 792.188 8.4375C792.062 7.0625 791.938 5.3125 791.812 3.1875C791.438 2.1875 791.875 1.6875 793.125 1.6875C794.125 1.8125 795.688 2.0625 797.812 2.4375C798.188 2.5625 798.688 2.625 799.312 2.625C799.938 2.75 800.312 3.1875 800.438 3.9375C800.438 3.8125 800.625 3.75 801 3.75C803.25 3.5 805.188 3.8125 806.812 4.6875C808.562 6.1875 808.625 7.875 807 9.75C804.875 11.125 803.438 10.8125 802.688 8.8125C802.062 7.0625 801.375 5.6875 800.625 4.6875C800.625 4.6875 800.562 4.625 800.438 4.5C800.312 4.5 800.312 4.4375 800.438 4.3125C800.312 4.4375 800.125 4.5625 799.875 4.6875C799.375 4.9375 799.188 5.5625 799.312 6.5625C799.312 8.4375 799.312 10.1875 799.312 11.8125ZM772.875 26.25V23.0625C772.75 21.3125 772.625 19.75 772.5 18.375C772.25 17.125 772.75 16.625 774 16.875C774.125 17 774.375 17.125 774.75 17.25C776.625 17.75 778.062 18.125 779.062 18.375C779.562 18.625 779.812 18.8125 779.812 18.9375H783.375C784.25 17.4375 785 16.625 785.625 16.5C787.25 16.75 789.188 17.6875 791.438 19.3125C792.062 20.1875 792.125 20.8125 791.625 21.1875C791 21.6875 790.75 22.1875 790.875 22.6875V31.3125C790.875 32.3125 790.562 32.9375 789.938 33.1875C788.312 33.5625 787.125 33.75 786.375 33.75C784.75 33.875 784.062 33.5 784.312 32.625V30.5625H779.25V32.625C779.25 33.75 778.812 34.4375 777.938 34.6875C777.188 35.0625 775.812 35.1875 773.812 35.0625C772.812 35.4375 772.375 35.125 772.5 34.125C772.625 32.5 772.75 29.875 772.875 26.25ZM774.188 44.625C773.438 44.875 772.938 45.125 772.688 45.375C772.188 45.875 771.75 46.0625 771.375 45.9375C771.125 45.8125 770.875 45.4375 770.625 44.8125C769.625 42.4375 769 40.5 768.75 39C768.375 38.25 768.875 37.8125 770.25 37.6875C774.875 37.3125 782.5 36.1875 793.125 34.3125C793.875 34.1875 794.312 34.3125 794.438 34.6875C794.438 35.0625 794.125 35.375 793.5 35.625C790.25 37.375 784.625 39.9375 776.625 43.3125C775.5 43.9375 774.688 44.375 774.188 44.625ZM784.312 20.4375H779.25V29.0625H784.312V20.4375ZM852.375 21H847.5C845.25 23.25 842.812 25.3125 840.188 27.1875H846.188C847.438 25.3125 848.5 24.3125 849.375 24.1875C851.75 25.0625 853.875 26.5 855.75 28.5C856 29.125 855.812 29.6875 855.188 30.1875C854.562 30.4375 854.25 30.9375 854.25 31.6875C854.25 33.8125 854.438 38.125 854.812 44.625C854.938 46.25 854.438 47.1875 853.312 47.4375C852.188 47.8125 850.812 48.0625 849.188 48.1875C847.562 48.4375 846.875 47.875 847.125 46.5V43.6875H835.688V44.625C835.688 46.375 835 47.4375 833.625 47.8125C832.5 47.9375 831.188 48.0625 829.688 48.1875C828.438 48.4375 827.875 47.875 828 46.5C828.375 40.875 828.562 36.625 828.562 33.75C825.188 35.375 821.562 36.8125 817.688 38.0625C816.938 38.4375 816.5 38.4375 816.375 38.0625C816.375 37.6875 816.75 37.25 817.5 36.75C821.5 34.125 825.125 31.6875 828.375 29.4375C828.375 28.3125 828.312 27.375 828.188 26.625C827.938 25.625 828.375 25.1875 829.5 25.3125C830.5 25.3125 831.688 25.5 833.062 25.875C833.188 25.875 833.312 25.75 833.438 25.5C835.188 24.125 836.938 22.625 838.688 21H823.688C821.938 21.125 820.062 21.25 818.062 21.375C817.688 21.5 817.438 21.375 817.312 21C817.062 20.875 816.812 20.625 816.562 20.25C816.438 20 816.375 19.8125 816.375 19.6875C816.125 19.4375 816.062 19.3125 816.188 19.3125C816.188 19.1875 816.375 19.125 816.75 19.125C817.875 19.5 820.375 19.625 824.25 19.5H834.188V12.1875H828.188C825.438 12.1875 823.562 12.3125 822.562 12.5625C822.188 12.6875 821.875 12.5 821.625 12C821.375 11.875 821.125 11.625 820.875 11.25C820.75 11 820.688 10.8125 820.688 10.6875C820.438 10.3125 820.562 10.1875 821.062 10.3125C823.312 10.5625 825.875 10.6875 828.75 10.6875H834.188C834.188 7.0625 834 4.5625 833.625 3.1875C833.375 2.1875 833.875 1.6875 835.125 1.6875C836.25 1.8125 837.5 1.875 838.875 1.875C840.25 2 841.312 2.125 842.062 2.25C843.062 2.875 843.125 3.625 842.25 4.5C841.875 4.75 841.688 5.25 841.688 6V10.3125C842.938 7.9375 843.875 6.75 844.5 6.75C845.125 7 846.438 7.875 848.438 9.375C849.188 8.125 849.938 6.8125 850.688 5.4375C851.062 4.5625 851.812 4.3125 852.938 4.6875C854.312 5.4375 856.188 6.6875 858.562 8.4375C859.062 9.0625 859.188 9.625 858.938 10.125C858.812 10.625 858.438 10.8125 857.812 10.6875C856.812 10.8125 855.938 11.3125 855.188 12.1875C853.062 15.0625 851 17.5 849 19.5H853.688C855.438 16.5 856.688 15 857.438 15C858.938 15.5 860.875 17 863.25 19.5C863.5 20 863.562 20.4375 863.438 20.8125C863.188 21.1875 862.875 21.3125 862.5 21.1875C861.625 21.1875 860.375 21.1875 858.75 21.1875C857.5 21.0625 855.375 21 852.375 21ZM835.688 36V42.1875H847.125V36H835.688ZM847.125 28.6875H838.125L835.688 30V34.5H847.125V28.6875ZM846.562 12.1875H841.688V18C843.312 16.25 844.938 14.3125 846.562 12.1875ZM871.5 36.75V8.25H869.062C868.062 8.375 867.125 8.5 866.25 8.625C865.75 8.75 865.438 8.6875 865.312 8.4375C865.062 8.3125 864.875 8.0625 864.75 7.6875C864.5 7.4375 864.375 7.1875 864.375 6.9375C864.125 6.6875 864.25 6.5625 864.75 6.5625C866.375 6.8125 868.062 6.9375 869.812 6.9375H877.875C879.125 4.8125 880.188 3.5625 881.062 3.1875C881.688 3.3125 882.75 3.9375 884.25 5.0625C884.625 5.0625 885.25 5.125 886.125 5.25C887.125 5.25 887.938 5.25 888.562 5.25H901.688C903.438 2.625 904.625 1.3125 905.25 1.3125C906.625 1.5625 908.625 2.875 911.25 5.25C911.5 6.25 911.25 6.75 910.5 6.75C909.5 6.75 908.125 6.75 906.375 6.75C904.875 6.625 902.688 6.5625 899.812 6.5625H899.438C899.562 7.1875 899.312 7.6875 898.688 8.0625C898.062 8.4375 897.5 8.9375 897 9.5625C896.125 11.5625 895.125 13.125 894 14.25H899.812C900.812 12.625 901.688 11.75 902.438 11.625C904.562 12.125 906.562 13.25 908.438 15C909.188 15.625 909.188 16.25 908.438 16.875C907.812 17.25 907.5 17.8125 907.5 18.5625V23.25C907.5 26.125 907.625 29.875 907.875 34.5C907.875 36 907.312 36.9375 906.188 37.3125C905.688 37.4375 904.438 37.625 902.438 37.875C901.062 38.25 900.438 37.625 900.562 36V35.25H889.5C889.375 36.125 888.812 36.75 887.812 37.125C887.438 37.375 886.875 37.5625 886.125 37.6875C885.5 37.8125 885 37.875 884.625 37.875C882.875 38.375 882.125 37.625 882.375 35.625C882.5 31.875 882.625 28.25 882.75 24.75V21C882.625 19.5 882.562 18 882.562 16.5C882.438 15 882.312 13.875 882.188 13.125C881.812 11.75 882.375 11.1875 883.875 11.4375C884.5 11.6875 885.562 12.125 887.062 12.75C887.688 13 888.375 13.1875 889.125 13.3125C889.625 13.5625 890 13.875 890.25 14.25C890.875 11.5 891.125 8.9375 891 6.5625H886.688C886.438 6.5625 886.25 6.625 886.125 6.75C886.75 7.625 886.625 8.125 885.75 8.25H880.125C880 8.875 879.75 9.375 879.375 9.75C878.625 10.125 878.312 10.6875 878.438 11.4375V23.25C878.438 26.625 878.562 32.25 878.812 40.125C878.812 42.25 878 43.8125 876.375 44.8125C875.625 45.3125 874.688 45.6875 873.562 45.9375C874.688 45.6875 874.5 45.8125 873 46.3125C871.375 46.8125 870.438 46.375 870.188 45C869.438 43 868.188 41.9375 866.438 41.8125C865.312 41.4375 864.812 41.0625 864.938 40.6875C864.812 40.3125 865.438 40.1875 866.812 40.3125C870.062 40.6875 871.625 39.5 871.5 36.75ZM888.938 37.125C892.688 39.875 894.562 41.1875 894.562 41.0625C895.062 41.4375 895.25 41.75 895.125 42C895 42.375 894.688 42.5625 894.188 42.5625C893.312 42.3125 892.5 42.5 891.75 43.125C888.25 45.125 883.875 46.8125 878.625 48.1875C877.75 48.3125 877.25 48.25 877.125 48C876.875 47.625 877.125 47.25 877.875 46.875C882.625 43.625 885.875 40.5625 887.625 37.6875C887.875 37.1875 888.312 37 888.938 37.125ZM903.188 45.75C901.812 43.25 899.438 41.1875 896.062 39.5625C895.688 39.5625 895.562 39.4375 895.688 39.1875C895.812 38.9375 896.062 38.75 896.438 38.625C901.312 38.625 905.125 39.4375 907.875 41.0625C909.625 42.5625 909.812 44.375 908.438 46.5C906.188 48.375 904.438 48.125 903.188 45.75ZM889.5 33.9375H900.562V28.3125H889.312C889.188 29.9375 889.25 31.8125 889.5 33.9375ZM889.312 27H900.562V22.125H889.312V27ZM900.562 15.75H889.312V20.625H900.562V15.75ZM948.188 11.8125H941.062C941.188 12.4375 941 12.875 940.5 13.125C939.5 13.375 938.875 13.9375 938.625 14.8125C938.375 15.0625 938.188 15.375 938.062 15.75C937.938 16.125 937.812 16.375 937.688 16.5H944.438C945.938 14 947 12.75 947.625 12.75C948.75 12.875 950.625 14.0625 953.25 16.3125C953.625 16.6875 953.75 17.0625 953.625 17.4375C953.375 17.8125 953.062 17.9375 952.688 17.8125C949.812 17.8125 947.062 17.8125 944.438 17.8125H937.125C936.125 19.3125 935.188 20.8125 934.312 22.3125H949.5C951 19.9375 952.188 18.5625 953.062 18.1875C954.562 18.6875 956.438 20 958.688 22.125C959.062 22.625 959.188 23.0625 959.062 23.4375C959.062 23.6875 958.75 23.8125 958.125 23.8125C957.625 23.8125 956.562 23.8125 954.938 23.8125C952.812 23.8125 950.375 23.75 947.625 23.625H933.375C932.625 24.75 931.812 25.8125 930.938 26.8125C931.062 26.8125 931.188 26.8125 931.312 26.8125C931.438 26.9375 931.625 27.125 931.875 27.375C931.875 27.5 931.938 27.5625 932.062 27.5625H943.312C944.562 25.9375 945.438 25 945.938 24.75C947.688 25.25 949.875 26.5625 952.5 28.6875C953 29.5625 952.875 30.1875 952.125 30.5625C951.375 31.1875 951 31.6875 951 32.0625V32.8125C951 35.0625 951.062 37.5 951.188 40.125C951.188 42.25 951.312 43.875 951.562 45C951.562 46.375 951.062 47.3125 950.062 47.8125C949.438 47.9375 948.75 48.0625 948 48.1875C947.125 48.1875 946.375 48.25 945.75 48.375C944.375 48.375 943.75 47.8125 943.875 46.6875V44.4375H930.938V45.1875C930.938 46.3125 930.5 47.0625 929.625 47.4375C928.375 47.9375 926.938 48.3125 925.312 48.5625C923.688 48.5625 923.062 47.875 923.438 46.5C923.562 44.25 923.688 40.5625 923.812 35.4375V33.375C920.688 35.625 917.375 37.4375 913.875 38.8125C913.25 39.1875 912.875 39.25 912.75 39C912.625 38.625 912.812 38.1875 913.312 37.6875C918.688 33.6875 922.875 29 925.875 23.625H920.812C919.812 23.75 918.75 23.8125 917.625 23.8125C916.5 23.9375 915.625 24.0625 915 24.1875C914.75 24.3125 914.5 24.1875 914.25 23.8125C913.875 23.5625 913.5 23.125 913.125 22.5C912.875 22.375 912.75 22.25 912.75 22.125C912.875 22 913.062 21.9375 913.312 21.9375C913.938 22.0625 915.125 22.1875 916.875 22.3125C918.75 22.3125 920.375 22.3125 921.75 22.3125H926.812C926.938 21.8125 927.25 21.0625 927.75 20.0625C928.125 19.1875 928.438 18.4375 928.688 17.8125H924.375C922.375 17.8125 920.688 18 919.312 18.375C918.938 18.5 918.688 18.375 918.562 18C918.062 17.75 917.75 17.3125 917.625 16.6875C917.375 16.3125 917.438 16.1875 917.812 16.3125C919.062 16.5625 921.625 16.625 925.5 16.5H929.25C929.25 16.375 929.312 16 929.438 15.375C929.938 13.875 930.312 12.6875 930.562 11.8125H922.312C921.188 11.8125 919.812 12 918.188 12.375C917.688 12.375 917.312 12.375 917.062 12.375C916.688 12.5 916.438 12.4375 916.312 12.1875C916.062 12.0625 915.875 11.875 915.75 11.625C915.625 11.375 915.5 11.125 915.375 10.875C915.25 10.625 915.188 10.5 915.188 10.5C915.188 10.375 915.375 10.3125 915.75 10.3125C918.25 10.5625 920.75 10.6875 923.25 10.6875H928.125C927.625 10.3125 927.312 9.6875 927.188 8.8125C926.938 6.4375 926.25 4.5625 925.125 3.1875C924.75 2.9375 924.625 2.75 924.75 2.625C924.75 2.5 925.062 2.4375 925.688 2.4375C929.938 2.3125 932.688 3.25 933.938 5.25C934.938 7.5 934.375 9.3125 932.25 10.6875H937.688C938.562 7.8125 939.062 5.1875 939.188 2.8125C939.062 1.9375 939.562 1.625 940.688 1.875C941.312 2.125 942.438 2.4375 944.062 2.8125C945.688 3.1875 946.875 3.4375 947.625 3.5625C948.25 4.3125 948.125 4.875 947.25 5.25C946.625 5.25 946.062 5.5 945.562 6C944.312 7.75 942.875 9.3125 941.25 10.6875H948.375C948.375 10.6875 948.438 10.5625 948.562 10.3125C950.062 7.9375 951.062 6.75 951.562 6.75C952.938 7.125 954.812 8.375 957.188 10.5C957.438 10.875 957.5 11.25 957.375 11.625C957.25 11.875 957 12 956.625 12C955.25 12 953.938 12 952.688 12C951.812 11.875 950.312 11.8125 948.188 11.8125ZM930.938 39.1875V43.125H943.875V39.1875H930.938ZM930.938 34.125V37.875H943.875V34.125H930.938ZM943.875 29.0625H931.125C931.125 29.1875 931.062 29.3125 930.938 29.4375C930.938 29.5625 930.938 29.6875 930.938 29.8125V32.625H943.875V29.0625ZM971.812 5.625H978C978.875 4.125 979.625 3.3125 980.25 3.1875C982.75 3.9375 984.812 5.0625 986.438 6.5625C986.688 7.1875 986.562 7.625 986.062 7.875C985.438 8.25 985.188 8.625 985.312 9C985.312 13.75 985.375 16.5 985.5 17.25C985.5 18.5 985.125 19.125 984.375 19.125C982.75 19.625 981.188 19.875 979.688 19.875C978.688 20 978.25 19.5 978.375 18.375V17.625H971.25V17.8125C971.25 18.4375 971.188 18.8125 971.062 18.9375C972.062 18.9375 973.688 19.25 975.938 19.875C976.188 19.875 976.438 19.875 976.688 19.875C977.188 20.125 977.438 20.375 977.438 20.625C977.562 20.875 977.438 21.1875 977.062 21.5625C976.562 21.8125 976.375 22.25 976.5 22.875C976.25 23.5 976.188 24.4375 976.312 25.6875H979.312C980.188 24.3125 981.062 23.5 981.938 23.25C983.688 23.75 985.688 24.875 987.938 26.625C988.312 27.5 988.125 28 987.375 28.125C986.75 28.5 986.375 28.9375 986.25 29.4375L985.312 42C985.062 44.25 984.188 45.8125 982.688 46.6875C980.688 47.4375 979.062 47.9375 977.812 48.1875C976.438 48.3125 975.625 47.875 975.375 46.875C975 44.75 974.062 43.125 972.562 42C971.812 41.875 971.562 41.625 971.812 41.25C971.812 40.75 972.312 40.625 973.312 40.875C976.938 41.625 978.625 41.1875 978.375 39.5625L979.5 27.1875H976.125C975.125 36.9375 970.188 43.5625 961.312 47.0625C960.812 47.1875 960.438 47.1875 960.188 47.0625C960.062 46.6875 960.125 46.375 960.375 46.125C965.75 40.625 968.688 34.3125 969.188 27.1875H965.062C963.812 27.1875 962.812 27.25 962.062 27.375C961.688 27.5 961.438 27.4375 961.312 27.1875C961.188 27.0625 961.062 26.875 960.938 26.625C960.812 26.375 960.75 26.125 960.75 25.875C960.5 25.625 960.625 25.5 961.125 25.5C961.25 25.5 961.562 25.5625 962.062 25.6875C963.562 25.6875 964.75 25.6875 965.625 25.6875H969.375C969.375 25.4375 969.375 25.125 969.375 24.75C969.375 22.375 969.312 20.9375 969.188 20.4375C969.188 20.4375 969.188 20.375 969.188 20.25C968.938 20.375 968.562 20.5 968.062 20.625C966.688 20.875 965.875 20.9375 965.625 20.8125C964.375 21.0625 963.938 20.25 964.312 18.375C964.312 18.125 964.312 17.25 964.312 15.75C964.438 13 964.5 11.0625 964.5 9.9375C964.5 6.9375 964.438 5.1875 964.312 4.6875C964.188 3.9375 964.25 3.5 964.5 3.375C964.625 3.125 965.062 3.0625 965.812 3.1875C967.188 3.5625 969 4.1875 971.25 5.0625C971.625 5.3125 971.812 5.5 971.812 5.625ZM998.625 38.0625V12.1875C998.5 10.6875 998.438 9.1875 998.438 7.6875C998.312 6.3125 998.188 5.25 998.062 4.5C997.812 3.875 997.75 3.4375 997.875 3.1875C998.125 2.9375 998.625 2.8125 999.375 2.8125C999.75 2.9375 1000.19 3.0625 1000.69 3.1875C1003.06 3.4375 1004.88 3.75 1006.12 4.125C1006.62 4.375 1006.94 4.6875 1007.06 5.0625C1007.19 5.4375 1007.06 5.75 1006.69 6C1005.94 6.375 1005.56 7.125 1005.56 8.25V25.5C1005.44 29.625 1005.5 34.1875 1005.75 39.1875C1005.75 40.5625 1005.81 41.5 1005.94 42C1006.19 44.625 1005.19 46.3125 1002.94 47.0625C1001.44 47.4375 1000.25 47.6875 999.375 47.8125C997.625 48.0625 996.688 47.6875 996.562 46.6875C996.188 44.6875 995 43.3125 993 42.5625C992 42.1875 991.5 41.9375 991.5 41.8125C991.375 41.3125 992.062 41.125 993.562 41.25C997.312 41.75 999 40.6875 998.625 38.0625ZM988.875 26.625V13.875C988.875 10.875 988.812 8.8125 988.688 7.6875C988.438 7.0625 988.438 6.6875 988.688 6.5625C988.812 6.4375 989.25 6.375 990 6.375C990 6.5 990.125 6.5625 990.375 6.5625C992.75 6.8125 994.438 7 995.438 7.125C996.312 7.5 996.438 8.0625 995.812 8.8125C995.438 9.1875 995.25 9.75 995.25 10.5V33.375C995.25 34.75 994.688 35.5 993.562 35.625C993.188 35.75 992.688 35.875 992.062 36C991.188 36.125 990.625 36.1875 990.375 36.1875C988.75 36.4375 988.188 35.75 988.688 34.125C988.812 33.5 988.875 31 988.875 26.625ZM978.375 7.125H971.438C971.188 7.375 971.125 7.75 971.25 8.25V16.125H978.375V7.125ZM1034.25 7.875V10.125C1034.25 17.375 1035.75 23.375 1038.75 28.125C1042.5 33.75 1047.62 37.625 1054.12 39.75C1055.38 40.25 1055.94 40.625 1055.81 40.875C1055.81 41 1055.62 41.125 1055.25 41.25C1055.12 41.375 1054.94 41.5 1054.69 41.625C1051.94 42.75 1050.06 44.25 1049.06 46.125C1048.44 47.625 1047.5 47.8125 1046.25 46.6875C1037.5 41.8125 1033.25 32.5 1033.5 18.75C1032.62 33.875 1024.5 43.25 1009.12 46.875C1008.75 47 1008.5 46.875 1008.38 46.5C1008.25 46.25 1008.44 46 1008.94 45.75C1020.81 39.5 1026.75 27.375 1026.75 9.375C1026.62 7 1026.5 5.375 1026.38 4.5C1026.12 3.875 1026.12 3.4375 1026.38 3.1875C1026.5 3.0625 1027 3 1027.88 3C1030.25 3.25 1032.62 3.6875 1035 4.3125C1035.62 4.5625 1035.94 4.9375 1035.94 5.4375C1035.94 6.0625 1035.62 6.4375 1035 6.5625C1034.38 6.8125 1034.12 7.25 1034.25 7.875ZM1058.62 32.8125V21.375C1058.62 19.125 1058.56 17.4375 1058.44 16.3125C1058.44 14.9375 1058.38 13.625 1058.25 12.375C1058.12 11 1058.56 10.5 1059.56 10.875C1061.44 11.5 1063.44 12.3125 1065.56 13.3125H1065.94C1065.94 11.4375 1065.94 9.625 1065.94 7.875C1065.94 6.125 1065.94 4.5 1065.94 3C1065.69 2.25 1066.06 1.9375 1067.06 2.0625C1069.06 2.1875 1071.12 2.5 1073.25 3C1074 3.125 1074.38 3.4375 1074.38 3.9375C1074.5 4.3125 1074.25 4.625 1073.62 4.875C1073 5.375 1072.56 5.9375 1072.31 6.5625C1071.19 9.0625 1069.94 11.3125 1068.56 13.3125H1072.5C1073.62 11.6875 1074.5 10.8125 1075.12 10.6875C1077.62 11.5625 1079.69 12.9375 1081.31 14.8125C1081.31 15.4375 1081 15.875 1080.38 16.125C1079.75 16.5 1079.5 16.9375 1079.62 17.4375V22.875C1082 15.5 1083.38 8.8125 1083.75 2.8125C1083.62 2.1875 1083.94 1.875 1084.69 1.875C1087.44 2.375 1090.12 3.0625 1092.75 3.9375C1093.25 4.3125 1093.5 4.6875 1093.5 5.0625C1093.38 5.4375 1093.06 5.75 1092.56 6C1091.56 6.5 1091 7.125 1090.88 7.875C1090.25 9.875 1089.56 11.6875 1088.81 13.3125H1093.5C1095 11.3125 1096.06 10.25 1096.69 10.125C1100.06 11.625 1102.38 13.125 1103.62 14.625C1103.62 15.25 1103.25 15.75 1102.5 16.125C1101.75 16.5 1101.44 16.9375 1101.56 17.4375C1101.44 30.4375 1101.19 38.625 1100.81 42C1100.31 45.5 1097.5 47.625 1092.38 48.375C1090.88 48.625 1090 48.3125 1089.75 47.4375C1089 44.5625 1087.31 42.75 1084.69 42C1083.44 42 1083 41.6875 1083.38 41.0625C1083.25 40.5625 1083.75 40.4375 1084.88 40.6875C1088 41.1875 1090.06 41.375 1091.06 41.25C1092.06 41.125 1092.69 40.5 1092.94 39.375C1093.69 32.375 1094.12 24.1875 1094.25 14.8125H1088.06C1086.81 17.3125 1085.44 19.625 1083.94 21.75C1088.56 23.125 1091.12 25.625 1091.62 29.25C1091.62 32.375 1090.25 34 1087.5 34.125C1085.25 34.375 1084 33.3125 1083.75 30.9375C1083.88 28.4375 1083.44 25.9375 1082.44 23.4375C1082.19 23.6875 1081.94 23.9375 1081.69 24.1875C1080.81 25.0625 1080.12 25.6875 1079.62 26.0625V28.6875C1079.62 31.9375 1079.81 36.375 1080.19 42C1080.19 42.875 1079.75 43.5 1078.88 43.875C1077.25 44.25 1075.88 44.5 1074.75 44.625C1073.12 44.875 1072.44 44.5 1072.69 43.5V40.875H1065.38V43.125C1065.38 44.625 1064.75 45.5 1063.5 45.75C1062.38 46 1061.25 46.1875 1060.12 46.3125C1058.38 46.5625 1057.75 45.8125 1058.25 44.0625C1058.38 40.8125 1058.5 37.0625 1058.62 32.8125ZM1072.69 14.8125H1066.12C1065.5 15.1875 1065.25 15.75 1065.38 16.5V26.625H1072.69V14.8125ZM1065.38 28.125V39.375H1072.69V28.125H1065.38ZM1138.69 10.5H1137.38C1137.25 10.625 1137.19 10.8125 1137.19 11.0625C1137.06 11.3125 1137 11.4375 1137 11.4375C1139.88 11.6875 1142.38 12.4375 1144.5 13.6875C1145.62 15.0625 1146 16.375 1145.62 17.625C1145.75 17.5 1145.94 17.4375 1146.19 17.4375C1147.44 17.9375 1149.19 19.125 1151.44 21C1151.69 21.5 1151.81 21.8125 1151.81 21.9375C1151.56 22.3125 1151.31 22.5 1151.06 22.5H1148.06C1148.06 22.75 1147.88 23 1147.5 23.25C1147.12 23.75 1146.94 24.25 1146.94 24.75V29.25C1146.81 34.125 1146.88 38.1875 1147.12 41.4375C1147.25 43.5625 1146.5 45.125 1144.88 46.125C1143.12 47.25 1141.38 48 1139.62 48.375C1138.5 48.75 1137.75 48.3125 1137.38 47.0625C1136.62 44.9375 1135.31 43.625 1133.44 43.125C1132.19 42.875 1131.62 42.625 1131.75 42.375C1131.62 42.125 1132.25 42 1133.62 42C1138.25 42.375 1140.38 41 1140 37.875V22.5H1124.25C1124.12 22.75 1124.19 22.875 1124.44 22.875C1124.69 23.875 1124.81 24.6875 1124.81 25.3125C1126.31 25.5625 1127.81 25.9375 1129.31 26.4375C1129.94 26.6875 1130.19 27 1130.06 27.375H1131.19C1131.94 26 1132.62 25.25 1133.25 25.125C1134.38 25.25 1136.06 26.0625 1138.31 27.5625C1139.06 28.3125 1139.06 28.9375 1138.31 29.4375C1137.81 29.6875 1137.56 30.0625 1137.56 30.5625V32.8125C1137.56 33.3125 1137.56 34.1875 1137.56 35.4375C1137.69 36.6875 1137.75 37.5625 1137.75 38.0625C1137.88 39.3125 1137.44 40 1136.44 40.125C1135.19 40.5 1133.94 40.6875 1132.69 40.6875C1131.94 40.9375 1131.56 40.4375 1131.56 39.1875V37.125H1129.12V39C1129.12 40.125 1128.81 40.6875 1128.19 40.6875C1126.94 40.9375 1125.69 41.0625 1124.44 41.0625C1123.31 41.0625 1122.81 40.5 1122.94 39.375C1123.06 37.875 1123.12 35.6875 1123.12 32.8125V30.9375C1123.12 29.9375 1123.12 28.9375 1123.12 27.9375C1122.62 28.1875 1122.31 28.375 1122.19 28.5C1119.94 28.875 1118.75 27.8125 1118.62 25.3125C1118.38 23.6875 1118.06 22.25 1117.69 21V28.5C1117.56 36.25 1117.62 41.625 1117.88 44.625C1118 46.125 1117.38 47.125 1116 47.625C1115.5 47.75 1114.62 47.9375 1113.38 48.1875C1113 48.1875 1112.75 48.25 1112.62 48.375C1110.62 48.625 1109.81 47.8125 1110.19 45.9375C1110.19 44.3125 1110.25 41.25 1110.38 36.75C1110.5 33.375 1110.62 30.9375 1110.75 29.4375C1109.12 31.4375 1107.31 33.25 1105.31 34.875C1104.81 35.25 1104.5 35.375 1104.38 35.25C1104.12 35.125 1104.12 34.8125 1104.38 34.3125C1107.5 27.5625 1109.44 21 1110.19 14.625H1108.88C1107.38 14.625 1106.5 14.6875 1106.25 14.8125C1105.75 15.0625 1105.44 15 1105.31 14.625C1104.94 14.5 1104.62 14.0625 1104.38 13.3125C1104.12 13.1875 1104 13.0625 1104 12.9375C1104.12 12.9375 1104.31 12.875 1104.56 12.75C1105.56 13.125 1107.31 13.25 1109.81 13.125H1110.75V11.0625C1110.62 10.3125 1110.56 9.125 1110.56 7.5C1110.44 5.625 1110.31 4.125 1110.19 3C1109.81 1.75 1110.31 1.1875 1111.69 1.3125C1114.81 1.6875 1117 2.0625 1118.25 2.4375C1119.25 3.0625 1119.31 3.75 1118.44 4.5C1117.81 4.75 1117.56 5.375 1117.69 6.375V13.125H1118.44C1119.69 11 1120.69 9.8125 1121.44 9.5625C1122.19 9.8125 1122.94 10.1875 1123.69 10.6875C1123.06 10.1875 1122.69 9.6875 1122.56 9.1875C1122.44 8.9375 1122.38 8.8125 1122.38 8.8125C1122.38 8.6875 1122.56 8.625 1122.94 8.625C1123.06 8.75 1123.38 8.8125 1123.88 8.8125C1126.12 9.1875 1127.56 9.3125 1128.19 9.1875H1130.81C1130.94 8.8125 1131 8.5 1131 8.25C1131.12 6.5 1131.12 4.5625 1131 2.4375C1130.62 1.6875 1131 1.3125 1132.12 1.3125C1134.38 1.3125 1136.69 1.5 1139.06 1.875C1139.56 2.125 1139.88 2.5 1140 3C1140 3.5 1139.75 3.875 1139.25 4.125C1138.75 4.5 1138.44 5.0625 1138.31 5.8125C1138.31 6.9375 1138.12 8.0625 1137.75 9.1875H1140.94C1142.56 6.5625 1143.69 5.1875 1144.31 5.0625C1145.94 5.5625 1147.88 6.875 1150.12 9C1150.38 10 1150.12 10.5625 1149.38 10.6875C1148.38 10.6875 1147 10.6875 1145.25 10.6875C1143.75 10.5625 1141.56 10.5 1138.69 10.5ZM1125.94 14.625H1117.69V18.5625C1120.06 19.1875 1121.88 20 1123.12 21H1123.5C1123.38 20.875 1123.44 20.75 1123.69 20.625C1127.19 17.75 1129.44 14.375 1130.44 10.5H1127.25C1126.25 10.625 1125.38 10.75 1124.62 10.875C1124.38 11 1124.25 11.0625 1124.25 11.0625C1124.88 11.5625 1125.69 12.25 1126.69 13.125C1126.94 14 1126.69 14.5 1125.94 14.625ZM1125.94 21H1143.19C1143.31 20.625 1143.5 20.25 1143.75 19.875C1142 20.625 1140.75 20.25 1140 18.75C1139.12 16.875 1137.81 15.0625 1136.06 13.3125C1134.19 16.9375 1130.81 19.5 1125.94 21ZM1131.56 28.6875H1129.12V35.8125H1131.56V28.6875ZM1185.94 23.625H1179.94V34.6875C1179.94 37.4375 1180.06 39.75 1180.31 41.625C1180.44 43.875 1179.62 45.5 1177.88 46.5C1176.25 47.125 1174.25 47.75 1171.88 48.375C1170.25 48.75 1169.38 48.25 1169.25 46.875C1168.75 45.125 1167.12 43.75 1164.38 42.75C1163.25 42.375 1162.81 42.0625 1163.06 41.8125C1162.94 41.3125 1163.5 41.0625 1164.75 41.0625C1170.25 41.4375 1172.81 40.5 1172.44 38.25V23.625H1161.56C1159.06 23.75 1156.69 23.875 1154.44 24C1153.94 24.25 1153.56 24.125 1153.31 23.625C1153.06 23.5 1152.94 23.3125 1152.94 23.0625C1152.81 22.8125 1152.69 22.5625 1152.56 22.3125C1152.44 22.0625 1152.38 21.875 1152.38 21.75C1152.38 21.75 1152.5 21.75 1152.75 21.75C1153.62 21.875 1155.19 22 1157.44 22.125C1159.81 22.125 1161.75 22.125 1163.25 22.125H1172.44C1172.31 20.625 1172.25 19.1875 1172.25 17.8125C1172.25 16.9375 1172.25 16.375 1172.25 16.125C1171.75 14.875 1172.25 14.3125 1173.75 14.4375C1174.75 14.6875 1175.94 14.875 1177.31 15C1179.44 11.75 1181.44 8.9375 1183.31 6.5625H1166.81C1164.19 6.6875 1161.94 6.8125 1160.06 6.9375C1159.69 7.1875 1159.38 7.0625 1159.12 6.5625C1159 6.5625 1158.88 6.4375 1158.75 6.1875C1158.5 5.8125 1158.31 5.5 1158.19 5.25C1157.94 5.125 1157.88 5 1158 4.875C1158.12 4.875 1158.31 4.8125 1158.56 4.6875C1159.19 4.8125 1160.38 4.9375 1162.12 5.0625C1164 5.0625 1165.88 5.0625 1167.75 5.0625H1182.94C1184.19 3.1875 1185.25 2.1875 1186.12 2.0625C1188.88 3.0625 1191.75 5.0625 1194.75 8.0625C1195 8.6875 1195.06 9.1875 1194.94 9.5625C1194.44 10.1875 1193.88 10.375 1193.25 10.125C1190.25 10 1185.94 11.8125 1180.31 15.5625C1180.44 15.5625 1180.56 15.5625 1180.69 15.5625C1181.44 16.1875 1181.44 16.8125 1180.69 17.4375C1180.19 17.6875 1179.94 18.25 1179.94 19.125V22.125H1188.38C1190.25 18.875 1191.62 17.1875 1192.5 17.0625C1194.25 17.8125 1196.5 19.625 1199.25 22.5C1199.5 23 1199.56 23.4375 1199.44 23.8125C1199.31 24.0625 1199.06 24.125 1198.69 24C1194.69 23.875 1190.44 23.75 1185.94 23.625ZM1207.31 23.25V14.625H1204.69C1203.31 14.625 1202.38 14.6875 1201.88 14.8125C1201.5 15.0625 1201.19 15 1200.94 14.625C1200.44 14 1200.25 13.5 1200.38 13.125C1200.12 12.75 1200.19 12.625 1200.56 12.75C1202.31 13 1204.06 13.125 1205.81 13.125H1207.31V11.0625C1207.19 9.4375 1207.12 7.8125 1207.12 6.1875C1207 4.6875 1206.88 3.625 1206.75 3C1206.5 2.375 1206.44 1.9375 1206.56 1.6875C1206.81 1.4375 1207.38 1.3125 1208.25 1.3125C1210.62 1.6875 1212.88 2.125 1215 2.625C1215.5 2.75 1215.81 3.0625 1215.94 3.5625C1216.06 4.1875 1215.88 4.625 1215.38 4.875C1214.5 5.5 1214.12 6.0625 1214.25 6.5625V12.5625C1215.25 10.8125 1216.06 9.875 1216.69 9.75C1217.69 10.125 1218.88 10.9375 1220.25 12.1875C1220 11.6875 1219.81 11.25 1219.69 10.875C1219.31 10.375 1219.56 10.0625 1220.44 9.9375C1224.19 10.8125 1226.38 12.125 1227 13.875C1227.75 15.875 1227.31 17.5 1225.69 18.75C1225.94 19 1226.44 19.3125 1227.19 19.6875C1227.81 20.0625 1228.31 20.3125 1228.69 20.4375C1229.44 21.3125 1229.25 21.9375 1228.12 22.3125C1227.38 22.5625 1226.75 23 1226.25 23.625H1236.38C1237.5 21.25 1238.5 20 1239.38 19.875C1240.62 20.125 1242.5 21.375 1245 23.625C1245.25 24.125 1245.31 24.5 1245.19 24.75C1245.06 24.875 1244.81 24.9375 1244.44 24.9375H1234.88V31.125H1238.06C1239.81 28.5 1241 27.125 1241.62 27C1242.75 27.375 1244.62 28.6875 1247.25 30.9375C1247.75 31.8125 1247.62 32.3125 1246.88 32.4375H1234.88V43.3125H1237.69V39.1875C1237.69 37.0625 1237.56 35.5625 1237.31 34.6875C1236.94 33.3125 1237.44 32.75 1238.81 33C1240.81 33.25 1242.81 33.6875 1244.81 34.3125C1245.94 34.8125 1246.06 35.5625 1245.19 36.5625C1244.56 36.9375 1244.31 37.4375 1244.44 38.0625C1244.31 39.1875 1244.38 40.75 1244.62 42.75C1244.62 43.625 1244.69 44.375 1244.81 45C1244.94 46.625 1244.31 47.5625 1242.94 47.8125C1241.44 48.0625 1240.31 48.1875 1239.56 48.1875C1238.19 48.1875 1237.56 47.6875 1237.69 46.6875V44.8125H1225.31C1225.19 45.3125 1224.88 46 1224.38 46.875C1223.75 47.5 1223 47.75 1222.12 47.625C1220.38 46.875 1219 46.125 1218 45.375C1217.12 44.625 1217 43.9375 1217.62 43.3125C1218.38 42.6875 1218.75 42 1218.75 41.25V40.3125C1218.75 38.5625 1218.69 37.4375 1218.56 36.9375C1218.56 36.3125 1218.56 35.625 1218.56 34.875C1218.31 34.125 1218.31 33.625 1218.56 33.375C1218.69 33.25 1219.12 33.1875 1219.88 33.1875C1221.12 33.3125 1222.75 33.625 1224.75 34.125C1225 34.125 1225.25 34.125 1225.5 34.125C1226.62 34.625 1226.75 35.375 1225.88 36.375C1225.5 36.75 1225.31 37.25 1225.31 37.875V43.3125H1228.12V32.4375H1218.94C1217.94 32.5625 1217 32.6875 1216.12 32.8125C1215.62 33.0625 1215.31 32.9375 1215.19 32.4375C1214.81 32.0625 1214.56 31.6875 1214.44 31.3125C1214.44 32.4375 1214.44 34.1875 1214.44 36.5625C1214.56 39.0625 1214.62 40.875 1214.62 42C1214.62 44.25 1213.69 45.9375 1211.81 47.0625C1210.94 47.4375 1209.69 47.8125 1208.06 48.1875C1206.56 48.6875 1205.69 48.125 1205.44 46.5C1204.94 44.875 1203.88 43.8125 1202.25 43.3125C1201.25 42.9375 1200.81 42.5625 1200.94 42.1875C1200.81 41.9375 1201.38 41.875 1202.62 42C1206.25 42.25 1207.81 40.875 1207.31 37.875V30.1875C1207.19 30.3125 1207.06 30.375 1206.94 30.375C1206.81 30.5 1206.75 30.5625 1206.75 30.5625C1205.75 31.0625 1205.19 31.5625 1205.06 32.0625C1204.19 33.1875 1203.44 33.125 1202.81 31.875C1201.94 30.625 1201.12 28.9375 1200.38 26.8125C1200.12 25.8125 1200.5 25.125 1201.5 24.75C1203.25 24.375 1204.69 24 1205.81 23.625C1206.31 23.5 1206.81 23.375 1207.31 23.25ZM1240.31 2.0625C1242.56 3.8125 1244.31 5.4375 1245.56 6.9375C1245.81 7.3125 1245.88 7.6875 1245.75 8.0625C1245.5 8.4375 1245.19 8.5 1244.81 8.25C1244.19 8.125 1243.44 8.125 1242.56 8.25C1242.06 8.375 1241.31 8.5 1240.31 8.625C1239.44 8.625 1238.81 8.625 1238.44 8.625C1240.31 9 1242.38 9.75 1244.62 10.875C1245.38 11.75 1245.31 12.375 1244.44 12.75C1243.69 12.875 1243.19 13.1875 1242.94 13.6875C1241.19 15.9375 1238.69 18.5 1235.44 21.375C1234.69 22 1234.19 22.25 1233.94 22.125C1233.69 21.875 1233.75 21.375 1234.12 20.625C1235.38 17.625 1236.31 13.875 1236.94 9.375C1236.94 9.25 1236.94 9.125 1236.94 9C1237.06 8.875 1237.12 8.75 1237.12 8.625C1231.5 9 1225.38 9.1875 1218.75 9.1875C1218.12 9.1875 1217.75 9.0625 1217.62 8.8125C1217.62 8.4375 1217.94 8.1875 1218.56 8.0625C1223.94 6.9375 1228.38 5.75 1231.88 4.5C1234.25 3.75 1236.44 2.875 1238.44 1.875C1239.06 1.5 1239.69 1.5625 1240.31 2.0625ZM1214.25 14.625V21.375C1215.75 21 1217.25 20.5 1218.75 19.875C1219.38 19.75 1219.81 19.8125 1220.06 20.0625C1220.06 20.4375 1219.81 20.8125 1219.31 21.1875C1217.81 22.5625 1216.12 23.875 1214.25 25.125V25.6875C1214.12 27.8125 1214.19 29.4375 1214.44 30.5625H1214.62C1217.12 30.9375 1218.88 31.125 1219.88 31.125H1228.12V24.9375H1224.94C1223.31 26.8125 1221.12 28.5 1218.38 30C1217.38 30.625 1216.75 30.875 1216.5 30.75C1216.38 30.625 1216.56 30.125 1217.06 29.25C1218.81 26.375 1220.25 22.875 1221.38 18.75C1221.38 18.5 1221.5 18.25 1221.75 18C1221.25 17.5 1221 16.75 1221 15.75C1221 15.375 1221 15 1221 14.625H1214.25ZM1228.31 15.75C1228.06 13.375 1227.5 11.6875 1226.62 10.6875C1226.25 10.3125 1226.12 10 1226.25 9.75C1226.38 9.625 1226.69 9.5625 1227.19 9.5625C1230.94 10.0625 1233.31 11.3125 1234.31 13.3125C1235.19 15.8125 1234.69 17.5625 1232.81 18.5625C1230.19 19.4375 1228.69 18.5 1228.31 15.75ZM1267.88 20.8125V11.25H1258.5C1256.38 11.25 1254.88 11.375 1254 11.625C1253.88 11.625 1253.81 11.6875 1253.81 11.8125C1253.56 11.8125 1253.31 11.625 1253.06 11.25C1252.94 11.25 1252.81 11.125 1252.69 10.875C1252.44 10.5 1252.31 10.125 1252.31 9.75C1251.81 9.375 1251.88 9.25 1252.5 9.375C1253.25 9.5 1254.44 9.625 1256.06 9.75C1257.94 9.75 1259.44 9.75 1260.56 9.75H1267.88C1267.75 7.375 1267.62 5.125 1267.5 3C1267.12 1.75 1267.62 1.25 1269 1.5C1270.75 1.625 1272.94 2 1275.56 2.625C1276.81 3.25 1277 4.0625 1276.12 5.0625C1275.5 5.4375 1275.25 6 1275.38 6.75V9.75H1281.75C1283.5 6.75 1284.75 5.1875 1285.5 5.0625C1287.5 5.8125 1289.56 7.375 1291.69 9.75C1292.06 10.25 1292.19 10.6875 1292.06 11.0625C1291.94 11.3125 1291.62 11.4375 1291.12 11.4375C1288.5 11.3125 1285.38 11.25 1281.75 11.25C1280.75 11.25 1279.75 11.25 1278.75 11.25H1275.38V22.125C1275.38 22.375 1275.5 22.6875 1275.75 23.0625C1276.12 23.8125 1276.69 24.625 1277.44 25.5C1279.19 22.375 1280.19 18.25 1280.44 13.125C1280.31 12.375 1280.75 12.0625 1281.75 12.1875C1284.12 12.5625 1286.06 13 1287.56 13.5C1288.06 13.875 1288.31 14.25 1288.31 14.625C1288.19 15 1287.88 15.25 1287.38 15.375C1287 15.625 1286.62 16.0625 1286.25 16.6875C1285.88 17.9375 1285.5 19 1285.12 19.875C1288.25 20.375 1290.44 21.4375 1291.69 23.0625C1293.19 25.4375 1292.88 27.3125 1290.75 28.6875C1288.88 29.5625 1287.5 28.75 1286.62 26.25C1285.88 25 1284.88 23.6875 1283.62 22.3125C1282.5 24.4375 1281 26.25 1279.12 27.75C1283.38 33 1288.19 36.1875 1293.56 37.3125C1294.19 37.5625 1294.62 37.75 1294.88 37.875C1294.75 38.5 1294.44 38.875 1293.94 39C1291.69 40.25 1290.06 41.875 1289.06 43.875C1288.69 44.625 1288.12 44.8125 1287.38 44.4375C1282.38 42.3125 1278.38 37.5625 1275.38 30.1875C1275.38 33.6875 1275.5 38.3125 1275.75 44.0625C1275.88 45.9375 1275.25 47.0625 1273.88 47.4375C1272.62 47.8125 1271.25 48.125 1269.75 48.375C1267.5 49 1266.69 47.8125 1267.31 44.8125C1267.31 43.3125 1267.5 39.4375 1267.88 33.1875C1263.88 38.3125 1258.12 42.125 1250.62 44.625C1249.75 44.875 1249.19 44.8125 1248.94 44.4375C1248.81 44.0625 1249.25 43.5625 1250.25 42.9375C1256 39.0625 1260.56 34.375 1263.94 28.875C1262.81 28.75 1262.12 28 1261.88 26.625C1261.5 25.375 1260.94 24.125 1260.19 22.875C1257.94 27.375 1254.75 30.875 1250.62 33.375C1250.12 33.75 1249.75 33.8125 1249.5 33.5625C1249.38 33.4375 1249.5 33.0625 1249.88 32.4375C1254 26.9375 1256.19 20.5625 1256.44 13.3125C1256.31 12.5625 1256.75 12.25 1257.75 12.375C1260 12.75 1261.88 13.25 1263.38 13.875C1263.88 14.125 1264.12 14.4375 1264.12 14.8125C1264 15.3125 1263.69 15.625 1263.19 15.75C1262.81 16 1262.5 16.4375 1262.25 17.0625C1262 17.5625 1261.81 18.0625 1261.69 18.5625C1261.56 19.3125 1261.44 19.8125 1261.31 20.0625C1263.69 20.8125 1265.5 21.9375 1266.75 23.4375C1267.12 22.6875 1267.5 21.8125 1267.88 20.8125ZM1303.31 23.25V14.625H1300.69C1299.31 14.625 1298.38 14.6875 1297.88 14.8125C1297.5 15.0625 1297.19 15 1296.94 14.625C1296.44 14 1296.25 13.5 1296.38 13.125C1296.12 12.75 1296.19 12.625 1296.56 12.75C1298.31 13 1300.06 13.125 1301.81 13.125H1303.31V11.0625C1303.19 9.4375 1303.12 7.8125 1303.12 6.1875C1303 4.6875 1302.88 3.625 1302.75 3C1302.5 2.375 1302.44 1.9375 1302.56 1.6875C1302.81 1.4375 1303.38 1.3125 1304.25 1.3125C1306.62 1.6875 1308.88 2.125 1311 2.625C1311.5 2.75 1311.81 3.0625 1311.94 3.5625C1312.06 4.1875 1311.88 4.625 1311.38 4.875C1310.5 5.5 1310.12 6.0625 1310.25 6.5625V12.5625C1311.25 10.8125 1312.06 9.875 1312.69 9.75C1313.69 10.125 1314.88 10.9375 1316.25 12.1875C1316 11.6875 1315.81 11.25 1315.69 10.875C1315.31 10.375 1315.56 10.0625 1316.44 9.9375C1320.19 10.8125 1322.38 12.125 1323 13.875C1323.75 15.875 1323.31 17.5 1321.69 18.75C1321.94 19 1322.44 19.3125 1323.19 19.6875C1323.81 20.0625 1324.31 20.3125 1324.69 20.4375C1325.44 21.3125 1325.25 21.9375 1324.12 22.3125C1323.38 22.5625 1322.75 23 1322.25 23.625H1332.38C1333.5 21.25 1334.5 20 1335.38 19.875C1336.62 20.125 1338.5 21.375 1341 23.625C1341.25 24.125 1341.31 24.5 1341.19 24.75C1341.06 24.875 1340.81 24.9375 1340.44 24.9375H1330.88V31.125H1334.06C1335.81 28.5 1337 27.125 1337.62 27C1338.75 27.375 1340.62 28.6875 1343.25 30.9375C1343.75 31.8125 1343.62 32.3125 1342.88 32.4375H1330.88V43.3125H1333.69V39.1875C1333.69 37.0625 1333.56 35.5625 1333.31 34.6875C1332.94 33.3125 1333.44 32.75 1334.81 33C1336.81 33.25 1338.81 33.6875 1340.81 34.3125C1341.94 34.8125 1342.06 35.5625 1341.19 36.5625C1340.56 36.9375 1340.31 37.4375 1340.44 38.0625C1340.31 39.1875 1340.38 40.75 1340.62 42.75C1340.62 43.625 1340.69 44.375 1340.81 45C1340.94 46.625 1340.31 47.5625 1338.94 47.8125C1337.44 48.0625 1336.31 48.1875 1335.56 48.1875C1334.19 48.1875 1333.56 47.6875 1333.69 46.6875V44.8125H1321.31C1321.19 45.3125 1320.88 46 1320.38 46.875C1319.75 47.5 1319 47.75 1318.12 47.625C1316.38 46.875 1315 46.125 1314 45.375C1313.12 44.625 1313 43.9375 1313.62 43.3125C1314.38 42.6875 1314.75 42 1314.75 41.25V40.3125C1314.75 38.5625 1314.69 37.4375 1314.56 36.9375C1314.56 36.3125 1314.56 35.625 1314.56 34.875C1314.31 34.125 1314.31 33.625 1314.56 33.375C1314.69 33.25 1315.12 33.1875 1315.88 33.1875C1317.12 33.3125 1318.75 33.625 1320.75 34.125C1321 34.125 1321.25 34.125 1321.5 34.125C1322.62 34.625 1322.75 35.375 1321.88 36.375C1321.5 36.75 1321.31 37.25 1321.31 37.875V43.3125H1324.12V32.4375H1314.94C1313.94 32.5625 1313 32.6875 1312.12 32.8125C1311.62 33.0625 1311.31 32.9375 1311.19 32.4375C1310.81 32.0625 1310.56 31.6875 1310.44 31.3125C1310.44 32.4375 1310.44 34.1875 1310.44 36.5625C1310.56 39.0625 1310.62 40.875 1310.62 42C1310.62 44.25 1309.69 45.9375 1307.81 47.0625C1306.94 47.4375 1305.69 47.8125 1304.06 48.1875C1302.56 48.6875 1301.69 48.125 1301.44 46.5C1300.94 44.875 1299.88 43.8125 1298.25 43.3125C1297.25 42.9375 1296.81 42.5625 1296.94 42.1875C1296.81 41.9375 1297.38 41.875 1298.62 42C1302.25 42.25 1303.81 40.875 1303.31 37.875V30.1875C1303.19 30.3125 1303.06 30.375 1302.94 30.375C1302.81 30.5 1302.75 30.5625 1302.75 30.5625C1301.75 31.0625 1301.19 31.5625 1301.06 32.0625C1300.19 33.1875 1299.44 33.125 1298.81 31.875C1297.94 30.625 1297.12 28.9375 1296.38 26.8125C1296.12 25.8125 1296.5 25.125 1297.5 24.75C1299.25 24.375 1300.69 24 1301.81 23.625C1302.31 23.5 1302.81 23.375 1303.31 23.25ZM1336.31 2.0625C1338.56 3.8125 1340.31 5.4375 1341.56 6.9375C1341.81 7.3125 1341.88 7.6875 1341.75 8.0625C1341.5 8.4375 1341.19 8.5 1340.81 8.25C1340.19 8.125 1339.44 8.125 1338.56 8.25C1338.06 8.375 1337.31 8.5 1336.31 8.625C1335.44 8.625 1334.81 8.625 1334.44 8.625C1336.31 9 1338.38 9.75 1340.62 10.875C1341.38 11.75 1341.31 12.375 1340.44 12.75C1339.69 12.875 1339.19 13.1875 1338.94 13.6875C1337.19 15.9375 1334.69 18.5 1331.44 21.375C1330.69 22 1330.19 22.25 1329.94 22.125C1329.69 21.875 1329.75 21.375 1330.12 20.625C1331.38 17.625 1332.31 13.875 1332.94 9.375C1332.94 9.25 1332.94 9.125 1332.94 9C1333.06 8.875 1333.12 8.75 1333.12 8.625C1327.5 9 1321.38 9.1875 1314.75 9.1875C1314.12 9.1875 1313.75 9.0625 1313.62 8.8125C1313.62 8.4375 1313.94 8.1875 1314.56 8.0625C1319.94 6.9375 1324.38 5.75 1327.88 4.5C1330.25 3.75 1332.44 2.875 1334.44 1.875C1335.06 1.5 1335.69 1.5625 1336.31 2.0625ZM1310.25 14.625V21.375C1311.75 21 1313.25 20.5 1314.75 19.875C1315.38 19.75 1315.81 19.8125 1316.06 20.0625C1316.06 20.4375 1315.81 20.8125 1315.31 21.1875C1313.81 22.5625 1312.12 23.875 1310.25 25.125V25.6875C1310.12 27.8125 1310.19 29.4375 1310.44 30.5625H1310.62C1313.12 30.9375 1314.88 31.125 1315.88 31.125H1324.12V24.9375H1320.94C1319.31 26.8125 1317.12 28.5 1314.38 30C1313.38 30.625 1312.75 30.875 1312.5 30.75C1312.38 30.625 1312.56 30.125 1313.06 29.25C1314.81 26.375 1316.25 22.875 1317.38 18.75C1317.38 18.5 1317.5 18.25 1317.75 18C1317.25 17.5 1317 16.75 1317 15.75C1317 15.375 1317 15 1317 14.625H1310.25ZM1324.31 15.75C1324.06 13.375 1323.5 11.6875 1322.62 10.6875C1322.25 10.3125 1322.12 10 1322.25 9.75C1322.38 9.625 1322.69 9.5625 1323.19 9.5625C1326.94 10.0625 1329.31 11.3125 1330.31 13.3125C1331.19 15.8125 1330.69 17.5625 1328.81 18.5625C1326.19 19.4375 1324.69 18.5 1324.31 15.75ZM1361.62 27.1875H1350.94C1349.56 27.3125 1348.12 27.4375 1346.62 27.5625C1346 27.6875 1345.62 27.625 1345.5 27.375C1345.25 27 1344.94 26.5 1344.56 25.875C1344.44 25.75 1344.44 25.625 1344.56 25.5C1344.69 25.375 1344.88 25.3125 1345.12 25.3125C1346.38 25.6875 1348.62 25.8125 1351.88 25.6875H1363.69V15.5625H1354.31C1352.81 15.6875 1351.56 15.8125 1350.56 15.9375C1350.06 16.1875 1349.75 16.0625 1349.62 15.5625C1349.25 15.1875 1349 14.8125 1348.88 14.4375C1348.62 14.1875 1348.56 14.0625 1348.69 14.0625C1348.69 13.9375 1348.88 13.875 1349.25 13.875C1350.88 14.125 1352.88 14.25 1355.25 14.25H1363.69V10.3125C1363.56 7.5625 1363.44 5.3125 1363.31 3.5625C1363.06 2.5625 1363.62 2.0625 1365 2.0625C1366.88 2.3125 1369.38 2.6875 1372.5 3.1875C1373.5 3.8125 1373.56 4.5625 1372.69 5.4375C1371.94 5.8125 1371.56 6.375 1371.56 7.125V14.25H1379.06C1380.31 12 1381.31 10.6875 1382.06 10.3125C1383.44 10.5625 1385.38 11.875 1387.88 14.25C1388.12 14.75 1388.19 15.1875 1388.06 15.5625C1387.94 15.8125 1387.69 15.875 1387.31 15.75C1386.81 15.75 1385.94 15.75 1384.69 15.75C1382.94 15.75 1380.75 15.6875 1378.12 15.5625H1371.56V25.6875H1382.25C1383.88 23.1875 1385 21.875 1385.62 21.75C1387.12 22.25 1389 23.5625 1391.25 25.6875C1391.5 26.1875 1391.62 26.625 1391.62 27C1391.5 27.375 1391.25 27.5 1390.88 27.375C1390.38 27.375 1389.19 27.375 1387.31 27.375C1383.44 27.25 1380.75 27.1875 1379.25 27.1875H1370.06C1370.69 27.4375 1371.31 27.6875 1371.94 27.9375C1372.56 28.3125 1372.88 28.875 1372.88 29.625C1372.62 30.25 1372.19 30.5625 1371.56 30.5625C1370.19 30.8125 1369.06 31.3125 1368.19 32.0625C1363.19 36.5625 1359.31 39.375 1356.56 40.5C1360.06 40.375 1363.62 40.25 1367.25 40.125C1370.75 40 1373.75 39.8125 1376.25 39.5625C1375 37.1875 1373.44 35.0625 1371.56 33.1875C1371.06 32.8125 1370.88 32.5 1371 32.25C1371.12 32.125 1371.56 32.125 1372.31 32.25C1378.56 33.875 1383 36.5625 1385.62 40.3125C1387.5 43.5625 1386.88 46.1875 1383.75 48.1875C1380.88 49.3125 1378.94 47.8125 1377.94 43.6875C1377.69 43.0625 1377.5 42.5 1377.38 42C1366.62 44.25 1358.88 46.1875 1354.12 47.8125C1352.62 48.8125 1351.69 48.75 1351.31 47.625C1350.31 45.375 1349.56 43.1875 1349.06 41.0625C1348.69 40.1875 1349 39.625 1350 39.375C1351.75 39.25 1353.25 38.625 1354.5 37.5C1357.62 34.625 1360 31.1875 1361.62 27.1875ZM1405.69 35.0625H1403.25V32.0625C1403.25 30.4375 1403.88 28.6875 1405.12 26.8125C1406.75 24.8125 1407.56 22.75 1407.56 20.625C1407.56 16.125 1406.06 13.8125 1403.06 13.6875C1400.69 13.9375 1399.06 14.8125 1398.19 16.3125C1398.44 16.3125 1398.69 16.3125 1398.94 16.3125C1401.31 16.4375 1402.56 17.5 1402.69 19.5C1402.44 21.5 1401.19 22.625 1398.94 22.875C1396.56 22.75 1395.31 21.4375 1395.19 18.9375C1395.56 14.5625 1398.75 12.125 1404.75 11.625C1411.12 12 1414.56 14.375 1415.06 18.75C1415.06 21.375 1413.44 23.875 1410.19 26.25C1407.19 28.5 1405.69 30.75 1405.69 33V35.0625ZM1400.25 41.0625C1400.5 38.6875 1401.81 37.3125 1404.19 36.9375C1406.69 37.1875 1408.06 38.5625 1408.31 41.0625C1407.94 43.0625 1406.56 44.25 1404.19 44.625C1401.81 44.25 1400.5 43.0625 1400.25 41.0625Z" fill="#10656A"/>
</svg>
