<svg width="888" height="50" viewBox="0 0 888 50" fill="none" xmlns="http://www.w3.org/2000/svg">
<path d="M34.6875 19.625V23.1875C34.6875 22.8125 35.0625 22.8125 35.8125 23.1875C40.6875 25.0625 44.1875 28.0625 46.3125 32.1875C47.0625 35.6875 46.125 38 43.5 39.125C40.875 39.625 39.3125 38.125 38.8125 34.625C38.3125 31.125 37.0625 27.625 35.0625 24.125C34.8125 24 34.6875 23.8125 34.6875 23.5625V25.8125C34.5625 32.6875 34.625 37.625 34.875 40.625C35.125 42.875 34.4375 44.5 32.8125 45.5C30.9375 46.5 29.0625 47.125 27.1875 47.375C25.5625 47.625 24.6875 47.25 24.5625 46.25C24.1875 44.125 23.125 42.8125 21.375 42.3125C20.375 41.9375 19.9375 41.5625 20.0625 41.1875C19.9375 41.0625 20.5625 41 21.9375 41C25.9375 41.625 27.75 40.375 27.375 37.25V24.875C27.375 25.125 27.1875 25.25 26.8125 25.25C26.1875 25.5 25.875 25.875 25.875 26.375C23.875 32.625 20.4375 37.3125 15.5625 40.4375C14.9375 40.8125 14.5625 40.9375 14.4375 40.8125C14.3125 40.6875 14.4375 40.3125 14.8125 39.6875C16.5625 35.6875 17.8125 32.0625 18.5625 28.8125C18.5625 28.6875 18.5625 28.375 18.5625 27.875C18.9375 26.5 19.1875 25 19.3125 23.375C19.4375 22.375 19.9375 21.9375 20.8125 22.0625C22.6875 22.3125 24.6875 22.8125 26.8125 23.5625C27.1875 23.9375 27.375 24.125 27.375 24.125V23.5625C27.25 22.0625 27.1875 20.625 27.1875 19.25C27.0625 17.875 26.9375 16.875 26.8125 16.25C26.4375 14.875 26.9375 14.3125 28.3125 14.5625C30.0625 14.8125 32.3125 15.1875 35.0625 15.6875C36.3125 16.4375 36.5 17.1875 35.625 17.9375C34.875 18.3125 34.5625 18.875 34.6875 19.625ZM13.5 18.125V35.75C13.375 39.25 13.4375 41.75 13.6875 43.25C13.9375 44.875 13.375 45.9375 12 46.4375C10.75 46.8125 9.4375 47.125 8.0625 47.375C5.9375 48 5.1875 46.875 5.8125 44C5.8125 43.375 5.8125 42.4375 5.8125 41.1875C6.1875 35.6875 6.375 31.5625 6.375 28.8125V22.625C4.625 24.75 2.875 26.4375 1.125 27.6875C0.75 28.0625 0.5 28.125 0.375 27.875C0.25 27.625 0.3125 27.25 0.5625 26.75C3.5625 20.75 5.9375 14.5625 7.6875 8.1875C8.3125 6.4375 8.75 4.1875 9 1.4375C8.875 0.6875 9.375 0.3125 10.5 0.3125C12 0.6875 14.5 1.4375 18 2.5625C18.75 3.3125 18.75 4.0625 18 4.8125C17.125 5.1875 16.625 5.5625 16.5 5.9375C14.875 9.1875 13.4375 12 12.1875 14.375C12.3125 14.375 12.5625 14.4375 12.9375 14.5625C13.3125 14.5625 13.5625 14.5625 13.6875 14.5625C14.5625 15.1875 14.6875 15.8125 14.0625 16.4375C13.5625 16.8125 13.375 17.375 13.5 18.125ZM36.9375 17.375L38.25 12.875H25.875C23.125 17.25 19.625 20.8125 15.375 23.5625C15 23.8125 14.75 23.8125 14.625 23.5625C14.5 23.4375 14.5625 23.125 14.8125 22.625C18.0625 17.625 20.375 12.4375 21.75 7.0625C22 6.0625 22.1875 5.125 22.3125 4.25C22.5625 3.25 22.6875 2.3125 22.6875 1.4375C22.6875 0.5625 23.1875 0.25 24.1875 0.5C25.3125 0.625 27.25 1.125 30 2C30.25 2.125 30.5625 2.1875 30.9375 2.1875C31.3125 2.4375 31.5625 2.8125 31.6875 3.3125C31.5625 3.8125 31.3125 4.0625 30.9375 4.0625C30.0625 4.4375 29.5625 4.9375 29.4375 5.5625C28.5625 7.6875 27.6875 9.625 26.8125 11.375H37.3125C38.1875 9.375 39.125 8.1875 40.125 7.8125C42 8.1875 44.1875 9.625 46.6875 12.125C47.3125 12.75 47.5625 13.4375 47.4375 14.1875C47.3125 14.9375 46.6875 15.3125 45.5625 15.3125C42.5625 15.0625 40.0625 16 38.0625 18.125C37.5625 18.5 37.1875 18.625 36.9375 18.5C36.8125 18.375 36.8125 18 36.9375 17.375ZM72.5625 9.5H84.75C86.75 6.5 88 4.9375 88.5 4.8125C90.75 5.6875 92.9375 7.3125 95.0625 9.6875C95.3125 10.0625 95.4375 10.4375 95.4375 10.8125C95.3125 11.0625 95.0625 11.1875 94.6875 11.1875C92.9375 11.1875 91.125 11.1875 89.25 11.1875C87.625 11.0625 85.1875 11 81.9375 11H71.8125C70.6875 13.625 69.375 15.9375 67.875 17.9375H79.125C80.125 16.1875 80.9375 15.25 81.5625 15.125C84.6875 16.25 87.1875 17.75 89.0625 19.625C88.9375 20.125 88.625 20.625 88.125 21.125C87.5 21.375 87.25 21.875 87.375 22.625V41.75C87.5 43.875 86.375 45.3125 84 46.0625C82.625 46.5625 81.125 47 79.5 47.375C77.875 47.75 77.125 47.4375 77.25 46.4375C77 44.4375 75.75 43 73.5 42.125C72.75 41.75 72.4375 41.4375 72.5625 41.1875C72.4375 41.0625 72.875 41 73.875 41C74 41 74.1875 41 74.4375 41C75.8125 41.125 77 41.25 78 41.375C79.25 41.375 79.875 40.625 79.875 39.125V33.5H68.625V44.375C68.625 45.625 68.125 46.375 67.125 46.625C66.375 46.75 65.5625 46.875 64.6875 47C63.8125 47 63 47.0625 62.25 47.1875C61.125 47.1875 60.6875 46.625 60.9375 45.5C61.3125 43.25 61.5625 39.8125 61.6875 35.1875V25.4375C58.3125 28.3125 54.625 30.625 50.625 32.375C50.125 32.625 49.75 32.625 49.5 32.375C49.25 32 49.375 31.5625 49.875 31.0625C56.125 25.4375 60.6875 18.75 63.5625 11H58.125C56.875 11.125 55.5625 11.1875 54.1875 11.1875C53.0625 11.3125 52.1875 11.4375 51.5625 11.5625C51.1875 11.6875 50.875 11.5625 50.625 11.1875C50.375 11.0625 50.1875 10.8125 50.0625 10.4375C49.8125 10.1875 49.625 9.9375 49.5 9.6875C49.375 9.4375 49.3125 9.3125 49.3125 9.3125C49.3125 9.1875 49.5 9.125 49.875 9.125C52.375 9.375 55.6875 9.5 59.8125 9.5H64.125C65.125 6.375 65.8125 3.8125 66.1875 1.8125C66.1875 0.8125 66.75 0.4375 67.875 0.6875C71.75 1.6875 74.5 2.375 76.125 2.75C76.625 3 76.875 3.375 76.875 3.875C76.75 4.5 76.4375 4.8125 75.9375 4.8125C75.8125 4.9375 75.6875 5 75.5625 5C74.6875 5.375 74.125 5.9375 73.875 6.6875C73.625 7.0625 73.375 7.5625 73.125 8.1875C72.875 8.8125 72.6875 9.25 72.5625 9.5ZM68.625 26.375V32.1875H79.875V26.375H68.625ZM68.625 20.5625V25.0625H79.875V19.4375H68.8125C68.5625 19.6875 68.5 20.0625 68.625 20.5625ZM133.312 19.625H119.625C119.5 19.75 119.438 19.8125 119.438 19.8125C118.812 20.1875 118.562 20.75 118.688 21.5V36.3125C118.688 38.0625 118.062 38.9375 116.812 38.9375C115.938 39.1875 114.938 39.3125 113.812 39.3125C112.688 39.5625 112.125 38.9375 112.125 37.4375C112.125 36.0625 112.125 34.8125 112.125 33.6875C112.25 32.8125 112.312 31.375 112.312 29.375V23.5625C112.312 22.0625 112.25 20.9375 112.125 20.1875C112.125 19.3125 112.125 18.4375 112.125 17.5625C112 17.0625 112 16.75 112.125 16.625C112.25 16.5 112.625 16.4375 113.25 16.4375C113.25 16.5625 113.375 16.625 113.625 16.625C114.375 16.75 115.25 16.9375 116.25 17.1875V11.375C116.25 7.625 116.125 5.125 115.875 3.875C115.75 3.125 115.75 2.625 115.875 2.375C116 2.25 116.438 2.1875 117.188 2.1875C119.438 2.6875 121.125 3.0625 122.25 3.3125C122.375 3.5625 122.562 3.75 122.812 3.875H129.188C129.938 2.25 130.688 1.3125 131.438 1.0625C132.938 1.3125 134.75 2.25 136.875 3.875C137.375 4.625 137.25 5.1875 136.5 5.5625C135.75 5.9375 135.438 6.3125 135.562 6.6875V15.875C138.188 17 140.062 18.1875 141.188 19.4375C141.438 20.3125 141.25 20.875 140.625 21.125C140 21.5 139.75 21.9375 139.875 22.4375V34.8125C140.125 37.5625 138.312 39.1875 134.438 39.6875C132.812 40.0625 132 39.75 132 38.75C131.625 37.25 130.875 36.1875 129.75 35.5625C129 35.1875 128.688 34.8125 128.812 34.4375C128.812 34.1875 129.25 34.125 130.125 34.25C132.5 34.625 133.562 33.9375 133.312 32.1875V19.625ZM109.875 24.6875V35.9375C109.875 38.4375 112.688 40 118.312 40.625C121.688 40.875 125.25 41 129 41C132.75 41 136.438 40.75 140.062 40.25C141.938 40 143 39.9375 143.25 40.0625C143.5 40.4375 143.188 40.875 142.312 41.375C141.062 42.5 140.438 43.8125 140.438 45.3125C140.188 46.4375 139.438 47 138.188 47C134.062 47.125 130.312 47.125 126.938 47C123.562 47 120.812 46.875 118.688 46.625C114.812 46.25 111.188 44.3125 107.812 40.8125C106.938 39.9375 106.188 39.8125 105.562 40.4375C103.688 42.5625 102.625 44.5 102.375 46.25C102.125 46.875 101.812 47.25 101.438 47.375C101.188 47.375 100.812 47.1875 100.312 46.8125C99.0625 46.0625 97.8125 44.75 96.5625 42.875C96.1875 42.375 96.375 41.875 97.125 41.375C101.25 39.125 103.188 37.4375 102.938 36.3125V22.25H100.312C99.6875 22.375 98.875 22.5 97.875 22.625C97.5 22.875 97.25 22.875 97.125 22.625C96.625 22.125 96.3125 21.5625 96.1875 20.9375C96.0625 20.8125 96 20.6875 96 20.5625C96.125 20.4375 96.3125 20.375 96.5625 20.375C97.3125 20.75 98.75 20.875 100.875 20.75H102.75C103.75 19.125 104.5 18.3125 105 18.3125C107.125 18.8125 109.125 20 111 21.875C111.375 22.5 111.25 23 110.625 23.375C110 23.625 109.75 24.0625 109.875 24.6875ZM124.688 23.1875H126.375C127.375 21.8125 128.125 21.0625 128.625 20.9375C130.25 21.4375 131.75 22.5625 133.125 24.3125C133 24.8125 132.688 25.25 132.188 25.625C131.938 25.75 131.812 26.1875 131.812 26.9375C131.812 28.0625 131.812 29.25 131.812 30.5C131.938 31.875 131.688 32.625 131.062 32.75C129.938 33.25 129.062 33.4375 128.438 33.3125C127.438 33.5625 127 33.0625 127.125 31.8125V31.25H124.5V32.1875C124.5 33.0625 124.125 33.5625 123.375 33.6875C123.125 33.8125 122.875 33.9375 122.625 34.0625C122.25 34.1875 121.812 34.3125 121.312 34.4375C119.938 34.6875 119.375 34.0625 119.625 32.5625C119.875 30.5625 119.938 28.75 119.812 27.125C119.812 24.875 119.75 23.5625 119.625 23.1875C119.375 22.4375 119.375 22 119.625 21.875C119.75 21.625 120.25 21.5625 121.125 21.6875C122 21.8125 123.062 22.1875 124.312 22.8125C124.438 22.9375 124.562 23.0625 124.688 23.1875ZM103.125 8.9375C102.75 6.4375 102.062 4.625 101.062 3.5C100.562 2.875 100.875 2.4375 102 2.1875C106.5 3.0625 109.188 4.625 110.062 6.875C110.688 9.75 109.812 11.625 107.438 12.5C104.938 13.375 103.5 12.1875 103.125 8.9375ZM129.75 5H122.438C122.062 5.125 121.938 5.5625 122.062 6.3125V10.0625H123C123.875 8.8125 124.562 8.1875 125.062 8.1875C126.562 8.6875 127.875 9.5 129 10.625C129.5 11.375 129.375 11.9375 128.625 12.3125C128.125 12.5625 127.875 13.1875 127.875 14.1875V18.125H129.75V5ZM127.125 24.6875H124.5V29.9375H127.125V24.6875ZM123.562 11.375H122.062V18.125H123.562V11.375ZM178.125 12.5H170.25V24.6875H174.75C176.25 22.6875 177.312 21.6875 177.938 21.6875C180.562 22.6875 182.75 24.125 184.5 26C184.5 26.875 184.312 27.375 183.938 27.5C183.312 28 183.062 28.4375 183.188 28.8125C183.188 30.4375 183.188 32.6875 183.188 35.5625C183.312 38.4375 183.438 40.75 183.562 42.5C183.812 44 183.125 45 181.5 45.5C179.625 45.875 178.25 46.0625 177.375 46.0625C176.125 46.1875 175.562 45.75 175.688 44.75V41H158.438V43.25C158.438 44.875 157.875 45.75 156.75 45.875C155.875 46.125 154.438 46.4375 152.438 46.8125C151.188 46.8125 150.625 46.1875 150.75 44.9375C150.875 40.5625 151 35.875 151.125 30.875C151 29 150.938 27.375 150.938 26C150.938 25 150.938 24.375 150.938 24.125C150.688 23.125 151.125 22.6875 152.25 22.8125C153.625 22.9375 155.75 23.375 158.625 24.125C158.875 24.375 159.125 24.5625 159.375 24.6875H162.938V9.3125C162.938 7.1875 162.875 5.75 162.75 5C162.75 4 162.688 3.125 162.562 2.375C162.312 1.25 162.875 0.6875 164.25 0.6875C164.625 0.8125 165.688 1 167.438 1.25C169.062 1.5 170.125 1.625 170.625 1.625C171.5 2.375 171.625 3.125 171 3.875C170.375 4.375 170.125 4.875 170.25 5.375V11.1875H180.188C181.562 8.4375 182.75 6.875 183.75 6.5C185 6.875 186.75 8.375 189 11C189.375 12 189.188 12.5625 188.438 12.6875C186.938 12.5625 183.5 12.5 178.125 12.5ZM175.688 26.1875H158.625C158.375 26.4375 158.312 26.8125 158.438 27.3125V39.6875H175.688V26.1875ZM215.438 24.875V10.25H204.188C203.938 10.5 203.812 10.9375 203.812 11.5625V19.625C203.938 33.125 200.812 42.0625 194.438 46.4375C193.938 46.6875 193.5 46.75 193.125 46.625C192.875 46.375 192.938 46 193.312 45.5C195.562 41.625 196.688 33.1875 196.688 20.1875V15.875C196.562 14.75 196.5 13.3125 196.5 11.5625C196.375 9.6875 196.25 8.1875 196.125 7.0625C195.75 5.6875 196.188 5.125 197.438 5.375C198.188 5.75 199.5 6.25 201.375 6.875C202.75 7.375 203.75 7.6875 204.375 7.8125C204.875 8.0625 205.188 8.375 205.312 8.75H215.438C215.062 8.375 214.875 7.8125 214.875 7.0625C214.75 4.9375 214.062 3.25 212.812 2C212.438 1.875 212.25 1.6875 212.25 1.4375C212.375 1.3125 212.688 1.1875 213.188 1.0625C217.812 0.9375 220.688 2.0625 221.812 4.4375C222.438 6.1875 221.875 7.625 220.125 8.75H228.375C229.875 6 231.125 4.4375 232.125 4.0625C233.75 4.8125 235.812 6.375 238.312 8.75C238.562 9.625 238.312 10.125 237.562 10.25C236.188 10.25 233.75 10.25 230.25 10.25C228.875 10.25 227.625 10.25 226.5 10.25H223.875C224 10.75 223.812 11.1875 223.312 11.5625C222.688 11.9375 222.438 12.625 222.562 13.625V28.625C224.438 24 225.438 19.1875 225.562 14.1875C225.562 13.4375 226.062 13.125 227.062 13.25C229.438 13.625 231.562 14.0625 233.438 14.5625C233.812 14.6875 234.062 15 234.188 15.5C234.062 16 233.812 16.25 233.438 16.25C232.812 16.5 232.312 17.0625 231.938 17.9375C231.312 19.1875 230.688 20.4375 230.062 21.6875H230.25C233.125 22.3125 235.062 23.375 236.062 24.875C236.938 27.375 236.312 29.0625 234.188 29.9375C231.688 30.6875 230.375 29.6875 230.25 26.9375C230.125 25.0625 229.812 23.625 229.312 22.625C227.312 25.75 225.312 28.125 223.312 29.75C223.188 29.875 223.062 29.9375 222.938 29.9375C222.812 30.0625 222.688 30.0625 222.562 29.9375V33.875H225.375C227 31.125 228.188 29.6875 228.938 29.5625C230.562 30.1875 232.5 31.625 234.75 33.875C235 34.875 234.75 35.4375 234 35.5625C233.125 35.5625 231.938 35.5625 230.438 35.5625C229.062 35.4375 227 35.375 224.25 35.375H222.562V43.625H228.938C230.812 40.875 232.062 39.4375 232.688 39.3125C234.938 40.3125 237 41.75 238.875 43.625C239.25 44.5 239 45.0625 238.125 45.3125C236.25 45.0625 232.562 45 227.062 45.125H204.562C203.688 45.125 202.75 45.25 201.75 45.5C201.375 45.5 201.062 45.375 200.812 45.125C200.562 44.875 200.375 44.625 200.25 44.375C200 44.125 199.812 43.9375 199.688 43.8125C199.438 43.5625 199.375 43.375 199.5 43.25C199.5 43.25 199.688 43.25 200.062 43.25C201.062 43.5 202.875 43.625 205.5 43.625H215.438V35.375H209.062C208.188 35.5 207.25 35.625 206.25 35.75C205.875 35.875 205.562 35.75 205.312 35.375C205.188 35.25 205 35.0625 204.75 34.8125C204.5 34.5625 204.375 34.3125 204.375 34.0625C204 33.9375 203.875 33.8125 204 33.6875C204 33.6875 204.188 33.625 204.562 33.5C205.688 33.875 207.562 34 210.188 33.875H215.438V29.375C214.812 29.875 214.188 30.1875 213.562 30.3125C211.312 30.6875 210.312 29.625 210.562 27.125C210.562 25.125 210.438 23.6875 210.188 22.8125C208.438 25.4375 206.5 27.6875 204.375 29.5625C203.875 29.9375 203.562 30.0625 203.438 29.9375C203.312 29.6875 203.312 29.25 203.438 28.625C205.188 24.25 206.25 19.4375 206.625 14.1875C206.5 13.3125 207 12.9375 208.125 13.0625C210 13.5625 212.062 14 214.312 14.375C214.812 14.625 215.062 14.9375 215.062 15.3125C215.062 15.8125 214.812 16.125 214.312 16.25C213.688 16.5 213.25 17 213 17.75C212.375 19.25 211.625 20.625 210.75 21.875C210.75 21.875 210.812 21.875 210.938 21.875C212.812 22.75 214.312 23.75 215.438 24.875ZM269.812 27.875H274.688C275.438 26.5 276.188 25.75 276.938 25.625C278.562 26 280.562 27.0625 282.938 28.8125C283.812 29.8125 283.688 30.625 282.562 31.25C281.938 31.375 281.438 31.8125 281.062 32.5625C279.688 34.8125 278.312 36.6875 276.938 38.1875C279.188 39.4375 282.375 40.1875 286.5 40.4375C287.25 40.4375 287.625 40.625 287.625 41C287.875 41 287.562 41.3125 286.688 41.9375C284.938 42.9375 283.5 44.375 282.375 46.25C281.75 47.25 280.875 47.5625 279.75 47.1875C276.625 46.0625 274 44.375 271.875 42.125C267.875 44.625 262.75 46.4375 256.5 47.5625C255.75 47.5625 255.375 47.4375 255.375 47.1875C255.25 46.8125 255.5 46.5 256.125 46.25C261.5 43.875 265.812 41.25 269.062 38.375C268.062 36.75 267.312 34.875 266.812 32.75C263.938 36.375 260.812 39.125 257.438 41C256.812 41.125 256.375 41.1875 256.125 41.1875C256 41.0625 256.125 40.875 256.5 40.625C260.125 35.875 262.312 31.125 263.062 26.375C262.938 26.5 262.812 26.625 262.688 26.75C262.438 26.875 262.312 26.9375 262.312 26.9375C261.188 27.5625 260.438 27.3125 260.062 26.1875C259.438 25.1875 258.938 23.875 258.562 22.25C258.188 21.125 258.625 20.5625 259.875 20.5625C261.875 20.5625 263.5 20 264.75 18.875C267.25 16.875 269.438 15.0625 271.312 13.4375C266.688 14.5625 264 15.5 263.25 16.25C262.625 16.875 262.125 17.125 261.75 17C261.5 16.875 261.25 16.4375 261 15.6875C260.875 15.5625 260.75 15.375 260.625 15.125C260.375 14.625 260.062 13.5625 259.688 11.9375C259.312 11.3125 259.625 10.9375 260.625 10.8125C262.25 10.5625 263.375 9.9375 264 8.9375C265.625 6.9375 266.938 4.3125 267.938 1.0625C267.938 0.4375 268.375 0.25 269.25 0.5C271.125 1.25 273.188 2.25 275.438 3.5C275.938 3.875 276.188 4.3125 276.188 4.8125C276.188 5.3125 275.875 5.5 275.25 5.375C274.375 5.375 273.625 5.625 273 6.125C270.5 8.125 268.25 9.75 266.25 11C268.25 11 270.688 11 273.562 11C274.812 9.625 275.875 8.1875 276.75 6.6875C277.25 5.8125 278 5.5625 279 5.9375C280.875 7.0625 282.75 8.3125 284.625 9.6875C285.125 10.1875 285.375 10.6875 285.375 11.1875C285.25 11.6875 284.938 11.9375 284.438 11.9375C283.438 11.9375 282.625 12.125 282 12.5C278.25 15.25 273.25 18 267 20.75C269.125 20.875 272.375 20.8125 276.75 20.5625C277.5 20.5625 278.125 20.5 278.625 20.375C278 19.5 277.375 18.625 276.75 17.75C276.5 17.5 276.438 17.3125 276.562 17.1875C276.688 17.0625 276.938 16.9375 277.312 16.8125C281.812 17.5625 284.75 19 286.125 21.125C286.875 23.375 286.375 25.0625 284.625 26.1875C282.125 27.0625 280.562 26.3125 279.938 23.9375C279.688 23.5625 279.562 23.125 279.562 22.625C275.688 23.25 272.562 23.8125 270.188 24.3125C270.562 24.5625 270.938 24.6875 271.312 24.6875C271.812 25.0625 272.062 25.4375 272.062 25.8125C272.062 26.1875 271.875 26.4375 271.5 26.5625C270.75 26.8125 270.188 27.25 269.812 27.875ZM254.438 24.6875V36.5C254.312 38.875 254.375 41.1875 254.625 43.4375C254.75 45.1875 254.188 46.25 252.938 46.625C251.938 47 250.75 47.25 249.375 47.375C247.375 47.625 246.562 46.9375 246.938 45.3125C247.062 43.9375 247.188 42.5 247.312 41C247.312 39.5 247.375 38.1875 247.5 37.0625V26.5625C246 27.5625 244.25 28.5625 242.25 29.5625C241.75 29.8125 241.438 29.875 241.312 29.75C241.188 29.5 241.312 29.1875 241.688 28.8125C247.438 22.8125 251 17.0625 252.375 11.5625C252.625 10.6875 253.062 10.4375 253.688 10.8125C254.688 11.1875 256.125 12.0625 258 13.4375C258.5 13.6875 259 13.9375 259.5 14.1875C260 14.8125 260.25 15.3125 260.25 15.6875C260.25 16.0625 259.938 16.25 259.312 16.25C258.562 16.5 257.875 16.9375 257.25 17.5625C256.75 18.1875 256.312 18.6875 255.938 19.0625C255.688 19.4375 255.125 20.125 254.25 21.125C254.375 21.375 254.562 21.4375 254.812 21.3125C255.812 21.8125 255.938 22.4375 255.188 23.1875C254.562 23.5625 254.312 24.0625 254.438 24.6875ZM252.375 1.0625C254.375 2.1875 256.188 3.3125 257.812 4.4375C258.312 4.9375 258.562 5.375 258.562 5.75C258.438 6.25 258.125 6.5 257.625 6.5C256.75 6.75 256.062 7.125 255.562 7.625C252.062 11.375 247.688 14.375 242.438 16.625C241.938 16.875 241.625 16.875 241.5 16.625C241.375 16.375 241.5 16.0625 241.875 15.6875C246 12.0625 249 7.4375 250.875 1.8125C251.125 0.9375 251.625 0.6875 252.375 1.0625ZM274.5 29.375H269.062C268.562 30.125 268.062 30.875 267.562 31.625C267.688 31.75 267.875 31.9375 268.125 32.1875C269.25 33.1875 270.375 34.1875 271.5 35.1875C272.5 33.4375 273.5 31.5 274.5 29.375ZM300.375 28.4375V35.9375C300.25 39.3125 300.312 41.75 300.562 43.25C300.688 45 300.062 46.0625 298.688 46.4375C297.562 46.6875 296.438 46.9375 295.312 47.1875C293.312 47.4375 292.5 46.8125 292.875 45.3125C293 44.1875 293.125 42.75 293.25 41C293.25 39.375 293.312 37.3125 293.438 34.8125V27.5C292.062 28.25 290.75 29 289.5 29.75C289 30 288.688 30 288.562 29.75C288.438 29.625 288.562 29.3125 288.938 28.8125C293.562 23.9375 296.875 18.5625 298.875 12.6875H292.875C291.625 12.6875 290.625 12.75 289.875 12.875C289.5 13 289.25 13 289.125 12.875C289 12.875 288.938 12.8125 288.938 12.6875C288.812 12.5625 288.688 12.375 288.562 12.125C288.438 11.875 288.375 11.625 288.375 11.375C288.25 11.25 288.188 11.125 288.188 11C288.188 10.875 288.312 10.8125 288.562 10.8125C289.438 11.1875 291.125 11.3125 293.625 11.1875H298.688C299.562 9.8125 300.312 9.0625 300.938 8.9375C302.938 9.6875 304.938 10.8125 306.938 12.3125C307.562 13.3125 307.438 13.9375 306.562 14.1875C305.688 14.6875 305.062 15.3125 304.688 16.0625C303.438 17.9375 302 19.8125 300.375 21.6875V26.5625H301.125C301.875 24.6875 302.375 22.75 302.625 20.75C302.5 19.875 303 19.625 304.125 20C305.375 20.375 306.625 20.8125 307.875 21.3125V17.375C307.75 15.75 307.688 14.125 307.688 12.5C307.562 11 307.438 9.9375 307.312 9.3125C307.062 8.5625 307.062 8.0625 307.312 7.8125C307.562 7.5625 308.062 7.5 308.812 7.625C310.938 8.125 313 8.8125 315 9.6875C315.125 9.9375 315.312 10.0625 315.562 10.0625H317.625V6.6875C317.625 4.5625 317.5 3 317.25 2C317 1.25 317 0.8125 317.25 0.6875C317.375 0.5625 317.938 0.5 318.938 0.5C320.812 0.75 322.938 1.1875 325.312 1.8125C326.062 2.3125 326 2.9375 325.125 3.6875C324.75 4.0625 324.562 4.6875 324.562 5.5625V10.0625H327C328 8.4375 328.938 7.4375 329.812 7.0625C331.438 7.6875 333.312 9.125 335.438 11.375C335.688 12 335.75 12.5 335.625 12.875C335.375 13.25 334.812 13.375 333.938 13.25C331.562 13.875 329.438 15.0625 327.562 16.8125C327.062 17.1875 326.688 17.3125 326.438 17.1875C326.188 17.0625 326.125 16.6875 326.25 16.0625L327.375 11.5625H324.562V22.4375H324.75C325.75 20.9375 326.562 20.125 327.188 20C328.938 20.625 330.938 21.8125 333.188 23.5625C333.688 24.0625 333.938 24.5625 333.938 25.0625C333.812 25.6875 333.438 26 332.812 26C331.938 26.125 331.438 26.8125 331.312 28.0625C330.312 31.6875 328.812 34.75 326.812 37.25C329.062 38.5 331.688 39.5625 334.688 40.4375C335.438 40.6875 335.812 40.875 335.812 41C335.812 41 335.438 41.25 334.688 41.75C333.438 42.25 332 43.6875 330.375 46.0625C329.75 47.1875 328.938 47.375 327.938 46.625C325.312 45.375 323.188 43.75 321.562 41.75C317.938 44.125 313.375 45.875 307.875 47C306.875 47.25 306.375 47.1875 306.375 46.8125C306 46.3125 306.312 45.875 307.312 45.5C312.188 43.125 316 40.5625 318.75 37.8125C316.875 34.3125 315.812 29.6875 315.562 23.9375H314.812C315.312 34.6875 311 42.375 301.875 47C301.375 47.25 301.062 47.3125 300.938 47.1875C300.688 47.0625 300.75 46.75 301.125 46.25C304 42.375 305.812 39.0625 306.562 36.3125C307.438 33.4375 307.875 28.9375 307.875 22.8125C307.75 22.8125 307.688 22.8125 307.688 22.8125C307.062 22.8125 306.625 23.0625 306.375 23.5625C305.5 24.8125 304.438 25.875 303.188 26.75C304.562 27.125 305.75 27.75 306.75 28.625C308 30.875 307.688 32.6875 305.812 34.0625C303.688 34.8125 302.375 34.3125 301.875 32.5625C301.5 30.9375 301 29.5625 300.375 28.4375ZM293.625 8C293.125 5.5 292.25 3.5 291 2C290.625 1.75 290.5 1.5 290.625 1.25C290.625 1.125 290.875 1 291.375 0.875C295.5 0.875 298.25 1.875 299.625 3.875C300.375 6.625 299.625 8.5625 297.375 9.6875C295.25 10.4375 294 9.875 293.625 8ZM324.938 23.9375H317.062C318.312 28.3125 320 31.4375 322.125 33.3125C323.625 30.5625 324.562 27.4375 324.938 23.9375ZM314.812 12.875V22.4375H317.625V11.5625H315.562L315.375 11.75C314.875 12.125 314.688 12.5 314.812 12.875ZM364.5 39.125V25.4375H356.812C355.812 25.5625 355 25.625 354.375 25.625C353.875 25.625 353.5 25.625 353.25 25.625C352.75 25.75 352.438 25.6875 352.312 25.4375C352.062 25.0625 351.75 24.6875 351.375 24.3125C351.125 24.5625 350.812 24.8125 350.438 25.0625C349.938 25.4375 349.625 25.6875 349.5 25.8125C349.5 27.1875 349.5 29.375 349.5 32.375C349.625 35.875 349.688 38.4375 349.688 40.0625C349.938 42.5625 349.25 44.1875 347.625 44.9375C346.375 45.5625 344.938 46 343.312 46.25C341.438 46.625 340.5 46.25 340.5 45.125C340.375 43.25 339.5 41.9375 337.875 41.1875C336.875 41.0625 336.5 40.75 336.75 40.25C336.75 40 337.312 39.9375 338.438 40.0625C341.438 40.6875 342.812 39.375 342.562 36.125V30.125C342.312 30.375 342.062 30.5 341.812 30.5C341.188 31 340.812 31.5 340.688 32C340.438 32.625 340.125 33 339.75 33.125C339.375 33.125 339.062 32.8125 338.812 32.1875C337.562 29.6875 336.812 27.8125 336.562 26.5625C336.188 25.8125 336.5 25.25 337.5 24.875C339.125 24.75 340.812 24.4375 342.562 23.9375V13.4375H341.812C341.188 13.4375 340.375 13.5 339.375 13.625C339 13.625 338.75 13.625 338.625 13.625C338.125 13.875 337.812 13.8125 337.688 13.4375C337.312 13.0625 337.062 12.6875 336.938 12.3125C336.688 11.9375 336.812 11.75 337.312 11.75C339.438 12 341.062 12.125 342.188 12.125H342.562V9.875C342.438 7.625 342.312 4.8125 342.188 1.4375C341.938 0.8125 342.312 0.5625 343.312 0.6875C345.562 0.9375 347.812 1.3125 350.062 1.8125C350.688 2.0625 351.062 2.4375 351.188 2.9375C351.188 3.4375 350.938 3.8125 350.438 4.0625C349.562 4.4375 349.25 4.9375 349.5 5.5625V11.375C350.5 9.75 351.312 8.875 351.938 8.75C352.812 9.25 354 10.375 355.5 12.125C355.75 12.5 355.875 12.8125 355.875 13.0625C355.875 13.3125 355.688 13.4375 355.312 13.4375H349.5V22.25C349.625 22.25 349.875 22.1875 350.25 22.0625C351 21.9375 352.188 21.5625 353.812 20.9375C354.438 20.8125 354.875 20.875 355.125 21.125C355.25 21.5 355.062 21.875 354.562 22.25C353.812 22.875 353.062 23.375 352.312 23.75C353.312 24 355.188 24.0625 357.938 23.9375H375.188C375.312 23.6875 375.562 23.3125 375.938 22.8125C376.312 22.3125 376.688 21.875 377.062 21.5C376.938 21.625 376.75 21.6875 376.5 21.6875C376.125 21.8125 375.125 22 373.5 22.25C372.125 22.5 371.438 21.9375 371.438 20.5625H363C363 21.4375 362.625 22 361.875 22.25C361.5 22.375 360.812 22.5625 359.812 22.8125C358.812 23.0625 358.125 23.1875 357.75 23.1875C356.375 23.4375 355.75 22.9375 355.875 21.6875C356.125 18.0625 356.25 15 356.25 12.5V9.6875C356.125 7.9375 356 5.875 355.875 3.5C355.625 2.125 356.188 1.5625 357.562 1.8125C359.562 2.3125 361.688 3.125 363.938 4.25H371.062C371.812 2.625 372.625 1.6875 373.5 1.4375C376.375 2.5625 378.562 3.875 380.062 5.375C379.938 6.25 379.562 6.8125 378.938 7.0625C378.562 7.3125 378.375 7.6875 378.375 8.1875C378.375 9.4375 378.438 11.3125 378.562 13.8125C378.562 16.1875 378.625 17.9375 378.75 19.0625C378.75 19.6875 378.688 20.0625 378.562 20.1875C379.938 20.6875 381.562 22 383.438 24.125C383.688 24.5 383.75 24.8125 383.625 25.0625C383.625 25.3125 383.438 25.4375 383.062 25.4375C379.688 25.4375 376.125 25.4375 372.375 25.4375H371.812C371.438 25.8125 371.312 26.375 371.438 27.125V31.4375H374.625C375.75 29.4375 376.75 28.25 377.625 27.875C379 28.375 380.438 29.5625 381.938 31.4375C382.188 31.9375 382.312 32.3125 382.312 32.5625C382.188 32.8125 381.875 32.875 381.375 32.75H371.438V40.25C372.562 40.375 373.938 40.375 375.562 40.25C376.938 40.125 379.125 39.875 382.125 39.5C383.125 39.375 383.688 39.4375 383.812 39.6875C383.812 39.9375 383.562 40.375 383.062 41C382.062 42 381.438 43.25 381.188 44.75C381.062 45.625 380.5 46 379.5 45.875C373.125 46.125 368.562 45.6875 365.812 44.5625C362.938 43.5625 360.688 41.4375 359.062 38.1875C356.938 41.1875 353.438 43.875 348.562 46.25C348.062 46.5 347.75 46.5625 347.625 46.4375C347.5 46.3125 347.562 46.0625 347.812 45.6875C352.812 39.8125 355.25 34 355.125 28.25C355 27.625 355.438 27.375 356.438 27.5C358.688 28 360.938 28.6875 363.188 29.5625C363.688 29.8125 363.938 30.125 363.938 30.5C363.812 30.875 363.5 31.1875 363 31.4375C362.625 31.6875 362.25 32.125 361.875 32.75C361.25 34.125 360.688 35.375 360.188 36.5C361.438 37.625 362.875 38.5 364.5 39.125ZM363 19.0625H371.438V13.0625H363V19.0625ZM371.438 5.75H364.312C363.312 5.875 362.875 6.375 363 7.25V11.5625H371.438V5.75ZM385.5 33.125V19.25C385.5 17.5 385.438 16.25 385.312 15.5C385.312 14.625 385.25 13.8125 385.125 13.0625C384.875 11.8125 385.375 11.3125 386.625 11.5625C387.875 11.9375 389.5 12.625 391.5 13.625C391.5 13.625 391.562 13.625 391.688 13.625H392.25V7.4375H388.875C387.5 7.4375 386.562 7.5 386.062 7.625C385.562 7.75 385.25 7.625 385.125 7.25C384.875 7.125 384.625 6.6875 384.375 5.9375C384.125 5.5625 384.25 5.4375 384.75 5.5625C386.625 5.8125 388.25 5.9375 389.625 5.9375H401.438C402.438 4.1875 403.312 3.125 404.062 2.75C404.812 2.75 406.188 3.9375 408.188 6.3125C408.438 7.0625 408.25 7.4375 407.625 7.4375H400.312V13.625H400.875C402 12 402.875 11.25 403.5 11.375C404.75 11.75 406.25 12.875 408 14.75C408.125 15.125 407.875 15.5625 407.25 16.0625C406.625 16.5625 406.375 17.25 406.5 18.125C406.375 19.625 406.375 23.8125 406.5 30.6875C406.625 36.9375 406.688 40.5625 406.688 41.5625C406.688 42.3125 406.688 42.875 406.688 43.25C408.312 43.375 409.812 43.5 411.188 43.625H415.312V35.5625H411.75C410.375 35.5625 409.5 35.625 409.125 35.75C408.625 36 408.312 35.9375 408.188 35.5625C407.938 35.4375 407.688 35.125 407.438 34.625C407.438 34.5 407.438 34.375 407.438 34.25C407.312 34 407.25 33.875 407.25 33.875C407.25 33.75 407.375 33.6875 407.625 33.6875C409.25 33.9375 410.938 34.0625 412.688 34.0625H415.312V27.875H412.125C410.625 30.375 409.062 32.3125 407.438 33.6875C407.188 33.9375 407 33.9375 406.875 33.6875C406.75 33.5625 406.812 33.25 407.062 32.75C408.062 29.75 408.5 26.5 408.375 23C408.375 22.875 408.5 22.6875 408.75 22.4375C408.375 22.3125 408.25 21.8125 408.375 20.9375C408.5 17.8125 408.625 14.3125 408.75 10.4375C408.625 9.8125 408.562 8.75 408.562 7.25C408.438 5.875 408.375 4.8125 408.375 4.0625C408.125 2.8125 408.625 2.3125 409.875 2.5625C411.125 2.9375 412.688 3.5 414.562 4.25C414.562 4.25 414.688 4.3125 414.938 4.4375H421.688C422.688 2.9375 423.5 2.125 424.125 2C426.75 3 428.75 4.4375 430.125 6.3125C430.125 6.9375 429.812 7.375 429.188 7.625C428.812 8.125 428.625 8.625 428.625 9.125C428.625 10.125 428.625 11.9375 428.625 14.5625C428.625 16.9375 428.688 18.5 428.812 19.25C429.062 20.875 428.625 21.75 427.5 21.875C426.875 22.125 425.75 22.3125 424.125 22.4375C423.5 22.4375 423.125 22.4375 423 22.4375C422.75 22.6875 422.5 22.9375 422.25 23.1875C421.75 23.4375 421.562 24 421.688 24.875V26.375H423.188C424.438 24.25 425.312 23.25 425.812 23.375C426.562 23.5 428.125 24.5625 430.5 26.5625C430.875 27.3125 430.625 27.75 429.75 27.875H421.688V34.0625H423C424.5 31.6875 425.5 30.625 426 30.875C426.75 31 428.188 32.1875 430.312 34.4375C430.562 34.8125 430.625 35.125 430.5 35.375C430.375 35.5 430.125 35.5625 429.75 35.5625H421.688V43.625H423.562C424.938 41.5 426.062 40.375 426.938 40.25C428.188 40.625 429.75 41.8125 431.625 43.8125C431.75 44.0625 431.75 44.3125 431.625 44.5625C431.625 44.6875 431.438 44.8125 431.062 44.9375H410.438C409.438 44.9375 408.5 45.0625 407.625 45.3125C407.25 45.3125 406.938 45.1875 406.688 44.9375C406.438 44.5625 406.25 44.1875 406.125 43.8125C405.875 43.9375 405.688 44 405.562 44C405.188 44 404.812 44.0625 404.438 44.1875C404.062 44.4375 403.688 44.625 403.312 44.75C401.812 45 401.188 44.5625 401.438 43.4375V41.9375H391.125V43.0625C391.125 44.6875 390.562 45.625 389.438 45.875C388.312 46.125 387.5 46.3125 387 46.4375C385.75 46.5625 385.188 46.125 385.312 45.125C385.312 43.875 385.312 42.375 385.312 40.625C385.312 39.5 385.312 38.3125 385.312 37.0625C385.438 35.8125 385.5 34.5 385.5 33.125ZM391.125 30.5V34.25H401.438V28.625H400.5C397.625 29 396.375 27.625 396.75 24.5V15.125H395.625C395.625 23 394.125 28.125 391.125 30.5ZM391.125 35.75V40.8125H401.438V35.75H391.125ZM414.375 12.875V18.5H422.25V12.875H414.375ZM422.25 5.75H414.938L414.75 5.9375C414.5 6.1875 414.375 6.6875 414.375 7.4375V11.375H422.25V5.75ZM412.875 26.375H415.312C415.188 25.875 415.125 25.125 415.125 24.125C415 23.125 414.938 22.375 414.938 21.875C414.688 20.625 415.25 20.125 416.625 20.375C417.75 20.5 419.25 20.75 421.125 21.125C421.5 21.25 421.875 21.3125 422.25 21.3125V20H414.375C414.125 21.125 413.562 21.75 412.688 21.875C411.688 22.125 410.875 22.3125 410.25 22.4375C411.625 22.8125 413 23.1875 414.375 23.5625C415 24.0625 414.938 24.5625 414.188 25.0625C413.562 25.4375 413.125 25.875 412.875 26.375ZM392.25 15.125H391.5C391.125 15.375 391 15.9375 391.125 16.8125V28.625C391.875 25.25 392.25 20.75 392.25 15.125ZM401.438 15.125H400.312V23.9375C400.312 24.6875 400.688 25.0625 401.438 25.0625V15.125ZM395.625 13.625H396.75V7.4375H395.625V13.625ZM465.938 7.625H462.375C462.875 8.25 462.875 8.75 462.375 9.125C461.75 9.375 461.5 9.75 461.625 10.25C461.375 22.625 460.25 31.125 458.25 35.75C456.625 40.125 452.812 43.9375 446.812 47.1875C446.062 47.4375 445.562 47.5 445.312 47.375C445.188 47.125 445.438 46.6875 446.062 46.0625C450.812 41.3125 453.5 33 454.125 21.125C454.125 19.75 454.125 18 454.125 15.875C454.25 14 454.312 11.25 454.312 7.625C453.812 7.625 453.188 7.6875 452.438 7.8125C451.938 7.8125 451.625 7.8125 451.5 7.8125C451.125 8.0625 450.875 8 450.75 7.625C450.375 7.375 450 6.9375 449.625 6.3125C449.375 6.0625 449.5 5.9375 450 5.9375C450.25 5.9375 450.938 6 452.062 6.125C454.062 6.125 455.625 6.125 456.75 6.125H465.562C465.562 6 465.688 5.8125 465.938 5.5625C467.062 4.0625 467.875 3.3125 468.375 3.3125C469.375 3.4375 471.562 4.5625 474.938 6.6875C475.812 7.6875 475.75 8.4375 474.75 8.9375C473.75 9.4375 473.125 9.9375 472.875 10.4375C471.875 14.8125 471 18.375 470.25 21.125H470.438C471.938 19.125 472.875 18.125 473.25 18.125C474.75 18.375 476.75 19.625 479.25 21.875C480 22.875 479.938 23.5625 479.062 23.9375C478.312 24.5625 477.875 25 477.75 25.25C477.625 27.875 477.438 30.4375 477.188 32.9375C476.812 35.5625 476.438 38.1875 476.062 40.8125C475.562 43.1875 474.5 44.75 472.875 45.5C471.25 46.25 469.562 46.75 467.812 47C466.188 47.375 465.312 47 465.188 45.875C464.812 43.5 463.5 42.0625 461.25 41.5625C460.5 41.3125 460.125 41.0625 460.125 40.8125C460.125 40.4375 460.562 40.25 461.438 40.25C466.438 40.75 468.938 39.8125 468.938 37.4375C469.562 33.6875 470.125 28.6875 470.625 22.4375H469.875C469.75 22.5625 469.688 22.75 469.688 23C469.688 23.125 469.625 23.1875 469.5 23.1875C469.25 23.6875 468.812 24.1875 468.188 24.6875C467.562 25.3125 466.875 25.3125 466.125 24.6875C464.75 23.9375 463.562 23.1875 462.562 22.4375C461.938 21.8125 461.938 21.1875 462.562 20.5625C463.062 20.1875 463.438 19.5 463.688 18.5C464.188 16.5 464.875 13.1875 465.75 8.5625C465.75 8.1875 465.812 7.875 465.938 7.625ZM446.25 16.8125V43.4375C446.375 44.9375 445.812 45.875 444.562 46.25C443.188 46.75 441.938 47.0625 440.812 47.1875C438.812 47.9375 438.062 46.8125 438.562 43.8125C438.688 38.6875 438.812 33.625 438.938 28.625V23.5625C437.438 25.4375 435.688 27.3125 433.688 29.1875C433.188 29.5625 432.812 29.6875 432.562 29.5625C432.312 29.4375 432.375 29.0625 432.75 28.4375C436.625 19.9375 439.188 11.0625 440.438 1.8125C440.312 0.9375 440.812 0.5 441.938 0.5C442.938 0.625 445.312 1.1875 449.062 2.1875C449.562 2.3125 450 2.375 450.375 2.375C451.375 3.125 451.375 3.9375 450.375 4.8125C449.75 4.9375 449.25 5.3125 448.875 5.9375C447.875 8.4375 446.812 10.8125 445.688 13.0625C445.812 13.1875 445.938 13.25 446.062 13.25C446.312 13.375 446.5 13.4375 446.625 13.4375C447.125 13.5625 447.438 13.875 447.562 14.375C447.562 14.75 447.375 15.0625 447 15.3125C446.375 15.4375 446.125 15.9375 446.25 16.8125ZM514.5 14.375H519.188C519.438 14.125 519.75 13.6875 520.125 13.0625C521.25 11.5625 521.938 10.8125 522.188 10.8125C523.062 10.8125 524.812 12 527.438 14.375C528.062 15.125 527.938 15.625 527.062 15.875C526.062 15.875 524.25 15.875 521.625 15.875C519.125 15.75 517.5 15.6875 516.75 15.6875H514.688C516.938 22.5625 521.062 27.0625 527.062 29.1875C528.062 29.9375 528.062 30.625 527.062 31.25C525.438 31.875 523.875 33.3125 522.375 35.5625C521.875 36.5625 521.25 36.6875 520.5 35.9375C516.125 32.3125 513.75 27.125 513.375 20.375C512.25 28.75 506 34.125 494.625 36.5C493.875 36.75 493.438 36.75 493.312 36.5C493.188 36.125 493.438 35.75 494.062 35.375C501.938 31.125 506.312 24.5625 507.188 15.6875H505.125C505 15.6875 504.75 15.75 504.375 15.875C503.875 15.875 503.562 15.875 503.438 15.875C500.188 27 493.375 33.9375 483 36.6875C482.625 36.9375 482.312 36.9375 482.062 36.6875C482.062 36.5625 482.25 36.3125 482.625 35.9375C486.5 32.6875 489.188 29.8125 490.688 27.3125C488.562 28.1875 487.438 27.3125 487.312 24.6875C487.062 23.1875 486.688 21.875 486.188 20.75C486.188 20.625 486.188 20.5625 486.188 20.5625C484.812 21.6875 483.438 22.6875 482.062 23.5625C481.562 23.9375 481.188 24.0625 480.938 23.9375C480.812 23.8125 480.938 23.5 481.312 23C483.688 19.375 485.562 14.625 486.938 8.75C487.062 7.75 487.188 6.625 487.312 5.375C487.438 4.125 487.562 3.0625 487.688 2.1875C487.562 1.5625 488 1.25 489 1.25C492.125 1.75 494.75 2.3125 496.875 2.9375C497.875 3.8125 497.812 4.5625 496.688 5.1875C495.812 5.5625 495.25 6 495 6.5C494.375 7.625 493.938 8.625 493.688 9.5H497.25C498.5 7.75 499.375 6.875 499.875 6.875C501.625 7.5 503.75 8.75 506.25 10.625C507 11.75 506.812 12.4375 505.688 12.6875C504.938 13.0625 504.375 13.5625 504 14.1875C504.875 14.4375 505.5 14.5 505.875 14.375H507.375C507.25 13.5 507.312 12.5625 507.562 11.5625C507.438 8.6875 507.312 5.9375 507.188 3.3125C507.188 2.5625 507.188 2 507.188 1.625C506.938 0.875 507.25 0.5625 508.125 0.6875C510.25 0.6875 512.812 0.9375 515.812 1.4375C516.312 1.5625 516.625 1.875 516.75 2.375C516.75 2.75 516.5 3.0625 516 3.3125C515.625 3.5625 515.375 3.8125 515.25 4.0625C518.875 3.9375 521.375 4.5 522.75 5.75C524 7.875 523.625 9.5625 521.625 10.8125C519.625 11.6875 518.375 11.3125 517.875 9.6875C517 7.6875 516 6.1875 514.875 5.1875C514.875 5.3125 514.875 5.4375 514.875 5.5625C514.75 8.8125 514.625 11.75 514.5 14.375ZM517.875 43.8125C517.625 41.0625 516.875 38.625 515.625 36.5C515.25 36.25 515.125 36 515.25 35.75C515.5 35.625 515.875 35.5625 516.375 35.5625C522 36.9375 525.25 39.3125 526.125 42.6875C526 45.3125 524.5 46.8125 521.625 47.1875C519.125 47.1875 517.875 46.0625 517.875 43.8125ZM483.75 40.8125C485.75 40.1875 487.625 38.625 489.375 36.125C489.625 35.75 489.875 35.5625 490.125 35.5625C490.375 35.6875 490.625 35.9375 490.875 36.3125C492.25 40.0625 491.812 43.1875 489.562 45.6875C486.438 48.1875 484.125 48.25 482.625 45.875C481.125 43.25 481.5 41.5625 483.75 40.8125ZM506.438 43.625C506.438 41.5 506.062 39.375 505.312 37.25C505.062 36.875 505 36.625 505.125 36.5C505.25 36.375 505.625 36.3125 506.25 36.3125C510.875 37.0625 513.562 38.9375 514.312 41.9375C514.438 44.6875 513.062 46.375 510.188 47C507.688 47.125 506.438 46 506.438 43.625ZM495.375 44C495.5 41.75 495.312 39.625 494.812 37.625C494.562 37.125 494.5 36.8125 494.625 36.6875C494.75 36.5625 495.125 36.5 495.75 36.5C500.125 37.875 502.562 40.0625 503.062 43.0625C502.938 45.8125 501.438 47.25 498.562 47.375C496.312 47.25 495.25 46.125 495.375 44ZM497.25 11H492.938C492.688 11.375 492.438 11.75 492.188 12.125C491.812 12.875 491.562 13.375 491.438 13.625C493.312 13.875 494.875 14.5 496.125 15.5C496.5 14 496.875 12.5 497.25 11ZM492.938 23.1875V23.375C493.312 22.625 493.688 21.875 494.062 21.125C492.562 21.375 491.625 20.5 491.25 18.5C491 18.25 490.812 17.8125 490.688 17.1875C490.562 16.5625 490.438 16.0625 490.312 15.6875C489.188 17.1875 488.062 18.5625 486.938 19.8125C490.188 20.3125 492.188 21.4375 492.938 23.1875ZM547.688 27.6875V24.125C542.312 29.5 536.438 33.625 530.062 36.5C529.562 36.75 529.25 36.75 529.125 36.5C529 36.125 529.125 35.75 529.5 35.375C538.5 26.875 544.938 17.6875 548.812 7.8125H538.875C537.5 7.9375 536.062 8 534.562 8C533.188 8.125 532.188 8.25 531.562 8.375C531.188 8.5 530.875 8.3125 530.625 7.8125C530.375 7.5625 530.125 7.125 529.875 6.5C529.625 6.375 529.5 6.25 529.5 6.125C529.5 6 529.688 5.9375 530.062 5.9375C531.062 6.1875 532.75 6.375 535.125 6.5C537.125 6.5 538.938 6.5 540.562 6.5H563.25C565.125 3 566.5 1.125 567.375 0.875C569.375 1.875 571.688 3.8125 574.312 6.6875C574.562 7.1875 574.688 7.625 574.688 8C574.562 8.25 574.312 8.3125 573.938 8.1875C569.438 8.0625 564.938 7.9375 560.438 7.8125H553.312C556.062 9.1875 557.75 9.9375 558.375 10.0625C558.875 10.5625 559.125 11.0625 559.125 11.5625C558.875 12.0625 558.438 12.3125 557.812 12.3125C556.938 12.3125 556.25 12.6875 555.75 13.4375C555.5 13.9375 555.188 14.5 554.812 15.125C554.688 15.375 554.562 15.625 554.438 15.875C554.562 16 554.75 16.0625 555 16.0625C555.125 16.1875 555.312 16.25 555.562 16.25C556.062 16.375 556.375 16.6875 556.5 17.1875C556.5 17.5625 556.25 17.875 555.75 18.125C555.25 18.5 555.062 19.0625 555.188 19.8125V27.3125C555.062 34.5625 555.188 39.625 555.562 42.5C555.562 44.5 554.875 45.6875 553.5 46.0625C552.5 46.4375 551.188 46.75 549.562 47C547.312 47.625 546.5 46.4375 547.125 43.4375C547.25 41.8125 547.375 39.6875 547.5 37.0625C547.5 33.9375 547.562 30.8125 547.688 27.6875ZM565.688 33.3125C564.062 29.3125 561.062 25.3125 556.688 21.3125C556.312 21.0625 556.125 20.8125 556.125 20.5625C556.25 20.3125 556.562 20.25 557.062 20.375C563.562 22 568.562 24.6875 572.062 28.4375C573.562 31.0625 573.312 33.3125 571.312 35.1875C568.812 36.4375 566.938 35.8125 565.688 33.3125ZM622.5 43.25H606.75V44C606.75 45.25 606.25 46.0625 605.25 46.4375C605.125 46.4375 605.062 46.4375 605.062 46.4375C604.312 46.8125 603.25 47.0625 601.875 47.1875C600.625 47.4375 600.125 46.6875 600.375 44.9375C600.5 43.1875 600.625 41.25 600.75 39.125C600.75 36.75 600.812 34.25 600.938 31.625V31.0625C600.812 31.1875 600.688 31.3125 600.562 31.4375C599.938 31.8125 599.625 32.25 599.625 32.75C599.75 32.75 599.812 32.75 599.812 32.75V34.4375C599.812 36.5625 599.875 38.5625 600 40.4375C600 40.6875 600.062 40.8125 600.188 40.8125C600.188 42.8125 599.625 44.1875 598.5 44.9375C598 45.0625 596.75 45.4375 594.75 46.0625C594.5 46.0625 594.375 46.125 594.375 46.25C592.875 46.5 592.125 46.125 592.125 45.125C591.625 43.375 590.812 42.25 589.688 41.75C588.688 41.375 588.312 41.125 588.562 41C588.438 40.75 588.875 40.6875 589.875 40.8125C593.125 41.0625 594.562 40.125 594.188 38C593.688 38.5 593.188 38.8125 592.688 38.9375C591.438 39.3125 590.812 38.625 590.812 36.875C590.812 36.5 590.812 36.125 590.812 35.75C590.562 35.875 590.312 36 590.062 36.125C587.562 37.875 586.125 39.0625 585.75 39.6875C585.125 40.3125 584.688 40.3125 584.438 39.6875C583.938 39.0625 583.5 38.0625 583.125 36.6875V44C583 44.875 582.5 45.5625 581.625 46.0625C581.375 46.0625 581.125 46.0625 580.875 46.0625C579.625 46.4375 578.75 46.625 578.25 46.625C577.125 46.875 576.625 46.3125 576.75 44.9375C576.75 43.8125 576.812 42.375 576.938 40.625C577.062 38.5 577.188 36.125 577.312 33.5C577.312 32.875 577.25 31.8125 577.125 30.3125C577.125 29.1875 577.125 28.4375 577.125 28.0625C577 27.4375 577 27.0625 577.125 26.9375C577.25 26.8125 577.625 26.75 578.25 26.75C579.75 27.25 581.5 27.75 583.5 28.25C583.625 28.5 583.812 28.6875 584.062 28.8125H585.938C586.062 28.0625 586.188 27.3125 586.312 26.5625C586.312 25.8125 586.375 25.125 586.5 24.5H583.688C583.562 24.625 583.438 24.8125 583.312 25.0625C583.312 25.1875 583.188 25.5 582.938 26C582.562 26.5 582.125 26.625 581.625 26.375C580.125 25.875 578.75 25.125 577.5 24.125C577.125 24 577.125 23.625 577.5 23C578.125 22.375 578.438 21.5625 578.438 20.5625V17.75C578.438 16.25 578.375 15.0625 578.25 14.1875C578.125 13.6875 578.125 13.3125 578.25 13.0625C578.375 12.9375 578.75 12.875 579.375 12.875C579.375 13 579.5 13.0625 579.75 13.0625C581.75 13.3125 583.25 13.5625 584.25 13.8125C585 14.3125 585.062 14.875 584.438 15.5C584.062 15.75 583.875 16.25 583.875 17V21.5C585.125 19.875 586.25 18.25 587.25 16.625C586.25 15.375 585.25 14.1875 584.25 13.0625C584 12.9375 583.875 12.75 583.875 12.5C584 12.375 584.25 12.3125 584.625 12.3125C585 12.4375 586.312 13 588.562 14C588.812 13.5 589 13 589.125 12.5C589.25 12.125 589.438 11.75 589.688 11.375C589.812 10.875 590.188 10.6875 590.812 10.8125C592.688 11.6875 594.125 12.375 595.125 12.875C595.5 13.25 595.625 13.625 595.5 14C596.75 14.25 597.875 14.4375 598.875 14.5625C599.625 14.9375 599.75 15.5 599.25 16.25C599.125 16.375 599.062 16.4375 599.062 16.4375C598.812 16.5625 598.75 16.9375 598.875 17.5625C598.875 17.8125 598.875 18.3125 598.875 19.0625C600.5 14.3125 601.688 8.625 602.438 2C602.438 1.125 602.875 0.75 603.75 0.875C604.375 1.25 605.625 1.6875 607.5 2.1875C608.375 2.5625 609 2.75 609.375 2.75C609 2.375 608.938 2.125 609.188 2C609.312 1.875 609.688 1.8125 610.312 1.8125C613.438 2.4375 615.375 3.9375 616.125 6.3125C616.375 8.3125 615.688 9.625 614.062 10.25C611.688 11.125 610.5 10.1875 610.5 7.4375C610.5 6.5625 610.438 5.6875 610.312 4.8125C610.188 4.8125 610.125 4.8125 610.125 4.8125C609.5 5.0625 609 5.625 608.625 6.5C608 8 607.375 9.5 606.75 11V11.75H614.812C616.188 9.25 617.188 7.9375 617.812 7.8125C619.188 8.1875 620.938 9.5625 623.062 11.9375C623.438 12.6875 623.25 13.125 622.5 13.25H615.375C614.75 13.75 614.5 14.3125 614.625 14.9375V21.5C616 18.875 617 17.625 617.625 17.75C618.625 18 620.25 19.25 622.5 21.5C622.875 22.25 622.688 22.6875 621.938 22.8125H614.625V30.6875C616 28.4375 617.062 27.25 617.812 27.125C619.188 27.625 620.875 29 622.875 31.25C623.25 32 623.062 32.4375 622.312 32.5625H614.625V41.1875C616.375 39.0625 617.438 38 617.812 38C618.812 38.25 620.562 39.5625 623.062 41.9375C623.438 42.5625 623.25 43 622.5 43.25ZM593.438 10.625H580.312C579.562 10.75 578.812 10.875 578.062 11C577.688 11.125 577.438 11 577.312 10.625C577.062 10.5 576.812 10.1875 576.562 9.6875C576.562 9.5625 576.562 9.4375 576.562 9.3125C576.188 8.9375 576.25 8.8125 576.75 8.9375C578.125 9.1875 579.5 9.3125 580.875 9.3125H593.625C594.625 7.3125 595.5 6.1875 596.25 5.9375C597.5 6.3125 599 7.5 600.75 9.5C601 10.25 600.812 10.6875 600.188 10.8125C599.438 10.8125 598.562 10.8125 597.562 10.8125C596.688 10.8125 595.312 10.75 593.438 10.625ZM586.125 7.25C585.375 4.875 584.625 3.1875 583.875 2.1875C583.625 1.9375 583.562 1.75 583.688 1.625C583.688 1.375 583.938 1.25 584.438 1.25C588.562 1.125 591.125 1.9375 592.125 3.6875C592.875 6.0625 592.125 7.6875 589.875 8.5625C588 9.3125 586.75 8.875 586.125 7.25ZM593.812 24.5H590.625C591.25 24.75 591.75 24.9375 592.125 25.0625C592.625 25.3125 592.875 25.625 592.875 26C592.75 26.5 592.5 26.8125 592.125 26.9375C591.875 26.9375 591.562 27.1875 591.188 27.6875C590.938 28.0625 590.75 28.4375 590.625 28.8125H593.625C594.625 27.1875 595.375 26.375 595.875 26.375C597.5 27 599.188 28.1875 600.938 29.9375V19.8125C600.312 20.3125 599.812 20.8125 599.438 21.3125C599.312 21.4375 599.188 21.5 599.062 21.5C599.062 21.625 599.062 21.6875 599.062 21.6875C598.938 21.9375 598.938 22.3125 599.062 22.8125C599.188 23.1875 599.25 23.375 599.25 23.375C599.375 24.375 599 25.0625 598.125 25.4375C596.5 25.9375 595.562 26.125 595.312 26C594.312 26.125 593.812 25.625 593.812 24.5ZM594.188 34.25V30.3125H589.688C588.438 32.1875 587.562 33.5 587.062 34.25C587.188 34.25 587.562 34.25 588.188 34.25C589.188 34.125 589.938 34.0625 590.438 34.0625C590.312 33.3125 590.188 32.625 590.062 32C589.812 31.75 589.75 31.5 589.875 31.25C590 31.125 590.25 31.125 590.625 31.25C591.875 32 593.062 33 594.188 34.25ZM606.75 32.5625V41.75H608.25V32.5625H606.75ZM606.75 22.8125V31.0625H608.25V22.8125H606.75ZM606.75 13.25V21.5H608.25V13.25H606.75ZM584.062 23H593.812V20.75C593.688 21.375 593.375 21.8125 592.875 22.0625C591.5 23.1875 590.438 22.9375 589.688 21.3125C589.438 20.8125 589.188 20.3125 588.938 19.8125C587.312 21.0625 585.688 22.125 584.062 23ZM583.125 31.625V34.625C583.125 34.5 583.188 34.4375 583.312 34.4375C584.188 34.1875 584.75 33.6875 585 32.9375C585.125 32.4375 585.312 31.5625 585.562 30.3125H583.5C583.25 30.5625 583.125 31 583.125 31.625ZM593.812 19.4375V18.875C593.812 17.25 593.75 16 593.625 15.125C593.375 15.375 593.25 15.5 593.25 15.5C592.75 15.875 592.438 16.25 592.312 16.625C592.312 16.75 592.375 16.875 592.5 17C592.5 17.125 592.562 17.1875 592.688 17.1875C593.188 17.9375 593.562 18.6875 593.812 19.4375ZM650.062 12.875V8.9375C649.938 7.5625 649.812 6.3125 649.688 5.1875C649.312 4.1875 649.75 3.6875 651 3.6875C652 4.0625 653.938 4.625 656.812 5.375C657.188 5.625 657.438 5.875 657.562 6.125H661.125C662.5 4 663.562 2.9375 664.312 2.9375C666.938 4.0625 669.25 5.625 671.25 7.625C671.25 8.375 670.938 8.875 670.312 9.125C669.438 9.625 669.062 10.125 669.188 10.625V20.75C669.062 23.875 669.125 28.75 669.375 35.375C669.375 37.625 669.438 39.3125 669.562 40.4375C669.812 42.8125 669.125 44.375 667.5 45.125C666 46.25 664.5 47 663 47.375C661.25 47.75 660.312 47.3125 660.188 46.0625C659.938 44.3125 658.75 43.0625 656.625 42.3125C655.625 41.9375 655.188 41.5 655.312 41C655.188 40.875 655.812 40.8125 657.188 40.8125C661.312 41.1875 663.125 40.0625 662.625 37.4375V19.0625H655.875C655.625 19.3125 655.312 19.4375 654.938 19.4375C653.938 19.8125 652.75 20 651.375 20C649.875 20.25 649.312 19.4375 649.688 17.5625C649.812 16.0625 649.938 14.5 650.062 12.875ZM626.812 20.9375V13.4375C626.688 11.6875 626.625 10.125 626.625 8.75C626.5 7.375 626.375 6.375 626.25 5.75C626 5 626 4.5 626.25 4.25C626.5 4 627 3.9375 627.75 4.0625C628.75 4.3125 629.875 4.625 631.125 5C632.125 5.25 633.125 5.4375 634.125 5.5625C634.5 5.8125 634.812 6 635.062 6.125H638.812C639.688 4.5 640.438 3.625 641.062 3.5C642.562 3.875 644.562 5 647.062 6.875C647.312 7.625 647.125 8.1875 646.5 8.5625C645.875 8.8125 645.562 9.1875 645.562 9.6875C645.562 10.5625 645.562 11.8125 645.562 13.4375C645.688 14.9375 645.812 16 645.938 16.625C646.188 18.125 645.812 19 644.812 19.25C643.438 19.75 642.188 20 641.062 20C640.188 20.125 639.688 19.8125 639.562 19.0625H633.375V28.0625C633.25 31.9375 633.312 36.625 633.562 42.125C633.562 42.625 633.625 43.0625 633.75 43.4375C633.75 44.9375 633.188 45.875 632.062 46.25C630.562 46.875 629.438 47.1875 628.688 47.1875C626.562 47.5625 625.75 46.625 626.25 44.375C626.375 42.125 626.5 39.0625 626.625 35.1875C626.625 31.1875 626.688 26.4375 626.812 20.9375ZM642.75 23.5625H652.5C653.75 21.6875 654.688 20.5625 655.312 20.1875C656.562 20.6875 658 21.8125 659.625 23.5625C659.875 24.0625 660 24.4375 660 24.6875C659.875 24.9375 659.625 25.0625 659.25 25.0625C658.875 25.0625 658.312 25.0625 657.562 25.0625C656.312 24.9375 655.375 24.875 654.75 24.875C654.625 25 654.562 25.0625 654.562 25.0625C654.188 25.3125 654.062 25.6875 654.188 26.1875V31.25H654.75C656.25 29.125 657.25 28.0625 657.75 28.0625C659 28.5625 660.438 29.6875 662.062 31.4375C662.562 32.3125 662.438 32.8125 661.688 32.9375C659.938 32.8125 657.438 32.75 654.188 32.75C654.062 36.625 654.188 39.625 654.562 41.75C654.562 43 654.062 43.8125 653.062 44.1875C652.312 44.5625 651.375 44.875 650.25 45.125C648.5 45.5 647.812 44.6875 648.188 42.6875C648.188 41.6875 648.188 40.5 648.188 39.125C648.188 37.625 648.25 35.5 648.375 32.75H645.375C644.875 38.25 642.062 42.3125 636.938 44.9375C636.188 45.1875 635.688 45.1875 635.438 44.9375C635.312 44.8125 635.438 44.5 635.812 44C637.938 41.625 639.188 37.875 639.562 32.75C638.688 32.875 637.875 33 637.125 33.125C636.625 33.125 636.312 33.125 636.188 33.125C635.688 33.25 635.375 33.125 635.25 32.75C635 32.625 634.75 32.375 634.5 32C634.375 31.75 634.312 31.5625 634.312 31.4375C634.188 31.0625 634.312 30.875 634.688 30.875C635.938 31.125 637.562 31.25 639.562 31.25V25.0625C639.062 25.0625 638.5 25.125 637.875 25.25C637.5 25.25 637.312 25.25 637.312 25.25C636.812 25.5 636.5 25.375 636.375 24.875C636.25 24.875 636.125 24.75 636 24.5C635.875 24.25 635.75 23.9375 635.625 23.5625C635.375 23.1875 635.438 23.0625 635.812 23.1875C636.312 23.3125 637.25 23.4375 638.625 23.5625C640.375 23.5625 641.75 23.5625 642.75 23.5625ZM662.625 7.4375H656.625C656.625 7.5625 656.562 7.8125 656.438 8.1875C656.438 8.5625 656.438 8.8125 656.438 8.9375V11.9375H662.625V7.4375ZM656.438 17.5625H662.625V13.25H656.438V17.5625ZM633.375 13.25V17.5625H639.375V13.25H633.375ZM639.375 7.4375H634.5C633.625 7.9375 633.25 8.8125 633.375 10.0625V11.9375H639.375V7.4375ZM645.562 31.25H648.375V24.875H645.562V30.5C645.562 30.875 645.562 31.125 645.562 31.25ZM674.625 31.8125V20.375C674.625 18.125 674.562 16.4375 674.438 15.3125C674.438 13.9375 674.375 12.625 674.25 11.375C674.125 10 674.562 9.5 675.562 9.875C677.438 10.5 679.438 11.3125 681.562 12.3125H681.938C681.938 10.4375 681.938 8.625 681.938 6.875C681.938 5.125 681.938 3.5 681.938 2C681.688 1.25 682.062 0.9375 683.062 1.0625C685.062 1.1875 687.125 1.5 689.25 2C690 2.125 690.375 2.4375 690.375 2.9375C690.5 3.3125 690.25 3.625 689.625 3.875C689 4.375 688.562 4.9375 688.312 5.5625C687.188 8.0625 685.938 10.3125 684.562 12.3125H688.5C689.625 10.6875 690.5 9.8125 691.125 9.6875C693.625 10.5625 695.688 11.9375 697.312 13.8125C697.312 14.4375 697 14.875 696.375 15.125C695.75 15.5 695.5 15.9375 695.625 16.4375V21.875C698 14.5 699.375 7.8125 699.75 1.8125C699.625 1.1875 699.938 0.875 700.688 0.875C703.438 1.375 706.125 2.0625 708.75 2.9375C709.25 3.3125 709.5 3.6875 709.5 4.0625C709.375 4.4375 709.062 4.75 708.562 5C707.562 5.5 707 6.125 706.875 6.875C706.25 8.875 705.562 10.6875 704.812 12.3125H709.5C711 10.3125 712.062 9.25 712.688 9.125C716.062 10.625 718.375 12.125 719.625 13.625C719.625 14.25 719.25 14.75 718.5 15.125C717.75 15.5 717.438 15.9375 717.562 16.4375C717.438 29.4375 717.188 37.625 716.812 41C716.312 44.5 713.5 46.625 708.375 47.375C706.875 47.625 706 47.3125 705.75 46.4375C705 43.5625 703.312 41.75 700.688 41C699.438 41 699 40.6875 699.375 40.0625C699.25 39.5625 699.75 39.4375 700.875 39.6875C704 40.1875 706.062 40.375 707.062 40.25C708.062 40.125 708.688 39.5 708.938 38.375C709.688 31.375 710.125 23.1875 710.25 13.8125H704.062C702.812 16.3125 701.438 18.625 699.938 20.75C704.562 22.125 707.125 24.625 707.625 28.25C707.625 31.375 706.25 33 703.5 33.125C701.25 33.375 700 32.3125 699.75 29.9375C699.875 27.4375 699.438 24.9375 698.438 22.4375C698.188 22.6875 697.938 22.9375 697.688 23.1875C696.812 24.0625 696.125 24.6875 695.625 25.0625V27.6875C695.625 30.9375 695.812 35.375 696.188 41C696.188 41.875 695.75 42.5 694.875 42.875C693.25 43.25 691.875 43.5 690.75 43.625C689.125 43.875 688.438 43.5 688.688 42.5V39.875H681.375V42.125C681.375 43.625 680.75 44.5 679.5 44.75C678.375 45 677.25 45.1875 676.125 45.3125C674.375 45.5625 673.75 44.8125 674.25 43.0625C674.375 39.8125 674.5 36.0625 674.625 31.8125ZM688.688 13.8125H682.125C681.5 14.1875 681.25 14.75 681.375 15.5V25.625H688.688V13.8125ZM681.375 27.125V38.375H688.688V27.125H681.375ZM733.875 29.5625C733.875 29.4375 733.812 29.25 733.688 29C733.562 28.75 733.562 28.5 733.688 28.25C729.562 30.375 727.125 31.875 726.375 32.75C725.75 33.5 725.25 33.875 724.875 33.875C724.5 33.875 724.188 33.5 723.938 32.75C722.938 31.5 722.188 30.0625 721.688 28.4375C721.438 28.0625 721.438 27.6875 721.688 27.3125C721.812 27.0625 722.125 26.8125 722.625 26.5625C724 26.0625 725.188 25.1875 726.188 23.9375C727.062 22.5625 727.938 21 728.812 19.25C726.688 20.25 725.562 20.875 725.438 21.125C724.312 22.375 723.5 22.3125 723 20.9375C722 19.5625 721.312 18.25 720.938 17C720.688 16.5 720.688 16.125 720.938 15.875C720.812 15.75 721.062 15.5 721.688 15.125C723.188 14.375 724.188 13.1875 724.688 11.5625C725.812 8.1875 726.5 5.125 726.75 2.375C726.75 1.125 727.438 0.6875 728.812 1.0625C730.438 1.6875 732.438 2.5 734.812 3.5C735.312 3.875 735.562 4.3125 735.562 4.8125C735.562 5.3125 735.25 5.625 734.625 5.75C733.625 6 732.938 6.5625 732.562 7.4375C729.688 11.1875 727.5 13.75 726 15.125C727.375 15.125 729 15.125 730.875 15.125C731 14.625 731.188 13.9375 731.438 13.0625C731.688 12.4375 731.875 11.875 732 11.375C732.125 10 732.812 9.5 734.062 9.875C734.438 10.125 735.188 10.5625 736.312 11.1875C737.688 11.8125 738.688 12.25 739.312 12.5C740.438 13.625 740.375 14.4375 739.125 14.9375C738.375 14.9375 737.688 15.375 737.062 16.25C735.438 18.375 733.875 20.3125 732.375 22.0625C732.375 22.0625 732.5 22.0625 732.75 22.0625C735.75 22.9375 737.875 24.6875 739.125 27.3125C739.5 29.3125 738.875 30.75 737.25 31.625C735.25 32.125 734.125 31.4375 733.875 29.5625ZM764.438 29.1875H755.625C754.875 29.6875 754.562 30.3125 754.688 31.0625V42.3125H757.688C759.312 40.0625 760.562 38.8125 761.438 38.5625C762.188 38.8125 763.938 40.125 766.688 42.5C766.938 42.75 767 43 766.875 43.25C766.875 43.375 766.688 43.5 766.312 43.625H741.375C740.375 43.625 739.438 43.75 738.562 44C738.062 44 737.75 43.9375 737.625 43.8125C737.375 43.4375 737.125 42.9375 736.875 42.3125C736.625 41.8125 736.75 41.6875 737.25 41.9375C739 42.0625 740.688 42.1875 742.312 42.3125H747.375V29.1875H744.188C743.188 29.3125 742.25 29.4375 741.375 29.5625C740.875 29.6875 740.562 29.625 740.438 29.375C740.312 29.25 740.125 29 739.875 28.625C739.75 28.375 739.688 28.125 739.688 27.875C739.438 27.5 739.562 27.375 740.062 27.5C741.688 27.75 743.312 27.875 744.938 27.875H756.375C756.375 27.75 756.5 27.5625 756.75 27.3125C757.5 26.4375 758.188 25.75 758.812 25.25C758.688 25.125 758.562 24.9375 758.438 24.6875C758.188 24.3125 758.125 24 758.25 23.75C757.75 21.75 756.562 19.8125 754.688 17.9375C754.312 17.6875 754.25 17.4375 754.5 17.1875C754.375 17.0625 754.438 16.875 754.688 16.625C756.062 15.125 757.25 12.8125 758.25 9.6875C758.25 8.9375 758.812 8.75 759.938 9.125C761.438 9.875 762.938 10.6875 764.438 11.5625C764.812 11.9375 764.938 12.3125 764.812 12.6875C764.562 12.9375 764.25 13 763.875 12.875C763.25 12.875 762.688 13.125 762.188 13.625C760.312 14.875 758.438 16.125 756.562 17.375C760.188 18.375 762.438 19.6875 763.312 21.3125C763.938 23.1875 763.562 24.625 762.188 25.625C762.938 26.25 763.875 27.0625 765 28.0625C765.25 28.4375 765.312 28.75 765.188 29C765.062 29.125 764.812 29.1875 764.438 29.1875ZM746.25 17.9375V17.75C746.25 17.875 746.25 17.8125 746.25 17.5625C746.25 17.5625 746.312 17.5 746.438 17.375C747.938 14.875 749.125 12.1875 750 9.3125C750 8.3125 750.5 8 751.5 8.375C753.125 8.875 754.875 9.5 756.75 10.25C757.25 11.125 757.062 11.625 756.188 11.75C755.438 11.875 754.812 12.1875 754.312 12.6875C752.312 14.6875 750.312 16.3125 748.312 17.5625C751.562 18.5625 753.75 19.875 754.875 21.5C755.75 23.5 755.312 25 753.562 26C751.562 26.75 750.375 26.125 750 24.125C749.625 22.25 748.5 20.3125 746.625 18.3125C746.25 18.3125 746.125 18.1875 746.25 17.9375ZM741.75 24.3125C741.75 22.4375 740.938 20.5 739.312 18.5C739.062 18.375 739.062 18.1875 739.312 17.9375C739.312 17.8125 739.312 17.625 739.312 17.375C740.188 15.5 740.875 12.75 741.375 9.125C741.25 8.25 741.75 7.875 742.875 8C743.375 8.25 744.5 8.5625 746.25 8.9375C747.375 9.1875 748.062 9.3125 748.312 9.3125C748.562 9.4375 748.688 9.75 748.688 10.25C748.562 10.625 748.312 10.8125 747.938 10.8125C747.188 11.0625 746.562 11.5 746.062 12.125C744.312 14.625 742.5 16.625 740.625 18.125C744.25 19.5 746.375 21.0625 747 22.8125C747.25 25.1875 746.562 26.5625 744.938 26.9375C742.812 27.3125 741.75 26.4375 741.75 24.3125ZM764.25 6.5H741.75C740.625 6.625 739.75 6.75 739.125 6.875C738.5 7 738.188 6.9375 738.188 6.6875C737.812 6.4375 737.562 5.9375 737.438 5.1875C737.188 4.8125 737.25 4.6875 737.625 4.8125C739.5 5.0625 741.188 5.1875 742.688 5.1875H755.625C757.25 2.6875 758.5 1.3125 759.375 1.0625C760.25 1.3125 762 2.75 764.625 5.375C764.875 5.75 764.938 6.0625 764.812 6.3125C764.812 6.4375 764.625 6.5 764.25 6.5ZM721.312 40.4375C723.062 38.9375 724.25 37 724.875 34.625C724.875 34.375 725 34.25 725.25 34.25C725.625 34.25 725.875 34.375 726 34.625C727.375 37.625 727.562 40.4375 726.562 43.0625C725.062 44.9375 723.375 45.25 721.5 44C720.375 42.625 720.312 41.4375 721.312 40.4375ZM735.375 38.375C735.125 36 734.25 34.125 732.75 32.75C732.375 32.5 732.25 32.3125 732.375 32.1875C732.5 32.0625 732.812 31.9375 733.312 31.8125C736.188 32.0625 738.438 33 740.062 34.625C741.562 37.25 741.188 39.1875 738.938 40.4375C737.188 40.8125 736 40.125 735.375 38.375ZM728.812 40.4375C729.188 38.0625 729.125 35.9375 728.625 34.0625C728.5 33.8125 728.5 33.6875 728.625 33.6875C728.75 33.5625 729 33.5625 729.375 33.6875C732 35.4375 733.625 37.3125 734.25 39.3125C734.5 41.8125 733.438 43.1875 731.062 43.4375C729.188 43.0625 728.438 42.0625 728.812 40.4375ZM727.5 26.75C727.625 26.75 727.75 26.75 727.875 26.75C730 26.375 731.812 26.125 733.312 26C732.812 24.875 732.312 23.875 731.812 23C731.812 23 731.75 22.9375 731.625 22.8125C731.5 22.8125 731.5 22.75 731.625 22.625C730.25 24.25 728.875 25.625 727.5 26.75ZM789.562 19.4375V26.75C789.562 27.75 789.188 28.375 788.438 28.625C786.938 29.125 785.875 29.3125 785.25 29.1875C783.75 29.4375 783.188 28.875 783.562 27.5C783.688 26.75 783.75 25.625 783.75 24.125C781.75 26.25 780.188 27.5625 779.062 28.0625C778.188 35.9375 775 42.3125 769.5 47.1875C769.125 47.5625 768.812 47.6875 768.562 47.5625C768.312 47.4375 768.312 47.125 768.562 46.625C771.312 40.25 772.688 30.6875 772.688 17.9375V12.3125C772.562 8.6875 772.312 5.75 771.938 3.5C771.688 2.875 771.688 2.4375 771.938 2.1875C772.188 1.9375 772.688 1.875 773.438 2C775.812 2.75 778 3.4375 780 4.0625C780.5 4.4375 780.812 4.75 780.938 5H805.125C807 2 808.25 0.4375 808.875 0.3125C810.875 1.1875 812.938 2.75 815.062 5C815.438 5.875 815.188 6.375 814.312 6.5C813.812 6.5 813 6.5 811.875 6.5C810.25 6.5 809.062 6.4375 808.312 6.3125C809.438 7.4375 810.688 8.75 812.062 10.25C812.188 11.25 811.812 11.625 810.938 11.375C810.188 11.125 809.438 11.0625 808.688 11.1875C807.312 11.4375 806 11.625 804.75 11.75V15.125H807C808 13.25 808.812 12.25 809.438 12.125C810.562 12.5 812 13.5 813.75 15.125C814 15.625 814.062 16 813.938 16.25C813.812 16.375 813.562 16.4375 813.188 16.4375H806.438C808.188 20.3125 811 22.4375 814.875 22.8125C815.25 22.9375 815.438 23.125 815.438 23.375C815.562 23.75 815.438 24 815.062 24.125C813.312 25 812.188 26.125 811.688 27.5C811.312 28.25 810.875 28.375 810.375 27.875C807 25.75 805.312 21.9375 805.312 16.4375H804.75V19.8125C804.625 20.3125 804.625 21.5 804.75 23.375C804.875 25.25 804.938 26.375 804.938 26.75C804.938 27.625 804.5 28.1875 803.625 28.4375C803.375 28.5625 802.5 28.75 801 29C801.25 29.5 801.125 30 800.625 30.5C800.125 30.625 799.875 31.125 799.875 32V35.1875H804.188C805.562 32.9375 806.625 31.6875 807.375 31.4375C808.625 31.9375 810.25 33.25 812.25 35.375C812.5 36.125 812.312 36.5 811.688 36.5H799.875V43.4375H806.25C807.625 41.5625 808.938 40.375 810.188 39.875C811.438 40.25 813 41.4375 814.875 43.4375C815.25 44.1875 815.125 44.6875 814.5 44.9375C814.125 44.9375 812.812 44.875 810.562 44.75C806.812 44.75 804.5 44.75 803.625 44.75H782.25C781 44.75 779.438 44.9375 777.562 45.3125C777.188 45.3125 776.875 45.1875 776.625 44.9375C776.375 44.6875 776.188 44.4375 776.062 44.1875C775.812 43.9375 775.625 43.75 775.5 43.625C775.25 43.375 775.125 43.1875 775.125 43.0625C775.25 43.0625 775.438 43.0625 775.688 43.0625C777.438 43.1875 779.938 43.3125 783.188 43.4375H783.562V37.4375C783.438 35.8125 783.312 34.3125 783.188 32.9375C782.938 32.3125 782.938 31.875 783.188 31.625C783.312 31.375 783.812 31.25 784.688 31.25C784.938 31.375 785.25 31.4375 785.625 31.4375C787.75 31.6875 789.312 31.875 790.312 32C790.812 32.125 791.125 32.375 791.25 32.75C791.25 33.25 791.062 33.625 790.688 33.875C790.188 34 789.938 34.5 789.938 35.375V43.4375H793.125V34.0625C793 32.4375 792.875 30.9375 792.75 29.5625C792.75 29.4375 792.688 29.25 792.562 29C792.562 28.625 792.625 28.3125 792.75 28.0625C792.875 27.9375 793.375 27.875 794.25 27.875C794.75 27.875 795.75 28.0625 797.25 28.4375C797.875 28.4375 798.312 28.4375 798.562 28.4375C798.562 28.0625 798.562 27.6875 798.562 27.3125C798.562 27.0625 798.625 26.375 798.75 25.25C798.75 24.75 798.812 24.0625 798.938 23.1875C796.812 25.6875 794.25 27.4375 791.25 28.4375C790.875 28.6875 790.562 28.75 790.312 28.625C790.188 28.5 790.312 28.25 790.688 27.875C792.062 26.625 793.312 25.125 794.438 23.375C792.688 24.5 791.438 24 790.688 21.875C790.438 21 790.062 20.1875 789.562 19.4375ZM803.25 6.3125H791.438C792.688 7.4375 794 8.875 795.375 10.625C795.5 10.875 795.562 11.0625 795.562 11.1875C799.312 9.9375 802.438 8.3125 804.938 6.3125H803.25ZM779.625 7.8125V10.4375C782.875 9.5625 785.875 8.1875 788.625 6.3125H780.75C780.5 6.5625 780.438 6.625 780.562 6.5C779.812 6.75 779.5 7.1875 779.625 7.8125ZM796.5 15.125H798.938V12.125C797.812 12.375 796.688 12.4375 795.562 12.3125C794.938 12.3125 794.688 12.125 794.812 11.75C794.562 11.875 794.438 11.8125 794.438 11.5625C793.688 11.4375 792.938 11.375 792.188 11.375C791.812 11.5 791.375 11.5625 790.875 11.5625C790.25 11.6875 789.812 11.75 789.562 11.75V15.125H790.688C791.562 13.5 792.25 12.5625 792.75 12.3125C794 12.8125 795.25 13.75 796.5 15.125ZM783 16.625H782.625C781.25 16.625 780.25 16.6875 779.625 16.8125V18.125C779.625 19.125 779.562 20.4375 779.438 22.0625C779.438 23.5625 779.438 24.625 779.438 25.25C781.188 22.25 782.375 19.375 783 16.625ZM796.125 16.625H789.562V17.5625C791.562 17.5625 793.25 18.0625 794.625 19.0625C795.375 19.6875 795.688 20.5 795.562 21.5C796.312 20 797 18.3125 797.625 16.4375H796.688C796.438 16.6875 796.25 16.75 796.125 16.625ZM783.375 15.125H783.938V12.125C782.312 12.125 780.875 12.125 779.625 12.125V15.125C780.5 15.125 781.75 15.125 783.375 15.125ZM861.188 20.5625H853.312V25.8125H855.562C855.562 25.8125 855.688 25.625 855.938 25.25C856.812 24 857.5 23.375 858 23.375C860.75 24.5 862.688 25.8125 863.812 27.3125C863.812 27.8125 863.562 28.3125 863.062 28.8125C862.688 29.0625 862.5 29.5 862.5 30.125C862.25 33.625 862 37.125 861.75 40.625C861.375 43.875 858.625 45.875 853.5 46.625C852.25 46.75 851.5 46.375 851.25 45.5C850.875 43.5 849.625 42.0625 847.5 41.1875C846.75 41.0625 846.5 40.8125 846.75 40.4375C846.625 40.1875 847.062 40.0625 848.062 40.0625C853.188 40.6875 855.625 40.0625 855.375 38.1875C855.5 37.5625 855.562 36.9375 855.562 36.3125C855.188 36.9375 854.625 37.3125 853.875 37.4375C852.25 37.5625 851.375 36.6875 851.25 34.8125C850.875 32.5625 850.312 30.75 849.562 29.375C849.438 28.75 849.688 28.5 850.312 28.625C853.188 29.75 855.062 31 855.938 32.375C855.938 32.625 855.938 32.6875 855.938 32.5625C855.938 31.9375 855.938 31.25 855.938 30.5C856.062 29.75 856.125 28.6875 856.125 27.3125H842.625C842.625 27.4375 842.562 27.5625 842.438 27.6875C842.312 27.8125 842.312 27.875 842.438 27.875C841.812 28.625 841.188 28.875 840.562 28.625C838.812 28.25 837.438 27.6875 836.438 26.9375C835.562 26.4375 835.438 25.8125 836.062 25.0625C836.688 24.4375 837 23.3125 837 21.6875V8.5625C837 6.9375 836.938 5.8125 836.812 5.1875C836.562 4.4375 836.5 3.9375 836.625 3.6875C836.875 3.4375 837.375 3.375 838.125 3.5C840.625 4 842.562 4.5625 843.938 5.1875C844.312 5.4375 844.625 5.625 844.875 5.75H855.75C856.75 4 857.562 3 858.188 2.75C859.438 3.25 860.75 4.25 862.125 5.75C862.375 6.125 862.5 6.5 862.5 6.875C862.375 7.125 862.125 7.25 861.75 7.25H853.312V12.5H855.375C856.125 10.875 856.938 9.8125 857.812 9.3125C859.062 9.8125 860.375 10.875 861.75 12.5C862.25 13.375 862.125 13.875 861.375 14H853.312V19.0625H855.375C856.125 17.6875 856.875 16.6875 857.625 16.0625C858.75 16.4375 860.062 17.4375 861.562 19.0625C861.812 19.4375 861.938 19.8125 861.938 20.1875C861.812 20.4375 861.562 20.5625 861.188 20.5625ZM818.438 22.25V15.125C818.312 11.875 818.188 8.8125 818.062 5.9375C817.938 5.3125 817.938 4.9375 818.062 4.8125C818.312 4.5625 818.75 4.5 819.375 4.625C821.375 5.25 823.375 5.9375 825.375 6.6875C825.75 6.9375 826 7.1875 826.125 7.4375H826.875C827.625 5.6875 828.375 4.6875 829.125 4.4375C831 4.9375 833.125 6.125 835.5 8C835.625 8.625 835.312 9.125 834.562 9.5C834.188 9.75 834 10.1875 834 10.8125V20.9375C834 22.0625 834 23.5625 834 25.4375C834.125 27.1875 834.25 28.375 834.375 29C834.5 30 834.125 30.625 833.25 30.875C832 31.5 830.688 31.8125 829.312 31.8125C827.688 32.1875 827 31.8125 827.25 30.6875V29.375H825.188V30.6875C825.188 32.6875 824.625 33.75 823.5 33.875C823.125 34 822.75 34.0625 822.375 34.0625C821.125 34.4375 820.25 34.5625 819.75 34.4375C818 34.6875 817.375 33.875 817.875 32C818 31.375 818.125 30.1875 818.25 28.4375C818.25 26.4375 818.312 24.375 818.438 22.25ZM832.125 35.75C833.75 34.25 834.938 32.3125 835.688 29.9375C835.688 29.6875 835.75 29.5625 835.875 29.5625C836.125 29.5625 836.375 29.6875 836.625 29.9375C838.125 32.4375 838.125 35.3125 836.625 38.5625C835.375 40.1875 833.875 40.5 832.125 39.5C830.875 38.375 830.875 37.125 832.125 35.75ZM827.25 8.75H825.188C825.188 9.125 825.188 9.4375 825.188 9.6875V28.0625H827.25V8.75ZM845.25 35.9375C845.25 33.8125 844.812 31.75 843.938 29.75C843.688 29.5 843.625 29.3125 843.75 29.1875C843.875 29.0625 844.125 29.0625 844.5 29.1875C847.25 30.3125 849.062 31.875 849.938 33.875C850.812 36.75 850.125 38.3125 847.875 38.5625C846.25 38.8125 845.375 37.9375 845.25 35.9375ZM839.062 35.9375C839.562 34.0625 839.5 32.125 838.875 30.125C838.75 29.875 838.75 29.75 838.875 29.75C839.125 29.625 839.438 29.625 839.812 29.75C842.062 31.25 843.438 33.0625 843.938 35.1875C844.188 38.0625 843.188 39.4375 840.938 39.3125C839.562 39.1875 838.938 38.0625 839.062 35.9375ZM843.375 25.8125H847.125V20.5625H843.562V25.625C843.438 25.875 843.375 25.9375 843.375 25.8125ZM843.562 14V19.0625H847.125V14H843.562ZM843.562 8.75V12.5H847.125V7.25H844.125C843.625 7.5 843.438 8 843.562 8.75ZM877.688 34.0625H875.25V31.0625C875.25 29.4375 875.875 27.6875 877.125 25.8125C878.75 23.8125 879.562 21.75 879.562 19.625C879.562 15.125 878.062 12.8125 875.062 12.6875C872.688 12.9375 871.062 13.8125 870.188 15.3125C870.438 15.3125 870.688 15.3125 870.938 15.3125C873.312 15.4375 874.562 16.5 874.688 18.5C874.438 20.5 873.188 21.625 870.938 21.875C868.562 21.75 867.312 20.4375 867.188 17.9375C867.562 13.5625 870.75 11.125 876.75 10.625C883.125 11 886.562 13.375 887.062 17.75C887.062 20.375 885.438 22.875 882.188 25.25C879.188 27.5 877.688 29.75 877.688 32V34.0625ZM872.25 40.0625C872.5 37.6875 873.812 36.3125 876.188 35.9375C878.688 36.1875 880.062 37.5625 880.312 40.0625C879.938 42.0625 878.562 43.25 876.188 43.625C873.812 43.25 872.5 42.0625 872.25 40.0625Z" fill="#10656A"/>
</svg>
