<svg width="936" height="49" viewBox="0 0 936 49" fill="none" xmlns="http://www.w3.org/2000/svg">
<path d="M34.6875 19.625V23.1875C34.6875 22.8125 35.0625 22.8125 35.8125 23.1875C40.6875 25.0625 44.1875 28.0625 46.3125 32.1875C47.0625 35.6875 46.125 38 43.5 39.125C40.875 39.625 39.3125 38.125 38.8125 34.625C38.3125 31.125 37.0625 27.625 35.0625 24.125C34.8125 24 34.6875 23.8125 34.6875 23.5625V25.8125C34.5625 32.6875 34.625 37.625 34.875 40.625C35.125 42.875 34.4375 44.5 32.8125 45.5C30.9375 46.5 29.0625 47.125 27.1875 47.375C25.5625 47.625 24.6875 47.25 24.5625 46.25C24.1875 44.125 23.125 42.8125 21.375 42.3125C20.375 41.9375 19.9375 41.5625 20.0625 41.1875C19.9375 41.0625 20.5625 41 21.9375 41C25.9375 41.625 27.75 40.375 27.375 37.25V24.875C27.375 25.125 27.1875 25.25 26.8125 25.25C26.1875 25.5 25.875 25.875 25.875 26.375C23.875 32.625 20.4375 37.3125 15.5625 40.4375C14.9375 40.8125 14.5625 40.9375 14.4375 40.8125C14.3125 40.6875 14.4375 40.3125 14.8125 39.6875C16.5625 35.6875 17.8125 32.0625 18.5625 28.8125C18.5625 28.6875 18.5625 28.375 18.5625 27.875C18.9375 26.5 19.1875 25 19.3125 23.375C19.4375 22.375 19.9375 21.9375 20.8125 22.0625C22.6875 22.3125 24.6875 22.8125 26.8125 23.5625C27.1875 23.9375 27.375 24.125 27.375 24.125V23.5625C27.25 22.0625 27.1875 20.625 27.1875 19.25C27.0625 17.875 26.9375 16.875 26.8125 16.25C26.4375 14.875 26.9375 14.3125 28.3125 14.5625C30.0625 14.8125 32.3125 15.1875 35.0625 15.6875C36.3125 16.4375 36.5 17.1875 35.625 17.9375C34.875 18.3125 34.5625 18.875 34.6875 19.625ZM13.5 18.125V35.75C13.375 39.25 13.4375 41.75 13.6875 43.25C13.9375 44.875 13.375 45.9375 12 46.4375C10.75 46.8125 9.4375 47.125 8.0625 47.375C5.9375 48 5.1875 46.875 5.8125 44C5.8125 43.375 5.8125 42.4375 5.8125 41.1875C6.1875 35.6875 6.375 31.5625 6.375 28.8125V22.625C4.625 24.75 2.875 26.4375 1.125 27.6875C0.75 28.0625 0.5 28.125 0.375 27.875C0.25 27.625 0.3125 27.25 0.5625 26.75C3.5625 20.75 5.9375 14.5625 7.6875 8.1875C8.3125 6.4375 8.75 4.1875 9 1.4375C8.875 0.6875 9.375 0.3125 10.5 0.3125C12 0.6875 14.5 1.4375 18 2.5625C18.75 3.3125 18.75 4.0625 18 4.8125C17.125 5.1875 16.625 5.5625 16.5 5.9375C14.875 9.1875 13.4375 12 12.1875 14.375C12.3125 14.375 12.5625 14.4375 12.9375 14.5625C13.3125 14.5625 13.5625 14.5625 13.6875 14.5625C14.5625 15.1875 14.6875 15.8125 14.0625 16.4375C13.5625 16.8125 13.375 17.375 13.5 18.125ZM36.9375 17.375L38.25 12.875H25.875C23.125 17.25 19.625 20.8125 15.375 23.5625C15 23.8125 14.75 23.8125 14.625 23.5625C14.5 23.4375 14.5625 23.125 14.8125 22.625C18.0625 17.625 20.375 12.4375 21.75 7.0625C22 6.0625 22.1875 5.125 22.3125 4.25C22.5625 3.25 22.6875 2.3125 22.6875 1.4375C22.6875 0.5625 23.1875 0.25 24.1875 0.5C25.3125 0.625 27.25 1.125 30 2C30.25 2.125 30.5625 2.1875 30.9375 2.1875C31.3125 2.4375 31.5625 2.8125 31.6875 3.3125C31.5625 3.8125 31.3125 4.0625 30.9375 4.0625C30.0625 4.4375 29.5625 4.9375 29.4375 5.5625C28.5625 7.6875 27.6875 9.625 26.8125 11.375H37.3125C38.1875 9.375 39.125 8.1875 40.125 7.8125C42 8.1875 44.1875 9.625 46.6875 12.125C47.3125 12.75 47.5625 13.4375 47.4375 14.1875C47.3125 14.9375 46.6875 15.3125 45.5625 15.3125C42.5625 15.0625 40.0625 16 38.0625 18.125C37.5625 18.5 37.1875 18.625 36.9375 18.5C36.8125 18.375 36.8125 18 36.9375 17.375ZM66.375 17.1875H78.5625C79.3125 15.8125 80.0625 14.9375 80.8125 14.5625C83.3125 15.3125 85.5625 16.625 87.5625 18.5C87.6875 18.875 87.375 19.3125 86.625 19.8125C86.125 19.8125 86 21.1875 86.25 23.9375C86.5 25.3125 86 26.125 84.75 26.375C84.5 26.5 84.1875 26.5625 83.8125 26.5625C83.3125 26.6875 83 26.75 82.875 26.75C83.375 27.5 83.25 28 82.5 28.25C81.25 28.375 80.5 28.625 80.25 29C80.125 29.125 80 29.25 79.875 29.375C78.25 30.75 77.0625 31.5625 76.3125 31.8125H85.5C87.5 29.1875 88.875 27.8125 89.625 27.6875C91 28.1875 92.9375 29.625 95.4375 32C96.0625 32.875 95.9375 33.4375 95.0625 33.6875C91.9375 33.5625 87.8125 33.4375 82.6875 33.3125H58.125C55.25 33.4375 52.8125 33.5625 50.8125 33.6875C50.4375 33.9375 50.125 33.8125 49.875 33.3125C49.625 33.0625 49.375 32.625 49.125 32C48.875 31.875 48.75 31.75 48.75 31.625C48.875 31.625 49.0625 31.5625 49.3125 31.4375C49.9375 31.5625 51.3125 31.6875 53.4375 31.8125C55.5625 31.8125 57.6875 31.8125 59.8125 31.8125H65.25C64.625 31.6875 64.3125 31.125 64.3125 30.125C64.0625 28.875 63.625 27.8125 63 26.9375C61.75 27.1875 60.75 27.3125 60 27.3125C58.375 27.4375 57.75 26.8125 58.125 25.4375C58 25.1875 58 24.4375 58.125 23.1875C58.25 22.0625 58.3125 21.3125 58.3125 20.9375C58.1875 19.0625 58.0625 17.75 57.9375 17C57.6875 15.75 58.25 15.25 59.625 15.5C60.25 15.625 61.5625 15.875 63.5625 16.25C64.4375 16.5 65.125 16.625 65.625 16.625C65.625 16.75 65.75 16.875 66 17C66.125 17.125 66.25 17.1875 66.375 17.1875ZM65.625 36.3125H79.3125C79.9375 35.1875 80.6875 34.3125 81.5625 33.6875C84.4375 34.6875 86.75 36.0625 88.5 37.8125C88.5 38.1875 88.125 38.5625 87.375 38.9375C87.125 39.0625 86.9375 39.5625 86.8125 40.4375C86.8125 40.9375 86.875 42.375 87 44.75C87.25 46 86.75 46.75 85.5 47C84.375 47.25 83.125 47.4375 81.75 47.5625C80.25 47.6875 79.625 47.1875 79.875 46.0625V44.5625H64.875V45.125C64.875 45.875 64.5625 46.4375 63.9375 46.8125C62.5625 47.1875 61.0625 47.4375 59.4375 47.5625C57.8125 47.6875 57.1875 47.0625 57.5625 45.6875C57.4375 45.4375 57.4375 44.4375 57.5625 42.6875C57.6875 41.3125 57.75 40.5 57.75 40.25C57.625 39.125 57.5625 38.125 57.5625 37.25C57.5625 36.625 57.5625 36.1875 57.5625 35.9375C57.4375 35.3125 57.4375 34.9375 57.5625 34.8125C57.6875 34.6875 58.1875 34.625 59.0625 34.625C61.0625 35 63.0625 35.4375 65.0625 35.9375C65.4375 36.1875 65.625 36.3125 65.625 36.3125ZM80.4375 14H60.75C58.75 14.125 57.1875 14.25 56.0625 14.375C55.5625 14.5 55.25 14.4375 55.125 14.1875C55 14.1875 54.8125 13.9375 54.5625 13.4375C54.3125 13.0625 54.1875 12.8125 54.1875 12.6875C53.9375 12.5625 54.0625 12.4375 54.5625 12.3125C56.0625 12.5625 58.4375 12.6875 61.6875 12.6875H68.4375V8H60.75C57.75 8.125 55.3125 8.25 53.4375 8.375C52.9375 8.5 52.625 8.375 52.5 8C52.25 7.75 51.9375 7.3125 51.5625 6.6875C51.4375 6.4375 51.375 6.3125 51.375 6.3125C51.375 6.1875 51.5625 6.125 51.9375 6.125C52.5625 6.25 53.9375 6.375 56.0625 6.5C58.0625 6.5 60.125 6.5 62.25 6.5H68.4375C68.3125 5.75 68.25 5.0625 68.25 4.4375C68.125 3.3125 68.0625 2.5625 68.0625 2.1875C67.5625 0.9375 68.0625 0.375 69.5625 0.5C71.6875 0.875 74 1.25 76.5 1.625C76.875 1.75 77.0625 2 77.0625 2.375C76.9375 2.75 76.6875 3.0625 76.3125 3.3125C75.8125 3.6875 75.625 4.3125 75.75 5.1875V6.5H83.8125C85.5625 4 86.875 2.625 87.75 2.375C88.75 2.5 90.75 3.9375 93.75 6.6875C94.125 7.1875 94.25 7.625 94.125 8C94 8.25 93.6875 8.3125 93.1875 8.1875C92.5625 8.1875 91.25 8.1875 89.25 8.1875C85.625 8.0625 82.875 8 81 8H75.75V12.6875H81.9375C82.9375 10.8125 84 9.5625 85.125 8.9375C86.75 9.5625 88.6875 10.875 90.9375 12.875C91.1875 13.75 91.0625 14.1875 90.5625 14.1875C89.8125 14.1875 88.5625 14.1875 86.8125 14.1875C85.0625 14.0625 82.9375 14 80.4375 14ZM79.875 37.8125H65.25C65 38.1875 64.875 38.6875 64.875 39.3125V43.0625H79.875V37.8125ZM79.125 18.6875H65.625C65.375 18.8125 65.3125 19.1875 65.4375 19.8125V23.375H79.125V18.6875ZM67.6875 31.8125H73.6875C74.5625 29.5625 75.1875 27.5 75.5625 25.625C75.4375 24.875 76 24.625 77.25 24.875C77.75 25.125 78.375 25.3125 79.125 25.4375V24.6875H65.4375V24.875C65.4375 25.125 65.4375 25.3125 65.4375 25.4375C67.5625 25.8125 68.9375 26.4375 69.5625 27.3125C70.4375 29.5625 69.8125 31.0625 67.6875 31.8125ZM100.125 37.25V33.5C99.375 34.125 98.625 34.6875 97.875 35.1875C97.375 35.4375 97.0625 35.5 96.9375 35.375C96.8125 35.25 96.875 34.9375 97.125 34.4375C98.375 32.4375 99.4375 30.0625 100.312 27.3125C100.812 25.8125 101.188 24 101.438 21.875C101.188 22 100.812 22.125 100.312 22.25C99.9375 22.25 99.6875 22.25 99.5625 22.25C98.3125 22.375 97.8125 21.6875 98.0625 20.1875C98.1875 19.5625 98.25 18.1875 98.25 16.0625C98.25 14.8125 98.25 13.875 98.25 13.25C98.125 12.875 98.125 12.625 98.25 12.5C98.375 12.375 98.75 12.3125 99.375 12.3125C100 12.4375 101.312 12.8125 103.312 13.4375C103.312 13.5625 103.375 13.625 103.5 13.625C103.5 13.625 103.562 13.6875 103.688 13.8125H104.062C104.812 12.5625 105.312 11.9375 105.562 11.9375C107.062 12.3125 108.562 13.125 110.062 14.375C110.312 14.875 110.25 15.3125 109.875 15.6875C109.5 15.9375 109.312 16.1875 109.312 16.4375V19.4375C109.188 20.0625 109.062 20.4375 108.938 20.5625C109.062 20.5625 109.25 20.5625 109.5 20.5625L110.625 20.75C110.625 20.5 110.625 20.1875 110.625 19.8125V15.6875C110.625 14.8125 110.562 13.9375 110.438 13.0625C110.312 12.5625 110.312 12.25 110.438 12.125C110.562 12 110.938 11.9375 111.562 11.9375C112.562 12.0625 113.812 12.4375 115.312 13.0625C115.312 13.1875 115.375 13.25 115.5 13.25C115.5 13.25 115.562 13.3125 115.688 13.4375H116.062C116.562 12.3125 117.062 11.75 117.562 11.75C118.938 12 120.5 12.75 122.25 14C122.5 14.625 122.375 15.0625 121.875 15.3125C121.625 15.5625 121.5 15.8125 121.5 16.0625C121.5 16.8125 121.5 17.75 121.5 18.875C121.625 19.25 121.625 19.5625 121.5 19.8125C122.125 18.0625 122.812 15.3125 123.562 11.5625C123.688 11.1875 123.812 10.75 123.938 10.25C124.562 6.5 124.875 3.6875 124.875 1.8125C124.75 1.4375 124.75 1.1875 124.875 1.0625C125 0.9375 125.312 0.875 125.812 0.875C127.562 1.25 130.25 1.9375 133.875 2.9375C134.875 3.9375 134.812 4.75 133.688 5.375C132.812 5.625 132.312 6 132.188 6.5C131.438 8.625 130.562 10.625 129.562 12.5H134.625C135.5 11 136.312 10.1875 137.062 10.0625C139.312 10.9375 141.25 12.1875 142.875 13.8125C143.375 14.5625 143.5 15.125 143.25 15.5C143.125 15.875 142.625 16.0625 141.75 16.0625C139.5 16.6875 137.438 18.0625 135.562 20.1875C135.188 20.5625 134.875 20.6875 134.625 20.5625C134.375 20.4375 134.312 20.0625 134.438 19.4375L135.188 14H128.812C128.438 14.5 128.062 15.0625 127.688 15.6875C127.312 16.4375 127 17 126.75 17.375H127.125C128.5 17.5 130.188 17.75 132.188 18.125C132.688 18.125 133.062 18.125 133.312 18.125C134.438 18.875 134.5 19.625 133.5 20.375C133 20.75 132.688 21.25 132.562 21.875C132.438 22.375 132.375 22.9375 132.375 23.5625C132.25 24.3125 132.188 24.875 132.188 25.25C134.812 33.125 138.375 38.375 142.875 41C143.375 41 143.625 41.25 143.625 41.75C143.625 42.25 143.375 42.625 142.875 42.875C141 43.375 139.562 44.6875 138.562 46.8125C137.938 47.5625 137.25 47.5625 136.5 46.8125C133.375 43.0625 131.625 37.625 131.25 30.5C129.125 39.875 123.688 45.5 114.938 47.375C114.312 47.5 113.938 47.4375 113.812 47.1875C113.688 46.9375 113.938 46.6875 114.562 46.4375C116.438 45.3125 118.062 44.125 119.438 42.875H106.125V44.75C106.125 45.75 105.688 46.4375 104.812 46.8125C103.938 47.1875 102.812 47.4375 101.438 47.5625C99.9375 47.6875 99.375 46.875 99.75 45.125C100 43.25 100.125 40.625 100.125 37.25ZM111 10.25V8.1875H108.188V9.125C108.188 10.375 107.688 11.125 106.688 11.375C105.812 11.875 104.812 12.125 103.688 12.125C102.438 12.375 101.938 11.8125 102.188 10.4375C102.188 10.4375 102.188 10.1875 102.188 9.6875C102.312 9.0625 102.375 8.5625 102.375 8.1875H101.438C100.062 8.1875 99.125 8.25 98.625 8.375C98 8.5 97.625 8.375 97.5 8C97.25 7.625 97.0625 7.25 96.9375 6.875C96.8125 6.75 96.75 6.625 96.75 6.5C96.75 6.375 96.9375 6.3125 97.3125 6.3125C99.1875 6.5625 100.875 6.6875 102.375 6.6875V5.9375C102.375 4.6875 102.312 3.5625 102.188 2.5625C102.062 1.8125 102.062 1.375 102.188 1.25C102.312 1 102.75 0.9375 103.5 1.0625C104.75 1.1875 106.312 1.3125 108.188 1.4375C109.188 1.9375 109.375 2.5 108.75 3.125C108.375 3.5 108.188 3.875 108.188 4.25V6.6875H111C111 5.4375 110.938 4.5625 110.812 4.0625C110.812 3.4375 110.812 2.9375 110.812 2.5625C110.562 1.1875 111.062 0.625 112.312 0.875C112.562 1 114.062 1.1875 116.812 1.4375C117.312 1.5625 117.625 1.8125 117.75 2.1875C117.875 2.6875 117.75 3.0625 117.375 3.3125C116.875 3.4375 116.688 3.875 116.812 4.625V6.3125C117.938 4.5625 118.812 3.5625 119.438 3.3125C120.688 3.6875 122.125 4.8125 123.75 6.6875C124.125 7.1875 124.25 7.5625 124.125 7.8125C124 8.0625 123.688 8.1875 123.188 8.1875H116.812C116.688 8.6875 116.75 9.1875 117 9.6875C117 10.4375 116.625 10.9375 115.875 11.1875C115.125 11.5625 114 11.75 112.5 11.75C111.375 12 110.875 11.5 111 10.25ZM121.312 38H114.562V41.5625H115.875C117.125 39.9375 118.062 39 118.688 38.75C119.312 38.875 120.375 39.5 121.875 40.625C124 38 125.312 32.8125 125.812 25.0625C125.812 21.6875 125.75 19.5625 125.625 18.6875C124.25 20.4375 122.812 22.1875 121.312 23.9375C120.938 24.3125 120.625 24.4375 120.375 24.3125C120.125 24.1875 120.125 23.875 120.375 23.375C121 21.75 121.375 20.625 121.5 20C121.375 20.5 121.062 20.75 120.562 20.75C119.438 21.25 118.438 21.5 117.562 21.5C116.812 21.625 116.438 21.1875 116.438 20.1875H115.312C115.312 20.5625 115 20.8125 114.375 20.9375C113.75 21.1875 113.188 21.375 112.688 21.5C113.188 21.875 113.625 22.3125 114 22.8125C114.5 24.3125 114.125 25.375 112.875 26H114.75C114.875 25.75 115.062 25.4375 115.312 25.0625C116.312 23.5625 117 22.8125 117.375 22.8125C118.5 23.1875 119.875 24.25 121.5 26C121.75 26.375 121.812 26.6875 121.688 26.9375C121.562 27.1875 121.312 27.3125 120.938 27.3125H114.562V31.25H114.75C116.25 29.25 117.188 28.1875 117.562 28.0625C118.562 28.4375 119.812 29.5 121.312 31.25C121.562 31.875 121.625 32.25 121.5 32.375C121.5 32.625 121.25 32.6875 120.75 32.5625H114.562V36.5H115.125C116.375 34.625 117.25 33.625 117.75 33.5C118.875 33.875 120.188 34.875 121.688 36.5C121.938 37 122.062 37.375 122.062 37.625C121.938 37.875 121.688 38 121.312 38ZM104.438 20.5625H103.312C103.312 21.0625 103.062 21.375 102.562 21.5C104.688 21.875 106.5 22.3125 108 22.8125C108.375 23.0625 108.562 23.375 108.562 23.75C108.562 24.25 108.375 24.5 108 24.5C107.5 24.625 107.125 24.9375 106.875 25.4375C106.75 25.5625 106.688 25.6875 106.688 25.8125C106.562 25.9375 106.5 26 106.5 26H110.25C109.875 25.75 109.688 25.125 109.688 24.125C109.438 23.125 109.188 22.125 108.938 21.125C108.938 21.125 108.938 21 108.938 20.75C108.688 21 108.438 21.125 108.188 21.125C107.562 21.375 106.875 21.5625 106.125 21.6875C105.875 21.6875 105.688 21.6875 105.562 21.6875C104.938 21.8125 104.562 21.4375 104.438 20.5625ZM106.125 38V41.5625H108.75V38H106.125ZM106.125 32.5625V36.5H108.75V32.5625H106.125ZM106.125 28.25V31.25H108.75V27.3125H106.312C106.312 27.5625 106.25 27.75 106.125 27.875C106 28 106 28.125 106.125 28.25ZM104.438 14.9375H103.5C103.25 15.1875 103.188 15.4375 103.312 15.6875V19.4375H104.438V14.9375ZM116.438 14.5625H115.5C115.25 14.8125 115.188 15.0625 115.312 15.3125V19.0625H116.438V14.5625ZM157.125 29.9375V29.1875C153.125 31.3125 150.812 32.8125 150.188 33.6875C149.188 34.8125 148.375 34.8125 147.75 33.6875C147.5 33.3125 147.188 32.8125 146.812 32.1875C146.188 31.3125 145.75 30.375 145.5 29.375C145.375 28.875 145.438 28.4375 145.688 28.0625C145.688 27.9375 146 27.75 146.625 27.5C147.75 26.75 148.75 25.8125 149.625 24.6875C150.5 23.3125 151.438 21.75 152.438 20C150.688 20.875 149.562 21.5 149.062 21.875C147.938 23.125 147.125 23.0625 146.625 21.6875C145.625 20.3125 144.938 19 144.562 17.75C144.312 17.25 144.312 16.875 144.562 16.625C144.438 16.5 144.688 16.25 145.312 15.875C146.688 15.25 147.688 14.0625 148.312 12.3125C149.188 10.1875 150 7.1875 150.75 3.3125C150.75 2.0625 151.438 1.625 152.812 2C154.438 2.5 156.062 3.1875 157.688 4.0625C158.062 4.1875 158.438 4.3125 158.812 4.4375C159.312 4.6875 159.562 5.125 159.562 5.75C159.562 6.125 159.25 6.4375 158.625 6.6875C157.875 6.8125 157.25 7.25 156.75 8C154.5 10.75 152.125 13.375 149.625 15.875C151 15.875 152.562 15.875 154.312 15.875C155.062 14.125 155.562 12.625 155.812 11.375C156.062 10 156.75 9.5 157.875 9.875C160 10.75 161.688 11.625 162.938 12.5C163.438 12.875 163.688 13.3125 163.688 13.8125C163.688 14.3125 163.375 14.625 162.75 14.75C162 15 161.438 15.5625 161.062 16.4375C158.062 20.3125 155 24 151.875 27.5C153.25 27.5 154.688 27.3125 156.188 26.9375C156.562 26.9375 156.875 26.875 157.125 26.75C156.875 25.75 156.5 24.75 156 23.75C155.75 23.375 155.688 23.125 155.812 23C155.938 22.875 156.188 22.8125 156.562 22.8125C157.812 23.1875 159 23.75 160.125 24.5C160 24.5 160.062 24.4375 160.312 24.3125C165.812 16.8125 168.875 9.75 169.5 3.125C169.375 2.25 169.875 1.875 171 2C173.875 2.875 176.312 3.5625 178.312 4.0625C178.812 4.3125 179 4.6875 178.875 5.1875C178.875 5.6875 178.625 6 178.125 6.125C178 6.25 177.875 6.3125 177.75 6.3125C177.5 6.4375 177.188 6.625 176.812 6.875C180.938 12 185.5 15.5 190.5 17.375C191.25 17.75 191.688 18.125 191.812 18.5C191.812 19 191.438 19.3125 190.688 19.4375C189.188 20.3125 188.062 21.5625 187.312 23.1875C186.938 24.0625 186.312 24.1875 185.438 23.5625C184.812 23.3125 184.188 22.875 183.562 22.25H165.562C164.188 23.375 162.625 24.375 160.875 25.25C161.875 26.125 162.5 27.125 162.75 28.25C163 30.25 162.312 31.625 160.688 32.375C158.562 33.125 157.375 32.3125 157.125 29.9375ZM164.438 36.3125V32.75C164.312 30.625 164.125 29.0625 163.875 28.0625C163.625 27.0625 164.125 26.625 165.375 26.75C167.875 27.375 169.812 27.875 171.188 28.25C171.438 28.5 171.688 28.6875 171.938 28.8125H178.312C179.062 27.3125 179.75 26.5 180.375 26.375C183.375 27.375 185.688 28.625 187.312 30.125C187.438 30.5 187.188 30.9375 186.562 31.4375C186.188 31.6875 186 32.125 186 32.75C186 34.25 186 36.1875 186 38.5625C186.125 40.6875 186.25 42.5 186.375 44C186.375 45.375 185.938 46.1875 185.062 46.4375C184.688 46.4375 183.562 46.625 181.688 47C181.312 47 181 47.0625 180.75 47.1875C179.25 47.1875 178.562 46.625 178.688 45.5V42.3125H171V44.1875C171 45.6875 170.5 46.5625 169.5 46.8125C168 46.9375 166.75 47.0625 165.75 47.1875C164.5 47.4375 164 46.75 164.25 45.125C164.375 43.5 164.438 40.5625 164.438 36.3125ZM178.688 30.3125H171.188C171.188 30.4375 171.125 30.5625 171 30.6875C171 31.0625 171 31.3125 171 31.4375V41H178.688V30.3125ZM167.438 20.9375H177.562C178.438 19.0625 179.188 18 179.812 17.75C179.688 17.75 179.75 17.75 180 17.75C178.5 15.25 177.188 12.1875 176.062 8.5625C174.062 13.6875 171.188 17.8125 167.438 20.9375ZM145.125 41C146.625 40 147.75 38.1875 148.5 35.5625C148.5 35.3125 148.562 35.1875 148.688 35.1875C148.938 35.1875 149.188 35.3125 149.438 35.5625C150.812 38.5625 150.875 41.375 149.625 44C148.375 45.75 146.812 46.0625 144.938 44.9375C144.312 44.3125 144.062 43.6875 144.188 43.0625C144.188 42.1875 144.5 41.5 145.125 41ZM151.688 41.375C152.188 39.125 152.25 36.875 151.875 34.625C151.75 34.375 151.812 34.1875 152.062 34.0625C152.188 33.9375 152.438 33.9375 152.812 34.0625C155.312 36.1875 156.75 38.5 157.125 41C157 42.625 156.062 43.625 154.312 44C152.312 44 151.438 43.125 151.688 41.375ZM158.062 40.0625C157.812 37.3125 157.25 35.25 156.375 33.875C156.125 33.75 156.062 33.5625 156.188 33.3125C156.312 33.1875 156.562 33.125 156.938 33.125C159.812 33.875 161.812 35.5 162.938 38C163.438 40 162.812 41.3125 161.062 41.9375C159.188 42.3125 158.188 41.6875 158.062 40.0625ZM204.75 17.9375V23.5625C205.625 23.1875 206.5 22.875 207.375 22.625L208.5 22.0625V17.375C208.375 13.875 208.125 11.0625 207.75 8.9375C207.5 8.3125 207.438 7.875 207.562 7.625C207.812 7.375 208.312 7.25 209.062 7.25C210.312 7.5 212.562 8 215.812 8.75C216.938 9.375 217.062 10.125 216.188 11C215.562 11.25 215.312 11.75 215.438 12.5V19.4375L218.062 18.3125V7.8125C217.938 7.1875 217.875 6.375 217.875 5.375C217.75 4.375 217.625 3.3125 217.5 2.1875C217.125 0.9375 217.688 0.375 219.188 0.5C220.938 0.75 223 1.125 225.375 1.625C225.875 1.875 226.188 2.25 226.312 2.75C226.312 3.25 226.062 3.5625 225.562 3.6875C225.062 4.0625 224.875 4.5625 225 5.1875V15.6875L228 14.375C229 12.125 229.75 11 230.25 11C233.75 12.5 236.062 13.8125 237.188 14.9375C237.188 15.5625 236.875 16 236.25 16.25C235.875 16.375 235.688 16.875 235.688 17.75C235.562 18.5 235.438 20.4375 235.312 23.5625C235.188 25.4375 235.125 26.75 235.125 27.5C235.125 27.875 235.062 28.25 234.938 28.625C234.938 28.875 234.938 29.0625 234.938 29.1875C235.062 29.0625 235.312 28.9375 235.688 28.8125C236.188 29.0625 236.375 29.625 236.25 30.5C235.75 35.375 236.188 38 237.562 38.375C239.188 39.375 239.938 40.375 239.812 41.375C239.688 42.625 239.125 43.5625 238.125 44.1875C236.875 45.0625 234.75 45.5 231.75 45.5H215.25C210.625 45.5 208.375 43.4375 208.5 39.3125V23.75L207.188 24.125C207.062 24.25 206.875 24.3125 206.625 24.3125C206.125 24.5625 205.5 25 204.75 25.625V33.3125C204.75 34.5625 204.75 36.3125 204.75 38.5625C204.875 40.3125 205 41.8125 205.125 43.0625C205.25 44.8125 204.688 45.875 203.438 46.25C202.438 46.625 201.125 47 199.5 47.375C197.875 47.625 197.188 47 197.438 45.5C197.562 44.125 197.688 42 197.812 39.125C197.812 36 197.875 32.375 198 28.25V22.8125C196.625 24.5625 195.188 26.125 193.688 27.5C193.188 28 192.812 28.1875 192.562 28.0625C192.312 27.9375 192.312 27.5 192.562 26.75C196.438 17.625 198.75 9.5 199.5 2.375C199.625 1 200.25 0.4375 201.375 0.6875C204.25 1.4375 206.625 2.1875 208.5 2.9375C209.5 3.6875 209.438 4.4375 208.312 5.1875C207.562 5.4375 207 6.0625 206.625 7.0625C206 9.3125 205.062 11.5625 203.812 13.8125C203.938 13.9375 204.125 14 204.375 14C204.5 14 204.688 14.0625 204.938 14.1875C205.938 14.6875 206.062 15.3125 205.312 16.0625C204.938 16.4375 204.75 17.0625 204.75 17.9375ZM218.625 39.6875H228.188C231.062 40.4375 233.125 37.4375 234.375 30.6875C233.625 32.4375 231.812 33.625 228.938 34.25C227.688 34.625 226.938 34.3125 226.688 33.3125C226.438 32.0625 225.875 31.0625 225 30.3125C225 30.6875 225 31.1875 225 31.8125C225.125 32.5625 225.188 33.125 225.188 33.5C225.188 34.625 224.625 35.3125 223.5 35.5625C221.875 36.0625 220.25 36.3125 218.625 36.3125C217.625 36.4375 217.188 35.9375 217.312 34.8125C217.438 33.0625 217.562 31.1875 217.688 29.1875C217.812 27.0625 217.938 25 218.062 23V20L215.438 20.9375V35.75C215.188 38.625 216.25 39.9375 218.625 39.6875ZM228.562 15.6875L225 17.1875V26.75V28.25C227.125 28.625 228.188 27.75 228.188 25.625C228.562 20.625 228.688 17.3125 228.562 15.6875ZM266.25 6.875V9.125C266.25 16.375 267.75 22.375 270.75 27.125C274.5 32.75 279.625 36.625 286.125 38.75C287.375 39.25 287.938 39.625 287.812 39.875C287.812 40 287.625 40.125 287.25 40.25C287.125 40.375 286.938 40.5 286.688 40.625C283.938 41.75 282.062 43.25 281.062 45.125C280.438 46.625 279.5 46.8125 278.25 45.6875C269.5 40.8125 265.25 31.5 265.5 17.75C264.625 32.875 256.5 42.25 241.125 45.875C240.75 46 240.5 45.875 240.375 45.5C240.25 45.25 240.438 45 240.938 44.75C252.812 38.5 258.75 26.375 258.75 8.375C258.625 6 258.5 4.375 258.375 3.5C258.125 2.875 258.125 2.4375 258.375 2.1875C258.5 2.0625 259 2 259.875 2C262.25 2.25 264.625 2.6875 267 3.3125C267.625 3.5625 267.938 3.9375 267.938 4.4375C267.938 5.0625 267.625 5.4375 267 5.5625C266.375 5.8125 266.125 6.25 266.25 6.875ZM316.5 39.125V25.4375H308.812C307.812 25.5625 307 25.625 306.375 25.625C305.875 25.625 305.5 25.625 305.25 25.625C304.75 25.75 304.438 25.6875 304.312 25.4375C304.062 25.0625 303.75 24.6875 303.375 24.3125C303.125 24.5625 302.812 24.8125 302.438 25.0625C301.938 25.4375 301.625 25.6875 301.5 25.8125C301.5 27.1875 301.5 29.375 301.5 32.375C301.625 35.875 301.688 38.4375 301.688 40.0625C301.938 42.5625 301.25 44.1875 299.625 44.9375C298.375 45.5625 296.938 46 295.312 46.25C293.438 46.625 292.5 46.25 292.5 45.125C292.375 43.25 291.5 41.9375 289.875 41.1875C288.875 41.0625 288.5 40.75 288.75 40.25C288.75 40 289.312 39.9375 290.438 40.0625C293.438 40.6875 294.812 39.375 294.562 36.125V30.125C294.312 30.375 294.062 30.5 293.812 30.5C293.188 31 292.812 31.5 292.688 32C292.438 32.625 292.125 33 291.75 33.125C291.375 33.125 291.062 32.8125 290.812 32.1875C289.562 29.6875 288.812 27.8125 288.562 26.5625C288.188 25.8125 288.5 25.25 289.5 24.875C291.125 24.75 292.812 24.4375 294.562 23.9375V13.4375H293.812C293.188 13.4375 292.375 13.5 291.375 13.625C291 13.625 290.75 13.625 290.625 13.625C290.125 13.875 289.812 13.8125 289.688 13.4375C289.312 13.0625 289.062 12.6875 288.938 12.3125C288.688 11.9375 288.812 11.75 289.312 11.75C291.438 12 293.062 12.125 294.188 12.125H294.562V9.875C294.438 7.625 294.312 4.8125 294.188 1.4375C293.938 0.8125 294.312 0.5625 295.312 0.6875C297.562 0.9375 299.812 1.3125 302.062 1.8125C302.688 2.0625 303.062 2.4375 303.188 2.9375C303.188 3.4375 302.938 3.8125 302.438 4.0625C301.562 4.4375 301.25 4.9375 301.5 5.5625V11.375C302.5 9.75 303.312 8.875 303.938 8.75C304.812 9.25 306 10.375 307.5 12.125C307.75 12.5 307.875 12.8125 307.875 13.0625C307.875 13.3125 307.688 13.4375 307.312 13.4375H301.5V22.25C301.625 22.25 301.875 22.1875 302.25 22.0625C303 21.9375 304.188 21.5625 305.812 20.9375C306.438 20.8125 306.875 20.875 307.125 21.125C307.25 21.5 307.062 21.875 306.562 22.25C305.812 22.875 305.062 23.375 304.312 23.75C305.312 24 307.188 24.0625 309.938 23.9375H327.188C327.312 23.6875 327.562 23.3125 327.938 22.8125C328.312 22.3125 328.688 21.875 329.062 21.5C328.938 21.625 328.75 21.6875 328.5 21.6875C328.125 21.8125 327.125 22 325.5 22.25C324.125 22.5 323.438 21.9375 323.438 20.5625H315C315 21.4375 314.625 22 313.875 22.25C313.5 22.375 312.812 22.5625 311.812 22.8125C310.812 23.0625 310.125 23.1875 309.75 23.1875C308.375 23.4375 307.75 22.9375 307.875 21.6875C308.125 18.0625 308.25 15 308.25 12.5V9.6875C308.125 7.9375 308 5.875 307.875 3.5C307.625 2.125 308.188 1.5625 309.562 1.8125C311.562 2.3125 313.688 3.125 315.938 4.25H323.062C323.812 2.625 324.625 1.6875 325.5 1.4375C328.375 2.5625 330.562 3.875 332.062 5.375C331.938 6.25 331.562 6.8125 330.938 7.0625C330.562 7.3125 330.375 7.6875 330.375 8.1875C330.375 9.4375 330.438 11.3125 330.562 13.8125C330.562 16.1875 330.625 17.9375 330.75 19.0625C330.75 19.6875 330.688 20.0625 330.562 20.1875C331.938 20.6875 333.562 22 335.438 24.125C335.688 24.5 335.75 24.8125 335.625 25.0625C335.625 25.3125 335.438 25.4375 335.062 25.4375C331.688 25.4375 328.125 25.4375 324.375 25.4375H323.812C323.438 25.8125 323.312 26.375 323.438 27.125V31.4375H326.625C327.75 29.4375 328.75 28.25 329.625 27.875C331 28.375 332.438 29.5625 333.938 31.4375C334.188 31.9375 334.312 32.3125 334.312 32.5625C334.188 32.8125 333.875 32.875 333.375 32.75H323.438V40.25C324.562 40.375 325.938 40.375 327.562 40.25C328.938 40.125 331.125 39.875 334.125 39.5C335.125 39.375 335.688 39.4375 335.812 39.6875C335.812 39.9375 335.562 40.375 335.062 41C334.062 42 333.438 43.25 333.188 44.75C333.062 45.625 332.5 46 331.5 45.875C325.125 46.125 320.562 45.6875 317.812 44.5625C314.938 43.5625 312.688 41.4375 311.062 38.1875C308.938 41.1875 305.438 43.875 300.562 46.25C300.062 46.5 299.75 46.5625 299.625 46.4375C299.5 46.3125 299.562 46.0625 299.812 45.6875C304.812 39.8125 307.25 34 307.125 28.25C307 27.625 307.438 27.375 308.438 27.5C310.688 28 312.938 28.6875 315.188 29.5625C315.688 29.8125 315.938 30.125 315.938 30.5C315.812 30.875 315.5 31.1875 315 31.4375C314.625 31.6875 314.25 32.125 313.875 32.75C313.25 34.125 312.688 35.375 312.188 36.5C313.438 37.625 314.875 38.5 316.5 39.125ZM315 19.0625H323.438V13.0625H315V19.0625ZM323.438 5.75H316.312C315.312 5.875 314.875 6.375 315 7.25V11.5625H323.438V5.75ZM358.312 41H362.438C364.938 41 366.5 39.0625 367.125 35.1875C367.25 34.0625 367.625 33.5 368.25 33.5C368.625 33.5 368.812 34.0625 368.812 35.1875C368.688 37.6875 369.438 39.5625 371.062 40.8125C372.188 41.1875 372.688 41.9375 372.562 43.0625C372.438 43.8125 371.75 44.6875 370.5 45.6875C368.875 46.5625 366.688 47 363.938 47H354.938C349.812 47.125 347.438 45.0625 347.812 40.8125V40.25C347.688 37.875 347.562 35.625 347.438 33.5C347.438 33.5 347.375 33.4375 347.25 33.3125C347.125 33.1875 347.125 33.0625 347.25 32.9375C346.875 33.1875 346.5 33.25 346.125 33.125C344.375 33.25 343.688 32.4375 344.062 30.6875C344.062 30.5625 344.062 30.375 344.062 30.125C344.312 28 344.438 25.875 344.438 23.75C344.438 22.375 344.375 21.4375 344.25 20.9375C344.25 20.1875 344.25 19.4375 344.25 18.6875C344.125 18.0625 344.125 17.625 344.25 17.375C344.5 17.125 344.938 17.0625 345.562 17.1875C346.188 17.4375 346.812 17.625 347.438 17.75C349.188 18.125 350.562 18.5 351.562 18.875C351.812 19 352.062 19.125 352.312 19.25H366.75C367.75 17.875 368.625 17 369.375 16.625H342.75C340.75 16.75 339.188 16.875 338.062 17C337.562 17.25 337.25 17.1875 337.125 16.8125C336.75 16.1875 336.5 15.625 336.375 15.125C336.25 14.875 336.188 14.75 336.188 14.75C336.188 14.625 336.312 14.5625 336.562 14.5625C338.562 15.0625 340.75 15.3125 343.125 15.3125H351.938C351.438 14.8125 351.125 14.0625 351 13.0625C350.625 11.6875 350 10.25 349.125 8.75C348.875 8.625 348.812 8.4375 348.938 8.1875H345.938C344.062 8.3125 342.562 8.4375 341.438 8.5625C341.062 8.6875 340.75 8.5625 340.5 8.1875C340.375 8.1875 340.312 8.125 340.312 8C340.188 7.75 340 7.25 339.75 6.5C339.5 6.125 339.625 6 340.125 6.125C342.75 6.5 345.188 6.6875 347.438 6.6875H357.562C357.438 6.5625 357.312 6.4375 357.188 6.3125C357.062 6.1875 357 6 357 5.75C356.25 3.875 355.312 2.5 354.188 1.625C353.812 1.375 353.688 1.125 353.812 0.875C353.812 0.625 354.062 0.4375 354.562 0.3125C355.438 0.3125 356.312 0.3125 357.188 0.3125C360.062 0.3125 362.125 1.125 363.375 2.75C363.875 4.125 363.688 5.4375 362.812 6.6875H370.688C372.188 4.1875 373.375 2.875 374.25 2.75C375.375 2.875 377.25 4.1875 379.875 6.6875C380.25 7.4375 380.125 7.9375 379.5 8.1875H367.312C368.688 8.8125 369.938 9.5 371.062 10.25C371.438 11 371.25 11.5 370.5 11.75C369.875 11.625 369.312 11.75 368.812 12.125C367.438 13.375 366.25 14.4375 365.25 15.3125H373.688C375.188 12.6875 376.438 11.25 377.438 11C378.938 11.375 380.938 12.8125 383.438 15.3125C383.938 16.1875 383.75 16.6875 382.875 16.8125C380.75 16.6875 376.625 16.625 370.5 16.625H369.562C372.938 18 375.188 19.25 376.312 20.375C376.312 21.125 376 21.5625 375.375 21.6875C374.875 22.0625 374.625 22.5 374.625 23V25.25C374.5 27.5 374.562 29.1875 374.812 30.3125C374.812 31.4375 374.062 32.1875 372.562 32.5625C371.438 32.9375 370.312 33.125 369.188 33.125C367.812 33.25 367.25 32.8125 367.5 31.8125V30.5H351.375V30.875C351.375 31.625 351.188 32.0625 350.812 32.1875C351.188 32.4375 351.875 32.625 352.875 32.75C353.75 32.875 354.438 33 354.938 33.125C355.562 33.375 355.875 33.75 355.875 34.25C356 34.625 355.812 34.9375 355.312 35.1875C354.812 35.5625 354.625 35.9375 354.75 36.3125V38.5625C354.5 40.1875 355.688 41 358.312 41ZM375.562 42.3125C374.562 39.0625 373.125 36.5 371.25 34.625C370.875 34.375 370.75 34.125 370.875 33.875C370.875 33.75 371.125 33.625 371.625 33.5C377 34.375 380.5 36.3125 382.125 39.3125C383 41.1875 382.625 42.875 381 44.375C378.375 45.75 376.562 45.0625 375.562 42.3125ZM339 40.4375C341.25 39.0625 342.625 37.0625 343.125 34.4375C343.125 34.0625 343.25 33.875 343.5 33.875C343.75 33.875 344 34 344.25 34.25C346 38.375 346.25 41.5 345 43.625C343.375 45.5 341.625 46 339.75 45.125C337.625 43.625 337.375 42.0625 339 40.4375ZM351.375 25.625V29.1875H367.5V25.625H351.375ZM367.5 20.75H352.125C351.5 21.125 351.25 21.5 351.375 21.875V24.125H367.5V20.75ZM358.312 37.625C358.062 35.5 357.375 33.6875 356.25 32.1875C355.875 31.9375 355.75 31.6875 355.875 31.4375C356 31.1875 356.312 31.0625 356.812 31.0625C360.562 31.5625 363.062 32.8125 364.312 34.8125C364.938 37.0625 364.312 38.6875 362.438 39.6875C360.188 40.4375 358.812 39.75 358.312 37.625ZM356.438 15.3125H361.875C362.375 13.6875 363.062 11.3125 363.938 8.1875H351.938C354.812 8.8125 356.562 9.8125 357.188 11.1875C357.812 12.9375 357.562 14.3125 356.438 15.3125ZM393.188 12.875V10.0625C393.062 7.1875 392.938 4.875 392.812 3.125C392.562 1.875 393.062 1.375 394.312 1.625C396.938 2.375 399 3.0625 400.5 3.6875C401 3.9375 401.25 4.1875 401.25 4.4375H414.938C415.938 2.5625 416.688 1.625 417.188 1.625C419.938 2.375 422.438 3.75 424.688 5.75C424.812 6.125 424.5 6.5 423.75 6.875C423.375 7.125 423.188 7.5625 423.188 8.1875V12.3125C423.062 20.0625 423.125 25.375 423.375 28.25C423.625 29.875 423.125 30.75 421.875 30.875C421.75 31 421.562 31.0625 421.312 31.0625C419.438 31.4375 418.188 31.5625 417.562 31.4375C417.188 31.4375 416.938 31.4375 416.812 31.4375C416.688 31.6875 416.562 31.875 416.438 32C416.062 32.25 415.875 32.8125 415.875 33.6875V37.8125C415.75 39.5625 416.562 40.375 418.312 40.25H421.5C424 40.75 425.625 38.3125 426.375 32.9375C426.5 32.0625 426.812 31.625 427.312 31.625C427.688 31.75 427.938 32.1875 428.062 32.9375C428.062 36.6875 428.625 38.9375 429.75 39.6875C431.875 41.5625 431.562 43.25 428.812 44.75C427.062 45.25 424.875 45.5625 422.25 45.6875H414.562C410.688 45.8125 408.875 44.0625 409.125 40.4375V35.9375C409 33.8125 408.875 31.9375 408.75 30.3125C408.5 29.1875 409.062 28.6875 410.438 28.8125C410.688 28.9375 411.188 29.125 411.938 29.375C413.812 29.875 415.062 30.125 415.688 30.125C415.688 30 415.688 29.8125 415.688 29.5625V28.25H400.312V28.8125C402.312 29.1875 404.625 29.75 407.25 30.5C407.75 30.75 408.062 31.0625 408.188 31.4375C408.188 31.8125 408 32.0625 407.625 32.1875C406.75 32.6875 406.312 33.3125 406.312 34.0625C404.938 41.6875 398.625 46.125 387.375 47.375C386.75 47.25 386.375 47 386.25 46.625C386.125 46.25 386.375 46 387 45.875C395.125 42.875 399.062 37.8125 398.812 30.6875C397.188 31.3125 395.812 31.625 394.688 31.625C393.188 31.875 392.562 31.1875 392.812 29.5625C392.938 24.1875 393.062 18.625 393.188 12.875ZM400.312 20.75V26.75H415.688V20.75H400.312ZM400.312 13.25V19.25H415.688V13.25H400.312ZM415.688 5.9375H400.5C400.25 6.1875 400.188 6.4375 400.312 6.6875V11.9375H415.688V5.9375ZM444.562 18.6875V14H442.875C441 14.125 439.062 14.25 437.062 14.375C436.688 14.5 436.375 14.375 436.125 14C436 14 435.875 13.875 435.75 13.625C435.5 13.25 435.312 12.875 435.188 12.5C434.938 12.25 435.062 12.125 435.562 12.125C438.062 12.375 440.75 12.5 443.625 12.5H458.438C459.938 8.5 460.75 4.9375 460.875 1.8125C460.75 0.8125 461.188 0.4375 462.188 0.6875C464.312 1.1875 466.625 1.6875 469.125 2.1875C469.5 2.3125 469.688 2.6875 469.688 3.3125C469.688 3.8125 469.438 4.0625 468.938 4.0625C468.188 4.1875 467.625 4.5625 467.25 5.1875C465.375 8.0625 463.188 10.5 460.688 12.5H466.875C468.75 9.25 469.938 7.625 470.438 7.625C472.688 8.625 474.938 10.3125 477.188 12.6875C477.562 13.1875 477.688 13.5625 477.562 13.8125C477.562 14.0625 477.312 14.1875 476.812 14.1875C475.688 14.1875 474.5 14.1875 473.25 14.1875C472.125 14.0625 470.562 14 468.562 14C468.938 14.625 468.812 15.25 468.188 15.875C467.438 16.375 467.125 16.875 467.25 17.375V24.125V25.4375H468C469.875 21.9375 471.25 20.0625 472.125 19.8125C474.125 20.8125 476.5 22.8125 479.25 25.8125C479.75 26.8125 479.562 27.3125 478.688 27.3125C474.938 27.1875 471.125 27.0625 467.25 26.9375C467.25 31.5625 467.438 36.9375 467.812 43.0625C467.938 44.6875 467.5 45.75 466.5 46.25C465 46.75 463.312 47.125 461.438 47.375C459.812 47.625 459.125 46.5625 459.375 44.1875C459.5 39.5625 459.625 33.8125 459.75 26.9375H452.062C451.562 36.3125 445.938 42.9375 435.188 46.8125C434.312 47.0625 433.75 47 433.5 46.625C433.375 46.25 433.75 45.8125 434.625 45.3125C440.75 41.6875 444 35.5625 444.375 26.9375H441.562C439.062 27.0625 436.688 27.1875 434.438 27.3125C433.812 27.4375 433.438 27.3125 433.312 26.9375C433.062 26.8125 432.938 26.625 432.938 26.375C432.812 26.125 432.688 25.875 432.562 25.625C432.312 25.125 432.375 24.875 432.75 24.875C433.5 25.125 434.875 25.25 436.875 25.25C439.125 25.375 441.25 25.4375 443.25 25.4375H444.375C444.375 24.6875 444.375 23.8125 444.375 22.8125C444.5 21.9375 444.562 20.5625 444.562 18.6875ZM459.75 21.3125V14H454.125C454.375 14.75 454.188 15.25 453.562 15.5C452.812 15.75 452.438 16.3125 452.438 17.1875V19.8125C452.438 21.4375 452.375 22.5625 452.25 23.1875C452.25 24.0625 452.25 24.8125 452.25 25.4375H459.75V21.3125ZM446.625 9.125C446.25 6.875 445.312 4.75 443.812 2.75C443.438 2.5 443.312 2.25 443.438 2C443.562 1.75 443.875 1.5625 444.375 1.4375C449 1.5625 452.125 2.8125 453.75 5.1875C455.125 7.9375 454.25 10 451.125 11.375C448.5 12 447 11.25 446.625 9.125ZM513 14.1875H509.25C509.25 14.8125 509 15.25 508.5 15.5C507.875 16 507.625 16.5625 507.75 17.1875V26.5625H513.375C515 24.0625 516.25 22.6875 517.125 22.4375C518.75 23.0625 520.688 24.5 522.938 26.75C523.312 27.625 523.125 28.125 522.375 28.25C521.375 28.25 519.625 28.25 517.125 28.25C514.5 28.125 512.688 28.0625 511.688 28.0625H507.75V42.5H516.562C518.438 39.5 519.75 38.0625 520.5 38.1875C522 38.4375 524.188 39.8125 527.062 42.3125C527.438 42.8125 527.562 43.1875 527.438 43.4375C527.188 43.8125 526.812 44 526.312 44C525.312 44 523.312 43.9375 520.312 43.8125C517.438 43.8125 515.625 43.8125 514.875 43.8125H486.938C485.062 43.8125 483.562 43.9375 482.438 44.1875C482.062 44.3125 481.75 44.1875 481.5 43.8125C481.375 43.6875 481.188 43.5 480.938 43.25C480.688 42.875 480.5 42.625 480.375 42.5C480.25 42.25 480.188 42.0625 480.188 41.9375C480.188 41.8125 480.375 41.8125 480.75 41.9375C484 42.1875 486.438 42.375 488.062 42.5H500.062V28.0625H491.438C490.312 28.1875 489.188 28.25 488.062 28.25C487.312 28.25 486.875 28.25 486.75 28.25C486.375 28.375 486.125 28.3125 486 28.0625C485.5 27.6875 485.188 27.1875 485.062 26.5625C484.812 26.4375 484.938 26.3125 485.438 26.1875C485.938 26.3125 486.875 26.4375 488.25 26.5625C489.875 26.5625 491.188 26.5625 492.188 26.5625H500.062V14.1875H487.688C486.688 14.3125 485.688 14.4375 484.688 14.5625C484.312 14.6875 484 14.5625 483.75 14.1875C483.625 14.1875 483.438 14.0625 483.188 13.8125C482.938 13.4375 482.75 13.125 482.625 12.875C482.375 12.5 482.5 12.375 483 12.5C485 12.75 486.875 12.875 488.625 12.875H514.688C516.438 9.875 517.75 8.3125 518.625 8.1875C520.25 8.5625 522.438 10.0625 525.188 12.6875C525.438 13.1875 525.5 13.625 525.375 14C525.25 14.375 524.938 14.5 524.438 14.375C523.438 14.375 521.688 14.375 519.188 14.375C516.188 14.25 514.125 14.1875 513 14.1875ZM500.625 8.5625C500 6.0625 499 4.0625 497.625 2.5625C497.25 2.3125 497.125 2.0625 497.25 1.8125C497.375 1.5625 497.75 1.375 498.375 1.25C503.5 1.125 506.75 2.375 508.125 5C509.25 8.125 508.312 10.3125 505.312 11.5625C502.812 12.0625 501.25 11.0625 500.625 8.5625ZM553.688 34.8125H546.375V37.625C548.75 37.5 551.188 37.25 553.688 36.875H553.875C556.125 32.75 557.438 25.625 557.812 15.5H557.25C556.375 15.625 555.438 15.75 554.438 15.875C554.062 16 553.75 15.875 553.5 15.5C553.125 15 552.938 14.625 552.938 14.375C552.812 14.25 552.75 14.125 552.75 14C552.75 13.875 552.875 13.8125 553.125 13.8125C554.375 14.0625 555.938 14.1875 557.812 14.1875C557.812 12.5625 557.812 10.9375 557.812 9.3125C557.688 6.5625 557.562 4.3125 557.438 2.5625C557.062 1.3125 557.5 0.8125 558.75 1.0625C559.875 1.1875 561 1.375 562.125 1.625C563.125 1.75 564.375 1.9375 565.875 2.1875C566.375 2.3125 566.688 2.625 566.812 3.125C566.938 3.625 566.75 4 566.25 4.25C565.5 4.625 565.125 5.4375 565.125 6.6875C565.125 7.6875 565.062 9 564.938 10.625C564.812 12.25 564.812 13.4375 564.938 14.1875H566.062C566.812 12.4375 567.5 11.5 568.125 11.375C569.75 11.75 572.062 12.8125 575.062 14.5625C575.562 15.4375 575.5 16.125 574.875 16.625C573.75 17.125 573.25 17.625 573.375 18.125C573.375 27.25 573.062 34.75 572.438 40.625C572.188 42 571.562 43.25 570.562 44.375C568.938 45.375 567.062 46.1875 564.938 46.8125C563.438 47.0625 562.625 46.75 562.5 45.875C562.375 43.625 561.062 42.125 558.562 41.375C558.062 41.375 557.688 41.25 557.438 41C554.938 43.125 551.062 45.1875 545.812 47.1875C545.188 47.3125 544.75 47.25 544.5 47C544.25 46.625 544.438 46.3125 545.062 46.0625C547.938 43.9375 550.438 41.6875 552.562 39.3125C548.938 40.4375 543.312 42.0625 535.688 44.1875C534.562 44.4375 533.812 44.875 533.438 45.5C532.438 46.375 531.75 46.3125 531.375 45.3125C530.75 43.5625 530.188 41.6875 529.688 39.6875C529.438 38.8125 529.812 38.375 530.812 38.375C534.312 38.5 537.25 38.4375 539.625 38.1875V34.8125H535.875C534.875 34.9375 533.812 35.0625 532.688 35.1875C532.188 35.3125 531.875 35.1875 531.75 34.8125C531.375 34.4375 531.125 34.0625 531 33.6875C530.875 33.5625 530.812 33.4375 530.812 33.3125C530.812 33.1875 530.938 33.125 531.188 33.125C531.188 33.25 531.25 33.3125 531.375 33.3125C533 33.5625 534.75 33.625 536.625 33.5H539.625V28.4375H537.938C537.688 29.5625 537.25 30.1875 536.625 30.3125C535.25 30.6875 534.062 30.875 533.062 30.875C531.312 31.25 530.688 30.6875 531.188 29.1875C531.188 28.5625 531.188 27.3125 531.188 25.4375C531.188 24.4375 531.188 23.375 531.188 22.25C531.312 21 531.375 19.625 531.375 18.125C531.375 17.125 531.312 16.3125 531.188 15.6875C530.812 14.6875 531.312 14.3125 532.688 14.5625C534.562 15.0625 536.375 15.5625 538.125 16.0625C538.125 16.1875 538.188 16.25 538.312 16.25C538.438 16.375 538.562 16.4375 538.688 16.4375H539.625V12.875H534.938C533.812 13 532.688 13.125 531.562 13.25C531.062 13.375 530.75 13.25 530.625 12.875C530.125 12.5 529.812 12.125 529.688 11.75C529.438 11.625 529.312 11.5 529.312 11.375C529.438 11.25 529.625 11.1875 529.875 11.1875C530.5 11.3125 531.5 11.4375 532.875 11.5625C534.375 11.5625 535.5 11.5625 536.25 11.5625H539.625V7.625C537.375 7.875 534.25 7.9375 530.25 7.8125C529.625 7.8125 529.312 7.6875 529.312 7.4375C529.312 7.1875 529.562 6.9375 530.062 6.6875C536.438 5.5625 542.812 3.5625 549.188 0.6875C549.812 0.3125 550.438 0.375 551.062 0.875C552.812 2.625 554.375 4.1875 555.75 5.5625C556 5.9375 556 6.375 555.75 6.875C555.375 7.25 555 7.3125 554.625 7.0625C554 6.8125 553.125 6.75 552 6.875C551.5 6.875 550.75 6.9375 549.75 7.0625C548.25 7.1875 547.125 7.25 546.375 7.25V11.5625H548.625C549.75 9.6875 550.625 8.5625 551.25 8.1875C551.625 8.1875 552.938 9.125 555.188 11C555.312 11.125 555.5 11.25 555.75 11.375C556 11.75 556.062 12.125 555.938 12.5C555.812 12.75 555.562 12.875 555.188 12.875H546.375V16.4375H547.5C547.5 16.4375 547.562 16.3125 547.688 16.0625C548.438 14.6875 549 14 549.375 14C552.125 14.875 554.25 15.9375 555.75 17.1875C556 17.8125 555.875 18.25 555.375 18.5C554.75 18.75 554.438 19.125 554.438 19.625C554.438 21.625 554.438 24.1875 554.438 27.3125C554.562 28.4375 554.125 29.125 553.125 29.375C552 29.625 550.875 29.75 549.75 29.75C548.5 30 547.875 29.5625 547.875 28.4375H546.375V33.5H547.312C548.562 31.5 549.375 30.4375 549.75 30.3125C550.875 30.4375 552.438 31.4375 554.438 33.3125C554.688 33.6875 554.75 34.0625 554.625 34.4375C554.5 34.6875 554.188 34.8125 553.688 34.8125ZM566.438 15.5H564.938C564.312 28.25 562.188 36.4375 558.562 40.0625C560.438 40.0625 561.938 40.0625 563.062 40.0625C564.312 40.0625 565.062 39.4375 565.312 38.1875C565.812 32.1875 566.188 24.625 566.438 15.5ZM537.938 23.1875V27.125H539.625V23.1875H537.938ZM537.938 18.6875V21.6875H539.625V17.9375H538.125C537.875 18.1875 537.812 18.4375 537.938 18.6875ZM546.375 23.1875V27.125H547.875V23.1875H546.375ZM547.875 17.9375H546.375V21.6875H547.875V17.9375ZM585.938 32H585.75C583.125 32.125 580.688 32.25 578.438 32.375C577.938 32.5 577.625 32.375 577.5 32C577.25 31.875 577.062 31.6875 576.938 31.4375C576.812 31.1875 576.688 30.9375 576.562 30.6875C576.438 30.4375 576.375 30.25 576.375 30.125C576.375 30.125 576.562 30.125 576.938 30.125C577.062 30.125 577.312 30.1875 577.688 30.3125C578.812 30.3125 579.688 30.3125 580.312 30.3125C580.062 30.1875 579.812 29.8125 579.562 29.1875C579.312 28.8125 579.062 28 578.812 26.75C578.562 25.875 578.438 25.1875 578.438 24.6875C578.062 23.6875 578.562 23.1875 579.938 23.1875C581.188 23.4375 582.625 23.5 584.25 23.375V19.0625H583.125C582.875 19.0625 582.438 19.125 581.812 19.25C581.062 19.25 580.562 19.25 580.312 19.25C579.812 19.5 579.5 19.4375 579.375 19.0625C578.875 18.6875 578.562 18.25 578.438 17.75C578.188 17.5 578.312 17.375 578.812 17.375C580.438 17.625 582.188 17.75 584.062 17.75H590.25C591 16.5 591.688 15.5625 592.312 14.9375H589.688C588.562 14.9375 587.188 15.0625 585.562 15.3125C585.062 15.3125 584.75 15.3125 584.625 15.3125C584 15.4375 583.625 15.3125 583.5 14.9375C583.375 14.8125 583.25 14.6875 583.125 14.5625C583 14.1875 582.875 13.875 582.75 13.625C582.5 13.25 582.625 13.0625 583.125 13.0625C584.375 13.4375 587 13.5625 591 13.4375H608.25V10.25H590.625C589.375 10.25 587.812 10.375 585.938 10.625C585.688 10.625 585.562 10.625 585.562 10.625C584.938 10.75 584.562 10.625 584.438 10.25C584.312 10.125 584.125 9.9375 583.875 9.6875C583.75 9.4375 583.688 9.1875 583.688 8.9375C583.438 8.5625 583.562 8.375 584.062 8.375C585.312 8.75 587.938 8.875 591.938 8.75H608.25V5.75H589.312C587.188 5.75 585.5 5.8125 584.25 5.9375C583.75 6.1875 583.438 6.0625 583.312 5.5625C582.938 5.3125 582.688 5 582.562 4.625C582.562 4.5 582.562 4.375 582.562 4.25C582.312 4 582.438 3.875 582.938 3.875C585.438 4.125 588 4.25 590.625 4.25H607.688C609.188 2 610.062 1 610.312 1.25C613.438 2.375 615.75 3.6875 617.25 5.1875C617.25 5.8125 617 6.25 616.5 6.5C615.75 7.125 615.438 7.5625 615.562 7.8125C615.562 8.6875 615.562 9.875 615.562 11.375C615.688 12.625 615.75 13.5625 615.75 14.1875C615.875 15.1875 615.438 15.8125 614.438 16.0625C616.688 17.1875 618.312 18.3125 619.312 19.4375C619.438 20.0625 619.188 20.5625 618.562 20.9375C618.062 21.1875 617.812 21.5625 617.812 22.0625C617.688 22.4375 617.688 22.8125 617.812 23.1875C617.938 23.6875 618 24.0625 618 24.3125C618.125 25.3125 617.938 26 617.438 26.375C619.062 27 620.938 28.4375 623.062 30.6875C623.312 31.1875 623.438 31.625 623.438 32C623.312 32.25 623.062 32.3125 622.688 32.1875C621.188 32.1875 619.562 32.1875 617.812 32.1875C616.188 32.0625 613.938 32 611.062 32V33.125C610.938 36.875 611 39.375 611.25 40.625C611.5 42.5 610.812 43.9375 609.188 44.9375C608.062 45.4375 606.188 46 603.562 46.625C601.938 47 601.125 46.625 601.125 45.5C600.625 43 598.938 41.625 596.062 41.375C595.312 41.25 594.938 41.125 594.938 41C595.062 40.625 595.5 40.375 596.25 40.25C601.75 40.5 604.125 39.6875 603.375 37.8125V32H588C590.75 32.375 592.688 33.4375 593.812 35.1875C594.812 37.6875 594.375 39.5 592.5 40.625C589.625 41.5 588 40.875 587.625 38.75C587.5 36.875 587 34.875 586.125 32.75C585.875 32.5 585.812 32.25 585.938 32ZM596.438 19.0625H591.938C591.938 19.5625 591.75 19.8125 591.375 19.8125C591 20.0625 590.812 20.5 590.812 21.125V23.5625C591.312 23.5625 592.188 23.5625 593.438 23.5625C594.562 23.4375 595.375 23.375 595.875 23.375C596.625 23.375 597.125 23.5625 597.375 23.9375C597.5 24.3125 597.188 24.625 596.438 24.875C591.312 26.75 587 28.0625 583.5 28.8125C583 28.9375 582.438 29.25 581.812 29.75C581.438 30.25 581.25 30.4375 581.25 30.3125C582.5 30.5625 584.5 30.625 587.25 30.5H603.375C603.375 29.25 603.312 28.375 603.188 27.875C603.188 27.75 603.188 27.5625 603.188 27.3125C602.062 27.6875 601 27.875 600 27.875C598.375 28.25 597.75 27.5625 598.125 25.8125C598.25 24.4375 598.312 22.875 598.312 21.125C598.312 19 598.25 17.6875 598.125 17.1875C597.875 16.5625 597.875 16.125 598.125 15.875C598.25 15.625 598.688 15.5625 599.438 15.6875C601.188 16.3125 603 16.9375 604.875 17.5625C605.25 17.8125 605.562 18 605.812 18.125H610.688C610.688 18 610.75 17.875 610.875 17.75C611.125 17.375 611.312 17.0625 611.438 16.8125C611.062 17.0625 610.688 17.125 610.312 17C608.688 17.375 608 16.9375 608.25 15.6875V14.9375H594.188C595.312 15.6875 596.25 16.5625 597 17.5625C597.375 18.0625 597.5 18.4375 597.375 18.6875C597.25 18.9375 596.938 19.0625 596.438 19.0625ZM611.25 19.4375H605.062C604.812 19.8125 604.75 20.125 604.875 20.375V23.5625H611.25V19.4375ZM611.062 30.5H613.875C615 28.625 615.875 27.375 616.5 26.75C615.375 27.125 614.25 27.3125 613.125 27.3125C611.75 27.5625 611.125 27.0625 611.25 25.8125V25.0625H604.875V25.25C604.875 25.75 604.812 26.0625 604.688 26.1875C607.812 26.5625 610.125 26.9375 611.625 27.3125C612.5 27.8125 612.562 28.4375 611.812 29.1875C611.188 29.4375 610.938 29.875 611.062 30.5ZM647.25 16.8125L648.562 16.625C648.312 14.75 648.188 12.75 648.188 10.625C647.938 6.875 647.688 4.125 647.438 2.375C647.062 1.5 647.5 1.0625 648.75 1.0625C649.125 1.1875 650.25 1.375 652.125 1.625C653.875 1.875 655 2 655.5 2C656.625 2.625 656.75 3.3125 655.875 4.0625C655.5 4.3125 655.25 4.625 655.125 5H655.312C658.938 4.75 661.562 5.375 663.188 6.875C664.438 9 664.062 10.8125 662.062 12.3125C660.062 13.3125 658.625 12.6875 657.75 10.4375C657.25 9.1875 656.312 7.8125 654.938 6.3125C654.938 6.8125 654.938 7.25 654.938 7.625C654.938 10.75 655.062 13.5 655.312 15.875L661.125 15.3125C662 12.9375 662.875 11.5 663.75 11C665.375 11.5 667.125 12.625 669 14.375C669.375 14.875 669.5 15.25 669.375 15.5C669.25 15.75 668.938 15.875 668.438 15.875L655.312 17.375C655.688 20.625 656.188 23.5 656.812 26C658.062 24 659.062 21.6875 659.812 19.0625C660.062 18.4375 660.562 18.1875 661.312 18.3125C663.688 19.4375 665.625 20.5625 667.125 21.6875C668 22.6875 667.812 23.375 666.562 23.75C665.812 23.875 665.25 24.4375 664.875 25.4375C663.25 28.5625 661.438 31.125 659.438 33.125C660.812 35.625 662.188 37.4375 663.562 38.5625C664.438 39.4375 665.125 39.375 665.625 38.375C666.125 36.375 666.625 34.25 667.125 32C667.25 31.25 667.562 30.875 668.062 30.875C668.562 31 668.812 31.4375 668.812 32.1875C668.188 36.5625 668.625 39.75 670.125 41.75C671 43.125 671.312 44.3125 671.062 45.3125C670.562 46.6875 669.25 47.25 667.125 47C662.75 46.625 659.312 44.9375 656.812 41.9375C655.562 40.9375 654.562 39.5625 653.812 37.8125C650.562 39.9375 646.25 41.5625 640.875 42.6875C640.5 42.6875 640.25 42.6875 640.125 42.6875C640 43.6875 639.375 44.5625 638.25 45.3125C636.875 45.8125 635.562 46.3125 634.312 46.8125C632.562 47.1875 631.625 46.75 631.5 45.5C631 43.375 629.75 42.125 627.75 41.75C626.875 41.375 626.438 41.125 626.438 41C626.312 40.625 626.938 40.4375 628.312 40.4375C631.688 40.8125 633.188 39.8125 632.812 37.4375V29.9375C632.562 30.0625 632.188 30.25 631.688 30.5C631.062 30.625 630.625 30.75 630.375 30.875C629.875 31.25 629.438 31.625 629.062 32C628.938 32.75 628.625 33.125 628.125 33.125C627.75 33.125 627.438 32.8125 627.188 32.1875C626.188 30.5625 625.25 28.6875 624.375 26.5625C624.125 25.6875 624.438 25.125 625.312 24.875C627.562 24.75 630.062 24.4375 632.812 23.9375V14.375H631.125C629.75 14.375 628.812 14.4375 628.312 14.5625C627.812 14.6875 627.5 14.5625 627.375 14.1875C627.25 14.1875 627.125 14.0625 627 13.8125C626.875 13.5625 626.75 13.25 626.625 12.875C626.375 12.5 626.5 12.375 627 12.5C628.625 12.75 630.25 12.875 631.875 12.875H632.812V10.4375C632.688 8.6875 632.625 7.125 632.625 5.75C632.5 4.375 632.375 3.3125 632.25 2.5625C632 1.6875 632.5 1.1875 633.75 1.0625C634.125 1.1875 634.688 1.3125 635.438 1.4375C638.188 1.6875 639.875 1.875 640.5 2C641.625 2.625 641.75 3.375 640.875 4.25C640.125 4.875 639.812 5.625 639.938 6.5V12.6875C640.812 10.8125 641.688 9.75 642.562 9.5C643.938 9.875 645.375 11 646.875 12.875C647.25 13.75 647.062 14.25 646.312 14.375H639.938V22.8125C642.188 22.4375 644.062 22.0625 645.562 21.6875C646.188 21.6875 646.5 21.8125 646.5 22.0625C646.625 22.4375 646.438 22.75 645.938 23C644.312 24 642.312 25.125 639.938 26.375C639.812 31 639.938 35.75 640.312 40.625V41.375C644.938 38.375 648.688 35.5 651.562 32.75C649.938 28.25 648.938 23.375 648.562 18.125L646.688 18.3125C645.688 18.4375 644.438 18.625 642.938 18.875C642.812 18.875 642.688 18.9375 642.562 19.0625C642.312 19.0625 642.188 18.9375 642.188 18.6875C642.062 18.6875 641.875 18.5625 641.625 18.3125C641.25 18.0625 641.062 17.75 641.062 17.375C640.812 17.25 640.688 17.125 640.688 17C640.688 16.875 640.875 16.8125 641.25 16.8125C641.875 16.9375 643.375 17 645.75 17C646.5 16.875 647 16.8125 647.25 16.8125ZM686.438 21.5V33.125C686.188 37.25 689.562 39.375 696.562 39.5C699.812 39.75 703.625 39.875 708 39.875C712 39.75 715 39.5 717 39.125C717.5 39.125 717.875 39.0625 718.125 38.9375C719 38.6875 719.438 38.6875 719.438 38.9375C719.812 39.3125 719.625 39.75 718.875 40.25C717.25 41.125 716.312 42.5625 716.062 44.5625C716.062 45.6875 715.312 46.1875 713.812 46.0625C711.812 46.0625 709.938 46.0625 708.188 46.0625C701.438 46.0625 697 46 694.875 45.875C690.125 45 686.562 42.4375 684.188 38.1875C683.688 37.3125 683.125 37.25 682.5 38C680.625 40.625 679.625 42.875 679.5 44.75C679.25 46 678.562 46.375 677.438 45.875C675.938 44.75 674.5 43.5 673.125 42.125C672.375 41.375 672.5 40.75 673.5 40.25C677.375 37.375 679.25 35.1875 679.125 33.6875V19.25H676.688C675.812 19.375 675 19.5 674.25 19.625C673.75 19.75 673.438 19.625 673.312 19.25C673.062 19.125 672.812 18.6875 672.562 17.9375C672.438 17.8125 672.375 17.6875 672.375 17.5625C672.375 17.4375 672.562 17.375 672.938 17.375C674.438 17.625 675.938 17.75 677.438 17.75H678.562C679.938 16 680.875 15.0625 681.375 14.9375C684.5 15.9375 686.75 17.1875 688.125 18.6875C688.25 19.1875 687.938 19.625 687.188 20C686.688 20.375 686.438 20.875 686.438 21.5ZM698.25 26.5625H706.875C707.875 25.0625 708.688 24.25 709.312 24.125C711.312 24.75 713.375 26 715.5 27.875C715.75 28.625 715.5 29.125 714.75 29.375C714.375 29.625 714.188 30.0625 714.188 30.6875C714.062 33.0625 714.125 34.6875 714.375 35.5625C714.375 37.0625 713.875 37.875 712.875 38C711.625 38.375 710.438 38.5625 709.312 38.5625C707.938 38.6875 707.312 38.125 707.438 36.875V35.9375H697.688C697.688 37.0625 697.188 37.75 696.188 38C695.812 38.125 695.312 38.25 694.688 38.375C693.812 38.625 693.125 38.75 692.625 38.75C691.25 38.875 690.625 38.125 690.75 36.5C690.75 35.75 690.75 34.9375 690.75 34.0625C690.875 33.1875 690.938 31.9375 690.938 30.3125C690.938 28.6875 690.875 27.1875 690.75 25.8125C690.5 24.6875 691 24.1875 692.25 24.3125C693 24.5625 694.25 25 696 25.625C696.5 25.875 697.062 26.0625 697.688 26.1875C697.688 26.3125 697.75 26.375 697.875 26.375C698 26.5 698.125 26.5625 698.25 26.5625ZM692.625 9.125H699.938C699.312 8.625 698.938 7.875 698.812 6.875C698.688 5.25 698 3.5625 696.75 1.8125C696.5 1.4375 696.438 1.1875 696.562 1.0625C696.688 0.8125 697 0.6875 697.5 0.6875C702 0.9375 704.688 2.25 705.562 4.625C706.188 6.5 705.625 8 703.875 9.125H709.125C711.25 6.5 712.688 5 713.438 4.625C714.938 5.25 716.812 6.75 719.062 9.125C719.312 10.125 719.062 10.625 718.312 10.625C717.562 10.625 716.875 10.625 716.25 10.625C715.625 10.5 714.812 10.4375 713.812 10.4375H691.688C690.812 10.5625 689.938 10.6875 689.062 10.8125C688.812 10.9375 688.5 10.9375 688.125 10.8125C688.125 10.8125 688.125 10.75 688.125 10.625C687.875 10.625 687.688 10.375 687.562 9.875C687.312 9.5 687.125 9.25 687 9.125C686.875 8.875 686.812 8.75 686.812 8.75C686.812 8.625 687 8.5625 687.375 8.5625C688.75 8.9375 690.5 9.125 692.625 9.125ZM679.312 10.8125C678.688 8.4375 677.5 6.375 675.75 4.625C675.375 4.375 675.25 4.125 675.375 3.875C675.5 3.75 675.812 3.625 676.312 3.5C681.562 3.375 684.875 4.375 686.25 6.5C687.25 9.375 686.375 11.4375 683.625 12.6875C681.75 13.4375 680.312 12.8125 679.312 10.8125ZM707.438 28.0625H698.625C698.375 28.0625 698.312 28.0625 698.438 28.0625C697.812 28.4375 697.562 29 697.688 29.75V34.4375H707.438V28.0625ZM715.312 16.25H694.312C693.688 16.25 692.875 16.3125 691.875 16.4375C691.5 16.4375 691.25 16.4375 691.125 16.4375C690.625 16.6875 690.312 16.625 690.188 16.25C689.938 16.125 689.75 15.75 689.625 15.125C689.375 14.875 689.312 14.75 689.438 14.75C689.438 14.625 689.625 14.5625 690 14.5625C690.875 14.8125 692.562 14.875 695.062 14.75H706.875C708.5 12.75 709.812 11.4375 710.812 10.8125C711.562 11.0625 713.25 12.375 715.875 14.75C716.125 15.75 715.938 16.25 715.312 16.25ZM715.5 22.0625H695.062C694.438 22.0625 693.625 22.125 692.625 22.25C692.25 22.25 692 22.25 691.875 22.25C691.375 22.5 691.062 22.4375 690.938 22.0625C690.812 21.9375 690.688 21.8125 690.562 21.6875C690.438 21.5625 690.375 21.375 690.375 21.125C690.25 20.875 690.188 20.6875 690.188 20.5625C690.188 20.4375 690.375 20.375 690.75 20.375C692.375 20.625 694.062 20.75 695.812 20.75H707.062C708.812 18.375 710.125 17 711 16.625C712 17 713.688 18.375 716.062 20.75C716.312 21.625 716.125 22.0625 715.5 22.0625ZM746.625 8.375H751.688C752.188 7.25 752.688 5.8125 753.188 4.0625C753.312 3.1875 753.438 2.3125 753.562 1.4375C753.562 0.5625 754.125 0.3125 755.25 0.6875C757.625 1.3125 759.438 1.8125 760.688 2.1875C761.062 2.4375 761.25 2.8125 761.25 3.3125C761.125 3.6875 760.812 3.875 760.312 3.875C759.438 4 758.812 4.25 758.438 4.625C757.062 6 755.625 7.25 754.125 8.375H756.938C758.312 6.5 759.25 5.5 759.75 5.375C761 5.75 762.625 6.8125 764.625 8.5625C765 9.4375 764.812 9.9375 764.062 10.0625C762.688 9.9375 759.5 9.875 754.5 9.875H754.125V13.4375H755.25C756.625 11.5625 757.5 10.5625 757.875 10.4375C759.25 10.8125 760.875 11.875 762.75 13.625C763.25 14.625 763.062 15.125 762.188 15.125C760.938 15 758.25 14.9375 754.125 14.9375V18.5H758.625C759.75 16.75 760.625 15.6875 761.25 15.3125C762.75 15.6875 764.438 16.8125 766.312 18.6875C766.812 19.5625 766.625 20.0625 765.75 20.1875C764.375 20.0625 761.188 20 756.188 20H750.938C751.188 20.25 751.5 20.5 751.875 20.75C752.75 22 752.75 23.3125 751.875 24.6875C754.125 25.9375 755.375 26.6875 755.625 26.9375C755.625 27.5625 755.438 28.0625 755.062 28.4375C754.812 28.4375 754.625 28.5 754.5 28.625C754.625 29.125 754.875 29.6875 755.25 30.3125C755.5 30.8125 755.688 31.1875 755.812 31.4375C757.312 29.9375 758.562 28.1875 759.562 26.1875C759.938 25.5625 760.5 25.5 761.25 26C761.5 26.25 761.938 26.5625 762.562 26.9375C763.438 27.6875 764.562 28.4375 765.938 29.1875C766.188 29.5625 766.25 29.9375 766.125 30.3125C766 30.6875 765.75 30.8125 765.375 30.6875C764 30.6875 763.062 30.875 762.562 31.25C760.812 32.25 759 33 757.125 33.5C759.125 36.5 762.25 38.6875 766.5 40.0625C767.125 40.4375 767.438 40.75 767.438 41C767.438 41.125 767.188 41.375 766.688 41.75C765.062 42.5 763.875 43.6875 763.125 45.3125C762.5 46.3125 761.75 46.375 760.875 45.5C756.875 42.5 754.688 38.875 754.312 34.625C754.188 35.375 754.188 36.75 754.312 38.75C754.438 40.375 754.5 41.5 754.5 42.125C754.75 44.375 754 45.8125 752.25 46.4375C751.25 46.8125 749.875 47.1875 748.125 47.5625C746.625 47.6875 745.812 47.375 745.688 46.625C745.438 44.5 744.125 43.3125 741.75 43.0625C741 42.8125 740.688 42.5 740.812 42.125C738.812 43.75 736.438 45.1875 733.688 46.4375C733.062 46.6875 732.688 46.6875 732.562 46.4375C732.438 46.0625 732.625 45.75 733.125 45.5C737.375 41.5 740.062 37 741.188 32H739.688C737.938 32 736.812 32.0625 736.312 32.1875C735.812 32.3125 735.5 32.25 735.375 32C735.25 32 735.125 31.875 735 31.625C734.75 31.25 734.625 30.875 734.625 30.5C734.375 30.375 734.5 30.25 735 30.125C735.5 30.25 736.375 30.375 737.625 30.5C738.875 30.5 739.875 30.5 740.625 30.5H741C741.75 29.25 742.375 28.5625 742.875 28.4375C744 28.6875 745.562 29.3125 747.562 30.3125V27.5H744.562C744.312 27.5 743.875 27.5625 743.25 27.6875C742.5 27.6875 742 27.6875 741.75 27.6875C741.375 27.9375 741.125 27.875 741 27.5C740.75 27.375 740.5 27.0625 740.25 26.5625C740.25 26.4375 740.25 26.3125 740.25 26.1875C740.125 25.9375 740.062 25.8125 740.062 25.8125C740.062 25.6875 740.25 25.625 740.625 25.625C742 25.875 743.625 26 745.5 26H748.5C748.375 26.125 748.438 26.0625 748.688 25.8125C747.438 25.6875 746.75 25 746.625 23.75C746.375 22.75 745.625 21.75 744.375 20.75C743.75 20.5 743.5 20.25 743.625 20H742.875C741 20.125 739.5 20.25 738.375 20.375C737.875 20.5 737.562 20.375 737.438 20C737.188 19.75 736.938 19.3125 736.688 18.6875C736.438 18.3125 736.562 18.125 737.062 18.125C737.562 18.25 738.5 18.375 739.875 18.5C741.5 18.5 742.812 18.5 743.812 18.5H747.375V14.9375H746.25C744.375 15.0625 742.875 15.1875 741.75 15.3125C741.25 15.4375 740.938 15.3125 740.812 14.9375C740.562 14.6875 740.312 14.25 740.062 13.625C739.938 13.5 739.875 13.375 739.875 13.25C739.875 13.125 740.062 13.0625 740.438 13.0625C740.812 13.1875 741.688 13.3125 743.062 13.4375C744.812 13.4375 746.188 13.4375 747.188 13.4375H747.375V9.875H745.125C743.25 10 741.75 10.125 740.625 10.25C740.125 10.375 739.812 10.25 739.688 9.875C739.312 9.625 739.062 9.1875 738.938 8.5625C738.812 8.4375 738.75 8.3125 738.75 8.1875C738.75 8.0625 738.875 8 739.125 8C739.625 8.125 740.562 8.25 741.938 8.375C743.438 8.375 744.688 8.375 745.688 8.375C744.688 8.25 744.062 7.625 743.812 6.5C743.312 4.125 742.625 2.5625 741.75 1.8125C741.5 1.6875 741.375 1.5625 741.375 1.4375C741.5 1.3125 741.812 1.1875 742.312 1.0625C746.188 1.0625 748.625 2 749.625 3.875C750 6.375 749 7.875 746.625 8.375ZM733.312 20V27.5C733.312 31.125 733.438 36.0625 733.688 42.3125C733.938 44.0625 733.312 45.125 731.812 45.5C730.688 46 729.562 46.3125 728.438 46.4375C726.312 47.0625 725.5 45.9375 726 43.0625C726.125 41.5625 726.25 39.5625 726.375 37.0625C726.375 34.4375 726.438 31.8125 726.562 29.1875C724.812 31.6875 722.938 33.8125 720.938 35.5625C720.562 35.9375 720.312 36.0625 720.188 35.9375C720.062 35.8125 720.125 35.5 720.375 35C723.5 28.5 725.562 21.375 726.562 13.625V13.0625H724.875C723.5 13.0625 722.562 13.125 722.062 13.25C721.562 13.5 721.25 13.4375 721.125 13.0625C721 12.9375 720.812 12.6875 720.562 12.3125C720.438 12.0625 720.375 11.875 720.375 11.75C720.25 11.625 720.188 11.5 720.188 11.375C720.312 11.25 720.5 11.1875 720.75 11.1875C722.125 11.4375 723.75 11.5625 725.625 11.5625H726.562V9.875C726.438 8.25 726.375 6.6875 726.375 5.1875C726.25 3.6875 726.125 2.625 726 2C725.5 0.875 726 0.3125 727.5 0.3125C730.375 0.6875 732.5 1.0625 733.875 1.4375C735.125 1.9375 735.312 2.625 734.438 3.5C733.562 4 733.188 4.5625 733.312 5.1875V11.5625H733.875C734.75 9.8125 735.5 8.875 736.125 8.75C737.25 9.25 738.562 10.1875 740.062 11.5625C740.312 11.9375 740.375 12.3125 740.25 12.6875C740.125 12.9375 739.875 13.0625 739.5 13.0625H733.312V18.6875C736.312 19.5625 738.375 20.9375 739.5 22.8125C740.25 25.4375 739.562 27.1875 737.438 28.0625C735.438 28.6875 734.375 27.9375 734.25 25.8125C734.125 23.4375 733.812 21.5 733.312 20ZM747.562 39.3125V33.125C747.062 33.375 746.75 33.8125 746.625 34.4375C745 37.4375 743.25 39.8125 741.375 41.5625C741.5 41.3125 741.75 41.3125 742.125 41.5625C746.25 41.9375 748.062 41.1875 747.562 39.3125ZM770.625 31.8125V20.375C770.625 18.125 770.562 16.4375 770.438 15.3125C770.438 13.9375 770.375 12.625 770.25 11.375C770.125 10 770.562 9.5 771.562 9.875C773.438 10.5 775.438 11.3125 777.562 12.3125H777.938C777.938 10.4375 777.938 8.625 777.938 6.875C777.938 5.125 777.938 3.5 777.938 2C777.688 1.25 778.062 0.9375 779.062 1.0625C781.062 1.1875 783.125 1.5 785.25 2C786 2.125 786.375 2.4375 786.375 2.9375C786.5 3.3125 786.25 3.625 785.625 3.875C785 4.375 784.562 4.9375 784.312 5.5625C783.188 8.0625 781.938 10.3125 780.562 12.3125H784.5C785.625 10.6875 786.5 9.8125 787.125 9.6875C789.625 10.5625 791.688 11.9375 793.312 13.8125C793.312 14.4375 793 14.875 792.375 15.125C791.75 15.5 791.5 15.9375 791.625 16.4375V21.875C794 14.5 795.375 7.8125 795.75 1.8125C795.625 1.1875 795.938 0.875 796.688 0.875C799.438 1.375 802.125 2.0625 804.75 2.9375C805.25 3.3125 805.5 3.6875 805.5 4.0625C805.375 4.4375 805.062 4.75 804.562 5C803.562 5.5 803 6.125 802.875 6.875C802.25 8.875 801.562 10.6875 800.812 12.3125H805.5C807 10.3125 808.062 9.25 808.688 9.125C812.062 10.625 814.375 12.125 815.625 13.625C815.625 14.25 815.25 14.75 814.5 15.125C813.75 15.5 813.438 15.9375 813.562 16.4375C813.438 29.4375 813.188 37.625 812.812 41C812.312 44.5 809.5 46.625 804.375 47.375C802.875 47.625 802 47.3125 801.75 46.4375C801 43.5625 799.312 41.75 796.688 41C795.438 41 795 40.6875 795.375 40.0625C795.25 39.5625 795.75 39.4375 796.875 39.6875C800 40.1875 802.062 40.375 803.062 40.25C804.062 40.125 804.688 39.5 804.938 38.375C805.688 31.375 806.125 23.1875 806.25 13.8125H800.062C798.812 16.3125 797.438 18.625 795.938 20.75C800.562 22.125 803.125 24.625 803.625 28.25C803.625 31.375 802.25 33 799.5 33.125C797.25 33.375 796 32.3125 795.75 29.9375C795.875 27.4375 795.438 24.9375 794.438 22.4375C794.188 22.6875 793.938 22.9375 793.688 23.1875C792.812 24.0625 792.125 24.6875 791.625 25.0625V27.6875C791.625 30.9375 791.812 35.375 792.188 41C792.188 41.875 791.75 42.5 790.875 42.875C789.25 43.25 787.875 43.5 786.75 43.625C785.125 43.875 784.438 43.5 784.688 42.5V39.875H777.375V42.125C777.375 43.625 776.75 44.5 775.5 44.75C774.375 45 773.25 45.1875 772.125 45.3125C770.375 45.5625 769.75 44.8125 770.25 43.0625C770.375 39.8125 770.5 36.0625 770.625 31.8125ZM784.688 13.8125H778.125C777.5 14.1875 777.25 14.75 777.375 15.5V25.625H784.688V13.8125ZM777.375 27.125V38.375H784.688V27.125H777.375ZM827.812 17.75V43.625C827.938 45.375 827.438 46.375 826.312 46.625C826.062 46.625 825.812 46.625 825.562 46.625C824.562 47 823.75 47.25 823.125 47.375C821.5 47.75 820.812 46.75 821.062 44.375C821.188 39.75 821.312 35.1875 821.438 30.6875C820.188 32.4375 818.75 34 817.125 35.375C816.625 35.75 816.312 35.875 816.188 35.75C816.062 35.625 816.125 35.3125 816.375 34.8125C818.875 28.9375 820.438 21.9375 821.062 13.8125H820.875C819.5 13.8125 818.562 13.875 818.062 14C817.562 14.25 817.25 14.1875 817.125 13.8125C816.875 13.5625 816.625 13.125 816.375 12.5C816.125 12.125 816.25 11.9375 816.75 11.9375C818.125 12.1875 819.688 12.3125 821.438 12.3125V9.875C821.312 8.25 821.25 6.6875 821.25 5.1875C821.125 3.8125 821 2.8125 820.875 2.1875C820.5 0.8125 821 0.25 822.375 0.5C824.25 0.625 826.188 0.9375 828.188 1.4375C829.062 1.8125 829.188 2.375 828.562 3.125C827.938 3.375 827.688 3.875 827.812 4.625V12.3125C828.562 10.8125 829.125 10 829.5 9.875C830.25 10 831.312 10.8125 832.688 12.3125C832.688 12.1875 832.812 12.0625 833.062 11.9375C833.188 11.9375 833.312 11.875 833.438 11.75C833.688 11.625 834 11.3125 834.375 10.8125C835.375 9.1875 836.25 6.8125 837 3.6875C837 3.3125 837.375 3.1875 838.125 3.3125C840 4.1875 841.375 4.875 842.25 5.375C842.75 6.25 842.625 6.6875 841.875 6.6875C841.25 6.6875 840.75 6.9375 840.375 7.4375C839.5 8.5625 838.188 10.1875 836.438 12.3125C837.062 12.3125 837.875 12.3125 838.875 12.3125C839.375 11.3125 839.688 10.5625 839.812 10.0625C839.938 9.8125 840.062 9.5625 840.188 9.3125C840.312 8.9375 840.688 8.8125 841.312 8.9375C842.312 9.5625 843.375 10.1875 844.5 10.8125V9.5C844.375 8.375 844.312 7.1875 844.312 5.9375C844.188 4.4375 844.062 3.0625 843.938 1.8125C843.812 1.3125 843.812 0.9375 843.938 0.6875C844.062 0.5625 844.438 0.5 845.062 0.5C845.062 0.625 845.188 0.6875 845.438 0.6875C847.688 0.9375 849.375 1.1875 850.5 1.4375C851.5 1.9375 851.562 2.5625 850.688 3.3125C850.062 3.4375 849.812 3.9375 849.938 4.8125V13.4375C849.938 18.5625 850.5 23.375 851.625 27.875H853.5C853.125 27.75 852.875 27.3125 852.75 26.5625C852.625 25.8125 852.188 25.0625 851.438 24.3125C851.188 24.0625 851.062 23.875 851.062 23.75C851.188 23.625 851.438 23.5625 851.812 23.5625H852.188C851.938 23.4375 851.812 23.25 851.812 23C851.438 22.125 851.062 21.0625 850.688 19.8125C850.438 19.1875 850.75 18.875 851.625 18.875C852.125 19 852.625 18.8125 853.125 18.3125C853.25 18.0625 853.562 17.625 854.062 17C854.812 16 855.375 15.1875 855.75 14.5625C855.5 14.6875 855.25 14.875 855 15.125C854.75 15.25 854.125 15.5 853.125 15.875C852.25 16.375 851.75 16.25 851.625 15.5C851 14.375 850.562 13.4375 850.312 12.6875C850.188 12.1875 850.438 11.875 851.062 11.75C851.438 11.625 851.75 11.375 852 11C852.625 10 853.5 7.625 854.625 3.875C854.625 3.25 855 3.125 855.75 3.5C856.875 3.875 858.25 4.5625 859.875 5.5625C860.125 5.8125 860.25 6.125 860.25 6.5C860.125 6.75 859.875 6.875 859.5 6.875C859 6.75 858.562 7 858.188 7.625C856.188 10 854.75 11.625 853.875 12.5C854.25 12.5 854.75 12.5 855.375 12.5C856 12.5 856.562 12.4375 857.062 12.3125C857.562 11.4375 858.062 10.5 858.562 9.5C858.688 9 859.062 8.875 859.688 9.125C860.938 9.75 862.125 10.5 863.25 11.375C863.75 12.125 863.688 12.5625 863.062 12.6875C862.188 12.8125 861.625 13.0625 861.375 13.4375C860.5 14.3125 859.5 15.3125 858.375 16.4375C858.375 16.4375 858.438 16.4375 858.562 16.4375C860.688 17.6875 862.062 19.125 862.688 20.75C863.062 22.875 862.5 24.0625 861 24.3125C859.25 24.8125 858.438 24 858.562 21.875V21.3125C855.562 22.1875 853.812 22.875 853.312 23.375C853.188 23.375 853.125 23.4375 853.125 23.5625C853 23.6875 852.938 23.6875 852.938 23.5625C854.312 23.5625 855.375 23.8125 856.125 24.3125C857.125 25.5625 857.125 26.6875 856.125 27.6875C856 27.9375 855.875 28 855.75 27.875H856.5C857.5 26.25 858.438 25.25 859.312 24.875C860.312 25.125 861.625 26.1875 863.25 28.0625C863.75 28.9375 863.625 29.4375 862.875 29.5625C862.125 29.5625 860.938 29.5625 859.312 29.5625C857.938 29.4375 855.75 29.375 852.75 29.375H852C852.5 31.125 853.125 32.625 853.875 33.875C854.25 33 854.625 31.9375 855 30.6875C855.125 29.6875 855.812 29.375 857.062 29.75C858.688 30.25 860.188 30.75 861.562 31.25C862.062 31.625 862.312 32 862.312 32.375C862.188 32.875 861.938 33.125 861.562 33.125C860.938 33.25 860.438 33.75 860.062 34.625C859.938 34.75 859.875 34.8125 859.875 34.8125C859.25 36.3125 858.5 37.625 857.625 38.75C859.25 39.5 860.562 38.375 861.562 35.375C861.688 34.875 861.938 34.625 862.312 34.625C862.688 34.75 862.875 35.0625 862.875 35.5625C862.125 39.0625 862.062 41.4375 862.688 42.6875C863.188 44.1875 863 45.375 862.125 46.25C861.375 46.875 860.188 46.9375 858.562 46.4375C856.438 45.6875 854.562 44.5 852.938 42.875C849.688 44.75 845.562 46.0625 840.562 46.8125C839.812 46.8125 839.312 46.625 839.062 46.25C839.062 45.875 839.438 45.625 840.188 45.5C844.062 44 847.375 42.0625 850.125 39.6875C848.375 36.9375 847 33.5 846 29.375H840.938C840.812 30.875 840.688 32.1875 840.562 33.3125C840.562 33.3125 840.688 33.3125 840.938 33.3125C843.688 33.3125 845.688 34.0625 846.938 35.5625C847.938 37.5625 847.625 39.0625 846 40.0625C843.75 40.6875 842.438 40.125 842.062 38.375C841.688 36.25 841.188 34.8125 840.562 34.0625H840.375C839.25 40.0625 835.375 44.3125 828.75 46.8125C828 47.0625 827.562 47.0625 827.438 46.8125C827.438 46.4375 827.75 46.0625 828.375 45.6875C832.625 42.5625 834.688 37.3125 834.562 29.9375V29.375C832.562 29.375 831.375 29.4375 831 29.5625C830.5 29.8125 830.188 29.75 830.062 29.375C829.812 29.25 829.625 29 829.5 28.625C829.375 28.375 829.25 28.125 829.125 27.875C828.875 27.5 829 27.375 829.5 27.5C830.375 27.625 832.062 27.75 834.562 27.875C834.438 27 834.312 26.125 834.188 25.25C833.688 24.125 834.188 23.625 835.688 23.75C837.812 24.125 839.812 24.5 841.688 24.875C842.188 25.125 842.5 25.4375 842.625 25.8125C842.625 26.3125 842.438 26.6875 842.062 26.9375C841.688 27.1875 841.438 27.5 841.312 27.875H845.625C844.875 23.875 844.5 19.0625 844.5 13.4375V12.5C843.875 12.75 843.375 13 843 13.25C842.125 14 841.25 14.9375 840.375 16.0625C842.25 16.8125 843.562 18.125 844.312 20C844.812 22.125 844.312 23.4375 842.812 23.9375C841.188 24.4375 840.375 23.625 840.375 21.5V21.3125C838.125 21.9375 836.375 22.5625 835.125 23.1875C834.25 23.8125 833.688 23.6875 833.438 22.8125C833.188 22.0625 832.875 21.0625 832.5 19.8125C832.25 19.1875 832.562 18.875 833.438 18.875C833.812 19 834.25 18.75 834.75 18.125C835.625 17.25 836.438 16.1875 837.188 14.9375C836.938 15.1875 836.562 15.4375 836.062 15.6875C835.812 15.8125 835.625 15.875 835.5 15.875C834.625 16.25 834.125 16.125 834 15.5C833.875 15.375 833.688 15 833.438 14.375C833.312 14.25 833.188 14 833.062 13.625C832.812 13.875 832.562 13.9375 832.312 13.8125H827.812V16.4375C827.688 16.4375 827.75 16.5 828 16.625C830.125 17.875 831.625 19.375 832.5 21.125C832.875 23.25 832.312 24.5 830.812 24.875C829.062 25.375 828.25 24.625 828.375 22.625C828.5 21.25 828.312 19.625 827.812 17.75ZM837 19.25C837.125 19.25 837.562 19.25 838.312 19.25C839.188 19.125 839.875 19.0625 840.375 19.0625C840.375 18.1875 840.188 17.3125 839.812 16.4375C839.312 17.0625 838.625 17.75 837.75 18.5C837.375 18.875 837.125 19.125 837 19.25ZM855.375 19.4375C855.5 19.4375 855.875 19.4375 856.5 19.4375C857.375 19.3125 858.062 19.25 858.562 19.25C858.312 18 858.125 17.25 858 17C858 17.125 858 17.0625 858 16.8125C857 18.0625 856.125 18.9375 855.375 19.4375ZM895.125 15.5H875.812C875.438 15.625 875.062 15.75 874.688 15.875C874.188 16.125 873.812 16.25 873.562 16.25C875.062 16.75 876.5 17.25 877.875 17.75H895.688C896.688 16.125 897.5 15.3125 898.125 15.3125C901.375 16.4375 903.688 17.75 905.062 19.25C905.062 19.875 904.75 20.3125 904.125 20.5625C903.625 20.9375 903.438 21.4375 903.562 22.0625C903.438 23.6875 903.5 25.125 903.75 26.375C903.75 27 903.812 27.5 903.938 27.875C903.938 29.125 903.562 29.875 902.812 30.125C902.062 30.625 900.938 31 899.438 31.25C901.312 32 902.688 32.8125 903.562 33.6875C903.438 34.4375 903.125 34.9375 902.625 35.1875C902.125 35.4375 901.938 35.8125 902.062 36.3125C901.938 39.8125 902 42.25 902.25 43.625C902.375 45.25 901.875 46.125 900.75 46.25C899 46.625 897.375 46.875 895.875 47C894.625 47.125 894.062 46.625 894.188 45.5V44.1875H879.75V44.9375C879.75 45.8125 879.438 46.3125 878.812 46.4375C877.438 46.8125 875.875 47.0625 874.125 47.1875C872.375 47.4375 871.75 46.75 872.25 45.125C872.25 44.75 872.25 43.8125 872.25 42.3125C872.375 40.3125 872.438 38.875 872.438 38C872.438 37.25 872.375 35.9375 872.25 34.0625C872.25 33.0625 872.25 32.375 872.25 32C872 31.75 871.938 31.5 872.062 31.25C871.812 31.25 871.688 31.25 871.688 31.25C870.188 31.5 869.562 30.8125 869.812 29.1875C869.812 28.9375 869.812 28.5625 869.812 28.0625C870.062 25.5625 870.188 23.5625 870.188 22.0625C870.188 20.4375 870.125 19.4375 870 19.0625C870 18.4375 870 17.9375 870 17.5625C869.375 17.8125 868.625 18 867.75 18.125C866.875 18.375 866.188 18.5625 865.688 18.6875C865.062 18.8125 864.625 18.75 864.375 18.5C864.375 18.25 864.625 17.9375 865.125 17.5625C873.75 12.8125 879.062 7.625 881.062 2C881.188 1 881.875 0.5625 883.125 0.6875C885.25 1.0625 887.812 1.75 890.812 2.75C891.438 3.125 891.75 3.625 891.75 4.25C891.75 4.75 891.438 5.0625 890.812 5.1875C890.688 5.1875 890.562 5.25 890.438 5.375C890.312 5.5 890.188 5.5 890.062 5.375C896.562 9.625 903.375 11.1875 910.5 10.0625C911.125 10.1875 911.5 10.4375 911.625 10.8125C911.75 11.3125 911.5 11.6875 910.875 11.9375C909.25 13.0625 908.062 14.75 907.312 17C907.188 18 906.375 18.1875 904.875 17.5625C898.125 15.5625 892.812 11.8125 888.938 6.3125C888.688 6.4375 888.438 6.625 888.188 6.875C888.188 7 888.188 7.0625 888.188 7.0625C886.062 9.6875 883 12 879 14H888.188C889.312 12 890.375 10.875 891.375 10.625C892.125 10.75 893.438 11.75 895.312 13.625C895.688 14.125 895.875 14.5625 895.875 14.9375C895.875 15.3125 895.625 15.5 895.125 15.5ZM880.688 32.375H893.438C894.188 30.875 894.938 30.0625 895.688 29.9375C895.938 29.9375 896.188 29.9375 896.438 29.9375V29H877.125C876.875 29.75 876.438 30.1875 875.812 30.3125C875.438 30.5625 875.062 30.6875 874.688 30.6875C876.562 31.3125 878.375 31.75 880.125 32C880.125 32.125 880.188 32.1875 880.312 32.1875C880.438 32.3125 880.562 32.375 880.688 32.375ZM879.75 39.125V42.6875H894.188V39.125H879.75ZM894.188 33.875H880.125C879.875 34.125 879.75 34.5 879.75 35V37.8125H894.188V33.875ZM896.438 20.9375V19.25H890.25V27.6875H890.438C890.312 27.5625 890.375 27.3125 890.625 26.9375C890.875 25.8125 891.062 24.75 891.188 23.75C891.312 22.75 891.375 21.75 891.375 20.75C891.25 20.125 891.625 19.875 892.5 20C893.75 20.25 895.062 20.5625 896.438 20.9375ZM877.125 20.5625V27.6875H883.5V25.0625C883.25 26.0625 882.562 26.6875 881.438 26.9375C879.312 27.5625 878.25 26.75 878.25 24.5C878.25 23.375 877.875 22.0625 877.125 20.5625ZM891.75 27.6875H896.438V23C895.938 23.25 895.625 23.5 895.5 23.75C894.75 24.875 893.5 26.1875 891.75 27.6875ZM883.5 23.75V19.25H878.25C877.625 19.25 877.25 19.4375 877.125 19.8125C877.25 19.8125 877.375 19.8125 877.5 19.8125C880.375 20.3125 882.312 21.375 883.312 23C883.312 23.25 883.312 23.4375 883.312 23.5625C883.312 23.6875 883.375 23.75 883.5 23.75ZM925.688 34.0625H923.25V31.0625C923.25 29.4375 923.875 27.6875 925.125 25.8125C926.75 23.8125 927.562 21.75 927.562 19.625C927.562 15.125 926.062 12.8125 923.062 12.6875C920.688 12.9375 919.062 13.8125 918.188 15.3125C918.438 15.3125 918.688 15.3125 918.938 15.3125C921.312 15.4375 922.562 16.5 922.688 18.5C922.438 20.5 921.188 21.625 918.938 21.875C916.562 21.75 915.312 20.4375 915.188 17.9375C915.562 13.5625 918.75 11.125 924.75 10.625C931.125 11 934.562 13.375 935.062 17.75C935.062 20.375 933.438 22.875 930.188 25.25C927.188 27.5 925.688 29.75 925.688 32V34.0625ZM920.25 40.0625C920.5 37.6875 921.812 36.3125 924.188 35.9375C926.688 36.1875 928.062 37.5625 928.312 40.0625C927.938 42.0625 926.562 43.25 924.188 43.625C921.812 43.25 920.5 42.0625 920.25 40.0625Z" fill="#10656A"/>
</svg>
