<svg width="1464" height="49" viewBox="0 0 1464 49" fill="none" xmlns="http://www.w3.org/2000/svg">
<path d="M12.75 17.9375V23.5625C13.625 23.1875 14.5 22.875 15.375 22.625L16.5 22.0625V17.375C16.375 13.875 16.125 11.0625 15.75 8.9375C15.5 8.3125 15.4375 7.875 15.5625 7.625C15.8125 7.375 16.3125 7.25 17.0625 7.25C18.3125 7.5 20.5625 8 23.8125 8.75C24.9375 9.375 25.0625 10.125 24.1875 11C23.5625 11.25 23.3125 11.75 23.4375 12.5V19.4375L26.0625 18.3125V7.8125C25.9375 7.1875 25.875 6.375 25.875 5.375C25.75 4.375 25.625 3.3125 25.5 2.1875C25.125 0.9375 25.6875 0.375 27.1875 0.5C28.9375 0.75 31 1.125 33.375 1.625C33.875 1.875 34.1875 2.25 34.3125 2.75C34.3125 3.25 34.0625 3.5625 33.5625 3.6875C33.0625 4.0625 32.875 4.5625 33 5.1875V15.6875L36 14.375C37 12.125 37.75 11 38.25 11C41.75 12.5 44.0625 13.8125 45.1875 14.9375C45.1875 15.5625 44.875 16 44.25 16.25C43.875 16.375 43.6875 16.875 43.6875 17.75C43.5625 18.5 43.4375 20.4375 43.3125 23.5625C43.1875 25.4375 43.125 26.75 43.125 27.5C43.125 27.875 43.0625 28.25 42.9375 28.625C42.9375 28.875 42.9375 29.0625 42.9375 29.1875C43.0625 29.0625 43.3125 28.9375 43.6875 28.8125C44.1875 29.0625 44.375 29.625 44.25 30.5C43.75 35.375 44.1875 38 45.5625 38.375C47.1875 39.375 47.9375 40.375 47.8125 41.375C47.6875 42.625 47.125 43.5625 46.125 44.1875C44.875 45.0625 42.75 45.5 39.75 45.5H23.25C18.625 45.5 16.375 43.4375 16.5 39.3125V23.75L15.1875 24.125C15.0625 24.25 14.875 24.3125 14.625 24.3125C14.125 24.5625 13.5 25 12.75 25.625V33.3125C12.75 34.5625 12.75 36.3125 12.75 38.5625C12.875 40.3125 13 41.8125 13.125 43.0625C13.25 44.8125 12.6875 45.875 11.4375 46.25C10.4375 46.625 9.125 47 7.5 47.375C5.875 47.625 5.1875 47 5.4375 45.5C5.5625 44.125 5.6875 42 5.8125 39.125C5.8125 36 5.875 32.375 6 28.25V22.8125C4.625 24.5625 3.1875 26.125 1.6875 27.5C1.1875 28 0.8125 28.1875 0.5625 28.0625C0.3125 27.9375 0.3125 27.5 0.5625 26.75C4.4375 17.625 6.75 9.5 7.5 2.375C7.625 1 8.25 0.4375 9.375 0.6875C12.25 1.4375 14.625 2.1875 16.5 2.9375C17.5 3.6875 17.4375 4.4375 16.3125 5.1875C15.5625 5.4375 15 6.0625 14.625 7.0625C14 9.3125 13.0625 11.5625 11.8125 13.8125C11.9375 13.9375 12.125 14 12.375 14C12.5 14 12.6875 14.0625 12.9375 14.1875C13.9375 14.6875 14.0625 15.3125 13.3125 16.0625C12.9375 16.4375 12.75 17.0625 12.75 17.9375ZM26.625 39.6875H36.1875C39.0625 40.4375 41.125 37.4375 42.375 30.6875C41.625 32.4375 39.8125 33.625 36.9375 34.25C35.6875 34.625 34.9375 34.3125 34.6875 33.3125C34.4375 32.0625 33.875 31.0625 33 30.3125C33 30.6875 33 31.1875 33 31.8125C33.125 32.5625 33.1875 33.125 33.1875 33.5C33.1875 34.625 32.625 35.3125 31.5 35.5625C29.875 36.0625 28.25 36.3125 26.625 36.3125C25.625 36.4375 25.1875 35.9375 25.3125 34.8125C25.4375 33.0625 25.5625 31.1875 25.6875 29.1875C25.8125 27.0625 25.9375 25 26.0625 23V20L23.4375 20.9375V35.75C23.1875 38.625 24.25 39.9375 26.625 39.6875ZM36.5625 15.6875L33 17.1875V26.75V28.25C35.125 28.625 36.1875 27.75 36.1875 25.625C36.5625 20.625 36.6875 17.3125 36.5625 15.6875ZM74.25 6.875V9.125C74.25 16.375 75.75 22.375 78.75 27.125C82.5 32.75 87.625 36.625 94.125 38.75C95.375 39.25 95.9375 39.625 95.8125 39.875C95.8125 40 95.625 40.125 95.25 40.25C95.125 40.375 94.9375 40.5 94.6875 40.625C91.9375 41.75 90.0625 43.25 89.0625 45.125C88.4375 46.625 87.5 46.8125 86.25 45.6875C77.5 40.8125 73.25 31.5 73.5 17.75C72.625 32.875 64.5 42.25 49.125 45.875C48.75 46 48.5 45.875 48.375 45.5C48.25 45.25 48.4375 45 48.9375 44.75C60.8125 38.5 66.75 26.375 66.75 8.375C66.625 6 66.5 4.375 66.375 3.5C66.125 2.875 66.125 2.4375 66.375 2.1875C66.5 2.0625 67 2 67.875 2C70.25 2.25 72.625 2.6875 75 3.3125C75.625 3.5625 75.9375 3.9375 75.9375 4.4375C75.9375 5.0625 75.625 5.4375 75 5.5625C74.375 5.8125 74.125 6.25 74.25 6.875ZM102.375 17.1875V10.625C102.25 9 102.188 7.4375 102.188 5.9375C102.062 4.4375 101.938 3.4375 101.812 2.9375C101.438 1.6875 101.938 1.125 103.312 1.25C105.312 1.5 107.188 1.8125 108.938 2.1875C110.062 2.6875 110.25 3.3125 109.5 4.0625C108.75 4.3125 108.438 4.9375 108.562 5.9375V10.8125C110.812 11.0625 112.5 11.875 113.625 13.25C113.75 13.5 113.875 13.75 114 14C115.625 11.75 117.062 9.5625 118.312 7.4375C119.562 4.5625 120.312 2.625 120.562 1.625C120.812 0.625 121.375 0.25 122.25 0.5C123.375 1 125.25 1.6875 127.875 2.5625C128.625 2.9375 129.188 3.125 129.562 3.125C129.938 3.375 130.125 3.75 130.125 4.25C130 4.625 129.75 4.875 129.375 5C129.125 5.125 128.938 5.25 128.812 5.375C128.688 5.5 128.562 5.5625 128.438 5.5625C132.938 10.8125 137.562 13.75 142.312 14.375C143.312 14.625 143.812 14.9375 143.812 15.3125C143.812 15.6875 143.5 16.125 142.875 16.625C141.625 17.5 140.625 18.8125 139.875 20.5625C139.625 20.8125 139.562 20.875 139.688 20.75C139.812 21.375 139.688 21.875 139.312 22.25C138.812 22.5 138.625 23.125 138.75 24.125V32.5625C138.625 33.5625 138.562 35 138.562 36.875C138.562 39.75 138.625 41.5625 138.75 42.3125C138.875 44.3125 138.312 45.625 137.062 46.25C136.312 46.625 135.25 47 133.875 47.375C132.5 47.75 131.75 47.375 131.625 46.25C131.25 45.25 130.375 44.375 129 43.625C127.875 43.125 127.375 42.625 127.5 42.125C127.625 41.75 128.25 41.625 129.375 41.75C132 42 133.188 41.4375 132.938 40.0625V28.8125C132.812 25.1875 132.688 22.625 132.562 21.125C132.188 19.875 132.625 19.3125 133.875 19.4375C134 19.5625 134.25 19.6875 134.625 19.8125C135 19.8125 135.312 19.8125 135.562 19.8125C134.062 18.8125 132.75 17.4375 131.625 15.6875C131.375 15.9375 131.188 16 131.062 15.875H118.312C117.062 16.875 115.812 17.75 114.562 18.5C115.188 18.75 116.062 19 117.188 19.25C117.438 19.5 117.688 19.6875 117.938 19.8125H118.875C119.75 18.5625 120.438 17.875 120.938 17.75C123.188 18.75 124.875 19.8125 126 20.9375C126 21.3125 125.688 21.75 125.062 22.25C124.688 22.375 124.562 22.875 124.688 23.75V43.0625C124.688 44.5625 124.188 45.5 123.188 45.875C122.562 46.125 121.75 46.4375 120.75 46.8125C119.875 46.9375 119.375 46.5625 119.25 45.6875C119 44.8125 118.375 44.1875 117.375 43.8125V45.125C117.375 45.75 117.062 46.1875 116.438 46.4375C115.562 46.6875 114.5 46.9375 113.25 47.1875C112 47.4375 111.5 46.75 111.75 45.125C111.875 42.375 112 38.4375 112.125 33.3125V24.3125C112.125 22.3125 112.062 20.875 111.938 20C111.062 20.625 110.188 21.0625 109.312 21.3125C109.062 21.5625 108.812 21.5625 108.562 21.3125V28.0625C108.562 32.4375 108.75 37.375 109.125 42.875C109.375 44.5 108.875 45.5625 107.625 46.0625C107.125 46.1875 106.125 46.5 104.625 47C104.25 47.125 104 47.25 103.875 47.375C102.125 47.75 101.438 46.5625 101.812 43.8125C101.938 42.6875 102.062 40.875 102.188 38.375C102.188 35.5 102.25 32.3125 102.375 28.8125V22.8125C101.375 24.1875 100.312 24.875 99.1875 24.875C96.8125 24.375 96.1875 22.625 97.3125 19.625C98.6875 18.25 99.1875 16.0625 98.8125 13.0625C98.8125 12.6875 98.875 12.5 99 12.5C99.25 12.375 99.625 12.5 100.125 12.875C100.875 13.875 101.625 15.3125 102.375 17.1875ZM126.188 29.9375V26.9375C126.188 24.4375 126.125 22.9375 126 22.4375C125.75 21.3125 126.125 20.8125 127.125 20.9375C128.75 21.1875 130.125 21.4375 131.25 21.6875C132 22.0625 132.062 22.5625 131.438 23.1875C131.188 23.3125 131.125 23.8125 131.25 24.6875V29C131.25 32 131.25 34.375 131.25 36.125C131.375 37.25 130.938 37.9375 129.938 38.1875C129.062 38.4375 128.188 38.6875 127.312 38.9375C126.062 39.3125 125.562 38.625 125.812 36.875C125.938 35.25 126.062 32.9375 126.188 29.9375ZM120.188 14.375H125.25C125.25 14.375 125.312 14.25 125.438 14C126.438 12.5 127.125 11.75 127.5 11.75C127.875 11.875 128.75 12.4375 130.125 13.4375C129 11.4375 128.062 9.0625 127.312 6.3125C127.062 6.5625 126.875 6.8125 126.75 7.0625C126.5 7.3125 126.312 7.5 126.188 7.625C124.438 10.25 122.438 12.5 120.188 14.375ZM119.25 41V34.25H117.375V42.125C118.75 42.125 119.375 41.75 119.25 41ZM117.375 27.6875V32.9375H119.25V27.6875H117.375ZM119.25 21.125H117.375C117.375 21.5 117.375 21.9375 117.375 22.4375V26.375H119.25V21.125ZM108.562 12.125V20.375C109.312 19.75 110.062 18.9375 110.812 17.9375C109.812 17.6875 109.312 17.0625 109.312 16.0625C109.312 14.3125 109.062 13 108.562 12.125ZM175.312 5.375V12.125H178.312C179.438 10.75 180.188 10 180.562 9.875C182.938 10.625 185.125 11.8125 187.125 13.4375C187.625 14.3125 187.438 14.875 186.562 15.125C185.812 15.5 185.438 16 185.438 16.625V25.4375C186.188 24.1875 186.75 23.4375 187.125 23.1875C188.625 23.6875 190.125 24.625 191.625 26C192 26.875 191.812 27.375 191.062 27.5H176.062C179.188 34.25 184.062 38.5 190.688 40.25C191.438 40.5 191.812 40.75 191.812 41C191.812 41.25 191.5 41.5625 190.875 41.9375C188.75 42.9375 186.938 44.5625 185.438 46.8125C184.938 47.5625 184.312 47.6875 183.562 47.1875C178.312 43.4375 175.5 36.875 175.125 27.5H174.938C174.688 38.25 169 44.4375 157.875 46.0625C157.125 46.1875 156.688 46.125 156.562 45.875C156.438 45.625 156.75 45.375 157.5 45.125C163.875 41.75 167.375 35.875 168 27.5H163.312C162.312 27.625 161.188 27.75 159.938 27.875C159.438 28.125 159.125 28.0625 159 27.6875C158.75 27.1875 158.5 26.6875 158.25 26.1875C158 25.8125 158.125 25.6875 158.625 25.8125C160.125 26.0625 162 26.1875 164.25 26.1875H168.188C168.188 25.5625 168.188 24.5625 168.188 23.1875C168.312 21.4375 168.375 20.0625 168.375 19.0625V13.625H166.5C165.625 13.75 164.688 13.875 163.688 14C163.312 14.125 163.062 14 162.938 13.625C162.688 13.5 162.438 13.1875 162.188 12.6875C162.188 12.5625 162.188 12.4375 162.188 12.3125C161.938 11.9375 162.062 11.8125 162.562 11.9375C162.812 11.9375 163.5 12 164.625 12.125C165.875 12.125 166.812 12.125 167.438 12.125H168.375V9.6875C168.25 6.4375 168.125 3.8125 168 1.8125C167.75 0.9375 168.25 0.5625 169.5 0.6875C171.625 0.6875 173.812 1.125 176.062 2C177.062 2.625 177.125 3.3125 176.25 4.0625C175.625 4.4375 175.312 4.875 175.312 5.375ZM157.125 12.5V43.0625C157.125 44.6875 156.562 45.75 155.438 46.25C154.312 46.75 153.25 47.125 152.25 47.375C150.125 48 149.312 46.875 149.812 44C149.938 42 150.062 39.8125 150.188 37.4375C150.188 34.6875 150.25 31.9375 150.375 29.1875V23.375C149.625 24.375 148.625 25 147.375 25.25C146.25 25.5 145.312 25.125 144.562 24.125C144.188 22.5 144.312 21.0625 144.938 19.8125C146.312 18.3125 147.375 16.1875 148.125 13.4375C148.125 13.0625 148.25 12.875 148.5 12.875C148.75 12.875 149.062 13.0625 149.438 13.4375C149.812 14.0625 150.125 14.6875 150.375 15.3125V9.875C150.25 9 150.188 7.875 150.188 6.5C150.062 5.125 149.938 3.6875 149.812 2.1875C149.688 1.0625 150.188 0.5 151.312 0.5C152.312 0.625 154.125 1 156.75 1.625C157.125 1.625 157.438 1.625 157.688 1.625C158.938 2.25 159.125 3 158.25 3.875C157.25 4.375 156.875 4.875 157.125 5.375V12.125C157.125 12 157.312 11.875 157.688 11.75C160.312 12.375 162.312 13.75 163.688 15.875C164.312 17.625 163.938 19.0625 162.562 20.1875C159.938 21.4375 158.5 20.9375 158.25 18.6875C158.25 16.4375 157.875 14.375 157.125 12.5ZM178.5 13.625H175.312V19.0625C175.312 20.0625 175.25 21.4375 175.125 23.1875C175.125 24.5625 175.125 25.5625 175.125 26.1875H178.5V13.625ZM198.188 36.5V18.875H196.875C195.875 19 194.938 19.125 194.062 19.25C193.562 19.375 193.25 19.25 193.125 18.875C193 18.75 192.875 18.5625 192.75 18.3125C192.5 18.0625 192.375 17.8125 192.375 17.5625C192.25 17.3125 192.375 17.1875 192.75 17.1875C194.375 17.4375 196 17.5625 197.625 17.5625H198.188V11C198.062 9.375 198 7.8125 198 6.3125C197.875 4.8125 197.75 3.8125 197.625 3.3125C197.375 2.5625 197.375 2.125 197.625 2C197.75 1.75 198.25 1.625 199.125 1.625C200.375 1.625 202.5 2 205.5 2.75C206.625 3.5 206.75 4.1875 205.875 4.8125C205 5.3125 204.625 5.9375 204.75 6.6875V17.5625H204.938C205.688 15.6875 206.5 14.5625 207.375 14.1875C208.25 14.4375 209.5 15.1875 211.125 16.4375V13.625C211 11.125 210.875 9 210.75 7.25C210.625 6.375 211.125 6 212.25 6.125C214.625 6.625 216.5 7.125 217.875 7.625C219.125 8.25 219.25 9 218.25 9.875C217.875 10.125 217.688 10.5625 217.688 11.1875V18.3125L219.75 17.5625V10.25C219.625 9 219.5 7.625 219.375 6.125C219.25 4.5 219.125 3.25 219 2.375C218.625 1.25 219.125 0.6875 220.5 0.6875C222 0.9375 224 1.375 226.5 2C227.125 2.25 227.438 2.5625 227.438 2.9375C227.562 3.3125 227.375 3.6875 226.875 4.0625C226.25 4.6875 226 5.3125 226.125 5.9375V15.125L228 14.375C228.875 12.875 229.688 11.875 230.438 11.375C231.812 11.625 234 12.75 237 14.75C237.625 15.5 237.438 16.125 236.438 16.625C235.812 17 235.5 17.5625 235.5 18.3125V19.8125C235.375 20.8125 235.5 23.3125 235.875 27.3125C235.875 27.9375 235.938 28.3125 236.062 28.4375C236.188 30.3125 235.75 31.625 234.75 32.375C233.375 33.625 231.75 34.375 229.875 34.625C228.5 35 227.75 34.6875 227.625 33.6875C227.5 32.3125 227 31.25 226.125 30.5V34.625C226.25 36.125 225.688 37.0625 224.438 37.4375C223.938 37.6875 223.25 37.875 222.375 38C222 38 221.75 38 221.625 38C219.75 38.5 219 37.75 219.375 35.75C219.375 35.5 219.375 35 219.375 34.25C219.625 31.125 219.75 27.5 219.75 23.375V18.875L217.688 19.8125V38.5625C217.562 39.8125 218.312 40.375 219.938 40.25H230.812C231.938 40.75 233.438 38.3125 235.312 32.9375C235.562 31.8125 235.938 31.375 236.438 31.625C236.812 31.625 236.938 32.0625 236.812 32.9375C236.438 36.1875 236.938 38.3125 238.312 39.3125C239.312 40.3125 239.812 41.1875 239.812 41.9375C239.562 43.4375 238.875 44.4375 237.75 44.9375C236 45.6875 233.875 46.0625 231.375 46.0625H216.562C212.562 46.3125 210.75 44.5 211.125 40.625V34.625C207.875 37.125 203.625 40 198.375 43.25C197.625 43.625 197.188 43.9375 197.062 44.1875C196.688 44.6875 196.312 44.9375 195.938 44.9375C195.562 44.9375 195.25 44.6875 195 44.1875C193.75 42.1875 192.875 40.5625 192.375 39.3125C192.125 38.4375 192.5 37.9375 193.5 37.8125C193.875 37.6875 194.312 37.5625 194.812 37.4375C196.312 37.0625 197.438 36.75 198.188 36.5ZM211.125 32.75V22.25C210.5 22.625 209.625 23.0625 208.5 23.5625C208 23.8125 207.625 24 207.375 24.125C207.125 24.375 206.875 24.375 206.625 24.125C206 23.75 205.562 23.375 205.312 23C205.062 22.875 205 22.75 205.125 22.625C205.125 22.5 205.312 22.375 205.688 22.25C206.812 22.125 208.625 21.5625 211.125 20.5625V18.875H204.75V34.625C206 34.375 207.188 34.0625 208.312 33.6875C209.562 33.3125 210.5 33 211.125 32.75ZM228.938 15.5L226.125 16.625V28.25C228.125 28.625 229.062 28 228.938 26.375V15.5ZM275.25 25.25C274.5 25.375 273.75 26.0625 273 27.3125C272.125 28.8125 270.875 30.75 269.25 33.125C269.125 33.375 269 33.5625 268.875 33.6875C273.75 36.4375 279.5 38.0625 286.125 38.5625C286.875 38.5625 287.25 38.8125 287.25 39.3125C287.25 39.6875 286.938 40.0625 286.312 40.4375C284.688 40.9375 283.188 42.6875 281.812 45.6875C281.312 46.9375 280.438 47.3125 279.188 46.8125C272.188 44.1875 267.125 41.5 264 38.75C259.875 42.125 252.688 44.875 242.438 47C241.438 47.125 240.938 47.0625 240.938 46.8125C240.812 46.1875 241.188 45.75 242.062 45.5C250.312 41.75 256.188 37.8125 259.688 33.6875C257.938 31.4375 256.188 27.75 254.438 22.625C254.188 22 254.25 21.5625 254.625 21.3125C255.125 21.1875 255.562 21.375 255.938 21.875C257.438 24.75 259.688 27.3125 262.688 29.5625C263.938 27.6875 265.188 24.875 266.438 21.125C266.562 19.5 267.375 19 268.875 19.625C271.125 20.625 273.375 21.75 275.625 23C276.125 23.5 276.312 23.9375 276.188 24.3125C276.188 24.8125 275.875 25.125 275.25 25.25ZM250.875 8.9375H262.5C261.75 8.6875 261.312 7.8125 261.188 6.3125C260.938 4.8125 260.25 3.25 259.125 1.625C258.75 1.375 258.625 1.125 258.75 0.875C258.75 0.75 259.062 0.625 259.688 0.5C265.062 0.375 268.062 1.6875 268.688 4.4375C268.938 6.4375 268.125 7.9375 266.25 8.9375H277.688C279.312 6.3125 280.562 4.75 281.438 4.25C283.062 4.75 285.062 6.25 287.438 8.75C288.062 9.875 287.875 10.5 286.875 10.625C285.125 10.5 283.25 10.4375 281.25 10.4375C279.625 10.3125 277.125 10.25 273.75 10.25H249.188C248.438 10.375 247.438 10.4375 246.188 10.4375C245.062 10.5625 243.812 10.6875 242.438 10.8125C241.938 10.9375 241.625 10.875 241.5 10.625C241.125 10.125 240.75 9.5 240.375 8.75C240.125 8.375 240.25 8.25 240.75 8.375C242 8.625 243.812 8.8125 246.188 8.9375C248.188 8.9375 249.75 8.9375 250.875 8.9375ZM276.938 24.5C274.688 20.375 271.125 16.25 266.25 12.125C265.875 11.875 265.688 11.6875 265.688 11.5625C265.812 11.4375 266.125 11.3125 266.625 11.1875C275.75 12.8125 281.562 15.375 284.062 18.875C285.812 21.875 285.438 24.4375 282.938 26.5625C280.438 28.1875 278.438 27.5 276.938 24.5ZM253.125 10.8125C256.5 11.9375 259.062 13.0625 260.812 14.1875C261.312 14.5625 261.562 15 261.562 15.5C261.438 16 261.125 16.25 260.625 16.25C259.875 16.375 259.25 16.625 258.75 17C252.625 22.625 247.312 26.6875 242.812 29.1875C242.188 29.5625 241.75 29.625 241.5 29.375C241.375 29.25 241.562 28.875 242.062 28.25C246.812 22 250.188 16.375 252.188 11.375C252.312 10.875 252.625 10.6875 253.125 10.8125ZM328.125 6.125C329.75 6.875 331.562 7.75 333.562 8.75C333.938 9 334.125 9.375 334.125 9.875C334 10.25 333.688 10.4375 333.188 10.4375C332.312 10.3125 331.688 10.4375 331.312 10.8125C329.312 12.5625 327.062 14.1875 324.562 15.6875C326.938 16.0625 329.062 16.5625 330.938 17.1875C334.188 18.9375 335.125 21.125 333.75 23.75C332 25.75 330.375 25.75 328.875 23.75C327.25 21 324.875 18.75 321.75 17C321 18.875 320 20.3125 318.75 21.3125C319.75 21.4375 321.125 21.6875 322.875 22.0625C323.25 22.0625 323.562 22.0625 323.812 22.0625C324.312 22.1875 324.562 22.5625 324.562 23.1875C324.562 23.6875 324.312 24 323.812 24.125C323.438 24.375 323.188 24.625 323.062 24.875C323.688 27.375 324.5 29.625 325.5 31.625C326.25 29.75 326.75 27.875 327 26C327.125 25.625 327.5 25.5 328.125 25.625C330.125 26.375 332.125 27.1875 334.125 28.0625C334.5 28.3125 334.625 28.6875 334.5 29.1875C334.375 29.6875 334.125 29.875 333.75 29.75C333.125 29.75 332.5 29.9375 331.875 30.3125C330.375 31.5625 328.625 32.625 326.625 33.5C328.625 36.875 331.375 39.1875 334.875 40.4375C335.5 40.8125 335.812 41 335.812 41C335.812 41.25 335.5 41.5625 334.875 41.9375C333 42.8125 331.75 44.25 331.125 46.25C330.75 46.875 330.125 46.9375 329.25 46.4375C325.375 43.8125 323.062 38.9375 322.312 31.8125C320.938 40.5625 314.875 45.6875 304.125 47.1875C303.25 47.1875 302.75 47.0625 302.625 46.8125C302.625 46.5625 302.938 46.3125 303.562 46.0625C312.062 42.6875 316.125 35.5 315.75 24.5C315.75 24.125 315.75 23.75 315.75 23.375C314 24.125 311.938 24.875 309.562 25.625C308.812 25.875 308.375 25.875 308.25 25.625C308.125 25.375 308.375 25 309 24.5C314.625 21.25 317.125 14.6875 316.5 4.8125C316.5 3.8125 316.438 3.0625 316.312 2.5625C315.938 1.6875 316.375 1.3125 317.625 1.4375C318.875 1.5625 320.625 1.75 322.875 2C323.5 2.125 324.062 2.1875 324.562 2.1875C325.688 2.9375 325.688 3.6875 324.562 4.4375C323.812 4.6875 323.438 5.25 323.438 6.125C323.188 10.125 322.75 13.25 322.125 15.5C322.5 15.75 322.812 15.8125 323.062 15.6875C323.062 15.5625 323.125 15.375 323.25 15.125C323.25 15 323.312 14.8125 323.438 14.5625C324.812 12.0625 325.875 9.375 326.625 6.5C326.75 6 327.25 5.875 328.125 6.125ZM297.75 29.375H299.062C299.938 27.75 300.75 26.875 301.5 26.75C303.75 27.5 305.625 28.75 307.125 30.5C307.125 31.125 306.875 31.5625 306.375 31.8125C305.875 32.0625 305.688 32.5625 305.812 33.3125C305.688 37.5625 305.75 40.3125 306 41.5625C306.25 43.1875 305.75 44.0625 304.5 44.1875C303.375 44.5625 302.438 44.75 301.688 44.75C300.312 44.875 299.688 44.375 299.812 43.25V41.75H296.812V43.25C296.812 44.5 296.312 45.25 295.312 45.5C294.312 45.625 293.312 45.75 292.312 45.875C290.688 46.125 290.062 45.0625 290.438 42.6875C290.562 41.4375 290.625 38.375 290.625 33.5C290.625 32.25 290.562 31.25 290.438 30.5C290.438 29.75 290.438 28.9375 290.438 28.0625C290.312 27.4375 290.312 27.0625 290.438 26.9375C290.688 26.6875 291.125 26.625 291.75 26.75C293.5 27.125 295.188 27.75 296.812 28.625C297.312 28.875 297.625 29.125 297.75 29.375ZM295.125 8.1875C294.75 5.4375 294 3.5 292.875 2.375C292.5 1.625 292.688 1.25 293.438 1.25C297.688 1.75 300.188 2.875 300.938 4.625C301.438 7.375 300.625 9.1875 298.5 10.0625C296.5 10.4375 295.375 9.8125 295.125 8.1875ZM308.062 32.5625C309.938 31.4375 311.125 29.75 311.625 27.5C311.625 27.25 311.75 27.0625 312 26.9375C312.125 26.9375 312.312 27.0625 312.562 27.3125C314.188 29.6875 314.688 32.0625 314.062 34.4375C313.438 36.4375 312.062 37.375 309.938 37.25C307.438 36.625 306.812 35.0625 308.062 32.5625ZM308.25 11.75H293.25C291.625 11.75 290.625 11.8125 290.25 11.9375C289.625 12.1875 289.25 12.125 289.125 11.75C288.875 11.375 288.688 11 288.562 10.625C288.438 10.375 288.375 10.25 288.375 10.25C288.5 10.125 288.688 10.0625 288.938 10.0625C289.812 10.3125 291.438 10.375 293.812 10.25H301.312C301.312 10.125 301.438 9.9375 301.688 9.6875C302.938 7.8125 303.75 6.875 304.125 6.875C305.5 7.375 307 8.5 308.625 10.25C308.875 11.125 308.75 11.625 308.25 11.75ZM308.625 12.6875C310.375 11.5625 311.375 9.8125 311.625 7.4375C311.625 7.1875 311.688 7.0625 311.812 7.0625C311.938 6.9375 312.188 7 312.562 7.25C314.312 9.375 314.938 11.8125 314.438 14.5625C313.812 16.4375 312.438 17.3125 310.312 17.1875C307.938 16.5625 307.375 15.0625 308.625 12.6875ZM306.75 18.125H294.562C293.062 18.125 292.062 18.1875 291.562 18.3125C291.062 18.4375 290.75 18.3125 290.625 17.9375C290.375 17.8125 290.25 17.6875 290.25 17.5625C290.125 17.4375 290 17.25 289.875 17C289.75 16.75 289.75 16.5625 289.875 16.4375C289.875 16.4375 290.062 16.4375 290.438 16.4375C291.188 16.6875 292.75 16.75 295.125 16.625H301.125C302.25 14.875 303 13.9375 303.375 13.8125C304.375 14.1875 305.688 15.125 307.312 16.625C307.812 17.625 307.625 18.125 306.75 18.125ZM307.125 24.3125H294.75C294 24.3125 293.188 24.375 292.312 24.5C291.938 24.5 291.75 24.5 291.75 24.5C291.125 24.75 290.75 24.6875 290.625 24.3125C290.5 24.1875 290.375 24.0625 290.25 23.9375C290.125 23.8125 290.062 23.625 290.062 23.375C289.812 22.875 289.938 22.625 290.438 22.625C292.062 22.875 293.688 23 295.312 23H301.688C302.812 21.25 303.562 20.3125 303.938 20.1875C304.938 20.4375 306.125 21.375 307.5 23C307.75 23.375 307.875 23.6875 307.875 23.9375C307.75 24.1875 307.5 24.3125 307.125 24.3125ZM299.812 30.5H297C297 30.625 296.938 30.8125 296.812 31.0625C296.812 31.3125 296.812 31.5 296.812 31.625V40.8125H299.812V30.5ZM358.875 28.0625H357.188C357.062 28.0625 356.812 28.125 356.438 28.25C355.938 28.25 355.562 28.25 355.312 28.25C355.188 29.25 355.188 30.75 355.312 32.75C355.438 34.75 355.5 36.1875 355.5 37.0625C355.625 38.5625 355.312 39.25 354.562 39.125C353.188 39.625 351.875 39.875 350.625 39.875C349.125 40.25 348.438 39.625 348.562 38V36.3125H345V38.9375C345.125 40.6875 344.5 41.6875 343.125 41.9375C341.875 42.0625 340.812 42.1875 339.938 42.3125C338.312 42.5625 337.625 42.0625 337.875 40.8125C338.25 36.5625 338.438 32.8125 338.438 29.5625V16.25C338.438 13 338.25 9.75 337.875 6.5C337.875 5.25 338.375 4.8125 339.375 5.1875C341.625 5.6875 343.688 6.375 345.562 7.25C345.812 7.375 346.062 7.5 346.312 7.625H348.188C348.938 6.125 349.688 5.375 350.438 5.375C351.188 5.375 352.938 6.3125 355.688 8.1875C356.938 9.3125 357 10.1875 355.875 10.8125C355.5 10.9375 355.312 11.4375 355.312 12.3125V18.875C356.438 18.875 358 18.875 360 18.875H363.75V11.375H361.688C360.812 11.5 359.938 11.625 359.062 11.75C358.812 11.875 358.5 11.875 358.125 11.75C358.125 11.75 358.125 11.6875 358.125 11.5625C357.625 11.1875 357.312 10.75 357.188 10.25C356.938 9.875 357.062 9.6875 357.562 9.6875C358.688 9.9375 360.438 10.0625 362.812 10.0625H363.75C363.5 6.4375 363.312 4.0625 363.188 2.9375C362.812 1.8125 363.312 1.25 364.688 1.25C366.812 1.5 368.875 1.8125 370.875 2.1875C371.5 2.4375 371.875 2.8125 372 3.3125C372.125 3.6875 371.938 4.0625 371.438 4.4375C370.812 4.9375 370.562 5.4375 370.688 5.9375V10.0625H372.562C373.938 7.4375 374.938 6.125 375.562 6.125C377.188 6.875 378.812 8.1875 380.438 10.0625C380.688 10.4375 380.75 10.75 380.625 11C380.5 11.25 380.25 11.375 379.875 11.375H370.688V18.875H374.25C375.625 16.625 376.625 15.4375 377.25 15.3125C378.25 15.5625 380.062 16.75 382.688 18.875C383.062 19.75 382.875 20.25 382.125 20.375H377.625C377.5 21 377.25 21.375 376.875 21.5C376.375 21.875 376.188 22.375 376.312 23V26.5625C377.188 24.6875 377.938 23.6875 378.562 23.5625C379.438 23.8125 380.875 24.75 382.875 26.375C383.125 26.75 383.25 27.0625 383.25 27.3125C383.125 27.8125 382.812 28.0625 382.312 28.0625H376.312V29.375C376.188 35 376.25 38.75 376.5 40.625C376.75 43.25 376.062 44.9375 374.438 45.6875C373.188 46.1875 371.625 46.6875 369.75 47.1875C368.25 47.5625 367.375 47.1875 367.125 46.0625C366.75 44.0625 365.312 42.6875 362.812 41.9375C361.812 41.5625 361.375 41.25 361.5 41C361.375 40.75 362 40.625 363.375 40.625C367.625 40.875 369.5 39.875 369 37.625V28.0625H360.562C363.062 29.0625 365 30.4375 366.375 32.1875C367.375 34.8125 367 36.6875 365.25 37.8125C362.25 39.0625 360.625 38.25 360.375 35.375C360.25 32.75 359.75 30.5625 358.875 28.8125C358.875 28.8125 358.812 28.75 358.688 28.625C358.688 28.375 358.75 28.1875 358.875 28.0625ZM358.312 26.5625H369C369 23.3125 368.938 21.25 368.812 20.375H359.062C358.188 20.5 357.25 20.625 356.25 20.75C355.875 20.875 355.562 20.8125 355.312 20.5625V26.5625C356.188 26.5625 357.188 26.5625 358.312 26.5625ZM345 22.625V35H348.562V22.625H345ZM348.562 9.125H345.562C345.188 9.375 345 9.75 345 10.25V21.3125H348.562V9.125ZM394.5 47.9375L392.625 46.4375C392.75 46.1875 392.875 45.9375 393 45.6875C395.5 42.9375 396.875 40.75 397.125 39.125C396.875 39.125 396.688 39.125 396.562 39.125C396.438 39.25 396.312 39.3125 396.188 39.3125C393.688 39.1875 392.375 37.8125 392.25 35.1875C392.375 32.8125 393.688 31.5 396.188 31.25C398.688 31.5 400.062 33.25 400.312 36.5C400.312 39.5 398.375 43.3125 394.5 47.9375ZM458.062 43.0625V20C457.938 15.375 457.812 12.0625 457.688 10.0625C457.312 8.6875 457.875 8.125 459.375 8.375C461.5 9 463.625 9.875 465.75 11C465.875 11.125 466.062 11.25 466.312 11.375H469.125C470 9.75 470.812 8.8125 471.562 8.5625C474.188 9.5625 476.5 11 478.5 12.875C478.75 13.625 478.5 14.125 477.75 14.375C477.125 14.875 476.812 15.3125 476.812 15.6875V24.5C476.812 27.625 476.812 31.125 476.812 35C476.938 38.5 477.062 40.5 477.188 41C477.188 41.875 476.688 42.625 475.688 43.25C474.312 43.75 472.875 44.0625 471.375 44.1875C470 44.1875 469.375 43.625 469.5 42.5V39.3125H465V42.125C465 43 464.438 43.75 463.312 44.375C462.312 44.75 461.125 45 459.75 45.125C458.5 45.125 457.938 44.4375 458.062 43.0625ZM438.75 14.5625H437.062C435.562 14.5625 434.562 14.625 434.062 14.75C433.562 15 433.188 14.875 432.938 14.375C432.812 14.25 432.688 14.0625 432.562 13.8125C432.312 13.6875 432.188 13.5 432.188 13.25C432.062 12.875 432.188 12.6875 432.562 12.6875C433.062 12.8125 433.938 12.9375 435.188 13.0625C436.562 13.0625 437.625 13.0625 438.375 13.0625H438.938C439.312 11.0625 439.75 8.1875 440.25 4.4375C440.25 3.6875 440.312 3.125 440.438 2.75C440.438 1.625 441 1.1875 442.125 1.4375C443.125 1.6875 444.75 2.1875 447 2.9375C447.375 3.0625 447.75 3.125 448.125 3.125C449.125 3.75 449.125 4.4375 448.125 5.1875C447.625 5.4375 447.312 5.875 447.188 6.5C447.062 6.75 447 7.125 447 7.625C446.75 9 446.375 10.8125 445.875 13.0625H448.5C449.25 11.5625 449.938 10.6875 450.562 10.4375C452.812 11.1875 455.062 12.25 457.312 13.625C457.812 14.5 457.688 15.125 456.938 15.5C456.062 15.75 455.625 16.3125 455.625 17.1875C454.625 23.8125 453.438 29 452.062 32.75C453.188 33.375 454.25 34 455.25 34.625C458.25 37.25 458.688 39.625 456.562 41.75C454.688 43.375 452.875 43.125 451.125 41C450.375 40.25 449.625 39.375 448.875 38.375C446.125 41.625 441.125 44.375 433.875 46.625C433.25 46.75 432.875 46.6875 432.75 46.4375C432.625 46.3125 432.812 46.125 433.312 45.875C438.438 42.375 442.062 38.375 444.188 33.875C443.438 33.375 442.688 32.875 441.938 32.375C441.562 33.5 441.062 34.0625 440.438 34.0625C439.062 34.0625 437.875 34.0625 436.875 34.0625C436 33.9375 435.5 33.6875 435.375 33.3125C435.125 33.1875 435.125 32.625 435.375 31.625C436.375 27.5 437.5 21.8125 438.75 14.5625ZM469.5 12.6875H465.938C465.188 13.1875 464.875 13.8125 465 14.5625V37.8125H469.5V12.6875ZM448.688 14.5625H445.688C445.312 15.9375 444.875 17.9375 444.375 20.5625C443.375 25.1875 442.688 28.5 442.312 30.5C443.438 30.75 444.5 30.875 445.5 30.875C447.25 26.375 448.312 20.9375 448.688 14.5625ZM494.062 22.4375V23C494.438 24.75 492.625 25.6875 488.625 25.8125C487.125 26.0625 486.5 25.4375 486.75 23.9375C487 20.3125 487.125 15.1875 487.125 8.5625C487 5.8125 486.875 4 486.75 3.125C486.5 2.5 486.5 2.0625 486.75 1.8125C487 1.6875 487.562 1.625 488.438 1.625C491.812 2.375 494.188 3.25 495.562 4.25H512.812C512.938 4 513 3.9375 513 4.0625C514.125 2.5625 514.875 1.8125 515.25 1.8125C518.375 2.9375 520.625 4.25 522 5.75C522 6.375 521.688 6.8125 521.062 7.0625C520.812 7.1875 520.688 7.6875 520.688 8.5625C520.562 14.8125 520.688 18.9375 521.062 20.9375C521.062 22.1875 520.625 23 519.75 23.375C519.125 23.875 517.812 24.25 515.812 24.5C514.312 24.75 513.625 24.25 513.75 23V22.4375H507.375V27.3125H517.5C519.125 24.6875 520.312 23.25 521.062 23C523.062 23.75 525.188 25.125 527.438 27.125C527.812 27.625 527.938 28.0625 527.812 28.4375C527.688 28.6875 527.375 28.8125 526.875 28.8125C524.875 28.8125 523.25 28.8125 522 28.8125C520.875 28.6875 519 28.625 516.375 28.625H509.812C513.188 32.875 518.812 35.8125 526.688 37.4375C527.312 37.5625 527.75 37.875 528 38.375C527.875 38.5 527.812 38.5625 527.812 38.5625C527.562 38.9375 527.25 39.1875 526.875 39.3125C525 40.3125 523.562 41.9375 522.562 44.1875C522.188 44.9375 521.562 45.125 520.688 44.75C513.938 42 509.75 36.625 508.125 28.625H507.375V28.8125C507.375 32.1875 507.5 37.125 507.75 43.625C508 45.25 507.375 46.3125 505.875 46.8125C504.625 47.3125 503.375 47.625 502.125 47.75C500.125 48.25 499.375 47.125 499.875 44.375C500 42.125 500.188 38.625 500.438 33.875C497.562 38.625 491.188 42.375 481.312 45.125C480.688 45.25 480.312 45.1875 480.188 44.9375C480.188 44.6875 480.438 44.4375 480.938 44.1875C486.688 40.6875 491.188 35.5 494.438 28.625H487.875C485.25 28.75 483.312 28.9375 482.062 29.1875C481.562 29.3125 481.25 29.1875 481.125 28.8125C480.625 28.4375 480.312 27.9375 480.188 27.3125C480.062 27.0625 480 26.875 480 26.75C480 26.75 480.188 26.75 480.562 26.75C483.938 27.125 486.688 27.3125 488.812 27.3125H500.438V22.4375H494.062ZM513.75 14H507.375V21.125H513.75V14ZM494.062 14V21.125H500.438V14H494.062ZM513.75 5.75H507.75C507.375 6.125 507.25 6.625 507.375 7.25V12.5H513.75V5.75ZM494.062 6.875V12.5H500.438V5.75H495.375C494.375 5.75 493.938 6.125 494.062 6.875ZM562.688 19.625V23.1875C562.688 22.8125 563.062 22.8125 563.812 23.1875C568.688 25.0625 572.188 28.0625 574.312 32.1875C575.062 35.6875 574.125 38 571.5 39.125C568.875 39.625 567.312 38.125 566.812 34.625C566.312 31.125 565.062 27.625 563.062 24.125C562.812 24 562.688 23.8125 562.688 23.5625V25.8125C562.562 32.6875 562.625 37.625 562.875 40.625C563.125 42.875 562.438 44.5 560.812 45.5C558.938 46.5 557.062 47.125 555.188 47.375C553.562 47.625 552.688 47.25 552.562 46.25C552.188 44.125 551.125 42.8125 549.375 42.3125C548.375 41.9375 547.938 41.5625 548.062 41.1875C547.938 41.0625 548.562 41 549.938 41C553.938 41.625 555.75 40.375 555.375 37.25V24.875C555.375 25.125 555.188 25.25 554.812 25.25C554.188 25.5 553.875 25.875 553.875 26.375C551.875 32.625 548.438 37.3125 543.562 40.4375C542.938 40.8125 542.562 40.9375 542.438 40.8125C542.312 40.6875 542.438 40.3125 542.812 39.6875C544.562 35.6875 545.812 32.0625 546.562 28.8125C546.562 28.6875 546.562 28.375 546.562 27.875C546.938 26.5 547.188 25 547.312 23.375C547.438 22.375 547.938 21.9375 548.812 22.0625C550.688 22.3125 552.688 22.8125 554.812 23.5625C555.188 23.9375 555.375 24.125 555.375 24.125V23.5625C555.25 22.0625 555.188 20.625 555.188 19.25C555.062 17.875 554.938 16.875 554.812 16.25C554.438 14.875 554.938 14.3125 556.312 14.5625C558.062 14.8125 560.312 15.1875 563.062 15.6875C564.312 16.4375 564.5 17.1875 563.625 17.9375C562.875 18.3125 562.562 18.875 562.688 19.625ZM541.5 18.125V35.75C541.375 39.25 541.438 41.75 541.688 43.25C541.938 44.875 541.375 45.9375 540 46.4375C538.75 46.8125 537.438 47.125 536.062 47.375C533.938 48 533.188 46.875 533.812 44C533.812 43.375 533.812 42.4375 533.812 41.1875C534.188 35.6875 534.375 31.5625 534.375 28.8125V22.625C532.625 24.75 530.875 26.4375 529.125 27.6875C528.75 28.0625 528.5 28.125 528.375 27.875C528.25 27.625 528.312 27.25 528.562 26.75C531.562 20.75 533.938 14.5625 535.688 8.1875C536.312 6.4375 536.75 4.1875 537 1.4375C536.875 0.6875 537.375 0.3125 538.5 0.3125C540 0.6875 542.5 1.4375 546 2.5625C546.75 3.3125 546.75 4.0625 546 4.8125C545.125 5.1875 544.625 5.5625 544.5 5.9375C542.875 9.1875 541.438 12 540.188 14.375C540.312 14.375 540.562 14.4375 540.938 14.5625C541.312 14.5625 541.562 14.5625 541.688 14.5625C542.562 15.1875 542.688 15.8125 542.062 16.4375C541.562 16.8125 541.375 17.375 541.5 18.125ZM564.938 17.375L566.25 12.875H553.875C551.125 17.25 547.625 20.8125 543.375 23.5625C543 23.8125 542.75 23.8125 542.625 23.5625C542.5 23.4375 542.562 23.125 542.812 22.625C546.062 17.625 548.375 12.4375 549.75 7.0625C550 6.0625 550.188 5.125 550.312 4.25C550.562 3.25 550.688 2.3125 550.688 1.4375C550.688 0.5625 551.188 0.25 552.188 0.5C553.312 0.625 555.25 1.125 558 2C558.25 2.125 558.562 2.1875 558.938 2.1875C559.312 2.4375 559.562 2.8125 559.688 3.3125C559.562 3.8125 559.312 4.0625 558.938 4.0625C558.062 4.4375 557.562 4.9375 557.438 5.5625C556.562 7.6875 555.688 9.625 554.812 11.375H565.312C566.188 9.375 567.125 8.1875 568.125 7.8125C570 8.1875 572.188 9.625 574.688 12.125C575.312 12.75 575.562 13.4375 575.438 14.1875C575.312 14.9375 574.688 15.3125 573.562 15.3125C570.562 15.0625 568.062 16 566.062 18.125C565.562 18.5 565.188 18.625 564.938 18.5C564.812 18.375 564.812 18 564.938 17.375ZM600.562 9.5H612.75C614.75 6.5 616 4.9375 616.5 4.8125C618.75 5.6875 620.938 7.3125 623.062 9.6875C623.312 10.0625 623.438 10.4375 623.438 10.8125C623.312 11.0625 623.062 11.1875 622.688 11.1875C620.938 11.1875 619.125 11.1875 617.25 11.1875C615.625 11.0625 613.188 11 609.938 11H599.812C598.688 13.625 597.375 15.9375 595.875 17.9375H607.125C608.125 16.1875 608.938 15.25 609.562 15.125C612.688 16.25 615.188 17.75 617.062 19.625C616.938 20.125 616.625 20.625 616.125 21.125C615.5 21.375 615.25 21.875 615.375 22.625V41.75C615.5 43.875 614.375 45.3125 612 46.0625C610.625 46.5625 609.125 47 607.5 47.375C605.875 47.75 605.125 47.4375 605.25 46.4375C605 44.4375 603.75 43 601.5 42.125C600.75 41.75 600.438 41.4375 600.562 41.1875C600.438 41.0625 600.875 41 601.875 41C602 41 602.188 41 602.438 41C603.812 41.125 605 41.25 606 41.375C607.25 41.375 607.875 40.625 607.875 39.125V33.5H596.625V44.375C596.625 45.625 596.125 46.375 595.125 46.625C594.375 46.75 593.562 46.875 592.688 47C591.812 47 591 47.0625 590.25 47.1875C589.125 47.1875 588.688 46.625 588.938 45.5C589.312 43.25 589.562 39.8125 589.688 35.1875V25.4375C586.312 28.3125 582.625 30.625 578.625 32.375C578.125 32.625 577.75 32.625 577.5 32.375C577.25 32 577.375 31.5625 577.875 31.0625C584.125 25.4375 588.688 18.75 591.562 11H586.125C584.875 11.125 583.562 11.1875 582.188 11.1875C581.062 11.3125 580.188 11.4375 579.562 11.5625C579.188 11.6875 578.875 11.5625 578.625 11.1875C578.375 11.0625 578.188 10.8125 578.062 10.4375C577.812 10.1875 577.625 9.9375 577.5 9.6875C577.375 9.4375 577.312 9.3125 577.312 9.3125C577.312 9.1875 577.5 9.125 577.875 9.125C580.375 9.375 583.688 9.5 587.812 9.5H592.125C593.125 6.375 593.812 3.8125 594.188 1.8125C594.188 0.8125 594.75 0.4375 595.875 0.6875C599.75 1.6875 602.5 2.375 604.125 2.75C604.625 3 604.875 3.375 604.875 3.875C604.75 4.5 604.438 4.8125 603.938 4.8125C603.812 4.9375 603.688 5 603.562 5C602.688 5.375 602.125 5.9375 601.875 6.6875C601.625 7.0625 601.375 7.5625 601.125 8.1875C600.875 8.8125 600.688 9.25 600.562 9.5ZM596.625 26.375V32.1875H607.875V26.375H596.625ZM596.625 20.5625V25.0625H607.875V19.4375H596.812C596.562 19.6875 596.5 20.0625 596.625 20.5625ZM639.562 18.125V22.0625C639.438 24.8125 639.5 27.3125 639.75 29.5625C639.75 30.5625 639.25 31.25 638.25 31.625C637.125 32 635.75 32.25 634.125 32.375C633.125 32.375 632.688 31.875 632.812 30.875C632.812 30.25 632.812 29.0625 632.812 27.3125C632.938 25.3125 633 23.875 633 23C631.25 25.375 628.688 27.4375 625.312 29.1875C624.812 29.5625 624.5 29.625 624.375 29.375C624.125 29.25 624.188 28.9375 624.562 28.4375C628.188 23.8125 630.75 18.375 632.25 12.125H628.875C628.625 12.125 628.188 12.1875 627.562 12.3125C626.938 12.3125 626.5 12.3125 626.25 12.3125C625.75 12.4375 625.438 12.375 625.312 12.125C624.938 11.875 624.688 11.4375 624.562 10.8125C624.438 10.6875 624.375 10.5625 624.375 10.4375C624.375 10.3125 624.562 10.25 624.938 10.25C626.688 10.5 628.312 10.625 629.812 10.625H633V6.875C633 4.875 632.875 3.1875 632.625 1.8125C632.5 0.6875 633 0.25 634.125 0.5C635.75 0.625 637.625 1 639.75 1.625C640.25 1.875 640.562 2.1875 640.688 2.5625C640.688 2.9375 640.5 3.25 640.125 3.5C639.625 3.875 639.438 4.3125 639.562 4.8125V10.25C640.562 8.625 641.312 7.75 641.812 7.625C642.938 8 644.438 9 646.312 10.625C646.312 10.75 646.375 10.875 646.5 11C646.5 10 646.438 8.4375 646.312 6.3125C646.312 4.8125 646.312 3.8125 646.312 3.3125C646.188 2.6875 646.188 2.25 646.312 2C646.562 1.75 647 1.6875 647.625 1.8125C649.625 2.3125 651.625 3 653.625 3.875C654 4 654.188 4.125 654.188 4.25H660.562C661.438 2.875 662.188 2.125 662.812 2C665.312 2.75 667.5 4 669.375 5.75C669.5 6.5 669.25 7 668.625 7.25C668 7.5 667.688 7.875 667.688 8.375V15.875C667.688 17.375 667.75 19.4375 667.875 22.0625C668.125 24.6875 668.25 26.25 668.25 26.75C668.375 28.25 667.875 29.1875 666.75 29.5625C665.25 30.0625 664.062 30.3125 663.188 30.3125C661.562 30.5625 660.875 29.9375 661.125 28.4375V26.1875H653.25V27.5C653.25 29 652.625 29.8125 651.375 29.9375C650 30.1875 648.938 30.3125 648.188 30.3125H647.625C650.625 31.6875 652.375 33.1875 652.875 34.8125C653.625 36.9375 652.938 38.5 650.812 39.5C648.312 40.5 646.938 39.5625 646.688 36.6875C646.188 34.1875 645.438 32.1875 644.438 30.6875C644.062 30.3125 643.938 30.0625 644.062 29.9375C644.188 29.8125 644.562 29.75 645.188 29.75C645.312 29.875 645.5 30 645.75 30.125C646.125 30.125 646.438 30.125 646.688 30.125C646.188 30 646 29.25 646.125 27.875C646.25 26.375 646.375 24.25 646.5 21.5C646.25 22.5 645.75 23.25 645 23.75C642.5 25.125 641.062 24.5625 640.688 22.0625C640.312 20.9375 639.938 19.625 639.562 18.125ZM643.125 36.6875V39.5C643 40.5 643.812 41 645.562 41H651.938C653.812 41 655.25 38.875 656.25 34.625C656.375 33.625 656.688 33.125 657.188 33.125C657.562 33.25 657.812 33.75 657.938 34.625C657.812 37.5 658.688 39.25 660.562 39.875C661.688 40.625 662.312 41.3125 662.438 41.9375C662.438 43.1875 661.812 44.1875 660.562 44.9375C658.312 46.0625 655.875 46.625 653.25 46.625H641.625C638 46.5 636.188 44.625 636.188 41V38.9375C636.188 35.9375 636.062 34.0625 635.812 33.3125C635.688 32.4375 636.188 32.0625 637.312 32.1875C638.062 32.3125 639 32.4375 640.125 32.5625C641.25 32.6875 642.438 32.875 643.688 33.125C644.688 33.75 644.75 34.4375 643.875 35.1875C643.25 35.5625 643 36.0625 643.125 36.6875ZM626.625 40.625C628.75 38.375 630.188 35.8125 630.938 32.9375C630.938 32.5625 631 32.375 631.125 32.375C631.375 32.375 631.625 32.5 631.875 32.75C634.375 37.125 634.938 40.625 633.562 43.25C632.188 45.375 630.375 46.0625 628.125 45.3125C625.75 43.8125 625.25 42.25 626.625 40.625ZM664.312 41.375C663.562 38.5 662.25 36 660.375 33.875C660 33.625 659.812 33.4375 659.812 33.3125C659.938 33.1875 660.25 33.125 660.75 33.125C665.375 33.375 668.688 34.875 670.688 37.625C671.562 39.875 671.062 41.6875 669.188 43.0625C666.562 44.0625 664.938 43.5 664.312 41.375ZM653.25 19.4375V24.875H661.125V19.4375H653.25ZM653.25 12.5V17.9375H661.125V12.5H653.25ZM661.125 5.75H653.438C653.188 6 653.125 6.375 653.25 6.875V11.1875H661.125V5.75ZM646.5 17V12.125V11.9375C646.375 12.1875 646.062 12.25 645.562 12.125H639.562V15.6875C642.562 16.1875 644.625 17.125 645.75 18.5C646 19 646.25 19.5 646.5 20C646.5 19 646.5 18 646.5 17ZM685.125 23.375V23.75C685.125 24.625 684.375 25.25 682.875 25.625C681.875 25.875 680.75 26.0625 679.5 26.1875C678 26.5625 677.375 25.9375 677.625 24.3125C677.625 23.8125 677.625 23.0625 677.625 22.0625C677.875 20.3125 678 18.6875 678 17.1875C677.875 16.5625 677.812 15.5 677.812 14C677.688 12.375 677.625 11.25 677.625 10.625C677.375 9.375 677.875 8.875 679.125 9.125C680.875 9.5 683.125 10.3125 685.875 11.5625H688.312V5.75H681.938C680.688 5.875 679.312 5.9375 677.812 5.9375C676.438 6.0625 675.375 6.1875 674.625 6.3125C674.25 6.5625 673.938 6.4375 673.688 5.9375C673.312 5.4375 672.938 4.875 672.562 4.25C672.438 4.125 672.438 4 672.562 3.875C672.562 3.875 672.75 3.875 673.125 3.875C674.25 4 676.125 4.1875 678.75 4.4375C681 4.4375 682.688 4.4375 683.812 4.4375H708.562C710.438 1.8125 711.75 0.4375 712.5 0.3125C713.75 0.5625 715.812 1.875 718.688 4.25C719.438 5.375 719.25 6 718.125 6.125C717.5 6.125 716.625 6.125 715.5 6.125C711.375 5.875 708 5.75 705.375 5.75H703.875V11.5625H705.938C707.312 9.8125 708.438 8.8125 709.312 8.5625C711.062 8.8125 713.125 9.875 715.5 11.75C716.25 12.75 716.188 13.4375 715.312 13.8125C714.688 14.1875 714.375 14.75 714.375 15.5C714.375 16.75 714.438 18.1875 714.562 19.8125C714.562 20.9375 714.625 21.8125 714.75 22.4375C714.875 23.5625 714.5 24.3125 713.625 24.6875C715 25.1875 716.812 26.5 719.062 28.625C719.688 30 719.438 30.6875 718.312 30.6875C717.312 30.6875 715.875 30.6875 714 30.6875C712 30.5625 710.5 30.5 709.5 30.5C709.375 30.75 709.062 31.0625 708.562 31.4375C708.438 31.4375 708.375 31.4375 708.375 31.4375C707.875 31.5625 707.5 31.9375 707.25 32.5625C706.875 33.0625 706.562 33.5625 706.312 34.0625C706.062 34.6875 705.5 35.5625 704.625 36.6875C705.25 36.9375 705.938 37.125 706.688 37.25C708.688 37.75 710.188 38.125 711.188 38.375C714.688 39.875 716.375 41.875 716.25 44.375C715.875 46 714.812 47 713.062 47.375C711.812 47.375 710.375 46.6875 708.75 45.3125C706.375 43.4375 703.625 42 700.5 41C695.75 44.875 687.438 46.9375 675.562 47.1875C674.938 47.0625 674.562 46.875 674.438 46.625C674.438 46.25 674.75 46 675.375 45.875C683.125 43.875 689 41.3125 693 38.1875C692.625 38.1875 692.062 38.125 691.312 38C690.438 37.75 689.812 37.5625 689.438 37.4375L689.25 37.625C688.875 38 688.5 38.5 688.125 39.125C687.5 39.75 686.812 39.8125 686.062 39.3125C685.812 39.3125 685.5 39.125 685.125 38.75C683.25 37.625 682.062 36.75 681.562 36.125C681.062 35.625 681.312 35.0625 682.312 34.4375C682.562 34.3125 683 33.875 683.625 33.125L685.5 30.5H681.188C678.438 30.625 676.062 30.75 674.062 30.875C673.688 31 673.375 30.875 673.125 30.5C672.875 30.375 672.688 30.125 672.562 29.75C672.438 29.5 672.312 29.25 672.188 29C672.062 28.625 672.188 28.4375 672.562 28.4375C673.438 28.6875 674.812 28.875 676.688 29C678.688 29 680.75 29 682.875 29H686.438L690.375 23.375H685.125ZM707.062 23.375H700.312C700.312 24 699.938 24.4375 699.188 24.6875C698.562 24.6875 698 25.0625 697.5 25.8125L695.25 29H709.125C710 27.5 710.875 26.3125 711.75 25.4375C711.375 25.4375 710.875 25.5625 710.25 25.8125C709.875 25.8125 709.562 25.8125 709.312 25.8125C707.688 26.3125 706.938 25.9375 707.062 24.6875V23.375ZM707.25 13.0625H703.875V21.875H707.25V13.0625ZM694.5 13.0625V21.875H697.688V13.0625H694.5ZM685.125 14.1875V21.875H688.312V13.0625H686.25C685.375 13.0625 685 13.4375 685.125 14.1875ZM699.562 30.5H694.312L690.938 35.375C691.438 35.375 692.25 35.4375 693.375 35.5625C694.375 35.5625 695.125 35.5625 695.625 35.5625C697.125 34.0625 698.438 32.375 699.562 30.5ZM694.5 5.75V11.5625H697.688V5.75H694.5ZM741.188 26.1875V17.1875C741.188 16.1875 741.125 15.4375 741 14.9375C741 14.1875 741 13.5625 741 13.0625H725.25C723.625 13.0625 722.625 13.125 722.25 13.25C721.75 13.375 721.438 13.3125 721.312 13.0625C721.062 12.9375 720.875 12.5625 720.75 11.9375C720.5 11.6875 720.438 11.5625 720.562 11.5625C720.562 11.4375 720.75 11.375 721.125 11.375C721.875 11.625 723.438 11.6875 725.812 11.5625H734.625C735.75 9.6875 736.625 8.5625 737.25 8.1875C738 8.4375 739.312 9.25 741.188 10.625C741.312 10.5 741.688 10.4375 742.312 10.4375C743.312 10.6875 744.688 11.125 746.438 11.75C746.812 11.875 747.125 11.9375 747.375 11.9375C747.625 12.0625 747.812 12.1875 747.938 12.3125H752.438C752.438 12.3125 752.438 12.25 752.438 12.125C752.562 12 752.625 11.8125 752.625 11.5625C754 7.5625 754.938 4.25 755.438 1.625C755.312 0.625 755.875 0.3125 757.125 0.6875C757.25 0.8125 757.438 0.9375 757.688 1.0625C760.312 2.1875 762.25 3.0625 763.5 3.6875C764.125 4.5625 763.938 5.1875 762.938 5.5625C762.062 5.6875 761.375 6 760.875 6.5C759 8.75 757 10.6875 754.875 12.3125H756.75C757.75 10.5625 758.625 9.6875 759.375 9.6875C760.5 9.8125 762.25 10.5625 764.625 11.9375C765.5 12.8125 765.562 13.6875 764.812 14.5625C764.312 14.9375 764.125 15.5 764.25 16.25V19.8125C764.125 21.9375 764.188 23.5625 764.438 24.6875C764.438 25.6875 764 26.25 763.125 26.375C761.5 26.875 760.25 27.125 759.375 27.125C759.25 27.375 759.125 27.4375 759 27.3125C760 27.8125 760.062 28.5 759.188 29.375C758.812 29.625 758.625 30.0625 758.625 30.6875V39.3125C758.5 40.4375 759.125 41 760.5 41C761.75 41 762.625 39.25 763.125 35.75C763.25 34.875 763.562 34.4375 764.062 34.4375C764.438 34.4375 764.688 34.875 764.812 35.75C764.562 38.5 765 40.25 766.125 41C767.25 41.375 767.812 42.125 767.812 43.25C767.688 44.375 767.125 45.1875 766.125 45.6875C764.375 46.4375 762.812 46.8125 761.438 46.8125H756.75C753.625 46.8125 752.125 45 752.25 41.375V34.4375C752.25 33.8125 752.188 32.75 752.062 31.25C752.062 30 752.062 29.125 752.062 28.625C751.688 29.25 751.438 29.875 751.312 30.5C751.062 40 746.375 45.5625 737.25 47.1875C736.625 47.3125 736.25 47.25 736.125 47C736 46.75 736.25 46.4375 736.875 46.0625C741.625 42.4375 744.25 38.125 744.75 33.125C744.75 32.5 744.75 31.75 744.75 30.875C744.875 30.25 744.938 29.125 744.938 27.5C744.062 27.75 743.25 27.875 742.5 27.875C741.5 28 741.062 27.4375 741.188 26.1875ZM730.312 29.75H732.188C733.062 28.125 733.812 27.25 734.438 27.125C737.062 28.125 739 29.4375 740.25 31.0625C740.125 31.6875 739.812 32.125 739.312 32.375C738.812 32.5 738.625 33 738.75 33.875C738.625 37.75 738.688 40.3125 738.938 41.5625C739.062 43.1875 738.562 44.125 737.438 44.375C736.938 44.375 736.438 44.4375 735.938 44.5625C735.438 44.6875 735 44.8125 734.625 44.9375C733.25 44.9375 732.625 44.375 732.75 43.25V42.125H729.375V43.625C729.375 44.625 728.812 45.25 727.688 45.5C726.688 45.75 725.688 45.875 724.688 45.875C723.062 46.125 722.438 45.0625 722.812 42.6875C722.938 41.4375 723 38.5 723 33.875C723 32.625 722.938 31.625 722.812 30.875C722.812 30.125 722.812 29.3125 722.812 28.4375C722.562 27.3125 723 26.875 724.125 27.125C725.75 27.5 727.5 28.125 729.375 29C729.875 29.375 730.188 29.625 730.312 29.75ZM757.5 13.8125H747.375V23.1875H757.5V13.8125ZM746.438 9.125C745.812 6.625 744.75 4.5 743.25 2.75C742.875 2.5 742.75 2.3125 742.875 2.1875C743.125 1.9375 743.438 1.8125 743.812 1.8125C748.562 2.3125 751.438 3.75 752.438 6.125C753.312 8.5 752.75 10.25 750.75 11.375C748.5 12.25 747.062 11.5 746.438 9.125ZM727.125 8.75C726.75 5.75 725.938 3.625 724.688 2.375C724.312 1.625 724.5 1.25 725.25 1.25C729.75 1.5 732.438 2.75 733.312 5C734.062 7.625 733.188 9.625 730.688 11C728.812 11.375 727.625 10.625 727.125 8.75ZM738.75 18.6875H726.938C725.312 18.6875 724.312 18.75 723.938 18.875C723.438 19 723.125 19 723 18.875C723 18.875 723 18.8125 723 18.6875C722.625 18.3125 722.375 17.9375 722.25 17.5625C722.125 17.3125 722.062 17.1875 722.062 17.1875C722.188 17.0625 722.375 17 722.625 17C723.5 17.25 725.125 17.3125 727.5 17.1875H733.125C734.375 15.4375 735.125 14.5 735.375 14.375C736.375 14.75 737.688 15.6875 739.312 17.1875C739.812 18.1875 739.625 18.6875 738.75 18.6875ZM732.75 30.875H729.375C729.375 31.25 729.375 31.625 729.375 32V41H732.75V30.875ZM739.125 24.5H727.312C726.562 24.5 725.75 24.5625 724.875 24.6875C724.5 24.6875 724.312 24.6875 724.312 24.6875C723.812 24.9375 723.5 24.875 723.375 24.5C723.125 24.375 722.938 24.1875 722.812 23.9375C722.812 23.8125 722.812 23.6875 722.812 23.5625C722.562 23.4375 722.438 23.3125 722.438 23.1875C722.562 23.0625 722.75 22.9375 723 22.8125C724.625 23.0625 726.25 23.1875 727.875 23.1875H733.688C734.812 21.4375 735.562 20.5 735.938 20.375C736.938 20.625 738.125 21.5625 739.5 23.1875C739.75 23.5625 739.875 23.875 739.875 24.125C739.75 24.375 739.5 24.5 739.125 24.5ZM757.5 25.8125V24.6875H747.375V25.0625C747.375 25.5625 747.312 25.875 747.188 26C748.188 26.25 749.625 26.5 751.5 26.75C751.625 27 751.75 27.0625 751.875 26.9375C752 26.4375 752.5 26.1875 753.375 26.1875C753.375 26.3125 753.562 26.375 753.938 26.375C754.812 26.5 756.125 26.6875 757.875 26.9375C757.625 26.8125 757.5 26.4375 757.5 25.8125ZM770.625 31.8125V20.375C770.625 18.125 770.562 16.4375 770.438 15.3125C770.438 13.9375 770.375 12.625 770.25 11.375C770.125 10 770.562 9.5 771.562 9.875C773.438 10.5 775.438 11.3125 777.562 12.3125H777.938C777.938 10.4375 777.938 8.625 777.938 6.875C777.938 5.125 777.938 3.5 777.938 2C777.688 1.25 778.062 0.9375 779.062 1.0625C781.062 1.1875 783.125 1.5 785.25 2C786 2.125 786.375 2.4375 786.375 2.9375C786.5 3.3125 786.25 3.625 785.625 3.875C785 4.375 784.562 4.9375 784.312 5.5625C783.188 8.0625 781.938 10.3125 780.562 12.3125H784.5C785.625 10.6875 786.5 9.8125 787.125 9.6875C789.625 10.5625 791.688 11.9375 793.312 13.8125C793.312 14.4375 793 14.875 792.375 15.125C791.75 15.5 791.5 15.9375 791.625 16.4375V21.875C794 14.5 795.375 7.8125 795.75 1.8125C795.625 1.1875 795.938 0.875 796.688 0.875C799.438 1.375 802.125 2.0625 804.75 2.9375C805.25 3.3125 805.5 3.6875 805.5 4.0625C805.375 4.4375 805.062 4.75 804.562 5C803.562 5.5 803 6.125 802.875 6.875C802.25 8.875 801.562 10.6875 800.812 12.3125H805.5C807 10.3125 808.062 9.25 808.688 9.125C812.062 10.625 814.375 12.125 815.625 13.625C815.625 14.25 815.25 14.75 814.5 15.125C813.75 15.5 813.438 15.9375 813.562 16.4375C813.438 29.4375 813.188 37.625 812.812 41C812.312 44.5 809.5 46.625 804.375 47.375C802.875 47.625 802 47.3125 801.75 46.4375C801 43.5625 799.312 41.75 796.688 41C795.438 41 795 40.6875 795.375 40.0625C795.25 39.5625 795.75 39.4375 796.875 39.6875C800 40.1875 802.062 40.375 803.062 40.25C804.062 40.125 804.688 39.5 804.938 38.375C805.688 31.375 806.125 23.1875 806.25 13.8125H800.062C798.812 16.3125 797.438 18.625 795.938 20.75C800.562 22.125 803.125 24.625 803.625 28.25C803.625 31.375 802.25 33 799.5 33.125C797.25 33.375 796 32.3125 795.75 29.9375C795.875 27.4375 795.438 24.9375 794.438 22.4375C794.188 22.6875 793.938 22.9375 793.688 23.1875C792.812 24.0625 792.125 24.6875 791.625 25.0625V27.6875C791.625 30.9375 791.812 35.375 792.188 41C792.188 41.875 791.75 42.5 790.875 42.875C789.25 43.25 787.875 43.5 786.75 43.625C785.125 43.875 784.438 43.5 784.688 42.5V39.875H777.375V42.125C777.375 43.625 776.75 44.5 775.5 44.75C774.375 45 773.25 45.1875 772.125 45.3125C770.375 45.5625 769.75 44.8125 770.25 43.0625C770.375 39.8125 770.5 36.0625 770.625 31.8125ZM784.688 13.8125H778.125C777.5 14.1875 777.25 14.75 777.375 15.5V25.625H784.688V13.8125ZM777.375 27.125V38.375H784.688V27.125H777.375ZM835.125 25.625V25.4375H828.375C826.25 25.5625 824.188 25.6875 822.188 25.8125C821.688 25.9375 821.375 25.875 821.25 25.625C821 25.5 820.812 25.25 820.688 24.875C820.438 24.625 820.312 24.375 820.312 24.125C820.188 24 820.125 23.875 820.125 23.75C820.125 23.625 820.312 23.5625 820.688 23.5625C821.938 23.9375 824.938 24.0625 829.688 23.9375H835.312C835.438 22.4375 835.5 20.4375 835.5 17.9375C835.25 17.4375 835.25 17 835.5 16.625H834.188V17.1875C834.188 18.1875 833.688 18.8125 832.688 19.0625C831.438 19.5625 830.25 19.8125 829.125 19.8125C827.25 20.1875 826.5 19.5625 826.875 17.9375C826.875 17.3125 826.875 15.75 826.875 13.25C827 10.625 827.062 8.875 827.062 8C826.938 6.75 826.812 4.9375 826.688 2.5625C826.312 1.1875 826.938 0.6875 828.562 1.0625C830.812 1.6875 832.812 2.375 834.562 3.125C834.562 3.25 834.562 3.375 834.562 3.5C834.688 3.5 834.812 3.5 834.938 3.5H848.25C849.25 2.125 850 1.3125 850.5 1.0625C853.125 1.8125 855.5 3.0625 857.625 4.8125C857.875 5.6875 857.562 6.25 856.688 6.5C856.188 6.75 855.938 7.1875 855.938 7.8125C855.938 8.1875 855.938 8.6875 855.938 9.3125C856.062 13.0625 856.188 15.25 856.312 15.875C856.562 17.375 856.125 18.3125 855 18.6875C854.125 19.0625 852.625 19.375 850.5 19.625C849.125 19.75 848.5 19.0625 848.625 17.5625V16.625H840.75C841.25 16.875 841.75 17 842.25 17C843.375 17.25 844.125 17.4375 844.5 17.5625C845 17.8125 845.25 18.1875 845.25 18.6875C845.25 19.0625 845 19.375 844.5 19.625C843.875 20.125 843.5 20.75 843.375 21.5C843.25 22.5 843.125 23.3125 843 23.9375H850.688C851.938 22.0625 852.938 21.0625 853.688 20.9375C855.562 21.8125 857.688 23.25 860.062 25.25C860.438 26 860.188 26.5625 859.312 26.9375C858.562 27.3125 858.188 27.875 858.188 28.625C857.938 32.125 857.438 36 856.688 40.25C856.188 42.625 854.938 44.3125 852.938 45.3125C852.688 45.3125 852.438 45.375 852.188 45.5C850.562 46 849.125 46.3125 847.875 46.4375C846.25 46.6875 845.375 46.4375 845.25 45.6875C844.625 43.3125 843.25 41.75 841.125 41C839.875 40.75 839.312 40.3125 839.438 39.6875C839.562 39.3125 840.25 39.25 841.5 39.5C846.375 40.375 849 39.6875 849.375 37.4375C850.125 33.4375 850.688 29.4375 851.062 25.4375H842.812C842.312 36.9375 834.5 43.9375 819.375 46.4375C818.75 46.5625 818.375 46.4375 818.25 46.0625C818.25 45.8125 818.562 45.5625 819.188 45.3125C828.938 40.1875 834.25 33.625 835.125 25.625ZM834.188 5.9375V15.3125H848.625V4.8125H834.562C834.312 5.1875 834.188 5.5625 834.188 5.9375ZM897 23.375H873.562C872.188 23.5 870.812 23.5625 869.438 23.5625C868.188 23.6875 867.312 23.8125 866.812 23.9375C866.438 24.0625 866.125 23.9375 865.875 23.5625C865.25 22.8125 864.812 22.0625 864.562 21.3125C864.312 20.9375 864.438 20.8125 864.938 20.9375C865.938 21.1875 867.5 21.375 869.625 21.5C871.875 21.625 873.688 21.6875 875.062 21.6875H899.812C901.938 18.6875 903.438 17.0625 904.312 16.8125C906.438 17.5625 908.688 19.125 911.062 21.5C911.812 22.75 911.688 23.4375 910.688 23.5625C908.938 23.5625 907 23.5625 904.875 23.5625C903.125 23.4375 900.5 23.375 897 23.375ZM955.5 8.375V13.625C955.5 18 955.562 22.75 955.688 27.875C955.812 33 956.062 37.375 956.438 41C956.438 42.125 955.875 42.9375 954.75 43.4375C953.75 43.6875 952.5 43.9375 951 44.1875C949.25 44.3125 948.438 43.6875 948.562 42.3125V39.6875H922.5V41C922.5 42.375 921.625 43.25 919.875 43.625C919.5 43.75 918.812 43.875 917.812 44C917.438 44 917.125 44.0625 916.875 44.1875C915.25 44.4375 914.562 43.5 914.812 41.375C915.312 29.625 915.562 21.1875 915.562 16.0625V11.75C915.438 9.75 915.188 7 914.812 3.5C914.688 2.75 914.75 2.3125 915 2.1875C915.125 1.9375 915.625 1.875 916.5 2C917.75 2.25 919.938 3 923.062 4.25C923.312 4.25 923.5 4.25 923.625 4.25H947.812C948.812 2.5 949.688 1.5625 950.438 1.4375C952.188 1.6875 954.25 2.6875 956.625 4.4375C957.5 5.4375 957.438 6.3125 956.438 7.0625C955.688 7.5625 955.375 8 955.5 8.375ZM948.562 38.375V5.75H923.25C922.625 5.75 922.375 6.125 922.5 6.875V38.375H948.562ZM932.062 29V30.3125C932.062 31.3125 931.5 31.9375 930.375 32.1875C929.75 32.4375 928.75 32.6875 927.375 32.9375C927.125 32.9375 927 32.9375 927 32.9375C925.5 33.0625 924.875 32.4375 925.125 31.0625C925.25 29.4375 925.312 26.25 925.312 21.5V17.9375C925.312 15.5625 925.188 13.8125 924.938 12.6875C924.688 11.4375 925.25 11 926.625 11.375C928 11.75 930.125 12.5625 933 13.8125H937.312C938.312 12.0625 939.188 11.0625 939.938 10.8125C941.812 11.1875 943.75 12.1875 945.75 13.8125C946.5 14.8125 946.5 15.5625 945.75 16.0625C945.375 16.4375 945.188 16.875 945.188 17.375V20.1875C945.188 20.6875 945.188 21.875 945.188 23.75C945.312 26.375 945.375 28.0625 945.375 28.8125C945.375 30.3125 944.875 31.1875 943.875 31.4375C942.75 31.9375 941.625 32.25 940.5 32.375C939 32.625 938.312 32.25 938.438 31.25V29H932.062ZM938.438 15.3125H933.188C932.312 15.3125 931.938 15.5625 932.062 16.0625V27.5H938.438V15.3125ZM967.312 17.1875H971.625C971.75 16.9375 971.812 16.875 971.812 17C973.062 15.25 973.875 14.375 974.25 14.375C974.75 14.375 975.875 15.125 977.625 16.625C980.375 16.875 982.875 17 985.125 17H987.75V15.5C987.625 13.125 987.5 11.125 987.375 9.5C986.625 9.5 985.562 9.5625 984.188 9.6875C981.688 9.6875 979.875 9.625 978.75 9.5C979 9.875 979.25 10.25 979.5 10.625C979.75 11.5 979.625 12 979.125 12.125H965.062C963.438 12.125 962.438 12.1875 962.062 12.3125C961.562 12.4375 961.25 12.4375 961.125 12.3125C961 12.3125 960.938 12.25 960.938 12.125C960.688 11.75 960.5 11.375 960.375 11C960.25 10.75 960.188 10.625 960.188 10.625C960.312 10.5 960.5 10.4375 960.75 10.4375C961.625 10.6875 963.312 10.75 965.812 10.625H972.938C974.188 8.625 975.125 7.5 975.75 7.25C976.125 7.375 976.812 7.875 977.812 8.75C977.938 8.625 978.125 8.5625 978.375 8.5625C986.75 6.5625 993.125 4.125 997.5 1.25C998 0.875 998.5 0.9375 999 1.4375C1000.88 3.0625 1002.56 4.875 1004.06 6.875C1004.31 7.375 1004.31 7.8125 1004.06 8.1875C1003.81 8.5625 1003.5 8.625 1003.12 8.375C1002.88 8.375 1002.62 8.375 1002.38 8.375C1001.62 8.375 1000.94 8.375 1000.31 8.375C998.938 8.625 997.562 8.75 996.188 8.75C996.688 9.375 996.5 9.9375 995.625 10.4375C995.125 10.9375 994.875 11.5625 994.875 12.3125V17H998.062C999.562 14.75 1000.75 13.5 1001.62 13.25C1002.75 13.375 1004.5 14.5625 1006.88 16.8125C1007.25 17.3125 1007.38 17.75 1007.25 18.125C1007 18.625 1006.69 18.8125 1006.31 18.6875C1005.44 18.6875 1004.19 18.6875 1002.56 18.6875C1000.69 18.5625 999.25 18.5 998.25 18.5H994.875V26.375C995.625 25.125 996.438 24.25 997.312 23.75C999.688 24.5 1002 25.875 1004.25 27.875C1004.25 28.375 1003.94 28.875 1003.31 29.375C1002.69 29.75 1002.44 30.25 1002.56 30.875C1002.44 36.125 1002.5 40.125 1002.75 42.875C1003 43.875 1002.62 44.625 1001.62 45.125C1000.62 45.5 999.25 45.8125 997.5 46.0625C995.875 46.1875 995.125 45.5625 995.25 44.1875V41.5625H987V43.4375C987 44.6875 986.5 45.5625 985.5 46.0625C984.625 46.1875 983.25 46.5 981.375 47C979.875 47.125 979.25 46.5 979.5 45.125C979.625 42.25 979.75 39.6875 979.875 37.4375C979.875 35.3125 979.875 33.6875 979.875 32.5625C979.75 30.4375 979.688 28.75 979.688 27.5C979.688 26.625 979.688 26 979.688 25.625C979.438 24.25 980 23.75 981.375 24.125C981.5 24.25 981.75 24.375 982.125 24.5C984.75 25.25 986.625 25.8125 987.75 26.1875V18.5H984.375C983 18.625 981.188 18.75 978.938 18.875C978.188 19.125 977.75 19 977.625 18.5H966.562C965.812 18.5 965 18.5625 964.125 18.6875C963.75 18.6875 963.562 18.6875 963.562 18.6875C962.938 18.9375 962.562 18.875 962.438 18.5C962.312 18.375 962.188 18.25 962.062 18.125C961.938 18 961.875 17.8125 961.875 17.5625C961.75 17.3125 961.688 17.125 961.688 17C961.688 16.875 961.875 16.8125 962.25 16.8125C963.875 17.0625 965.562 17.1875 967.312 17.1875ZM969.188 30.3125H970.875C971.75 28.6875 972.562 27.8125 973.312 27.6875C975.812 28.5625 977.688 29.875 978.938 31.625C978.938 32.25 978.688 32.6875 978.188 32.9375C977.688 33.1875 977.5 33.6875 977.625 34.4375C977.625 35.3125 977.625 36.625 977.625 38.375C977.75 40 977.812 41.0625 977.812 41.5625C977.938 43.1875 977.438 44.125 976.312 44.375C975.812 44.375 975.312 44.4375 974.812 44.5625C974.312 44.6875 973.875 44.8125 973.5 44.9375C972.125 44.9375 971.5 44.375 971.625 43.25V41.75H968.438V43.4375C968.562 44.5625 968.062 45.25 966.938 45.5C966.812 45.5 966.625 45.5 966.375 45.5C965.625 45.625 964.812 45.75 963.938 45.875C962.188 46.125 961.5 45.0625 961.875 42.6875C962 40.0625 962.125 37.375 962.25 34.625C962.25 33.375 962.188 32.4375 962.062 31.8125C962.062 31.0625 962 30.25 961.875 29.375C961.75 28.75 961.812 28.3125 962.062 28.0625C962.188 27.9375 962.625 27.9375 963.375 28.0625C965 28.4375 966.688 29.0625 968.438 29.9375C968.438 30.0625 968.5 30.125 968.625 30.125C968.875 30.25 969.062 30.3125 969.188 30.3125ZM995.25 28.0625H988.5C987.375 28.0625 986.875 28.5 987 29.375V40.4375H995.25V28.0625ZM966.562 8.1875C966.438 6.3125 965.688 4.5 964.312 2.75C963.938 2.5 963.812 2.3125 963.938 2.1875C964.062 2.0625 964.375 1.9375 964.875 1.8125C969.375 1.9375 972.125 3.0625 973.125 5.1875C973.625 7.6875 972.688 9.4375 970.312 10.4375C968.188 10.8125 966.938 10.0625 966.562 8.1875ZM977.812 25.25H967.125C965.5 25.25 964.5 25.3125 964.125 25.4375C963.5 25.6875 963.125 25.625 963 25.25C962.875 25.125 962.688 24.75 962.438 24.125C962.312 23.875 962.25 23.6875 962.25 23.5625C962.25 23.5625 962.438 23.5625 962.812 23.5625C963.688 23.8125 965.375 23.875 967.875 23.75H972.188C973.188 22.125 973.938 21.25 974.438 21.125C975.688 21.5 976.938 22.375 978.188 23.75C978.812 24.625 978.688 25.125 977.812 25.25ZM971.625 31.625H968.812C968.562 31.875 968.438 32.3125 968.438 32.9375V41H971.625V31.625ZM1018.88 28.0625V24.125H1016.81C1014.94 24.125 1013.56 24.1875 1012.69 24.3125C1011.69 24.3125 1010.75 24.375 1009.88 24.5C1009.38 24.625 1009.19 24.5625 1009.31 24.3125C1009.06 24.1875 1008.88 23.9375 1008.75 23.5625C1008.62 23.3125 1008.5 23.0625 1008.38 22.8125C1008.25 22.4375 1008.38 22.25 1008.75 22.25C1010.25 22.625 1013.5 22.75 1018.5 22.625H1026.19C1026.81 21.625 1027.44 20.8125 1028.06 20.1875C1027.56 20.4375 1026.81 20.625 1025.81 20.75C1025.19 20.75 1024.81 20.75 1024.69 20.75C1023.31 20.75 1022.69 20.375 1022.81 19.625V18.5H1017.56V18.6875C1017.69 19.9375 1017.19 20.625 1016.06 20.75C1015.56 21 1014.62 21.25 1013.25 21.5C1012.88 21.5 1012.69 21.5 1012.69 21.5C1011.31 21.875 1010.75 21.25 1011 19.625C1011 18.125 1011 15.4375 1011 11.5625C1011.12 9.6875 1011.19 8.5 1011.19 8C1011.06 7.375 1011 6.4375 1011 5.1875C1011 4.1875 1011 3.4375 1011 2.9375C1010.88 1.9375 1011.31 1.5 1012.31 1.625C1014.06 2 1015.81 2.5 1017.56 3.125C1017.69 3.125 1017.88 3.1875 1018.12 3.3125H1022.44C1023.31 1.8125 1024.06 1 1024.69 0.875C1026.69 1.375 1028.69 2.5 1030.69 4.25C1031.06 4.875 1030.94 5.4375 1030.31 5.9375C1029.69 6.1875 1029.44 6.75 1029.56 7.625C1029.44 8.625 1029.38 10.0625 1029.38 11.9375C1029.38 13.9375 1029.5 15.8125 1029.75 17.5625C1029.75 18.6875 1029.62 19.375 1029.38 19.625C1030.5 20.5 1031.5 21.3125 1032.38 22.0625C1032.5 20.9375 1032.56 19.75 1032.56 18.5V15.3125C1032.56 14.5625 1032.5 13.5 1032.38 12.125C1032.38 11.25 1032.38 10.625 1032.38 10.25C1032.12 9.25 1032.5 8.8125 1033.5 8.9375C1035 9.1875 1036.5 9.625 1038 10.25C1038.38 10.375 1038.62 10.5 1038.75 10.625H1039.5C1039.62 8.375 1039.56 6.3125 1039.31 4.4375H1033.88C1033.38 4.4375 1032.69 4.5 1031.81 4.625C1031.44 4.875 1031.19 4.8125 1031.06 4.4375C1030.81 4.1875 1030.56 3.75 1030.31 3.125C1030.19 3 1030.31 2.875 1030.69 2.75C1031.31 3 1032.69 3.0625 1034.81 2.9375H1047.38C1048.62 1.3125 1049.5 0.4375 1050 0.3125C1050.62 0.5625 1051.88 1.5 1053.75 3.125C1054 3.5 1054.12 3.8125 1054.12 4.0625C1054.12 4.3125 1053.94 4.4375 1053.56 4.4375H1046.62C1045.88 4.9375 1045.44 5.375 1045.31 5.75C1045.06 6.125 1044.88 6.375 1044.75 6.5C1043.25 8.625 1042.12 10 1041.38 10.625H1045.12C1046.12 9.125 1046.88 8.375 1047.38 8.375C1049.25 8.875 1051.19 10.0625 1053.19 11.9375C1053.56 12.5625 1053.31 13.125 1052.44 13.625C1051.94 14 1051.75 14.5 1051.88 15.125V19.0625C1051.88 20.3125 1051.88 22.125 1051.88 24.5C1052 26 1052.06 27 1052.06 27.5C1052.31 29.125 1051.81 30 1050.56 30.125C1049.94 30.375 1049.25 30.5625 1048.5 30.6875C1048.12 30.6875 1047.88 30.6875 1047.75 30.6875C1046.88 30.8125 1046.38 30.6875 1046.25 30.3125H1044.38C1048.25 31.3125 1050.56 32.5 1051.31 33.875C1052.19 35.5 1052.06 36.8125 1050.94 37.8125C1050.81 37.9375 1050.69 38.0625 1050.56 38.1875C1050.31 38.1875 1050.19 38.1875 1050.19 38.1875C1050.56 38.1875 1051.12 38.125 1051.88 38C1052.62 37.875 1053.25 37.75 1053.75 37.625C1054.62 37.5 1055.12 37.5625 1055.25 37.8125C1055.38 37.9375 1055.12 38.5 1054.5 39.5C1053.38 40.5 1052.75 41.75 1052.62 43.25C1052.5 44 1051.88 44.375 1050.75 44.375C1041.75 45.25 1033.69 45.1875 1026.56 44.1875C1021.69 43.3125 1018.06 40.4375 1015.69 35.5625C1014.56 38.6875 1012.62 41.6875 1009.88 44.5625C1009.5 44.9375 1009.19 45.0625 1008.94 44.9375C1008.69 44.6875 1008.69 44.3125 1008.94 43.8125C1010.81 39.3125 1011.69 33.75 1011.56 27.125C1011.44 26.5 1011.69 26.1875 1012.31 26.1875C1014.69 26.6875 1016.25 27.0625 1017 27.3125C1017.38 27.4375 1017.75 27.5 1018.12 27.5C1018.38 27.75 1018.62 27.9375 1018.88 28.0625ZM1041.75 30.3125H1039.12C1040.25 30.9375 1041.31 31.5 1042.31 32C1042.56 32.375 1042.69 32.75 1042.69 33.125C1042.56 33.375 1042.31 33.5 1041.94 33.5C1041.31 33.5 1040.69 33.8125 1040.06 34.4375C1037.56 36.3125 1034.31 37.8125 1030.31 38.9375C1035.19 39.4375 1041.31 39.25 1048.69 38.375C1047.81 38.25 1047.12 37.5625 1046.62 36.3125C1045.75 34.5625 1044.31 32.75 1042.31 30.875C1042.06 30.75 1041.88 30.5625 1041.75 30.3125ZM1025.06 31.0625V38.375C1025.19 38.375 1025.44 38.4375 1025.81 38.5625C1026.19 38.6875 1026.5 38.6875 1026.75 38.5625C1027 38.6875 1027.44 38.75 1028.06 38.75C1028.56 38.875 1029 38.9375 1029.38 38.9375C1029.25 38.8125 1029.38 38.5625 1029.75 38.1875C1032.5 36.3125 1034.62 33.9375 1036.12 31.0625C1035.75 31.1875 1035.38 31.3125 1035 31.4375C1034.62 31.5625 1034.31 31.625 1034.06 31.625C1032.94 32.125 1032.38 31.9375 1032.38 31.0625H1025.06ZM1038 29H1045.88V24.3125H1038V29ZM1038 18.125V22.8125H1045.88V18.125H1038ZM1045.88 12.125H1038.19C1037.94 12.375 1037.88 12.75 1038 13.25V16.8125H1045.88V12.125ZM1025.06 24.125V29.75H1026.38C1027.38 28 1028.25 27 1029 26.75C1029.75 27.125 1030.81 28 1032.19 29.375C1032.19 28.875 1032.19 28.25 1032.19 27.5C1032.31 26.75 1032.38 25.6875 1032.38 24.3125C1031.5 24.3125 1030.5 24.3125 1029.38 24.3125C1028.38 24.1875 1026.94 24.125 1025.06 24.125ZM1017.56 11.5625V17.1875H1022.81V11.5625H1017.56ZM1022.81 4.625H1017.94C1017.69 5 1017.56 5.5 1017.56 6.125V10.25H1022.81V4.625ZM1018.88 35.75V28.625C1018.75 28.75 1018.69 28.875 1018.69 29C1018.56 29 1018.38 29.125 1018.12 29.375C1017.62 29.75 1017.31 30.3125 1017.19 31.0625C1017.06 31.4375 1016.94 31.875 1016.81 32.375C1016.56 33 1016.44 33.4375 1016.44 33.6875C1017.06 34.5625 1017.88 35.25 1018.88 35.75ZM1066.5 47.9375L1064.62 46.4375C1064.75 46.1875 1064.88 45.9375 1065 45.6875C1067.5 42.9375 1068.88 40.75 1069.12 39.125C1068.88 39.125 1068.69 39.125 1068.56 39.125C1068.44 39.25 1068.31 39.3125 1068.19 39.3125C1065.69 39.1875 1064.38 37.8125 1064.25 35.1875C1064.38 32.8125 1065.69 31.5 1068.19 31.25C1070.69 31.5 1072.06 33.25 1072.31 36.5C1072.31 39.5 1070.38 43.3125 1066.5 47.9375ZM1138.69 19.625V23.1875C1138.69 22.8125 1139.06 22.8125 1139.81 23.1875C1144.69 25.0625 1148.19 28.0625 1150.31 32.1875C1151.06 35.6875 1150.12 38 1147.5 39.125C1144.88 39.625 1143.31 38.125 1142.81 34.625C1142.31 31.125 1141.06 27.625 1139.06 24.125C1138.81 24 1138.69 23.8125 1138.69 23.5625V25.8125C1138.56 32.6875 1138.62 37.625 1138.88 40.625C1139.12 42.875 1138.44 44.5 1136.81 45.5C1134.94 46.5 1133.06 47.125 1131.19 47.375C1129.56 47.625 1128.69 47.25 1128.56 46.25C1128.19 44.125 1127.12 42.8125 1125.38 42.3125C1124.38 41.9375 1123.94 41.5625 1124.06 41.1875C1123.94 41.0625 1124.56 41 1125.94 41C1129.94 41.625 1131.75 40.375 1131.38 37.25V24.875C1131.38 25.125 1131.19 25.25 1130.81 25.25C1130.19 25.5 1129.88 25.875 1129.88 26.375C1127.88 32.625 1124.44 37.3125 1119.56 40.4375C1118.94 40.8125 1118.56 40.9375 1118.44 40.8125C1118.31 40.6875 1118.44 40.3125 1118.81 39.6875C1120.56 35.6875 1121.81 32.0625 1122.56 28.8125C1122.56 28.6875 1122.56 28.375 1122.56 27.875C1122.94 26.5 1123.19 25 1123.31 23.375C1123.44 22.375 1123.94 21.9375 1124.81 22.0625C1126.69 22.3125 1128.69 22.8125 1130.81 23.5625C1131.19 23.9375 1131.38 24.125 1131.38 24.125V23.5625C1131.25 22.0625 1131.19 20.625 1131.19 19.25C1131.06 17.875 1130.94 16.875 1130.81 16.25C1130.44 14.875 1130.94 14.3125 1132.31 14.5625C1134.06 14.8125 1136.31 15.1875 1139.06 15.6875C1140.31 16.4375 1140.5 17.1875 1139.62 17.9375C1138.88 18.3125 1138.56 18.875 1138.69 19.625ZM1117.5 18.125V35.75C1117.38 39.25 1117.44 41.75 1117.69 43.25C1117.94 44.875 1117.38 45.9375 1116 46.4375C1114.75 46.8125 1113.44 47.125 1112.06 47.375C1109.94 48 1109.19 46.875 1109.81 44C1109.81 43.375 1109.81 42.4375 1109.81 41.1875C1110.19 35.6875 1110.38 31.5625 1110.38 28.8125V22.625C1108.62 24.75 1106.88 26.4375 1105.12 27.6875C1104.75 28.0625 1104.5 28.125 1104.38 27.875C1104.25 27.625 1104.31 27.25 1104.56 26.75C1107.56 20.75 1109.94 14.5625 1111.69 8.1875C1112.31 6.4375 1112.75 4.1875 1113 1.4375C1112.88 0.6875 1113.38 0.3125 1114.5 0.3125C1116 0.6875 1118.5 1.4375 1122 2.5625C1122.75 3.3125 1122.75 4.0625 1122 4.8125C1121.12 5.1875 1120.62 5.5625 1120.5 5.9375C1118.88 9.1875 1117.44 12 1116.19 14.375C1116.31 14.375 1116.56 14.4375 1116.94 14.5625C1117.31 14.5625 1117.56 14.5625 1117.69 14.5625C1118.56 15.1875 1118.69 15.8125 1118.06 16.4375C1117.56 16.8125 1117.38 17.375 1117.5 18.125ZM1140.94 17.375L1142.25 12.875H1129.88C1127.12 17.25 1123.62 20.8125 1119.38 23.5625C1119 23.8125 1118.75 23.8125 1118.62 23.5625C1118.5 23.4375 1118.56 23.125 1118.81 22.625C1122.06 17.625 1124.38 12.4375 1125.75 7.0625C1126 6.0625 1126.19 5.125 1126.31 4.25C1126.56 3.25 1126.69 2.3125 1126.69 1.4375C1126.69 0.5625 1127.19 0.25 1128.19 0.5C1129.31 0.625 1131.25 1.125 1134 2C1134.25 2.125 1134.56 2.1875 1134.94 2.1875C1135.31 2.4375 1135.56 2.8125 1135.69 3.3125C1135.56 3.8125 1135.31 4.0625 1134.94 4.0625C1134.06 4.4375 1133.56 4.9375 1133.44 5.5625C1132.56 7.6875 1131.69 9.625 1130.81 11.375H1141.31C1142.19 9.375 1143.12 8.1875 1144.12 7.8125C1146 8.1875 1148.19 9.625 1150.69 12.125C1151.31 12.75 1151.56 13.4375 1151.44 14.1875C1151.31 14.9375 1150.69 15.3125 1149.56 15.3125C1146.56 15.0625 1144.06 16 1142.06 18.125C1141.56 18.5 1141.19 18.625 1140.94 18.5C1140.81 18.375 1140.81 18 1140.94 17.375ZM1183.12 15.5H1163.81C1163.44 15.625 1163.06 15.75 1162.69 15.875C1162.19 16.125 1161.81 16.25 1161.56 16.25C1163.06 16.75 1164.5 17.25 1165.88 17.75H1183.69C1184.69 16.125 1185.5 15.3125 1186.12 15.3125C1189.38 16.4375 1191.69 17.75 1193.06 19.25C1193.06 19.875 1192.75 20.3125 1192.12 20.5625C1191.62 20.9375 1191.44 21.4375 1191.56 22.0625C1191.44 23.6875 1191.5 25.125 1191.75 26.375C1191.75 27 1191.81 27.5 1191.94 27.875C1191.94 29.125 1191.56 29.875 1190.81 30.125C1190.06 30.625 1188.94 31 1187.44 31.25C1189.31 32 1190.69 32.8125 1191.56 33.6875C1191.44 34.4375 1191.12 34.9375 1190.62 35.1875C1190.12 35.4375 1189.94 35.8125 1190.06 36.3125C1189.94 39.8125 1190 42.25 1190.25 43.625C1190.38 45.25 1189.88 46.125 1188.75 46.25C1187 46.625 1185.38 46.875 1183.88 47C1182.62 47.125 1182.06 46.625 1182.19 45.5V44.1875H1167.75V44.9375C1167.75 45.8125 1167.44 46.3125 1166.81 46.4375C1165.44 46.8125 1163.88 47.0625 1162.12 47.1875C1160.38 47.4375 1159.75 46.75 1160.25 45.125C1160.25 44.75 1160.25 43.8125 1160.25 42.3125C1160.38 40.3125 1160.44 38.875 1160.44 38C1160.44 37.25 1160.38 35.9375 1160.25 34.0625C1160.25 33.0625 1160.25 32.375 1160.25 32C1160 31.75 1159.94 31.5 1160.06 31.25C1159.81 31.25 1159.69 31.25 1159.69 31.25C1158.19 31.5 1157.56 30.8125 1157.81 29.1875C1157.81 28.9375 1157.81 28.5625 1157.81 28.0625C1158.06 25.5625 1158.19 23.5625 1158.19 22.0625C1158.19 20.4375 1158.12 19.4375 1158 19.0625C1158 18.4375 1158 17.9375 1158 17.5625C1157.38 17.8125 1156.62 18 1155.75 18.125C1154.88 18.375 1154.19 18.5625 1153.69 18.6875C1153.06 18.8125 1152.62 18.75 1152.38 18.5C1152.38 18.25 1152.62 17.9375 1153.12 17.5625C1161.75 12.8125 1167.06 7.625 1169.06 2C1169.19 1 1169.88 0.5625 1171.12 0.6875C1173.25 1.0625 1175.81 1.75 1178.81 2.75C1179.44 3.125 1179.75 3.625 1179.75 4.25C1179.75 4.75 1179.44 5.0625 1178.81 5.1875C1178.69 5.1875 1178.56 5.25 1178.44 5.375C1178.31 5.5 1178.19 5.5 1178.06 5.375C1184.56 9.625 1191.38 11.1875 1198.5 10.0625C1199.12 10.1875 1199.5 10.4375 1199.62 10.8125C1199.75 11.3125 1199.5 11.6875 1198.88 11.9375C1197.25 13.0625 1196.06 14.75 1195.31 17C1195.19 18 1194.38 18.1875 1192.88 17.5625C1186.12 15.5625 1180.81 11.8125 1176.94 6.3125C1176.69 6.4375 1176.44 6.625 1176.19 6.875C1176.19 7 1176.19 7.0625 1176.19 7.0625C1174.06 9.6875 1171 12 1167 14H1176.19C1177.31 12 1178.38 10.875 1179.38 10.625C1180.12 10.75 1181.44 11.75 1183.31 13.625C1183.69 14.125 1183.88 14.5625 1183.88 14.9375C1183.88 15.3125 1183.62 15.5 1183.12 15.5ZM1168.69 32.375H1181.44C1182.19 30.875 1182.94 30.0625 1183.69 29.9375C1183.94 29.9375 1184.19 29.9375 1184.44 29.9375V29H1165.12C1164.88 29.75 1164.44 30.1875 1163.81 30.3125C1163.44 30.5625 1163.06 30.6875 1162.69 30.6875C1164.56 31.3125 1166.38 31.75 1168.12 32C1168.12 32.125 1168.19 32.1875 1168.31 32.1875C1168.44 32.3125 1168.56 32.375 1168.69 32.375ZM1167.75 39.125V42.6875H1182.19V39.125H1167.75ZM1182.19 33.875H1168.12C1167.88 34.125 1167.75 34.5 1167.75 35V37.8125H1182.19V33.875ZM1184.44 20.9375V19.25H1178.25V27.6875H1178.44C1178.31 27.5625 1178.38 27.3125 1178.62 26.9375C1178.88 25.8125 1179.06 24.75 1179.19 23.75C1179.31 22.75 1179.38 21.75 1179.38 20.75C1179.25 20.125 1179.62 19.875 1180.5 20C1181.75 20.25 1183.06 20.5625 1184.44 20.9375ZM1165.12 20.5625V27.6875H1171.5V25.0625C1171.25 26.0625 1170.56 26.6875 1169.44 26.9375C1167.31 27.5625 1166.25 26.75 1166.25 24.5C1166.25 23.375 1165.88 22.0625 1165.12 20.5625ZM1179.75 27.6875H1184.44V23C1183.94 23.25 1183.62 23.5 1183.5 23.75C1182.75 24.875 1181.5 26.1875 1179.75 27.6875ZM1171.5 23.75V19.25H1166.25C1165.62 19.25 1165.25 19.4375 1165.12 19.8125C1165.25 19.8125 1165.38 19.8125 1165.5 19.8125C1168.38 20.3125 1170.31 21.375 1171.31 23C1171.31 23.25 1171.31 23.4375 1171.31 23.5625C1171.31 23.6875 1171.38 23.75 1171.5 23.75ZM1227.56 5.5625V7.25H1236.38C1237.88 4.5 1239.12 3 1240.12 2.75C1241.5 3.125 1243.5 4.5625 1246.12 7.0625C1246.88 8.1875 1246.69 8.8125 1245.56 8.9375C1240.94 8.8125 1236.31 8.6875 1231.69 8.5625H1227.56V14.1875H1229.06C1230.06 12.3125 1231 11.1875 1231.88 10.8125C1233.75 11.1875 1236.06 12.3125 1238.81 14.1875C1239.69 15.0625 1239.75 15.875 1239 16.625C1238.12 17.25 1237.75 17.875 1237.88 18.5V40.8125C1239.12 38.9375 1240.06 37.9375 1240.69 37.8125C1241.94 37.8125 1244.06 39.125 1247.06 41.75C1247.69 42.875 1247.44 43.5625 1246.31 43.8125C1240.31 43.5625 1235.69 43.4375 1232.44 43.4375H1209.19C1206.44 43.4375 1204.12 43.625 1202.25 44C1201.75 44 1201.44 43.875 1201.31 43.625C1200.94 43 1200.56 42.4375 1200.19 41.9375C1200.06 41.6875 1200 41.5 1200 41.375C1200.12 41.25 1200.31 41.25 1200.56 41.375C1201.19 41.5 1202.44 41.625 1204.31 41.75C1206.44 41.75 1208.56 41.8125 1210.69 41.9375V21.6875C1210.56 18.1875 1210.44 15.4375 1210.31 13.4375C1209.94 12.0625 1210.44 11.5 1211.81 11.75C1214.19 12.25 1216.25 12.75 1218 13.25C1218.5 13.5 1218.81 13.8125 1218.94 14.1875H1220.06V9.5V8.5625H1210.69C1207.31 8.6875 1205.12 8.875 1204.12 9.125C1203.38 9.25 1202.94 9.0625 1202.81 8.5625C1202.06 8.0625 1201.69 7.625 1201.69 7.25C1201.44 7.125 1201.31 7 1201.31 6.875C1201.44 6.75 1201.62 6.6875 1201.88 6.6875C1206.75 7.0625 1210.25 7.25 1212.38 7.25H1220.06C1219.69 4.375 1219.5 2.5625 1219.5 1.8125C1219.12 0.8125 1219.75 0.375 1221.38 0.5C1223.62 0.75 1225.94 1.1875 1228.31 1.8125C1229.31 2.4375 1229.38 3.1875 1228.5 4.0625C1227.75 4.5625 1227.44 5.0625 1227.56 5.5625ZM1217.81 35.75V41.9375H1230.38V35.75H1217.81ZM1217.81 29V34.4375H1230.38V29H1217.81ZM1217.81 22.25V27.5H1230.38V22.25H1217.81ZM1217.81 17.1875V20.9375H1230.38V15.6875H1218.38C1218 15.9375 1217.81 16.4375 1217.81 17.1875ZM1254.94 37.4375V29.75C1254.69 29.875 1254.44 30 1254.19 30.125C1253.94 30.25 1253.75 30.3125 1253.62 30.3125C1253 30.6875 1252.62 31.0625 1252.5 31.4375C1252.25 32.0625 1251.88 32.375 1251.38 32.375C1251 32.25 1250.69 31.875 1250.44 31.25C1249.44 29.375 1248.75 27.4375 1248.38 25.4375C1248.12 24.6875 1248.44 24.1875 1249.31 23.9375C1250.94 23.8125 1252.81 23.4375 1254.94 22.8125V14.1875H1252.88C1251.75 14.3125 1250.75 14.4375 1249.88 14.5625C1249.5 14.8125 1249.19 14.75 1248.94 14.375C1248.81 14.25 1248.69 14.0625 1248.56 13.8125C1248.44 13.5625 1248.38 13.3125 1248.38 13.0625C1248.25 12.8125 1248.19 12.6875 1248.19 12.6875C1248.19 12.5625 1248.31 12.5 1248.56 12.5C1250.19 12.75 1251.88 12.875 1253.62 12.875H1254.94V11.1875C1254.81 10.1875 1254.75 8.8125 1254.75 7.0625C1254.62 5.1875 1254.5 3.6875 1254.38 2.5625C1253.88 1.3125 1254.31 0.6875 1255.69 0.6875C1257.94 0.9375 1260.25 1.3125 1262.62 1.8125C1264 2.5625 1264.12 3.375 1263 4.25C1262.12 4.625 1261.75 5.125 1261.88 5.75V12.875H1262.25C1263.25 10.625 1264.25 9.3125 1265.25 8.9375C1266.88 9.6875 1268.5 11 1270.12 12.875C1270.38 13.75 1270.19 14.1875 1269.56 14.1875H1261.88V21.3125C1262.12 21.3125 1262.44 21.25 1262.81 21.125C1263.19 21 1263.56 20.875 1263.94 20.75L1263.75 20.5625C1263.62 20.3125 1263.56 20.1875 1263.56 20.1875C1263.56 20.0625 1263.75 20 1264.12 20C1264.38 20.25 1264.94 20.3125 1265.81 20.1875C1265.94 20.1875 1266.19 20.1875 1266.56 20.1875C1267.06 20.0625 1267.44 19.9375 1267.69 19.8125C1268.19 19.6875 1268.5 19.6875 1268.62 19.8125C1268.88 19.9375 1268.94 20.125 1268.81 20.375C1269.31 20.625 1269.81 20.6875 1270.31 20.5625H1273.12C1272.62 20.1875 1272.38 19.625 1272.38 18.875C1272.25 16.5 1271.5 14.1875 1270.12 11.9375C1269.88 11.6875 1269.81 11.5 1269.94 11.375C1270.06 11.25 1270.38 11.1875 1270.88 11.1875C1274.25 11.9375 1276.56 13.125 1277.81 14.75C1279.06 16.875 1278.81 18.6875 1277.06 20.1875C1277.06 20.3125 1277 20.4375 1276.88 20.5625C1276.75 20.5625 1276.69 20.5625 1276.69 20.5625H1280.62C1281.62 17.3125 1282.25 13.9375 1282.5 10.4375C1282.38 9.9375 1282.62 9.75 1283.25 9.875C1286 10.375 1288.44 11 1290.56 11.75C1290.94 12 1291.12 12.3125 1291.12 12.6875C1291.12 13.1875 1290.94 13.4375 1290.56 13.4375C1289.81 13.5625 1289.31 13.875 1289.06 14.375C1287.06 16.875 1285.12 18.9375 1283.25 20.5625H1286.81C1288.19 18.0625 1289.25 16.6875 1290 16.4375C1291.75 17.0625 1293.56 18.4375 1295.44 20.5625C1295.69 21.4375 1295.5 21.9375 1294.88 22.0625C1293.88 22.0625 1292.5 22.0625 1290.75 22.0625C1289.25 21.9375 1287.06 21.875 1284.19 21.875H1278.38C1278.75 22.125 1279.12 22.3125 1279.5 22.4375C1280.62 22.8125 1281.38 23.125 1281.75 23.375C1282.25 23.75 1282.5 24.25 1282.5 24.875C1282.38 25.375 1282 25.5625 1281.38 25.4375C1280.5 25.6875 1279.81 26.25 1279.31 27.125C1278.94 27.625 1278.69 28.125 1278.56 28.625H1286.44C1287.69 26.375 1288.81 25 1289.81 24.5C1291.31 25 1293.19 26.4375 1295.44 28.8125C1295.69 29.5625 1295.56 30 1295.06 30.125H1290.19C1290.31 30.875 1290.12 31.375 1289.62 31.625C1289.38 31.75 1289 32.1875 1288.5 32.9375C1288.5 33.0625 1288.5 33.125 1288.5 33.125C1287.5 34.875 1286.56 36.4375 1285.69 37.8125C1288.06 38.4375 1289.88 39.0625 1291.12 39.6875C1293.88 41.5625 1294.44 43.75 1292.81 46.25C1291.81 47.125 1290.81 47.5625 1289.81 47.5625C1288.56 47.6875 1287.25 47 1285.88 45.5C1284.75 44.25 1283.25 43 1281.38 41.75C1277.75 44.125 1271.75 46.0625 1263.38 47.5625C1262.75 47.4375 1262.44 47.3125 1262.44 47.1875C1262.44 47.0625 1262.69 46.875 1263.19 46.625C1268.56 44 1272.81 41.3125 1275.94 38.5625C1275.56 38.5625 1275.12 38.4375 1274.62 38.1875C1273.88 37.8125 1273.31 37.5 1272.94 37.25C1272.94 37.375 1272.94 37.4375 1272.94 37.4375C1272.44 38.0625 1271.75 38.25 1270.88 38C1270.62 38 1270.31 37.875 1269.94 37.625C1269.19 37.375 1268.12 36.875 1266.75 36.125C1266 35.625 1265.94 34.9375 1266.56 34.0625C1266.69 33.8125 1266.94 33.4375 1267.31 32.9375C1267.56 32.5625 1268.19 31.625 1269.19 30.125H1268.25C1266.62 30.25 1265.31 30.375 1264.31 30.5C1263.81 30.625 1263.5 30.5625 1263.38 30.3125C1263.12 30.1875 1262.81 29.75 1262.44 29C1262.44 28.875 1262.44 28.75 1262.44 28.625C1262.19 28.375 1262.31 28.25 1262.81 28.25C1263.31 28.375 1264.19 28.5 1265.44 28.625C1266.94 28.625 1268.12 28.625 1269 28.625H1270.12C1270.38 27.875 1270.75 27.125 1271.25 26.375C1272.12 24.5 1272.81 23 1273.31 21.875H1269.19C1268.81 21.875 1268.38 21.9375 1267.88 22.0625C1267.38 22.1875 1267 22.1875 1266.75 22.0625C1265.12 23.1875 1263.5 24.3125 1261.88 25.4375C1261.88 29.0625 1262 34.25 1262.25 41C1262.38 43.625 1261.69 45.3125 1260.19 46.0625C1259.19 46.5625 1257.88 47 1256.25 47.375C1254.62 47.5 1253.75 47.0625 1253.62 46.0625C1253.25 43.9375 1252 42.5625 1249.88 41.9375C1248.62 41.6875 1248.12 41.375 1248.38 41C1248.12 40.625 1248.81 40.5625 1250.44 40.8125C1254.06 41.4375 1255.56 40.3125 1254.94 37.4375ZM1282.5 9.6875H1272.19C1270.81 9.8125 1269.62 9.9375 1268.62 10.0625C1268.25 10.1875 1267.94 10.0625 1267.69 9.6875C1267.19 9.3125 1266.88 8.8125 1266.75 8.1875C1266.38 7.8125 1266.44 7.6875 1266.94 7.8125C1267.56 7.9375 1268.5 8.0625 1269.75 8.1875C1271.25 8.1875 1272.38 8.1875 1273.12 8.1875H1277.81C1276.94 8.1875 1276.38 7.5 1276.12 6.125C1276 4.125 1275.56 2.6875 1274.81 1.8125C1274.44 1.4375 1274.31 1.125 1274.44 0.875C1274.56 0.625 1274.88 0.5 1275.38 0.5C1279.62 0.75 1282.19 2.0625 1283.06 4.4375C1282.94 6.8125 1282 8.0625 1280.25 8.1875H1285.31C1287.19 5.6875 1288.31 4.4375 1288.69 4.4375C1290.56 5.0625 1292.31 6.3125 1293.94 8.1875C1294.31 8.6875 1294.44 9.125 1294.31 9.5C1294.19 9.75 1293.88 9.875 1293.38 9.875C1292.38 9.875 1291 9.875 1289.25 9.875C1287.62 9.75 1285.38 9.6875 1282.5 9.6875ZM1281.56 30.125H1277.62C1276.5 32 1275.19 34.0625 1273.69 36.3125C1274.81 36.3125 1275.62 36.375 1276.12 36.5C1276.75 36.5 1277.38 36.5 1278 36.5C1279.5 34.5 1280.69 32.375 1281.56 30.125ZM1306.12 35.375V27.875C1305.75 28.125 1305.19 28.4375 1304.44 28.8125C1304.06 29.0625 1303.75 29.25 1303.5 29.375C1302.75 29.75 1302.25 30.1875 1302 30.6875C1301.62 31.3125 1301.25 31.625 1300.88 31.625C1300.38 31.625 1300 31.25 1299.75 30.5C1299 29.375 1298.25 27.5625 1297.5 25.0625C1297 24.1875 1297.31 23.6875 1298.44 23.5625C1299.19 23.4375 1300.38 23.25 1302 23C1303.38 22.75 1304.75 22.4375 1306.12 22.0625V13.25H1302.38C1301 13.25 1300.06 13.3125 1299.56 13.4375C1299.44 13.4375 1299.31 13.5 1299.19 13.625C1298.94 13.625 1298.75 13.4375 1298.62 13.0625C1298.5 12.9375 1298.38 12.75 1298.25 12.5C1298 12.25 1297.88 12 1297.88 11.75C1297.62 11.375 1297.75 11.25 1298.25 11.375C1299.88 11.625 1301.56 11.75 1303.31 11.75H1306.12V10.4375C1306 8.8125 1305.94 7.25 1305.94 5.75C1305.81 4.25 1305.69 3.125 1305.56 2.375C1305.19 1 1305.69 0.4375 1307.06 0.6875C1308.69 0.8125 1310.75 1.0625 1313.25 1.4375C1313.62 1.5625 1314.06 1.625 1314.56 1.625C1315.19 1.75 1315.56 2.0625 1315.69 2.5625C1315.69 2.9375 1315.44 3.375 1314.94 3.875C1314.19 4.375 1313.81 5.0625 1313.81 5.9375V11.75H1314.38C1315.75 9.375 1316.75 8.1875 1317.38 8.1875C1318.75 8.5625 1320.38 9.8125 1322.25 11.9375C1322.62 12.8125 1322.44 13.25 1321.69 13.25H1313.81V20.1875C1315.31 19.8125 1316.81 19.4375 1318.31 19.0625C1319.31 18.8125 1319.94 18.8125 1320.19 19.0625C1320.31 19.4375 1319.94 19.875 1319.06 20.375C1318.06 21.125 1316.56 22.125 1314.56 23.375C1314.19 23.5 1313.94 23.625 1313.81 23.75C1313.81 25.5 1313.88 28.6875 1314 33.3125C1314.12 36.1875 1314.25 38.3125 1314.38 39.6875C1314.38 42.1875 1313.62 43.8125 1312.12 44.5625C1310.88 45.3125 1309.19 45.9375 1307.06 46.4375C1305.56 46.6875 1304.62 46.25 1304.25 45.125C1303.88 42.75 1302.56 41.375 1300.31 41C1299.19 40.625 1298.69 40.25 1298.81 39.875C1298.94 39.5 1299.56 39.375 1300.69 39.5C1304.94 40.5 1306.75 39.125 1306.12 35.375ZM1327.88 35.5625V9.5H1323.94C1323.06 9.625 1322.12 9.75 1321.12 9.875C1320.62 10 1320.31 9.875 1320.19 9.5C1319.69 9.25 1319.38 8.8125 1319.25 8.1875C1318.88 7.8125 1318.94 7.6875 1319.44 7.8125C1321.56 8.0625 1323.38 8.1875 1324.88 8.1875H1334.81C1336.69 5.5625 1338 4.25 1338.75 4.25C1339.88 4.625 1341.38 6 1343.25 8.375C1343.5 8.75 1343.56 9.0625 1343.44 9.3125C1343.44 9.5625 1343.25 9.6875 1342.88 9.6875C1341.88 9.6875 1340.94 9.6875 1340.06 9.6875C1339.19 9.5625 1338 9.5 1336.5 9.5C1335.75 10.25 1335.44 11 1335.56 11.75V23C1335.56 26.75 1335.69 32.5625 1335.94 40.4375C1335.94 42.9375 1335.25 44.5625 1333.88 45.3125C1332.25 46.1875 1330.5 46.875 1328.62 47.375C1326.62 47.625 1325.56 47.1875 1325.44 46.0625C1324.94 43.0625 1323.44 41.375 1320.94 41C1319.56 40.875 1319 40.5625 1319.25 40.0625C1319.12 39.6875 1319.75 39.5 1321.12 39.5C1321.75 39.75 1322.75 39.8125 1324.12 39.6875C1326.75 39.9375 1328 38.5625 1327.88 35.5625ZM1347.19 37.25V12.6875C1347.19 9.6875 1347.12 7.75 1347 6.875C1346.88 6.125 1346.88 5.6875 1347 5.5625C1347.12 5.4375 1347.56 5.375 1348.31 5.375C1349.81 5.5 1351.38 5.8125 1353 6.3125C1353.62 6.5625 1354 6.9375 1354.12 7.4375C1354.12 7.8125 1353.88 8.1875 1353.38 8.5625C1353 8.9375 1352.88 9.4375 1353 10.0625V10.8125C1353 10.8125 1353.19 10.6875 1353.56 10.4375C1353.94 10.4375 1354.31 10.1875 1354.69 9.6875C1355.44 8.3125 1356.19 6.4375 1356.94 4.0625C1357.06 3.5625 1357.44 3.4375 1358.06 3.6875C1359.44 4.1875 1360.62 4.8125 1361.62 5.5625C1361.88 5.8125 1362 6.125 1362 6.5C1361.88 6.75 1361.69 6.875 1361.44 6.875C1360.81 6.875 1360.31 7.0625 1359.94 7.4375C1359.56 7.8125 1359 8.375 1358.25 9.125C1357.38 10.25 1356.69 10.875 1356.19 11H1358.62C1358.88 10.625 1359.19 10.0625 1359.56 9.3125C1359.69 8.9375 1359.81 8.625 1359.94 8.375C1360.31 7.875 1360.69 7.75 1361.06 8C1361.94 8.375 1362.62 8.75 1363.12 9.125C1363.88 7.75 1364.56 6 1365.19 3.875C1365.31 3.375 1365.69 3.25 1366.31 3.5C1367.69 4.125 1368.88 4.75 1369.88 5.375C1370.12 5.75 1370.25 6.0625 1370.25 6.3125C1370.25 6.5625 1370.06 6.6875 1369.69 6.6875C1369.06 6.6875 1368.56 6.875 1368.19 7.25C1367.44 8.125 1366.25 9.375 1364.62 11H1366.88C1367.25 10.25 1367.56 9.5 1367.81 8.75C1368.06 8.375 1368.44 8.25 1368.94 8.375C1369.81 9 1370.62 9.5625 1371.38 10.0625C1371.25 9.0625 1371.19 8.1875 1371.19 7.4375C1371.19 7.0625 1371.19 6.75 1371.19 6.5C1370.69 5.25 1371.12 4.6875 1372.5 4.8125C1373 5.0625 1373.56 5.25 1374.19 5.375C1374.69 5.5 1375.62 5.8125 1377 6.3125C1379.25 5.1875 1381.69 3.625 1384.31 1.625C1384.56 1.25 1385.19 1.3125 1386.19 1.8125C1387.81 3.1875 1389.44 4.6875 1391.06 6.3125C1391.31 6.6875 1391.38 7.0625 1391.25 7.4375C1391 7.8125 1390.69 7.9375 1390.31 7.8125C1389.69 7.6875 1388.88 7.625 1387.88 7.625C1384.75 8 1381.81 8.25 1379.06 8.375C1378.94 8.5 1378.81 8.625 1378.69 8.75C1378.31 9.125 1378.12 9.5625 1378.12 10.0625V17.375H1383C1384.25 15.125 1385.38 13.9375 1386.38 13.8125C1387.38 13.8125 1388.94 14.9375 1391.06 17.1875C1391.31 17.6875 1391.44 18.0625 1391.44 18.3125C1391.31 18.5625 1391.06 18.6875 1390.69 18.6875H1387.5C1387.5 18.9375 1387.25 19.1875 1386.75 19.4375C1386.38 19.8125 1386.19 20.3125 1386.19 20.9375V33.3125C1386.06 38.4375 1386.19 42 1386.56 44C1386.69 45.375 1386.06 46.1875 1384.69 46.4375C1384.06 46.5625 1383.56 46.6875 1383.19 46.8125C1382.44 47.0625 1381.75 47.25 1381.12 47.375C1379.62 47.375 1379 46.625 1379.25 45.125C1379.5 41.875 1379.62 38.75 1379.62 35.75V22.625C1379.62 22.25 1379.56 21.5625 1379.44 20.5625C1379.44 19.6875 1379.44 19.0625 1379.44 18.6875H1378.12V19.25C1378.12 27.5 1377.38 33.375 1375.88 36.875C1374.38 40.25 1371.38 43.375 1366.88 46.25C1366.12 46.625 1365.69 46.75 1365.56 46.625C1365.31 46.375 1365.5 46 1366.12 45.5C1367.25 43.75 1368.25 42.125 1369.12 40.625H1353V41C1352.88 41.5 1352.62 42 1352.25 42.5C1351.75 43.375 1351.12 43.6875 1350.38 43.4375C1349 42.8125 1347.81 42.125 1346.81 41.375C1345.81 41.125 1345.69 40.5625 1346.44 39.6875C1346.94 39.0625 1347.19 38.25 1347.19 37.25ZM1353 18.5V21.875H1364.25C1365 20.75 1365.56 20 1365.94 19.625C1365.19 20 1364.56 20.4375 1364.06 20.9375C1363.31 21.4375 1362.88 21.3125 1362.75 20.5625C1362.62 20.4375 1362.56 20.3125 1362.56 20.1875C1362.44 20.0625 1362.38 19.875 1362.38 19.625C1360.88 20.5 1359.94 20.125 1359.56 18.5C1357.19 19.375 1355.62 20 1354.88 20.375C1354 20.875 1353.56 20.75 1353.56 20C1353.31 19.625 1353.12 19.125 1353 18.5ZM1370.44 23.1875H1367.06C1367.81 23.8125 1368.38 24.1875 1368.75 24.3125C1369.12 24.4375 1369.38 24.5 1369.5 24.5C1370 25.375 1369.88 25.875 1369.12 26C1368.62 25.875 1368.12 26 1367.62 26.375C1367.25 26.75 1366.12 27.6875 1364.25 29.1875H1366.5C1366.75 28.5625 1367 27.9375 1367.25 27.3125C1367.5 26.8125 1367.94 26.6875 1368.56 26.9375C1368.94 27.3125 1369.44 27.625 1370.06 27.875C1370.56 28.25 1371.06 28.5625 1371.56 28.8125C1371.56 28.3125 1371.56 27.6875 1371.56 26.9375C1371.69 26.3125 1371.75 25.3125 1371.75 23.9375V19.25C1371.62 19.375 1371.5 19.5 1371.38 19.625C1371.25 19.875 1371.19 20 1371.19 20C1370.56 20.5 1369.94 20.5625 1369.31 20.1875C1369.81 20.8125 1370.44 21.4375 1371.19 22.0625C1371.44 22.8125 1371.19 23.1875 1370.44 23.1875ZM1356.19 29.375H1358.44C1358.81 28.625 1359.19 27.875 1359.56 27.125C1359.81 26.625 1360.19 26.5 1360.69 26.75C1361.56 27.125 1362.25 27.5 1362.75 27.875C1363.5 26.5 1364.12 24.9375 1364.62 23.1875H1359C1359.12 23.3125 1359.38 23.5 1359.75 23.75C1360.25 24 1360.69 24.1875 1361.06 24.3125C1361.69 25.1875 1361.62 25.6875 1360.88 25.8125C1360.25 25.8125 1359.75 25.9375 1359.38 26.1875C1358.88 26.8125 1358.12 27.5625 1357.12 28.4375C1356.75 28.8125 1356.44 29.125 1356.19 29.375ZM1353 36.3125V39.125H1364.06C1364.31 38.75 1364.69 38.25 1365.19 37.625C1365.44 37.25 1365.62 36.9375 1365.75 36.6875C1365.5 36.9375 1365.19 37.1875 1364.81 37.4375C1364.56 37.6875 1364.31 37.875 1364.06 38C1363.31 38.5 1362.88 38.375 1362.75 37.625C1362.75 37.625 1362.69 37.5 1362.56 37.25C1362.56 37.625 1362.38 37.9375 1362 38.1875C1360.5 39.0625 1359.56 38.625 1359.19 36.875C1357.19 37.625 1355.75 38.1875 1354.88 38.5625C1354.12 39.1875 1353.69 39.0625 1353.56 38.1875C1353.31 37.6875 1353.12 37.0625 1353 36.3125ZM1356.38 23.1875H1353V29L1353.38 28.8125C1353.75 28.8125 1354.12 28.5 1354.5 27.875C1355.25 26.625 1355.88 25.0625 1356.38 23.1875ZM1361.44 12.3125C1361.19 12.5625 1361 12.75 1360.88 12.875C1360.5 13.375 1360.12 13.6875 1359.75 13.8125C1361.38 14.4375 1362.44 15.375 1362.94 16.625C1363.19 16.625 1363.44 16.4375 1363.69 16.0625C1364.06 15.6875 1364.5 15.0625 1365 14.1875C1365.25 13.8125 1365.5 13.5 1365.75 13.25C1365.38 13.375 1364.94 13.5625 1364.44 13.8125C1364.06 13.9375 1363.75 14.0625 1363.5 14.1875C1362.62 14.5625 1362.12 14.4375 1362 13.8125C1361.88 13.6875 1361.75 13.4375 1361.62 13.0625C1361.5 12.8125 1361.44 12.5625 1361.44 12.3125ZM1371.75 17.1875V16.625C1371.75 15.625 1371.69 14.75 1371.56 14C1371.56 13.375 1371.56 12.6875 1371.56 11.9375C1370.94 12.1875 1370.56 12.375 1370.44 12.5C1369.81 13.125 1369.25 13.6875 1368.75 14.1875C1370.25 14.9375 1371.19 15.8125 1371.56 16.8125C1371.56 16.9375 1371.62 17.0625 1371.75 17.1875ZM1361.25 30.875C1361 31.125 1360.69 31.5 1360.31 32C1360.06 32.125 1359.88 32.25 1359.75 32.375C1360.62 32.75 1361.38 33.3125 1362 34.0625C1362.12 33.9375 1362.38 33.875 1362.75 33.875C1362.88 34 1363.25 33.6875 1363.88 32.9375C1364.38 32.4375 1364.81 31.875 1365.19 31.25C1364.31 31.5 1363.62 31.8125 1363.12 32.1875C1362.25 32.5625 1361.75 32.4375 1361.62 31.8125C1361.5 31.6875 1361.44 31.5625 1361.44 31.4375C1361.31 31.3125 1361.25 31.125 1361.25 30.875ZM1353 11.75V16.25C1353 16.25 1353.12 16.25 1353.38 16.25C1353.75 16.375 1354.25 16.125 1354.88 15.5C1355.5 14.875 1356.12 14.25 1356.75 13.625C1355.88 14 1355.31 14.1875 1355.06 14.1875C1354.19 14.6875 1353.69 14.5625 1353.56 13.8125C1353.31 13.3125 1353.12 12.625 1353 11.75ZM1353 30.5V34.4375C1353 34.4375 1353.19 34.4375 1353.56 34.4375C1353.94 34.5625 1354.38 34.3125 1354.88 33.6875C1355.62 33.1875 1356.31 32.5 1356.94 31.625C1356.69 31.75 1356.38 31.875 1356 32C1355.5 32.25 1355.19 32.375 1355.06 32.375C1354.19 32.875 1353.69 32.8125 1353.56 32.1875C1353.31 31.6875 1353.12 31.125 1353 30.5ZM1371.56 30.3125H1371.38C1370.75 30.1875 1370.19 30.3125 1369.69 30.6875C1369.44 30.8125 1369.25 30.9375 1369.12 31.0625C1368.88 31.3125 1368.69 31.4375 1368.56 31.4375C1369.69 32.0625 1370.56 32.75 1371.19 33.5C1371.19 32.875 1371.25 32 1371.38 30.875C1371.38 30.625 1371.44 30.4375 1371.56 30.3125ZM1356.75 16.625C1357.38 16.625 1358.38 16.625 1359.75 16.625C1359.62 15.75 1359.5 15 1359.38 14.375C1359 14.625 1358.5 15.0625 1357.88 15.6875C1357.38 16.1875 1357 16.5 1356.75 16.625ZM1365.56 16.8125C1365.69 16.8125 1366 16.8125 1366.5 16.8125C1367.25 16.6875 1367.88 16.625 1368.38 16.625C1368.25 16 1368.12 15.375 1368 14.75C1367 15.75 1366.19 16.4375 1365.56 16.8125ZM1359 32.9375L1356.75 34.8125C1357.5 34.8125 1358.38 34.8125 1359.38 34.8125C1359.25 34.1875 1359.12 33.5625 1359 32.9375ZM1365.19 34.25C1365.69 34.25 1366.69 34.125 1368.19 33.875C1368.06 33.125 1367.94 32.5625 1367.81 32.1875C1367.56 32.4375 1367.25 32.75 1366.88 33.125C1366 33.75 1365.44 34.125 1365.19 34.25ZM1369.88 38.5625C1369.88 38.5625 1369.88 38.5 1369.88 38.375C1370 38.25 1370.12 38 1370.25 37.625C1368.75 37.75 1368.06 37.0625 1368.19 35.5625C1367.81 35.8125 1367.44 36 1367.06 36.125C1366.69 36.25 1366.5 36.3125 1366.5 36.3125C1367.38 36.4375 1368.5 37.1875 1369.88 38.5625ZM1367.44 18.875C1367.69 19 1368.12 19.25 1368.75 19.625C1368.38 19.5 1368.19 19.125 1368.19 18.5C1368.06 18.625 1367.94 18.6875 1367.81 18.6875C1367.56 18.8125 1367.44 18.875 1367.44 18.875ZM1437.19 20.5625H1429.31V25.8125H1431.56C1431.56 25.8125 1431.69 25.625 1431.94 25.25C1432.81 24 1433.5 23.375 1434 23.375C1436.75 24.5 1438.69 25.8125 1439.81 27.3125C1439.81 27.8125 1439.56 28.3125 1439.06 28.8125C1438.69 29.0625 1438.5 29.5 1438.5 30.125C1438.25 33.625 1438 37.125 1437.75 40.625C1437.38 43.875 1434.62 45.875 1429.5 46.625C1428.25 46.75 1427.5 46.375 1427.25 45.5C1426.88 43.5 1425.62 42.0625 1423.5 41.1875C1422.75 41.0625 1422.5 40.8125 1422.75 40.4375C1422.62 40.1875 1423.06 40.0625 1424.06 40.0625C1429.19 40.6875 1431.62 40.0625 1431.38 38.1875C1431.5 37.5625 1431.56 36.9375 1431.56 36.3125C1431.19 36.9375 1430.62 37.3125 1429.88 37.4375C1428.25 37.5625 1427.38 36.6875 1427.25 34.8125C1426.88 32.5625 1426.31 30.75 1425.56 29.375C1425.44 28.75 1425.69 28.5 1426.31 28.625C1429.19 29.75 1431.06 31 1431.94 32.375C1431.94 32.625 1431.94 32.6875 1431.94 32.5625C1431.94 31.9375 1431.94 31.25 1431.94 30.5C1432.06 29.75 1432.12 28.6875 1432.12 27.3125H1418.62C1418.62 27.4375 1418.56 27.5625 1418.44 27.6875C1418.31 27.8125 1418.31 27.875 1418.44 27.875C1417.81 28.625 1417.19 28.875 1416.56 28.625C1414.81 28.25 1413.44 27.6875 1412.44 26.9375C1411.56 26.4375 1411.44 25.8125 1412.06 25.0625C1412.69 24.4375 1413 23.3125 1413 21.6875V8.5625C1413 6.9375 1412.94 5.8125 1412.81 5.1875C1412.56 4.4375 1412.5 3.9375 1412.62 3.6875C1412.88 3.4375 1413.38 3.375 1414.12 3.5C1416.62 4 1418.56 4.5625 1419.94 5.1875C1420.31 5.4375 1420.62 5.625 1420.88 5.75H1431.75C1432.75 4 1433.56 3 1434.19 2.75C1435.44 3.25 1436.75 4.25 1438.12 5.75C1438.38 6.125 1438.5 6.5 1438.5 6.875C1438.38 7.125 1438.12 7.25 1437.75 7.25H1429.31V12.5H1431.38C1432.12 10.875 1432.94 9.8125 1433.81 9.3125C1435.06 9.8125 1436.38 10.875 1437.75 12.5C1438.25 13.375 1438.12 13.875 1437.38 14H1429.31V19.0625H1431.38C1432.12 17.6875 1432.88 16.6875 1433.62 16.0625C1434.75 16.4375 1436.06 17.4375 1437.56 19.0625C1437.81 19.4375 1437.94 19.8125 1437.94 20.1875C1437.81 20.4375 1437.56 20.5625 1437.19 20.5625ZM1394.44 22.25V15.125C1394.31 11.875 1394.19 8.8125 1394.06 5.9375C1393.94 5.3125 1393.94 4.9375 1394.06 4.8125C1394.31 4.5625 1394.75 4.5 1395.38 4.625C1397.38 5.25 1399.38 5.9375 1401.38 6.6875C1401.75 6.9375 1402 7.1875 1402.12 7.4375H1402.88C1403.62 5.6875 1404.38 4.6875 1405.12 4.4375C1407 4.9375 1409.12 6.125 1411.5 8C1411.62 8.625 1411.31 9.125 1410.56 9.5C1410.19 9.75 1410 10.1875 1410 10.8125V20.9375C1410 22.0625 1410 23.5625 1410 25.4375C1410.12 27.1875 1410.25 28.375 1410.38 29C1410.5 30 1410.12 30.625 1409.25 30.875C1408 31.5 1406.69 31.8125 1405.31 31.8125C1403.69 32.1875 1403 31.8125 1403.25 30.6875V29.375H1401.19V30.6875C1401.19 32.6875 1400.62 33.75 1399.5 33.875C1399.12 34 1398.75 34.0625 1398.38 34.0625C1397.12 34.4375 1396.25 34.5625 1395.75 34.4375C1394 34.6875 1393.38 33.875 1393.88 32C1394 31.375 1394.12 30.1875 1394.25 28.4375C1394.25 26.4375 1394.31 24.375 1394.44 22.25ZM1408.12 35.75C1409.75 34.25 1410.94 32.3125 1411.69 29.9375C1411.69 29.6875 1411.75 29.5625 1411.88 29.5625C1412.12 29.5625 1412.38 29.6875 1412.62 29.9375C1414.12 32.4375 1414.12 35.3125 1412.62 38.5625C1411.38 40.1875 1409.88 40.5 1408.12 39.5C1406.88 38.375 1406.88 37.125 1408.12 35.75ZM1403.25 8.75H1401.19C1401.19 9.125 1401.19 9.4375 1401.19 9.6875V28.0625H1403.25V8.75ZM1421.25 35.9375C1421.25 33.8125 1420.81 31.75 1419.94 29.75C1419.69 29.5 1419.62 29.3125 1419.75 29.1875C1419.88 29.0625 1420.12 29.0625 1420.5 29.1875C1423.25 30.3125 1425.06 31.875 1425.94 33.875C1426.81 36.75 1426.12 38.3125 1423.88 38.5625C1422.25 38.8125 1421.38 37.9375 1421.25 35.9375ZM1415.06 35.9375C1415.56 34.0625 1415.5 32.125 1414.88 30.125C1414.75 29.875 1414.75 29.75 1414.88 29.75C1415.12 29.625 1415.44 29.625 1415.81 29.75C1418.06 31.25 1419.44 33.0625 1419.94 35.1875C1420.19 38.0625 1419.19 39.4375 1416.94 39.3125C1415.56 39.1875 1414.94 38.0625 1415.06 35.9375ZM1419.38 25.8125H1423.12V20.5625H1419.56V25.625C1419.44 25.875 1419.38 25.9375 1419.38 25.8125ZM1419.56 14V19.0625H1423.12V14H1419.56ZM1419.56 8.75V12.5H1423.12V7.25H1420.12C1419.62 7.5 1419.44 8 1419.56 8.75ZM1453.69 34.0625H1451.25V31.0625C1451.25 29.4375 1451.88 27.6875 1453.12 25.8125C1454.75 23.8125 1455.56 21.75 1455.56 19.625C1455.56 15.125 1454.06 12.8125 1451.06 12.6875C1448.69 12.9375 1447.06 13.8125 1446.19 15.3125C1446.44 15.3125 1446.69 15.3125 1446.94 15.3125C1449.31 15.4375 1450.56 16.5 1450.69 18.5C1450.44 20.5 1449.19 21.625 1446.94 21.875C1444.56 21.75 1443.31 20.4375 1443.19 17.9375C1443.56 13.5625 1446.75 11.125 1452.75 10.625C1459.12 11 1462.56 13.375 1463.06 17.75C1463.06 20.375 1461.44 22.875 1458.19 25.25C1455.19 27.5 1453.69 29.75 1453.69 32V34.0625ZM1448.25 40.0625C1448.5 37.6875 1449.81 36.3125 1452.19 35.9375C1454.69 36.1875 1456.06 37.5625 1456.31 40.0625C1455.94 42.0625 1454.56 43.25 1452.19 43.625C1449.81 43.25 1448.5 42.0625 1448.25 40.0625Z" fill="#10656A"/>
</svg>
