<svg width="1032" height="49" viewBox="0 0 1032 49" fill="none" xmlns="http://www.w3.org/2000/svg">
<path d="M34.6875 19.625V23.1875C34.6875 22.8125 35.0625 22.8125 35.8125 23.1875C40.6875 25.0625 44.1875 28.0625 46.3125 32.1875C47.0625 35.6875 46.125 38 43.5 39.125C40.875 39.625 39.3125 38.125 38.8125 34.625C38.3125 31.125 37.0625 27.625 35.0625 24.125C34.8125 24 34.6875 23.8125 34.6875 23.5625V25.8125C34.5625 32.6875 34.625 37.625 34.875 40.625C35.125 42.875 34.4375 44.5 32.8125 45.5C30.9375 46.5 29.0625 47.125 27.1875 47.375C25.5625 47.625 24.6875 47.25 24.5625 46.25C24.1875 44.125 23.125 42.8125 21.375 42.3125C20.375 41.9375 19.9375 41.5625 20.0625 41.1875C19.9375 41.0625 20.5625 41 21.9375 41C25.9375 41.625 27.75 40.375 27.375 37.25V24.875C27.375 25.125 27.1875 25.25 26.8125 25.25C26.1875 25.5 25.875 25.875 25.875 26.375C23.875 32.625 20.4375 37.3125 15.5625 40.4375C14.9375 40.8125 14.5625 40.9375 14.4375 40.8125C14.3125 40.6875 14.4375 40.3125 14.8125 39.6875C16.5625 35.6875 17.8125 32.0625 18.5625 28.8125C18.5625 28.6875 18.5625 28.375 18.5625 27.875C18.9375 26.5 19.1875 25 19.3125 23.375C19.4375 22.375 19.9375 21.9375 20.8125 22.0625C22.6875 22.3125 24.6875 22.8125 26.8125 23.5625C27.1875 23.9375 27.375 24.125 27.375 24.125V23.5625C27.25 22.0625 27.1875 20.625 27.1875 19.25C27.0625 17.875 26.9375 16.875 26.8125 16.25C26.4375 14.875 26.9375 14.3125 28.3125 14.5625C30.0625 14.8125 32.3125 15.1875 35.0625 15.6875C36.3125 16.4375 36.5 17.1875 35.625 17.9375C34.875 18.3125 34.5625 18.875 34.6875 19.625ZM13.5 18.125V35.75C13.375 39.25 13.4375 41.75 13.6875 43.25C13.9375 44.875 13.375 45.9375 12 46.4375C10.75 46.8125 9.4375 47.125 8.0625 47.375C5.9375 48 5.1875 46.875 5.8125 44C5.8125 43.375 5.8125 42.4375 5.8125 41.1875C6.1875 35.6875 6.375 31.5625 6.375 28.8125V22.625C4.625 24.75 2.875 26.4375 1.125 27.6875C0.75 28.0625 0.5 28.125 0.375 27.875C0.25 27.625 0.3125 27.25 0.5625 26.75C3.5625 20.75 5.9375 14.5625 7.6875 8.1875C8.3125 6.4375 8.75 4.1875 9 1.4375C8.875 0.6875 9.375 0.3125 10.5 0.3125C12 0.6875 14.5 1.4375 18 2.5625C18.75 3.3125 18.75 4.0625 18 4.8125C17.125 5.1875 16.625 5.5625 16.5 5.9375C14.875 9.1875 13.4375 12 12.1875 14.375C12.3125 14.375 12.5625 14.4375 12.9375 14.5625C13.3125 14.5625 13.5625 14.5625 13.6875 14.5625C14.5625 15.1875 14.6875 15.8125 14.0625 16.4375C13.5625 16.8125 13.375 17.375 13.5 18.125ZM36.9375 17.375L38.25 12.875H25.875C23.125 17.25 19.625 20.8125 15.375 23.5625C15 23.8125 14.75 23.8125 14.625 23.5625C14.5 23.4375 14.5625 23.125 14.8125 22.625C18.0625 17.625 20.375 12.4375 21.75 7.0625C22 6.0625 22.1875 5.125 22.3125 4.25C22.5625 3.25 22.6875 2.3125 22.6875 1.4375C22.6875 0.5625 23.1875 0.25 24.1875 0.5C25.3125 0.625 27.25 1.125 30 2C30.25 2.125 30.5625 2.1875 30.9375 2.1875C31.3125 2.4375 31.5625 2.8125 31.6875 3.3125C31.5625 3.8125 31.3125 4.0625 30.9375 4.0625C30.0625 4.4375 29.5625 4.9375 29.4375 5.5625C28.5625 7.6875 27.6875 9.625 26.8125 11.375H37.3125C38.1875 9.375 39.125 8.1875 40.125 7.8125C42 8.1875 44.1875 9.625 46.6875 12.125C47.3125 12.75 47.5625 13.4375 47.4375 14.1875C47.3125 14.9375 46.6875 15.3125 45.5625 15.3125C42.5625 15.0625 40.0625 16 38.0625 18.125C37.5625 18.5 37.1875 18.625 36.9375 18.5C36.8125 18.375 36.8125 18 36.9375 17.375ZM68.4375 9.125H74.25C74.875 7 75.25 4.4375 75.375 1.4375C75.25 0.6875 75.6875 0.3125 76.6875 0.3125C79.0625 0.5625 81.5 0.875 84 1.25C84.5 1.5 84.75 1.9375 84.75 2.5625C84.625 3.0625 84.3125 3.3125 83.8125 3.3125C82.9375 3.6875 82.375 4.0625 82.125 4.4375C81 6.0625 79.5 7.625 77.625 9.125H84.5625C85.6875 7.5 86.5 6.625 87 6.5C89.875 7.5 92.1875 8.8125 93.9375 10.4375C93.9375 11.0625 93.625 11.5625 93 11.9375C92.75 12.1875 92.625 12.625 92.625 13.25C92.5 18.25 92.5625 21.4375 92.8125 22.8125C92.8125 24.0625 92.4375 24.875 91.6875 25.25C91.5625 25.375 91.4375 25.4375 91.3125 25.4375C90.0625 25.9375 88.8125 26.1875 87.5625 26.1875C85.9375 26.6875 85.1875 26.3125 85.3125 25.0625V24.125H58.875C58.875 25 58.5 25.5 57.75 25.625C56.625 26.125 55.1875 26.4375 53.4375 26.5625C51.8125 26.9375 51.1875 26.25 51.5625 24.5C51.6875 22.5 51.75 20.6875 51.75 19.0625C51.875 17.6875 51.9375 15.75 51.9375 13.25C51.9375 11 51.8125 9.375 51.5625 8.375C51.3125 7.625 51.3125 7.1875 51.5625 7.0625C51.8125 6.8125 52.375 6.75 53.25 6.875C55.5 7.375 57.625 8.125 59.625 9.125H64.3125C63.8125 8.75 63.5 8 63.375 6.875C63.25 5.75 62.5 4 61.125 1.625C60.75 1.375 60.625 1.1875 60.75 1.0625C60.75 0.8125 61 0.6875 61.5 0.6875C65.625 0.8125 68.4375 1.875 69.9375 3.875C71.1875 6.125 70.6875 7.875 68.4375 9.125ZM57.5625 37.4375V33.5C57.4375 30.875 57.3125 28.8125 57.1875 27.3125C57.0625 26.6875 57.0625 26.3125 57.1875 26.1875C57.3125 26.0625 57.8125 26 58.6875 26C60.4375 26.375 62.625 26.875 65.25 27.5C65.375 27.625 65.5 27.6875 65.625 27.6875H78.375C79.375 25.8125 80.1875 24.875 80.8125 24.875C82.4375 25.25 84.875 26.625 88.125 29C88.5 29.75 88.25 30.3125 87.375 30.6875C86.875 31.0625 86.5625 31.375 86.4375 31.625V38.5625C86.3125 38.9375 86.3125 39.75 86.4375 41C86.5625 42.5 86.625 43.4375 86.625 43.8125C86.875 45.4375 86.375 46.375 85.125 46.625C83.375 47 81.9375 47.25 80.8125 47.375C79.4375 47.5 78.875 46.9375 79.125 45.6875V44H64.875V44.5625C64.875 45.8125 64.25 46.625 63 47C61.5 47.125 60.1875 47.25 59.0625 47.375C57.4375 47.5 56.8125 46.8125 57.1875 45.3125C57.3125 44.0625 57.4375 41.4375 57.5625 37.4375ZM58.875 11.75V22.625H68.625V10.625H60.1875C59.1875 10.625 58.75 11 58.875 11.75ZM64.875 36.6875V42.5H79.125V36.6875H64.875ZM79.125 29.1875H65.625C65 29.5625 64.75 30.0625 64.875 30.6875V35.1875H79.125V29.1875ZM60.9375 18.3125C60.9375 16.6875 60.5 14.875 59.625 12.875C59.375 12.625 59.3125 12.375 59.4375 12.125C59.5625 12 59.875 11.9375 60.375 11.9375C64 12.8125 66.4375 14.25 67.6875 16.25C68.4375 19.125 67.5625 21 65.0625 21.875C62.4375 22.5 61.0625 21.3125 60.9375 18.3125ZM85.3125 12.5V10.625H75.5625V22.625H76.6875C76.5625 22.5 76.625 22.1875 76.875 21.6875C77.75 18.6875 78.25 15.5 78.375 12.125C78.25 11.25 78.6875 10.9375 79.6875 11.1875C80.0625 11.3125 80.5 11.4375 81 11.5625C82.875 11.9375 84.3125 12.25 85.3125 12.5ZM78.1875 22.625H85.3125V15.3125C84.9375 15.5625 84.6875 15.8125 84.5625 16.0625C82.8125 18.4375 80.75 20.5625 78.375 22.4375C78.25 22.5625 78.1875 22.625 78.1875 22.625ZM109.875 29.5625C109.875 29.4375 109.812 29.25 109.688 29C109.562 28.75 109.562 28.5 109.688 28.25C105.562 30.375 103.125 31.875 102.375 32.75C101.75 33.5 101.25 33.875 100.875 33.875C100.5 33.875 100.188 33.5 99.9375 32.75C98.9375 31.5 98.1875 30.0625 97.6875 28.4375C97.4375 28.0625 97.4375 27.6875 97.6875 27.3125C97.8125 27.0625 98.125 26.8125 98.625 26.5625C100 26.0625 101.188 25.1875 102.188 23.9375C103.062 22.5625 103.938 21 104.812 19.25C102.688 20.25 101.562 20.875 101.438 21.125C100.312 22.375 99.5 22.3125 99 20.9375C98 19.5625 97.3125 18.25 96.9375 17C96.6875 16.5 96.6875 16.125 96.9375 15.875C96.8125 15.75 97.0625 15.5 97.6875 15.125C99.1875 14.375 100.188 13.1875 100.688 11.5625C101.812 8.1875 102.5 5.125 102.75 2.375C102.75 1.125 103.438 0.6875 104.812 1.0625C106.438 1.6875 108.438 2.5 110.812 3.5C111.312 3.875 111.562 4.3125 111.562 4.8125C111.562 5.3125 111.25 5.625 110.625 5.75C109.625 6 108.938 6.5625 108.562 7.4375C105.688 11.1875 103.5 13.75 102 15.125C103.375 15.125 105 15.125 106.875 15.125C107 14.625 107.188 13.9375 107.438 13.0625C107.688 12.4375 107.875 11.875 108 11.375C108.125 10 108.812 9.5 110.062 9.875C110.438 10.125 111.188 10.5625 112.312 11.1875C113.688 11.8125 114.688 12.25 115.312 12.5C116.438 13.625 116.375 14.4375 115.125 14.9375C114.375 14.9375 113.688 15.375 113.062 16.25C111.438 18.375 109.875 20.3125 108.375 22.0625C108.375 22.0625 108.5 22.0625 108.75 22.0625C111.75 22.9375 113.875 24.6875 115.125 27.3125C115.5 29.3125 114.875 30.75 113.25 31.625C111.25 32.125 110.125 31.4375 109.875 29.5625ZM140.438 29.1875H131.625C130.875 29.6875 130.562 30.3125 130.688 31.0625V42.3125H133.688C135.312 40.0625 136.562 38.8125 137.438 38.5625C138.188 38.8125 139.938 40.125 142.688 42.5C142.938 42.75 143 43 142.875 43.25C142.875 43.375 142.688 43.5 142.312 43.625H117.375C116.375 43.625 115.438 43.75 114.562 44C114.062 44 113.75 43.9375 113.625 43.8125C113.375 43.4375 113.125 42.9375 112.875 42.3125C112.625 41.8125 112.75 41.6875 113.25 41.9375C115 42.0625 116.688 42.1875 118.312 42.3125H123.375V29.1875H120.188C119.188 29.3125 118.25 29.4375 117.375 29.5625C116.875 29.6875 116.562 29.625 116.438 29.375C116.312 29.25 116.125 29 115.875 28.625C115.75 28.375 115.688 28.125 115.688 27.875C115.438 27.5 115.562 27.375 116.062 27.5C117.688 27.75 119.312 27.875 120.938 27.875H132.375C132.375 27.75 132.5 27.5625 132.75 27.3125C133.5 26.4375 134.188 25.75 134.812 25.25C134.688 25.125 134.562 24.9375 134.438 24.6875C134.188 24.3125 134.125 24 134.25 23.75C133.75 21.75 132.562 19.8125 130.688 17.9375C130.312 17.6875 130.25 17.4375 130.5 17.1875C130.375 17.0625 130.438 16.875 130.688 16.625C132.062 15.125 133.25 12.8125 134.25 9.6875C134.25 8.9375 134.812 8.75 135.938 9.125C137.438 9.875 138.938 10.6875 140.438 11.5625C140.812 11.9375 140.938 12.3125 140.812 12.6875C140.562 12.9375 140.25 13 139.875 12.875C139.25 12.875 138.688 13.125 138.188 13.625C136.312 14.875 134.438 16.125 132.562 17.375C136.188 18.375 138.438 19.6875 139.312 21.3125C139.938 23.1875 139.562 24.625 138.188 25.625C138.938 26.25 139.875 27.0625 141 28.0625C141.25 28.4375 141.312 28.75 141.188 29C141.062 29.125 140.812 29.1875 140.438 29.1875ZM122.25 17.9375V17.75C122.25 17.875 122.25 17.8125 122.25 17.5625C122.25 17.5625 122.312 17.5 122.438 17.375C123.938 14.875 125.125 12.1875 126 9.3125C126 8.3125 126.5 8 127.5 8.375C129.125 8.875 130.875 9.5 132.75 10.25C133.25 11.125 133.062 11.625 132.188 11.75C131.438 11.875 130.812 12.1875 130.312 12.6875C128.312 14.6875 126.312 16.3125 124.312 17.5625C127.562 18.5625 129.75 19.875 130.875 21.5C131.75 23.5 131.312 25 129.562 26C127.562 26.75 126.375 26.125 126 24.125C125.625 22.25 124.5 20.3125 122.625 18.3125C122.25 18.3125 122.125 18.1875 122.25 17.9375ZM117.75 24.3125C117.75 22.4375 116.938 20.5 115.312 18.5C115.062 18.375 115.062 18.1875 115.312 17.9375C115.312 17.8125 115.312 17.625 115.312 17.375C116.188 15.5 116.875 12.75 117.375 9.125C117.25 8.25 117.75 7.875 118.875 8C119.375 8.25 120.5 8.5625 122.25 8.9375C123.375 9.1875 124.062 9.3125 124.312 9.3125C124.562 9.4375 124.688 9.75 124.688 10.25C124.562 10.625 124.312 10.8125 123.938 10.8125C123.188 11.0625 122.562 11.5 122.062 12.125C120.312 14.625 118.5 16.625 116.625 18.125C120.25 19.5 122.375 21.0625 123 22.8125C123.25 25.1875 122.562 26.5625 120.938 26.9375C118.812 27.3125 117.75 26.4375 117.75 24.3125ZM140.25 6.5H117.75C116.625 6.625 115.75 6.75 115.125 6.875C114.5 7 114.188 6.9375 114.188 6.6875C113.812 6.4375 113.562 5.9375 113.438 5.1875C113.188 4.8125 113.25 4.6875 113.625 4.8125C115.5 5.0625 117.188 5.1875 118.688 5.1875H131.625C133.25 2.6875 134.5 1.3125 135.375 1.0625C136.25 1.3125 138 2.75 140.625 5.375C140.875 5.75 140.938 6.0625 140.812 6.3125C140.812 6.4375 140.625 6.5 140.25 6.5ZM97.3125 40.4375C99.0625 38.9375 100.25 37 100.875 34.625C100.875 34.375 101 34.25 101.25 34.25C101.625 34.25 101.875 34.375 102 34.625C103.375 37.625 103.562 40.4375 102.562 43.0625C101.062 44.9375 99.375 45.25 97.5 44C96.375 42.625 96.3125 41.4375 97.3125 40.4375ZM111.375 38.375C111.125 36 110.25 34.125 108.75 32.75C108.375 32.5 108.25 32.3125 108.375 32.1875C108.5 32.0625 108.812 31.9375 109.312 31.8125C112.188 32.0625 114.438 33 116.062 34.625C117.562 37.25 117.188 39.1875 114.938 40.4375C113.188 40.8125 112 40.125 111.375 38.375ZM104.812 40.4375C105.188 38.0625 105.125 35.9375 104.625 34.0625C104.5 33.8125 104.5 33.6875 104.625 33.6875C104.75 33.5625 105 33.5625 105.375 33.6875C108 35.4375 109.625 37.3125 110.25 39.3125C110.5 41.8125 109.438 43.1875 107.062 43.4375C105.188 43.0625 104.438 42.0625 104.812 40.4375ZM103.5 26.75C103.625 26.75 103.75 26.75 103.875 26.75C106 26.375 107.812 26.125 109.312 26C108.812 24.875 108.312 23.875 107.812 23C107.812 23 107.75 22.9375 107.625 22.8125C107.5 22.8125 107.5 22.75 107.625 22.625C106.25 24.25 104.875 25.625 103.5 26.75ZM175.688 7.4375H180.938C181.938 5.8125 182.75 4.875 183.375 4.625C185.125 5.125 187.438 6.375 190.312 8.375C191.312 9.625 191.125 10.4375 189.75 10.8125C189 11.0625 188.188 11.6875 187.312 12.6875C184.938 16.0625 182.312 18.75 179.438 20.75C181.312 21 183.25 21.3125 185.25 21.6875C186.25 22.3125 186.312 22.9375 185.438 23.5625C184.688 24.0625 184.375 24.75 184.5 25.625V26.9375C185.375 25.5625 186.062 24.75 186.562 24.5C188.438 25.25 190 26.4375 191.25 28.0625C191.75 28.9375 191.625 29.4375 190.875 29.5625H184.5V31.0625C184.375 31.9375 184.375 33.6875 184.5 36.3125C184.625 38.9375 184.688 40.5625 184.688 41.1875C184.938 43.6875 184.25 45.375 182.625 46.25C181.625 46.75 180.188 47.1875 178.312 47.5625C176.438 47.9375 175.5 47.5625 175.5 46.4375C175 44.4375 173.5 43.125 171 42.5C170.625 42.375 170.5 42.3125 170.625 42.3125C169.625 42.1875 169.312 41.9375 169.688 41.5625C169.562 41.1875 170.125 41 171.375 41C175.75 41.75 177.688 40.8125 177.188 38.1875V29.5625H168.375C172.125 30.4375 174.25 31.875 174.75 33.875C175.25 36.75 174 38.4375 171 38.9375C168.875 39.4375 167.75 38.5 167.625 36.125C167.5 33.75 167.125 31.75 166.5 30.125C166.5 30.125 166.438 30 166.312 29.75C166.312 29.625 166.375 29.5625 166.5 29.5625H165.75C164.625 29.5625 163.812 29.625 163.312 29.75C163.188 30.625 163.125 32 163.125 33.875C163.125 38.25 163.188 41.375 163.312 43.25C163.438 45 162.812 46.125 161.438 46.625C160.312 47 159.375 47.25 158.625 47.375C156.5 48 155.688 46.875 156.188 44C156.312 42.125 156.438 39.875 156.562 37.25C156.562 34.125 156.625 31.125 156.75 28.25V27.125H156.562C155.688 36.75 151.938 42.75 145.312 45.125C144.812 45.25 144.5 45.1875 144.375 44.9375C144.25 44.6875 144.438 44.375 144.938 44C147.938 40.75 149.625 35.125 150 27.125H149.438C148.438 27.125 147.688 27.1875 147.188 27.3125C146.688 27.5625 146.375 27.5 146.25 27.125C146 27 145.812 26.6875 145.688 26.1875C145.688 25.9375 145.688 25.75 145.688 25.625C145.438 25.25 145.5 25.125 145.875 25.25C147.125 25.5 148.812 25.625 150.938 25.625H156.75V19.4375H154.125L153.375 20.9375C153.125 21.8125 152.5 22.125 151.5 21.875C149.75 21.5 148.438 20.9375 147.562 20.1875C146.562 19.6875 146.5 19.0625 147.375 18.3125C147.75 17.8125 147.938 17.125 147.938 16.25V9.6875C147.938 7.5625 147.75 5.9375 147.375 4.8125C147.125 3.9375 147.625 3.5625 148.875 3.6875C151.375 4.4375 153.25 5.0625 154.5 5.5625C155 5.9375 155.312 6.25 155.438 6.5C155.562 6.75 155.438 7 155.062 7.25C154.312 7.625 154 8.375 154.125 9.5V17.9375H156.75V10.0625C156.625 8.4375 156.562 6.875 156.562 5.375C156.438 3.875 156.312 2.8125 156.188 2.1875C155.688 1.0625 156.125 0.5 157.5 0.5C158.75 0.5 160.875 0.9375 163.875 1.8125C164.5 2.0625 164.875 2.375 165 2.75C165.125 3.25 164.938 3.625 164.438 3.875C163.688 4.375 163.312 4.9375 163.312 5.5625V16.625C166.938 11.625 169.188 6.5 170.062 1.25C170.062 0.75 170.438 0.4375 171.188 0.3125C173.812 0.8125 176.25 1.375 178.5 2C179.5 2.75 179.562 3.5 178.688 4.25C177.812 4.5 177.125 5.125 176.625 6.125C176.375 6.375 176.125 6.6875 175.875 7.0625C175.75 7.3125 175.688 7.4375 175.688 7.4375ZM163.312 27.125V27.875C164.062 28.125 165.188 28.1875 166.688 28.0625H177.188V26.9375C177.188 25.8125 177.125 24.9375 177 24.3125C177 23.5625 177 22.875 177 22.25C173.125 24.625 168.688 26.25 163.688 27.125C163.438 27.125 163.312 27.125 163.312 27.125ZM163.312 18.5V25.8125C165.812 24.6875 168.125 23.375 170.25 21.875C169.125 22 168.375 21.375 168 20C167.875 19.875 167.812 19.75 167.812 19.625C167.312 18.25 166.875 17.25 166.5 16.625C166.125 16.875 165.625 17.1875 165 17.5625C164.25 17.9375 163.75 18.1875 163.5 18.3125C163.25 18.4375 163.188 18.5 163.312 18.5ZM180.938 8.75H174.75C174.5 9.125 174.125 9.625 173.625 10.25C173.5 10.5 173.375 10.6875 173.25 10.8125C175 10.6875 176.375 11.0625 177.375 11.9375C177.875 12.5625 178.188 13.1875 178.312 13.8125C179.188 12.3125 180.062 10.625 180.938 8.75ZM173.062 15.3125C172.688 14.0625 172.25 13.0625 171.75 12.3125C171.25 12.9375 170.375 13.75 169.125 14.75C168.75 15 168.5 15.1875 168.375 15.3125C170.25 15.3125 171.625 15.6875 172.5 16.4375C173.375 17.4375 173.562 18.5 173.062 19.625C174.062 18.75 175.062 17.75 176.062 16.625C174.562 17.375 173.562 16.9375 173.062 15.3125ZM203.812 4.625H210C210.875 3.125 211.625 2.3125 212.25 2.1875C214.75 2.9375 216.812 4.0625 218.438 5.5625C218.688 6.1875 218.562 6.625 218.062 6.875C217.438 7.25 217.188 7.625 217.312 8C217.312 12.75 217.375 15.5 217.5 16.25C217.5 17.5 217.125 18.125 216.375 18.125C214.75 18.625 213.188 18.875 211.688 18.875C210.688 19 210.25 18.5 210.375 17.375V16.625H203.25V16.8125C203.25 17.4375 203.188 17.8125 203.062 17.9375C204.062 17.9375 205.688 18.25 207.938 18.875C208.188 18.875 208.438 18.875 208.688 18.875C209.188 19.125 209.438 19.375 209.438 19.625C209.562 19.875 209.438 20.1875 209.062 20.5625C208.562 20.8125 208.375 21.25 208.5 21.875C208.25 22.5 208.188 23.4375 208.312 24.6875H211.312C212.188 23.3125 213.062 22.5 213.938 22.25C215.688 22.75 217.688 23.875 219.938 25.625C220.312 26.5 220.125 27 219.375 27.125C218.75 27.5 218.375 27.9375 218.25 28.4375L217.312 41C217.062 43.25 216.188 44.8125 214.688 45.6875C212.688 46.4375 211.062 46.9375 209.812 47.1875C208.438 47.3125 207.625 46.875 207.375 45.875C207 43.75 206.062 42.125 204.562 41C203.812 40.875 203.562 40.625 203.812 40.25C203.812 39.75 204.312 39.625 205.312 39.875C208.938 40.625 210.625 40.1875 210.375 38.5625L211.5 26.1875H208.125C207.125 35.9375 202.188 42.5625 193.312 46.0625C192.812 46.1875 192.438 46.1875 192.188 46.0625C192.062 45.6875 192.125 45.375 192.375 45.125C197.75 39.625 200.688 33.3125 201.188 26.1875H197.062C195.812 26.1875 194.812 26.25 194.062 26.375C193.688 26.5 193.438 26.4375 193.312 26.1875C193.188 26.0625 193.062 25.875 192.938 25.625C192.812 25.375 192.75 25.125 192.75 24.875C192.5 24.625 192.625 24.5 193.125 24.5C193.25 24.5 193.562 24.5625 194.062 24.6875C195.562 24.6875 196.75 24.6875 197.625 24.6875H201.375C201.375 24.4375 201.375 24.125 201.375 23.75C201.375 21.375 201.312 19.9375 201.188 19.4375C201.188 19.4375 201.188 19.375 201.188 19.25C200.938 19.375 200.562 19.5 200.062 19.625C198.688 19.875 197.875 19.9375 197.625 19.8125C196.375 20.0625 195.938 19.25 196.312 17.375C196.312 17.125 196.312 16.25 196.312 14.75C196.438 12 196.5 10.0625 196.5 8.9375C196.5 5.9375 196.438 4.1875 196.312 3.6875C196.188 2.9375 196.25 2.5 196.5 2.375C196.625 2.125 197.062 2.0625 197.812 2.1875C199.188 2.5625 201 3.1875 203.25 4.0625C203.625 4.3125 203.812 4.5 203.812 4.625ZM230.625 37.0625V11.1875C230.5 9.6875 230.438 8.1875 230.438 6.6875C230.312 5.3125 230.188 4.25 230.062 3.5C229.812 2.875 229.75 2.4375 229.875 2.1875C230.125 1.9375 230.625 1.8125 231.375 1.8125C231.75 1.9375 232.188 2.0625 232.688 2.1875C235.062 2.4375 236.875 2.75 238.125 3.125C238.625 3.375 238.938 3.6875 239.062 4.0625C239.188 4.4375 239.062 4.75 238.688 5C237.938 5.375 237.562 6.125 237.562 7.25V24.5C237.438 28.625 237.5 33.1875 237.75 38.1875C237.75 39.5625 237.812 40.5 237.938 41C238.188 43.625 237.188 45.3125 234.938 46.0625C233.438 46.4375 232.25 46.6875 231.375 46.8125C229.625 47.0625 228.688 46.6875 228.562 45.6875C228.188 43.6875 227 42.3125 225 41.5625C224 41.1875 223.5 40.9375 223.5 40.8125C223.375 40.3125 224.062 40.125 225.562 40.25C229.312 40.75 231 39.6875 230.625 37.0625ZM220.875 25.625V12.875C220.875 9.875 220.812 7.8125 220.688 6.6875C220.438 6.0625 220.438 5.6875 220.688 5.5625C220.812 5.4375 221.25 5.375 222 5.375C222 5.5 222.125 5.5625 222.375 5.5625C224.75 5.8125 226.438 6 227.438 6.125C228.312 6.5 228.438 7.0625 227.812 7.8125C227.438 8.1875 227.25 8.75 227.25 9.5V32.375C227.25 33.75 226.688 34.5 225.562 34.625C225.188 34.75 224.688 34.875 224.062 35C223.188 35.125 222.625 35.1875 222.375 35.1875C220.75 35.4375 220.188 34.75 220.688 33.125C220.812 32.5 220.875 30 220.875 25.625ZM210.375 6.125H203.438C203.188 6.375 203.125 6.75 203.25 7.25V15.125H210.375V6.125ZM266.25 6.875V9.125C266.25 16.375 267.75 22.375 270.75 27.125C274.5 32.75 279.625 36.625 286.125 38.75C287.375 39.25 287.938 39.625 287.812 39.875C287.812 40 287.625 40.125 287.25 40.25C287.125 40.375 286.938 40.5 286.688 40.625C283.938 41.75 282.062 43.25 281.062 45.125C280.438 46.625 279.5 46.8125 278.25 45.6875C269.5 40.8125 265.25 31.5 265.5 17.75C264.625 32.875 256.5 42.25 241.125 45.875C240.75 46 240.5 45.875 240.375 45.5C240.25 45.25 240.438 45 240.938 44.75C252.812 38.5 258.75 26.375 258.75 8.375C258.625 6 258.5 4.375 258.375 3.5C258.125 2.875 258.125 2.4375 258.375 2.1875C258.5 2.0625 259 2 259.875 2C262.25 2.25 264.625 2.6875 267 3.3125C267.625 3.5625 267.938 3.9375 267.938 4.4375C267.938 5.0625 267.625 5.4375 267 5.5625C266.375 5.8125 266.125 6.25 266.25 6.875ZM298.688 40.25V33.875C298.562 31.375 298.438 29.375 298.312 27.875C298.188 27.25 298.25 26.8125 298.5 26.5625C298.75 26.3125 299.188 26.3125 299.812 26.5625C301.938 27.3125 304.062 28.25 306.188 29.375C306.188 29.625 306.25 29.6875 306.375 29.5625H318.938C319.688 28.0625 320.5 27.125 321.375 26.75C323.875 27.625 326.312 29.0625 328.688 31.0625C328.562 31.6875 328.25 32.0625 327.75 32.1875C327.125 32.5625 326.875 33.0625 327 33.6875V38.75C327 39.125 327 39.875 327 41C327.125 42.25 327.188 43.125 327.188 43.625C327.438 45.125 326.938 46 325.688 46.25C325.062 46.375 324 46.5625 322.5 46.8125C322 46.8125 321.625 46.875 321.375 47C320 47 319.438 46.5 319.688 45.5V41.9375H305.625V44.75C305.5 45.625 305.188 46.125 304.688 46.25C304.062 46.375 302.688 46.625 300.562 47C300.312 47 300.188 47.0625 300.188 47.1875C298.562 47.3125 297.938 46.5625 298.312 44.9375C298.438 43.9375 298.562 42.375 298.688 40.25ZM321.562 24.125H299.062C296.438 24.25 294 24.375 291.75 24.5C291.375 24.75 291.062 24.625 290.812 24.125C290.562 24 290.312 23.75 290.062 23.375C289.938 23.125 289.875 22.9375 289.875 22.8125C289.75 22.5625 289.688 22.4375 289.688 22.4375C289.688 22.3125 289.875 22.25 290.25 22.25C291.125 22.375 292.688 22.5 294.938 22.625C297.312 22.625 299.25 22.625 300.75 22.625H308.812V13.8125H303C300.875 17.0625 298.438 19.6875 295.688 21.6875C295.188 22.0625 294.812 22.1875 294.562 22.0625C294.312 21.9375 294.312 21.625 294.562 21.125C297.188 15.5 298.438 9.875 298.312 4.25C298.188 3.5 298.625 3.1875 299.625 3.3125C301.625 3.8125 304.312 4.5 307.688 5.375C308.188 5.75 308.375 6.1875 308.25 6.6875C308.125 7.1875 307.812 7.4375 307.312 7.4375C306.562 7.4375 306 7.8125 305.625 8.5625C305 9.9375 304.375 11.1875 303.75 12.3125H308.812V7.0625C308.812 5.4375 308.75 4.375 308.625 3.875C308.625 3.25 308.625 2.6875 308.625 2.1875C308.375 1.5625 308.375 1.125 308.625 0.875C308.875 0.75 309.438 0.6875 310.312 0.6875C313.062 1.0625 315.312 1.4375 317.062 1.8125C317.438 2.0625 317.625 2.375 317.625 2.75C317.5 3.125 317.25 3.375 316.875 3.5C316.5 3.75 316.312 4.3125 316.312 5.1875V12.3125H320.25C322.125 9.3125 323.375 7.75 324 7.625C326 8.5 328.062 10.0625 330.188 12.3125C330.562 13.1875 330.312 13.6875 329.438 13.8125C328.188 13.8125 325.75 13.8125 322.125 13.8125C320.75 13.8125 319.5 13.8125 318.375 13.8125H316.312V22.625H324.188C325.938 19.5 327.312 17.8125 328.312 17.5625C330.062 18.4375 332.25 20.25 334.875 23C335.125 23.5 335.25 23.9375 335.25 24.3125C335.125 24.5625 334.875 24.625 334.5 24.5C330.25 24.375 325.938 24.25 321.562 24.125ZM319.688 31.0625H306.375C305.75 31.3125 305.5 31.8125 305.625 32.5625V41H319.688V31.0625ZM374.625 32.375V32.5625C374.625 34.1875 374.625 36.125 374.625 38.375C374.75 40.25 374.875 41.75 375 42.875C375 44.5 374.375 45.5625 373.125 46.0625C372.375 46.3125 371.125 46.625 369.375 47C367.75 47 367.125 46.375 367.5 45.125C367.625 39.5 367.75 34.8125 367.875 31.0625V26.75C366.875 26.25 365.938 25.6875 365.062 25.0625C364.562 24.8125 364.312 24.5625 364.312 24.3125C364.312 24.1875 364.625 24.0625 365.25 23.9375C365.5 24.0625 365.938 24.125 366.562 24.125C367.062 24.25 367.5 24.3125 367.875 24.3125V18.6875H364.125C364.125 28.4375 363.375 35 361.875 38.375C360.625 41.875 357.75 44.6875 353.25 46.8125C352.75 47.0625 352.438 47.0625 352.312 46.8125C352.188 46.5625 352.312 46.25 352.688 45.875C354.562 43.625 355.812 41 356.438 38C357.062 34.875 357.375 29.5 357.375 21.875V13.625C357.25 10.875 357.125 8.3125 357 5.9375C356.875 5.3125 356.875 4.9375 357 4.8125C357.125 4.6875 357.625 4.625 358.5 4.625C359.75 4.875 361.812 5.5 364.688 6.5L365.062 6.6875C368.562 5.5625 371.812 3.875 374.812 1.625C375.312 1.125 375.875 1.125 376.5 1.625C377.875 3 379.438 4.75 381.188 6.875C381.438 7.5 381.438 8 381.188 8.375C380.938 8.75 380.562 8.8125 380.062 8.5625C379.438 8.3125 378.5 8.1875 377.25 8.1875C374.25 8.5625 370.062 8.75 364.688 8.75C364.312 9.25 364.125 9.75 364.125 10.25V17.375H373.875C375.375 14.625 376.438 13.25 377.062 13.25C378.438 13.75 380.312 15.125 382.688 17.375C383.062 18.25 382.875 18.75 382.125 18.875C381.375 18.875 380.562 18.875 379.688 18.875C378.812 18.75 377.5 18.6875 375.75 18.6875C375.875 19.3125 375.75 19.6875 375.375 19.8125C374.75 20.0625 374.5 20.5 374.625 21.125V25.8125C376.625 26.5625 378.5 27.4375 380.25 28.4375C383.5 30.8125 383.875 33.25 381.375 35.75C379.875 36.875 378.188 36.375 376.312 34.25C376.062 34.125 375.75 33.8125 375.375 33.3125C375 32.9375 374.75 32.625 374.625 32.375ZM345 29.1875H347.25C348.125 27.6875 348.875 26.8125 349.5 26.5625C352.125 27.5625 354.062 28.875 355.312 30.5C355.312 31.125 355 31.5625 354.375 31.8125C353.875 31.9375 353.688 32.4375 353.812 33.3125C353.688 34.0625 353.688 35.4375 353.812 37.4375C353.938 39.4375 354 40.6875 354 41.1875C354 42.8125 353.5 43.75 352.5 44C351.875 44.125 351.188 44.25 350.438 44.375C350.188 44.375 350 44.4375 349.875 44.5625C348.5 44.8125 347.812 44.3125 347.812 43.0625V41H344.625V42.875C344.5 44 343.938 44.6875 342.938 44.9375C341.938 45.0625 340.938 45.25 339.938 45.5C338.312 45.75 337.688 44.625 338.062 42.125C338.188 40.875 338.25 38.0625 338.25 33.6875C338.25 31.6875 338.188 29.9375 338.062 28.4375C337.938 27.8125 338 27.375 338.25 27.125C338.375 27 338.75 27 339.375 27.125C341 27.5 342.75 28.125 344.625 29C344.625 29.125 344.75 29.1875 345 29.1875ZM342.75 8.5625C342.5 5.9375 341.75 3.875 340.5 2.375C340.125 2.125 340 1.875 340.125 1.625C340.25 1.5 340.562 1.4375 341.062 1.4375C345.438 1.6875 348.062 2.8125 348.938 4.8125C349.438 7.3125 348.562 9.1875 346.312 10.4375C344.438 10.8125 343.25 10.1875 342.75 8.5625ZM355.688 12.125H341.438C340.812 12.125 340 12.1875 339 12.3125C338.625 12.3125 338.375 12.3125 338.25 12.3125C337.75 12.5625 337.438 12.5 337.312 12.125C337.062 12 336.875 11.8125 336.75 11.5625C336.75 11.4375 336.75 11.3125 336.75 11.1875C336.5 10.9375 336.438 10.75 336.562 10.625C336.562 10.5 336.75 10.4375 337.125 10.4375C338.75 10.6875 340.438 10.8125 342.188 10.8125H349.5C350.75 8.9375 351.688 7.8125 352.312 7.4375C353.438 7.8125 354.75 8.9375 356.25 10.8125C356.5 11.6875 356.312 12.125 355.688 12.125ZM354.375 18.3125H342.188C340.562 18.3125 339.5 18.375 339 18.5C338.5 18.625 338.188 18.5625 338.062 18.3125C337.812 18.1875 337.625 17.8125 337.5 17.1875C337.25 16.9375 337.188 16.8125 337.312 16.8125C337.312 16.6875 337.5 16.625 337.875 16.625C338.75 16.875 340.438 16.9375 342.938 16.8125H348.562C349.562 15.3125 350.375 14.375 351 14C351.875 14.25 353.188 15.1875 354.938 16.8125C355.438 17.8125 355.25 18.3125 354.375 18.3125ZM354.562 24.5H342.938C341.312 24.5 340.25 24.5625 339.75 24.6875C339.25 24.8125 338.938 24.6875 338.812 24.3125C338.688 24.1875 338.562 24.0625 338.438 23.9375C338.312 23.8125 338.25 23.625 338.25 23.375C338 23.125 337.938 22.9375 338.062 22.8125C338.062 22.6875 338.25 22.625 338.625 22.625C340.25 22.875 341.938 23 343.688 23H348.938C350.062 21.25 350.812 20.3125 351.188 20.1875C352.312 20.5625 353.562 21.5 354.938 23C355.562 23.875 355.438 24.375 354.562 24.5ZM347.812 30.3125H345.188L345 30.5C344.625 30.75 344.5 31.25 344.625 32V40.25H347.812V30.3125ZM418.688 19.625V23.1875C418.688 22.8125 419.062 22.8125 419.812 23.1875C424.688 25.0625 428.188 28.0625 430.312 32.1875C431.062 35.6875 430.125 38 427.5 39.125C424.875 39.625 423.312 38.125 422.812 34.625C422.312 31.125 421.062 27.625 419.062 24.125C418.812 24 418.688 23.8125 418.688 23.5625V25.8125C418.562 32.6875 418.625 37.625 418.875 40.625C419.125 42.875 418.438 44.5 416.812 45.5C414.938 46.5 413.062 47.125 411.188 47.375C409.562 47.625 408.688 47.25 408.562 46.25C408.188 44.125 407.125 42.8125 405.375 42.3125C404.375 41.9375 403.938 41.5625 404.062 41.1875C403.938 41.0625 404.562 41 405.938 41C409.938 41.625 411.75 40.375 411.375 37.25V24.875C411.375 25.125 411.188 25.25 410.812 25.25C410.188 25.5 409.875 25.875 409.875 26.375C407.875 32.625 404.438 37.3125 399.562 40.4375C398.938 40.8125 398.562 40.9375 398.438 40.8125C398.312 40.6875 398.438 40.3125 398.812 39.6875C400.562 35.6875 401.812 32.0625 402.562 28.8125C402.562 28.6875 402.562 28.375 402.562 27.875C402.938 26.5 403.188 25 403.312 23.375C403.438 22.375 403.938 21.9375 404.812 22.0625C406.688 22.3125 408.688 22.8125 410.812 23.5625C411.188 23.9375 411.375 24.125 411.375 24.125V23.5625C411.25 22.0625 411.188 20.625 411.188 19.25C411.062 17.875 410.938 16.875 410.812 16.25C410.438 14.875 410.938 14.3125 412.312 14.5625C414.062 14.8125 416.312 15.1875 419.062 15.6875C420.312 16.4375 420.5 17.1875 419.625 17.9375C418.875 18.3125 418.562 18.875 418.688 19.625ZM397.5 18.125V35.75C397.375 39.25 397.438 41.75 397.688 43.25C397.938 44.875 397.375 45.9375 396 46.4375C394.75 46.8125 393.438 47.125 392.062 47.375C389.938 48 389.188 46.875 389.812 44C389.812 43.375 389.812 42.4375 389.812 41.1875C390.188 35.6875 390.375 31.5625 390.375 28.8125V22.625C388.625 24.75 386.875 26.4375 385.125 27.6875C384.75 28.0625 384.5 28.125 384.375 27.875C384.25 27.625 384.312 27.25 384.562 26.75C387.562 20.75 389.938 14.5625 391.688 8.1875C392.312 6.4375 392.75 4.1875 393 1.4375C392.875 0.6875 393.375 0.3125 394.5 0.3125C396 0.6875 398.5 1.4375 402 2.5625C402.75 3.3125 402.75 4.0625 402 4.8125C401.125 5.1875 400.625 5.5625 400.5 5.9375C398.875 9.1875 397.438 12 396.188 14.375C396.312 14.375 396.562 14.4375 396.938 14.5625C397.312 14.5625 397.562 14.5625 397.688 14.5625C398.562 15.1875 398.688 15.8125 398.062 16.4375C397.562 16.8125 397.375 17.375 397.5 18.125ZM420.938 17.375L422.25 12.875H409.875C407.125 17.25 403.625 20.8125 399.375 23.5625C399 23.8125 398.75 23.8125 398.625 23.5625C398.5 23.4375 398.562 23.125 398.812 22.625C402.062 17.625 404.375 12.4375 405.75 7.0625C406 6.0625 406.188 5.125 406.312 4.25C406.562 3.25 406.688 2.3125 406.688 1.4375C406.688 0.5625 407.188 0.25 408.188 0.5C409.312 0.625 411.25 1.125 414 2C414.25 2.125 414.562 2.1875 414.938 2.1875C415.312 2.4375 415.562 2.8125 415.688 3.3125C415.562 3.8125 415.312 4.0625 414.938 4.0625C414.062 4.4375 413.562 4.9375 413.438 5.5625C412.562 7.6875 411.688 9.625 410.812 11.375H421.312C422.188 9.375 423.125 8.1875 424.125 7.8125C426 8.1875 428.188 9.625 430.688 12.125C431.312 12.75 431.562 13.4375 431.438 14.1875C431.312 14.9375 430.688 15.3125 429.562 15.3125C426.562 15.0625 424.062 16 422.062 18.125C421.562 18.5 421.188 18.625 420.938 18.5C420.812 18.375 420.812 18 420.938 17.375ZM434.625 31.8125V20.375C434.625 18.125 434.562 16.4375 434.438 15.3125C434.438 13.9375 434.375 12.625 434.25 11.375C434.125 10 434.562 9.5 435.562 9.875C437.438 10.5 439.438 11.3125 441.562 12.3125H441.938C441.938 10.4375 441.938 8.625 441.938 6.875C441.938 5.125 441.938 3.5 441.938 2C441.688 1.25 442.062 0.9375 443.062 1.0625C445.062 1.1875 447.125 1.5 449.25 2C450 2.125 450.375 2.4375 450.375 2.9375C450.5 3.3125 450.25 3.625 449.625 3.875C449 4.375 448.562 4.9375 448.312 5.5625C447.188 8.0625 445.938 10.3125 444.562 12.3125H448.5C449.625 10.6875 450.5 9.8125 451.125 9.6875C453.625 10.5625 455.688 11.9375 457.312 13.8125C457.312 14.4375 457 14.875 456.375 15.125C455.75 15.5 455.5 15.9375 455.625 16.4375V21.875C458 14.5 459.375 7.8125 459.75 1.8125C459.625 1.1875 459.938 0.875 460.688 0.875C463.438 1.375 466.125 2.0625 468.75 2.9375C469.25 3.3125 469.5 3.6875 469.5 4.0625C469.375 4.4375 469.062 4.75 468.562 5C467.562 5.5 467 6.125 466.875 6.875C466.25 8.875 465.562 10.6875 464.812 12.3125H469.5C471 10.3125 472.062 9.25 472.688 9.125C476.062 10.625 478.375 12.125 479.625 13.625C479.625 14.25 479.25 14.75 478.5 15.125C477.75 15.5 477.438 15.9375 477.562 16.4375C477.438 29.4375 477.188 37.625 476.812 41C476.312 44.5 473.5 46.625 468.375 47.375C466.875 47.625 466 47.3125 465.75 46.4375C465 43.5625 463.312 41.75 460.688 41C459.438 41 459 40.6875 459.375 40.0625C459.25 39.5625 459.75 39.4375 460.875 39.6875C464 40.1875 466.062 40.375 467.062 40.25C468.062 40.125 468.688 39.5 468.938 38.375C469.688 31.375 470.125 23.1875 470.25 13.8125H464.062C462.812 16.3125 461.438 18.625 459.938 20.75C464.562 22.125 467.125 24.625 467.625 28.25C467.625 31.375 466.25 33 463.5 33.125C461.25 33.375 460 32.3125 459.75 29.9375C459.875 27.4375 459.438 24.9375 458.438 22.4375C458.188 22.6875 457.938 22.9375 457.688 23.1875C456.812 24.0625 456.125 24.6875 455.625 25.0625V27.6875C455.625 30.9375 455.812 35.375 456.188 41C456.188 41.875 455.75 42.5 454.875 42.875C453.25 43.25 451.875 43.5 450.75 43.625C449.125 43.875 448.438 43.5 448.688 42.5V39.875H441.375V42.125C441.375 43.625 440.75 44.5 439.5 44.75C438.375 45 437.25 45.1875 436.125 45.3125C434.375 45.5625 433.75 44.8125 434.25 43.0625C434.375 39.8125 434.5 36.0625 434.625 31.8125ZM448.688 13.8125H442.125C441.5 14.1875 441.25 14.75 441.375 15.5V25.625H448.688V13.8125ZM441.375 27.125V38.375H448.688V27.125H441.375ZM516.938 46.625H512.062C507.188 46.75 504.875 44.6875 505.125 40.4375C502.5 41.8125 499.438 43.25 495.938 44.75C495.062 45 494.688 44.9375 494.812 44.5625C494.562 45.5625 493.938 46.25 492.938 46.625C491.438 46.875 490.312 47.125 489.562 47.375C487.438 47.875 486.625 46.875 487.125 44.375C487.125 42.25 487.312 37.875 487.688 31.25C485.938 33.875 483.75 36.1875 481.125 38.1875C480.75 38.4375 480.5 38.5 480.375 38.375C480.25 38.25 480.312 38 480.562 37.625C483.812 30.375 485.875 23.8125 486.75 17.9375H485.25C483.875 17.9375 482.875 18 482.25 18.125C481.75 18.25 481.438 18.1875 481.312 17.9375C481.062 17.5625 480.875 17.1875 480.75 16.8125C480.5 16.4375 480.625 16.25 481.125 16.25C482.625 16.5 484.312 16.625 486.188 16.625H487.688V9.5C486.188 9.75 484.625 9.8125 483 9.6875C482.5 9.8125 482.188 9.6875 482.062 9.3125C482.188 8.9375 482.5 8.6875 483 8.5625C487.875 7.0625 492.312 5.0625 496.312 2.5625C497.188 2.1875 497.875 2.1875 498.375 2.5625C500.125 4.4375 501.562 6 502.688 7.25C503.062 8 502.812 8.4375 501.938 8.5625C501.438 8.4375 500.75 8.4375 499.875 8.5625C498.25 8.8125 496.438 9 494.438 9.125V16.625H495.375C496.875 14.5 497.938 13.375 498.562 13.25C499.812 13.5 501.438 14.625 503.438 16.625C503.812 17.375 503.688 17.8125 503.062 17.9375H494.438V20.5625C494.562 20.5625 494.688 20.5625 494.812 20.5625C496.938 21.1875 498.625 22.25 499.875 23.75C501.125 25.875 500.812 27.5625 498.938 28.8125C496.812 29.6875 495.625 28.9375 495.375 26.5625C495.25 24.4375 494.938 22.875 494.438 21.875V32.375C494.438 35.625 494.562 39.3125 494.812 43.4375C494.812 43.6875 494.812 44 494.812 44.375C494.812 44.125 495 43.9375 495.375 43.8125C498.75 41.5625 502 38.6875 505.125 35.1875V31.4375C505.125 31.8125 505.062 32.0625 504.938 32.1875C503.562 35.4375 501.625 36.5 499.125 35.375C497.375 34.25 497.312 32.625 498.938 30.5C500.688 28.5 501.625 26.1875 501.75 23.5625C501.75 23.1875 501.812 23 501.938 23C502.188 23 502.438 23.125 502.688 23.375C503.938 25.125 504.75 27.125 505.125 29.375V24.3125C505 23.3125 504.938 22.0625 504.938 20.5625C504.812 18.8125 504.688 17.375 504.562 16.25C504.312 15.5 504.25 15.0625 504.375 14.9375C504.625 14.6875 505.125 14.5625 505.875 14.5625C506.625 14.6875 507.5 14.8125 508.5 14.9375C509.625 15.1875 510.812 15.4375 512.062 15.6875C513.312 16.3125 513.5 17.0625 512.625 17.9375C512 18.3125 511.688 18.875 511.688 19.625V25.4375C513.188 22.4375 514.562 19.0625 515.812 15.3125C516.688 12.5625 517.312 10.1875 517.688 8.1875C517.688 6.8125 518.5 6.4375 520.125 7.0625C522.125 7.6875 524.312 8.4375 526.688 9.3125C527.188 9.6875 527.438 10.1875 527.438 10.8125C527.438 11.4375 527.125 11.75 526.5 11.75C525.375 11.875 524.688 12.4375 524.438 13.4375C523.062 16.5625 521.938 19 521.062 20.75C520.812 21.25 520.688 21.5625 520.688 21.6875C524.188 23.4375 526.375 25.6875 527.25 28.4375C528.25 31.6875 527.438 33.6875 524.812 34.4375C521.938 35.1875 520.5 33.6875 520.5 29.9375C520.5 27.6875 520.312 25.4375 519.938 23.1875C517.062 28.5625 514.312 32.625 511.688 35.375V38.5625C511.562 39.6875 512.25 40.1875 513.75 40.0625C515.875 40.4375 517.5 38.375 518.625 33.875C518.875 32.875 519.25 32.375 519.75 32.375C520.25 32.5 520.5 33.0625 520.5 34.0625C520.375 38.0625 521.312 40.1875 523.312 40.4375C525.188 41.4375 525.312 42.8125 523.688 44.5625C521.688 45.9375 519.438 46.625 516.938 46.625ZM508.312 9.5C507.438 7.125 506.5 5.25 505.5 3.875C505.125 3.5 505 3.25 505.125 3.125C505.25 2.875 505.625 2.75 506.25 2.75C510.375 2.875 513.312 4 515.062 6.125C516.438 8.75 516.062 10.75 513.938 12.125C511.438 13.75 509.562 12.875 508.312 9.5ZM554.625 23.5625H557.25C559.5 23.6875 561.188 22.3125 562.312 19.4375C562.562 18.3125 562.938 17.75 563.438 17.75C563.812 17.875 564 18.5 564 19.625C563.875 21.125 564.5 22.3125 565.875 23.1875C567.5 24.5625 567.562 25.9375 566.062 27.3125C563.688 28.6875 561.375 29.3125 559.125 29.1875H546.938C545.312 29.3125 544.062 29.0625 543.188 28.4375C539.438 29.6875 535.375 30.5625 531 31.0625C530.375 31.1875 530 31.125 529.875 30.875C529.875 30.625 530.188 30.3125 530.812 29.9375C535.062 28.4375 538.688 26.9375 541.688 25.4375C541.688 24.9375 541.688 24.375 541.688 23.75V22.625C541.562 21.125 541.5 19.75 541.5 18.5C541.375 17.25 541.25 16.3125 541.125 15.6875C540.875 14.9375 540.875 14.4375 541.125 14.1875C541.375 13.9375 541.875 13.875 542.625 14C544.125 14.125 546 14.5 548.25 15.125C548.875 15.375 549.188 15.6875 549.188 16.0625C549.312 16.5625 549.125 17 548.625 17.375C548.25 17.625 548.125 18 548.25 18.5V21.125V21.6875C549.75 20.5625 551.062 19.4375 552.188 18.3125C550.812 18.4375 549.938 17.8125 549.562 16.4375C549.188 14.5625 548.562 12.9375 547.688 11.5625C547.312 10.9375 547.562 10.625 548.438 10.625C551.688 10.625 553.875 11.375 555 12.875C555.375 13.5 555.562 14.125 555.562 14.75C556.188 13.875 556.812 12.9375 557.438 11.9375C558.062 10.8125 558.938 10.625 560.062 11.375C561.562 12.125 563.25 13.25 565.125 14.75C565.625 15.375 565.812 15.875 565.688 16.25C565.562 16.625 565.188 16.8125 564.562 16.8125C563.438 16.9375 562.562 17.25 561.938 17.75C560.062 19.875 557.625 21.8125 554.625 23.5625ZM535.875 40.4375V38.375C535.875 36.75 535.812 35.6875 535.688 35.1875C535.688 34.5625 535.688 33.6875 535.688 32.5625C535.438 31.9375 535.375 31.5 535.5 31.25C535.75 31 536.25 30.875 537 30.875C539.25 31.25 541.25 31.6875 543 32.1875C544.375 32.6875 544.562 33.4375 543.562 34.4375C542.938 34.8125 542.688 35.3125 542.812 35.9375V42.3125H549V38.9375C548.875 37.9375 548.812 36.6875 548.812 35.1875C548.688 33.6875 548.562 32.3125 548.438 31.0625C548.062 29.8125 548.5 29.3125 549.75 29.5625C550.625 29.6875 551.625 29.8125 552.75 29.9375C554 30.1875 555.25 30.4375 556.5 30.6875C557.625 31.1875 557.75 31.9375 556.875 32.9375C556.125 33.4375 555.812 33.9375 555.938 34.4375V42.3125H561.938V40.25C561.938 36.125 561.875 33.625 561.75 32.75C561.5 32.125 561.438 31.6875 561.562 31.4375C561.812 31.1875 562.312 31.0625 563.062 31.0625C563.688 31.1875 564.312 31.3125 564.938 31.4375C566.688 31.6875 568.062 31.9375 569.062 32.1875C570.188 32.9375 570.312 33.6875 569.438 34.4375C569.062 34.8125 568.875 35.375 568.875 36.125C568.75 38.375 568.812 40.5 569.062 42.5C569.062 43.125 569.125 43.6875 569.25 44.1875C569.5 45.5625 568.625 46.5 566.625 47C565.25 47.125 564.188 47.25 563.438 47.375C562.188 47.625 561.688 46.9375 561.938 45.3125C561.938 44.6875 561.938 44.1875 561.938 43.8125H542.812V44.5625C542.812 45.1875 542.5 45.8125 541.875 46.4375C541.125 47.4375 540.375 47.75 539.625 47.375C537.75 46.375 536.25 45.5 535.125 44.75C534.25 44 534.125 43.3125 534.75 42.6875C535.5 42.0625 535.875 41.3125 535.875 40.4375ZM555.562 7.625H565.312C566.562 5.625 567.625 4.5625 568.5 4.4375C569.875 4.8125 572 6.3125 574.875 8.9375C575.75 9.9375 576 10.8125 575.625 11.5625C575.375 12.0625 574.562 12.1875 573.188 11.9375C570.688 11.5625 568.375 12.25 566.25 14C565.625 14.5 565.188 14.6875 564.938 14.5625C564.688 14.4375 564.625 14 564.75 13.25L565.688 9.125H538.312C538.688 11.375 538.625 13 538.125 14C536.5 16.5 534.375 17.0625 531.75 15.6875C530 14.1875 530.062 12.375 531.938 10.25C533.438 8.625 534.438 7.0625 534.938 5.5625C535.062 5.0625 535.25 4.75 535.5 4.625C535.875 4.625 536.25 4.875 536.625 5.375C537.125 6 537.562 6.75 537.938 7.625H551.062C550.562 7.25 550.25 6.6875 550.125 5.9375C549.5 4.4375 548.812 3.0625 548.062 1.8125C547.688 1.5625 547.562 1.3125 547.688 1.0625C547.812 0.8125 548.125 0.625 548.625 0.5C552.25 0.375 554.812 1 556.312 2.375C557.812 4.625 557.562 6.375 555.562 7.625ZM539.438 24.875C537.188 27.125 535 27.1875 532.875 25.0625C531.625 23.5625 532 22.0625 534 20.5625C535.625 19.5625 536.875 18.1875 537.75 16.4375C538.25 15.6875 538.812 15.6875 539.438 16.4375C541.062 19.8125 541.062 22.625 539.438 24.875ZM567.938 23.5625C567.562 22.0625 566.75 20.25 565.5 18.125C565.25 17.75 565.188 17.5 565.312 17.375C565.438 17.125 565.75 17 566.25 17C569.625 16.875 572.125 17.75 573.75 19.625C575.25 22.25 574.938 24.3125 572.812 25.8125C570.312 26.8125 568.688 26.0625 567.938 23.5625ZM614.062 8.5625H609.75V11.75H613.5C614.75 10 615.5 9.125 615.75 9.125C618.125 10 620.312 11.375 622.312 13.25C622.688 13.875 622.438 14.375 621.562 14.75C621.062 15 620.812 15.4375 620.812 16.0625C620.812 17.5625 620.938 18.6875 621.188 19.4375C621.562 20.8125 621.062 21.75 619.688 22.25C619.062 22.5 618.062 22.75 616.688 23C616.438 23 616.312 23 616.312 23C618.438 23.25 620.062 23.75 621.188 24.5C622.938 26.125 623.125 27.75 621.75 29.375C621 30.125 620.312 30.4375 619.688 30.3125C620.812 30.9375 621.875 31.6875 622.875 32.5625C623.25 33.1875 623.375 33.625 623.25 33.875C623.25 34.125 623 34.25 622.5 34.25C621.5 34.25 620.5 34.25 619.5 34.25C618.625 34.125 617.125 34.0625 615 34.0625V34.4375C615 34.9375 615 36.125 615 38C615.125 40 615.188 41.1875 615.188 41.5625C615.438 43.4375 614.875 44.8125 613.5 45.6875C612.125 46.3125 610.562 46.875 608.812 47.375C607.188 47.75 606.312 47.375 606.188 46.25C605.812 44.375 604.812 43.1875 603.188 42.6875C601.938 42.3125 601.438 41.9375 601.688 41.5625C601.562 41.1875 602.188 41 603.562 41C606.938 41.375 608.438 40.5 608.062 38.375V34.0625H595.5C599 34.8125 601.062 36.1875 601.688 38.1875C602.062 40.1875 601.062 41.5 598.688 42.125C596.688 42.25 595.625 41.625 595.5 40.25C595.5 38.5 595 36.625 594 34.625C593.75 34.5 593.75 34.3125 594 34.0625C593.25 34.1875 592.375 34.3125 591.375 34.4375C590.875 34.5625 590.562 34.4375 590.438 34.0625C589.938 33.8125 589.625 33.375 589.5 32.75C589.125 32.375 589.188 32.25 589.688 32.375C590.812 32.625 592.688 32.6875 595.312 32.5625H608.062V32.1875C607.938 30.6875 607.812 29.5 607.688 28.625C607.688 28.75 607.688 28.6875 607.688 28.4375C603.312 29.4375 599.312 30.125 595.688 30.5C594.938 30.625 594.25 30.9375 593.625 31.4375C592.5 32.3125 591.75 32.0625 591.375 30.6875C591 30.1875 590.625 28.75 590.25 26.375C590 25.5 590.438 25.0625 591.562 25.0625C592.812 25.1875 594.438 25.25 596.438 25.25C598.312 25.25 600.562 25.1875 603.188 25.0625V22.4375H599.438C599.188 23.0625 598.625 23.5 597.75 23.75C597 24 595.938 24.25 594.562 24.5C594.312 24.5 594.188 24.5 594.188 24.5C592.562 24.625 591.938 23.9375 592.312 22.4375C592.312 22.1875 592.312 21.9375 592.312 21.6875C592.312 21.0625 592.375 20 592.5 18.5V15.3125C592.5 13.5625 592.438 11.9375 592.312 10.4375C592.062 9.5625 592.5 9.25 593.625 9.5C596.25 10.125 598.438 10.8125 600.188 11.5625C600.312 11.5625 600.438 11.625 600.562 11.75H603.188V8.5625H595.312C594.438 8.6875 593.5 8.8125 592.5 8.9375C592 9.1875 591.688 9.125 591.562 8.75C591.188 8.25 590.812 7.8125 590.438 7.4375C590.188 7.1875 590.125 7.0625 590.25 7.0625C590.25 6.9375 590.438 6.875 590.812 6.875C592.688 7.125 594.5 7.25 596.25 7.25H603.188V6.6875C603.188 4.8125 603.062 3.375 602.812 2.375C602.688 1.75 602.688 1.375 602.812 1.25C602.938 1.125 603.438 1.0625 604.312 1.0625C607.188 1.4375 609.312 1.9375 610.688 2.5625C611.062 2.8125 611.188 3.0625 611.062 3.3125C611.062 3.6875 610.875 3.9375 610.5 4.0625C610 4.4375 609.75 4.9375 609.75 5.5625V7.25H614.625C615.75 5.25 616.75 3.9375 617.625 3.3125C618.875 3.6875 620.562 5 622.688 7.25C622.938 7.75 623 8.1875 622.875 8.5625C622.625 8.8125 622.312 8.875 621.938 8.75C621.562 8.75 620.688 8.75 619.312 8.75C616.938 8.625 615.188 8.5625 614.062 8.5625ZM588.75 19.0625V43.25C588.75 44.75 588.125 45.75 586.875 46.25C586.375 46.375 585.562 46.5 584.438 46.625C583.812 46.75 583.438 46.875 583.312 47C581.562 47.25 580.875 46.1875 581.25 43.8125C581.375 42.3125 581.5 40.3125 581.625 37.8125C581.625 34.5625 581.688 31.5625 581.812 28.8125V23.9375C580.438 25.5625 578.938 27.1875 577.312 28.8125C576.812 29.3125 576.438 29.5 576.188 29.375C576.062 29.25 576.125 28.8125 576.375 28.0625C578.375 23.6875 580.062 18.1875 581.438 11.5625C581.688 10.4375 581.875 8.9375 582 7.0625C582.25 4.9375 582.438 3.3125 582.562 2.1875C582.438 1.1875 582.938 0.8125 584.062 1.0625C586.062 1.4375 588.375 2 591 2.75C591.5 3 591.812 3.375 591.938 3.875C592.062 4.375 591.875 4.6875 591.375 4.8125C590.375 5.1875 589.812 5.625 589.688 6.125C588.438 10.25 587.375 13.25 586.5 15.125C588 15.5 588.875 15.6875 589.125 15.6875C590 16.1875 590.062 16.8125 589.312 17.5625C588.812 17.9375 588.625 18.4375 588.75 19.0625ZM613.875 13.25H609.75V16.25H613.875V13.25ZM609.75 17.75V20.9375H613.875V17.75H609.75ZM615 30.875V32.5625H615.375C617 30.4375 617.875 29.4375 618 29.5625C618.125 29.5625 618.188 29.5625 618.188 29.5625C618.188 29.5625 618.125 29.5625 618 29.5625C618 29.4375 618 29.25 618 29C617.5 28.25 617 27.5 616.5 26.75C615.625 27 614.812 27.1875 614.062 27.3125C612.938 27.4375 612.125 27.5625 611.625 27.6875C611.75 27.8125 612 27.875 612.375 27.875C613.375 28 614.312 28.0625 615.188 28.0625C615.938 28.4375 616.062 29 615.562 29.75C615.188 30.25 615 30.625 615 30.875ZM599.438 17.75V20.9375H603.188V17.75H599.438ZM599.438 14.375V16.25H603.188V13.25H600C599.625 13.5 599.438 13.875 599.438 14.375ZM613.875 22.4375H609.75V24.875C611.25 25 612.75 24.9375 614.25 24.6875C614 24.5625 613.688 24.4375 613.312 24.3125C613.062 24.0625 612.875 23.875 612.75 23.75C612.375 23.5 612.5 23.1875 613.125 22.8125C613.375 22.8125 613.812 22.8125 614.438 22.8125C614.188 22.8125 614 22.6875 613.875 22.4375ZM660.75 13.0625H659.25C660.625 13.6875 662.062 14.1875 663.562 14.5625C664.062 14.9375 664.25 15.375 664.125 15.875C664 16.375 663.688 16.5625 663.188 16.4375C662.562 16.4375 661.875 16.8125 661.125 17.5625C659.75 19.1875 658.438 20.5625 657.188 21.6875H659.812C661.312 19.8125 662.438 18.75 663.188 18.5C664.312 19.125 665.5 20.25 666.75 21.875C667 22.375 667.062 22.75 666.938 23C666.938 23.25 666.75 23.3125 666.375 23.1875H656.812V26.5625H659.812C661.562 24.4375 662.562 23.375 662.812 23.375C663.812 23.875 665.125 25 666.75 26.75C667 27.25 667.125 27.5625 667.125 27.6875C667 27.9375 666.75 28 666.375 27.875H656.812V31.4375H661.688C663.188 29.3125 664.25 28.1875 664.875 28.0625C666 28.4375 667.438 29.625 669.188 31.625C669.438 32 669.5 32.3125 669.375 32.5625C669.375 32.6875 669.188 32.75 668.812 32.75H656.812V37.8125C656.812 38.9375 656.375 39.625 655.5 39.875C654.25 40.25 653 40.5 651.75 40.625C650.5 40.875 649.938 40.1875 650.062 38.5625V32.75H643.125C642.125 32.875 641.188 33 640.312 33.125C639.812 33.25 639.5 33.125 639.375 32.75C639.125 32.5 638.875 32.0625 638.625 31.4375C638.5 31.0625 638.625 30.875 639 30.875C640.375 31.25 642 31.4375 643.875 31.4375H650.062V27.875H645.75C644.75 28 643.812 28.125 642.938 28.25C642.438 28.375 642.125 28.25 642 27.875C641.875 27.875 641.75 27.75 641.625 27.5C641.5 27.25 641.375 26.9375 641.25 26.5625C641.125 26.4375 641.062 26.3125 641.062 26.1875C641.062 26.0625 641.25 26 641.625 26C643 26.375 644.625 26.5625 646.5 26.5625H650.062V23.1875H644.062C642.688 23.1875 641.75 23.25 641.25 23.375C640.875 23.625 640.562 23.5625 640.312 23.1875C640.062 22.6875 639.812 22.1875 639.562 21.6875C639.438 21.3125 639.562 21.1875 639.938 21.3125C640.938 21.6875 642.625 21.8125 645 21.6875H647.438C646.438 21.4375 645.875 20.4375 645.75 18.6875C645.5 16.9375 645.062 15.5625 644.438 14.5625C644.062 14.3125 643.938 14.0625 644.062 13.8125C644.312 13.6875 644.688 13.625 645.188 13.625C649.438 14.125 651.625 15.75 651.75 18.5C651.625 20.25 650.75 21.3125 649.125 21.6875H655.312C655.688 19.4375 656.062 16.5625 656.438 13.0625H643.875C643 13.1875 642.062 13.3125 641.062 13.4375C640.688 13.6875 640.375 13.625 640.125 13.25C639.875 13.125 639.688 12.875 639.562 12.5C639.312 12.25 639.125 12 639 11.75C638.75 11.375 638.875 11.25 639.375 11.375C641.5 11.625 643.375 11.75 645 11.75H650.25V7.8125H646.312C645.438 7.9375 644.5 8.0625 643.5 8.1875C643.125 8.3125 642.812 8.1875 642.562 7.8125C642.312 7.6875 642.125 7.5 642 7.25C641.75 7 641.562 6.75 641.438 6.5C641.188 6.375 641.125 6.25 641.25 6.125C641.25 6.125 641.438 6.0625 641.812 5.9375C642.812 6.3125 644.625 6.4375 647.25 6.3125H650.25V5.75C650.125 4.5 650 3.3125 649.875 2.1875C649.375 0.9375 649.875 0.375 651.375 0.5C651.75 0.625 652.25 0.6875 652.875 0.6875C655.375 0.9375 657 1.125 657.75 1.25C658.75 1.75 658.875 2.375 658.125 3.125C657.375 3.25 657.062 3.75 657.188 4.625V6.3125H659.25C659.25 6.1875 659.375 6.0625 659.625 5.9375C660.875 4.1875 661.688 3.3125 662.062 3.3125C663.812 3.9375 665.438 5 666.938 6.5C667.438 7.375 667.188 7.875 666.188 8C664.938 8 663.812 8 662.812 8C662.062 7.875 660.625 7.8125 658.5 7.8125H657.188V11.75H661.688C662.688 10 663.625 8.9375 664.5 8.5625C665.875 9.0625 667.5 10.125 669.375 11.75C669.875 12.625 669.625 13.125 668.625 13.25C667.375 13.25 666.25 13.25 665.25 13.25C664.375 13.125 662.875 13.0625 660.75 13.0625ZM637.312 23.1875V35.375C637.562 38.5 640.375 40.25 645.75 40.625C654.375 40.875 661.812 40.6875 668.062 40.0625C669.938 39.6875 670.938 39.6875 671.062 40.0625C671.312 40.3125 671.062 40.75 670.312 41.375C669.188 42.125 668.5 43.4375 668.25 45.3125C668.125 46.3125 667.375 46.8125 666 46.8125C656.625 47.1875 650 47.125 646.125 46.625C641.75 46.125 638.125 44.125 635.25 40.625C634.5 39.75 633.812 39.6875 633.188 40.4375C631.938 41.5625 630.812 43.3125 629.812 45.6875C629.062 46.8125 628.375 47 627.75 46.25C627 45.5 625.938 43.875 624.562 41.375C624.188 40.625 624.438 40 625.312 39.5C628.938 38.25 630.625 37.0625 630.375 35.9375V21.5H628.688C628.062 21.625 627.312 21.75 626.438 21.875C626.062 22.125 625.812 22.125 625.688 21.875C625.312 21.5 625 20.9375 624.75 20.1875C624.625 19.9375 624.562 19.8125 624.562 19.8125C624.562 19.6875 624.688 19.625 624.938 19.625C625.812 20 627.312 20.125 629.438 20H629.812C630.812 18.25 631.625 17.3125 632.25 17.1875C634.125 17.8125 636.125 18.875 638.25 20.375C638.75 21 638.688 21.5625 638.062 22.0625C637.938 22.1875 637.812 22.25 637.688 22.25C637.312 22.5 637.188 22.8125 637.312 23.1875ZM630.188 9.875C629.812 7.5 629.125 5.4375 628.125 3.6875C627.75 3.4375 627.625 3.125 627.75 2.75C628.125 2.5 628.562 2.375 629.062 2.375C633.938 3.25 636.875 4.9375 637.875 7.4375C638.625 10.8125 637.625 12.9375 634.875 13.8125C632.125 14.6875 630.562 13.375 630.188 9.875ZM685.125 29.9375V29.1875C681.125 31.3125 678.812 32.8125 678.188 33.6875C677.188 34.8125 676.375 34.8125 675.75 33.6875C675.5 33.3125 675.188 32.8125 674.812 32.1875C674.188 31.3125 673.75 30.375 673.5 29.375C673.375 28.875 673.438 28.4375 673.688 28.0625C673.688 27.9375 674 27.75 674.625 27.5C675.75 26.75 676.75 25.8125 677.625 24.6875C678.5 23.3125 679.438 21.75 680.438 20C678.688 20.875 677.562 21.5 677.062 21.875C675.938 23.125 675.125 23.0625 674.625 21.6875C673.625 20.3125 672.938 19 672.562 17.75C672.312 17.25 672.312 16.875 672.562 16.625C672.438 16.5 672.688 16.25 673.312 15.875C674.688 15.25 675.688 14.0625 676.312 12.3125C677.188 10.1875 678 7.1875 678.75 3.3125C678.75 2.0625 679.438 1.625 680.812 2C682.438 2.5 684.062 3.1875 685.688 4.0625C686.062 4.1875 686.438 4.3125 686.812 4.4375C687.312 4.6875 687.562 5.125 687.562 5.75C687.562 6.125 687.25 6.4375 686.625 6.6875C685.875 6.8125 685.25 7.25 684.75 8C682.5 10.75 680.125 13.375 677.625 15.875C679 15.875 680.562 15.875 682.312 15.875C683.062 14.125 683.562 12.625 683.812 11.375C684.062 10 684.75 9.5 685.875 9.875C688 10.75 689.688 11.625 690.938 12.5C691.438 12.875 691.688 13.3125 691.688 13.8125C691.688 14.3125 691.375 14.625 690.75 14.75C690 15 689.438 15.5625 689.062 16.4375C686.062 20.3125 683 24 679.875 27.5C681.25 27.5 682.688 27.3125 684.188 26.9375C684.562 26.9375 684.875 26.875 685.125 26.75C684.875 25.75 684.5 24.75 684 23.75C683.75 23.375 683.688 23.125 683.812 23C683.938 22.875 684.188 22.8125 684.562 22.8125C685.812 23.1875 687 23.75 688.125 24.5C688 24.5 688.062 24.4375 688.312 24.3125C693.812 16.8125 696.875 9.75 697.5 3.125C697.375 2.25 697.875 1.875 699 2C701.875 2.875 704.312 3.5625 706.312 4.0625C706.812 4.3125 707 4.6875 706.875 5.1875C706.875 5.6875 706.625 6 706.125 6.125C706 6.25 705.875 6.3125 705.75 6.3125C705.5 6.4375 705.188 6.625 704.812 6.875C708.938 12 713.5 15.5 718.5 17.375C719.25 17.75 719.688 18.125 719.812 18.5C719.812 19 719.438 19.3125 718.688 19.4375C717.188 20.3125 716.062 21.5625 715.312 23.1875C714.938 24.0625 714.312 24.1875 713.438 23.5625C712.812 23.3125 712.188 22.875 711.562 22.25H693.562C692.188 23.375 690.625 24.375 688.875 25.25C689.875 26.125 690.5 27.125 690.75 28.25C691 30.25 690.312 31.625 688.688 32.375C686.562 33.125 685.375 32.3125 685.125 29.9375ZM692.438 36.3125V32.75C692.312 30.625 692.125 29.0625 691.875 28.0625C691.625 27.0625 692.125 26.625 693.375 26.75C695.875 27.375 697.812 27.875 699.188 28.25C699.438 28.5 699.688 28.6875 699.938 28.8125H706.312C707.062 27.3125 707.75 26.5 708.375 26.375C711.375 27.375 713.688 28.625 715.312 30.125C715.438 30.5 715.188 30.9375 714.562 31.4375C714.188 31.6875 714 32.125 714 32.75C714 34.25 714 36.1875 714 38.5625C714.125 40.6875 714.25 42.5 714.375 44C714.375 45.375 713.938 46.1875 713.062 46.4375C712.688 46.4375 711.562 46.625 709.688 47C709.312 47 709 47.0625 708.75 47.1875C707.25 47.1875 706.562 46.625 706.688 45.5V42.3125H699V44.1875C699 45.6875 698.5 46.5625 697.5 46.8125C696 46.9375 694.75 47.0625 693.75 47.1875C692.5 47.4375 692 46.75 692.25 45.125C692.375 43.5 692.438 40.5625 692.438 36.3125ZM706.688 30.3125H699.188C699.188 30.4375 699.125 30.5625 699 30.6875C699 31.0625 699 31.3125 699 31.4375V41H706.688V30.3125ZM695.438 20.9375H705.562C706.438 19.0625 707.188 18 707.812 17.75C707.688 17.75 707.75 17.75 708 17.75C706.5 15.25 705.188 12.1875 704.062 8.5625C702.062 13.6875 699.188 17.8125 695.438 20.9375ZM673.125 41C674.625 40 675.75 38.1875 676.5 35.5625C676.5 35.3125 676.562 35.1875 676.688 35.1875C676.938 35.1875 677.188 35.3125 677.438 35.5625C678.812 38.5625 678.875 41.375 677.625 44C676.375 45.75 674.812 46.0625 672.938 44.9375C672.312 44.3125 672.062 43.6875 672.188 43.0625C672.188 42.1875 672.5 41.5 673.125 41ZM679.688 41.375C680.188 39.125 680.25 36.875 679.875 34.625C679.75 34.375 679.812 34.1875 680.062 34.0625C680.188 33.9375 680.438 33.9375 680.812 34.0625C683.312 36.1875 684.75 38.5 685.125 41C685 42.625 684.062 43.625 682.312 44C680.312 44 679.438 43.125 679.688 41.375ZM686.062 40.0625C685.812 37.3125 685.25 35.25 684.375 33.875C684.125 33.75 684.062 33.5625 684.188 33.3125C684.312 33.1875 684.562 33.125 684.938 33.125C687.812 33.875 689.812 35.5 690.938 38C691.438 40 690.812 41.3125 689.062 41.9375C687.188 42.3125 686.188 41.6875 686.062 40.0625ZM730.875 24.6875V20.375H725.062C724.062 20.5 723.125 20.625 722.25 20.75C721.75 21 721.438 20.875 721.312 20.375C721.062 20.125 720.812 19.75 720.562 19.25C720.312 19.125 720.188 19 720.188 18.875C720.312 18.875 720.5 18.8125 720.75 18.6875C720.875 18.8125 721.188 18.875 721.688 18.875C723.938 19.25 725.375 19.375 726 19.25H729.562V11.5625H725.25C724.25 11.6875 723.312 11.8125 722.438 11.9375C721.938 12.0625 721.625 11.9375 721.5 11.5625C721.375 11.4375 721.25 11.25 721.125 11C720.875 10.875 720.75 10.6875 720.75 10.4375C720.5 10.3125 720.438 10.1875 720.562 10.0625C720.562 10.0625 720.75 10 721.125 9.875C722.75 10.125 724.438 10.25 726.188 10.25H729.562C729.438 7.875 729.312 5.125 729.188 2C728.938 1 729.438 0.5 730.688 0.5C732.688 0.625 734.75 1 736.875 1.625C737.5 2 737.875 2.375 738 2.75C738 3.25 737.75 3.6875 737.25 4.0625C736.875 4.3125 736.688 4.8125 736.688 5.5625V10.25H737.438C738.562 8.25 739.562 7.125 740.438 6.875C742.188 7.625 743.812 8.8125 745.312 10.4375C745.688 11.1875 745.5 11.5625 744.75 11.5625H736.688V19.25H738C739.125 16.625 740.062 15.25 740.812 15.125C741.438 15.25 742.688 16.0625 744.562 17.5625C745.938 14.9375 746.625 11.0625 746.625 5.9375C746.25 6.0625 745.75 6.125 745.125 6.125C744.5 6.25 744.125 6.3125 744 6.3125C743.625 6.4375 743.375 6.3125 743.25 5.9375C742.875 5.6875 742.625 5.4375 742.5 5.1875C742.25 5.0625 742.125 4.9375 742.125 4.8125C742.25 4.6875 742.438 4.625 742.688 4.625C742.938 4.625 743.625 4.6875 744.75 4.8125C746.625 4.8125 748 4.8125 748.875 4.8125H756.938C758.188 2.8125 759.062 1.8125 759.562 1.8125C762.438 2.6875 764.75 4.125 766.5 6.125C766.5 6.75 766.188 7.1875 765.562 7.4375C764.812 7.9375 764.438 8.4375 764.438 8.9375L764.062 14.1875C763.812 18.0625 761.438 20.5 756.938 21.5C755.812 21.75 755.125 21.375 754.875 20.375C754.25 18.75 753.062 17.5 751.312 16.625C751.188 16.625 751.062 16.625 750.938 16.625C750.812 16.5 750.75 16.375 750.75 16.25C749.125 18.375 747.312 20.125 745.312 21.5C745.438 21.5 745.5 21.5 745.5 21.5C746.875 21.875 748.812 22.4375 751.312 23.1875C751.562 23.3125 751.812 23.5625 752.062 23.9375C752.062 23.9375 752.125 23.9375 752.25 23.9375H756C757.25 22.1875 758.062 21.3125 758.438 21.3125C760.938 22.0625 763.062 23.25 764.812 24.875C765.312 25.75 765.25 26.375 764.625 26.75C763.875 27.125 763.5 27.5625 763.5 28.0625C763.5 28.1875 763.5 29.3125 763.5 31.4375C763.625 34.1875 763.688 35.625 763.688 35.75C763.812 37 763.438 37.75 762.562 38C762.188 38.125 761.562 38.25 760.688 38.375C759.438 38.375 758.5 38.375 757.875 38.375C757.125 38.625 756.75 38.125 756.75 36.875V35H751.125V37.25C751.125 38.25 750.812 38.75 750.188 38.75C749.438 39.125 747.875 39.25 745.5 39.125C744.125 39.375 743.688 38.5625 744.188 36.6875C744.188 35.6875 744.188 33.5 744.188 30.125H737.812V39.875C738.938 40.125 740.25 40.25 741.75 40.25C744.625 40.5 748.625 40.5 753.75 40.25C758.75 40 762.5 39.625 765 39.125C766.75 38.875 767.625 38.8125 767.625 38.9375C767.875 39.4375 767.625 39.9375 766.875 40.4375C765.25 41.5625 764.312 43.0625 764.062 44.9375C764.062 46.0625 763.312 46.625 761.812 46.625C760.562 46.625 758.188 46.5625 754.688 46.4375C750.562 46.4375 746.5 46.375 742.5 46.25C735.375 46.375 730.375 43.125 727.5 36.5C726.125 40 724.312 43.3125 722.062 46.4375C721.438 47.0625 720.938 47.3125 720.562 47.1875C720.312 47.0625 720.312 46.625 720.562 45.875C722.312 38.75 723 31.75 722.625 24.875C722.375 23.75 722.75 23.25 723.75 23.375C725.125 23.5 727.375 23.875 730.5 24.5C730.625 24.625 730.75 24.6875 730.875 24.6875ZM756.75 25.25H751.312C751.312 25.375 751.25 25.5 751.125 25.625C751.125 26 751.125 26.25 751.125 26.375V33.875H756.75V25.25ZM757.688 5.9375H754.875C754.75 6.1875 754.625 6.375 754.5 6.5C754.125 6.75 753.875 7.0625 753.75 7.4375C753.375 10.4375 752.562 13.0625 751.312 15.3125H751.5C755.5 16.3125 757.312 15.3125 756.938 12.3125L757.688 5.9375ZM744.188 27.3125V26C744.188 25 744.188 24 744.188 23C743.938 22.75 743.875 22.5 744 22.25C743.5 22.625 743 22.875 742.5 23C741.875 23.375 741.375 23.4375 741 23.1875C740.625 22.8125 740.688 22.4375 741.188 22.0625C741.688 21.5625 742.188 21 742.688 20.375H738.75C738.75 20.75 738.625 21.125 738.375 21.5C737.875 21.75 737.688 22.3125 737.812 23.1875V28.8125C739.312 26.8125 740.438 25.6875 741.188 25.4375C741.938 25.5625 742.938 26.1875 744.188 27.3125ZM730.875 35.375V26.75C730.875 26.75 730.812 26.75 730.688 26.75C730.062 27.25 729.688 27.9375 729.562 28.8125C729.312 29.9375 729.062 31.0625 728.812 32.1875C729.438 33.4375 730.125 34.5 730.875 35.375ZM805.312 19.625H791.625C791.5 19.75 791.438 19.8125 791.438 19.8125C790.812 20.1875 790.562 20.75 790.688 21.5V36.3125C790.688 38.0625 790.062 38.9375 788.812 38.9375C787.938 39.1875 786.938 39.3125 785.812 39.3125C784.688 39.5625 784.125 38.9375 784.125 37.4375C784.125 36.0625 784.125 34.8125 784.125 33.6875C784.25 32.8125 784.312 31.375 784.312 29.375V23.5625C784.312 22.0625 784.25 20.9375 784.125 20.1875C784.125 19.3125 784.125 18.4375 784.125 17.5625C784 17.0625 784 16.75 784.125 16.625C784.25 16.5 784.625 16.4375 785.25 16.4375C785.25 16.5625 785.375 16.625 785.625 16.625C786.375 16.75 787.25 16.9375 788.25 17.1875V11.375C788.25 7.625 788.125 5.125 787.875 3.875C787.75 3.125 787.75 2.625 787.875 2.375C788 2.25 788.438 2.1875 789.188 2.1875C791.438 2.6875 793.125 3.0625 794.25 3.3125C794.375 3.5625 794.562 3.75 794.812 3.875H801.188C801.938 2.25 802.688 1.3125 803.438 1.0625C804.938 1.3125 806.75 2.25 808.875 3.875C809.375 4.625 809.25 5.1875 808.5 5.5625C807.75 5.9375 807.438 6.3125 807.562 6.6875V15.875C810.188 17 812.062 18.1875 813.188 19.4375C813.438 20.3125 813.25 20.875 812.625 21.125C812 21.5 811.75 21.9375 811.875 22.4375V34.8125C812.125 37.5625 810.312 39.1875 806.438 39.6875C804.812 40.0625 804 39.75 804 38.75C803.625 37.25 802.875 36.1875 801.75 35.5625C801 35.1875 800.688 34.8125 800.812 34.4375C800.812 34.1875 801.25 34.125 802.125 34.25C804.5 34.625 805.562 33.9375 805.312 32.1875V19.625ZM781.875 24.6875V35.9375C781.875 38.4375 784.688 40 790.312 40.625C793.688 40.875 797.25 41 801 41C804.75 41 808.438 40.75 812.062 40.25C813.938 40 815 39.9375 815.25 40.0625C815.5 40.4375 815.188 40.875 814.312 41.375C813.062 42.5 812.438 43.8125 812.438 45.3125C812.188 46.4375 811.438 47 810.188 47C806.062 47.125 802.312 47.125 798.938 47C795.562 47 792.812 46.875 790.688 46.625C786.812 46.25 783.188 44.3125 779.812 40.8125C778.938 39.9375 778.188 39.8125 777.562 40.4375C775.688 42.5625 774.625 44.5 774.375 46.25C774.125 46.875 773.812 47.25 773.438 47.375C773.188 47.375 772.812 47.1875 772.312 46.8125C771.062 46.0625 769.812 44.75 768.562 42.875C768.188 42.375 768.375 41.875 769.125 41.375C773.25 39.125 775.188 37.4375 774.938 36.3125V22.25H772.312C771.688 22.375 770.875 22.5 769.875 22.625C769.5 22.875 769.25 22.875 769.125 22.625C768.625 22.125 768.312 21.5625 768.188 20.9375C768.062 20.8125 768 20.6875 768 20.5625C768.125 20.4375 768.312 20.375 768.562 20.375C769.312 20.75 770.75 20.875 772.875 20.75H774.75C775.75 19.125 776.5 18.3125 777 18.3125C779.125 18.8125 781.125 20 783 21.875C783.375 22.5 783.25 23 782.625 23.375C782 23.625 781.75 24.0625 781.875 24.6875ZM796.688 23.1875H798.375C799.375 21.8125 800.125 21.0625 800.625 20.9375C802.25 21.4375 803.75 22.5625 805.125 24.3125C805 24.8125 804.688 25.25 804.188 25.625C803.938 25.75 803.812 26.1875 803.812 26.9375C803.812 28.0625 803.812 29.25 803.812 30.5C803.938 31.875 803.688 32.625 803.062 32.75C801.938 33.25 801.062 33.4375 800.438 33.3125C799.438 33.5625 799 33.0625 799.125 31.8125V31.25H796.5V32.1875C796.5 33.0625 796.125 33.5625 795.375 33.6875C795.125 33.8125 794.875 33.9375 794.625 34.0625C794.25 34.1875 793.812 34.3125 793.312 34.4375C791.938 34.6875 791.375 34.0625 791.625 32.5625C791.875 30.5625 791.938 28.75 791.812 27.125C791.812 24.875 791.75 23.5625 791.625 23.1875C791.375 22.4375 791.375 22 791.625 21.875C791.75 21.625 792.25 21.5625 793.125 21.6875C794 21.8125 795.062 22.1875 796.312 22.8125C796.438 22.9375 796.562 23.0625 796.688 23.1875ZM775.125 8.9375C774.75 6.4375 774.062 4.625 773.062 3.5C772.562 2.875 772.875 2.4375 774 2.1875C778.5 3.0625 781.188 4.625 782.062 6.875C782.688 9.75 781.812 11.625 779.438 12.5C776.938 13.375 775.5 12.1875 775.125 8.9375ZM801.75 5H794.438C794.062 5.125 793.938 5.5625 794.062 6.3125V10.0625H795C795.875 8.8125 796.562 8.1875 797.062 8.1875C798.562 8.6875 799.875 9.5 801 10.625C801.5 11.375 801.375 11.9375 800.625 12.3125C800.125 12.5625 799.875 13.1875 799.875 14.1875V18.125H801.75V5ZM799.125 24.6875H796.5V29.9375H799.125V24.6875ZM795.562 11.375H794.062V18.125H795.562V11.375ZM848.25 7.0625H843.75C843.875 7.4375 843.688 7.75 843.188 8C842.688 8.25 842.5 8.625 842.625 9.125V15.875H850.875C852 14 852.812 13 853.312 12.875C855.938 13.875 858.188 15.3125 860.062 17.1875C860.062 17.8125 859.75 18.25 859.125 18.5C858.5 18.875 858.25 19.375 858.375 20V30.6875C858.375 33.8125 858.5 37.5 858.75 41.75C858.875 44 857.938 45.5625 855.938 46.4375C855.062 46.6875 854.062 47 852.938 47.375C852.688 47.375 852.562 47.4375 852.562 47.5625C851.312 47.6875 850.5 47.3125 850.125 46.4375C849.625 44.3125 848.062 42.8125 845.438 41.9375C844.562 41.6875 844.25 41.375 844.5 41C844.5 40.875 845 40.75 846 40.625C850.125 40.875 852 40.1875 851.625 38.5625V34.8125C849.625 35.9375 848.312 35.1875 847.688 32.5625C847.562 31.8125 847.438 30.9375 847.312 29.9375C845.938 31.9375 844.375 33.5625 842.625 34.8125V43.8125C842.625 44.9375 842.062 45.6875 840.938 46.0625C839.562 46.4375 838.312 46.625 837.188 46.625C836.062 46.75 835.625 46.25 835.875 45.125C835.75 44.625 835.75 43.5625 835.875 41.9375C836 39.1875 836.062 37 836.062 35.375C833.562 36.625 832.188 36 831.938 33.5C831.812 33.25 831.688 32.875 831.562 32.375C831.562 31.875 831.562 31.4375 831.562 31.0625C830.312 32.8125 828.938 34.375 827.438 35.75V44C827.438 45 826.812 45.8125 825.562 46.4375C824.438 46.9375 823.062 47.1875 821.438 47.1875C820.438 47.1875 820.062 46.6875 820.312 45.6875C820.438 43.3125 820.562 40.875 820.688 38.375C820.688 35.875 820.75 33.8125 820.875 32.1875V23.1875C820.75 19.6875 820.625 16.875 820.5 14.75C820.125 13.25 820.688 12.6875 822.188 13.0625C823.062 13.5625 824.625 14.1875 826.875 14.9375C827.375 15.1875 827.75 15.3125 828 15.3125C828.25 15.5625 828.5 15.75 828.75 15.875H836.25V7.0625H825.938C822.188 7.0625 819.875 7.1875 819 7.4375C818.375 7.5625 818 7.5 817.875 7.25C817.75 7.125 817.562 6.875 817.312 6.5C817.062 6.125 816.938 5.8125 816.938 5.5625C816.688 5.3125 816.812 5.1875 817.312 5.1875C820.188 5.4375 823.438 5.5625 827.062 5.5625H853.5C855.125 2.9375 856.25 1.625 856.875 1.625C858.5 2.125 860.312 3.4375 862.312 5.5625C862.688 6.0625 862.812 6.5 862.688 6.875C862.562 7.25 862.25 7.4375 861.75 7.4375C859.875 7.3125 857.938 7.25 855.938 7.25C854.188 7.125 851.625 7.0625 848.25 7.0625ZM827.438 18.875V32.375C828.312 30.5 829.125 28.3125 829.875 25.8125C829.625 25.4375 829.375 25 829.125 24.5C828.75 23.625 828.5 23 828.375 22.625C828.125 22.25 828.062 22 828.188 21.875C828.438 21.75 828.75 21.75 829.125 21.875C832.125 24.125 834.5 26.5625 836.25 29.1875V17.375H828C827.625 17.875 827.438 18.375 827.438 18.875ZM851.625 17.375H842.625V32C844 29.875 845 27.375 845.625 24.5C845.25 23.625 844.875 22.75 844.5 21.875C844.25 21.5 844.188 21.1875 844.312 20.9375C844.562 20.8125 844.875 20.875 845.25 21.125C848.125 23.375 850.25 25.625 851.625 27.875V17.375ZM903.375 45.5V42.875H886.5V43.0625C886.625 44.9375 886 46.0625 884.625 46.4375C883.5 46.8125 882.25 47.0625 880.875 47.1875C879.5 47.3125 879 46.4375 879.375 44.5625C879.5 42.6875 879.625 40.4375 879.75 37.8125C879.75 34.6875 879.812 31.6875 879.938 28.8125V11.75C879.938 11.375 879.875 10.625 879.75 9.5C879.75 8.125 879.75 7.125 879.75 6.5C879.125 6.75 878.688 7.1875 878.438 7.8125C877.438 10.3125 876.438 12.5 875.438 14.375C875.562 14.625 875.688 14.6875 875.812 14.5625C876.812 15.1875 876.938 15.8125 876.188 16.4375C875.562 16.9375 875.25 17.5 875.25 18.125V43.4375C875.25 45.0625 874.688 46 873.562 46.25C872.562 46.5 871.75 46.75 871.125 47C869.125 47.5 868.312 46.5625 868.688 44.1875C868.812 42.1875 868.938 39.8125 869.062 37.0625C869.062 33.9375 869.125 30.875 869.25 27.875V23.75C867.875 25.25 867 26.1875 866.625 26.5625C866 27.0625 865.625 27.375 865.5 27.5C865.125 27.875 864.812 28 864.562 27.875C864.438 27.75 864.5 27.4375 864.75 26.9375C868 20.6875 870.188 14.75 871.312 9.125C871.438 8.125 871.562 7.125 871.688 6.125C871.812 5 871.938 4 872.062 3.125C871.812 2.25 872.312 1.9375 873.562 2.1875C875.438 2.5625 877.375 3.125 879.375 3.875C879.375 3.875 879.375 3.8125 879.375 3.6875C879.125 2.9375 879.125 2.4375 879.375 2.1875C879.5 1.9375 880 1.875 880.875 2C881.5 2.125 883.125 2.625 885.75 3.5C886.375 3.625 886.812 3.6875 887.062 3.6875C887.312 3.9375 887.562 4.1875 887.812 4.4375H901.875C903.125 2.4375 904.125 1.3125 904.875 1.0625C906.375 1.1875 908.375 2.375 910.875 4.625C911.5 5.25 911.375 6.0625 910.5 7.0625C909.875 7.5625 909.625 8.0625 909.75 8.5625V27.125C909.75 28.5 909.75 30.75 909.75 33.875C909.875 37.625 910.062 40.9375 910.312 43.8125C910.562 45.1875 910 46.0625 908.625 46.4375C907.75 46.8125 906.5 47.0625 904.875 47.1875C903.75 47.1875 903.25 46.625 903.375 45.5ZM897.375 16.8125V22.25C897.875 21.75 898.312 21.4375 898.688 21.3125C900.062 21.9375 901.5 23 903 24.5C903.125 25.375 903 25.875 902.625 26C902 26.5 901.688 26.9375 901.688 27.3125V36.3125C901.688 37.3125 901.438 37.9375 900.938 38.1875C900.188 38.4375 899.375 38.5625 898.5 38.5625C896.875 38.9375 896.188 38.5625 896.438 37.4375V35H893.25V36.6875C893.25 37.8125 892.812 38.5 891.938 38.75C891.312 39 890.875 39.1875 890.625 39.3125C890.25 39.4375 889.938 39.4375 889.688 39.3125C888.438 39.6875 887.875 39.125 888 37.625V28.0625C887.875 26.3125 887.75 24.75 887.625 23.375C887.25 22.125 887.75 21.625 889.125 21.875C889.375 21.875 890.312 22.125 891.938 22.625V16.8125H886.5V41.375H903.375V16.8125H897.375ZM897.375 10.4375V15.6875H897.562C898.812 13.6875 899.562 12.6875 899.812 12.6875C900.562 12.9375 901.75 13.75 903.375 15.125V5.75H887.625C887.5 6 887.438 6.0625 887.438 5.9375C886.688 6.3125 886.375 6.875 886.5 7.625V15.6875H891.938V12.3125C891.812 11.0625 891.75 10 891.75 9.125C891.75 8.375 891.75 7.875 891.75 7.625C891.375 6.5 891.812 5.9375 893.062 5.9375C893.188 6.0625 893.375 6.125 893.625 6.125C895.75 6.5 897.188 6.75 897.938 6.875C898.812 7.375 898.938 7.9375 898.312 8.5625C897.562 9.1875 897.25 9.8125 897.375 10.4375ZM896.438 24.6875H893.625C893.375 25.0625 893.25 25.4375 893.25 25.8125V33.875H896.438V24.6875ZM938.25 6.875V9.125C938.25 16.375 939.75 22.375 942.75 27.125C946.5 32.75 951.625 36.625 958.125 38.75C959.375 39.25 959.938 39.625 959.812 39.875C959.812 40 959.625 40.125 959.25 40.25C959.125 40.375 958.938 40.5 958.688 40.625C955.938 41.75 954.062 43.25 953.062 45.125C952.438 46.625 951.5 46.8125 950.25 45.6875C941.5 40.8125 937.25 31.5 937.5 17.75C936.625 32.875 928.5 42.25 913.125 45.875C912.75 46 912.5 45.875 912.375 45.5C912.25 45.25 912.438 45 912.938 44.75C924.812 38.5 930.75 26.375 930.75 8.375C930.625 6 930.5 4.375 930.375 3.5C930.125 2.875 930.125 2.4375 930.375 2.1875C930.5 2.0625 931 2 931.875 2C934.25 2.25 936.625 2.6875 939 3.3125C939.625 3.5625 939.938 3.9375 939.938 4.4375C939.938 5.0625 939.625 5.4375 939 5.5625C938.375 5.8125 938.125 6.25 938.25 6.875ZM1005.19 20.5625H997.312V25.8125H999.562C999.562 25.8125 999.688 25.625 999.938 25.25C1000.81 24 1001.5 23.375 1002 23.375C1004.75 24.5 1006.69 25.8125 1007.81 27.3125C1007.81 27.8125 1007.56 28.3125 1007.06 28.8125C1006.69 29.0625 1006.5 29.5 1006.5 30.125C1006.25 33.625 1006 37.125 1005.75 40.625C1005.38 43.875 1002.62 45.875 997.5 46.625C996.25 46.75 995.5 46.375 995.25 45.5C994.875 43.5 993.625 42.0625 991.5 41.1875C990.75 41.0625 990.5 40.8125 990.75 40.4375C990.625 40.1875 991.062 40.0625 992.062 40.0625C997.188 40.6875 999.625 40.0625 999.375 38.1875C999.5 37.5625 999.562 36.9375 999.562 36.3125C999.188 36.9375 998.625 37.3125 997.875 37.4375C996.25 37.5625 995.375 36.6875 995.25 34.8125C994.875 32.5625 994.312 30.75 993.562 29.375C993.438 28.75 993.688 28.5 994.312 28.625C997.188 29.75 999.062 31 999.938 32.375C999.938 32.625 999.938 32.6875 999.938 32.5625C999.938 31.9375 999.938 31.25 999.938 30.5C1000.06 29.75 1000.12 28.6875 1000.12 27.3125H986.625C986.625 27.4375 986.562 27.5625 986.438 27.6875C986.312 27.8125 986.312 27.875 986.438 27.875C985.812 28.625 985.188 28.875 984.562 28.625C982.812 28.25 981.438 27.6875 980.438 26.9375C979.562 26.4375 979.438 25.8125 980.062 25.0625C980.688 24.4375 981 23.3125 981 21.6875V8.5625C981 6.9375 980.938 5.8125 980.812 5.1875C980.562 4.4375 980.5 3.9375 980.625 3.6875C980.875 3.4375 981.375 3.375 982.125 3.5C984.625 4 986.562 4.5625 987.938 5.1875C988.312 5.4375 988.625 5.625 988.875 5.75H999.75C1000.75 4 1001.56 3 1002.19 2.75C1003.44 3.25 1004.75 4.25 1006.12 5.75C1006.38 6.125 1006.5 6.5 1006.5 6.875C1006.38 7.125 1006.12 7.25 1005.75 7.25H997.312V12.5H999.375C1000.12 10.875 1000.94 9.8125 1001.81 9.3125C1003.06 9.8125 1004.38 10.875 1005.75 12.5C1006.25 13.375 1006.12 13.875 1005.38 14H997.312V19.0625H999.375C1000.12 17.6875 1000.88 16.6875 1001.62 16.0625C1002.75 16.4375 1004.06 17.4375 1005.56 19.0625C1005.81 19.4375 1005.94 19.8125 1005.94 20.1875C1005.81 20.4375 1005.56 20.5625 1005.19 20.5625ZM962.438 22.25V15.125C962.312 11.875 962.188 8.8125 962.062 5.9375C961.938 5.3125 961.938 4.9375 962.062 4.8125C962.312 4.5625 962.75 4.5 963.375 4.625C965.375 5.25 967.375 5.9375 969.375 6.6875C969.75 6.9375 970 7.1875 970.125 7.4375H970.875C971.625 5.6875 972.375 4.6875 973.125 4.4375C975 4.9375 977.125 6.125 979.5 8C979.625 8.625 979.312 9.125 978.562 9.5C978.188 9.75 978 10.1875 978 10.8125V20.9375C978 22.0625 978 23.5625 978 25.4375C978.125 27.1875 978.25 28.375 978.375 29C978.5 30 978.125 30.625 977.25 30.875C976 31.5 974.688 31.8125 973.312 31.8125C971.688 32.1875 971 31.8125 971.25 30.6875V29.375H969.188V30.6875C969.188 32.6875 968.625 33.75 967.5 33.875C967.125 34 966.75 34.0625 966.375 34.0625C965.125 34.4375 964.25 34.5625 963.75 34.4375C962 34.6875 961.375 33.875 961.875 32C962 31.375 962.125 30.1875 962.25 28.4375C962.25 26.4375 962.312 24.375 962.438 22.25ZM976.125 35.75C977.75 34.25 978.938 32.3125 979.688 29.9375C979.688 29.6875 979.75 29.5625 979.875 29.5625C980.125 29.5625 980.375 29.6875 980.625 29.9375C982.125 32.4375 982.125 35.3125 980.625 38.5625C979.375 40.1875 977.875 40.5 976.125 39.5C974.875 38.375 974.875 37.125 976.125 35.75ZM971.25 8.75H969.188C969.188 9.125 969.188 9.4375 969.188 9.6875V28.0625H971.25V8.75ZM989.25 35.9375C989.25 33.8125 988.812 31.75 987.938 29.75C987.688 29.5 987.625 29.3125 987.75 29.1875C987.875 29.0625 988.125 29.0625 988.5 29.1875C991.25 30.3125 993.062 31.875 993.938 33.875C994.812 36.75 994.125 38.3125 991.875 38.5625C990.25 38.8125 989.375 37.9375 989.25 35.9375ZM983.062 35.9375C983.562 34.0625 983.5 32.125 982.875 30.125C982.75 29.875 982.75 29.75 982.875 29.75C983.125 29.625 983.438 29.625 983.812 29.75C986.062 31.25 987.438 33.0625 987.938 35.1875C988.188 38.0625 987.188 39.4375 984.938 39.3125C983.562 39.1875 982.938 38.0625 983.062 35.9375ZM987.375 25.8125H991.125V20.5625H987.562V25.625C987.438 25.875 987.375 25.9375 987.375 25.8125ZM987.562 14V19.0625H991.125V14H987.562ZM987.562 8.75V12.5H991.125V7.25H988.125C987.625 7.5 987.438 8 987.562 8.75ZM1021.69 34.0625H1019.25V31.0625C1019.25 29.4375 1019.88 27.6875 1021.12 25.8125C1022.75 23.8125 1023.56 21.75 1023.56 19.625C1023.56 15.125 1022.06 12.8125 1019.06 12.6875C1016.69 12.9375 1015.06 13.8125 1014.19 15.3125C1014.44 15.3125 1014.69 15.3125 1014.94 15.3125C1017.31 15.4375 1018.56 16.5 1018.69 18.5C1018.44 20.5 1017.19 21.625 1014.94 21.875C1012.56 21.75 1011.31 20.4375 1011.19 17.9375C1011.56 13.5625 1014.75 11.125 1020.75 10.625C1027.12 11 1030.56 13.375 1031.06 17.75C1031.06 20.375 1029.44 22.875 1026.19 25.25C1023.19 27.5 1021.69 29.75 1021.69 32V34.0625ZM1016.25 40.0625C1016.5 37.6875 1017.81 36.3125 1020.19 35.9375C1022.69 36.1875 1024.06 37.5625 1024.31 40.0625C1023.94 42.0625 1022.56 43.25 1020.19 43.625C1017.81 43.25 1016.5 42.0625 1016.25 40.0625Z" fill="#10656A"/>
</svg>
