<svg width="1106" height="49" viewBox="0 0 1106 49" fill="none" xmlns="http://www.w3.org/2000/svg">
<path d="M34.6875 19.625V23.1875C34.6875 22.8125 35.0625 22.8125 35.8125 23.1875C40.6875 25.0625 44.1875 28.0625 46.3125 32.1875C47.0625 35.6875 46.125 38 43.5 39.125C40.875 39.625 39.3125 38.125 38.8125 34.625C38.3125 31.125 37.0625 27.625 35.0625 24.125C34.8125 24 34.6875 23.8125 34.6875 23.5625V25.8125C34.5625 32.6875 34.625 37.625 34.875 40.625C35.125 42.875 34.4375 44.5 32.8125 45.5C30.9375 46.5 29.0625 47.125 27.1875 47.375C25.5625 47.625 24.6875 47.25 24.5625 46.25C24.1875 44.125 23.125 42.8125 21.375 42.3125C20.375 41.9375 19.9375 41.5625 20.0625 41.1875C19.9375 41.0625 20.5625 41 21.9375 41C25.9375 41.625 27.75 40.375 27.375 37.25V24.875C27.375 25.125 27.1875 25.25 26.8125 25.25C26.1875 25.5 25.875 25.875 25.875 26.375C23.875 32.625 20.4375 37.3125 15.5625 40.4375C14.9375 40.8125 14.5625 40.9375 14.4375 40.8125C14.3125 40.6875 14.4375 40.3125 14.8125 39.6875C16.5625 35.6875 17.8125 32.0625 18.5625 28.8125C18.5625 28.6875 18.5625 28.375 18.5625 27.875C18.9375 26.5 19.1875 25 19.3125 23.375C19.4375 22.375 19.9375 21.9375 20.8125 22.0625C22.6875 22.3125 24.6875 22.8125 26.8125 23.5625C27.1875 23.9375 27.375 24.125 27.375 24.125V23.5625C27.25 22.0625 27.1875 20.625 27.1875 19.25C27.0625 17.875 26.9375 16.875 26.8125 16.25C26.4375 14.875 26.9375 14.3125 28.3125 14.5625C30.0625 14.8125 32.3125 15.1875 35.0625 15.6875C36.3125 16.4375 36.5 17.1875 35.625 17.9375C34.875 18.3125 34.5625 18.875 34.6875 19.625ZM13.5 18.125V35.75C13.375 39.25 13.4375 41.75 13.6875 43.25C13.9375 44.875 13.375 45.9375 12 46.4375C10.75 46.8125 9.4375 47.125 8.0625 47.375C5.9375 48 5.1875 46.875 5.8125 44C5.8125 43.375 5.8125 42.4375 5.8125 41.1875C6.1875 35.6875 6.375 31.5625 6.375 28.8125V22.625C4.625 24.75 2.875 26.4375 1.125 27.6875C0.75 28.0625 0.5 28.125 0.375 27.875C0.25 27.625 0.3125 27.25 0.5625 26.75C3.5625 20.75 5.9375 14.5625 7.6875 8.1875C8.3125 6.4375 8.75 4.1875 9 1.4375C8.875 0.6875 9.375 0.3125 10.5 0.3125C12 0.6875 14.5 1.4375 18 2.5625C18.75 3.3125 18.75 4.0625 18 4.8125C17.125 5.1875 16.625 5.5625 16.5 5.9375C14.875 9.1875 13.4375 12 12.1875 14.375C12.3125 14.375 12.5625 14.4375 12.9375 14.5625C13.3125 14.5625 13.5625 14.5625 13.6875 14.5625C14.5625 15.1875 14.6875 15.8125 14.0625 16.4375C13.5625 16.8125 13.375 17.375 13.5 18.125ZM36.9375 17.375L38.25 12.875H25.875C23.125 17.25 19.625 20.8125 15.375 23.5625C15 23.8125 14.75 23.8125 14.625 23.5625C14.5 23.4375 14.5625 23.125 14.8125 22.625C18.0625 17.625 20.375 12.4375 21.75 7.0625C22 6.0625 22.1875 5.125 22.3125 4.25C22.5625 3.25 22.6875 2.3125 22.6875 1.4375C22.6875 0.5625 23.1875 0.25 24.1875 0.5C25.3125 0.625 27.25 1.125 30 2C30.25 2.125 30.5625 2.1875 30.9375 2.1875C31.3125 2.4375 31.5625 2.8125 31.6875 3.3125C31.5625 3.8125 31.3125 4.0625 30.9375 4.0625C30.0625 4.4375 29.5625 4.9375 29.4375 5.5625C28.5625 7.6875 27.6875 9.625 26.8125 11.375H37.3125C38.1875 9.375 39.125 8.1875 40.125 7.8125C42 8.1875 44.1875 9.625 46.6875 12.125C47.3125 12.75 47.5625 13.4375 47.4375 14.1875C47.3125 14.9375 46.6875 15.3125 45.5625 15.3125C42.5625 15.0625 40.0625 16 38.0625 18.125C37.5625 18.5 37.1875 18.625 36.9375 18.5C36.8125 18.375 36.8125 18 36.9375 17.375ZM68.4375 9.125H74.25C74.875 7 75.25 4.4375 75.375 1.4375C75.25 0.6875 75.6875 0.3125 76.6875 0.3125C79.0625 0.5625 81.5 0.875 84 1.25C84.5 1.5 84.75 1.9375 84.75 2.5625C84.625 3.0625 84.3125 3.3125 83.8125 3.3125C82.9375 3.6875 82.375 4.0625 82.125 4.4375C81 6.0625 79.5 7.625 77.625 9.125H84.5625C85.6875 7.5 86.5 6.625 87 6.5C89.875 7.5 92.1875 8.8125 93.9375 10.4375C93.9375 11.0625 93.625 11.5625 93 11.9375C92.75 12.1875 92.625 12.625 92.625 13.25C92.5 18.25 92.5625 21.4375 92.8125 22.8125C92.8125 24.0625 92.4375 24.875 91.6875 25.25C91.5625 25.375 91.4375 25.4375 91.3125 25.4375C90.0625 25.9375 88.8125 26.1875 87.5625 26.1875C85.9375 26.6875 85.1875 26.3125 85.3125 25.0625V24.125H58.875C58.875 25 58.5 25.5 57.75 25.625C56.625 26.125 55.1875 26.4375 53.4375 26.5625C51.8125 26.9375 51.1875 26.25 51.5625 24.5C51.6875 22.5 51.75 20.6875 51.75 19.0625C51.875 17.6875 51.9375 15.75 51.9375 13.25C51.9375 11 51.8125 9.375 51.5625 8.375C51.3125 7.625 51.3125 7.1875 51.5625 7.0625C51.8125 6.8125 52.375 6.75 53.25 6.875C55.5 7.375 57.625 8.125 59.625 9.125H64.3125C63.8125 8.75 63.5 8 63.375 6.875C63.25 5.75 62.5 4 61.125 1.625C60.75 1.375 60.625 1.1875 60.75 1.0625C60.75 0.8125 61 0.6875 61.5 0.6875C65.625 0.8125 68.4375 1.875 69.9375 3.875C71.1875 6.125 70.6875 7.875 68.4375 9.125ZM57.5625 37.4375V33.5C57.4375 30.875 57.3125 28.8125 57.1875 27.3125C57.0625 26.6875 57.0625 26.3125 57.1875 26.1875C57.3125 26.0625 57.8125 26 58.6875 26C60.4375 26.375 62.625 26.875 65.25 27.5C65.375 27.625 65.5 27.6875 65.625 27.6875H78.375C79.375 25.8125 80.1875 24.875 80.8125 24.875C82.4375 25.25 84.875 26.625 88.125 29C88.5 29.75 88.25 30.3125 87.375 30.6875C86.875 31.0625 86.5625 31.375 86.4375 31.625V38.5625C86.3125 38.9375 86.3125 39.75 86.4375 41C86.5625 42.5 86.625 43.4375 86.625 43.8125C86.875 45.4375 86.375 46.375 85.125 46.625C83.375 47 81.9375 47.25 80.8125 47.375C79.4375 47.5 78.875 46.9375 79.125 45.6875V44H64.875V44.5625C64.875 45.8125 64.25 46.625 63 47C61.5 47.125 60.1875 47.25 59.0625 47.375C57.4375 47.5 56.8125 46.8125 57.1875 45.3125C57.3125 44.0625 57.4375 41.4375 57.5625 37.4375ZM58.875 11.75V22.625H68.625V10.625H60.1875C59.1875 10.625 58.75 11 58.875 11.75ZM64.875 36.6875V42.5H79.125V36.6875H64.875ZM79.125 29.1875H65.625C65 29.5625 64.75 30.0625 64.875 30.6875V35.1875H79.125V29.1875ZM60.9375 18.3125C60.9375 16.6875 60.5 14.875 59.625 12.875C59.375 12.625 59.3125 12.375 59.4375 12.125C59.5625 12 59.875 11.9375 60.375 11.9375C64 12.8125 66.4375 14.25 67.6875 16.25C68.4375 19.125 67.5625 21 65.0625 21.875C62.4375 22.5 61.0625 21.3125 60.9375 18.3125ZM85.3125 12.5V10.625H75.5625V22.625H76.6875C76.5625 22.5 76.625 22.1875 76.875 21.6875C77.75 18.6875 78.25 15.5 78.375 12.125C78.25 11.25 78.6875 10.9375 79.6875 11.1875C80.0625 11.3125 80.5 11.4375 81 11.5625C82.875 11.9375 84.3125 12.25 85.3125 12.5ZM78.1875 22.625H85.3125V15.3125C84.9375 15.5625 84.6875 15.8125 84.5625 16.0625C82.8125 18.4375 80.75 20.5625 78.375 22.4375C78.25 22.5625 78.1875 22.625 78.1875 22.625ZM110.625 11.375H105.375C103 11.5 100.688 11.625 98.4375 11.75C98.3125 11.75 98.125 11.8125 97.875 11.9375C97.625 11.9375 97.5 11.8125 97.5 11.5625C97.25 11.4375 97.0625 11.1875 96.9375 10.8125C96.8125 10.5625 96.6875 10.3125 96.5625 10.0625C96.4375 9.9375 96.375 9.8125 96.375 9.6875C96.375 9.5625 96.5625 9.5 96.9375 9.5C97.5625 9.75 98.8125 9.9375 100.688 10.0625C102.812 10.0625 104.875 10.0625 106.875 10.0625H111C111.75 7.4375 112.25 4.5625 112.5 1.4375C112.375 0.6875 112.875 0.3125 114 0.3125C118.375 0.9375 121.438 1.375 123.188 1.625C123.812 1.875 124.188 2.3125 124.312 2.9375C124.312 3.5625 124 3.9375 123.375 4.0625C122 4.4375 121.25 5.0625 121.125 5.9375C120.875 6.5625 120.562 7.375 120.188 8.375C119.938 9.25 119.812 9.8125 119.812 10.0625H133.875C135.375 7.4375 136.438 6.0625 137.062 5.9375C138.438 6.1875 140.5 7.5625 143.25 10.0625C143.875 11.0625 143.75 11.625 142.875 11.75C140 11.625 136.875 11.5 133.5 11.375H119.25C117.375 15.75 115.25 19.375 112.875 22.25V26C114.5 26.25 116.812 26.3125 119.812 26.1875H122.062V22.4375C121.938 21.5625 121.875 20.4375 121.875 19.0625C121.75 17.6875 121.625 16.5625 121.5 15.6875C121.25 14.6875 121.75 14.1875 123 14.1875C124.125 14.3125 125.312 14.5 126.562 14.75C127.812 14.875 128.938 15 129.938 15.125C130.438 15.25 130.75 15.625 130.875 16.25C131 16.75 130.812 17.125 130.312 17.375C129.562 17.75 129.188 18.3125 129.188 19.0625V26.1875H132.188C133.688 23.5625 134.75 22.25 135.375 22.25C136.5 22.5 138.562 23.8125 141.562 26.1875C141.938 26.6875 142.062 27.125 141.938 27.5C141.812 27.75 141.5 27.875 141 27.875C139.5 27.75 136.438 27.6875 131.812 27.6875H129.188V41.375H133.875C135.375 39.125 136.438 37.9375 137.062 37.8125C138.438 38.0625 140.5 39.3125 143.25 41.5625C143.5 41.8125 143.625 42.125 143.625 42.5C143.5 42.75 143.25 42.9375 142.875 43.0625C142.125 43.0625 140.688 43 138.562 42.875C136.062 42.875 134.375 42.875 133.5 42.875H112.875V44.5625C112.875 45.6875 112.312 46.5 111.188 47C108.938 47.375 107.5 47.5625 106.875 47.5625C105.375 47.8125 104.812 47.125 105.188 45.5C105.312 43.375 105.438 41.25 105.562 39.125C105.562 36.75 105.625 34.6875 105.75 32.9375V29.1875C103.125 30.9375 100.375 32.625 97.5 34.25C96.875 34.625 96.5 34.6875 96.375 34.4375C96.125 34.1875 96.1875 33.8125 96.5625 33.3125C99.8125 30.1875 102.812 26.4375 105.562 22.0625C105.438 20.4375 105.312 19.1875 105.188 18.3125C104.938 17.3125 105.438 16.875 106.688 17C107.062 17.25 107.562 17.3125 108.188 17.1875C109.062 15.4375 109.875 13.5 110.625 11.375ZM112.875 27.875V41.375H122.062V27.6875H118.312C115.812 27.6875 114 27.75 112.875 27.875ZM150.188 36.5V18.875H148.875C147.875 19 146.938 19.125 146.062 19.25C145.562 19.375 145.25 19.25 145.125 18.875C145 18.75 144.875 18.5625 144.75 18.3125C144.5 18.0625 144.375 17.8125 144.375 17.5625C144.25 17.3125 144.375 17.1875 144.75 17.1875C146.375 17.4375 148 17.5625 149.625 17.5625H150.188V11C150.062 9.375 150 7.8125 150 6.3125C149.875 4.8125 149.75 3.8125 149.625 3.3125C149.375 2.5625 149.375 2.125 149.625 2C149.75 1.75 150.25 1.625 151.125 1.625C152.375 1.625 154.5 2 157.5 2.75C158.625 3.5 158.75 4.1875 157.875 4.8125C157 5.3125 156.625 5.9375 156.75 6.6875V17.5625H156.938C157.688 15.6875 158.5 14.5625 159.375 14.1875C160.25 14.4375 161.5 15.1875 163.125 16.4375V13.625C163 11.125 162.875 9 162.75 7.25C162.625 6.375 163.125 6 164.25 6.125C166.625 6.625 168.5 7.125 169.875 7.625C171.125 8.25 171.25 9 170.25 9.875C169.875 10.125 169.688 10.5625 169.688 11.1875V18.3125L171.75 17.5625V10.25C171.625 9 171.5 7.625 171.375 6.125C171.25 4.5 171.125 3.25 171 2.375C170.625 1.25 171.125 0.6875 172.5 0.6875C174 0.9375 176 1.375 178.5 2C179.125 2.25 179.438 2.5625 179.438 2.9375C179.562 3.3125 179.375 3.6875 178.875 4.0625C178.25 4.6875 178 5.3125 178.125 5.9375V15.125L180 14.375C180.875 12.875 181.688 11.875 182.438 11.375C183.812 11.625 186 12.75 189 14.75C189.625 15.5 189.438 16.125 188.438 16.625C187.812 17 187.5 17.5625 187.5 18.3125V19.8125C187.375 20.8125 187.5 23.3125 187.875 27.3125C187.875 27.9375 187.938 28.3125 188.062 28.4375C188.188 30.3125 187.75 31.625 186.75 32.375C185.375 33.625 183.75 34.375 181.875 34.625C180.5 35 179.75 34.6875 179.625 33.6875C179.5 32.3125 179 31.25 178.125 30.5V34.625C178.25 36.125 177.688 37.0625 176.438 37.4375C175.938 37.6875 175.25 37.875 174.375 38C174 38 173.75 38 173.625 38C171.75 38.5 171 37.75 171.375 35.75C171.375 35.5 171.375 35 171.375 34.25C171.625 31.125 171.75 27.5 171.75 23.375V18.875L169.688 19.8125V38.5625C169.562 39.8125 170.312 40.375 171.938 40.25H182.812C183.938 40.75 185.438 38.3125 187.312 32.9375C187.562 31.8125 187.938 31.375 188.438 31.625C188.812 31.625 188.938 32.0625 188.812 32.9375C188.438 36.1875 188.938 38.3125 190.312 39.3125C191.312 40.3125 191.812 41.1875 191.812 41.9375C191.562 43.4375 190.875 44.4375 189.75 44.9375C188 45.6875 185.875 46.0625 183.375 46.0625H168.562C164.562 46.3125 162.75 44.5 163.125 40.625V34.625C159.875 37.125 155.625 40 150.375 43.25C149.625 43.625 149.188 43.9375 149.062 44.1875C148.688 44.6875 148.312 44.9375 147.938 44.9375C147.562 44.9375 147.25 44.6875 147 44.1875C145.75 42.1875 144.875 40.5625 144.375 39.3125C144.125 38.4375 144.5 37.9375 145.5 37.8125C145.875 37.6875 146.312 37.5625 146.812 37.4375C148.312 37.0625 149.438 36.75 150.188 36.5ZM163.125 32.75V22.25C162.5 22.625 161.625 23.0625 160.5 23.5625C160 23.8125 159.625 24 159.375 24.125C159.125 24.375 158.875 24.375 158.625 24.125C158 23.75 157.562 23.375 157.312 23C157.062 22.875 157 22.75 157.125 22.625C157.125 22.5 157.312 22.375 157.688 22.25C158.812 22.125 160.625 21.5625 163.125 20.5625V18.875H156.75V34.625C158 34.375 159.188 34.0625 160.312 33.6875C161.562 33.3125 162.5 33 163.125 32.75ZM180.938 15.5L178.125 16.625V28.25C180.125 28.625 181.062 28 180.938 26.375V15.5ZM208.875 18.875H204.75V25.25C204.875 25.125 205.062 24.875 205.312 24.5C206.188 23.375 206.75 22.8125 207 22.8125C207.75 22.9375 208.875 23.875 210.375 25.625C210.375 25.25 210.375 24.5625 210.375 23.5625C210.5 22.8125 210.562 22.3125 210.562 22.0625C210.562 21.6875 210.5 21.0625 210.375 20.1875C210.375 19.5625 210.375 19.0625 210.375 18.6875C210.25 18.0625 210.25 17.6875 210.375 17.5625C210.5 17.4375 210.875 17.375 211.5 17.375C212.875 17.625 214.25 18 215.625 18.5C215.75 18.625 215.875 18.75 216 18.875H217.875C217.875 18.875 217.938 18.75 218.062 18.5C218.812 17.375 219.312 16.8125 219.562 16.8125C220.312 16.9375 221.625 17.625 223.5 18.875C223.875 19.625 223.875 20.125 223.5 20.375C223 20.625 222.812 21.0625 222.938 21.6875C222.812 23.8125 222.875 25.1875 223.125 25.8125C223.125 26.6875 222.75 27.25 222 27.5C221.875 27.5 221.812 27.5625 221.812 27.6875C221.688 27.8125 221.625 27.8125 221.625 27.6875C222.375 28.0625 223.375 28.875 224.625 30.125C225.25 31 225.125 31.5 224.25 31.625H219.375V35C220.375 33.625 221.125 32.875 221.625 32.75C222.25 32.875 223.312 33.75 224.812 35.375C225.062 35.75 225.188 36.0625 225.188 36.3125C225.062 36.5625 224.812 36.6875 224.438 36.6875H219.375V39.875C219.75 39.875 220.375 39.875 221.25 39.875C222.25 39.875 223.062 39.8125 223.688 39.6875C224.188 39.6875 224.5 39.8125 224.625 40.0625C224.625 40.3125 224.375 40.5 223.875 40.625C223.5 40.75 223.188 40.875 222.938 41C219.438 42.25 216.312 43.3125 213.562 44.1875C212.812 44.5625 212.188 45.0625 211.688 45.6875C211.062 46.3125 210.562 46.3125 210.188 45.6875C209.438 44.1875 208.812 42.6875 208.312 41.1875C208.312 40.8125 208.688 40.5625 209.438 40.4375C210.562 40.4375 212.062 40.4375 213.938 40.4375V36.6875C212.562 36.9375 211.625 37 211.125 36.875C210.875 37.125 210.688 37.1875 210.562 37.0625C210.938 37.4375 210.812 37.8125 210.188 38.1875C208.188 39.4375 205.75 40.625 202.875 41.75C201.625 42.25 200.25 42.9375 198.75 43.8125C197.875 43.9375 197.188 44.5625 196.688 45.6875C195.812 46.5625 195.188 46.625 194.812 45.875C193.812 44.125 193 42.125 192.375 39.875C192.125 39.125 192.5 38.6875 193.5 38.5625C195.125 38.5625 196.562 38.5 197.812 38.375C198.312 38.375 198.688 38.3125 198.938 38.1875V35.9375C198.562 36.5625 198.125 37 197.625 37.25C195.25 37.875 194 37.125 193.875 35C193.75 33.125 193.25 31.4375 192.375 29.9375C192.125 29.4375 192.312 29.125 192.938 29C196.062 29.875 198.062 31.125 198.938 32.75V27.125H197.062C195.688 27.125 194.75 27.25 194.25 27.5C193.75 27.625 193.438 27.5 193.312 27.125C193.062 27 192.812 26.75 192.562 26.375C192.438 26.125 192.375 25.9375 192.375 25.8125C192.25 25.6875 192.375 25.5625 192.75 25.4375C193.75 25.6875 195.5 25.75 198 25.625H198.938V18.875H196.875C195.75 20.125 194.562 21.1875 193.312 22.0625C192.812 22.3125 192.438 22.375 192.188 22.25C192.062 22.125 192.188 21.875 192.562 21.5C194.812 17.75 196.625 13.0625 198 7.4375C198.375 6.1875 198.75 4.1875 199.125 1.4375C199.125 0.8125 199.5 0.5 200.25 0.5C202.125 0.875 204.438 1.5 207.188 2.375C207.812 2.75 208.125 3.1875 208.125 3.6875C208.125 4.3125 207.812 4.6875 207.188 4.8125C206.562 5.0625 206 5.5 205.5 6.125C208 6.5 209.875 7.375 211.125 8.75C211 8.75 211.062 8.8125 211.312 8.9375H213.75V8.5625C213.625 6.4375 213.5 4.75 213.375 3.5C213.125 2.75 213.125 2.3125 213.375 2.1875C213.625 1.9375 214.188 1.8125 215.062 1.8125C216.188 1.9375 217.5 2.1875 219 2.5625C219.5 2.5625 219.875 2.5625 220.125 2.5625C221.125 3.1875 221.188 3.875 220.312 4.625C219.688 5 219.375 5.5 219.375 6.125V8.9375H219.75C220.75 7.4375 221.562 6.5625 222.188 6.3125C222.312 6.3125 222.562 6.5 222.938 6.875C223.062 7 223.25 7.0625 223.5 7.0625C223.375 5.0625 223.25 3.375 223.125 2C222.875 1 223.375 0.5625 224.625 0.6875C225.875 0.6875 227.75 0.9375 230.25 1.4375C230.75 1.5625 231.062 1.8125 231.188 2.1875C231.188 2.6875 231 3.0625 230.625 3.3125C229.875 3.5625 229.562 4.1875 229.688 5.1875C229.438 8.6875 229.375 11.8125 229.5 14.5625H231.375C232.75 12.4375 233.75 11.3125 234.375 11.1875C235.375 11.5625 236.688 12.75 238.312 14.75C238.562 15.625 238.375 16.0625 237.75 16.0625H229.688C229.562 17.5625 229.562 19.0625 229.688 20.5625C229.812 22.0625 230.062 23.75 230.438 25.625C230.688 24.625 230.938 22.9375 231.188 20.5625C231.312 19.9375 231.438 19.1875 231.562 18.3125C231.438 17.4375 231.938 17.125 233.062 17.375C233.438 17.625 234.188 17.875 235.312 18.125C236.938 18.625 238.125 19 238.875 19.25C239.625 19.875 239.625 20.5 238.875 21.125C237.875 21.375 237.312 21.8125 237.188 22.4375C235.188 28.5625 233.688 32.625 232.688 34.625C232.812 35.375 233.125 36 233.625 36.5C234 37.375 234.875 36.5625 236.25 34.0625C236.375 33.8125 236.562 33.5 236.812 33.125C237.188 32.375 237.5 32 237.75 32C238 32.125 238.188 32.5625 238.312 33.3125C237.938 37.9375 238.125 41.25 238.875 43.25C239.5 45 239.375 46.25 238.5 47C237.5 47.75 236.375 47.8125 235.125 47.1875C232.5 45.5625 230.375 43.4375 228.75 40.8125C227.25 42.3125 224.438 44.375 220.312 47C219.688 47.25 219.25 47.25 219 47C218.75 46.625 218.875 46.25 219.375 45.875C222.25 43.5 224.75 40.4375 226.875 36.6875C225.125 31.8125 224.062 24.9375 223.688 16.0625H214.125C212.75 16.0625 211.812 16.1875 211.312 16.4375C210.812 16.5625 210.5 16.4375 210.375 16.0625C209.875 15.8125 209.562 15.375 209.438 14.75C209.188 14.625 209.312 14.5 209.812 14.375C210.438 14.625 211.75 14.6875 213.75 14.5625V10.25H211.875C212.125 11.875 211.625 13.0625 210.375 13.8125C208 15.0625 206.562 14.5 206.062 12.125C205.938 10.5 205.438 9.0625 204.562 7.8125C202.688 11.9375 200.625 15.1875 198.375 17.5625H203.438C204.438 15.9375 205.25 15 205.875 14.75C207.125 15.375 208.25 16.375 209.25 17.75C209.5 18.125 209.562 18.4375 209.438 18.6875C209.438 18.8125 209.25 18.875 208.875 18.875ZM232.125 9.3125C231.75 7.5625 231.125 5.9375 230.25 4.4375C230 4.1875 229.938 4 230.062 3.875C230.188 3.75 230.5 3.6875 231 3.6875C233.5 3.9375 235.375 4.75 236.625 6.125C237.625 7.875 237.375 9.3125 235.875 10.4375C233.875 11.5625 232.625 11.1875 232.125 9.3125ZM212.25 30.125H219C219.875 28.875 220.562 28.125 221.062 27.875C220.812 27.875 220.562 27.9375 220.312 28.0625C219.938 28.0625 219.625 28.0625 219.375 28.0625C218.5 28.3125 218.125 27.875 218.25 26.75V26.5625H215.25V27.125C215.25 27.75 214.938 28.1875 214.312 28.4375C214.188 28.5625 214 28.625 213.75 28.625C212.75 29 212 29.125 211.5 29C210.375 29.25 210 28.6875 210.375 27.3125V27.125C210.25 27.125 210.125 27.125 210 27.125H204.75V33.6875C205.5 31.8125 206 30.125 206.25 28.625C206.25 27.875 206.75 27.625 207.75 27.875C208.25 28.25 208.875 28.6875 209.625 29.1875C210.125 29.5625 210.625 29.875 211.125 30.125C211.5 30.125 211.875 30.125 212.25 30.125ZM213.938 35.375V31.625H212.25C212.125 32 211.812 32.1875 211.312 32.1875C210.312 32.3125 209.562 32.5625 209.062 32.9375C207.812 34.1875 206.375 35.25 204.75 36.125V37.625C206.125 37.5 207.75 37.25 209.625 36.875C209.875 36.875 210.125 36.875 210.375 36.875C210.25 37 210.188 36.9375 210.188 36.6875C209.938 36.5625 209.75 36.375 209.625 36.125C209.625 36 209.625 35.875 209.625 35.75C209.375 35.5 209.312 35.3125 209.438 35.1875C209.438 35.0625 209.625 35 210 35C211.25 35.25 212.562 35.375 213.938 35.375ZM223.688 10.8125V10.25H219.375V14.5625H223.688C223.688 13.6875 223.688 12.4375 223.688 10.8125ZM218.25 20H215.812C215.312 20.375 215.125 20.75 215.25 21.125V25.25H218.25V20ZM242.812 41.1875H237.938L250.5 7.4375H255.75L242.812 41.1875ZM285.75 41.9375C285.75 41.6875 285.688 41.4375 285.562 41.1875C285.562 41.0625 285.562 41 285.562 41C276.562 42.75 269.75 44.5 265.125 46.25C263.5 47.25 262.562 47.1875 262.312 46.0625C261.312 44.1875 260.5 42 259.875 39.5C259.625 38.625 260 38.0625 261 37.8125C263.125 37.5625 264.688 36.8125 265.688 35.5625C267.688 31.9375 269.5 26.125 271.125 18.125C271.375 17 272.062 16.625 273.188 17C275.688 17.625 278.438 18.5 281.438 19.625C282.062 20 282.375 20.375 282.375 20.75C282.375 21.25 282.062 21.625 281.438 21.875C280.688 22.25 279.875 23 279 24.125C275.125 30.5 271.75 35.3125 268.875 38.5625C271.875 38.6875 277.125 38.5625 284.625 38.1875C283.875 36.3125 282.375 33.9375 280.125 31.0625C280 30.8125 279.875 30.5625 279.75 30.3125C279.375 29.9375 279.25 29.625 279.375 29.375C279.5 29.125 279.875 29.0625 280.5 29.1875C287.125 31.4375 291.562 34.625 293.812 38.75C295.188 42.375 294.375 45 291.375 46.625C288.5 47.5 286.625 45.9375 285.75 41.9375ZM299.812 20.5625C300.688 20.9375 301.125 21.3125 301.125 21.6875C301.125 22.1875 300.688 22.5625 299.812 22.8125C297.938 23.8125 296.062 25.625 294.188 28.25C293.312 29.125 292.5 29.25 291.75 28.625C285 23.5 281.062 14.8125 279.938 2.5625C279.812 1.9375 279.875 1.5625 280.125 1.4375C280.25 1.3125 280.75 1.3125 281.625 1.4375C283.25 1.9375 284.312 2.3125 284.812 2.5625C285.312 2.9375 285.438 3.3125 285.188 3.6875C284.812 4.0625 284.5 4.375 284.25 4.625C283.75 5 283.625 5.4375 283.875 5.9375C286.625 12.9375 291.938 17.8125 299.812 20.5625ZM267.375 2.375C269.375 2.75 272.062 3.5625 275.438 4.8125C276.062 5.1875 276.375 5.625 276.375 6.125C276.375 6.625 276.125 7 275.625 7.25C274.875 7.625 274.25 8.1875 273.75 8.9375C267.875 19.3125 261.688 26.625 255.188 30.875C254.438 31.375 254 31.5 253.875 31.25C253.625 31 253.75 30.5625 254.25 29.9375C259.25 23.5625 263.125 14.6875 265.875 3.3125C266 2.5625 266.5 2.25 267.375 2.375ZM336.562 25.25C335.812 25.375 335.062 26.0625 334.312 27.3125C333.438 28.8125 332.188 30.75 330.562 33.125C330.438 33.375 330.312 33.5625 330.188 33.6875C335.062 36.4375 340.812 38.0625 347.438 38.5625C348.188 38.5625 348.562 38.8125 348.562 39.3125C348.562 39.6875 348.25 40.0625 347.625 40.4375C346 40.9375 344.5 42.6875 343.125 45.6875C342.625 46.9375 341.75 47.3125 340.5 46.8125C333.5 44.1875 328.438 41.5 325.312 38.75C321.188 42.125 314 44.875 303.75 47C302.75 47.125 302.25 47.0625 302.25 46.8125C302.125 46.1875 302.5 45.75 303.375 45.5C311.625 41.75 317.5 37.8125 321 33.6875C319.25 31.4375 317.5 27.75 315.75 22.625C315.5 22 315.562 21.5625 315.938 21.3125C316.438 21.1875 316.875 21.375 317.25 21.875C318.75 24.75 321 27.3125 324 29.5625C325.25 27.6875 326.5 24.875 327.75 21.125C327.875 19.5 328.688 19 330.188 19.625C332.438 20.625 334.688 21.75 336.938 23C337.438 23.5 337.625 23.9375 337.5 24.3125C337.5 24.8125 337.188 25.125 336.562 25.25ZM312.188 8.9375H323.812C323.062 8.6875 322.625 7.8125 322.5 6.3125C322.25 4.8125 321.562 3.25 320.438 1.625C320.062 1.375 319.938 1.125 320.062 0.875C320.062 0.75 320.375 0.625 321 0.5C326.375 0.375 329.375 1.6875 330 4.4375C330.25 6.4375 329.438 7.9375 327.562 8.9375H339C340.625 6.3125 341.875 4.75 342.75 4.25C344.375 4.75 346.375 6.25 348.75 8.75C349.375 9.875 349.188 10.5 348.188 10.625C346.438 10.5 344.562 10.4375 342.562 10.4375C340.938 10.3125 338.438 10.25 335.062 10.25H310.5C309.75 10.375 308.75 10.4375 307.5 10.4375C306.375 10.5625 305.125 10.6875 303.75 10.8125C303.25 10.9375 302.938 10.875 302.812 10.625C302.438 10.125 302.062 9.5 301.688 8.75C301.438 8.375 301.562 8.25 302.062 8.375C303.312 8.625 305.125 8.8125 307.5 8.9375C309.5 8.9375 311.062 8.9375 312.188 8.9375ZM338.25 24.5C336 20.375 332.438 16.25 327.562 12.125C327.188 11.875 327 11.6875 327 11.5625C327.125 11.4375 327.438 11.3125 327.938 11.1875C337.062 12.8125 342.875 15.375 345.375 18.875C347.125 21.875 346.75 24.4375 344.25 26.5625C341.75 28.1875 339.75 27.5 338.25 24.5ZM314.438 10.8125C317.812 11.9375 320.375 13.0625 322.125 14.1875C322.625 14.5625 322.875 15 322.875 15.5C322.75 16 322.438 16.25 321.938 16.25C321.188 16.375 320.562 16.625 320.062 17C313.938 22.625 308.625 26.6875 304.125 29.1875C303.5 29.5625 303.062 29.625 302.812 29.375C302.688 29.25 302.875 28.875 303.375 28.25C308.125 22 311.5 16.375 313.5 11.375C313.625 10.875 313.938 10.6875 314.438 10.8125ZM352.125 41.1875H347.25L359.812 7.4375H365.062L352.125 41.1875ZM383.062 42.5H387.562V25.25H377.625C377.25 25.25 376.875 25.25 376.5 25.25V44C376.625 45.125 376 45.9375 374.625 46.4375C373 46.9375 371.875 47.3125 371.25 47.5625C369.25 47.9375 368.438 46.6875 368.812 43.8125C368.938 41.9375 369.062 39.6875 369.188 37.0625C369.188 33.9375 369.25 30.9375 369.375 28.0625V23.9375C367.625 25.6875 365.938 27.25 364.312 28.625C363.688 29.125 363.25 29.3125 363 29.1875C362.875 28.9375 363 28.5 363.375 27.875C365.875 23.875 368.125 18.375 370.125 11.375C370.875 8.375 371.5 5.4375 372 2.5625C372 1.6875 372.562 1.375 373.688 1.625C374.562 1.875 376.938 2.6875 380.812 4.0625C381.312 4.1875 381.688 4.25 381.938 4.25C382.438 4.625 382.625 5.0625 382.5 5.5625C382.375 6.1875 382.062 6.5 381.562 6.5C380.562 6.875 379.875 7.375 379.5 8C379.25 8.875 378.938 9.5625 378.562 10.0625C383.438 8.9375 387.625 7.75 391.125 6.5C393.875 5.75 396.625 4.5 399.375 2.75C400.125 2.125 400.938 2.125 401.812 2.75C403.188 4.125 404.875 6.1875 406.875 8.9375C407 10.1875 406.562 10.6875 405.562 10.4375C404.938 10.1875 404 10.0625 402.75 10.0625C402 10.1875 400.938 10.3125 399.562 10.4375C398.062 10.5625 397 10.625 396.375 10.625C396.625 11.25 396.5 11.8125 396 12.3125C395.25 12.8125 394.938 13.3125 395.062 13.8125V23.75H399.938C401.562 21.125 402.625 19.75 403.125 19.625C404.75 20.25 406.75 21.6875 409.125 23.9375C409.625 24.9375 409.438 25.4375 408.562 25.4375C407.438 25.3125 404.125 25.25 398.625 25.25H395.062V42.5H398.438C399.938 40.25 401 39.0625 401.625 38.9375C403.375 39.5625 405.312 40.8125 407.438 42.6875C408.062 43.4375 407.938 43.9375 407.062 44.1875C406.562 44.1875 405.375 44.125 403.5 44C400.5 44 398.375 44 397.125 44H382.125C380.875 44 379.812 44.125 378.938 44.375C378.438 44.375 378.125 44.3125 378 44.1875C377.625 43.5625 377.25 43.125 376.875 42.875C376.75 42.625 376.688 42.4375 376.688 42.3125C376.812 42.1875 377 42.1875 377.25 42.3125C378 42.4375 379.938 42.5 383.062 42.5ZM378.562 23.75H387.562V11.1875C386.312 11.1875 384.562 11.25 382.312 11.375C380.438 11.5 379.062 11.5 378.188 11.375H378C377.25 12.75 376.5 14.0625 375.75 15.3125C375.875 15.3125 376.062 15.375 376.312 15.5C376.562 15.625 376.812 15.625 377.062 15.5C378.062 16 378.125 16.6875 377.25 17.5625C376.625 17.6875 376.375 18.1875 376.5 19.0625V23.75C377.25 23.75 377.938 23.75 378.562 23.75ZM432.375 7.25H447.562C449.438 4.25 450.812 2.6875 451.688 2.5625C453.938 3.5625 456 5.0625 457.875 7.0625C458.375 8.1875 458.125 8.75 457.125 8.75C456.375 8.875 455.438 8.8125 454.312 8.5625C454.312 9.0625 454.188 9.375 453.938 9.5C453.312 9.875 453.062 10.4375 453.188 11.1875V23.75C453.188 28.125 453.312 33.75 453.562 40.625C453.688 43.375 453 45.125 451.5 45.875C449.75 46.5 447.875 47.0625 445.875 47.5625C444.375 47.8125 443.625 47.3125 443.625 46.0625C443.25 43.8125 441.75 42.4375 439.125 41.9375C437.875 41.8125 437.375 41.5 437.625 41C437.5 40.75 438.125 40.6875 439.5 40.8125C439.625 40.8125 439.938 40.875 440.438 41C441.812 41 442.812 40.9375 443.438 40.8125C445.312 40.9375 446.188 39.75 446.062 37.25V8.5625H431.438C430.562 8.6875 429.625 8.8125 428.625 8.9375C428.25 9.1875 427.938 9.125 427.688 8.75C427.438 8.625 427.25 8.3125 427.125 7.8125C426.125 9.8125 425.125 11.625 424.125 13.25H424.312C425.438 13.875 425.562 14.5625 424.688 15.3125C424.062 15.4375 423.812 15.9375 423.938 16.8125V28.25C423.938 31.25 424.062 36.125 424.312 42.875C424.562 44.625 423.938 45.75 422.438 46.25C421.312 46.625 420.125 46.9375 418.875 47.1875C416.75 47.8125 415.938 46.6875 416.438 43.8125C416.562 41.9375 416.688 39.6875 416.812 37.0625C416.812 34.3125 416.875 31.5 417 28.625V22.8125C416.125 23.6875 414.812 24.9375 413.062 26.5625C412.562 27.0625 412.188 27.375 411.938 27.5C411.438 27.75 411.125 27.8125 411 27.6875C410.875 27.4375 410.938 27 411.188 26.375C415.312 18.625 418.125 10.375 419.625 1.625C419.5 0.875 420 0.5 421.125 0.5C423 1 425.812 1.8125 429.562 2.9375C430.438 3.8125 430.375 4.5625 429.375 5.1875C428.5 5.5625 428 5.9375 427.875 6.3125C427.625 6.5625 427.562 6.75 427.688 6.875C429.312 7.125 430.875 7.25 432.375 7.25ZM427.688 28.0625V20C427.562 17.5 427.438 15.5625 427.312 14.1875C426.938 12.9375 427.438 12.4375 428.812 12.6875C431.062 13.5625 432.812 14.25 434.062 14.75C434.438 15.125 434.625 15.3125 434.625 15.3125H436.125C436.25 15.1875 436.375 15 436.5 14.75C437.5 13.125 438.25 12.3125 438.75 12.3125C440.25 12.6875 442.062 13.8125 444.188 15.6875C444.812 16.4375 444.812 17.0625 444.188 17.5625C443.562 17.9375 443.312 18.5625 443.438 19.4375C443.438 22.9375 443.438 26.5 443.438 30.125C443.562 31.5 443.188 32.375 442.312 32.75C441.688 33.125 440.562 33.4375 438.938 33.6875C437.688 34.0625 437.125 33.3125 437.25 31.4375V29.75H433.875V31.625C433.875 33.125 433.562 33.875 432.938 33.875C431.312 34.5 430.062 34.8125 429.188 34.8125C427.812 34.9375 427.25 34.125 427.5 32.375C427.625 31.125 427.688 29.6875 427.688 28.0625ZM437.25 16.4375H434.438C434.438 16.4375 434.375 16.5 434.25 16.625C434 16.875 433.875 17.375 433.875 18.125V28.625H437.25V16.4375ZM491.062 41.9375C491.062 41.6875 491 41.4375 490.875 41.1875C490.875 41.0625 490.875 41 490.875 41C481.875 42.75 475.062 44.5 470.438 46.25C468.812 47.25 467.875 47.1875 467.625 46.0625C466.625 44.1875 465.812 42 465.188 39.5C464.938 38.625 465.312 38.0625 466.312 37.8125C468.438 37.5625 470 36.8125 471 35.5625C473 31.9375 474.812 26.125 476.438 18.125C476.688 17 477.375 16.625 478.5 17C481 17.625 483.75 18.5 486.75 19.625C487.375 20 487.688 20.375 487.688 20.75C487.688 21.25 487.375 21.625 486.75 21.875C486 22.25 485.188 23 484.312 24.125C480.438 30.5 477.062 35.3125 474.188 38.5625C477.188 38.6875 482.438 38.5625 489.938 38.1875C489.188 36.3125 487.688 33.9375 485.438 31.0625C485.312 30.8125 485.188 30.5625 485.062 30.3125C484.688 29.9375 484.562 29.625 484.688 29.375C484.812 29.125 485.188 29.0625 485.812 29.1875C492.438 31.4375 496.875 34.625 499.125 38.75C500.5 42.375 499.688 45 496.688 46.625C493.812 47.5 491.938 45.9375 491.062 41.9375ZM505.125 20.5625C506 20.9375 506.438 21.3125 506.438 21.6875C506.438 22.1875 506 22.5625 505.125 22.8125C503.25 23.8125 501.375 25.625 499.5 28.25C498.625 29.125 497.812 29.25 497.062 28.625C490.312 23.5 486.375 14.8125 485.25 2.5625C485.125 1.9375 485.188 1.5625 485.438 1.4375C485.562 1.3125 486.062 1.3125 486.938 1.4375C488.562 1.9375 489.625 2.3125 490.125 2.5625C490.625 2.9375 490.75 3.3125 490.5 3.6875C490.125 4.0625 489.812 4.375 489.562 4.625C489.062 5 488.938 5.4375 489.188 5.9375C491.938 12.9375 497.25 17.8125 505.125 20.5625ZM472.688 2.375C474.688 2.75 477.375 3.5625 480.75 4.8125C481.375 5.1875 481.688 5.625 481.688 6.125C481.688 6.625 481.438 7 480.938 7.25C480.188 7.625 479.562 8.1875 479.062 8.9375C473.188 19.3125 467 26.625 460.5 30.875C459.75 31.375 459.312 31.5 459.188 31.25C458.938 31 459.062 30.5625 459.562 29.9375C464.562 23.5625 468.438 14.6875 471.188 3.3125C471.312 2.5625 471.812 2.25 472.688 2.375ZM543.375 30.125H515.062C513.688 30.125 511.625 30.3125 508.875 30.6875C508.75 30.6875 508.688 30.6875 508.688 30.6875C508.312 30.8125 508 30.6875 507.75 30.3125C507.625 30.3125 507.5 30.1875 507.375 29.9375C507.125 29.5625 506.938 29.1875 506.812 28.8125C506.688 28.4375 506.812 28.25 507.188 28.25C507.812 28.5 509 28.6875 510.75 28.8125C512.625 28.8125 514.5 28.8125 516.375 28.8125H519.75V15.6875H516C514.75 15.6875 512.812 15.875 510.188 16.25C509.938 16.25 509.812 16.25 509.812 16.25C509.438 16.375 509.125 16.25 508.875 15.875C508.5 15.625 508.188 15.125 507.938 14.375C507.812 14.25 507.75 14.125 507.75 14C507.75 13.875 507.938 13.8125 508.312 13.8125C509.438 14.1875 512.5 14.3125 517.5 14.1875H519.75V9.5C519.625 6.25 519.5 3.8125 519.375 2.1875C519.125 1.4375 519.125 1 519.375 0.875C519.5 0.75 520.062 0.6875 521.062 0.6875C523.938 1.0625 526.188 1.5625 527.812 2.1875C528.688 2.6875 528.75 3.3125 528 4.0625C527.5 4.4375 527.25 5.0625 527.25 5.9375V14.1875H533.438V9.3125C533.312 5.9375 533.188 3.4375 533.062 1.8125C532.812 1.1875 532.75 0.8125 532.875 0.6875C533.125 0.4375 533.688 0.3125 534.562 0.3125C537.312 0.5625 539.562 1 541.312 1.625C542.188 2.125 542.25 2.6875 541.5 3.3125C541.125 3.6875 540.938 4.375 540.938 5.375V14.1875H543C544.875 11.1875 546.125 9.6875 546.75 9.6875C548.375 10.4375 550.25 11.9375 552.375 14.1875C552.75 14.8125 552.875 15.25 552.75 15.5C552.625 15.75 552.312 15.875 551.812 15.875C549.188 15.75 545.812 15.6875 541.688 15.6875H540.938V28.8125H544.5C546.625 25.8125 547.938 24.25 548.438 24.125C549.688 24.625 551.562 26.1875 554.062 28.8125C554.438 29.3125 554.562 29.75 554.438 30.125C554.312 30.375 554 30.4375 553.5 30.3125C551 30.1875 547.625 30.125 543.375 30.125ZM523.312 31.25C525.812 32.5 528 33.8125 529.875 35.1875C530.375 35.6875 530.562 36.25 530.438 36.875C530.312 37.25 529.938 37.4375 529.312 37.4375C529.188 37.5625 529.062 37.625 528.938 37.625C527.688 38 526.812 38.375 526.312 38.75C519.812 42.875 513.75 45.8125 508.125 47.5625C507.375 47.6875 506.938 47.625 506.812 47.375C506.688 47.125 506.938 46.8125 507.562 46.4375C512.688 42.8125 517.312 37.875 521.438 31.625C521.812 31 522.438 30.875 523.312 31.25ZM542.062 44C540.562 40.375 537.75 37.0625 533.625 34.0625C532.875 33.5625 532.562 33.1875 532.688 32.9375C532.812 32.6875 533.375 32.5625 534.375 32.5625C542 33.8125 547.062 36.0625 549.562 39.3125C551.562 42.3125 551.188 44.875 548.438 47C545.562 48.125 543.438 47.125 542.062 44ZM527.25 15.6875V28.8125H533.438V15.6875H527.25ZM574.5 11.9375V9.875C574.5 8.25 574.438 7.0625 574.312 6.3125C574.312 5.5625 574.312 4.75 574.312 3.875C574.062 2.625 574.562 2.125 575.812 2.375C577.688 2.875 579.688 3.5 581.812 4.25C581.812 4.5 581.875 4.5625 582 4.4375H588.75C589.75 2.8125 590.562 1.9375 591.188 1.8125C594.188 2.8125 596.438 4.1875 597.938 5.9375C597.938 6.5625 597.625 7 597 7.25C596.375 7.625 596.125 8.125 596.25 8.75C596.125 11.5 596.188 13.9375 596.438 16.0625C596.438 17.3125 596.25 18 595.875 18.125C595.875 18.125 595.938 18.0625 596.062 17.9375C596.188 17.9375 596.375 17.875 596.625 17.75C598.375 18.5 600.188 19.9375 602.062 22.0625C602.312 22.9375 602.125 23.4375 601.5 23.5625C600.625 23.5625 598.938 23.5625 596.438 23.5625C593.688 23.5625 591.812 23.5 590.812 23.375H583.688C583.812 24.25 583.562 24.6875 582.938 24.6875C582.312 24.9375 581.875 25.375 581.625 26C581.375 26.375 581.125 26.6875 580.875 26.9375H593.438C593.562 26.6875 593.625 26.625 593.625 26.75C594.625 25.25 595.312 24.5 595.688 24.5C598.188 25.625 600.312 26.875 602.062 28.25C602.312 29.125 602.125 29.6875 601.5 29.9375C600.75 30.3125 600.375 30.875 600.375 31.625C600.125 33.75 599.688 36.6875 599.062 40.4375C598.312 43.8125 596.938 45.75 594.938 46.25C594.312 46.625 593 47.0625 591 47.5625C589.375 47.6875 588.625 47.4375 588.75 46.8125C588.375 44.3125 587.062 42.75 584.812 42.125C584.438 42.125 584.188 41.9375 584.062 41.5625C581.062 43.5625 577.375 45 573 45.875C572.25 45.875 571.812 45.75 571.688 45.5C571.562 45.25 571.812 45 572.438 44.75C580.062 41.75 585.062 36.3125 587.438 28.4375H586.688C583.438 34.6875 578.125 38.9375 570.75 41.1875C570 41.4375 569.562 41.4375 569.438 41.1875C569.312 41.0625 569.562 40.8125 570.188 40.4375C575.438 37.3125 578.875 33.3125 580.5 28.4375H579.938C577.562 31.9375 573.875 34.75 568.875 36.875C568.375 37 568.062 37 567.938 36.875C567.812 36.75 567.875 36.5 568.125 36.125C572.625 32.25 575.125 28 575.625 23.375H574.688C573.188 23.5 572.062 23.625 571.312 23.75C570.812 23.875 570.5 23.8125 570.375 23.5625C570.125 23.4375 569.938 23.25 569.812 23C569.562 22.75 569.375 22.5 569.25 22.25C569.125 22.125 569.062 22 569.062 21.875C569.188 21.75 569.375 21.6875 569.625 21.6875C571.875 21.9375 573.938 22.0625 575.812 22.0625H593.062C593.688 20.9375 594.562 19.75 595.688 18.5C595.438 18.75 595.188 18.875 594.938 18.875C593.688 19.375 592.438 19.625 591.188 19.625C589.688 20 589.062 19.375 589.312 17.75V17.1875H581.25C581.25 18.9375 580.688 19.875 579.562 20C578.688 20.375 577.5 20.5625 576 20.5625C574.5 20.9375 573.938 20.1875 574.312 18.3125V18.125H567.938V29.375C569.438 29 570.812 28.625 572.062 28.25C572.812 28.125 573.25 28.1875 573.375 28.4375C573.5 28.6875 573.312 29.0625 572.812 29.5625C569.438 32.4375 565.75 35.125 561.75 37.625C560.875 38.125 560.188 38.75 559.688 39.5C558.938 40.375 558.25 40.25 557.625 39.125C556.375 36.875 555.562 34.9375 555.188 33.3125C554.938 32.8125 554.875 32.5 555 32.375C555.125 32.125 555.562 32 556.312 32C556.812 31.875 557.625 31.75 558.75 31.625C559.5 31.5 560.25 31.3125 561 31.0625V18.125H559.5C558.125 18.125 557.188 18.1875 556.688 18.3125C556.312 18.5625 556 18.5 555.75 18.125C555.625 18 555.5 17.8125 555.375 17.5625C555.125 17.3125 555 17.0625 555 16.8125C554.875 16.4375 555 16.25 555.375 16.25C557 16.5 558.625 16.625 560.25 16.625H561V10.8125C560.875 9.6875 560.75 8.3125 560.625 6.6875C560.5 5.1875 560.375 4 560.25 3.125C559.875 2 560.375 1.4375 561.75 1.4375C563.75 1.6875 566 2 568.5 2.375C569.625 2.875 569.75 3.625 568.875 4.625C568.125 5.125 567.812 5.625 567.938 6.125V16.625C568.688 14.75 569.438 13.625 570.188 13.25C571.438 13.625 572.875 14.5 574.5 15.875C574.5 14.625 574.5 13.3125 574.5 11.9375ZM593.812 28.4375H593.25C591.25 34.4375 588.625 38.625 585.375 41C587.375 41 588.875 41 589.875 41C591.125 41 591.938 40.3125 592.312 38.9375C593.188 35.5625 593.688 32.0625 593.812 28.4375ZM581.25 11.5625V15.6875H589.312V11.5625H581.25ZM589.312 5.9375H582C582 6.0625 581.938 6.125 581.812 6.125C581.438 6.375 581.25 6.875 581.25 7.625V10.0625H589.312V5.9375ZM626.625 22.0625H619.312C618.438 22.1875 617.5 22.3125 616.5 22.4375C616.125 22.5625 615.812 22.4375 615.562 22.0625C615.188 21.8125 614.812 21.375 614.438 20.75C611.812 22.5 608.625 24 604.875 25.25C604 25.625 603.5 25.625 603.375 25.25C603.25 25 603.562 24.5625 604.312 23.9375C612.312 17.9375 617.812 10.5625 620.812 1.8125C620.938 0.9375 621.562 0.625 622.688 0.875C626.562 1.875 629.062 2.625 630.188 3.125C630.688 3.5 630.938 3.875 630.938 4.25C630.938 4.75 630.625 5.0625 630 5.1875C629.5 5.1875 629.125 5.375 628.875 5.75C634.625 12.25 641.312 16.25 648.938 17.75C649.562 18 649.938 18.25 650.062 18.5C650.062 19 649.75 19.375 649.125 19.625C647.375 20.625 646.125 22.1875 645.375 24.3125C645 25.5625 644.188 25.6875 642.938 24.6875C640.688 23.8125 638.688 22.5625 636.938 20.9375C637.312 21.6875 637.125 22.125 636.375 22.25C635.375 22.25 634.062 22.25 632.438 22.25C631.188 22.125 629.25 22.0625 626.625 22.0625ZM612.562 40.625V33.875C612.438 32.125 612.312 30.3125 612.188 28.4375C612.062 27.8125 612.062 27.375 612.188 27.125C612.438 27 612.938 27 613.688 27.125C615.812 27.75 617.938 28.375 620.062 29H632.062C633.062 27.375 633.938 26.4375 634.688 26.1875C636.938 26.8125 639.25 28.1875 641.625 30.3125C641.75 30.8125 641.438 31.25 640.688 31.625C640.312 31.875 640.125 32.3125 640.125 32.9375V38.5625C640 40.9375 640.062 42.625 640.312 43.625C640.562 45.125 640.062 46 638.812 46.25C637.938 46.375 637.125 46.5 636.375 46.625C635.625 46.75 635.062 46.875 634.688 47C633.312 47.125 632.75 46.625 633 45.5V42.5H619.688V45.3125C619.688 46.1875 619.375 46.6875 618.75 46.8125C618.125 46.9375 617 47.125 615.375 47.375C614.625 47.375 614.188 47.4375 614.062 47.5625C612.438 47.6875 611.812 46.9375 612.188 45.3125C612.312 43.8125 612.438 42.25 612.562 40.625ZM633 30.5H620.438C619.812 30.75 619.562 31.1875 619.688 31.8125V41.1875H633V30.5ZM620.25 20.5625H628.312C629.688 18.3125 630.75 17.125 631.5 17C632 17.125 633.125 17.75 634.875 18.875C631.875 16 629.438 12.125 627.562 7.25C624.188 13 620.125 17.375 615.375 20.375C616.375 20.625 618 20.6875 620.25 20.5625ZM685.875 6.875V13.625H688.5C689.75 11.75 690.688 10.75 691.312 10.625C693.688 11.375 695.75 12.75 697.5 14.75C697.625 15.375 697.312 15.875 696.562 16.25C696.188 16.25 696 16.8125 696 17.9375C696 23.5625 696 29.5 696 35.75C696.125 40.375 696.25 42.9375 696.375 43.4375C696.5 44.8125 696 45.6875 694.875 46.0625C693.625 46.3125 692.562 46.5 691.688 46.625C691.438 46.625 691.312 46.6875 691.312 46.8125C689.688 47.0625 689 46.6875 689.25 45.6875V41.75H676.125V44.75C676.125 45.875 675.562 46.5625 674.438 46.8125C674.312 46.8125 674.125 46.8125 673.875 46.8125C673.125 46.9375 672.25 47.0625 671.25 47.1875C669.375 47.4375 668.688 46.5625 669.188 44.5625C669.188 43.8125 669.188 41.9375 669.188 38.9375C669.188 37.3125 669.188 35.375 669.188 33.125C669.188 30.875 669.25 28.4375 669.375 25.8125V23.1875C668.875 23.4375 668.125 23.875 667.125 24.5C666 25 665.188 25.375 664.688 25.625C664.688 27 664.688 29.3125 664.688 32.5625C664.812 36.3125 664.938 39 665.062 40.625C665.062 42.75 664.375 44.3125 663 45.3125C662.125 45.8125 660.875 46.3125 659.25 46.8125C657.375 47.0625 656.438 46.625 656.438 45.5C656.312 43.875 655.062 42.625 652.688 41.75C651.562 41.25 651.125 41 651.375 41C651.125 40.625 651.75 40.5 653.25 40.625C656.5 41.375 658 40.25 657.75 37.25V29C657.5 29.125 657.25 29.25 657 29.375C656.625 29.5 656.375 29.5625 656.25 29.5625C655.625 30.0625 655.25 30.375 655.125 30.5C654.75 31.25 654.375 31.625 654 31.625C653.625 31.625 653.312 31.1875 653.062 30.3125C652.938 29.9375 652.688 29.0625 652.312 27.6875C651.812 26.3125 651.562 25.375 651.562 24.875C651.312 24.25 651.75 23.8125 652.875 23.5625C653.125 23.5625 653.562 23.5 654.188 23.375C655.688 23.25 656.875 23.0625 657.75 22.8125V13.625H656.062C654.812 13.625 653.938 13.6875 653.438 13.8125C652.938 14.0625 652.625 14 652.5 13.625C652.125 13.25 651.875 12.875 651.75 12.5C651.625 12.25 651.562 12.125 651.562 12.125C651.562 12 651.75 11.9375 652.125 11.9375C654.375 12.3125 656 12.5 657 12.5H657.75V10.625C657.625 9.125 657.562 7.625 657.562 6.125C657.438 4.75 657.312 3.6875 657.188 2.9375C656.812 1.6875 657.25 1.1875 658.5 1.4375C660.875 1.6875 663.125 2.125 665.25 2.75C665.875 3.125 666.25 3.5 666.375 3.875C666.375 4.25 666.125 4.625 665.625 5C664.875 5.5 664.562 6 664.688 6.5V11.375C665.562 10 666.312 9.25 666.938 9.125C667.688 9.375 668.625 10 669.75 11C670 11 670.25 11 670.5 11C672.75 11.75 674.625 12.5 676.125 13.25C676.125 13.375 676.188 13.5 676.312 13.625C676.562 13.625 676.75 13.625 676.875 13.625H679.5V8C679.375 6 679.25 4.4375 679.125 3.3125C678.875 2.0625 679.375 1.5 680.625 1.625C681.875 1.875 683.938 2.4375 686.812 3.3125C687.562 3.9375 687.562 4.5625 686.812 5.1875C686.188 5.5625 685.875 6.125 685.875 6.875ZM685.875 27.5V41H689.25V27.5H685.875ZM676.125 27.5V41H679.5V27.5H676.125ZM689.25 14.9375H685.875V26.375H689.25V14.9375ZM676.125 16.4375V26.375H679.5V14.9375H676.5C676.25 15.0625 676.125 15.5625 676.125 16.4375ZM669.188 13.625H664.688V21.6875C665.062 21.6875 665.75 21.5625 666.75 21.3125C667.875 21.1875 668.75 21 669.375 20.75C669.375 17.125 669.312 14.75 669.188 13.625ZM737.625 45.875V43.625H723.375V44.75C723.375 45.625 722.938 46.3125 722.062 46.8125C720.812 47.1875 719.562 47.4375 718.312 47.5625C716.688 47.6875 716.062 47.125 716.438 45.875C716.312 44.75 716.375 43.125 716.625 41C716.5 41 716.375 41 716.25 41C713.5 41.875 712.125 40.9375 712.125 38.1875C711.875 35.5625 711.562 33.6875 711.188 32.5625C710.062 37.5625 706.438 42.0625 700.312 46.0625C699.688 46.4375 699.312 46.5625 699.188 46.4375C699.062 46.1875 699.188 45.8125 699.562 45.3125C702.188 41.3125 703.875 37.9375 704.625 35.1875C705.5 32.3125 705.938 28.1875 705.938 22.8125V11.1875C705.812 7.9375 705.562 5.3125 705.188 3.3125C704.812 2.1875 705.25 1.625 706.5 1.625C708.375 1.875 710.438 2.1875 712.688 2.5625C713.688 3.0625 713.875 3.8125 713.25 4.8125C712.375 5.3125 712 5.8125 712.125 6.3125V16.8125C712.625 14.6875 713 12.5 713.25 10.25C713.125 9.5 713.562 9.3125 714.562 9.6875C715.312 9.9375 716.062 10.1875 716.812 10.4375C716.688 9.6875 716.625 8.75 716.625 7.625C716.5 6.5 716.375 5.375 716.25 4.25C716 3.5 716 3.0625 716.25 2.9375C716.375 2.6875 716.875 2.625 717.75 2.75C720.25 3.375 722.312 3.9375 723.938 4.4375C724.312 4.6875 724.625 4.9375 724.875 5.1875H736.875C737.75 3.4375 738.625 2.4375 739.5 2.1875C740.875 2.5625 742.938 3.75 745.688 5.75C746.312 6.75 746.188 7.5 745.312 8C744.438 8.5 744 9 744 9.5V22.0625C744 25.4375 744 29.375 744 33.875C744.125 38.75 744.312 42.25 744.562 44.375C744.562 45.625 744 46.4375 742.875 46.8125C741.5 47.3125 740.25 47.5625 739.125 47.5625C738 47.5625 737.5 47 737.625 45.875ZM723.375 39.6875V42.3125H737.625V36.875C737.25 37.5 736.688 37.875 735.938 38C733.438 39 732.188 37.75 732.188 34.25C732.188 32.5 731.938 30.375 731.438 27.875C730.188 32.375 727.562 36.25 723.562 39.5C723.438 39.625 723.375 39.6875 723.375 39.6875ZM737.625 16.25V6.6875H724.312C723.562 7.1875 723.25 7.6875 723.375 8.1875V17.5625C724.5 17.5625 725.562 17.5625 726.562 17.5625C726.562 17.0625 726.562 16.375 726.562 15.5C726.438 13 726.312 10.8125 726.188 8.9375C725.938 8.3125 725.875 7.9375 726 7.8125C726.125 7.5625 726.562 7.4375 727.312 7.4375C729.562 7.6875 731.75 7.9375 733.875 8.1875C734.375 8.3125 734.688 8.625 734.812 9.125C734.938 9.625 734.75 9.9375 734.25 10.0625C733.5 10.5625 733.125 11.1875 733.125 11.9375C733.125 12.6875 733.062 13.625 732.938 14.75C732.938 15.75 732.938 16.4375 732.938 16.8125C733.688 15.6875 734.25 15.0625 734.625 14.9375C735.25 15.0625 736.25 15.5 737.625 16.25ZM716.812 20.75V15.6875C715.812 17.3125 714.25 18.875 712.125 20.375V21.6875C712.125 24.9375 711.938 27.75 711.562 30.125C713.688 31.125 715.438 32.375 716.812 33.875C716.812 29.5 716.812 25.125 716.812 20.75ZM699.375 20.5625C700.875 18.8125 701.875 16.375 702.375 13.25C702.375 13 702.438 12.875 702.562 12.875C702.688 12.75 702.875 12.75 703.125 12.875C705.125 15.875 706 18.75 705.75 21.5C705.375 24 703.875 25.25 701.25 25.25C700.25 25.125 699.562 24.5625 699.188 23.5625C698.812 22.4375 698.875 21.4375 699.375 20.5625ZM737.625 31.25V19.0625H732.75C732.5 21.6875 732.188 23.9375 731.812 25.8125C734.062 27.0625 736 28.875 737.625 31.25ZM723.375 19.25V37.4375C725.375 33.0625 726.438 26.9375 726.562 19.0625H726C725.5 19.0625 724.875 19.125 724.125 19.25C723.75 19.25 723.5 19.25 723.375 19.25ZM780.375 3.125L780.75 3.5C775.75 10 773.25 17.25 773.25 25.25C773 33.25 775.5 40.3125 780.75 46.4375L780.375 47.1875C772.375 42.1875 768.312 34.875 768.188 25.25C768.688 16.625 772.75 9.25 780.375 3.125ZM801 28.0625V27.125C800.875 25.75 800.75 24.1875 800.625 22.4375C800.375 21.4375 800.875 21 802.125 21.125C804.5 21.375 806.75 21.875 808.875 22.625C809 22.75 809.125 22.875 809.25 23H827.062C828.562 21 829.562 20 830.062 20C832.312 20.875 834.625 22.4375 837 24.6875C837.25 25.3125 836.938 25.8125 836.062 26.1875C835.312 26.6875 835 27.25 835.125 27.875C835 30 835.062 32.125 835.312 34.25C835.312 35.75 834.688 36.6875 833.438 37.0625C832.562 37.5625 831.312 37.875 829.688 38C828.188 38.25 827.5 37.8125 827.625 36.6875V35.75H821.25V37.625C821.25 39.125 822 39.875 823.5 39.875H831.75C833.25 40 834.375 39.25 835.125 37.625C835.25 37.375 835.562 36.375 836.062 34.625C836.438 33.5 836.875 32.3125 837.375 31.0625C837.5 30.0625 837.812 29.625 838.312 29.75C838.688 29.75 838.875 30.1875 838.875 31.0625C838.75 34.5625 839.438 37.125 840.938 38.75C843.062 40.625 842.875 42.375 840.375 44C838.375 45 835.75 45.5 832.5 45.5H820.312C815.562 45.75 813.375 43.5625 813.75 38.9375V35.75H808.125V38C808.125 39.125 807.562 39.8125 806.438 40.0625C805.688 40.4375 804.375 40.6875 802.5 40.8125C801.125 40.9375 800.5 40.4375 800.625 39.3125C800.625 38.9375 800.625 37.8125 800.625 35.9375C800.875 32.4375 801 29.8125 801 28.0625ZM802.125 9.5H814.125V5.75H807.562C806.062 5.75 805 5.8125 804.375 5.9375C803.625 5.9375 803.125 5.9375 802.875 5.9375C802.75 5.9375 802.562 6 802.312 6.125C802.188 6.125 802 5.9375 801.75 5.5625C801.25 5.1875 800.938 4.8125 800.812 4.4375C800.562 4.1875 800.438 4.0625 800.438 4.0625C800.438 3.9375 800.625 3.875 801 3.875C801.125 4 801.312 4.0625 801.562 4.0625C803.938 4.3125 806 4.375 807.75 4.25H827.812C829.062 1.875 830.062 0.6875 830.812 0.6875C832.062 1.0625 833.562 2.1875 835.312 4.0625C835.688 4.9375 835.562 5.5 834.938 5.75H822.188C822.062 6.125 821.938 6.3125 821.812 6.3125C821.312 6.6875 821.125 7.0625 821.25 7.4375V9.5H832.5C833.5 7.75 834.375 6.6875 835.125 6.3125C836.75 6.8125 838.812 8.375 841.312 11C841.812 11.875 842 12.5625 841.875 13.0625C841.5 13.5625 840.938 13.8125 840.188 13.8125C838.188 13.6875 835.875 14.6875 833.25 16.8125C832.75 17.1875 832.375 17.3125 832.125 17.1875C832 17.0625 832 16.6875 832.125 16.0625L833.062 11H821.25V19.8125C821.25 21.0625 820.688 21.8125 819.562 22.0625C817.938 22.4375 816.625 22.625 815.625 22.625C814.5 22.875 814 22.375 814.125 21.125V11H802.5C802.875 12.375 803 13.75 802.875 15.125C802 18.125 800.312 19.3125 797.812 18.6875C795.688 17.6875 795.188 16 796.312 13.625C798.062 11.75 799.125 9.75 799.5 7.625C799.5 7.25 799.625 7.0625 799.875 7.0625C800.125 7.0625 800.438 7.1875 800.812 7.4375C801.312 8.1875 801.75 8.875 802.125 9.5ZM821.25 34.25H827.625V30.125H821.25V34.25ZM827.625 24.5H821.25V28.625H827.625V24.5ZM808.125 30.125V34.25H813.75V30.125H808.125ZM808.125 26V28.625H813.75V24.5H808.688C808.312 24.875 808.125 25.375 808.125 26ZM813.562 15.125H804V13.8125H813.562V15.125ZM813.375 19.25H804V17.9375H813.375V19.25ZM831.375 15.125H822.375V13.8125H831.375V15.125ZM831.375 19.25H822.375V17.9375H831.375V19.25ZM876.562 22.625H870.562V33.6875C870.562 36.4375 870.688 38.75 870.938 40.625C871.062 42.875 870.25 44.5 868.5 45.5C866.875 46.125 864.875 46.75 862.5 47.375C860.875 47.75 860 47.25 859.875 45.875C859.375 44.125 857.75 42.75 855 41.75C853.875 41.375 853.438 41.0625 853.688 40.8125C853.562 40.3125 854.125 40.0625 855.375 40.0625C860.875 40.4375 863.438 39.5 863.062 37.25V22.625H852.188C849.688 22.75 847.312 22.875 845.062 23C844.562 23.25 844.188 23.125 843.938 22.625C843.688 22.5 843.562 22.3125 843.562 22.0625C843.438 21.8125 843.312 21.5625 843.188 21.3125C843.062 21.0625 843 20.875 843 20.75C843 20.75 843.125 20.75 843.375 20.75C844.25 20.875 845.812 21 848.062 21.125C850.438 21.125 852.375 21.125 853.875 21.125H863.062C862.938 19.625 862.875 18.1875 862.875 16.8125C862.875 15.9375 862.875 15.375 862.875 15.125C862.375 13.875 862.875 13.3125 864.375 13.4375C865.375 13.6875 866.562 13.875 867.938 14C870.062 10.75 872.062 7.9375 873.938 5.5625H857.438C854.812 5.6875 852.562 5.8125 850.688 5.9375C850.312 6.1875 850 6.0625 849.75 5.5625C849.625 5.5625 849.5 5.4375 849.375 5.1875C849.125 4.8125 848.938 4.5 848.812 4.25C848.562 4.125 848.5 4 848.625 3.875C848.75 3.875 848.938 3.8125 849.188 3.6875C849.812 3.8125 851 3.9375 852.75 4.0625C854.625 4.0625 856.5 4.0625 858.375 4.0625H873.562C874.812 2.1875 875.875 1.1875 876.75 1.0625C879.5 2.0625 882.375 4.0625 885.375 7.0625C885.625 7.6875 885.688 8.1875 885.562 8.5625C885.062 9.1875 884.5 9.375 883.875 9.125C880.875 9 876.562 10.8125 870.938 14.5625C871.062 14.5625 871.188 14.5625 871.312 14.5625C872.062 15.1875 872.062 15.8125 871.312 16.4375C870.812 16.6875 870.562 17.25 870.562 18.125V21.125H879C880.875 17.875 882.25 16.1875 883.125 16.0625C884.875 16.8125 887.125 18.625 889.875 21.5C890.125 22 890.188 22.4375 890.062 22.8125C889.938 23.0625 889.688 23.125 889.312 23C885.312 22.875 881.062 22.75 876.562 22.625ZM929.625 45.875V43.625H915.375V44.75C915.375 45.625 914.938 46.3125 914.062 46.8125C912.812 47.1875 911.562 47.4375 910.312 47.5625C908.688 47.6875 908.062 47.125 908.438 45.875C908.312 44.75 908.375 43.125 908.625 41C908.5 41 908.375 41 908.25 41C905.5 41.875 904.125 40.9375 904.125 38.1875C903.875 35.5625 903.562 33.6875 903.188 32.5625C902.062 37.5625 898.438 42.0625 892.312 46.0625C891.688 46.4375 891.312 46.5625 891.188 46.4375C891.062 46.1875 891.188 45.8125 891.562 45.3125C894.188 41.3125 895.875 37.9375 896.625 35.1875C897.5 32.3125 897.938 28.1875 897.938 22.8125V11.1875C897.812 7.9375 897.562 5.3125 897.188 3.3125C896.812 2.1875 897.25 1.625 898.5 1.625C900.375 1.875 902.438 2.1875 904.688 2.5625C905.688 3.0625 905.875 3.8125 905.25 4.8125C904.375 5.3125 904 5.8125 904.125 6.3125V16.8125C904.625 14.6875 905 12.5 905.25 10.25C905.125 9.5 905.562 9.3125 906.562 9.6875C907.312 9.9375 908.062 10.1875 908.812 10.4375C908.688 9.6875 908.625 8.75 908.625 7.625C908.5 6.5 908.375 5.375 908.25 4.25C908 3.5 908 3.0625 908.25 2.9375C908.375 2.6875 908.875 2.625 909.75 2.75C912.25 3.375 914.312 3.9375 915.938 4.4375C916.312 4.6875 916.625 4.9375 916.875 5.1875H928.875C929.75 3.4375 930.625 2.4375 931.5 2.1875C932.875 2.5625 934.938 3.75 937.688 5.75C938.312 6.75 938.188 7.5 937.312 8C936.438 8.5 936 9 936 9.5V22.0625C936 25.4375 936 29.375 936 33.875C936.125 38.75 936.312 42.25 936.562 44.375C936.562 45.625 936 46.4375 934.875 46.8125C933.5 47.3125 932.25 47.5625 931.125 47.5625C930 47.5625 929.5 47 929.625 45.875ZM915.375 39.6875V42.3125H929.625V36.875C929.25 37.5 928.688 37.875 927.938 38C925.438 39 924.188 37.75 924.188 34.25C924.188 32.5 923.938 30.375 923.438 27.875C922.188 32.375 919.562 36.25 915.562 39.5C915.438 39.625 915.375 39.6875 915.375 39.6875ZM929.625 16.25V6.6875H916.312C915.562 7.1875 915.25 7.6875 915.375 8.1875V17.5625C916.5 17.5625 917.562 17.5625 918.562 17.5625C918.562 17.0625 918.562 16.375 918.562 15.5C918.438 13 918.312 10.8125 918.188 8.9375C917.938 8.3125 917.875 7.9375 918 7.8125C918.125 7.5625 918.562 7.4375 919.312 7.4375C921.562 7.6875 923.75 7.9375 925.875 8.1875C926.375 8.3125 926.688 8.625 926.812 9.125C926.938 9.625 926.75 9.9375 926.25 10.0625C925.5 10.5625 925.125 11.1875 925.125 11.9375C925.125 12.6875 925.062 13.625 924.938 14.75C924.938 15.75 924.938 16.4375 924.938 16.8125C925.688 15.6875 926.25 15.0625 926.625 14.9375C927.25 15.0625 928.25 15.5 929.625 16.25ZM908.812 20.75V15.6875C907.812 17.3125 906.25 18.875 904.125 20.375V21.6875C904.125 24.9375 903.938 27.75 903.562 30.125C905.688 31.125 907.438 32.375 908.812 33.875C908.812 29.5 908.812 25.125 908.812 20.75ZM891.375 20.5625C892.875 18.8125 893.875 16.375 894.375 13.25C894.375 13 894.438 12.875 894.562 12.875C894.688 12.75 894.875 12.75 895.125 12.875C897.125 15.875 898 18.75 897.75 21.5C897.375 24 895.875 25.25 893.25 25.25C892.25 25.125 891.562 24.5625 891.188 23.5625C890.812 22.4375 890.875 21.4375 891.375 20.5625ZM929.625 31.25V19.0625H924.75C924.5 21.6875 924.188 23.9375 923.812 25.8125C926.062 27.0625 928 28.875 929.625 31.25ZM915.375 19.25V37.4375C917.375 33.0625 918.438 26.9375 918.562 19.0625H918C917.5 19.0625 916.875 19.125 916.125 19.25C915.75 19.25 915.5 19.25 915.375 19.25ZM965.812 5.1875V13.8125L970.312 12.125C971.062 10.25 972.062 9.125 973.312 8.75C974.688 8.875 976.75 9.875 979.5 11.75C980.375 12.625 980.438 13.3125 979.688 13.8125C978.938 14.1875 978.625 14.8125 978.75 15.6875V18.5C978.625 21.875 978.688 25 978.938 27.875C978.938 30.125 978.188 31.875 976.688 33.125C975.812 34 974.25 34.75 972 35.375C970.75 35.875 970 35.5625 969.75 34.4375C969.125 32.1875 967.812 30.625 965.812 29.75C965.812 30.5 965.812 31.5 965.812 32.75C965.938 34 966 34.875 966 35.375C966 36.625 965.438 37.375 964.312 37.625C962.688 38.125 961 38.375 959.25 38.375C958.125 38.5 957.688 38 957.938 36.875C958.062 35.625 958.188 33.9375 958.312 31.8125C958.312 29.8125 958.375 27.5625 958.5 25.0625V18.125L953.625 20V36.5C953.25 39 954.25 40.125 956.625 39.875H974.812C977.438 40 979.562 37.125 981.188 31.25C981.438 30.375 981.812 29.9375 982.312 29.9375C982.812 30.0625 983 30.625 982.875 31.625C982.375 36.625 982.812 39.1875 984.188 39.3125C985.938 40.4375 986.688 41.5 986.438 42.5C986.312 43.625 985.625 44.5 984.375 45.125C982.625 46 979.875 46.4375 976.125 46.4375H953.25C948.5 46.4375 946.188 44.375 946.312 40.25V22.625L945.562 22.8125C943.562 23.5625 942.188 24.25 941.438 24.875C941.062 25.125 940.75 25.0625 940.5 24.6875C940.25 24.5625 940 24.375 939.75 24.125C939.5 24 939.312 23.8125 939.188 23.5625C939.062 23.4375 939 23.3125 939 23.1875C939 23.0625 939.125 23 939.375 23C941.5 22.625 943.812 22 946.312 21.125V17.375C946.188 16.125 946.125 14.8125 946.125 13.4375C946 11.8125 945.875 10.375 945.75 9.125C945.375 7.75 945.875 7.1875 947.25 7.4375C949 7.5625 951.25 7.9375 954 8.5625C955.125 9.1875 955.25 9.9375 954.375 10.8125C953.75 11.1875 953.5 11.6875 953.625 12.3125V18.3125L958.5 16.4375V8C958.375 6 958.25 4.0625 958.125 2.1875C957.875 1.5625 957.875 1.125 958.125 0.875C958.25 0.75 958.812 0.6875 959.812 0.6875C961.938 0.8125 964.125 1.1875 966.375 1.8125C966.875 1.9375 967.188 2.25 967.312 2.75C967.312 3.25 967.062 3.625 966.562 3.875C965.938 4.125 965.688 4.5625 965.812 5.1875ZM971.438 13.4375L965.812 15.5V28.25C965.938 28.25 966.125 28.25 966.375 28.25C970 29 971.688 28.25 971.438 26V13.4375ZM1000.31 6.6875H1005.38C1006.25 4.8125 1007.06 3.6875 1007.81 3.3125C1009.06 3.6875 1010.56 4.8125 1012.31 6.6875C1012.69 5.5625 1013.12 3.9375 1013.62 1.8125C1013.38 3.1875 1013.44 3 1013.81 1.25C1013.69 0.625 1014.12 0.375 1015.12 0.5C1016.25 0.75 1018.38 1.25 1021.5 2C1022.38 2.75 1022.38 3.375 1021.5 3.875C1021.25 4 1021.06 4.125 1020.94 4.25C1020.44 4.5 1020.12 4.75 1020 5C1019.5 5.625 1019.06 6.125 1018.69 6.5H1024.31C1025.69 4.125 1026.69 2.875 1027.31 2.75C1028.69 3.125 1030.44 4.375 1032.56 6.5C1032.94 7.375 1032.75 7.875 1032 8H1023.38C1024.5 8.625 1025.38 9.375 1026 10.25C1026.88 12.125 1026.56 13.625 1025.06 14.75C1025.56 15.25 1025.88 15.5625 1026 15.6875C1026.12 16.3125 1025.94 16.875 1025.44 17.375C1024.94 17.625 1024.69 18.0625 1024.69 18.6875C1024.69 19.9375 1024.69 21.5 1024.69 23.375C1024.81 25.375 1024.94 26.9375 1025.06 28.0625C1025.19 29.5625 1024.56 30.5 1023.19 30.875C1023.06 30.875 1022.75 30.9375 1022.25 31.0625C1021.75 31.1875 1021.44 31.25 1021.31 31.25C1022.06 31.75 1022.19 32.25 1021.69 32.75C1021.31 33.125 1021.12 33.5625 1021.12 34.0625V34.25H1024.88C1026.25 31.625 1027.38 30.1875 1028.25 29.9375C1030 30.5625 1031.88 32 1033.88 34.25C1034.25 35.25 1034.06 35.8125 1033.31 35.9375C1032.44 35.9375 1031.31 35.875 1029.94 35.75C1026.69 35.75 1024.44 35.75 1023.19 35.75H1021.12V37.4375C1021.12 39.6875 1021.25 41.875 1021.5 44C1021.62 45.5 1021 46.4375 1019.62 46.8125C1018.25 47.1875 1016.81 47.4375 1015.31 47.5625C1014.06 47.8125 1013.56 47.3125 1013.81 46.0625C1013.94 45.0625 1014 42.4375 1014 38.1875V35.75H1007.62C1006.25 42.375 1000.31 46.125 989.812 47C989.062 47 988.625 46.875 988.5 46.625C988.5 46.375 988.875 46.125 989.625 45.875C996 42.625 999.625 39.25 1000.5 35.75H993.188C990.938 35.75 989.625 35.8125 989.25 35.9375C988.75 36.1875 988.438 36.125 988.312 35.75C987.938 35.25 987.562 34.8125 987.188 34.4375C987.062 34.1875 987 34.0625 987 34.0625C987.125 33.9375 987.312 33.875 987.562 33.875C988.188 34 989.188 34.125 990.562 34.25C992.062 34.25 993.188 34.25 993.938 34.25H1000.69C1000.81 33.5 1000.88 32.6875 1000.88 31.8125C999.875 32.1875 998.562 32.375 996.938 32.375C995.688 32.625 995.188 32.125 995.438 30.875C995.562 27.125 995.688 23.375 995.812 19.625C995.688 17.25 995.562 15.1875 995.438 13.4375C995.188 12.5625 995.688 12.1875 996.938 12.3125C998.438 12.6875 999.938 13.125 1001.44 13.625C1001.19 13.375 1001.06 12.9375 1001.06 12.3125C1000.94 10.6875 1000.44 9.25 999.562 8H999.188C996.438 11.25 993 14.25 988.875 17C988.375 17.375 988 17.4375 987.75 17.1875C987.625 17.0625 987.75 16.6875 988.125 16.0625C991.375 11.6875 993.688 6.8125 995.062 1.4375C995.188 0.8125 995.625 0.5 996.375 0.5C998.625 0.875 1000.81 1.4375 1002.94 2.1875C1003.44 2.4375 1003.69 2.8125 1003.69 3.3125C1003.69 3.8125 1003.5 4.0625 1003.12 4.0625C1002.5 4.1875 1001.94 4.5625 1001.44 5.1875C1001.31 5.4375 1001.06 5.75 1000.69 6.125C1000.44 6.375 1000.31 6.5625 1000.31 6.6875ZM1002.75 20.375V23.5625H1017.56V20.375H1002.75ZM1002.75 25.0625V28.0625H1017.56V25.0625H1002.75ZM1017.56 15.875H1003.12C1002.88 16.125 1002.75 16.5 1002.75 17V18.875H1017.56V15.875ZM1008 34.25H1014C1014 33.25 1013.94 32.4375 1013.81 31.8125C1013.69 30.6875 1014.12 30.25 1015.12 30.5C1015.62 30.5 1016.44 30.5625 1017.56 30.6875V29.5625H1002.75C1002.75 29.6875 1002.69 29.8125 1002.56 29.9375C1002.44 30.0625 1002.44 30.125 1002.56 30.125C1005.31 30.625 1007.31 31 1008.56 31.25C1009.56 31.75 1009.69 32.4375 1008.94 33.3125C1008.31 33.5625 1008 33.875 1008 34.25ZM1010.62 14.375H1016.81C1017.94 12.625 1018.75 11.75 1019.25 11.75C1019.38 11.75 1019.69 11.8125 1020.19 11.9375C1020.06 10.4375 1019.62 9.125 1018.88 8H1017.75C1015.88 10.25 1013.5 12.375 1010.62 14.375ZM1011.75 8H1004.44C1005.44 8.625 1006.25 9.375 1006.88 10.25C1007.5 11.75 1007.19 13.125 1005.94 14.375H1008.56C1008.44 14.375 1008.5 14.375 1008.75 14.375C1009.88 12.5 1010.88 10.375 1011.75 8ZM1049.06 47.5625L1048.88 47.1875C1054.12 41.3125 1056.62 34.1875 1056.38 25.8125C1056.25 17.0625 1053.75 9.875 1048.88 4.25L1049.06 3.5C1056.69 8 1060.75 15.4375 1061.25 25.8125C1061.38 35.9375 1057.31 43.1875 1049.06 47.5625ZM1096.31 34.0625H1093.88V31.0625C1093.88 29.4375 1094.5 27.6875 1095.75 25.8125C1097.38 23.8125 1098.19 21.75 1098.19 19.625C1098.19 15.125 1096.69 12.8125 1093.69 12.6875C1091.31 12.9375 1089.69 13.8125 1088.81 15.3125C1089.06 15.3125 1089.31 15.3125 1089.56 15.3125C1091.94 15.4375 1093.19 16.5 1093.31 18.5C1093.06 20.5 1091.81 21.625 1089.56 21.875C1087.19 21.75 1085.94 20.4375 1085.81 17.9375C1086.19 13.5625 1089.38 11.125 1095.38 10.625C1101.75 11 1105.19 13.375 1105.69 17.75C1105.69 20.375 1104.06 22.875 1100.81 25.25C1097.81 27.5 1096.31 29.75 1096.31 32V34.0625ZM1090.88 40.0625C1091.12 37.6875 1092.44 36.3125 1094.81 35.9375C1097.31 36.1875 1098.69 37.5625 1098.94 40.0625C1098.56 42.0625 1097.19 43.25 1094.81 43.625C1092.44 43.25 1091.12 42.0625 1090.88 40.0625Z" fill="#10656A"/>
</svg>
