<svg width="888" height="49" viewBox="0 0 888 49" fill="none" xmlns="http://www.w3.org/2000/svg">
<path d="M34.6875 19.625V23.1875C34.6875 22.8125 35.0625 22.8125 35.8125 23.1875C40.6875 25.0625 44.1875 28.0625 46.3125 32.1875C47.0625 35.6875 46.125 38 43.5 39.125C40.875 39.625 39.3125 38.125 38.8125 34.625C38.3125 31.125 37.0625 27.625 35.0625 24.125C34.8125 24 34.6875 23.8125 34.6875 23.5625V25.8125C34.5625 32.6875 34.625 37.625 34.875 40.625C35.125 42.875 34.4375 44.5 32.8125 45.5C30.9375 46.5 29.0625 47.125 27.1875 47.375C25.5625 47.625 24.6875 47.25 24.5625 46.25C24.1875 44.125 23.125 42.8125 21.375 42.3125C20.375 41.9375 19.9375 41.5625 20.0625 41.1875C19.9375 41.0625 20.5625 41 21.9375 41C25.9375 41.625 27.75 40.375 27.375 37.25V24.875C27.375 25.125 27.1875 25.25 26.8125 25.25C26.1875 25.5 25.875 25.875 25.875 26.375C23.875 32.625 20.4375 37.3125 15.5625 40.4375C14.9375 40.8125 14.5625 40.9375 14.4375 40.8125C14.3125 40.6875 14.4375 40.3125 14.8125 39.6875C16.5625 35.6875 17.8125 32.0625 18.5625 28.8125C18.5625 28.6875 18.5625 28.375 18.5625 27.875C18.9375 26.5 19.1875 25 19.3125 23.375C19.4375 22.375 19.9375 21.9375 20.8125 22.0625C22.6875 22.3125 24.6875 22.8125 26.8125 23.5625C27.1875 23.9375 27.375 24.125 27.375 24.125V23.5625C27.25 22.0625 27.1875 20.625 27.1875 19.25C27.0625 17.875 26.9375 16.875 26.8125 16.25C26.4375 14.875 26.9375 14.3125 28.3125 14.5625C30.0625 14.8125 32.3125 15.1875 35.0625 15.6875C36.3125 16.4375 36.5 17.1875 35.625 17.9375C34.875 18.3125 34.5625 18.875 34.6875 19.625ZM13.5 18.125V35.75C13.375 39.25 13.4375 41.75 13.6875 43.25C13.9375 44.875 13.375 45.9375 12 46.4375C10.75 46.8125 9.4375 47.125 8.0625 47.375C5.9375 48 5.1875 46.875 5.8125 44C5.8125 43.375 5.8125 42.4375 5.8125 41.1875C6.1875 35.6875 6.375 31.5625 6.375 28.8125V22.625C4.625 24.75 2.875 26.4375 1.125 27.6875C0.75 28.0625 0.5 28.125 0.375 27.875C0.25 27.625 0.3125 27.25 0.5625 26.75C3.5625 20.75 5.9375 14.5625 7.6875 8.1875C8.3125 6.4375 8.75 4.1875 9 1.4375C8.875 0.6875 9.375 0.3125 10.5 0.3125C12 0.6875 14.5 1.4375 18 2.5625C18.75 3.3125 18.75 4.0625 18 4.8125C17.125 5.1875 16.625 5.5625 16.5 5.9375C14.875 9.1875 13.4375 12 12.1875 14.375C12.3125 14.375 12.5625 14.4375 12.9375 14.5625C13.3125 14.5625 13.5625 14.5625 13.6875 14.5625C14.5625 15.1875 14.6875 15.8125 14.0625 16.4375C13.5625 16.8125 13.375 17.375 13.5 18.125ZM36.9375 17.375L38.25 12.875H25.875C23.125 17.25 19.625 20.8125 15.375 23.5625C15 23.8125 14.75 23.8125 14.625 23.5625C14.5 23.4375 14.5625 23.125 14.8125 22.625C18.0625 17.625 20.375 12.4375 21.75 7.0625C22 6.0625 22.1875 5.125 22.3125 4.25C22.5625 3.25 22.6875 2.3125 22.6875 1.4375C22.6875 0.5625 23.1875 0.25 24.1875 0.5C25.3125 0.625 27.25 1.125 30 2C30.25 2.125 30.5625 2.1875 30.9375 2.1875C31.3125 2.4375 31.5625 2.8125 31.6875 3.3125C31.5625 3.8125 31.3125 4.0625 30.9375 4.0625C30.0625 4.4375 29.5625 4.9375 29.4375 5.5625C28.5625 7.6875 27.6875 9.625 26.8125 11.375H37.3125C38.1875 9.375 39.125 8.1875 40.125 7.8125C42 8.1875 44.1875 9.625 46.6875 12.125C47.3125 12.75 47.5625 13.4375 47.4375 14.1875C47.3125 14.9375 46.6875 15.3125 45.5625 15.3125C42.5625 15.0625 40.0625 16 38.0625 18.125C37.5625 18.5 37.1875 18.625 36.9375 18.5C36.8125 18.375 36.8125 18 36.9375 17.375ZM79.125 15.5H59.8125C59.4375 15.625 59.0625 15.75 58.6875 15.875C58.1875 16.125 57.8125 16.25 57.5625 16.25C59.0625 16.75 60.5 17.25 61.875 17.75H79.6875C80.6875 16.125 81.5 15.3125 82.125 15.3125C85.375 16.4375 87.6875 17.75 89.0625 19.25C89.0625 19.875 88.75 20.3125 88.125 20.5625C87.625 20.9375 87.4375 21.4375 87.5625 22.0625C87.4375 23.6875 87.5 25.125 87.75 26.375C87.75 27 87.8125 27.5 87.9375 27.875C87.9375 29.125 87.5625 29.875 86.8125 30.125C86.0625 30.625 84.9375 31 83.4375 31.25C85.3125 32 86.6875 32.8125 87.5625 33.6875C87.4375 34.4375 87.125 34.9375 86.625 35.1875C86.125 35.4375 85.9375 35.8125 86.0625 36.3125C85.9375 39.8125 86 42.25 86.25 43.625C86.375 45.25 85.875 46.125 84.75 46.25C83 46.625 81.375 46.875 79.875 47C78.625 47.125 78.0625 46.625 78.1875 45.5V44.1875H63.75V44.9375C63.75 45.8125 63.4375 46.3125 62.8125 46.4375C61.4375 46.8125 59.875 47.0625 58.125 47.1875C56.375 47.4375 55.75 46.75 56.25 45.125C56.25 44.75 56.25 43.8125 56.25 42.3125C56.375 40.3125 56.4375 38.875 56.4375 38C56.4375 37.25 56.375 35.9375 56.25 34.0625C56.25 33.0625 56.25 32.375 56.25 32C56 31.75 55.9375 31.5 56.0625 31.25C55.8125 31.25 55.6875 31.25 55.6875 31.25C54.1875 31.5 53.5625 30.8125 53.8125 29.1875C53.8125 28.9375 53.8125 28.5625 53.8125 28.0625C54.0625 25.5625 54.1875 23.5625 54.1875 22.0625C54.1875 20.4375 54.125 19.4375 54 19.0625C54 18.4375 54 17.9375 54 17.5625C53.375 17.8125 52.625 18 51.75 18.125C50.875 18.375 50.1875 18.5625 49.6875 18.6875C49.0625 18.8125 48.625 18.75 48.375 18.5C48.375 18.25 48.625 17.9375 49.125 17.5625C57.75 12.8125 63.0625 7.625 65.0625 2C65.1875 1 65.875 0.5625 67.125 0.6875C69.25 1.0625 71.8125 1.75 74.8125 2.75C75.4375 3.125 75.75 3.625 75.75 4.25C75.75 4.75 75.4375 5.0625 74.8125 5.1875C74.6875 5.1875 74.5625 5.25 74.4375 5.375C74.3125 5.5 74.1875 5.5 74.0625 5.375C80.5625 9.625 87.375 11.1875 94.5 10.0625C95.125 10.1875 95.5 10.4375 95.625 10.8125C95.75 11.3125 95.5 11.6875 94.875 11.9375C93.25 13.0625 92.0625 14.75 91.3125 17C91.1875 18 90.375 18.1875 88.875 17.5625C82.125 15.5625 76.8125 11.8125 72.9375 6.3125C72.6875 6.4375 72.4375 6.625 72.1875 6.875C72.1875 7 72.1875 7.0625 72.1875 7.0625C70.0625 9.6875 67 12 63 14H72.1875C73.3125 12 74.375 10.875 75.375 10.625C76.125 10.75 77.4375 11.75 79.3125 13.625C79.6875 14.125 79.875 14.5625 79.875 14.9375C79.875 15.3125 79.625 15.5 79.125 15.5ZM64.6875 32.375H77.4375C78.1875 30.875 78.9375 30.0625 79.6875 29.9375C79.9375 29.9375 80.1875 29.9375 80.4375 29.9375V29H61.125C60.875 29.75 60.4375 30.1875 59.8125 30.3125C59.4375 30.5625 59.0625 30.6875 58.6875 30.6875C60.5625 31.3125 62.375 31.75 64.125 32C64.125 32.125 64.1875 32.1875 64.3125 32.1875C64.4375 32.3125 64.5625 32.375 64.6875 32.375ZM63.75 39.125V42.6875H78.1875V39.125H63.75ZM78.1875 33.875H64.125C63.875 34.125 63.75 34.5 63.75 35V37.8125H78.1875V33.875ZM80.4375 20.9375V19.25H74.25V27.6875H74.4375C74.3125 27.5625 74.375 27.3125 74.625 26.9375C74.875 25.8125 75.0625 24.75 75.1875 23.75C75.3125 22.75 75.375 21.75 75.375 20.75C75.25 20.125 75.625 19.875 76.5 20C77.75 20.25 79.0625 20.5625 80.4375 20.9375ZM61.125 20.5625V27.6875H67.5V25.0625C67.25 26.0625 66.5625 26.6875 65.4375 26.9375C63.3125 27.5625 62.25 26.75 62.25 24.5C62.25 23.375 61.875 22.0625 61.125 20.5625ZM75.75 27.6875H80.4375V23C79.9375 23.25 79.625 23.5 79.5 23.75C78.75 24.875 77.5 26.1875 75.75 27.6875ZM67.5 23.75V19.25H62.25C61.625 19.25 61.25 19.4375 61.125 19.8125C61.25 19.8125 61.375 19.8125 61.5 19.8125C64.375 20.3125 66.3125 21.375 67.3125 23C67.3125 23.25 67.3125 23.4375 67.3125 23.5625C67.3125 23.6875 67.375 23.75 67.5 23.75ZM106.125 7.25H108.75C109.875 5.5 110.75 4.5625 111.375 4.4375C113.375 5.1875 115.375 6.5 117.375 8.375C118.25 9.625 118.125 10.3125 117 10.4375C114.375 10.5625 111.562 12.1875 108.562 15.3125H111C111.875 13.9375 112.625 13.1875 113.25 13.0625C114.75 13.5625 116.375 14.6875 118.125 16.4375C118.5 17.3125 118.312 17.8125 117.562 17.9375C116.938 18.1875 116.688 18.625 116.812 19.25V25.4375C118.562 22.1875 119.688 18.9375 120.188 15.6875C120.062 15.4375 120.125 15.1875 120.375 14.9375H120C118.75 15.1875 118.188 14.6875 118.312 13.4375V9.5C118.312 7.5 118.25 6.0625 118.125 5.1875C118.125 4.1875 118.125 3.4375 118.125 2.9375C117.875 2.3125 117.875 1.875 118.125 1.625C118.25 1.5 118.688 1.4375 119.438 1.4375C121.312 2.0625 122.688 2.5 123.562 2.75C124.062 3 124.375 3.25 124.5 3.5H135.188C136.062 2.125 136.812 1.375 137.438 1.25C139.938 2.125 141.75 3.3125 142.875 4.8125C142.875 5.4375 142.562 5.875 141.938 6.125C141.438 6.5 141.25 7 141.375 7.625C141.375 9.375 141.5 11.125 141.75 12.875C141.75 14.5 141.25 15.375 140.25 15.5C140 15.625 139.75 15.75 139.5 15.875C139.25 15.875 139.062 15.875 138.938 15.875C139.688 16 141.062 16.8125 143.062 18.3125C143.812 19.3125 143.812 20.125 143.062 20.75C142.438 21 142.188 21.4375 142.312 22.0625C142.188 25.0625 142.125 28.5625 142.125 32.5625C142 36.0625 141.875 38.8125 141.75 40.8125C141.875 44.1875 139.812 46.1875 135.562 46.8125C134.062 47.1875 133.312 46.875 133.312 45.875C132.938 44.25 131.875 43.125 130.125 42.5C129.25 42.25 128.875 41.875 129 41.375C128.875 41.125 129.375 41 130.5 41C134.5 41.375 136.375 40.5 136.125 38.375C136.375 34.375 136.5 28.1875 136.5 19.8125H124.5C124.375 20.0625 124.25 20.25 124.125 20.375C124.25 20.375 124.438 20.375 124.688 20.375C124.812 20.5 125 20.5625 125.25 20.5625C127.125 20.8125 128.438 21 129.188 21.125C129.688 21.625 129.75 22.125 129.375 22.625C129 22.875 128.812 23.25 128.812 23.75V24.3125H129.75C130.625 22.9375 131.312 22.25 131.812 22.25C132.812 22.5 134.125 23.1875 135.75 24.3125C136.25 24.9375 136.25 25.5625 135.75 26.1875C135.125 26.4375 134.875 26.8125 135 27.3125V31.0625C135 32.0625 134.688 32.625 134.062 32.75C133.438 33 133 33.1875 132.75 33.3125C132.375 33.4375 132.062 33.4375 131.812 33.3125C130.562 33.6875 130.062 33.25 130.312 32V31.625H128.812V36.3125C129.062 36.3125 129.375 36.25 129.75 36.125C130.125 36.125 130.5 36.0625 130.875 35.9375C130.625 35.1875 130.312 34.4375 129.938 33.6875C129.812 33.4375 129.75 33.3125 129.75 33.3125C129.875 33.3125 130.125 33.3125 130.5 33.3125C132.75 34.3125 134.312 35.6875 135.188 37.4375C135.562 39.4375 135.062 40.625 133.688 41C131.938 41.125 131.062 40.5 131.062 39.125C131.062 38.625 131.062 38.125 131.062 37.625C127.562 39.125 124.5 40.25 121.875 41C121.25 41 120.75 41.25 120.375 41.75C119.875 42.125 119.438 42.3125 119.062 42.3125C118.812 42.3125 118.562 42 118.312 41.375C117.812 40.75 117.5 39.625 117.375 38C117 37.25 117.375 36.875 118.5 36.875C120.375 37 122.25 36.9375 124.125 36.6875V31.625H122.625V32.5625C122.625 33.6875 122.25 34.3125 121.5 34.4375C120.875 34.6875 120.25 34.8125 119.625 34.8125C118.5 35.0625 118 34.6875 118.125 33.6875V28.0625C118.125 27.4375 118.125 26.8125 118.125 26.1875L117.188 26.75C117.062 26.875 117 27 117 27.125C116.875 27.125 116.812 27.125 116.812 27.125V41.375C116.812 43.5 115.375 45 112.5 45.875C110.75 46.25 109.938 45.875 110.062 44.75C109.812 43.375 109.438 42.4375 108.938 41.9375C107.438 42.3125 106.688 42.5 106.688 42.5C105.438 42.75 104.875 42.1875 105 40.8125C105 40.5625 105 40.0625 105 39.3125C105.375 36.5625 105.562 34.125 105.562 32H104.438C104.188 38 101.875 42.75 97.5 46.25C97 46.5 96.625 46.5625 96.375 46.4375C96.125 46.3125 96.125 45.9375 96.375 45.3125C98.25 41.8125 99.25 35.125 99.375 25.25V22.0625C99.375 19.8125 99.3125 18.1875 99.1875 17.1875C98.9375 17.3125 98.6875 17.5 98.4375 17.75C98.3125 18 98.25 18.125 98.25 18.125C97.625 18.625 97.25 18.75 97.125 18.5C96.875 18.375 96.9375 17.9375 97.3125 17.1875C99.5625 11.6875 100.562 6.4375 100.312 1.4375C100.188 0.6875 100.625 0.3125 101.625 0.3125C102.25 0.4375 103.438 0.5625 105.188 0.6875C106.562 0.8125 107.625 0.875 108.375 0.875C109.375 1.5 109.438 2.125 108.562 2.75C107.688 3 107.188 3.5625 107.062 4.4375C106.812 4.8125 106.625 5.3125 106.5 5.9375C106.375 6.5625 106.25 7 106.125 7.25ZM125.438 18.5H135.562C136.312 17.5 137 16.6875 137.625 16.0625C136.375 16.3125 135.812 15.8125 135.938 14.5625V14.375H123.188C122.938 14.5 122.688 14.625 122.438 14.75C122.312 14.75 122.188 14.75 122.062 14.75C123.688 15.125 125.188 15.5625 126.562 16.0625C126.938 16.3125 127.125 16.625 127.125 17C127.125 17.5 126.938 17.75 126.562 17.75C125.938 18 125.562 18.25 125.438 18.5ZM105.562 15.3125H106.5L109.125 8.375H105.562C104.812 10.375 103.688 12.1875 102.188 13.8125C102.562 14.0625 102.938 14.1875 103.312 14.1875C103.688 14.3125 104.25 14.5 105 14.75C105.375 15 105.562 15.1875 105.562 15.3125ZM111.375 39.3125V32H110.062V40.4375C110.938 40.5625 111.375 40.1875 111.375 39.3125ZM135.938 4.8125H134.625V12.875H135.938V4.8125ZM129.188 4.8125V12.875H130.312V4.8125H129.188ZM123.562 12.875H124.875V4.8125H123.75C123.75 4.9375 123.688 5.125 123.562 5.375C123.562 5.75 123.562 6 123.562 6.125V12.875ZM110.062 24.3125V30.5H111.375V24.3125H110.062ZM111.375 16.8125H110.062V22.8125H111.375V16.8125ZM105.75 26V24.3125H104.625V25.625C104.625 27 104.562 28 104.438 28.625C104.438 29.375 104.438 30 104.438 30.5H105.562C105.562 30.125 105.562 29.5 105.562 28.625C105.688 27.5 105.75 26.625 105.75 26ZM130.312 25.4375H128.812V30.5H130.312V25.4375ZM122.625 26.5625V30.5H124.125V25.4375H123C122.75 25.8125 122.625 26.1875 122.625 26.5625ZM104.625 17.9375V22.8125H105.75V16.8125H104.812C104.562 17.0625 104.5 17.4375 104.625 17.9375ZM123.375 24.3125H124.125C124 23.8125 123.938 23.375 123.938 23C123.812 22.25 123.75 21.6875 123.75 21.3125C123.75 21.1875 123.75 21.0625 123.75 20.9375C123.5 21.3125 123.125 21.75 122.625 22.25C122.125 22.75 121.812 23.125 121.688 23.375C121.938 23.625 122.375 23.8125 123 23.9375C123.125 24.0625 123.25 24.1875 123.375 24.3125ZM162.375 24.6875V39.875C162.375 41.125 161.812 41.9375 160.688 42.3125C159.688 42.6875 158.75 42.875 157.875 42.875C156.375 43.25 155.688 42.875 155.812 41.75V39.125H154.125V41.75C154.125 43.5 153.625 44.5 152.625 44.75C151.75 45 150.75 45.25 149.625 45.5C148 45.75 147.25 45.125 147.375 43.625C147.375 41.875 147.375 40.1875 147.375 38.5625C147.5 36.8125 147.562 34.75 147.562 32.375V29.375C147.312 29.625 147 29.9375 146.625 30.3125C146.125 30.6875 145.75 31 145.5 31.25C144.875 31.75 144.438 31.9375 144.188 31.8125C144.062 31.6875 144.188 31.25 144.562 30.5C147.562 26.125 149.625 19.125 150.75 9.5H148.688C147.938 9.5 147.062 9.625 146.062 9.875C145.562 10 145.25 9.875 145.125 9.5C145 9.375 144.812 9.0625 144.562 8.5625C144.562 8.4375 144.562 8.3125 144.562 8.1875C144.312 7.8125 144.438 7.6875 144.938 7.8125C145.812 8.0625 147.188 8.125 149.062 8H155.812C157.562 5.5 158.812 4.1875 159.562 4.0625C160.438 4.1875 162.188 5.5 164.812 8C165.062 8.625 165.125 9.0625 165 9.3125C165 9.5625 164.75 9.6875 164.25 9.6875C163.5 9.6875 162.75 9.6875 162 9.6875C161.375 9.5625 160.5 9.5 159.375 9.5C159.5 10 159.312 10.3125 158.812 10.4375C158.188 10.8125 157.812 11.25 157.688 11.75C157.062 13.875 156.062 16.4375 154.688 19.4375C154.562 19.8125 154.438 20.1875 154.312 20.5625C154.688 20.8125 155 21 155.25 21.125H155.438C155.562 21 155.688 20.8125 155.812 20.5625C156.688 19.0625 157.312 18.3125 157.688 18.3125C159.062 18.6875 160.812 19.6875 162.938 21.3125C162.938 21.0625 162.875 20.75 162.75 20.375C162.75 20 162.75 19.6875 162.75 19.4375C162.5 18.9375 162.438 18.5625 162.562 18.3125C162.812 18.3125 163.125 18.5 163.5 18.875C165.375 22 166.938 25.0625 168.188 28.0625V14.9375H165.938C164.688 15.0625 163.688 15.125 162.938 15.125C162.062 15.125 161.562 15.125 161.438 15.125C161.062 15.375 160.75 15.3125 160.5 14.9375C160.375 14.9375 160.312 14.875 160.312 14.75C160.188 14.5 160 14.125 159.75 13.625C159.5 13.375 159.438 13.25 159.562 13.25C159.562 13.125 159.75 13.0625 160.125 13.0625C160.5 13.1875 161.375 13.3125 162.75 13.4375C164.5 13.4375 165.875 13.4375 166.875 13.4375H176.625C177.125 11.5625 177.562 9.5625 177.938 7.4375C178.062 6.8125 178.125 6.125 178.125 5.375C178.25 4.625 178.312 3.75 178.312 2.75C178.188 2.375 178.25 2.125 178.5 2C178.625 1.875 179 1.875 179.625 2C180.875 2.25 183.375 2.9375 187.125 4.0625C187.5 4.1875 187.688 4.5625 187.688 5.1875C187.562 5.5625 187.25 5.75 186.75 5.75C186.125 5.75 185.5 6.0625 184.875 6.6875C182.75 9.5625 180.688 11.8125 178.688 13.4375H181.5C183.375 10.9375 184.625 9.6875 185.25 9.6875C186.5 9.8125 188.25 11.0625 190.5 13.4375C190.875 14.3125 190.75 14.875 190.125 15.125C188.25 15 185.5 14.9375 181.875 14.9375V38C182.5 34.25 183 30.75 183.375 27.5C183.625 24.25 183.688 21.8125 183.562 20.1875C183.312 19.1875 183.875 18.75 185.25 18.875C187.5 19.5 189.5 20.0625 191.25 20.5625C192.25 21.6875 192.188 22.4375 191.062 22.8125C190.312 22.9375 189.812 23.375 189.562 24.125C187.688 30.75 185.5 35.8125 183 39.3125C182.625 39.8125 182.25 40.0625 181.875 40.0625V43.8125H182.438C183.812 41.6875 185 40.5 186 40.25C187.5 40.5 189.25 41.625 191.25 43.625C191.875 44.5 191.75 45.0625 190.875 45.3125C188.75 45.0625 185.5 45 181.125 45.125H164.438C163.688 45.125 162.688 45.125 161.438 45.125C160.562 45.25 160 45.375 159.75 45.5C159.375 45.5 159.125 45.375 159 45.125C158.75 44.875 158.562 44.625 158.438 44.375C158.312 44.125 158.188 43.9375 158.062 43.8125C157.812 43.4375 157.938 43.25 158.438 43.25C160.938 43.5 163.188 43.6875 165.188 43.8125H168.188V37.4375C167.562 38.0625 166.812 38.4375 165.938 38.5625C163.562 39.0625 162.625 37.625 163.125 34.25C163.5 30.625 163.5 26.9375 163.125 23.1875C163 23.1875 162.938 23.25 162.938 23.375C162.562 23.625 162.375 24.0625 162.375 24.6875ZM168.375 9.125C168 7 167.25 5.25 166.125 3.875C165.875 3.625 165.75 3.4375 165.75 3.3125C165.875 3.0625 166.125 2.9375 166.5 2.9375C170.375 3.1875 173.062 4.3125 174.562 6.3125C175.812 8.6875 175.438 10.5625 173.438 11.9375C170.562 13.4375 168.875 12.5 168.375 9.125ZM174.375 14.9375V43.8125H175.688V14.9375H174.375ZM154.125 23V37.625H155.812V22.625H154.125C154.125 22.75 154.125 22.875 154.125 23ZM214.875 16.0625H209.812C210.062 16.5625 209.938 17 209.438 17.375C208.938 17.75 208.75 18.5 208.875 19.625V33.6875H210V26C209.875 25 209.75 23.8125 209.625 22.4375C209.375 21.4375 209.688 21 210.562 21.125C211.438 21.375 212.625 21.6875 214.125 22.0625C214.75 22.6875 214.812 23.1875 214.312 23.5625C213.812 23.9375 213.625 24.5 213.75 25.25C213.75 26.875 213.75 28.8125 213.75 31.0625C213.875 33.0625 214 34.3125 214.125 34.8125C214.375 36.3125 214 37.125 213 37.25C212.375 37.5 211.812 37.625 211.312 37.625C210.312 38 209.875 37.5 210 36.125V35.1875H204.375C204.375 35.4375 204.312 35.625 204.188 35.75C204.062 35.875 204 35.9375 204 35.9375C203.5 36.6875 203.125 36.875 202.875 36.5C202 36.25 201.312 35.8125 200.812 35.1875C200.188 34.9375 200.125 34.375 200.625 33.5C200.875 33.375 201 32.875 201 32V26.9375C201 25.5625 200.938 24.5625 200.812 23.9375C200.812 23.1875 200.812 22.5625 200.812 22.0625C200.562 21.4375 200.5 21 200.625 20.75C200.75 20.625 201.188 20.5625 201.938 20.5625C202.438 20.8125 202.875 21 203.25 21.125C204 21.375 204.562 21.5625 204.938 21.6875C204.938 21.6875 205 21.75 205.125 21.875C205.25 22 205.375 22 205.5 21.875V16.0625H203.625C203.375 16.0625 202.938 16.125 202.312 16.25C201.438 16.25 200.875 16.25 200.625 16.25C200.375 16.5 200.188 16.5 200.062 16.25V44.5625C200.062 45.1875 199.688 45.75 198.938 46.25C198.062 46.375 197.25 46.5 196.5 46.625C194.875 46.75 194.25 46.0625 194.625 44.5625C194.75 42.1875 194.812 39.4375 194.812 36.3125C194.812 34.6875 194.812 32.75 194.812 30.5C194.938 28.75 195 25.8125 195 21.6875V8.1875C194.875 6.4375 194.75 4.875 194.625 3.5C194.25 2.25 194.75 1.75 196.125 2C196.875 2.25 197.812 2.6875 198.938 3.3125C199.312 3.4375 199.75 3.5625 200.25 3.6875C200.25 3.8125 200.312 3.875 200.438 3.875C200.562 4 200.688 4.0625 200.812 4.0625H213.562C214.688 2.1875 215.562 1.1875 216.188 1.0625C218.812 2.1875 220.75 3.5625 222 5.1875C222 5.8125 221.688 6.3125 221.062 6.6875C220.688 6.8125 220.5 7.125 220.5 7.625C220.625 7.875 220.688 8 220.688 8V41C220.562 42.5 219.688 43.9375 218.062 45.3125C217.938 45.3125 217.875 45.3125 217.875 45.3125C217 45.9375 216.125 46.3125 215.25 46.4375C213.75 46.6875 213 46.3125 213 45.3125C212.875 43.4375 211.625 42.0625 209.25 41.1875C209.125 41.0625 209 41 208.875 41C208.375 41 208.25 40.875 208.5 40.625C208.5 40.25 208.875 40.125 209.625 40.25C210.625 40.5 211.688 40.625 212.812 40.625C214.312 40.75 215.062 39.9375 215.062 38.1875V16.0625H214.875ZM230.438 36.6875V10.25C230.312 8.875 230.188 7.5 230.062 6.125C229.938 4.5 229.812 3.3125 229.688 2.5625C229.312 1.1875 229.812 0.625 231.188 0.875C233.188 1 235.375 1.3125 237.75 1.8125C238.375 2.0625 238.688 2.4375 238.688 2.9375C238.812 3.3125 238.625 3.625 238.125 3.875C237.5 4.125 237.25 4.6875 237.375 5.5625V19.25C237.25 22.625 237.188 27.1875 237.188 32.9375C237.188 36.5625 237.188 39 237.188 40.25C237.438 42.125 236.75 43.6875 235.125 44.9375C234.5 45.3125 233.125 45.9375 231 46.8125C229.375 47.1875 228.438 46.75 228.188 45.5C227.812 43.625 226.312 42.3125 223.688 41.5625C222.438 41.3125 221.938 40.9375 222.188 40.4375C222.188 40.0625 222.75 39.9375 223.875 40.0625C224.125 40.1875 224.562 40.3125 225.188 40.4375C225.938 40.4375 226.5 40.4375 226.875 40.4375C229.375 40.8125 230.562 39.5625 230.438 36.6875ZM222.75 23.75V13.8125C222.75 10.9375 222.562 8.8125 222.188 7.4375C221.938 6.1875 222.438 5.625 223.688 5.75C224.938 6 226.625 6.375 228.75 6.875C229.875 7.5 230 8.1875 229.125 8.9375C228.75 9.1875 228.562 9.8125 228.562 10.8125V21.125C228.438 26 228.5 28.875 228.75 29.75C228.875 31.375 228.438 32.375 227.438 32.75C226.562 33.25 225.438 33.6875 224.062 34.0625C222.438 34.4375 221.875 33.625 222.375 31.625C222.5 30 222.625 27.375 222.75 23.75ZM200.062 6.875V14.5625C201.062 14.8125 202.562 14.875 204.562 14.75H206.438C207.438 11.75 208.062 8.6875 208.312 5.5625H200.25C200 5.8125 199.938 6.25 200.062 6.875ZM215.062 5.5625H208.875C210.75 6.1875 212.25 6.75 213.375 7.25C213.75 7.625 213.938 7.9375 213.938 8.1875C213.938 8.5625 213.688 8.75 213.188 8.75C212.812 8.875 212.438 9.3125 212.062 10.0625C211.938 10.1875 211.812 10.3125 211.688 10.4375C210.812 11.9375 209.625 13.375 208.125 14.75H210.562C210.562 14.75 210.625 14.625 210.75 14.375C211.5 13 212.062 12.3125 212.438 12.3125C212.812 12.4375 213.688 13.125 215.062 14.375V5.5625ZM202.312 11.5625C202.062 9.8125 201.625 8.4375 201 7.4375C200.625 7.1875 200.5 7 200.625 6.875C200.75 6.75 201.062 6.6875 201.562 6.6875C204.438 7.1875 206.188 8.5625 206.812 10.8125C207.062 12.1875 206.375 13.1875 204.75 13.8125C203.375 14.4375 202.562 13.6875 202.312 11.5625ZM204.562 33.6875H205.5V23.1875C205.25 23.4375 205.188 23.5 205.312 23.375C204.688 23.75 204.438 24.375 204.562 25.25V33.6875ZM267.938 6.3125H265.688C264.438 6.4375 263.188 6.5625 261.938 6.6875C261.562 6.8125 261.312 6.6875 261.188 6.3125C260.812 6.1875 260.5 5.75 260.25 5C260 4.625 260.125 4.4375 260.625 4.4375C261.75 4.8125 263.938 4.9375 267.188 4.8125H277.688C278.562 3.1875 279.375 2.3125 280.125 2.1875C281.375 2.4375 283.438 3.375 286.312 5C287.062 5.875 287.125 6.6875 286.5 7.4375C285.75 7.8125 285.438 8.25 285.562 8.75C285.312 10.625 285.125 12.4375 285 14.1875C284.875 15.9375 284.75 17.375 284.625 18.5C284 22 281.5 24.0625 277.125 24.6875C275.75 25.0625 275 24.6875 274.875 23.5625C274.375 21.6875 273.125 20.375 271.125 19.625C271 19.625 270.938 19.625 270.938 19.625C268.312 22.75 264.062 25.125 258.188 26.75C257.688 26.875 257.375 26.8125 257.25 26.5625C257.125 26.4375 257.312 26.1875 257.812 25.8125C264.812 22.3125 268.188 15.8125 267.938 6.3125ZM251.062 41.5625H248.812V43.4375C248.688 44.6875 247.812 45.5625 246.188 46.0625C245.312 46.1875 244.438 46.375 243.562 46.625C242.312 46.75 241.812 46.125 242.062 44.75C242.188 43.5 242.25 41 242.25 37.25V35.375C242.25 32.375 242.188 30.375 242.062 29.375C241.812 28.375 242.25 27.9375 243.375 28.0625C243.75 28.3125 244.188 28.5 244.688 28.625C246.562 29.25 248.062 29.8125 249.188 30.3125H250.312C251.312 28.5625 252.125 27.625 252.75 27.5C254.25 27.75 255.938 28.75 257.812 30.5C258.312 31.375 258.25 32.0625 257.625 32.5625C257.125 33.0625 256.875 33.5625 256.875 34.0625V34.625C256.75 38.625 256.812 41.3125 257.062 42.6875C257.062 43.6875 256.75 44.4375 256.125 44.9375C255.5 45.1875 254.438 45.5 252.938 45.875C251.562 46 250.938 45.4375 251.062 44.1875V41.5625ZM273 41H275.625C277 41.125 278 39.4375 278.625 35.9375C278.625 35.1875 278.875 34.8125 279.375 34.8125C279.75 34.8125 280 35.1875 280.125 35.9375C280.375 38.5625 280.938 40.25 281.812 41C283.438 42 283.625 43.25 282.375 44.75C280.625 46.125 278.438 46.8125 275.812 46.8125H270.562C266.562 47.0625 264.688 45.125 264.938 41V33.6875C264.812 31.6875 264.688 29.9375 264.562 28.4375C264.188 27.1875 264.688 26.6875 266.062 26.9375C267.938 27.1875 269.688 27.4375 271.312 27.6875C272.562 28.3125 272.75 29 271.875 29.75C271.375 30.125 271.188 30.5 271.312 30.875V39.125C271.188 40.375 271.75 41 273 41ZM249.938 9.3125H252.75C254.125 6.8125 255 5.5625 255.375 5.5625C256.625 6.0625 258.062 7.3125 259.688 9.3125C260.062 9.9375 259.938 10.375 259.312 10.625H244.5C243.5 10.75 242.688 10.875 242.062 11C241.562 11.125 241.25 11 241.125 10.625C240.875 10.5 240.625 10.1875 240.375 9.6875C240.375 9.4375 240.375 9.25 240.375 9.125C240.125 9 240.25 8.875 240.75 8.75C241.625 9.125 243.125 9.3125 245.25 9.3125H248.25C246.75 8.9375 246 8.0625 246 6.6875C246.125 5.1875 245.812 3.5625 245.062 1.8125C244.938 1.8125 244.875 1.8125 244.875 1.8125C244.625 1.1875 244.938 0.875 245.812 0.875C248.812 1.125 251 2.125 252.375 3.875C253.125 6.625 252.312 8.4375 249.938 9.3125ZM258 37.25C259.625 35.875 260.562 33.1875 260.812 29.1875C260.812 28.6875 260.938 28.4375 261.188 28.4375C261.438 28.4375 261.75 28.625 262.125 29C264.125 33.625 264.625 37.3125 263.625 40.0625C262.125 42.0625 260.375 42.5 258.375 41.375C257 40.375 256.875 39 258 37.25ZM281.25 36.875C281 33.5 280.312 30.875 279.188 29C278.812 28.75 278.688 28.5 278.812 28.25C278.938 28.125 279.25 28.125 279.75 28.25C283.625 29.75 286.125 31.8125 287.25 34.4375C287.75 37.0625 287.062 38.8125 285.188 39.6875C282.812 40.4375 281.5 39.5 281.25 36.875ZM278.625 6.3125H275.062C274.812 11.6875 273.75 15.6875 271.875 18.3125C275.875 18.8125 277.875 17.8125 277.875 15.3125C278 13.8125 278.125 12.1875 278.25 10.4375C278.375 8.6875 278.5 7.3125 278.625 6.3125ZM273.188 31.625C272.688 28.5 272 26.25 271.125 24.875C270.875 24.625 270.812 24.375 270.938 24.125C271.062 24 271.375 23.9375 271.875 23.9375C275.125 24.8125 277.438 26.8125 278.812 29.9375C279.188 32.0625 278.438 33.4375 276.562 34.0625C274.312 34.6875 273.188 33.875 273.188 31.625ZM260.062 13.4375C261.562 12.8125 262.875 11.25 264 8.75C264.125 8.5 264.25 8.3125 264.375 8.1875C264.625 8.3125 264.812 8.5 264.938 8.75C266.188 12.25 266.25 15 265.125 17C263.25 19.25 261.375 19.625 259.5 18.125C257.875 16.25 258.062 14.6875 260.062 13.4375ZM246.375 15.875H251.812C252.812 13.875 253.625 12.8125 254.25 12.6875C255 12.9375 256.312 14 258.188 15.875C258.312 16.875 258.062 17.375 257.438 17.375H245.812C244.562 17.5 243.562 17.625 242.812 17.75C242.562 18 242.375 17.875 242.25 17.375C242 17.125 241.75 16.75 241.5 16.25C241.25 16.125 241.125 16 241.125 15.875C241.25 15.875 241.438 15.8125 241.688 15.6875C242.312 15.9375 243.875 16 246.375 15.875ZM246.75 23.1875H251.812C252.688 21.3125 253.5 20.25 254.25 20C255 20.25 256.25 21.25 258 23C258.375 24 258.188 24.5 257.438 24.5H246.188C244.812 24.625 243.812 24.75 243.188 24.875C242.938 25 242.75 25 242.625 24.875C242.5 24.75 242.438 24.625 242.438 24.5C242.312 24.5 242.188 24.375 242.062 24.125C241.938 23.875 241.812 23.625 241.688 23.375C241.438 23 241.562 22.8125 242.062 22.8125C243.312 23.0625 244.875 23.1875 246.75 23.1875ZM251.062 31.8125H249.75C249 31.8125 248.688 32.125 248.812 32.75V40.4375H251.062V31.8125ZM321.375 21.875H307.875C306.5 21.875 305.562 21.9375 305.062 22.0625C304.688 22.3125 304.375 22.25 304.125 21.875C303.75 21.375 303.5 20.875 303.375 20.375C303.125 20.125 303.188 20 303.562 20C305.438 20.25 307.188 20.375 308.812 20.375H313.312C314.312 17.5 314.938 14.5625 315.188 11.5625C314.938 11.0625 315.25 10.8125 316.125 10.8125C316.75 10.9375 318 11.3125 319.875 11.9375C320.25 12.0625 320.625 12.125 321 12.125C321 11.75 321 11.25 321 10.625H309.188C308.188 10.75 307.25 10.875 306.375 11C306.25 11 306.125 11 306 11C306 11.5 305.812 11.75 305.438 11.75H292.688C291.312 11.75 290.312 11.8125 289.688 11.9375C289.188 12.0625 288.875 11.9375 288.75 11.5625C288.375 11.0625 288.188 10.6875 288.188 10.4375C288.062 10.0625 288.188 9.875 288.562 9.875C290.188 10.125 291.812 10.25 293.438 10.25H299.438C300.562 8.5 301.5 7.4375 302.25 7.0625C302.75 7.1875 303.562 7.75 304.688 8.75H304.875C306.625 9 308.375 9.125 310.125 9.125H316.688C317.812 7.375 318.625 6.4375 319.125 6.3125C319.375 6.1875 319.938 6.5 320.812 7.25C320.688 5.5 320.562 4 320.438 2.75C320.062 1.75 320.438 1.25 321.562 1.25C321.938 1.375 322.688 1.5 323.812 1.625C325.562 1.75 326.688 1.8125 327.188 1.8125C327.938 2.4375 327.938 3.0625 327.188 3.6875C326.562 4.0625 326.25 5.4375 326.25 7.8125C326.25 8.8125 326.25 10.5625 326.25 13.0625C326.375 15.5625 326.5 18 326.625 20.375H327.375C328.5 18.125 329.375 16.9375 330 16.8125C331.25 17.3125 332.938 18.5625 335.062 20.5625C335.562 21.3125 335.438 21.75 334.688 21.875H326.812C326.812 22.5 326.812 23.3125 326.812 24.3125C326.812 24.9375 326.875 25.3125 327 25.4375C327.125 26.9375 327.312 28.25 327.562 29.375C328.062 27.5 328.375 25.625 328.5 23.75C328.375 22.875 328.812 22.5 329.812 22.625C329.938 22.75 330.312 22.9375 330.938 23.1875C332.812 23.8125 334.188 24.3125 335.062 24.6875C335.812 25.4375 335.812 26 335.062 26.375C334.188 26.625 333.688 27.25 333.562 28.25C332.188 32.375 330.875 35.3125 329.625 37.0625C330 37.9375 330.562 38.3125 331.312 38.1875C331.938 37.8125 332.812 36 333.938 32.75C334.062 32 334.312 31.625 334.688 31.625C335.062 31.875 335.188 32.375 335.062 33.125C334.688 35 334.5 36.875 334.5 38.75C334.375 40.5 334.5 41.8125 334.875 42.6875C335.5 45.3125 334.75 46.75 332.625 47C329.875 46.875 327.625 45 325.875 41.375C323.25 43.625 320.188 45.4375 316.688 46.8125C316.312 46.8125 316.062 46.6875 315.938 46.4375C315.812 46.1875 315.938 46 316.312 45.875C319.812 42.75 322.438 39.9375 324.188 37.4375C323.062 34.6875 322.25 30.9375 321.75 26.1875C321.625 25.8125 321.5 24.8125 321.375 23.1875C321.375 22.6875 321.375 22.25 321.375 21.875ZM312.938 25.4375H314.062C314.938 23.8125 315.688 22.9375 316.312 22.8125C318.438 23.6875 320.125 24.875 321.375 26.375C321.375 27 321.125 27.4375 320.625 27.6875C320.25 28.0625 320.125 28.5625 320.25 29.1875C320.25 29.6875 320.188 30.625 320.062 32C320.062 36.5 320.125 39.3125 320.25 40.4375C320.25 41.8125 319.812 42.5625 318.938 42.6875C318.812 42.6875 318.625 42.6875 318.375 42.6875C317.625 43.0625 317 43.25 316.5 43.25C315.125 43.375 314.5 42.875 314.625 41.75V41.375H312.188V42.5C312.188 43.625 311.75 44.3125 310.875 44.5625C310.5 44.5625 310 44.5625 309.375 44.5625C308.875 44.6875 308.5 44.8125 308.25 44.9375C306.625 45.1875 306 44.0625 306.375 41.5625C306.5 38.9375 306.625 35 306.75 29.75C306.75 28.875 306.625 27.625 306.375 26C306.375 25.375 306.375 24.875 306.375 24.5C306.25 23.875 306.312 23.4375 306.562 23.1875C306.688 23.0625 307.062 23.0625 307.688 23.1875C309.062 23.5625 310.625 24.1875 312.375 25.0625C312.375 25.1875 312.438 25.25 312.562 25.25C312.688 25.375 312.812 25.4375 312.938 25.4375ZM297.188 30.6875H297.938C298.812 29.0625 299.562 28.25 300.188 28.25C302.312 29.125 304.062 30.375 305.438 32C305.438 32.625 305.188 33.0625 304.688 33.3125C304.188 33.5625 304 34.0625 304.125 34.8125C304.125 35.6875 304.125 36.9375 304.125 38.5625C304.25 40.1875 304.312 41.25 304.312 41.75C304.438 43.125 304 44 303 44.375C302.375 44.5 301.688 44.625 300.938 44.75C300.688 44.75 300.5 44.8125 300.375 44.9375C299 45.0625 298.375 44.5625 298.5 43.4375V41.9375H296.438V43.4375C296.438 44.5625 296 45.25 295.125 45.5C295 45.5 294.812 45.5 294.562 45.5C293.812 45.625 293 45.75 292.125 45.875C290.5 46.125 289.875 45.0625 290.25 42.6875C290.375 40.0625 290.5 37.5625 290.625 35.1875C290.625 34.1875 290.5 32.8125 290.25 31.0625C290.25 30.5625 290.25 30.125 290.25 29.75C290.125 29.125 290.125 28.75 290.25 28.625C290.5 28.375 290.938 28.3125 291.562 28.4375C293.188 28.8125 294.812 29.4375 296.438 30.3125C296.438 30.4375 296.5 30.5625 296.625 30.6875C296.875 30.6875 297.062 30.6875 297.188 30.6875ZM293.812 7.8125C293.438 5.6875 292.688 4.0625 291.562 2.9375C291.062 2.3125 291.312 1.9375 292.312 1.8125C296.312 2.0625 298.688 3 299.438 4.625C300.062 6.875 299.25 8.5 297 9.5C295.25 9.875 294.188 9.3125 293.812 7.8125ZM328.688 12.875C328.562 11.125 328.062 9.6875 327.188 8.5625C326.938 8.1875 326.875 7.9375 327 7.8125C327.125 7.6875 327.438 7.625 327.938 7.625C330.938 8 332.812 8.9375 333.562 10.4375C334.438 12.4375 334.125 14 332.625 15.125C330.375 16.125 329.062 15.375 328.688 12.875ZM310.125 6.875C309.375 5 308.562 3.625 307.688 2.75C307.312 2.5 307.188 2.25 307.312 2C307.438 1.875 307.75 1.75 308.25 1.625C311.125 1.5 313.125 2.0625 314.25 3.3125C315.375 4.9375 315.375 6.4375 314.25 7.8125C312.25 9.1875 310.875 8.875 310.125 6.875ZM308.25 17C308.125 15.25 307.688 13.75 306.938 12.5C306.688 12.25 306.625 12.0625 306.75 11.9375C306.875 11.8125 307.188 11.6875 307.688 11.5625C310.562 12.1875 312.312 13.25 312.938 14.75C313.688 16.875 313.312 18.4375 311.812 19.4375C309.688 20.4375 308.5 19.625 308.25 17ZM304.688 18.5H293.812C292.312 18.5 291.312 18.5625 290.812 18.6875C290.312 18.8125 290 18.75 289.875 18.5C289.625 18.375 289.438 18 289.312 17.375C289.188 17.125 289.125 16.9375 289.125 16.8125C289.125 16.8125 289.312 16.8125 289.688 16.8125C290.438 17.0625 292.062 17.125 294.562 17H299.062C300.312 15.25 301.062 14.3125 301.312 14.1875C302.438 14.5625 303.688 15.5 305.062 17C305.688 17.875 305.562 18.375 304.688 18.5ZM304.688 25.25H294.75C294 25.25 293.188 25.3125 292.312 25.4375C291.938 25.4375 291.75 25.4375 291.75 25.4375C291.125 25.6875 290.812 25.625 290.812 25.25C290.438 24.875 290.188 24.5 290.062 24.125C289.812 23.75 289.938 23.5625 290.438 23.5625C292.062 23.8125 293.688 23.9375 295.312 23.9375H299.438C300.312 22.3125 301 21.375 301.5 21.125C302.5 21.375 303.688 22.3125 305.062 23.9375C305.312 24.3125 305.375 24.625 305.25 24.875C305.25 25.125 305.062 25.25 304.688 25.25ZM315.938 20.375H321.375C321.25 19.75 321.188 18.75 321.188 17.375C321.062 16 321 14.9375 321 14.1875C320 14.5625 319.438 14.875 319.312 15.125C318.312 17 317.188 18.75 315.938 20.375ZM298.5 32H296.812C296.562 32.25 296.438 32.6875 296.438 33.3125V41H298.5V32ZM312.188 34.0625V40.625H314.625V34.0625H312.188ZM314.625 26.5625H312.562C312.312 26.9375 312.188 27.4375 312.188 28.0625V32.9375H314.625V26.5625ZM362.25 31.0625V27.3125H355.875C355.875 27.5625 355.875 27.8125 355.875 28.0625C355.875 32.8125 353.75 35.4375 349.5 35.9375C348.5 36.3125 347.938 35.875 347.812 34.625C347.562 33.25 346.812 32.25 345.562 31.625V43.0625C345.688 45.0625 345.062 46.1875 343.688 46.4375C342.812 46.8125 341.625 47.0625 340.125 47.1875C338.25 47.5625 337.625 46.4375 338.25 43.8125C338.375 42.0625 338.438 39.1875 338.438 35.1875C338.562 30.4375 338.688 25.9375 338.812 21.6875V12.3125C338.688 8.9375 338.562 6 338.438 3.5C338.188 2.125 338.625 1.5625 339.75 1.8125C341.125 2.1875 343.312 3 346.312 4.25C346.688 4.5 346.875 4.6875 346.875 4.8125H348.188C349.438 3.0625 350.375 2.125 351 2C352.5 2.625 354.438 3.875 356.812 5.75C357.688 6.75 357.562 7.4375 356.438 7.8125C355.688 8.0625 355.188 8.4375 354.938 8.9375C353.188 11.6875 350.938 14.5 348.188 17.375C349.438 18.375 350.688 19.3125 351.938 20.1875C356.312 14.4375 359.375 8.25 361.125 1.625C361.125 0.625 361.875 0.3125 363.375 0.6875C365 1.3125 367.062 2.25 369.562 3.5C370.062 3.875 370.25 4.3125 370.125 4.8125C370 5.3125 369.625 5.5625 369 5.5625C368.875 5.5625 368.75 5.5625 368.625 5.5625C372.125 10.6875 376.75 14 382.5 15.5C383.125 15.75 383.438 16 383.438 16.25C383.438 16.75 383.188 17.0625 382.688 17.1875C380.812 18.0625 379.5 19.4375 378.75 21.3125C378.375 22.3125 377.875 22.5 377.25 21.875C376.5 21.5 375.562 20.875 374.438 20C374.188 19.75 374.062 19.5625 374.062 19.4375C373.312 19.3125 372.188 19.25 370.688 19.25C370.688 19.625 370.5 19.875 370.125 20C369.375 20.375 369.062 20.9375 369.188 21.6875V26.1875H372.375C373.75 23.5625 374.875 22.1875 375.75 22.0625C377.25 22.5625 379 23.875 381 26C381.375 26.625 381.5 27.0625 381.375 27.3125C381.25 27.5625 380.938 27.6875 380.438 27.6875C376.938 27.5625 373.188 27.4375 369.188 27.3125V29.9375C374.188 31.5625 377.875 33.9375 380.25 37.0625C382.125 39.8125 382 42 379.875 43.625C377.75 44.875 376.125 44.125 375 41.375C373.625 37.625 371.688 34.375 369.188 31.625V34.0625C369.188 35.0625 369.188 36.3125 369.188 37.8125C369.312 39.3125 369.438 40.375 369.562 41C369.688 43.125 369 44.75 367.5 45.875C366.375 46.5 364.875 47 363 47.375C361 47.75 360.062 47.375 360.188 46.25C360.062 44.125 359 42.75 357 42.125C356.625 42 356.5 41.9375 356.625 41.9375C355.875 41.6875 355.562 41.4375 355.688 41.1875C355.562 40.9375 356.188 40.875 357.562 41C361.062 41.375 362.625 40.25 362.25 37.625V33.5C362.125 33.625 362 33.6875 361.875 33.6875C361.875 33.8125 361.75 34 361.5 34.25C358.125 38.75 354.188 42.25 349.688 44.75C349.062 45 348.625 45 348.375 44.75C348.25 44.5 348.438 44.125 348.938 43.625C352.812 39.125 355.188 34.5625 356.062 29.9375C356.062 29.3125 356.5 29.0625 357.375 29.1875C359.125 29.8125 360.75 30.4375 362.25 31.0625ZM346.688 17.9375L348.562 6.125H346.688C346.562 6.25 346.5 6.3125 346.5 6.3125C345.875 6.8125 345.562 7.375 345.562 8V29.75C348.562 30.125 349.938 28.75 349.688 25.625C349.688 23.375 348.688 20.8125 346.688 17.9375ZM358.5 17.9375H368.25C369.125 16.5625 369.938 15.5625 370.688 14.9375C369.438 13.0625 368.312 10.1875 367.312 6.3125C367.188 6.5625 367.062 6.75 366.938 6.875C364.438 11.625 361.625 15.3125 358.5 17.9375ZM355.5 26.1875H362.25V19.0625H357C355.875 20.0625 354.625 21 353.25 21.875C354.5 23.25 355.25 24.6875 355.5 26.1875ZM405 35.9375V21.5C405 17.25 404.875 14.6875 404.625 13.8125C404.375 13.0625 404.312 12.625 404.438 12.5C404.562 12.25 405.062 12.125 405.938 12.125C406.812 12.125 408.5 12.375 411 12.875L417 5.75H391.688C389.688 5.875 388.25 6 387.375 6.125C387 6.25 386.75 6.1875 386.625 5.9375C386.375 5.9375 386.188 5.6875 386.062 5.1875C385.812 4.8125 385.625 4.5625 385.5 4.4375C385.25 4.3125 385.188 4.1875 385.312 4.0625C385.312 4.0625 385.5 4 385.875 3.875C388.125 4.125 390.312 4.25 392.438 4.25H417.375C419.375 2 420.625 0.9375 421.125 1.0625C421.875 0.6875 424.625 2.4375 429.375 6.3125C430 6.9375 430.25 7.5625 430.125 8.1875C429.75 8.8125 429.125 9.125 428.25 9.125C423.5 9 418.5 10.4375 413.25 13.4375C414.375 14.1875 414.5 14.9375 413.625 15.6875C412.875 16.1875 412.562 16.75 412.688 17.375V23.75C412.688 25 412.688 27.3125 412.688 30.6875C412.938 35.0625 413.062 38.3125 413.062 40.4375C413.062 42.9375 412.438 44.5625 411.188 45.3125C410.938 45.3125 410.688 45.375 410.438 45.5C408.438 46.375 406.625 47 405 47.375C403.25 47.75 402.312 47.3125 402.188 46.0625C401.812 43.3125 399.75 41.625 396 41C394.75 40.75 394.25 40.4375 394.5 40.0625C394.375 39.4375 394.938 39.1875 396.188 39.3125C398.312 39.6875 400 39.8125 401.25 39.6875C403.875 39.9375 405.125 38.6875 405 35.9375ZM453.188 36.125V28.4375H442.125C439.5 28.5625 437.188 28.6875 435.188 28.8125C434.688 28.9375 434.375 28.875 434.25 28.625C433.625 28.25 433.25 27.75 433.125 27.125C432.875 26.875 432.812 26.75 432.938 26.75C432.938 26.625 433.125 26.5625 433.5 26.5625C434.125 26.8125 435.375 26.9375 437.25 26.9375C439.5 27.0625 441.688 27.125 443.812 27.125H453.188V19.0625H445.688C443.062 19.1875 440.75 19.3125 438.75 19.4375C438.25 19.5625 437.938 19.5 437.812 19.25C437.438 18.75 437.062 18.25 436.688 17.75C436.562 17.5 436.5 17.375 436.5 17.375C436.5 17.25 436.688 17.1875 437.062 17.1875C437.688 17.4375 439 17.5625 441 17.5625C443.25 17.6875 445.375 17.75 447.375 17.75H453.188V10.4375C446.812 10.4375 441.688 10.25 437.812 9.875C437.188 9.875 436.812 9.6875 436.688 9.3125C436.688 8.9375 437 8.6875 437.625 8.5625C446.625 7.4375 453.562 6.3125 458.438 5.1875C463.438 3.9375 467 2.875 469.125 2C470 1.625 470.688 1.6875 471.188 2.1875C474.062 5.1875 476 7.3125 477 8.5625C477.25 8.9375 477.25 9.375 477 9.875C476.625 10.25 476.25 10.3125 475.875 10.0625C475.25 9.8125 474.125 9.6875 472.5 9.6875C471.375 9.8125 468 10 462.375 10.25C462.625 10.875 462.438 11.375 461.812 11.75C461.062 12.25 460.75 12.75 460.875 13.25V17.75H466.5C466.5 17.75 466.625 17.5625 466.875 17.1875C468.75 14.4375 469.938 13.0625 470.438 13.0625C471.812 13.5625 473.812 15.0625 476.438 17.5625C476.688 18.0625 476.75 18.5 476.625 18.875C476.5 19.125 476.188 19.25 475.688 19.25C474.812 19.125 470.312 19.0625 462.188 19.0625H460.875V23.9375C460.875 24.9375 460.875 26 460.875 27.125H469.5C469.5 27.125 469.625 26.9375 469.875 26.5625C471.75 23.8125 472.938 22.4375 473.438 22.4375C474.812 22.9375 476.812 24.4375 479.438 26.9375C479.688 27.4375 479.75 27.875 479.625 28.25C479.5 28.5 479.188 28.625 478.688 28.625C477.812 28.5 473.312 28.4375 465.188 28.4375H460.875C461.125 33.4375 461.25 37.5 461.25 40.625C461.25 43.125 460.625 44.75 459.375 45.5C459.125 45.5 458.875 45.5625 458.625 45.6875C456.625 46.5625 454.812 47.1875 453.188 47.5625C451.438 47.9375 450.5 47.5 450.375 46.25C450 43.5 447.938 41.75 444.188 41C442.938 40.875 442.438 40.625 442.688 40.25C442.562 39.625 443.125 39.375 444.375 39.5C446.5 39.875 448.188 40 449.438 39.875C452.062 40.125 453.312 38.875 453.188 36.125ZM518.25 40.625C517.625 36.875 516.688 34.0625 515.438 32.1875C511.812 38.1875 504.062 42.5625 492.188 45.3125C491.438 45.3125 490.938 45.1875 490.688 44.9375C490.562 44.6875 490.812 44.4375 491.438 44.1875C506.312 37.8125 513.375 26.125 512.625 9.125C512.5 7.25 512.375 5.625 512.25 4.25C511.75 2.75 512.062 2.0625 513.188 2.1875C515.812 2.4375 518.5 2.875 521.25 3.5C522.5 4.25 522.562 5.125 521.438 6.125C520.688 6.625 520.312 7.5625 520.312 8.9375C520.312 18.5625 519 25.875 516.375 30.875C521.25 32.25 524.375 34.5625 525.75 37.8125C526.625 40.8125 525.75 42.9375 523.125 44.1875C520.125 45.0625 518.5 43.875 518.25 40.625ZM492.562 9.3125V30.5C496.938 27.875 500.875 25.3125 504.375 22.8125C504.75 22.5625 505.062 22.5625 505.312 22.8125C505.562 23.0625 505.562 23.375 505.312 23.75C497.062 33 491.812 39.375 489.562 42.875C488.812 43.625 488.125 43.6875 487.5 43.0625C485.125 40.8125 483.562 38.8125 482.812 37.0625C482.312 36.3125 482.5 35.5625 483.375 34.8125C484.5 34.4375 485.062 33.375 485.062 31.625V14C484.938 10.5 484.812 7.9375 484.688 6.3125C484.312 5.0625 484.75 4.5 486 4.625C486.75 4.75 487.688 4.875 488.812 5C490.062 5.125 491.5 5.3125 493.125 5.5625C494.25 6.0625 494.375 6.8125 493.5 7.8125C492.75 8.1875 492.438 8.6875 492.562 9.3125ZM499.125 13.625C498.5 10.625 497.562 8.3125 496.312 6.6875C495.938 6.3125 495.875 6.0625 496.125 5.9375C496.25 5.6875 496.625 5.5625 497.25 5.5625C502 6.1875 505 7.875 506.25 10.625C507.375 13.75 506.625 15.8125 504 16.8125C501.25 17.8125 499.625 16.75 499.125 13.625ZM541.688 12.875H545.062C546.062 11.125 546.938 10.1875 547.688 10.0625C549.188 10.1875 551.312 11.4375 554.062 13.8125C555.062 14.8125 554.938 15.5625 553.688 16.0625C552.938 16.1875 552.562 16.6875 552.562 17.5625C549.938 31.5625 542.438 40.125 530.062 43.25C529.188 43.5 528.75 43.5 528.75 43.25C528.375 43 528.688 42.5625 529.688 41.9375C534.188 39.0625 537.75 35.3125 540.375 30.6875C537.875 30.4375 536.688 29.25 536.812 27.125C536.562 25.125 536.062 23.25 535.312 21.5C534.188 22.75 532.312 24.375 529.688 26.375C529.438 26.5 529.312 26.5625 529.312 26.5625C528.938 26.9375 528.625 27.0625 528.375 26.9375C528.125 26.6875 528.188 26.3125 528.562 25.8125C532.062 20.1875 534.5 15 535.875 10.25C536.5 7.875 537 5.3125 537.375 2.5625C537.25 1.3125 537.875 0.75 539.25 0.875C541.625 1.5 544 2.375 546.375 3.5C547.375 4.375 547.312 5.125 546.188 5.75C545.562 6 545.125 6.4375 544.875 7.0625C543.875 9.1875 542.812 11.125 541.688 12.875ZM562.5 16.8125V26.5625C562.5 28.4375 562.5 31 562.5 34.25C562.625 37.75 562.75 40.8125 562.875 43.4375C563.125 45.0625 562.5 46.0625 561 46.4375C559.75 46.9375 558.438 47.25 557.062 47.375C555.188 47.75 554.438 47.0625 554.812 45.3125C554.938 38.6875 555.062 30.375 555.188 20.375V9.6875C555.062 8.0625 555 6.5 555 5C554.875 3.625 554.75 2.625 554.625 2C554.125 0.875 554.625 0.3125 556.125 0.3125C558.875 0.6875 561.188 1.125 563.062 1.625C564.188 2.25 564.312 2.9375 563.438 3.6875C562.688 4.0625 562.375 4.625 562.5 5.375V14.75C567.875 15.75 571.812 18 574.312 21.5C575.812 25 575.188 27.625 572.438 29.375C570.188 30.375 568.688 29.5 567.938 26.75C566.562 22.5 564.75 19.1875 562.5 16.8125ZM545.438 14.375H540.938C539.688 16.5 538.25 18.4375 536.625 20.1875C539.875 21.0625 542.062 22.4375 543.188 24.3125C544.312 21.3125 545.062 18 545.438 14.375ZM578.625 31.8125V20.375C578.625 18.125 578.562 16.4375 578.438 15.3125C578.438 13.9375 578.375 12.625 578.25 11.375C578.125 10 578.562 9.5 579.562 9.875C581.438 10.5 583.438 11.3125 585.562 12.3125H585.938C585.938 10.4375 585.938 8.625 585.938 6.875C585.938 5.125 585.938 3.5 585.938 2C585.688 1.25 586.062 0.9375 587.062 1.0625C589.062 1.1875 591.125 1.5 593.25 2C594 2.125 594.375 2.4375 594.375 2.9375C594.5 3.3125 594.25 3.625 593.625 3.875C593 4.375 592.562 4.9375 592.312 5.5625C591.188 8.0625 589.938 10.3125 588.562 12.3125H592.5C593.625 10.6875 594.5 9.8125 595.125 9.6875C597.625 10.5625 599.688 11.9375 601.312 13.8125C601.312 14.4375 601 14.875 600.375 15.125C599.75 15.5 599.5 15.9375 599.625 16.4375V21.875C602 14.5 603.375 7.8125 603.75 1.8125C603.625 1.1875 603.938 0.875 604.688 0.875C607.438 1.375 610.125 2.0625 612.75 2.9375C613.25 3.3125 613.5 3.6875 613.5 4.0625C613.375 4.4375 613.062 4.75 612.562 5C611.562 5.5 611 6.125 610.875 6.875C610.25 8.875 609.562 10.6875 608.812 12.3125H613.5C615 10.3125 616.062 9.25 616.688 9.125C620.062 10.625 622.375 12.125 623.625 13.625C623.625 14.25 623.25 14.75 622.5 15.125C621.75 15.5 621.438 15.9375 621.562 16.4375C621.438 29.4375 621.188 37.625 620.812 41C620.312 44.5 617.5 46.625 612.375 47.375C610.875 47.625 610 47.3125 609.75 46.4375C609 43.5625 607.312 41.75 604.688 41C603.438 41 603 40.6875 603.375 40.0625C603.25 39.5625 603.75 39.4375 604.875 39.6875C608 40.1875 610.062 40.375 611.062 40.25C612.062 40.125 612.688 39.5 612.938 38.375C613.688 31.375 614.125 23.1875 614.25 13.8125H608.062C606.812 16.3125 605.438 18.625 603.938 20.75C608.562 22.125 611.125 24.625 611.625 28.25C611.625 31.375 610.25 33 607.5 33.125C605.25 33.375 604 32.3125 603.75 29.9375C603.875 27.4375 603.438 24.9375 602.438 22.4375C602.188 22.6875 601.938 22.9375 601.688 23.1875C600.812 24.0625 600.125 24.6875 599.625 25.0625V27.6875C599.625 30.9375 599.812 35.375 600.188 41C600.188 41.875 599.75 42.5 598.875 42.875C597.25 43.25 595.875 43.5 594.75 43.625C593.125 43.875 592.438 43.5 592.688 42.5V39.875H585.375V42.125C585.375 43.625 584.75 44.5 583.5 44.75C582.375 45 581.25 45.1875 580.125 45.3125C578.375 45.5625 577.75 44.8125 578.25 43.0625C578.375 39.8125 578.5 36.0625 578.625 31.8125ZM592.688 13.8125H586.125C585.5 14.1875 585.25 14.75 585.375 15.5V25.625H592.688V13.8125ZM585.375 27.125V38.375H592.688V27.125H585.375ZM653.625 36.3125V34.625C646.375 38.875 637.938 41.75 628.312 43.25C627.688 43.25 627.375 43.0625 627.375 42.6875C627.375 42.4375 627.688 42.1875 628.312 41.9375C637.562 38.5625 645.688 34.0625 652.688 28.4375H632.25C631.125 28.5625 630.062 28.625 629.062 28.625C628.062 28.75 627.312 28.875 626.812 29C626.438 29.25 626.125 29.125 625.875 28.625C625.5 28.375 625.188 27.875 624.938 27.125C624.812 26.875 624.75 26.75 624.75 26.75C624.75 26.625 624.938 26.5625 625.312 26.5625C625.562 26.6875 626.062 26.75 626.812 26.75C629.438 27.125 631.375 27.25 632.625 27.125H634.688V13.625C634.562 12.375 634.5 11 634.5 9.5C634.375 8 634.25 6.75 634.125 5.75C633.875 4.625 634.375 4.1875 635.625 4.4375C636.75 4.5625 638.812 5.125 641.812 6.125C642.312 6.375 642.625 6.5625 642.75 6.6875H643.688C643.812 5.5625 643.875 3.8125 643.875 1.4375C643.625 0.6875 644.062 0.3125 645.188 0.3125C647.562 0.5625 649.688 0.875 651.562 1.25C652.312 1.875 652.312 2.5 651.562 3.125C651.062 3.25 650.562 3.5625 650.062 4.0625C649.812 4.3125 649.562 4.5625 649.312 4.8125C648.438 5.6875 647.75 6.3125 647.25 6.6875H652.312C653.562 4.5625 654.5 3.4375 655.125 3.3125C656.875 3.5625 659.125 4.75 661.875 6.875C662.625 7.625 662.5 8.4375 661.5 9.3125C661 9.9375 660.75 10.5 660.75 11V20.1875C661.625 18.9375 662.438 17.5 663.188 15.875C663.562 14.5 664.438 14.125 665.812 14.75C665.938 14.875 666.188 15.125 666.562 15.5C668.688 16.75 670.125 17.6875 670.875 18.3125C671.625 19.4375 671.438 20.1875 670.312 20.5625C669.688 20.8125 669.188 21.1875 668.812 21.6875C666.562 24.4375 663.938 27.125 660.938 29.75C660.812 34.5 660.875 38 661.125 40.25C661.125 42.625 660.25 44.25 658.5 45.125C657 46 655.375 46.6875 653.625 47.1875C652 47.8125 651.062 47.4375 650.812 46.0625C649.938 43.3125 648.375 41.8125 646.125 41.5625C645 41.3125 644.5 41.125 644.625 41C644.5 40.375 645.125 40.125 646.5 40.25C651.75 40.75 654.125 39.4375 653.625 36.3125ZM641.625 21.6875V27.125H653.625V21.6875H641.625ZM641.625 14.9375V20.1875H653.625V14.9375H641.625ZM641.625 9.875V13.4375H653.625V8.1875H642.375C642.25 8.1875 642.188 8.1875 642.188 8.1875C641.688 8.4375 641.5 9 641.625 9.875ZM708.375 22.625H699.562C696.688 22.625 695.125 22.6875 694.875 22.8125C694.375 22.9375 694.062 22.875 693.938 22.625C693.812 22.625 693.688 22.5 693.562 22.25C693.438 22 693.312 21.6875 693.188 21.3125C692.938 21.3125 692.875 21.25 693 21.125C692.625 21.25 692.062 21.5 691.312 21.875C691.188 22 691.062 22.0625 690.938 22.0625C691.062 22.3125 691.375 22.6875 691.875 23.1875C692.125 23.3125 692.312 23.375 692.438 23.375C692.688 24.125 692.562 24.6875 692.062 25.0625C691.562 25.3125 691.312 25.6875 691.312 26.1875V34.4375C691.312 35.3125 691.312 36.6875 691.312 38.5625C691.312 39.9375 691.375 40.75 691.5 41C691.75 43 691.25 44.375 690 45.125C689.125 45.5 688.062 45.875 686.812 46.25C685.438 46.625 684.75 46.25 684.75 45.125C684.5 43.75 683.75 42.8125 682.5 42.3125C682.25 42.3125 682.125 42.25 682.125 42.125V43.625C682.125 44.5 681.562 45.1875 680.438 45.6875C679.312 46.0625 678.5 46.25 678 46.25C676.5 46.5 675.938 45.9375 676.312 44.5625C676.312 43.9375 676.312 42.75 676.312 41C676.438 37.875 676.5 35.5625 676.5 34.0625V26.9375C676.5 25.8125 676.5 24.75 676.5 23.75C675.625 24.25 674.75 24.3125 673.875 23.9375C672.625 23.4375 672.25 22.3125 672.75 20.5625C673.625 18.9375 674.125 17.25 674.25 15.5C674.25 15.25 674.312 15.125 674.438 15.125C674.562 15 674.812 15.0625 675.188 15.3125C675.312 15.6875 675.625 16.0625 676.125 16.4375V8.5625C676.125 7.9375 676.062 6.875 675.938 5.375C675.938 4.5 675.938 3.9375 675.938 3.6875C675.688 2.6875 676.062 2.25 677.062 2.375C678.812 2.875 680.188 3.3125 681.188 3.6875C681.562 3.9375 681.75 4.125 681.75 4.25H686.062C686.812 3 687.562 2.25 688.312 2C689.438 2.5 690.875 3.5 692.625 5C692.875 5.75 692.812 6.3125 692.438 6.6875C691.812 6.9375 691.5 7.3125 691.5 7.8125V16.4375C691.75 16.3125 692 16.1875 692.25 16.0625C692.375 16.0625 692.875 16.4375 693.75 17.1875C694 15.8125 694.125 14.6875 694.125 13.8125V9.875C694.125 9 694 7.875 693.75 6.5C693.75 6.25 693.75 6.0625 693.75 5.9375C693.5 4.6875 693.938 4.1875 695.062 4.4375C695.938 4.6875 697 5.0625 698.25 5.5625C698.75 5.8125 699.25 6 699.75 6.125C699.875 6.25 700 6.375 700.125 6.5H700.5C700.25 5.125 700.188 3.6875 700.312 2.1875C699.938 0.9375 700.25 0.4375 701.25 0.6875C702 0.6875 702.938 0.875 704.062 1.25C704.188 1.25 704.312 1.25 704.438 1.25C705.062 1.625 705.125 2.125 704.625 2.75C704.25 3.125 704.125 3.625 704.25 4.25V6.5H705.75C705.5 4.375 705.438 3 705.562 2.375C705.312 1.125 705.688 0.625 706.688 0.875C707.312 1 708.125 1.25 709.125 1.625C709.25 1.625 709.438 1.625 709.688 1.625C710.438 1.875 710.562 2.3125 710.062 2.9375C709.562 3.1875 709.375 3.625 709.5 4.25V6.5H710.25C711.25 5.125 712.125 4.3125 712.875 4.0625C714.75 4.6875 716.438 6 717.938 8C717.938 8.75 717.625 9.25 717 9.5C716.625 9.75 716.438 10.1875 716.438 10.8125C716.312 11.5625 716.25 12.4375 716.25 13.4375C716.375 14.5625 716.5 15.5 716.625 16.25C716.75 17.625 716.25 18.375 715.125 18.5C716.25 19.5 717.125 20.4375 717.75 21.3125C718 21.6875 718.062 22.0625 717.938 22.4375C717.812 22.6875 717.562 22.75 717.188 22.625C713.438 22.625 710.5 22.625 708.375 22.625ZM702 25.625H707.812C708.688 24.25 709.438 23.5 710.062 23.375C712.438 24.375 714.312 25.75 715.688 27.5C715.688 28 715.438 28.4375 714.938 28.8125C714.562 29.0625 714.375 29.5 714.375 30.125C714.25 31.125 714.312 32.0625 714.562 32.9375C714.812 34.3125 714.312 35.125 713.062 35.375C711.938 35.875 710.875 36.0625 709.875 35.9375C708.75 36.0625 708.25 35.6875 708.375 34.8125H701.625C701.5 35.3125 701 35.625 700.125 35.75C699 36.25 698 36.4375 697.125 36.3125C700 36.6875 701.938 37.8125 702.938 39.6875C703.438 41.0625 702.938 42.1875 701.438 43.0625H705.562C706.062 40.9375 706.312 38.8125 706.312 36.6875C706.312 36.0625 706.75 35.8125 707.625 35.9375C709.625 36.5625 711.375 37.0625 712.875 37.4375C713.625 38.1875 713.625 38.75 712.875 39.125C711.75 39.375 711.062 39.6875 710.812 40.0625C710.562 40.3125 710.375 40.5 710.25 40.625C709.625 41.25 708.812 42.0625 707.812 43.0625H710.812C711.938 41.1875 713.062 40.0625 714.188 39.6875C715.938 40.4375 717.625 41.5625 719.25 43.0625C719.5 43.4375 719.562 43.8125 719.438 44.1875C719.312 44.4375 719.062 44.5625 718.688 44.5625C716.438 44.3125 713.438 44.25 709.688 44.375H698.812C696.688 44.375 695.188 44.5 694.312 44.75C693.688 44.75 693.375 44.6875 693.375 44.5625C693.125 44.3125 692.875 44 692.625 43.625C692.5 43.375 692.438 43.25 692.438 43.25C692.312 42.875 692.25 42.625 692.25 42.5C692.25 42.5 692.438 42.5625 692.812 42.6875C694.312 42.8125 696.25 42.9375 698.625 43.0625C698 42.5625 697.688 41.9375 697.688 41.1875C697.688 39.8125 697.312 38.4375 696.562 37.0625C696.312 36.6875 696.438 36.4375 696.938 36.3125C695.688 36.4375 695.188 35.8125 695.438 34.4375C695.438 34.3125 695.438 34.1875 695.438 34.0625C695.562 32.6875 695.688 31.3125 695.812 29.9375C695.812 28.8125 695.688 27.6875 695.438 26.5625C695.438 26.1875 695.438 25.875 695.438 25.625C695.062 24.75 695.562 24.3125 696.938 24.3125C699.062 24.5625 700.75 25 702 25.625ZM708.375 26.9375H702.188C701.812 27.3125 701.688 27.875 701.812 28.625V33.3125H708.375V26.9375ZM700.312 21.125H710.062C710.438 20.5 710.938 19.875 711.562 19.25C710.938 19.25 710.688 18.875 710.812 18.125H699.188C699.188 19.125 698.75 19.75 697.875 20C697.75 20 697.5 20.0625 697.125 20.1875C696.625 20.3125 696.188 20.375 695.812 20.375C695.562 20.625 695.375 20.75 695.25 20.75C694.75 20.75 694.25 20.75 693.75 20.75C694.75 21.125 696.938 21.25 700.312 21.125ZM690.562 18.875H677.438C677.562 19.625 677.625 20.125 677.625 20.375C678.125 20.5 679.625 21 682.125 21.875C682.25 22.125 682.438 22.3125 682.688 22.4375H685.312C686.312 20.9375 687 20.1875 687.375 20.1875C687.75 20.3125 688.438 20.625 689.438 21.125L690.562 18.875ZM686.625 5.375H681.375C681.125 5.625 681.062 5.9375 681.188 6.3125V9.875H681.75C682.5 9.125 683.062 8.6875 683.438 8.5625C683.938 8.8125 684.875 9.5 686.25 10.625C686.5 11.125 686.375 11.5625 685.875 11.9375C685.5 12.0625 685.312 12.375 685.312 12.875V17.75H686.625V5.375ZM685.875 39.5V35.1875H682.125V41C682.25 41 682.5 41 682.875 41C685 41.375 686 40.875 685.875 39.5ZM682.125 28.8125V33.875H685.875V28.8125H682.125ZM685.875 23.75H682.312C682.062 24 682 24.4375 682.125 25.0625V27.6875H685.875V23.75ZM682.125 11H681.188V17.75H682.125V11ZM704.25 12.875V16.625H705.75V12.875H704.25ZM705.75 11.5625V8H704.25V11.5625H705.75ZM709.5 12.875V16.625H710.812V12.875H709.5ZM710.812 8H709.5V11.5625H710.812V8ZM699.188 12.875V16.625H700.5V12.875H699.188ZM699.188 8.9375V11.5625H700.5V8H699.562C699.312 8.25 699.188 8.5625 699.188 8.9375ZM747.75 20.5625V14.1875C747.625 10.5625 747.5 7.5 747.375 5C747.25 4.125 747.312 3.5625 747.562 3.3125C747.688 3.0625 748.125 3.0625 748.875 3.3125C750.625 3.9375 752.625 4.8125 754.875 5.9375C754.75 5.9375 754.812 5.9375 755.062 5.9375H757.875C759 4.0625 759.938 3.0625 760.688 2.9375C762.188 3.5625 764.188 4.875 766.688 6.875C767.562 8 767.438 8.75 766.312 9.125C765.562 9.25 765.062 9.5625 764.812 10.0625C764.438 10.5625 764.125 11 763.875 11.375C760.875 15.875 758.812 18.875 757.688 20.375C762.938 24.125 765.812 28 766.312 32C766.188 36.5 763.875 39.25 759.375 40.25C758.375 40.5 757.812 40.125 757.688 39.125C757.312 37.625 756.188 36.5 754.312 35.75V43.0625C754.312 44.9375 753.688 46.0625 752.438 46.4375C751.438 46.8125 750.5 47.0625 749.625 47.1875C747.375 47.9375 746.562 46.75 747.188 43.625C747.312 39.875 747.438 36.3125 747.562 32.9375C747.562 29.4375 747.625 26.25 747.75 23.375H747.562C744.812 23.25 741.375 23.125 737.25 23H726.562C725.188 23.125 723.875 23.25 722.625 23.375C722.375 23.5 722.125 23.5 721.875 23.375C721.75 23.25 721.688 23.125 721.688 23C721.438 22.875 721.188 22.625 720.938 22.25C720.812 22 720.75 21.8125 720.75 21.6875C720.5 21.3125 720.625 21.1875 721.125 21.3125C722.25 21.5625 724.188 21.6875 726.938 21.6875H735.188C736.562 17.9375 737.312 14.4375 737.438 11.1875C737.438 10.5625 737.812 10.3125 738.562 10.4375C739.188 10.8125 739.938 11.125 740.812 11.375C742.188 12 743.5 12.5 744.75 12.875C745.125 13.125 745.312 13.5 745.312 14C745.188 14.375 744.938 14.5625 744.562 14.5625C744.312 14.6875 744.188 14.75 744.188 14.75C743.438 15 743 15.25 742.875 15.5C741.875 17.125 740.25 19.1875 738 21.6875H740.25C741.75 19.5625 742.875 18.375 743.625 18.125C744.375 18.25 745.75 19.375 747.75 21.5V20.5625ZM731.25 39.5V41.1875C731.625 43.3125 729.75 44.5625 725.625 44.9375C723.875 45.0625 723.188 44.625 723.562 43.625C723.562 43.375 723.562 43.0625 723.562 42.6875C723.938 37.5625 724.125 34.0625 724.125 32.1875C724 31.1875 723.938 30.3125 723.938 29.5625C723.938 28.5625 723.875 27.625 723.75 26.75C723.5 26 723.5 25.5 723.75 25.25C724 25 724.562 24.9375 725.438 25.0625C728.188 25.9375 730.375 26.875 732 27.875H736.125C736.125 27.875 736.188 27.75 736.312 27.5C737.438 25.75 738.188 24.875 738.562 24.875C740.938 25.625 743.312 26.875 745.688 28.625C745.688 29.25 745.375 29.75 744.75 30.125C744.25 30.5 744.062 31 744.188 31.625C744.062 36 744.125 38.8125 744.375 40.0625C744.875 41.6875 743 42.8125 738.75 43.4375C737.25 43.5625 736.562 43.125 736.688 42.125V39.5H731.25ZM737.062 8.75H738.938C740.688 6.625 741.875 5.5 742.5 5.375C743.25 5.5 744.688 6.6875 746.812 8.9375C747.062 9.4375 747.188 9.875 747.188 10.25C747.062 10.5 746.812 10.5625 746.438 10.4375C745.938 10.4375 744.875 10.4375 743.25 10.4375C741.25 10.4375 738.812 10.375 735.938 10.25H727.875C726.5 10.375 725.25 10.5 724.125 10.625C723.75 10.875 723.438 10.75 723.188 10.25C722.938 10 722.625 9.5625 722.25 8.9375C721.875 8.5625 722 8.4375 722.625 8.5625C723.125 8.8125 725.062 8.875 728.438 8.75H731.812C731.562 8.375 731.438 7.8125 731.438 7.0625C731.438 5.1875 730.875 3.5 729.75 2C729.375 1.75 729.25 1.5 729.375 1.25C729.5 1.125 729.812 1.0625 730.312 1.0625C734.812 1.4375 737.562 2.8125 738.562 5.1875C738.812 6.5625 738.312 7.75 737.062 8.75ZM755.25 21.125L758.062 7.4375H755.812C755.562 7.6875 755.375 7.875 755.25 8C754.5 8.125 754.188 8.625 754.312 9.5V33.875C757.812 34.375 759.625 32.9375 759.75 29.5625C759.5 26.5625 758 23.75 755.25 21.125ZM736.688 29.375H732.375C731.5 29.375 731.125 29.75 731.25 30.5V38H736.688V29.375ZM728.062 18.3125C727.938 15.8125 727.312 13.875 726.188 12.5C725.938 12.25 725.875 12.0625 726 11.9375C726.25 11.8125 726.562 11.75 726.938 11.75C729.812 12.25 732.062 13.375 733.688 15.125C734.688 17.125 734.312 18.875 732.562 20.375C730.062 21.5 728.562 20.8125 728.062 18.3125ZM775.125 27.5V23.1875C773.375 25.0625 771.75 26.625 770.25 27.875C769.75 28.25 769.375 28.3125 769.125 28.0625C768.875 27.8125 768.875 27.4375 769.125 26.9375C771.875 22.1875 774.125 16.875 775.875 11C776.375 9.125 776.875 6.625 777.375 3.5C777.375 2.5 777.938 2.0625 779.062 2.1875C780.062 2.4375 781.938 2.9375 784.688 3.6875C785.438 3.9375 786.062 4.0625 786.562 4.0625C787.062 4.3125 787.312 4.75 787.312 5.375C787.312 5.875 787.062 6.1875 786.562 6.3125C785.688 6.5625 785.062 7.1875 784.688 8.1875C783.688 10.4375 782.562 12.625 781.312 14.75C781.688 14.875 782.125 15 782.625 15.125C783.125 15.25 783.438 15.5625 783.562 16.0625C783.562 16.4375 783.375 16.75 783 17C782.375 17.25 782.125 17.8125 782.25 18.6875V26.9375C782.25 29.0625 782.25 31.5625 782.25 34.4375C782.375 37.4375 782.5 40 782.625 42.125C783 42.125 783.812 42.125 785.062 42.125C786.812 42.25 788.125 42.3125 789 42.3125H796.875C798.75 33.9375 800 26.375 800.625 19.625C800.625 18.375 801.188 17.875 802.312 18.125C805.812 18.875 808.375 19.5625 810 20.1875C810.875 21.0625 810.812 21.75 809.812 22.25C808.812 22.375 808.25 22.8125 808.125 23.5625C805.625 30.5625 802.812 36.8125 799.688 42.3125H805.5C806.625 40.1875 807.75 38.875 808.875 38.375C810.75 39.25 812.812 40.625 815.062 42.5C815.312 43.375 815.125 43.8125 814.5 43.8125C810.5 43.8125 806.875 43.8125 803.625 43.8125H788.062C786.438 43.8125 784.875 43.9375 783.375 44.1875C783 44.1875 782.688 44.125 782.438 44C782.188 44.75 781.625 45.3125 780.75 45.6875C779.875 46.0625 778.625 46.4375 777 46.8125C775.625 46.9375 774.812 46.8125 774.562 46.4375C774.188 45.9375 774.188 44.875 774.562 43.25C774.688 41.375 774.812 38.75 774.938 35.375C774.938 32.375 775 29.75 775.125 27.5ZM788.25 34.4375C788.25 29.0625 787.375 24.25 785.625 20C785.375 19.5 785.375 19.1875 785.625 19.0625C785.875 18.8125 786.25 18.875 786.75 19.25C791.375 23 794.438 27.25 795.938 32C796.438 35.75 795.25 38 792.375 38.75C789.75 39.25 788.375 37.8125 788.25 34.4375ZM802.5 15.6875H790.312C788.438 15.8125 786.875 15.9375 785.625 16.0625C785.125 16.1875 784.812 16.0625 784.688 15.6875C784.438 15.5625 784.25 15.375 784.125 15.125C784 14.875 783.875 14.625 783.75 14.375C783.5 14 783.625 13.8125 784.125 13.8125C784.375 13.9375 785.25 14.0625 786.75 14.1875C788.375 14.1875 789.875 14.1875 791.25 14.1875H804.375C805.625 11.8125 806.75 10.375 807.75 9.875C809.875 10.875 811.938 12.375 813.938 14.375C814.188 14.75 814.25 15.125 814.125 15.5C814 15.75 813.812 15.8125 813.562 15.6875C809.688 15.6875 806 15.6875 802.5 15.6875ZM793.875 9.875C793.625 7.5 792.875 5.4375 791.625 3.6875C791.25 3.3125 791.188 3 791.438 2.75C791.562 2.5 791.938 2.4375 792.562 2.5625C796.562 3.5625 799.375 5.1875 801 7.4375C802.125 10.0625 801.312 12 798.562 13.25C795.812 14.125 794.25 13 793.875 9.875ZM861.188 20.5625H853.312V25.8125H855.562C855.562 25.8125 855.688 25.625 855.938 25.25C856.812 24 857.5 23.375 858 23.375C860.75 24.5 862.688 25.8125 863.812 27.3125C863.812 27.8125 863.562 28.3125 863.062 28.8125C862.688 29.0625 862.5 29.5 862.5 30.125C862.25 33.625 862 37.125 861.75 40.625C861.375 43.875 858.625 45.875 853.5 46.625C852.25 46.75 851.5 46.375 851.25 45.5C850.875 43.5 849.625 42.0625 847.5 41.1875C846.75 41.0625 846.5 40.8125 846.75 40.4375C846.625 40.1875 847.062 40.0625 848.062 40.0625C853.188 40.6875 855.625 40.0625 855.375 38.1875C855.5 37.5625 855.562 36.9375 855.562 36.3125C855.188 36.9375 854.625 37.3125 853.875 37.4375C852.25 37.5625 851.375 36.6875 851.25 34.8125C850.875 32.5625 850.312 30.75 849.562 29.375C849.438 28.75 849.688 28.5 850.312 28.625C853.188 29.75 855.062 31 855.938 32.375C855.938 32.625 855.938 32.6875 855.938 32.5625C855.938 31.9375 855.938 31.25 855.938 30.5C856.062 29.75 856.125 28.6875 856.125 27.3125H842.625C842.625 27.4375 842.562 27.5625 842.438 27.6875C842.312 27.8125 842.312 27.875 842.438 27.875C841.812 28.625 841.188 28.875 840.562 28.625C838.812 28.25 837.438 27.6875 836.438 26.9375C835.562 26.4375 835.438 25.8125 836.062 25.0625C836.688 24.4375 837 23.3125 837 21.6875V8.5625C837 6.9375 836.938 5.8125 836.812 5.1875C836.562 4.4375 836.5 3.9375 836.625 3.6875C836.875 3.4375 837.375 3.375 838.125 3.5C840.625 4 842.562 4.5625 843.938 5.1875C844.312 5.4375 844.625 5.625 844.875 5.75H855.75C856.75 4 857.562 3 858.188 2.75C859.438 3.25 860.75 4.25 862.125 5.75C862.375 6.125 862.5 6.5 862.5 6.875C862.375 7.125 862.125 7.25 861.75 7.25H853.312V12.5H855.375C856.125 10.875 856.938 9.8125 857.812 9.3125C859.062 9.8125 860.375 10.875 861.75 12.5C862.25 13.375 862.125 13.875 861.375 14H853.312V19.0625H855.375C856.125 17.6875 856.875 16.6875 857.625 16.0625C858.75 16.4375 860.062 17.4375 861.562 19.0625C861.812 19.4375 861.938 19.8125 861.938 20.1875C861.812 20.4375 861.562 20.5625 861.188 20.5625ZM818.438 22.25V15.125C818.312 11.875 818.188 8.8125 818.062 5.9375C817.938 5.3125 817.938 4.9375 818.062 4.8125C818.312 4.5625 818.75 4.5 819.375 4.625C821.375 5.25 823.375 5.9375 825.375 6.6875C825.75 6.9375 826 7.1875 826.125 7.4375H826.875C827.625 5.6875 828.375 4.6875 829.125 4.4375C831 4.9375 833.125 6.125 835.5 8C835.625 8.625 835.312 9.125 834.562 9.5C834.188 9.75 834 10.1875 834 10.8125V20.9375C834 22.0625 834 23.5625 834 25.4375C834.125 27.1875 834.25 28.375 834.375 29C834.5 30 834.125 30.625 833.25 30.875C832 31.5 830.688 31.8125 829.312 31.8125C827.688 32.1875 827 31.8125 827.25 30.6875V29.375H825.188V30.6875C825.188 32.6875 824.625 33.75 823.5 33.875C823.125 34 822.75 34.0625 822.375 34.0625C821.125 34.4375 820.25 34.5625 819.75 34.4375C818 34.6875 817.375 33.875 817.875 32C818 31.375 818.125 30.1875 818.25 28.4375C818.25 26.4375 818.312 24.375 818.438 22.25ZM832.125 35.75C833.75 34.25 834.938 32.3125 835.688 29.9375C835.688 29.6875 835.75 29.5625 835.875 29.5625C836.125 29.5625 836.375 29.6875 836.625 29.9375C838.125 32.4375 838.125 35.3125 836.625 38.5625C835.375 40.1875 833.875 40.5 832.125 39.5C830.875 38.375 830.875 37.125 832.125 35.75ZM827.25 8.75H825.188C825.188 9.125 825.188 9.4375 825.188 9.6875V28.0625H827.25V8.75ZM845.25 35.9375C845.25 33.8125 844.812 31.75 843.938 29.75C843.688 29.5 843.625 29.3125 843.75 29.1875C843.875 29.0625 844.125 29.0625 844.5 29.1875C847.25 30.3125 849.062 31.875 849.938 33.875C850.812 36.75 850.125 38.3125 847.875 38.5625C846.25 38.8125 845.375 37.9375 845.25 35.9375ZM839.062 35.9375C839.562 34.0625 839.5 32.125 838.875 30.125C838.75 29.875 838.75 29.75 838.875 29.75C839.125 29.625 839.438 29.625 839.812 29.75C842.062 31.25 843.438 33.0625 843.938 35.1875C844.188 38.0625 843.188 39.4375 840.938 39.3125C839.562 39.1875 838.938 38.0625 839.062 35.9375ZM843.375 25.8125H847.125V20.5625H843.562V25.625C843.438 25.875 843.375 25.9375 843.375 25.8125ZM843.562 14V19.0625H847.125V14H843.562ZM843.562 8.75V12.5H847.125V7.25H844.125C843.625 7.5 843.438 8 843.562 8.75ZM877.688 34.0625H875.25V31.0625C875.25 29.4375 875.875 27.6875 877.125 25.8125C878.75 23.8125 879.562 21.75 879.562 19.625C879.562 15.125 878.062 12.8125 875.062 12.6875C872.688 12.9375 871.062 13.8125 870.188 15.3125C870.438 15.3125 870.688 15.3125 870.938 15.3125C873.312 15.4375 874.562 16.5 874.688 18.5C874.438 20.5 873.188 21.625 870.938 21.875C868.562 21.75 867.312 20.4375 867.188 17.9375C867.562 13.5625 870.75 11.125 876.75 10.625C883.125 11 886.562 13.375 887.062 17.75C887.062 20.375 885.438 22.875 882.188 25.25C879.188 27.5 877.688 29.75 877.688 32V34.0625ZM872.25 40.0625C872.5 37.6875 873.812 36.3125 876.188 35.9375C878.688 36.1875 880.062 37.5625 880.312 40.0625C879.938 42.0625 878.562 43.25 876.188 43.625C873.812 43.25 872.5 42.0625 872.25 40.0625Z" fill="#10656A"/>
</svg>
