<svg width="1215" height="49" viewBox="0 0 1215 49" fill="none" xmlns="http://www.w3.org/2000/svg">
<path d="M34.6875 19.625V23.1875C34.6875 22.8125 35.0625 22.8125 35.8125 23.1875C40.6875 25.0625 44.1875 28.0625 46.3125 32.1875C47.0625 35.6875 46.125 38 43.5 39.125C40.875 39.625 39.3125 38.125 38.8125 34.625C38.3125 31.125 37.0625 27.625 35.0625 24.125C34.8125 24 34.6875 23.8125 34.6875 23.5625V25.8125C34.5625 32.6875 34.625 37.625 34.875 40.625C35.125 42.875 34.4375 44.5 32.8125 45.5C30.9375 46.5 29.0625 47.125 27.1875 47.375C25.5625 47.625 24.6875 47.25 24.5625 46.25C24.1875 44.125 23.125 42.8125 21.375 42.3125C20.375 41.9375 19.9375 41.5625 20.0625 41.1875C19.9375 41.0625 20.5625 41 21.9375 41C25.9375 41.625 27.75 40.375 27.375 37.25V24.875C27.375 25.125 27.1875 25.25 26.8125 25.25C26.1875 25.5 25.875 25.875 25.875 26.375C23.875 32.625 20.4375 37.3125 15.5625 40.4375C14.9375 40.8125 14.5625 40.9375 14.4375 40.8125C14.3125 40.6875 14.4375 40.3125 14.8125 39.6875C16.5625 35.6875 17.8125 32.0625 18.5625 28.8125C18.5625 28.6875 18.5625 28.375 18.5625 27.875C18.9375 26.5 19.1875 25 19.3125 23.375C19.4375 22.375 19.9375 21.9375 20.8125 22.0625C22.6875 22.3125 24.6875 22.8125 26.8125 23.5625C27.1875 23.9375 27.375 24.125 27.375 24.125V23.5625C27.25 22.0625 27.1875 20.625 27.1875 19.25C27.0625 17.875 26.9375 16.875 26.8125 16.25C26.4375 14.875 26.9375 14.3125 28.3125 14.5625C30.0625 14.8125 32.3125 15.1875 35.0625 15.6875C36.3125 16.4375 36.5 17.1875 35.625 17.9375C34.875 18.3125 34.5625 18.875 34.6875 19.625ZM13.5 18.125V35.75C13.375 39.25 13.4375 41.75 13.6875 43.25C13.9375 44.875 13.375 45.9375 12 46.4375C10.75 46.8125 9.4375 47.125 8.0625 47.375C5.9375 48 5.1875 46.875 5.8125 44C5.8125 43.375 5.8125 42.4375 5.8125 41.1875C6.1875 35.6875 6.375 31.5625 6.375 28.8125V22.625C4.625 24.75 2.875 26.4375 1.125 27.6875C0.75 28.0625 0.5 28.125 0.375 27.875C0.25 27.625 0.3125 27.25 0.5625 26.75C3.5625 20.75 5.9375 14.5625 7.6875 8.1875C8.3125 6.4375 8.75 4.1875 9 1.4375C8.875 0.6875 9.375 0.3125 10.5 0.3125C12 0.6875 14.5 1.4375 18 2.5625C18.75 3.3125 18.75 4.0625 18 4.8125C17.125 5.1875 16.625 5.5625 16.5 5.9375C14.875 9.1875 13.4375 12 12.1875 14.375C12.3125 14.375 12.5625 14.4375 12.9375 14.5625C13.3125 14.5625 13.5625 14.5625 13.6875 14.5625C14.5625 15.1875 14.6875 15.8125 14.0625 16.4375C13.5625 16.8125 13.375 17.375 13.5 18.125ZM36.9375 17.375L38.25 12.875H25.875C23.125 17.25 19.625 20.8125 15.375 23.5625C15 23.8125 14.75 23.8125 14.625 23.5625C14.5 23.4375 14.5625 23.125 14.8125 22.625C18.0625 17.625 20.375 12.4375 21.75 7.0625C22 6.0625 22.1875 5.125 22.3125 4.25C22.5625 3.25 22.6875 2.3125 22.6875 1.4375C22.6875 0.5625 23.1875 0.25 24.1875 0.5C25.3125 0.625 27.25 1.125 30 2C30.25 2.125 30.5625 2.1875 30.9375 2.1875C31.3125 2.4375 31.5625 2.8125 31.6875 3.3125C31.5625 3.8125 31.3125 4.0625 30.9375 4.0625C30.0625 4.4375 29.5625 4.9375 29.4375 5.5625C28.5625 7.6875 27.6875 9.625 26.8125 11.375H37.3125C38.1875 9.375 39.125 8.1875 40.125 7.8125C42 8.1875 44.1875 9.625 46.6875 12.125C47.3125 12.75 47.5625 13.4375 47.4375 14.1875C47.3125 14.9375 46.6875 15.3125 45.5625 15.3125C42.5625 15.0625 40.0625 16 38.0625 18.125C37.5625 18.5 37.1875 18.625 36.9375 18.5C36.8125 18.375 36.8125 18 36.9375 17.375ZM68.4375 9.125H74.25C74.875 7 75.25 4.4375 75.375 1.4375C75.25 0.6875 75.6875 0.3125 76.6875 0.3125C79.0625 0.5625 81.5 0.875 84 1.25C84.5 1.5 84.75 1.9375 84.75 2.5625C84.625 3.0625 84.3125 3.3125 83.8125 3.3125C82.9375 3.6875 82.375 4.0625 82.125 4.4375C81 6.0625 79.5 7.625 77.625 9.125H84.5625C85.6875 7.5 86.5 6.625 87 6.5C89.875 7.5 92.1875 8.8125 93.9375 10.4375C93.9375 11.0625 93.625 11.5625 93 11.9375C92.75 12.1875 92.625 12.625 92.625 13.25C92.5 18.25 92.5625 21.4375 92.8125 22.8125C92.8125 24.0625 92.4375 24.875 91.6875 25.25C91.5625 25.375 91.4375 25.4375 91.3125 25.4375C90.0625 25.9375 88.8125 26.1875 87.5625 26.1875C85.9375 26.6875 85.1875 26.3125 85.3125 25.0625V24.125H58.875C58.875 25 58.5 25.5 57.75 25.625C56.625 26.125 55.1875 26.4375 53.4375 26.5625C51.8125 26.9375 51.1875 26.25 51.5625 24.5C51.6875 22.5 51.75 20.6875 51.75 19.0625C51.875 17.6875 51.9375 15.75 51.9375 13.25C51.9375 11 51.8125 9.375 51.5625 8.375C51.3125 7.625 51.3125 7.1875 51.5625 7.0625C51.8125 6.8125 52.375 6.75 53.25 6.875C55.5 7.375 57.625 8.125 59.625 9.125H64.3125C63.8125 8.75 63.5 8 63.375 6.875C63.25 5.75 62.5 4 61.125 1.625C60.75 1.375 60.625 1.1875 60.75 1.0625C60.75 0.8125 61 0.6875 61.5 0.6875C65.625 0.8125 68.4375 1.875 69.9375 3.875C71.1875 6.125 70.6875 7.875 68.4375 9.125ZM57.5625 37.4375V33.5C57.4375 30.875 57.3125 28.8125 57.1875 27.3125C57.0625 26.6875 57.0625 26.3125 57.1875 26.1875C57.3125 26.0625 57.8125 26 58.6875 26C60.4375 26.375 62.625 26.875 65.25 27.5C65.375 27.625 65.5 27.6875 65.625 27.6875H78.375C79.375 25.8125 80.1875 24.875 80.8125 24.875C82.4375 25.25 84.875 26.625 88.125 29C88.5 29.75 88.25 30.3125 87.375 30.6875C86.875 31.0625 86.5625 31.375 86.4375 31.625V38.5625C86.3125 38.9375 86.3125 39.75 86.4375 41C86.5625 42.5 86.625 43.4375 86.625 43.8125C86.875 45.4375 86.375 46.375 85.125 46.625C83.375 47 81.9375 47.25 80.8125 47.375C79.4375 47.5 78.875 46.9375 79.125 45.6875V44H64.875V44.5625C64.875 45.8125 64.25 46.625 63 47C61.5 47.125 60.1875 47.25 59.0625 47.375C57.4375 47.5 56.8125 46.8125 57.1875 45.3125C57.3125 44.0625 57.4375 41.4375 57.5625 37.4375ZM58.875 11.75V22.625H68.625V10.625H60.1875C59.1875 10.625 58.75 11 58.875 11.75ZM64.875 36.6875V42.5H79.125V36.6875H64.875ZM79.125 29.1875H65.625C65 29.5625 64.75 30.0625 64.875 30.6875V35.1875H79.125V29.1875ZM60.9375 18.3125C60.9375 16.6875 60.5 14.875 59.625 12.875C59.375 12.625 59.3125 12.375 59.4375 12.125C59.5625 12 59.875 11.9375 60.375 11.9375C64 12.8125 66.4375 14.25 67.6875 16.25C68.4375 19.125 67.5625 21 65.0625 21.875C62.4375 22.5 61.0625 21.3125 60.9375 18.3125ZM85.3125 12.5V10.625H75.5625V22.625H76.6875C76.5625 22.5 76.625 22.1875 76.875 21.6875C77.75 18.6875 78.25 15.5 78.375 12.125C78.25 11.25 78.6875 10.9375 79.6875 11.1875C80.0625 11.3125 80.5 11.4375 81 11.5625C82.875 11.9375 84.3125 12.25 85.3125 12.5ZM78.1875 22.625H85.3125V15.3125C84.9375 15.5625 84.6875 15.8125 84.5625 16.0625C82.8125 18.4375 80.75 20.5625 78.375 22.4375C78.25 22.5625 78.1875 22.625 78.1875 22.625ZM109.875 29.5625C109.875 29.4375 109.812 29.25 109.688 29C109.562 28.75 109.562 28.5 109.688 28.25C105.562 30.375 103.125 31.875 102.375 32.75C101.75 33.5 101.25 33.875 100.875 33.875C100.5 33.875 100.188 33.5 99.9375 32.75C98.9375 31.5 98.1875 30.0625 97.6875 28.4375C97.4375 28.0625 97.4375 27.6875 97.6875 27.3125C97.8125 27.0625 98.125 26.8125 98.625 26.5625C100 26.0625 101.188 25.1875 102.188 23.9375C103.062 22.5625 103.938 21 104.812 19.25C102.688 20.25 101.562 20.875 101.438 21.125C100.312 22.375 99.5 22.3125 99 20.9375C98 19.5625 97.3125 18.25 96.9375 17C96.6875 16.5 96.6875 16.125 96.9375 15.875C96.8125 15.75 97.0625 15.5 97.6875 15.125C99.1875 14.375 100.188 13.1875 100.688 11.5625C101.812 8.1875 102.5 5.125 102.75 2.375C102.75 1.125 103.438 0.6875 104.812 1.0625C106.438 1.6875 108.438 2.5 110.812 3.5C111.312 3.875 111.562 4.3125 111.562 4.8125C111.562 5.3125 111.25 5.625 110.625 5.75C109.625 6 108.938 6.5625 108.562 7.4375C105.688 11.1875 103.5 13.75 102 15.125C103.375 15.125 105 15.125 106.875 15.125C107 14.625 107.188 13.9375 107.438 13.0625C107.688 12.4375 107.875 11.875 108 11.375C108.125 10 108.812 9.5 110.062 9.875C110.438 10.125 111.188 10.5625 112.312 11.1875C113.688 11.8125 114.688 12.25 115.312 12.5C116.438 13.625 116.375 14.4375 115.125 14.9375C114.375 14.9375 113.688 15.375 113.062 16.25C111.438 18.375 109.875 20.3125 108.375 22.0625C108.375 22.0625 108.5 22.0625 108.75 22.0625C111.75 22.9375 113.875 24.6875 115.125 27.3125C115.5 29.3125 114.875 30.75 113.25 31.625C111.25 32.125 110.125 31.4375 109.875 29.5625ZM140.438 29.1875H131.625C130.875 29.6875 130.562 30.3125 130.688 31.0625V42.3125H133.688C135.312 40.0625 136.562 38.8125 137.438 38.5625C138.188 38.8125 139.938 40.125 142.688 42.5C142.938 42.75 143 43 142.875 43.25C142.875 43.375 142.688 43.5 142.312 43.625H117.375C116.375 43.625 115.438 43.75 114.562 44C114.062 44 113.75 43.9375 113.625 43.8125C113.375 43.4375 113.125 42.9375 112.875 42.3125C112.625 41.8125 112.75 41.6875 113.25 41.9375C115 42.0625 116.688 42.1875 118.312 42.3125H123.375V29.1875H120.188C119.188 29.3125 118.25 29.4375 117.375 29.5625C116.875 29.6875 116.562 29.625 116.438 29.375C116.312 29.25 116.125 29 115.875 28.625C115.75 28.375 115.688 28.125 115.688 27.875C115.438 27.5 115.562 27.375 116.062 27.5C117.688 27.75 119.312 27.875 120.938 27.875H132.375C132.375 27.75 132.5 27.5625 132.75 27.3125C133.5 26.4375 134.188 25.75 134.812 25.25C134.688 25.125 134.562 24.9375 134.438 24.6875C134.188 24.3125 134.125 24 134.25 23.75C133.75 21.75 132.562 19.8125 130.688 17.9375C130.312 17.6875 130.25 17.4375 130.5 17.1875C130.375 17.0625 130.438 16.875 130.688 16.625C132.062 15.125 133.25 12.8125 134.25 9.6875C134.25 8.9375 134.812 8.75 135.938 9.125C137.438 9.875 138.938 10.6875 140.438 11.5625C140.812 11.9375 140.938 12.3125 140.812 12.6875C140.562 12.9375 140.25 13 139.875 12.875C139.25 12.875 138.688 13.125 138.188 13.625C136.312 14.875 134.438 16.125 132.562 17.375C136.188 18.375 138.438 19.6875 139.312 21.3125C139.938 23.1875 139.562 24.625 138.188 25.625C138.938 26.25 139.875 27.0625 141 28.0625C141.25 28.4375 141.312 28.75 141.188 29C141.062 29.125 140.812 29.1875 140.438 29.1875ZM122.25 17.9375V17.75C122.25 17.875 122.25 17.8125 122.25 17.5625C122.25 17.5625 122.312 17.5 122.438 17.375C123.938 14.875 125.125 12.1875 126 9.3125C126 8.3125 126.5 8 127.5 8.375C129.125 8.875 130.875 9.5 132.75 10.25C133.25 11.125 133.062 11.625 132.188 11.75C131.438 11.875 130.812 12.1875 130.312 12.6875C128.312 14.6875 126.312 16.3125 124.312 17.5625C127.562 18.5625 129.75 19.875 130.875 21.5C131.75 23.5 131.312 25 129.562 26C127.562 26.75 126.375 26.125 126 24.125C125.625 22.25 124.5 20.3125 122.625 18.3125C122.25 18.3125 122.125 18.1875 122.25 17.9375ZM117.75 24.3125C117.75 22.4375 116.938 20.5 115.312 18.5C115.062 18.375 115.062 18.1875 115.312 17.9375C115.312 17.8125 115.312 17.625 115.312 17.375C116.188 15.5 116.875 12.75 117.375 9.125C117.25 8.25 117.75 7.875 118.875 8C119.375 8.25 120.5 8.5625 122.25 8.9375C123.375 9.1875 124.062 9.3125 124.312 9.3125C124.562 9.4375 124.688 9.75 124.688 10.25C124.562 10.625 124.312 10.8125 123.938 10.8125C123.188 11.0625 122.562 11.5 122.062 12.125C120.312 14.625 118.5 16.625 116.625 18.125C120.25 19.5 122.375 21.0625 123 22.8125C123.25 25.1875 122.562 26.5625 120.938 26.9375C118.812 27.3125 117.75 26.4375 117.75 24.3125ZM140.25 6.5H117.75C116.625 6.625 115.75 6.75 115.125 6.875C114.5 7 114.188 6.9375 114.188 6.6875C113.812 6.4375 113.562 5.9375 113.438 5.1875C113.188 4.8125 113.25 4.6875 113.625 4.8125C115.5 5.0625 117.188 5.1875 118.688 5.1875H131.625C133.25 2.6875 134.5 1.3125 135.375 1.0625C136.25 1.3125 138 2.75 140.625 5.375C140.875 5.75 140.938 6.0625 140.812 6.3125C140.812 6.4375 140.625 6.5 140.25 6.5ZM97.3125 40.4375C99.0625 38.9375 100.25 37 100.875 34.625C100.875 34.375 101 34.25 101.25 34.25C101.625 34.25 101.875 34.375 102 34.625C103.375 37.625 103.562 40.4375 102.562 43.0625C101.062 44.9375 99.375 45.25 97.5 44C96.375 42.625 96.3125 41.4375 97.3125 40.4375ZM111.375 38.375C111.125 36 110.25 34.125 108.75 32.75C108.375 32.5 108.25 32.3125 108.375 32.1875C108.5 32.0625 108.812 31.9375 109.312 31.8125C112.188 32.0625 114.438 33 116.062 34.625C117.562 37.25 117.188 39.1875 114.938 40.4375C113.188 40.8125 112 40.125 111.375 38.375ZM104.812 40.4375C105.188 38.0625 105.125 35.9375 104.625 34.0625C104.5 33.8125 104.5 33.6875 104.625 33.6875C104.75 33.5625 105 33.5625 105.375 33.6875C108 35.4375 109.625 37.3125 110.25 39.3125C110.5 41.8125 109.438 43.1875 107.062 43.4375C105.188 43.0625 104.438 42.0625 104.812 40.4375ZM103.5 26.75C103.625 26.75 103.75 26.75 103.875 26.75C106 26.375 107.812 26.125 109.312 26C108.812 24.875 108.312 23.875 107.812 23C107.812 23 107.75 22.9375 107.625 22.8125C107.5 22.8125 107.5 22.75 107.625 22.625C106.25 24.25 104.875 25.625 103.5 26.75ZM161.625 11.75V16.0625H162.75C164 13.8125 165 12.5625 165.75 12.3125C167 12.8125 168.375 13.9375 169.875 15.6875V15.125C169.875 12.75 169.812 11.0625 169.688 10.0625C169.562 9.4375 169.625 9.0625 169.875 8.9375C170 8.6875 170.438 8.625 171.188 8.75C173.562 9.5 175.438 10.1875 176.812 10.8125C176.812 10.8125 176.875 10.875 177 11C177 11.125 177.062 11.1875 177.188 11.1875H181.688C181.812 11.0625 182 10.8125 182.25 10.4375C183.5 8.8125 184.312 8 184.688 8C185.688 8.125 187.438 9.1875 189.938 11.1875C190.812 12.0625 190.875 12.8125 190.125 13.4375C189.5 13.9375 189.25 14.5625 189.375 15.3125V27.3125C189.375 28.4375 189.375 30.4375 189.375 33.3125C189.5 35.6875 189.625 37.5625 189.75 38.9375C190 40.3125 189.562 41.125 188.438 41.375C186.812 41.875 185.625 42.25 184.875 42.5C183.125 43 182.375 42.375 182.625 40.625V38.1875H176.625V40.625C176.75 42 176.312 42.75 175.312 42.875C174.438 43 173.625 43.125 172.875 43.25C172.25 43.25 171.812 43.3125 171.562 43.4375C170.062 43.5625 169.438 42.9375 169.688 41.5625C169.812 40.5625 169.875 38.5 169.875 35.375V17.5625H161.625V22.0625C164.875 22.5625 167.312 23.875 168.938 26C169.812 28.25 169.25 30 167.25 31.25C164.875 32 163.438 31.1875 162.938 28.8125C162.688 26.8125 162.25 25.125 161.625 23.75V27.6875C161.625 31.3125 161.75 36.5 162 43.25C162.25 45 161.625 46.125 160.125 46.625C158.875 47 157.625 47.25 156.375 47.375C154.25 48 153.438 46.8125 153.938 43.8125C153.938 42.5625 154.125 38.1875 154.5 30.6875C152 33.9375 149.125 36.4375 145.875 38.1875C145.375 38.5625 145.062 38.625 144.938 38.375C144.688 38.25 144.75 37.9375 145.125 37.4375C149.625 30.6875 152.5 24.0625 153.75 17.5625H150C149 17.6875 148.062 17.8125 147.188 17.9375C146.688 18.0625 146.375 17.9375 146.25 17.5625C145.75 17.1875 145.438 16.75 145.312 16.25C145.188 15.875 145.312 15.6875 145.688 15.6875C147.438 15.9375 149.188 16.0625 150.938 16.0625H154.5V9.3125C151.875 9.5625 149.375 9.625 147 9.5C146.25 9.5 145.812 9.375 145.688 9.125C145.688 8.75 146.125 8.4375 147 8.1875C153.5 6.0625 158.875 3.8125 163.125 1.4375C163.75 0.9375 164.375 0.9375 165 1.4375C166.5 2.6875 168.312 4.4375 170.438 6.6875C170.938 7.6875 170.688 8.1875 169.688 8.1875C168.938 8.0625 168.125 8 167.25 8C166.125 8.25 164.812 8.4375 163.312 8.5625C163.312 8.9375 163.125 9.3125 162.75 9.6875C162 10.1875 161.625 10.875 161.625 11.75ZM182.625 12.5H176.812C176.812 12.625 176.75 12.8125 176.625 13.0625C176.625 13.3125 176.625 13.5 176.625 13.625V36.6875H182.625V12.5ZM215.438 33.3125H207.75V37.25C208.625 37.25 210 37.125 211.875 36.875C213.625 36.75 215.25 36.5625 216.75 36.3125C217.375 36.3125 217.75 36.375 217.875 36.5C218 36.75 217.812 37 217.312 37.25C212.312 39.625 206.188 41.9375 198.938 44.1875C197.812 44.5625 197.062 45.125 196.688 45.875C195.812 46.75 195.188 46.75 194.812 45.875C193.688 43.875 192.875 41.6875 192.375 39.3125C192.125 38.5625 192.5 38.1875 193.5 38.1875C195.25 38.1875 197.062 38.125 198.938 38C199.812 38 200.5 37.9375 201 37.8125V33.3125H198.75C197.375 33.3125 196.438 33.375 195.938 33.5C195.812 33.5 195.688 33.5625 195.562 33.6875C195.312 33.6875 195.125 33.5 195 33.125C194.875 33 194.75 32.8125 194.625 32.5625C194.5 32.3125 194.438 32.0625 194.438 31.8125C194.188 31.4375 194.25 31.3125 194.625 31.4375C196.5 31.6875 198.188 31.8125 199.688 31.8125H201V26.9375H197.25C197 26.9375 196.562 27 195.938 27.125C195.312 27.125 194.875 27.125 194.625 27.125C194.125 27.375 193.812 27.3125 193.688 26.9375C193.312 26.4375 193.062 26 192.938 25.625C192.812 25.5 192.75 25.375 192.75 25.25C192.875 25.125 193.062 25.0625 193.312 25.0625C194.188 25.4375 195.812 25.5625 198.188 25.4375H205.688C206.062 23.6875 206.438 20.875 206.812 17H196.688C196.438 17 196 17.0625 195.375 17.1875C194.625 17.1875 194.125 17.1875 193.875 17.1875C193.375 17.4375 193.062 17.375 192.938 17C192.812 16.875 192.688 16.6875 192.562 16.4375C192.312 16.1875 192.188 15.9375 192.188 15.6875C192.062 15.5625 192 15.4375 192 15.3125C192 15.1875 192.188 15.125 192.562 15.125C193.438 15.5 195.062 15.625 197.438 15.5H199.5V12.5C199 13.125 198.312 13.5 197.438 13.625C195.812 13.875 195 12.875 195 10.625C194.875 8.375 194.438 6.75 193.688 5.75C193.438 5.5 193.438 5.3125 193.688 5.1875C193.812 5.0625 194.125 5 194.625 5C196.75 5.75 198.375 6.9375 199.5 8.5625V7.8125C199.5 6.3125 199.438 5.25 199.312 4.625C199.312 4 199.25 3.5 199.125 3.125C198.875 2.375 198.875 1.875 199.125 1.625C199.375 1.375 199.875 1.3125 200.625 1.4375C201.125 1.5625 202 1.8125 203.25 2.1875C204 2.3125 204.5 2.375 204.75 2.375C204.875 2.5 205 2.625 205.125 2.75C204.875 1.75 205.438 1.375 206.812 1.625C207.312 1.75 208.125 2 209.25 2.375C210 2.5 210.5 2.5625 210.75 2.5625C211.25 2.8125 211.5 3.125 211.5 3.5C211.5 3.875 211.312 4.1875 210.938 4.4375C210.562 4.6875 210.375 5.25 210.375 6.125V10.0625C211.25 7.4375 211.812 5.625 212.062 4.625C212.062 4.25 212.375 4.125 213 4.25C214.625 5 216.188 5.8125 217.688 6.6875C217.938 6.9375 218 7.25 217.875 7.625C217.75 8 217.562 8.0625 217.312 7.8125C216.688 7.8125 216.188 8 215.812 8.375C214.062 10.25 212.25 11.8125 210.375 13.0625V15.5H210.562C211.812 13.625 212.688 12.6875 213.188 12.6875C213.688 12.6875 214.375 13.125 215.25 14C215.25 13.75 215.438 13.625 215.812 13.625C216.688 14 218.438 14.125 221.062 14H225.375V10.8125C225.25 9.8125 225.188 8.625 225.188 7.25C225.062 5.75 224.938 4.375 224.812 3.125C224.438 1.875 224.875 1.3125 226.125 1.4375C227.125 1.5625 228.625 1.75 230.625 2C231.75 2.125 232.562 2.1875 233.062 2.1875C233.688 2.4375 234.062 2.75 234.188 3.125C234.188 3.5 233.938 3.875 233.438 4.25C232.688 5.125 232.375 5.8125 232.5 6.3125V13.8125C234 11.9375 235.062 10.9375 235.688 10.8125C236.562 11.0625 237.875 12.25 239.625 14.375C239.75 14.75 239.75 15.0625 239.625 15.3125C239.5 15.5625 239.312 15.625 239.062 15.5C236.938 15.5 234.75 15.5 232.5 15.5V23.75C232.5 26 232.5 28.9375 232.5 32.5625C232.625 35.5625 232.75 38.125 232.875 40.25C233 43 232.438 44.8125 231.188 45.6875C230.062 46.3125 228.625 46.8125 226.875 47.1875C226.625 47.1875 226.438 47.25 226.312 47.375C224.312 47.75 223.25 47.375 223.125 46.25C223.125 44.25 221.75 42.8125 219 41.9375C217.625 41.4375 217.125 41.125 217.5 41C217.25 40.75 217.875 40.6875 219.375 40.8125C224 41.8125 226 40.125 225.375 35.75V15.5H220.125C218.875 15.5 217.938 15.5625 217.312 15.6875C217.312 15.9375 217.25 16 217.125 15.875C217 15.875 217.062 15.875 217.312 15.875C217.562 16.5 217.375 16.875 216.75 17H208.688C210.938 17.625 212.5 18.125 213.375 18.5C214 19.25 213.875 19.75 213 20C212.375 20 211.812 20.375 211.312 21.125C210.938 21.5 210.438 22.125 209.812 23C208.812 24.375 208.125 25.1875 207.75 25.4375H210C211.5 23.1875 212.438 22.0625 212.812 22.0625C213.562 22.3125 214.938 23.5625 216.938 25.8125C217.188 26.5625 217 26.9375 216.375 26.9375H208.688C208.562 27.0625 208.5 27.125 208.5 27.125C208 27.375 207.75 27.75 207.75 28.25V31.8125H209.25C210.625 29.8125 211.625 28.75 212.25 28.625C212.5 28.75 213.125 29.375 214.125 30.5C214.625 31 215.188 31.5 215.812 32C216.188 32.75 216.062 33.1875 215.438 33.3125ZM217.688 27.6875C217.812 25.0625 217.5 22.875 216.75 21.125C216.5 20.75 216.438 20.4375 216.562 20.1875C216.688 20.0625 216.938 20 217.312 20C221.062 21 223.5 22.6875 224.625 25.0625C225.25 27.3125 224.688 29.125 222.938 30.5C219.812 31.625 218.062 30.6875 217.688 27.6875ZM197.812 22.25C197.438 20.625 196.938 19.375 196.312 18.5C195.938 18.25 195.812 18 195.938 17.75C196.062 17.625 196.375 17.5625 196.875 17.5625C200.875 17.8125 203.062 19.25 203.438 21.875C203.188 23.875 202.125 24.9375 200.25 25.0625C198.875 25.0625 198.062 24.125 197.812 22.25ZM204.188 5.9375V15.5H205.688V8C205.562 6.125 205.438 4.6875 205.312 3.6875C205.188 3.9375 205.062 4.125 204.938 4.25C204.312 4.5 204.062 5.0625 204.188 5.9375ZM261.75 6.3125H265.875C266.875 4.8125 267.812 3.875 268.688 3.5C270.562 4.125 272.812 5.4375 275.438 7.4375C275.938 8.3125 276.125 9 276 9.5C275.75 9.875 275.188 10.0625 274.312 10.0625C272.062 10.1875 269.562 11.0625 266.812 12.6875H275.25C276.25 11.1875 277 10.4375 277.5 10.4375C280.25 11.4375 282.5 12.75 284.25 14.375C284.25 15 283.938 15.4375 283.312 15.6875C282.812 16.0625 282.562 16.4375 282.562 16.8125C282.562 16.9375 282.562 17.125 282.562 17.375C282.688 18 282.75 18.6875 282.75 19.4375C282.875 20.8125 282.438 21.625 281.438 21.875C280.938 22 280.5 22.125 280.125 22.25C281.25 23.125 282.375 24 283.5 24.875C283.875 25.375 284 25.875 283.875 26.375C283.5 26.875 283.062 27.0625 282.562 26.9375C281.438 26.6875 280.188 26.625 278.812 26.75C276.688 27.125 274.5 27.5 272.25 27.875C275.875 33 280.688 35.8125 286.688 36.3125C287.188 36.4375 287.5 36.75 287.625 37.25C287.75 37.75 287.562 38.125 287.062 38.375C285.562 39.5 284.375 40.875 283.5 42.5C283 43.75 282.25 44.0625 281.25 43.4375C275.75 41.1875 272.062 36.125 270.188 28.25C269.438 28.25 268.875 28.3125 268.5 28.4375C270 31.0625 270.688 34.6875 270.562 39.3125C270.562 43.9375 267.875 46.625 262.5 47.375C260.625 47.75 259.688 47.375 259.688 46.25C259.562 44.375 258.438 43.1875 256.312 42.6875C255.188 42.4375 254.75 42.0625 255 41.5625C255 41.1875 255.562 41 256.688 41C261.438 41.375 263.688 40.3125 263.438 37.8125V36.6875C259.062 39.5625 252.25 42.3125 243 44.9375C242.375 44.9375 242 44.8125 241.875 44.5625C241.75 44.3125 242 44.0625 242.625 43.8125C251.375 38.9375 258 34.25 262.5 29.75C256.25 34.625 250.25 37.625 244.5 38.75C243.875 38.875 243.5 38.875 243.375 38.75C243.375 38.5 243.625 38.1875 244.125 37.8125C249.25 34.4375 253.75 30.625 257.625 26.375C254.75 28 250.312 29.5625 244.312 31.0625C243.562 31.3125 243.125 31.25 243 30.875C243 30.625 243.312 30.3125 243.938 29.9375C249.562 26.9375 253.875 23.8125 256.875 20.5625H254.438V21.3125C254.438 22.3125 253.938 23 252.938 23.375C251.812 23.75 250.562 23.9375 249.188 23.9375C247.562 24.1875 246.875 23.5 247.125 21.875C247.125 21.625 247.125 21.1875 247.125 20.5625C247.375 19.1875 247.5 18.125 247.5 17.375V15.6875C245.75 16.4375 244.188 17.0625 242.812 17.5625C242.188 17.6875 241.812 17.625 241.688 17.375C241.562 17.125 241.75 16.8125 242.25 16.4375C242.375 16.3125 242.5 16.1875 242.625 16.0625C246.25 12.8125 249.188 9.8125 251.438 7.0625C252.812 5.4375 254.062 3.4375 255.188 1.0625C255.438 0.5625 256 0.375 256.875 0.5C259.625 1 262.375 1.6875 265.125 2.5625C265.625 2.8125 265.875 3.25 265.875 3.875C265.75 4.375 265.438 4.625 264.938 4.625C263.688 4.875 262.875 5.1875 262.5 5.5625C262.25 5.8125 262 6.0625 261.75 6.3125ZM275.438 20.5625H265.875C264.875 21.5625 263.875 22.4375 262.875 23.1875C264.75 24.1875 266.25 25.375 267.375 26.75C271.125 24.5 273.812 22.4375 275.438 20.5625ZM266.062 7.8125H260.062C258.188 9.4375 256.25 10.875 254.25 12.125C254.375 12.125 254.562 12.1875 254.812 12.3125C255.188 12.4375 255.375 12.5625 255.375 12.6875H263.812L266.062 7.8125ZM275.625 14.1875H270.562C269.562 16.0625 268.438 17.75 267.188 19.25H275.625V14.1875ZM254.438 15.3125V19.25H258.188C259.438 17.625 260.562 15.9375 261.562 14.1875H254.812C254.562 14.5625 254.438 14.9375 254.438 15.3125ZM302.625 11.375H297.375C295 11.5 292.688 11.625 290.438 11.75C290.312 11.75 290.125 11.8125 289.875 11.9375C289.625 11.9375 289.5 11.8125 289.5 11.5625C289.25 11.4375 289.062 11.1875 288.938 10.8125C288.812 10.5625 288.688 10.3125 288.562 10.0625C288.438 9.9375 288.375 9.8125 288.375 9.6875C288.375 9.5625 288.562 9.5 288.938 9.5C289.562 9.75 290.812 9.9375 292.688 10.0625C294.812 10.0625 296.875 10.0625 298.875 10.0625H303C303.75 7.4375 304.25 4.5625 304.5 1.4375C304.375 0.6875 304.875 0.3125 306 0.3125C310.375 0.9375 313.438 1.375 315.188 1.625C315.812 1.875 316.188 2.3125 316.312 2.9375C316.312 3.5625 316 3.9375 315.375 4.0625C314 4.4375 313.25 5.0625 313.125 5.9375C312.875 6.5625 312.562 7.375 312.188 8.375C311.938 9.25 311.812 9.8125 311.812 10.0625H325.875C327.375 7.4375 328.438 6.0625 329.062 5.9375C330.438 6.1875 332.5 7.5625 335.25 10.0625C335.875 11.0625 335.75 11.625 334.875 11.75C332 11.625 328.875 11.5 325.5 11.375H311.25C309.375 15.75 307.25 19.375 304.875 22.25V26C306.5 26.25 308.812 26.3125 311.812 26.1875H314.062V22.4375C313.938 21.5625 313.875 20.4375 313.875 19.0625C313.75 17.6875 313.625 16.5625 313.5 15.6875C313.25 14.6875 313.75 14.1875 315 14.1875C316.125 14.3125 317.312 14.5 318.562 14.75C319.812 14.875 320.938 15 321.938 15.125C322.438 15.25 322.75 15.625 322.875 16.25C323 16.75 322.812 17.125 322.312 17.375C321.562 17.75 321.188 18.3125 321.188 19.0625V26.1875H324.188C325.688 23.5625 326.75 22.25 327.375 22.25C328.5 22.5 330.562 23.8125 333.562 26.1875C333.938 26.6875 334.062 27.125 333.938 27.5C333.812 27.75 333.5 27.875 333 27.875C331.5 27.75 328.438 27.6875 323.812 27.6875H321.188V41.375H325.875C327.375 39.125 328.438 37.9375 329.062 37.8125C330.438 38.0625 332.5 39.3125 335.25 41.5625C335.5 41.8125 335.625 42.125 335.625 42.5C335.5 42.75 335.25 42.9375 334.875 43.0625C334.125 43.0625 332.688 43 330.562 42.875C328.062 42.875 326.375 42.875 325.5 42.875H304.875V44.5625C304.875 45.6875 304.312 46.5 303.188 47C300.938 47.375 299.5 47.5625 298.875 47.5625C297.375 47.8125 296.812 47.125 297.188 45.5C297.312 43.375 297.438 41.25 297.562 39.125C297.562 36.75 297.625 34.6875 297.75 32.9375V29.1875C295.125 30.9375 292.375 32.625 289.5 34.25C288.875 34.625 288.5 34.6875 288.375 34.4375C288.125 34.1875 288.188 33.8125 288.562 33.3125C291.812 30.1875 294.812 26.4375 297.562 22.0625C297.438 20.4375 297.312 19.1875 297.188 18.3125C296.938 17.3125 297.438 16.875 298.688 17C299.062 17.25 299.562 17.3125 300.188 17.1875C301.062 15.4375 301.875 13.5 302.625 11.375ZM304.875 27.875V41.375H314.062V27.6875H310.312C307.812 27.6875 306 27.75 304.875 27.875ZM381.562 7.4375V16.8125C381.562 28.3125 381.812 37.375 382.312 44C382.312 45.25 381.75 46.125 380.625 46.625C379.625 46.875 378.75 47.0625 378 47.1875C377.625 47.3125 377.188 47.4375 376.688 47.5625C375.062 47.6875 374.312 47.25 374.438 46.25V43.25H345.75V44.1875C345.75 45.8125 345.25 46.75 344.25 47C344 47 343.75 47 343.5 47C341.875 47.375 340.75 47.5625 340.125 47.5625C338.5 47.5625 337.812 46.8125 338.062 45.3125C338.188 42.4375 338.312 38.3125 338.438 32.9375C338.562 27.5625 338.688 23.0625 338.812 19.4375V11.1875C338.688 9.9375 338.625 8.5625 338.625 7.0625C338.5 5.5625 338.375 4.1875 338.25 2.9375C338.125 2.1875 338.188 1.75 338.438 1.625C338.562 1.375 339.062 1.3125 339.938 1.4375C342.062 1.9375 344.375 2.6875 346.875 3.6875H373.5C374.5 1.9375 375.375 0.9375 376.125 0.6875C377.5 0.8125 379.5 1.75 382.125 3.5C383.125 4.375 383.188 5.1875 382.312 5.9375C381.688 6.3125 381.438 6.8125 381.562 7.4375ZM374.438 41.75V20.75H362.438C362.312 21.125 362.25 21.625 362.25 22.25C362.125 23 362.062 23.5 362.062 23.75H365.625C366.75 21.875 367.562 20.9375 368.062 20.9375C370.312 21.6875 372.375 22.9375 374.25 24.6875C374.375 25.4375 374.188 26 373.688 26.375C373.062 26.625 372.75 27.0625 372.75 27.6875C372.625 29.9375 372.688 32.625 372.938 35.75C372.938 36.625 373 37.25 373.125 37.625C373.5 39.5 371.938 40.625 368.438 41C367.062 41.125 366.438 40.8125 366.562 40.0625V38.1875H354C354.25 40.0625 352.688 41.0625 349.312 41.1875C347.688 41.3125 347.062 41 347.438 40.25C347.438 39.125 347.438 38.0625 347.438 37.0625C347.562 36.3125 347.625 34.6875 347.625 32.1875V27.875C347.625 26.25 347.562 25.25 347.438 24.875C347.438 24.25 347.438 23.75 347.438 23.375C347.188 22.625 347.188 22.1875 347.438 22.0625C347.688 21.8125 348.25 21.6875 349.125 21.6875C350.125 22.0625 352.188 22.75 355.312 23.75H356.812C356.812 23.5 356.812 23.0625 356.812 22.4375C356.938 21.8125 357 21.25 357 20.75H350.062C349.562 20.75 348.562 20.9375 347.062 21.3125C346.812 21.3125 346.688 21.3125 346.688 21.3125C346.312 21.5625 346 21.4375 345.75 20.9375V41.75H374.438ZM366.562 25.25H355.312C354.438 25.375 354 25.75 354 26.375V36.6875H366.562V25.25ZM345.75 6.3125V19.25C346.625 19.5 348.25 19.5625 350.625 19.4375H357C357 18.8125 357 18.1875 357 17.5625C357.125 17.0625 357.188 16.3125 357.188 15.3125H355.5V15.6875C355.5 16.9375 355 17.625 354 17.75C352.75 18 351.688 18.125 350.812 18.125C348.938 18.375 348.25 17.5 348.75 15.5C348.875 14.125 349 12.9375 349.125 11.9375C349 11.4375 348.938 10.6875 348.938 9.6875C348.812 8.8125 348.75 8.0625 348.75 7.4375C348.5 6.1875 349 5.6875 350.25 5.9375C352.5 6.5625 354.312 7.1875 355.688 7.8125C355.812 7.8125 355.875 7.8125 355.875 7.8125H363.562C364.312 6.3125 365.062 5.5 365.812 5.375C368.688 6.375 370.812 7.6875 372.188 9.3125C372.188 9.8125 371.875 10.1875 371.25 10.4375C370.875 10.9375 370.688 11.5 370.688 12.125C370.688 12.375 370.688 12.6875 370.688 13.0625C370.812 13.4375 370.875 13.75 370.875 14C371 15.375 370.938 16.125 370.688 16.25C371.562 16.875 372.812 17.8125 374.438 19.0625V5.1875H346.688C346.062 5.1875 345.75 5.5625 345.75 6.3125ZM355.312 31.625V31.25C355.312 29.75 355.25 28.6875 355.125 28.0625C355 27.4375 355.062 27.0625 355.312 26.9375C355.438 26.6875 355.875 26.625 356.625 26.75C356.875 27 357.438 27.25 358.312 27.5C358.812 27.75 359.25 27.875 359.625 27.875H360.75C361.5 26.75 362.125 26.1875 362.625 26.1875C363.625 26.5625 364.75 27.375 366 28.625C366.125 29.125 366 29.625 365.625 30.125C365.375 30.375 365.25 30.6875 365.25 31.0625C365.125 31.5625 365.188 32.0625 365.438 32.5625C365.562 34.5625 364.688 35.625 362.812 35.75C361.438 36.125 360.812 35.75 360.938 34.625V34.0625H359.625C359.625 35.0625 359.25 35.625 358.5 35.75C358.25 36 357.562 36.0625 356.438 35.9375C355.312 36.1875 354.875 35.5625 355.125 34.0625C355.25 33.5625 355.312 32.75 355.312 31.625ZM364.312 9.3125H356.438C356.188 9.3125 356.125 9.3125 356.25 9.3125C355.625 9.6875 355.375 10.3125 355.5 11.1875V13.8125H364.312V9.3125ZM364.312 16.0625V15.3125H363.375C362.875 15.6875 362.625 16.4375 362.625 17.5625L362.438 19.4375H366.562C366.938 18.8125 367.5 18.0625 368.25 17.1875C367.875 17.1875 367.5 17.25 367.125 17.375C366.75 17.5 366.438 17.5 366.188 17.375C364.812 17.625 364.188 17.1875 364.312 16.0625ZM360.938 29.1875H360C359.75 29.3125 359.625 29.625 359.625 30.125V32.9375H360.938V29.1875ZM410.25 5.375V6.125H415.5C416.625 4.5 417.438 3.625 417.938 3.5C420.062 4.25 422.375 5.6875 424.875 7.8125C425.125 8.5625 424.938 9.125 424.312 9.5C423.812 9.75 423.562 10.125 423.562 10.625V11.75H424.125C425.25 10 426.188 8.9375 426.938 8.5625C427.812 8.9375 429.125 10 430.875 11.75C431.125 12.625 430.938 13.125 430.312 13.25H423.562C423.438 14.625 423.5 16 423.75 17.375C423.875 18.875 423.375 19.75 422.25 20C422.125 20 422 20.0625 421.875 20.1875C421.625 20.1875 421.438 20.1875 421.312 20.1875C421.688 20.4375 422.25 21 423 21.875C423.25 22.25 423.562 22.5625 423.938 22.8125C424.312 23.3125 424.438 23.75 424.312 24.125C424.188 24.375 423.875 24.5 423.375 24.5C420.125 24.5 416.188 24.5 411.562 24.5H410.25V27.6875H420.938C421.188 27.4375 421.5 27.125 421.875 26.75C423.25 25.125 424.125 24.3125 424.5 24.3125C425.25 24.6875 426.688 25.75 428.812 27.5C429.188 28 429.312 28.5 429.188 29C429.062 29.375 428.75 29.5 428.25 29.375C427.125 29.375 425.625 29.375 423.75 29.375C422 29.25 419.438 29.1875 416.062 29.1875H394.875C391.5 29.3125 389.125 29.5 387.75 29.75C387.375 29.875 387.062 29.6875 386.812 29.1875C386.562 29.0625 386.375 28.8125 386.25 28.4375C386.125 28.1875 386 27.9375 385.875 27.6875C385.625 27.4375 385.75 27.3125 386.25 27.3125C387.25 27.4375 388.812 27.5625 390.938 27.6875C393.062 27.6875 394.938 27.6875 396.562 27.6875H403.125V24.5H399.562C396.188 24.625 393.812 24.8125 392.438 25.0625C391.938 25.1875 391.625 25 391.5 24.5C391 24.25 390.688 23.8125 390.562 23.1875C390.438 22.9375 390.375 22.8125 390.375 22.8125C390.375 22.6875 390.5 22.625 390.75 22.625C394.875 23 398.375 23.1875 401.25 23.1875H403.125V18.5H395.25C394.875 18.5 394.312 18.5625 393.562 18.6875C392.812 18.6875 392.375 18.6875 392.25 18.6875C391.75 18.9375 391.438 18.875 391.312 18.5C390.812 18.125 390.5 17.75 390.375 17.375C390.125 17.25 390 17.125 390 17C390.125 16.875 390.312 16.75 390.562 16.625C391.688 17 393.562 17.125 396.188 17H403.125V13.25H390.188C388.812 13.25 387.875 13.3125 387.375 13.4375C387 13.5625 386.625 13.5625 386.25 13.4375C386.25 13.4375 386.25 13.375 386.25 13.25C386.125 13.25 386 13.125 385.875 12.875C385.625 12.5 385.438 12.1875 385.312 11.9375C385.062 11.8125 385 11.6875 385.125 11.5625C385.125 11.5625 385.312 11.5 385.688 11.375C387.562 11.625 389.375 11.75 391.125 11.75H403.125V7.625H396.75C396.375 7.625 395.875 7.6875 395.25 7.8125C394.625 7.9375 394.188 7.9375 393.938 7.8125C393.312 8.0625 392.938 8 392.812 7.625C392.562 7.5 392.312 7.25 392.062 6.875C391.938 6.625 391.875 6.4375 391.875 6.3125C391.625 6.1875 391.562 6.0625 391.688 5.9375C391.688 5.9375 391.875 5.875 392.25 5.75C393.25 6.125 395.062 6.25 397.688 6.125H403.125C403 4.75 402.875 3.5625 402.75 2.5625C402.375 1.4375 402.938 0.875 404.438 0.875C406.188 1 408.188 1.3125 410.438 1.8125C411.312 2.4375 411.438 3.0625 410.812 3.6875C410.312 3.9375 410.125 4.5 410.25 5.375ZM391.125 38.1875V37.625C391 37 390.938 35.75 390.938 33.875C390.938 32.75 390.938 32 390.938 31.625C390.562 30.375 391.062 29.875 392.438 30.125C393.812 30.625 395.875 31.25 398.625 32C398.625 32.25 398.75 32.3125 399 32.1875H415.5C416.375 30.8125 417.188 30 417.938 29.75C420.562 30.75 423 32.1875 425.25 34.0625C425.25 34.4375 424.938 34.875 424.312 35.375C423.688 35.625 423.438 36.0625 423.562 36.6875V37.4375C423.562 38.3125 423.562 39.5 423.562 41C423.688 42.125 423.75 42.9375 423.75 43.4375C424 45.0625 423.5 46 422.25 46.25C421.625 46.375 420.938 46.5 420.188 46.625C419.312 46.625 418.562 46.6875 417.938 46.8125C416.562 47.0625 416 46.625 416.25 45.5V45.3125H398.438V45.5C398.438 46.125 398.062 46.625 397.312 47C395.312 47.25 393.812 47.4375 392.812 47.5625C391.188 47.8125 390.562 47.125 390.938 45.5C390.938 45.125 390.938 44.25 390.938 42.875C391.062 40.875 391.125 39.3125 391.125 38.1875ZM398.438 39.6875V43.8125H416.25V39.6875H398.438ZM416.25 33.6875H399C398.625 33.9375 398.438 34.4375 398.438 35.1875V38.1875H416.25V33.6875ZM416.062 18.5H410.25V23.1875H416.062C416.062 23.1875 416.125 23.0625 416.25 22.8125C416.75 21.9375 417.375 21.1875 418.125 20.5625H417.938C416.562 20.6875 415.938 20 416.062 18.5ZM416.062 7.625H410.25V11.75H416.062V7.625ZM410.25 13.25V17H416.062V13.25H410.25ZM465.938 8.1875H470.25C471.25 6.5625 472.188 5.625 473.062 5.375C474.688 5.75 476.688 7.25 479.062 9.875C479.562 10.75 479.75 11.3125 479.625 11.5625C479.5 12.0625 479 12.25 478.125 12.125C475.875 12.125 473.938 12.8125 472.312 14.1875C472.562 14.4375 473 14.75 473.625 15.125C474.125 15.375 474.5 15.5625 474.75 15.6875C475.25 16.5625 475.188 17.25 474.562 17.75C474.312 17.875 474.25 17.9375 474.375 17.9375C473.75 18.3125 473.5 18.625 473.625 18.875V20.1875C473.625 20.5625 473.625 21.25 473.625 22.25C473.75 23.75 473.812 24.75 473.812 25.25C473.938 26.625 473.375 27.4375 472.125 27.6875C470.25 28.1875 469.125 28.375 468.75 28.25C467.375 28.5 466.75 27.9375 466.875 26.5625V25.25H461.062V30.875H467.25C468.25 29.375 469.125 28.5 469.875 28.25C473 29.375 475.25 30.75 476.625 32.375C476.625 32.875 476.312 33.375 475.688 33.875C475.062 34.125 474.812 34.5625 474.938 35.1875C474.812 36.9375 474.938 39.375 475.312 42.5C475.438 44 474.938 44.9375 473.812 45.3125C472.188 45.6875 470.812 45.9375 469.688 46.0625C468.312 46.0625 467.688 45.5 467.812 44.375V41.9375H461.062V44C460.938 44.875 460.438 45.5 459.562 45.875C458.688 46.125 457.375 46.375 455.625 46.625C453.875 46.875 453.188 46.1875 453.562 44.5625C453.562 43.8125 453.625 42.25 453.75 39.875C453.875 37.375 454 35.3125 454.125 33.6875V21.3125C454.125 20.8125 454.062 20 453.938 18.875C453.938 17.875 453.938 17.125 453.938 16.625C452.938 17 452.062 16.9375 451.312 16.4375C450.562 15.9375 450.188 15.1875 450.188 14.1875C448.688 14.8125 447.625 14.0625 447 11.9375C446.625 10.5625 446.062 9.375 445.312 8.375C445.062 8.875 444.75 9.4375 444.375 10.0625C443.875 10.9375 443.562 11.5 443.438 11.75C445.312 12.375 446.562 13.3125 447.188 14.5625C447.688 16.1875 447.062 17.25 445.312 17.75C443.938 18.25 443.125 17.625 442.875 15.875C442.875 15.125 442.688 14.3125 442.312 13.4375C441.938 13.9375 441.562 14.4375 441.188 14.9375C440.688 15.8125 440.188 16.5625 439.688 17.1875C440.562 17.5625 441.75 18.125 443.25 18.875H445.688C446.812 17.25 447.688 16.375 448.312 16.25C448.688 16.25 449.438 16.75 450.562 17.75C451.062 18.125 451.688 18.5625 452.438 19.0625C453.188 19.6875 453.188 20.3125 452.438 20.9375C451.938 21.3125 451.688 21.75 451.688 22.25V29.75C451.688 31.25 451.25 32.125 450.375 32.375C450.125 32.5 449.812 32.625 449.438 32.75C448.938 33 448.562 33.125 448.312 33.125C446.812 33.5 446.188 33.0625 446.438 31.8125V31.4375H442.312V38.1875C443.688 37.9375 445.125 37.6875 446.625 37.4375C446.25 36.1875 445.688 35 444.938 33.875C444.688 33.625 444.625 33.4375 444.75 33.3125C444.75 33.1875 444.938 33.125 445.312 33.125C448.438 34.125 450.938 35.9375 452.812 38.5625C453.812 40.6875 453.312 42.375 451.312 43.625C448.812 44.5 447.438 43.625 447.188 41C447.188 40.75 447.188 40.3125 447.188 39.6875C446.562 40.0625 445.812 40.5 444.938 41C443.438 41.875 442.312 42.625 441.562 43.25C441.062 43.375 440.5 43.9375 439.875 44.9375C439.875 44.9375 439.875 45 439.875 45.125C439.125 45.875 438.438 45.9375 437.812 45.3125C436.688 43.5625 435.75 42 435 40.625C434.625 39.75 434.938 39.125 435.938 38.75C436.562 38.625 436.875 37.9375 436.875 36.6875V25.625C436.875 25 436.812 24 436.688 22.625C436.688 21.5 436.688 20.6875 436.688 20.1875C435.562 21.1875 434.438 22 433.312 22.625C432.812 23 432.438 23.125 432.188 23C432.062 22.875 432.188 22.5625 432.562 22.0625C435.062 18.1875 437.062 13.5625 438.562 8.1875C438.938 6.6875 439.312 4.6875 439.688 2.1875C439.688 1.4375 440.062 1.125 440.812 1.25C442.688 1.625 445 2.25 447.75 3.125C448.375 3.5 448.688 3.9375 448.688 4.4375C448.688 5.0625 448.375 5.4375 447.75 5.5625C447.125 5.8125 446.562 6.1875 446.062 6.6875C448.312 6.9375 450.062 7.625 451.312 8.75C451.312 8.875 451.312 9 451.312 9.125C451.938 10 452.25 10.625 452.25 11C453 10 453.375 8.4375 453.375 6.3125C453.375 5.9375 453.438 5.75 453.562 5.75C453.688 5.625 453.938 5.6875 454.312 5.9375C454.938 6.6875 455.438 7.4375 455.812 8.1875H461.625C461.125 7.8125 460.875 7.1875 460.875 6.3125C460.5 4.4375 459.938 2.9375 459.188 1.8125C458.812 1.4375 458.688 1.125 458.812 0.875C458.938 0.75 459.312 0.625 459.938 0.5C463.938 0.75 466.375 1.875 467.25 3.875C467.75 6 467.312 7.4375 465.938 8.1875ZM471 9.6875H456.375C456.625 11.1875 456.688 12.5 456.562 13.625C457.438 13.875 458.812 14.25 460.688 14.75C460.438 14.75 460.688 14.8125 461.438 14.9375C461.688 15.1875 461.938 15.375 462.188 15.5H466.125C467.25 13.875 468.125 13 468.75 12.875C469 12.875 469.438 12.9375 470.062 13.0625L471 9.6875ZM467.812 32.375H461.062V41H467.812V32.375ZM466.875 17H461.625C461.125 17.25 460.938 17.75 461.062 18.5V23.75H466.875V17ZM446.438 20.375H443.438C443.312 20.375 443.25 20.375 443.25 20.375C442.5 20.375 442.188 20.625 442.312 21.125V24.6875H446.438V20.375ZM442.312 26.1875V30.125H446.438V26.1875H442.312ZM482.812 41.1875H477.938L490.5 7.4375H495.75L482.812 41.1875ZM499.5 36.5V18.875H498.188C497.188 19 496.25 19.125 495.375 19.25C494.875 19.375 494.562 19.25 494.438 18.875C494.312 18.75 494.188 18.5625 494.062 18.3125C493.812 18.0625 493.688 17.8125 493.688 17.5625C493.562 17.3125 493.688 17.1875 494.062 17.1875C495.688 17.4375 497.312 17.5625 498.938 17.5625H499.5V11C499.375 9.375 499.312 7.8125 499.312 6.3125C499.188 4.8125 499.062 3.8125 498.938 3.3125C498.688 2.5625 498.688 2.125 498.938 2C499.062 1.75 499.562 1.625 500.438 1.625C501.688 1.625 503.812 2 506.812 2.75C507.938 3.5 508.062 4.1875 507.188 4.8125C506.312 5.3125 505.938 5.9375 506.062 6.6875V17.5625H506.25C507 15.6875 507.812 14.5625 508.688 14.1875C509.562 14.4375 510.812 15.1875 512.438 16.4375V13.625C512.312 11.125 512.188 9 512.062 7.25C511.938 6.375 512.438 6 513.562 6.125C515.938 6.625 517.812 7.125 519.188 7.625C520.438 8.25 520.562 9 519.562 9.875C519.188 10.125 519 10.5625 519 11.1875V18.3125L521.062 17.5625V10.25C520.938 9 520.812 7.625 520.688 6.125C520.562 4.5 520.438 3.25 520.312 2.375C519.938 1.25 520.438 0.6875 521.812 0.6875C523.312 0.9375 525.312 1.375 527.812 2C528.438 2.25 528.75 2.5625 528.75 2.9375C528.875 3.3125 528.688 3.6875 528.188 4.0625C527.562 4.6875 527.312 5.3125 527.438 5.9375V15.125L529.312 14.375C530.188 12.875 531 11.875 531.75 11.375C533.125 11.625 535.312 12.75 538.312 14.75C538.938 15.5 538.75 16.125 537.75 16.625C537.125 17 536.812 17.5625 536.812 18.3125V19.8125C536.688 20.8125 536.812 23.3125 537.188 27.3125C537.188 27.9375 537.25 28.3125 537.375 28.4375C537.5 30.3125 537.062 31.625 536.062 32.375C534.688 33.625 533.062 34.375 531.188 34.625C529.812 35 529.062 34.6875 528.938 33.6875C528.812 32.3125 528.312 31.25 527.438 30.5V34.625C527.562 36.125 527 37.0625 525.75 37.4375C525.25 37.6875 524.562 37.875 523.688 38C523.312 38 523.062 38 522.938 38C521.062 38.5 520.312 37.75 520.688 35.75C520.688 35.5 520.688 35 520.688 34.25C520.938 31.125 521.062 27.5 521.062 23.375V18.875L519 19.8125V38.5625C518.875 39.8125 519.625 40.375 521.25 40.25H532.125C533.25 40.75 534.75 38.3125 536.625 32.9375C536.875 31.8125 537.25 31.375 537.75 31.625C538.125 31.625 538.25 32.0625 538.125 32.9375C537.75 36.1875 538.25 38.3125 539.625 39.3125C540.625 40.3125 541.125 41.1875 541.125 41.9375C540.875 43.4375 540.188 44.4375 539.062 44.9375C537.312 45.6875 535.188 46.0625 532.688 46.0625H517.875C513.875 46.3125 512.062 44.5 512.438 40.625V34.625C509.188 37.125 504.938 40 499.688 43.25C498.938 43.625 498.5 43.9375 498.375 44.1875C498 44.6875 497.625 44.9375 497.25 44.9375C496.875 44.9375 496.562 44.6875 496.312 44.1875C495.062 42.1875 494.188 40.5625 493.688 39.3125C493.438 38.4375 493.812 37.9375 494.812 37.8125C495.188 37.6875 495.625 37.5625 496.125 37.4375C497.625 37.0625 498.75 36.75 499.5 36.5ZM512.438 32.75V22.25C511.812 22.625 510.938 23.0625 509.812 23.5625C509.312 23.8125 508.938 24 508.688 24.125C508.438 24.375 508.188 24.375 507.938 24.125C507.312 23.75 506.875 23.375 506.625 23C506.375 22.875 506.312 22.75 506.438 22.625C506.438 22.5 506.625 22.375 507 22.25C508.125 22.125 509.938 21.5625 512.438 20.5625V18.875H506.062V34.625C507.312 34.375 508.5 34.0625 509.625 33.6875C510.875 33.3125 511.812 33 512.438 32.75ZM530.25 15.5L527.438 16.625V28.25C529.438 28.625 530.375 28 530.25 26.375V15.5ZM558.188 18.875H554.062V25.25C554.188 25.125 554.375 24.875 554.625 24.5C555.5 23.375 556.062 22.8125 556.312 22.8125C557.062 22.9375 558.188 23.875 559.688 25.625C559.688 25.25 559.688 24.5625 559.688 23.5625C559.812 22.8125 559.875 22.3125 559.875 22.0625C559.875 21.6875 559.812 21.0625 559.688 20.1875C559.688 19.5625 559.688 19.0625 559.688 18.6875C559.562 18.0625 559.562 17.6875 559.688 17.5625C559.812 17.4375 560.188 17.375 560.812 17.375C562.188 17.625 563.562 18 564.938 18.5C565.062 18.625 565.188 18.75 565.312 18.875H567.188C567.188 18.875 567.25 18.75 567.375 18.5C568.125 17.375 568.625 16.8125 568.875 16.8125C569.625 16.9375 570.938 17.625 572.812 18.875C573.188 19.625 573.188 20.125 572.812 20.375C572.312 20.625 572.125 21.0625 572.25 21.6875C572.125 23.8125 572.188 25.1875 572.438 25.8125C572.438 26.6875 572.062 27.25 571.312 27.5C571.188 27.5 571.125 27.5625 571.125 27.6875C571 27.8125 570.938 27.8125 570.938 27.6875C571.688 28.0625 572.688 28.875 573.938 30.125C574.562 31 574.438 31.5 573.562 31.625H568.688V35C569.688 33.625 570.438 32.875 570.938 32.75C571.562 32.875 572.625 33.75 574.125 35.375C574.375 35.75 574.5 36.0625 574.5 36.3125C574.375 36.5625 574.125 36.6875 573.75 36.6875H568.688V39.875C569.062 39.875 569.688 39.875 570.562 39.875C571.562 39.875 572.375 39.8125 573 39.6875C573.5 39.6875 573.812 39.8125 573.938 40.0625C573.938 40.3125 573.688 40.5 573.188 40.625C572.812 40.75 572.5 40.875 572.25 41C568.75 42.25 565.625 43.3125 562.875 44.1875C562.125 44.5625 561.5 45.0625 561 45.6875C560.375 46.3125 559.875 46.3125 559.5 45.6875C558.75 44.1875 558.125 42.6875 557.625 41.1875C557.625 40.8125 558 40.5625 558.75 40.4375C559.875 40.4375 561.375 40.4375 563.25 40.4375V36.6875C561.875 36.9375 560.938 37 560.438 36.875C560.188 37.125 560 37.1875 559.875 37.0625C560.25 37.4375 560.125 37.8125 559.5 38.1875C557.5 39.4375 555.062 40.625 552.188 41.75C550.938 42.25 549.562 42.9375 548.062 43.8125C547.188 43.9375 546.5 44.5625 546 45.6875C545.125 46.5625 544.5 46.625 544.125 45.875C543.125 44.125 542.312 42.125 541.688 39.875C541.438 39.125 541.812 38.6875 542.812 38.5625C544.438 38.5625 545.875 38.5 547.125 38.375C547.625 38.375 548 38.3125 548.25 38.1875V35.9375C547.875 36.5625 547.438 37 546.938 37.25C544.562 37.875 543.312 37.125 543.188 35C543.062 33.125 542.562 31.4375 541.688 29.9375C541.438 29.4375 541.625 29.125 542.25 29C545.375 29.875 547.375 31.125 548.25 32.75V27.125H546.375C545 27.125 544.062 27.25 543.562 27.5C543.062 27.625 542.75 27.5 542.625 27.125C542.375 27 542.125 26.75 541.875 26.375C541.75 26.125 541.688 25.9375 541.688 25.8125C541.562 25.6875 541.688 25.5625 542.062 25.4375C543.062 25.6875 544.812 25.75 547.312 25.625H548.25V18.875H546.188C545.062 20.125 543.875 21.1875 542.625 22.0625C542.125 22.3125 541.75 22.375 541.5 22.25C541.375 22.125 541.5 21.875 541.875 21.5C544.125 17.75 545.938 13.0625 547.312 7.4375C547.688 6.1875 548.062 4.1875 548.438 1.4375C548.438 0.8125 548.812 0.5 549.562 0.5C551.438 0.875 553.75 1.5 556.5 2.375C557.125 2.75 557.438 3.1875 557.438 3.6875C557.438 4.3125 557.125 4.6875 556.5 4.8125C555.875 5.0625 555.312 5.5 554.812 6.125C557.312 6.5 559.188 7.375 560.438 8.75C560.312 8.75 560.375 8.8125 560.625 8.9375H563.062V8.5625C562.938 6.4375 562.812 4.75 562.688 3.5C562.438 2.75 562.438 2.3125 562.688 2.1875C562.938 1.9375 563.5 1.8125 564.375 1.8125C565.5 1.9375 566.812 2.1875 568.312 2.5625C568.812 2.5625 569.188 2.5625 569.438 2.5625C570.438 3.1875 570.5 3.875 569.625 4.625C569 5 568.688 5.5 568.688 6.125V8.9375H569.062C570.062 7.4375 570.875 6.5625 571.5 6.3125C571.625 6.3125 571.875 6.5 572.25 6.875C572.375 7 572.562 7.0625 572.812 7.0625C572.688 5.0625 572.562 3.375 572.438 2C572.188 1 572.688 0.5625 573.938 0.6875C575.188 0.6875 577.062 0.9375 579.562 1.4375C580.062 1.5625 580.375 1.8125 580.5 2.1875C580.5 2.6875 580.312 3.0625 579.938 3.3125C579.188 3.5625 578.875 4.1875 579 5.1875C578.75 8.6875 578.688 11.8125 578.812 14.5625H580.688C582.062 12.4375 583.062 11.3125 583.688 11.1875C584.688 11.5625 586 12.75 587.625 14.75C587.875 15.625 587.688 16.0625 587.062 16.0625H579C578.875 17.5625 578.875 19.0625 579 20.5625C579.125 22.0625 579.375 23.75 579.75 25.625C580 24.625 580.25 22.9375 580.5 20.5625C580.625 19.9375 580.75 19.1875 580.875 18.3125C580.75 17.4375 581.25 17.125 582.375 17.375C582.75 17.625 583.5 17.875 584.625 18.125C586.25 18.625 587.438 19 588.188 19.25C588.938 19.875 588.938 20.5 588.188 21.125C587.188 21.375 586.625 21.8125 586.5 22.4375C584.5 28.5625 583 32.625 582 34.625C582.125 35.375 582.438 36 582.938 36.5C583.312 37.375 584.188 36.5625 585.562 34.0625C585.688 33.8125 585.875 33.5 586.125 33.125C586.5 32.375 586.812 32 587.062 32C587.312 32.125 587.5 32.5625 587.625 33.3125C587.25 37.9375 587.438 41.25 588.188 43.25C588.812 45 588.688 46.25 587.812 47C586.812 47.75 585.688 47.8125 584.438 47.1875C581.812 45.5625 579.688 43.4375 578.062 40.8125C576.562 42.3125 573.75 44.375 569.625 47C569 47.25 568.562 47.25 568.312 47C568.062 46.625 568.188 46.25 568.688 45.875C571.562 43.5 574.062 40.4375 576.188 36.6875C574.438 31.8125 573.375 24.9375 573 16.0625H563.438C562.062 16.0625 561.125 16.1875 560.625 16.4375C560.125 16.5625 559.812 16.4375 559.688 16.0625C559.188 15.8125 558.875 15.375 558.75 14.75C558.5 14.625 558.625 14.5 559.125 14.375C559.75 14.625 561.062 14.6875 563.062 14.5625V10.25H561.188C561.438 11.875 560.938 13.0625 559.688 13.8125C557.312 15.0625 555.875 14.5 555.375 12.125C555.25 10.5 554.75 9.0625 553.875 7.8125C552 11.9375 549.938 15.1875 547.688 17.5625H552.75C553.75 15.9375 554.562 15 555.188 14.75C556.438 15.375 557.562 16.375 558.562 17.75C558.812 18.125 558.875 18.4375 558.75 18.6875C558.75 18.8125 558.562 18.875 558.188 18.875ZM581.438 9.3125C581.062 7.5625 580.438 5.9375 579.562 4.4375C579.312 4.1875 579.25 4 579.375 3.875C579.5 3.75 579.812 3.6875 580.312 3.6875C582.812 3.9375 584.688 4.75 585.938 6.125C586.938 7.875 586.688 9.3125 585.188 10.4375C583.188 11.5625 581.938 11.1875 581.438 9.3125ZM561.562 30.125H568.312C569.188 28.875 569.875 28.125 570.375 27.875C570.125 27.875 569.875 27.9375 569.625 28.0625C569.25 28.0625 568.938 28.0625 568.688 28.0625C567.812 28.3125 567.438 27.875 567.562 26.75V26.5625H564.562V27.125C564.562 27.75 564.25 28.1875 563.625 28.4375C563.5 28.5625 563.312 28.625 563.062 28.625C562.062 29 561.312 29.125 560.812 29C559.688 29.25 559.312 28.6875 559.688 27.3125V27.125C559.562 27.125 559.438 27.125 559.312 27.125H554.062V33.6875C554.812 31.8125 555.312 30.125 555.562 28.625C555.562 27.875 556.062 27.625 557.062 27.875C557.562 28.25 558.188 28.6875 558.938 29.1875C559.438 29.5625 559.938 29.875 560.438 30.125C560.812 30.125 561.188 30.125 561.562 30.125ZM563.25 35.375V31.625H561.562C561.438 32 561.125 32.1875 560.625 32.1875C559.625 32.3125 558.875 32.5625 558.375 32.9375C557.125 34.1875 555.688 35.25 554.062 36.125V37.625C555.438 37.5 557.062 37.25 558.938 36.875C559.188 36.875 559.438 36.875 559.688 36.875C559.562 37 559.5 36.9375 559.5 36.6875C559.25 36.5625 559.062 36.375 558.938 36.125C558.938 36 558.938 35.875 558.938 35.75C558.688 35.5 558.625 35.3125 558.75 35.1875C558.75 35.0625 558.938 35 559.312 35C560.562 35.25 561.875 35.375 563.25 35.375ZM573 10.8125V10.25H568.688V14.5625H573C573 13.6875 573 12.4375 573 10.8125ZM567.562 20H565.125C564.625 20.375 564.438 20.75 564.562 21.125V25.25H567.562V20ZM592.125 41.1875H587.25L599.812 7.4375H605.062L592.125 41.1875ZM635.062 41.9375C635.062 41.6875 635 41.4375 634.875 41.1875C634.875 41.0625 634.875 41 634.875 41C625.875 42.75 619.062 44.5 614.438 46.25C612.812 47.25 611.875 47.1875 611.625 46.0625C610.625 44.1875 609.812 42 609.188 39.5C608.938 38.625 609.312 38.0625 610.312 37.8125C612.438 37.5625 614 36.8125 615 35.5625C617 31.9375 618.812 26.125 620.438 18.125C620.688 17 621.375 16.625 622.5 17C625 17.625 627.75 18.5 630.75 19.625C631.375 20 631.688 20.375 631.688 20.75C631.688 21.25 631.375 21.625 630.75 21.875C630 22.25 629.188 23 628.312 24.125C624.438 30.5 621.062 35.3125 618.188 38.5625C621.188 38.6875 626.438 38.5625 633.938 38.1875C633.188 36.3125 631.688 33.9375 629.438 31.0625C629.312 30.8125 629.188 30.5625 629.062 30.3125C628.688 29.9375 628.562 29.625 628.688 29.375C628.812 29.125 629.188 29.0625 629.812 29.1875C636.438 31.4375 640.875 34.625 643.125 38.75C644.5 42.375 643.688 45 640.688 46.625C637.812 47.5 635.938 45.9375 635.062 41.9375ZM649.125 20.5625C650 20.9375 650.438 21.3125 650.438 21.6875C650.438 22.1875 650 22.5625 649.125 22.8125C647.25 23.8125 645.375 25.625 643.5 28.25C642.625 29.125 641.812 29.25 641.062 28.625C634.312 23.5 630.375 14.8125 629.25 2.5625C629.125 1.9375 629.188 1.5625 629.438 1.4375C629.562 1.3125 630.062 1.3125 630.938 1.4375C632.562 1.9375 633.625 2.3125 634.125 2.5625C634.625 2.9375 634.75 3.3125 634.5 3.6875C634.125 4.0625 633.812 4.375 633.562 4.625C633.062 5 632.938 5.4375 633.188 5.9375C635.938 12.9375 641.25 17.8125 649.125 20.5625ZM616.688 2.375C618.688 2.75 621.375 3.5625 624.75 4.8125C625.375 5.1875 625.688 5.625 625.688 6.125C625.688 6.625 625.438 7 624.938 7.25C624.188 7.625 623.562 8.1875 623.062 8.9375C617.188 19.3125 611 26.625 604.5 30.875C603.75 31.375 603.312 31.5 603.188 31.25C602.938 31 603.062 30.5625 603.562 29.9375C608.562 23.5625 612.438 14.6875 615.188 3.3125C615.312 2.5625 615.812 2.25 616.688 2.375ZM685.875 25.25C685.125 25.375 684.375 26.0625 683.625 27.3125C682.75 28.8125 681.5 30.75 679.875 33.125C679.75 33.375 679.625 33.5625 679.5 33.6875C684.375 36.4375 690.125 38.0625 696.75 38.5625C697.5 38.5625 697.875 38.8125 697.875 39.3125C697.875 39.6875 697.562 40.0625 696.938 40.4375C695.312 40.9375 693.812 42.6875 692.438 45.6875C691.938 46.9375 691.062 47.3125 689.812 46.8125C682.812 44.1875 677.75 41.5 674.625 38.75C670.5 42.125 663.312 44.875 653.062 47C652.062 47.125 651.562 47.0625 651.562 46.8125C651.438 46.1875 651.812 45.75 652.688 45.5C660.938 41.75 666.812 37.8125 670.312 33.6875C668.562 31.4375 666.812 27.75 665.062 22.625C664.812 22 664.875 21.5625 665.25 21.3125C665.75 21.1875 666.188 21.375 666.562 21.875C668.062 24.75 670.312 27.3125 673.312 29.5625C674.562 27.6875 675.812 24.875 677.062 21.125C677.188 19.5 678 19 679.5 19.625C681.75 20.625 684 21.75 686.25 23C686.75 23.5 686.938 23.9375 686.812 24.3125C686.812 24.8125 686.5 25.125 685.875 25.25ZM661.5 8.9375H673.125C672.375 8.6875 671.938 7.8125 671.812 6.3125C671.562 4.8125 670.875 3.25 669.75 1.625C669.375 1.375 669.25 1.125 669.375 0.875C669.375 0.75 669.688 0.625 670.312 0.5C675.688 0.375 678.688 1.6875 679.312 4.4375C679.562 6.4375 678.75 7.9375 676.875 8.9375H688.312C689.938 6.3125 691.188 4.75 692.062 4.25C693.688 4.75 695.688 6.25 698.062 8.75C698.688 9.875 698.5 10.5 697.5 10.625C695.75 10.5 693.875 10.4375 691.875 10.4375C690.25 10.3125 687.75 10.25 684.375 10.25H659.812C659.062 10.375 658.062 10.4375 656.812 10.4375C655.688 10.5625 654.438 10.6875 653.062 10.8125C652.562 10.9375 652.25 10.875 652.125 10.625C651.75 10.125 651.375 9.5 651 8.75C650.75 8.375 650.875 8.25 651.375 8.375C652.625 8.625 654.438 8.8125 656.812 8.9375C658.812 8.9375 660.375 8.9375 661.5 8.9375ZM687.562 24.5C685.312 20.375 681.75 16.25 676.875 12.125C676.5 11.875 676.312 11.6875 676.312 11.5625C676.438 11.4375 676.75 11.3125 677.25 11.1875C686.375 12.8125 692.188 15.375 694.688 18.875C696.438 21.875 696.062 24.4375 693.562 26.5625C691.062 28.1875 689.062 27.5 687.562 24.5ZM663.75 10.8125C667.125 11.9375 669.688 13.0625 671.438 14.1875C671.938 14.5625 672.188 15 672.188 15.5C672.062 16 671.75 16.25 671.25 16.25C670.5 16.375 669.875 16.625 669.375 17C663.25 22.625 657.938 26.6875 653.438 29.1875C652.812 29.5625 652.375 29.625 652.125 29.375C652 29.25 652.188 28.875 652.688 28.25C657.438 22 660.812 16.375 662.812 11.375C662.938 10.875 663.25 10.6875 663.75 10.8125ZM701.438 41.1875H696.562L709.125 7.4375H714.375L701.438 41.1875ZM732.375 42.5H736.875V25.25H726.938C726.562 25.25 726.188 25.25 725.812 25.25V44C725.938 45.125 725.312 45.9375 723.938 46.4375C722.312 46.9375 721.188 47.3125 720.562 47.5625C718.562 47.9375 717.75 46.6875 718.125 43.8125C718.25 41.9375 718.375 39.6875 718.5 37.0625C718.5 33.9375 718.562 30.9375 718.688 28.0625V23.9375C716.938 25.6875 715.25 27.25 713.625 28.625C713 29.125 712.562 29.3125 712.312 29.1875C712.188 28.9375 712.312 28.5 712.688 27.875C715.188 23.875 717.438 18.375 719.438 11.375C720.188 8.375 720.812 5.4375 721.312 2.5625C721.312 1.6875 721.875 1.375 723 1.625C723.875 1.875 726.25 2.6875 730.125 4.0625C730.625 4.1875 731 4.25 731.25 4.25C731.75 4.625 731.938 5.0625 731.812 5.5625C731.688 6.1875 731.375 6.5 730.875 6.5C729.875 6.875 729.188 7.375 728.812 8C728.562 8.875 728.25 9.5625 727.875 10.0625C732.75 8.9375 736.938 7.75 740.438 6.5C743.188 5.75 745.938 4.5 748.688 2.75C749.438 2.125 750.25 2.125 751.125 2.75C752.5 4.125 754.188 6.1875 756.188 8.9375C756.312 10.1875 755.875 10.6875 754.875 10.4375C754.25 10.1875 753.312 10.0625 752.062 10.0625C751.312 10.1875 750.25 10.3125 748.875 10.4375C747.375 10.5625 746.312 10.625 745.688 10.625C745.938 11.25 745.812 11.8125 745.312 12.3125C744.562 12.8125 744.25 13.3125 744.375 13.8125V23.75H749.25C750.875 21.125 751.938 19.75 752.438 19.625C754.062 20.25 756.062 21.6875 758.438 23.9375C758.938 24.9375 758.75 25.4375 757.875 25.4375C756.75 25.3125 753.438 25.25 747.938 25.25H744.375V42.5H747.75C749.25 40.25 750.312 39.0625 750.938 38.9375C752.688 39.5625 754.625 40.8125 756.75 42.6875C757.375 43.4375 757.25 43.9375 756.375 44.1875C755.875 44.1875 754.688 44.125 752.812 44C749.812 44 747.688 44 746.438 44H731.438C730.188 44 729.125 44.125 728.25 44.375C727.75 44.375 727.438 44.3125 727.312 44.1875C726.938 43.5625 726.562 43.125 726.188 42.875C726.062 42.625 726 42.4375 726 42.3125C726.125 42.1875 726.312 42.1875 726.562 42.3125C727.312 42.4375 729.25 42.5 732.375 42.5ZM727.875 23.75H736.875V11.1875C735.625 11.1875 733.875 11.25 731.625 11.375C729.75 11.5 728.375 11.5 727.5 11.375H727.312C726.562 12.75 725.812 14.0625 725.062 15.3125C725.188 15.3125 725.375 15.375 725.625 15.5C725.875 15.625 726.125 15.625 726.375 15.5C727.375 16 727.438 16.6875 726.562 17.5625C725.938 17.6875 725.688 18.1875 725.812 19.0625V23.75C726.562 23.75 727.25 23.75 727.875 23.75ZM781.688 7.25H796.875C798.75 4.25 800.125 2.6875 801 2.5625C803.25 3.5625 805.312 5.0625 807.188 7.0625C807.688 8.1875 807.438 8.75 806.438 8.75C805.688 8.875 804.75 8.8125 803.625 8.5625C803.625 9.0625 803.5 9.375 803.25 9.5C802.625 9.875 802.375 10.4375 802.5 11.1875V23.75C802.5 28.125 802.625 33.75 802.875 40.625C803 43.375 802.312 45.125 800.812 45.875C799.062 46.5 797.188 47.0625 795.188 47.5625C793.688 47.8125 792.938 47.3125 792.938 46.0625C792.562 43.8125 791.062 42.4375 788.438 41.9375C787.188 41.8125 786.688 41.5 786.938 41C786.812 40.75 787.438 40.6875 788.812 40.8125C788.938 40.8125 789.25 40.875 789.75 41C791.125 41 792.125 40.9375 792.75 40.8125C794.625 40.9375 795.5 39.75 795.375 37.25V8.5625H780.75C779.875 8.6875 778.938 8.8125 777.938 8.9375C777.562 9.1875 777.25 9.125 777 8.75C776.75 8.625 776.562 8.3125 776.438 7.8125C775.438 9.8125 774.438 11.625 773.438 13.25H773.625C774.75 13.875 774.875 14.5625 774 15.3125C773.375 15.4375 773.125 15.9375 773.25 16.8125V28.25C773.25 31.25 773.375 36.125 773.625 42.875C773.875 44.625 773.25 45.75 771.75 46.25C770.625 46.625 769.438 46.9375 768.188 47.1875C766.062 47.8125 765.25 46.6875 765.75 43.8125C765.875 41.9375 766 39.6875 766.125 37.0625C766.125 34.3125 766.188 31.5 766.312 28.625V22.8125C765.438 23.6875 764.125 24.9375 762.375 26.5625C761.875 27.0625 761.5 27.375 761.25 27.5C760.75 27.75 760.438 27.8125 760.312 27.6875C760.188 27.4375 760.25 27 760.5 26.375C764.625 18.625 767.438 10.375 768.938 1.625C768.812 0.875 769.312 0.5 770.438 0.5C772.312 1 775.125 1.8125 778.875 2.9375C779.75 3.8125 779.688 4.5625 778.688 5.1875C777.812 5.5625 777.312 5.9375 777.188 6.3125C776.938 6.5625 776.875 6.75 777 6.875C778.625 7.125 780.188 7.25 781.688 7.25ZM777 28.0625V20C776.875 17.5 776.75 15.5625 776.625 14.1875C776.25 12.9375 776.75 12.4375 778.125 12.6875C780.375 13.5625 782.125 14.25 783.375 14.75C783.75 15.125 783.938 15.3125 783.938 15.3125H785.438C785.562 15.1875 785.688 15 785.812 14.75C786.812 13.125 787.562 12.3125 788.062 12.3125C789.562 12.6875 791.375 13.8125 793.5 15.6875C794.125 16.4375 794.125 17.0625 793.5 17.5625C792.875 17.9375 792.625 18.5625 792.75 19.4375C792.75 22.9375 792.75 26.5 792.75 30.125C792.875 31.5 792.5 32.375 791.625 32.75C791 33.125 789.875 33.4375 788.25 33.6875C787 34.0625 786.438 33.3125 786.562 31.4375V29.75H783.188V31.625C783.188 33.125 782.875 33.875 782.25 33.875C780.625 34.5 779.375 34.8125 778.5 34.8125C777.125 34.9375 776.562 34.125 776.812 32.375C776.938 31.125 777 29.6875 777 28.0625ZM786.562 16.4375H783.75C783.75 16.4375 783.688 16.5 783.562 16.625C783.312 16.875 783.188 17.375 783.188 18.125V28.625H786.562V16.4375ZM840.375 41.9375C840.375 41.6875 840.312 41.4375 840.188 41.1875C840.188 41.0625 840.188 41 840.188 41C831.188 42.75 824.375 44.5 819.75 46.25C818.125 47.25 817.188 47.1875 816.938 46.0625C815.938 44.1875 815.125 42 814.5 39.5C814.25 38.625 814.625 38.0625 815.625 37.8125C817.75 37.5625 819.312 36.8125 820.312 35.5625C822.312 31.9375 824.125 26.125 825.75 18.125C826 17 826.688 16.625 827.812 17C830.312 17.625 833.062 18.5 836.062 19.625C836.688 20 837 20.375 837 20.75C837 21.25 836.688 21.625 836.062 21.875C835.312 22.25 834.5 23 833.625 24.125C829.75 30.5 826.375 35.3125 823.5 38.5625C826.5 38.6875 831.75 38.5625 839.25 38.1875C838.5 36.3125 837 33.9375 834.75 31.0625C834.625 30.8125 834.5 30.5625 834.375 30.3125C834 29.9375 833.875 29.625 834 29.375C834.125 29.125 834.5 29.0625 835.125 29.1875C841.75 31.4375 846.188 34.625 848.438 38.75C849.812 42.375 849 45 846 46.625C843.125 47.5 841.25 45.9375 840.375 41.9375ZM854.438 20.5625C855.312 20.9375 855.75 21.3125 855.75 21.6875C855.75 22.1875 855.312 22.5625 854.438 22.8125C852.562 23.8125 850.688 25.625 848.812 28.25C847.938 29.125 847.125 29.25 846.375 28.625C839.625 23.5 835.688 14.8125 834.562 2.5625C834.438 1.9375 834.5 1.5625 834.75 1.4375C834.875 1.3125 835.375 1.3125 836.25 1.4375C837.875 1.9375 838.938 2.3125 839.438 2.5625C839.938 2.9375 840.062 3.3125 839.812 3.6875C839.438 4.0625 839.125 4.375 838.875 4.625C838.375 5 838.25 5.4375 838.5 5.9375C841.25 12.9375 846.562 17.8125 854.438 20.5625ZM822 2.375C824 2.75 826.688 3.5625 830.062 4.8125C830.688 5.1875 831 5.625 831 6.125C831 6.625 830.75 7 830.25 7.25C829.5 7.625 828.875 8.1875 828.375 8.9375C822.5 19.3125 816.312 26.625 809.812 30.875C809.062 31.375 808.625 31.5 808.5 31.25C808.25 31 808.375 30.5625 808.875 29.9375C813.875 23.5625 817.75 14.6875 820.5 3.3125C820.625 2.5625 821.125 2.25 822 2.375ZM892.688 30.125H864.375C863 30.125 860.938 30.3125 858.188 30.6875C858.062 30.6875 858 30.6875 858 30.6875C857.625 30.8125 857.312 30.6875 857.062 30.3125C856.938 30.3125 856.812 30.1875 856.688 29.9375C856.438 29.5625 856.25 29.1875 856.125 28.8125C856 28.4375 856.125 28.25 856.5 28.25C857.125 28.5 858.312 28.6875 860.062 28.8125C861.938 28.8125 863.812 28.8125 865.688 28.8125H869.062V15.6875H865.312C864.062 15.6875 862.125 15.875 859.5 16.25C859.25 16.25 859.125 16.25 859.125 16.25C858.75 16.375 858.438 16.25 858.188 15.875C857.812 15.625 857.5 15.125 857.25 14.375C857.125 14.25 857.062 14.125 857.062 14C857.062 13.875 857.25 13.8125 857.625 13.8125C858.75 14.1875 861.812 14.3125 866.812 14.1875H869.062V9.5C868.938 6.25 868.812 3.8125 868.688 2.1875C868.438 1.4375 868.438 1 868.688 0.875C868.812 0.75 869.375 0.6875 870.375 0.6875C873.25 1.0625 875.5 1.5625 877.125 2.1875C878 2.6875 878.062 3.3125 877.312 4.0625C876.812 4.4375 876.562 5.0625 876.562 5.9375V14.1875H882.75V9.3125C882.625 5.9375 882.5 3.4375 882.375 1.8125C882.125 1.1875 882.062 0.8125 882.188 0.6875C882.438 0.4375 883 0.3125 883.875 0.3125C886.625 0.5625 888.875 1 890.625 1.625C891.5 2.125 891.562 2.6875 890.812 3.3125C890.438 3.6875 890.25 4.375 890.25 5.375V14.1875H892.312C894.188 11.1875 895.438 9.6875 896.062 9.6875C897.688 10.4375 899.562 11.9375 901.688 14.1875C902.062 14.8125 902.188 15.25 902.062 15.5C901.938 15.75 901.625 15.875 901.125 15.875C898.5 15.75 895.125 15.6875 891 15.6875H890.25V28.8125H893.812C895.938 25.8125 897.25 24.25 897.75 24.125C899 24.625 900.875 26.1875 903.375 28.8125C903.75 29.3125 903.875 29.75 903.75 30.125C903.625 30.375 903.312 30.4375 902.812 30.3125C900.312 30.1875 896.938 30.125 892.688 30.125ZM872.625 31.25C875.125 32.5 877.312 33.8125 879.188 35.1875C879.688 35.6875 879.875 36.25 879.75 36.875C879.625 37.25 879.25 37.4375 878.625 37.4375C878.5 37.5625 878.375 37.625 878.25 37.625C877 38 876.125 38.375 875.625 38.75C869.125 42.875 863.062 45.8125 857.438 47.5625C856.688 47.6875 856.25 47.625 856.125 47.375C856 47.125 856.25 46.8125 856.875 46.4375C862 42.8125 866.625 37.875 870.75 31.625C871.125 31 871.75 30.875 872.625 31.25ZM891.375 44C889.875 40.375 887.062 37.0625 882.938 34.0625C882.188 33.5625 881.875 33.1875 882 32.9375C882.125 32.6875 882.688 32.5625 883.688 32.5625C891.312 33.8125 896.375 36.0625 898.875 39.3125C900.875 42.3125 900.5 44.875 897.75 47C894.875 48.125 892.75 47.125 891.375 44ZM876.562 15.6875V28.8125H882.75V15.6875H876.562ZM923.812 11.9375V9.875C923.812 8.25 923.75 7.0625 923.625 6.3125C923.625 5.5625 923.625 4.75 923.625 3.875C923.375 2.625 923.875 2.125 925.125 2.375C927 2.875 929 3.5 931.125 4.25C931.125 4.5 931.188 4.5625 931.312 4.4375H938.062C939.062 2.8125 939.875 1.9375 940.5 1.8125C943.5 2.8125 945.75 4.1875 947.25 5.9375C947.25 6.5625 946.938 7 946.312 7.25C945.688 7.625 945.438 8.125 945.562 8.75C945.438 11.5 945.5 13.9375 945.75 16.0625C945.75 17.3125 945.562 18 945.188 18.125C945.188 18.125 945.25 18.0625 945.375 17.9375C945.5 17.9375 945.688 17.875 945.938 17.75C947.688 18.5 949.5 19.9375 951.375 22.0625C951.625 22.9375 951.438 23.4375 950.812 23.5625C949.938 23.5625 948.25 23.5625 945.75 23.5625C943 23.5625 941.125 23.5 940.125 23.375H933C933.125 24.25 932.875 24.6875 932.25 24.6875C931.625 24.9375 931.188 25.375 930.938 26C930.688 26.375 930.438 26.6875 930.188 26.9375H942.75C942.875 26.6875 942.938 26.625 942.938 26.75C943.938 25.25 944.625 24.5 945 24.5C947.5 25.625 949.625 26.875 951.375 28.25C951.625 29.125 951.438 29.6875 950.812 29.9375C950.062 30.3125 949.688 30.875 949.688 31.625C949.438 33.75 949 36.6875 948.375 40.4375C947.625 43.8125 946.25 45.75 944.25 46.25C943.625 46.625 942.312 47.0625 940.312 47.5625C938.688 47.6875 937.938 47.4375 938.062 46.8125C937.688 44.3125 936.375 42.75 934.125 42.125C933.75 42.125 933.5 41.9375 933.375 41.5625C930.375 43.5625 926.688 45 922.312 45.875C921.562 45.875 921.125 45.75 921 45.5C920.875 45.25 921.125 45 921.75 44.75C929.375 41.75 934.375 36.3125 936.75 28.4375H936C932.75 34.6875 927.438 38.9375 920.062 41.1875C919.312 41.4375 918.875 41.4375 918.75 41.1875C918.625 41.0625 918.875 40.8125 919.5 40.4375C924.75 37.3125 928.188 33.3125 929.812 28.4375H929.25C926.875 31.9375 923.188 34.75 918.188 36.875C917.688 37 917.375 37 917.25 36.875C917.125 36.75 917.188 36.5 917.438 36.125C921.938 32.25 924.438 28 924.938 23.375H924C922.5 23.5 921.375 23.625 920.625 23.75C920.125 23.875 919.812 23.8125 919.688 23.5625C919.438 23.4375 919.25 23.25 919.125 23C918.875 22.75 918.688 22.5 918.562 22.25C918.438 22.125 918.375 22 918.375 21.875C918.5 21.75 918.688 21.6875 918.938 21.6875C921.188 21.9375 923.25 22.0625 925.125 22.0625H942.375C943 20.9375 943.875 19.75 945 18.5C944.75 18.75 944.5 18.875 944.25 18.875C943 19.375 941.75 19.625 940.5 19.625C939 20 938.375 19.375 938.625 17.75V17.1875H930.562C930.562 18.9375 930 19.875 928.875 20C928 20.375 926.812 20.5625 925.312 20.5625C923.812 20.9375 923.25 20.1875 923.625 18.3125V18.125H917.25V29.375C918.75 29 920.125 28.625 921.375 28.25C922.125 28.125 922.562 28.1875 922.688 28.4375C922.812 28.6875 922.625 29.0625 922.125 29.5625C918.75 32.4375 915.062 35.125 911.062 37.625C910.188 38.125 909.5 38.75 909 39.5C908.25 40.375 907.562 40.25 906.938 39.125C905.688 36.875 904.875 34.9375 904.5 33.3125C904.25 32.8125 904.188 32.5 904.312 32.375C904.438 32.125 904.875 32 905.625 32C906.125 31.875 906.938 31.75 908.062 31.625C908.812 31.5 909.562 31.3125 910.312 31.0625V18.125H908.812C907.438 18.125 906.5 18.1875 906 18.3125C905.625 18.5625 905.312 18.5 905.062 18.125C904.938 18 904.812 17.8125 904.688 17.5625C904.438 17.3125 904.312 17.0625 904.312 16.8125C904.188 16.4375 904.312 16.25 904.688 16.25C906.312 16.5 907.938 16.625 909.562 16.625H910.312V10.8125C910.188 9.6875 910.062 8.3125 909.938 6.6875C909.812 5.1875 909.688 4 909.562 3.125C909.188 2 909.688 1.4375 911.062 1.4375C913.062 1.6875 915.312 2 917.812 2.375C918.938 2.875 919.062 3.625 918.188 4.625C917.438 5.125 917.125 5.625 917.25 6.125V16.625C918 14.75 918.75 13.625 919.5 13.25C920.75 13.625 922.188 14.5 923.812 15.875C923.812 14.625 923.812 13.3125 923.812 11.9375ZM943.125 28.4375H942.562C940.562 34.4375 937.938 38.625 934.688 41C936.688 41 938.188 41 939.188 41C940.438 41 941.25 40.3125 941.625 38.9375C942.5 35.5625 943 32.0625 943.125 28.4375ZM930.562 11.5625V15.6875H938.625V11.5625H930.562ZM938.625 5.9375H931.312C931.312 6.0625 931.25 6.125 931.125 6.125C930.75 6.375 930.562 6.875 930.562 7.625V10.0625H938.625V5.9375ZM975.938 22.0625H968.625C967.75 22.1875 966.812 22.3125 965.812 22.4375C965.438 22.5625 965.125 22.4375 964.875 22.0625C964.5 21.8125 964.125 21.375 963.75 20.75C961.125 22.5 957.938 24 954.188 25.25C953.312 25.625 952.812 25.625 952.688 25.25C952.562 25 952.875 24.5625 953.625 23.9375C961.625 17.9375 967.125 10.5625 970.125 1.8125C970.25 0.9375 970.875 0.625 972 0.875C975.875 1.875 978.375 2.625 979.5 3.125C980 3.5 980.25 3.875 980.25 4.25C980.25 4.75 979.938 5.0625 979.312 5.1875C978.812 5.1875 978.438 5.375 978.188 5.75C983.938 12.25 990.625 16.25 998.25 17.75C998.875 18 999.25 18.25 999.375 18.5C999.375 19 999.062 19.375 998.438 19.625C996.688 20.625 995.438 22.1875 994.688 24.3125C994.312 25.5625 993.5 25.6875 992.25 24.6875C990 23.8125 988 22.5625 986.25 20.9375C986.625 21.6875 986.438 22.125 985.688 22.25C984.688 22.25 983.375 22.25 981.75 22.25C980.5 22.125 978.562 22.0625 975.938 22.0625ZM961.875 40.625V33.875C961.75 32.125 961.625 30.3125 961.5 28.4375C961.375 27.8125 961.375 27.375 961.5 27.125C961.75 27 962.25 27 963 27.125C965.125 27.75 967.25 28.375 969.375 29H981.375C982.375 27.375 983.25 26.4375 984 26.1875C986.25 26.8125 988.562 28.1875 990.938 30.3125C991.062 30.8125 990.75 31.25 990 31.625C989.625 31.875 989.438 32.3125 989.438 32.9375V38.5625C989.312 40.9375 989.375 42.625 989.625 43.625C989.875 45.125 989.375 46 988.125 46.25C987.25 46.375 986.438 46.5 985.688 46.625C984.938 46.75 984.375 46.875 984 47C982.625 47.125 982.062 46.625 982.312 45.5V42.5H969V45.3125C969 46.1875 968.688 46.6875 968.062 46.8125C967.438 46.9375 966.312 47.125 964.688 47.375C963.938 47.375 963.5 47.4375 963.375 47.5625C961.75 47.6875 961.125 46.9375 961.5 45.3125C961.625 43.8125 961.75 42.25 961.875 40.625ZM982.312 30.5H969.75C969.125 30.75 968.875 31.1875 969 31.8125V41.1875H982.312V30.5ZM969.562 20.5625H977.625C979 18.3125 980.062 17.125 980.812 17C981.312 17.125 982.438 17.75 984.188 18.875C981.188 16 978.75 12.125 976.875 7.25C973.5 13 969.438 17.375 964.688 20.375C965.688 20.625 967.312 20.6875 969.562 20.5625ZM1007.44 22.4375V14.1875H1005.19C1004.19 14.3125 1003.25 14.4375 1002.38 14.5625C1001.88 14.8125 1001.56 14.6875 1001.44 14.1875C1001.06 13.9375 1000.81 13.5 1000.69 12.875C1000.44 12.5 1000.5 12.375 1000.88 12.5C1001.25 12.5 1002 12.5625 1003.12 12.6875C1004.5 12.6875 1005.5 12.6875 1006.12 12.6875H1007.44V10.8125C1007.31 9.1875 1007.25 7.5625 1007.25 5.9375C1007.12 4.4375 1007 3.375 1006.88 2.75C1006.62 2.125 1006.62 1.6875 1006.88 1.4375C1007 1.1875 1007.5 1.0625 1008.38 1.0625C1010 1.3125 1012.31 1.6875 1015.31 2.1875C1015.94 2.4375 1016.31 2.8125 1016.44 3.3125C1016.44 3.9375 1016.19 4.3125 1015.69 4.4375C1014.94 4.8125 1014.62 5.375 1014.75 6.125V11.1875C1015.38 10.1875 1015.94 9.625 1016.44 9.5C1016.81 9.5 1017.44 9.875 1018.31 10.625C1018.56 10.625 1018.94 10.6875 1019.44 10.8125C1019.81 10.9375 1020.19 10.9375 1020.56 10.8125C1020.44 8.9375 1020.31 7.375 1020.19 6.125C1020.06 5.375 1020.12 4.9375 1020.38 4.8125C1020.5 4.5625 1020.94 4.5 1021.69 4.625C1022.19 4.875 1022.38 4.9375 1022.25 4.8125C1024.25 5.3125 1025.69 5.6875 1026.56 5.9375C1026.81 6.0625 1027.06 6.1875 1027.31 6.3125H1028.25C1028.25 5.8125 1028.19 5 1028.06 3.875C1028.06 3.125 1028.06 2.625 1028.06 2.375C1027.56 1.125 1028 0.5625 1029.38 0.6875C1030.38 0.6875 1032.25 0.9375 1035 1.4375C1035.12 1.4375 1035.25 1.4375 1035.38 1.4375C1035.75 1.5625 1036 1.8125 1036.12 2.1875C1036.12 2.5625 1036 2.8125 1035.75 2.9375C1035.25 3.3125 1035 3.875 1035 4.625V6.3125H1036.12C1036.25 6.0625 1036.31 6 1036.31 6.125C1037.31 4.5 1038 3.6875 1038.38 3.6875C1041 4.5625 1043.12 5.9375 1044.75 7.8125C1044.88 8.3125 1044.62 8.625 1044 8.75C1045.38 9.5 1046.5 10.25 1047.38 11C1047.62 11.75 1047.5 12.25 1047 12.5C1046.5 12.5 1045.94 12.5 1045.31 12.5C1044.81 12.375 1044.12 12.3125 1043.25 12.3125C1043.12 13.3125 1043.19 14.3125 1043.44 15.3125C1043.44 17.1875 1042.88 18.125 1041.75 18.125C1043.75 19.125 1045.19 20.125 1046.06 21.125C1046.06 21.75 1045.75 22.1875 1045.12 22.4375C1045 22.5625 1044.94 22.625 1044.94 22.625C1044.44 22.625 1044.25 22.875 1044.38 23.375V24.6875C1044.38 24.8125 1044.38 25 1044.38 25.25C1044.5 25.875 1044.56 26.25 1044.56 26.375C1044.81 27.5 1044.31 28.1875 1043.06 28.4375C1042.94 28.4375 1042.81 28.4375 1042.69 28.4375C1044.31 29.5625 1045.81 30.6875 1047.19 31.8125C1047.44 32.1875 1047.5 32.5 1047.38 32.75C1047.38 33 1047.19 33.125 1046.81 33.125H1042.12C1042.12 33.625 1041.88 33.875 1041.38 33.875C1040.75 34.25 1040.31 34.75 1040.06 35.375C1039.44 36.5 1038.69 37.625 1037.81 38.75C1039.94 39.375 1041.56 40 1042.69 40.625C1044.94 42.25 1045.31 44.125 1043.81 46.25C1042.19 47.875 1040 47.3125 1037.25 44.5625C1036.38 43.5625 1035.19 42.6875 1033.69 41.9375C1028.81 44.8125 1022.62 46.5 1015.12 47C1014.12 47 1013.62 46.875 1013.62 46.625C1013.62 46.25 1014.06 46 1014.94 45.875C1020.69 44.125 1025.25 42.0625 1028.62 39.6875C1028.38 39.6875 1028.12 39.625 1027.88 39.5C1027.5 39.25 1026.88 39 1026 38.75C1025.75 39 1025.62 39.25 1025.62 39.5C1025.12 40.25 1024.62 40.5 1024.12 40.25C1023.5 40.25 1022.56 40.0625 1021.31 39.6875C1020.44 39.3125 1019.81 39.0625 1019.44 38.9375C1018.81 38.8125 1018.75 38.3125 1019.25 37.4375C1019.5 37.0625 1019.88 36.4375 1020.38 35.5625C1020.75 34.6875 1021.19 33.875 1021.69 33.125H1021.31C1019.19 33.25 1017.62 33.375 1016.62 33.5C1016.25 33.625 1015.94 33.5 1015.69 33.125C1015.44 32.875 1015.19 32.5 1014.94 32C1014.94 35.125 1014.94 38.0625 1014.94 40.8125C1015.19 43.4375 1014.5 45.0625 1012.88 45.6875C1011.38 46.4375 1009.94 46.9375 1008.56 47.1875C1006.81 47.3125 1005.81 46.875 1005.56 45.875C1005.06 43.625 1004 42.25 1002.38 41.75C1001.38 41.25 1000.94 40.9375 1001.06 40.8125C1001.06 40.3125 1001.62 40.1875 1002.75 40.4375C1006.25 41.1875 1007.81 40 1007.44 36.875V28.8125C1006.81 29.1875 1006.25 29.5625 1005.75 29.9375C1005.12 30.3125 1004.75 30.625 1004.62 30.875C1004.25 31.625 1003.88 32 1003.5 32C1003.12 32 1002.81 31.625 1002.56 30.875C1001.81 29.375 1001.19 27.625 1000.69 25.625C1000.19 24.625 1000.5 24.0625 1001.62 23.9375C1003 23.6875 1004.94 23.1875 1007.44 22.4375ZM1019.44 24.125V22.8125C1019.31 22.4375 1019.25 21.9375 1019.25 21.3125C1019.25 20.8125 1019.25 20.4375 1019.25 20.1875C1019.12 20.3125 1019 20.4375 1018.88 20.5625C1018.75 20.8125 1018.69 20.9375 1018.69 20.9375C1017.56 21.9375 1016.62 22.6875 1015.88 23.1875C1015.38 23.5625 1015 23.8125 1014.75 23.9375C1014.75 26.0625 1014.75 28.5 1014.75 31.25H1015.12C1016.62 31.5 1019 31.625 1022.25 31.625H1022.44C1022.81 30.625 1023.19 29.625 1023.56 28.625C1022.69 28.875 1021.81 29.0625 1020.94 29.1875C1019.44 29.5625 1018.81 28.8125 1019.06 26.9375C1019.06 26.9375 1019.06 26.875 1019.06 26.75C1019.31 26.125 1019.44 25.25 1019.44 24.125ZM1029.94 31.625H1039.12C1040 30.125 1040.69 29.1875 1041.19 28.8125C1040.94 28.8125 1040.69 28.875 1040.44 29C1040.19 29.125 1040 29.125 1039.88 29C1038.38 29.25 1037.75 28.875 1038 27.875V27.6875H1027.88C1029.5 28.1875 1030.56 28.4375 1031.06 28.4375C1031.56 28.6875 1031.88 29 1032 29.375C1032 29.875 1031.81 30.1875 1031.44 30.3125C1030.81 30.5625 1030.38 30.9375 1030.12 31.4375C1030 31.5625 1029.94 31.625 1029.94 31.625ZM1019.44 14.1875H1014.75V20.375C1015.88 20 1016.88 19.625 1017.75 19.25C1018.25 19.125 1018.69 19.1875 1019.06 19.4375C1018.81 18.4375 1019.19 18 1020.19 18.125C1020.19 17.875 1020.19 17.4375 1020.19 16.8125C1020.19 16.6875 1020.19 16.5 1020.19 16.25C1020.44 15.75 1020.56 14.9375 1020.56 13.8125V12.3125C1020.31 12.3125 1020.12 12.375 1020 12.5C1019.88 12.5 1019.81 12.5 1019.81 12.5C1019.69 12.625 1019.75 12.75 1020 12.875C1020.25 13.75 1020.06 14.1875 1019.44 14.1875ZM1033.69 33.125H1029.19C1028.94 33.5 1028.69 33.875 1028.44 34.25C1028.19 34.875 1027.62 35.875 1026.75 37.25C1027.12 37.25 1027.81 37.3125 1028.81 37.4375C1029.69 37.5625 1030.38 37.5625 1030.88 37.4375C1032 36.1875 1032.94 34.75 1033.69 33.125ZM1038 21.5H1035V26.1875H1038V21.5ZM1025.62 22.625V26.1875H1028.25V21.5H1025.62C1025.62 21.75 1025.62 22.125 1025.62 22.625ZM1026.38 20H1028.25V16.8125H1026.56C1026.56 17.5625 1026.25 18 1025.62 18.125C1025.38 18.25 1024.44 18.4375 1022.81 18.6875C1023.06 18.8125 1023.38 18.9375 1023.75 19.0625C1024.25 19.1875 1024.81 19.375 1025.44 19.625C1025.81 19.75 1026.12 19.875 1026.38 20ZM1036.69 17.5625V16.8125H1035V20H1037.44C1037.56 19.875 1037.75 19.625 1038 19.25C1037.88 19.5 1038 19.3125 1038.38 18.6875C1037 18.9375 1036.44 18.5625 1036.69 17.5625ZM1036.69 7.8125H1035V10.8125H1036.69V7.8125ZM1026.56 9.125V10.8125H1028.25V7.8125H1026.75C1026.75 7.9375 1026.69 8.0625 1026.56 8.1875C1026.56 8.5625 1026.56 8.875 1026.56 9.125ZM1026.56 12.3125V15.3125H1028.25V12.3125H1026.56ZM1035 12.3125V15.3125H1036.69V12.3125H1035ZM1055.44 22.4375V14.1875H1053.19C1052.19 14.3125 1051.25 14.4375 1050.38 14.5625C1049.88 14.8125 1049.56 14.6875 1049.44 14.1875C1049.06 13.9375 1048.81 13.5 1048.69 12.875C1048.44 12.5 1048.5 12.375 1048.88 12.5C1049.25 12.5 1050 12.5625 1051.12 12.6875C1052.5 12.6875 1053.5 12.6875 1054.12 12.6875H1055.44V10.8125C1055.31 9.1875 1055.25 7.5625 1055.25 5.9375C1055.12 4.4375 1055 3.375 1054.88 2.75C1054.62 2.125 1054.62 1.6875 1054.88 1.4375C1055 1.1875 1055.5 1.0625 1056.38 1.0625C1058 1.3125 1060.31 1.6875 1063.31 2.1875C1063.94 2.4375 1064.31 2.8125 1064.44 3.3125C1064.44 3.9375 1064.19 4.3125 1063.69 4.4375C1062.94 4.8125 1062.62 5.375 1062.75 6.125V11.1875C1063.38 10.1875 1063.94 9.625 1064.44 9.5C1064.81 9.5 1065.44 9.875 1066.31 10.625C1066.56 10.625 1066.94 10.6875 1067.44 10.8125C1067.81 10.9375 1068.19 10.9375 1068.56 10.8125C1068.44 8.9375 1068.31 7.375 1068.19 6.125C1068.06 5.375 1068.12 4.9375 1068.38 4.8125C1068.5 4.5625 1068.94 4.5 1069.69 4.625C1070.19 4.875 1070.38 4.9375 1070.25 4.8125C1072.25 5.3125 1073.69 5.6875 1074.56 5.9375C1074.81 6.0625 1075.06 6.1875 1075.31 6.3125H1076.25C1076.25 5.8125 1076.19 5 1076.06 3.875C1076.06 3.125 1076.06 2.625 1076.06 2.375C1075.56 1.125 1076 0.5625 1077.38 0.6875C1078.38 0.6875 1080.25 0.9375 1083 1.4375C1083.12 1.4375 1083.25 1.4375 1083.38 1.4375C1083.75 1.5625 1084 1.8125 1084.12 2.1875C1084.12 2.5625 1084 2.8125 1083.75 2.9375C1083.25 3.3125 1083 3.875 1083 4.625V6.3125H1084.12C1084.25 6.0625 1084.31 6 1084.31 6.125C1085.31 4.5 1086 3.6875 1086.38 3.6875C1089 4.5625 1091.12 5.9375 1092.75 7.8125C1092.88 8.3125 1092.62 8.625 1092 8.75C1093.38 9.5 1094.5 10.25 1095.38 11C1095.62 11.75 1095.5 12.25 1095 12.5C1094.5 12.5 1093.94 12.5 1093.31 12.5C1092.81 12.375 1092.12 12.3125 1091.25 12.3125C1091.12 13.3125 1091.19 14.3125 1091.44 15.3125C1091.44 17.1875 1090.88 18.125 1089.75 18.125C1091.75 19.125 1093.19 20.125 1094.06 21.125C1094.06 21.75 1093.75 22.1875 1093.12 22.4375C1093 22.5625 1092.94 22.625 1092.94 22.625C1092.44 22.625 1092.25 22.875 1092.38 23.375V24.6875C1092.38 24.8125 1092.38 25 1092.38 25.25C1092.5 25.875 1092.56 26.25 1092.56 26.375C1092.81 27.5 1092.31 28.1875 1091.06 28.4375C1090.94 28.4375 1090.81 28.4375 1090.69 28.4375C1092.31 29.5625 1093.81 30.6875 1095.19 31.8125C1095.44 32.1875 1095.5 32.5 1095.38 32.75C1095.38 33 1095.19 33.125 1094.81 33.125H1090.12C1090.12 33.625 1089.88 33.875 1089.38 33.875C1088.75 34.25 1088.31 34.75 1088.06 35.375C1087.44 36.5 1086.69 37.625 1085.81 38.75C1087.94 39.375 1089.56 40 1090.69 40.625C1092.94 42.25 1093.31 44.125 1091.81 46.25C1090.19 47.875 1088 47.3125 1085.25 44.5625C1084.38 43.5625 1083.19 42.6875 1081.69 41.9375C1076.81 44.8125 1070.62 46.5 1063.12 47C1062.12 47 1061.62 46.875 1061.62 46.625C1061.62 46.25 1062.06 46 1062.94 45.875C1068.69 44.125 1073.25 42.0625 1076.62 39.6875C1076.38 39.6875 1076.12 39.625 1075.88 39.5C1075.5 39.25 1074.88 39 1074 38.75C1073.75 39 1073.62 39.25 1073.62 39.5C1073.12 40.25 1072.62 40.5 1072.12 40.25C1071.5 40.25 1070.56 40.0625 1069.31 39.6875C1068.44 39.3125 1067.81 39.0625 1067.44 38.9375C1066.81 38.8125 1066.75 38.3125 1067.25 37.4375C1067.5 37.0625 1067.88 36.4375 1068.38 35.5625C1068.75 34.6875 1069.19 33.875 1069.69 33.125H1069.31C1067.19 33.25 1065.62 33.375 1064.62 33.5C1064.25 33.625 1063.94 33.5 1063.69 33.125C1063.44 32.875 1063.19 32.5 1062.94 32C1062.94 35.125 1062.94 38.0625 1062.94 40.8125C1063.19 43.4375 1062.5 45.0625 1060.88 45.6875C1059.38 46.4375 1057.94 46.9375 1056.56 47.1875C1054.81 47.3125 1053.81 46.875 1053.56 45.875C1053.06 43.625 1052 42.25 1050.38 41.75C1049.38 41.25 1048.94 40.9375 1049.06 40.8125C1049.06 40.3125 1049.62 40.1875 1050.75 40.4375C1054.25 41.1875 1055.81 40 1055.44 36.875V28.8125C1054.81 29.1875 1054.25 29.5625 1053.75 29.9375C1053.12 30.3125 1052.75 30.625 1052.62 30.875C1052.25 31.625 1051.88 32 1051.5 32C1051.12 32 1050.81 31.625 1050.56 30.875C1049.81 29.375 1049.19 27.625 1048.69 25.625C1048.19 24.625 1048.5 24.0625 1049.62 23.9375C1051 23.6875 1052.94 23.1875 1055.44 22.4375ZM1067.44 24.125V22.8125C1067.31 22.4375 1067.25 21.9375 1067.25 21.3125C1067.25 20.8125 1067.25 20.4375 1067.25 20.1875C1067.12 20.3125 1067 20.4375 1066.88 20.5625C1066.75 20.8125 1066.69 20.9375 1066.69 20.9375C1065.56 21.9375 1064.62 22.6875 1063.88 23.1875C1063.38 23.5625 1063 23.8125 1062.75 23.9375C1062.75 26.0625 1062.75 28.5 1062.75 31.25H1063.12C1064.62 31.5 1067 31.625 1070.25 31.625H1070.44C1070.81 30.625 1071.19 29.625 1071.56 28.625C1070.69 28.875 1069.81 29.0625 1068.94 29.1875C1067.44 29.5625 1066.81 28.8125 1067.06 26.9375C1067.06 26.9375 1067.06 26.875 1067.06 26.75C1067.31 26.125 1067.44 25.25 1067.44 24.125ZM1077.94 31.625H1087.12C1088 30.125 1088.69 29.1875 1089.19 28.8125C1088.94 28.8125 1088.69 28.875 1088.44 29C1088.19 29.125 1088 29.125 1087.88 29C1086.38 29.25 1085.75 28.875 1086 27.875V27.6875H1075.88C1077.5 28.1875 1078.56 28.4375 1079.06 28.4375C1079.56 28.6875 1079.88 29 1080 29.375C1080 29.875 1079.81 30.1875 1079.44 30.3125C1078.81 30.5625 1078.38 30.9375 1078.12 31.4375C1078 31.5625 1077.94 31.625 1077.94 31.625ZM1067.44 14.1875H1062.75V20.375C1063.88 20 1064.88 19.625 1065.75 19.25C1066.25 19.125 1066.69 19.1875 1067.06 19.4375C1066.81 18.4375 1067.19 18 1068.19 18.125C1068.19 17.875 1068.19 17.4375 1068.19 16.8125C1068.19 16.6875 1068.19 16.5 1068.19 16.25C1068.44 15.75 1068.56 14.9375 1068.56 13.8125V12.3125C1068.31 12.3125 1068.12 12.375 1068 12.5C1067.88 12.5 1067.81 12.5 1067.81 12.5C1067.69 12.625 1067.75 12.75 1068 12.875C1068.25 13.75 1068.06 14.1875 1067.44 14.1875ZM1081.69 33.125H1077.19C1076.94 33.5 1076.69 33.875 1076.44 34.25C1076.19 34.875 1075.62 35.875 1074.75 37.25C1075.12 37.25 1075.81 37.3125 1076.81 37.4375C1077.69 37.5625 1078.38 37.5625 1078.88 37.4375C1080 36.1875 1080.94 34.75 1081.69 33.125ZM1086 21.5H1083V26.1875H1086V21.5ZM1073.62 22.625V26.1875H1076.25V21.5H1073.62C1073.62 21.75 1073.62 22.125 1073.62 22.625ZM1074.38 20H1076.25V16.8125H1074.56C1074.56 17.5625 1074.25 18 1073.62 18.125C1073.38 18.25 1072.44 18.4375 1070.81 18.6875C1071.06 18.8125 1071.38 18.9375 1071.75 19.0625C1072.25 19.1875 1072.81 19.375 1073.44 19.625C1073.81 19.75 1074.12 19.875 1074.38 20ZM1084.69 17.5625V16.8125H1083V20H1085.44C1085.56 19.875 1085.75 19.625 1086 19.25C1085.88 19.5 1086 19.3125 1086.38 18.6875C1085 18.9375 1084.44 18.5625 1084.69 17.5625ZM1084.69 7.8125H1083V10.8125H1084.69V7.8125ZM1074.56 9.125V10.8125H1076.25V7.8125H1074.75C1074.75 7.9375 1074.69 8.0625 1074.56 8.1875C1074.56 8.5625 1074.56 8.875 1074.56 9.125ZM1074.56 12.3125V15.3125H1076.25V12.3125H1074.56ZM1083 12.3125V15.3125H1084.69V12.3125H1083ZM1134 11.1875H1121.25C1120.12 12.8125 1119.06 14.25 1118.06 15.5C1120.44 16.125 1121.88 16.5 1122.38 16.625C1122.88 16.875 1123.19 17.1875 1123.31 17.5625H1124.62C1125.38 16.0625 1126.06 15.25 1126.69 15.125C1128.94 15.75 1130.81 16.75 1132.31 18.125C1132.44 18.75 1132.31 19.125 1131.94 19.25C1131.69 19.375 1131.5 19.625 1131.38 20C1131.38 20.25 1131.38 20.375 1131.38 20.375C1131.38 21.5 1131.38 22.875 1131.38 24.5C1131.5 25.875 1131.62 26.75 1131.75 27.125C1131.75 28.375 1131.31 29.0625 1130.44 29.1875C1129.06 29.4375 1127.62 29.5625 1126.12 29.5625C1124.88 29.6875 1124.38 29.3125 1124.62 28.4375V28.0625H1122.19V38.375C1122.06 39.75 1122.75 40.375 1124.25 40.25H1133.44C1135.69 40.75 1137.75 38.6875 1139.62 34.0625C1140 32.9375 1140.44 32.4375 1140.94 32.5625C1141.19 32.5625 1141.31 33.0625 1141.31 34.0625C1140.81 36.8125 1141.25 38.75 1142.62 39.875C1143.38 40.625 1143.69 41.5625 1143.56 42.6875C1143.31 43.8125 1142.62 44.6875 1141.5 45.3125C1139.38 46.0625 1137.25 46.4375 1135.12 46.4375H1120.69C1116.44 46.6875 1114.5 44.875 1114.88 41V21.125C1114.88 20.5 1114.88 19.6875 1114.88 18.6875C1114.5 19.1875 1113.75 19.8125 1112.62 20.5625C1112.38 20.8125 1112.12 21.0625 1111.88 21.3125C1111.5 21.6875 1111.19 21.8125 1110.94 21.6875C1110.69 21.4375 1110.75 21.125 1111.12 20.75C1111.75 19.625 1112.62 17.875 1113.75 15.5C1114 15 1114.19 14.5625 1114.31 14.1875H1109.81V22.4375C1110.69 22.0625 1111.69 21.75 1112.81 21.5C1113.44 21.25 1113.88 21.375 1114.12 21.875C1114.38 22.25 1114.25 22.6875 1113.75 23.1875C1112.25 24.1875 1110.94 25.125 1109.81 26C1109.81 30.75 1109.88 35.375 1110 39.875C1110 40.375 1110.06 40.6875 1110.19 40.8125C1110.31 43.3125 1109.69 44.9375 1108.31 45.6875C1107.06 46.3125 1105.69 46.75 1104.19 47C1102.31 47.25 1101.31 46.8125 1101.19 45.6875C1100.81 43.6875 1099.75 42.375 1098 41.75C1096.75 41.375 1096.31 41 1096.69 40.625C1096.69 40.25 1097.25 40.125 1098.38 40.25C1101.25 40.75 1102.56 39.6875 1102.31 37.0625V30.875C1102.06 31.125 1101.75 31.3125 1101.38 31.4375C1100.5 31.9375 1100.12 32.3125 1100.25 32.5625C1100 33.1875 1099.62 33.5 1099.12 33.5C1098.75 33.5 1098.44 33.1875 1098.19 32.5625C1098.06 32.4375 1097.94 32.25 1097.81 32C1096.94 30.25 1096.44 28.75 1096.31 27.5C1096.06 26.625 1096.31 26.125 1097.06 26C1097.56 25.875 1098.44 25.6875 1099.69 25.4375C1100.81 25.1875 1101.69 24.9375 1102.31 24.6875V14.1875H1101C1099.62 14.1875 1098.69 14.25 1098.19 14.375C1097.69 14.5 1097.38 14.375 1097.25 14C1096.88 13.625 1096.62 13.25 1096.5 12.875C1096.38 12.75 1096.31 12.625 1096.31 12.5C1096.31 12.375 1096.44 12.3125 1096.69 12.3125C1098.56 12.5625 1100.31 12.6875 1101.94 12.6875H1102.31V10.625C1102.19 9 1102.12 7.375 1102.12 5.75C1102 4.25 1101.88 3.1875 1101.75 2.5625C1101.38 1.3125 1101.94 0.6875 1103.44 0.6875C1105.31 0.9375 1107.62 1.4375 1110.38 2.1875C1111 2.4375 1111.31 2.8125 1111.31 3.3125C1111.44 3.8125 1111.25 4.1875 1110.75 4.4375C1110 5.0625 1109.69 5.625 1109.81 6.125V11.75C1110.81 10 1111.62 9.0625 1112.25 8.9375C1112.88 9.0625 1113.94 9.6875 1115.44 10.8125C1116.31 7.8125 1116.88 4.8125 1117.12 1.8125C1117.12 1.0625 1117.5 0.75 1118.25 0.875C1120.75 1.25 1123.25 1.875 1125.75 2.75C1126.88 3.5 1126.94 4.25 1125.94 5C1125.06 5.25 1124.31 5.8125 1123.69 6.6875C1123.44 7.0625 1123.19 7.4375 1122.94 7.8125C1122.56 8.6875 1122.31 9.3125 1122.19 9.6875H1132.88C1134.38 7.5625 1135.56 6.375 1136.44 6.125C1139.06 7.25 1141.44 8.9375 1143.56 11.1875C1143.69 11.8125 1143.25 12.3125 1142.25 12.6875C1141.62 13.0625 1141.31 13.625 1141.31 14.375L1140.56 29.375C1140.56 33.875 1138.19 36.5 1133.44 37.25C1131.69 37.75 1130.62 37.3125 1130.25 35.9375C1129.5 33.8125 1128.31 32.4375 1126.69 31.8125C1125.94 31.6875 1125.62 31.3125 1125.75 30.6875C1126 30.1875 1126.44 30 1127.06 30.125C1131.31 30.875 1133.31 30.0625 1133.06 27.6875L1134 11.1875ZM1124.62 18.875H1122.19C1122.19 19.125 1122.19 19.4375 1122.19 19.8125V26.5625H1124.62V18.875ZM1182 11.1875H1169.25C1168.12 12.8125 1167.06 14.25 1166.06 15.5C1168.44 16.125 1169.88 16.5 1170.38 16.625C1170.88 16.875 1171.19 17.1875 1171.31 17.5625H1172.62C1173.38 16.0625 1174.06 15.25 1174.69 15.125C1176.94 15.75 1178.81 16.75 1180.31 18.125C1180.44 18.75 1180.31 19.125 1179.94 19.25C1179.69 19.375 1179.5 19.625 1179.38 20C1179.38 20.25 1179.38 20.375 1179.38 20.375C1179.38 21.5 1179.38 22.875 1179.38 24.5C1179.5 25.875 1179.62 26.75 1179.75 27.125C1179.75 28.375 1179.31 29.0625 1178.44 29.1875C1177.06 29.4375 1175.62 29.5625 1174.12 29.5625C1172.88 29.6875 1172.38 29.3125 1172.62 28.4375V28.0625H1170.19V38.375C1170.06 39.75 1170.75 40.375 1172.25 40.25H1181.44C1183.69 40.75 1185.75 38.6875 1187.62 34.0625C1188 32.9375 1188.44 32.4375 1188.94 32.5625C1189.19 32.5625 1189.31 33.0625 1189.31 34.0625C1188.81 36.8125 1189.25 38.75 1190.62 39.875C1191.38 40.625 1191.69 41.5625 1191.56 42.6875C1191.31 43.8125 1190.62 44.6875 1189.5 45.3125C1187.38 46.0625 1185.25 46.4375 1183.12 46.4375H1168.69C1164.44 46.6875 1162.5 44.875 1162.88 41V21.125C1162.88 20.5 1162.88 19.6875 1162.88 18.6875C1162.5 19.1875 1161.75 19.8125 1160.62 20.5625C1160.38 20.8125 1160.12 21.0625 1159.88 21.3125C1159.5 21.6875 1159.19 21.8125 1158.94 21.6875C1158.69 21.4375 1158.75 21.125 1159.12 20.75C1159.75 19.625 1160.62 17.875 1161.75 15.5C1162 15 1162.19 14.5625 1162.31 14.1875H1157.81V22.4375C1158.69 22.0625 1159.69 21.75 1160.81 21.5C1161.44 21.25 1161.88 21.375 1162.12 21.875C1162.38 22.25 1162.25 22.6875 1161.75 23.1875C1160.25 24.1875 1158.94 25.125 1157.81 26C1157.81 30.75 1157.88 35.375 1158 39.875C1158 40.375 1158.06 40.6875 1158.19 40.8125C1158.31 43.3125 1157.69 44.9375 1156.31 45.6875C1155.06 46.3125 1153.69 46.75 1152.19 47C1150.31 47.25 1149.31 46.8125 1149.19 45.6875C1148.81 43.6875 1147.75 42.375 1146 41.75C1144.75 41.375 1144.31 41 1144.69 40.625C1144.69 40.25 1145.25 40.125 1146.38 40.25C1149.25 40.75 1150.56 39.6875 1150.31 37.0625V30.875C1150.06 31.125 1149.75 31.3125 1149.38 31.4375C1148.5 31.9375 1148.12 32.3125 1148.25 32.5625C1148 33.1875 1147.62 33.5 1147.12 33.5C1146.75 33.5 1146.44 33.1875 1146.19 32.5625C1146.06 32.4375 1145.94 32.25 1145.81 32C1144.94 30.25 1144.44 28.75 1144.31 27.5C1144.06 26.625 1144.31 26.125 1145.06 26C1145.56 25.875 1146.44 25.6875 1147.69 25.4375C1148.81 25.1875 1149.69 24.9375 1150.31 24.6875V14.1875H1149C1147.62 14.1875 1146.69 14.25 1146.19 14.375C1145.69 14.5 1145.38 14.375 1145.25 14C1144.88 13.625 1144.62 13.25 1144.5 12.875C1144.38 12.75 1144.31 12.625 1144.31 12.5C1144.31 12.375 1144.44 12.3125 1144.69 12.3125C1146.56 12.5625 1148.31 12.6875 1149.94 12.6875H1150.31V10.625C1150.19 9 1150.12 7.375 1150.12 5.75C1150 4.25 1149.88 3.1875 1149.75 2.5625C1149.38 1.3125 1149.94 0.6875 1151.44 0.6875C1153.31 0.9375 1155.62 1.4375 1158.38 2.1875C1159 2.4375 1159.31 2.8125 1159.31 3.3125C1159.44 3.8125 1159.25 4.1875 1158.75 4.4375C1158 5.0625 1157.69 5.625 1157.81 6.125V11.75C1158.81 10 1159.62 9.0625 1160.25 8.9375C1160.88 9.0625 1161.94 9.6875 1163.44 10.8125C1164.31 7.8125 1164.88 4.8125 1165.12 1.8125C1165.12 1.0625 1165.5 0.75 1166.25 0.875C1168.75 1.25 1171.25 1.875 1173.75 2.75C1174.88 3.5 1174.94 4.25 1173.94 5C1173.06 5.25 1172.31 5.8125 1171.69 6.6875C1171.44 7.0625 1171.19 7.4375 1170.94 7.8125C1170.56 8.6875 1170.31 9.3125 1170.19 9.6875H1180.88C1182.38 7.5625 1183.56 6.375 1184.44 6.125C1187.06 7.25 1189.44 8.9375 1191.56 11.1875C1191.69 11.8125 1191.25 12.3125 1190.25 12.6875C1189.62 13.0625 1189.31 13.625 1189.31 14.375L1188.56 29.375C1188.56 33.875 1186.19 36.5 1181.44 37.25C1179.69 37.75 1178.62 37.3125 1178.25 35.9375C1177.5 33.8125 1176.31 32.4375 1174.69 31.8125C1173.94 31.6875 1173.62 31.3125 1173.75 30.6875C1174 30.1875 1174.44 30 1175.06 30.125C1179.31 30.875 1181.31 30.0625 1181.06 27.6875L1182 11.1875ZM1172.62 18.875H1170.19C1170.19 19.125 1170.19 19.4375 1170.19 19.8125V26.5625H1172.62V18.875ZM1205.62 34.0625H1203.19V31.0625C1203.19 29.4375 1203.81 27.6875 1205.06 25.8125C1206.69 23.8125 1207.5 21.75 1207.5 19.625C1207.5 15.125 1206 12.8125 1203 12.6875C1200.62 12.9375 1199 13.8125 1198.12 15.3125C1198.38 15.3125 1198.62 15.3125 1198.88 15.3125C1201.25 15.4375 1202.5 16.5 1202.62 18.5C1202.38 20.5 1201.12 21.625 1198.88 21.875C1196.5 21.75 1195.25 20.4375 1195.12 17.9375C1195.5 13.5625 1198.69 11.125 1204.69 10.625C1211.06 11 1214.5 13.375 1215 17.75C1215 20.375 1213.38 22.875 1210.12 25.25C1207.12 27.5 1205.62 29.75 1205.62 32V34.0625ZM1200.19 40.0625C1200.44 37.6875 1201.75 36.3125 1204.12 35.9375C1206.62 36.1875 1208 37.5625 1208.25 40.0625C1207.88 42.0625 1206.5 43.25 1204.12 43.625C1201.75 43.25 1200.44 42.0625 1200.19 40.0625Z" fill="#10656A"/>
</svg>
