<svg width="1512" height="49" viewBox="0 0 1512 49" fill="none" xmlns="http://www.w3.org/2000/svg">
<path d="M34.6875 19.625V23.1875C34.6875 22.8125 35.0625 22.8125 35.8125 23.1875C40.6875 25.0625 44.1875 28.0625 46.3125 32.1875C47.0625 35.6875 46.125 38 43.5 39.125C40.875 39.625 39.3125 38.125 38.8125 34.625C38.3125 31.125 37.0625 27.625 35.0625 24.125C34.8125 24 34.6875 23.8125 34.6875 23.5625V25.8125C34.5625 32.6875 34.625 37.625 34.875 40.625C35.125 42.875 34.4375 44.5 32.8125 45.5C30.9375 46.5 29.0625 47.125 27.1875 47.375C25.5625 47.625 24.6875 47.25 24.5625 46.25C24.1875 44.125 23.125 42.8125 21.375 42.3125C20.375 41.9375 19.9375 41.5625 20.0625 41.1875C19.9375 41.0625 20.5625 41 21.9375 41C25.9375 41.625 27.75 40.375 27.375 37.25V24.875C27.375 25.125 27.1875 25.25 26.8125 25.25C26.1875 25.5 25.875 25.875 25.875 26.375C23.875 32.625 20.4375 37.3125 15.5625 40.4375C14.9375 40.8125 14.5625 40.9375 14.4375 40.8125C14.3125 40.6875 14.4375 40.3125 14.8125 39.6875C16.5625 35.6875 17.8125 32.0625 18.5625 28.8125C18.5625 28.6875 18.5625 28.375 18.5625 27.875C18.9375 26.5 19.1875 25 19.3125 23.375C19.4375 22.375 19.9375 21.9375 20.8125 22.0625C22.6875 22.3125 24.6875 22.8125 26.8125 23.5625C27.1875 23.9375 27.375 24.125 27.375 24.125V23.5625C27.25 22.0625 27.1875 20.625 27.1875 19.25C27.0625 17.875 26.9375 16.875 26.8125 16.25C26.4375 14.875 26.9375 14.3125 28.3125 14.5625C30.0625 14.8125 32.3125 15.1875 35.0625 15.6875C36.3125 16.4375 36.5 17.1875 35.625 17.9375C34.875 18.3125 34.5625 18.875 34.6875 19.625ZM13.5 18.125V35.75C13.375 39.25 13.4375 41.75 13.6875 43.25C13.9375 44.875 13.375 45.9375 12 46.4375C10.75 46.8125 9.4375 47.125 8.0625 47.375C5.9375 48 5.1875 46.875 5.8125 44C5.8125 43.375 5.8125 42.4375 5.8125 41.1875C6.1875 35.6875 6.375 31.5625 6.375 28.8125V22.625C4.625 24.75 2.875 26.4375 1.125 27.6875C0.75 28.0625 0.5 28.125 0.375 27.875C0.25 27.625 0.3125 27.25 0.5625 26.75C3.5625 20.75 5.9375 14.5625 7.6875 8.1875C8.3125 6.4375 8.75 4.1875 9 1.4375C8.875 0.6875 9.375 0.3125 10.5 0.3125C12 0.6875 14.5 1.4375 18 2.5625C18.75 3.3125 18.75 4.0625 18 4.8125C17.125 5.1875 16.625 5.5625 16.5 5.9375C14.875 9.1875 13.4375 12 12.1875 14.375C12.3125 14.375 12.5625 14.4375 12.9375 14.5625C13.3125 14.5625 13.5625 14.5625 13.6875 14.5625C14.5625 15.1875 14.6875 15.8125 14.0625 16.4375C13.5625 16.8125 13.375 17.375 13.5 18.125ZM36.9375 17.375L38.25 12.875H25.875C23.125 17.25 19.625 20.8125 15.375 23.5625C15 23.8125 14.75 23.8125 14.625 23.5625C14.5 23.4375 14.5625 23.125 14.8125 22.625C18.0625 17.625 20.375 12.4375 21.75 7.0625C22 6.0625 22.1875 5.125 22.3125 4.25C22.5625 3.25 22.6875 2.3125 22.6875 1.4375C22.6875 0.5625 23.1875 0.25 24.1875 0.5C25.3125 0.625 27.25 1.125 30 2C30.25 2.125 30.5625 2.1875 30.9375 2.1875C31.3125 2.4375 31.5625 2.8125 31.6875 3.3125C31.5625 3.8125 31.3125 4.0625 30.9375 4.0625C30.0625 4.4375 29.5625 4.9375 29.4375 5.5625C28.5625 7.6875 27.6875 9.625 26.8125 11.375H37.3125C38.1875 9.375 39.125 8.1875 40.125 7.8125C42 8.1875 44.1875 9.625 46.6875 12.125C47.3125 12.75 47.5625 13.4375 47.4375 14.1875C47.3125 14.9375 46.6875 15.3125 45.5625 15.3125C42.5625 15.0625 40.0625 16 38.0625 18.125C37.5625 18.5 37.1875 18.625 36.9375 18.5C36.8125 18.375 36.8125 18 36.9375 17.375ZM61.875 29.5625C61.875 29.4375 61.8125 29.25 61.6875 29C61.5625 28.75 61.5625 28.5 61.6875 28.25C57.5625 30.375 55.125 31.875 54.375 32.75C53.75 33.5 53.25 33.875 52.875 33.875C52.5 33.875 52.1875 33.5 51.9375 32.75C50.9375 31.5 50.1875 30.0625 49.6875 28.4375C49.4375 28.0625 49.4375 27.6875 49.6875 27.3125C49.8125 27.0625 50.125 26.8125 50.625 26.5625C52 26.0625 53.1875 25.1875 54.1875 23.9375C55.0625 22.5625 55.9375 21 56.8125 19.25C54.6875 20.25 53.5625 20.875 53.4375 21.125C52.3125 22.375 51.5 22.3125 51 20.9375C50 19.5625 49.3125 18.25 48.9375 17C48.6875 16.5 48.6875 16.125 48.9375 15.875C48.8125 15.75 49.0625 15.5 49.6875 15.125C51.1875 14.375 52.1875 13.1875 52.6875 11.5625C53.8125 8.1875 54.5 5.125 54.75 2.375C54.75 1.125 55.4375 0.6875 56.8125 1.0625C58.4375 1.6875 60.4375 2.5 62.8125 3.5C63.3125 3.875 63.5625 4.3125 63.5625 4.8125C63.5625 5.3125 63.25 5.625 62.625 5.75C61.625 6 60.9375 6.5625 60.5625 7.4375C57.6875 11.1875 55.5 13.75 54 15.125C55.375 15.125 57 15.125 58.875 15.125C59 14.625 59.1875 13.9375 59.4375 13.0625C59.6875 12.4375 59.875 11.875 60 11.375C60.125 10 60.8125 9.5 62.0625 9.875C62.4375 10.125 63.1875 10.5625 64.3125 11.1875C65.6875 11.8125 66.6875 12.25 67.3125 12.5C68.4375 13.625 68.375 14.4375 67.125 14.9375C66.375 14.9375 65.6875 15.375 65.0625 16.25C63.4375 18.375 61.875 20.3125 60.375 22.0625C60.375 22.0625 60.5 22.0625 60.75 22.0625C63.75 22.9375 65.875 24.6875 67.125 27.3125C67.5 29.3125 66.875 30.75 65.25 31.625C63.25 32.125 62.125 31.4375 61.875 29.5625ZM92.4375 29.1875H83.625C82.875 29.6875 82.5625 30.3125 82.6875 31.0625V42.3125H85.6875C87.3125 40.0625 88.5625 38.8125 89.4375 38.5625C90.1875 38.8125 91.9375 40.125 94.6875 42.5C94.9375 42.75 95 43 94.875 43.25C94.875 43.375 94.6875 43.5 94.3125 43.625H69.375C68.375 43.625 67.4375 43.75 66.5625 44C66.0625 44 65.75 43.9375 65.625 43.8125C65.375 43.4375 65.125 42.9375 64.875 42.3125C64.625 41.8125 64.75 41.6875 65.25 41.9375C67 42.0625 68.6875 42.1875 70.3125 42.3125H75.375V29.1875H72.1875C71.1875 29.3125 70.25 29.4375 69.375 29.5625C68.875 29.6875 68.5625 29.625 68.4375 29.375C68.3125 29.25 68.125 29 67.875 28.625C67.75 28.375 67.6875 28.125 67.6875 27.875C67.4375 27.5 67.5625 27.375 68.0625 27.5C69.6875 27.75 71.3125 27.875 72.9375 27.875H84.375C84.375 27.75 84.5 27.5625 84.75 27.3125C85.5 26.4375 86.1875 25.75 86.8125 25.25C86.6875 25.125 86.5625 24.9375 86.4375 24.6875C86.1875 24.3125 86.125 24 86.25 23.75C85.75 21.75 84.5625 19.8125 82.6875 17.9375C82.3125 17.6875 82.25 17.4375 82.5 17.1875C82.375 17.0625 82.4375 16.875 82.6875 16.625C84.0625 15.125 85.25 12.8125 86.25 9.6875C86.25 8.9375 86.8125 8.75 87.9375 9.125C89.4375 9.875 90.9375 10.6875 92.4375 11.5625C92.8125 11.9375 92.9375 12.3125 92.8125 12.6875C92.5625 12.9375 92.25 13 91.875 12.875C91.25 12.875 90.6875 13.125 90.1875 13.625C88.3125 14.875 86.4375 16.125 84.5625 17.375C88.1875 18.375 90.4375 19.6875 91.3125 21.3125C91.9375 23.1875 91.5625 24.625 90.1875 25.625C90.9375 26.25 91.875 27.0625 93 28.0625C93.25 28.4375 93.3125 28.75 93.1875 29C93.0625 29.125 92.8125 29.1875 92.4375 29.1875ZM74.25 17.9375V17.75C74.25 17.875 74.25 17.8125 74.25 17.5625C74.25 17.5625 74.3125 17.5 74.4375 17.375C75.9375 14.875 77.125 12.1875 78 9.3125C78 8.3125 78.5 8 79.5 8.375C81.125 8.875 82.875 9.5 84.75 10.25C85.25 11.125 85.0625 11.625 84.1875 11.75C83.4375 11.875 82.8125 12.1875 82.3125 12.6875C80.3125 14.6875 78.3125 16.3125 76.3125 17.5625C79.5625 18.5625 81.75 19.875 82.875 21.5C83.75 23.5 83.3125 25 81.5625 26C79.5625 26.75 78.375 26.125 78 24.125C77.625 22.25 76.5 20.3125 74.625 18.3125C74.25 18.3125 74.125 18.1875 74.25 17.9375ZM69.75 24.3125C69.75 22.4375 68.9375 20.5 67.3125 18.5C67.0625 18.375 67.0625 18.1875 67.3125 17.9375C67.3125 17.8125 67.3125 17.625 67.3125 17.375C68.1875 15.5 68.875 12.75 69.375 9.125C69.25 8.25 69.75 7.875 70.875 8C71.375 8.25 72.5 8.5625 74.25 8.9375C75.375 9.1875 76.0625 9.3125 76.3125 9.3125C76.5625 9.4375 76.6875 9.75 76.6875 10.25C76.5625 10.625 76.3125 10.8125 75.9375 10.8125C75.1875 11.0625 74.5625 11.5 74.0625 12.125C72.3125 14.625 70.5 16.625 68.625 18.125C72.25 19.5 74.375 21.0625 75 22.8125C75.25 25.1875 74.5625 26.5625 72.9375 26.9375C70.8125 27.3125 69.75 26.4375 69.75 24.3125ZM92.25 6.5H69.75C68.625 6.625 67.75 6.75 67.125 6.875C66.5 7 66.1875 6.9375 66.1875 6.6875C65.8125 6.4375 65.5625 5.9375 65.4375 5.1875C65.1875 4.8125 65.25 4.6875 65.625 4.8125C67.5 5.0625 69.1875 5.1875 70.6875 5.1875H83.625C85.25 2.6875 86.5 1.3125 87.375 1.0625C88.25 1.3125 90 2.75 92.625 5.375C92.875 5.75 92.9375 6.0625 92.8125 6.3125C92.8125 6.4375 92.625 6.5 92.25 6.5ZM49.3125 40.4375C51.0625 38.9375 52.25 37 52.875 34.625C52.875 34.375 53 34.25 53.25 34.25C53.625 34.25 53.875 34.375 54 34.625C55.375 37.625 55.5625 40.4375 54.5625 43.0625C53.0625 44.9375 51.375 45.25 49.5 44C48.375 42.625 48.3125 41.4375 49.3125 40.4375ZM63.375 38.375C63.125 36 62.25 34.125 60.75 32.75C60.375 32.5 60.25 32.3125 60.375 32.1875C60.5 32.0625 60.8125 31.9375 61.3125 31.8125C64.1875 32.0625 66.4375 33 68.0625 34.625C69.5625 37.25 69.1875 39.1875 66.9375 40.4375C65.1875 40.8125 64 40.125 63.375 38.375ZM56.8125 40.4375C57.1875 38.0625 57.125 35.9375 56.625 34.0625C56.5 33.8125 56.5 33.6875 56.625 33.6875C56.75 33.5625 57 33.5625 57.375 33.6875C60 35.4375 61.625 37.3125 62.25 39.3125C62.5 41.8125 61.4375 43.1875 59.0625 43.4375C57.1875 43.0625 56.4375 42.0625 56.8125 40.4375ZM55.5 26.75C55.625 26.75 55.75 26.75 55.875 26.75C58 26.375 59.8125 26.125 61.3125 26C60.8125 24.875 60.3125 23.875 59.8125 23C59.8125 23 59.75 22.9375 59.625 22.8125C59.5 22.8125 59.5 22.75 59.625 22.625C58.25 24.25 56.875 25.625 55.5 26.75ZM109.875 33.875V40.8125C109.875 41.8125 109.438 42.375 108.562 42.5C107.062 42.625 105.688 42.75 104.438 42.875C102.688 42.875 102 41.875 102.375 39.875C102.5 37.875 102.625 35.75 102.75 33.5C102.625 32.5 102.5 31.375 102.375 30.125C102.125 29 102.625 28.5 103.875 28.625C104.125 28.75 104.438 28.875 104.812 29C107.312 29.75 108.938 30.3125 109.688 30.6875C110.062 30.8125 110.25 30.875 110.25 30.875H115.5V25.4375H114.375V26.1875C114.375 27.5625 113.875 28.25 112.875 28.25C111.625 28.5 110.375 28.625 109.125 28.625C107.375 28.875 106.688 27.75 107.062 25.25C107.188 23.25 107.312 21.5 107.438 20C107.312 19 107.188 17.875 107.062 16.625C106.812 15.5 107.312 15.0625 108.562 15.3125C110.812 15.9375 112.688 16.5625 114.188 17.1875C114.188 17.3125 114.25 17.375 114.375 17.375C114.625 17.375 114.75 17.4375 114.75 17.5625H124.312C125.312 15.6875 126.125 14.625 126.75 14.375C128 14.625 130.062 15.5625 132.938 17.1875L133.875 13.25H104.625C105.125 16 104.812 18.1875 103.688 19.8125C101.188 22.0625 99 22.3125 97.125 20.5625C96.25 18.9375 96.4375 17.25 97.6875 15.5C99.8125 14.125 100.938 12.125 101.062 9.5C101.062 9.125 101.188 8.9375 101.438 8.9375C101.812 8.9375 102.188 9.125 102.562 9.5C102.812 9.75 103.25 10.375 103.875 11.375C104 11.625 104.125 11.75 104.25 11.75H115.875V5.9375C115.875 4.1875 115.812 3 115.688 2.375C115.312 1.125 115.812 0.5 117.188 0.5C118.062 0.625 119.188 0.6875 120.562 0.6875C121.812 0.8125 122.812 0.9375 123.562 1.0625C124.062 1.1875 124.375 1.4375 124.5 1.8125C124.5 2.3125 124.25 2.6875 123.75 2.9375C123.375 3.1875 123.25 3.75 123.375 4.625V11.75H124.5C125.75 8.75 126.75 5.6875 127.5 2.5625C127.5 1.6875 128.188 1.4375 129.562 1.8125C131.062 2.3125 133.312 3.0625 136.312 4.0625C137.188 5.0625 137 5.75 135.75 6.125C134.375 6.125 133.562 6.4375 133.312 7.0625C132.062 8.4375 130.312 10 128.062 11.75H133.688C134.688 10 135.5 9 136.125 8.75C138.375 9.5 140.875 11.125 143.625 13.625C143.75 14.375 143.688 15.0625 143.438 15.6875C143.312 15.9375 142.625 16.0625 141.375 16.0625C138.375 16.1875 136 16.9375 134.25 18.3125C134.125 18.5625 134.062 18.625 134.062 18.5C134.188 19.125 134 19.5625 133.5 19.8125C132.75 20.3125 132.375 20.9375 132.375 21.6875V25.25C132.375 26.75 131.75 27.5 130.5 27.5C129.625 27.75 128.375 27.8125 126.75 27.6875C125.625 27.9375 125.125 27.3125 125.25 25.8125V25.4375H124.125C124.25 25.9375 124.125 26.3125 123.75 26.5625C123.125 27.0625 122.875 27.5625 123 28.0625V30.875H129.188C129.938 29.25 130.688 28.25 131.438 27.875C133.062 28.125 135.188 29.125 137.812 30.875C138.562 31.625 138.562 32.375 137.812 33.125C137.062 33.5 136.75 33.9375 136.875 34.4375V38.375C136.875 40.375 135.938 41.9375 134.062 43.0625C133.438 43.4375 132 43.9375 129.75 44.5625C128.75 44.6875 128.188 44.3125 128.062 43.4375C127.562 41.8125 126.625 40.8125 125.25 40.4375C124.5 40.3125 124.188 40 124.312 39.5C124.312 39.125 124.75 39 125.625 39.125C128.75 40 130.062 39 129.562 36.125V32.1875H123V35.9375C123 36.4375 123 38.125 123 41C123.125 43.25 123.188 44.5625 123.188 44.9375C123.188 45.9375 122.688 46.625 121.688 47C120.438 47.375 119 47.625 117.375 47.75C116 47.625 115.312 47 115.312 45.875C115.438 43.875 115.5 39.75 115.5 33.5V32.1875H110.25C109.875 32.4375 109.75 33 109.875 33.875ZM107.25 8.375C107 6.375 106.188 4.6875 104.812 3.3125C104.438 3.0625 104.312 2.8125 104.438 2.5625C104.438 2.4375 104.688 2.3125 105.188 2.1875C110.188 2.3125 113.25 3.4375 114.375 5.5625C115.125 8.5625 114.188 10.5625 111.562 11.5625C109.188 11.9375 107.75 10.875 107.25 8.375ZM114.375 20.375V24.3125H125.25V18.6875H114.75C114.375 18.9375 114.25 19.5 114.375 20.375ZM163.688 27.6875V24.125C158.312 29.5 152.438 33.625 146.062 36.5C145.562 36.75 145.25 36.75 145.125 36.5C145 36.125 145.125 35.75 145.5 35.375C154.5 26.875 160.938 17.6875 164.812 7.8125H154.875C153.5 7.9375 152.062 8 150.562 8C149.188 8.125 148.188 8.25 147.562 8.375C147.188 8.5 146.875 8.3125 146.625 7.8125C146.375 7.5625 146.125 7.125 145.875 6.5C145.625 6.375 145.5 6.25 145.5 6.125C145.5 6 145.688 5.9375 146.062 5.9375C147.062 6.1875 148.75 6.375 151.125 6.5C153.125 6.5 154.938 6.5 156.562 6.5H179.25C181.125 3 182.5 1.125 183.375 0.875C185.375 1.875 187.688 3.8125 190.312 6.6875C190.562 7.1875 190.688 7.625 190.688 8C190.562 8.25 190.312 8.3125 189.938 8.1875C185.438 8.0625 180.938 7.9375 176.438 7.8125H169.312C172.062 9.1875 173.75 9.9375 174.375 10.0625C174.875 10.5625 175.125 11.0625 175.125 11.5625C174.875 12.0625 174.438 12.3125 173.812 12.3125C172.938 12.3125 172.25 12.6875 171.75 13.4375C171.5 13.9375 171.188 14.5 170.812 15.125C170.688 15.375 170.562 15.625 170.438 15.875C170.562 16 170.75 16.0625 171 16.0625C171.125 16.1875 171.312 16.25 171.562 16.25C172.062 16.375 172.375 16.6875 172.5 17.1875C172.5 17.5625 172.25 17.875 171.75 18.125C171.25 18.5 171.062 19.0625 171.188 19.8125V27.3125C171.062 34.5625 171.188 39.625 171.562 42.5C171.562 44.5 170.875 45.6875 169.5 46.0625C168.5 46.4375 167.188 46.75 165.562 47C163.312 47.625 162.5 46.4375 163.125 43.4375C163.25 41.8125 163.375 39.6875 163.5 37.0625C163.5 33.9375 163.562 30.8125 163.688 27.6875ZM181.688 33.3125C180.062 29.3125 177.062 25.3125 172.688 21.3125C172.312 21.0625 172.125 20.8125 172.125 20.5625C172.25 20.3125 172.562 20.25 173.062 20.375C179.562 22 184.562 24.6875 188.062 28.4375C189.562 31.0625 189.312 33.3125 187.312 35.1875C184.812 36.4375 182.938 35.8125 181.688 33.3125ZM205.875 29.5625C205.875 29.4375 205.812 29.25 205.688 29C205.562 28.75 205.562 28.5 205.688 28.25C201.562 30.375 199.125 31.875 198.375 32.75C197.75 33.5 197.25 33.875 196.875 33.875C196.5 33.875 196.188 33.5 195.938 32.75C194.938 31.5 194.188 30.0625 193.688 28.4375C193.438 28.0625 193.438 27.6875 193.688 27.3125C193.812 27.0625 194.125 26.8125 194.625 26.5625C196 26.0625 197.188 25.1875 198.188 23.9375C199.062 22.5625 199.938 21 200.812 19.25C198.688 20.25 197.562 20.875 197.438 21.125C196.312 22.375 195.5 22.3125 195 20.9375C194 19.5625 193.312 18.25 192.938 17C192.688 16.5 192.688 16.125 192.938 15.875C192.812 15.75 193.062 15.5 193.688 15.125C195.188 14.375 196.188 13.1875 196.688 11.5625C197.812 8.1875 198.5 5.125 198.75 2.375C198.75 1.125 199.438 0.6875 200.812 1.0625C202.438 1.6875 204.438 2.5 206.812 3.5C207.312 3.875 207.562 4.3125 207.562 4.8125C207.562 5.3125 207.25 5.625 206.625 5.75C205.625 6 204.938 6.5625 204.562 7.4375C201.688 11.1875 199.5 13.75 198 15.125C199.375 15.125 201 15.125 202.875 15.125C203 14.625 203.188 13.9375 203.438 13.0625C203.688 12.4375 203.875 11.875 204 11.375C204.125 10 204.812 9.5 206.062 9.875C206.438 10.125 207.188 10.5625 208.312 11.1875C209.688 11.8125 210.688 12.25 211.312 12.5C212.438 13.625 212.375 14.4375 211.125 14.9375C210.375 14.9375 209.688 15.375 209.062 16.25C207.438 18.375 205.875 20.3125 204.375 22.0625C204.375 22.0625 204.5 22.0625 204.75 22.0625C207.75 22.9375 209.875 24.6875 211.125 27.3125C211.5 29.3125 210.875 30.75 209.25 31.625C207.25 32.125 206.125 31.4375 205.875 29.5625ZM236.438 29.1875H227.625C226.875 29.6875 226.562 30.3125 226.688 31.0625V42.3125H229.688C231.312 40.0625 232.562 38.8125 233.438 38.5625C234.188 38.8125 235.938 40.125 238.688 42.5C238.938 42.75 239 43 238.875 43.25C238.875 43.375 238.688 43.5 238.312 43.625H213.375C212.375 43.625 211.438 43.75 210.562 44C210.062 44 209.75 43.9375 209.625 43.8125C209.375 43.4375 209.125 42.9375 208.875 42.3125C208.625 41.8125 208.75 41.6875 209.25 41.9375C211 42.0625 212.688 42.1875 214.312 42.3125H219.375V29.1875H216.188C215.188 29.3125 214.25 29.4375 213.375 29.5625C212.875 29.6875 212.562 29.625 212.438 29.375C212.312 29.25 212.125 29 211.875 28.625C211.75 28.375 211.688 28.125 211.688 27.875C211.438 27.5 211.562 27.375 212.062 27.5C213.688 27.75 215.312 27.875 216.938 27.875H228.375C228.375 27.75 228.5 27.5625 228.75 27.3125C229.5 26.4375 230.188 25.75 230.812 25.25C230.688 25.125 230.562 24.9375 230.438 24.6875C230.188 24.3125 230.125 24 230.25 23.75C229.75 21.75 228.562 19.8125 226.688 17.9375C226.312 17.6875 226.25 17.4375 226.5 17.1875C226.375 17.0625 226.438 16.875 226.688 16.625C228.062 15.125 229.25 12.8125 230.25 9.6875C230.25 8.9375 230.812 8.75 231.938 9.125C233.438 9.875 234.938 10.6875 236.438 11.5625C236.812 11.9375 236.938 12.3125 236.812 12.6875C236.562 12.9375 236.25 13 235.875 12.875C235.25 12.875 234.688 13.125 234.188 13.625C232.312 14.875 230.438 16.125 228.562 17.375C232.188 18.375 234.438 19.6875 235.312 21.3125C235.938 23.1875 235.562 24.625 234.188 25.625C234.938 26.25 235.875 27.0625 237 28.0625C237.25 28.4375 237.312 28.75 237.188 29C237.062 29.125 236.812 29.1875 236.438 29.1875ZM218.25 17.9375V17.75C218.25 17.875 218.25 17.8125 218.25 17.5625C218.25 17.5625 218.312 17.5 218.438 17.375C219.938 14.875 221.125 12.1875 222 9.3125C222 8.3125 222.5 8 223.5 8.375C225.125 8.875 226.875 9.5 228.75 10.25C229.25 11.125 229.062 11.625 228.188 11.75C227.438 11.875 226.812 12.1875 226.312 12.6875C224.312 14.6875 222.312 16.3125 220.312 17.5625C223.562 18.5625 225.75 19.875 226.875 21.5C227.75 23.5 227.312 25 225.562 26C223.562 26.75 222.375 26.125 222 24.125C221.625 22.25 220.5 20.3125 218.625 18.3125C218.25 18.3125 218.125 18.1875 218.25 17.9375ZM213.75 24.3125C213.75 22.4375 212.938 20.5 211.312 18.5C211.062 18.375 211.062 18.1875 211.312 17.9375C211.312 17.8125 211.312 17.625 211.312 17.375C212.188 15.5 212.875 12.75 213.375 9.125C213.25 8.25 213.75 7.875 214.875 8C215.375 8.25 216.5 8.5625 218.25 8.9375C219.375 9.1875 220.062 9.3125 220.312 9.3125C220.562 9.4375 220.688 9.75 220.688 10.25C220.562 10.625 220.312 10.8125 219.938 10.8125C219.188 11.0625 218.562 11.5 218.062 12.125C216.312 14.625 214.5 16.625 212.625 18.125C216.25 19.5 218.375 21.0625 219 22.8125C219.25 25.1875 218.562 26.5625 216.938 26.9375C214.812 27.3125 213.75 26.4375 213.75 24.3125ZM236.25 6.5H213.75C212.625 6.625 211.75 6.75 211.125 6.875C210.5 7 210.188 6.9375 210.188 6.6875C209.812 6.4375 209.562 5.9375 209.438 5.1875C209.188 4.8125 209.25 4.6875 209.625 4.8125C211.5 5.0625 213.188 5.1875 214.688 5.1875H227.625C229.25 2.6875 230.5 1.3125 231.375 1.0625C232.25 1.3125 234 2.75 236.625 5.375C236.875 5.75 236.938 6.0625 236.812 6.3125C236.812 6.4375 236.625 6.5 236.25 6.5ZM193.312 40.4375C195.062 38.9375 196.25 37 196.875 34.625C196.875 34.375 197 34.25 197.25 34.25C197.625 34.25 197.875 34.375 198 34.625C199.375 37.625 199.562 40.4375 198.562 43.0625C197.062 44.9375 195.375 45.25 193.5 44C192.375 42.625 192.312 41.4375 193.312 40.4375ZM207.375 38.375C207.125 36 206.25 34.125 204.75 32.75C204.375 32.5 204.25 32.3125 204.375 32.1875C204.5 32.0625 204.812 31.9375 205.312 31.8125C208.188 32.0625 210.438 33 212.062 34.625C213.562 37.25 213.188 39.1875 210.938 40.4375C209.188 40.8125 208 40.125 207.375 38.375ZM200.812 40.4375C201.188 38.0625 201.125 35.9375 200.625 34.0625C200.5 33.8125 200.5 33.6875 200.625 33.6875C200.75 33.5625 201 33.5625 201.375 33.6875C204 35.4375 205.625 37.3125 206.25 39.3125C206.5 41.8125 205.438 43.1875 203.062 43.4375C201.188 43.0625 200.438 42.0625 200.812 40.4375ZM199.5 26.75C199.625 26.75 199.75 26.75 199.875 26.75C202 26.375 203.812 26.125 205.312 26C204.812 24.875 204.312 23.875 203.812 23C203.812 23 203.75 22.9375 203.625 22.8125C203.5 22.8125 203.5 22.75 203.625 22.625C202.25 24.25 200.875 25.625 199.5 26.75ZM277.312 19.625H263.625C263.5 19.75 263.438 19.8125 263.438 19.8125C262.812 20.1875 262.562 20.75 262.688 21.5V36.3125C262.688 38.0625 262.062 38.9375 260.812 38.9375C259.938 39.1875 258.938 39.3125 257.812 39.3125C256.688 39.5625 256.125 38.9375 256.125 37.4375C256.125 36.0625 256.125 34.8125 256.125 33.6875C256.25 32.8125 256.312 31.375 256.312 29.375V23.5625C256.312 22.0625 256.25 20.9375 256.125 20.1875C256.125 19.3125 256.125 18.4375 256.125 17.5625C256 17.0625 256 16.75 256.125 16.625C256.25 16.5 256.625 16.4375 257.25 16.4375C257.25 16.5625 257.375 16.625 257.625 16.625C258.375 16.75 259.25 16.9375 260.25 17.1875V11.375C260.25 7.625 260.125 5.125 259.875 3.875C259.75 3.125 259.75 2.625 259.875 2.375C260 2.25 260.438 2.1875 261.188 2.1875C263.438 2.6875 265.125 3.0625 266.25 3.3125C266.375 3.5625 266.562 3.75 266.812 3.875H273.188C273.938 2.25 274.688 1.3125 275.438 1.0625C276.938 1.3125 278.75 2.25 280.875 3.875C281.375 4.625 281.25 5.1875 280.5 5.5625C279.75 5.9375 279.438 6.3125 279.562 6.6875V15.875C282.188 17 284.062 18.1875 285.188 19.4375C285.438 20.3125 285.25 20.875 284.625 21.125C284 21.5 283.75 21.9375 283.875 22.4375V34.8125C284.125 37.5625 282.312 39.1875 278.438 39.6875C276.812 40.0625 276 39.75 276 38.75C275.625 37.25 274.875 36.1875 273.75 35.5625C273 35.1875 272.688 34.8125 272.812 34.4375C272.812 34.1875 273.25 34.125 274.125 34.25C276.5 34.625 277.562 33.9375 277.312 32.1875V19.625ZM253.875 24.6875V35.9375C253.875 38.4375 256.688 40 262.312 40.625C265.688 40.875 269.25 41 273 41C276.75 41 280.438 40.75 284.062 40.25C285.938 40 287 39.9375 287.25 40.0625C287.5 40.4375 287.188 40.875 286.312 41.375C285.062 42.5 284.438 43.8125 284.438 45.3125C284.188 46.4375 283.438 47 282.188 47C278.062 47.125 274.312 47.125 270.938 47C267.562 47 264.812 46.875 262.688 46.625C258.812 46.25 255.188 44.3125 251.812 40.8125C250.938 39.9375 250.188 39.8125 249.562 40.4375C247.688 42.5625 246.625 44.5 246.375 46.25C246.125 46.875 245.812 47.25 245.438 47.375C245.188 47.375 244.812 47.1875 244.312 46.8125C243.062 46.0625 241.812 44.75 240.562 42.875C240.188 42.375 240.375 41.875 241.125 41.375C245.25 39.125 247.188 37.4375 246.938 36.3125V22.25H244.312C243.688 22.375 242.875 22.5 241.875 22.625C241.5 22.875 241.25 22.875 241.125 22.625C240.625 22.125 240.312 21.5625 240.188 20.9375C240.062 20.8125 240 20.6875 240 20.5625C240.125 20.4375 240.312 20.375 240.562 20.375C241.312 20.75 242.75 20.875 244.875 20.75H246.75C247.75 19.125 248.5 18.3125 249 18.3125C251.125 18.8125 253.125 20 255 21.875C255.375 22.5 255.25 23 254.625 23.375C254 23.625 253.75 24.0625 253.875 24.6875ZM268.688 23.1875H270.375C271.375 21.8125 272.125 21.0625 272.625 20.9375C274.25 21.4375 275.75 22.5625 277.125 24.3125C277 24.8125 276.688 25.25 276.188 25.625C275.938 25.75 275.812 26.1875 275.812 26.9375C275.812 28.0625 275.812 29.25 275.812 30.5C275.938 31.875 275.688 32.625 275.062 32.75C273.938 33.25 273.062 33.4375 272.438 33.3125C271.438 33.5625 271 33.0625 271.125 31.8125V31.25H268.5V32.1875C268.5 33.0625 268.125 33.5625 267.375 33.6875C267.125 33.8125 266.875 33.9375 266.625 34.0625C266.25 34.1875 265.812 34.3125 265.312 34.4375C263.938 34.6875 263.375 34.0625 263.625 32.5625C263.875 30.5625 263.938 28.75 263.812 27.125C263.812 24.875 263.75 23.5625 263.625 23.1875C263.375 22.4375 263.375 22 263.625 21.875C263.75 21.625 264.25 21.5625 265.125 21.6875C266 21.8125 267.062 22.1875 268.312 22.8125C268.438 22.9375 268.562 23.0625 268.688 23.1875ZM247.125 8.9375C246.75 6.4375 246.062 4.625 245.062 3.5C244.562 2.875 244.875 2.4375 246 2.1875C250.5 3.0625 253.188 4.625 254.062 6.875C254.688 9.75 253.812 11.625 251.438 12.5C248.938 13.375 247.5 12.1875 247.125 8.9375ZM273.75 5H266.438C266.062 5.125 265.938 5.5625 266.062 6.3125V10.0625H267C267.875 8.8125 268.562 8.1875 269.062 8.1875C270.562 8.6875 271.875 9.5 273 10.625C273.5 11.375 273.375 11.9375 272.625 12.3125C272.125 12.5625 271.875 13.1875 271.875 14.1875V18.125H273.75V5ZM271.125 24.6875H268.5V29.9375H271.125V24.6875ZM267.562 11.375H266.062V18.125H267.562V11.375ZM292.688 25.625V11C292.562 10.125 292.5 8.9375 292.5 7.4375C292.375 5.8125 292.25 4.4375 292.125 3.3125C291.875 2.5625 291.812 2.125 291.938 2C292.188 1.75 292.688 1.625 293.438 1.625C295.188 1.875 297.375 2.375 300 3.125C300.5 3.375 300.812 3.6875 300.938 4.0625H323.438C324.688 1.9375 325.688 0.8125 326.438 0.6875C328.312 1.0625 330.438 2.1875 332.812 4.0625C333.812 4.9375 333.875 5.75 333 6.5C332.25 7 331.875 7.5625 331.875 8.1875V21.875C331.875 23.125 331.875 25.5 331.875 29C331.875 33.625 331.938 37 332.062 39.125C332.062 41.25 331.125 42.875 329.25 44C327.75 44.75 326.125 45.4375 324.375 46.0625C322.75 46.4375 321.875 46.0625 321.75 44.9375C321 42.3125 319.438 40.9375 317.062 40.8125C315.938 40.6875 315.375 40.375 315.375 39.875C315.25 39.25 315.875 39 317.25 39.125C322.5 39.875 324.875 38.5625 324.375 35.1875V13.4375C321 13.4375 317.438 13.4375 313.688 13.4375H305.25C303.875 13.4375 302.875 13.5 302.25 13.625C301.625 13.625 301.062 13.625 300.562 13.625C300.188 13.875 299.938 13.875 299.812 13.625V30.5C299.688 36.25 299.812 40.5 300.188 43.25C300.188 44.125 299.562 44.875 298.312 45.5C298.312 45.5 298.25 45.5625 298.125 45.6875C297.5 45.8125 296.688 46 295.688 46.25C295.062 46.5 294.625 46.6875 294.375 46.8125C292.625 46.9375 291.875 45.9375 292.125 43.8125C292.25 40.1875 292.375 36.6875 292.5 33.3125C292.5 30.0625 292.562 27.5 292.688 25.625ZM309.562 33.6875V35C309.562 36 309 36.625 307.875 36.875C307.25 37.125 306.25 37.375 304.875 37.625C304.625 37.625 304.5 37.625 304.5 37.625C303 37.75 302.375 37.125 302.625 35.75C302.75 34.125 302.812 30.9375 302.812 26.1875V24.125C302.812 21.625 302.75 19.875 302.625 18.875C302.375 18.25 302.375 17.8125 302.625 17.5625C302.875 17.3125 303.375 17.25 304.125 17.375C305.5 17.75 307.625 18.5625 310.5 19.8125H312.938C313.938 17.9375 314.75 16.9375 315.375 16.8125C317.25 17.1875 319.188 18.1875 321.188 19.8125C321.938 20.8125 321.938 21.5625 321.188 22.0625C320.812 22.4375 320.625 22.875 320.625 23.375V24.875C320.625 25.375 320.625 26.5625 320.625 28.4375C320.75 31.0625 320.812 32.75 320.812 33.5C320.812 35 320.312 35.875 319.312 36.125C319.062 36.25 318.875 36.375 318.75 36.5C317.625 36.875 316.688 37.0625 315.938 37.0625C314.438 37.3125 313.75 36.875 313.875 35.75V33.6875H309.562ZM324.375 5.5625H300.375C299.875 5.9375 299.688 6.375 299.812 6.875V11.5625C300.438 11.6875 301.438 11.8125 302.812 11.9375C304.312 11.9375 305.438 11.9375 306.188 11.9375H315.562C317.312 9.5625 318.562 8.3125 319.312 8.1875C320.438 8.3125 322.125 9.5 324.375 11.75V5.5625ZM313.875 21.3125H310.688C309.812 21.3125 309.438 21.5625 309.562 22.0625V32.1875H313.875V21.3125ZM358.312 41H362.438C364.938 41 366.5 39.0625 367.125 35.1875C367.25 34.0625 367.625 33.5 368.25 33.5C368.625 33.5 368.812 34.0625 368.812 35.1875C368.688 37.6875 369.438 39.5625 371.062 40.8125C372.188 41.1875 372.688 41.9375 372.562 43.0625C372.438 43.8125 371.75 44.6875 370.5 45.6875C368.875 46.5625 366.688 47 363.938 47H354.938C349.812 47.125 347.438 45.0625 347.812 40.8125V40.25C347.688 37.875 347.562 35.625 347.438 33.5C347.438 33.5 347.375 33.4375 347.25 33.3125C347.125 33.1875 347.125 33.0625 347.25 32.9375C346.875 33.1875 346.5 33.25 346.125 33.125C344.375 33.25 343.688 32.4375 344.062 30.6875C344.062 30.5625 344.062 30.375 344.062 30.125C344.312 28 344.438 25.875 344.438 23.75C344.438 22.375 344.375 21.4375 344.25 20.9375C344.25 20.1875 344.25 19.4375 344.25 18.6875C344.125 18.0625 344.125 17.625 344.25 17.375C344.5 17.125 344.938 17.0625 345.562 17.1875C346.188 17.4375 346.812 17.625 347.438 17.75C349.188 18.125 350.562 18.5 351.562 18.875C351.812 19 352.062 19.125 352.312 19.25H366.75C367.75 17.875 368.625 17 369.375 16.625H342.75C340.75 16.75 339.188 16.875 338.062 17C337.562 17.25 337.25 17.1875 337.125 16.8125C336.75 16.1875 336.5 15.625 336.375 15.125C336.25 14.875 336.188 14.75 336.188 14.75C336.188 14.625 336.312 14.5625 336.562 14.5625C338.562 15.0625 340.75 15.3125 343.125 15.3125H351.938C351.438 14.8125 351.125 14.0625 351 13.0625C350.625 11.6875 350 10.25 349.125 8.75C348.875 8.625 348.812 8.4375 348.938 8.1875H345.938C344.062 8.3125 342.562 8.4375 341.438 8.5625C341.062 8.6875 340.75 8.5625 340.5 8.1875C340.375 8.1875 340.312 8.125 340.312 8C340.188 7.75 340 7.25 339.75 6.5C339.5 6.125 339.625 6 340.125 6.125C342.75 6.5 345.188 6.6875 347.438 6.6875H357.562C357.438 6.5625 357.312 6.4375 357.188 6.3125C357.062 6.1875 357 6 357 5.75C356.25 3.875 355.312 2.5 354.188 1.625C353.812 1.375 353.688 1.125 353.812 0.875C353.812 0.625 354.062 0.4375 354.562 0.3125C355.438 0.3125 356.312 0.3125 357.188 0.3125C360.062 0.3125 362.125 1.125 363.375 2.75C363.875 4.125 363.688 5.4375 362.812 6.6875H370.688C372.188 4.1875 373.375 2.875 374.25 2.75C375.375 2.875 377.25 4.1875 379.875 6.6875C380.25 7.4375 380.125 7.9375 379.5 8.1875H367.312C368.688 8.8125 369.938 9.5 371.062 10.25C371.438 11 371.25 11.5 370.5 11.75C369.875 11.625 369.312 11.75 368.812 12.125C367.438 13.375 366.25 14.4375 365.25 15.3125H373.688C375.188 12.6875 376.438 11.25 377.438 11C378.938 11.375 380.938 12.8125 383.438 15.3125C383.938 16.1875 383.75 16.6875 382.875 16.8125C380.75 16.6875 376.625 16.625 370.5 16.625H369.562C372.938 18 375.188 19.25 376.312 20.375C376.312 21.125 376 21.5625 375.375 21.6875C374.875 22.0625 374.625 22.5 374.625 23V25.25C374.5 27.5 374.562 29.1875 374.812 30.3125C374.812 31.4375 374.062 32.1875 372.562 32.5625C371.438 32.9375 370.312 33.125 369.188 33.125C367.812 33.25 367.25 32.8125 367.5 31.8125V30.5H351.375V30.875C351.375 31.625 351.188 32.0625 350.812 32.1875C351.188 32.4375 351.875 32.625 352.875 32.75C353.75 32.875 354.438 33 354.938 33.125C355.562 33.375 355.875 33.75 355.875 34.25C356 34.625 355.812 34.9375 355.312 35.1875C354.812 35.5625 354.625 35.9375 354.75 36.3125V38.5625C354.5 40.1875 355.688 41 358.312 41ZM375.562 42.3125C374.562 39.0625 373.125 36.5 371.25 34.625C370.875 34.375 370.75 34.125 370.875 33.875C370.875 33.75 371.125 33.625 371.625 33.5C377 34.375 380.5 36.3125 382.125 39.3125C383 41.1875 382.625 42.875 381 44.375C378.375 45.75 376.562 45.0625 375.562 42.3125ZM339 40.4375C341.25 39.0625 342.625 37.0625 343.125 34.4375C343.125 34.0625 343.25 33.875 343.5 33.875C343.75 33.875 344 34 344.25 34.25C346 38.375 346.25 41.5 345 43.625C343.375 45.5 341.625 46 339.75 45.125C337.625 43.625 337.375 42.0625 339 40.4375ZM351.375 25.625V29.1875H367.5V25.625H351.375ZM367.5 20.75H352.125C351.5 21.125 351.25 21.5 351.375 21.875V24.125H367.5V20.75ZM358.312 37.625C358.062 35.5 357.375 33.6875 356.25 32.1875C355.875 31.9375 355.75 31.6875 355.875 31.4375C356 31.1875 356.312 31.0625 356.812 31.0625C360.562 31.5625 363.062 32.8125 364.312 34.8125C364.938 37.0625 364.312 38.6875 362.438 39.6875C360.188 40.4375 358.812 39.75 358.312 37.625ZM356.438 15.3125H361.875C362.375 13.6875 363.062 11.3125 363.938 8.1875H351.938C354.812 8.8125 356.562 9.8125 357.188 11.1875C357.812 12.9375 357.562 14.3125 356.438 15.3125ZM392.438 19.25V14.75C392.312 9.75 392.062 6.25 391.688 4.25C391.438 2.875 391.938 2.3125 393.188 2.5625C395.438 3.3125 397.625 4 399.75 4.625C399.875 4.75 400.062 4.9375 400.312 5.1875C400.312 5.3125 400.375 5.375 400.5 5.375H418.688C419.812 3.25 420.688 2.1875 421.312 2.1875C423.938 3.0625 426.5 4.625 429 6.875C429.125 7.375 428.812 7.875 428.062 8.375C427.438 8.625 427.188 9.125 427.312 9.875V39.125C427.312 41.75 426.625 43.375 425.25 44C423.625 44.75 422.062 45.3125 420.562 45.6875C419.188 45.8125 418.375 45.375 418.125 44.375C417.5 42.625 416.125 41.5 414 41C413.125 40.875 412.812 40.5625 413.062 40.0625C412.938 39.6875 413.375 39.5625 414.375 39.6875C415.125 39.6875 416.125 39.6875 417.375 39.6875C419.125 39.9375 419.938 39.0625 419.812 37.0625V27.6875H412.875V40.625C412.875 41.125 412.438 41.5625 411.562 41.9375C410.188 42.1875 408.688 42.4375 407.062 42.6875C406.062 42.8125 405.562 42.25 405.562 41V27.6875H398.812C397.688 36.5625 393.562 42.625 386.438 45.875C385.812 46 385.438 45.9375 385.312 45.6875C385.188 45.5625 385.312 45.3125 385.688 44.9375C390.188 40.5625 392.438 32 392.438 19.25ZM419.812 6.6875H412.875V15.6875H419.812V6.6875ZM412.875 17.1875V26.1875H419.812V17.1875H412.875ZM399 26.1875H405.562V17.1875H399.375C399.25 20.5625 399.125 23.5625 399 26.1875ZM399.375 8V15.6875H405.562V6.6875H399.75C399.5 7.0625 399.375 7.5 399.375 8ZM444.75 17.9375V23.5625C445.625 23.1875 446.5 22.875 447.375 22.625L448.5 22.0625V17.375C448.375 13.875 448.125 11.0625 447.75 8.9375C447.5 8.3125 447.438 7.875 447.562 7.625C447.812 7.375 448.312 7.25 449.062 7.25C450.312 7.5 452.562 8 455.812 8.75C456.938 9.375 457.062 10.125 456.188 11C455.562 11.25 455.312 11.75 455.438 12.5V19.4375L458.062 18.3125V7.8125C457.938 7.1875 457.875 6.375 457.875 5.375C457.75 4.375 457.625 3.3125 457.5 2.1875C457.125 0.9375 457.688 0.375 459.188 0.5C460.938 0.75 463 1.125 465.375 1.625C465.875 1.875 466.188 2.25 466.312 2.75C466.312 3.25 466.062 3.5625 465.562 3.6875C465.062 4.0625 464.875 4.5625 465 5.1875V15.6875L468 14.375C469 12.125 469.75 11 470.25 11C473.75 12.5 476.062 13.8125 477.188 14.9375C477.188 15.5625 476.875 16 476.25 16.25C475.875 16.375 475.688 16.875 475.688 17.75C475.562 18.5 475.438 20.4375 475.312 23.5625C475.188 25.4375 475.125 26.75 475.125 27.5C475.125 27.875 475.062 28.25 474.938 28.625C474.938 28.875 474.938 29.0625 474.938 29.1875C475.062 29.0625 475.312 28.9375 475.688 28.8125C476.188 29.0625 476.375 29.625 476.25 30.5C475.75 35.375 476.188 38 477.562 38.375C479.188 39.375 479.938 40.375 479.812 41.375C479.688 42.625 479.125 43.5625 478.125 44.1875C476.875 45.0625 474.75 45.5 471.75 45.5H455.25C450.625 45.5 448.375 43.4375 448.5 39.3125V23.75L447.188 24.125C447.062 24.25 446.875 24.3125 446.625 24.3125C446.125 24.5625 445.5 25 444.75 25.625V33.3125C444.75 34.5625 444.75 36.3125 444.75 38.5625C444.875 40.3125 445 41.8125 445.125 43.0625C445.25 44.8125 444.688 45.875 443.438 46.25C442.438 46.625 441.125 47 439.5 47.375C437.875 47.625 437.188 47 437.438 45.5C437.562 44.125 437.688 42 437.812 39.125C437.812 36 437.875 32.375 438 28.25V22.8125C436.625 24.5625 435.188 26.125 433.688 27.5C433.188 28 432.812 28.1875 432.562 28.0625C432.312 27.9375 432.312 27.5 432.562 26.75C436.438 17.625 438.75 9.5 439.5 2.375C439.625 1 440.25 0.4375 441.375 0.6875C444.25 1.4375 446.625 2.1875 448.5 2.9375C449.5 3.6875 449.438 4.4375 448.312 5.1875C447.562 5.4375 447 6.0625 446.625 7.0625C446 9.3125 445.062 11.5625 443.812 13.8125C443.938 13.9375 444.125 14 444.375 14C444.5 14 444.688 14.0625 444.938 14.1875C445.938 14.6875 446.062 15.3125 445.312 16.0625C444.938 16.4375 444.75 17.0625 444.75 17.9375ZM458.625 39.6875H468.188C471.062 40.4375 473.125 37.4375 474.375 30.6875C473.625 32.4375 471.812 33.625 468.938 34.25C467.688 34.625 466.938 34.3125 466.688 33.3125C466.438 32.0625 465.875 31.0625 465 30.3125C465 30.6875 465 31.1875 465 31.8125C465.125 32.5625 465.188 33.125 465.188 33.5C465.188 34.625 464.625 35.3125 463.5 35.5625C461.875 36.0625 460.25 36.3125 458.625 36.3125C457.625 36.4375 457.188 35.9375 457.312 34.8125C457.438 33.0625 457.562 31.1875 457.688 29.1875C457.812 27.0625 457.938 25 458.062 23V20L455.438 20.9375V35.75C455.188 38.625 456.25 39.9375 458.625 39.6875ZM468.562 15.6875L465 17.1875V26.75V28.25C467.125 28.625 468.188 27.75 468.188 25.625C468.562 20.625 468.688 17.3125 468.562 15.6875ZM506.25 6.875V9.125C506.25 16.375 507.75 22.375 510.75 27.125C514.5 32.75 519.625 36.625 526.125 38.75C527.375 39.25 527.938 39.625 527.812 39.875C527.812 40 527.625 40.125 527.25 40.25C527.125 40.375 526.938 40.5 526.688 40.625C523.938 41.75 522.062 43.25 521.062 45.125C520.438 46.625 519.5 46.8125 518.25 45.6875C509.5 40.8125 505.25 31.5 505.5 17.75C504.625 32.875 496.5 42.25 481.125 45.875C480.75 46 480.5 45.875 480.375 45.5C480.25 45.25 480.438 45 480.938 44.75C492.812 38.5 498.75 26.375 498.75 8.375C498.625 6 498.5 4.375 498.375 3.5C498.125 2.875 498.125 2.4375 498.375 2.1875C498.5 2.0625 499 2 499.875 2C502.25 2.25 504.625 2.6875 507 3.3125C507.625 3.5625 507.938 3.9375 507.938 4.4375C507.938 5.0625 507.625 5.4375 507 5.5625C506.375 5.8125 506.125 6.25 506.25 6.875ZM530.625 31.8125V20.375C530.625 18.125 530.562 16.4375 530.438 15.3125C530.438 13.9375 530.375 12.625 530.25 11.375C530.125 10 530.562 9.5 531.562 9.875C533.438 10.5 535.438 11.3125 537.562 12.3125H537.938C537.938 10.4375 537.938 8.625 537.938 6.875C537.938 5.125 537.938 3.5 537.938 2C537.688 1.25 538.062 0.9375 539.062 1.0625C541.062 1.1875 543.125 1.5 545.25 2C546 2.125 546.375 2.4375 546.375 2.9375C546.5 3.3125 546.25 3.625 545.625 3.875C545 4.375 544.562 4.9375 544.312 5.5625C543.188 8.0625 541.938 10.3125 540.562 12.3125H544.5C545.625 10.6875 546.5 9.8125 547.125 9.6875C549.625 10.5625 551.688 11.9375 553.312 13.8125C553.312 14.4375 553 14.875 552.375 15.125C551.75 15.5 551.5 15.9375 551.625 16.4375V21.875C554 14.5 555.375 7.8125 555.75 1.8125C555.625 1.1875 555.938 0.875 556.688 0.875C559.438 1.375 562.125 2.0625 564.75 2.9375C565.25 3.3125 565.5 3.6875 565.5 4.0625C565.375 4.4375 565.062 4.75 564.562 5C563.562 5.5 563 6.125 562.875 6.875C562.25 8.875 561.562 10.6875 560.812 12.3125H565.5C567 10.3125 568.062 9.25 568.688 9.125C572.062 10.625 574.375 12.125 575.625 13.625C575.625 14.25 575.25 14.75 574.5 15.125C573.75 15.5 573.438 15.9375 573.562 16.4375C573.438 29.4375 573.188 37.625 572.812 41C572.312 44.5 569.5 46.625 564.375 47.375C562.875 47.625 562 47.3125 561.75 46.4375C561 43.5625 559.312 41.75 556.688 41C555.438 41 555 40.6875 555.375 40.0625C555.25 39.5625 555.75 39.4375 556.875 39.6875C560 40.1875 562.062 40.375 563.062 40.25C564.062 40.125 564.688 39.5 564.938 38.375C565.688 31.375 566.125 23.1875 566.25 13.8125H560.062C558.812 16.3125 557.438 18.625 555.938 20.75C560.562 22.125 563.125 24.625 563.625 28.25C563.625 31.375 562.25 33 559.5 33.125C557.25 33.375 556 32.3125 555.75 29.9375C555.875 27.4375 555.438 24.9375 554.438 22.4375C554.188 22.6875 553.938 22.9375 553.688 23.1875C552.812 24.0625 552.125 24.6875 551.625 25.0625V27.6875C551.625 30.9375 551.812 35.375 552.188 41C552.188 41.875 551.75 42.5 550.875 42.875C549.25 43.25 547.875 43.5 546.75 43.625C545.125 43.875 544.438 43.5 544.688 42.5V39.875H537.375V42.125C537.375 43.625 536.75 44.5 535.5 44.75C534.375 45 533.25 45.1875 532.125 45.3125C530.375 45.5625 529.75 44.8125 530.25 43.0625C530.375 39.8125 530.5 36.0625 530.625 31.8125ZM544.688 13.8125H538.125C537.5 14.1875 537.25 14.75 537.375 15.5V25.625H544.688V13.8125ZM537.375 27.125V38.375H544.688V27.125H537.375ZM593.25 10.8125V16.4375H595.312C596.562 14.0625 597.625 12.8125 598.5 12.6875C600 13.3125 601.75 14.5625 603.75 16.4375C604.125 17.3125 603.938 17.8125 603.188 17.9375H593.25V21.125H593.438C597.438 21.625 599.938 22.875 600.938 24.875C602.062 28 601.25 29.9375 598.5 30.6875C596.5 31.1875 595.312 30.5 594.938 28.625C594.562 26.375 594 24.4375 593.25 22.8125V27.875C593.25 31.5 593.375 36.4375 593.625 42.6875C593.75 44.4375 593.125 45.5 591.75 45.875C590.5 46.375 589.188 46.75 587.812 47C585.812 47.375 585.062 46.1875 585.562 43.4375C585.562 42.1875 585.75 37.875 586.125 30.5C583.875 33.875 581.125 36.4375 577.875 38.1875C577.125 38.6875 576.688 38.875 576.562 38.75C576.438 38.625 576.625 38.1875 577.125 37.4375C581.375 30.6875 583.75 24.1875 584.25 17.9375H581.25C579.875 17.9375 578.938 18 578.438 18.125C578.062 18.375 577.75 18.3125 577.5 17.9375C577.375 17.8125 577.25 17.625 577.125 17.375C577 17.125 576.938 16.875 576.938 16.625C576.812 16.375 576.75 16.25 576.75 16.25C576.75 16.125 576.875 16.0625 577.125 16.0625C578.75 16.3125 580.438 16.4375 582.188 16.4375H586.125V9.6875C583.75 9.6875 581.625 9.6875 579.75 9.6875C579 9.6875 578.562 9.5625 578.438 9.3125C578.438 8.9375 578.812 8.625 579.562 8.375C586.438 6.5 591.812 4.5 595.688 2.375C596.438 1.875 597.062 1.875 597.562 2.375C598.688 3.375 600.375 5.125 602.625 7.625C602.875 8.125 602.875 8.5 602.625 8.75C602.375 9 602.062 9 601.688 8.75C601.438 8.75 601.062 8.75 600.562 8.75C600.062 8.625 599.812 8.5625 599.812 8.5625C598.312 8.8125 596.438 9 594.188 9.125C594.188 9.375 594.125 9.5 594 9.5C593.375 9.875 593.125 10.3125 593.25 10.8125ZM615 40.8125C615 40.0625 615 39.3125 615 38.5625C607.75 40.4375 603.5 41.8125 602.25 42.6875C600.625 43.8125 599.688 43.8125 599.438 42.6875C599.188 42.1875 598.938 41.625 598.688 41C598.188 39.75 597.812 38.5625 597.562 37.4375C597.312 36.9375 597.312 36.5625 597.562 36.3125C597.562 36.1875 597.688 36 597.938 35.75C598.062 35.625 598.188 35.5 598.312 35.375C599.438 34.625 600.312 33.4375 600.938 31.8125C603.688 25.1875 605.688 18.4375 606.938 11.5625C607.062 10.6875 607.312 8.8125 607.688 5.9375C607.688 5.5625 607.75 5.1875 607.875 4.8125C607.875 3.8125 608.438 3.375 609.562 3.5C611.562 4.125 614.062 4.9375 617.062 5.9375C618.062 6.6875 618 7.4375 616.875 8.1875C616 8.5625 615.438 9.25 615.188 10.25C612.562 19.25 608.562 27.8125 603.188 35.9375C606.562 35.9375 610.375 35.9375 614.625 35.9375C614.25 32.3125 613.312 28.9375 611.812 25.8125C611.688 25.4375 611.688 25.1875 611.812 25.0625C612.062 24.9375 612.375 24.9375 612.75 25.0625C618.25 29.4375 621.625 33.9375 622.875 38.5625C623.125 42.0625 621.688 44.0625 618.562 44.5625C616.438 44.5625 615.25 43.3125 615 40.8125ZM650.25 6.875V9.125C650.25 16.375 651.75 22.375 654.75 27.125C658.5 32.75 663.625 36.625 670.125 38.75C671.375 39.25 671.938 39.625 671.812 39.875C671.812 40 671.625 40.125 671.25 40.25C671.125 40.375 670.938 40.5 670.688 40.625C667.938 41.75 666.062 43.25 665.062 45.125C664.438 46.625 663.5 46.8125 662.25 45.6875C653.5 40.8125 649.25 31.5 649.5 17.75C648.625 32.875 640.5 42.25 625.125 45.875C624.75 46 624.5 45.875 624.375 45.5C624.25 45.25 624.438 45 624.938 44.75C636.812 38.5 642.75 26.375 642.75 8.375C642.625 6 642.5 4.375 642.375 3.5C642.125 2.875 642.125 2.4375 642.375 2.1875C642.5 2.0625 643 2 643.875 2C646.25 2.25 648.625 2.6875 651 3.3125C651.625 3.5625 651.938 3.9375 651.938 4.4375C651.938 5.0625 651.625 5.4375 651 5.5625C650.375 5.8125 650.125 6.25 650.25 6.875ZM681.75 25.625V16.625H679.312C677.812 20.75 676.062 23.9375 674.062 26.1875C673.688 26.6875 673.375 26.875 673.125 26.75C672.875 26.5 672.812 26.125 672.938 25.625C674.438 20.25 675.188 14.125 675.188 7.25C675.188 6.375 675.562 6.0625 676.312 6.3125C676.812 6.4375 677.562 6.625 678.562 6.875C679.938 7 680.938 7.125 681.562 7.25C681.438 6.875 681.375 6.25 681.375 5.375C681.25 4.25 681.188 3.5625 681.188 3.3125C680.812 1.9375 681.312 1.375 682.688 1.625C683.062 1.75 683.688 1.9375 684.562 2.1875C686.812 2.5625 688.375 2.8125 689.25 2.9375C689.875 3.1875 690.188 3.5625 690.188 4.0625C690.312 4.5625 690.125 4.9375 689.625 5.1875C689 5.5625 688.688 6.125 688.688 6.875V13.0625C689.062 12.6875 689.438 12.4375 689.812 12.3125C690.188 12.3125 691.438 13.0625 693.562 14.5625C694.188 12.6875 694.812 10.5625 695.438 8.1875C695.438 8.0625 695.438 7.75 695.438 7.25C696.062 4.5 696.375 2.75 696.375 2C696.375 1.375 696.938 1.125 698.062 1.25C698.438 1.375 698.938 1.5 699.562 1.625C702.062 2.25 703.875 2.75 705 3.125C705.5 3.25 705.75 3.5625 705.75 4.0625C705.625 4.6875 705.312 5 704.812 5C703.812 5.5 703 6.5 702.375 8C701.625 9.75 700.812 11.375 699.938 12.875H710.062C710.812 11.5 711.625 10.5625 712.5 10.0625C714.875 10.9375 717.125 12.375 719.25 14.375C719.375 14.875 719.125 15.375 718.5 15.875C718 16.125 717.75 16.5625 717.75 17.1875C717 26.9375 716.188 34.875 715.312 41C715.188 43.25 714.062 44.875 711.938 45.875C710.438 46.375 709 46.8125 707.625 47.1875C706.25 47.5625 705.5 47.1875 705.375 46.0625C704.75 44.0625 703.188 42.625 700.688 41.75C699.812 41.5 699.5 41.25 699.75 41C699.75 41 700.125 40.9375 700.875 40.8125C701.5 40.9375 703.188 41 705.938 41C707.562 41 708.5 40.0625 708.75 38.1875C709.125 35.3125 709.5 31.4375 709.875 26.5625C710.375 21.1875 710.75 17.0625 711 14.1875H710.625C706.75 32.0625 700.625 42.25 692.25 44.75C691.625 45 691.25 45 691.125 44.75C691 44.5 691.062 44.1875 691.312 43.8125C691.562 43.6875 691.75 43.5625 691.875 43.4375C696.25 39.8125 700.562 30.0625 704.812 14.1875H704.062C700.938 25.9375 696.312 33.3125 690.188 36.3125C689.562 36.6875 689.188 36.75 689.062 36.5C688.938 36.125 689.188 35.625 689.812 35C693.062 30.5 695.75 24.125 697.875 15.875C696.125 18.25 694.062 20.1875 691.688 21.6875C691.188 22.0625 690.875 22.125 690.75 21.875C690.625 21.75 690.688 21.375 690.938 20.75C691.562 19.625 692.188 18.25 692.812 16.625H688.688V23.5625C689.812 23.1875 690.875 22.875 691.875 22.625C692.5 22.375 692.938 22.4375 693.188 22.8125C693.312 23.0625 693.125 23.4375 692.625 23.9375C692.25 24.3125 691.625 24.75 690.75 25.25C689.75 26 689.062 26.5 688.688 26.75V28.0625C688.688 30.0625 688.688 32.75 688.688 36.125C688.812 39.25 688.938 41.5 689.062 42.875C689.312 44.625 688.688 45.6875 687.188 46.0625C686.188 46.4375 684.938 46.75 683.438 47C681.312 47.625 680.5 46.5 681 43.625C681.125 42.125 681.25 40.4375 681.375 38.5625C681.375 36.4375 681.438 34.125 681.562 31.625C680.938 32 680.188 32.5 679.312 33.125C678.688 33.375 678.312 33.5625 678.188 33.6875C677.562 34.0625 677.125 34.4375 676.875 34.8125C676.375 35.4375 676 35.75 675.75 35.75C675.375 35.75 675.062 35.375 674.812 34.625C674.312 33.875 673.812 32.875 673.312 31.625C672.812 30.625 672.5 29.875 672.375 29.375C672.125 28.625 672.5 28.125 673.5 27.875C674.25 27.75 676.062 27.3125 678.938 26.5625C680.188 26.1875 681.125 25.875 681.75 25.625ZM679.688 15.3125H681.75V11.1875C681.75 10.6875 681.688 10.1875 681.562 9.6875C681.312 10.0625 681.062 10.5625 680.812 11.1875C680.562 12.5625 680.188 13.9375 679.688 15.3125ZM731.438 10.4375V8.9375C731.438 5.8125 731.375 3.875 731.25 3.125C731.125 2.375 731.188 1.9375 731.438 1.8125C731.562 1.5625 732 1.5 732.75 1.625C735.125 2.125 737.25 2.75 739.125 3.5C739.375 3.75 739.625 3.9375 739.875 4.0625H749.25C750.625 1.9375 751.625 0.875 752.25 0.875C754 1.5 756.125 2.6875 758.625 4.4375C759.125 5.3125 759 6.0625 758.25 6.6875C757.5 7.0625 757.188 7.6875 757.312 8.5625C757.312 10.0625 757.312 11.75 757.312 13.625C757.438 15.5 757.562 16.875 757.688 17.75C757.938 19.375 757.375 20.3125 756 20.5625C754 20.9375 752.625 21.125 751.875 21.125C750.5 21.5 749.938 20.9375 750.188 19.4375V17.9375H738.75V18.875C738.75 20 738.25 20.6875 737.25 20.9375C736.125 21.1875 734.75 21.4375 733.125 21.6875C731.375 22.0625 730.688 21.1875 731.062 19.0625C731.188 16.5625 731.312 13.6875 731.438 10.4375ZM745.5 44.375V29C745.5 27.375 745.438 26.3125 745.312 25.8125C745.312 25.0625 745.312 24.4375 745.312 23.9375C745.062 22.8125 745.625 22.375 747 22.625C748.75 23.25 750.75 24 753 24.875C753.375 25.25 753.562 25.4375 753.562 25.4375H756.75C758 23.3125 758.938 22.25 759.562 22.25C761.562 22.875 763.625 24.0625 765.75 25.8125C766.25 26.8125 766.125 27.5 765.375 27.875C764.625 28.375 764.312 29 764.438 29.75C764.438 31.75 764.438 34.0625 764.438 36.6875C764.562 39.3125 764.688 41.1875 764.812 42.3125C764.938 43.5625 764.375 44.5 763.125 45.125C762.375 45.25 761.625 45.375 760.875 45.5C760.25 45.5 759.75 45.5625 759.375 45.6875C758 45.9375 757.375 45.375 757.5 44V41H752.438V43.25C752.438 44.25 751.938 44.9375 750.938 45.3125C749.812 45.6875 748.562 45.9375 747.188 46.0625C745.938 46.3125 745.375 45.75 745.5 44.375ZM723.562 31.4375V29.9375C723.438 27.4375 723.312 25.4375 723.188 23.9375C722.938 22.6875 723.438 22.1875 724.688 22.4375C727.562 23.4375 729.688 24.1875 731.062 24.6875C731.062 24.8125 731.125 24.9375 731.25 25.0625C731.375 25.3125 731.5 25.4375 731.625 25.4375H734.812C736.062 23.1875 737 22.0625 737.625 22.0625C739.125 22.4375 741.188 23.625 743.812 25.625C744.312 26.625 744.188 27.375 743.438 27.875C742.688 28.25 742.375 28.875 742.5 29.75V41.75C742.5 43.375 742.062 44.3125 741.188 44.5625C739.312 44.9375 738.062 45.125 737.438 45.125C736.062 45.375 735.438 44.8125 735.562 43.4375V41H730.5V43.25C730.5 44.375 730 45.125 729 45.5C728.25 45.625 727.5 45.75 726.75 45.875C726.125 45.875 725.625 45.9375 725.25 46.0625C723.5 46.3125 722.812 45.625 723.188 44C723.312 40.25 723.438 36.0625 723.562 31.4375ZM750.188 5.5625H739.5C738.875 5.9375 738.625 6.5 738.75 7.25V16.4375H750.188V5.5625ZM735.562 26.75H731.25C730.625 27.125 730.375 27.6875 730.5 28.4375V39.6875H735.562V26.75ZM757.5 26.75H753.375C752.75 27.125 752.438 27.6875 752.438 28.4375V39.6875H757.5V26.75ZM778.5 47.9375L776.625 46.4375C776.75 46.1875 776.875 45.9375 777 45.6875C779.5 42.9375 780.875 40.75 781.125 39.125C780.875 39.125 780.688 39.125 780.562 39.125C780.438 39.25 780.312 39.3125 780.188 39.3125C777.688 39.1875 776.375 37.8125 776.25 35.1875C776.375 32.8125 777.688 31.5 780.188 31.25C782.688 31.5 784.062 33.25 784.312 36.5C784.312 39.5 782.375 43.3125 778.5 47.9375ZM843.938 6.3125H841.688C840.438 6.4375 839.188 6.5625 837.938 6.6875C837.562 6.8125 837.312 6.6875 837.188 6.3125C836.812 6.1875 836.5 5.75 836.25 5C836 4.625 836.125 4.4375 836.625 4.4375C837.75 4.8125 839.938 4.9375 843.188 4.8125H853.688C854.562 3.1875 855.375 2.3125 856.125 2.1875C857.375 2.4375 859.438 3.375 862.312 5C863.062 5.875 863.125 6.6875 862.5 7.4375C861.75 7.8125 861.438 8.25 861.562 8.75C861.312 10.625 861.125 12.4375 861 14.1875C860.875 15.9375 860.75 17.375 860.625 18.5C860 22 857.5 24.0625 853.125 24.6875C851.75 25.0625 851 24.6875 850.875 23.5625C850.375 21.6875 849.125 20.375 847.125 19.625C847 19.625 846.938 19.625 846.938 19.625C844.312 22.75 840.062 25.125 834.188 26.75C833.688 26.875 833.375 26.8125 833.25 26.5625C833.125 26.4375 833.312 26.1875 833.812 25.8125C840.812 22.3125 844.188 15.8125 843.938 6.3125ZM827.062 41.5625H824.812V43.4375C824.688 44.6875 823.812 45.5625 822.188 46.0625C821.312 46.1875 820.438 46.375 819.562 46.625C818.312 46.75 817.812 46.125 818.062 44.75C818.188 43.5 818.25 41 818.25 37.25V35.375C818.25 32.375 818.188 30.375 818.062 29.375C817.812 28.375 818.25 27.9375 819.375 28.0625C819.75 28.3125 820.188 28.5 820.688 28.625C822.562 29.25 824.062 29.8125 825.188 30.3125H826.312C827.312 28.5625 828.125 27.625 828.75 27.5C830.25 27.75 831.938 28.75 833.812 30.5C834.312 31.375 834.25 32.0625 833.625 32.5625C833.125 33.0625 832.875 33.5625 832.875 34.0625V34.625C832.75 38.625 832.812 41.3125 833.062 42.6875C833.062 43.6875 832.75 44.4375 832.125 44.9375C831.5 45.1875 830.438 45.5 828.938 45.875C827.562 46 826.938 45.4375 827.062 44.1875V41.5625ZM849 41H851.625C853 41.125 854 39.4375 854.625 35.9375C854.625 35.1875 854.875 34.8125 855.375 34.8125C855.75 34.8125 856 35.1875 856.125 35.9375C856.375 38.5625 856.938 40.25 857.812 41C859.438 42 859.625 43.25 858.375 44.75C856.625 46.125 854.438 46.8125 851.812 46.8125H846.562C842.562 47.0625 840.688 45.125 840.938 41V33.6875C840.812 31.6875 840.688 29.9375 840.562 28.4375C840.188 27.1875 840.688 26.6875 842.062 26.9375C843.938 27.1875 845.688 27.4375 847.312 27.6875C848.562 28.3125 848.75 29 847.875 29.75C847.375 30.125 847.188 30.5 847.312 30.875V39.125C847.188 40.375 847.75 41 849 41ZM825.938 9.3125H828.75C830.125 6.8125 831 5.5625 831.375 5.5625C832.625 6.0625 834.062 7.3125 835.688 9.3125C836.062 9.9375 835.938 10.375 835.312 10.625H820.5C819.5 10.75 818.688 10.875 818.062 11C817.562 11.125 817.25 11 817.125 10.625C816.875 10.5 816.625 10.1875 816.375 9.6875C816.375 9.4375 816.375 9.25 816.375 9.125C816.125 9 816.25 8.875 816.75 8.75C817.625 9.125 819.125 9.3125 821.25 9.3125H824.25C822.75 8.9375 822 8.0625 822 6.6875C822.125 5.1875 821.812 3.5625 821.062 1.8125C820.938 1.8125 820.875 1.8125 820.875 1.8125C820.625 1.1875 820.938 0.875 821.812 0.875C824.812 1.125 827 2.125 828.375 3.875C829.125 6.625 828.312 8.4375 825.938 9.3125ZM834 37.25C835.625 35.875 836.562 33.1875 836.812 29.1875C836.812 28.6875 836.938 28.4375 837.188 28.4375C837.438 28.4375 837.75 28.625 838.125 29C840.125 33.625 840.625 37.3125 839.625 40.0625C838.125 42.0625 836.375 42.5 834.375 41.375C833 40.375 832.875 39 834 37.25ZM857.25 36.875C857 33.5 856.312 30.875 855.188 29C854.812 28.75 854.688 28.5 854.812 28.25C854.938 28.125 855.25 28.125 855.75 28.25C859.625 29.75 862.125 31.8125 863.25 34.4375C863.75 37.0625 863.062 38.8125 861.188 39.6875C858.812 40.4375 857.5 39.5 857.25 36.875ZM854.625 6.3125H851.062C850.812 11.6875 849.75 15.6875 847.875 18.3125C851.875 18.8125 853.875 17.8125 853.875 15.3125C854 13.8125 854.125 12.1875 854.25 10.4375C854.375 8.6875 854.5 7.3125 854.625 6.3125ZM849.188 31.625C848.688 28.5 848 26.25 847.125 24.875C846.875 24.625 846.812 24.375 846.938 24.125C847.062 24 847.375 23.9375 847.875 23.9375C851.125 24.8125 853.438 26.8125 854.812 29.9375C855.188 32.0625 854.438 33.4375 852.562 34.0625C850.312 34.6875 849.188 33.875 849.188 31.625ZM836.062 13.4375C837.562 12.8125 838.875 11.25 840 8.75C840.125 8.5 840.25 8.3125 840.375 8.1875C840.625 8.3125 840.812 8.5 840.938 8.75C842.188 12.25 842.25 15 841.125 17C839.25 19.25 837.375 19.625 835.5 18.125C833.875 16.25 834.062 14.6875 836.062 13.4375ZM822.375 15.875H827.812C828.812 13.875 829.625 12.8125 830.25 12.6875C831 12.9375 832.312 14 834.188 15.875C834.312 16.875 834.062 17.375 833.438 17.375H821.812C820.562 17.5 819.562 17.625 818.812 17.75C818.562 18 818.375 17.875 818.25 17.375C818 17.125 817.75 16.75 817.5 16.25C817.25 16.125 817.125 16 817.125 15.875C817.25 15.875 817.438 15.8125 817.688 15.6875C818.312 15.9375 819.875 16 822.375 15.875ZM822.75 23.1875H827.812C828.688 21.3125 829.5 20.25 830.25 20C831 20.25 832.25 21.25 834 23C834.375 24 834.188 24.5 833.438 24.5H822.188C820.812 24.625 819.812 24.75 819.188 24.875C818.938 25 818.75 25 818.625 24.875C818.5 24.75 818.438 24.625 818.438 24.5C818.312 24.5 818.188 24.375 818.062 24.125C817.938 23.875 817.812 23.625 817.688 23.375C817.438 23 817.562 22.8125 818.062 22.8125C819.312 23.0625 820.875 23.1875 822.75 23.1875ZM827.062 31.8125H825.75C825 31.8125 824.688 32.125 824.812 32.75V40.4375H827.062V31.8125ZM892.5 16.8125H894C895 15.1875 895.812 14.375 896.438 14.375C898.438 15 900.312 16.25 902.062 18.125C902.312 18.875 902.188 19.375 901.688 19.625C900.938 20 900.5 20.5625 900.375 21.3125V21.6875C900.75 21.3125 901.125 21.0625 901.5 20.9375C903 21.3125 904.688 22.5 906.562 24.5C906.688 25.25 906.5 25.75 906 26C905.375 26.375 905.062 26.9375 905.062 27.6875L904.875 28.0625C905.375 27.5625 905.875 27.25 906.375 27.125C908.25 28 909.938 29.375 911.438 31.25C911.312 31.75 911 32.1875 910.5 32.5625C910 33.1875 909.75 33.875 909.75 34.625C909.5 36.875 909.125 39.0625 908.625 41.1875C908.125 43.6875 907.062 45.3125 905.438 46.0625C904.062 46.5625 902.562 47 900.938 47.375C899.438 47.625 898.688 47.3125 898.688 46.4375C898.062 44.3125 896.812 42.875 894.938 42.125C894.188 41.625 893.875 41.3125 894 41.1875C894 41.0625 894.438 41 895.312 41C899.438 41 901.562 40.4375 901.688 39.3125C902.062 37.3125 902.438 34.6875 902.812 31.4375H877.688C876.438 37.8125 872.75 42.75 866.625 46.25C865.875 46.625 865.375 46.6875 865.125 46.4375C865 46.1875 865.188 45.8125 865.688 45.3125C869.438 40.3125 871.312 33.8125 871.312 25.8125V23.5625C871.312 20.8125 871.062 18.4375 870.562 16.4375C870.312 15.1875 870.812 14.625 872.062 14.75C873.062 15 874.875 15.5 877.5 16.25C877.875 16.5 878.312 16.625 878.812 16.625L879 16.8125H889.688C891.438 13.4375 892.625 10.0625 893.25 6.6875H884.438C886.438 7.1875 887.938 8.125 888.938 9.5C889.938 11.75 889.375 13.4375 887.25 14.5625C884.75 15.4375 883.25 14.625 882.75 12.125C882.5 10.25 881.75 8.5 880.5 6.875C880.25 6.875 880.188 6.8125 880.312 6.6875C879.062 6.6875 877.25 6.6875 874.875 6.6875C872.375 6.5625 870.625 6.4375 869.625 6.3125C869 6.3125 868.625 6.1875 868.5 5.9375C868.5 5.5625 868.812 5.3125 869.438 5.1875C881.812 3.8125 890.812 2.3125 896.438 0.6875C897.438 0.4375 898.438 0.5625 899.438 1.0625C901.062 2.3125 902.812 3.8125 904.688 5.5625C904.938 5.9375 904.938 6.3125 904.688 6.6875C904.312 6.9375 903.938 6.9375 903.562 6.6875C903.188 6.5625 902.688 6.5 902.062 6.5C901.938 6.5 901.75 6.5 901.5 6.5C900.625 6.5 899.812 6.5 899.062 6.5C899.312 6.75 899.688 7 900.188 7.25C900.688 7.5 901.125 7.6875 901.5 7.8125C902.25 8.5625 902.188 9.1875 901.312 9.6875C900.188 9.9375 899.375 10.3125 898.875 10.8125C896.875 13.1875 894.75 15.1875 892.5 16.8125ZM899.625 24.875H878.25V25.25C878.25 26.5 878.188 27.4375 878.062 28.0625C878.062 28.8125 878 29.4375 877.875 29.9375H898.688L899.625 24.875ZM894.562 18.3125H879.188C879.062 18.3125 879 18.375 879 18.5C878.5 18.875 878.25 19.4375 878.25 20.1875V23.375H893.625L894.562 18.3125ZM873.375 12.3125C873 11.0625 872.312 9.5625 871.312 7.8125C870.938 7.5625 870.812 7.375 870.938 7.25C870.938 7.125 871.188 7 871.688 6.875C875.188 7.125 877.688 8.125 879.188 9.875C880.562 12.375 880.062 14.25 877.688 15.5C875.188 16.125 873.75 15.0625 873.375 12.3125ZM876.562 38.1875C877.688 37.6875 878.688 36.25 879.562 33.875C879.688 33.625 879.875 33.5 880.125 33.5C880.375 33.5 880.562 33.6875 880.688 34.0625C881.562 37.5625 881.438 40.25 880.312 42.125C878.438 43.625 876.812 43.6875 875.438 42.3125C874.188 40.9375 874.562 39.5625 876.562 38.1875ZM883.125 39.875C883.25 37.875 882.938 36.125 882.188 34.625C881.938 34.375 881.875 34.1875 882 34.0625C882.125 33.9375 882.375 33.875 882.75 33.875C885.625 34.75 887.438 36.0625 888.188 37.8125C888.812 40.0625 888.188 41.4375 886.312 41.9375C884.312 42.0625 883.25 41.375 883.125 39.875ZM889.875 38.75C889.75 37.25 889.25 35.8125 888.375 34.4375C888.25 34.1875 888.188 34 888.188 33.875C888.312 33.75 888.562 33.6875 888.938 33.6875C892.062 34.0625 894 35.3125 894.75 37.4375C895.5 39.5625 894.938 40.75 893.062 41C891.188 41.375 890.125 40.625 889.875 38.75ZM896.438 38C896.062 36.25 895.375 34.8125 894.375 33.6875C894 33.5625 893.812 33.4375 893.812 33.3125C893.938 33.1875 894.188 33.0625 894.562 32.9375C897.562 32.6875 899.625 33.4375 900.75 35.1875C901.5 36.8125 901.25 38.1875 900 39.3125C898.25 40.3125 897.062 39.875 896.438 38ZM923.062 12.875H917.25C916.25 13 915.312 13.125 914.438 13.25C914.062 13.375 913.75 13.375 913.5 13.25C913.5 13.125 913.5 13 913.5 12.875C913.375 12.875 913.25 12.75 913.125 12.5C913 12.25 912.875 12 912.75 11.75C912.5 11.375 912.625 11.25 913.125 11.375C914.875 11.625 916.562 11.75 918.188 11.75H923.25C923.875 10.125 924.5 9.3125 925.125 9.3125C926.75 9.8125 928.688 10.8125 930.938 12.3125C931.562 13.3125 931.5 13.9375 930.75 14.1875C930.125 14.6875 929.625 15.1875 929.25 15.6875C929 16.0625 928.75 16.375 928.5 16.625C927.75 17.875 926.75 19.25 925.5 20.75V23.75C926.375 22.375 927.25 20.75 928.125 18.875C928.25 18.125 928.812 17.9375 929.812 18.3125C930.312 18.8125 931 19.3125 931.875 19.8125V14.5625C931.75 12.9375 931.688 11.375 931.688 9.875C931.562 8.5 931.438 7.4375 931.312 6.6875C931.188 5.9375 931.25 5.5 931.5 5.375C931.625 5.125 932.062 5.0625 932.812 5.1875C935.188 5.6875 937.375 6.375 939.375 7.25C939.5 7.25 939.562 7.3125 939.562 7.4375C943.562 6.1875 947 4.1875 949.875 1.4375C950.375 1.0625 951.062 1.0625 951.938 1.4375C952.062 1.6875 952.25 1.875 952.5 2C954.625 3.875 956.125 5.3125 957 6.3125C957.5 6.9375 957.625 7.375 957.375 7.625C957.25 8 956.875 8.125 956.25 8C955.625 8 954.938 8 954.188 8C952.312 8.375 950.562 8.5625 948.938 8.5625C948.812 10.4375 948.812 12.3125 948.938 14.1875C948.938 16.0625 949.062 18.0625 949.312 20.1875H950.812C952.062 17.9375 953.188 16.625 954.188 16.25C956.188 17.125 957.875 18.5 959.25 20.375C959.5 20.875 959.562 21.25 959.438 21.5C959.312 21.75 959.062 21.875 958.688 21.875C957.812 21.875 956.438 21.875 954.562 21.875C952.938 21.75 951.875 21.6875 951.375 21.6875H949.5C950.125 29.8125 951.188 34.6875 952.688 36.3125C953.312 37.5625 954.5 35.9375 956.25 31.4375C956.5 30.6875 956.875 30.3125 957.375 30.3125C957.625 30.4375 957.812 30.9375 957.938 31.8125C957.812 34.1875 957.812 36.5 957.938 38.75C958.188 40.75 958.5 42.125 958.875 42.875C959.5 46 958.312 47.3125 955.312 46.8125C950.438 45.4375 947.125 41.75 945.375 35.75C939.625 40.75 936.438 44 935.812 45.5C934.938 47.375 934.062 47.75 933.188 46.625C931.688 44.875 930.5 43.1875 929.625 41.5625C929 40.9375 929.125 40.25 930 39.5C931.25 38.5 931.875 37.1875 931.875 35.5625V33.3125C929.75 34.6875 928.188 34.3125 927.188 32.1875C926.812 30.5625 926.25 29.25 925.5 28.25V36.3125C925.5 37.0625 925.5 38.25 925.5 39.875C925.625 41.25 925.688 42.375 925.688 43.25C925.688 45.375 925.125 46.5625 924 46.8125C923.375 46.9375 922.312 47.125 920.812 47.375C920.562 47.375 920.375 47.4375 920.25 47.5625C918.625 47.9375 917.938 47.0625 918.188 44.9375C918.312 43.1875 918.375 41.5 918.375 39.875C918.5 38.25 918.562 35.8125 918.562 32.5625V27.3125C917.188 28.3125 915.562 29.3125 913.688 30.3125C913.062 30.6875 912.625 30.6875 912.375 30.3125C912.25 30.0625 912.438 29.6875 912.938 29.1875C918.188 23.5625 921.562 18.125 923.062 12.875ZM943.125 21.6875H938.812V35.9375C940.938 35.1875 942.938 34.4375 944.812 33.6875C944.062 30.5625 943.5 26.5625 943.125 21.6875ZM919.688 7.4375C919.312 5.6875 918.438 4.0625 917.062 2.5625C916.688 2.3125 916.562 2.125 916.688 2C916.812 1.875 917.125 1.75 917.625 1.625C921 1.375 923.562 2 925.312 3.5C926.812 6 926.438 8 924.188 9.5C921.688 10.25 920.188 9.5625 919.688 7.4375ZM938.812 10.625V20.1875H942.938C942.688 17.0625 942.625 13.375 942.75 9.125C942.25 9.125 941.688 9.1875 941.062 9.3125C940.312 9.4375 939.75 9.4375 939.375 9.3125C939 9.5625 938.812 10 938.812 10.625ZM931.875 28.4375V23.1875C931.625 23.1875 931.438 23.25 931.312 23.375C930.812 23.625 930.125 24 929.25 24.5C927.375 25.375 926.125 25.9375 925.5 26.1875V26.375C928.25 26.5 930.312 27.0625 931.688 28.0625C931.688 28.1875 931.75 28.3125 931.875 28.4375ZM973.125 23.375V23.75C973.125 24.625 972.375 25.25 970.875 25.625C969.875 25.875 968.75 26.0625 967.5 26.1875C966 26.5625 965.375 25.9375 965.625 24.3125C965.625 23.8125 965.625 23.0625 965.625 22.0625C965.875 20.3125 966 18.6875 966 17.1875C965.875 16.5625 965.812 15.5 965.812 14C965.688 12.375 965.625 11.25 965.625 10.625C965.375 9.375 965.875 8.875 967.125 9.125C968.875 9.5 971.125 10.3125 973.875 11.5625H976.312V5.75H969.938C968.688 5.875 967.312 5.9375 965.812 5.9375C964.438 6.0625 963.375 6.1875 962.625 6.3125C962.25 6.5625 961.938 6.4375 961.688 5.9375C961.312 5.4375 960.938 4.875 960.562 4.25C960.438 4.125 960.438 4 960.562 3.875C960.562 3.875 960.75 3.875 961.125 3.875C962.25 4 964.125 4.1875 966.75 4.4375C969 4.4375 970.688 4.4375 971.812 4.4375H996.562C998.438 1.8125 999.75 0.4375 1000.5 0.3125C1001.75 0.5625 1003.81 1.875 1006.69 4.25C1007.44 5.375 1007.25 6 1006.12 6.125C1005.5 6.125 1004.62 6.125 1003.5 6.125C999.375 5.875 996 5.75 993.375 5.75H991.875V11.5625H993.938C995.312 9.8125 996.438 8.8125 997.312 8.5625C999.062 8.8125 1001.12 9.875 1003.5 11.75C1004.25 12.75 1004.19 13.4375 1003.31 13.8125C1002.69 14.1875 1002.38 14.75 1002.38 15.5C1002.38 16.75 1002.44 18.1875 1002.56 19.8125C1002.56 20.9375 1002.62 21.8125 1002.75 22.4375C1002.88 23.5625 1002.5 24.3125 1001.62 24.6875C1003 25.1875 1004.81 26.5 1007.06 28.625C1007.69 30 1007.44 30.6875 1006.31 30.6875C1005.31 30.6875 1003.88 30.6875 1002 30.6875C1000 30.5625 998.5 30.5 997.5 30.5C997.375 30.75 997.062 31.0625 996.562 31.4375C996.438 31.4375 996.375 31.4375 996.375 31.4375C995.875 31.5625 995.5 31.9375 995.25 32.5625C994.875 33.0625 994.562 33.5625 994.312 34.0625C994.062 34.6875 993.5 35.5625 992.625 36.6875C993.25 36.9375 993.938 37.125 994.688 37.25C996.688 37.75 998.188 38.125 999.188 38.375C1002.69 39.875 1004.38 41.875 1004.25 44.375C1003.88 46 1002.81 47 1001.06 47.375C999.812 47.375 998.375 46.6875 996.75 45.3125C994.375 43.4375 991.625 42 988.5 41C983.75 44.875 975.438 46.9375 963.562 47.1875C962.938 47.0625 962.562 46.875 962.438 46.625C962.438 46.25 962.75 46 963.375 45.875C971.125 43.875 977 41.3125 981 38.1875C980.625 38.1875 980.062 38.125 979.312 38C978.438 37.75 977.812 37.5625 977.438 37.4375L977.25 37.625C976.875 38 976.5 38.5 976.125 39.125C975.5 39.75 974.812 39.8125 974.062 39.3125C973.812 39.3125 973.5 39.125 973.125 38.75C971.25 37.625 970.062 36.75 969.562 36.125C969.062 35.625 969.312 35.0625 970.312 34.4375C970.562 34.3125 971 33.875 971.625 33.125L973.5 30.5H969.188C966.438 30.625 964.062 30.75 962.062 30.875C961.688 31 961.375 30.875 961.125 30.5C960.875 30.375 960.688 30.125 960.562 29.75C960.438 29.5 960.312 29.25 960.188 29C960.062 28.625 960.188 28.4375 960.562 28.4375C961.438 28.6875 962.812 28.875 964.688 29C966.688 29 968.75 29 970.875 29H974.438L978.375 23.375H973.125ZM995.062 23.375H988.312C988.312 24 987.938 24.4375 987.188 24.6875C986.562 24.6875 986 25.0625 985.5 25.8125L983.25 29H997.125C998 27.5 998.875 26.3125 999.75 25.4375C999.375 25.4375 998.875 25.5625 998.25 25.8125C997.875 25.8125 997.562 25.8125 997.312 25.8125C995.688 26.3125 994.938 25.9375 995.062 24.6875V23.375ZM995.25 13.0625H991.875V21.875H995.25V13.0625ZM982.5 13.0625V21.875H985.688V13.0625H982.5ZM973.125 14.1875V21.875H976.312V13.0625H974.25C973.375 13.0625 973 13.4375 973.125 14.1875ZM987.562 30.5H982.312L978.938 35.375C979.438 35.375 980.25 35.4375 981.375 35.5625C982.375 35.5625 983.125 35.5625 983.625 35.5625C985.125 34.0625 986.438 32.375 987.562 30.5ZM982.5 5.75V11.5625H985.688V5.75H982.5ZM1040.44 5H1036.31C1036.06 5 1036 5 1036.12 5C1035.38 5.5 1035.06 6.0625 1035.19 6.6875C1035.06 14.0625 1032.31 19.125 1026.94 21.875C1028.69 22.125 1030.19 22.25 1031.44 22.25H1040.81C1041.69 20.75 1042.38 20 1042.88 20C1044.88 20.75 1047 21.9375 1049.25 23.5625C1049.88 24.0625 1050.19 24.5 1050.19 24.875C1050.19 25.25 1049.88 25.5625 1049.25 25.8125C1048.75 26.0625 1048.25 26.625 1047.75 27.5C1047.62 27.75 1047.56 27.9375 1047.56 28.0625C1046.06 31.0625 1044.5 33.5625 1042.88 35.5625C1045.75 36.8125 1049.56 37.6875 1054.31 38.1875C1055.19 38.3125 1055.62 38.5625 1055.62 38.9375C1055.62 39.3125 1055.31 39.6875 1054.69 40.0625C1052.81 40.8125 1051.5 42.4375 1050.75 44.9375C1050.38 45.6875 1049.69 45.8125 1048.69 45.3125C1044.19 43.5625 1040.69 41.75 1038.19 39.875C1034.69 41.875 1029 43.75 1021.12 45.5C1020.25 45.5 1019.75 45.4375 1019.62 45.3125C1019.5 44.9375 1019.94 44.5625 1020.94 44.1875C1027.19 41.1875 1031.69 38.3125 1034.44 35.5625C1032.44 32.3125 1030.94 28.375 1029.94 23.75C1028.69 23.75 1027.94 23.8125 1027.69 23.9375C1027.31 24.0625 1027.06 23.9375 1026.94 23.5625C1026.56 23.3125 1026.31 22.875 1026.19 22.25C1025.81 22.5 1025.38 22.6875 1024.88 22.8125C1024.38 23.0625 1024 23.25 1023.75 23.375C1022.88 23.75 1022.38 23.8125 1022.25 23.5625C1022.12 23.1875 1022.38 22.625 1023 21.875C1025.5 19.25 1027.06 16.75 1027.69 14.375C1028.44 11.875 1028.62 7.8125 1028.25 2.1875C1028.25 1.3125 1028.75 0.9375 1029.75 1.0625C1030.25 1.3125 1030.81 1.5 1031.44 1.625C1033.69 2.25 1035.12 2.6875 1035.75 2.9375C1036.12 3.1875 1036.44 3.375 1036.69 3.5H1039.69C1040.94 1.25 1041.88 0.1875 1042.5 0.3125C1045 1.3125 1047.19 2.8125 1049.06 4.8125C1049.19 5.5625 1048.88 6.125 1048.12 6.5C1047.62 6.75 1047.38 7.375 1047.38 8.375V12.5C1047.25 13.875 1048.25 14.1875 1050.38 13.4375C1051.25 13.0625 1052 13.125 1052.62 13.625C1054 15.125 1054.88 16.375 1055.25 17.375C1055.62 18.5 1055.38 19.1875 1054.5 19.4375C1051.88 19.9375 1049.31 20.1875 1046.81 20.1875C1042.06 20.4375 1039.94 18.625 1040.44 14.75V5ZM1015.88 44.9375C1013 44.3125 1012 42.5625 1012.88 39.6875C1013.75 36.6875 1014.06 34.3125 1013.81 32.5625C1013.69 31.6875 1012.75 30.8125 1011 29.9375C1010.38 29.8125 1010.12 29.5 1010.25 29C1010.12 28.5 1010.38 28.3125 1011 28.4375C1013.5 28.8125 1015.31 28.0625 1016.44 26.1875C1018.81 21.5625 1021.38 14.875 1024.12 6.125C1024.25 5.625 1024.5 5.4375 1024.88 5.5625C1025.38 5.6875 1025.56 6 1025.44 6.5C1022.56 17 1020.81 24.6875 1020.19 29.5625C1019.94 31.0625 1019.88 32.625 1020 34.25C1020.12 35.625 1020.5 37.625 1021.12 40.25C1021.12 43.625 1019.38 45.1875 1015.88 44.9375ZM1011.75 18.875C1011.38 17 1010.38 15.25 1008.75 13.625C1008.38 13.375 1008.25 13.1875 1008.38 13.0625C1008.5 12.9375 1008.81 12.8125 1009.31 12.6875C1013.94 12.4375 1017 13.375 1018.5 15.5C1019.25 18.375 1018.5 20.375 1016.25 21.5C1013.88 22.125 1012.38 21.25 1011.75 18.875ZM1015.88 7.625C1015.5 5.75 1014.5 4 1012.88 2.375C1012.5 2.125 1012.38 1.9375 1012.5 1.8125C1012.62 1.6875 1012.94 1.5625 1013.44 1.4375C1017.94 1.3125 1021 2.25 1022.62 4.25C1023.62 6.875 1022.81 8.875 1020.19 10.25C1017.94 10.875 1016.5 10 1015.88 7.625ZM1040.62 23.75H1031.44C1033.31 27.125 1035.31 29.8125 1037.44 31.8125C1038.81 29.4375 1039.88 26.75 1040.62 23.75ZM1080.56 9.5H1092.75C1094.75 6.5 1096 4.9375 1096.5 4.8125C1098.75 5.6875 1100.94 7.3125 1103.06 9.6875C1103.31 10.0625 1103.44 10.4375 1103.44 10.8125C1103.31 11.0625 1103.06 11.1875 1102.69 11.1875C1100.94 11.1875 1099.12 11.1875 1097.25 11.1875C1095.62 11.0625 1093.19 11 1089.94 11H1079.81C1078.69 13.625 1077.38 15.9375 1075.88 17.9375H1087.12C1088.12 16.1875 1088.94 15.25 1089.56 15.125C1092.69 16.25 1095.19 17.75 1097.06 19.625C1096.94 20.125 1096.62 20.625 1096.12 21.125C1095.5 21.375 1095.25 21.875 1095.38 22.625V41.75C1095.5 43.875 1094.38 45.3125 1092 46.0625C1090.62 46.5625 1089.12 47 1087.5 47.375C1085.88 47.75 1085.12 47.4375 1085.25 46.4375C1085 44.4375 1083.75 43 1081.5 42.125C1080.75 41.75 1080.44 41.4375 1080.56 41.1875C1080.44 41.0625 1080.88 41 1081.88 41C1082 41 1082.19 41 1082.44 41C1083.81 41.125 1085 41.25 1086 41.375C1087.25 41.375 1087.88 40.625 1087.88 39.125V33.5H1076.62V44.375C1076.62 45.625 1076.12 46.375 1075.12 46.625C1074.38 46.75 1073.56 46.875 1072.69 47C1071.81 47 1071 47.0625 1070.25 47.1875C1069.12 47.1875 1068.69 46.625 1068.94 45.5C1069.31 43.25 1069.56 39.8125 1069.69 35.1875V25.4375C1066.31 28.3125 1062.62 30.625 1058.62 32.375C1058.12 32.625 1057.75 32.625 1057.5 32.375C1057.25 32 1057.38 31.5625 1057.88 31.0625C1064.12 25.4375 1068.69 18.75 1071.56 11H1066.12C1064.88 11.125 1063.56 11.1875 1062.19 11.1875C1061.06 11.3125 1060.19 11.4375 1059.56 11.5625C1059.19 11.6875 1058.88 11.5625 1058.62 11.1875C1058.38 11.0625 1058.19 10.8125 1058.06 10.4375C1057.81 10.1875 1057.62 9.9375 1057.5 9.6875C1057.38 9.4375 1057.31 9.3125 1057.31 9.3125C1057.31 9.1875 1057.5 9.125 1057.88 9.125C1060.38 9.375 1063.69 9.5 1067.81 9.5H1072.12C1073.12 6.375 1073.81 3.8125 1074.19 1.8125C1074.19 0.8125 1074.75 0.4375 1075.88 0.6875C1079.75 1.6875 1082.5 2.375 1084.12 2.75C1084.62 3 1084.88 3.375 1084.88 3.875C1084.75 4.5 1084.44 4.8125 1083.94 4.8125C1083.81 4.9375 1083.69 5 1083.56 5C1082.69 5.375 1082.12 5.9375 1081.88 6.6875C1081.62 7.0625 1081.38 7.5625 1081.12 8.1875C1080.88 8.8125 1080.69 9.25 1080.56 9.5ZM1076.62 26.375V32.1875H1087.88V26.375H1076.62ZM1076.62 20.5625V25.0625H1087.88V19.4375H1076.81C1076.56 19.6875 1076.5 20.0625 1076.62 20.5625ZM1116.38 28.4375V35.9375C1116.25 39.3125 1116.31 41.75 1116.56 43.25C1116.69 45 1116.06 46.0625 1114.69 46.4375C1113.56 46.6875 1112.44 46.9375 1111.31 47.1875C1109.31 47.4375 1108.5 46.8125 1108.88 45.3125C1109 44.1875 1109.12 42.75 1109.25 41C1109.25 39.375 1109.31 37.3125 1109.44 34.8125V27.5C1108.06 28.25 1106.75 29 1105.5 29.75C1105 30 1104.69 30 1104.56 29.75C1104.44 29.625 1104.56 29.3125 1104.94 28.8125C1109.56 23.9375 1112.88 18.5625 1114.88 12.6875H1108.88C1107.62 12.6875 1106.62 12.75 1105.88 12.875C1105.5 13 1105.25 13 1105.12 12.875C1105 12.875 1104.94 12.8125 1104.94 12.6875C1104.81 12.5625 1104.69 12.375 1104.56 12.125C1104.44 11.875 1104.38 11.625 1104.38 11.375C1104.25 11.25 1104.19 11.125 1104.19 11C1104.19 10.875 1104.31 10.8125 1104.56 10.8125C1105.44 11.1875 1107.12 11.3125 1109.62 11.1875H1114.69C1115.56 9.8125 1116.31 9.0625 1116.94 8.9375C1118.94 9.6875 1120.94 10.8125 1122.94 12.3125C1123.56 13.3125 1123.44 13.9375 1122.56 14.1875C1121.69 14.6875 1121.06 15.3125 1120.69 16.0625C1119.44 17.9375 1118 19.8125 1116.38 21.6875V26.5625H1117.12C1117.88 24.6875 1118.38 22.75 1118.62 20.75C1118.5 19.875 1119 19.625 1120.12 20C1121.38 20.375 1122.62 20.8125 1123.88 21.3125V17.375C1123.75 15.75 1123.69 14.125 1123.69 12.5C1123.56 11 1123.44 9.9375 1123.31 9.3125C1123.06 8.5625 1123.06 8.0625 1123.31 7.8125C1123.56 7.5625 1124.06 7.5 1124.81 7.625C1126.94 8.125 1129 8.8125 1131 9.6875C1131.12 9.9375 1131.31 10.0625 1131.56 10.0625H1133.62V6.6875C1133.62 4.5625 1133.5 3 1133.25 2C1133 1.25 1133 0.8125 1133.25 0.6875C1133.38 0.5625 1133.94 0.5 1134.94 0.5C1136.81 0.75 1138.94 1.1875 1141.31 1.8125C1142.06 2.3125 1142 2.9375 1141.12 3.6875C1140.75 4.0625 1140.56 4.6875 1140.56 5.5625V10.0625H1143C1144 8.4375 1144.94 7.4375 1145.81 7.0625C1147.44 7.6875 1149.31 9.125 1151.44 11.375C1151.69 12 1151.75 12.5 1151.62 12.875C1151.38 13.25 1150.81 13.375 1149.94 13.25C1147.56 13.875 1145.44 15.0625 1143.56 16.8125C1143.06 17.1875 1142.69 17.3125 1142.44 17.1875C1142.19 17.0625 1142.12 16.6875 1142.25 16.0625L1143.38 11.5625H1140.56V22.4375H1140.75C1141.75 20.9375 1142.56 20.125 1143.19 20C1144.94 20.625 1146.94 21.8125 1149.19 23.5625C1149.69 24.0625 1149.94 24.5625 1149.94 25.0625C1149.81 25.6875 1149.44 26 1148.81 26C1147.94 26.125 1147.44 26.8125 1147.31 28.0625C1146.31 31.6875 1144.81 34.75 1142.81 37.25C1145.06 38.5 1147.69 39.5625 1150.69 40.4375C1151.44 40.6875 1151.81 40.875 1151.81 41C1151.81 41 1151.44 41.25 1150.69 41.75C1149.44 42.25 1148 43.6875 1146.38 46.0625C1145.75 47.1875 1144.94 47.375 1143.94 46.625C1141.31 45.375 1139.19 43.75 1137.56 41.75C1133.94 44.125 1129.38 45.875 1123.88 47C1122.88 47.25 1122.38 47.1875 1122.38 46.8125C1122 46.3125 1122.31 45.875 1123.31 45.5C1128.19 43.125 1132 40.5625 1134.75 37.8125C1132.88 34.3125 1131.81 29.6875 1131.56 23.9375H1130.81C1131.31 34.6875 1127 42.375 1117.88 47C1117.38 47.25 1117.06 47.3125 1116.94 47.1875C1116.69 47.0625 1116.75 46.75 1117.12 46.25C1120 42.375 1121.81 39.0625 1122.56 36.3125C1123.44 33.4375 1123.88 28.9375 1123.88 22.8125C1123.75 22.8125 1123.69 22.8125 1123.69 22.8125C1123.06 22.8125 1122.62 23.0625 1122.38 23.5625C1121.5 24.8125 1120.44 25.875 1119.19 26.75C1120.56 27.125 1121.75 27.75 1122.75 28.625C1124 30.875 1123.69 32.6875 1121.81 34.0625C1119.69 34.8125 1118.38 34.3125 1117.88 32.5625C1117.5 30.9375 1117 29.5625 1116.38 28.4375ZM1109.62 8C1109.12 5.5 1108.25 3.5 1107 2C1106.62 1.75 1106.5 1.5 1106.62 1.25C1106.62 1.125 1106.88 1 1107.38 0.875C1111.5 0.875 1114.25 1.875 1115.62 3.875C1116.38 6.625 1115.62 8.5625 1113.38 9.6875C1111.25 10.4375 1110 9.875 1109.62 8ZM1140.94 23.9375H1133.06C1134.31 28.3125 1136 31.4375 1138.12 33.3125C1139.62 30.5625 1140.56 27.4375 1140.94 23.9375ZM1130.81 12.875V22.4375H1133.62V11.5625H1131.56L1131.38 11.75C1130.88 12.125 1130.69 12.5 1130.81 12.875ZM1167.75 6.5H1159.5C1158.25 6.5 1157.31 6.5625 1156.69 6.6875C1156.31 6.8125 1156 6.6875 1155.75 6.3125C1155.5 6.1875 1155.25 5.75 1155 5C1154.75 4.625 1154.88 4.5 1155.38 4.625C1157.12 4.875 1158.75 5 1160.25 5H1167.38C1168.38 3.375 1169.25 2.5 1170 2.375C1171.25 2.75 1173.31 4 1176.19 6.125C1177.31 7.5 1177.31 8.3125 1176.19 8.5625C1175.31 8.6875 1174.44 9.1875 1173.56 10.0625C1170.69 13.3125 1167.56 16.125 1164.19 18.5H1167C1167.62 17.125 1168.25 16.3125 1168.88 16.0625C1170 16.1875 1171.62 16.9375 1173.75 18.3125C1174.38 19.0625 1174.38 19.5625 1173.75 19.8125C1173.38 20.1875 1173.19 20.6875 1173.19 21.3125V25.625C1173.31 26.875 1172.94 27.5625 1172.06 27.6875C1171.19 28.1875 1170 28.375 1168.5 28.25C1167.75 28.375 1167.38 27.875 1167.38 26.75V26.375H1162.69C1162.44 26.375 1162.38 26.375 1162.5 26.375C1162.25 26.625 1162.06 27 1161.94 27.5C1161.94 27.625 1161.94 27.6875 1161.94 27.6875L1161.56 31.25H1165.69C1165.69 31.25 1165.69 31.1875 1165.69 31.0625C1166.81 29.5625 1167.62 28.8125 1168.12 28.8125C1168.75 28.9375 1170.5 29.9375 1173.38 31.8125C1174.25 32.8125 1174.25 33.5625 1173.38 34.0625C1172.75 34.4375 1172.38 34.9375 1172.25 35.5625C1172 37.1875 1171.69 38.9375 1171.31 40.8125C1170.56 43.5625 1168.38 45.4375 1164.75 46.4375C1163 46.9375 1162.12 46.5625 1162.12 45.3125C1161.75 43.1875 1160 41.75 1156.88 41C1156.25 41 1155.94 40.75 1155.94 40.25C1156.19 39.875 1156.62 39.75 1157.25 39.875C1161.88 41 1164.5 40.5 1165.12 38.375C1165.5 36.125 1165.75 34.1875 1165.88 32.5625H1161.19C1160.94 33.0625 1160.75 33.375 1160.62 33.5C1159.88 34.25 1159.31 34.375 1158.94 33.875C1157.19 33.125 1156.06 32.5 1155.56 32C1154.81 31.625 1154.75 31.125 1155.38 30.5C1155.62 30.375 1155.88 30 1156.12 29.375L1156.31 27.6875C1156.56 26.3125 1156.69 25.0625 1156.69 23.9375C1156.69 23.0625 1157.06 22.75 1157.81 23C1159.69 23.5 1161.25 24 1162.5 24.5C1162.62 24.625 1162.75 24.75 1162.88 24.875H1167.38V19.8125H1165.12C1164.88 19.8125 1164.5 19.875 1164 20C1163 20 1162.31 20 1161.94 20C1159.19 21.75 1156.5 23.1875 1153.88 24.3125C1153.25 24.5625 1152.81 24.5625 1152.56 24.3125C1152.44 23.9375 1152.62 23.5 1153.12 23C1156.5 20.625 1159.62 17.75 1162.5 14.375C1162.25 14.625 1162.06 14.75 1161.94 14.75C1159.81 15.75 1158.62 15.0625 1158.38 12.6875C1158.5 11.3125 1158.19 9.6875 1157.44 7.8125C1157.19 7.5625 1157.12 7.4375 1157.25 7.4375C1157.38 7.3125 1157.69 7.25 1158.19 7.25C1160.69 7.625 1162.44 8.75 1163.44 10.625C1163.81 11.5 1163.81 12.375 1163.44 13.25C1165.31 11 1166.75 8.75 1167.75 6.5ZM1183.12 18.3125H1184.06C1184.56 17.4375 1185.06 16.6875 1185.56 16.0625C1182.31 12.9375 1179.69 8.875 1177.69 3.875C1177.44 3.5 1177.56 3.1875 1178.06 2.9375C1178.56 2.8125 1179 2.9375 1179.38 3.3125C1180.25 4.6875 1181.31 6 1182.56 7.25C1183.81 5.625 1184.75 3.9375 1185.38 2.1875C1185.5 1.4375 1186 1.3125 1186.88 1.8125C1188.25 2.5625 1189.81 3.5625 1191.56 4.8125C1191.94 5.1875 1192.06 5.5625 1191.94 5.9375C1191.81 6.3125 1191.5 6.4375 1191 6.3125C1190.5 6.3125 1189.81 6.5 1188.94 6.875C1187.56 7.625 1186.12 8.375 1184.62 9.125C1184.88 9.375 1186 10.125 1188 11.375C1189.75 10 1190.94 8.8125 1191.56 7.8125C1191.94 6.9375 1192.44 6.75 1193.06 7.25C1194.44 8.375 1195.69 9.375 1196.81 10.25C1197.19 10.625 1197.31 11 1197.19 11.375C1197.19 11.625 1197 11.75 1196.62 11.75C1196.12 11.625 1195.44 11.6875 1194.56 11.9375C1193.69 12.4375 1192.62 12.75 1191.38 12.875C1193.38 13.75 1195.75 14.25 1198.5 14.375C1199.25 14.625 1199.62 14.875 1199.62 15.125C1199.75 15.5 1199.5 15.875 1198.88 16.25C1197.25 17.625 1196.25 19.3125 1195.88 21.3125C1195.62 22.6875 1194.94 22.9375 1193.81 22.0625C1192.56 21.5625 1191.38 20.875 1190.25 20C1190 20.25 1189.88 20.5625 1189.88 20.9375V23.1875C1189.75 23.8125 1190.38 23.8125 1191.75 23.1875C1193.12 23.1875 1194.31 24.0625 1195.31 25.8125C1195.94 27.3125 1195.81 28.125 1194.94 28.25C1194.81 28.375 1194.62 28.4375 1194.38 28.4375C1192.62 28.6875 1190.56 28.75 1188.19 28.625C1185.56 28.75 1184.31 27.625 1184.44 25.25V19.8125H1182.19C1182.06 19.9375 1182 20.0625 1182 20.1875C1181.88 20.3125 1181.81 20.5 1181.81 20.75C1181.69 25.75 1179 28.9375 1173.75 30.3125C1173.38 30.5625 1173.12 30.5625 1173 30.3125C1172.88 30.1875 1173 29.9375 1173.38 29.5625C1175.38 27.1875 1176.44 24.4375 1176.56 21.3125C1176.56 19.3125 1176.5 18 1176.38 17.375C1176.25 16.875 1176.25 16.5625 1176.38 16.4375C1176.5 16.3125 1176.81 16.25 1177.31 16.25C1178.31 16.5 1180.06 17.0625 1182.56 17.9375C1182.69 18.1875 1182.88 18.3125 1183.12 18.3125ZM1185.19 32.1875H1179.94C1178.06 32.1875 1176.88 32.25 1176.38 32.375C1176 32.625 1175.69 32.5625 1175.44 32.1875C1174.94 31.8125 1174.62 31.375 1174.5 30.875C1174.25 30.5 1174.38 30.3125 1174.88 30.3125C1176.62 30.5625 1178.75 30.6875 1181.25 30.6875H1185.19C1186.06 29.4375 1186.75 28.75 1187.25 28.625C1189.12 29.375 1191.06 30.5 1193.06 32C1193.44 32.375 1193.56 32.75 1193.44 33.125C1193.31 33.5 1193.06 33.6875 1192.69 33.6875C1191.94 33.9375 1191.31 34.375 1190.81 35C1190.56 35.375 1190.19 35.9375 1189.69 36.6875C1189.06 37.3125 1188.69 37.75 1188.56 38C1190.19 38.875 1191.62 39.875 1192.88 41C1194.38 42.75 1194.38 44.5 1192.88 46.25C1190.88 47.75 1189.19 47.5 1187.81 45.5C1187.19 44.5 1186.12 43.125 1184.62 41.375C1184.5 41.25 1184.44 41.1875 1184.44 41.1875C1180.81 43.8125 1176.62 45.625 1171.88 46.625C1171.12 46.75 1170.69 46.625 1170.56 46.25C1170.44 46 1170.75 45.75 1171.5 45.5C1174.62 43.875 1177.69 41.5625 1180.69 38.5625C1179.19 37.4375 1177.62 36.5 1176 35.75C1175.5 35.5 1175.25 35.25 1175.25 35C1175.38 34.75 1175.75 34.625 1176.38 34.625C1177.75 34.625 1179.94 35 1182.94 35.75C1183.06 35.625 1183.19 35.4375 1183.31 35.1875C1184.19 33.8125 1184.81 32.8125 1185.19 32.1875ZM1239.19 33.6875V39.875C1238.94 40.75 1239.56 41.1875 1241.06 41.1875C1242.69 41.3125 1243.62 39.625 1243.88 36.125C1244 35.25 1244.25 34.75 1244.62 34.625C1244.88 34.875 1245.06 35.375 1245.19 36.125C1245.31 39.125 1245.81 40.75 1246.69 41C1247.81 42.875 1247.5 44.5 1245.75 45.875C1244.88 46.25 1243.75 46.5 1242.38 46.625H1236.94C1234.19 46.875 1232.94 45.1875 1233.19 41.5625V35.5625C1233.06 33.8125 1232.94 32.25 1232.81 30.875C1232.56 30.375 1233 30.0625 1234.12 29.9375C1234.38 30.0625 1234.94 30.1875 1235.81 30.3125C1236.44 30.3125 1237 30.3125 1237.5 30.3125C1237.5 30.1875 1237.5 29.9375 1237.5 29.5625V28.4375H1228.12C1228.12 29.5625 1227.81 30.25 1227.19 30.5C1230.44 31.25 1232.12 31.625 1232.25 31.625C1232.62 31.875 1232.88 32.1875 1233 32.5625C1233 32.9375 1232.81 33.1875 1232.44 33.3125C1231.56 33.6875 1230.94 34.25 1230.56 35C1228.06 40.5 1223.06 44.4375 1215.56 46.8125C1214.94 46.9375 1214.5 46.875 1214.25 46.625C1214 46.25 1214.12 45.9375 1214.62 45.6875C1220.25 41.9375 1223.62 37.1875 1224.75 31.4375C1224.5 31.4375 1224.19 31.5 1223.81 31.625C1223.44 31.625 1223.25 31.625 1223.25 31.625C1221.75 31.75 1221.12 31.0625 1221.38 29.5625C1221.38 28.5625 1221.38 27.25 1221.38 25.625C1221.5 24.125 1221.56 21.625 1221.56 18.125V9.6875C1221.56 6.9375 1221.5 5.0625 1221.38 4.0625C1221.25 3.3125 1221.31 2.875 1221.56 2.75C1221.69 2.5 1222.12 2.4375 1222.88 2.5625C1225.25 3.0625 1227.12 3.6875 1228.5 4.4375L1229.06 4.8125H1236.94C1238.19 3.0625 1239.06 2.1875 1239.56 2.1875C1241.19 2.5625 1243.19 3.9375 1245.56 6.3125C1246.19 7.3125 1246 8 1245 8.375C1244.38 8.75 1244.12 9.1875 1244.25 9.6875V18.125C1244.12 22.5 1244.25 25.8125 1244.62 28.0625C1244.88 29.4375 1244.38 30.3125 1243.12 30.6875C1242.88 30.8125 1242.56 30.9375 1242.19 31.0625C1241.94 31.0625 1241.25 31.1875 1240.12 31.4375C1240 31.6875 1239.88 31.9375 1239.75 32.1875C1239.38 32.4375 1239.19 32.9375 1239.19 33.6875ZM1220.44 7.25H1215C1215 7.75 1214.81 8.0625 1214.44 8.1875C1213.81 8.3125 1213.56 8.625 1213.69 9.125V18.6875C1214.81 17.0625 1215.62 16.1875 1216.12 16.0625C1217.88 16.6875 1219.44 17.8125 1220.81 19.4375C1221.06 20.1875 1220.88 20.5625 1220.25 20.5625H1213.69V31.0625C1215.69 30.6875 1217.62 30.1875 1219.5 29.5625C1220.25 29.4375 1220.69 29.5625 1220.81 29.9375C1221.06 30.1875 1220.88 30.5 1220.25 30.875C1216 33.875 1211.38 36.75 1206.38 39.5C1205.75 39.75 1205.31 40.125 1205.06 40.625C1204.81 41 1204.44 41.125 1203.94 41C1203.56 41 1203.25 40.8125 1203 40.4375C1202 38.4375 1201.25 36.6875 1200.75 35.1875C1200.25 34.1875 1200.62 33.625 1201.88 33.5C1202.5 33.5 1203.56 33.3125 1205.06 32.9375C1205.69 32.8125 1206.38 32.6875 1207.12 32.5625V20.5625H1204.88C1203.5 20.5625 1202.56 20.625 1202.06 20.75C1201.69 21 1201.38 20.9375 1201.12 20.5625C1201 20.5625 1200.88 20.4375 1200.75 20.1875C1200.5 20.0625 1200.38 19.8125 1200.38 19.4375C1200.25 19.3125 1200.19 19.1875 1200.19 19.0625C1200.31 18.9375 1200.5 18.875 1200.75 18.875C1201.25 19.125 1201.94 19.25 1202.81 19.25C1203.81 19.375 1204.75 19.4375 1205.62 19.4375H1207.12V7.25H1205.62C1204.25 7.25 1203.31 7.3125 1202.81 7.4375C1202.44 7.5625 1202.12 7.4375 1201.88 7.0625C1201.75 7.0625 1201.62 6.9375 1201.5 6.6875C1201.25 6.5625 1201.12 6.3125 1201.12 5.9375C1200.88 5.6875 1201 5.5625 1201.5 5.5625C1203.12 5.8125 1204.75 5.9375 1206.38 5.9375H1213.12C1214.5 3.5625 1215.5 2.3125 1216.12 2.1875C1217.88 2.9375 1219.5 4.1875 1221 5.9375C1221.25 6.8125 1221.06 7.25 1220.44 7.25ZM1228.12 13.625V19.625H1237.5V13.625H1228.12ZM1237.5 6.125H1228.69C1228.31 6.5 1228.12 7 1228.12 7.625V12.125H1237.5V6.125ZM1228.12 21.125V26.9375H1237.5V21.125H1228.12ZM1258.69 14.9375H1263C1264.12 13.3125 1264.88 12.4375 1265.25 12.3125C1266.62 12.5625 1268.38 13.5 1270.5 15.125H1274.44C1274.44 13.875 1274.44 12.4375 1274.44 10.8125C1271.81 10.8125 1268.81 10.8125 1265.44 10.8125H1253.44C1252.06 10.8125 1251.12 10.875 1250.62 11C1250 11.25 1249.62 11.1875 1249.5 10.8125C1249.25 10.6875 1249.06 10.5 1248.94 10.25C1248.81 10 1248.69 9.75 1248.56 9.5C1248.31 9.375 1248.25 9.25 1248.38 9.125C1248.38 9.125 1248.56 9.0625 1248.94 8.9375C1249.94 9.3125 1251.75 9.4375 1254.38 9.3125H1260.19C1259.19 9.0625 1258.5 8.25 1258.12 6.875C1257.5 5 1256.81 3.4375 1256.06 2.1875C1255.69 1.8125 1255.56 1.5 1255.69 1.25C1255.81 1.125 1256.19 1 1256.81 0.875C1260.81 1 1263.5 2.125 1264.88 4.25C1265.5 6.125 1265.12 7.6875 1263.75 8.9375C1263.5 9.1875 1263.25 9.3125 1263 9.3125H1267.31C1269.06 6.9375 1270.25 5.6875 1270.88 5.5625C1271.5 5.5625 1272.69 6.4375 1274.44 8.1875C1274.44 7.4375 1274.38 6.25 1274.25 4.625C1274.25 3.25 1274.25 2.25 1274.25 1.625C1274 0.875 1274.44 0.5 1275.56 0.5C1275.69 0.625 1275.94 0.6875 1276.31 0.6875C1277.44 0.6875 1279.44 0.9375 1282.31 1.4375C1283.06 1.5625 1283.5 1.8125 1283.62 2.1875C1283.75 2.6875 1283.5 3.1875 1282.88 3.6875C1282.25 4.1875 1281.88 4.625 1281.75 5C1281.88 5 1282.06 5 1282.31 5C1285.31 4.875 1287.69 5.5 1289.44 6.875C1290.69 8.25 1290.75 9.875 1289.62 11.75C1287.12 13.75 1285.31 13.3125 1284.19 10.4375C1283.44 8.6875 1282.62 7.3125 1281.75 6.3125C1281.62 6.1875 1281.56 6.0625 1281.56 5.9375V6.125C1281.44 7.25 1281.38 8.75 1281.38 10.625C1281.25 12.75 1281.19 14.25 1281.19 15.125H1287.38C1288.75 13.125 1289.88 11.9375 1290.75 11.5625C1291.25 11.4375 1292.75 12.6875 1295.25 15.3125C1295.5 15.6875 1295.62 15.9375 1295.62 16.0625C1295.5 16.3125 1295.25 16.4375 1294.88 16.4375H1287.38C1286.88 17.0625 1286.62 17.625 1286.62 18.125V38C1286.62 40 1287.06 41 1287.94 41C1289.56 41 1290.69 39.1875 1291.31 35.5625C1291.44 34.5625 1291.81 34.0625 1292.44 34.0625C1292.81 34.1875 1293.06 34.75 1293.19 35.75C1292.81 38.625 1293.38 40.375 1294.88 41C1295.88 41.375 1296.06 42.1875 1295.44 43.4375C1294.44 45.6875 1291.12 46.8125 1285.5 46.8125C1281.5 46.8125 1279.62 44.75 1279.88 40.625V26.1875C1278.62 36.0625 1273.56 42.875 1264.69 46.625C1263.81 47 1263.31 47.0625 1263.19 46.8125C1262.94 46.5625 1263.19 46.125 1263.94 45.5C1270.69 39.875 1274.19 30.1875 1274.44 16.4375H1271.62C1271.62 17.0625 1271.38 17.4375 1270.88 17.5625C1270.38 17.8125 1270.19 18.25 1270.31 18.875C1270.19 20.125 1270.12 21.625 1270.12 23.375C1270.25 24.125 1270.31 24.6875 1270.31 25.0625C1270.56 26.4375 1270.06 27.25 1268.81 27.5C1267.94 27.875 1266.88 28.125 1265.62 28.25C1264.88 28.375 1264.38 28.3125 1264.12 28.0625C1263.75 28.4375 1263.62 28.9375 1263.75 29.5625C1263.88 29.5625 1264.06 29.5625 1264.31 29.5625C1267.69 30.3125 1269.75 31.625 1270.5 33.5C1271 35.5 1270.38 36.875 1268.62 37.625C1266.62 38.25 1265.44 37.25 1265.06 34.625C1264.81 33 1264.38 31.625 1263.75 30.5V33.3125C1263.62 36.0625 1263.69 38.5 1263.94 40.625C1264.06 43.375 1263.44 44.9375 1262.06 45.3125C1260.44 45.8125 1259.06 46.1875 1257.94 46.4375C1256.06 46.8125 1255.12 46.4375 1255.12 45.3125C1254.88 43.4375 1253.88 42.1875 1252.12 41.5625C1250.88 41.1875 1250.44 40.875 1250.81 40.625C1250.81 40.375 1251.38 40.3125 1252.5 40.4375C1256 40.9375 1257.5 39.875 1257 37.25V31.25V31.0625C1256.88 31.3125 1256.81 31.375 1256.81 31.25C1256.56 31.375 1256.5 31.4375 1256.62 31.4375C1256 31.8125 1255.56 32.25 1255.31 32.75C1253.56 36.125 1251.69 38.875 1249.69 41C1249.06 41.5 1248.62 41.6875 1248.38 41.5625C1248.12 41.4375 1248.19 41.125 1248.56 40.625C1249.69 35.75 1250.25 31.9375 1250.25 29.1875C1250.12 28.5625 1250.5 28.25 1251.38 28.25C1252.88 28.625 1254.62 29.0625 1256.62 29.5625C1256.75 29.5625 1256.88 29.5625 1257 29.5625C1257 29.3125 1256.94 28.9375 1256.81 28.4375C1256.69 27.9375 1256.69 27.5 1256.81 27.125C1256.69 27.25 1256.5 27.375 1256.25 27.5C1256.12 27.5 1256.06 27.5 1256.06 27.5C1255.69 27.625 1255.38 27.75 1255.12 27.875C1254.88 27.875 1254.56 27.875 1254.19 27.875C1252.06 28.125 1251.06 27.4375 1251.19 25.8125C1251.31 23.6875 1251.38 21.5 1251.38 19.25C1251.38 17.875 1251.25 16.0625 1251 13.8125C1250.75 12.5625 1251.25 12.0625 1252.5 12.3125C1253.88 12.8125 1255.56 13.4375 1257.56 14.1875C1257.69 14.3125 1257.88 14.5 1258.12 14.75C1258.38 14.875 1258.56 14.9375 1258.69 14.9375ZM1263.75 16.4375H1258.31C1257.69 16.6875 1257.44 17.125 1257.56 17.75V23.5625H1263.75V16.4375ZM1257.56 25.4375V25.625C1260.06 25.875 1262.12 26.1875 1263.75 26.5625V25.0625H1257.56V25.4375ZM1315.69 27.6875V24.125C1310.31 29.5 1304.44 33.625 1298.06 36.5C1297.56 36.75 1297.25 36.75 1297.12 36.5C1297 36.125 1297.12 35.75 1297.5 35.375C1306.5 26.875 1312.94 17.6875 1316.81 7.8125H1306.88C1305.5 7.9375 1304.06 8 1302.56 8C1301.19 8.125 1300.19 8.25 1299.56 8.375C1299.19 8.5 1298.88 8.3125 1298.62 7.8125C1298.38 7.5625 1298.12 7.125 1297.88 6.5C1297.62 6.375 1297.5 6.25 1297.5 6.125C1297.5 6 1297.69 5.9375 1298.06 5.9375C1299.06 6.1875 1300.75 6.375 1303.12 6.5C1305.12 6.5 1306.94 6.5 1308.56 6.5H1331.25C1333.12 3 1334.5 1.125 1335.38 0.875C1337.38 1.875 1339.69 3.8125 1342.31 6.6875C1342.56 7.1875 1342.69 7.625 1342.69 8C1342.56 8.25 1342.31 8.3125 1341.94 8.1875C1337.44 8.0625 1332.94 7.9375 1328.44 7.8125H1321.31C1324.06 9.1875 1325.75 9.9375 1326.38 10.0625C1326.88 10.5625 1327.12 11.0625 1327.12 11.5625C1326.88 12.0625 1326.44 12.3125 1325.81 12.3125C1324.94 12.3125 1324.25 12.6875 1323.75 13.4375C1323.5 13.9375 1323.19 14.5 1322.81 15.125C1322.69 15.375 1322.56 15.625 1322.44 15.875C1322.56 16 1322.75 16.0625 1323 16.0625C1323.12 16.1875 1323.31 16.25 1323.56 16.25C1324.06 16.375 1324.38 16.6875 1324.5 17.1875C1324.5 17.5625 1324.25 17.875 1323.75 18.125C1323.25 18.5 1323.06 19.0625 1323.19 19.8125V27.3125C1323.06 34.5625 1323.19 39.625 1323.56 42.5C1323.56 44.5 1322.88 45.6875 1321.5 46.0625C1320.5 46.4375 1319.19 46.75 1317.56 47C1315.31 47.625 1314.5 46.4375 1315.12 43.4375C1315.25 41.8125 1315.38 39.6875 1315.5 37.0625C1315.5 33.9375 1315.56 30.8125 1315.69 27.6875ZM1333.69 33.3125C1332.06 29.3125 1329.06 25.3125 1324.69 21.3125C1324.31 21.0625 1324.12 20.8125 1324.12 20.5625C1324.25 20.3125 1324.56 20.25 1325.06 20.375C1331.56 22 1336.56 24.6875 1340.06 28.4375C1341.56 31.0625 1341.31 33.3125 1339.31 35.1875C1336.81 36.4375 1334.94 35.8125 1333.69 33.3125ZM1364.25 38.375V25.25H1353.56C1350.81 25.375 1348.44 25.5 1346.44 25.625C1345.94 25.75 1345.62 25.625 1345.5 25.25C1345.12 24.875 1344.75 24.375 1344.38 23.75C1344.12 23.375 1344.25 23.25 1344.75 23.375C1345.5 23.5 1347 23.625 1349.25 23.75C1351.62 23.75 1353.62 23.75 1355.25 23.75H1380.94C1382.94 20.75 1384.25 19.25 1384.88 19.25C1386.25 19.75 1388.25 21.25 1390.88 23.75C1391.12 24.25 1391.19 24.6875 1391.06 25.0625C1390.94 25.3125 1390.69 25.4375 1390.31 25.4375C1389.94 25.4375 1388.94 25.4375 1387.31 25.4375C1384.31 25.4375 1380.75 25.375 1376.62 25.25H1371.56V31.4375H1376.81C1378.56 28.6875 1379.69 27.3125 1380.19 27.3125C1381.06 27.4375 1382.88 28.8125 1385.62 31.4375C1386 31.9375 1386.12 32.375 1386 32.75C1386 33 1385.75 33.125 1385.25 33.125C1384.88 33.125 1384.38 33.125 1383.75 33.125C1378.88 32.875 1375.06 32.75 1372.31 32.75H1371.56V39.5C1374.81 39.75 1378.12 39.875 1381.5 39.875C1384.88 39.75 1387.75 39.5 1390.12 39.125C1390.88 39.125 1391.31 39.3125 1391.44 39.6875C1391.69 40.1875 1391.5 40.625 1390.88 41C1389.25 42 1388.25 43.4375 1387.88 45.3125C1387.75 46.3125 1386.94 46.8125 1385.44 46.8125C1377.94 46.8125 1372.12 46.375 1368 45.5C1364 44.625 1360.5 41.875 1357.5 37.25C1354.25 41.125 1350.19 44.0625 1345.31 46.0625C1344.69 46.3125 1344.31 46.375 1344.19 46.25C1344.06 46 1344.25 45.6875 1344.75 45.3125C1348.25 41.5625 1350.69 37.75 1352.06 33.875C1352.69 31.75 1353.12 29.4375 1353.38 26.9375C1353.38 26.0625 1353.81 25.75 1354.69 26C1356.94 26.375 1359.56 26.9375 1362.56 27.6875C1363.56 28.4375 1363.56 29.125 1362.56 29.75C1361.56 30 1361 30.375 1360.88 30.875C1360.25 32.25 1359.62 33.5 1359 34.625C1360 36.375 1361.75 37.625 1364.25 38.375ZM1373.81 20.5625V18.6875H1361.62V19.8125C1361.5 20.8125 1361 21.4375 1360.12 21.6875C1359 22.1875 1357.62 22.4375 1356 22.4375C1354.25 22.6875 1353.62 22 1354.12 20.375C1354.25 18.375 1354.31 14.0625 1354.31 7.4375C1354.31 5.8125 1354.25 4.6875 1354.12 4.0625C1354.12 3.4375 1354.12 2.875 1354.12 2.375C1353.88 1.75 1353.88 1.375 1354.12 1.25C1354.38 1 1354.94 0.9375 1355.81 1.0625C1358.44 1.5625 1360.56 2.1875 1362.19 2.9375C1362.31 2.9375 1362.44 3 1362.56 3.125H1373.62C1374.75 1.625 1375.62 0.8125 1376.25 0.6875C1378.88 1.8125 1381.06 3.1875 1382.81 4.8125C1382.94 5.6875 1382.69 6.1875 1382.06 6.3125C1381.44 6.8125 1381.12 7.3125 1381.12 7.8125C1381 8.3125 1380.94 9.875 1380.94 12.5C1381.06 15.375 1381.19 17.375 1381.31 18.5C1381.31 19.75 1380.81 20.625 1379.81 21.125C1379.19 21.375 1378 21.625 1376.25 21.875C1376.12 21.875 1376.06 21.875 1376.06 21.875C1374.44 22 1373.69 21.5625 1373.81 20.5625ZM1361.62 5.75V10.25H1373.81V4.4375H1362.38C1361.75 4.6875 1361.5 5.125 1361.62 5.75ZM1361.62 11.75V17.375H1373.81V11.75H1361.62ZM1424.25 18.5H1418.81C1422.19 28.25 1428.69 35.1875 1438.31 39.3125C1438.69 39.5625 1439 39.75 1439.25 39.875C1439.62 40 1439.81 40.125 1439.81 40.25C1439.81 40.625 1439.44 40.875 1438.69 41C1435.94 42 1434.06 43.5 1433.06 45.5C1432.19 46.875 1431.12 46.9375 1429.88 45.6875C1423 40.4375 1418.88 33.3125 1417.5 24.3125C1417.25 35.4375 1409.44 42.9375 1394.06 46.8125C1393.44 46.9375 1393.06 46.875 1392.94 46.625C1392.94 46.375 1393.19 46.0625 1393.69 45.6875C1405.19 38.3125 1411 29.25 1411.12 18.5H1403.06C1402.19 18.625 1400.94 18.6875 1399.31 18.6875C1397.31 18.9375 1395.94 19.0625 1395.19 19.0625C1394.69 19.3125 1394.38 19.25 1394.25 18.875C1393.88 18.625 1393.5 18.25 1393.12 17.75C1393 17.375 1392.88 17.0625 1392.75 16.8125C1392.62 16.6875 1392.88 16.5625 1393.5 16.4375C1395.12 16.8125 1398.62 16.9375 1404 16.8125H1411.12C1411.12 15.5625 1411.12 14.1875 1411.12 12.6875C1411.12 11.1875 1411.12 9.5625 1411.12 7.8125C1411 5.8125 1410.88 4.0625 1410.75 2.5625C1410.25 1.1875 1410.88 0.625 1412.62 0.875C1415.25 1.25 1417.62 1.6875 1419.75 2.1875C1420.38 2.3125 1420.69 2.625 1420.69 3.125C1420.69 3.625 1420.44 4.0625 1419.94 4.4375C1419.19 5.0625 1418.81 5.625 1418.81 6.125C1418.69 7.75 1418.62 10 1418.62 12.875C1418.62 14.75 1418.62 16.0625 1418.62 16.8125H1427.06C1429.31 13.8125 1431.06 12.125 1432.31 11.75C1432.94 11.75 1434.94 13.5 1438.31 17C1438.56 17.625 1438.62 18.125 1438.5 18.5C1438.38 18.75 1438.06 18.875 1437.56 18.875C1436.56 18.875 1435.25 18.875 1433.62 18.875C1429.62 18.625 1426.5 18.5 1424.25 18.5ZM1473 8H1467.19V11.375H1473C1474.25 9.75 1475.06 9 1475.44 9.125C1477.56 9.75 1479.69 11 1481.81 12.875C1482.31 13.75 1482.06 14.375 1481.06 14.75C1480.44 14.875 1480.12 15.375 1480.12 16.25C1480 17.25 1480.06 17.9375 1480.31 18.3125C1480.31 19.6875 1479.88 20.4375 1479 20.5625C1478.62 20.8125 1478.06 21 1477.31 21.125C1479.44 22 1481.19 22.9375 1482.56 23.9375C1482.81 24.8125 1482.56 25.375 1481.81 25.625C1481.44 25.875 1481.19 26.25 1481.06 26.75C1481.06 27 1481.06 27.4375 1481.06 28.0625C1481.94 26.9375 1482.56 26.375 1482.94 26.375C1483.81 26.375 1485.25 27.1875 1487.25 28.8125C1487.62 29.1875 1487.75 29.5625 1487.62 29.9375C1487.5 30.3125 1487.19 30.5 1486.69 30.5H1481.06C1480.94 31.625 1480.94 33.1875 1481.06 35.1875C1481.19 36.1875 1481.25 36.75 1481.25 36.875C1481.38 38.25 1480.94 39.125 1479.94 39.5C1478.69 40 1477.44 40.25 1476.19 40.25C1474.56 40.5 1473.75 40.125 1473.75 39.125V36.3125H1467.56C1467.56 37.9375 1467.56 39.375 1467.56 40.625C1467.56 43 1466.94 44.625 1465.69 45.5C1463.81 46.375 1461.81 47.0625 1459.69 47.5625C1458.06 47.9375 1457.19 47.5 1457.06 46.25C1456.69 43.75 1454.88 42.25 1451.62 41.75C1450.88 41.5 1450.56 41.25 1450.69 41C1450.56 40.625 1451 40.4375 1452 40.4375C1454.5 40.4375 1456.25 40.4375 1457.25 40.4375C1458.88 40.4375 1459.69 39.375 1459.69 37.25V36.3125H1451.44C1450.31 36.3125 1448.75 36.5 1446.75 36.875C1446.25 36.875 1445.94 36.875 1445.81 36.875C1445.31 37 1445 36.875 1444.88 36.5C1444.5 36 1444.12 35.4375 1443.75 34.8125C1443.5 34.4375 1443.62 34.3125 1444.12 34.4375C1444.25 34.5625 1444.44 34.625 1444.69 34.625C1447.81 35 1450.25 35.125 1452 35H1459.69V30.5H1449.75C1447 30.625 1444.62 30.75 1442.62 30.875C1442.12 30.875 1441.81 30.75 1441.69 30.5C1441.31 30.125 1440.94 29.625 1440.56 29C1440.31 28.625 1440.44 28.5 1440.94 28.625C1441.69 28.75 1443.19 28.875 1445.44 29C1447.81 29 1449.81 29 1451.44 29H1459.69V24.5H1451.81C1450.69 24.5 1449 24.6875 1446.75 25.0625C1446.38 25.0625 1446.12 25.0625 1446 25.0625C1445.62 25.3125 1445.31 25.1875 1445.06 24.6875C1444.94 24.5625 1444.75 24.3125 1444.5 23.9375C1444.25 23.5625 1444.12 23.25 1444.12 23C1443.75 22.625 1443.88 22.5 1444.5 22.625C1447.75 23 1450.31 23.1875 1452.19 23.1875H1459.69V19.625H1453.69V20.375C1454.06 21.75 1452.31 22.5 1448.44 22.625C1446.81 23 1446.19 22.3125 1446.56 20.5625C1446.69 19.9375 1446.75 18.3125 1446.75 15.6875C1446.62 13.6875 1446.5 12 1446.38 10.625C1446.25 9.5 1446.69 9.0625 1447.69 9.3125C1450.31 9.9375 1452.56 10.625 1454.44 11.375H1459.69V10.0625C1459.69 9.5625 1459.69 8.875 1459.69 8H1449.56C1446.94 8.125 1444.62 8.25 1442.62 8.375C1442.25 8.375 1441.94 8.3125 1441.69 8.1875C1441.56 8.1875 1441.5 8.125 1441.5 8C1441 7.625 1440.69 7.125 1440.56 6.5C1440.19 6.125 1440.31 6 1440.94 6.125C1441.56 6.25 1443 6.375 1445.25 6.5C1447.62 6.5 1449.62 6.5 1451.25 6.5H1459.69C1459.44 4.25 1459.25 2.875 1459.12 2.375C1458.62 1.25 1459.12 0.6875 1460.62 0.6875C1462.88 1.0625 1465.25 1.4375 1467.75 1.8125C1469 2.3125 1469.19 3.0625 1468.31 4.0625C1467.44 4.5625 1467.06 5.0625 1467.19 5.5625V6.5H1477.69C1479.31 4 1480.5 2.5625 1481.25 2.1875C1482.75 2.6875 1484.75 4.125 1487.25 6.5C1487.5 7 1487.56 7.4375 1487.44 7.8125C1487.31 8.0625 1487 8.1875 1486.5 8.1875C1486 8.3125 1484.94 8.3125 1483.31 8.1875C1480.56 8.1875 1477.12 8.125 1473 8ZM1473.19 12.875H1467.19V18.125H1473.19V12.875ZM1453.69 14.1875V18.125H1459.69V12.875H1455C1454 12.875 1453.56 13.3125 1453.69 14.1875ZM1473.75 24.5H1467.19C1467.19 25.875 1467.19 27.375 1467.19 29H1473.75V24.5ZM1467.38 35H1473.75V30.5H1467.38C1467.38 32 1467.38 33.5 1467.38 35ZM1473.19 19.625H1467.19V23.1875H1473.56C1473.94 22.4375 1474.38 21.875 1474.88 21.5C1473.62 21.625 1473.06 21.125 1473.19 20V19.625ZM1501.69 34.0625H1499.25V31.0625C1499.25 29.4375 1499.88 27.6875 1501.12 25.8125C1502.75 23.8125 1503.56 21.75 1503.56 19.625C1503.56 15.125 1502.06 12.8125 1499.06 12.6875C1496.69 12.9375 1495.06 13.8125 1494.19 15.3125C1494.44 15.3125 1494.69 15.3125 1494.94 15.3125C1497.31 15.4375 1498.56 16.5 1498.69 18.5C1498.44 20.5 1497.19 21.625 1494.94 21.875C1492.56 21.75 1491.31 20.4375 1491.19 17.9375C1491.56 13.5625 1494.75 11.125 1500.75 10.625C1507.12 11 1510.56 13.375 1511.06 17.75C1511.06 20.375 1509.44 22.875 1506.19 25.25C1503.19 27.5 1501.69 29.75 1501.69 32V34.0625ZM1496.25 40.0625C1496.5 37.6875 1497.81 36.3125 1500.19 35.9375C1502.69 36.1875 1504.06 37.5625 1504.31 40.0625C1503.94 42.0625 1502.56 43.25 1500.19 43.625C1497.81 43.25 1496.5 42.0625 1496.25 40.0625Z" fill="#10656A"/>
</svg>
