<svg width="48" height="48" viewBox="0 0 48 48" fill="none" xmlns="http://www.w3.org/2000/svg">
<path d="M17.4375 28.625H30.375C31.625 27.125 32.5625 26.3125 33.1875 26.1875C35.4375 26.9375 37.8125 28.375 40.3125 30.5C40.6875 31.25 40.4375 31.8125 39.5625 32.1875C38.9375 32.5625 38.5625 33.125 38.4375 33.875C38.4375 35.625 38.4375 37.6875 38.4375 40.0625C38.5625 41.9375 38.6875 43.1875 38.8125 43.8125C39.0625 45.0625 38.625 46 37.5 46.625C35.75 47.25 34.25 47.625 33 47.75C31.5 47.75 30.8125 47.1875 30.9375 46.0625V43.625H15.9375V44.5625C15.9375 45.9375 15.375 46.75 14.25 47C13.625 47.125 12.5625 47.3125 11.0625 47.5625C10.8125 47.5625 10.5625 47.625 10.3125 47.75C8.5625 47.875 7.875 47 8.25 45.125C8.375 42.875 8.5 39.5 8.625 35C8.5 33.625 8.4375 32.4375 8.4375 31.4375C8.3125 29.5625 8.25 28.25 8.25 27.5C8 26.25 8.4375 25.75 9.5625 26C11.5625 26.375 13.9375 27.125 16.6875 28.25C16.9375 28.375 17.1875 28.5 17.4375 28.625ZM35.4375 6.125H31.5C30.875 6.625 30.3125 7.125 29.8125 7.625C28.6875 9 27.5625 10.25 26.4375 11.375C26.8125 11.625 27.25 11.75 27.75 11.75C28.625 12.25 28.75 12.875 28.125 13.625C27.5 13.75 27.25 14.25 27.375 15.125C27.375 18.375 27.375 21.625 27.375 24.875C27.625 26.75 27.0625 27.75 25.6875 27.875C25.4375 28 25.125 28.0625 24.75 28.0625C23.5 28.4375 22.4375 28.5625 21.5625 28.4375C19.8125 28.6875 19.0625 27.9375 19.3125 26.1875C19.4375 25.1875 19.5625 23.875 19.6875 22.25C19.6875 20.5 19.75 18.8125 19.875 17.1875C15 20.9375 8.9375 24.125 1.6875 26.75C0.9375 27.125 0.5625 27.125 0.5625 26.75C0.3125 26.375 0.5 26 1.125 25.625C9.125 20.25 15.4375 13.75 20.0625 6.125H9.9375C6.4375 6.125 4.0625 6.1875 2.8125 6.3125C2.3125 6.5625 2 6.4375 1.875 5.9375C1.5 5.6875 1.25 5.375 1.125 5C1.125 4.875 1.125 4.75 1.125 4.625C0.875 4.375 1 4.25 1.5 4.25C2.25 4.375 3.6875 4.5 5.8125 4.625C8.0625 4.625 9.9375 4.625 11.4375 4.625H36.75C38.5 1.875 39.75 0.5 40.5 0.5C42.375 1.125 44.375 2.5 46.5 4.625C46.875 5.25 47 5.6875 46.875 5.9375C46.625 6.1875 46.25 6.3125 45.75 6.3125C43.875 6.3125 42.1875 6.3125 40.6875 6.3125C39.3125 6.1875 37.5625 6.125 35.4375 6.125ZM30.9375 30.125H16.6875C16.0625 30.625 15.8125 31.125 15.9375 31.625V42.125H30.9375V30.125ZM38.4375 24.875C35.4375 21 32.375 17.8125 29.25 15.3125C28.75 15.0625 28.5625 14.8125 28.6875 14.5625C28.6875 14.3125 28.9375 14.1875 29.4375 14.1875C36.1875 14.3125 41.0625 15.8125 44.0625 18.6875C46.0625 21.0625 45.875 23.5 43.5 26C41.75 27.375 40.0625 27 38.4375 24.875Z" fill="#862842"/>
</svg>
