<svg width="48" height="47" viewBox="0 0 48 47" fill="none" xmlns="http://www.w3.org/2000/svg">
<path d="M20.25 38.375V25.25H9.5625C6.8125 25.375 4.4375 25.5 2.4375 25.625C1.9375 25.75 1.625 25.625 1.5 25.25C1.125 24.875 0.75 24.375 0.375 23.75C0.125 23.375 0.25 23.25 0.75 23.375C1.5 23.5 3 23.625 5.25 23.75C7.625 23.75 9.625 23.75 11.25 23.75H36.9375C38.9375 20.75 40.25 19.25 40.875 19.25C42.25 19.75 44.25 21.25 46.875 23.75C47.125 24.25 47.1875 24.6875 47.0625 25.0625C46.9375 25.3125 46.6875 25.4375 46.3125 25.4375C45.9375 25.4375 44.9375 25.4375 43.3125 25.4375C40.3125 25.4375 36.75 25.375 32.625 25.25H27.5625V31.4375H32.8125C34.5625 28.6875 35.6875 27.3125 36.1875 27.3125C37.0625 27.4375 38.875 28.8125 41.625 31.4375C42 31.9375 42.125 32.375 42 32.75C42 33 41.75 33.125 41.25 33.125C40.875 33.125 40.375 33.125 39.75 33.125C34.875 32.875 31.0625 32.75 28.3125 32.75H27.5625V39.5C30.8125 39.75 34.125 39.875 37.5 39.875C40.875 39.75 43.75 39.5 46.125 39.125C46.875 39.125 47.3125 39.3125 47.4375 39.6875C47.6875 40.1875 47.5 40.625 46.875 41C45.25 42 44.25 43.4375 43.875 45.3125C43.75 46.3125 42.9375 46.8125 41.4375 46.8125C33.9375 46.8125 28.125 46.375 24 45.5C20 44.625 16.5 41.875 13.5 37.25C10.25 41.125 6.1875 44.0625 1.3125 46.0625C0.6875 46.3125 0.3125 46.375 0.1875 46.25C0.0625 46 0.25 45.6875 0.75 45.3125C4.25 41.5625 6.6875 37.75 8.0625 33.875C8.6875 31.75 9.125 29.4375 9.375 26.9375C9.375 26.0625 9.8125 25.75 10.6875 26C12.9375 26.375 15.5625 26.9375 18.5625 27.6875C19.5625 28.4375 19.5625 29.125 18.5625 29.75C17.5625 30 17 30.375 16.875 30.875C16.25 32.25 15.625 33.5 15 34.625C16 36.375 17.75 37.625 20.25 38.375ZM29.8125 20.5625V18.6875H17.625V19.8125C17.5 20.8125 17 21.4375 16.125 21.6875C15 22.1875 13.625 22.4375 12 22.4375C10.25 22.6875 9.625 22 10.125 20.375C10.25 18.375 10.3125 14.0625 10.3125 7.4375C10.3125 5.8125 10.25 4.6875 10.125 4.0625C10.125 3.4375 10.125 2.875 10.125 2.375C9.875 1.75 9.875 1.375 10.125 1.25C10.375 1 10.9375 0.9375 11.8125 1.0625C14.4375 1.5625 16.5625 2.1875 18.1875 2.9375C18.3125 2.9375 18.4375 3 18.5625 3.125H29.625C30.75 1.625 31.625 0.8125 32.25 0.6875C34.875 1.8125 37.0625 3.1875 38.8125 4.8125C38.9375 5.6875 38.6875 6.1875 38.0625 6.3125C37.4375 6.8125 37.125 7.3125 37.125 7.8125C37 8.3125 36.9375 9.875 36.9375 12.5C37.0625 15.375 37.1875 17.375 37.3125 18.5C37.3125 19.75 36.8125 20.625 35.8125 21.125C35.1875 21.375 34 21.625 32.25 21.875C32.125 21.875 32.0625 21.875 32.0625 21.875C30.4375 22 29.6875 21.5625 29.8125 20.5625ZM17.625 5.75V10.25H29.8125V4.4375H18.375C17.75 4.6875 17.5 5.125 17.625 5.75ZM17.625 11.75V17.375H29.8125V11.75H17.625Z" fill="#862842"/>
</svg>
