<?xml version="1.0" encoding="UTF-8" standalone="no"?>
<!DOCTYPE svg PUBLIC "-//W3C//DTD SVG 1.1//EN" "http://www.w3.org/Graphics/SVG/1.1/DTD/svg11.dtd">
<svg width="100%" height="100%" viewBox="0 0 383 136" version="1.1" xmlns="http://www.w3.org/2000/svg" xmlns:xlink="http://www.w3.org/1999/xlink" xml:space="preserve" xmlns:serif="http://www.serif.com/" style="fill-rule:evenodd;clip-rule:evenodd;stroke-linejoin:round;stroke-miterlimit:2;">
    <g transform="matrix(1,0,0,1,-6520.27,-104.931)">
        <g transform="matrix(8.33333,0,0,8.33333,0,0)">
            <g id="Nav">
                <g>
                    <g>
                        <clipPath id="_clip1">
                            <path d="M798.059,5.588C788.488,6.425 782.448,8.76 782.446,11.269L782.425,30.571C782.427,28.061 788.467,25.725 798.037,24.888C810.051,23.837 823.078,25.541 827.131,28.692C827.955,29.332 828.346,29.983 828.346,30.622C828.352,24.832 828.36,17.112 828.367,11.321C828.367,10.682 827.977,10.032 827.153,9.392C823.911,6.872 814.931,5.277 805.318,5.277C802.912,5.277 800.464,5.377 798.059,5.588Z" clip-rule="nonzero"/>
                        </clipPath>
                        <g clip-path="url(#_clip1)">
                            <g transform="matrix(1,0,0,1,828.263,21.1793)">
                                <path d="M0,0.099C-0.003,0.025 -0.003,-0.076 0.014,-0.149C0.031,0.465 0.092,1.078 0.092,1.692L0.091,1.641C0.073,1.127 0.021,0.614 0,0.099M0.094,-0.247C0.094,-0.426 0.063,-0.606 0.001,-0.786C0.016,-1.377 0.05,-1.551 0.076,-1.593C0.095,-1.568 0.095,-1.568 0.094,-0.247M0.094,-0.46L0.095,-1.289L0.095,-1.297C0.079,-1.219 0.089,-1.14 0.088,-1.062C0.085,-0.92 0.084,-0.778 0.084,-0.637C0.091,-0.578 0.094,-0.519 0.094,-0.46" style="fill:rgb(152,72,92);fill-rule:nonzero;"/>
                            </g>
                            <g transform="matrix(1,0,0,1,826.743,21.0257)">
                                <path d="M0,-4.663C0.186,-4.452 0.374,-4.242 0.559,-4.03L0.559,-3.972C0.443,-4.029 0.421,-3.996 0.419,-3.493L0.417,-1.489C0.417,-0.641 0.432,-0.274 0.58,-0.058L0.58,0C0.47,-0.096 0.359,-0.19 0.242,-0.277C0.208,-0.302 0.173,-0.328 0.138,-0.352C0.077,-0.608 0.058,-0.694 0.035,-0.866C-0.313,-0.151 -1.139,-1.093 -1.396,-1.857C-1.797,-3.044 -1.325,-4.238 -0.595,-3.885C-0.21,-3.698 -0.062,-3.268 0.011,-3.062L0.011,-3.595C0.011,-3.951 0.005,-4.307 0,-4.663M-0.415,-0.84C0.162,-0.531 0.036,-2.556 -0.11,-3.06C-0.255,-3.559 -0.585,-3.749 -0.753,-3.43C-0.981,-2.996 -1.01,-1.186 -0.415,-0.84" style="fill:rgb(152,72,92);fill-rule:nonzero;"/>
                            </g>
                            <g transform="matrix(1,0,0,1,821.741,20.1317)">
                                <path d="M0,-4.579C0.362,-4.397 0.732,-4.23 1.1,-4.059L1.1,-3.989C0.807,-4.055 0.806,-3.867 0.804,-3.493L0.803,-2.742C0.814,-1.483 1.555,-1.232 1.778,-1.442C1.97,-1.621 1.974,-2.162 1.976,-2.366L1.978,-3.978C2.3,-3.769 2.3,-3.769 2.902,-3.425L2.902,-3.355C2.673,-3.426 2.652,-3.295 2.65,-2.87L2.649,-2.054C2.625,0 1.125,-1.323 1.11,-1.339C0.9,-1.558 0.81,-1.789 0.775,-1.876C0.758,-1.774 0.734,-1.634 0.656,-1.39C0.562,-1.417 0.465,-1.445 0.368,-1.472C0.125,-1.538 -0.121,-1.593 -0.365,-1.655L-0.365,-1.751C-0.072,-1.752 0.005,-1.996 0.01,-2.938L0.011,-3.863C0.01,-4.102 0.001,-4.34 0,-4.579" style="fill:rgb(152,72,92);fill-rule:nonzero;"/>
                            </g>
                            <g transform="matrix(1,0,0,1,819.403,18.4882)">
                                <path d="M0,-4.687C0.468,-4.481 0.93,-4.31 1.206,-4.207L1.205,-4.149C0.934,-4.176 0.896,-4.113 0.893,-3.629L0.891,-1.625C0.893,-0.711 0.944,-0.4 1.267,-0.241L1.267,-0.184C1.015,-0.244 0.765,-0.311 0.511,-0.366C0.437,-0.382 0.363,-0.397 0.289,-0.413C0.155,-0.648 0.103,-0.807 0.071,-0.901C-0.687,0 -2.667,-0.942 -2.792,-2.264C-2.938,-3.818 -1.186,-4.166 -0.265,-3.391C-0.121,-3.269 -0.023,-3.147 0.023,-3.089L0.023,-3.622C0.023,-3.977 0.011,-4.332 0,-4.687M-0.809,-0.764C0.304,-0.587 0.121,-2.57 -0.249,-3.102C-0.555,-3.543 -1.482,-3.804 -1.667,-2.719C-1.67,-2.701 -1.95,-0.974 -0.809,-0.764" style="fill:rgb(152,72,92);fill-rule:nonzero;"/>
                            </g>
                            <g transform="matrix(1,0,0,1,814.171,17.6778)">
                                <path d="M0,-4.674C0.615,-4.485 1.06,-4.374 1.416,-4.286L1.416,-4.228C1.098,-4.237 1.049,-4.166 1.046,-3.684L1.044,-1.68C1.046,-0.828 1.087,-0.467 1.489,-0.325L1.489,-0.267C1.191,-0.308 0.896,-0.356 0.598,-0.392C0.511,-0.402 0.425,-0.412 0.338,-0.422C0.203,-0.615 0.137,-0.763 0.084,-0.894C-0.739,0 -3.105,-0.655 -3.182,-2.13C-3.26,-3.647 -1.126,-4.137 -0.068,-3.171C-0.035,-3.141 -0.004,-3.11 0.027,-3.078L0.028,-3.611C0.027,-3.942 0.027,-3.942 0,-4.674M-0.932,-0.691C0.281,-0.602 0.168,-2.532 -0.287,-3.071C-0.683,-3.538 -1.825,-3.684 -1.939,-2.371C-1.971,-2.003 -1.992,-0.792 -0.932,-0.691" style="fill:rgb(152,72,92);fill-rule:nonzero;"/>
                            </g>
                            <g transform="matrix(1,0,0,1,808.218,16.8897)">
                                <path d="M0,-4.298C0.268,-4.244 1.043,-4.1 1.604,-4.023L1.604,-3.959C1.217,-3.961 1.161,-3.84 1.157,-3.397L1.154,-1.386L1.154,-1.149C1.158,-0.387 1.242,-0.205 1.653,-0.064L1.653,0C1.121,-0.051 0.177,-0.098 -0.481,-0.087C-0.483,-0.106 -0.486,-0.131 -0.489,-0.151C-0.032,-0.249 0.016,-0.446 0.021,-1.246L0.022,-3.244C0.022,-3.941 0.022,-3.941 0,-4.298" style="fill:rgb(152,72,92);fill-rule:nonzero;"/>
                            </g>
                            <g transform="matrix(1,0,0,1,804.323,17.2569)">
                                <path d="M0,-3.591C2.336,-3.583 2.677,-1.835 1.838,-1.045C0.991,-0.246 -1.513,0.02 -2.196,-1.572C-2.133,-1.617 -2.048,-1.676 -1.984,-1.721C-1.426,-0.291 0.403,-0.483 0.806,-1.447C0.932,-1.752 0.931,-2.074 0.913,-2.35L0.905,-2.369C-0.104,-2.368 -1.121,-2.35 -2.138,-2.313C-1.884,-3.409 -0.689,-3.584 0,-3.591M0.897,-2.582C0.695,-3.611 -0.253,-3.578 -0.594,-3.089C-0.731,-2.891 -0.742,-2.662 -0.747,-2.565C-0.198,-2.575 0.351,-2.581 0.897,-2.582" style="fill:rgb(152,72,92);fill-rule:nonzero;"/>
                            </g>
                            <g transform="matrix(1,0,0,1,792.177,18.0084)">
                                <path d="M0,-3.257C1.589,-3.528 1.92,-2.68 1.563,-2.146C1.481,-2.024 1.344,-1.818 0.314,-1.424C-0.442,-1.135 -0.495,-0.95 -0.487,-0.72C-0.48,-0.506 -0.246,-0.214 0.352,-0.342C1.211,-0.527 1.393,-1.331 1.452,-1.595L1.544,-1.622C1.663,-1.353 1.821,-0.994 1.941,-0.725C0.394,0.14 -1.804,0.271 -1.41,-1.118C-1.305,-1.49 -0.972,-1.734 -0.139,-2.05C0.253,-2.199 0.788,-2.402 0.743,-2.77C0.704,-3.09 0.227,-3.255 -0.254,-2.986C-0.471,-2.865 -0.763,-2.604 -0.93,-2.044L-1.018,-2.019C-1.103,-2.238 -1.215,-2.531 -1.299,-2.75C-0.9,-3.004 -0.463,-3.174 0,-3.257" style="fill:rgb(152,72,92);fill-rule:nonzero;"/>
                            </g>
                            <g transform="matrix(1,0,0,1,787.866,19.6183)">
                                <path d="M0,-3.843C0.16,-3.89 0.647,-4.032 0.939,-3.474L0.94,-4.033C1.506,-4.028 1.69,-4.051 1.993,-4.097L1.993,-4.033C1.693,-3.927 1.669,-3.837 1.666,-3.375L1.664,-1.404L1.664,-1.333C1.666,-0.448 1.7,-0.24 2.042,-0.224L2.042,-0.166C1.213,0.03 1.213,0.03 0.449,0.254L0.449,0.196C0.822,-0.012 0.861,-0.242 0.865,-1.136L0.866,-1.393C0.26,-0.436 -0.967,-0.266 -1.225,-1.387C-1.41,-2.197 -1.089,-3.502 0,-3.843M0.162,-0.965C1.096,-1.277 1.013,-3.401 0.499,-3.663C-0.246,-4.043 -0.77,-2.377 -0.416,-1.328C-0.306,-1.004 -0.111,-0.882 0.162,-0.965" style="fill:rgb(152,72,92);fill-rule:nonzero;"/>
                            </g>
                            <g transform="matrix(1,0,0,1,784.897,20.1911)">
                                <path d="M0,-3.24C0.453,-3.47 0.792,-3.39 0.903,-3.364L0.712,-2.42C0.694,-2.412 0.678,-2.405 0.66,-2.397C0.394,-3.693 -0.106,-2.942 -0.128,-2.909C-0.333,-2.593 -0.337,-2.029 -0.338,-1.844L-0.338,-1.818C0.894,-2.433 1.155,-1.735 0.943,-1.069C0.761,-0.496 -0.03,0.258 -0.332,-0.308C-0.351,-0.342 -0.365,-0.378 -0.379,-0.415C-0.423,-0.124 -0.479,0.07 -0.496,0.122C-0.543,0.15 -0.589,0.177 -0.635,0.206C-0.757,0.283 -0.874,0.37 -0.993,0.453C-0.993,0.419 -1.004,0.368 -0.982,0.343C-0.831,0.157 -0.805,-0.239 -0.802,-1.055L-0.802,-1.325C-0.8,-2.029 -0.798,-2.825 0,-3.24M0.024,-0.339C0.402,-0.55 0.448,-1.638 0.084,-1.758C-0.054,-1.803 -0.199,-1.727 -0.262,-1.694C-0.278,-1.685 -0.295,-1.675 -0.312,-1.666L-0.339,-1.645L-0.339,-1.465C-0.337,-0.678 -0.274,-0.185 0.024,-0.339" style="fill:rgb(152,72,92);fill-rule:nonzero;"/>
                            </g>
                            <g transform="matrix(1,0,0,1,782.943,21.5148)">
                                <path d="M0,-3.113C0.309,-3.466 0.54,-3.043 0.587,-2.432C0.699,-0.952 -0.001,0.353 -0.195,0.144C-0.269,0.065 -0.295,-0.23 -0.305,-0.341C-0.295,-0.396 -0.282,-0.471 -0.273,-0.527C-0.244,-0.215 -0.196,0.08 -0.06,-0.093C0.293,-0.541 0.379,-3.004 0.04,-2.958C-0.123,-2.936 -0.215,-2.469 -0.234,-1.569C-0.239,-1.561 -0.244,-1.552 -0.249,-1.545C-0.308,-2.398 -0.329,-2.718 0,-3.113" style="fill:rgb(152,72,92);fill-rule:nonzero;"/>
                            </g>
                            <g transform="matrix(1,0,0,1,782.435,21.5703)">
                                <path d="M0,-0.69L0.001,-1.88L0.002,-1.898C0.027,-1.835 0.065,-1.489 0.064,-0.793C0.063,-0.126 0.003,0.54 -0.003,1.208C-0.002,1.034 -0.002,0.801 -0.002,0.627L-0.002,0.602C0,0.139 0.006,-0.324 0.003,-0.787C0.001,-0.754 0,-0.722 0,-0.69M0,-0.902C0,-0.934 0.001,-0.965 0.003,-0.997C0.003,-1.189 0,-1.381 0.001,-1.573L0,-0.902" style="fill:rgb(152,72,92);fill-rule:nonzero;"/>
                            </g>
                        </g>
                    </g>
                    <g>
                        <clipPath id="_clip2">
                            <path d="M812.747,17.005L812.725,36.306C822.302,35.468 828.343,33.132 828.346,30.622L828.367,11.321C828.365,13.832 822.323,16.167 812.747,17.005Z" clip-rule="nonzero"/>
                        </clipPath>
                        <g clip-path="url(#_clip2)">
                            <g transform="matrix(1,0,0,1,818.123,27.9869)">
                                <path d="M0,-3.278C-1.824,-2.943 -1.991,-1.884 -1.49,-1.556C-1.246,-1.396 -0.727,-1.346 -0.333,-1.332C0.285,-1.309 0.374,-1.215 0.416,-1.17C0.597,-0.978 0.474,-0.399 -0.266,-0.254C-0.902,-0.129 -1.313,-0.425 -1.487,-1.134L-1.588,-1.132C-1.71,-0.828 -1.872,-0.422 -1.994,-0.118C-1.131,0.104 -0.086,0.008 0.669,-0.364C1.488,-0.768 1.586,-1.453 1.394,-1.789C1.242,-2.052 0.852,-2.108 0.137,-2.12C-0.204,-2.127 -0.839,-2.138 -0.757,-2.559C-0.684,-2.936 -0.112,-3.21 0.335,-3.082C0.704,-2.976 0.861,-2.652 0.947,-2.418L1.031,-2.427C1.12,-2.682 1.238,-3.022 1.327,-3.277C1.049,-3.335 0.593,-3.382 0,-3.278" style="fill:rgb(152,72,92);fill-rule:nonzero;"/>
                            </g>
                            <g transform="matrix(1,0,0,1,822.538,28.2446)">
                                <path d="M0,-4.544C-0.456,-4.403 -0.763,-4.115 -0.963,-3.636L-0.963,-4.194C-1.543,-3.886 -1.775,-3.812 -2.045,-3.726L-2.045,-3.661C-1.764,-3.695 -1.713,-3.661 -1.711,-3.161L-1.713,-1.19L-1.713,-1.119C-1.717,-0.245 -1.756,-0.003 -2.104,0.173L-2.104,0.231C-2.041,0.216 -0.58,-0.148 -0.467,-0.179L-0.467,-0.237C-0.831,-0.23 -0.896,-0.395 -0.898,-1.335L-0.898,-1.591C-0.112,-0.843 1.364,-1.873 1.315,-3.493C1.288,-4.382 0.796,-4.775 0,-4.544M-0.168,-1.567C-1.12,-1.324 -1.003,-3.319 -0.63,-3.915C-0.404,-4.277 0.259,-4.622 0.46,-3.813C0.561,-3.404 0.662,-1.806 -0.168,-1.567" style="fill:rgb(152,72,92);fill-rule:nonzero;"/>
                            </g>
                            <g transform="matrix(1,0,0,1,825.624,25.6599)">
                                <path d="M0,-3.115C-0.319,-2.956 -0.637,-2.714 -0.941,-2.395L-0.748,-1.615C-0.729,-1.623 -0.709,-1.631 -0.69,-1.639C-0.396,-3.252 0.171,-2.925 0.237,-2.822C0.354,-2.641 0.355,-2.22 0.356,-2.083L0.356,-2.057C-1.901,-0.742 -0.843,0.17 -0.68,0.216C-0.648,0.224 0.066,0.412 0.396,-0.698C0.43,-0.519 0.449,-0.437 0.516,-0.294C0.565,-0.322 0.614,-0.349 0.662,-0.377C0.791,-0.449 0.921,-0.518 1.046,-0.597L1.046,-0.694C0.884,-0.681 0.847,-0.897 0.846,-1.852L0.847,-2.122C0.846,-2.876 0.846,-3.527 0,-3.115M-0.029,-0.186C-0.367,-0.037 -0.43,-0.813 -0.253,-1.259C-0.101,-1.644 0.183,-1.797 0.275,-1.847C0.292,-1.856 0.309,-1.865 0.324,-1.873L0.356,-1.884L0.355,-1.704C0.352,-0.903 0.285,-0.339 -0.029,-0.186" style="fill:rgb(152,72,92);fill-rule:nonzero;"/>
                            </g>
                            <g transform="matrix(1,0,0,1,827.718,24.2523)">
                                <path d="M0,-3.143C-0.829,-2.207 -0.843,0.232 -0.213,0.163C0.23,0.114 0.314,-0.897 0.346,-1.277C0.335,-1.298 0.32,-1.327 0.31,-1.348C0.187,0.103 -0.103,-0.239 -0.114,-0.254C-0.441,-0.659 -0.248,-3.051 0.112,-3.066C0.247,-3.072 0.26,-2.502 0.266,-2.259C0.271,-2.267 0.277,-2.275 0.283,-2.283C0.302,-2.575 0.328,-2.964 0.348,-3.255C0.304,-3.294 0.212,-3.375 0,-3.143" style="fill:rgb(152,72,92);fill-rule:nonzero;"/>
                            </g>
                            <g transform="matrix(1,0,0,1,828.356,21.7771)">
                                <path d="M0,-0.845C0,-1.213 0.001,-1.703 0.001,-2.071L0.001,-2.055L-0.001,-1.984C-0.157,0.892 -0.157,0.892 -0.031,1.223C-0.026,1.224 -0.02,1.225 -0.015,1.226C-0.003,1.179 -0.003,1.179 -0.002,0.778L-0.002,0.781C-0.022,0.525 -0.021,-0.093 -0.021,-0.59C-0.008,-0.675 0,-0.76 0,-0.845M0,-1.057C0,-0.972 -0.007,-0.888 -0.021,-0.804C-0.018,-1.165 0,-1.526 0.001,-1.887L0,-1.057" style="fill:rgb(152,72,92);fill-rule:nonzero;"/>
                            </g>
                        </g>
                    </g>
                    <g>
                        <clipPath id="_clip3">
                            <path d="M782.425,30.571C782.424,31.209 782.814,31.859 783.636,32.498C787.693,35.652 800.72,37.356 812.725,36.306L812.747,17.005C800.741,18.055 787.715,16.351 783.658,13.197C782.835,12.558 782.446,11.908 782.446,11.269L782.425,30.571Z" clip-rule="nonzero"/>
                        </clipPath>
                        <g clip-path="url(#_clip3)">
                            <g transform="matrix(1,0,0,1,782.59,20.3318)">
                                <path d="M0,2.131C0.006,2.033 -0.005,1.902 -0.017,1.805C-0.025,1.972 -0.051,2.481 -0.106,2.54C-0.109,2.54 -0.112,2.539 -0.114,2.539C-0.149,2.484 -0.156,2.269 -0.156,1.865C-0.156,2.04 -0.156,2.272 -0.157,2.447L-0.156,2.484C-0.153,2.628 -0.146,2.757 -0.107,2.766C-0.052,2.718 -0.019,2.394 0,2.131M-0.154,0.548C-0.155,0.78 -0.104,1.014 0.002,1.248C-0.016,0.631 -0.104,0.02 -0.151,-0.595C-0.152,-0.607 -0.152,-0.623 -0.153,-0.635C-0.153,-0.28 -0.154,0.194 -0.154,0.548M-0.154,0.336L-0.153,-0.334C-0.153,-0.354 -0.153,-0.374 -0.152,-0.393C-0.146,-0.374 -0.12,0.002 -0.119,0.672C-0.143,0.56 -0.154,0.448 -0.154,0.336" style="fill:rgb(152,72,92);fill-rule:nonzero;"/>
                            </g>
                            <g transform="matrix(1,0,0,1,784.292,25.5073)">
                                <path d="M0,-4.608C-0.209,-4.644 -0.377,-4.697 -0.598,-4.797L-0.598,-4.739C-0.469,-4.605 -0.451,-4.52 -0.45,-4.039L-0.452,-2.035C-0.455,-1.06 -0.485,-0.864 -0.632,-0.87L-0.632,-0.812C-0.515,-0.725 -0.391,-0.646 -0.269,-0.564C-0.23,-0.539 -0.192,-0.513 -0.153,-0.488C-0.088,-0.662 -0.065,-0.758 -0.046,-0.85C0.382,-0.006 0.382,-0.006 0.763,0.088C1.168,0.189 1.43,-0.143 1.531,-0.457C1.966,-1.812 0.746,-3.509 0.154,-3.185C0.077,-3.142 0.025,-3.075 -0.012,-3.021L-0.011,-3.554C-0.011,-3.906 -0.007,-4.257 0,-4.608M0.43,-0.278C-0.16,-0.629 -0.092,-2.922 0.264,-3.013C0.831,-3.157 1.229,-1.079 0.771,-0.365C0.686,-0.231 0.57,-0.201 0.43,-0.278" style="fill:rgb(152,72,92);fill-rule:nonzero;"/>
                            </g>
                            <g transform="matrix(1,0,0,1,789.484,26.4754)">
                                <path d="M0,-2.391C-0.286,-2.4 -0.475,-2.405 -1.129,-2.491L-1.129,-2.421C-0.866,-2.324 -0.828,-2.191 -0.826,-1.749L-0.827,-0.998C-0.842,0.181 -1.489,0.054 -1.744,-0.195C-1.995,-0.44 -2.032,-0.902 -2.034,-1.365L-2.033,-2.977C-2.377,-2.995 -2.48,-3 -2.991,-3.111L-2.991,-3.04C-2.766,-2.933 -2.732,-2.799 -2.73,-2.358L-2.731,-1.542C-2.714,0.414 -1.31,0.451 -0.941,0.078C-0.868,0.004 -0.822,-0.078 -0.801,-0.117C-0.786,-0.021 -0.763,0.139 -0.68,0.437C-0.584,0.463 -0.487,0.489 -0.39,0.515C-0.138,0.584 0.114,0.658 0.368,0.72L0.368,0.623C0.041,0.462 -0.012,0.153 -0.013,-0.756L-0.012,-1.681C-0.012,-1.917 -0.01,-2.154 0,-2.391" style="fill:rgb(152,72,92);fill-rule:nonzero;"/>
                            </g>
                            <g transform="matrix(1,0,0,1,791.876,28.2522)">
                                <path d="M0,-4.848C-0.572,-4.829 -1.021,-4.867 -1.236,-4.884L-1.236,-4.827C-0.968,-4.736 -0.915,-4.673 -0.912,-4.165L-0.915,-2.161C-0.92,-1.21 -0.999,-0.961 -1.302,-0.948L-1.302,-0.89C-1.046,-0.835 -0.787,-0.79 -0.53,-0.739C-0.455,-0.723 -0.38,-0.708 -0.304,-0.693C-0.164,-0.898 -0.121,-1.007 -0.087,-1.094C0.634,0.036 2.55,-0.112 2.8,-1.317C3.14,-2.949 1.058,-3.991 0.11,-3.367C0.062,-3.335 0.017,-3.299 -0.027,-3.26L-0.026,-3.793C-0.026,-3.8 -0.022,-4.515 0,-4.848M0.813,-0.619C-0.31,-0.847 -0.146,-2.93 0.345,-3.249C0.956,-3.648 1.997,-2.893 1.671,-1.315C1.594,-0.943 1.382,-0.52 0.813,-0.619" style="fill:rgb(152,72,92);fill-rule:nonzero;"/>
                            </g>
                            <g transform="matrix(1,0,0,1,797.184,29.0889)">
                                <path d="M0,-4.923C-0.659,-4.861 -1.187,-4.864 -1.44,-4.866L-1.44,-4.808C-1.125,-4.738 -1.062,-4.68 -1.06,-4.172L-1.062,-2.168C-1.067,-1.216 -1.161,-0.961 -1.516,-0.924L-1.516,-0.867C-1.216,-0.832 -0.914,-0.807 -0.613,-0.774C-0.526,-0.764 -0.438,-0.755 -0.351,-0.746C-0.19,-0.958 -0.139,-1.076 -0.101,-1.163C0.8,0 3.044,-0.406 3.188,-1.758C3.355,-3.325 1.067,-4.218 -0.001,-3.359C-0.011,-3.351 -0.022,-3.341 -0.032,-3.333L-0.031,-3.866C-0.031,-3.873 -0.027,-4.571 0,-4.923M0.932,-0.755C-0.362,-0.901 -0.154,-2.944 0.356,-3.323C0.861,-3.698 2.196,-3.412 1.927,-1.648C1.858,-1.206 1.631,-0.693 0.932,-0.755" style="fill:rgb(152,72,92);fill-rule:nonzero;"/>
                            </g>
                            <g transform="matrix(1,0,0,1,803.173,28.7882)">
                                <path d="M0,-4.238C-0.139,-4.218 -0.87,-4.12 -1.604,-4.091L-1.604,-4.027C-1.246,-3.992 -1.168,-3.884 -1.165,-3.423L-1.167,-1.412L-1.167,-1.175C-1.173,-0.411 -1.258,-0.237 -1.671,-0.136L-1.671,-0.072C-1.434,-0.071 0.045,-0.029 0.474,0C0.477,-0.019 0.479,-0.045 0.481,-0.064C0.036,-0.182 -0.024,-0.397 -0.027,-1.188L-0.025,-3.185C-0.024,-3.872 -0.002,-4.203 0,-4.238" style="fill:rgb(152,72,92);fill-rule:nonzero;"/>
                            </g>
                            <g transform="matrix(1,0,0,1,807.084,29.335)">
                                <path d="M0,-3.651C-2.403,-3.575 -2.713,-1.908 -1.855,-1.089C-1.086,-0.354 1.401,0.061 2.192,-1.755C2.127,-1.794 2.039,-1.846 1.974,-1.886C1.402,-0.387 -0.403,-0.515 -0.817,-1.491C-0.944,-1.789 -0.943,-2.114 -0.926,-2.393L-0.917,-2.412C0.095,-2.42 1.111,-2.446 2.129,-2.49C1.897,-3.48 0.844,-3.668 0,-3.651M-0.909,-2.624C-0.691,-3.712 0.297,-3.598 0.59,-3.17C0.723,-2.976 0.733,-2.75 0.738,-2.653C0.188,-2.638 -0.361,-2.629 -0.909,-2.624" style="fill:rgb(152,72,92);fill-rule:nonzero;"/>
                            </g>
                        </g>
                    </g>
                    <g transform="matrix(0,-1,-1,0,805.392,18.7097)">
                        <path d="M-2.239,-2.24C-3.475,-2.24 -4.478,-1.238 -4.478,-0.002C-4.478,1.235 -3.475,2.239 -2.239,2.239C-1.003,2.239 -0.001,1.235 -0.001,-0.002C-0.001,-1.238 -1.003,-2.24 -2.239,-2.24" style="fill:rgb(157,73,94);fill-rule:nonzero;"/>
                    </g>
                </g>
            </g>
        </g>
    </g>
</svg>
