<?xml version="1.0" encoding="UTF-8" standalone="no"?>
<!DOCTYPE svg PUBLIC "-//W3C//DTD SVG 1.1//EN" "http://www.w3.org/Graphics/SVG/1.1/DTD/svg11.dtd">
<svg width="100%" height="100%" viewBox="0 0 359 133" version="1.1" xmlns="http://www.w3.org/2000/svg" xmlns:xlink="http://www.w3.org/1999/xlink" xml:space="preserve" xmlns:serif="http://www.serif.com/" style="fill-rule:evenodd;clip-rule:evenodd;stroke-linejoin:round;stroke-miterlimit:2;">
    <g transform="matrix(1,0,0,1,-175.953,-129.942)">
        <g transform="matrix(8.33333,0,0,8.33333,0,0)">
            <g id="Nav">
                <g>
                    <g transform="matrix(1,0,0,1,27.8784,15.9754)">
                        <path d="M0,5.567C-0.187,5.267 -0.542,4.984 -1.062,4.717C-1.125,4.701 -1.146,4.676 -1.125,4.642C-1.104,4.626 -1.062,4.609 -1,4.592C-0.271,4.609 0.333,4.734 0.812,4.967C1.104,5.184 1.125,5.425 0.875,5.692C0.521,5.875 0.229,5.834 0,5.567M-2.219,3.967L-0.407,3.967L-0.407,3.292L-2.219,3.292L-2.219,3.967ZM-2.219,3.092L-0.407,3.092L-0.407,2.417L-2.219,2.417L-2.219,3.092ZM-0.406,1.542L-2.156,1.542C-2.219,1.592 -2.24,1.65 -2.219,1.717L-2.219,2.242L-0.406,2.242L-0.406,1.542ZM-3.313,2.967L-3.313,2.217C-3.333,1.967 -3.344,1.742 -3.344,1.542L-3.344,1.342C-3.427,1.176 -3.344,1.101 -3.094,1.117C-2.615,1.217 -2.313,1.275 -2.188,1.292C-2.146,1.326 -2.104,1.351 -2.063,1.367L-1.937,1.367C-1.917,0.951 -1.896,0.617 -1.875,0.367L-2.594,0.367C-2.74,0.384 -2.896,0.4 -3.063,0.417C-3.146,0.434 -3.198,0.417 -3.219,0.367C-3.302,0.334 -3.375,0.275 -3.438,0.192C-3.479,0.142 -3.458,0.117 -3.375,0.117C-3.146,0.15 -2.833,0.167 -2.438,0.167L-0.312,0.167C-0.146,-0.1 0,-0.258 0.125,-0.308C0.333,-0.291 0.646,-0.124 1.062,0.192C1.104,0.309 1.073,0.367 0.969,0.367L-0.531,0.367C-0.511,0.451 -0.542,0.501 -0.625,0.517C-0.771,0.567 -0.865,0.634 -0.906,0.717C-1.031,0.9 -1.187,1.117 -1.375,1.367L-0.5,1.367C-0.375,1.134 -0.261,1.009 -0.156,0.992C0.302,1.159 0.677,1.351 0.969,1.567C0.989,1.617 0.927,1.676 0.781,1.742C0.719,1.775 0.687,1.859 0.687,1.992L0.687,2.617C0.687,2.934 0.698,3.251 0.719,3.567C0.739,3.817 0.75,3.967 0.75,4.017C0.771,4.201 0.708,4.301 0.562,4.317C0.417,4.351 0.198,4.392 -0.094,4.442C-0.344,4.492 -0.448,4.4 -0.406,4.167L-2.25,4.167C-2.25,4.301 -2.313,4.384 -2.438,4.417C-2.625,4.467 -2.781,4.501 -2.906,4.517C-3.031,4.534 -3.125,4.542 -3.188,4.542C-3.354,4.559 -3.417,4.476 -3.375,4.292C-3.354,3.976 -3.333,3.534 -3.313,2.967M-2.219,4.392C-1.74,4.676 -1.448,4.851 -1.344,4.917C-1.281,4.984 -1.261,5.025 -1.281,5.042C-1.302,5.092 -1.354,5.117 -1.437,5.117C-1.625,5.1 -1.761,5.125 -1.844,5.192C-2.49,5.475 -3.198,5.692 -3.969,5.842C-4.094,5.859 -4.177,5.842 -4.219,5.792C-4.219,5.742 -4.167,5.7 -4.062,5.667C-3.25,5.25 -2.708,4.851 -2.438,4.467C-2.396,4.4 -2.323,4.376 -2.219,4.392M-3.5,0.717L-4.437,0.717C-4.396,0.751 -4.396,0.792 -4.437,0.842C-4.521,0.876 -4.552,0.934 -4.531,1.017L-4.531,3.267C-4.448,3.251 -4.312,3.226 -4.125,3.192C-3.958,3.159 -3.792,3.117 -3.625,3.067C-3.521,3.051 -3.448,3.067 -3.406,3.117C-3.406,3.167 -3.448,3.217 -3.531,3.267C-4.24,3.65 -4.979,4.009 -5.75,4.342C-5.875,4.392 -5.958,4.459 -6,4.542C-6.104,4.692 -6.229,4.676 -6.375,4.492C-6.479,4.342 -6.604,4.084 -6.75,3.717C-6.792,3.601 -6.74,3.534 -6.594,3.517C-6.448,3.517 -6.187,3.492 -5.812,3.442C-5.771,3.442 -5.729,3.434 -5.687,3.417L-5.687,0.717L-5.969,0.717C-6.156,0.717 -6.312,0.726 -6.437,0.742C-6.521,0.759 -6.573,0.751 -6.594,0.717C-6.656,0.667 -6.698,0.617 -6.719,0.567L-6.75,0.517C-6.729,0.501 -6.698,0.492 -6.656,0.492C-6.615,0.492 -6.511,0.501 -6.344,0.517L-4.625,0.517C-4.437,0.251 -4.292,0.109 -4.187,0.092C-3.917,0.176 -3.656,0.317 -3.406,0.517C-3.344,0.65 -3.375,0.717 -3.5,0.717" style="fill:rgb(157,73,94);fill-rule:nonzero;"/>
                    </g>
                    <g transform="matrix(1,0,0,1,0,-426.541)">
                        <path d="M32.522,447.259L35.147,447.259L35.147,445.834L32.522,445.834L32.522,447.259ZM32.522,445.659L35.147,445.659L35.147,444.384L32.522,444.384L32.522,445.659ZM35.147,442.909L32.709,442.909C32.709,442.925 32.699,442.934 32.678,442.934C32.553,443 32.501,443.067 32.522,443.134L32.522,444.184L35.147,444.184L35.147,442.909ZM31.272,444.759L31.272,443.608C31.251,443.409 31.241,443.217 31.241,443.034C31.22,442.851 31.199,442.7 31.178,442.583C31.136,442.384 31.23,442.309 31.459,442.358C31.813,442.425 32.199,442.517 32.616,442.634C32.699,442.667 32.751,442.692 32.772,442.708L34.959,442.708C35.167,442.442 35.324,442.3 35.428,442.284C35.72,442.317 36.095,442.476 36.553,442.759C36.741,442.892 36.741,443.017 36.553,443.134C36.449,443.167 36.407,443.259 36.428,443.409L36.428,444.708C36.407,445.992 36.428,447.025 36.491,447.809C36.511,448.009 36.397,448.134 36.147,448.184C35.917,448.233 35.688,448.267 35.459,448.284C35.23,448.3 35.126,448.225 35.147,448.059L35.147,447.434L32.522,447.434L32.522,447.858C32.522,448.059 32.438,448.175 32.272,448.208C32.105,448.259 31.876,448.3 31.584,448.333C31.251,448.4 31.116,448.292 31.178,448.009C31.199,447.708 31.22,447.267 31.241,446.684C31.241,446.017 31.251,445.375 31.272,444.759" style="fill:rgb(157,73,94);fill-rule:nonzero;"/>
                    </g>
                    <g transform="matrix(1,0,0,1,40.5098,17.4584)">
                        <path d="M0,2.584L0,1.659L-0.062,1.659C-0.167,1.726 -0.229,1.818 -0.25,1.934C-0.271,1.968 -0.281,2.009 -0.281,2.059C-0.302,2.126 -0.312,2.167 -0.312,2.184C-0.229,2.334 -0.125,2.468 0,2.584M2.313,2.109L1.156,2.109L1.156,3.284C1.364,3.334 1.614,3.359 1.906,3.359C2.385,3.393 3.052,3.393 3.906,3.359C4.739,3.326 5.385,3.276 5.844,3.209C5.989,3.193 6.083,3.201 6.125,3.234C6.125,3.318 6.083,3.384 6,3.434C5.792,3.518 5.667,3.742 5.625,4.109C5.646,4.226 5.521,4.284 5.25,4.284C4.292,4.317 3.219,4.309 2.031,4.259C0.76,4.242 -0.094,3.775 -0.531,2.859C-0.781,3.409 -1.104,3.884 -1.5,4.284C-1.604,4.367 -1.687,4.4 -1.75,4.384C-1.792,4.367 -1.792,4.309 -1.75,4.209C-1.458,3.259 -1.344,2.326 -1.406,1.409C-1.448,1.259 -1.386,1.193 -1.219,1.209C-0.99,1.226 -0.615,1.276 -0.094,1.359L-0.062,1.384C-0.042,1.401 -0.021,1.401 0,1.384L0,0.834L-0.906,0.834C-1.115,0.834 -1.261,0.843 -1.344,0.859C-1.427,0.893 -1.479,0.884 -1.5,0.834C-1.562,0.768 -1.625,0.709 -1.687,0.659L-1.719,0.609C-1.719,0.593 -1.687,0.584 -1.625,0.584C-1.312,0.618 -1.021,0.634 -0.75,0.634L-0.25,0.634L-0.25,-0.391L-0.531,-0.391C-0.761,-0.391 -0.917,-0.382 -1,-0.366C-1.062,-0.333 -1.104,-0.341 -1.125,-0.391C-1.187,-0.458 -1.25,-0.516 -1.312,-0.566C-1.354,-0.599 -1.365,-0.616 -1.344,-0.616C-1.344,-0.632 -1.312,-0.641 -1.25,-0.641C-0.937,-0.607 -0.646,-0.591 -0.375,-0.591L-0.25,-0.591C-0.312,-1.107 -0.344,-1.441 -0.344,-1.591C-0.386,-1.741 -0.312,-1.816 -0.125,-1.816C0.417,-1.766 0.792,-1.716 1,-1.666C1.187,-1.599 1.208,-1.507 1.062,-1.391C0.958,-1.341 0.917,-1.266 0.937,-1.166L0.937,-0.591L1.187,-0.591C1.396,-0.907 1.562,-1.074 1.687,-1.091C1.937,-1.024 2.239,-0.857 2.594,-0.591C2.656,-0.474 2.625,-0.407 2.5,-0.391L0.937,-0.391L0.937,0.634L1.25,0.634C1.417,0.334 1.573,0.167 1.719,0.134C1.906,0.167 2.156,0.284 2.469,0.484C2.469,0.401 2.458,0.318 2.438,0.234C2.417,0.084 2.5,0.026 2.688,0.059C3.167,0.159 3.5,0.243 3.688,0.309C3.708,0.309 3.739,0.334 3.781,0.384L4.219,0.384L4.219,-0.891L3.25,-0.891C3.104,-0.874 2.948,-0.857 2.781,-0.841C2.698,-0.824 2.646,-0.841 2.625,-0.891C2.604,-0.907 2.583,-0.932 2.563,-0.966C2.521,-0.999 2.5,-1.032 2.5,-1.066C2.458,-1.116 2.479,-1.132 2.563,-1.116C2.625,-1.116 2.76,-1.099 2.969,-1.066L4.125,-1.066C4.292,-1.282 4.427,-1.399 4.531,-1.416C4.948,-1.299 5.292,-1.124 5.562,-0.891C5.562,-0.807 5.521,-0.749 5.437,-0.716C5.375,-0.682 5.344,-0.624 5.344,-0.541C5.323,-0.024 5.333,0.359 5.375,0.609C5.396,0.792 5.302,0.901 5.094,0.934C4.823,0.984 4.625,1.009 4.5,1.009C4.271,1.042 4.177,0.959 4.219,0.759L4.219,0.559L3.688,0.559C3.625,0.609 3.594,0.676 3.594,0.759L3.594,1.859C3.573,2.093 3.719,2.201 4.031,2.184L4.437,2.184C4.792,2.218 4.979,1.993 5,1.509C5.021,1.359 5.073,1.284 5.156,1.284C5.198,1.284 5.239,1.359 5.281,1.509C5.281,1.876 5.396,2.093 5.625,2.159C5.792,2.226 5.896,2.343 5.937,2.509C5.937,2.643 5.833,2.768 5.625,2.884C5.437,2.968 5.167,3.009 4.812,3.009L3.375,3.009C2.771,3.009 2.469,2.759 2.469,2.259L2.469,0.834L1.281,0.834C1.302,0.868 1.281,0.909 1.219,0.959C1.156,0.993 1.135,1.068 1.156,1.184L1.156,1.934L1.187,1.934C1.333,1.667 1.479,1.518 1.625,1.484C1.854,1.551 2.104,1.701 2.375,1.934C2.417,1.984 2.427,2.026 2.406,2.059C2.406,2.093 2.375,2.109 2.313,2.109" style="fill:rgb(157,73,94);fill-rule:nonzero;"/>
                    </g>
                    <g transform="matrix(1,0,0,1,0,-426.641)">
                        <path d="M52.372,445.634L53.653,445.634L53.653,444.934L52.372,444.934L52.372,445.634ZM52.372,444.183L52.372,444.759L53.653,444.759L53.653,444.058L52.466,444.058C52.403,444.092 52.372,444.134 52.372,444.183M48.622,443.384C48.539,443.083 48.361,442.808 48.091,442.558C48.028,442.525 48.007,442.492 48.028,442.458C48.049,442.442 48.101,442.425 48.185,442.409C48.997,442.409 49.528,442.558 49.778,442.859C49.903,443.259 49.747,443.517 49.31,443.634C48.955,443.734 48.726,443.65 48.622,443.384M49.935,444.784L49.935,443.659C49.497,444.725 49.247,445.484 49.185,445.933C49.101,446.3 49.143,446.767 49.31,447.333C49.351,447.55 49.268,447.717 49.06,447.833C48.914,447.933 48.705,447.967 48.435,447.933C47.935,447.833 47.768,447.6 47.935,447.234C48.08,446.9 48.153,446.625 48.153,446.409C48.07,446.275 47.903,446.167 47.653,446.083C47.549,446.034 47.507,445.984 47.528,445.933C47.549,445.884 47.611,445.859 47.716,445.859C48.111,445.942 48.393,445.842 48.56,445.558C48.976,445.042 49.414,444.275 49.872,443.259C49.893,443.242 49.903,443.217 49.903,443.183C49.882,442.917 49.861,442.708 49.841,442.558C49.82,442.458 49.83,442.4 49.872,442.384C49.893,442.35 49.986,442.342 50.153,442.359C50.528,442.442 50.841,442.517 51.091,442.583C51.174,442.617 51.226,442.659 51.247,442.708L53.872,442.708C54.101,442.392 54.257,442.234 54.341,442.234C54.632,442.3 54.955,442.451 55.31,442.683C55.351,442.734 55.361,442.784 55.341,442.833C55.32,442.867 55.278,442.884 55.216,442.884L53.747,442.884C53.789,443.017 53.757,443.092 53.653,443.109C53.507,443.125 53.414,443.175 53.372,443.259C53.226,443.458 53.028,443.659 52.778,443.859L53.591,443.859C53.716,443.659 53.83,443.542 53.935,443.509C54.414,443.675 54.768,443.859 54.997,444.058C55.018,444.142 54.976,444.208 54.872,444.259C54.747,444.308 54.695,444.367 54.716,444.433L54.716,445.208C54.736,445.442 54.757,445.583 54.778,445.634C54.799,445.833 54.726,445.951 54.56,445.984C54.33,446.067 54.143,446.1 53.997,446.083C53.726,446.134 53.611,446.058 53.653,445.859L53.653,445.833L53.528,445.833L53.528,446.333C54.174,446.517 54.674,446.742 55.028,447.009C55.341,447.392 55.299,447.692 54.903,447.909C54.507,448.058 54.236,447.942 54.091,447.558C53.986,447.242 53.81,446.925 53.56,446.609C53.56,446.975 53.58,447.326 53.622,447.659C53.664,447.942 53.58,448.142 53.372,448.259C53.205,448.342 52.893,448.425 52.435,448.509C52.164,448.542 52.028,448.484 52.028,448.333C52.028,448.034 51.82,447.875 51.403,447.859C51.236,447.825 51.164,447.775 51.185,447.708C51.205,447.675 51.299,447.659 51.466,447.659L52.185,447.659C52.372,447.642 52.466,447.558 52.466,447.409L52.466,446.734C52.278,446.75 52.132,446.817 52.028,446.933C51.611,447.417 51.028,447.792 50.278,448.058C50.174,448.092 50.111,448.1 50.091,448.083C50.07,448.05 50.091,448.009 50.153,447.958C50.486,447.692 50.768,447.35 50.997,446.933C51.06,446.85 51.122,446.692 51.185,446.458C51.205,446.425 51.226,446.384 51.247,446.333C51.226,446.234 51.31,446.201 51.497,446.234C51.83,446.3 52.153,446.367 52.466,446.433L52.466,445.833L52.372,445.833C52.372,445.984 52.31,446.067 52.185,446.083C51.997,446.134 51.778,446.159 51.528,446.159C51.341,446.175 51.257,446.1 51.278,445.933C51.299,445.701 51.32,445.225 51.341,444.509C51.341,444.175 51.33,443.933 51.31,443.784C51.289,443.683 51.289,443.625 51.31,443.609C51.33,443.592 51.414,443.583 51.56,443.583C51.851,443.634 52.143,443.708 52.435,443.808C52.455,443.492 52.455,443.183 52.435,442.884L51.122,442.884C51.018,442.951 50.976,443.017 50.997,443.083L50.997,444.808C51.06,446.708 50.372,447.933 48.935,448.484C48.81,448.534 48.726,448.55 48.685,448.534C48.664,448.5 48.695,448.45 48.778,448.384C49.528,447.534 49.914,446.333 49.935,444.784M47.997,444.659C47.914,444.359 47.768,444.076 47.56,443.808C47.518,443.775 47.497,443.742 47.497,443.708C47.518,443.692 47.57,443.675 47.653,443.659C48.486,443.742 48.997,443.933 49.185,444.234C49.289,444.6 49.101,444.85 48.622,444.984C48.289,445.067 48.08,444.958 47.997,444.659" style="fill:rgb(157,73,94);fill-rule:nonzero;"/>
                    </g>
                    <g transform="matrix(1,0,0,1,27.5034,30.0088)">
                        <path d="M0,-3.191L-0.969,-3.191C-0.969,-3.174 -0.979,-3.149 -1,-3.116L-1,0.034L0,0.034L0,-3.191ZM-3.5,-3.291L-3.5,-2.716L-3.313,-2.716C-3.104,-3.016 -2.938,-3.183 -2.813,-3.216C-2.604,-3.149 -2.375,-3 -2.125,-2.766L-2.125,-2.841C-2.125,-3.158 -2.136,-3.382 -2.156,-3.516C-2.177,-3.599 -2.167,-3.649 -2.125,-3.666C-2.104,-3.699 -2.031,-3.708 -1.906,-3.691C-1.511,-3.591 -1.198,-3.5 -0.969,-3.416L-0.937,-3.391C-0.937,-3.375 -0.927,-3.366 -0.906,-3.366L-0.156,-3.366C-0.136,-3.382 -0.104,-3.416 -0.062,-3.466C0.146,-3.683 0.281,-3.791 0.344,-3.791C0.51,-3.774 0.802,-3.632 1.219,-3.366C1.364,-3.25 1.375,-3.149 1.25,-3.066C1.146,-3 1.104,-2.916 1.125,-2.816L1.125,-0.416C1.146,-0.099 1.167,0.151 1.187,0.334C1.229,0.517 1.156,0.625 0.969,0.659C0.698,0.725 0.5,0.775 0.375,0.809C0.083,0.875 -0.042,0.792 0,0.559L0,0.234L-1,0.234L-1,0.559C-0.979,0.742 -1.052,0.842 -1.219,0.859C-1.365,0.875 -1.5,0.892 -1.625,0.909C-1.729,0.909 -1.802,0.917 -1.844,0.934C-2.094,0.95 -2.198,0.867 -2.156,0.684C-2.136,0.551 -2.125,0.276 -2.125,-0.141L-2.125,-2.516L-3.5,-2.516L-3.5,-1.916C-2.958,-1.849 -2.552,-1.674 -2.281,-1.391C-2.136,-1.091 -2.229,-0.858 -2.563,-0.691C-2.958,-0.591 -3.198,-0.699 -3.281,-1.016C-3.323,-1.283 -3.396,-1.507 -3.5,-1.691L-3.5,-1.166C-3.5,-0.683 -3.479,0.009 -3.438,0.909C-3.396,1.142 -3.5,1.292 -3.75,1.359C-3.958,1.409 -4.167,1.442 -4.375,1.459C-4.729,1.542 -4.865,1.384 -4.781,0.984C-4.781,0.817 -4.75,0.234 -4.687,-0.766C-5.104,-0.333 -5.583,-0 -6.125,0.234C-6.208,0.284 -6.261,0.292 -6.281,0.259C-6.323,0.243 -6.312,0.201 -6.25,0.134C-5.5,-0.766 -5.021,-1.649 -4.812,-2.516L-5.437,-2.516C-5.604,-2.5 -5.761,-2.483 -5.906,-2.466C-5.99,-2.449 -6.042,-2.466 -6.062,-2.516C-6.146,-2.566 -6.198,-2.625 -6.219,-2.691C-6.24,-2.741 -6.219,-2.766 -6.156,-2.766C-5.865,-2.733 -5.573,-2.716 -5.281,-2.716L-4.687,-2.716L-4.687,-3.616C-5.125,-3.583 -5.542,-3.574 -5.937,-3.591C-6.062,-3.591 -6.136,-3.608 -6.156,-3.641C-6.156,-3.691 -6.083,-3.733 -5.937,-3.766C-4.854,-4.049 -3.958,-4.349 -3.25,-4.666C-3.146,-4.733 -3.042,-4.733 -2.938,-4.666C-2.688,-4.5 -2.386,-4.266 -2.031,-3.966C-1.948,-3.833 -1.99,-3.766 -2.156,-3.766C-2.281,-3.783 -2.417,-3.791 -2.563,-3.791C-2.75,-3.757 -2.969,-3.733 -3.219,-3.716C-3.219,-3.666 -3.25,-3.616 -3.313,-3.566C-3.438,-3.5 -3.5,-3.408 -3.5,-3.291" style="fill:rgb(157,73,94);fill-rule:nonzero;"/>
                    </g>
                    <g transform="matrix(1,0,0,1,33.9907,30.5258)">
                        <path d="M0,-4.333C-0.021,-4.55 -0.125,-4.791 -0.312,-5.058C-0.375,-5.125 -0.396,-5.166 -0.375,-5.183C-0.354,-5.2 -0.292,-5.208 -0.187,-5.208C0.333,-5.142 0.729,-5 1,-4.783C1.25,-4.45 1.177,-4.175 0.781,-3.958C0.344,-3.825 0.083,-3.95 0,-4.333M1.781,-3.883L2.094,-3.883C2.344,-4.166 2.531,-4.325 2.656,-4.358C2.948,-4.291 3.239,-4.133 3.531,-3.883C3.594,-3.8 3.614,-3.733 3.594,-3.683C3.573,-3.649 3.51,-3.642 3.406,-3.658C3.281,-3.675 2.864,-3.683 2.156,-3.683L1.875,-3.683L1.875,-2.608L2.063,-2.608C2.271,-2.892 2.448,-3.05 2.594,-3.083C2.844,-3.017 3.125,-2.866 3.438,-2.633C3.479,-2.55 3.5,-2.491 3.5,-2.458C3.479,-2.425 3.438,-2.408 3.375,-2.408C3.229,-2.392 2.938,-2.392 2.5,-2.408C2.188,-2.425 2,-2.433 1.937,-2.433L1.875,-2.433L1.875,-1.283L2.25,-1.283C2.479,-1.616 2.677,-1.791 2.844,-1.808C3.094,-1.741 3.385,-1.566 3.719,-1.283C3.76,-1.216 3.771,-1.158 3.75,-1.108C3.729,-1.075 3.677,-1.058 3.594,-1.058L3.156,-1.058C2.948,-1.075 2.677,-1.083 2.344,-1.083L1.875,-1.083C1.875,-0.7 1.896,-0.216 1.937,0.367C1.958,0.6 1.844,0.75 1.594,0.817C1.385,0.883 1.177,0.925 0.969,0.942C0.614,1.025 0.479,0.867 0.562,0.467L0.562,0.142C0.625,-0.375 0.656,-0.783 0.656,-1.083L-0.156,-1.083C-0.406,-1.083 -0.573,-1.075 -0.656,-1.058C-0.719,-1.024 -0.771,-1.033 -0.812,-1.083C-0.833,-1.116 -0.865,-1.158 -0.906,-1.208C-0.927,-1.241 -0.937,-1.267 -0.937,-1.283C-1,-1.333 -0.979,-1.35 -0.875,-1.333C-0.604,-1.3 -0.323,-1.283 -0.031,-1.283L0.656,-1.283L0.656,-2.433L0.062,-2.433C-0.125,-2.416 -0.292,-2.399 -0.437,-2.383C-0.5,-2.366 -0.552,-2.366 -0.594,-2.383L-0.594,-2.433C-0.615,-2.45 -0.636,-2.475 -0.656,-2.508C-0.698,-2.541 -0.719,-2.575 -0.719,-2.608C-0.761,-2.625 -0.771,-2.642 -0.75,-2.658L-0.656,-2.683C-0.24,-2.616 0.042,-2.591 0.187,-2.608L0.656,-2.608L0.656,-3.683L0.187,-3.683C-0.021,-3.666 -0.198,-3.658 -0.344,-3.658L-0.594,-3.658C-0.656,-3.625 -0.708,-3.633 -0.75,-3.683C-0.792,-3.7 -0.823,-3.733 -0.844,-3.783C-0.886,-3.816 -0.906,-3.85 -0.906,-3.883C-0.948,-3.933 -0.927,-3.95 -0.844,-3.933C-0.761,-3.916 -0.594,-3.899 -0.344,-3.883L1.375,-3.883C1.521,-4.35 1.583,-4.774 1.562,-5.158C1.521,-5.308 1.625,-5.358 1.875,-5.308C2.021,-5.274 2.26,-5.216 2.594,-5.133C2.698,-5.116 2.781,-5.108 2.844,-5.108C2.927,-5.058 2.969,-5 2.969,-4.933C2.969,-4.85 2.917,-4.808 2.813,-4.808C2.667,-4.791 2.573,-4.733 2.531,-4.633C2.219,-4.267 1.969,-4.017 1.781,-3.883M-2.188,-1.258L-2.656,-1.258C-2.656,-1.241 -2.667,-1.225 -2.688,-1.208L-2.688,-0.108L-2.188,-0.108L-2.188,-1.258ZM-2.969,-4.308C-3.011,-4.558 -3.146,-4.8 -3.375,-5.033C-3.438,-5.066 -3.458,-5.091 -3.438,-5.108C-3.417,-5.125 -3.365,-5.142 -3.281,-5.158C-2.594,-5.108 -2.146,-4.966 -1.937,-4.733C-1.812,-4.466 -1.865,-4.25 -2.094,-4.083C-2.531,-3.916 -2.823,-3.991 -2.969,-4.308M-1.187,-2.083L-2.938,-2.083C-3.208,-2.083 -3.375,-2.075 -3.438,-2.058C-3.542,-2.041 -3.604,-2.058 -3.625,-2.108C-3.646,-2.125 -3.667,-2.142 -3.688,-2.158C-3.708,-2.175 -3.719,-2.2 -3.719,-2.233C-3.761,-2.3 -3.74,-2.333 -3.656,-2.333C-3.511,-2.283 -3.229,-2.267 -2.813,-2.283L-2.094,-2.283C-1.969,-2.483 -1.844,-2.608 -1.719,-2.658C-1.573,-2.625 -1.365,-2.5 -1.094,-2.283C-1.011,-2.149 -1.042,-2.083 -1.187,-2.083M-2.563,-1.433L-2.313,-1.433C-2.188,-1.633 -2.052,-1.741 -1.906,-1.758C-1.531,-1.658 -1.219,-1.491 -0.969,-1.258C-0.969,-1.175 -1.011,-1.116 -1.094,-1.083C-1.177,-1.05 -1.208,-0.983 -1.187,-0.883L-1.187,-0.433C-1.167,-0.233 -1.156,-0.083 -1.156,0.017C-1.156,0.183 -1.24,0.283 -1.406,0.317C-1.511,0.333 -1.625,0.35 -1.75,0.367C-1.792,0.367 -1.833,0.375 -1.875,0.392C-2.104,0.408 -2.208,0.342 -2.188,0.192L-2.188,0.042L-2.688,0.042L-2.688,0.242C-2.688,0.392 -2.771,0.475 -2.938,0.492C-3.125,0.525 -3.292,0.542 -3.438,0.542C-3.729,0.575 -3.844,0.433 -3.781,0.117C-3.761,-0.233 -3.74,-0.558 -3.719,-0.858C-3.719,-1.024 -3.729,-1.149 -3.75,-1.233C-3.75,-1.333 -3.761,-1.441 -3.781,-1.558C-3.802,-1.642 -3.792,-1.7 -3.75,-1.733C-3.729,-1.75 -3.656,-1.75 -3.531,-1.733C-3.261,-1.683 -2.979,-1.6 -2.688,-1.483C-2.625,-1.45 -2.583,-1.433 -2.563,-1.433M-1.219,-2.883L-3,-2.883C-3.125,-2.883 -3.261,-2.875 -3.406,-2.858C-3.469,-2.841 -3.5,-2.841 -3.5,-2.858C-3.604,-2.825 -3.667,-2.833 -3.688,-2.883C-3.729,-2.933 -3.761,-2.983 -3.781,-3.033C-3.802,-3.05 -3.813,-3.066 -3.813,-3.083C-3.792,-3.1 -3.761,-3.108 -3.719,-3.108C-3.448,-3.075 -3.167,-3.058 -2.875,-3.058L-2.219,-3.058L-2.188,-3.108C-1.979,-3.325 -1.854,-3.433 -1.812,-3.433C-1.687,-3.416 -1.469,-3.291 -1.156,-3.058C-1.115,-3.008 -1.094,-2.966 -1.094,-2.933C-1.115,-2.899 -1.156,-2.883 -1.219,-2.883M-1,-3.658L-3.25,-3.658C-3.521,-3.642 -3.688,-3.625 -3.75,-3.608C-3.875,-3.591 -3.938,-3.608 -3.938,-3.658C-3.958,-3.675 -3.979,-3.691 -4,-3.708C-4.021,-3.725 -4.031,-3.75 -4.031,-3.783C-4.052,-3.816 -4.062,-3.841 -4.062,-3.858C-4.062,-3.875 -4.031,-3.883 -3.969,-3.883C-3.698,-3.85 -3.417,-3.833 -3.125,-3.833L-2.031,-3.833C-1.865,-4.083 -1.719,-4.225 -1.594,-4.258C-1.386,-4.191 -1.156,-4.041 -0.906,-3.808C-0.865,-3.708 -0.896,-3.658 -1,-3.658" style="fill:rgb(157,73,94);fill-rule:nonzero;"/>
                    </g>
                    <g transform="matrix(1,0,0,1,0,-407.466)">
                        <path d="M44.697,438.059L45.072,438.059L45.072,435.909L44.697,435.909L44.697,438.059ZM45.072,433.609L44.697,433.609L44.697,435.734L45.072,435.734L45.072,433.609ZM43.135,438.059L43.51,438.059L43.51,435.909L43.135,435.909L43.135,438.059ZM43.135,433.784L43.135,435.734L43.51,435.734L43.51,433.609L43.197,433.609C43.155,433.642 43.135,433.7 43.135,433.784M41.979,436.084L41.979,434.084C41.958,433.867 41.937,433.617 41.916,433.334C41.854,433.167 41.937,433.1 42.166,433.133C42.562,433.2 42.895,433.276 43.166,433.359C43.166,433.376 43.176,433.383 43.197,433.383C43.218,433.401 43.239,433.409 43.26,433.409L45.01,433.409C45.218,433.192 45.374,433.075 45.479,433.059C45.77,433.159 46.104,433.359 46.479,433.659C46.562,433.776 46.52,433.859 46.354,433.909C46.249,433.942 46.208,434.001 46.229,434.084L46.229,437.508C46.249,437.925 46.28,438.192 46.322,438.309C46.364,438.475 46.28,438.592 46.072,438.659C45.864,438.725 45.635,438.775 45.385,438.809C45.135,438.825 45.03,438.742 45.072,438.559L45.072,438.184L43.135,438.184L43.135,438.484C43.135,438.65 43.062,438.75 42.916,438.784C42.666,438.85 42.416,438.892 42.166,438.909C41.916,438.925 41.822,438.825 41.885,438.609C41.885,438.425 41.905,438.042 41.947,437.459C41.947,436.909 41.958,436.45 41.979,436.084M41.041,437.734C40.979,437.467 40.833,437.225 40.604,437.008C40.583,436.925 40.624,436.892 40.729,436.909C41.208,437.008 41.551,437.167 41.76,437.383C41.947,437.717 41.874,437.942 41.541,438.059C41.27,438.075 41.104,437.967 41.041,437.734M40.01,437.959C40.051,437.675 40.03,437.401 39.947,437.133C39.926,437.1 39.926,437.075 39.947,437.059L40.104,437.059C40.479,437.242 40.729,437.492 40.854,437.809C40.916,438.109 40.749,438.275 40.354,438.309C40.062,438.258 39.947,438.142 40.01,437.959M38.885,437.959C39.135,437.776 39.322,437.517 39.447,437.184C39.447,437.151 39.468,437.133 39.51,437.133C39.551,437.133 39.583,437.151 39.604,437.184C39.833,437.567 39.864,437.934 39.697,438.284C39.468,438.517 39.208,438.559 38.916,438.409C38.729,438.242 38.718,438.092 38.885,437.959M41.01,436.584L41.01,436.383C40.301,436.651 39.874,436.842 39.729,436.959C39.562,437.109 39.426,437.109 39.322,436.959C39.197,436.809 39.072,436.626 38.947,436.409C38.905,436.342 38.905,436.284 38.947,436.234C38.968,436.2 39.02,436.167 39.104,436.133C39.333,436.067 39.51,435.95 39.635,435.784C39.822,435.584 39.999,435.35 40.166,435.084C39.77,435.251 39.551,435.342 39.51,435.359C39.343,435.508 39.208,435.508 39.104,435.359C38.958,435.192 38.854,435.008 38.791,434.809C38.749,434.758 38.739,434.717 38.76,434.684L38.76,434.659C38.78,434.642 38.822,434.617 38.885,434.584C39.114,434.467 39.28,434.3 39.385,434.084C39.572,433.767 39.697,433.376 39.76,432.909C39.76,432.742 39.874,432.684 40.104,432.734C40.166,432.767 40.249,432.792 40.354,432.809C40.708,432.892 40.958,432.959 41.104,433.008C41.187,433.059 41.229,433.117 41.229,433.184C41.229,433.251 41.176,433.3 41.072,433.334C40.947,433.35 40.833,433.417 40.729,433.534C40.333,433.984 39.958,434.325 39.604,434.559L40.447,434.559C40.468,434.492 40.499,434.401 40.541,434.284C40.52,434.35 40.53,434.325 40.572,434.209C40.614,434.026 40.729,433.967 40.916,434.034C41.124,434.084 41.405,434.184 41.76,434.334C41.843,434.383 41.885,434.442 41.885,434.508C41.885,434.575 41.833,434.617 41.729,434.633C41.583,434.667 41.468,434.751 41.385,434.883C40.947,435.367 40.489,435.792 40.01,436.159C40.322,436.142 40.635,436.126 40.947,436.109C40.905,435.942 40.854,435.8 40.791,435.684C40.749,435.651 40.739,435.617 40.76,435.584C40.78,435.567 40.833,435.559 40.916,435.559C41.416,435.758 41.739,436.026 41.885,436.359C41.926,436.626 41.801,436.809 41.51,436.909C41.176,436.942 41.01,436.834 41.01,436.584" style="fill:rgb(157,73,94);fill-rule:nonzero;"/>
                    </g>
                    <g transform="matrix(1,0,0,1,53.2783,28.4095)">
                        <path d="M0,-0.142L0,1.958C0.021,2.241 0.042,2.483 0.062,2.683C0.062,2.833 -0.031,2.933 -0.219,2.983C-0.552,3.049 -0.833,3.074 -1.062,3.058C-1.271,3.041 -1.354,2.975 -1.312,2.858C-1.292,2.591 -1.281,2.158 -1.281,1.558C-1.261,1.042 -1.25,0.642 -1.25,0.358C-1.25,0.092 -1.261,-0.092 -1.281,-0.192L-1.281,-0.592C-1.323,-0.742 -1.25,-0.817 -1.062,-0.817C-0.896,-0.8 -0.687,-0.775 -0.437,-0.742C-0.937,-1.142 -1.292,-1.692 -1.5,-2.392C-2.042,-1.775 -2.636,-1.25 -3.281,-0.817C-2.906,-0.783 -2.583,-0.733 -2.313,-0.667C-2.146,-0.583 -2.136,-0.483 -2.281,-0.367C-2.386,-0.3 -2.438,-0.233 -2.438,-0.167C-2.354,1.75 -3.313,2.833 -5.312,3.083C-5.396,3.083 -5.448,3.066 -5.469,3.033C-5.49,3 -5.458,2.966 -5.375,2.933C-4.292,2.449 -3.729,1.542 -3.688,0.208C-3.708,-0.025 -3.729,-0.283 -3.75,-0.567C-4.312,-0.25 -4.917,-0.008 -5.562,0.158C-5.646,0.191 -5.698,0.183 -5.719,0.133C-5.74,0.1 -5.719,0.058 -5.656,0.008C-4.698,-0.542 -3.886,-1.317 -3.219,-2.317C-3.052,-2.583 -2.927,-2.833 -2.844,-3.067C-2.844,-3.184 -2.729,-3.225 -2.5,-3.192C-2,-3.108 -1.542,-3 -1.125,-2.867C-1.042,-2.817 -1,-2.767 -1,-2.717C-1,-2.65 -1.042,-2.608 -1.125,-2.592C-1.146,-2.575 -1.177,-2.567 -1.219,-2.567C-1.281,-2.55 -1.323,-2.533 -1.344,-2.517C-0.427,-1.684 0.667,-1.208 1.937,-1.092C2.063,-1.075 2.125,-1.059 2.125,-1.042C2.146,-0.975 2.114,-0.908 2.031,-0.842C1.781,-0.675 1.562,-0.417 1.375,-0.067C1.312,0.066 1.198,0.108 1.031,0.058C0.698,-0.042 0.396,-0.175 0.125,-0.342C0.021,-0.309 -0.021,-0.242 0,-0.142" style="fill:rgb(157,73,94);fill-rule:nonzero;"/>
                    </g>
                    <g transform="matrix(1,0,0,1,62.3911,27.6258)">
                        <path d="M0,1.442L-1.125,1.442C-1.271,1.442 -1.333,1.501 -1.312,1.617L-1.312,2.992L0,2.992L0,1.442ZM-1.312,3.167L-1.312,3.417C-1.312,3.6 -1.448,3.725 -1.719,3.792C-1.781,3.792 -1.833,3.8 -1.875,3.817C-2.021,3.85 -2.136,3.867 -2.219,3.867C-2.469,3.9 -2.583,3.808 -2.563,3.592C-2.542,3.242 -2.521,2.883 -2.5,2.517L-2.5,1.967C-2.521,1.667 -2.542,1.392 -2.563,1.142C-2.583,0.959 -2.49,0.892 -2.281,0.942C-1.99,0.992 -1.636,1.092 -1.219,1.242L-0.125,1.242C0.062,0.992 0.219,0.859 0.344,0.842C0.614,0.876 0.958,1.017 1.375,1.267C1.5,1.417 1.489,1.525 1.344,1.592C1.239,1.642 1.187,1.717 1.187,1.817L1.187,2.267C1.187,2.584 1.208,2.95 1.25,3.367C1.25,3.517 1.177,3.625 1.031,3.692C0.927,3.725 0.729,3.767 0.437,3.817C0.458,3.817 0.437,3.825 0.375,3.842C0.083,3.875 -0.042,3.792 0,3.592L0,3.167L-1.312,3.167ZM0.344,-1.633L-0.406,-1.633C-0.552,-0.433 -1.437,0.367 -3.063,0.767C-3.146,0.8 -3.198,0.8 -3.219,0.767C-3.24,0.734 -3.208,0.692 -3.125,0.642C-2.146,-0.025 -1.625,-0.783 -1.562,-1.633L-2,-1.633C-2.208,-1.617 -2.417,-1.6 -2.625,-1.583C-2.688,-1.566 -2.729,-1.583 -2.75,-1.633C-2.813,-1.65 -2.865,-1.708 -2.906,-1.808C-2.948,-1.858 -2.927,-1.883 -2.844,-1.883C-2.656,-1.833 -2.281,-1.816 -1.719,-1.833L0.187,-1.833C0.333,-2.05 0.469,-2.166 0.594,-2.183C0.802,-2.15 1.146,-2.025 1.625,-1.808C1.729,-1.708 1.739,-1.6 1.656,-1.483C1.552,-1.433 1.489,-1.374 1.469,-1.308C1.448,-0.841 1.375,-0.383 1.25,0.067C1.104,0.517 0.687,0.792 0,0.892C-0.229,0.942 -0.354,0.892 -0.375,0.742C-0.458,0.475 -0.667,0.292 -1,0.192C-1.125,0.175 -1.177,0.142 -1.156,0.092C-1.177,0.042 -1.104,0.017 -0.937,0.017C-0.25,0.1 0.104,-0.025 0.125,-0.358C0.208,-0.624 0.281,-1.05 0.344,-1.633M-3.563,2.792C-3.646,2.508 -3.802,2.275 -4.031,2.092C-4.094,2.025 -4.062,1.984 -3.938,1.967C-3.417,2.034 -3.042,2.159 -2.813,2.342C-2.563,2.659 -2.625,2.876 -3,2.992C-3.292,3.058 -3.479,2.992 -3.563,2.792M-4.656,3.017C-4.594,2.767 -4.604,2.517 -4.687,2.267C-4.708,2.234 -4.708,2.217 -4.687,2.217C-4.667,2.2 -4.625,2.2 -4.562,2.217C-4.167,2.4 -3.906,2.633 -3.781,2.917C-3.719,3.217 -3.896,3.383 -4.312,3.417C-4.583,3.383 -4.698,3.25 -4.656,3.017M-3.469,1.692C-3.469,1.592 -3.479,1.501 -3.5,1.417C-4.458,1.684 -4.979,1.859 -5.062,1.942C-5.229,2.075 -5.354,2.059 -5.437,1.892C-5.542,1.758 -5.646,1.534 -5.75,1.217C-5.812,1.15 -5.812,1.1 -5.75,1.067L-5.562,0.992C-5.375,0.959 -5.187,0.859 -5,0.692C-4.812,0.492 -4.604,0.251 -4.375,-0.033C-4.896,0.133 -5.187,0.242 -5.25,0.292C-5.437,0.425 -5.573,0.417 -5.656,0.267C-5.802,0.017 -5.896,-0.166 -5.937,-0.283C-5.979,-0.35 -5.979,-0.391 -5.937,-0.408C-5.958,-0.425 -5.886,-0.458 -5.719,-0.508C-5.511,-0.624 -5.365,-0.766 -5.281,-0.933C-5.052,-1.35 -4.886,-1.791 -4.781,-2.258C-4.781,-2.408 -4.677,-2.458 -4.469,-2.408C-4.323,-2.358 -4.146,-2.308 -3.938,-2.258C-3.688,-2.191 -3.5,-2.15 -3.375,-2.133C-3.292,-2.1 -3.25,-2.05 -3.25,-1.983C-3.271,-1.9 -3.333,-1.85 -3.438,-1.833C-3.5,-1.833 -3.573,-1.791 -3.656,-1.708C-3.677,-1.691 -3.698,-1.675 -3.719,-1.658C-4.177,-1.158 -4.646,-0.758 -5.125,-0.458C-5.062,-0.458 -4.917,-0.45 -4.687,-0.433L-4.062,-0.433C-3.875,-0.7 -3.708,-0.992 -3.563,-1.308C-3.542,-1.458 -3.427,-1.499 -3.219,-1.433C-2.906,-1.316 -2.604,-1.2 -2.313,-1.083C-2.229,-1.033 -2.188,-0.975 -2.188,-0.908C-2.208,-0.841 -2.271,-0.808 -2.375,-0.808C-2.479,-0.791 -2.573,-0.733 -2.656,-0.633C-3.323,0.05 -4.031,0.617 -4.781,1.067C-4.656,1.067 -4.458,1.075 -4.187,1.092L-3.594,1.092C-3.677,0.942 -3.761,0.8 -3.844,0.667C-3.886,0.633 -3.896,0.609 -3.875,0.592C-3.833,0.575 -3.781,0.567 -3.719,0.567C-3.219,0.717 -2.854,1.001 -2.625,1.417C-2.563,1.717 -2.667,1.9 -2.938,1.967C-3.271,2.034 -3.448,1.942 -3.469,1.692M-5.875,2.992C-5.583,2.859 -5.386,2.633 -5.281,2.317C-5.24,2.251 -5.177,2.251 -5.094,2.317C-4.865,2.717 -4.844,3.067 -5.031,3.367C-5.261,3.583 -5.531,3.633 -5.844,3.517C-6.031,3.333 -6.042,3.158 -5.875,2.992" style="fill:rgb(157,73,94);fill-rule:nonzero;"/>
                    </g>
                </g>
            </g>
        </g>
    </g>
</svg>
