<?xml version="1.0" encoding="UTF-8" standalone="no"?>
<!DOCTYPE svg PUBLIC "-//W3C//DTD SVG 1.1//EN" "http://www.w3.org/Graphics/SVG/1.1/DTD/svg11.dtd">
<svg width="100%" height="100%" viewBox="0 0 1493 246" version="1.1" xmlns="http://www.w3.org/2000/svg" xmlns:xlink="http://www.w3.org/1999/xlink" xml:space="preserve" xmlns:serif="http://www.serif.com/" style="fill-rule:evenodd;clip-rule:evenodd;stroke-linejoin:round;stroke-miterlimit:2;">
    <g transform="matrix(1,0,0,1,-2840.14,-2772.47)">
        <g transform="matrix(8.33333,0,0,8.33333,0,0)">
            <g transform="matrix(1,0,0,1,346.887,343.451)">
                <path d="M0,-8.841C0.073,-8.185 -0.183,-7.82 -0.766,-7.747C-1.094,-7.747 -1.294,-8.021 -1.367,-8.568C-1.404,-9.041 -1.586,-9.405 -1.914,-9.661C-2.06,-9.807 -2.115,-9.916 -2.078,-9.989C-2.078,-10.062 -1.969,-10.08 -1.75,-10.044C-1.349,-9.971 -1.021,-9.862 -0.766,-9.716C-0.292,-9.497 -0.037,-9.205 0,-8.841M6.508,-2.661C6.508,-2.552 6.38,-2.479 6.125,-2.443L4.703,-2.443C4.448,-2.405 4.247,-2.388 4.102,-2.388C4.102,-2.279 4.12,-2.151 4.156,-2.005L4.156,-1.677C4.192,-0.655 4.138,0.11 3.992,0.62C3.846,1.057 3.646,1.386 3.391,1.604C3.135,1.823 2.917,1.914 2.734,1.878C2.625,1.878 2.552,1.805 2.516,1.659L2.516,1.604C2.479,1.495 2.461,1.403 2.461,1.331C2.424,1.222 2.315,1.02 2.133,0.729L2.078,0.62C1.969,0.511 1.877,0.42 1.805,0.347C1.695,0.237 1.641,0.165 1.641,0.128C1.713,0.055 1.768,0.037 1.805,0.073L2.078,0.073C2.114,0.11 2.188,0.128 2.297,0.128C2.37,0.165 2.424,0.182 2.461,0.182C2.57,0.182 2.68,0.165 2.789,0.128C2.862,0.128 2.898,0.018 2.898,-0.2C2.935,-0.31 2.971,-0.528 3.008,-0.857C3.044,-1.038 3.063,-1.166 3.063,-1.239C3.063,-1.604 3.044,-1.968 3.008,-2.333C2.862,-2.296 2.588,-2.279 2.188,-2.279C2.114,-2.241 1.969,-2.224 1.75,-2.224C1.567,-2.187 1.422,-2.169 1.312,-2.169L1.148,-2.552C1.112,-1.749 1.039,-1.057 0.93,-0.474C0.93,-0.437 0.911,-0.346 0.875,-0.2C0.802,0.055 0.747,0.274 0.711,0.456C0.602,0.711 0.474,0.893 0.328,1.003C0.146,1.222 -0.055,1.331 -0.273,1.331C-0.383,1.331 -0.456,1.222 -0.492,1.003C-0.602,0.784 -0.675,0.601 -0.711,0.456C-0.784,0.274 -0.93,0.11 -1.148,-0.036C-1.294,-0.146 -1.367,-0.237 -1.367,-0.31L-1.039,-0.31C-1.003,-0.273 -0.93,-0.255 -0.82,-0.255C-0.748,-0.218 -0.675,-0.2 -0.602,-0.2C-0.492,-0.2 -0.401,-0.218 -0.328,-0.255C-0.255,-0.327 -0.219,-0.437 -0.219,-0.583C-0.109,-1.021 0,-1.695 0.109,-2.607C0.146,-3.335 0.164,-3.974 0.164,-4.521L-0.602,-4.466C-0.675,-3.554 -0.82,-2.807 -1.039,-2.224C-1.222,-1.786 -1.422,-1.349 -1.641,-0.911C-2.188,0.001 -2.771,0.675 -3.391,1.112C-3.609,1.222 -3.737,1.258 -3.773,1.222L-3.609,0.948C-3.318,0.62 -3.063,0.237 -2.844,-0.2C-2.625,-0.601 -2.461,-0.966 -2.352,-1.294C-1.769,-2.898 -1.513,-4.739 -1.586,-6.818C-1.769,-6.818 -1.914,-6.799 -2.023,-6.763C-2.169,-6.763 -2.425,-6.744 -2.789,-6.708C-2.898,-6.671 -2.99,-6.653 -3.063,-6.653C-3.136,-6.799 -3.227,-6.982 -3.336,-7.2L-2.188,-7.2C-1.386,-7.273 -0.583,-7.31 0.219,-7.31L0.766,-8.349C0.802,-8.349 0.838,-8.33 0.875,-8.294C1.057,-8.185 1.367,-7.929 1.805,-7.529C1.914,-8.185 2.023,-8.896 2.133,-9.661L2.133,-10.153C2.169,-10.408 2.188,-10.609 2.188,-10.755C2.698,-10.536 3.117,-10.335 3.445,-10.153C3.773,-9.971 3.938,-9.825 3.938,-9.716C3.938,-9.679 3.901,-9.607 3.828,-9.497C3.792,-9.497 3.755,-9.479 3.719,-9.443C3.609,-9.443 3.5,-9.405 3.391,-9.333C3.317,-9.077 3.172,-8.64 2.953,-8.021C2.88,-7.802 2.825,-7.638 2.789,-7.529C3.117,-7.529 3.609,-7.546 4.266,-7.583C4.302,-7.655 4.375,-7.783 4.484,-7.966C4.63,-8.257 4.758,-8.494 4.867,-8.677L4.922,-8.622C5.286,-8.366 5.596,-8.112 5.852,-7.857C6.106,-7.601 6.234,-7.419 6.234,-7.31C6.198,-7.2 6.016,-7.146 5.687,-7.146L4.43,-7.146L2.625,-7.036C2.588,-6.854 2.516,-6.708 2.406,-6.599C2.37,-6.489 2.26,-6.288 2.078,-5.997C2.188,-6.179 2.133,-6.088 1.914,-5.724L2.789,-5.724C2.971,-5.724 3.299,-5.741 3.773,-5.778L4.266,-6.435C4.448,-6.288 4.648,-6.07 4.867,-5.778L4.977,-5.669C5.086,-5.523 5.195,-5.396 5.305,-5.286C5.414,-5.104 5.432,-4.958 5.359,-4.849C5.323,-4.812 5.268,-4.794 5.195,-4.794C5.122,-4.757 5.067,-4.739 5.031,-4.739L4.594,-4.739C4.557,-4.739 4.32,-4.63 3.883,-4.411C3.7,-4.302 3.536,-4.229 3.391,-4.193C3.354,-4.229 3.391,-4.411 3.5,-4.739C3.536,-4.776 3.573,-4.83 3.609,-4.903C3.646,-5.013 3.7,-5.158 3.773,-5.341C3.409,-5.341 2.862,-5.286 2.133,-5.177L1.859,-5.614C1.641,-5.249 1.458,-5.104 1.312,-5.177C1.276,-5.177 1.276,-5.268 1.312,-5.45C1.276,-5.304 1.294,-5.341 1.367,-5.56C1.477,-5.96 1.586,-6.435 1.695,-6.982L1.203,-6.982C0.875,-6.945 0.62,-6.927 0.437,-6.927L0,-6.927C-0.401,-6.89 -0.729,-6.872 -0.984,-6.872C-0.766,-6.763 -0.583,-6.69 -0.437,-6.653C-0.328,-6.653 -0.255,-6.616 -0.219,-6.544C-0.109,-6.507 -0.055,-6.435 -0.055,-6.325C-0.055,-6.216 -0.183,-6.107 -0.437,-5.997C-0.437,-5.851 -0.456,-5.669 -0.492,-5.45C-0.492,-5.158 -0.511,-4.958 -0.547,-4.849C-0.437,-4.849 -0.292,-4.866 -0.109,-4.903L0.109,-4.903C0.146,-5.013 0.273,-5.232 0.492,-5.56C0.528,-5.56 0.565,-5.541 0.602,-5.505C0.711,-5.432 0.93,-5.268 1.258,-5.013C1.477,-4.866 1.586,-4.739 1.586,-4.63C1.586,-4.521 1.458,-4.411 1.203,-4.302L1.148,-2.716L3.008,-2.716C2.935,-3.263 2.844,-3.7 2.734,-4.029C2.734,-4.065 2.716,-4.101 2.68,-4.138C2.68,-4.21 2.661,-4.247 2.625,-4.247L2.516,-4.411L2.516,-4.466C2.552,-4.538 2.734,-4.484 3.063,-4.302C3.354,-4.155 3.573,-3.937 3.719,-3.646C3.828,-3.499 3.919,-3.208 3.992,-2.771C4.247,-2.807 4.484,-2.825 4.703,-2.825L5.305,-3.864C5.414,-3.791 5.596,-3.646 5.852,-3.427C5.961,-3.318 6.052,-3.244 6.125,-3.208C6.417,-2.952 6.544,-2.771 6.508,-2.661M-2.734,-8.568C-2.734,-8.349 -2.826,-8.148 -3.008,-7.966C-3.154,-7.747 -3.373,-7.638 -3.664,-7.638C-3.883,-7.674 -4.065,-7.802 -4.211,-8.021C-4.211,-8.057 -4.229,-8.112 -4.266,-8.185C-4.266,-8.257 -4.32,-8.421 -4.43,-8.677C-4.466,-8.786 -4.539,-8.932 -4.648,-9.114C-4.722,-9.26 -4.776,-9.369 -4.812,-9.443C-4.812,-9.479 -4.831,-9.515 -4.867,-9.552C-4.904,-9.624 -4.94,-9.661 -4.977,-9.661C-5.05,-9.734 -5.068,-9.788 -5.031,-9.825C-4.958,-9.862 -4.794,-9.88 -4.539,-9.88C-4.029,-9.807 -3.591,-9.661 -3.227,-9.443C-2.898,-9.114 -2.734,-8.822 -2.734,-8.568M-2.461,-5.943L-2.68,-4.849C-2.716,-4.63 -2.808,-4.283 -2.953,-3.81C-3.026,-3.445 -3.081,-3.171 -3.117,-2.989C-3.227,-2.515 -3.391,-1.713 -3.609,-0.583C-3.609,-0.51 -3.628,-0.346 -3.664,-0.091C-3.737,0.31 -3.792,0.638 -3.828,0.893C-3.901,1.222 -3.992,1.403 -4.102,1.44C-4.175,1.44 -4.357,1.348 -4.648,1.167C-5.013,0.984 -5.341,0.765 -5.633,0.511C-5.341,0.073 -5.086,-0.382 -4.867,-0.857C-4.612,-1.294 -4.211,-2.205 -3.664,-3.591C-3.591,-3.773 -3.464,-4.101 -3.281,-4.575C-3.063,-5.195 -2.88,-5.705 -2.734,-6.107C-2.662,-6.288 -2.589,-6.362 -2.516,-6.325C-2.443,-6.325 -2.425,-6.197 -2.461,-5.943M-3.609,-5.669C-3.609,-5.45 -3.683,-5.249 -3.828,-5.068C-4.011,-4.885 -4.211,-4.794 -4.43,-4.794C-4.758,-4.794 -4.977,-4.94 -5.086,-5.232C-5.195,-5.669 -5.396,-6.015 -5.687,-6.271C-5.943,-6.489 -6.07,-6.616 -6.07,-6.653C-6.034,-6.763 -5.779,-6.799 -5.305,-6.763C-4.175,-6.69 -3.609,-6.325 -3.609,-5.669" style="fill:rgb(35,25,22);fill-rule:nonzero;"/>
            </g>
        </g>
        <g transform="matrix(8.33333,0,0,8.33333,0,0)">
            <g transform="matrix(1,0,0,1,379.316,343.451)">
                <path d="M0,-8.622C0,-8.366 -0.073,-8.147 -0.219,-7.966C-0.328,-7.783 -0.529,-7.692 -0.82,-7.692C-1.039,-7.692 -1.203,-7.783 -1.312,-7.966C-1.312,-8.002 -1.331,-8.111 -1.367,-8.294C-1.331,-8.185 -1.349,-8.239 -1.422,-8.458C-1.422,-8.677 -1.477,-8.877 -1.586,-9.059L-1.641,-9.169C-1.714,-9.241 -1.769,-9.314 -1.805,-9.388C-2.023,-9.606 -2.115,-9.716 -2.078,-9.716C-2.078,-9.752 -1.987,-9.77 -1.805,-9.77C-1.695,-9.843 -1.568,-9.843 -1.422,-9.77C-1.349,-9.77 -1.258,-9.752 -1.148,-9.716C-1.039,-9.716 -0.966,-9.697 -0.93,-9.661C-0.748,-9.588 -0.583,-9.497 -0.437,-9.388C-0.183,-9.169 -0.037,-8.913 0,-8.622M1.805,1.55C1.805,1.586 1.786,1.622 1.75,1.659C1.713,1.732 1.677,1.769 1.641,1.769C1.531,1.878 1.367,1.914 1.148,1.878C0.82,1.878 0.456,1.714 0.055,1.386C-0.638,0.839 -1.203,0.237 -1.641,-0.419C-1.677,-0.491 -1.732,-0.583 -1.805,-0.692C-1.878,-0.838 -1.933,-0.929 -1.969,-0.966C-2.844,-0.127 -3.938,0.62 -5.25,1.276C-5.505,1.386 -5.669,1.403 -5.742,1.331C-5.779,1.258 -5.687,1.112 -5.469,0.894C-4.083,-0.163 -3.099,-1.13 -2.516,-2.005C-2.844,-2.661 -3.117,-3.408 -3.336,-4.247C-3.373,-4.429 -3.427,-4.739 -3.5,-5.177C-3.537,-5.395 -3.573,-5.559 -3.609,-5.669L-4.43,-5.559C-4.503,-5.559 -4.667,-5.541 -4.922,-5.505C-5.141,-5.468 -5.305,-5.45 -5.414,-5.45L-5.687,-5.997C-4.922,-5.997 -4.266,-6.033 -3.719,-6.106C-3.755,-6.397 -3.828,-6.981 -3.938,-7.856C-3.938,-8.221 -3.956,-8.513 -3.992,-8.731C-3.992,-8.841 -4.011,-9.041 -4.047,-9.333C-4.12,-9.843 -4.175,-10.244 -4.211,-10.536C-4.138,-10.536 -3.992,-10.499 -3.773,-10.427C-3.482,-10.317 -3.245,-10.226 -3.063,-10.153C-3.026,-10.153 -2.972,-10.135 -2.898,-10.099C-2.716,-10.025 -2.607,-9.971 -2.57,-9.934C-2.425,-9.861 -2.352,-9.77 -2.352,-9.661C-2.315,-9.552 -2.461,-9.388 -2.789,-9.169C-2.716,-8.002 -2.625,-7.036 -2.516,-6.27L-0.766,-6.434C-0.693,-6.544 -0.474,-6.927 -0.109,-7.583C0,-7.51 0.164,-7.382 0.383,-7.2C0.674,-7.018 0.893,-6.853 1.039,-6.708C1.258,-6.525 1.367,-6.38 1.367,-6.27C1.367,-6.161 1.203,-6.106 0.875,-6.106L0.383,-6.106C-0.019,-6.069 -0.347,-6.052 -0.602,-6.052C-0.711,-6.015 -0.984,-5.978 -1.422,-5.942C-1.823,-5.905 -2.151,-5.869 -2.406,-5.833C-2.333,-5.468 -2.279,-5.14 -2.242,-4.849C-2.097,-4.228 -1.914,-3.645 -1.695,-3.099C-1.222,-3.864 -0.82,-4.739 -0.492,-5.724C-0.055,-5.395 0.328,-5.067 0.656,-4.739C0.948,-4.483 1.057,-4.265 0.984,-4.083C0.948,-4.046 0.747,-3.991 0.383,-3.919C-0.201,-3.007 -0.693,-2.351 -1.094,-1.95C-0.839,-1.476 -0.492,-1.038 -0.055,-0.638C0.055,-0.528 0.182,-0.474 0.328,-0.474C0.401,-0.474 0.474,-0.546 0.547,-0.692C0.51,-0.546 0.528,-0.564 0.602,-0.747C0.602,-0.783 0.62,-0.819 0.656,-0.856C0.692,-0.929 0.766,-1.185 0.875,-1.622C0.911,-1.694 0.966,-1.841 1.039,-2.06C1.112,-2.278 1.167,-2.46 1.203,-2.606C1.312,-2.861 1.403,-2.989 1.477,-2.989C1.549,-2.916 1.567,-2.77 1.531,-2.552C1.531,-2.405 1.513,-2.096 1.477,-1.622C1.44,-1.439 1.422,-1.294 1.422,-1.185C1.422,-0.819 1.44,-0.491 1.477,-0.2C1.549,0.165 1.604,0.475 1.641,0.73L1.805,1.222L1.805,1.55ZM-5.195,-7.638C-5.232,-7.528 -5.323,-7.419 -5.469,-7.31C-5.578,-7.272 -5.687,-7.218 -5.797,-7.145C-5.979,-5.796 -6.216,-4.794 -6.508,-4.138C-5.633,-3.263 -5.195,-2.497 -5.195,-1.841C-5.195,-1.585 -5.269,-1.366 -5.414,-1.185C-5.597,-1.038 -5.761,-0.966 -5.906,-0.966C-6.162,-0.966 -6.344,-1.13 -6.453,-1.458C-6.49,-1.603 -6.599,-1.877 -6.781,-2.278C-6.891,-2.533 -6.964,-2.716 -7,-2.825C-7.766,-1.476 -8.951,-0.327 -10.555,0.62C-10.773,0.73 -10.883,0.747 -10.883,0.675C-10.919,0.638 -10.865,0.529 -10.719,0.347C-9.333,-1.002 -8.349,-2.442 -7.766,-3.974C-7.802,-4.046 -7.875,-4.155 -7.984,-4.302C-8.021,-4.374 -8.058,-4.429 -8.094,-4.466C-8.386,-4.83 -8.823,-5.268 -9.406,-5.778C-9.552,-5.924 -9.662,-6.033 -9.734,-6.106C-9.844,-6.216 -9.898,-6.288 -9.898,-6.325C-9.826,-6.397 -9.716,-6.416 -9.57,-6.38C-9.133,-6.197 -8.44,-5.741 -7.492,-5.013C-7.31,-5.522 -7.164,-6.397 -7.055,-7.638C-7.201,-7.638 -7.547,-7.619 -8.094,-7.583C-8.349,-7.546 -8.531,-7.528 -8.641,-7.528C-9.005,-7.491 -9.406,-7.436 -9.844,-7.364L-10.117,-7.966C-9.68,-8.002 -9.151,-8.02 -8.531,-8.02L-8.094,-8.02C-7.693,-8.057 -7.347,-8.075 -7.055,-8.075C-6.982,-8.257 -6.836,-8.513 -6.617,-8.841C-6.144,-8.585 -5.742,-8.311 -5.414,-8.02C-5.378,-7.983 -5.341,-7.947 -5.305,-7.911C-5.232,-7.838 -5.195,-7.747 -5.195,-7.638" style="fill:rgb(35,25,22);fill-rule:nonzero;"/>
            </g>
        </g>
        <g transform="matrix(8.33333,0,0,8.33333,0,0)">
            <g transform="matrix(1,0,0,1,408.902,334.009)">
                <path d="M0,9.57C-0.073,9.679 -0.255,9.734 -0.547,9.734L-2.461,9.734C-4.539,9.843 -6.891,9.971 -9.516,10.117C-10.136,10.117 -10.883,10.172 -11.758,10.281C-11.867,10.098 -11.94,9.898 -11.977,9.679C-11.466,9.716 -10.664,9.698 -9.57,9.625L-9.352,9.625L-9.352,7.382C-9.352,6.836 -9.37,6.07 -9.406,5.086L-9.406,3.117C-9.37,3.117 -9.315,3.135 -9.242,3.172C-9.06,3.245 -8.677,3.409 -8.094,3.664C-7.802,3.773 -7.656,3.901 -7.656,4.047C-7.656,4.193 -7.802,4.339 -8.094,4.484L-8.094,9.57L-6.508,9.515L-6.508,2.679C-6.508,2.498 -6.526,2.206 -6.562,1.804L-6.562,1.039L-8.914,1.148C-8.951,1.148 -9.498,1.203 -10.555,1.312L-10.883,0.711L-8.914,0.711C-8.331,0.674 -7.128,0.601 -5.305,0.492C-4.539,0.492 -3.938,0.474 -3.5,0.437L-2.734,-0.711C-2.443,-0.529 -2.042,-0.237 -1.531,0.164C-1.24,0.382 -1.13,0.565 -1.203,0.711C-1.24,0.784 -1.404,0.82 -1.695,0.82C-2.68,0.82 -3.281,0.839 -3.5,0.875L-5.852,0.984C-5.633,1.021 -5.433,1.093 -5.25,1.203C-5.068,1.24 -4.94,1.295 -4.867,1.367C-4.722,1.44 -4.648,1.531 -4.648,1.64C-4.648,1.714 -4.703,1.787 -4.812,1.859C-4.922,1.968 -5.031,2.042 -5.141,2.078L-5.141,4.593C-5.031,4.593 -4.867,4.576 -4.648,4.539C-4.357,4.503 -4.083,4.484 -3.828,4.484C-3.755,4.448 -3.519,4.047 -3.117,3.281C-2.972,3.354 -2.753,3.518 -2.461,3.773C-2.242,3.956 -2.078,4.084 -1.969,4.156C-1.714,4.375 -1.586,4.539 -1.586,4.648C-1.586,4.795 -1.769,4.867 -2.133,4.867C-2.498,4.867 -3.008,4.885 -3.664,4.922C-3.81,4.922 -4.138,4.94 -4.648,4.976C-4.867,5.013 -5.031,5.031 -5.141,5.031L-5.141,9.406C-4.849,9.406 -4.43,9.388 -3.883,9.351C-3.3,9.351 -2.88,9.334 -2.625,9.297C-2.589,9.26 -2.498,9.133 -2.352,8.914C-2.133,8.513 -1.951,8.185 -1.805,7.929C-1.477,8.148 -1.003,8.513 -0.383,9.023C-0.128,9.315 0,9.498 0,9.57" style="fill:rgb(35,25,22);fill-rule:nonzero;"/>
            </g>
        </g>
        <g transform="matrix(8.33333,0,0,8.33333,0,0)">
            <g transform="matrix(1,0,0,1,437.012,334.537)">
                <path d="M0,9.206C-0.037,9.315 -0.219,9.389 -0.547,9.425L-2.133,9.425C-2.461,9.462 -2.936,9.497 -3.555,9.534C-4.284,9.57 -5.141,9.625 -6.125,9.698C-6.672,9.698 -7.164,9.753 -7.602,9.862C-7.675,9.789 -7.766,9.589 -7.875,9.261C-7.475,9.261 -6.891,9.243 -6.125,9.206L-4.977,9.206L-4.977,5.815L-5.687,5.87C-5.797,5.87 -5.925,5.889 -6.07,5.925C-6.436,5.925 -6.709,5.962 -6.891,6.034L-7.164,5.487C-6.545,5.487 -6.034,5.47 -5.633,5.433L-4.977,5.433L-4.977,4.011C-4.977,3.537 -4.995,2.972 -5.031,2.315C-4.959,2.352 -4.85,2.389 -4.703,2.425C-4.484,2.534 -4.266,2.607 -4.047,2.644C-3.5,2.862 -3.245,3.026 -3.281,3.136C-3.281,3.282 -3.409,3.446 -3.664,3.628L-3.664,5.323C-3.555,5.323 -3.409,5.306 -3.227,5.268L-2.898,5.268C-2.862,5.232 -2.808,5.142 -2.734,4.995C-2.516,4.704 -2.334,4.448 -2.188,4.229C-2.115,4.303 -2.006,4.412 -1.859,4.558C-1.604,4.74 -1.422,4.886 -1.312,4.995C-1.058,5.251 -0.93,5.433 -0.93,5.542C-0.967,5.651 -1.167,5.706 -1.531,5.706L-2.898,5.706L-3.664,5.761L-3.664,9.097L-2.188,9.042C-2.078,8.751 -1.823,8.331 -1.422,7.784C-1.276,7.894 -1.076,8.058 -0.82,8.276C-0.602,8.423 -0.475,8.532 -0.437,8.604C-0.109,8.896 0.036,9.097 0,9.206M-0.875,1.604L-2.133,1.604C-2.498,1.642 -3.136,1.678 -4.047,1.714C-5.178,1.787 -6.089,1.86 -6.781,1.933C-7.146,2.735 -7.602,3.519 -8.148,4.284L-8.148,9.479C-8.148,9.734 -8.24,9.972 -8.422,10.19C-8.568,10.372 -8.787,10.536 -9.078,10.683C-9.225,10.755 -9.389,10.773 -9.57,10.737C-9.644,10.737 -9.68,10.664 -9.68,10.518L-9.68,10.136C-9.68,10.099 -9.662,10.026 -9.625,9.917C-9.589,9.698 -9.534,9.17 -9.461,8.331L-9.461,7.839C-9.425,7.401 -9.406,7.037 -9.406,6.745C-9.37,6.563 -9.352,6.181 -9.352,5.597C-9.826,6.034 -10.336,6.435 -10.883,6.8C-11.357,7.201 -11.795,7.456 -12.195,7.565C-12.414,7.639 -12.542,7.675 -12.578,7.675C-12.615,7.565 -12.542,7.456 -12.359,7.347C-11.266,6.399 -10.281,5.342 -9.406,4.175C-9.406,3.701 -9.425,3.227 -9.461,2.753C-9.242,2.79 -8.951,2.899 -8.586,3.081C-8.404,2.753 -8.24,2.389 -8.094,1.987L-8.258,1.987C-8.732,2.06 -9.225,2.097 -9.734,2.097C-9.953,2.134 -10.281,2.17 -10.719,2.206C-11.011,2.279 -11.229,2.315 -11.375,2.315C-11.448,2.206 -11.539,2.006 -11.648,1.714C-11.467,1.678 -11.156,1.659 -10.719,1.659C-10.354,1.623 -10.063,1.604 -9.844,1.604L-7.93,1.495C-7.711,0.912 -7.547,0.401 -7.437,-0.036C-7.401,-0.182 -7.365,-0.419 -7.328,-0.747C-7.256,-1.075 -7.201,-1.349 -7.164,-1.567C-7.019,-1.53 -6.709,-1.421 -6.234,-1.239C-6.526,-1.349 -6.381,-1.294 -5.797,-1.075C-5.469,-0.929 -5.305,-0.765 -5.305,-0.583C-5.378,-0.474 -5.578,-0.364 -5.906,-0.255C-6.016,0.073 -6.234,0.639 -6.562,1.44L-2.57,1.167L-1.75,-0.036C-1.714,0.001 -1.586,0.092 -1.367,0.237C-1.039,0.493 -0.766,0.712 -0.547,0.893C-0.292,1.04 -0.164,1.204 -0.164,1.386L-0.219,1.495C-0.219,1.568 -0.437,1.604 -0.875,1.604" style="fill:rgb(35,25,22);fill-rule:nonzero;"/>
            </g>
        </g>
        <g transform="matrix(8.33333,0,0,8.33333,0,0)">
            <g transform="matrix(1,0,0,1,461.129,341.884)">
                <path d="M0,-5.578L-1.312,-5.523L-1.312,-3.226L0,-3.281L0,-5.578ZM-4.758,-6.289C-4.758,-6.033 -4.831,-5.797 -4.977,-5.578C-5.159,-5.395 -5.359,-5.305 -5.578,-5.305C-5.87,-5.305 -6.07,-5.414 -6.18,-5.633C-6.217,-5.778 -6.271,-6.015 -6.344,-6.344C-6.381,-6.744 -6.472,-7.072 -6.617,-7.328C-6.654,-7.364 -6.69,-7.419 -6.727,-7.492C-6.764,-7.564 -6.8,-7.619 -6.836,-7.656C-6.945,-7.766 -6.982,-7.856 -6.945,-7.93L-6.672,-7.93C-6.6,-7.93 -6.453,-7.911 -6.234,-7.875C-6.381,-7.911 -6.344,-7.892 -6.125,-7.82C-5.797,-7.711 -5.561,-7.601 -5.414,-7.492C-5.014,-7.164 -4.795,-6.763 -4.758,-6.289M4.484,1.695C4.484,1.733 4.302,1.897 3.938,2.188C3.828,2.297 3.572,2.588 3.172,3.063C3.099,3.135 3.025,3.227 2.953,3.336C2.916,3.408 2.844,3.463 2.734,3.5L2.297,3.5C2.224,3.463 2.078,3.445 1.859,3.445C1.677,3.408 1.531,3.391 1.422,3.391C0.146,3.208 -1.076,2.899 -2.242,2.461C-2.936,2.169 -3.537,1.859 -4.047,1.531C-4.631,1.167 -5.104,0.82 -5.469,0.492C-5.615,0.602 -5.852,0.784 -6.18,1.039C-6.581,1.367 -6.891,1.623 -7.109,1.805C-7.256,1.987 -7.475,2.169 -7.766,2.352C-7.875,2.352 -8.039,2.224 -8.258,1.969C-8.44,1.714 -8.641,1.422 -8.859,1.094C-7.729,0.766 -6.854,0.456 -6.234,0.164L-6.234,-2.68C-6.381,-2.642 -6.764,-2.552 -7.383,-2.406C-7.675,-2.333 -7.894,-2.278 -8.039,-2.242C-8.039,-2.278 -8.076,-2.351 -8.148,-2.461C-8.258,-2.642 -8.35,-2.789 -8.422,-2.898C-8.313,-2.898 -7.93,-2.916 -7.273,-2.953C-7.164,-2.953 -6.854,-2.989 -6.344,-3.062C-6.308,-3.099 -6.253,-3.189 -6.18,-3.336C-5.998,-3.555 -5.852,-3.736 -5.742,-3.883C-5.67,-3.846 -5.542,-3.773 -5.359,-3.664C-5.178,-3.517 -5.014,-3.39 -4.867,-3.281C-4.576,-3.062 -4.43,-2.898 -4.43,-2.789C-4.43,-2.68 -4.576,-2.552 -4.867,-2.406L-4.867,0.383C-4.795,0.456 -4.612,0.566 -4.32,0.711C-4.284,0.748 -4.248,0.766 -4.211,0.766C-3.081,-0.145 -2.498,-1.312 -2.461,-2.734C-2.607,-2.734 -2.826,-2.716 -3.117,-2.68C-3.592,-2.642 -3.901,-2.606 -4.047,-2.57L-4.375,-3.172L-2.461,-3.172L-2.461,-5.469C-2.57,-5.469 -2.771,-5.45 -3.063,-5.414C-3.5,-5.377 -3.756,-5.341 -3.828,-5.305L-4.102,-5.906L-2.461,-5.906C-2.461,-6.088 -2.479,-6.344 -2.516,-6.672L-2.516,-7.055C-2.516,-7.127 -2.534,-7.346 -2.57,-7.711C-2.607,-8.148 -2.625,-8.531 -2.625,-8.859C-2.516,-8.822 -2.279,-8.75 -1.914,-8.641C-2.17,-8.75 -2.097,-8.713 -1.695,-8.531C-1.222,-8.312 -0.984,-8.148 -0.984,-8.039C-0.984,-7.966 -1.094,-7.82 -1.312,-7.601L-1.312,-5.961L-0.766,-5.961C-0.401,-5.997 -0.146,-6.015 0,-6.015L0,-9.078C0.547,-8.932 1.021,-8.75 1.422,-8.531C1.641,-8.458 1.731,-8.367 1.695,-8.258C1.695,-8.075 1.531,-7.892 1.203,-7.711L1.203,-6.125L1.586,-6.125C1.622,-6.161 1.677,-6.252 1.75,-6.398C1.896,-6.653 2.041,-6.89 2.188,-7.109C2.224,-7.072 2.278,-7.036 2.352,-7C2.643,-6.781 2.844,-6.617 2.953,-6.508C3.281,-6.252 3.463,-6.033 3.5,-5.851C3.5,-5.742 3.263,-5.687 2.789,-5.687L1.641,-5.687L1.203,-5.633L1.203,-3.336L2.023,-3.39L2.68,-4.484C3.189,-4.083 3.5,-3.809 3.609,-3.664C3.864,-3.481 3.992,-3.336 3.992,-3.226C3.992,-3.08 3.791,-3.008 3.391,-3.008C3.025,-3.008 2.588,-2.989 2.078,-2.953L1.203,-2.953C1.203,-2.625 1.221,-2.169 1.258,-1.586L1.258,0.055C1.258,0.311 1.185,0.529 1.039,0.711C1.002,0.748 0.947,0.784 0.875,0.82C0.802,0.894 0.692,0.967 0.547,1.039C0.4,1.112 0.236,1.149 0.055,1.149C-0.019,1.149 -0.055,1.058 -0.055,0.875L-0.055,-0.984C-0.019,-1.786 0,-2.406 0,-2.844L-1.312,-2.789C-1.459,-0.93 -2.297,0.311 -3.828,0.93L-3.609,1.039C-2.516,1.441 -1.531,1.659 -0.656,1.695C-0.037,1.733 0.856,1.75 2.023,1.75C2.205,1.75 2.844,1.695 3.938,1.586C4.266,1.55 4.447,1.586 4.484,1.695" style="fill:rgb(35,25,22);fill-rule:nonzero;"/>
            </g>
        </g>
        <g transform="matrix(8.33333,0,0,8.33333,0,0)">
            <g transform="matrix(1,0,0,1,493.668,335.212)">
                <path d="M0,7.766C0,7.875 -0.128,7.949 -0.383,7.985C-0.492,8.022 -0.656,8.077 -0.875,8.149C-1.35,8.368 -1.787,8.623 -2.188,8.914C-2.479,9.169 -2.662,9.297 -2.734,9.297C-2.844,9.333 -3.045,9.243 -3.336,9.024C-3.519,8.914 -3.773,8.678 -4.102,8.313C-4.722,7.438 -5.25,6.581 -5.687,5.743C-5.725,5.633 -5.779,5.506 -5.852,5.36C-6.289,4.449 -6.562,3.702 -6.672,3.118C-8.131,6.035 -10.172,8.203 -12.797,9.625C-12.979,9.735 -13.144,9.789 -13.289,9.789L-13.289,9.735C-13.326,9.735 -13.344,9.716 -13.344,9.68C-13.344,9.643 -13.234,9.516 -13.016,9.297C-10.428,6.964 -8.678,4.394 -7.766,1.586L-7.055,2.079C-7.383,0.62 -7.565,-0.328 -7.602,-0.765L-7.82,-2.023C-6.727,-1.658 -6.198,-1.384 -6.234,-1.203C-6.271,-1.02 -6.472,-0.838 -6.836,-0.656C-6.508,1.75 -5.633,3.683 -4.211,5.141C-3.373,6.089 -2.297,6.819 -0.984,7.329C-0.839,7.366 -0.62,7.438 -0.328,7.547C-0.109,7.62 0,7.694 0,7.766" style="fill:rgb(35,25,22);fill-rule:nonzero;"/>
            </g>
        </g>
        <g transform="matrix(8.33333,0,0,8.33333,0,0)">
            <g transform="matrix(1,0,0,1,517.894,342.12)">
                <path d="M0,-6.033C-0.328,-6.033 -0.984,-5.996 -1.969,-5.924L-2.406,-5.924L-2.352,-3.135C-1.695,-3.207 -0.984,-3.244 -0.219,-3.244C-0.219,-3.463 -0.146,-4.392 0,-6.033M-3.664,-3.08L-3.664,-5.869L-6.016,-5.705C-5.943,-4.939 -5.889,-4.027 -5.852,-2.97L-3.664,-3.08ZM1.969,-5.924C1.969,-5.814 1.768,-5.668 1.367,-5.486C1.367,-5.194 1.33,-4.702 1.258,-4.01L1.258,-3.681C1.513,-3.389 1.658,-3.171 1.695,-3.025C1.695,-2.916 1.513,-2.861 1.148,-2.861L-0.273,-2.861L-2.352,-2.697C-2.352,-1.238 -2.334,-0.163 -2.297,0.529C-2.297,1.04 -2.334,1.404 -2.406,1.623C-2.479,2.097 -2.625,2.444 -2.844,2.662C-3.245,3.1 -3.555,3.281 -3.773,3.209C-3.811,3.209 -3.865,3.155 -3.938,3.045L-3.938,2.608C-3.901,2.425 -3.883,2.261 -3.883,2.115C-3.737,0.657 -3.664,-0.929 -3.664,-2.642L-5.852,-2.478C-5.779,-2.041 -5.797,-1.767 -5.906,-1.658C-5.943,-1.439 -6.125,-1.238 -6.453,-1.056C-6.745,-0.91 -6.945,-0.855 -7.055,-0.892C-7.128,-0.965 -7.164,-1.074 -7.164,-1.221L-7.164,-1.439C-7.128,-1.621 -7.109,-1.785 -7.109,-1.931C-7.073,-2.624 -7.055,-3.135 -7.055,-3.463C-7.055,-3.718 -7.073,-4.082 -7.109,-4.556C-7.146,-4.847 -7.164,-5.085 -7.164,-5.267C-7.201,-6.105 -7.256,-6.707 -7.328,-7.072C-7.109,-6.999 -6.854,-6.889 -6.562,-6.744C-6.453,-6.707 -6.381,-6.671 -6.344,-6.635C-6.308,-6.635 -6.144,-6.543 -5.852,-6.361C-5.706,-6.288 -5.597,-6.233 -5.523,-6.197L-3.664,-6.306L-3.664,-7.838C-3.664,-8.347 -3.683,-8.84 -3.719,-9.314C-3.573,-9.241 -3.245,-9.132 -2.734,-8.986C-3.172,-9.096 -3.117,-9.077 -2.57,-8.931C-2.133,-8.785 -1.914,-8.639 -1.914,-8.494C-1.914,-8.385 -2.061,-8.238 -2.352,-8.056L-2.352,-6.361L0,-6.525L0.547,-7.291C0.583,-7.254 0.638,-7.199 0.711,-7.127C0.82,-7.09 1.075,-6.908 1.477,-6.58C1.805,-6.324 1.969,-6.105 1.969,-5.924" style="fill:rgb(35,25,22);fill-rule:nonzero;"/>
            </g>
        </g>
        <g transform="matrix(8.33333,0,0,8.33333,0,0)">
            <g transform="matrix(1,0,0,1,420.496,361.095)">
                <path d="M0,0C0.073,-0.619 0.419,-0.966 1.039,-1.039C1.731,-0.966 2.096,-0.619 2.133,0C2.096,0.62 1.731,0.967 1.039,1.039C0.419,0.967 0.073,0.62 0,0M-4.594,0C-4.521,-0.619 -4.175,-0.966 -3.555,-1.039C-2.898,-1.002 -2.552,-0.656 -2.516,0C-2.552,0.656 -2.898,1.003 -3.555,1.039C-4.175,0.967 -4.521,0.62 -4.594,0M-9.242,0C-9.206,-0.619 -8.841,-0.966 -8.148,-1.039C-7.529,-0.966 -7.183,-0.619 -7.109,0C-7.183,0.62 -7.529,0.967 -8.148,1.039C-8.841,0.967 -9.206,0.62 -9.242,0" style="fill:rgb(35,25,22);fill-rule:nonzero;"/>
            </g>
        </g>
        <g transform="matrix(8.33333,0,0,8.33333,0,0)">
            <g transform="matrix(1,0,0,1,448.496,361.095)">
                <path d="M0,0C0.072,-0.619 0.419,-0.966 1.039,-1.039C1.731,-0.966 2.096,-0.619 2.133,0C2.096,0.62 1.731,0.967 1.039,1.039C0.419,0.967 0.072,0.62 0,0M-4.594,0C-4.521,-0.619 -4.175,-0.966 -3.555,-1.039C-2.898,-1.002 -2.553,-0.656 -2.516,0C-2.553,0.656 -2.898,1.003 -3.555,1.039C-4.175,0.967 -4.521,0.62 -4.594,0M-9.242,0C-9.206,-0.619 -8.842,-0.966 -8.148,-1.039C-7.529,-0.966 -7.183,-0.619 -7.109,0C-7.183,0.62 -7.529,0.967 -8.148,1.039C-8.842,0.967 -9.206,0.62 -9.242,0" style="fill:rgb(35,25,22);fill-rule:nonzero;"/>
            </g>
        </g>
    </g>
</svg>
